<?xml version="1.0" encoding="utf-8"?>
<!-- Generator: Adobe Illustrator 23.0.1, SVG Export Plug-In . SVG Version: 6.00 Build 0)  -->
<svg version="1.1" xmlns="http://www.w3.org/2000/svg" xmlns:xlink="http://www.w3.org/1999/xlink" x="0px" y="0px"
	 viewBox="0 0 800 600" style="enable-background:new 0 0 800 600;" xml:space="preserve">
<style type="text/css">
	.st0{fill:#808080;}
	.st1{font-family:'Roboto-Regular';}
	.st2{font-size:14px;}
</style>
<g id="Andorra">
	<path class="st0" d="M618.576,388.885l-17.143,20.345l-20.125,9.413l-21.802,0.253l-21.429-7.834l-4.658-7.582l-5.031-2.022
		l-5.404,2.717l-6.522,7.645l-19.566,65.944l-57.765,24.438l-113.667,14.837l-10.062,11.49l-7.826,14.014l-11.367,13.887
		l-20.87,11.55L260.618,570l-109.195-14.58l-20.684-15.402V509.4l-51.989-81.343l30.56-13.962l10.249-2.653l35.591-25.716
		l-6.149-38.677l-31.678-28.318l-40.622,5.437l5.963-27.817l29.814-51.854l0.186-9.424l-15.093-10.247l2.236-23.09l10.062-24.739
		l8.013-14.744l39.877-16.327l27.764-96.545l57.02,2.976l52.92-20.329L323.042,30l97.828,67.248l19.752,9.306l204.973,20.256
		l-15.653,49.743l29.069,18.475l41.926,13.033l15.178,22.114l7.182,10.463l-45.28,4.238l-32.982,32.126l-19.938,50.832
		L618.576,388.885z"/>
</g>
<g id="Copyright">
	<text transform="matrix(1 0 0 1 681.6426 577.5916)" class="st1 st2">© Vemaps.com</text>
</g>
</svg>
