<?xml version="1.0" encoding="utf-8"?>
<!-- Generator: Adobe Illustrator 23.0.1, SVG Export Plug-In . SVG Version: 6.00 Build 0)  -->
<svg version="1.1" xmlns="http://www.w3.org/2000/svg" xmlns:xlink="http://www.w3.org/1999/xlink" x="0px" y="0px"
	 viewBox="0 0 800 600" style="enable-background:new 0 0 800 600;" xml:space="preserve">
<style type="text/css">
	.st0{fill:#808080;}
	.st1{font-family:'Roboto-Regular';}
	.st2{font-size:14px;}
</style>
<g id="Antigua_and_Barbuda">
	<path class="st0" d="M328.29,526.37l3.067-8.348l-2.499-7.13l0.256-6.269l11.332-5.883l-4.998-1.961l-14.512-8.022l7.696-7.28
		l12.382-5.349l16.074-4.814l-5.652-9.659l1.164-8.649l6.362-7.579l10.053-6.509l22.266,2.794l8.861,12.989l5.339,15.068
		l11.587,9.034l0.682-6.478l1.874-4.279l6.589-9.213l3.976,6.241l5.424,3.626l6.816,1.189l8.009-1.07l-3.408,3.863l-1.96,2.734
		l-2.954,1.961l-6.362,1.426l3.181,10.46l7.157,4.932l9.202-0.267l9.457-5.17h5.197l3.578,3.595l2.386,3.625l3.152,8.2l-4.743-0.357
		l-9.599,0.713l-4.743-0.357l6.475,8.14l5.992,3.892l3.408,3.921l-1.562,8.526l-7.867,12.654l-7.895,0.535l-9.031-4.634
		l-11.36-3.149l-5.424,2.644l-0.256,6.624l3.294,17.968L430.53,570l-11.445-5.523l-11.332-10.335l-4.942-5.524l-4.714,1.188
		l-14.285,7.009l-9.628,1.723l-14.541,0.089l-9.088-2.049l-22.294-13.603l-4.686-6.653L328.29,526.37z M359.473,128.415
		l-8.974,4.946l-3.834-10.547l-1.448-29.887l-3.181-13.441l-4.061-11.237l-2.868-11.476l0.568-14.28l2.556,2.415l1.079,2.385
		l1.136,5.664l4.26,8.883l11.076,13.383l3.692,7.719l-0.199,10.252l-2.755,8.672v6.883l8.179,4.648l3.465-13.648l1.022-18.656
		l-4.317-16.512l-12.553-7.065l-5.055-8.019l3.323-14.072L360.268,30l13.916,17.948l-4.686,2.802l-4.799,2.206l9.23,3.309
		l14.626-5.098l9.06,1.789l11.246,8.585l9.713,11.625l7.668,12.756l5.14,12.04l4.998,21.931l0.682,12.096l-1.306,11.44
		l-4.714,13.762l-4.8,2.502l-7.185-0.655l-11.928,4.349l-4.402-13.077l-12.411-9.294L359.473,128.415z"/>
</g>
<g id="Copyright">
	<text transform="matrix(1 0 0 1 681.6426 577.5911)" class="st1 st2">© Vemaps.com</text>
</g>
</svg>
