<?xml version="1.0" encoding="utf-8"?>
<!-- Generator: Adobe Illustrator 23.0.1, SVG Export Plug-In . SVG Version: 6.00 Build 0)  -->
<svg version="1.1" xmlns="http://www.w3.org/2000/svg" xmlns:xlink="http://www.w3.org/1999/xlink" x="0px" y="0px"
	 viewBox="0 0 800 600" style="enable-background:new 0 0 800 600;" xml:space="preserve">
<style type="text/css">
	.st0{fill:#808080;}
	.st1{font-family:'Roboto-Regular';}
	.st2{font-size:14px;}
</style>
<g id="Armenia">
	<path class="st0" d="M397.097,30l6.299,13.423l-1.715,4.772l0.941,2.806l2.921,1.263l11.12,0.012l2.912,0.947l8.912,7.012
		l2.208,3.213l0.22,3.597l-5.841,4.286l-16.838-0.712l-1.812,7.261l2.19,3.769l3.686,2.497l3.29,0.338l1.038-2.683l0.493-4.107
		l2.815,1.517l5.56,5.81l3.484,2.17l2.639,2.857l2.798,2.355l8.023,0.944l7.46,3.077l3.88,0.629l7.932-3.974l1.63-0.817l4.698-0.513
		l1.038,5.339l-1.496,7.295l2.094,2.283l2.402,0.635l1.697,0.448l4.504,3.715l7.284,9.406l2.692,2.758l3.466,1.117l4.012,0.291
		l2.956,1.57l0.308,4.978l-3.193,9.265l-4.487,5.124l-13.197,6.383l-6.879,3.326l-6.659,5.49l-4.284,7.553l-0.01,5.386l-0.008,4.169
		l2.428,5.204l3.273,3.233l3.44,2.722l2.965,3.718l0.669,2.212l0.387,4.955l0.783,2.407l1.575,1.771l3.528,2.337l1.434,2.603
		l5.507,11.772l10.082,9.464l39.658,22.544l0.133,0.147l7.239,8.006l3.413,0.184l1.154-0.339l2.418-0.71l3.73-0.231l2.481,1.314
		l2.446,2.386l4.372,5.796l0.317,1.29l0.114,1.313l-0.114,1.325l-3.088,14.323l-2.076,5.454l-3.246,4.371l-3.774,3.312l-0.633,1.69
		l-2.006,10.228l-1.161,2.367l-2.287,1.93l-11.894,1.171l-27.975-4.652l-10.777,7.006l0.224,2.202l0.312,3.068l5.402,2.445
		l17.753,1.836l4.654,2.306l3.686,4.096l7.619,15.707l1.301,2.681l7.671,7.674l3.627,1.861l5.61,2.879l10.741,3.251l4.654,4.555
		l6.563,13.358l5.349,4.298l6.457,1.874l2.93,1.657l2.454,3.027l3.994,7.595l2.498,2.398l3.783,1.176l5.912-1.233l11.63-5.972
		l5.824,0.423l2.41,1.976l4.012,5.446l2.551,1.849l3.361,0.582l10.75-1.027l2.745,0.605l2.824,1.849l2.085,2.853l0.51,3.639
		l-1.531,2.806l-2.481,1.54l-1.988,1.824l-0.053,3.648l1.17,2.325l-0.062,2.063l-1.161,1.618l-2.058,1.003l-0.061,0.012
		l-12.466,2.347l-5.402,3.349l-2.234,5.671l2.34,6.921l5.577,4.336l12.246,5.483l2.718,2.252l1.258,3.195l0.897,3.501l1.654,3.239
		l4.117,4.352l7.266,5.117l1.126,1.034l1.144,1.317l0.219,0.569l0.591,1.538l-1.496,0.738l-3.58,0.136l-7.891,5.642l-2.094,0.306
		l-10.346-5.267l-5.964-0.772l-3.924,3.678l0.167,6.753l4.355,4.345l5.665,3.227l4.117,3.328l2.146,7.209l0.95,6.221l-0.493,6.139
		l-2.234,6.957l-0.123,0.691l-0.246,0.628l-0.598,2.66l-0.29,2.71l0.167,2.664l0.721,2.556l5.912,12.515l-3.061-0.853l-17.735-7.936
		l-2.323-0.515l-1.812,0.237l-4.126,1.346l-6.607,0.266l-2.252,0.509l-3.299,1.611l-8.85,6.431l-2.973,1.446L590.055,570
		l-9.923-18.987l-8.868-24.816l-3.448-6.947l-4.425-6.36l-3.598-5.943l-1.548-5.77l1.038-5.59l4.108-5.427l1.152-1.482l0.352-1.584
		l-0.387-1.658l-1.117-1.727l-3.475-3.329l-9.71-4.77l-2.483-1.22l-4.064-3.161l-3.237-3.525l-3.501-2.866l-9.659-2.491
		l-0.448-1.045l-0.977-2.277l1.082-4.405l5.727-9.462l0.757-3.474l-1.54-10.074v-0.023l0.554-5.61l-0.035-3.741l-1.531-2.784
		l-3.853-2.784l-4.698-1.814l-3.95,0.068l-0.952,0.232l-20.874,5.085l-4.557,1.894l-13.688,8.747l-1.812,0.775l-1.9,0.969
		l-1.935,0.388l-1.918-0.296l-1.83-1.072l-0.024-0.025l-5.377-5.505l-2.974-1.562l-8.058-0.753l-2.481-1.004l-1.715-2.487
		l-2.015-4.587l-4.234-5.978l-1.062-1.499l-4.557,1.541l-4.839,4.509l-6.272,1.495l-3.334-2.146l-0.669-3.219l1.672-7.959
		l0.281-5.163l-0.739-4.091l-1.751-3.692l-11.279-14.478l-1.275-1.637l-5.789-2.918l-6.387,2.197l-6.281,4.863l-1.001,0.562
		l-4.436,2.492l-5.806,1.395l-7.443-0.114l-7.9,1.441l-4.83,2.127l-2.63-4.494l-10.442-13.766l-0.977-1.717l-0.827-0.744
		l-0.809-0.183l-1.9,0.298l-0.862-0.115l-3.149-1.935l-6.158-7.136l-2.27,1.398l-0.633-1.283l-0.053-2.498l-0.528-2.166
		l-2.569-1.891l-1.443-1.479l-0.633-1.926l-0.792-3.371l-1.918-3.234l-4.372-4.898l-9.844-8.607l-14.201-8.336l-9.411-5.526
		l-6.228-1.942h-5.753l-10.257,2.804l-4.874,0.609l-3.484,1.034l-1.777,0.241l-1.443-0.483L245.908,312l-1.672-0.448l-3.633,0.965
		l-5.921,4.17l-2.71,0.942l-20.48-3.492l-18.615-10.32l-15.589-4.45l-7.794-4.324l-2.199-6.42l2.358-2.21l7.706-1.68l1.663-2.878
		l-1.1-2.51l-5.314-6.565l-1.812-3.929l3.114-2.431l-0.174-0.404l-2.448-5.693l-7.574-9.895l-4.601-4.35l-1.742-3.497l1.161-3.659
		l1.452-2.494l2.536-8.527l0.147-0.494v-1.525l-6.888-5.906l-3.616-4.058l-0.704-2.949l5.824-6.964l3.677-2.557l4.029-0.486
		l-0.457-1.609l-0.281-0.671l-0.537-0.914l1.038,0.382l0.757,0.174l0.757,0.301l1.029,0.81l-0.176-5.371l2.27-4.632l7.214-8.492
		l-1.302-5.077l1.038-1.391l3.536-6.331l0.501-1.821l-0.889-15.552l-0.598-3.716l-1.583-4.217l-7.073-11.355l-1.742-4.465
		l-0.915-5.118l-0.378-4.515l-0.73-4.307l-1.953-4.424l-5.331-6.72l-6.712-5.593l-7.328-3.683l-7.284-1.049l-3.255-3.101l-2.71-6.45
		l-1.408-7.176l0.704-5.276l1.707,0.432l1.68,0.035l1.671-0.374l9.193-3.76l7.231-0.28l27.764,3.923l4.161-0.35l3.334-1.413
		l7.935-7.008l7.302-3.049l15.765-0.339l3.729-0.916l0.073-0.018l3.904-0.959l6.844-3.097l3.396-0.362l7.214,2.034l3.589-0.654
		l3.343-1.812l2.674-2.677l0.871-2.21l0.114-1.918l0.44-1.684l2.023-1.439l1.812-0.023l4.618,1.918l8.234,5.742l3.149,1.204
		l4.003-0.666l1.575-1.076l1.223-1.415l1.39-1.251l2.014-0.655l2.103,0.246l9.079,5.53l3.721,1.368l3.827,0.269l4.135-1.204
		l3.431-3.846l1.109-0.854l1.83-0.058l0.897,1.707l0.616,2.315l0.932,1.718l3.492,1.005l2.507-2.244l2.076-3.589l2.199-2.935
		l3.66-1.661l3.449,0.468l7.117,2.842l24.958,0.514l4.469-0.608l1.689-2.362l-0.661-0.943l-1.151-1.641l-6.387-3.089l-1.408-3.194
		l3.308-3.359l16.433,2.622l6.457-0.211l2.076-1.428l3.853-3.5L397.097,30z M393.191,77.144l-2.639,1.867l-0.554,3.127l1.064,3.406
		l2.129,2.753l6.176,2.122l2.428-5.201l-1.891-6.464L393.191,77.144z M432.427,102.88l1.795-2.493l-4.874-4.23l-0.704-0.128
		l-0.669,0.105l-0.598,0.338l-0.528,0.583l1.636,5.186L432.427,102.88z M484.137,185.174l-5.859-1.761l-1.021-2.156l-0.334-2.341
		l0.352-2.342l1.003-2.226l2.129-1.542l2.349-0.696l2.49-0.046l2.463,0.336l4.434,2.528l-2.305,5.854L484.137,185.174z"/>
</g>
<g id="Copyright">
	<text transform="matrix(1 0 0 1 681.6426 577.5916)" class="st1 st2">© Vemaps.com</text>
</g>
</svg>
