<?xml version="1.0" encoding="utf-8"?>
<!-- Generator: Adobe Illustrator 23.0.1, SVG Export Plug-In . SVG Version: 6.00 Build 0)  -->
<svg version="1.1" xmlns="http://www.w3.org/2000/svg" xmlns:xlink="http://www.w3.org/1999/xlink" x="0px" y="0px"
	 viewBox="0 0 800 600" style="enable-background:new 0 0 800 600;" xml:space="preserve">
<style type="text/css">
	.st0{fill:#808080;}
	.st1{font-family:'Roboto-Regular';}
	.st2{font-size:14px;}
</style>
<g id="Argentina">
	<path class="st0" d="M340.653,513.754l0.005-0.729l-0.077-0.211l-0.287-0.091l-0.972-0.235l-0.201-0.069l-0.374-0.247l-0.223-0.087
		l-2.446-0.411l-0.47-0.199l-1.832-1.087l-2.518-0.825l-3.359-0.11l-2.198-0.957l-2.084-0.908l-1.469-0.639l-0.997-0.017
		l-2.774-0.039l-2.774-0.039l-2.774-0.039l-2.775-0.039l-2.774-0.039l-2.774-0.041l-2.775-0.039l-2.774-0.039l-0.985-0.014
		l-0.585-0.388l0.062-0.852l0.144-0.637l-0.123-0.558l-0.286-0.459l-0.346-0.342l-0.772-0.979l-0.855-0.779l-0.553-0.372
		l-1.157-0.382l-0.241-0.199l-0.165-0.396l-0.106-1.096l-0.1-0.334l-0.254-0.315l-0.298-0.078l-0.324,0.004l-0.334-0.074
		l-0.258-0.462l0.341-0.599l0.875-0.917l0.036-0.151l-0.01-0.184l-0.024-0.19l-0.008-0.177l0.042-0.196l0.081-0.149l0.089-0.13
		l0.067-0.149l0.067-0.355l0.003-1.11l0.035-0.431l0.087-0.287l0.528-0.756l0.144-0.282l0.015-0.286l-0.202-0.272l-0.929-0.645
		l-0.403-0.457L292,489.504l-0.018-0.397l0.099-0.269l0.349-0.498l0.214-0.391l0.149-0.19l0.198-0.085l0.357-0.067l0.202-0.428
		l0.137-0.911l0.113-1.67l-0.083-0.757l-0.252-0.499l-0.335-0.427l-0.332-0.547l-0.114-0.34l-0.004-0.275l0.083-0.269l0.444-0.975
		l0.025-0.311l-0.235-0.142l-0.287-0.082l-0.469-0.331l-1.509-0.369l-0.531,0.268l-0.849,1.003l-0.547,0.02l-0.247-0.16
		l-0.626-0.684l-0.274-0.152l-0.279,0.062l-1.531,0.91l-0.437,0.365l-0.882,0.992l-0.512,0.416l-0.546,0.249l-0.534-0.008
		l-0.47-0.404l-0.111-0.637l0.018-0.743l-0.086-0.72l-0.128-0.289l-0.519-0.717l-0.156-0.318l-0.052-0.318l0.001-1.114l-0.151-1.041
		l-0.021-0.379l0.037-0.788l-0.018-0.391l-0.125-0.606l-0.21-0.645l-0.265-0.601l-0.288-0.475l-0.231-0.225l-0.501-0.288
		l-1.535-1.463l-0.134-0.52l0.123-0.587l0.624-1.158l0.027-0.253l-0.109-0.35l-0.157-0.239l-0.667-0.603l-0.225-0.283l0.053-0.235
		l0.177-0.229l0.148-0.259l0.045-0.339l-0.007-0.29l0.053-0.266l0.65-0.696l0.229-0.457l-0.026-0.518l-0.339-0.612l-0.396-0.415
		l-0.181-0.254l-0.085-0.303l0.07-0.328l0.155-0.287l0.122-0.302l-0.036-0.371l-0.146-0.285l-0.36-0.422l-0.164-0.237l-0.154-0.355
		l0.018-0.2l0.377-0.415l0.164-0.323l-0.022-0.254l-0.079-0.272l-0.005-0.364l0.132-0.307l0.223-0.209l0.473-0.303l0.21-0.248
		l0.057-0.238l-0.104-0.619l-0.008-0.472l0.163-0.179l3.849-0.076l0.046-0.341l0.131-0.129l0.399-0.113l0.008-0.117l-0.799-0.158
		l-0.097-0.138l-0.156-0.223l-0.015-0.467l0.16-0.469l0.789-1.025l0.124-0.255l0.028-0.237l-0.003-0.243l0.035-0.278l0.169-0.419
		l0.75-1.134h0.001l0.095-0.147l0.493-0.488l0.583-0.227l1.197-0.145l0.538-0.199l0.471-0.376l0.873-0.951l0.654-0.81l0.326-0.533
		l0.125-0.571l0.051-0.721l-0.076-1.974l-0.275-1.023l-0.1-0.947l0.467-1.074l0.479-0.387l0.509-0.299l0.779-0.274l0.202-0.17
		l0.345-0.498l0.142-0.258l0.071-0.073l0.157-0.063l0.17,0.013l0.362,0.122l0.161-0.052l0.089-0.264l-0.106-0.319l-0.17-0.315
		l-0.099-0.248l0.018-0.313l0.155-0.695l0.025-0.365l-0.292-2.22l-0.121-0.375l-0.418-0.152l-0.135-0.08l-0.092-0.128l-0.029-0.158
		l-0.013-0.167l-0.046-0.167l-0.204-0.268l-0.218-0.099l-0.236-0.057l-0.263-0.135l-0.393-0.382l-0.318-0.499l-0.106-0.569
		l0.242-0.59l0.292-0.546l0.32-1.284l0.21-0.617l1.162-2.086l0.137-0.306l0.09-0.292l0.055-0.311l0.029-0.356l0.221-0.979
		l-0.015-0.247l-0.205-0.19l-0.256-0.083l-0.15-0.162l0.114-0.429l0.179-0.267l0.22-0.178l0.499-0.209l0.31-0.021l0.662,0.117
		l0.268-0.051l0.207-0.18l0.31-0.468l1.076-1.269l0.243-0.452l0.107-0.315l-0.014-0.182l-0.076-0.182l-0.079-0.303l-0.024-0.309
		l0.045-0.219l0.137-0.112l0.252,0.011l0.788,0.535l0.409,0.124l0.392-0.229l0.214-0.459l0.009-0.501l-0.142-0.477l-0.238-0.383
		l-0.33-0.264l-0.788-0.474l-0.257-0.336l0.064-0.357l0.803-0.502l0.245-0.287l-0.146-0.265l-0.413-0.389l-0.125-0.248l0.009-0.261
		l0.202-1.066l0.056-0.13l0.084-0.119l0.069-0.119l0.01-0.147l-0.057-0.141l-0.076-0.128l-0.055-0.136l0.008-0.173l0.197-0.26
		l0.328-0.084l0.636-0.007l0.267-0.106l0.179-0.173l0.324-0.501l0.212-0.232l0.687-0.404l0.406-0.458l0.086-0.547l-0.189-1.298
		l0.029-0.322l0.092-0.274l0.065-0.281l-0.054-0.338l-0.824-2.254l-0.12-0.625l-0.017-0.704l0.045-0.812l-0.05-0.506l-0.239-0.353
		l-0.74-0.507l-0.595-0.59l-0.113-0.072l-0.111-0.04l-0.064-0.077l0.026-0.182l0.1-0.103l0.172-0.051l0.912-0.117l0.296-0.086
		l0.272-0.165l0.175-0.213l0.252-0.522l0.147-0.24l0.915-1.032l0.454-0.511l-0.149-0.644l-0.208-0.503l-0.302-0.384l-0.43-0.274
		l-0.521-0.194l-0.188-0.166l-0.079-0.303l0.059-0.266l0.106-0.248l0.03-0.266l-0.17-0.319l-0.322-0.313l-0.116-0.193l-0.04-0.281
		l0.028-0.122l0.195-0.328l0.039-0.16l-0.027-0.115l-0.045-0.106l-0.019-0.131l0.025-0.289l0.043-0.198l0.219-0.444l0.07-0.085
		l0.09-0.089l0.077-0.1l0.03-0.116l-0.046-0.124l-0.187-0.194l-0.041-0.067l0.191-0.407l0.441-0.281l0.512-0.169l0.404-0.064
		l0.954,0.069l0.441-0.087l0.452-0.359l0.135-0.277l-0.039-0.259l-0.249-0.511l-0.107-0.357l0.025-0.176l1.235-0.52l0.228-0.139
		l0.185-0.203l0.29-0.461l0.202-0.175l0.28-0.409l-0.069-0.564l-0.264-0.576l-0.303-0.444l-0.396-0.399l-0.659-0.471l-0.47-0.622
		l-0.121-0.204l-0.223-0.8l-0.493-1.044l-0.413-0.482l-0.434-0.056l-0.464,0.074l-0.5-0.095l-0.2-0.162l-0.322-0.413l-0.185-0.153
		l-0.278-0.077l-0.285,0.032l-0.28,0.104l-0.262,0.142l-0.488,0.067l-0.493-0.234l-0.495-0.321l-0.494-0.187l-0.535,0.04
		l-0.249-0.081l-0.092-0.271l0.075-0.579l0.009-0.28l-0.18-0.941l0.154-0.382l0.35-0.104l0.467,0.186l0.273,0.12l1.637,0.321
		l0.285-0.048l0.224-0.167l0.15-0.204l0.174-0.165l0.298-0.05l0.279,0.057l0.828,0.362l0.51,0.025l1.117-0.512l0.533-0.131
		l0.492,0.161l0.963,0.688l0.528,0.169l0.469-0.104l0.431-0.321l0.303-0.507l0.088-0.664l-0.102-0.608l-0.016-0.281l0.071-0.334
		l0.264-0.548l0.172-0.266l0.13-0.12l0.265-0.011l0.245-0.057l0.193-0.177l0.114-0.366l-0.003-0.33l-0.098-0.171l-0.148-0.139
		l-0.157-0.237l-0.089-0.296l-0.037-0.26l-0.07-0.244l-0.184-0.244l-0.289-0.18l-0.31-0.064l-0.638-0.009l-1.858-0.376l-2.527,0.018
		l-0.629-0.158h-0.535l-0.528,0.16l-0.509,0.009l-0.474-0.448l-0.044-0.309l0.204-0.19l0.278-0.128l0.179-0.121l0.079-0.323
		l-0.094-0.245l-0.151-0.236l-0.097-0.286l0.048-0.311l0.266-0.508l0.015-0.298l-0.091-0.298l-0.389-0.729l-0.18-0.643l0.289-0.23
		l0.486-0.143l0.412-0.375l0.208-0.327l0.931-1.457l0.127-0.343l-0.008-0.229l-0.688-1.154l-0.159-0.213l-0.1-0.076l-0.233-0.123
		l-0.074-0.104l-0.03-0.19l0.043-0.13l0.064-0.118l0.033-0.155l-0.025-0.379l-0.086-0.042l-0.166,0.115l-0.266,0.088l-0.226-0.109
		l-0.046-0.278l0.071-0.317l0.125-0.229l0.207-0.15l0.518-0.204l0.229-0.134l0.203-0.222l0.068-0.216l-0.086-0.979l-0.044-0.202
		l-0.116-0.126l-0.522-0.386l-0.081-0.077l-0.075-0.102l-0.057-0.104l-0.078-0.102l-0.134-0.088l-0.28-0.035l-0.341,0.007
		l-0.279-0.061l-0.095-0.245l0.04-0.09l0.24-0.338l0.002-0.011l0.004-0.359l-0.129-0.252l-0.213-0.156l-0.247-0.07l-0.126,0.028
		l-0.128,0.067l-0.128,0.035l-0.124-0.063l-0.095-0.163l0.053-0.084l0.107-0.074l0.065-0.128l-0.053-0.48l0.001-0.112l0.075-0.152
		l0.092-0.079l0.097-0.065l0.089-0.11l0.039-0.136l0.022-0.509l0.069-0.129l0.151-0.047l0.313-0.028l0.488-0.239l0.237-0.058
		l0.544,0.117l0.125-0.196l0.028-0.309l-0.014-0.302l-0.023-0.138l-0.069-0.265l-0.008-0.168l0.031-0.152l0.116-0.289l0.033-0.154
		l-0.088-0.298l-0.246-0.187l-1.129-0.476l-1.82-0.216l-0.549-0.253l-0.512-0.453l-0.409-0.611l-0.237-0.732l0.079-0.589
		l0.278-1.094l0.084-0.583l-0.106-2.417l-0.054-0.265l-0.175-0.569l-0.02-0.237l0.111-0.401l0.011-0.128l-0.038-0.156l-0.133-0.238
		l-0.037-0.131l0.064-0.594l0.253-0.454l0.367-0.319l0.626-0.329l0.034-0.164l-0.081-0.19l-0.362-0.601l-0.018-0.174l0.197-0.907
		l-0.113-0.315l-0.636-0.615l-0.149-0.423l0.111-0.404l0.267-0.373l0.318-0.326l0.224-0.393l0.093-0.45l0.141-0.429l0.37-0.331
		l0.398,0.01l0.198,0.324l0.164,0.372l0.298,0.159l0.176-0.077l0.107-0.153l0.087-0.173l0.116-0.139l0.153-0.076l0.867-0.156
		l0.347-0.171l0.291-0.259l0.162-0.339l-0.041-0.861l-0.053-0.125l-0.23-0.281l-0.083-0.129l-0.14-0.218l0.01-0.234l0.059-0.263
		l0.008-0.284l-0.242-1.186l-0.254-0.49l-0.299-0.404l-0.221-0.449l-0.021-0.619l-0.128-0.545l-0.701-1.03l-0.001-0.495l0.174-0.209
		l0.42-0.252l0.175-0.172l0.126-0.282l-0.044-0.187l-0.138-0.178l-0.155-0.253l-0.091-0.279l-0.008-0.207l0.092-0.489l0.029-0.317
		l-0.012-0.236l-0.055-0.226l-0.099-0.288l-0.143-0.619l0.021-0.52l0.302-1.083l0.053-0.337l-0.032-0.255l-0.154-0.544l-0.012-0.336
		l0.099-0.117l0.124-0.096l0.067-0.267l0.04-0.584l0.106-0.584l0.014-0.354l-0.176-0.604l-0.003-0.162l-0.003-0.183l0.2-0.674
		v-0.315l-0.104-0.406l-0.135-0.288l-0.49-0.743l-0.13-0.363l-0.423-1.745l0.073-0.179l0.938-1.009l0.249-0.498l0.066-0.596
		l-0.039-0.151l-0.119-0.176l-0.015-0.157l0.038-0.119l0.221-0.427l0.451-1.449l0.095-0.192l0.144-0.052l0.523,0.154l0.16,0.008
		l0.126-0.135l0.499-1.175l0.055-0.26l0.004-0.167l-0.018-0.158l-0.05-0.14l-0.091-0.108l-0.148-0.093l-0.083-0.013l-0.16,0.07
		l-0.067,0.06l-0.022,0.085l-0.052,0.053l-0.156-0.033l-0.091-0.08l-0.254-0.393l-0.384-0.4l-0.173-0.245l-0.095-0.275l0.017-0.117
		l0.108-0.236l0.018-0.057l-0.057-0.163l0.003-0.163l0.091-0.492l0.052-0.148l0.024-0.138l-0.052-0.123l-0.091-0.141l0.006-0.108
		l0.164-0.213l0.418-0.045l0.554,0.273l0.467,0.083l0.157-0.615l-0.027-0.168l-0.094-0.341l-0.025-0.178l0.029-0.138l0.075-0.081
		l0.088-0.063l0.064-0.086l0.458-1.029l0.101-0.34l-0.056-0.237l-0.164-0.186l-0.427-0.389l-0.125-0.182l-0.064-0.23l-0.029-0.351
		l-0.062-0.346l-0.228-0.68l-0.048-0.339l0.069-0.286l0.123-0.291l0.059-0.268l-0.271-0.459l-0.033-0.342l0.054-0.352l0.11-0.284
		l0.193-0.242l0.152,0.002l0.447,0.503l0.107,0.121l0.179,0.145l0.21,0.046l0.299-0.078l0.264-0.03l0.225,0.046l0.205-0.011
		l0.203-0.213l0.097-0.576l-0.57-0.531l0.324-0.495l0.175-0.208l0.233-0.433l0.148-0.191l0.108-0.244l-0.197-0.504l0.013-0.306
		l0.196-0.252l0.264-0.178l0.232-0.22l0.1-0.385l0.124-1.303l-0.132-2.148l-0.226-1.182l0.009-0.426l0.178-1.009l0.195-0.392
		l0.359-0.356l1.119-0.598l0.32-0.276l0.157-0.225l0.061-0.108l0.099-0.044l0.925-0.158l0.196-0.104l0.716-0.555l0.372-0.165
		l0.473-0.005l0.526,0.07l0.273-0.055l0.191-0.181l0.174-0.372l0.072-0.091l0.371-0.186l0.068-0.051l0.018-0.155l-0.057-0.104
		l-0.074-0.098l-0.035-0.13l0.009-0.174l0.021-0.101l0.128-0.241l0.311-0.438l0.125-0.244l0.04-0.315l-0.177-0.579l-0.383-0.387
		l-0.461-0.315l-0.408-0.37l-0.286-0.546l-0.528-2.51l-0.038-0.476l0.023-0.479l0.11-0.523l0.004-0.042l-0.004-0.04l-0.012-0.044
		l-0.076-0.291l-0.085-0.325l-0.006-0.286l0.167-0.262l0.031-0.087l0.01-0.087l-0.01-0.089l-0.031-0.086l-0.338-0.452l-0.111-0.255
		l-0.069-0.328l-0.112-0.326l-0.326-0.597l-0.09-0.667l-0.472-0.918l-0.637-2.061l-0.089-0.702l0.018-0.324l0.085-0.22l0.141-0.177
		l0.188-0.186l0.296-0.185l0.064-0.096l0.008-0.183l-0.151-0.276l-0.027-0.17l0.065-0.303l0.191-0.59l0.039-0.308l-0.066-0.36
		l-0.164-0.282l-0.392-0.519l-0.326-0.744l-0.122-0.435l-0.012-0.352l0.103-0.275l0.488-0.605l0.137-0.323l0.012-0.3l-0.031-0.302
		l0.004-0.326l0.102-0.332l0.174-0.204l0.443-0.257l-0.465-0.399l-0.156-0.245l-0.112-0.742l-0.091-0.166l-0.386-0.245l-0.243-0.223
		l0.079-0.014l0.241,0.059l0.242,0.003l0.223-0.154l0.094-0.215l-0.055-0.215l-0.355-0.24l0.006-0.116l0.06-0.124l0.032-0.116
		l0.006-0.129l0.025-0.054l-0.003-0.065l-0.079-0.162l-0.097-0.092l-0.12-0.049l-0.109-0.07l-0.064-0.156l0.021-0.14l0.076-0.133
		l0.088-0.124l0.062-0.116l0.31-0.835l0.058-0.298l-0.025-0.569l0.044-0.241l0.189-0.174l0.245,0.025l0.237,0.168l0.218,0.113
		l0.192-0.141l0.026-0.251l-0.18-1.035l0.013-0.573l0.092-0.704l0.223-0.552l0.19-0.049l0.22-0.056l0.25,0.089l0.229,0.033
		l0.22-0.046l0.224-0.152l0.143-0.242l0.087-0.572l0.104-0.216l0.214-0.073l0.268,0.065l0.489,0.232l0.105,0.073l0.074,0.082
		l0.088,0.052l1.089-0.288l0.12-0.174l0.004-0.355l-0.061-0.18l-0.191-0.325l-0.038-0.193l0.031-0.134l0.21-0.385l0.013-0.131
		l-0.027-0.125l-0.014-0.126l0.054-0.144l0.091-0.088l0.113-0.052l0.232-0.065l0.165-0.12l0.455-0.601l0.058-0.044l0.139-0.066
		l0.053-0.05l0.037-0.099l0.013-0.197l0.024-0.085l0.121-0.296l0.087-0.107l0.161-0.063l0.283,0.057l0.568,0.318l0.344-0.017
		l0.242-0.156l0.202-0.243l0.053-0.106l0.099-0.195l0.148-0.5l0.078-0.142l0.214-0.239l0.081-0.194l-0.041-0.236l-0.357-0.937
		l0.002-0.176l0.093-0.289l0.067-0.085l0.1-0.082l0.082-0.094l0.014-0.121l-0.087-0.112l-0.266,0.035l-0.104-0.066l0.007-0.538
		l0.774-0.806l-0.052-0.488l-0.182-0.329l-0.555-1.541l-0.015-0.239l0.129-0.552l0.004-0.302l-0.075-0.603l0.121-0.625l-0.101-0.228
		l-0.18-0.202l-0.177-0.251l-0.292-1.003l-0.032-0.231l0.14-0.126l0.243-0.064l0.15-0.147l-0.14-0.376l-0.437-0.273l-0.559-0.067
		l-0.489-0.17l-0.227-0.583l0.443-0.76l1.923-0.641l0.223-1.046l-0.048-1.048l-0.002-0.041l0.232-1.072l0.947-2.325l-0.049-0.178
		l-0.149-0.132l-0.181-0.217l-0.108-0.262l0.084-0.088l0.201-0.048l0.246-0.142l0.258-0.467l0.12-1.142l0.18-0.51l0.229-0.259
		l0.509-0.442l0.21-0.302l0.275-0.727l0.173-0.33l0.575-0.489l0.109-0.28l-0.009-0.34l-0.052-0.436l-0.011-0.45l0.085-0.332
		l0.116-0.115l0.096-0.096l0.629-0.118l0.259,0.014l0.255,0.057l0.442,0.16l0.069-0.057l0.013-0.103l0.031-0.077l0.855-0.378
		l0.048-0.148l-0.104-0.357l-0.305-0.583l-0.08-0.2l-0.057-0.249l0.011-0.134l0.048-0.124l0.055-0.224l0.105-1.134l-0.004-0.689
		l-0.121-0.402l-0.23-0.052l-0.197,0.072l-0.114-0.049l0.018-0.412l0.116-0.578l0.017-0.26l-0.215-1.153l0.006-0.32l0.095-0.173
		l0.418-0.338l0.154-0.164l0.004-0.222l-0.333-0.483l-0.106-0.243l0.018-0.289l0.258-0.838l-0.01-0.156l-0.041-0.128l-0.022-0.13
		l0.043-0.157l0.074-0.066l0.246-0.095l0.096-0.055l0.041-0.172l0.049-0.686l0.04-0.242l0.127-0.225l0.321-0.416l0.095-0.227
		l-0.011-0.292l-0.222-0.518l-0.101-0.807l-0.282-0.35l-0.404-0.237l-0.438-0.167l-0.434,0.068l-0.533,0.759l-0.322,0.068
		l-0.383-0.885l-0.131-0.201l-0.417-0.353l-0.186-0.213l-0.106-0.254l-0.004-0.296l0.216-0.847l-0.041-0.3l-0.121-0.241l-0.01-0.034
		l-0.063-0.208l0.101-0.296l0.173-0.147l0.399-0.102l0.172-0.127l0.101-0.23l0.123-0.618l0.088-0.267l0.209-0.404l-0.001-0.182
		l-0.174-0.133l-0.276-0.114l-0.216-0.132l-0.405-0.403l-0.649-0.805l-0.193-0.437l-0.304-1.582l-0.008-0.331l0.029-0.272
		l0.035-0.124l0.065-0.113l0.289-0.009l0.115-0.045l-0.248-0.388l-0.023-0.252l0.02-0.273l-0.033-0.309l-0.143-0.297l-0.197-0.166
		l-0.477-0.276l-0.222-0.447l0.036-1.073l-0.169-0.233l-0.161-0.221l-0.287-0.117l-0.212-0.039l-0.149-0.119l-0.098-0.358
		l-0.001-0.126l0.035-0.263l-0.004-0.132l-0.044-0.147l-0.006-0.02l-0.145-0.31l-0.03-0.177l0.02-0.131l0.087-0.24l0.02-0.134
		l-0.046-0.096l-0.205-0.156l-0.053-0.14l0.008-0.281l-0.024-0.114l-0.084-0.128l-0.204-0.219l-0.055-0.129l0.02-0.165l0.174-0.164
		l0.258,0.043l0.52,0.209l0.312-0.013l0.114-0.131l0.101-0.535l0.117-0.214l0.124-0.168l0.073-0.19l-0.034-0.279l-0.138-0.24
		l-0.238-0.271l-0.261-0.232l-0.21-0.129l-0.54-0.081l-0.452,0.016l-0.422-0.109l-0.441-0.461l-0.136-0.263l-0.108-0.325
		l-0.055-0.344l0.027-0.618l-0.129-0.241l-0.375-0.438l-0.653-1.329l-0.117-0.355l-0.02-0.261l0.123-0.634l0.043-0.531l-0.013-0.532
		l0.044-0.274l0.216-0.45l0.039-0.271l-0.065-0.307l-0.09-0.268l-0.022-0.271l0.273-0.571l0.048-0.256l-0.006-0.556l0.024-0.287
		l0.067-0.224l0.69-1.09l0.148-0.105l0.242,0.119l0.092,0.305l0.061,0.324l0.15,0.178l0.181-0.053l0.192-0.178l0.15-0.23
		l0.105-0.423l0.122-0.275l0.279-0.45l0.232-0.116l0.525,0.083l0.145-0.043l-0.013-0.181l-0.151-0.194l-0.353-0.317l-0.203-0.237
		l-0.124-0.224l-0.049-0.257l0.243-1.969l0.178-0.506l0.061-0.105l0.219-0.291l0.075-0.175l-0.005-0.142l-0.034-0.143l-0.006-0.179
		l0.048-0.287l0.071-0.226l0.239-0.439l0.189-0.499l0.225-1.093l0.248-0.404l0.213-0.139l0.196-0.099l0.155-0.149l0.089-0.288
		l-0.059-0.298l-0.308-0.52l0.004-0.251l0.326-0.153l1.017,0.504l0.419,0.112l0.44-0.128l0.367-0.19l0.327-0.274l0.318-0.371
		l0.115-0.24l0.036-0.261l0.022-0.539l0.05-0.264l0.04-0.13l0.055-0.113l0.113-0.112l0.242-0.109l0.104-0.091l0.162-0.529
		l-0.172-0.501l-0.381-0.382l-0.467-0.17l-0.48,0.07l-0.192-0.047l-0.088-0.241l0.059-0.197l0.422-0.648l0.164-0.515l0.071-0.528
		l0.081-1.9l-0.166-1.238l-0.003-0.006l-0.105-0.186l-0.315-0.272l-0.119-0.275l0.003-0.325l0.05-0.426l0.005-0.421l-0.285-1.346
		l-0.056-0.165l-0.074-0.153l-0.096-0.134l-0.117-0.73l-0.091-0.204l-0.108-0.184l-0.085-0.195l-0.023-0.239l0.047-0.686
		l0.117-0.287l0.26-0.152l0.125-0.049l0.129-0.079l0.111-0.103l0.069-0.13l-0.017-0.104l-0.147-0.189l-0.017-0.079l0.055-0.086
		l0.061-0.035l0.062-0.022l0.193-0.172l0.329-0.214l0.131-0.125l0.082-0.167l0.007-0.103l0.046-0.079l0.202-0.084l0.617-0.112
		l0.271-0.13l0.226-0.301l0.082-0.31l0.018-0.374l-0.073-0.705l-0.057-0.279l-0.004-0.285l0.047-0.28l0.095-0.269l0.119-0.211
		l0.151-0.184l0.072-0.119l0.011-0.118l-0.005-0.116l0.025-0.126l0.357-0.649l0.038-0.254l-0.044-0.308l-0.181-0.598l-0.06-0.31
		l0.031-0.481l0.154-0.459l0.231-0.42l0.261-0.368l0.094-0.065l0.099-0.028l0.083-0.055l0.044-0.151l0.03-1.476l0.225-0.793
		l0.012-0.044l0.562-0.581l0.662-0.537l0.534-0.703l0.109-0.24l0.132-0.726l0.176-0.146l0.247,0.11l0.251,0.177l0.189,0.058
		l0.104-0.141l0.271-0.565l0.279-0.441l0.447-1.087l0.235-0.222l0.01-0.101l-0.035-0.092l0.008-0.114l0.121-0.209l0.15-0.141
		l0.196-0.091l0.729-0.2l0.316-0.239l0.211-0.38l0.479-2.111l0.12-0.527l0.075-0.171l0.122-0.088l0.335-0.167l0.065-0.106
		l-0.052-0.204l-0.092-0.171l-0.071-0.177l0.011-0.227l0.084-0.151l0.277-0.268l0.112-0.144l0.311-0.671l0.118-0.374l0.034-0.335
		l-0.044-0.184l-0.008-0.188l0.038-0.179l0.089-0.16l0.204-0.155l0.43-0.231l0.197-0.169l0.138-0.189l0.595-1.389l0.046-0.228
		l-0.025-0.546l0.02-0.243l0.11-0.319l0.513-0.863l0.181-0.217l0.163-0.104l0.453-0.113l0.562,0.029l0.44,0.28l0.411,0.336
		l0.477,0.2l0.306-0.04l0.129-0.186l0.076-0.274l0.145-0.306l0.217-0.236l0.268-0.186l0.292-0.114l0.629-0.027l0.257-0.064
		l0.551-0.243l0.134-0.013l0.353,0.029l0.09-0.009l0.025-0.104l-0.034-0.348l0.025-0.167l0.065-0.264l0.202-0.502l0.065-0.248
		l-0.04-0.395l-0.182-0.385l-2.338-3.321l-0.418-0.548l-0.319-0.532l-0.212-0.583l-0.097-0.7l0.017-1.08l0.081-0.558l0.15-0.474
		l0.357-0.472l1.553-1.232l0.133-0.48l-0.099-0.694l-0.853-3.517l-0.149-1.116l-0.112-0.356l-0.176-0.318l-0.239-0.25l-0.222-0.332
		l-0.02-0.379l0.017-0.364l-0.113-0.283l0.17-0.207l-0.142-0.285l-0.447-0.559l-0.066-0.242l-0.021-0.255l0.049-0.507l0.637-1.985
		l0.47-1.464l0.241-0.321l0.042-0.056l0.234-0.142l0.193-0.007l0.202,0.044l0.261,0.008l0.265-0.053l0.246-0.11l0.154-0.181
		l-0.009-0.272l-0.266-0.351l-0.388-0.358l-0.284-0.408l0.042-0.508l0.034-0.13l-0.03-0.088l-0.063-0.081l-0.062-0.104l-0.048-0.063
		l-0.139-0.107l-0.048-0.063l-0.007-0.064l0.013-0.069l0.022-0.052l0.014-0.014l-0.09-0.192l-0.077-0.114l-0.131-0.05l-0.249-0.004
		l-0.091-0.074l-0.295-0.171l-0.116-0.118l-0.051-0.09l-0.281-0.724l-0.007-0.231l0.076-0.296l0.628-1.281l0.137-0.46l0.027-0.196
		l0.053-0.196l0.1-0.143l0.169-0.041l0.234,0.332l0.139,0.081l0.088-0.259l0.082-0.412l0.493-1.071l0.219-0.127l0.214,0.042
		l0.215,0.076l0.223-0.021l0.157-0.148l0.458-0.743l0.12-0.38l0.058-0.101l0.221-0.154l0.411-0.174l0.618-0.261l0.617-0.261
		l0.617-0.262l0.618-0.261l1.538-0.69l1.538-0.69l1.538-0.691l1.537-0.688l0.112-0.045l0.245-0.095l0.246-0.096l0.111-0.045
		l0.491-0.189l0.614-0.34l0.278-0.401l0.266-0.881l0.411-1.36l0.411-1.359l0.042-0.139l0.864-2.853l0.864-2.849l0.863-2.843
		l0.218-0.715l0.069-0.417l-2.214-2.384l0.63-1.06l0.362-0.436l0.93-0.74l0.136-0.203l0.028-0.291l-0.103-1.239l0.21-0.01
		l0.272,0.026l0.189-0.044l0.159-0.109l0.119-0.182l0.249-0.268l0.328-0.173l1.38-0.435l0.14-0.096l0.008-0.138l-0.074-0.385
		l0.031-0.11l0.158-0.198l0.089-0.301l0.146-0.988l0.089-0.311l0.16-0.264l0.284-0.247l0.167-0.076l0.134,0.012l0.136,0.045
		l0.241,0.03l0.202,0.069l0.062-0.016l0.038-0.085l0.033-0.1l0.047-0.063l1.432-0.394l1.634-0.476l0.298-0.232l0.05-0.125
		l0.076-0.129l0.095-0.108l0.105-0.066l0.155-0.021l0.052,0.032l0.027-0.015l0.075-0.16l0.053-0.195l0.118-1.239l0.585-2.181
		L368.041,30l1.041,0.338l0.533,0.271l0.38,0.412l0.146,0.644l0.064,0.071l1.132,0.2l0.268,0.152l1.576,1.875l0.36,0.255
		l0.378,0.119l1.714-0.199l0.091-0.045l0.055-0.06l0.06-0.051l0.106-0.011l0.854,0.125l0.654,0.074l3.283-0.039l2.093-0.025
		l2.312,0.543l0.863,0.49l0.485,0.118l0.113-0.021l0.227-0.1l0.096-0.018l0.103,0.034l0.262,0.04l0.235,0.176l0.276,0.14
		l0.247,0.058l0.115,0.082l0.328,0.404l0.103,0.158l0.112,0.272l0.006,0.213l-0.085,0.184l-0.159,0.192l-0.122,0.311l0.162,0.232
		l0.258,0.181l0.164,0.147l0.016,0.144l-0.096,0.257l-0.003,0.135l0.069,0.098l0.221,0.146l0.046,0.08l0.073,0.304l0.177,0.245
		l0.682,0.681l-0.019,0.197l-0.091,0.136l-0.102,0.118l-0.048,0.145l-0.013,0.134l-0.059,0.26l-0.013,0.152l0.031,0.198l0.08,0.077
		l0.111,0.043l0.122,0.095l0.327,0.711l0.135,0.109l0.268,0.123l0.163,0.296l0.042,0.363l-0.094,0.319l0.151,0.186l0.047,0.624
		l0.229,0.11l-0.02-0.17l0.289-1.026l0.109-0.259l0.008-0.961l0.531-2.001l0.178-0.319l0.635-0.605l0.297-0.436l0.914-2.402
		l0.091-0.097l0.247-0.136l0.096-0.148l0.384-0.98l0.189-0.745l0.108-0.217l0.065-0.048l0.085-0.026l0.094-0.047l0.095-0.097
		l0.043-0.106l0.045-0.258l0.118-0.298l0.006-0.078l0.041-0.042l0.177-0.077l0.329-0.062l1.148,0.078l0.247,0.112l0.507,0.454
		l0.14,0.064l0.572-0.512l0.198-0.111l0.473-0.082l3.869,0.022l3.869,0.022l0.006-0.001l1.82-0.099l0.535,0.102l0.175,0.042
		l0.037,0.125l0.078,0.501l-0.001,0.132l-0.034,0.11l0.083,0.162l0.002,0.42l0.092,0.235l0.174,0.184l0.582,0.286l0.526,0.379
		l0.146,0.156l0.052,0.12l0.017,0.119l0.035,0.095l0.106,0.037l0.123,0.023l0.105,0.06l0.086,0.087l0.064,0.103h-0.084l0.076,0.179
		l-0.048,0.139l-0.081,0.117l-0.023,0.11l0.091,0.121l0.149,0.085l0.167,0.049l0.139,0.017l0.29,0.074l0.21,0.177l0.298,0.393
		l0.156,0.07l0.494,0.155l0.106,0.092l0.086,0.201l0.208,0.21l0.859,0.596l0.24,0.092l0.091,0.012l0.438,0.059l0.138,0.041
		l0.09,0.055l0.033,0.063l0.011,0.068l-0.003,0.147l0.03,0.096l0.071,0.019l0.083-0.007l0.067,0.019l0.273,0.319l0.098,0.238
		l-0.069,0.223l-0.174,0.241l0.002,0.167l0.161,0.135l0.305,0.14l0.153,0.039l0.073-0.01l0.044,0.024l0.066,0.138l-0.086,0.293
		l-0.005,0.174l0.235,0.15l-0.152,0.313l0.05,0.072l0.165,0.048l0.083,0.115l0.053,0.15l0.077,0.142l0.336,0.372l0.044,0.099
		l0.034,0.12l0.048,0.102l0.087,0.043l0.012,0.047l0.106,0.097l0.121,0.083l0.059,0.003l0.046,0.163l0.113,0.155l0.261,0.275
		l0.18,0.272l0.23,0.493l0.137,0.202l0.028,0.127l-0.064,0.312l0.036,0.062l0.002,0.061l0.17,0.257l0.438,0.485l1.371,0.84
		l0.099,0.099l0.279,0.408l0.143,0.131l0.278,0.159l0.132,0.116l0.133,0.159l0.076,0.129l0.034,0.158l0.008,0.248l0.056,0.234
		l0.139,0.115l0.178,0.079l0.174,0.122l0.193,0.216l0.104,0.064l0.166,0.049h0.581l0.178,0.086l0.622,0.658l0.109,0.057l0.145,0.026
		l0.22,0.006l-0.058,0.111l-0.057,0.154l-0.011,0.134l0.197,0.129l0.114,0.315l0.113,0.072l0.265,0.013l0.226,0.044l0.2,0.085
		l0.187,0.133l0.145,0.133l0.124,0.087l0.17,0.049l0.284,0.014l0.798,0.358l0.098,0.171l0.074,0.212l0.127,0.183l0.254,0.076
		l0.111,0.051l0.238,0.244l0.113,0.079l0.083,0.005l0.245-0.018l0.092,0.013l0.153,0.126l0.164,0.185l0.184,0.167l0.212,0.074
		l0.152,0.118l0.044,0.272l-0.043,0.305l-0.112,0.221l0.113,0.124l0.211,0.353l0.324,0.186l0.2,0.255l0.147,0.278l0.022,0.181
		l0.074,0.078l0.177,0.297l0.116,0.118l0.388,0.25l0.47-0.138l0.452,0.224l0.413,0.342l0.353,0.214l0.256,0.03l0.358-0.009
		l0.72-0.018l0.116,0.039l0.251,0.218l0.12,0.032l0.565-0.031l0.142,0.012l0.135,0.047l0.213,0.12l0.113,0.025l0.013,0.076
		l0.197,0.43l0.071,0.025l0.44,0.021l0.224,0.11l0.404,0.291l0.761,0.15l0.438-0.018l0.112,0.018l0.133,0.083l0.24,0.217
		l0.131,0.075l0.115,0.021l0.389-0.021l0.963,0.147l0.921-0.029l0.295-0.067l0.577-0.207l0.254-0.027l0.222,0.056l4.43,2.944
		l0.471,0.487l0.217,0.297l0.089,0.082l0.123,0.045l0.309,0.04l0.209,0.128l0.227,0.046l0.098,0.071l0.134,0.148l0.132,0.103
		l0.28,0.163l0.268,0.119l0.076,0.067l0.042,0.093l0.031,0.123l0.043,0.106l0.298,0.137l0.479,0.423l0.115,0.131l0.251,0.479
		l0.202,0.252l0.405,0.151l0.16,0.191l0.116,0.043l0.186,0.028l0.09,0.071l0.067,0.091l0.118,0.095l0.512,0.176l0.352,0.25
		l0.289,0.102l0.46,0.305l0.243,0.09l0.232,0.003l0.076,0.015l0.12,0.076l0.247,0.246l0.12,0.088l0.391,0.097l2.359,1.796
		l0.255,0.066l0.628,0.015l0.175,0.053l0.09,0.07l0.097,0.044l0.076,0.057l0.031,0.108l0.064,0.064l2.717,0.532l0.278,0.142
		l0.151,0.15l0.292,0.411l0.79,0.889l0.076,0.132l0.038,0.107l0.066,0.077l0.156,0.046l0.139-0.022l0.156-0.08l0.148-0.108
		l0.346-0.363l0.205-0.153l0.227-0.007l1.109,0.769l0.121,0.205l0.154-0.008l0.854,0.435l0.122,0.01l0.275-0.035l0.115,0.025
		l0.084,0.114l0.046,0.154l0.075,0.138l0.172,0.057l0.975,0.003l0.243,0.09l0.175,0.156l0.542,0.638l0.186,0.139l0.385,0.19
		l0.147,0.177l0.397,0.887l0.239,0.337l0.373,0.257l0.006,0.004l0.373,0.958l0.005,0.165l0.764,0.601l0.165,0.186l0.088,0.179
		l0.015,0.222l-0.161,1.184l-0.065,0.242l-0.146,0.154l-0.167,0.042l-0.135,0.097l-0.057,0.317l-0.083,0.085l-0.193,0.006
		l-0.361-0.048l-0.024,0.063l-0.064,0.305l-0.046,0.106l-0.115,0.078l-0.121,0.013l-0.129-0.01l-0.138,0.013l-0.263,0.11
		l-0.153,0.148l-0.257,0.395l0.075,0.113l0.097,0.078l0.116,0.054l0.132,0.035l-0.132,0.174l-0.207,0.216l-0.238,0.184l-0.226,0.079
		l-0.185,0.114l0.044,0.263l0.187,0.463l-0.135,0.189l-0.084,0.062l-0.167,0.123l-0.258,0.138l-0.26,0.099l-0.035,0.096l0.035,0.096
		l0.282,0.106l0.013,0.143l-0.071,0.157l-0.076,0.106l-0.43,0.355l-0.094,0.207l0.569,0.168l-0.001,0.183l-0.16,0.219l-1.421,1.071
		l-0.411,0.235l-0.799,0.295l-0.125,0.13l-0.118,0.46l-0.11,0.283l-0.108,0.15l-0.044-0.099l-0.069-0.078l-0.098-0.058l-0.125-0.045
		l0.029,0.245l0.145,0.139l0.196,0.099l0.18,0.129l0.008,0.184l-0.213,0.164l-0.279,0.118l-0.195,0.044l-0.1,0.096l-0.001,0.223
		l0.062,0.44l-0.033,0.226l-0.062,0.196l-0.412,0.734l-0.085,0.219l0.043,0.173l0.298,0.281l-0.04,0.142l-0.173,0.131l-0.039,0.108
		l-0.034,0.24l-0.067,0.213l-0.039,0.209l0.049,0.233l0.066,0.078l0.278,0.203l0.075,0.105l0.108,0.195l0.069,0.075l-0.081,0.087
		l-0.209,0.154l-0.046,0.043l0.003,0.162l0.06,0.124l0.071,0.11l0.034,0.125l-0.064,0.084l-0.146,0.01l-0.387-0.075l-0.063-0.047
		l-0.04,0.017l-0.063,0.157l-0.056,0.262l-0.034,1.073l-0.047,0.07l-0.092,0.017l-0.149-0.003l-0.203,0.06l0.017,0.14l0.099,0.158
		l0.045,0.112l-0.169,0.181l-0.208-0.033l-0.219-0.073l-0.205,0.066l-0.152,0.302l0.147,0.192l0.224,0.17l0.078,0.24l-0.161,0.138
		l-0.563,0.047l-0.123,0.131l-0.113,0.174l-0.266,0.108l-0.545,0.147l-0.193,0.136l-0.101,0.174l0.025,0.183l0.184,0.167
		l-0.097,0.195l-0.219,0.271l-0.111,0.193l-0.043,0.108l-0.023,0.096l-0.01,0.23l-0.049,0.07l-0.102-0.023l-0.003-0.002
		l-0.086-0.058l-0.012-0.034v-0.054l-0.031-0.1l-0.068-0.06l-0.003,0.002l-0.113,0.065l-0.077,0.098l-0.058,0.101l-0.041,0.109
		l-0.03,0.121l-0.003,0.249l0.023,0.213l-0.061,0.144l-0.623,0.109l-0.279,0.167l-0.178,0.282l-0.063,0.399l0.074,0.179l0.168,0.167
		l0.304,0.229l0.153,0.263l0.02,0.283l-0.052,0.684l-0.001,0.01l0.05-0.046l1.1-0.478l3.353-0.296l1.346,0.174l0.182-0.01
		l0.744-0.137l0.387,0.011l0.001,0l0.225,0.048l0.73,0.156l0.004,0.001l0.377,0.162l0.171,0.037l0.546,0.118l0.004,0.001l0.527,0.18
		l0.004,0.001l1.258,0.265l0.138,0.05l0.005,0.002l1.995,1.021l0.194,0.068l0.081,0.028l0.316,0.031l1.242-0.179l0.324-0.001
		l0.048,0.013l0.261,0.071l0.11,0.074l0.199,0.199l0.088,0.088l0.129,0.072l0.116,0.032l0.559,0.154l0.006,0.002l0.123,0.062
		l0.328,0.281l0.113,0.073l0.132,0.042l0.004,0.001l0.288,0.006l0.105,0.017l0.482,0.023l0.403-0.092l1.217-0.675l0.447-0.183
		l0.449-0.047l0.001,0l0.432,0.178l0.76,0.767l0.442,0.274l0.004,0.003l0.454-0.087l0.629-0.496l0.555-0.163l0.308-0.09l0.813,0.119
		l0.006,0.001l0.495,0.625l0.232,0.376l0.318,0.37l0.371,0.298l0.382,0.156l0.007,0.003l0.396-0.086l0.22-0.337l0.168-0.426
		l0.24-0.35l0.24-0.271l0.144-0.277l0.047-0.309l-0.047-0.378l0.067-0.301l0.284-0.158l0.354-0.097l0.278-0.126l0.45-0.518
		l0.233-0.179l0.313-0.179l0.315,0.023l0.304,0.059l0.006,0.001l0.823,0.323l0.271,0.056l0.231-0.008l0.067-0.002l0.299-0.046
		l0.286-0.006l0.249,0.097l0.184,0.259l0.185,0.52l0.106,0.14l0.148,0.086l0.331,0.093l0.743,0.41l0.458-0.365l0.44-0.526
		l0.346-0.268l0.306-0.051l0.261-0.15l0.199-0.238l0.119-0.316l0.011-0.192l-0.03-0.113l-0.01-0.093l0.164-0.282l0.025-0.145
		l-0.023-0.147l-0.053-0.163l-0.297-0.566l0.009-0.209l0.326-0.083l0.202-0.107l0.072-0.249l0.051-0.284l0.142-0.218l0.244-0.027
		l0.34,0.036l0.302-0.029l0.13-0.22l0.03-0.638l0.075-0.281l0.146-0.264l0.207-0.228l0.217-0.146l0.247-0.076l0.576-0.074l0.6-0.334
		l0.296,0.004l0.263,0.106l0.228,0.124l0.19,0.058l0.488,0.026l0.285-0.05l0.197-0.165l0.042-0.299l-0.17-0.543l0.085-0.235
		l0.798-0.805l0.248-0.093l0.602-0.053l0.203-0.094l0.176-0.214l0.121-0.204l0.089-0.242l0.162-0.634l0.133-0.273l0.204-0.196
		l0.295-0.075h0.546l0.093,0.051l0.057,0.071l0.068,0.034l0.127-0.063l0.172-0.223l0.1-0.306l0.045-0.339l0.012-0.316l-0.039-0.254
		l-0.065-0.195l-0.013-0.193l0.117-0.249l0.185-0.225l0.346-0.287l0.378-0.432l0.108-0.187l0.057-0.223l0.119-0.839l0.036-0.077
		l0.017-0.074l0.189-0.433v-0.618l-0.031-0.269l0.014-0.066l0.008-0.036l0.1-0.181l0.142-0.203l0.079-0.155l-0.044-0.177
		l-0.223-0.269l-0.048-0.208l0.254-0.876l0.008-0.307l-0.133-0.439l-0.061-0.416l-0.041-0.143l-0.008-0.137l0.075-0.147l0.101-0.048
		l0.298-0.018l0.104-0.035l0.109-0.206l-0.012-0.256l-0.097-0.616l0.064-0.223l0.134-0.216l0.119-0.243l0.02-0.302l-0.081-0.165
		l-0.278-0.345l-0.06-0.185l-0.035-0.27l-0.224-0.714l0.003-0.36l0.113-0.13l0.433,0.024l0.186-0.123l-0.036-0.275l-0.196-0.44
		l0.025-0.239l0.494-0.064l0.177,0.062l0.069,0.164l0.016,0.199l0.079,0.127l0.257-0.061l0.25,0.107l0.222,0.161l0.153,0.221
		l0.044,0.288l0.006,0.13l0.037,0.144l0.076,0.082l0.123-0.054l0.052-0.119l-0.057-0.289l0.004-0.141l0.075-0.111l0.229-0.131
		l0.094-0.102l0.028-0.13l-0.011-0.138l0.01-0.135l0.092-0.126l0.113-0.053l0.104,0.007l0.217,0.09l0.128-0.025l0.204-0.279
		l0.14-0.093l0.276-0.034l0.182,0.056l0.132,0.163l0.129,0.29l0.093,0.118l0.074-0.075l0.073-0.214l0.106-0.011l0.076,0.004
		l0.234,0.071l0.242-0.02l-0.055-0.238l-0.247-0.434l0.097-0.048l0.126,0.022l0.234,0.085l0.155-0.02l0.133-0.083l0.321-0.378
		l0.075-0.059l0.07-0.022l0.061,0.018l0.053,0.063l-0.058,0.256l-0.102,0.22l-0.071,0.226l0.035,0.269l0.067,0.12l0.107,0.132
		l0.124,0.094l0.114,0.003l0.048-0.093l-0.009-0.147l-0.028-0.157l-0.006-0.13l0.081-0.12l0.126,0.072l0.211,0.21l0.153-0.031
		l0.076-0.053l0.081-0.032l0.169,0.039l0.235,0.135l0.153,0.196l0.083,0.241l0.026,0.281l0.104,0.35l0.242-0.035l0.469-0.292
		l0.146,0.14l0.13,0.298l0.136,0.499l-0.022,0.113l-0.052,0.1l-0.037,0.124l0.025,0.178l0.079,0.144l0.237,0.233l0.104,0.133
		l0.111,0.253l0.038,0.243l-0.053,0.8l0.148,0.734l-0.012,0.141l-0.041,0.119l-0.026,0.129l0.032,0.171l0.089,0.143l0.41,0.379
		l0.002,0.001v0.001l0.341,0.376l0.142,0.419l0.083,0.452l0.165,0.476l0.594,0.84l0.226,0.432l0.064,0.557l-0.144,0.45l-0.524,0.743
		l-0.106,0.403l0.144,1.285l-0.002,0.422v0.003l-0.179,0.149l-0.088,0.095l-0.036,0.097l0.023,0.135l0.046,0.144l0.045,0.087
		l0.017-0.045l-0.034,0.237l-0.157,0.478l-0.007,0.256l0.062,0.522l-0.02,0.255l-0.08,0.252l-0.095,0.078l-0.122,0.017l-0.1,0.04
		l-0.032,0.147l0.057,0.169l0.105,0.085l0.106,0.043l0.057,0.044l0.007,0.137l-0.081,0.194l0.012,0.14l0.04,0.023l0.149,0.011
		l0.044,0.023l0.143,0.51l0.144,0.819l-0.022,0.423l-0.149,0.496l-0.54,1.154l-0.058,0.084l-0.085,0.05l-0.194,0.029l-0.063,0.044
		l-0.05,0.181l0.022,0.393l-0.02,0.19l-0.06,0.091l-0.179,0.116l-0.054,0.07l0.006,0.101l0.117,0.134l-0.006,0.114l-0.133,0.236
		l-0.147,0.093l-0.083-0.083l-0.112-0.229l-0.134-0.209l-0.165-0.083l-0.106,0.1l-0.106,0.433l-0.124,0.136l-0.196-0.032
		l-0.161-0.146l-0.152-0.106l-0.163,0.086l-0.026,0.183l0.064,0.187l-0.009,0.147l-0.242,0.059l-0.086-0.026l-0.052-0.051
		l-0.057-0.039l-0.097,0.013l-0.07,0.08l-0.089,0.253l-0.906,1.008l-0.448,0.052l-0.367-0.13l0.026-0.302l-0.109-0.097l-0.151-0.1
		l-0.154,0.242l-0.352,0.947l-0.054,0.104l-0.066,0.086l-0.048,0.117l0.027,0.284l-0.026,0.119l-0.093,0.046l-0.141,0.019
		l-0.13,0.049l-0.056,0.129l-0.034,0.116l-0.078,0.135l-0.086,0.115l-0.061,0.056l-0.247,0.007l-0.179-0.13l-0.154-0.186
		l-0.169-0.163l0.02,0.447l-0.02,0.129l-0.081,0.145l-0.113,0.1l-0.1,0.013l-0.042-0.12l-0.046-0.32l-0.125-0.16l-0.189-0.051
		l-0.496,0.021l-0.2,0.05l-0.046,0.149l0.208,0.311l-0.009,0.182l-0.249,0.158l-0.799,0.238l-0.12-0.006l-0.13-0.056l-0.047-0.072
		l-0.118-0.252l-0.041-0.055l-0.099-0.02l-0.065-0.03l-0.069,0.007l-0.111,0.09l-0.084,0.123l-0.055,0.146l-0.067,0.252
		l-0.131,0.258l-0.167,0.159l-0.144-0.013l-0.061-0.258l-0.04-0.062l-0.086,0.014l-0.087,0.082l-0.039,0.151l0.003,0.189
		l-0.009,0.105l-0.048,0.065l-0.113,0.067l-0.115,0.024l-0.274-0.029l-0.122,0.004l-0.517,0.174l-0.079-0.023l-0.017-0.029
		l-0.078-0.1l-0.024-0.021l-0.046-0.029l0.02-0.069l0.044-0.079l0.025-0.06l-0.07-0.153l-0.158,0.045l-0.17,0.136l-0.106,0.123
		l-0.076,0.281l-0.041,0.349l-0.099,0.297l-0.25,0.125l-0.3-0.003l-0.104,0.042l0.022,0.521l-0.063,0.602l-0.065,0.315l-0.077,0.136
		l-0.243,0.096l-0.642,0.576l-0.294,0.043l-0.227-0.075l-0.21-0.111l-0.242-0.056l-0.207,0.101l0.122,0.224l0.379,0.349l0.18,0.287
		l-0.047,0.147h-0.199l-0.27-0.158l-0.125,0.056l-0.271,0.006l-0.108,0.042l-0.033,0.086l-0.097,0.388l-0.252-0.058l-0.268-0.257
		l-0.198-0.065l-0.248,0.098l-0.179,0.23l-0.144,0.232l-0.445,0.354l-0.121,0.045l-0.132-0.026l-0.258-0.092l-0.152,0.014
		l-0.194,0.183l-0.039,0.258l-0.06,0.23l-0.258,0.099l-0.126,0.007l-0.09,0.033l-0.055,0.07l-0.018,0.127l0.012,0.298l-0.024,0.076
		l-0.079,0.14l-0.557,0.648l-0.07,0.114l-0.297,0.086l-0.131,0.017l-0.084-0.045l-0.052-0.084l-0.079-0.045l-0.16,0.069
		l-0.049,0.071l-0.127,0.319l-0.056,0.053l-0.161,0.121l-0.072,0.068l-0.056,0.113l-0.018,0.107l-0.046,0.079l-0.14,0.03
		l-0.15-0.048l-0.027-0.111l0.01-0.124l-0.038-0.089l-0.284-0.058l-0.146,0.176l-0.079,0.206l-0.01,0.026l-0.107,0.118l-0.116,0.079
		l-0.518,0.501l-0.786,0.273l-0.303,0.227l0.073,0.358l0.147,0.113l0.491,0.227l0.163,0.043l0.175,0.071l0.123,0.165l0.167,0.345
		l-0.169,0.662l-0.082,0.198l-0.125,0.169l-0.141,0.105l-0.114-0.045l-0.048-0.279l-0.194-0.26l-0.45-0.117l-0.509-0.061
		l-0.367-0.095l-0.554,0.237l-0.224,0.205l0.064,0.286l0.046,0.117l-0.003,0.652l-0.014,0.101l-0.049,0.062l-0.106,0.075
		l-0.104,0.04l-0.4,0.046l-0.339,0.175l-0.399,0.103l-0.121,0.194l-0.019,0.25l0.03,0.252l-0.017,0.553l-0.233,0.326l-0.765,0.548
		l-1.005,1.348l-0.415,0.28l-0.579,0.11l-0.254,0.115l-0.107,0.219l-0.076,1.203l-0.272,0.492l-0.843,0.503l-0.238,0.549
		l-0.012,0.57l-0.047,0.275l-0.15,0.26l-0.201,0.116l-0.849,0.22l-0.43,0.229l-0.442,0.314l-0.407,0.403l-0.325,0.497l-0.086,0.182
		l-0.069,0.203l-0.012,0.204l0.084,0.189l-0.125,0.276l-0.202,0.599l-0.143,0.229l-0.207,0.2l-0.156,0.109l-0.436,0.225
		l-0.113,0.077l-0.089,0.088l-0.072,0.104l-0.062,0.125l-0.021,0.143l0.006,0.158l-0.017,0.13l-0.202,0.115l-0.095,0.152
		l-0.066,0.175l-0.025,0.14l-0.05,0.113l-0.963,0.858l-0.087,0.197l-0.099,0.124l-0.482,0.395l-0.174,0.206l-0.167,0.483
		l-0.362,0.391l-0.059,0.149l-0.09,0.145l-0.901,0.972l-0.23,0.199l-0.252,0.087l-0.542,0.01l-0.519,0.078l-0.528,0.202
		l-0.356,0.319l-0.209,0.473l-0.126,1.661l-0.079,0.22l-1.062,0.833l-1.165,1.489l-0.522,0.366l-0.247,0.093l-0.53,0.091
		l-0.274,0.009l-0.104,0.135l0.055,0.313l0.175,0.612l-0.09,0.555l-0.266,0.457l-2.422,2.228l-0.338,0.422l-0.156,0.514l0.049,0.558
		l0.277,0.554l0.182,0.276l0.275,0.597l0.102,0.319l0.113,0.505l0.084,0.372l0.03,0.26l0.041,0.354l0.013,0.598l-0.014,0.15
		l-0.071,0.345l-0.066,0.216l-0.153,0.058l-0.285-0.034l-0.523,0.138l-0.229,0.156l-0.095,0.254l0.077,0.165l0.519,0.767
		l0.099,0.671l-0.228,0.49l-0.311,0.48l-0.156,0.634l0.083,0.639l-0.001,0.373l-0.12,0.165l-0.256,0.544l-0.091,0.094l-0.203,0.161
		l-0.085,0.095l-0.113,0.296l-0.061,0.654l-0.119,0.271l-0.193,0.168l-0.463,0.283l-0.234,0.197l-0.156,0.446l0.301,0.37
		l0.145,0.113l0.316,0.245l0.326,0.412l0.089,0.645L469.342,166l-0.741,2.232l-0.128,0.208l-0.298,0.12l-0.583,0.117l-0.271,0.118
		l-0.194,0.145l-0.337,0.385l-0.081,0.298l0.151,0.292l0.388,0.444l0.12,0.454l0.046,0.619l-0.037,0.653l-0.129,0.561l-0.271,0.449
		l-0.07,0.297l0.139,0.308l0.841,1.13l0.128,0.424l-0.062,0.442l-0.78,1.138l-0.308,0.648l-0.12,0.158l-0.005,0.035l-0.004-0.038
		l-0.242,0.655l-0.034,0.653l0.138,1.797l0.229,1.002l0.168,1.499l0.119,0.292l0.326,0.539l0.067,0.224l-0.042,0.276l-0.184,0.567
		l-0.042,0.322l0.128,0.664l0.028,0.367l-0.11,0.164l-0.458,0.399l-0.141,0.053l-0.298,0.048h-0.157l-1.744-0.289l-0.44,0.189
		l-0.056,0.074l-0.082,0.136l-0.022,0.132l0.236,0.105l0.001,0.112l-0.047,0.148l-0.03,0.149l-0.031,0.319l-0.129,0.657
		l-0.016,0.284l0.199,0.635l0.058,0.335l-0.123,0.144l-0.218,0.119l-0.245,0.274l-0.343,0.513l-0.229,0.535l-0.187,0.641
		l-0.125,0.658l-0.047,0.591l0.084,0.666l-0.027,0.147l-0.121,0.296l-0.105,1.095l0.002,0.33l0.105,0.59l0.201,0.482l0.676,0.958
		l0.103,0.252l0.068,0.289l0.043,0.675l0.156,0.817l-0.029,0.152l-0.061,0.17l-0.004,0.082l-0.003,0.053l0.134,0.058l0.114,0.027
		l0.299,0.145l0.09,0.077l0.093,0.227l0.042,0.295l-0.012,0.649l-0.074,0.475l-0.011,0.179l0.026,0.082l0.116,0.261l0.027,0.165
		l-0.413,0.453l-0.052,0.109l-0.064,0.207l-0.053,0.101l-0.188,0.216l-0.235,0.174l-0.245,0.068l-0.224-0.099l-0.099-0.027
		l-0.451-0.019l-0.077,0.074l-0.043,0.102l-0.068,0.088l-0.149,0.041l0.715,0.41l0.217,0.192l0.344,0.29l0.148,0.271l-0.229,0.477
		l-0.151,0.133l-0.137,0.163L462.909,207l0.013,0.195l0.088,0.211l0.319,0.302l0.044,0.126l-0.016,0.301l0.009,0.143l0.278,0.183
		l0.224,0.122l0.254,0.197l0.418,0.259l0.19,0.203l0.226,0.325l0.162,0.361l0.207,0.377l0.971,0.652l0.566,0.514l0.434,0.228
		l0.45,0.048l0.3,0.062l0.374,0.227l0.405,0.092l0.375,0.122l0.433,0.558l0.33,0.137l0.691-0.072l0.135,0.016l0.24,0.272
		l0.555,0.364l0.585,0.56l0.886,0.363l1.024,0.808l1.003,0.382l0.425,0.469l0.502,0.393l1.195,1.193l0.439,0.59l0.537,0.612
		l0.265,0.287l0.581,0.925l0.484,0.929l0.352,0.678l0.067,0.372l-0.206,0.648l-0.437,0.572l-0.533,0.714l-1.228,1.924l-0.357,0.472
		l-0.16,0.549l-0.071,0.398l-0.121,0.629l-0.148,0.479l0.121,0.556l0.122,0.606l0.013,0.439l0.023,0.131l0.051,0.166l0.227,0.2
		l0.051,0.154l0.023,0.042l0.32,0.846l0.041,0.323l0.047,0.139l0.218,0.112l0.237,0.25l0.046,0.064l0.072,0.34l0.176,0.308
		l1.72,1.708l1.264,0.784l0.556,0.116l0.278,0.145l0.111,0.198l-0.213,0.219l0.084,0.105l0.227-0.226l0.253-0.169l0.536-0.23
		l0.279-0.048l0.813,0.048l-0.133-0.343l0.033-0.23l0.167-0.047l0.269,0.202l0.071,0.188l0.153,0.618l0.074,0.133l0.231,0.277
		l-0.024,1.916l0.293,0.841l0.043,0.37l0.049,2.085l0.042,1.76l-0.049,0.665l-0.216,0.515l-1.278,1.705l-1.21,1.908l-1.607,2.868
		l-0.451,1.008l-1.352,1.905l-0.432,0.493l-1.333,1.213l-0.487,0.825l-0.147,0.142l-0.2,0.109l-0.996,1.251l-0.363,0.579
		l-0.301,0.625l-0.209,0.645l-0.115,0.65l-0.045,0.681l0.021,0.097l0.106,0.18l0.032,0.107l-0.007,0.097l-0.061,0.15l-0.016,0.061
		l0.036,0.458l-0.036,0.183l-0.279,0.573l-0.433,0.499l-1.142,0.814l-1.278,0.743l-0.881,0.657l-1.929,1.158l-0.419,0.077
		l-0.164,0.084l-0.638,0.551l-0.464,0.265l-1.474,0.603l-0.457,0.281l-0.226,0.1l-1.089,0.179l-0.912,0.317l-0.903,0.543
		l-1.996,0.466l-2.597,0.907l-0.699,0.472l-0.383,0.091l-0.43,0.189l-3.501,0.71l-3.501,0.71l-2.023,0.863l-0.275,0.036
		l-0.863-0.036l-5.605,1.078l-1.952,0.332l-1.913,0.243l-2.542,0.516l-1.385-0.021l-0.305-0.085l-0.165-0.013l-0.149,0.028
		l-0.106,0.064l-0.166,0.134l-1.141,0.294l-2.391-0.312l-1.111,0.018l-0.8,0.264l-0.123,0.108l-0.184,0.086l-1.933-0.278
		l-0.165-0.148l-0.221-0.066l-0.125-0.149l-0.075-0.044l-0.102,0.003l-0.085,0.04l-0.074,0.048l-0.068,0.028l-0.505,0.108
		l-0.597-0.026l-2.309-0.685l-0.459-0.232l-0.358-0.332l-0.247-0.463l-0.206-0.57l-0.159-0.289l-0.177-0.123l-1.985-0.157
		l-0.206-0.113l-0.283-0.096l-0.262,0.176l-0.129,0.257l0.123,0.149l-0.076,0.332l0.225,0.594l-0.072,0.273l0.169-0.152l0.168-0.008
		l0.129,0.111l0.052,0.208l-0.033,0.59l0.033,0.113l0.139,0.098l0.172-0.009l0.4-0.089l-0.005,0.081l-0.082,0.201l-0.068,0.249
		l0.033,0.224l-0.302,0.165l-0.123,0.15l-0.163,0.562l-0.13,0.333l-0.076,0.143l-0.092,0.124l-0.023,0.108l0.071,0.12l0.099,0.129
		l0.059,0.134l-0.012,0.289l-0.06,0.245l-0.024,0.248l0.097,0.292l0.215,0.261l0.55,0.429l0.243,0.286l-0.189-0.004l-0.152-0.044
		l-0.324-0.169l-0.176,0.203l0.113,0.168l0.271,0.119l0.295,0.062l0.959,0.034l0.301,0.074l0.97,0.49l0.522,0.388l0.279,0.417
		l0.01,0.194l-0.05,0.189l-0.092,0.166l-0.12,0.121l-0.155,0.074l-0.099-0.034l-0.078-0.079l-0.088-0.07l-0.247-0.131l-0.707-0.632
		l-0.23-0.333l-0.046-0.086l-0.067-0.171l-0.056-0.07l-0.096-0.053l-0.055,0.016l-0.043,0.034l-0.059,0.004l-0.234-0.056
		l-0.69,0.056l0.027,0.146l0.044,0.155l0.07,0.142l0.103,0.109l0.131,0.018l0.168-0.023l0.144,0.019l0.061,0.146l0.102,0.328
		l0.239,0.334l0.507,0.482l0.229,0.132l0.605,0.162l0.307,0.023l0.069,0.073l0.039,0.156l0.024,0.208l-0.055,0.172l-0.145,0.141
		l-0.067,0.14l-0.034,1.122l-0.088,0.177l-0.055,0.182l-0.308,2.182l-0.033,1.424l-0.063,0.27l-0.073-0.01l-0.432,0.269l-0.046,0.07
		l-0.928-0.162l-0.271-0.163l-0.534-0.439l-0.046,0.172l0.052,0.165l0.254,0.327l-0.304,0.142l-0.072,0.126l0.03,0.209l0.01,0.399
		l-0.051,0.275l-0.165,0.573l-0.083,0.547l-0.239,0.668l-0.099,0.136l-0.039,0.157l0.334,0.942l-0.015,0.338l-0.19,0.671
		l-0.047,0.265l-0.111,0.312l-0.263,0.171l-0.306,0.108l-0.243,0.126l-0.209,0.215l-0.222,0.286l-0.177,0.326l-0.072,0.328
		l0.057,0.231l0.363,0.705l0.188,0.954l0.111,0.15l0.002,0.07l0.204,0.38l0.119,0.095l0.385,0.126l0.414,0.284l0.142,0.047
		l0.044,0.087l-0.012,0.379l0.048,0.087l0.173,0.141l0.138,0.261l0.162,0.148l0.24-0.208l0.168,0.733l-0.002,0.413l-0.204,0.182
		l-0.588-0.111l-0.063-0.063l-0.187-0.293l-0.131-0.087l-0.011,0.15l0.019,0.128l0.046,0.111l0.076,0.109l0.081,0.17l-0.021,0.132
		l-0.063,0.078l-0.043,0.008l0.116,0.245l0.091,0.062l0.961-0.583l0.378-0.145l0.393-0.022l-0.145,0.182l-0.442,0.336l-0.093,0.206
		l-0.025,0.243l-0.11,0.49l-0.025,0.27l-0.055,0.215l-0.365,0.736l-0.336,0.88l-0.326,0.438l-1.829,0.974l-1.48,0.933l-0.833,0.345
		l-0.213,0.154l-0.225,0.218l-0.238,0.12l-0.27,0.05l-0.321,0.013l-0.298-0.054l-0.115,0.038l-0.145,0.177l-0.321,0.278
		l-0.184,0.216l-0.877,0.238l-1.457,0.775l-0.565,0.126l-2.676-0.112l-0.535,0.169l-0.291,0.044l-1.173-0.112l-1.751,0.109
		l-1.939-0.035l-0.551-0.13l-0.523-0.279l-1.232-1.2l-0.547-0.248l-0.511,0.016l-0.123-0.077l-0.031-0.161l0.05-0.163l0.111-0.234
		l-0.121-0.125l-0.285,0.076l-0.335,0.142l-0.267,0.069l-0.493-0.131l-2.987-1.6l-1.66-0.453l-1.14-0.593l-1.109-0.262l-0.595-0.048
		l-0.861,0.09l-0.396-0.032l-0.317-0.116l-0.01-0.245l0.226-0.168l0.315-0.102l0.222,0.048l-0.053,0.278l0.086-0.009l0.096-0.038
		l0.07-0.041l0.009-0.022l0.739,0.012l0.219-0.029l0.126-0.114l-0.106-0.337l-0.363-0.139l-0.211-0.148l0.352-0.363l-0.302-0.214
		l-1.159-0.281l-0.69,0.087l-0.435,0.194l-0.117,0.103l0.222,0.03l0.402-0.108l0.224,0.078l-0.171,0.245l0.05,0.143l0.152,0.112
		l0.137,0.157l-1.255-0.046l-0.219,0.104l-0.165,0.181l-0.983,0.794l-0.12,0.142l-0.045,0.151l0.012,0.359l-0.047,0.151
		l-0.176,0.303l-0.138,0.348l-0.098,0.372l-0.05,0.379l0.007,0.669l0.349,2.782l0.492,1.933l0.024,0.508l0.31,0.927l0.078,0.514
		l0.15,0.505l0.676,0.739l0.183,0.504l-0.023,0.475l-0.106,0.551l-0.156,0.503l-0.173,0.334l-0.106,0.457l0.129,0.59l0.351,0.932
		l-0.021,0.592l-0.219,0.709l-0.517,1.19l-0.183,0.704l0.061,0.576l0.184,0.412l0.61,1.367l0.401,0.559l0.454,0.448l0.962,0.659
		l0.164,0.035l0.266-0.019l0.138,0.014l0.1,0.062l0.202,0.174l0.295,0.162l0.311,0.12l0.249,0.054l0.619,0.004l0.278,0.074
		l0.245,0.214l0.263,0.178l0.288-0.038l0.297-0.124l0.293-0.07l0.338,0.022l0.164,0.051l0.12,0.1l0.175,0.23l0.03,0.114
		l-0.331,0.149l-0.243,0.241l-0.942,1.374l-0.082,0.171l-0.1,0.508l0.083,0.143l0.36,0.09l0.991-0.079l0.501,0.258l0.423-0.008
		l0.425-0.077l0.273-0.094l0.277-0.149l0.195-0.066l2.313,0.161l0.295-0.081l0.127-0.268l0.061-0.039l0.352-0.354l0.08-0.159
		l0.02-0.106l-0.009-0.302l-0.011-0.089l-0.065-0.088l-0.015-0.114l0.027-0.047l0.061-0.033l0.06-0.05l0.027-0.102l-0.027-0.198
		l-0.121-0.325l-0.027-0.16l-0.107-0.2l-0.253-0.114l-0.557-0.073l-1.337,0.065l-0.661-0.078l-0.53-0.335l0.408-0.219l1.776-0.246
		l1.516-0.861l0.998-0.731l1.07-0.494l0.75-0.224l0.508,0.125l0.448,0.456l0.278,0.483l0.378,1l0.049,0.303l0.081,0.262l0.192,0.221
		l0.4,0.366l0.274,0.599l0.092,0.687l-0.086,1.672l0.224,2.526l-0.157,0.678l-0.306,0.69l-0.2,0.668l0.16,0.613l-0.63,0.854
		l-0.802,0.379l-2.526,0.584h-0.774l-0.255,0.044l-0.546,0.275l-0.466,0.086l-0.377-0.281l-0.291-0.337l-0.409-0.646l-0.228-0.272
		l-0.245-0.113l-0.215-0.173l0.005-0.385l0.099-0.394l0.069-0.203l0.23-1.013l0.145-0.129l0.138-0.067l-0.083-0.147l-0.269-0.243
		l-0.059-0.038l-0.185-0.086l-0.062-0.061l-0.055-0.111l-0.052-0.046l-0.452-0.245l-0.159-0.189l-0.062-0.311l-0.126-0.223
		l-0.287-0.191l-0.518-0.228l-0.611-0.172l-1.286-0.011l-0.894,0.151l-0.305,0.107l-0.287,0.15l-0.312,0.275l-0.43,0.092
		l-0.141,0.087l-0.093,0.087l-0.541,0.756l-0.219,0.22l-0.235,0.094l-0.615,0.064l-0.607,0.174l-0.29,0.215l-0.152,0.253
		l-0.11,0.292l-0.167,0.326l-0.386,0.429l-0.083,0.251l0.087,0.406l0.181,0.231l0.497,0.13l0.397,0.314l0.788,0.253l1.508,0.75
		l0.417,0.292l0.475,0.45l0.245,0.171l0.391,0.1l0.284,0.155l0.133,0.042l0.186-0.004l0.321-0.09l0.315-0.019l0.122,0.016
		l0.102,0.052l0.19,0.219l0.219,0.131l0.103,0.101l0.243,0.153l0.312-0.003l0.982-0.409l0.154-0.023l0.009,0.074l0.159,0.438
		l-0.056,0.214l-0.264,0.274l-1.469,0.989l-1.448,0.598l-2.46,0.73l-2.198,1.553l-0.388,0.507l-0.241,0.235l-0.25,0.181l-0.21,0.089
		l-0.136,0.374l0.015,0.303l0.075,0.292l0.046,0.362l-0.083,0.296l-0.197,0.19l-0.235,0.15l-0.998,1.058l-0.46,0.875l-0.211,0.282
		l-0.661,0.602l-0.146,0.094l-0.47,0.866l-0.04,0.172l-0.173,0.255l-0.04,0.158l0.02,0.989l0.063,0.265l0.261,0.559l-0.072,0.225
		l-0.068,0.355l-0.01,0.326l0.104,0.143l0.164,0.128l0.1,0.292l0.074,0.331l0.086,0.24l0.054,0.242l-0.056,0.655l0.044,0.221
		l0.17,0.06l0.231-0.072l0.132,0.204l-0.286,0.22l0.112,0.389l0.01,0.281l0.241,0.165l0.439-0.023l-0.305,0.255l-0.253,0.291
		l-0.071,0.286l0.021,0.256l0.028,0.247l0.155,0.092l0.079,0.318l-0.196,0.1l-0.389,0.077l-0.249,0.116l-0.199,0.205l-0.122,0.576
		l0.023,0.423l0.026,0.264l0.162,0.254l0.085,0.123l0.1,0.06l0.105,0.115l-0.049,0.174l0.04,0.148l0.035,0.179l0.166,0.102
		l-0.052,0.128l-0.02,0.145l0.148,0.198l0.21-0.01l0.095,0.075l0.004,0.302l0.052,0.179l-0.147,0.069l-0.069,0.152l-0.012,0.129
		l-0.154,0.02l-0.146,0.012l-0.076,0.111l-0.054,0.184l-0.114,0.021l-0.076,0.094l0.079,0.075l0.006,0.089l-0.106,0.038l-0.025,0.04
		l0.087,0.051l-0.042,0.055l-0.137-0.02l-0.094-0.092l-0.066,0.039l-0.019,0.096l0.07,0.099l-0.043,0.088l-0.082,0.038l-0.059,0.079
		l-0.098,0.038l-0.036,0.12l0.063,0.058l0.136,0.028l0.046,0.09l-0.031,0.094l-0.06,0.103l-0.035,0.104l0.102,0.1l0.074-0.03
		l0.081-0.014l0.058-0.039l0.168,0.053l-0.003,0.097l-0.067,0.087l0.014,0.089l0.088,0.051l0.01,0.084l-0.131,0.037l-0.161-0.045
		l-0.074,0.055l-0.043,0.08l-0.028,0.121l-0.066,0.039l-0.046-0.107l0.037-0.177l-0.061-0.139l-0.145-0.02l-0.138,0.036
		l-0.051,0.096l-0.073,0.006l-0.079-0.035l-0.098,0.054l-0.018,0.088l0.063,0.142l0.099,0.074l0.003,0.113l-0.107,0.053
		l-0.135-0.037l-0.091,0.07l-0.061,0.112l0.034,0.156l0.127,0.109l0.105,0.003l0.076,0.096l0.113,0.02l-0.027,0.104l-0.125,0.102
		l-0.065-0.01l-0.02-0.163l-0.089,0.005l-0.067,0.071l-0.044,0.104l-0.036,0.129l-0.07-0.083l-0.096-0.06l-0.027-0.163l-0.079-0.051
		l-0.05,0.031l-0.04-0.026l-0.063-0.067l-0.107,0.062l-0.147,0.044l-0.146,0.012l-0.044,0.104l-0.005,0.146l0.059,0.172
		l-0.178-0.014l-0.052,0.088l-0.251-0.016l-0.526,0.263l-0.437,0.489l-0.249-0.089l-0.55,0.437l-0.212,0.26l-0.129,0.248
		l-0.102,0.135l-0.077,0.128l-0.127,0.386l0.033,0.481l-0.025,0.268l-0.057,0.25l-0.054,0.153l-0.164,0.051l-0.117,0.094
		l0.004,0.358l0.102,0.093l-0.075,0.054l-0.046,0.153l0.158,0.388l0.217,0.073l0.147-0.011l0.047,0.075l0.097,0.011l0.054,0.083
		l0.062,0.116l0.204-0.01l0,0.008l0.174-0.092l0.203,0.067l0.238,0.187l0.31-0.059l0.246,0.264l0.218,0.08l0.171,0.283l-0.156,0.036
		l-0.169,0.199l-0.15,0.085l-0.061,0.112l-0.109,0.086l-0.161-0.062l-0.102,0.135l-0.126,0.118l0.067,0.206l0.15,0.16l0.049,0.238
		l-0.21-0.056l-0.135-0.094l-0.127,0.143l0.062,0.108l0.179,0.251l-0.501,0.343l-0.259-0.082l-0.254,0.032l-0.068,0.317
		l-0.541-0.477l-0.206-0.203l-0.425,0.061l-0.212,0.008l-0.175,0.221l-0.164-0.096l0.026-0.317l-0.16-0.232l-0.182,0.024
		l-0.196-0.022l-0.214,0.083l-0.011,0.317l0.037,0.229l-0.258-0.009l-0.34,0.17l-0.344-0.118l-0.26-0.343l-0.381-0.332l-0.349,0.017
		l-0.807-0.273l-0.717,0.139l-0.391-0.06l-0.258,0.398l-0.47,0.405l-0.271,0.322l-0.235-0.176l-0.18-0.053l-0.257-0.011
		l-0.166-0.007l-0.215,0.067l-0.066,0.134l-0.256-0.041l-0.132,0.192l-0.783,0.233l-0.355,0.198l-0.336,0.359l-0.018,0.399
		l0.606,0.187l0.262,0.118l-0.228,0.337l-1.207-0.48l-0.201-0.032l-0.005,0.477l0.555,0.131l0.253,0.332l-0.018,0.4l-0.453-0.02
		l-1.337-0.006l-1.43,0.255l-1.023,0.112l-0.742,0.366l-0.393,0.356l-0.591,0.472l-0.683,0.806l-0.389,0.733l-0.463,0.595
		l-0.411,0.625l-0.418,0.707l-0.271,0.473l-0.572,0.565l-0.294,0.512l-0.173,0.203l-0.297,0.211l-0.156,0.348l-0.144,0.452
		l0.001,0.544l0.022,0.28l0.238,0.23l-0.058,0.173l-0.079,0.093l-0.217,0.03l-0.007,0.25l-0.065,0.219l0.012,0.118l0.1,0.135
		l-0.049,0.176l-0.153,0.133l-0.246-0.055l-0.376,0.299l-0.181,0.172L352.866,391l-0.223,0.657l-0.378,0.285l-0.128,0.336
		l-0.26,0.332l-0.141,0.306l0.18,0.439l-0.301,0.164l-0.257,0.449l-0.039,0.127l-0.392,1.273l-0.095,0.491l-0.039,0.542l0.024,0.598
		l0.588,2.816l0.416,1.413l0.28,0.658l1.168,2.31l0.715,0.695l0.352,0.34l0.604,0.197l0.383,0.13l0.126,0.147l0.172,0.347
		l0.473,0.359l0.507,0.11l0.276,0.17l0.18,0.528l0.409,0.379l0.427,0.692l0.175,0.422l0.131,0.038l0.164,0.009l0.116,0.057
		l0.118,0.255l0.098,0.057l0.127,0.11l1.094,1.267l0.719,1.129l0.469,0.455l1.073,0.562l0.47-0.037l0.397,0.281l0.504-0.188
		l0.25,0.131l0.252-0.028l0.255-0.079l0.259-0.023l0.196,0.076l0.401,0.241l0.198,0.053l0.677-0.063l0.208,0.063l0.129,0.103
		l0.664,0.123l1.277,0.285l1.411-0.126l0.701-0.276l0.314-0.068l0.292,0.047l0.742,0.501l0.469,0.048l0.284,0.305l0.131,0.475
		l0.287,0.246l0.225,0.267l0.115,0.112l0.634,0.542l-0.129,0.349l0.217,0.981l0.165,0.58l0.139,0.58l-0.17,1.224l-0.109,1.832
		l-0.322,1.067l-0.355,1.18l-0.676,2.001l-0.24,0.141l-0.367,0.014l-0.332-0.076l-0.627-0.102l-0.728-0.027l-0.367,0.341
		l-0.414,0.536l-0.324,0.224l-0.32,0.126l-0.768,0.403l-0.781,0.567l-0.276,0.081l-0.948-0.048l-0.193,0.048l0.597,0.207
		l0.486-0.049l0.947-0.546l0.299-0.085l0.681-0.181l1.17-0.666l0.33-0.382l0.596-0.116l0.551,0.054l0.339,0.043l0.212,0.254
		l0.214,0.939l0.17,0.816l0.324,0.348l0.451,0.115l0.352,0.131l-0.325,0.246l-0.086,0.195l0.253,0.147l0.155,0.084l-0.3,0.089
		l-0.321,0.128l-0.299,0.049l-0.127-0.341l-0.646-0.221l-0.342,0.166l-0.232,0.388l-0.071,0.334l0.271,0.189l-0.085,0.457
		l-0.044,0.094l-0.08,0.099l-0.026,0.22l-0.24,0.164l0.053,0.181l0.328,0.271l0.422,0.126l0.068,0.293l-0.24,0.357l-0.341,0.073
		l-0.101-0.24l-0.228-0.098l-0.226,0.143l-0.309-0.014l-0.57,0.068l-0.351,0.113l-0.228,0.13l-0.288,0.24l-0.099,0.441l-0.156,0.27
		l-0.083,0.192l-0.514,0.25l-0.455,0.186l-0.326,0.625l-0.443,0.168l-0.197,0.229l-0.245,0.408l-0.224,0.646l0.171,0.583
		l-0.144,0.063l-0.411-0.092l-0.427-0.015l-0.34-0.002l-0.036,0.089l-0.221,0.182l0.071,0.256l-0.058,0.398l-0.401,0.254
		l-0.54,0.185l-0.384-0.001l-0.92,0.133l-0.521,0.445l-0.695,0.375l-0.289,0.351l-0.441,0.344l-0.358,0.499l-0.24,0.162l-0.032,0.4
		l-0.074,0.372l-0.287,0.113l-0.316,0.156l-0.879,0.139l-0.704,0.606l-0.864,0.55l-0.276,0.355l-0.111,0.926l-0.478,0.544
		l-0.106,0.458l-0.062,0.416l-0.609,0.51l-0.911,0.406l-1.032,0.69l-1.855,2.091l-0.226,0.601l-0.184,0.69l-0.079,0.417
		l-0.235,0.213l-0.211,0.223l-0.033,0.481l0.244,0.105l0.067,0.319l-0.175,0.127l-0.093,0.109l-0.227,0.101l-0.071,0.152
		l-0.055,0.187l-0.099,0.19l-0.086,0.466l-0.334,0.353l-0.367,0.135l0.116,0.183l0.15,0.177l0.08,0.192l-0.095,0.221l-0.177,0.048
		l-0.166,0.178l-0.221,0.137l0.153,0.144l-0.005,0.251l-0.351,0.354l-0.696,0.098l-0.02,0.111l0.224,0.111l0.26,0.009l0.836-0.02
		l0.336-0.355l0.185-0.67l-0.022-0.5l0.192-0.262l0.072-0.545l0.215-0.285l0.11-0.09l0.18,0.066l0.179,0.27l-0.002,0.363
		l-0.044,0.734l-0.516,1.019l-0.041,0.332l-0.243,1.272l-0.291,1.37l-0.077,0.528l0,0.834l-0.09,0.449l-0.055,0.777l0.067,0.285
		l-0.24,1.823l-0.383,1.279l-0.105,0.429l-0.186,0.407l-0.086,0.252l-0.062,0.086l-0.422,0.854l-0.759,0.81l-1.073,0.887
		l-1.159,0.845l-1.154,0.513l-1.086,0.204l-0.86-0.085l-0.167-0.05l-0.124-0.136l-0.304-0.52l-0.281-0.156l-0.276-0.462
		l-0.175-0.377l-0.11-0.498l-0.213-0.48l-0.298-0.4l-0.422-0.362l-0.257-0.476l-0.087-0.419l-0.248-0.665l-0.315-0.462l-0.573-1.144
		l-0.157-0.318l-0.224-0.231l-0.29-0.194l-0.296-0.124l-0.244-0.026l0.77,0.534l0.161,0.223l0.073,0.288l0.338,0.669l0.428,0.773
		l0.221,0.85l0.006,0.474l-0.195,0.191l-0.41,0.296l-0.291,0.098l-0.298,0.195l-0.333,0.039l-0.511-0.119l-0.745,0.079l-0.883-0.111
		l-0.467,0.356l-0.401,0.194l-0.356,0.012l-0.475,0.304v0.143l0.063,0.006l0.127-0.013l0.062,0.006l0.283-0.028l0.676-0.048
		l0.407-0.357l0.318-0.174l0.171-0.047l0.162,0.009l0.344,0.057l0.394-0.049l0.635,0.144l0.573,0.101l0.392-0.199l0.465-0.225
		l0.218-0.042l0.194,0.073l0.1,0.106l0.092,0.383l0.243,0.166l0.166,0.14l-0.001,0.181l0.012,0.279l0.08,0.404l0.218,0.371
		l0.333,0.384l0.263,0.183l0.32,0.044l0.2,0.096l0.146,0.231l0.344,0.1l0.163,0.28l-0.15,0.394l-0.416,0.164l-0.276,0.269
		l-0.243,0.172l-2.168,0.986l-1.505,0.759l-0.377-0.053l-0.3,0.293l-0.037,0.263l-0.38,0.127l-0.181,0.031l-0.196-0.068
		l-0.249,0.161l-0.056,0.428l-0.233,0.178l-0.571,0.817l-0.354,0.474l-0.179,0.438l-0.249,0.496l-0.418,0.739l-0.199,0.501
		l-0.203,0.365l-0.042,0.86l-0.526,1.461l-0.243,0.77l-0.093,0.44l0.03,0.323l0.184,0.492l0.065,1.221l-0.01,0.611l-0.107,0.496
		l-0.274,0.237l-0.576,0.389l-0.672,0.755l-1.074,0.868l-0.521,0.584l-0.253,0.693l0.369-0.373l0.707-0.636l0.433-0.325l0.742-0.462
		l0.382-0.23l0.355-0.042l0.112,0.356l0.015,0.377l0.148,0.812l0.267,1.515l0.188,0.977l0.052,0.599l0.212,0.401l0.094,0.832
		l0.204,0.863l1.217,3.536l0.093,0.425l0.022,0.409l-0.1,0.341l-0.237,0.225l-0.216-0.045l-0.25-0.121h-0.342l-0.26,0.182
		l-0.4,0.532l-0.225,0.11l-0.343-0.029l-0.299-0.077l-1.384-0.785l-0.932-0.079l-0.21,0.022l-0.143,0.055l-0.361,0.216l-0.691,0.093
		l-0.315,0.098l-0.562,0.508l-0.598,0.213l-0.279,0.169l2.683-0.645l0.563-0.084l0.596,0.101l1.278,0.535l0.538,0.285l-0.096,0.335
		l-0.666,0.569v0.124l0.245-0.002l0.225-0.1l1.016-0.564l0.525-0.461l0.326-0.311l0.348-0.056l0.334,0.171l0.462,0.507l0.772,2.252
		l0.571,0.891l0.906,2.211l0.837,1.803l2.011,3.173l1.522,2.244l0.397,0.623l0.133,0.378l-0.094,0.284l-0.34,0.379l-0.208,0.265
		l-0.132,0.303l-0.208,0.095l-0.095-0.227l0.076-0.265L340.653,513.754z M338.124,566.447l0.145-0.697l0.004-1.164l0.119,0.132
		l0.282,0.575l0.122,0.195l0.233,0.285l0.107,0.17l0.044,0.334l-0.234,0.15L338.124,566.447z M338.275,564.241l0.022-5.703
		l0.022-5.666l0.022-5.62l0.022-5.586l0.022-5.553l0.022-5.514l0.023-5.482l0.022-5.443l0.403,0.297l0.112,0.173l0.243,0.652
		l0.101,0.19l0.801,1.19l0.795,1.461l0.219,0.283l0.842,0.761l0.375,0.533l0.314,0.643l0.245,0.758l0.452,2.183l0.042,0.31
		l-0.058,0.33l-0.133-0.21l-0.142-0.434l-0.339-1.469l-0.3-0.178l-0.248,0.028l-0.303,0.166l-0.385,0.304l-0.358,0.359l-0.616,0.774
		l-0.746,0.703l-0.419,0.952l-0.108,0.718l0.158,0.75l0.517,0.609l0.706,0.608l0.501,0.046l0.564,0.186l0.846,0.231l1.313-0.132
		l0.959,0.619l0.24,0.656l0.191,0.406l-0.076,0.712l0.047,0.168l0.153,0.39l0.13,0.956l0.099,0.417l0.68,1.352l0.108,0.267
		l2.336,2.613l0.854,0.673l0.269,0.317l0.047,0.32l-0.125,0.301l0.321-0.026l0.278-0.068l0.368,0.273l0.886,0.48l0.111,0.234
		l-0.342,0.091l-0.132,0.366l0.054,0.499l0.146,0.308l3.368,3.051l1.931,1.46l1.397,0.682l0.811,0.543l0.225,0.383l0.44,0.271
		l1.731,0.78l0.798,0.809l0.587,1.229l1.228,1.223l0.32,0.533l0.442,0.247l0.124,0.518l0.418,0.161l0.372,0.076l0.506,0.18l1.1,0.72
		l4.224,2.135l0.169,0.055l0.338,0.035l0.173,0.055l0.419,0.379l0.13,0.057l0.939,0.066l0.859,0.253l2.968-0.464l0.623,0.1
		l0.326-0.01l0.866-0.388l1.891,0.297l0.168,0.135l-0.104,0.301l-0.232,0.301l-0.214,0.135l-0.087,0.184l-0.375,1.137l0.054,0.115
		l0.069,0.219l0.054,0.118l-0.418,0.397l-0.095,0.156l0.014,0.2l0.068,0.24l0.017,0.207l-0.271,0.156l-0.393,0.365l-0.107,0.146
		l-0.322,1.318l-0.149,0.166l-0.179,0.11l-0.151,0.038l-0.267-0.065l-0.047-0.172l0.016-0.24l-0.077-0.266l-0.331-0.207l-0.42,0.009
		l-0.279,0.218l0.099,0.42l-0.274,0.402l-0.996-0.101l-0.425,0.125l-0.102,0.181l-0.059,0.216l-0.081,0.201l-0.171,0.146
		l-0.251,0.061l-0.204-0.056l-0.165-0.167l-0.136-0.277l-0.008-0.106l0.03-0.307l-0.022-0.172l-0.046-0.136l-0.06-0.117l-0.16-0.037
		l-0.223-0.018l-0.244-0.018l-0.505,0.208l-0.815-0.338l-0.302,0.246l-0.794-0.197l-0.262,0.184l0.185,0.323l0.267,0.303
		l-0.221,0.367l-0.303,0.327l-0.832,0.249l-0.69,0.248l-0.976-0.057l-1.484,0.045l-0.671,0.225l0.041,0.367l-0.041,0.326
		l-0.657,0.184L365.233,570l-1.105-0.021l-1.102-0.428l-0.364-0.222l-0.257-0.295l-0.21-0.325l-0.204-0.246l-1.09-0.811
		l-0.346-0.131l-1.41-0.167l-1.051-0.502l-3.712-0.277l-2.559-0.378l-1.563,0.129l-3.25-0.388l-1.792-0.35l-0.566-0.473
		l-1.173-0.115l-0.654-0.419l-0.368-0.146l-0.161,0.196l0.045,0.486l-0.039,0.181l-0.167,0.209l-2.363,0.21l-0.319-0.083
		l-0.225-0.203l-0.375-0.589l-0.505-0.571L338.275,564.241z M396.757,563.11l0.248,0.068l0.276-0.234l0.248-0.152l0.167,0.319
		l-0.264,0.213l-0.103,0.127l-0.099,0.17l-0.156,0.441l-0.095,0.153l-0.176,0.059l-0.232,0.031l-0.152,0.083l-0.626,0.539
		l-0.141,0.023l-0.155-0.104l0.072-0.2l0.224-0.467l0.048-0.127l-0.06-0.316l-0.146-0.038l-0.182,0.137l-0.166,0.217l-0.171,0.17
		l-0.186,0.061l-0.444-0.023l-0.054-0.038l-0.068-0.01l-0.128,0.062l-0.068,0.092l-0.039,0.123l-0.027,0.122l-0.035,0.089
		l-0.296,0.158l-1.147,0.212l-0.076,0.219l-0.174,0.109l-0.192-0.036l-0.13-0.224l0.006-0.231l0.07-0.295l0.16-0.495l-0.224,0.01
		l-0.09,0.047l-0.098,0.101l-0.175-0.167l-0.145,0.021l-0.275,0.279l-0.671,0.438l-0.132,0.137l-0.225,0.306l-0.148,0.141
		l-0.198,0.103l-0.214,0.045l-0.435,0.01l0.039-0.085l0.024-0.071l0.034-0.066l0.07-0.07v-0.158l-0.144,0.002l-0.131,0.05
		l-0.12,0.096l-0.11,0.144l0.048,0.033l0.111,0.125l-0.149,0.15l-0.591,0.289l-0.143,0.177l-0.176,0.404l-0.108,0.148l-0.212,0.068
		l-0.638-0.01l-0.166-0.057l-0.065-0.19l0.074-0.155l0.135-0.167l0.117-0.217l-1.108-0.73l0.061-0.403l0.27-0.254l0.294-0.2
		l0.139-0.241l0.166-0.227l0.371,0.158l0.605,0.438l0.258-0.043l0.74-0.307l0.219-0.229l-0.682-0.713l-0.12-0.328l0.339-0.139
		l0.099,0.1l0.299,0.47l0.149,0.172l0.427,0.146l0.131-0.055l0.231-0.194l0.101-0.042l0.105-0.01l0.124,0.016l0.105,0.104
		l0.044,0.26l0.007,0.321l0.038,0.128l0.086,0.052l0.145-0.038l0.023-0.108l-0.031-0.137l-0.015-0.137l0.004-0.357l-0.031-0.288
		l0.014-0.279l0.143-0.328l0.115,0.026l0.172,0.187l0.207,0.134l0.224-0.142l0.06,0.111l0.054,0.028h0.06l0.078,0.021l0.166,0.089
		l0.371-0.116l0.211,0.028l0.155,0.149l0.153,0.205l0.148,0.156h0.139l0.084-0.208l-0.051-0.215l-0.015-0.175l0.193-0.071
		l0.094,0.05l0.171,0.208l0.12,0.047l0.1-0.059l0.089-0.125l0.1-0.111l0.131-0.01l0.067,0.123l0.148,0.477l0.121,0.142l0.153-0.038
		l0.36-0.321l1.357-0.387l0.407,0.163L396.757,563.11z M421.131,279.255l0.047-0.072l0.106,0.123l0.176,0.329l0.231,0.783
		l0.029,0.243l-0.11,0.226l-0.249,0.019l-0.27-0.105l-0.173-0.141l-0.202-0.216l-0.776-0.278l-0.281-0.178l-0.217-0.212
		l-0.511-0.738l-0.135-0.307l-0.012-0.25l0.24-0.036l0.457,0.224l1.225,0.286l0.25,0.408l0.027,0.143l0.061,0.009l0.06-0.093
		L421.131,279.255z M418.933,277.46l-0.179,0.186l-0.24-0.035l-0.133-0.195l0.139-0.291l0.975,0.051l0.462,0.147l0.374,0.304
		l0.062,0.206l-0.101,0.17l-0.199,0.101l-0.229,0.005l-0.243-0.108L418.933,277.46z M418.079,299.061l0.323,0.049l0.431,0.003
		l0.336,0.356l0.212,0.448l0.258,0.448l-0.112,0.477l-0.358,0.445l-0.236,0.508l-0.281,0.338l-0.34,0.013l-0.308-0.126l0.082-0.493
		l-0.136-0.279l-0.342,0.214l-0.34-0.003l-0.199-0.202l0.219-0.291l0.252-0.461l0.068-0.646l0.254-0.783L418.079,299.061z
		 M418.526,295.136l0.23-0.013l0.367,0.111l0.367,0.156l0.319,0.462l-0.051,0.689l-0.021,0.889l0.07,0.891l-0.079,0.245l-0.12-0.339
		l-0.135-0.415l-0.289-0.386l-0.562-0.864l-0.272-0.616L418.526,295.136z"/>
</g>
<g id="Copyright">
	<text transform="matrix(1 0 0 1 681.6426 577.5916)" class="st1 st2"> Vemaps.com</text>
</g>
</svg>
