<?xml version="1.0" encoding="utf-8"?>
<!-- Generator: Adobe Illustrator 23.0.1, SVG Export Plug-In . SVG Version: 6.00 Build 0)  -->
<svg version="1.1" xmlns="http://www.w3.org/2000/svg" xmlns:xlink="http://www.w3.org/1999/xlink" x="0px" y="0px"
	 viewBox="0 0 800 600" style="enable-background:new 0 0 800 600;" xml:space="preserve">
<style type="text/css">
	.st0{fill:#808080;}
	.st1{font-family:'Roboto-Regular';}
	.st2{font-size:14px;}
</style>
<g id="Bosnia_and_Herzegovina">
	<path class="st0" d="M397.981,505.571l-0.07-0.048l-13.748-8.49l2.496,0.095l3.867,1.76l2.404,0.674l-2.125-2.101l-3.193-1.856
		l7.684-1.621l4.026-2.982l-0.487-5.402l-0.015-0.01l-0.015-0.035l-0.015-0.005l-4.365-10.327l-4.336-5.142l-1.519-1.802
		L369.1,455.374l-1.262-0.837l-2.182-2.598l-1.652-3.766l-1.194-4.005l-0.944-2.079l-1.504-1.381l-2.89-1.852l-5.81-5.446
		l-5.53-8.442l-3.185-9.786l2.684-16.504l-2.271-5.078l-4.424-2.987l-13.803-2.149l-8.302-4.701l-3.175-2.855l-4.537-4.081
		l-6.931-8.116l-22.562-23.192l-15.867-12.68l-2.05-3.273l-1.209-4.198l-0.516-3.326l-1.077-2.877l-5.884-5.486l-4.645-6.465
		l-6.99-7.211l-4.048-6.022l-1.556-2.316l-2.212-2.613l-2.507-1.947l-6.253-2.276l-1.165-2.338l-0.649-2.923l-1.843-3.036
		l-1.43-0.585l-3.716,0.277l-1.534-0.154l-1.401-0.8l-1.607-1.252l-2.743-2.761l-2.094-3.501l-3.171-7.775l-2.064-3.627
		l-6.193-6.693l-2.33-3.415l-2.669-8.561l-1.357-6.229l-0.133-3.028l0.413-2.174l1.445-3.225l0.501-1.67l0.383-3.34l-0.031-0.146
		l-0.396-1.844l-1.534-1.526l-2.964-1.929l-2.595-0.671l-1.593-0.062l-0.531,0.629l0.074-1.558l0.944-0.836l1.209-0.795l0.855-1.424
		l-0.029-3.076l-0.958-3.789l-3.51-9.845l-0.752-3.917l-0.944-3.516l-1.652-2.182l-3.023-0.507l-5.191,2.317l-2.949-0.372
		l-2.935-3.165l1.121-3.207l2.359-3.043l0.634-2.64l1.18-0.611l0.221-0.186l-0.516-2.692l-0.708-2.506l-1.121-1.885l-1.755-0.85
		l-3.48-0.497l-1.784-0.591l-1.445-0.974l-1.902-2.798l-1.076-4.997l-1.534-2.178l-1.077-0.104l-1.18,0.674l-1.209,0.322
		l-1.091-1.131l-0.487-1.742l-0.383-2.085l-0.531-1.878l-0.973-1.141l-1.784-0.114l-1.003,1.256l-0.767,1.722l-1.062,1.286
		l-1.224,0.415l-2.551,0.197l-1.371,0.456l-2.094,0.322l-1.239-1.328l-0.929-2.033l-1.091-1.847l-3.362-2.325l-0.796-1.028
		l-3.598-5.991l-1.593-3.49l-0.177-3.366l2.079-2.775l2.935-0.915l2.492-1.164l0.678-3.556l-1.342-3.828l-2.286-3.621l-1.961-4.049
		l-0.487-5.06l0.464-1.453l0.671-2.099l3.539-6.19l0.546-3.565l-1.696-6.122l0.059-3.766l3.347-8.716l0.619-3.144L130.7,55.165
		l0.133-1.558l1.622-4.414l1.458-1.351l3.172-2.939l7.712-1.266l13.655,0.377l3.274-0.638l1.563,0.073L165,44.306l1.253,1.8
		l-0.074,1.779l-0.531,1.486l-0.089,0.931l1.239,0.931l3.126,0.67l1.784,1.381l2.182,3.639l3.038,7.901l2.492,3.312l13.051,13.07
		l4.026,2.524l5.441,2.378l5.264,1.199l3.48-0.949l0.768-2.84l1.562-5.777l2.905-5.449l0.664-1.639l0.295-2.371l-0.295-1.316
		l-0.029-1.139l1.062-1.87l1.327-0.93l3.746-1.181l1.534-1.129l1.947-3.084l4.675-10.407l6.71-4.605l8.288,0.283l28.431,8.507
		l3.628-0.481l1.784-1.59l0.221-1.475l-0.103-1.758l0.811-2.418l1.43-1.424l1.593-0.691l1.401-0.974l0.796-2.262l1.15-0.723
		l1.489-1.676l1.165-1.686l0.428-0.932L293.973,30l1.18,1.163l1.15,4.264l0.206,1.602l-0.089,1.749l0.826,1.12l2.949-0.325
		l-0.383-1.403l-0.59-1.361l2.109,0.764l1.74,2.157l1.504,1.037l1.371-2.586l0.531,1.56l0.221,1.194l-0.147,1.235l-0.605,1.685
		l0.87-0.733l2.256-1.455l0.87-0.712l2.772,6.081l6.09,4.614l3.74,1.741l8.913,4.147l1.534-0.889l6.798-0.492l0.605-0.91
		l2.743-6.004l5.545,3.672l2.669,1.109l4.689,3.085l1.312,1.129l1.976,1.108l2.625-0.282l4.748-1.526l0.295-0.68l0.369-1.255
		l0.649-0.795l1.121,0.722l0.826,1.349l0.162,1.15l-0.442,1.118l-1.032,1.275l1.799,0.617l1.711-0.303l3.406-1.808l-1.312,4.212
		l-0.737,1.306l1.062-0.376l7.167-0.951l3.126,0.324l1.563-0.209l2.949-1.86l5.264-5.614l3.082-1.621l4.734,0.282l4.247,2.415
		l3.834,3.795l8.007,10.374l2.581,2.381l2.876,1.159l1.416-0.167l4.217-1.764l3.908-0.762l1.224-0.668l2.359-2.214l8.671-10.47
		l2.138-1.119l2.227-0.021l2.271,1.234l7.889,7.148l3.156,1.494l2.772,0.554l1.691,0.034l1.42,0.029l3.038-0.648l2.507-1.567
		l0.973-2.121l0.103-2.55l0.324-2.519l1.563-1.965l3.51-0.742l3.436,1.37l6.488,4.683l2.123,0.94l10.072,0.857l2.728,1.254
		l2.463,2.068l3.216,3.487l2.034,2.205l2.229,1.439l1.296,0.836l3.746,1.399l3.436,0.115l-0.265-2.839l-0.693-2.464l0.057-1.389
		l0.017-0.407l2.094-0.877l1.15,0.073l2.3,0.574l1.15,0.042l0.958-0.376l1.991-1.222l0.944-0.167l1.076,0.491l0.634,0.919
		l0.973,2.642l0.811,1.629l0.988,1.336l1.165,0.543l1.342-0.731l0.442-0.971l0.295-1.222l0.398-1.18l0.752-0.783l0.973-0.104
		l0.841,0.522l0.708,0.919l5.323,10.928l1.711,2.065l1.681,0.741l3.982,0.386l0.988,0.376l0.575,0.553l0.398,0.845l0.413,1.23
		l0.074,0.427v1.074l0.088,0.594l0.31,0.573l0.723,0.99l0.221,0.698l-0.428,1.991l-3.097,2.365l-1.032,1.969l1.534,5.79l4.911,5.278
		l3.472,2.277l2.368,1.552l4.409,1.477l12.169-0.315l4.288-0.111l1.548-0.468l4.557-1.425l2.949-0.426l2.301-0.832l12.8-9.358
		l1.799-0.427l0.9,1.208l0.531,1.687l0.708,0.968h1.43l2.522-1.083l1.416-0.281l6.326,1.364l1.312-0.208l1.18-0.593h1.268
		l2.861,2.748l1.416,0.5l1.445-0.156l0.383-0.219l0.029-0.187l0.545,0.632l0.827,0.96l0.841,0.801l0.59,1.145l0.413,1.675
		l0.133,2.039l-0.501,0.551l-0.752,0.198l-0.59,0.936l-5.043,24.261l-1.475,3.715l-1.371,2.075l-2.876,2.427l-1.519,1.639
		l-1.077,1.856l-2.05,6.012l-6.71,11.477l-0.649,0.652l-1.548,0.911l-0.708,0.911l-0.295,1.346l0.147,3.208l-0.28,1.417
		l-0.811,1.593l-0.929,1.365l-1.121,0.951l-5.043,1.675l-0.369,3.154l2.286,8.867l-0.28,5.474l-1.681,2.932l-1.976,2.508
		l-1.224,4.169l0.251,3.806l1.106,3.98l3.17,6.854l2.581,3.142l2.875,1.318l6.12,1.339l2.949,1.504l1.254,0.391l2.02,0.113
		l4.601-1.122l1.637,0.319l2.418,2.039l2.463,3.613l1.77,4.281l0.295,4.043l0.9,2.551l2.684,2.807l6.238,4.636l1.519,1.531
		l1.003,0.575l0.841-0.247l1.607-1.644l0.855-0.021l1.209,1.572l0.31,3.555l0.899,1.263l2.212,2.075l2.571,3.782l0.835,1.228
		l4.645,2.73l2.33,2.853l1.327,1.067l0.516-0.554l0.87-1.19l1.283-0.451l1.784,1.601l1.062,3.734l-1.209,3.261l-2.433,2.717
		l-5.869,4.397l-3.377,1.23l-3.495,0.307l-8.125-0.82l-7.58,0.543l-2.124,0.635l-2.065,0.113l-1.843-1.158l-3.687-3.464
		l-3.613-2.563l-1.888-0.697l-2.079,0.123l-2.949,0.974l-1.224,1.087l-0.782,1.886l0.015,1.414l0.678,2.49l-0.31,1.404l-1.622,1.598
		l1.666,1.055l4.911,3.784l4.35,5.65l7.639,12.376l14.584,15.83l2.861,6.501l3.421,10.969l0.236,5.218l-3.657,3.602l-0.605,2.353
		l-0.265,2.841l0.177,2.734l0.693,2.082l1.032,0.972l0.398,0.901l-0.31,0.819l-1.121,0.712l-5.397-2.173l-1.725,0.142l-1.784,4.309
		l-1.224,1.673l-1.121-1.75l-1.18-3.312l-2.02-3.766l-2.433-3.151l-2.404-1.431l-1.534,0.458l-3.303,2.632l-1.681,0.957
		l-1.666,0.071l-3.642-0.595l-1.563,0.458l-1.976,3.252l-1.342,4.406l-1.711,3.336h-3.156l-6.798-1.053l-3.554,0.432l-3.819,4.535
		l-2.802,1.113l-3.052,0.107l-2.404-0.849l-1.873-2.364l-1.534-2.904l-2.005-1.989l-3.244,0.326l-2.109,1.561l-3.392,3.809
		l-2.625,1.327l-1.357,0.971l-0.841,1.616l0.074,1.657l1.372,1.031l2.197,0.61l1.032,0.655l1.902,2.977l-0.074,1.28l-0.619,1.615
		l-0.015,1.01l3.141-0.818l1.003,0.752l4.94,6.538l4.232,11.834l4.291,8.215l-1.018,0.871l-3.746,0.208l-1.652,0.902l-0.31,0.428
		l-0.766,1.056l-0.899,1.732l-1.135,1.641l-1.489,1.342l-0.422-0.963l-0.079-0.181l-2.905-3.778l-1.298-2.203l-0.339-1.642
		l0.118-1.404l-0.089-1.348l-1.003-1.414l-3.834-2.702l-3.465-0.994l-8.494,0.801l-2.625,1.262l0.487,0.781l0.811,1.815l0.457,0.785
		l-3.76,1.201l-18.212,13.436l-2.168,3.193l3.436,1.705l-6.149,8.669l-2.315,4.949l-1.134,5.926l-0.075,0.394l0.074,5.105
		l2.551,14.88l-5.795-0.822l-8.479,0.111l-7.978,1.805l-4.321,4.144l-2.743,7.644l0.074,3.374l1.416,3.902l3.377,6.849l0.811,3.727
		l-1.047,1.896l-1.784,1.393l-1.401,2.177l0.133,3.383l1.327,4.653l1.932,4.656l4.955,8.113l2.905,3.021l2.448,3.191l1.475,5.316
		l-0.059,5.654l-0.965,2.423l-0.628,1.575l-3.023,2.971l-1.491,0.871l-2.874,1.678l1.003,1.938l0.31,1.737l-0.531,1.181l-1.475,0.21
		l-1.607-1.041l-1.652-0.13l-1.607,0.681L509.846,570l-2.33-0.856l-5.102-0.561l-2.109-1.377l-0.1-0.148l-2.878-4.243l-1.563-1.207
		l-3.864,0.25l-7.771-2.65l-4.704-2.555l-24.936-16.822l-7.712-4.989l-3.347-2.821l-6.134-6.966l-3.48-2.673l-4.999-1.412
		l-1.563-1.005l-4.468-7.033l-0.295-2.223l0.162-4.694l-0.413-1.892l-1.652-2.24l-1.298,0.045l-1.135,0.982l-1.135,0.624
		l-3.038-0.533l-5.972-2.361l-3.141-0.634l-3.156,0.745l-1.932,2.049L397.981,505.571z"/>
</g>
<g id="Copyright">
	<text transform="matrix(1 0 0 1 681.6426 577.5916)" class="st1 st2">© Vemaps.com</text>
</g>
</svg>
