<?xml version="1.0" encoding="utf-8"?>
<!-- Generator: Adobe Illustrator 23.0.1, SVG Export Plug-In . SVG Version: 6.00 Build 0)  -->
<svg version="1.1" xmlns="http://www.w3.org/2000/svg" xmlns:xlink="http://www.w3.org/1999/xlink" x="0px" y="0px"
	 viewBox="0 0 800 600" style="enable-background:new 0 0 800 600;" xml:space="preserve">
<style type="text/css">
	.st0{fill:#808080;}
	.st1{font-family:'Roboto-Regular';}
	.st2{font-size:14px;}
</style>
<g id="Bolivia">
	<path class="st0" d="M167.51,345.227l0-0.047l0.069-2.928l-0.119-1.449l-0.439-1.211l-0.567-0.737l-0.776-0.805l-1.577-1.27
		l-0.616-0.22l-2.011-0.269l-0.081-0.011l0.668-1.046l0.609-2.273l0.432-0.889l0.174-0.055l0.673-0.11l0.239-0.076l2.114-1.942
		l1.209-0.825l1.067-0.423l1.121-0.212l1.045-0.398l0.838-0.977l0.186-0.647l-0.186-0.258l-0.285-0.127l-0.127-0.237l0.116-0.397
		l0.252-0.271l1.676-1.002l0.464-0.549l1.037-2.269l3.97-4.25l0.54-0.866l0.743-2.208l0.364-0.583l0.625-0.392l1.4-0.135
		l0.725-0.177l2.278-1.19l0.655-0.494l0.648-0.848l0.476-0.624l-1.048-1.477l-0.195-0.679l0.097-1.269l-0.049-2.382l0.081-0.831
		l0.35-0.708l1.023-1.277l1.305-0.67l4.401-1.761l0.874-1.394l-0.397-1.099l-0.9-0.615l-2.037-0.825l-1.594-1.764l-0.881-0.543
		l-1.1,0.37l-1.274-0.4l-0.423-0.038l-0.428,0.151l-0.758,0.589l-0.442,0.19h-1.003l-0.934-0.316l-0.844-0.53l-0.728-0.627
		l-1.36-1.721l-0.879-2.222l-1.66-4.198l-1.665-4.191l-1.661-4.189l-1.667-4.191l-0.474-1.201l-0.222-1.217l0.346-1.213l2.534-3.856
		l0.207-0.793l0.101-0.814l0.2-0.797l0.51-0.73l0.395-0.218l1.069-0.365l0.274-0.18l0.02-0.352l-0.452-1.208l0.226-0.654
		l0.624-0.834l0.755-0.687l1.303-0.453l0.527-1.563l0.759-0.05l0.923,0.063l0.615-0.499l0.091-0.742l-0.926-0.913l-0.967-1.387
		l-0.633-0.62l-2.328-1.746l-0.641-0.657l-2.25-3.462l-0.654-0.615l-0.841-0.791l-0.249-0.703l0.174-0.753l0.641-1.519l0.082-0.314
		l-0.166-3.312l0.057-0.694l0.357-0.548l0.875-0.535l2.172-0.61l0.622-0.364l0.54-1.166l0.248-5.181l0.502-0.785l0.771-0.079
		l0.888,0.188l0.854,0.025l0.23-0.451l-0.114-1.863l0.123-0.697l0.238-0.184l0.667-0.175l0.279-0.138l1.543-1.791l0.76-0.564
		l2.542-1.427l0.778-0.73l-0.171-0.809l-0.536-0.805l-0.307-0.722l-0.041-1.56l0.06-0.78l0.217-0.697l0.987-0.709l1.314-0.338
		l2.644-0.342l0.754-0.817l-0.174-1.413l-0.971-2.701l-0.245-1.388l-0.226-0.625l-0.407-0.579l-2.094-1.387l-0.518-0.737
		l-0.237-1.295l-0.006-1.466l-0.148-1.366l-0.671-1.024l-0.506-1.544l-0.047-0.545l0.135-0.649l0.19-0.474v-0.462l-0.434-0.599
		l-2.112-1.723l-0.803-1.161l0.548-0.915l0.51-0.05l1.193,0.216l0.446-0.083l0.344-0.441l0.009-0.47l-0.075-0.507l0.091-0.553
		l0.305-0.462l0.827-0.902l0.337-0.516l0.346-0.965l0.238-0.998l-0.145-0.91l0.456-7.849l-0.557-3.16l-0.103-1.621l0.294-4.757
		l-0.07-0.577L188,159.794l-0.014-1.721l0.22-0.904l1.233-0.966l0.418-0.97l0.474-0.75l0.86,0.12l0.494-1.132l0.603-0.833
		l0.796-0.543l3.226-0.883l0.297-0.356l0.906-1.794l-0.392-0.443l-1.265-0.352l-0.363-0.377l0.047-0.654l0.373-0.58l0.539-0.456
		l1.167-0.634l0.556-0.505l0.451-0.592l0.323-0.609l0.236-0.799l0.228-0.368l0.396-0.174l-0.204-0.364l-0.968-1.727l-4.081-7.25
		l-4.08-7.245l-4.084-7.241l-4.08-7.236l-4.082-7.231l-4.083-7.23l-4.077-7.222l-4.083-7.213l-0.138-0.243l-0.141-0.247
		l-0.141-0.251l-0.139-0.247l-0.139-0.247l-0.143-0.243l-0.137-0.243l-0.142-0.247l2.924,0.119l1.545-0.161l2.638-0.646l1.286,0.202
		l1.31,0.371l1.411,0.222l2.218-0.082l3.062,0.366l1.448,0.338l1.353-0.136l0.609,0.111l2.906,1.264l0.176,0.029h0.357l0.174-0.029
		l0.92-0.049l1.85,0.515l0.943,0.119l0.982-0.235l1.065-0.404l1.057-0.227l1.177,0.35l0.662,0.338l-0.64,0.923l-0.456,0.964
		l-0.216,1.03l0.163,1.631l0.118,0.371l0.315,0.21l0.688,0.021l5.578-1.141l1.083-0.552l2.031-1.479l1.674-0.564l0.655-0.103h0.661
		l0.675,0.115l0.556-0.161l1.243-1.166l0.71-0.375l1.843-0.181l0.677-0.28l0.802-0.576l0.742-0.754l0.659-0.848l0.538-0.869
		l1.025-2.347l0.548-0.761l2.201-2.362l1.377-2.609l0.556-0.65l0.912-0.638l1.205-0.588l0.651-0.206l0.661-0.082l1.112,0.185
		l4.661-0.222l0.582,0.086l0.564,0.16l0.746,0.436l1.538,1.218l0.75,0.304l1.332-0.346l0.649-1.148l0.356-1.44l0.445-1.193
		l0.424-0.444l1.186-0.987l0.495-0.596l0.77-1.225l0.437-0.53l0.6-0.543l0.764-0.234l1.399-0.691l1.609-0.547l0.788-0.497
		l0.685-0.65l0.544-0.736l0.172-0.452l0.014-0.325l0.101-0.3l0.428-0.354l0.358-0.107l1.728-0.029l0.451-0.074l0.416-0.148
		l0.295-0.247l0.063-0.382l-0.224-0.867l0.063-0.349l0.56-0.288l0.893-0.148l1.623-0.057l0.71,0.107l1.536,0.415l0.667-0.004
		l0.485-0.284l0.291-0.44l0.226-0.452l0.287-0.325l0.39-0.135l0.823-0.041l0.418-0.078l1.789-1.019l6.322-6.51l5.164-3.995
		l0.744-0.394l3.191-1.236l0.388-0.246l0.206-0.324l0.091-0.439l0.139-0.406l0.247-0.316l0.42-0.144l4.616-0.808l2.385,0.189
		l0.788-0.103l0.76-0.275l1.625-0.923l0.644-0.25l3.831-0.587l0.718-0.267l1.213-0.796l0.677-0.287l2.159-0.226l0.148,0.074
		l0.148,0.164l0.17,0.156l0.211,0.037l0.198-0.144l0.276-0.476l0.16-0.119l0.586-0.115l0.206,0.045l0.485,0.176l1.038,0.587
		l0.52,0.135l0.747-0.168l1.749-1.083l0.732-0.213l0.689-0.045l0.55,0.057l1.598,0.381l0.468,0.021l0.471-0.258l0.64-0.677
		l0.094,0.279l0.167,0.345l0.206,0.312l0.219,0.164l0.395-0.062l0.106-0.353l-0.007-0.427l0.049-0.295l0.318-0.779l0.232-0.185
		l0.249,0.525l0.088,0.386l0.102,0.295l0.192,0.213l0.362,0.139l1.475-0.615l0.607-0.033l-0.148,0.902l-0.139,0.496l0.164,0.119
		l0.315-0.037l0.312,0.041l0.106-0.025l0.42-0.152l0.182-0.021l0.248,0.127l0.349,0.41l0.204,0.176l1.158,0.775l0.567,0.279
		l0.715,0.16l0.475-0.029l0.18-0.176l0.091-0.263l0.202-0.291l0.049-0.119l0.027-0.39l0.076-0.156l0.202-0.115l0.47-0.086
		l0.156-0.074l0.45-0.505l0.387-0.578l0.158-0.369l0.167-0.611l0.249-0.361l1.782-1.493l0.523-0.599L326.607,30l1.027,0.012
		l0.714,0.262l1.075,0.947l0.565,1.23l0.091,0.135l0.535,1.772l0.381,0.439l0.537,0.468l0.478,0.521l0.206,0.619l-0.175,0.923
		l-0.847,1.613l-0.315,0.862l-0.138,1.605l0.153,1.634l0.344,1.511l0.727,2.065l0.161,0.846l0.092,1.721l0.09,0.411l0.39,0.92
		l0.079,0.411l-0.127,0.374l-0.676,1.031l-0.401,1.951l-0.477,0.92l-1.455,0.707l-0.556,0.764l-0.428,0.9l-0.174,0.717l-0.004,0.015
		l0.065,0.308l0.065,0.132l0.163,0.127l-0.926,1.689l-0.565,0.555l-0.962,0.197v0.271l0.472,0.703l0.087,0.263l-0.04,0.193
		l-0.186,0.37l-0.04,0.238l0.033,0.337l0.091,0.411l0.133,0.35l0.153,0.148l0.108,0.428l-0.251,1.966l-0.002,0.596l0.668,0.744
		l0.697,0.436l0.549,0.559l0.222,1.135l-0.047,0.699l-0.294,1.518l-0.585,1.811l0.197,0.519l1.541,0.412l0.708,0.49l0.589,0.622
		l0.318,0.593l0.242,3.409l0.104,0.222l0.219,0.218l0.192,0.305l0.019,0.494l-0.152,0.346l-0.261,0.235l-0.32,0.214l-0.337,0.292
		l-0.607,0.935l-0.028,0.708l0.221,0.684l0.146,0.828l-0.303,0.721l-1.511,1.187l-0.589,0.68l-0.133,0.981l0.506,0.622l0.66,0.47
		l0.325,0.536l-0.236,0.606l-0.491,0.317l-0.391,0.445l0.052,0.973l0.5,0.73l0.804,0.59l0.747,0.42l0.327,0.264l-0.141,0.507
		l-0.682,0.808l-0.244,0.466l-0.04,0.396l0.069,0.33l1.309,3.423l1.059,1.13l1.365-0.375l0.959,0.52l0.406,0.363l0.261,0.507v0.392
		l-0.298,0.718l0.008,0.524l0.163,0.536l0.184,0.12l0.281,0.004l0.466,0.182l0.84,0.574l0.256,0.359l-0.919,0.305l-0.095,0.367
		l0.16,0.986l-0.081,0.392l-0.349,0.603l-0.081,0.38l0.018,1.457l0.221,0.553l0.538,0.595l0.703,0.524l0.507,0.132l0.311-0.372
		l0.216-1.941l0.158-0.504l0.24-0.322l0.565-0.161l0.115,0.376l-0.121,0.904l0.562,0.545l0.71,0.289l0.606,0.384l0.362,1.301
		l0.508,0.88l0.19,0.442l0.039,0.388l-0.069,0.81l0.029,0.392l0.187,0.851l0.218,0.364l0.397,0.19l0.133,0.008l0.389,0.182
		l0.253,0.421l0.064,0.492l-0.171,0.392l-0.539,0.769l-0.067,0.727l0.27,0.632l0.469,0.479l0.548,0.306l0.62,0.161l1.66,0.078
		l0.809,0.165l0.821,0.293l0.838,0.136l0.87-0.322l0.478,0.223l0.716,0.141l0.657,0.269l0.286,0.595l0.184,0.81l0.466,0.752
		l1.243,1.331l-0.289,0.554l0.182,0.438l0.436,0.211l0.474-0.132l0.103-0.323l0.131-1.063l0.153-0.231l0.644-0.07l0.135,0.223
		l0.191,0.666v0.331l-0.274,0.492l-0.016,0.269l0.119,0.211l0.343,0.339l0.072,0.136l0.41,0.397l0.95,0.567l1.844,0.835l0.484,0.058
		l1.023,0.012l0.253,0.054l0.639,0.525l0.806,0.418l0.044-0.124l0.004-0.091l0.055-0.05l0.571,0.079l0.19,0.058l0.64,0.55
		l0.156,0.314l0.035,0.463l-0.046,0.889l-0.2,0.865l-0.704,1.605l0.104,0.683l0.241,0.161l0.86,0.306l0.357,0.203l0.331,0.377
		l0.458,0.849l0.293,0.418l0.53,0.551l0.61,0.489l0.742,0.344l0.922,0.132l1.586-0.294l0.585,0.153l0.397,1.259l0.364,0.087
		l0.373-0.083l0.19-0.079l0.275-0.178l0.435-0.456l0.358-0.161l0.835-0.066l0.691,0.199l0.565,0.368l1.089,1.163l0.409,0.137
		l0.392-0.381l0.584-0.849l0.601,0.7l2.347,0.079l0.846,1.151l0.73-0.095l1.241-0.464l0.513,0.166l0.364,0.352l0.428,0.294
		l0.697,0.008l0.473-0.402l0.261-0.356l0.218-0.389l1.318-1.64l0.012-0.224l0.677-0.091l1.197-0.389l0.532-0.091l5.619,0.82
		l0.113,0.116l2.128,1.114l1.631,1.354l0.647,0.323l0.859,0.128l0.497,0.017l0.445,0.07l0.406,0.166l0.374,0.294l0.291,0.439
		l0.069,0.402l0.024,0.381l0.152,0.394l0.323,0.277l0.348,0.112l0.281,0.174l0.115,0.447l0.148,0.265l1.492,1.106l0.869,0.215
		l0.455,0.191l1.136,0.895l0.489,0.199l2.761-0.025l0.445-0.112l0.154-0.298l0.366-0.344l0.815-0.588l0.178-0.042l0.459,0.066
		l0.19-0.025l0.18-0.17l0.174-0.452l0.18-0.199l1.079-0.472l0.109-0.075l0.455,0.087l0.776,0.373l1.18,0.298l0.402,0.543
		l0.271,1.434l0.166,0.257l0.255,0.207l0.142,0.224l-0.299,0.468l-0.042,0.228l0.042,0.228l0.125,0.182l0.869,0.763l0.428,0.481
		l0.184,0.41l0.115,0.883l0.309,0.767l0.436,0.593l0.497,0.361l0.422,0.149l0.366,0.037l0.338-0.091l0.332-0.232l0.358-0.137
		l0.2,0.274l0.129,0.377l2.056,2.679l0.111,0.261l0.194,0.191l0.435,0.075l0.394,0.025l0.293,0.087l0.186,0.203l0.063,0.348
		l0.192,0.651l0.499,0.56l0.687,0.473l0.758,0.394l0.071-0.797l0.42-0.22l0.649,0.008l0.754-0.112l0.503-0.319l0.398-0.319
		l0.483-0.066l0.75,0.456l0.374,0.332l0.257,0.315l0.15,0.365l0.091,0.954l0.138,0.187l3.406,1.477l2.422-0.071l0.804,0.137
		l0.534,0.382l1.077,1.278l0.087,0.191l0.048,0.403l0.131,0.079l0.542-0.033l0.139,0.033l0.665,0.423l0.307,0.112l1.831,0.212
		l0.526-0.058l0.432-0.39l0.79,0.324l0.653-0.145l0.566-0.307l1.467-0.382l0.396-0.037l0.414,0.096l1.055,0.726l0.059-0.921
		l0.394,0.116l0.881,1.054l0.418,0.158l0.34-0.087l0.226,0.058l0.085,0.585l0.002,2.693l0.119,0.689l0.398,0.548l0.841,0.615
		l1.726,1.915l0.544,0.283l0.041,0.17l0.602,0.951l0.214,0.145l0.877,0.403l0.665,0.457l1.898,1.866l0.404,0.295l0.766,0.399
		l0.297,0.279l0.146,0.316l0.806,2.69l0.455,0.395l0.875,0.146l0.77-0.158l0.784-0.279l0.778-0.125l0.752,0.312l0.758-0.461
		l0.893-0.345l0.97-0.22l2.776-0.258l0.159,0.028l0.195,0.035l1.064,1.006l0.393,0.216l1.853,0.408l1.747-0.179l1.693-0.628
		l2.65-1.385l0.6,0.046l0.596,0.245l1.405,0.254l0.829,0.516l0.449,0.175h0.417l0.893-0.279l2.579,0.096l0.383-0.233l0.224-0.806
		l0.581-0.383l1.671-0.249l0.15-0.158l0.472-0.291l0.504-0.104l0.233,0.403v1.634l0.753,0.807l1.726,0.312l1.9,0.129l1.273,0.27
		l0.724,0.703l0.296,0.204l2.687,1.156l2.988,2.361l2.85,2.252l1.354,0.728l0.899,0.191l0.253,0.117l0.146,0.183l0.207,0.483
		l0.174,0.183l0.355,0.175l2.951,0.716l0.703,0.408l0.288,0.753l0.084,1.083l0.227,1.107l0.333,1.041l0.401,0.87l0.317,0.337
		l0.853,0.716l0.075,0.237l-0.191,0.408l0.242,0.25l0.379,0.171l0.237,0.158l0.098,0.337l-0.03,0.246l-0.334,0.767l-0.504,1.892
		l-0.392,0.871l-0.696,0.608l-0.945,0.267l-0.269,0.204l-0.205,0.546l-0.162,0.917l-0.05,0.917l0.127,0.538l0.519,0.905l0.015,1.026
		l-0.141,1.097l0.051,1.101l0.392,0.738l2.127,1.781l0.336,0.659l0.573,2.537l1.287,2.868l0.21,1.683l-1.204,0.413l0.645,1.316
		l1.904,1.324l0.482,0.886l0.113,2.453l0.155,3.315l0.156,3.316l0.158,3.317l0.155,3.318l0.121,2.625l-0.202,0.477l-4.472,0.054
		l-7.546,0.096l2.064,1.817l2.711,3.263l4.226,5.083l3.586,4.319l0.55,0.902l0.329,0.99l0.514,6.039l0.697,8.195l0.517,6.037
		l0.266,4.366l0.28,4.613l0.748,1.743l1.207,0.337l2.715,0.097l7.447,0.274l7.449,0.27l7.449,0.27l7.448,0.274l7.448,0.27
		l7.45,0.274l7.444,0.274l7.45,0.27l2.826,0.101l0.879-0.114l0.806-0.409l0.289-0.387l0.544-1.007l0.289-0.198l1.69,0.042
		l0.398,0.362l0.196,3.968l-0.168,0.565l-0.918,0.767l-0.05,0.708l0.819,1.488l-0.525,1.484l-3.903,4.47l-0.657,1.245l-0.297,1.393
		l0.141,1.768l0.798,3.082l0.129,1.588l-0.085,0.287l-0.35,0.727l-0.101,0.384l0.014,0.482l0.388,2.032l0.671,1.238l0.263,0.74
		l0.222,2.858l0.202,0.63l0.416,0.719l0.184,0.897l0.057,3.664l0.222,1.549l0.703,1.219l1.465,0.809l1.233,0.161l0.392,0.118
		l0.386,0.241l0.699,0.589l0.386,0.246l0.327,0.102l0.635,0.11l0.327,0.186l0.443,0.597l0.633,1.355l0.612,0.457l0.542,0.144
		l0.445,0.055l0.429,0.123l0.503,0.335l1.069,1.186l0.426,0.318l1.385,0.602l0.471,0.263l1.702,1.411l1.122,0.492l1.484,0.373
		l1.482,0.102l1.122-0.331l0.895-0.153l0.679,0.102l0.873,0.356l0.536,0.564l0.39,0.916l0.097,1.018l-0.051,0.967l0.079,0.67
		l-0.016,1.578l0.081,0.764l0.311,0.738l0.406,0.543l0.495,0.488l0.568,0.395l0.622,0.263l-0.333,1.307l0.143,0.446l0.703,0.883
		l0.568,0.998l-0.077,0.739l-1.225,0.123l3.644,6.373l2.011,5.005l1.346,2.506l1.56,0.902h0.8l0.633,0.102l0.348,0.4l-0.044,0.898
		l-2.696,0.038l-0.71,0.166l-0.503,0.477l-0.637,2.044l-1.839,5.883l-1.837,5.883l-1.837,5.888l-1.841,5.893l-0.441,1.41
		l1.568,0.132l0.408,0.346l0.166,0.825l0.226,2.449l0.232,1.796l-2.193,0.171l-0.669,0.436l-0.901,1.895l-1.215,2.559l-2.68,5.635
		l-2.676,5.639l-1.219,2.564v0.004l-0.002,0.004l-0.481,1.029l-1.053,2.261l-1.055,2.266l-0.481,1.026l-1.364,2.928l0.301,1.168
		l2.965,2.719l3.155,2.897l3.939,3.621l-0.392,0.533l-0.445,0.675l-0.566,0.624l-0.873,0.417l-0.988-0.254l-0.625-0.078
		l-0.281,0.202l-0.101,0.361l-0.269,0.323l-0.386,0.232l-0.447,0.09l-0.988,0.405l-1.219,1.778l-1.019,0.405l-0.261,0.146
		l-0.471,0.719l-0.206,0.245l-0.499,0.267l-1.661,0.612l-0.028-1.085l0.578-2.204l0.063-0.869l-0.053-1.756l0.103-0.925
		l-0.129-1.303l-0.667-2.382l-0.079-1.333l0.119-1.376l-0.127-0.593l-0.424-0.481l-1.532-0.958l-3.65-2.272l-3.646-2.276
		l-3.648-2.271l-3.646-2.274l-3.65-2.269l-3.648-2.269l-3.65-2.272l-3.646-2.271l-1.973-1.225l-1.118-0.801l-1.172-0.835
		l-0.778-0.197l-3.175,0.043l-7.367,0.099l-7.369,0.094l-7.367,0.099l-7.371,0.094l-3.21,0.043l-5.891,1.281l-13.239,2.879
		l-13.238,2.881l-13.237,2.886l-13.239,2.883l-0.839,0.129l-1.848,0.283l-1.845,0.283l-0.841,0.129l-3.482,0.532l-0.625,0.262
		L470.594,434l-0.738,2.044l-1.1,3.049l-1.1,3.055l-1.1,3.061l-1.102,3.058l-0.507,1.076l-0.503,1.076l-0.247,0.523l-0.26,0.549
		l-0.503,1.076l-0.653,0.995l-0.651,0.99l-0.649,0.995l-0.651,0.995l-1.748,2.538l-1.748,2.534l-1.75,2.54l-1.748,2.536
		l-0.818,1.189l-0.854,1.241l-1.425,2.176l-0.331,1.114l0.044,3.801l0.044,3.678l0.048,4.022l0.074,6.098l0,0.022l-0.15,2.75
		l-1.259,4.307l-1.271,4.345l-1.372,4.687l-1.427,4.89l-1.338,4.459l-1.823,6.099l-1.425,4.772l-1.706,5.722l-1.039,3.76
		l-1.099,3.998l-0.893,2.109l-0.338-0.118l-0.111-0.301l-0.055-0.38l-0.166-0.38l-0.463-0.498l-1.672-1.205l-1.851-0.908
		l-0.552-0.585l-0.291-0.746l-0.006-1.335l-0.263-0.515l0.107-0.349l0.002-0.419l-0.249-1.592l-0.117-0.397l-0.556-0.135l-1.7-0.323
		l-5.785,0.314l-0.02,0.004l-12.3-0.07l-12.3-0.07l-1.504,0.262L395,532.535l-1.819,1.627l-0.445-0.205l-1.613-1.443l-0.786-0.357
		l-3.648-0.249l-1.047,0.196l-0.564,0.244l-0.131,0.135l-0.02,0.249l-0.374,0.946l-0.141,0.82l-0.135,0.336l-0.301,0.31
		l-0.299,0.148l-0.271,0.083l-0.206,0.153l-0.342,0.689l-0.602,2.37l-1.222,3.117l-0.304,0.472l-0.785,0.432l-0.288,0.31
		l-2.907,7.636l-0.945,1.387l-2.019,1.925l-0.567,1.015l-1.688,6.363l-0.024,3.055l-0.348,0.824l-0.918,3.263l0.065,0.54
		l-0.728-0.351l-0.15-1.983l-0.48-0.592l0.3-1.013l-0.133-1.153l-0.518-0.942l-0.852-0.39l-0.428-0.346l-1.039-2.261l-0.389-0.302
		l-0.352-0.136l-0.254-0.245l-0.099-0.631l0.04-0.482l0.186-0.828l0.04-0.425l0.152-0.46l0.324-0.377l0.29-0.433l0.061-0.626
		l-2.169-2.166l-0.563-0.779l-0.231-0.967l-0.148-0.254l-0.701-0.464l-0.218-0.31l0.01-0.429l0.304-0.818l-0.05-0.459l-0.521-0.468
		l-0.821-0.577l-0.514-0.739l0.389-0.988l0.505-0.612l0.27-0.585l-0.02-0.677l-0.355-0.865l-0.327-0.502l-1.043-1.284l-0.365-0.262
		l-0.785-0.183l-0.877-0.445l-0.746-0.559l-0.832-0.127l-0.328-0.109l-0.305,0.057l-0.722,0.319l-0.36,0.065l-1.542-0.375
		l-2.744-1.558l-7.349-1.728l-6.654,0.08l-10.438,0.125l-2.078-0.236l-2.715-0.397l-0.338,0.035l-0.192,0.161l-0.174,0.192
		l-0.291,0.144l-5.448,0.633l-1.201-0.38l-1.144-0.811l-5.012-5.961l-0.853-0.484l-3.6-0.636l-0.204-0.227l-0.463-2.047
		l-1.209-1.311l-1.695-0.862l-3.311-1.075l-0.686,0.231l-1.859,6.935l-0.376,3.937l-0.17,0.619l-0.239,0.51l-0.087,0.048l-0.166-0.1
		l-0.493,0.065l-0.336,0.209l-0.303,0.345l-0.242,0.41l-0.159,0.397l-0.948,0.738l-5.197,1.514l-4.554,1.253l-0.15,0.201
		l-0.105,0.319l-0.119,0.271L279.715,541l-0.643-0.218l-0.766-0.096l-0.432-0.144l-0.424-0.039l-0.53,0.24l-0.901,0.786
		l-0.507,0.839l-0.283,0.987l-0.463,3.142l-0.283,0.957l-0.503,0.63l-0.097,0.35l0.237,1.224l-0.024,0.437l-0.445,0.306
		l-4.388,1.382l-1.043,0.551l-0.792,0.853l-0.378,0.578l-0.505,0.346l-0.602,0.14l-0.865-0.083l-0.667,0.031l0.327,3.94
		l-0.089,0.924l-0.433,0.644l-2.955,2.353l-1.152,1.385l-2.003,3.372l-12.374,2.698l-1.441,0.285L241.564,570l-6.05-0.364
		l-1.257-0.426l-0.301-0.298l-0.851-1.338l-0.192,0.031l-1.502-0.307l-0.42-0.632l-0.172-1.096l0.006-3.275l1.275-6.307
		l-0.018-0.827l-1.193-2.376l-0.333-2.104l-0.342-0.905l-1.5-2.785l-0.259-0.852l-0.012-0.843l0.681-2.639l-0.047-0.821
		l-0.352-1.013l-1.098-1.594l-0.139-0.454l0.129-0.397l0.495-0.707l0.135-0.384l-0.135-0.916l-0.469-1.016l-0.687-0.894
		l-0.784-0.536l-1.898-1.862l-0.938-0.863l-0.364-0.501l-0.164-0.61l-0.445-6.926l-0.812-3.255l-2.434-4.458l-0.307-1.452
		l0.184-10.228l-0.54-1.853l-8.166-13.608l-0.617-0.619l-0.855-0.221l-1.645,0.078l-0.556-0.061l-0.835-0.523l-0.922-0.577
		l-0.659-1.739l-0.032-5.419l0.301-0.977l0.582-0.856l2.682-2.342l0.026-0.765l-1.144-0.954l-1.021-0.423l-1.839-1.2l-3.998-1.93
		l-0.861-0.665l-0.865-0.906l-0.823-1.143l-0.575-1.277l-0.141-1.281l0.444-1.095l0.881-0.698l2.215-0.789l-1.546-2.78l-0.447-1.387
		l0.046-1.628l0.196-1.193l-0.117-0.418l-1.282-0.284l-1.19-0.762l-0.122-0.801l0.667-0.706l4.797-1.476l1.203-0.12l0.562,0.095
		l0.414,0.129l0.346-0.047l0.352-0.422l0.188-0.426l0.329-1.428l0.046-0.813l0.794-1.94l0.119-0.598l-0.053-0.258l-0.158-0.249
		l-0.18-0.572l-0.038-1.229l-0.038-0.292l-0.297-0.563l-0.38-0.279l-1.203-0.507l-0.677-0.499l-1.231-1.323l-1.88-1.465l-0.275-0.52
		l0.087-0.76l0.505-0.837l1.631-1.455l0.689-0.764l2.121-3.211l1.745-2.641v-0.004l0.857-1.214l0.542-0.549l1.575-0.712l0.331-0.274
		l-0.289-0.797l-0.687-0.827l-0.806-0.767l-4.18-3.05l-1.395-0.531l-1.079-0.702l-1.375-2.402l-0.891-0.989l-3.683-3.248
		l-1.25-0.881l-1.855-0.642l-0.537-0.355l-0.438-0.586l-0.918-2.177l-0.726-1.312l-0.48-0.547l-0.611-0.402l1.164-1.598l0.315-0.765
		l0.013-0.91l-0.125-0.427l-2.171-4.616l-0.015-0.03l-0.005-0.034l0.005-0.03l0.288-0.555l0.081-0.551l-0.093-0.559l-0.261-0.533
		l-0.927-1.664l-0.352-2.022l0.047-2.128l0.264-1.974l0.02-0.938l-0.286-0.848l-1.413-2.429l-0.159-0.673l0.101-2.245l-0.068-0.366
		l-0.576-1.746l-0.042-0.362l-0.004-0.43l-0.133-0.958l-0.403-0.672l-1.195-1.281l-0.557-1.919l1.154-1.2l1.436-1.153l0.293-1.773
		l-0.022-0.037l-0.382-0.647l-0.474,0.017l-0.615,0.251l-0.82,0.038l-0.66-0.208l-0.633-0.281l-1.185-0.731l-0.924-0.229
		l-0.275-0.106L178,364.946l-0.788-0.935l-0.608,0.145l-0.486,0.374l-0.484-0.017l-0.604-1.011l-0.353-1.5l-0.03-3.024l-0.258-1.469
		l-0.984-1.906l-1.383-1.57l-3.168-2.822l-0.835-1.273l-0.352-1.489L167.51,345.227z"/>
</g>
<g id="Copyright">
	<text transform="matrix(1 0 0 1 681.6426 577.5916)" class="st1 st2">© Vemaps.com</text>
</g>
</svg>
