<?xml version="1.0" encoding="utf-8"?>
<!-- Generator: Adobe Illustrator 23.0.1, SVG Export Plug-In . SVG Version: 6.00 Build 0)  -->
<svg version="1.1" xmlns="http://www.w3.org/2000/svg" xmlns:xlink="http://www.w3.org/1999/xlink" x="0px" y="0px"
	 viewBox="0 0 800 600" style="enable-background:new 0 0 800 600;" xml:space="preserve">
<style type="text/css">
	.st0{fill:#808080;}
	.st1{font-family:'Roboto-Regular';}
	.st2{font-size:14px;}
</style>
<g id="Belize">
	<path class="st0" d="M320.152,567.064L312.663,570l-17.473-4.532l-6.335,0.042l-5.635,0.966l-15.119-0.711l-3.619,1.507
		l-1.792,0.106l-2.312,0.775l-1.868,0.945l-0.444,0.658l-1.633-2.686l0.097-2.584l0.373-9.954l5.061-47.53l3.038-42.5l1.736-21.267
		l3.612-57.967l3.331-53.532l-0.301-58.883l-1.084-57.41l-0.845-44.809l-0.173-18.084l1.47-8.23l4.221-6.063l16.421-6.011
		l4.232,1.481l3.257,2.962l2.955,3.316l3.323,2.576l2.353,0.247l2.241-0.472l1.873,0.429l2.711,5.837l2.537,1.953l7.927,4.667
		l1.771-0.515l1.184-1.673l0.893-4.592l0.878-1.491l10.087-7.619l1.858-2.2l2.828-8.126l0.939-1.879l2.935-2.469l2.7-1.589
		l2.363-1.793l1.924-3.076l0.623-2.239l0.602-4.693l0.541-2.068l4.91-8.309l0.659-2.337l-0.679-2.896l-0.725-0.602l5.625-4.196
		l5.768-2.778l2.353-1.811l1.986-3.144l0.579-2.413l0.177-0.736l0.332-3.29l0.745-3.537l1.904-3.349l6.105-7.081l2.445-3.894
		l0.684-2.388l0.776-5.282l1.782-5.003l1.057-6.295l1.031-2.255l1.506-1.544l6.115-4.779l1.986,0.226l1.828,1.023l2.037,0.581
		l1.741-0.242l3.946-1.437l2.149-1.087L419.076,30l1.036,0.377l1.899,1.841l1.501,0.92l1.159-0.194l1.154-0.64l1.506-0.436
		l12.236-0.102l1.125,0.194v0.746l3.4,3.119l-3.883,5.101l-15.297,11.107l-1.439,2.99l2.259,3.261l2.798,0.178l9.461-4.32
		l-1.109,3.032l-1.841,3.218l-4.526,5.767l-1.085,1.837l0.563,0.948l1.527-0.102l1.744-1.262l3.328-3.76l6.551-4.751l3.095-1.474
		l3.28-0.61l4.413,0.627l5.74,2.812l2.588,0.83l4.196-0.644l5.981-4.167l6.841-2.118l2.323-0.313l1.029,0.771l-0.386,2.939
		l-1.093,1.923l-3.923,3.032l-4.51,1.948l-0.876,0.881l-0.064,2.278l1.423,0.483l1.728-0.728l1.479-2.473l1.616-1.143l2.018-0.889
		l1.913-0.356l0.651,1.135l1.6,24.6l-1.576,19.069l-0.643,3.248l-2.765,4.972l-0.643,3.255l-7.428,19.079l-3.376,2.324l-0.024,0.042
		l-8.191,16.187l1.198,5.363l-2.387,17.233l-4.823,17.158l-1.568,3.468l-5.137,6.15l-2.074,3.804l-0.892,4.436l0.868,4.967
		l2.388,2.521l7.042,3.6l1.471,3.136l1.889,1.72l8.28,1.458l1.849,1.703l-2.379,4.02l-5.096-0.05l-5.064-0.759l-2.283,1.871
		l-0.514,3.211l-3.02,10.132l-5.147,17.264l-1.913,21.014l-0.201,4.326l-0.699,8.12l1.399,4.366l0.772,3.937l0.032,0.412
		l0.161,1.825l1.037,4.752l0.772,2.582l1.873,1.06l4.212,1.43l2.396,3.145l1.64,3.994l0.932,4.49l0.514,6.548l1.142,5.026
		l-0.466,2.404l-1.238,0.521l-1.736-0.025l-1.945,0.706l-2.162,2.008l-2.701,3.134l-2.275,3.579l-0.957,3.318l0.876,3.797
		l3.859,6.098l0.764,3.561l0.346,0.017l0.691,0.546l0.506,0.932l-0.185,1.192l-0.732,0.202l-2.604-0.353l-0.828,0.151l-2.508,2.007
		l-1.013,1.251l-0.402,1.872l-0.434,1.008l-0.981,1.008l-0.973,1.402l-0.434,2.149l0.201,2.468l0.932,3.257l0.217,2.014
		l-1.825,14.619l-1.222,2.24l-1.728,1.77l-1.978,2.634l-2.259,8.422l-1.077,2.575l-0.675,3.631l1.31,5.182l-0.82,1.903l-1.407,1.819
		l-1.334,0.134l-0.595-3.211l6.19-23.425l3.328-3.541l1.27-2.072l-5.209,2.693l-5.338,13.514l-4.293,5.032l1.302,0.21l2.749,1.325
		l-1.334,0.679l-1.029,0.293l-1.222-0.184l-1.809-0.788l0.41,1.811l0.506,0.855l1.037,0.227l2.074-0.076v1.275l-2.098,1.417
		l-1.487,2.071l-0.346,2.482l0.522,1.107l0.724,1.492l-3.714,2.8l-4.043,8.147l-3.714,1.718l-0.386,1.131l-0.362,4.894l0.08,1.005
		l-1.125,0.687l-1.045,0.017l-0.659-0.344v-0.36l-1.254,0.838l-0.41,0.427l-0.241,0.528l-0.78,1.006l-2.54,6.158l-0.78,1.005
		l-1.543,0.88l-5.201,6.852l-0.587,1.089l-0.82,2.714l-0.555,0.988l-0.129,0.595l0.257,1.759l-0.129,0.578l-0.547,0.134l-1.608-0.26
		l-0.547,0.126l-0.868,0.502l-2.387,0.536l-0.908,0.502l-0.418,0.804l-0.932,3.282v-8.558h-1.35l-1.359,4.472l-2.773,0.653
		l-2.725-1.717l-1.23-2.638l-0.772-1.172l-1.664-0.134l-1.648,0.318l-0.707,0.218l-0.249,0.737l0.088,3.618l-0.571,1.39
		l-1.423,0.469l-6.672,0.938l-1.141,0.77l-0.933,0.971l-1.415,0.846l-2.637,0.352l-2.797,1.306l-0.82,3.223l0.426,7.986
		l-0.724,4.285l-1.873,3.113l-2.781,1.925l-3.449,0.636l-1.005,0.536l-1.166,1.297l-0.973,1.598l-0.868,3.573l-1.206,1.046
		l-1.704,0.669l-1.905,1.104l-2.194,1.891l-0.981,1.054l-0.876,1.271l-0.474,2.275l0.161,2.275l-0.547,1.765l-5.161,1.514
		l-3.408,2.074l-3.304,2.735l-2.227,2.801l-0.691,5.1l4.124,8.56L320.152,567.064z M532.659,258.891l2.468-2.207l2.291,3.698
		l3.328,9.947l-0.916,1.524l-0.338,2.046l0.024,4.9h-1.35l0.072-2.139l-0.072-0.69l-1.117,0.354l-0.756,0.581l-0.498,0.817
		l-0.434,1.078l0.161-12.547l-0.675-5.213L532.659,258.891z M534.741,226.362l2.371,0.084l2.814,0.691l2.428,2.04l1.214,4.131
		l-0.812,3.135l-4.084,8.09l-2.621,3.539l-2.01,3.522l-2.862,1.887l-3.923-3.083l-2.026,3.37l-2.5,1.938l-2.275,2.502l-1.415,5.045
		l-1.23,9.255l-0.482,1.507l-1.013,2.105l-0.892,2.576l-0.193,2.93l-2.814-2.829l0.74-0.69l0.257-0.69l0.08-0.707l0.273-0.741
		l0.474-4.395l1.825-7.301l0.948-9.931l1.568-3.269l2.532-2.368l3.44-2.536l4.051-4.239l1.994-0.177l2.942,1.23l2.476,0.354
		l1.905-1.803l1.519-4.062l0.37-4.349l-1.648-2.63l-2.178,1.956l-1.825,1.045l-1.503-0.186l0.096-1.315L534.741,226.362z
		 M485.449,206.418l2.709,2.328l1.961,5.035l1.937,11.046h-1.342l-0.997-2.007l-1.736-4.916L485.449,206.418z M469.01,197.922
		l4.14-1.924l11.214-7.713l2.299-1.047l-1.817,6.734l-4.614,4.143l-6.166,2.076l-6.407,0.565l-0.016-0.97l0.273-0.633
		L469.01,197.922z M517.812,126.695h1.23l-1.559,8.976l-3.843,8.265l-6.174,6.058l-8.537,2.34v-1.402l2.05,0.068l0.651-0.068
		l7.203-5.196l2.564-3.642l1.021-5.341l-3.119,0.161l0.836-6.44l3.633-12.994l0.426-0.913l0.916-0.744l0.94-0.972l0.41-1.632
		l0.121-2.03l2.926-10.945l1.945-1.844l3.103,1.328l4.349-2.902l1.97,2.843l-0.33,4.619l-2.613,2.419l-1.463,2.351l-4.035,11.179
		l-1.921,3.745l-1.359-0.938l-1.343-0.609l-0.482,2.181l-0.748,1.547l-1.141,1.116l-1.672,0.837v1.403l1.463,2.984l1.857-2.739
		l0.442-1.243L517.812,126.695z M481.823,232.195l3.674,2.832l1.841,2.731l-0.418,2.048l-0.555,0.935l-0.048,1.247l-0.828,1.871
		l-1.367-0.152l-0.362-1.719l-0.265-4.307l-0.265-0.91l-1.584,0.211l-1.704-0.792l-1.141-1.441l-0.659-1.037l-0.603-0.582
		l0.024-1.222l1.326-0.877L481.823,232.195z M506.823,113.201l1.142-0.482l0.587,0.584l-0.434,2.165l-1.6,1.421l-2.138,0.389
		l-0.579-1.311l1.423-2.055l1.005-0.676L506.823,113.201z M512.659,107.433l0.474,0.829l0.145,2.233l-1.157,2.165l-1.632,1.226
		l-0.691-0.144l-0.257-1.066l-0.314-0.82l0.33-0.719l1.013-0.575l1.045-0.896l0.354-1.159l0.37-0.77L512.659,107.433z
		 M524.733,88.803l0.724,0.364l0.121,0.838l-0.121,1.066l-0.699,2.082l-1.881,2.437l-1.133-0.99l0.547-3.554l0.78-1.244l0.619,0.491
		l0.104-0.423l-0.33-0.905l0.08-0.355l0.683,0.144L524.733,88.803z"/>
</g>
<g id="Copyright">
	<text transform="matrix(1 0 0 1 681.6426 577.5916)" class="st1 st2">© Vemaps.com</text>
</g>
</svg>
