<svg enable-background="new 0 0 800 600" viewBox="0 0 800 600" xmlns="http://www.w3.org/2000/svg"><path d="m263.724 399.259.476-.225-.202-.539-.372-.321-.399-.255-.279-.342-.034-.459.064-.571.005-.571-.222-.456-.192-.054-.388.185-.59.265-.251-.292-.306-.279-.39-.056-.292-.265-.655-.362-.269-.129-.796-.501-.443-.472-.266-.442.147-.501.236-.295.472-.177.59-.147.531-.501.472-.914.413-.56.767-.767.619-.708.413-.443.62-.502 1.404-.314.678.108.523-.063.657.143.572.257.642.156 1.009.07.666.147.871.107.153.077.211.249.287.211.307.096.287-.057-.019-.422.039-.23.115-.479.403-.441.212-.767-.234-.491.037-.451.05-.099.1-.146.081-.198-.007-.266-.089-.177-.119.12-.186.376-.392.222-.598-.001-.188-.393-.017-.562.132-.612.039-.457.152-.735.034-.359-.098-.262-.245-.309-.31-.26-.3-.104-.332.184-.246.391-.309.955-.324.17-.221-.239-.052-.624-.1-.823-.37-1.025-.264-1.428-.264-1.032-.079-1.297.345-.741.371-.821.212-.768.81-.333.253-.853.889-1.603.654-1.305.349-.904.454-.482-.19.5-.029.513.081.517.138.506.424-1.361.262-1.458.336-.613.559.14.754-.947.754-.891.726-1.058.642-.25.53-.501.641-.612.781-.473.362.028.279.697.334.808.473.78.612.863.685.018-.322-1.02-.167-.863.028-.919.251-.445.446-.417.334.53.222.919-.195.668.306.501.278.64.233.544.441.479.262.188 1.071.532.491.145.286-.027.493-.324.599-.186.042-.165.006-.227-.021-.189-.027-.055.106-.177.044-.119.009-1.084-.111-.445-.139-.473-.306-.501-.167-.529.279-.279.668.139.306-.223.724-.028.557.028.501-.028.39-.25.669-.39.585.056.421.375.313.567.236.33.322.085.567-.158-.271.471-.252.629.034.549.6.238.355.039.607.141.382.007.777-.162.344-.026.736-.169.528-.419.277-.542-.01-.532-.184-.382-.339-.518-.435-.428-.462-.131v-.185h.617v-.227l-.395-.077-.188-.203-.005-.27.159-.272-.313-.081-.103-.185.056-.257.173-.298-.266-.055-.127-.081-.033-.169.015-.313.529.217.418-.178.379-.306.411-.163.193-.023.269-.076.171-.122-.11-.169-.25-.043-.495.228h-.264l-.452-.278.118-.221.332-.199.189-.208.208.071.484.098.552.039.418-.105.125.199.202.245.066.174h.224l-.294-.645-1.108-.282.358-.532.463-.25.438-.052.402-.105.359-.417.293.121.237.131.175.162.096.222.17-.7-.651-.219-.918.132-.635.357-.168-.452-.023-.658.169-.62.415-.326.411.049.276.245.248.299.317.23.339.104.098-.058.032-.184.147-.277.274-.275.131-.097.031-.118-.025-.332-.103-.162-.414-.113-.121-.136.007-.153.168-.105.145-.396.157-.051.082-.065-.126-.277-.197-.115-.248.017-.229-.038-.147-.276-.044.217-.043.05v.02l.087.125-.324.195-.337.067-.264-.108-.103-.342-.755.678-.289.146.053-.364 1.106-1.321.685-.983.438-.464 2.295-1.935.602-1.117.355-.654.436-.136.495.204.094-.302.031-.26.081-.306.209-.007.274.067.182-.183-.173-.309-.462-.212-.463.154-.675.076-.096-.27.367-.462.733-.635.501-.308.713-.269-.385-.348.033-.617.237-.332.339-.346.359-.213.296.068.498-.128.427-.059.132-.086.586-.531.676 1.262.444.493.747.285-.137-.336-1.001-1.199-.267-.444-.043-.496.138-.473.284-.363.108.256.203.28.198.147.088-.14-.061-.224-.269-.385-.061-.12.152-.609.284-.515.163-.522-.207-.637.309-.018.306.018-.093.147-.058.155-.028.188-.007.239.083.218.191.005.286-.191.525.042.139.077.272.261.147.093-.037-.288-.119-.227-.193-.167-.268-.121.129-.066.14-.099.125-.059-.566-.199-.255-.007.126-.282.114-.076.152.053.241.119.092-.446-.426-.159-.617.037-.487.14.12-.471.338-.071.468.096.513.034-.158-.081-.312-.221-.163-.093.171-.066.102-.068.121-.058.239-.032-.092-.123-.114-.307.602-.133.632-.056v.189l-.146.275.294-.005.879-.27-.428-.108-.099-.205.136-.276.534-.635.189-.37.284-.876.345.245.246.066.231-.112.318-.294.331-.124.464-.118.198-.13-.471-.151-.399.059-.401.147-.309-.029-.124-.467.212-.069.471-.09.496-.195.279-.386-.518.065-1.256.346-.4-.194-.127-.466.065-.542.162-.444.844.611.453.146.666.048.137-.061-.078-.134-.214-.136-.273-.061-.326.002-.246-.027-.191-.118-.154-.27.496.039.421-.081.324-.216.217-.361-.468-.294-.285-.361.033-.399.495-.405.235.166.14.158.054.206-.017.313.441-.432-.189-.621-.078-.559 1.381-.457.37-.501.31-.556.435-.394v-.188l-1.849.394v-.206l.211-.07.201-.118-.762.009-.344-.061-.312-.172.103 1.308-1.748 1-2.167.367-1.157-.596.062-.279.431-.239.105-.231-.107-.115-.523-.258-.366-.243-.131-.004-.078-.075-.029-.319.033-.258.075-.219.118-.253.152-.783.154-.266.31-.184.432-.07.286.098.027.233-.353.336 1.436-.233.432-.16v-.205l-1.027.205.136-.382.209-.34.809-.947.487-1.047-.319.014-.148-.037-.066-.123-.081-.246-.46.101-.354-.253-.359-.388-.471-.302.129.292.044.329-.044.324-.129.288-.261-.144-.261-.044-.264.052-.258.136v.225l.147.133.01.015-.067.049-.089.234-.135-.126-.092-.036-.126-.009-.247-.054.093.567-.093.836-.223.758-.307.33-.095.182-.107.828-.088.225-.48.044-.377-.253-.154-.41.189-.43-1.55-1.216-.173-.243-.132-.504.143-.442.666-.048-.348-.441-.125-.215-.215-.816-.118-.921-.004-.915.07-.416.186-.342.348-.296.419-.095.404.048.307-.056.121-.403.118-.211.286-.217.362-.107.346.123.503.597.202.059.425-.13.541-.319.482-.452.862-1.104-2.545-.031-.47-.072-.415-.514-1.109-1.854.848-1.206.18-.462.239-1.299.3-.464.673-.316v-.205l-.615.205.082-.853.327-1.417.02-4.137.098.28.12.217.162.181.22.166.137-.302.085-.494-.102-.461-.717-.372-.099-.398-.029-.48-.079-.415.674.099.528.369.387.495.261.499h.187l-.353-.966-1.276-1.543-.203-1.017-.141.063-.354.1-.139.064-.26-1.232-.358-3.874-.186-.496-.186-4.538.149-1.03.268-.979.386-.88-.433-.263-.029-.657.071-.668-.132-.306-.284-.248-.157-.59-.082-1.205-.444.143-.268-.132-.117-.347.008-.509h.204l.136.139.107.075.14-.033.235-.181-.31-.198-.122-.276-.218-.936.029-.104-.02-.124-.181-.22-.139-.052-.493-.082-.19-.073-.339-.325-.213-.319-.246-.255-.433-.133h-.431l-.315.091-.198.202-.082.327-.362-.321-.356.018-.309.116-.224-.022-.209-.339.07-.267.272-.173.389-.063.261-.316.706-1.483.359-.47.271-.085.671-.043.293-.079.359-.258.264-.266.289-.203.441-.081.531.156.452.294.498.168.676-.224.192-.181.07-.185.044-.213.122-.246.029-.135-.054-.347.025-.137.135-.038.198.038.186.015.081-.109.141-.326.332-.267.381-.235.285-.223.199-.303.153-.345.105-.359.065-.347-.081-1.26-.455-1.063-1.228-1.989-.105-.099-.206-.149-.022-.665-1.19-3.261h-.229v.825h-.187l-.485-1.322-.771-1.191-1.844-2.254-.328-.532-.113-.446.029-1.202.206-1.076.026-.53-.231-.387.206-.187 1.129.94.72.92.304-.217.305-.525.419-1.118.102-.567.027-.533-.037-.452-.092-.328-.551-.758.085-.248.69-.254.081.19.095.086.107.059.11.099.125-.463-.109-.424-.267-.342-.366-.218v-.207l.457-.773.149-.485.011-.621.389-.453.136-.673-.071-.676-.23-.473-1.028-.827-.209-.232-.141-.212-.176-.195-.313-.187.013-.338.154-.631.038-.387-.089-.386-.224-.149-.301-.086-1.021-.579-.708.17-.588.452-.355.466.125.207.081.207-.242.046-.168.064-.227.116h-.186l-.006-.765.051-.361.141-.34-1.25-2.695-.599-.821-.859-.843-.433-.287-.791-.192-.127-.154-.13-.086-.348.115-.103.174.01.252-.05.239-.268.145-.152-2.096.274-.876.829-.358.359-.533-.37-1.18-.94-1.787h-.206l.191.359.092.12.147.125v.226h-.224l-.51-.707-2.217-2.376-.323-.184-.545-.064-.295-.174-.189-.378-.233-.364-.431-.139.206-.189-.384-.115-.348-.281-.501-.658-.234-.069 1.228-3.952 1.048-3.373.718.16.664-.105.575-.345.448-.561.27-.781-.09-.651-.679-1.329-.271-.938-.141-1.291.19-1.115.722-.399.311.168 1.504 1.287.292.334-.012.08-.124.27-.001.115.089.082.255.061.079.058.833 1.134.228.402.365 1.517.32.347.683-.071.754-.61 1.371-1.385 4.22-2.631.883-.803-.188-.562-.617-.588-.403-.89.098-.37.886-1.13.77-1.737.637-.641.924-.487 1.011-.337.905-.19 1.115.012.173-.127-.235-.476-.294-.311-.322-.234-.291-.278-.198-.443-.056-.733-.645-2.371-.874-1.68-.281-.416-.775-1.149-.653-1.379-.224-.315-.386-.165-.401-.023-.383-.142-.336-.524-.26-1.083-.249-2.086-.437-1.062-.498-.85-.312-.263-.508-.17-.905.085-.272-.176.001-.696.25-.902.33-.353.85-.908.362-.76-.034-.542-.145-.31.031-.232.491-.311.485-.108.487-.049.314-.223.042-.42.011-.14.051-.087.075-.078.068-.111.452.276.31 1.122.359.577.371.369.301.376.25.448.217.572.253 1.177.255.639 1.959 1.337 1.518.613.443.323.326.386 2.431 4.017.639.496.416.072.839.011.133.033.274.07.186-.392.244.006.177.304-.009.497h-.187l-.1-.096-.124-.093-.001.762.211.537.37.2.468-.252v.621l.409-.433.124.312-.286.492-.043.459-.135-.059-.344-.089-.136-.059.193 1.083.728.454.68-.101.061-.586h1.849l-.184.263-.158.3-.094.33.006.352h.224l.105-.085.306-.142v.227l-1.047.396v.208l.27.046.179.08.247.275-.036.052.004.087-.029.1-.13-.145-.175-.089-.228-.026-.29.036.246.265.297.19.283.225.202.375-.753-.356-.815-.223-.702.068-.421.511-.01.13.038.033h.073l.088.026-.551 1.716.802 1.066 1.609.509 1.873.047.353-.062.36-.127.313-.187.207-.247.097-.267-.01-.18-.054-.188-.033-.288.065-.249.282-.304.065-.287.182-1.872-.042-.849-.365-.721-.076.239-.031.157.022.166.085.27h-.187l-.154-.485-.111-.701-.006-.705.345-1.023-.116-.65-.387-1.002-.167-.991.002-4.243-.142-.568-.394-.238-.426-.172-.191-.426-.115-.542-.191-.522-.602-.647-.944-.642-1.098-.52-.867-.097v.227l-.357-.338.492-.768.736-.87.381-.64 2.977-.935.726-.058 2.931-.835.391-.214.164-.253.007-.328.048-.354.126-.3.249-.171v-.188h-.206v-.228l.574-.097 2.04-.758.409-.28 1.326-1.347 1.559-1.085.686-.61v-.19l-.22-.362.261-.243 1.828-.454.71-.416.558-.068.253-.195.155-.296.274-.376 1.113-.808.241-.337-.263-1.06.302-.872.587-.694 1.012-.9.277-.36.184-.451.35-2.534.203-.43.169-.035.845-.32.133-.079.393-.14.132-.321-.011-.561.062-.531.114-.288.329-.354.286-.205.258-.119 1.218-.39.969-.294.853-.496.711-.603.072-.746.214-.426.676.072.342.311.979-.056 1.039-.198.728-.295.23.081.233.153.157.249-.004.371-.415-.184-.443-.055-.424.107-.362.319.24.163.181.057.184-.052.238-.168.174.18.115.084.071.108.031.253.926-.637.574-.287.686-.119.676.112.557.158.027.007.745.203.42-.304 1.144-1.004.724-1.4.584-1.936.024-1.797-.326-.84-.373-.444-.212-.186-.341-.611-.473.004-.41-.313-.314-.178-.607.023-.397.163-.35.257-.07-.304 1.681-1.704.28-.818.514-1.682-.023-.702.187-.653.383-.843.331-1.027.125-.617-.013-.631.414-1.742.07-.981-.443-1.052-.023-.608.164-.234.116-.099.233-.051.206-.112.116-.168.316-.684.214-.316.094-.179.102-.341.039-.346-.005-.306.026-.294.146-.307-.968.538-1.238.824-1.197 1.276-1.236.699-.563-.089.441-1.025.866-.493.413-.287.263-.311.206-.298.165-.378.272-.358.081-.343-.124-.378.08-.256.69.027-.162-.256-.055-.264.055-.268.162-.255.251.622.615-.144 1.087-.687.348-.289-.022-.687-.162-.824-.061-.707h-.206l-.256.159-.154-.205-.206-.808h-.206l-.089.293-.098.188-.157.11-.273.055.114-.261.159-.563.118-.238.186-.18.367-.162.196-.172.857-.974.282-.186-.157.517-.322.63-.107.53.473.224.398-.276.185-.65.025-.767-.085-.625-.125-.132-.213-.052-.297-.025.018-.181.165-.39.042-.075-.049-.35-.002-.332-.11-.247-.372-.097-.121-.131.148-.288.294-.286.307-.13.349-.047.377-.134.35-.205.268-.26.004-.158-.231-.308.021-.141.096-.06.23-.089.087-.061.257-.127.261.021.202-.06.082-.366.113-.014.231-.273.191-.319-.004-.156.187-.054.738-.344 1.978-.503.299-.239.297-.493.236-.284.176-.049.149.09.173.049.143.082.059.187-.064.117-.108.092-.022.12.194.204v.131.078h.206l.173-.244.648-.611-.125-.249-.069-.222-.032-.244.003-.313-.468.407-.13.221-.617-.348-.167-.572.245-.537 1.075-.368.481-.591.327-.133.343-.028.337-.082.327-.131 1.907-1.275 1.146-.279.612-.357.409-.475-.038-.49.132-.307.153-.7.125-.269.284-.187.414-.183.554-.032.577-.229.385-.446.731-.586.065-.524.845.002 1.023-.099.487-.408-.05-.563-.037-.537-.064-.166.18-.191.753.36.68.232 1.612.543 2.941 1.213 2.2.75 1.485.389 1.555.191 2.04.209 1.992-.126 1.187-.139-.439.324-1.486.284-2.899-.081-.351-.054-.329-.089-.325-.016-.339.158-.088.262.038.355-.016.314-.252.132-.121.396.334.885.74 1.439-.463-.249-.438-.475-.4-.275-.342.354-.211-.292h-.717l-.426-.204-.236.105-.234.516-.178.621-.07.414-.034.931.053.449.185.217.416-.151.178-.481.136-.538.299-.331-.001.32.103.217.207.118.307.01-.051.302.051 1.144.459.207.488-.022.381-.267.127-.527-.34.188-.267-.075-.171-.292-.06-.466.121-.401.235-.277.159-.257-.104-.339.601.107.377.413.197.604.147 1.476.273.356.455.067 1.185-.067.211-.045.286-.156.572-.557.132-.09.065-.279.875-1.603.026-.219-.026-.845.339-.668.054-.254.098-.158.421-.5.098-.18.224-1.168.285-.682 1.874-2.739.097-.242-.088-.363-.42-.518-.125-.289.007-.332.173-.523.044-.298-.056-.304-.269-.554-.086-.292.055-.122.29-.263.066-.148-.034-.18-.078-.085-.076-.052-.035-.081.07-.322.165-.298.398-.559.159-.176.137-.086.099-.135.037-.327.393-.744.47-.035.387.091.215-.141-.047-.734h.225l.017.197.05.131.138.283.318-.433.072-.178.102.065.037.001.023.015.062.111h.187v-.629l.3.245.228.476.332.116.293-.146.137-.318.125-.184.247.249h.225l.054-.22.117-.117.181-.054.244-.046.76.08.583.23.504.365.525.479.224.09 1.379.297.974.573 1.184.376 3.637.261 3.393-.27.807-.001 4.907-.005 3.313-.514.295-.17.192-.261.916-.701.774-.429.153-.125.226-.275.354-.727.151-.111.35-.105.263-.254.422-.595.331-.285 1.004-.457 1.716-1.644 3.636-1.929 5.245-4.31.552-.334 1.102-.381 1.829-.398.469-.219.913-.661.617.181.638-.324.66-.463.683-.234 1.792-.064.559-.146.478-.278.77-.645.975-.241 1.308-.953 1.598-.646.376-.483.553-.555.125-.32.051-.27.378-1.104 1.076-1.692.304-1.032.673-.896.206-.371.047-.601-.124-1.731-.126-.631-.171-.235-.283-.248-.263-.163-.105.018.067-.401.257-.264.702-.406.937.34 3.089-.55 1.06.239-.117.571-1.251 1.31.451.239.46.778.529.244.893-.413.153-.101.078-.401.201-.348.266-.268.276-.15.389-.02.408.048.323-.045.132-.296-.121-.316-.217-.278-.104-.274.218-.308-.305-.241-.162-.229-.185-.199-.377-.152-.393-.038-.371.063-.304.153-.184.243h-.186l-.225-.421 1.376-.952 1.109-.96.074-.147.127-.402.115-.083.541.03.152-.03.46-.336.246-.051.356.177-.534.271-.399.358-.092.42.391.444.219.119.155.016.447-.135.031-.084-.034-.149-.007-.143.114-.064.422.025.11-.025.548-.307.367-.265.212-.352.098-.558-.078-.045-.159-.02-.094-.091.109-.265.201-.195.271-.138.294-.079.28-.029-.192.547.182.276.288.241.132.429h.187l.078-.113.117-.214.049-.209-.132-.093-.208-.074.154-.162.261-.147.11-.039.353-.195.415-.133.393-.182.295-.352-.375.044-.316.147-.255.158-.194.073-.311-.1.054-.241.26-.276.298-.204-.339-.001-.301.063-.241.133-.165.206.051-.494.049-.177.124-.169-.395.258-.794.702-.266.301-.189-.191.309-.559.446-.476.556-.332.651-.124.585.093.905.426.66.132h2.183l.611.122.622.291.934.619.41.405.207.135.391.112 1.078-.023.276.128.597.452.611.224 1.377.268 1.003.511.588.436.322.519.134.168.136.249.108.586 1.824 3.127.202.834 1.138 1.699.192.599-.186.694-.373.652-.361.473-.807.605-2.079 1.146-.606.675-.437.239-.51.193-.397.083-.143.263-.586 1.646-.132.248-.001.003-.906-.025-.536.299-1.029.885-1.197.518-.813.211-1.763.462-1.762.462-1.765.459-1.763.462-1.762.461-1.763.46-1.763.462-1.763.46-.777.203-.588.395-.521.751-.303.568-.897 1.683-.897 1.682-.897 1.682-.897 1.681-.897 1.681-.897 1.682-.899 1.682-.897 1.68-.316.395-.529.136-1.119-.296-.586-.062-.605.126-1.671.625-1.294.056-.647.101-.536.36-.135.277-.026.585-.084.298-.227.322-.569.616-.244.346-1.035 2.566-.543.747-.56.543-1.312.921-.79.906-.697 1.359-1.452 4.177-.813 1.333-1.853 2.165-.553 1.607-.421.564-.499.512-.468.626-.221.598-.01.145-.03.438.022.598-.605 6.699-1.567 5.372-.005 1.191-.25 1.196-.023.628.196.786.266.563.12.565-.238.791-.944 1.941-1.654 2.58-.76 2.067-.316.561-.48.511-1.206.76-.443.406-.571 1.353-2.407 3.564-1.034 2.609-.379.619-.535.51-1.112.771-.353.591-.009.662.401.247.426-.011 3.304-.082 1.252-.175 1.085-.533 1.032-.978.527-.349.77-.217.684-.387 1.305-1.23.69-.024.185.228.375 1.104-.009.114-.121.269-.005.114.103.153.281.286.084.135.121.743-.079 1.28.165.661.538.745.569.146.608-.237 1.029-.683.24-.124.37-.11.345.009.263.09.222.005.224-.246.572.547.501.298.163.35-.434.701.51.594.151.575.345 1.33.347 1.329.347 1.331.345 1.33.348 1.329.345 1.33.347 1.329.345 1.33.319 1.223.602 1.023.552.6.594.643.589.641.592.642.588.643.592.642.591.641.592.641.589.642.712.772.353.299.305.119.285.075.281.153.016.009.356.362.292.46.204.51.084.512-.056.495-.269.995-.036.493.163.677 1.001 1.891.647 2.074.057 1.168-.488.696-.516-.003-.634-.106-.564.073-.302.547-.143.593-.249.477-.354.407-.446.37-.322.16-.342.126-.271.193-.103.355.137.267.631.733.211.336.126.527.081 1.317-.072.534-.602 1.855-.277 3.182.089.62.409 1.186.103.58-.12.668-.257.61-.184.626.1.715.824 1.342 1.104.801.566.192.753.255 1.474.274 2.471-.038 1.007.285 1.039 1.351.162.099.068.158-.284 1.234-.022.26.082.901.221.882.325.856 1.657 3.209.519.611.344.224.827.373.403.244.704.598.34.187.005.003.896.21 2.498.585.987.083.468-.078.323-.197.294-.249.376-.243.333-.016.325.066.188-.11-.076-.539.863-.013.712-.124.712-.047.855.219-.118-.5.196-.221.382-.056 1.02.038.247.176.171.244.354.247.208.025.216-.069.407-.235.26-.058.146.119.076.166.051.081.022.025.596.038-.008-.038.031-.047.546-.144.67.172.6.5.359-.099.791-.365.468-.099.473.045.969.266.501.038 1.252-.24.459.048.271.21.062.353.023.382.156.31.406.172 1.468.036.353.171.232.199.294.083.533-.168.382-.273.247-.276.281-.18 2.123.23 1.631-.193 1.503-.562 1.279-.91.323-.421.14-.298.238-.161.624-.02 1.149-.385 1.311-.097 1.808-.431.892-.019.198.099.425.365.284.105 1.02.233.493-.019.849-.27.483-.086.215.196 1.521 1.933.307.179.478.127.321.006.687-.091.29.019.14.089.182.273.096.083.447.158 3.125 1.501.946.041 1.695-.957 1.091-.274 1.12-.06.86.212.98.852.518.655 2.282 2.893 2.282 2.894 2.283 2.894 2.283 2.892 2.279 2.893 2.282 2.892 2.283 2.89 2.282 2.892.872 1.105h.35.028l.75-.215 1.444-.674.805-.144.603.307 1.287 1.475.676.508 1.713-.967 1.781-1.734.648-.382.849-.812.574-.256.729-.028.623.145 1.131.504.532-.152.679.159.718.255.648.132 1.919-.105.64.105 1.919.587.676.073.623.138 1.25.584.723.084.401-.183.791-.696.33-.154 1.872-.099 2.211-.657.65-.07.624.074 1.973.547 1.112-.005 3.427-1.236 1.317-.18 3.836.368 1.234-.188 1.043-.359.291-.053.286-.094.236-.232.157-.305.057-.309.146-.382.345-.095.407.011.336-.059.316-.26.557-.577.359-.178.261-.01.533.156 2.101.179 4.724 1.104.875.55.801.773.836.633 1.188.109.03.003-.191.143-.597.448-.325.353-.134.418.006 1.164 1.11 1.746.774.554.229.609.072.696-.117.518-.37.305-1.087.464-.431.265-1.42 1.559-.277.479-1.794 1.698-.72 1.091-.482 1.199-.239 1.297.002 1.387.341 1.777.053.596.103.137.449.44.101.147-.082.365-.179.248-.211.197-.18.223-.331 1.093-.165.163-.361.092-.325.234-.555.604-.253.176-.888.341-.162.13-.291.348-.163.141-.138.026-.337-.052-.14.025-1.12.932-.746 1.194-.274 1.271.291 1.159.272.486.191.452.117.53.037.717-.062.262-.27.712-.079.369-.011.345.028.311.064.296.106.302.188.291.541.628.11.206-.064.321-.14.207-.141.151-.065.155.053 1.343-.051.574-.389 1.176-.204 1.162-.025.704.059.201.274.531.079.205-.011.37-.098.204-.045.176.154.282-.212.565-.07 1.33-.233.484-.302.484-.151.657-.095 1.677-.191.799.044.963-.044.292-.165.247-.21.145-.174.2-.05.419.098.335.202.286.256.239.268.189v-.205l.56.4.216.398.252 1.055.123.12.372.132.12.179.012.246-.171.42-.045.242.096.395.421.664.098.392-.078.359-.538.99-.152 1.134.165 1 .261.937.137.944.255.574.566.464.564.599.256.976.331.344.198.557-.086.501-.003.016.199.109.264.717.092 1.87.141.645 1.203 2.091.285.742.169 1.491.211.703.53.642.581.291.55.006.56-.104.616-.04 1.132.531.855 1.141 2.031 5.294.415.585.443.306 1.13.446.998 1.037-.145 1.259-.777 1.261-1.821 2.276-.368.28-.311.108-.658.129-.359.173-.564.523-1.291 1.193-1.287 1.196-1.291 1.193-1.287 1.194-1.289 1.193-1.289 1.194-1.287 1.194-1.289 1.194-.753.699-.501.842-.02 2.061.442-.352.238-.416.302-.364.602-.159.659.033.337-.028.577-.291.255.106.328.369 1.241.602.746.151.6-.221.574-.143.546.447.426.677.218.542.168 1.357.177.661.358.282 1.351.022.557.171.454.405.126.252.18.568.124.227.275.202.644.313.126.194.106.246.471.591.123.117.378.111.214.268.154.336.197.313.286.221.667.361.278.24.145.307.137.411.176.363.264.156.33.098.33.236.572.571.275.17 1.059.344 1.015.612.238.23.109.299.011.571.168.271.193.604-.4.616-.58.548-.342.4.012.555.479 1.148.213.93.494 1.281.258.401.456.255.544.167.452.242.191.485.104 1.63-.104.528-.132.22-.485.622.076.377.213.31.224.244.233.387.564.391.129.232.075.326.541 1.02 2.586 6.869.086.652v1.342l.117.593.292.654.641 1.057.288.647.118.668-.205 1.233.113.418.281.31.345.276.306.323.317.599.23.74.031.72-.554 1.115.151.712.627 1.288-1.154.23-1.95.543-2.618.726-.628-.1-.252-.759-.112-1.569.74-8.663-.281-1.909-1.029-3.165-1.16-2.357-3.281-4.349-.718-1.275-.956-2.354-.608-1.115-.757-.748-.48-.234-1.291-.463-.454-.044-.283.163-.51.535-.278.135-1.051.134-.513.326-.815.706-1.16.551-2.31 2.453-3.632 4.84-.914.86-1.194.677-.983.355-1.073.254-1.084.034-1.004-.296-1.009-.829-.809-1.171-.619-1.311-.662-1.931-.297-.551-.452-.415-.692-.281-.62-.126-.221-.104-.243-.228-.064-.224-.005-.604-.143-.2-.26.212-1.805 4.505-.585.867.198.125.763.095.281.357-.065.66.065.544 1.126.048.241.148.084.263-.029.379.089.198.252.185.515.253-2.265.003-1.44.002-3.797.003-5.367.005-6.152.006-6.153.006-5.367.005-3.795.003h-1.441l-1.233-.152-2.281-.967-2.189-.461-1.154.075-2.069.942-1.234.104-.643-.092-.533-.014-.518.115-1.289.674-.552.163-1.012-.007-.451-.003.221 1.167-.013 2.068-.011 2.068-.012 2.067-.011 2.069-.012 2.068-.01 2.068-.013 2.065-.012 2.068-.008 1.801.687.065 1.254-.812.756-.207.388.017.386.065.264.162.047.661.316.073 2.892-.426.697.025 1.308.454.311.037.989-.016.958-.137.287.037.27.128.131.134.092.135.153.137.568.337.309.056 1.423-1.034.478-.123.487.089 1.503.773.438.308.514.641.51.339.222.219.081.278.031.352.089.308.658.407-.17 1.087.484.465.697.269.355.21.197.252.002.408-.223.14-.288.047-.183.109-.067.628.296 1.342v.69l-.204.319-.315.233-.218.263.09.415.242.23.653.306.223.204.327.673.113.543-.187.379-.562.184-.273-.04-.564-.208-.315.006-.233.146-.322.454-.214.143-.487.031-1.102-.165-.543.034.128-.827-.281-.33-.545.006-.664.183-.609.28-.192-.104-2.129-2.147-.546-.37-.608-.143-.771.096-.593.261-.969.625-.559.067-.599.26-.315.659-.438.504-.966-.202-.849-.381-.457.039-1.149.896-1.043.55-1.137.414-1.221.249-2.062.124-.585.168-.571.096-.711-.14-.684.019-.645.299-.564.159-.446-.407-.056 2.093-.022.768-.056 2.021-.081 2.858-.087 3.278-.09 3.278-.081 2.858-.056 2.021-.02.768-.04 1.511.173 1.06.351.628 1.168 1.343 1.531 1.402.671.998.323.267.561.221 1.196.267.516.326.194.283.282.672.226.302.301.211.693.323.31.218.899.983.455.367 2.406.899.511.274.525.448.371.532.242.603.14.669.015.893.061.295.159.305.198.23.173.252.082.364-.197.712-.939 1.418-.193.544.302.706 1.134 1.278.239.426-.089.771.073.302.272.429.201.18.219.112.209.165.18.327.033.352-.072.283-.019.302.2.404.25.208.656.28.281.177.659.958.183.152.302.047.154.065.092.121.122.227-.065.072.159 1.141-.065.336-.191.619.004.351 1.134 1.826.331.902-.651 1.683.001.021.083 1.348-.493 2.778.022 1.378-.551 2.056.01.613-.436 1.512-.337 1.848-.883 4.85-.883 4.854-.884 4.851-.882 4.852-.883 4.855-.883 4.853-.884 4.856-.882 4.854-.882 4.855-.885 4.858-.881 4.856-.883 4.86-.883 4.858-.883 4.859-.882 4.863-.883 4.86-.034.069-.033.065-.034.065-.034.065-.033.065-.034.069-.035.069-.031.065-.033.062-.034.069-.033.069-.033.065-.034.065-.033.069-.034.069-.043.07-.836-1.677-.526-.776-.61-.711-.903-.736-3.045-1.556-.803-.804-.317-.994-.169-1.082-.373-1.06-.719-1.029-.983-1.035-1.13-.823-1.157-.405-.846.09-.648.393-1.182 1.082-.774.333-.801-.009-1.607-.399-.321-.221-4.082-2.144-1.308-.143 1.01-1.58 2.36-3.689 2.359-3.686 2.36-3.692 2.36-3.688 2.361-3.688 2.359-3.69 2.36-3.684 2.36-3.686.675-1.071.005-.025-.167-.056-.345-.271-.25-.364-.19-.445-.386-1.326-.326-.221-.614.408-.173.277-.135.321-.163.252-.26.068-.278-.159-.053-.265.01-.305-.089-.302-.596-.467-.512.146-.5.233-.558-.212-.338-.539-.424-1.279-.378-.557-.66-.327-.578.193-.602.367-.737.199-.151-.09-.19-.221-.145-.277-.019-.255.144-.14.512-.193.148-.096.142-.654-.379-.293-.639-.068-.646.006-.333.078-.708.308-.313.025-.353-.174-.169-.255-.106-.308-.175-.327-.377-.321-.528-.261-.569-.174-.506-.065-.466-.233-.371-.433-.393-.249-.526.333-.075.28.025.339-.026.286-.232.125h-1.241l-.207-.162-.054-.37.001-.417-.04-.305-.186-.327-.948-.787-.114-.059-.001-.875-.072-.236-.155-.149-.779-.1-.559-.134-1.108-.395-1.038-.682-1.559-1.662-.914-.557-.623.277-.754-.146-1.276-.542-.865-.022-.317.423.066.685.276.766-.273.152-.353.041-.376-.081-.758-.454-.394-.009-.835.146-.687.324-.575 1.425-.852.432-.566.442-.325.068-.319-.106-.361-.268-.328-.075-.446.174-.628.33-.558.134-.236-.414-2.152 1.049-1.018.215-.341-.629.12-.23.415-.374.082-.255-.109-.311-.714-.906-.527-.937-.306-.109-.418.429-.297 1.13-.232.355-.479-.23-.208-.461-.039-1.257-.146-.566-.339-.258-1.732-.358-.622-.336-.56-.433-.592-.355-.711-.128-1.008.52-.583.093-.258-.51.045-1.061-.23-.162-.656.299-1.751 1.108-.303.022-.146.311-1.087 1.662-1.421 1.102-.221.233-.138.669-.37.37-.53.131-1.886-.268-.979.012-.84.33-.841.728-1.326 1.522-.449.14-1.942-.448-.302.025-.774.159-.155.125.026.616-.086.212-.258.081-.7.075-1.202.318-.675.056-.558-.128-.532-.283-.4-.364-.154-.364-.269-.234-3.085-.485-.568-.181-1.367-1.105-.529-.286-.552-.084-.376.485-.793 1.643-.381.355-.499.168-.177-.068-.103-.787-.085-.308-.126-.264-.149-.215-.372.177-.244.218-.146.28-.079.37-.791-.563-.502-.174-.746.373-.86.305-.359.345-.415.149-1.275.255-.278.003-.236-.19-.286-.504-.512-1.391-.437-.383-.098-.171-2.073-1.139-.073.324-.356.682-.395.358-.185-.641-.267-.268-1.312-.327-.494-.333-.075-.23-.148-.899-.095-.162-.41-.314-.095-.149-.062-.181-.284-.457-.062-.296.039-.299.098-.199.272-.327 1.093-.987.283-.653.886-1.459-.406-.38-.235-.632-.165-.691-.204-.563-.522-.775-.204-.395-.115-.473.042-.423.302-.756.067-.277-.174-.504-.711-.837-.16-.417.222-1.12-.204-.33-.252-.162-.28-.121-.289-.208-.804-.902h-.308l-.123.796-.191.103-1.009-.261-.462.056-.485.473-.228.333-.308-.047-.723-.656-.376-.24-.364-.05-.333.016-.428-.05-.331.044-.14-.025-.043-.103-.1-.404-.044-.112-1.945-1.191-.603-.747.065-1.163.343-.996.259-.457.731-.432.03-.576-.316-1.257-.042-.395.005-.317-.057-.299-.232-.323-.634-.467-.336-.526-1.116-.523-.278-.457.472-.572.145-.317-.471-.218-.171-.199-.142-.243-.057-.205-.036-.653-.057-.252-.095-.218-.113-.028-.4.056-.121-.028-.055-.137-.046-.33-.219-.466-.078-.333-.156-.268-.707-.205-.573-.423-.333-.096-.698-.118-.571-.32-.421-.457-.251-.541-.453.168-.484.762-.502.283-.359-.009-.481-.103-.803-.283-.417-.274-.293-.314-.542-.849-.462-1.194-.174-.28-.497-.18-.939.212-.411-.221-.042-.249.281-.529-.034-.249-.25-.215-.152.081-.106.193-.109.131-.329.155-.157.156-.171.047-.37-.156-.244-.202-.145-.258-.704-2.096-.344-.317-.466.88-.82.025-1.832-.7-1.795-.327-.799-.439-.673-.88-.429-1.362-.3-.401-.751-.504-.184-.274.207-.355.373-.068.484.084h.419l.18-.333-.165-.379-.308-.317-.173-.352.235-.482-.234-.103-.52-.016-.292-.087-.204-.137-1.019-1.129-.209-.438.012-.575.139-.258.387-.333.072-.211-1.437-3.1-.061-.271-.001-.012-.033-.333-.064-.302-.149-.131-.41-.016-.161-.068-.261-.42-.397-.445-.357-.311-1.827-1.098-.784-.619-1.266-1.337-.851-1.43-.288-.23-.324.065-.25.146-.19.143-.152.075-.416-.019-.179-.112-.094-.152-.153-.146-.208-.156-.126-.131-.189-.09-.749-.072-.592-.152-.31-.034-.533-.184.236-.404.828-.628-1.027-2.083-.428-.603-.63-.557-.358.084-.75 1.2-.338.264-.301.025-.5-.18-1.027-.221-.645-.283-.401-.311-1.231-1.337-.188-.143-.281-.084-.528-.012-.256-.09-.348-.336-1.183-1.626-.572-.451-.633-.32-1.354-.367-.603-.065-.462.099-.289.308-.103.582-.151.386-.373.445-.476.367-.456.159-.556-.33-1.91-.7-1.684-.32-.586-.423-.723-.252-1.751-1.076-1.415-1.263-.536-.177-.309-.196-.382-.429-.476-.429-.599-.196-.567.068-1.297.295-.692.065-.669-.056-.583-.143-.496-.199-.847-.473-1.206-.892-.252-.414-1.829-1.129-.748-.69-.331-.485-.137-.578-.149-.379-2.017-2.55-.131-.358-.289-.451-.678.084-.762.243-.549.028-.154-.236-.169-.796-.18-.32-.252-.112-.336-.025-.655.034-.737-.05-.651-.149-.6-.261-.578-.379-.83-.877-.3-.134-.334.093-.546.414-.157.093-.168.152-.748.892-.28.103-.32.062-.65.04-.284-.053.015.196-.075 2.242.311 1.996-.532.354-2.985.345-.779.401-.44.056-.569-.196-.804-.749-.476-.333-.432-.128-1.466-.162-1.04-.283-.372.14.076 1.197-.459.012-1.073-.482-.379-.037-2.09.314-.456-.019-.432-.155-.513-.376-.656-.662-.306-.218-.499-.174-.375-.062-1.203-.022-.894-.302-1.151-1.3-.632-.159-.409-.103-.522.096-1.516.569-.655.037-.47-.14-.443-.227-.568-.205-3.201-.65-1.051-.386-.81-.622-.311-.768-.132-.899-.272-1.011-.193-3.163-.406-1.459-1.242-.311-.144.02-.879.123-1.098-.435-1.978-1.365-.639-.945-.196-2.164-.899-.706-.743-.006-2.399.911-.605.124-.609-.011-.642-.145-.701-.27-.319-.272-.062-.325.009-.334-.107-.306-.292-.308-.145-.019-.154.081-.327-.006-2.046-.771-2.133-.078-1.266-.616-3.916-2.961-.616-.327-1.789-.482-.576-.28-.71-.541-2.831-3.148-.337-.263-.213-.166-1.667-.383-.452.037-.435.249-.169-.485-.63-.666-.115-.311-.051-.578-.282-.084-.422.134-.473.078-.704-.218-.59-.459-.453-.607-.296-.666-.309-.509-.888-.716-.631-.88zm20.979-35.917.043.145.705.863.279.652.033.968-.334.828-.817.245-.697-.414-.812-.821-.676-.902-.283-.648.094-.418.206-.184.203-.141.142-.32-.218-.327-.436-.818.055-.354.3-.163.518.273.655-.218.627.354.168.552.235.278.082.376zm6.893-2.077.431.265 1.129 1.485.457.354 1.014.581.5.4-.704.458-.948.038-.897-.213-.551-.283.222-.186-.222-.223.628-.596-.01-.381-.398-.199-.538-.059-.465-.31-.186-.635.116-.526zm2.894 1.03 1.157.888.408.439-.149.448-.504.062-.779-.39-1.364-1.037-.828-1.096-.184-.346-.097-.354-.037-.351.077-.15.245.238.093.072.338.134.078-.189.088-.088.105-.055.12-.097.839.84.119.234.142.574zm13.634-48.329.62.311.626-.076.616-.145.585.117-.551.877-.389.357-.382-.155-.526-.667-.741.28-.716.118-1.579-.015-.593-.129-.377-.029-.463.088-.267.214-.189.265-.231.239-1.108.339-.125.092-.122-.254.012-.419.147-.392.282-.173.4-.13.66-.582.377-.131.402.048.73.165.419-.006-.141-.243-.457-.316-.223-.265h1.045l-.719-.178.079-.288.495-.319.536-.261-.164-.055-.1-.061-.12-.054-.233-.036.039-.126.04-.087.146-.199.802.413.462.383.323.428.244.492zm-131.136-251.369-.25-.623.086-.618.318-.527.462-.337.14.345-.552 2.33-.381.063-.19-.281zm9.894-24.578-.105-.69.223-.657.403-.349.42.24.153.541-.176.449-.397.318zm-6.892 285.189-.108-.071-.031-.075.05-.162.145-.173.173-.059.051-.081.029-.265.158-.086.169.022.162-.058.088.026.107.402-.048.065-.137.043-.125.13-.157-.015-.364.319zm103.053 29.196.42-.365.252.027-.056.421v.421l-.029.42-.449.505-.337.281-.449.112-.365-.112v-.309l.477-.056.141-.449.141-.589zm78.222-223.644.33-.308.232.155.367.154.542.156.077.368-.329.348-.29-.039-.349-.097-.252.155-.077.387-.116.213h-.252l-.116-.368-.039-.503.097-.387zm-135.488-98.76v.02l.017-.005-.003.031-.029.008v-.021l-.015.006v-.029z" fill="#808080"/><text font-family="'Roboto-Regular'" font-size="14" transform="translate(681.6426 577.5916)">© Vemaps.com</text></svg>