<?xml version="1.0" encoding="utf-8"?>
<!-- Generator: Adobe Illustrator 23.0.1, SVG Export Plug-In . SVG Version: 6.00 Build 0)  -->
<svg version="1.1" xmlns="http://www.w3.org/2000/svg" xmlns:xlink="http://www.w3.org/1999/xlink" x="0px" y="0px"
	 viewBox="0 0 800 600" style="enable-background:new 0 0 800 600;" xml:space="preserve">
<style type="text/css">
	.st0{fill:#808080;}
	.st1{font-family:'Roboto-Regular';}
	.st2{font-size:14px;}
</style>
<g id="Germany">
	<path class="st0" d="M546.304,473.181l-1.294,2.735l-0.098,0.624l0.224-0.081l0.461,0.912l0.215,0.2l0.542,0.261l-0.577,0.552
		l-0.112,0.783l0.228,2.118l-0.031,1.1l-0.134,0.944l-0.268,0.86l-0.743,1.614l-0.206,0.31l-0.358,0.357l-0.345,0.149l-0.9,0.145
		l-0.148-0.034l-0.367,0.746l-0.385,1.746l-0.094-0.1l-1.775-0.803l-0.662-1.021l-0.703-0.524l-0.756-0.409l-4.489-1.258
		l-1.45,0.196l-1.414,0.533l-0.389,0.362l-0.237,0.455l0.027,0.237l0.13,0.294l0.174,1.18l0.403,0.63l0.094,0.574l-0.121,0.637
		l-0.582,1.238l-0.206,0.599l-0.081,0.608l0.081,1.844l-0.09,0.68l-0.193,0.448l-0.197,0.337l-0.085,0.337l-0.246,1.384
		l-0.604,1.016l-4.234,3.711l-1.455,0.816l-5.966,1.044l-4.489,1.789l-0.698,0.499l-1.611,1.552l-1.396,0.781l-0.671,0.544
		l0.058,0.155l-2.399,0.468l-0.653,0.351l-0.394,0.433l-0.792,1.252l-0.564,0.651l-1.723,1.211l-0.174,0.215l-0.618,0.971
		l-0.264,0.121l-0.282-0.013l-0.277,0.096l-0.264,0.466l-0.085,0.875l0.219,0.854l0.385,0.78l0.403,0.64l3.048,3.2l0.649,1.445
		l0.114,0.696l0.015,0.093l0.233,0.677l0.349,0.513l1.038,0.625l0.873,0.904l0.349,0.189l0.73,0.718l1.468,3.418l0.935,1.401
		l0.201,0.203l-2.793,4.495l-0.237,0.506l-0.085,0.409l-0.013,0.413l-0.076,0.426l-0.277,0.459l-0.009,0.007l-0.806,1.248
		l0.707,0.72l2.412,0.451l0.649-0.111l1.096-0.484l0.671,0.108l0.537,0.406l0.533,0.647l0.846,1.453l0.345,0.934l0.121,0.824
		l-0.027,0.781l-0.094,0.777l-0.107,0.139l-0.515,1.273l-0.027,0.178l-0.698,0.919l-0.116-0.043l0.036,1.456l0.094-0.036
		l-0.049,0.093l-0.412,1.039l-0.107,0.167v1.117l0.036,0.398l0.098,0.351l0.139,0.328l0.112,0.389l0.013,0.533l-1.235,1.47
		l-0.3,0.262l-0.465,0.021l-0.269-0.166l-0.242-0.255l-0.416-0.223l-0.452,0.013l-0.358,0.195l-0.367,0.128l-0.475-0.194
		l-2.121-1.606l-1.978-2.185l-0.367-0.295l-0.407-0.146l-0.667-0.116l-1.07-0.865l-0.228-1.584l0.528-1.488l1.182-0.588
		l-0.859-0.833l-1.124-0.744l-0.68-0.837l0.448-1.123l-0.743,0.096l-2.43-0.628h-1.544l-1.544,0.372l-0.824,0.415l-1.516,1.358
		l-0.413,0.37l-0.676,0.3l-0.913,0.179l-0.891-0.023l-0.609-0.301l-1.289-1.04l-0.349-0.42l-0.237-0.527l-0.452-1.371l-0.201-0.371
		l-0.712-0.14l-1.701,0.655l-0.734,0.12l-2.502-0.535l-0.944,0.136l-0.967,0.507l-0.47,0.071l-0.43-0.384l-0.237-0.71l0.143-0.449
		l0.277-0.386l0.152-0.509l0.112-0.687l0.134-0.294l-0.107,0.022l-0.631,0.278l-0.376,0.236l-1.043,0.872l-0.685,0.279l0.085,0.525
		l0.139,0.356l0.318,0.422l0.353,0.352l0.219,0.148l0.121,0.354l0.072,1.718l-0.045,0.601l-0.157,0.41l-1.235,1.59l-0.345,0.071
		l-9.949-0.435l-3.634,0.743l-0.488,0.292l-0.434,1.092l-0.448,0.149l-2.439-0.503l-3.527-0.015l-1.889-0.378l-0.801-0.027
		l-0.148,0.186l-1.208,1.052l-0.295,0.68l-0.34,1.485l-0.219,0.593l-0.788,0.878l-0.94,0.374l-2.032,0.338l-0.98-0.311l-1.065-0.146
		l-0.985,0.232l-2.041,2.356l0.533,0.146l0.47,0.31l0.166,0.477l-0.371,0.635l-0.703,0.303l-1.88,0.045l-0.806,0.258l-0.837,0.781
		l-0.573,0.774l-0.618,0.665l-0.944,0.433l-1.038-0.119l0.094-1.739l-0.926-0.38l-1.092,0.299l-2.829,1.964l-0.846,0.26
		l-4.516-0.066l-0.604-0.354l-0.443-0.866l0.103-0.007l0.139-0.294l0.099-0.443l-0.013-0.43l-0.13-0.291l-2.162-2.336l-2.229-1.036
		l-0.295-0.508l1.396-0.956l0.363-0.441l-0.994-0.751l-0.461-0.262l-0.6-0.041l-0.613,0.176l-1.745,0.802l-1.28,0.156l-0.371-0.113
		l-0.215-0.305l-0.143-0.331l-0.174-0.202l-5.715-2.168l-1.047-0.013l-0.6,0.419l-0.877,1.228l-0.551,0.444l-0.51,0.089
		l-1.844-0.282l-0.676-0.312l-0.354-0.252l-0.228-0.295l-0.076-0.55l0.161-0.408l0.21-0.308l0.054-0.252l-0.192-0.599l-0.152-0.12
		l-0.331,0.131l-0.725,0.131l-0.649,0.257l0.063,0.554l0.376,0.708l0.286,0.718l-0.054,0.593l-0.439,2.556l0.609,0.333l0.371,0.414
		l0.233,0.565l0.179,0.793l0.009,1.373l-0.394,1.439l-0.631,1.294l-0.721,0.96l-0.372,0.251l-0.913,0.319l-0.448,0.302l-0.26,0.401
		l-0.962,1.94l-0.779,1.05l-0.846,0.776l-1.938,1.193l-0.944,0.368l-2.789,0.342l-0.653,0.08l-0.193-0.112l0.175-0.399l0.398-0.721
		l0.175-0.12l0.573-0.172l0.21-0.208l0.107-0.426l-0.022-0.383l-0.098-0.419l0.783-2.364l0.031-1.151l-0.797-0.431l-1.902,0.347
		l-0.515,0.57l-0.184,0.142l-0.224-0.002l-0.448-0.273l-0.215-0.028l-0.568,0.273l-0.331,0.246l-0.291,0.013l-0.421-0.41
		l-0.233-0.611l-0.04-0.687l-0.116-0.664l-0.474-0.556l0.985-0.769l0.201-0.673l-0.38-0.751l-2.13-3.128l-0.492,0.225l-0.385,0.338
		l-0.38,0.166l-0.474-0.285l-0.067-0.374l-0.013-0.195v-0.194l-0.394-0.863l-0.542-0.543l-0.452-0.6l-0.121-1.061l-0.524,0.421
		l-0.653,0.129l-1.289-0.103l-1.303-0.484l-0.219,0.06l-0.533,0.345l-0.349,0.027l-0.882-0.458l-0.166-0.678l0.085-0.781
		l-0.143-0.76l-0.506-0.554l-0.613-0.222l-0.649,0.073l-0.627,0.335l-0.944,1.101l-0.537,1.167l-0.627,0.981l-1.182,0.563
		l-2.775,0.048l-2.532-0.697l-0.184-0.051l-0.104-0.065l-11.877-7.419l-1.683-0.39l-1.62,0.002l-0.586-0.919h-2.395l-4.829-0.545
		l-0.819,0.326l-0.689,0.751l-1.576,0.505l-1.696,0.161l-1.061-0.279l-1.258-0.942l-0.032-0.032l-0.613-0.615l-0.004-0.447
		l0.797-0.186l-1.119-1.062l-1.414-0.827l-1.164-0.053l-0.389,1.262l0.354,0.397l-2.287,0.033l-0.085-0.419l-0.107-0.491
		l-0.345-0.427l-0.184-0.526l0.143-0.421l0.577-0.87l0.116-0.243l-0.286-0.651l-0.425-0.083l-0.479,0.1l-0.448-0.102l-0.322-0.513
		l-0.34-0.746l-0.416-0.634l-0.559-0.187l-0.394,0.413l-0.224,1.405l-0.537,0.353l-0.425-0.318l-0.152-0.782l-0.04-0.833
		l-0.067-0.47l-0.801-0.363l-1.079-0.06l-0.689,0.396l0.403,1.016l-0.654,0.333l-2.332,0.466l-0.483-0.013l-0.34,0.203l-0.586,0.866
		l-0.201,0.469l-0.327,1.288l-0.461,0.432l-1.096,0.604l-0.425,0.487l-0.049,0.476l0.184,0.47l0.107,0.548l-0.277,0.696l0.68,0.251
		l0.215,0.033l1.11,0.849l0.895,0.512l0.77-0.033l0.64-0.332l0.6-0.43l0.649-0.327l2.104-0.359l0.604,0.103l0.493,0.203l0.2,0.083
		l0.394,0.038l-0.246,1.523l-0.282-0.143l-0.027-0.395l-0.04-0.103l-0.188,0.007l-0.228,0.086l-0.157,0.136l-0.098,0.355
		l0.072,0.292l0.103,0.251l0.018,0.221l-0.054,0.438l0.022,0.457l-0.049,0.481l-0.188,0.331l-0.094,0.166l-0.582,0.196l-0.389-0.479
		l-0.09-0.111l-0.515-0.87l-0.667-0.627l-1.298,0.133l-1.325,0.88l-0.506,1.098l-0.054,0.305l-1.203,0.203l-0.131,0.022
		l-2.771-0.017l-1.643-0.438l-0.425-0.279l-0.304-0.619l-0.233-0.619l-0.233-0.279l-0.501-0.053l-1.123-0.345l-0.783,0.003
		l-2.336,0.395l-0.224,0.146l-0.215,0.314l-0.295,0.314l-0.792,0.237l-0.94,0.509l-0.354,0.275l-0.367,0.423l-0.175,0.325
		l-0.192,0.279l-0.421,0.287l-1.947,0.438h-5.635l-0.116-0.272l-0.085-0.602L290.309,550l-0.264-0.275l-2.793-0.169l-0.609-0.312
		l-0.788,1.236l-0.689,0.828l-0.814,0.464l-1.707,0.355l-1.9,0.396l-0.953-0.128l-0.629-0.334l-1.609-0.854l0.112,0.001l1.02,0.009
		l0.461-0.446l0.568-1.607l-0.98,0.103l-2.209,0.665l0.177-0.655l0.103-0.231l-0.094-0.612l-0.228-0.335l-0.277-0.242l-0.26-0.325
		l-0.976-1.956l-0.586-0.821l-0.64-0.336l-0.17-0.296l-0.139-0.693l-0.121-1.385l0.152-0.386l0.716-0.765l0.255-0.426l0.022-1.052
		l-0.537-2.256l0.116-0.894l0.618-2.089l0.242-0.31l0.586-0.322l0.094-0.722l-0.224-1.201l0.009-0.287l-0.036-0.164l-0.022-0.164
		l0.049-0.27l0.13-0.28l0.286-0.279l0.175-0.319l0.273-0.648l0.081-0.289l-0.054-1.05l0.233-0.863l1.155-1.228l0.412-0.779
		l-0.094-2.02l-1.871-3.306l-0.134-2.674l0.273-1.265l0.291-0.989l0.313-0.58l0.295-0.392l0.219-0.51l0.085-0.936l0.286-0.794
		l2.739-3.847l0.457-0.944l0.273-1.103l0.09-1.322l0.3-1.367l0.698-0.574l0.797-0.434l0.595-0.958l0.054-0.911l-0.219-0.869
		l-0.282-0.832l-0.139-0.785l0.049-0.856l0.318-1.723l0.219-0.744l0.3-0.619l0.282-0.422l0.219-0.634l0.09-1.244l0.224-0.593
		l0.519-0.534l1.083-0.858v-0.449l-0.51-1.389l0.004-2.276l0.367-2.139l1.826-2.861l0.506-0.359l0.716-0.234l0.662-0.576
		l1.186-1.424l0.515-0.336l0.573-0.56l0.465-0.624l0.192-0.519l0.054-1.252l0.228-0.587l0.492-0.163l1.217-0.02l0.331-0.115
		l0.246-0.214l0.094-0.363l0.094-0.618l0.201-0.35l0.201-0.194l0.094-0.163l0.38-0.017l1.589-0.856l0.264-0.228l0.537-0.907
		l1.965-5.426l1.352-2.568l0.891-1.026l0.018-0.021l-0.501-0.474l-4.256-0.886l-6.866-3.674l-0.783-0.089l-2.466,0.259l-3.603-1.048
		l-0.479,0.13l-1.016,0.557l-0.528,0.137l-0.416-0.061l-0.918-0.328l-0.479-0.082l-0.546,0.116l-0.506,0.219l-0.519,0.133
		l-0.168-0.038l-0.432-0.098l-0.403-0.345l-0.421-0.857l-0.318-0.396l-0.962-0.502l-1.893-0.331l-0.944-0.601l-0.569-0.721
		l-0.98-1.596l-0.609-0.636l0.076-0.219l0.107-0.151l0.322-0.209l-0.286-0.958l-0.783-0.287l-1.871-0.127l-0.188-0.739l-0.841-0.072
		l-0.841,0.255l-0.175,0.053l-0.721,0.411l-0.201,0.328l-0.313,0.961l-0.219,0.366l-0.327,0.154l-0.886,0.113l-0.385,0.133
		l-0.273,0.332l-0.456,0.933l-0.255,0.263l-0.273-0.041l-1.164-0.547l-3.733-0.034l-0.68-0.233l-0.68-0.356l-1.656-1.207
		l-0.237-0.031l-0.394,0.39l0.036,0.366l0.139,0.345l-0.067,0.335l-1.329,0.841l-0.953-0.752l-0.501-1.816l0.022-2.337l-0.936-0.048
		l-2.703-1.534l-0.479-0.072l-1.262,0.123l-1.808-0.414l-0.434,0.106l-0.251,0.921l0.327,1.072l0.166,1.099l-0.747,0.996
		l-0.551,0.127l-1.687-0.626l-1.929-0.017l-0.51-0.219l-0.555-0.927l0.121-0.811l0.219-0.839l-0.273-1.052l-0.175,0.003
		l-0.582,0.384l-0.193,0.021l-0.116-0.236l-0.085-0.521l-0.049-0.147l-0.139-0.277l-0.34-1.23l-0.184-0.192l-0.6-0.216l-0.233-0.182
		l-0.049-0.267l0.089-0.672l-0.067-0.281l-2.88-2.786l-0.725-0.882l-0.273-0.773l0.237-0.608l0.77-0.038l0.188-0.536l-0.148-0.398
		l-2.104-2.241l-0.3-0.444l0.085-0.027l-0.009-0.371l-0.116-0.55l-0.268-0.554l-0.743-0.719l-3.974-1.993l-0.479-0.083l-0.354,0.138
		l-0.824,0.568l-0.461,0.089l-0.37-0.039l0.003-0.491l-0.134-2.018l0.283-2.153l0.084-0.642v-2.115l0.246-0.735l0.653-1.029
		l1.128-1.395l0.439-0.905l0.327-0.484l0.116-0.301l-0.04-0.442l-0.264-0.259l-0.277-0.19l-0.076-0.221l0.671-0.944l3.182-2.068
		l-0.085-0.145l-0.295-0.342l0.148-0.325l0.201-0.1l0.376,0.149l-0.309-0.415l-0.206-0.481l-0.098-0.547l0.031-0.599l0.421-0.371
		l0.018-0.26l-0.116-0.298l0.005-0.475l0.206-1.459l0.063-0.045l0.005-0.565l0.094-0.094l0.013,0.014l-0.233-0.253l-0.17-0.01
		l-1.334-0.395h-2.077l-0.756-0.208l-0.734-0.468l-1.244-1.19l-0.734-0.465l-0.381-0.01l-0.649,0.395l-0.349-0.031l-0.045-0.225
		l-0.259-0.693l-0.175-0.467l-0.206-0.368l-0.631-0.41l-1.468-0.656l-0.676-0.688l-1.423-3.44l-0.743-1.207l-0.465,0.925
		l-0.345-0.588l-0.658-1.893l-0.747-1.142l-0.188-0.547l0.121-0.749l-0.269-1.407l-0.282-0.554l-0.47-0.272l0.403-0.788l0.161-0.22
		l-0.098-0.014l-0.26,0.024l-0.076-0.049l0.273-1.897l0.21-0.928l0.3-0.977l0.394-0.464l0.125-0.454l-0.152-0.415l-0.439-0.356
		l0.094-0.332l0.143-0.758l0.081-0.224l0.372-0.23l0.864-0.07l0.322-0.21l0.26-0.639l0.027-0.762l-0.242-0.769l-0.577-0.643
		l0.448-0.587l0.98-0.696l0.425-0.658l0.9-0.427l1.862-0.525l0.797-0.721l-0.192-0.609l0.089-0.683l0.286-0.652l0.43-0.525
		l0.586-0.34l0.483,0.042l0.492,0.193l0.582,0.105l1.15-0.21l0.542-0.578l-0.049-0.515l-0.041-0.431l-1.504-2.623l-0.058-0.804
		l0.3-0.909l0.309-1.601l0.031-1.135l-0.166-0.232l-0.309-0.06l-0.372-0.615l-0.237-0.689l-0.125-0.612l0.107-0.545l0.483-0.475
		l-0.788-0.046l-1.875-0.433l-0.662-0.317l-0.098-0.095l-0.098-0.035l-0.107,0.035l-0.094,0.095l-1.464,0.454l-0.43-0.021
		l-0.345-0.278l-0.371-0.777l-0.349-0.324l0.345-0.588l-0.506-0.039l-0.349-0.148l-0.058-0.31l0.34-0.525l-0.721-0.912l0.797-1.254
		l1.365-1.138l0.967-0.578v-0.247l0.492-0.599l0.304-0.606l-0.098-0.409l-2.99-0.074l-0.891-0.469l-0.506-0.981l0.577-0.37
		l-2.636-4.04l-0.832-0.834l-0.721-0.067l-1.714,0.474l-0.573-0.067l-0.17-0.573l0.161-0.721l-0.022-0.658l-0.721-0.378
		l-0.063-0.127l-0.005-0.124l0.027-0.124l0.072-0.127l0.094-0.891l-0.282-0.418l-0.43-0.301l-0.331-0.573l-0.184-0.878l0.658,0.166
		l0.622-0.584l0.228-0.814l-0.094-0.631l-0.04-0.592l0.38-0.687l0.595-0.34l0.976,0.085l0.483-0.581l0.264-0.706l0.013-0.546
		l-0.367-1.412l0.081-0.454l0.228-0.373l0.085-0.277l-1.414-0.493l-1.021-0.643l-0.331-0.366l-0.112-0.547l-0.063-0.991l0.166-0.572
		l0.264-0.579l-0.09-0.359l-1.553,0.188l-1.137-0.377l-0.6-0.082l-0.586,0.167l-1.123,0.558l-0.591,0.121l-0.045-1.734l-0.667-1.979
		l-0.246-1.612l1.213-0.641l0.6,0.338l0.515,0.671l0.577,0.53l0.797-0.085l0.533-0.587l0.832-1.753l0.582-0.673l4.006-3.15
		l2.466-1.343l0.644-0.858l-0.909-0.851l0.989-0.812l0.345-0.202l-0.994-0.343l-2.157,1.487l-1.016-0.567l-0.309-1.276l0.125-1.543
		l0.371-1.377l0.443-0.763l0.913-1.117l2.22-4.11l0.452-0.446l1.101-0.77l0.43-0.611l0.233-0.864l0.134-1.52l0.251-0.609
		l-0.653-0.784l0.058-1.279l0.331-1.477l0.157-1.375l-0.21-1.261l-0.309-2.279l-1.745-2.025l-2.882-3.978l-0.188-0.856l0.233-0.997
		l0.506-1.561l-2.931-1.293l-0.994-1.27l0.582-1.979l-0.43-0.444l-0.967-0.735l-0.497-0.238l-1.258,0.029l-0.43-0.175l0.036-0.752
		l0.257-0.256l0.706-0.704l0.076-1.414l-0.577-1.355l-0.985-0.758l0.148-0.624l0.721-0.512l1.768-0.315l0.837-0.358l0.895-0.668
		l0.622-0.333l1.763-0.476l1.405,0.377l1.02,0.263l0.698,0.174l-0.582-0.92l-1.616-1.703l-0.537-0.41l1.473-0.801l1.396,0.662
		l1.392,1.133l1.464,0.603l1.352-0.299l0.358,0.043l0.309,0.301l0.479,0.862l0.197,0.241l1.661,0.254l0.703,0.411l0.13,1.092
		l1.625-0.454l0.179-0.699l-0.354-1.581l2.775,0.824h0.882l0.716-0.326l2.13-1.642l4.31-1.479l3.833-0.123l1.173-0.636l1.007-1.206
		l0.989-1.8l0.354-0.39l0.331-0.058l0.219-0.214l0.04-0.859l-0.107-0.474l-0.224-0.34l-1.119-1.188l-2.829-1.589l-0.949-0.282
		l-0.689-0.489l-0.09-1.073l0.3-0.733l0.389-0.186l0.456-0.033l0.519-0.262l0.349-0.442l0.354-0.898l0.228-0.401l0.734-0.767
		l0.694-0.39l0.247-0.028l2.559-0.289l0.546-0.501l0.958-1.962l0.841-0.885l1.857-0.817l0.864-0.77l1.016-1.658l0.465-0.546
		l1.925-1.176l0.121-0.364l-0.109-0.201l-0.254-0.469l-0.385-1.512l0.027-1.297l0.313-1.068l0.868-2.024l0.367-2.584l-0.609-1.824
		l-2.636-4.302l-0.273,0.128l-0.268,0.477l-0.403,0.382l-1.083,0.319l-1.137,0.075l-1.222-0.2l-2.238-0.859l-3.428-0.486
		l-1.141-0.56l-0.855-0.999l-0.264-1.06l-0.063-1.253l-0.152-1.271l-0.533-1.117l0.716-0.064l2.404-1.22l-1.419-1.206l-0.304-0.458
		l-0.014-0.593l0.197-0.591l0.085-0.639l-0.363-0.746l0.749-0.545l0.777-0.566l1.45-0.452l4.109-0.066l2.296,0.697l2.135-0.319
		l0.653,0.276l1.544,0.485l0.788-1.527l0.318-2.516l0.403-7.721l0.376-2.395l0.441-1.24l0.334-0.94l3.554-5.614l0.94-2.407
		l0.398-2.293l0.067-2.58l-0.403-5.16l-0.161-0.63l-0.21-0.377l-0.166-0.459l-0.031-0.863l0.107-0.582l0.613-1.59l0.295-1.243
		l0.134-1.126l-0.045-1.16l-0.125-2.055l0.426-0.236l0.493-0.53l0.381-0.53l0.388-0.775l0.148-0.863l-0.324-0.799l1.092-1.663
		l0.589-0.301l1.004-0.018l0.937,0.248l1.494,0.953l0.818,0.33l-1.04-1.54l-1.716-0.631l-9.861-0.351l-1.6-0.797l-0.634-2.02
		l-0.014-5.383l0.19-1.225l0.839-2.209l0.19-1.084l0.359-0.664l0.849,0.012l1.745,0.382l0.233-0.587l0.412-0.222l0.314-0.712
		l-0.078-0.919l-0.384-0.522l-1.265-0.641l-0.564-0.582l-0.092-0.959l0.613-0.805l1.396-0.977l1.572-1.768l0.846-0.586l1.607-1.68
		l3.419-1.339l6.661-0.756l0.465,0.321l0.462,0.637l1.026,0.247l6.386-1.339l12.994-1.825l3.464,1.012v0.545l-0.282,2.053
		l1.212,2.649l1.783,2.305l1.452,1.018v0.448l-0.366,0.926l0.67,0.326l0.959,0.276l0.486,0.762l-0.134,1.311l-0.409,0.67
		l-0.938,0.708l-0.782,0.406l-1.706,0.154l-0.761,0.48l0.789,2.425l0.398,0.915l0.589,0.633l0.55-0.266l0.493-0.213l0.726,0.03
		l0.507,0.278l0.825,0.959l0.31,0.207l0.353,0.308l0.352,0.683l0.455,0.683l0.624,0.31l0.726-0.021l0.529-0.121l0.465-0.284
		l0.532-0.523l0.913-1.526l0.966-2.504l0.233-2.497l-1.255-1.467l-1.702,0.457l-0.909-0.154l0.085-1.067l0.37-1.198l0.31-2.478
		l0.367-1.033l0.578-0.615l0.733-0.294l1.808-0.089l0.828,0.383l0.641,0.897l0.529,0.998l0.529,0.712l1.748,0.902l3.697,0.73
		l1.674,0.813v0.54l-1.036,0.895l-0.952,1.162l-0.701,1.57l-0.264,2.114l0.049,4.081l0.254,1.796l0.585,1.335l0.127-1.796
		l-0.458-4.538l0.035-2.146l0.663-1.581l0.994-0.705l0.902-0.877l0.395-2.075l-0.215-0.365l-1.11-2.849l-0.331-0.428l-0.451-0.989
		l-0.381-1.093l-0.307-1.391l-0.613-1.662l-0.137-1.217l0.095-1.232l0.264-1.078l1.621-4.067l1.149-4.419l0.74-1.959l0.62-0.938
		l0.846-0.816l0.959-0.577l0.98-0.227l0.902,0.066l0.514,0.227l1.064,1.214l1.536,1.309l1.639,0.857l3.387,0.842l1.857-0.054
		l3.147-0.785l1.734,0.14l0.811-0.959l3.443-0.849l3.426,0.033l0.74-0.535l0.589,0.445l0.712,0.129l1.47-0.072l0.377,0.257
		l0.952,1.255l4.215,7.487l1.741,2.058l1.216,1l0.596,0.771l0.592,2.21l2.974,4.401l0.662,0.606l0.804,0.362l1.033,0.125
		l0.539,0.264l2.573,1.777l2.918,0.653l2.382,0.534l0.564-0.237l-0.539-0.949l-1.625-0.955l-3.884-0.451l-1.586-0.635l-3.122-2.031
		l-1.424-1.616l-0.508-2.331l-0.127-1.993l-0.169-1.274l-0.433-0.399l-2.034-1.138l-0.652-0.238l-1.057-0.971l-1.012-2.203
		l-0.684-2.366l-0.064-1.466l-1.579-0.627l-2.735-2.375l-1.635-1.004l-1.618-0.383l-5.501-0.126l-1.646-0.766l-1.103-0.311
		l-0.504,0.323l-0.455,0.754l-1.004-0.335l-1.522-1.167l-1.448-1.801l-3.581-7.295l1.667-0.774l0.814-0.063l1.036,0.288l1.702,1.149
		l0.93,0.312l0.948-0.453l0.331-0.807l0.352-1.462l0.24-1.583l-0.011-1.142l-0.504-0.757l-0.803-0.718l-0.592-0.755l0.123-0.842
		v-0.46l-1.057-0.325l-1.512,0.28l-1.41,0.686l-0.779,0.875h-0.292l-1.184-2.066l-0.765-1.661l-0.123-0.361l0.352-1.482l0.663-1.278
		l0.451-1.169l-0.307-1.125v-0.507l0.532-0.407l1.833-0.531l0.747-0.072l0.458-0.374l0.67-0.924l0.677-1.177l0.434-1.118
		l-0.99,0.193l-1.632,1.422l-0.93,0.414l0.085-0.248l0.123-0.528l0.088-0.239l-1.315,0.157l-2.259,0.697l-1.332,0.16l-1.547-0.269
		l-0.67,0.269l-1.441,1.394l-0.507,0.169l-1.152-0.419l-1.234-1.132l-0.895-1.631l-0.123-1.931l0.613-0.765l1.184-0.541l1.329-0.269
		l1.018,0.051v-0.508l-0.779-0.184l-0.596-0.569l-0.571-0.182l-0.687,0.935l-0.37-0.817l0.127-0.838l0.402-0.778l0.433-0.615
		l0.923,0.415l3.51-0.966h4.758l1.1-0.297l0.916-0.575l1.829-1.624l1.671-0.827l0.722-0.555l0.293-1.21l0.003-1.805l-1.103-1.712
		l-3.535-3.835l-0.504-0.794l-0.211-0.794l-0.398-0.347l-0.892,0.027l-0.913,0.259l-0.486,0.341l-0.296-0.56l1.484-1.022
		l-1.512-4.069l-0.56-1.042l-1.244-0.78l-2.34-2.065l-1.47-0.732V54.34l0.243-1.356l-0.564-1.527l-0.842-1.504l-0.581-1.296
		l-0.247-1.979l0.194-1.745l0.587-2.178l1.52,0.476l1.598,0.07l2.949-1.113l1.012-0.156l3.46,0.599l3.402,1.401l9.184,2.178
		l0.725,0.645l0.197,0.758l0.13,1.049l0.318,0.893l0.765,0.311l3.16,0.012l0.649-0.12l0.421-0.439l0.618-0.171l0.474-0.427
		l0.783-0.179l0.873,0.827l0.734,0.085l0.64-0.217l0.025-0.02l0.603,0.003l2.58-1.312l0.821-1.028l1.057-0.422l0.543-0.983
		l0.564-0.459l0.141,2.709l2.097,0.78l2.661,0.141l1.801,0.804l0.758,0.578l1.124,0.486l1.026,0.733l0.451,1.301l0.501,0.699
		l1.131-0.195l1.97-0.761l-0.169-1.561l1.022-0.07l1.406,0.877l0.994,1.268l0.592,2.561l0.275,0.598l0.391,0.567l0.811,0.878
		l-0.557,0.43l-0.571-0.073l-0.536-0.247l-0.405-0.11l0.025,0.165l-1.071,0.854l-0.138,0.006l-0.278,0.192l-0.187-0.018
		l-0.106,0.161l-0.021,0.689l0.634,0.043l1.131-0.344l1.131-0.064l0.652,0.878l0.465-0.402l0.493-0.036l0.24,0.457l-0.31,1.051
		l0.219,1.038l0.028,1.482l-0.247,3.093l-0.219,1.325l-0.296,1.054l-0.416,0.86l-0.546,0.796l-1.396,1.305l-1.744,0.974
		l-1.875,0.616l-1.815,0.203v0.509l1.871,0.982l10.453-2.508l0.811,0.291l2.618,2.299l-0.863,0.867l-0.004,0.815l0.342,0.912
		l0.229,1.196l-0.25,0.996l-0.613,0.926l-0.782,0.666l-0.747,0.227l0.113,0.166l0.148,0.127l0.021,0.233l-0.282,0.49l0.465,0.505
		l0.13,0.623l-0.169,0.701l-0.426,0.71l0.952-0.354l0.719-0.888l1.018-2.313l0.574-2.466l0.314-0.624l0.434-0.291l1.635-0.176
		l0.592-0.348l0.289-0.403l0.222-0.415l0.402-0.4l0.497-0.164l1.84,0.164l0.952,0.473l2.622,2.111l6.83,3.047l3.859,3.654
		l1.78,0.447l1.984-0.366l1.459-0.909l2.474-2.318l1.427-0.925l1.491-0.632l3.616-0.472v0.505l-0.779,0.039l-1.082,0.012
		l0.751,0.339l0.751-0.248l1.015,0.711l3.041-1.879l1.357,0.521l-1.607,1.812l-0.462,0.726l-0.257-0.215l-0.659-0.293l0.469,1.215
		l0.398,2.955l0.342,1.404l-0.321,0.935l0.028,1.261l0.293,2.135l-0.187,1.266l-0.416,0.675l-0.416,0.467l-0.19,0.642l-5.029,3.286
		l-1.737,2.237l-0.758,0.493l-1.751,0.607l-0.338-0.012l-0.367,0.33l-0.293-0.21l-0.307-0.334l-0.388-0.039l-0.342,0.222
		l-0.173,0.195l-1.67,2.613l-0.444,0.495v0.459l0.574,1.44l0.631,1.062l0.832,0.693l1.181,0.378l1.674-0.174l0.43,0.174l0.307,0.764
		l0.042,0.878l0.166,0.677l0.638,0.189l0.169,0.012l0.504,0.033l0.215-0.045l0.553-0.434l1.269-1.336l0.715-0.282l0.825-0.174
		l2.305-1.244l5.265-0.702l0.381,0.147l0.299,0.42l0.282,1.037l0.307,0.516l1.54,0.426l0.236,0.371l-0.201,1.677l0.095,0.767
		l0.55,0.32l1.29,0.087l0.359-0.087l1.751-1.509l0.331,0.225l0.444,1.042l0.268,0.242h1.804l0.021,0.231l1.66,2.104l0.328,0.218
		h0.493l0.056-0.775l0.437-1.182l0.335-1.467l-0.19-1.186l0.321-0.539l0.419-0.33l0.363-0.09l-0.085-0.33l-0.106-0.833l-0.078-0.348
		l1.48-1.505v-0.549h-0.296v-0.459l1.107,0.462l0.374-0.003l0.878-0.651l0.772-1.96l0.581-0.414l0.349-0.123l0.285-0.324
		l0.222-0.469l0.19-0.547l0.028-0.367l-0.324-0.261v-0.379l0.137-0.379l0.18-0.253l0.162-0.198l1.071-1.946l1.378-0.96l1.692-0.244
		l3.616,0.644l10.322-2.227l1.625-1.048l0.222,2.12l-0.162,2.055l0.092,1.747l1.011,1.19l-0.419-0.896l-0.215-1.918l-0.229-0.719
		l0.451-0.864l1.248-0.71l0.37-1l-0.486-0.048l-0.465,0.084l-0.444,0.19l-0.402,0.28l0.328-0.693l1.47-1.937l0.878-0.796
		l1.029-1.736l0.61-0.398l0.567-0.166l3.263-1.789l1.642-1.385l0.641-0.755l1.561-3.043l2.604-3.784l0.282-0.717l1.787-3.117
		l0.687-1.955l0.497-0.646l0.885-0.449v0.458h-0.296l0.923,1.495l1.868,0.77h9.857l1.625,0.791l0.997-0.573l1.244,0.309l0.553,0.83
		l-1.075,0.999l-1.107,0.242l-4.638-0.4l-1.85-0.7l-1.142-0.154l-0.338,0.151l-0.462,0.675l-0.247,0.185h-0.881l-1.121-0.212
		l-0.419,0.236l-0.264,0.993l-0.268-0.551l-0.229,0.139l-0.384,0.333l-0.275,0.079l0.078,0.636l0.18,0.285l0.275,0.094l0.356,0.051
		l-0.155,0.039l-0.12,0.003l-0.063,0.097l0.014,0.321l-0.832-0.454l-0.93,0.088l-0.782,0.527l-0.388,0.853l-0.705-0.893
		l-0.856-0.433l-1.568-0.148l-0.705,0.339l-0.585,0.862l-0.282,1.134l0.24,1.17l-0.62-0.127l-0.254-0.109l-0.307-0.272l-0.296,0.508
		l0.285,0.889l-0.211,0.879l-0.543,0.644l-0.715,0.166l0.307,1.012l0.359,0.794l0.095,0.652l-0.49,0.585l1.889,1.318l1.054,0.274
		l0.927-0.582l-0.673,0.027l-0.511-0.253l-0.888-0.784l0.282-0.872l0.409-0.643l1.089-1.063l0.254-0.175l0.476-0.151l0.18-0.139
		l0.138-0.366l0.042-0.94l0.092-0.302l0.733-0.626l2.812-1.36l-0.585-0.439l-0.271-0.07v-0.508l0.803-0.299l0.292,0.027l0.352,0.272
		v-0.508l0.81,0.726l1.29-0.342l2.361-1.35l-0.095-0.248l-0.116-0.563l-0.085-0.254l0.451-0.333l0.507-0.206l0.532-0.073l0.55,0.061
		v0.551l-0.652,0.17l-0.437,0.59l-0.254,0.85l-0.106,0.929l0.543-0.944l0.197-0.499l0.148-0.59l0.388,0.708l0.444,0.657l0.486,0.23
		l0.479-0.575l0.507,0.454l0.465-0.021l0.423-0.348l0.381-0.545l0.12,0.575l0.208,0.535l0.271,0.475l0.74,0.95l0.162,0.136
		l0.155-0.082l0.437-0.1l0.832,0.054l0.437-0.127l0.486-0.436l0.37-0.599l0.448-1.207l0.388-0.735l1.107-1.099l1.72-1.118
		l1.72-0.645l1.1,0.327l-0.55,0.536l-0.021,0.887l0.328,0.945l0.511,0.726l1.875,0.974l0.515,0.499l-0.818,1.467l0.176,1.143
		l1.233,2l0.123,0.809v0.803l0.123,0.628l0.479,0.254h1.935v0.549l-0.405,0.012l-0.289,0.127l-0.486,0.32l1.417-0.136l2.263,1.294
		l1.508,0.362l1.11,0.609l1.427,2.944l1.174,1.039l-0.673,0.479l-0.511,0.533l1.082-0.009l1.614-0.828l0.853,0.331l-0.338,0.867
		l-0.208,0.343l-0.342,0.307l0.511,0.313l0.317-0.177l0.285-0.244l0.391,0.108l0.236,0.373l0.627,1.693l0.55,1.091l0.638,0.884
		l0.8,0.529l1.018,0.018v-0.505l-0.356-0.34l-0.493-0.845l-0.356-0.328v-0.505l5.346-1.056l1.283-0.596l2.213-1.517l1.233-0.415
		l0.197,0.385l-0.078,0.325l-0.278,0.235l-0.433,0.114v0.457l1.321,0.686l3.436,2.896v0.502l-0.624,1.085l-0.356,1.424l-0.532,1.297
		l-1.174,0.729l0.522,0.402l1.255,1.614l0.455,0.75l0.254,0.192l1.226,0.522l0.296,0.216l0.194,0.497l0.134,0.539l0.127,0.342
		l0.049,0.264l-0.056,0.336l-0.014,0.287l0.169,0.126l0.62-0.06l0.141,0.06l0.233,0.192l0.264,0.162l0.275,0.108l0.243,0.036
		l0.539,0.296l0.067,0.701l-0.268,0.826l-0.486,0.691l-3.101,2.566l-0.451,0.944l0.388,0.896l0.81,0.4l0.803,0.188l0.367,0.269
		l0.275,0.803l0.634,0.925l0.698,0.627l0.465-0.099l3.186,2.676l1.434,0.328l0.701,0.879l0.169,0.164l1.043-0.083l0.317,0.083
		l1.089,0.656l0.525,0.217l3.482,0.259l1.219-0.369l0.515-1.013l0.328-0.226l0.694,0.134l0.62,0.611l0.127,1.186l-0.342,0.545
		l-2.026,1.456l0.546,0.316l0.634,0.22l0.701,0.095l0.334-0.038l-0.002,0.007l0.054,2.056l-0.179,1.137l0.653,1.431l0.909,2.837
		l0.081,0.72l-0.116,2.668l0.031,1.615l0.313,1.502l1.052,1.633l0.452,1.519l0.909,1.537l0.452,3.762l0.907,4.229l0.293,1.363
		l0.067,0.614l0.027,1.314l0.134,0.711l0.264,0.46l0.662,0.563l0.17,0.404l0.564,0.524l-1.128,2.232l-0.318,0.477l-0.456,0.247
		l-0.43,0.645l-0.309,0.883l-0.121,0.962l0.157,1.174l0.26,1.023l0.09,1.044l-1.298,4.083l-0.121,0.603l-0.582,1.301l-1.329,1.397
		l-2.551,2.04l-2.636,1.383l-2.095,1.563v0.448l0.26,0.722l0.528,2.548l0.098,0.898l-0.179,1.357l-0.448,0.869l-1.15,1.003
		l0.497,1.008l0.752,0.593l0.909,0.285l0.962,0.07l0.868,0.385l1.414,1.677l1.182,0.635l4.601,3.404l0.671,0.789l1.482,2.933
		l0.452,0.438l0.823,0.386l1.244,1.708l2.591,1.031l2.513,2.834l0.249,0.281l1.347,1.112l-1.213,2.556l-0.336,1.654l0.806,0.739
		l0.201,0.759l-0.716,1.668l-1.047,1.669l-2.242,1.984l0.242,2.819l1.029,3.095l0.909,2.061l-0.26,1.288l0.971,1.096l1.468,0.757
		l1.231,0.287l1.213,0.532l0.671,1.243l-0.013,1.447l-0.846,1.121v0.438l0.627,0.984l-0.166,1.009l-0.466,1.284l-0.264,1.83
		l0.434,1.011l2.815,2.116l-0.797,0.996l-0.331,0.599l-0.139,0.631l-0.081,0.646l-0.184,0.666l-0.935,1.704l-0.233,0.683
		l-0.152,4.291l-0.367,1.373l-0.667,1.264l-0.797,1.071l-2.484,2.538l-0.568,1.215l0.13,1.484l0.712,1.091l0.783,0.544l0.6,0.807
		l0.17,1.845l0.448,1.778l0.976,1.148l2.104,1.756l0.559,1.207l0.425,1.771l0.072,1.836l-0.51,1.396l-0.841,1.338l-0.354,1.353
		l0.096,0.499l0.141,0.737l0.958,1.003l2.829,0.955l0.913,0.654v0.007l0.989,0.568l2.032,0.604l0.98,0.471l0.676,0.532l0.801,0.844
		l0.447,0.957l-0.367,0.869l0.161,1.831l0.259,2.941v0.064l0.188,1.243l0.121,0.478l0.801,1.413l0.98,1.158l0.631,1.358
		l-0.224,2.008l0.157,0.214l0.179,0.193l-0.743,1.463l-0.586,1.841l-0.354,1.938l-0.049,1.744l-0.09,0.886l-0.286,0.46l-0.336,0.319
		l-0.233,0.478l-0.076,0.679l-0.009,1.325l-0.13,0.791l-1.933,4.916l-2.184,5.211l-1.54,1.718l-0.613,1.014l-0.004,1.277
		l-0.685,1.839l-0.412,0.794l-0.421,0.485l-0.698,0.191l-0.94-0.035l-1.607-0.361l-1.656-1.261l-0.618-0.344l-1.504-0.425
		l-0.21-0.514l0.152-1.227l0.734-1.727l0.251-0.912l-0.233-0.777l-0.524-0.011l-2.394,0.997l-0.497-0.394l0.237-0.838l0.519-0.987
		l0.336-0.828l0.081-1.034l-0.134-0.672l-0.331-0.544l-0.524-0.636l-0.533-0.42l-1.168-0.295l-0.537-0.377l-0.407-0.564
		l-0.148-0.413l-0.094-0.415l-0.251-0.584l-0.376,0.952l-0.492,0.256l-1.571-0.089l-1.213,0.539l-0.479-0.011l-0.47-0.256
		l-0.282-0.375l-0.228-0.383l-0.327-0.299l-1.611-0.528l-1.379,0.219l-1.038,1.06l-0.609,1.981l-0.483,0.7l0.506,0.334l1.464,0.192
		l0.864,0.352l-0.067,0.139l-0.367,0.256l-0.04,0.721l1.105,1.098l1.598,0.472l1.155,0.671l-0.26,1.711l-1.271,1.082l-3.397-0.27
		l-1.558,0.326l-0.47,0.464l-0.792,1.199l-0.528,0.496l-6.749,3.107l-0.832,0.057l-1.584-0.205l-0.846,0.184l-0.466,0.333
		l-0.662,0.85l-0.443,0.333l-0.546,0.081l-0.421-0.127l-0.367,0.014l-0.398,0.492l-0.184,0.665l0.054,0.58l0.103,0.481l-0.022,0.361
		l-0.295,0.424l-0.251,0.088l-0.264,0.007l-1.253,0.785l-0.779,0.159l-1.987-0.223l-0.935,0.095l-1.647,0.612l-0.835,0.166
		l-3.889-0.021l-1.965,0.371l-1.772,1.074l0.501,1.049l-0.17,0.921l-0.577,0.748l-0.721,0.547l0.251,0.547l-0.04,0.413l-0.26,0.321
		l-0.43,0.243l-0.752,0.942l-0.734,0.67l-0.806,0.201l-0.967-0.476l-0.286-0.36l-0.609-1.026l-0.233-0.265l-0.528-0.194
		l-0.121,0.085l-0.027,0.247l-0.26,0.282l-1.625,1.157l-0.242,0.434l-0.461,1.382l-0.909,0.465l-0.721-0.321l-0.703-0.493
		l-0.841-0.078l-1.441,3.864l-0.622,1.13l-1.065,0.799l-2.283-0.134l-1.222,0.422l-0.009,0.007h-0.005l-0.394,0.109l-0.407,0.032
		l-0.403-0.035l-0.38-0.113l-0.336-0.253l-0.358-0.077l-0.363,0.088l-0.358,0.25l-0.282,2.774l-0.282,1.24l-0.613,0.727
		l-0.945,0.934l-0.349,0.345l-1.481-0.084l-4.01-2.448l-0.362-0.109l-0.389,0.081l-0.609,0.404l-0.268,0.105l-0.774-0.109
		l-0.694,0.042l-0.707,0.256l-0.555,0.552l-0.958,1.489l-0.483,0.467l-0.564,0.063l-2.314-0.421l-3.24,0.242l-1.746,0.516
		l-1.199,1.032l-0.322,0.281l-0.152,0.337l-0.09,0.344l-0.116,0.305l0.009,0.14l0.058,0.228l0.027,0.267l-0.094,0.249l-0.175,0.095
		l-0.389-0.014l-0.157,0.091l-0.515,0.463l-1.271,0.715l-0.465,0.463l-1.343,2.449l-0.492,0.518l-0.483,0.34l-0.354,0.529
		l-0.116,1.074l-0.855,1.099l-0.233,0.637l-0.134,1.203l0.13,0.839l0.251,0.723v0.601l-0.604,0.44l-0.738-0.094l-0.439-0.685
		l-0.519-1.863l-0.045-0.35l-0.076-0.395l-0.179-0.441l-0.188-0.255l-0.756-0.766l-0.112-0.157l-0.045-0.15l0.04-0.136l0.116-0.129
		l0.054-0.049l0.058-0.038l0.058-0.021l0.067-0.01l0.192-0.382l0.022-0.311l-0.143-0.245l-0.309-0.172l-1.244-0.031l-0.631-0.196
		l-0.483-0.427l-0.17-0.529l0.013-1.163l-0.255-0.627l-0.832-0.592l-2.077-0.154l-1.091-0.081l0.998,1.044l0.349,0.603l0.161,0.967
		l-0.081,0.868l-0.291,0.315l-0.447,0.294l-0.542,0.819l0.448,0.805l2.139,1.34l1.061,1.168l0.488,0.755l0.331,0.804l0.125,1.017
		l-0.304,1.536l0.027,1.012l0.376,1.022l0.613,0.562l0.694,0.401l0.627,0.544l0.385,0.666l0.09,0.69l0.009,0.614l0.139,0.429
		l6.552,3.518h0.045l0.662,0.654l1.593,0.167l0.73,0.696l0.112,0.984l-0.3,0.908l-0.049,0.73l1.772,1.043l0.618,0.24l0.268,0.486
		l-0.134,1.306l-0.349,1.028l-0.998,1.85l-0.318,1.037l-0.868-0.267l-0.264,0.947l-0.022,1.408l-0.139,1.102l-0.689,0.7l-1.79,0.762
		l-0.51,1.008l0.215,0.706l0.448,0.858l0.895,1.291l0.622,0.564l0.662,0.453l1.441,0.692l0.6,0.315l0.358,0.709l0.031,0.888
		l-0.367,0.819l0.112,0.09l0.345,0.169l-0.206,0.525l-0.031,0.162l0.443,0.539l1.034,0.57l0.456,0.504l0.304,0.725l0.201,1.48
		l0.174,0.783l0.277,0.8l0.273,0.596l0.34,0.5l0.47,0.493l0.488,0.148l0.456-0.065l0.322,0.262l0.058,1.123l0.125,2.187l0.215,1.081
		l0.492,0.964l0.846,0.705l1.996,0.942l0.873,0.904l1.419,3.186l0.685,0.711l0.859,0.312l2.551,0.374l0.81-0.11l-0.193-0.855
		l0.595-0.189l1.656,0.457l0.734,0.395l0.627,0.508l1.217,1.294l0.752,0.312l0.242,0.542l0.058,0.641l0.197,0.617l1.383,1.649
		l0.009,0.01l0.537,0.305l4.055,5.524l0.569,1.303l0.689,1.111l1.226,0.718l2.618,0.123l0.868,0.335l0.528,0.458l1.316,1.766
		l1.839,1.878l0.483,1.15l0.027,1.852l0.622,1.013l1.244,1.169l1.37,0.985l1.011,0.487l0.448-1.148l0.412-0.726l0.6-0.276
		l0.279,0.059l0.714,0.152l0.761,0.467l0.734,0.59l0.738,0.409l0.788-0.089l0.107,1.247l0.461,1.199l0.676,1.028l0.738,0.738
		l0.819,0.388l1.613,0.255l0.609,0.34l1.007,1.575l2.09,4.18L546.304,473.181z M563.381,114.046l-0.736,1.984l-0.358,0.247
		l-0.412,0.122l0.756,0.934l0.349,1.147l-4.911,0.568l-0.966-0.143l-0.726-0.514l-1.008,1.142l-1.265,0.741l-2.485,0.666
		l-2.738,0.045l-1.523-0.457l-0.793-1.09l0.56-0.209l0.899-0.69l1.396-0.305l1.501-0.87l0.402-0.437l0.317-2.124l-1.607-3.06
		l0.113-1.888l2.182,0.135l0.772,0.321l-0.296,0.545l0.106,0.41l-0.345,1.438l-0.056,1.168l0.677-1.213l0.557-0.299l1.748,0.003
		l-0.226,0.177l-0.176,0.192l-0.116,0.269l-0.067,0.413l1.473,0.458l-0.349-0.955l0.553-1.809l-0.078-1.963l-0.599-1.226
		l-1.001,0.42l-0.352-1.2l-0.472-0.99l-0.589-0.783l-0.687-0.549l-0.856-0.207l-0.863,0.189l-0.444,0.564l0.388,0.921v0.549
		l-0.37,0.207l-0.391,0.453l-0.317,0.573l-0.127,0.549l-0.264,0.156l-1.512,0.576l0.092-0.99l0.324-0.612l0.345-0.435l0.12-0.477
		l-0.226-0.9l-0.324-0.099l-0.374,0.27l-1.385,0.621l-0.638,0.855l-0.61,0.603l-0.87-0.342l0.345-1.428l1.177-2.432l0.247-1.932
		l-0.381-1.136l-1.769-1.868l-0.536-0.83l0.402-0.837l0.666-0.707l0.804-0.316l0.814,0.343l0.381,0.716l0.881,2.416l0.514,0.956
		l1.149,1.175l2.855,1.674l1.635,0.631l1.318,0.829l7.612,8.392l0.74,0.551L563.381,114.046z M242.405,138.521l-0.973,0.143
		l-1.505,0.659l-0.8,0.196v0.448l0.483,0.19l0.374,0.267l0.317,0.433l0.303,0.694l-0.388-0.226l-0.56-0.671l-0.37-0.143
		l-0.437,0.077l-0.641,0.338l-0.264,0.083l-0.779-0.389l-0.596-0.855l-0.166-0.858l0.504-0.389l3.299-1.016l1.618-0.125
		L242.405,138.521z M245.683,133.531l1.604-0.797l5.899-0.768l1.663,0.524L245.683,133.531z M256.914,130.948l1.984-1.17
		l2.337-0.393l4.906,0.107l0.021,0.348l-0.07,0.083l-0.12-0.003l-2.016,0.813l-5.29,0.703L256.914,130.948z M267.022,129.492
		l0.715-0.503l0.884-0.137l0.828,0.185l0.56,0.456l-0.138,0.286l-0.145,0.116l-0.338,0.098l-1.734-0.539L267.022,129.492z
		 M299.656,129.992l0.543-0.944l0.853-0.375l0.973,0.158l0.916,0.661h-0.62l-0.43,0.176l-0.691,0.673l-0.212,0.152l-0.374-0.098
		l-0.24-0.17l-0.261-0.036l-0.458,0.304V129.992z M273.556,126.992l3.862-0.036l0.871,0.536l0.021,0.319l-0.063,0.071l-0.106-0.003
		l-0.116,0.066l-3.158-0.098l-1.462,0.361l-0.116,1.284l-1.269,0.062l-0.388-0.348l-0.148-0.986l0.219-0.84l0.536-0.337
		L273.556,126.992z M279.769,126.992l1.1-1.383l1.818-0.409l3.662,0.251v0.498h-0.617l-0.969,0.614l-1.212,0.516l-1.244,0.075
		l-1.061-0.704l-0.395,0.566l-0.381,0.292l-0.367-0.006L279.769,126.992z M288.988,125.948l-0.835-0.602l0.19-0.465l0.772-0.289
		l0.906-0.104l0.712,0.069l0.645,0.206l1.152,0.707l-0.412-0.08l-0.465,0.063l-1.822-0.427l-0.779,0.042L288.988,125.948z
		 M440.637,110.853l0.638-1.675l1.568-1.353l1.794-0.591l1.293,0.603l-1.283,3.837l-0.458,0.686l-0.536,0.018l-0.035-0.512
		l0.3-1.285l-0.19-0.854l-0.359-0.009l-0.236,0.626l0.194,1.013l-0.634,0.536l-0.694-0.036l-0.698-0.422L440.637,110.853z
		 M447.255,103.977l0.004-0.174l0.233-0.547l2.943-1.424l0.606-0.589l-0.733,1.04l-2.002,1.844l-0.571,1.189h-0.243L447.255,103.977
		z M336.163,70.688l-0.201,0.091l-0.095,0.225l-0.021,0.334l0.046,0.413l-0.797,0.771l-0.55,0.919l-0.627,0.84l-1.011,0.525
		l-1.882,0.146l-0.892-0.325l-0.479-0.84l0.472-0.255l0.078-0.422l-0.197-0.452l-0.352-0.349l1.371-1.326l1.522-0.701l1.713-0.1
		L336.163,70.688z M435.439,74.042l2.537,4.833l-5.445-0.921l-0.793,0.454l0.194,0.303l0.19,0.133l-1.741,0.115l-1.135-0.191
		l-0.49-0.615l0.085-1.515l-0.201-0.582l-0.62-0.233l-1.135-0.036l-0.465,0.148l-0.324,0.442h-0.321l-0.145-0.546l-0.148-0.309
		l-0.233-0.012l-0.514,0.321l-0.12-1.028l1.212-3.012l1.699-1.667l2.093-0.355l3.693,1.603l1.107,0.956l0.342,0.455L435.439,74.042z
		 M517.189,65.127l-1.061,0.876l-0.25,1.222l-0.042,1.447l-0.416,1.549l-0.317,0.416l-0.613,0.537l-0.261,0.577l-0.155,0.728
		l-0.081,0.746l-0.06,1.58h-0.296v-1.019l0.123-1.714l1.357-4.902l0.292-1.891l0.317-0.523l0.708-0.189l0.599-0.03l0.486,0.082
		l0.268,0.438l-0.007,0.83l-0.025-0.082l-0.123-0.155l-0.173-0.018v1.022h-0.271V65.127z M541.217,80.492l1.152,2.118l0.74,0.974
		l1.061,0.414l-0.578,0.417l-0.564,0.704l-0.43,0.964l-0.169,1.211v1.177l-0.134,0.465l-0.451-0.045l-0.945-0.335h0.508l0.402-0.226
		l0.176-0.498l-0.176-0.791h-0.296l-0.444,0.483l-0.666,0.254l-0.698,0.009l-0.529-0.245V87.04l1.607-0.695l0.666-0.532l0.359-0.846
		l-2.252,0.154l-1.004,0.317l-0.856,0.586l2.389-1.686l0.814-0.342v-0.508l-1.163-0.112l-0.606,0.06l-0.423,0.305l-0.585,0.686
		l-0.367-0.169l-0.335-0.49l-0.49-0.281l-4.314,0.508l-0.775,0.493l-2.291,2.031l-0.483,0.773l-0.504,1.135l-1.061,0.223
		l-0.952,0.501l-0.169,1.982l0.592-0.507l0.01-0.377l-0.092-0.097l-0.12-0.006l-0.07-0.072l2.069-0.362l0.296,0.136l0.317,1.692
		l-0.088,0.778l-0.684,0.335l-1.237-0.196l-1.371-0.488l-1.536-1.013l0.345-0.392l0.233-0.875l0.448-1.135l-0.634,0.38l-0.285,0.296
		l-0.264,0.386l0.173,0.205l0.123,0.254l-0.867-0.081l-0.455,0.093l-0.317,0.265l-0.388,0.205l-0.43-0.293l-0.398-0.431
		l-0.275-0.217l-0.634-0.121l-0.765-0.371l-0.472-0.637l0.243-0.948l-0.631-0.19l-1.325,0.652l-0.433,0.051l-0.296-0.574
		l0.264-0.501l0.578-0.217l0.659,0.278v-0.465l-2.685-2.07l0.596-1.596l0.853-1.316l1.1-0.499l1.322,0.871l0.296-0.508l0.504,0.49
		l0.599-0.109l1.286-0.887l-0.68-0.076l-0.515-0.499l-0.211-0.726l0.201-0.775v-0.466l-0.592-0.057l-0.321-0.36l-0.275-0.403
		l-0.441-0.191l-1.924,0.509l0.751-1.551l0.324-0.4l1.17-0.291l1.307-0.694l0.888-0.164v-0.509l0.053-0.015l0.264-0.149l0.271-0.346
		l-1.202-0.464l-0.525-0.352l-0.342-0.661l0.148-0.176l0.137-0.127l0.074-0.24l-0.039-0.525l-1.276,0.507l-0.775,0.088l-0.342-0.34
		l-0.095-0.237l-0.201-0.058l-0.201-0.173l-0.095-0.574l-0.053-0.647l-0.162-0.389l-0.282-0.17l-0.388,0.003l0.994-0.483
		l3.316-0.492l0.719,0.164l0.233,0.447l0.504,0.203l0.507,0.383l0.233,0.981l0.183,0.531l0.331-0.279l0.162-0.85l-0.356-1.16
		l0.624-0.866l0.789-0.83l0.818-0.626l0.73-0.277l-0.483,1.523l-0.324,0.656l-0.377,0.419l0.275-0.009l0.236,0.046l0.208,0.173
		l0.194,0.346l-0.219,0.355l-0.398,1.081l0.624,0.039l0.5-0.182l0.388-0.471l0.261-0.823l-0.367-0.109l-0.412-0.337l-0.377-0.109
		v-0.51l0.589-0.556l0.483,1l0.765,0.972l0.511,1.02l-0.278,1.129l0.856,1.244l1.078,0.391l2.231-0.058l-0.321-0.558l0.416-0.986
		l0.212-0.31l0.285-0.234v-0.553l-0.338-1.035l-0.236-0.532l-0.338-0.425v-0.51l0.254-0.188l0.141-0.158l0.176-0.128l0.342-0.082
		v-0.459l-0.539,0.03l-0.349,0.322l-0.275,0.398l-0.317,0.264l-0.469,0.082l-1.487-0.082l-0.233-0.237l-0.233-0.529l-0.296-0.529
		l-0.412-0.237l-0.652-0.14l-0.268-0.371l-0.148-0.486l-0.289-0.529l-0.504-0.745l-0.095-0.301l-0.581,0.487l-0.338,0.359
		l-0.698,0.97l-1.015,0.617l-0.737,0.806l-0.782,0.586l-0.867-0.276l-0.151-0.885l0.307-1.377l0.564-1.262l0.61-0.56l0.13-0.317
		l0.187-0.706l0.095-0.697l-0.127-0.32l-1.935,0.506l-0.634,0.444l-0.278-0.082l0.025-0.868L520.981,61l0.458-0.5l0.521-0.378
		l5.942-1.734l1.209-0.018l1.142,0.625v0.463l-0.666,0.536l-0.895,0.518l-0.786,0.694l-0.342,1.06l0.13,1.327l0.37,1.062
		l0.571,0.824l0.729,0.617l1.808,0.617l5.614-1.082l1.928,0.426l1.307,1.453l0.285,1.923l-1.131,1.807l-1.921,1.29l-0.952,0.928
		l-0.405,1.092l0.159,1.252l0.381,1.303l0.486,1.109l0.451,0.66l0.888,0.466l2.051,0.5L541.217,80.492z M308.847,57.968l2.164,4.092
		l0.825,0.463l-0.592,0.511l-1.473,0.536l-1.015-0.931l-0.818-1.492l-0.86-1.176l1.255-2.371l0.775-0.857l0.952-0.351l0.014,0.36
		l-0.067,0.082l-0.123-0.018l-0.12,0.088l-0.479,0.494L308.847,57.968z M316.001,53.272l2.411,0.147l0.983,0.604l0.772,1.343v0.513
		l-0.36,0.604l-0.493,1.439l-0.359,0.512l-0.592,0.192l-0.733-0.088l-0.663-0.256l-0.374-0.314l-1.128,0.43l-1.403-0.433
		l-2.523-1.574l0.853-1.571l0.976-0.952l1.184-0.473L316.001,53.272z M310.059,38.846l-0.254,2.671l1.466,1.394l2.086,0.524
		l9.438-0.478l-1.085,0.864l-5.413-0.303l-0.677,0.368l-1.195,0.94l-0.656,0.19h-2.985l-0.282-0.147l-0.374-0.655l-0.366-0.181
		l-0.416,0.018l-0.282,0.113l-1.311,0.919l-0.222,0.208l-0.116,0.551l-0.063,1.481l-0.127,0.306l0.148,4.103l-0.113,1.338
		l-0.219,1.035l-0.271,0.22l-0.285-1.053l-0.035-1.979l0.5-8.16l0.409-1.6l3.277-9.238L312.459,30l2.062,1.108l-2.643,0.145
		l-0.338,0.372l1.198,0.126l0.356,0.919l-0.384,1.039l-1.762,0.996l-0.818,1.229l-0.451,1.514L310.059,38.846z M321.932,69.273
		l2.788-1.191l0.088,0.808l-0.349,1.828l-1.001,1.594l-1.234,0.71l-0.973-0.018l-0.55-0.492l-0.444-1.077l0.268-1.202l0.782-0.607
		l0.317-0.152L321.932,69.273z M290.302,96.195l-0.215,0.166l-0.063-0.307l-0.18-0.057l-0.137-0.331l-0.194-0.229l-0.261-0.241
		l0.634-0.054l0.264,0.295L290.302,96.195z M290.658,95.315l0.758-0.223l0.155,0.401l-0.684,0.214L290.658,95.315z"/>
</g>
<g id="Copyright">
	<text transform="matrix(1 0 0 1 681.6426 577.5916)" class="st1 st2">© Vemaps.com</text>
</g>
</svg>
