<?xml version="1.0" encoding="utf-8"?>
<!-- Generator: Adobe Illustrator 23.0.1, SVG Export Plug-In . SVG Version: 6.00 Build 0)  -->
<svg version="1.1" xmlns="http://www.w3.org/2000/svg" xmlns:xlink="http://www.w3.org/1999/xlink" x="0px" y="0px"
	 viewBox="0 0 800 600" style="enable-background:new 0 0 800 600;" xml:space="preserve">
<style type="text/css">
	.st0{fill:#808080;}
	.st1{font-family:'Roboto-Regular';}
	.st2{font-size:14px;}
</style>
<g id="Dominica">
	<path class="st0" d="M407.501,570l-13.531-3.76l-2.451-10.009l4.02-30.435l-0.588-36.486l0.588-5.336l-6.619-14.179l-15.247-17.789
		l-2.746-14.995l-2.157-30.957l-5.491-22.572l-17.061-36.76l-2.353-8.848l-2.893-22.883l-3.775-10.985l-27.7-27.616l-4.412-10.376
		l-2.304-11.902l-5.393-12.717l-6.962-10.072l-6.668-4.07l-7.844-6.562l-2.647-15.109l-1.128-30.374l-5.001-9.617l-6.619-6.106
		l-4.903-6.717l0.049-11.704l5.883-8.142l20.15-14.25l6.177-12.52l-8.335-1.629l-14.61-5.344l-9.266-0.865l9.952-14.71L279.639,30
		l23.827,0.967l14.414,0.56l13.629,5.193l14.708,11.149l19.464,28.71l15.59,10.333l17.944-9.467l14.953-2.952l59.813,23.821
		l2.157,8.5l7.648,19.085l11.963,20.305l6.717,11.958l18.581,26.866l1.765,2.646l11.423,44.007l2.01,45.83l-8.335,35.041
		l5.491,1.983l5.001,4.17l5.981,2.39l-7.55,45.611l1.765,39.859l0.392,9.964l-3.53,49.152l-24.759,43.858l-8.678,6.758l-5.883,1.525
		l-4.706-0.356l-12.257,1.626l-10.247-2.439l-7.599,1.423l-6.521,5.996l-6.177,16.26l-16.816,7.367l-3.922,9.145l-0.539,0.813
		l-5.246,8.18L407.501,570z"/>
</g>
<g id="Copyright">
	<text transform="matrix(1 0 0 1 681.6426 577.5916)" class="st1 st2">© Vemaps.com</text>
</g>
</svg>
