<?xml version="1.0" encoding="utf-8"?>
<!-- Generator: Adobe Illustrator 23.0.1, SVG Export Plug-In . SVG Version: 6.00 Build 0)  -->
<svg version="1.1" xmlns="http://www.w3.org/2000/svg" xmlns:xlink="http://www.w3.org/1999/xlink" x="0px" y="0px"
	 viewBox="0 0 800 600" style="enable-background:new 0 0 800 600;" xml:space="preserve">
<style type="text/css">
	.st0{fill:#808080;}
	.st1{font-family:'Roboto-Regular';}
	.st2{font-size:14px;}
</style>
<g id="Ecuador">
	<path class="st0" d="M611.218,162.838l2.589,1.773l0.925,1.29l1.301,1.05l0.453,0.745l0.434,0.975l0.664,0.889l0.865,0.672
		l1.032,0.319l0.693-0.114l0.619-0.196l0.414,0.123l0.075,0.848l0.169,0.456l0.923,0.975l0.248,0.711l0.637-0.365l0.662-0.055
		l2.442,0.561l0.312,0.243l0.494,0.385l4.149,4.612l1.04,0.793l0.844,0.41l2.621,0.706l0.902,0.479l5.738,4.339l1.855,0.902
		l3.126,0.114l2.998,1.13l0.479,0.009l0.226-0.118l0.212,0.027l0.428,0.451l0.157,0.449l-0.014,0.49l0.091,0.476l0.467,0.399
		l1.027,0.397l0.941,0.212l0.893,0.016l0.886-0.182l3.515-1.335l1.089,0.009l1.317,1.034l0.287,3.172l0.936,1.385l2.898,2.001
		l1.609,0.638l1.288-0.18l0.211-0.03l1.82,0.456l0.595,2.137l0.283,4.634l0.399,1.481l0.194,1.317l0.456,1.126l1.187,0.911
		l1.54,0.565l4.691,0.952l0.832,0.301l0.649,0.333l0.688,0.205l0.959-0.055l2.221-0.834l0.766-0.141l0.599,0.15l0.926,0.232
		l1.686,1.905l1.31,0.442l1.763,0.032l0.549,0.091l0.731,0.255l0.449,0.319l0.962,0.971l0.752,0.551l0.633,0.228l0.668,0.027
		l3.062-0.46l0.556,0.055l1.572,0.706l0.672-0.018l-0.112-1.754l0.544-0.205l1.524,0.415l2.148,0.237l0.633,0.187l0.697,0.487
		l1.178,1.098l0.834,0.287l0.645-0.082l1.141-0.588l4.374-0.506l0.779-0.519l-0.456-2.925l0.109-3.285l-0.023-0.287l0.417,0.077
		l0.952-0.059l0.469-0.091l0.41-0.15l1.096-1.308l0.246-0.223l0.23-0.137l0.8-0.606l0.49-0.137l0.44,0.196l1.217,1.285l0.847,0.556
		l0.88,0.383l0.955,0.219l1.08,0.073l0.959-0.05l0.492,0.037l0.369,0.164l0.264,0.469l0.248,1.167l0.226,0.346l0.804-0.041
		l1.116-0.355l0.993-0.123l0.424,0.661l0.191,0.524l2.955,3.737l0.219,0.556l0.201,0.848l0.485,0.711l1.096,1.012l2.679,1.654
		l0.369,0.606l1.768,1.308l1.242,0.693l0.727,0.292l0.854,0.21l0.98,0.082l1.014-0.096l1.901-0.433l0.83-0.1l0.877,0.287
		l0.697,0.629l0.56,0.629l0.453,0.287l0.786,0.26l2.073,1.85l2.565,1.577l1.059,0.369l0.859,0.62l2.468,0.469l2.799,1.025
		l0.815,0.483l-0.523,0.674l-0.997,0.706l-0.564,0.278l-0.587,0.196l-0.704,0.036l-1.508-0.214l-0.368,0.032l-1.187,0.788
		l-1.136-0.109l-3.108-1.672l-0.596-0.141l-0.619-0.009l-0.788,0.082l-0.688-0.132l-0.804-0.324l-0.793-0.21l-0.644,0.214
		l-0.247,0.766l0.212,0.975l0.431,0.861l0.4,0.46l0.416,0.091l0.944-0.073l0.43,0.059l0.535,0.324l0.923,0.87l0.546,0.278
		l0.942,0.31l0.704,0.442l0.503,0.643l1.413,4.981l0.816,1.868l1.261,1.736l0.821,0.775l0.5,0.31l0.452,0.077l0.543-0.046
		l0.252,0.141l0.18,0.26l1.719,1.335l0.188,0.205l0.228,0.506l0.171,0.21l0.223,0.046l0.413-0.214l0.198,0.068l0.5,0.784
		l0.162,0.816l-0.137,1.732l0.036,0.364l0.102,0.319l0.062,0.333l-0.091,0.392l-0.396,0.419l-0.534,0.273l-0.471,0.314l-0.2,0.524
		l0.045,0.433l0.189,0.811l0.023,0.447l-0.093,0.451l-0.28,0.793l-0.018,0.551l1.958,6.653l0.014,0.396l-0.071,0.761l0.081,0.41
		l0.341,0.501l0.423,0.369l0.32,0.438l0.01,0.296l-0.394,0.027h-2.085l-1.872,0.223l-1.005-0.023l-0.435-0.355l-0.256-0.442
		l-0.602-0.693l-1.25-1.148l-0.272,0.387l-0.558,2.178l-1.324,5.195l-1.324,5.2l-1.324,5.201l-1.324,5.196l-0.648,2.548
		l-0.573,1.531l-0.34,0.411l-0.697,0.843l-2.422,2.247l-1.775,2.07l-2.2,2.562l-2.201,2.567l-2.204,2.567l-2.201,2.567l-2.201,2.567
		l-2.203,2.567l-2.201,2.562l-2.203,2.567l-2.629,2.015l-2.629,2.016l-2.634,2.011l-2.629,2.016l-2.634,2.02l-2.629,2.011
		l-2.632,2.016l-2.631,2.016l-2.497,1.916l-1.957,1.188l-0.658,0.399l-4.06,1.419l-5.545,1.943l-5.543,1.939l-5.548,1.939
		l-5.543,1.943l-5.543,1.939l-5.543,1.944l-5.545,1.939l-5.543,1.939l-1.219,0.426l-1.704,0.596l-0.829,0.424l-3.247,2.838
		l-4.456,5.978l-2.13,1.771l-0.62,0.68l-1.362,2.615l-0.544,0.785l-1.606,1.196l-0.521,0.625l-0.005,0.968l0.509,0.803l0.695,0.493
		l0.554,0.634l0.093,1.214l-0.406,0.904l-0.679,0.288l-0.781,0.169l-0.698,0.571l-0.6,0.288l-0.422-0.803l-0.609-2.84l-0.33-0.662
		l-0.551-0.443l-1.91-0.534l-0.924-0.128l-0.742,0.224l-0.482,0.835l0.041,0.283l0.269,0.867l-0.026,0.484l-0.337,1.908l-0.57,1.794
		l-0.061,0.192l-0.812,1.771l-0.296,0.909l-0.103,0.858l0.021,1.589l0.183,0.9l-0.029,0.429l-0.336,0.256l-0.562,0.096l-0.21,0.073
		l-0.025,0.228l0.002,0.557l0.564,2.854l-0.269,0.849l-1.075,1.05l-0.35,0.224l-0.543,0.256l-0.267,0.201l-0.455,0.854l-0.316,0.845
		l-0.435,3.27l0.003,0.306l-0.182,0.183l-0.615,0.338l-0.57,0.178l-0.534,0.041l-0.491,0.128l-0.449,0.466l-0.213,0.726l0.043,2.631
		l-0.472,1.96l-2.687,5.629l-0.42,1.933l-0.38,0.864l-0.811,0.676l-0.366,0.928l0.054,1.659l0.355,1.641l0.536,0.846l1.048,0.64
		l-0.119,0.713l-0.681,0.836l-0.637,1.028l-0.114,0.814l0.041,0.882l-0.054,0.85l-0.398,0.713l-1.202,0.796l-0.475,0.315
		l-4.037,1.614l-1.842,1.042l-2.01,1.856l-0.825,1.138l-0.497,1.216l0.032,1.212l0.995,1.989l0.226,1.056l-0.467,0.878l-1.021,0.229
		l-1.16,0.009l-0.885,0.224l-0.47,0.727l-0.489,2.156l-0.317,0.929l-1.138,1.212l-1.271,1.057l-0.817-0.81l-0.482-0.352
		l-0.475-0.224l-0.457-0.055l-0.712,0.178l-0.449,0.018l-0.77-0.174l-1.474-0.517l-0.775-0.128l-1.074,0.039l-2.054,0.075
		l-1.012-0.27l-0.615-0.746l-0.47-0.935l-0.582-0.842l-0.388-0.256l-0.86-0.325l-0.384-0.279l-0.236-0.38l-0.287-0.873l-0.238-0.393
		l-0.766-0.567l-0.909-0.48l-0.761-0.608l-0.317-0.937l-0.135-0.821l-0.009-0.057l-1.154-2.176l-0.507-2.624l-1.285-1.884
		l0.03-0.951l1.016-1.81l0.11-0.649l-0.246-0.416l-0.896-0.526l-1.062,0.009l-0.271-0.146l-0.629-0.466l-0.344-0.165l-2.226-2.203
		l-1.219-0.608l-1.594,0.215l-1.52,0.905l-2.961,0.914l-1.637-0.256l-1.096-1.134l-0.926-1.385l-1.117-1.033l-1.157-0.292
		l-1.132-0.014l-1.146-0.137l-1.194-0.654l-0.89-0.626l-1.426-1.558l-0.795-0.681l-0.759-0.274l-0.898-0.164l-0.734-0.228
		l-0.281-0.48l-0.125,0.046l-1.797,0.233l-0.482,0.164l-0.453,0.224l-0.37,0.297l-0.375,0.621l-0.452,1.549l-0.329,0.699
		l-0.694,0.75l-3.39,2.605l-1.806,0.969l-0.424,0.384l-0.348,0.032l-0.783,0.023l-0.732-0.265l-1.978-1.124l-0.598-0.535
		l-0.386-0.928l0.165-0.754l5.83-7.755l0.487-0.978l-2.035,0.251l-1.909,0.566l-1.538-0.164l-0.933-1.956l0.003-0.411l0.17-0.841
		l-0.015-0.416l-0.239-0.566l-0.726-1.001l-0.221-0.548l0.079-0.813l0.003-0.037l0.38-1.11l0.511-1.069l0.481-0.713l0.658-0.47
		l0.813-0.237l0.892-0.064l0.898,0.05l0.91,0.288l1.86,1l0.827,0.169l0.921-0.452l0.742-0.918l0.64-1.023l0.627-0.777l3.436-1.58
		l0.701-0.79l0.008-0.413l0.001-0.053l-0.267-0.26l-0.395-0.256l-0.384-0.448l-0.118-0.379v-0.818l-0.056-0.397l-0.39-0.891
		l-0.885-1.416l-0.206-0.891l0.082-0.338l0.188-0.306l0.147-0.342l-0.044-0.434l-0.27-0.827l-0.042-0.342v-0.443l0.073-0.388
		l0.287-0.858l0.07-0.438l-0.052-0.484l-0.253-0.845l-0.007-0.493l-0.12-0.415l-0.383-0.178l-0.435-0.142l-0.284-0.306l0.003-0.342
		l0.343-1.192l0.082-0.845l-0.001-0.434l-0.105-0.393l-0.283-0.32l-0.727-0.301l-0.268-0.247l-0.099-0.922l0.269-0.918l0.094-0.771
		l-0.621-0.479l-1.67-0.443l-0.718-0.374l-0.301-0.157l-0.095-0.317l-0.054-0.331l0.135-0.453l0.592-0.356l0.273-0.521l0.219-0.618
		l0.423-0.618l-0.447,1.24l-0.156,0.298l0.275,0.906l0.529-0.41l0.248-1.387l0.452-0.647l1.206,1.208l0.599-0.252l3.19-0.654
		l0.549,0.054l0.362,0.09l0.323,0.018l0.423-0.162l1.005-1.186l0.199-0.172l1.667-3.472l0.466-0.625l0.987,0.187l0.204,1.053
		l-0.312,2.109l0.474-0.28l0.292-0.428l0.249-0.492l0.352-0.478l0.402-0.32l1.403-0.884l0.653-0.758l0.429-0.923l0.242-0.995
		l0.205-1.703l0.718-1.595l1.484-2.375l0.377-0.884l-0.44-0.769l0.16-0.999l0.581-1.724l0.097-0.776l1.378-4.501l0.931-1.67
		l0.101-0.291l0.432-0.945l0.163-1.027l0.936-2.572l0.506-0.758l1.322-1.354l0.377-0.783l0.059-1.063l-0.283-1.972l-0.596-1.541
		l-0.143-0.244l-0.965,0.057l-0.499-0.043l-0.355-0.172l-0.533-0.815l-0.85-2.367l-0.551-0.869l-0.267-0.539l-0.081-0.625
		l0.038-2.571l-0.296-2.054l-0.018-0.575l0.271-0.969l0.07-0.596l-0.205-0.266l-0.072-0.18l-0.56-0.754l-0.136-0.122l-0.066-0.302
		l-0.131-0.223l-0.101-0.302l0.027-0.531l0.221-0.485l0.291-0.377l0.102-0.398l-0.343-0.542l0.682-0.718l0.696-0.205l0.542-0.32
		l0.215-1.034l0.334-0.495l0.728-0.33l0.728-0.488l0.319-0.955l-2.616,1.486l-0.283,0.215l-0.115,0.388l-0.027,0.779l-0.323,0.14
		l-1.43,0.097l-0.325,0.37l-0.075,0.345l-0.377,1.074l-0.375,1.766l-0.061,1.275l0.269,1.278l1.342,2.338l0.1,1.339l-0.685,8.593
		l-0.466,1.792l-0.307,0.481l-1.207,1.347l-0.429,0.28l-0.711,0.216l-1.528,0.884l-0.635,0.133l-0.443-0.219l-0.258-0.593
		l-0.352-0.119l-0.944,0.104l-0.316-0.108l-0.561-0.431l-0.235-0.725l0.59-0.69l1.315-0.887l0.402-0.927l0.197-0.664l0.456-0.391
		l1.188-0.129l0.28,0.183l0.264,0.377l0.334,0.341l0.493,0.029l0.422-0.251l0.199-0.374l-0.032-0.453l-0.262-0.481l-0.197,0.927
		l-0.596-0.194l-1.04-1.009l-0.967,0.111l-0.881,0.449l-0.639,0.197l-0.247-0.618l0.185-0.97l0.829-1.885l0.188-1.059l0.165-0.546
		l0.398-0.215l0.502-0.097l0.467-0.19l0.334-0.345l0.897-1.429l-0.405,0.108l-0.226,0.137l-0.463,0.481l-0.366,0.151l-0.893-0.072
		l-0.409,0.043l-0.499,0.341l-0.391,0.539l-1.903,4.913l-3.008,4.22l-1.36,1.473l-1.432,0.621l-0.33,0.578l-0.33,0.413l-0.407,0.241
		l-0.422-0.007l-0.23-0.18l-0.165-0.273l-0.223-0.294l-0.646-0.287l-0.423,0.33l-0.154,0.729l0.154,0.887l0.169,0.129l1.202,1.225
		l0.154,0.366l0.034,0.499l-0.052,0.955l-0.443,0.402l-1.012-0.137l-1.857-0.729l-1.862-1.584l-0.649-0.366l-0.57-0.56l-0.258-0.201
		l-0.276-0.079l-0.786-0.108l-0.414-0.115l-1.679-1.077l-4.682-5.52l-3.64-3.401l-1.42-0.463l-1.287-0.62l-1.431,0.049l-2.334-0.776
		l-0.813-0.37l-1.853-1.637l-0.972-0.37l-0.694,0.007l-0.526-0.1l-0.334-0.399l-0.26-1.49l-0.339-0.664l-0.721-1.031l-0.61-0.628
		l-1.634-1.311l-0.181-0.284l-0.208-0.463l-0.093-0.431l0.169-0.194l0.352,0.086l0.161,0.187l0.093,0.208l0.147,0.122l1.121,0.269
		l0.529,0.032l0.235,0.14l0.222,0.753l0.574,0.62l1.1-0.047l1.577-0.572l2.245-1.81l1.718-0.857l1.575-1.762l0.332-2.621
		l-0.622-1.336l-0.351-1.375l-0.133-0.359l0.196-0.46l0.477-0.095l0.62-0.333l0.131-1.076l-0.124-1.12l-1.215-4.695l-0.664-1.856
		l-0.287-0.815l-0.388-0.678l-0.416-0.506l-0.524-0.818l-1.037-2.559l-0.606-0.783l-0.201-0.567l-0.066-0.646l0.178-0.503
		l1.546-1.088l-0.19-1.03l0.011-1.278l0.398-0.367l0.524-0.477l0.54-0.137l0.728,0.005l0.191-0.571l-0.022-0.63l0.094-0.859
		l0.226-0.762l-0.199-1.013l0.188-0.63l0.765-0.372l-0.07-1.076l-1.313-1.818l-2.625-3.145l-2.141-3.769l-0.93-2.248l-0.57-1.29
		l0.29-0.909l0.532-0.531l0.618-0.523l0.573-0.621l0.337-0.431l0.334-0.429l0.57-0.618l0.525-0.62l0.144-0.382l0.477-0.191
		l0.621,0.189l0.62-0.001l0.62-0.382l0.572-0.238l0.668,0.142l0.524-0.191l0.524-0.191l-0.094,0.386l0.81,0.381l0.667,0.047
		l0.525-0.455l0.333-0.143l0.333-0.428l0.476-0.143l0.429,0.619l0.381,0.095l0.81,0.095l1.095-0.429l0.952-0.857l1-1.047
		l0.634-2.744l0.167-0.861l0.579-2.85l0.809-2.189l0.999-1.998l0.548-1.287l0.214-0.238l0.381-0.286l0.619-0.095l0.57-0.19
		l0.095,1.143l0.618,0.905l1.191,0.522l1.143,0.143l2.375,0.049l0-0.524l-1.232-0.335l-1.333-0.286l-0.905,0l-0.619-0.476
		l-0.476-1.238l-0.574-1.043l-0.618-0.238l-0.333-0.477l-0.048-1.046l-0.474-1.241l-0.136-1.276l-0.625-1.392l-0.809-0.951
		l-0.523-1.861l0.477-0.624l0.904-0.087l1.43-1.149l1.378-2.084l0.446-0.775l0.113-0.596l0.392-0.962l0.381-0.714l0.951-0.334
		l0.572-0.904l0.573-0.952l0.809,0.714l0.954-0.476l1.048-0.809l1.239-0.905l2.624-2.858l2.094-2.701l0.746-0.911l0.312-0.876
		l0.09-0.542l0.219-0.187l0.289-0.095l0.917-0.291l0.666-1.666l0.38-1.476l0.253-2.315l-0.063-1.06l-0.344-1.878l-0.101-3.337
		l0.402-1.164l0.014-0.38l0.111-0.165l0.477,0.23l0.203,0.219l0.167,0.325l0.205,0.662h0.328l0.066-0.553l0.452-0.863l0.111-0.389
		l-0.104-0.558l-0.257-0.387l-0.597-0.587l-1.048-1.717l-0.314-0.872l-0.117-0.888l0.126-0.976l0.305-0.506l0.391-0.416l0.382-0.701
		l0.086-0.92l-0.239-0.893l-0.316-0.77l-0.301-1.261l-0.398-0.526l-0.619-0.332l-0.797-0.115l-0.565-0.215l-0.391-0.531
		l-0.255-0.682l-0.145-0.678l-0.016-1.898l0.5-1.862l0.945-1.579l1.306-1.037l0.753,0.38l0.646,0.077l1.462-0.129l0.657-0.188
		l0.866-0.807l0.597-0.183l0.63-0.1l1.105-0.432l1.397-0.237l0.831-0.624l0.553-0.14l0.326-0.163l1.342-1.066l0.318-0.334
		l0.565-0.822l0.323-0.323l1.049-0.477l2.639-0.836l1.155-0.824l0.237,0.452l0.018,0.404l-0.886,2.759l0.204,0.659l0.366,0.386
		l0.463,0.319l0.499,0.468l0.592,1.197l0.31,0.337l-0.721-1.977l-0.569-0.483l-0.185-0.28l0.002-0.246l0.226-0.405l0.043-0.251
		l-0.066-1.105l0.099-0.84l0.386-0.619l0.786-0.443l1.9,0.545l2.085-1.179l2.996-2.734l0.947-0.246l3.104,0.246l0.384-0.092
		l1.005-0.395l0.431-0.09l1.206,0.021l0.556-0.092l0.495-0.258l1.06,0.56l1.249-0.174l1.265-0.438l1.119-0.249l0.813-0.431
		l3.328-4.409l0.644-0.352l1.087,0.373l0.861,0.718l0.554,0.903l0.296,1.077l0.091,1.243l0.843-0.447l0.459-0.655l0.194-0.825
		l0.14-1.938l0.273-0.506l0.391-0.404l0.466-0.669l0.145,0.377l0.258,0.174l0.357-0.027l0.441-0.223l0.398-0.373l0.063-0.312
		l-0.02-0.346l0.161-0.474l0.719-0.816l0.734-0.118l1.86,0.633l-0.321-0.637l-0.789-0.208l-0.922-0.093l-0.707-0.294l-0.307-0.619
		l0.152-0.581l0.388-0.515l1.647-1.64l0.255-0.585l-0.02-0.667l-0.156-0.599L611.218,162.838z M556.936,343.522l2,0.065l3.03,1.871
		l1.894,0.478l-0.07,0.341l-0.124,0.316l-0.178,0.287l-0.231,0.262l-0.492,0.413l-2.217,0.956l-0.14,0.388l-0.621,0.593
		l-0.142,0.237l-0.267,0.679l-0.362,0.679l-0.366,0.384l-0.093,0.007l-0.468,0.803l-0.529,1.06l-0.556,1.007l-0.291,0.715
		l-0.715,0.292l-0.583,0.663l0.027,1.033l-0.672,0.632l-0.269,0.636l-0.702,1.013l-1.578-0.158l-0.879,0.514l-0.748,0.226
		l-1.075-0.086l-1.035-0.27l-0.633-0.334l-0.261-0.975l0.267-1.565l0.158-5.302l0.156-0.597l1.485-2.737l0.63-1.785l0.63-0.453
		l2.682-0.78l2.411-1.196L556.936,343.522z M133.622,285.17l1.173,0.384l0.886,0.937l0.057,0.955l-1.324,0.438l-1.446-0.179
		l-3.563-1.629l0.904-0.905l0.693,0.136l2.072-0.029L133.622,285.17z M101.904,281.395l0.095,0.122l0.206,0.14l0.213,0.197
		l0.117,0.309l-0.03,0.301l-0.108,0.172l-0.109,0.122l-0.054,0.144l-0.118,0.165l-0.578,0.165l-0.208,0.104l-0.047,0.194
		l0.083,0.535l-0.036,0.201l-0.248,0.276l-1.446,0.886l-0.287,0.065l-1.613-0.237l-0.63-0.459l-0.603-0.589l-0.92-0.546l0.407-0.456
		l0.379-0.581l0.28-0.628l0.292-1.332l0.431-0.693l0.509-0.244l0.413,0.624l0.875-0.23l1.206,0.241l1.069,0.499L101.904,281.395z
		 M149.194,256.311l0.549,0.344l0.576-0.007l0.579-0.223l0.54-0.294l0.106,1.658l-0.811,1.798l-1.275,1.59l-1.304,1.034l-1.57,0.456
		l-0.237,0.28l-0.084,0.413l-0.518,1.285l-0.893,1.342l-0.592,0.632l-0.648,0.438l-0.687,0.219l-0.673,0.075l-1.502-0.021
		l-0.457,0.143l-0.915,0.642l-0.61,0.147l-0.429-0.129l-0.953-0.603l-0.425-0.201l-1.572-0.23l-0.386-0.194l-0.065-0.406
		l0.278-0.474l0.538-0.657l0.366-0.352l1.755-0.832l0.59-0.467l0.465-1.507l0.457-0.05l1.834-0.445l0.517-0.502l0.669-1.414
		l0.396-0.509l1.164-1.098l0.246-0.373l0.344-0.28l1.589-0.581l0.474-0.47l0.673-0.032l1.365-0.359L149.194,256.311z
		 M110.225,249.813l0.504,0.452l-0.108,1.037l-0.562,1.848l0.021,0.52l0.248,0.642l0.061,0.495l-0.104,0.126l-0.38,0.969l0.018,0.23
		l-0.739,0.294l-0.533,0.689l-0.465,0.811l-0.536,0.646l-0.404,0.284l-0.231,0.075l-2.155-0.054l-0.219,0.147l-0.231,0.868
		l-0.583,0.445l-0.782,0.129l-0.811-0.065l-1.503-0.517l-0.951-0.187l-0.294-0.215l-0.21-0.215l-0.231-0.093l-0.33-0.298
		l-0.94-1.378l-0.384-0.434l-0.644,0.072l-0.823-0.194l-0.77-0.359l-0.474-0.452l-0.075-0.56l0.075-2.146l0.258-1.148l0.49-1.069
		l0.639-0.933l0.692-0.739l0.427-0.287l1.197-0.513l0.511-0.129l0.481,0.018l0.994,0.24l0.334,0.043l0.416-0.118l0.502-0.334
		l0.284-0.126l4.18-0.474l0.965-0.481l0.244,0.093l0.262,0.151l0.244,0.187l0.183,0.197l0.097,0.431l-0.041,0.506l0.043,0.42
		l0.335,0.176l0.45,0.04l0.867,0.194L110.225,249.813z M56.915,246.049l-0.431,0.244l-3.05,1.227l-0.766,0.161l-0.447,0.021
		l-0.414-0.14l-0.936-0.624l-0.816-0.208l-1.32-0.531l-0.208-0.029l-0.463,0.057l-0.204-0.029l-0.215-0.154l-0.007-0.14l0.032-0.151
		l-0.111-0.187l-0.757-0.793l-0.579-0.901l-0.366-0.99l-0.296-2.024l-0.56-1.661l0.124-0.556l3.862,0.1l1.638-0.836l2.05-0.47
		l1.019-0.366l0.3,0.05l0.517,0.316l1.534,1.564l0.409,0.244l0.533,0.409l0.118,0.933l-0.188,1.668V246.049z M93.778,238.644
		l0.596,0.344l-0.294,0.797l-0.929,1.421l-0.332,0.911l-0.798,0.269l-0.997-0.129l-1.886-0.57H86.06l-0.852-0.269l-0.784-0.492
		l-0.825-0.266l-0.985,0.395l-0.612-0.746l-0.287-1.13l-0.456-0.944l-1.11-0.194l1.873-2.583l0.113-0.588l-0.264-0.782l0.364-0.768
		l0.725-0.567l0.829-0.158l0.319,0.233l0.131-0.018l0.181-0.215l0.868,0.621l3.008,1.015l1.075,0.172l1.432,0.553l2.295,2.576
		l1.254,0.811l-0.188,0.043l-0.117,0.061L93.778,238.644z M82.913,258.296l0.411,0.215h0.271l0.149,0.151l0.045,0.664l-0.219,0.262
		l-1.064,0.434l-0.371,0.215l-1.383,4.32l0.172,1.08l-0.091,0.807l-0.954-0.294l-0.513,0.736l-1.13,1.267l-0.491,0.711l-0.746-0.344
		l-0.728-0.072l-1.399,0.115l-0.845,0.23l-1.415,1.041l-5.054,1.672l-0.979-0.237l-0.68,0.208l-3.961-0.56l-4.959,0.072
		l-0.929-0.294l-0.664-0.632l-0.19-0.463l-0.079-0.474l-0.002-1.034l-0.167-0.499l-0.405-0.126l-0.509-0.004l-0.479-0.136
		l-1.098-1.73l0.4-2.009l1.205-1.888l1.324-1.299l5.145-3.337l0.233-0.359v-0.294l0.151-0.204l0.685-0.075l1.119-0.463l1.532-0.406
		l0.52-0.007l0.484,0.133l0.278,0.19l0.192,0.176l0.226,0.133l0.764,0.258l0.475,0.036l0.454-0.172l0.226-0.266l0.423-0.657
		l0.242-0.133l0.011-0.466l0.396-0.919l0.615-0.682l0.658,0.262l0.526-0.728l0.032-0.66l-0.328-0.574l-0.556-0.474l-0.589-0.276
		l-1.299-0.388l-0.522-0.237l-1.044-0.958l-1.046-1.406l-0.838-1.579l-0.411-1.478l0.066-1.274l-0.131-0.452l-0.536-0.409
		l-0.35-0.111l-0.578-0.061l-0.278-0.129l-0.156-0.19l-0.42-0.71l-2.677-1.428l-1.015-1.116l0.054-1.399l-0.879-0.52l-0.563-0.969
		l0.086-0.904l1.055-0.316l-0.802-1.141l-0.307-0.653l-0.122-0.761v-1.521l-0.045-0.388l-0.185-0.712l-0.043-0.42l-0.38-1.466
		l-0.979-0.728l-1.362-0.043l-1.523,0.581l-1.523,1.044l-0.775,0.169l-0.874-0.461l-0.902-1.195l-0.138-0.307l0.095-0.384
		l0.248-0.192l0.336-0.135l2.98-1.654l0.841-0.872l0.316-1.762l1.091,0.348l0.874-0.244l0.838-0.44l1.439-0.387l0.301-0.355
		l0.262-0.411l0.341-0.316l0.522-0.158l0.818,0.032l0.465-0.172l0.707,0.639l0.335,1.015l0.16,0.942l0.169,0.411l0.585,0.427
		l0.52,1.884l0.386,0.427l0.275,0.187l0.624,0.831l0.307,0.188l0.945,0.039l0.441,0.093l0.294,0.169l0.312,0.775l0.068,1.082
		l-0.104,2.054l0.814,4.923l0.484,0.768l1.835,1.665l0.172,0.201l0.038,0.255l-0.007,0.513l0.142,0.502l0.31,0.208l0.309,0.072
		l0.144,0.129l4.489,2.835l0.326,0.488l0.104,0.409l0.251,0.359l0.578,0.603l0.197,0.126l0.703,0.176l0.014,0.258l-0.111,0.266
		l-0.126,0.222l-0.052,0.129l0.393,1.679l0.183,1.823l-0.258,0.832l-1.189,1.019l-0.357,0.696l0.983-0.646l0.291,0.38l0.031,0.825
		l0.199,0.671l1.866,0.344l0.915,0.477l-0.072,0.987l0.617,0.083l0.511,0.237l0.409,0.388l0.296,0.524l-0.301,0.599l0.592,0.248
		L82.913,258.296z M96.036,213.582l-0.429-0.158l-0.423-0.362l-0.341-0.402l-0.163-0.283l0.099-1.001l0.698-0.737l0.971-0.474
		l0.944-0.196l0.997,0.319l1.058,0.511l0.857,0.694l0.398,0.883l-0.291,0.642l-0.775,0.714l-0.99,0.56l-0.929,0.19l-0.529-0.176
		l-0.58-0.599L96.036,213.582z M83.516,197.268l1.798,1.01l0.551,1.993l-0.709,1.397l-1.97-0.789l0.312-0.933L83.2,198.06
		L83.516,197.268z M607.999,165.49l0.007,0.42l0.061,0.294l0.208,0.52l0.043,1.479l-0.214,1.818l-0.583,1.154l-1.053-0.51
		l-0.422,0.495l-0.483,0.409l-0.893-0.682l-0.658-0.729l-0.147-0.816l0.646-0.949L607.999,165.49z M38.484,164.95l0.203,0.075
		l0.16,0.332l-0.079,0.212l-0.221,0.19l-0.215-0.131l-0.118-0.264l-0.002-0.251L38.484,164.95z M38.358,164.595l0.197-0.013
		l-0.129,0.151L38.358,164.595z M30,152.944l0.242-0.253l0.276,0.194v0.388l-0.301,0.07L30,152.944z M567.528,335.717l0.469,1.137
		l1.071,0.401l0.536,0.936l-0.936,1.406l-1.539,0.804l-0.2,1.941l-1.07,0.669l-0.87-0.067l-0.201-1.004l0.602-1.673l0.936-2.409
		L567.528,335.717z"/>
</g>
<g id="Copyright">
	<text transform="matrix(1 0 0 1 681.6426 577.5916)" class="st1 st2">© Vemaps.com</text>
</g>
</svg>
