<?xml version="1.0" encoding="utf-8"?>
<!-- Generator: Adobe Illustrator 23.0.1, SVG Export Plug-In . SVG Version: 6.00 Build 0)  -->
<svg version="1.1" xmlns="http://www.w3.org/2000/svg" xmlns:xlink="http://www.w3.org/1999/xlink" x="0px" y="0px"
	 viewBox="0 0 800 600" style="enable-background:new 0 0 800 600;" xml:space="preserve">
<style type="text/css">
	.st0{fill:#808080;}
	.st1{font-family:'Roboto-Regular';}
	.st2{font-size:14px;}
</style>
<g id="Greece">
	<path class="st0" d="M218.861,103.207l8.964-0.367l4.327-1.31l1.59,0.088l2.243,0.473l0.924,0.195l2.1-0.004l2.069-0.438
		l0.953-0.546l2.22-2.215l1.445-0.655l1.495-0.029l4.658,0.652l0.231,0.032l2.693,2.428l1.703,0.334l0.536-0.354l1.426-1.423
		l0.612-0.492l0.353-0.054l0.877,0.05l0.303-0.108l0.233-0.451l0.132-1.043l0.126-0.317l1.722-0.789l3.167,0.714l1.226-0.271
		l0.515-0.114l0.77-0.793l0.221-0.919l0.006-0.873l0.113-0.668l0.606-0.76l2.296-1.613l0.006-0.012l0.006-0.004l0.826-1.509
		l2.176-2.107l0.833-1.246l0.114-0.615l0.01-0.266l0.053-1.341l0.246-0.77l0.479-0.544l1.005-0.75l0.559-0.418l1.855-1.009
		l3.905-1.152l0.29-0.218l0.625-0.704l0.252-0.155l0.448,0.159l0.189,0.389l0.101,0.41l0.151,0.23l2.025,1.097l0.454,0.172
		l1.281-0.46l2.195-2.002l1.394-0.649l1.381-0.122l0.478,0.059l0.702,0.087l2.309,0.741l1.861,0.239l0.561,0.163l0.158,0.314
		l0.088,1.068l0.126,0.281l0.385,0.046l0.511-0.331l1.154-0.038l1.546-0.276l0.763,0.054l0.555,0.272l1.293,0.846l0.694,0.264
		l1.81,0.08l0.978-0.109l0.852-0.222l1.173-0.356l0.971-0.008l1.993,0.301l1.344-0.08l0.938-0.371l0.216-0.086l1.047-0.879
		l1.047-1.349l0.139-0.662l-0.051-0.729l0.208-0.591l0.927-0.256l0.707,0.176l0.065,0.087l0.288,0.383l0.271,0.628l0.473,0.641
		l1.085,0.976l0.795,0.398l0.662-0.482l0.7-1.638l0.58-3.131l0.252-6.426l0.069-0.28l0.568-2.289l0.671-0.593l1.14-1.007
		l0.968-0.174l1.783-0.321l5.551,0.424l12.099,1.877l2.561-0.298l1.375-0.407l0.669-0.382l0.542-0.563l0.322-0.79l0.095-1.483
		l0.208-0.622l0.883-0.849l1.363-0.87l1.426-0.614l1.085-0.076l1.129,0.799l0.574,0.937l0.637,0.614l1.293-0.156l1.091-0.597
		l1.854-1.358l1.161-0.378l6.012,0.177l4.025,2.093l2.044,0.08l0.757-0.494l0.176-0.115l1.533-1.556l1.18-0.433l2.025-0.017
		l2.006,0.463l0.99-0.261l1.382-2.309l0.915-0.442l1.079,0.055l1.293-0.147l1.262-0.324l0.984-0.48l1.653-1.536l0.492,0.067
		l2.87,2.112l0.902-0.063l1.016-1.018l0.341-0.231l0.334-0.076l0.29-0.194l0.221-0.581l1.35,0.901l0.725,0.143l0.681-0.337
		l0.372-0.615l0.032-0.69l-0.164-1.806l-0.151-2.615l1.785-0.839l2.435,0.215l1.817,0.539l0.473,0.379l0.271,0.472l0.265,0.35
		l0.454,0.038l0.177-0.303l0.265-1.281l0.252-0.518l0.896-0.788l0.087-0.056l1.017-0.656l1.154-0.493l1.066-0.135l0.984,1.117
		l1.192,0.767l0.057,0.712l-0.139,0.691l0.107,0.451l0.568,0.194l0.423-0.139l0.397-0.232l0.53-0.08l1.634,0.194l0.543-0.059
		l2.05-0.615l0.94-0.097l1.287,0.215l0.908-0.202l1.243-1.778l1.35-0.304l1.76-0.687l1.268,1.151l0.757,2.136l0.196,2.257
		l0.177,0.67l0.252,0.379l0.315,0.32l0.328,0.471l0.221,0.24l0.58,0.37l0.233,0.274l0.069,0.404l-0.151,0.901l0.044,0.299
		l0.94,0.875l0.833,0.206l2.126-0.034l-0.372,0.812h1.407l1.198,0.177l1.117,0.534l1.192,1.076l2.069,2.682l1.331,1.193l1.211,0.055
		l0.524-1.181l-0.164-1.416l0.189-1.085l2.372-0.168l1.274-0.454l0.606-0.126l0.82,0.101l1.867,1.16l9.973,4.253l1.003-0.214
		l0.309,0.004l0.183,0.21l0.473,0.806l0.24,0.277l2.277,1.073l0.246,0.116l1.173,0.995l2.599,3.584l1.186,0.717l1.413,0.227
		l1.432-0.105l10.238-3.331l1.564-0.273l0.634,0.059l0.479,0.151l0.473,0.05l0.599-0.235l0.536-0.667l0.397-0.898l0.473-0.768
		l0.826-0.281l5.387,0.374l0.599,0.21l1.274,0.756l0.58,0.164l0.688-0.101l0.416-0.285l0.435-0.437l0.751-0.554l0.688-0.239
		l2.12-0.16l2.277-1.546l0.625-0.244l1.362,0.521l1.792,1.995l1.18,0.491l0.87-0.181l1.52-0.794l0.852,0.008l0.82,0.16l0.675-0.084
		l1.381-0.672l1.628-1.1l0.788-0.395l5.217-1.214l0.448,0.113l0.378-0.21l0.707-1.118l0.94-2.064l0.681-2.027l0.322-0.492
		l0.385-0.139l0.309-0.189l0.107-0.656l-0.189-0.492l-0.845-0.804l-0.259-0.37l-0.631-1.435l0.107-0.547l0.713-0.737l0.221-1.032
		l0.095-0.918l-0.082-0.931l-0.309-1.074l-0.341-0.383l-0.959-0.177l-0.341-0.282l-0.107-0.548l0.095-1.286l-0.044-0.616
		l-0.561-2.083l-0.353-0.688l-0.524-0.624l-0.7-0.336l-0.858-0.169l-0.87-0.411l-0.453-0.676l-0.272-0.406l-0.29-0.956l-0.17-1.157
		l0.038-1.182l0.341-1.016l0.416-0.473l0.41-0.127l0.416-0.023l0.454-0.194l1.64-1.34l1.634-0.45l3.343-0.106L539.078,30
		l0.877,0.066l0.505,0.315l1.621,1.862l0.789,0.668l1.281,0.374l2.347-0.222l1.602-0.152l1.085,0.349l1.646,1.538l2.347,0.602
		l1.072,0.465l0.965,0.249l-0.183,1.193l-0.536,1.03l3.463,2.621l2.769,1.443l0.606,0.633l1.161-1.75l-0.013,0.612l0.063,0.605
		l0.139,0.546l0.227,0.464l-0.271,0.97l0.233,2.116l-0.378,0.809l0.65,1.171l0.296,1.411l0.303,3.032l0.99,3.972l0.259,1.64
		l0.013,1.72l-0.296,1.702l-0.555,1.395l-0.789,0.785l-1.135,0.113l-1.312-0.349l-1.161-0.664l-0.637-0.815l-3.104,3.327
		l-0.643,0.101l-0.265,0.264l-0.151,0.361l-0.341,0.386l-1.703,1.104l-1.609,1.452l-1.041,0.546l-3.867,0.394l-0.681,0.642
		l0.946,1.405l-0.643,1.778l-0.271,1.572l0.189,1.437l0.725,1.403l-1.142,1.793v0.661l0.915,0.264l0.435,0.368l-1.041,2.101
		l0.164,1.172l0.852,1.824l0.524,0.857l1.621,0.795l0.05,0.945l-0.423,0.949l-0.517,0.43l-0.915,0.109l-0.53,0.318l-0.17,0.518
		l0.177,0.715l0.637,0.823l0.593,0.288l0.177,0.28l-0.612,0.819l-0.858,0.672l-1.741,0.827l-0.738,0.756l0.177,0.342l0.366,0.559
		l0.044,0.522l-0.814,0.234l-0.517-0.088l-0.429-0.246l-0.315-0.367l-0.215-0.455h-0.372l-0.498,1.607l-0.36,0.734l-0.435,0.467
		h-0.416l-0.076-0.334l-0.303-0.768l0.006,0.847l-0.063,0.421l-0.265,0.184l-0.549,0.15l-0.044,0.384l0.082,0.129l0.158,0.021
		l0.214,0.071l-0.606,0.288l-0.177,0.275l-0.044,0.534l0.423,0.884l-3.28,2.843l-0.934,1.483l-0.517,2.149l-1.356,1.624l-1.873,0.92
		l-2.297-0.235l0.179-0.324l-0.666-1.229l-0.149-1.653l-0.378-1.44l-1.311-0.63v-0.551l0.844,0.02l1.108-0.164l0.969-0.295
		l0.417-0.364l-0.402-0.824l-0.919-0.125l-0.993,0.269l-0.636,0.381l-0.238-0.545l-0.149-0.61h-0.457v0.604l0.268,0.42l0.189,0.729
		h-0.457l-0.944-1.116l-1.907-1.182l-2.017-0.601l-1.341,0.65l-1.023-0.276l-3.308-0.108l-0.7-0.443l-0.671-0.108l-4.336,0.384
		l-2.503-0.516l-2.687-0.959l-2.603-0.496l-2.28,0.867l-0.507-0.135l-1.286-0.269l-1.276-0.7l-0.894-0.851l-0.939-0.604l-3.055-0.67
		l-1.043-0.079l-2.24-1.019l-2.573-1.834l-2.513-0.819l-2.046,2.015h-0.417l-0.03-0.408l-4.768-0.868l-1.282-0.73l-0.775-0.585
		l-0.546-0.092l-0.243-0.224l0.104-1.003l0.268-0.671l0.492-0.523l0.626-0.342l0.7-0.122l-1.132-0.77l-0.79-0.385l-4.952,0.049
		l-1.113,0.276l0.03,1.333l-1.267,1.171l-0.75,0.434l-0.904,0.102l0.447,1.496l-0.566,0.631l-1.073,0.112l-1.118-0.033l-0.805,0.26
		l-1.992,1.134l-0.974,0.263l-1.743,1.245l-1.803,2.461l-1.952,1.717l-2.21-0.965l-2.285,1.025l-1.197,0.079l-1.137-0.552
		l0.288-0.213l0.03-0.072l0.134-0.266l-2.121-1.153l-1.306,1.222l-0.363,0.483h-0.412l-0.551-1.297l-0.646-1.117l-0.785-1.025
		l0.278-1.019l-0.884-0.427l-0.656-0.615l-0.407-0.865l-0.134-1.157l-2.985-0.52l-0.77-0.28l-0.581,0.464l-0.705,0.105l-0.68,0.23
		l-0.536,0.855l-1.281-0.559l-1.684,0.204l-1.45,0.733l-1.192,1.805l-2.722,2.254l-0.914,0.526l0.735,0.617l0.467,0.742
		l-0.064,0.631l-1.311,0.364l-0.233,0.279l-0.02,0.43l0.238,0.542l0.348,0.227l1.013-0.079l0.536,0.154l-7.902,4.685l-6.169,3.652
		l-2.26,0.518l-2.628-0.154l-2.667-0.711l-6.854-3.665l-1.202-0.282l-0.75-0.177l-2.002,0.236l-3.368,1.403l-1.366,0.898
		l-1.281,1.147l-0.834,1.304l-0.323,2.097l0.517,1.749l1.088,1.205l1.401,0.445l0.894,0.602l1.028,1.45l0.864,1.727l0.368,1.462
		l0.387,0.108l2.106,1.834l0.805,0.281l0.964,0.091l0.924-0.088l0.686-0.284l0.392,0.863l1.197,1.137l0.04,0.745l-0.507,0.34
		l-4.212,0.533l-0.929,0.944l-0.243,1.545l0.467,2.115l2.533,3.837l0.596,0.59l1.937,0.955l0.358,0.391l2.325,0.538l0.626,0.254
		l0.7-0.313l1.654-0.241l0.566-0.489l-0.01-0.75l-0.367-1.024l-0.874-1.559l0.457-0.545l-0.457-0.548l1.232-0.118l1.063,1.37
		l1.49,3.174l0.73,0.92l1.257,1.2l1.411,0.691l1.192-0.622l0.641,0.362l1.848,0.626l0.651,0.107l0.427,0.391l0.68,1.798l0.363,0.544
		l1.798,0.039l2.007,2.227l3.318,4.885l3.825,3.902l0.641,2.129l-1.997,1.605l-2.593,0.614l-1.137-0.27l-0.472-1.163l-0.372-1.43
		l-0.879-0.832l-1.088-0.585l-0.954-0.696l-1.609-2.436l-1.172-2.518l-1.45-2.106l-2.474-1.178l-4.917-0.892l-1.748-0.746
		l-1.55-1.075l-2.225-2.297l-1.272-1.007l-0.849-0.333l-2.295,0.333l-2.24-0.603l-0.904,0.055l-3.129,1.548l-1.381,0.28
		l-1.778-0.782l-0.179,0.44l-0.417,0.694l-0.238-0.039l-1.043,1.515l-0.372,1.371l0.124,1.306l0.964,2.542l0.298,0.465l0.447,0.498
		l2.076,1.392l0.407,1.301l0.869,1.015l0.869,0.536l0.407-0.127l4.162,1.983l0.765-0.286l1.008,0.4l1.013,0.796l0.775,0.923
		l0.894,0.66l2.414,0.867l0.671,0.955l-0.074,0.695l-0.77,0.76l0.01,0.773l0.348,0.471l1.093,0.795l0.228,0.617l-0.194,0.672
		l-0.432,0.117l-0.432-0.01l-0.204,0.305l0.159,0.912l0.402,0.37l0.536-0.078l0.581-0.409l-0.015,0.814l0.045,0.548l0.134,0.418
		l0.293,0.399l-1.629,1.391l-0.273,0.707l0.651,0.668v0.544l-1.182,0.036l-0.576,0.496l0.179,0.496l1.122,0.062v0.596l-3.129,0.091
		l-1.237-0.311l0.194-0.92v-0.544h-0.447l-0.477,0.395l-0.432-0.11l-0.184-0.538l0.298-0.836l-2.166-1.248l-0.377-0.136
		l-0.283-0.872l-0.69-0.587l-0.834-0.191l-0.437,0.367l-0.06,0.37l0.219,0.671l-2.245-3.756l-0.288-0.895l0.387-1.324l0.109-0.799
		l-0.273-0.357l-0.641-0.266l-0.358-0.633l-0.228-0.74l-0.258-0.585l-5.434-7.329l-2.056-1.399l-1.162-0.338l-5.031-0.41
		l-3.427-1.985l-2.786-0.768l-2.454,0.117l-2.031,1.282l-1.52,2.697l-0.149,1.561l0.472,1.349l0.616,1.32l0.313,1.469l0.184,0.494
		l0.472,0.244l1.237,0.107l0.551,0.166l0.358,0.406l0.566,1.017l3.263,4.714l1.808,1.976l6.338,3.493l4.123,0.989l0.159,0.486v0.693
		l0.189,0.81l0.576,0.959l0.725,0.68l0.964,0.402l1.272,0.133l0.854,0.262l-0.467,0.573L387.096,178l-1.132,0.262l-5.29-0.848
		l-8.881-3.845l-1.49-0.25l-4.545,0.765l-0.7,0.324l0.328-0.881l0.78-1.51l0.174-0.921l-0.194-0.661l-0.884-1.245l-0.204-0.493
		l-0.482-1.937l-1.073-1.386l-1.133-1.149l-0.651-1.247l0.835-2.579l0.303-3.048l-0.363-2.842l-1.192-1.991l-2.468-1.415
		l-1.341-0.517l-2.265-0.534l-1.048-0.645l-0.988-0.443l-1.053,0.273l-3.174-2.373l-0.621-0.078l-0.646-0.589l-1.43-0.339
		l-1.44-0.567l-1.113-2.04l-2.871-2.262l-1.162-0.548l-1.058-0.176l-2.399,0.176l0.581-1.262l-0.492-1.308l-1.798-2.352l0.189-0.069
		l0.164,0.007l0.089-0.078l-0.015-0.359l-2.215-2.556l-0.566-1.313l1.336-0.565l3.899-0.229l2.086-0.412l0.904-0.732l0.397-0.712
		l0.745-0.585l0.492-0.824l-0.382-1.442l-1.49-0.948l-0.387-0.151l-0.268-0.245l0.114-0.549l0.363-0.903l-0.964-2.051l-1.421-1.1
		l-1.674-0.216l-1.773,0.628l0.432,1.522l-0.149,1.227l-0.492,0.955l-0.626,0.732l-0.969,0.5l-0.571,0.412l0.05,0.186l-1.237-0.013
		l-0.521-0.173l-0.536-0.412l-1.207,0.827l-0.77,1.007l-0.209,1.196l0.477,1.412h-0.378l-0.457-0.549v1.147h-0.378v-0.598h-0.447
		l-0.253,0.947l-0.492-0.052l-0.646-0.497l-0.695-0.398l-0.03-0.379l-0.914,0.052l-0.964,0.817l-0.089,0.973l1.162,0.673
		l-0.566,0.065l-0.388,0.196l-0.223,0.424l-0.065,0.764l-0.258,0.424l-0.556-0.15l-0.904-0.578l-1.46,0.049l-0.755,0.307
		l-0.695,0.741l0.874,0.803l0.631,1.139l0.303,1.269l-0.139,1.171l0.735,0.678l0.596,0.92l0.715,0.796l1.123,0.339l0.169,0.834
		l-0.824,1.854l-1.649,2.834l-1.848,5.508l0.03,0.917l-2.339,5.082l-0.174,1.813l0.467,1.332l0.636,1.331l0.318,1.818l-0.248,1.824
		l0.149,0.844l0.725,0.35l0.273,0.396l0.77,2.28l3.189,2.727l0.556,0.308l0.338,0.308l1.45,0.493l0.338,0.288l0.129,0.292
		l0.566-0.039l0.139,0.321l-0.069,1.458l0.05,0.317l0.02,0.1l0.785,2.866l0.457,0.984l0.636,0.851l2.305,1.977l1.371,0.757
		l0.864,0.896l1.53,2.037l0.606,1.025l0.512,1.37l0.373,1.596l0.149,1.699l0.278,1.266l1.838,4.518l1.421,4.701l0.874,1.495
		l0.819,0.841l3.174,2.107l3.114,1.278l2.354,1.832l0.179,0.183l0.268,0.348l0.75,2.404l0.705,0.994l5.205,5.931l0.785,1.638
		l2.901,2.813l1.277,4.255l3.055,6.018l0.089,1.022l-0.641,0.413l-1.952,1.813l-1.192,0.41l-2.325,0.352l-1.162,0.359l-0.909,0.416
		l0.328,0.186l0.253,0.186l0.258,0.15l0.412,0.061v0.493l-0.531,0.166l-0.447,0.269l-0.363,0.307l-0.283,0.326l-0.745-0.256
		l-1.356,0.096l-1.401,0.381l-0.894,0.586l-0.983,0.473l-1.426-0.083l-2.449-0.659l0.571-1.104l0.715-0.995l-0.328-1.069
		l0.815-0.724l2.017-0.938l-0.01,1.009l-0.815,3.285l4.341-2.391l0.651-0.88l-0.417-0.733l0.353-0.253l0.586,0.045l0.313,0.186
		l0.194,0.339l0.432-0.442l0.442-0.871l0.219-0.907l-0.298-0.855l-1.579-2.673l-0.661-0.776l0.263-1.302l-0.656-1.398l-1.083-1.286
		l-1.023-0.953l-1.167-0.828l-1.058-0.376l-4.738-0.421l-0.045-0.273l0.074-0.363l-0.149-0.385l-0.298-0.466l-0.626-1.268
		l-0.328-0.369l-0.447-0.077l-1.639,0.077l-1.386-0.366l-0.323,0.093l0.427,0.758v0.54l-0.616,0.642l-0.228,0.931l0.189,0.947
		l0.656,0.713l-1.44,0.356l-2.404,0.244l-2.28,0.558l-0.998,1.287l-0.119,3.05l0.119,0.962l1.699,4.893h0.378l0.477-0.836
		l0.785-0.779l-0.238-0.846l0.313-0.048l0.492,0.529l0.298,0.903l0.417-0.538l0.551,1.285l0.224,1.537l0.368,1.466l0.944,1.082
		l-0.01-0.371l0.079-0.09l0.139,0.01l0.209-0.08l-0.253-0.535l-0.164-0.541l1.53,1.005l0.745,1.344l0.556,1.379l0.954,1.152
		l-0.372,0.979l0.089,0.211l0.283,0.422l-1.927,1.148l-0.467,0.748l0.308,1.269l3.139-1.902l1.659-0.544l1.868-0.186v0.486
		l-0.512,0.592l-1.982,1.071l-0.546,0.524l-0.258,0.562l-0.447,1.591l-0.278,0.556l-0.422,0.588l-0.219,0.24l-0.273,0.297
		l-0.467,0.415l-0.358,0.083l-0.889-0.156l-0.472,0.073l-0.407,0.371l-0.328,0.179l-0.507,0.038l0.278,0.814l0.139,0.303
		l-0.874,0.08l-1.227,0.757l-0.611,0.182l-0.735-0.163l-0.8-0.332l-0.82-0.204l-0.815,0.166l-0.288,0.568l-0.313,1.781l-0.432,0.376
		l-1.52,0.051l-0.497,0.306l-0.278,0.715l-0.874-0.038l-1.411,0.354l-1.336,0.124l-0.581-0.734l-0.298-0.632l-0.641,0.188
		l-1.147,0.737l-0.522-0.198l-1.028-0.711l-0.318-0.163l-0.119-0.21l-2.126-1.58l-0.507,0.112l-1.118,0.804l-0.372,0.377
		l-0.492,0.345l-0.671,0.153l-0.606,0.045l-0.477,0.147l-0.417,0.325l-0.392,0.555l-0.238-0.211l-0.601-0.373v2.14l2.921-0.485
		v0.485l-1.162,0.788l0.576,0.928l1.187,0.335l0.651-0.979h0.417l-0.417,1.116l0.899-0.041l0.81-0.246l0.685-0.099l0.517,0.386
		l3-1.55l0.755-0.051l1.475,2.429l1.296,1.6l0.666,0.401l0.646,0.727l0.536,0.242l0.492-0.054l1.187-0.43l0.616-0.105l0.814,0.249
		l0.993,0.631l0.874,0.86l0.447,0.936l1.242-1.258l0.651-0.325l1.018-0.022l0.656,0.303l1.202,1.064l0.909,0.239l3.422,0.048
		l1.57,0.605l1.063,1.487l1.897,6.147l0.854,0.836l1.162,0.118l0.596-0.219l0.725-0.725l0.685-0.35l0.765,0.092l0.824-0.114
		l0.829-0.983l-1.177-0.802l-0.526-0.22l1.137-0.515l1.108,0.258l1.997,1.279l0.983,0.353l2.027,0.286l1.157,0.429l0.919,0.735
		l0.626,1.014l0.273,1.084l-0.149,0.95l-0.74,0.766l-0.894,0.435l-0.805,0.763l-0.482,1.766l0.611-0.908l0.73-0.035l0.745,0.511
		l0.626,0.724l0.656,0.559l1.639,0.397l0.864,0.4v0.53l-0.536,0.203l-1.401,0.029l-0.596,0.251l-0.507,0.584l-0.154,0.508
		l0.348,0.371l0.954,0.136l4.142-0.194l6.159,1.066l0.765-0.581l0.676-1.06l1.48,0.825l2.081,2.12l-1.252,0.809l-0.447,0.209v0.58
		l0.76,0.178l0.626,0.343l0.238,0.479l-0.373,0.599v0.533l1.892,0.941l2.921,4.483l2.265,1.533l0.909,0.048l3.487-0.579l1.406,0.861
		l0.68,0.155l5.876,2.51l1.247,0.19l1.108,0.38l0.973,0.905l1.48,1.948l2.891,2.353l0.477,0.544l0.258,0.487l1.122,0.461
		l0.248,0.641l-0.129,0.626l-0.179,0.585l0.089,0.572l0.676,0.584l-0.646,0.25l-0.358,0.597l-0.189,0.846l-0.099,1.001l-0.378-1.083
		l-0.944,0.117l-2.975,1.639l0.06,1.591l0.909,3.322l0.258,1.448l0.576,1.078l0.586,0.813l0.278,0.652l-0.164,0.722l-0.819,1.664
		l-0.298,0.781l0.01,0.661l0.159,0.762l0.085,0.853l-0.253,0.945l0.676-0.038l0.71,0.217l0.541,0.5l0.189,0.809l-0.253,0.409
		l-1.863,0.692l0.437,0.51l0.546,0.374l0.676,0.189l0.874-0.016l-0.417,0.579l0.338,0.069l0.914,0.409l-0.373,0.679l-0.089,0.547
		l0.149,0.465l0.313,0.418l-0.313,0.185l-0.253,0.195l-0.164,0.283l-0.104,0.44l1.45,0.905l0.467,0.723l0.169,1.276l-0.074,1.659
		l-0.263,0.867l-1.371,1.47l0.834,0.48v0.575h-0.834v0.48l0.387,0.06l0.06,0.239l-0.06,0.361l0.07,0.442l-0.075-0.201l-0.025-0.226
		l-0.08-0.016l-0.278,0.442l0.775,0.753l-0.512,0.853l-1.058,0.973l-0.835,1.104l-0.695-0.483l-2.334-0.966l-0.964-0.176
		l-1.073-0.373l-0.407-0.963l0.02-2.879h-0.417l-0.844,0.468l-0.571-1.429l-0.661-3.258l-0.233,0.201l-0.601,0.377l-0.442-1.288
		l-0.978-1.282l-1.103-0.805l-0.854,0.164l-0.268-0.264l-0.228-0.151l-0.199-0.217l-0.179-0.424h-0.378l-0.348,1.629l-0.616,0.006
		l-0.646-0.283l-0.467,0.761l-0.099-0.522l-0.045-0.402l-0.184-0.201l-0.556,0.069l0.387-0.953l-0.268-0.821l-1.321-1.444
		l-0.159-1.472l-2.543-3.755l-0.214-1.108l-1.028-0.491l-1.028,0.227l-1.058,0.485l-1.093,0.309l-0.025-0.384l0.025-0.145
		l0.586-0.264l0.189-0.22l0.06-0.523l-0.924,0.391l-0.526-0.447l-0.467-0.687l-0.775-0.365l-0.874-0.019l-0.75-0.123l-0.626-0.318
		l-0.477-0.592l2.19-2.004l0.551-1.147l-0.447-1.368l-0.566-0.58l-0.412-0.038l-0.387,0.195l-0.512,0.132h-2.32l-0.631,0.164
		l-0.402,0.366l-0.308,0.366l-0.318,0.164l-1.45,0.085l-0.636,0.18l-0.641,0.312l-2.324,2.096l-1.013,0.498l2.086,0.58l-1.252,0.476
		l-4.828-0.476l-6.288,0.529l-2.295,1.147l-1.818,1.414l-1.043,0.809l-2.945,1.473l-2.568-1.099l-0.566,0.255l-0.482-0.028
		l-0.531-0.142l-0.671-0.085l-0.224,0.406l0.015,0.888l-0.089,0.894l-0.536,0.403l-0.387,0.743l0.268,1.504l0.795,1.17l1.202-0.249
		l1.063,0.557l1.455,0.189l1.445-0.189l1.033-0.557l1.962,1.928l1.073,0.817l1.132,0.471l-0.268,0.761l-0.094,0.72l0.094,0.651
		l0.268,0.553l-0.834,0.157l-1.118,0.694l-1.356,0.223l-0.194,0.248l-0.06,0.487l-0.189,0.776l1.52,1.165l0.824,0.389l0.988,0.075
		l-0.566,1.758l-0.149,1.189l0.209,1.167l0.507,1.678h-0.834l0.164,1.668l0.248,0.683l1.311,0.527l2.449,1.906l0.452-0.573
		l2.26,2.219l0.268,0.097l0.313,0.056l0.492,0.257l1.227,1.027l0.651,0.395l0.835,0.15l1.445-0.94l-0.074-2.049l-1.132-2.003
		l-1.733-0.79v-0.527l1.033-0.837l1.142-0.477l3.104-0.267l0.631,0.922l-0.288,2.053l-0.824,2.15l-1.008,1.191l0.611,0.652
		l0.656,0.464l0.755,0.301l0.894,0.157v0.573l-1.182,0.423l-0.452,0.056v0.526h0.417l0.522,0.235l1.565,0.291l1.376,0.92
		l1.242,0.423l2.836,2.381l-0.313,0.357l-0.099,0.156l0.109,0.166l0.303,0.372v0.525l-1.237,0.669l-3.591,1.22l-0.288,0.016
		l-7.237,0.359l-1.058-0.169l0.09,0.272l0.045,0.241l0.079,0.247l0.169,0.291l-2.205-0.306l-0.815,0.094l0.104,0.785l-2.086,0.478
		l-0.015,0.741l0.432,0.356l0.631,0.066l0.621-0.112l-0.383,0.569v0.475l0.467,0.072l1.162,0.503l-0.954,0.45l-1.122,0.119
		l-2.275-0.097l-1.262,0.234l-0.04,0.65l0.556,0.993l0.556,1.271l-1.267,0.262l-0.869-0.019l-0.755-0.278l-0.904-0.49v-0.525h1.247
		v-0.522l-0.715-0.2l-0.849,0.156l-0.785-0.081l-0.566-0.875l1.252,0.525l-0.298-0.725l-0.447-0.531l-1.331-0.893l-0.477,0.503
		l-0.611,0.019l-0.591-0.359v-0.162l-0.184-2.425l0.154-0.938l0.681,0.507l0.685,0.381l0.626-0.566l0.447-1.072l0.094-1.132
		l1.336,0.779l0.333,0.272v-0.478l-0.298-0.704l-0.089-0.475l-0.03-0.701l-0.159-0.463l-0.397-0.191l-0.462-0.131l-0.402-0.291
		l-0.864-0.432l-2.146,0.557l-0.983-0.363l0.824-0.526l-0.824-1.574l-1.52,0.901l-0.596,0.479l-0.387,0.72l-0.854-2.773
		l-0.621-1.002l-1.028-1.002l-0.283-0.075l-0.71,0.113l-0.288-0.038l-0.228-0.244l-0.109-0.345l-0.04-0.313l-0.04-0.15l-0.884-0.376
		l-0.531-0.113l-0.671,0.012l0.76,0.219l0.253,0.247l0.238,0.582l-1.222-0.526l-1.058,0.132l-0.954,0.579l-0.939,0.82l-0.417-0.463
		l-1.699-1.115l0.134-0.282l0.283-0.764l-0.775-0.335l-0.7-0.573l-0.372-0.639l0.179-0.558l-0.641-0.953l-0.611-0.624l-1.331,0.555
		l-1.103,0.677l-0.735,1.119l-0.199,1.901l0.134,0.392l0.566,0.924l0.124,0.476l-0.07,0.498l-0.293,0.899l-0.015,0.444l0.258,0.854
		l0.318,0.451l0.333,0.335l0.303,0.507l0.07,0.379l-0.07,1.461l0.144,0.225l0.74,0.607l-0.04,0.788l-0.417,1.019l0.04,0.769
		l3.199,3.831l0.546,0.359l-0.417,1.103h0.834v0.475h-0.417v0.522l0.641,0.618l1.46,2.641l0.432,1.395l2.086,3.771l0.209,0.215
		l0.497,0.748l0.308,0.804l-0.387,0.374l-0.298,0.43l-0.194,1l-0.134,1.991l0.497,0.963l1.152,0.252l1.262-0.162l0.834-0.296
		l0.04,0.355l0.109,0.215l0.144,0.193l0.164,0.283l-0.432,0.271l0.075,0.075l0.358,0.181l-0.457,0.573l1.043,0.38l0.502,0.632
		l-0.154,0.374l-0.934-0.392l0.551,1.363l1.644,2.436l-0.109,0.902l0.492,1.291l0.343,1.362l-0.318-0.034l-0.651,0.056l-0.313-0.022
		l0.149,0.376l0.467,0.814l0.248,0.329l0.119-0.252l0.045-0.053l0.055-0.019l0.199-0.152l0.199,0.706l0.085,0.656l-0.065,0.625
		l-0.219,0.625l0.611,1.007l1.217,3.075l0.447,0.652l-0.189,0.596l0.814,1.341l1.679,1.71l0.397,0.825l0.139,0.856l-0.228,0.664
		l-0.685,0.254v0.475l0.641,0.037l0.472,0.102l0.934,0.428l-0.258,0.583l-0.7,0.533l-0.243,0.447l-0.089,0.428l0.005,0.242
		l0.045,0.236l0.04,0.397l-0.353,0.824l-0.78-0.071l-0.864-0.511l-0.591-0.502l-0.522,0.846l-0.765,0.796l-0.323,0.756l0.82,0.719
		l-0.129,0.254l-0.169,0.533l-0.119,0.251h1.659l-1.525,1.347l0.074,1.963l0.904,2.024l1.202,1.937l0.636,1.346l0.258,0.238
		l1.212,0.52l0.69,0.538l1.137,0.523l0.258,0.368l0.149,0.374l0.248,0.278l0.591,0.065l-0.566,0.414l-0.263,0.105v0.473l0.367,0.43
		l0.045,0.396l-0.263,0.371l-0.566,0.358l1.053,1.539l1.828,1.137l1.331,1.229l-0.462,1.791l-2.086-1.037l-0.611,0.803l-0.765,0.117
		l-2.722-0.691l-0.551-0.79l-0.447-0.886l-0.74-0.621v-0.47l0.358-1.022l-0.427-1.214l-0.859-1.013l-0.939-0.423l-2.622,0.584
		l-1.237,0.009l-0.522-0.831l-0.283-1.236l-1.371-2.944l-0.462-0.773l-0.695-0.671l-2.633-1.928l0.869-0.91l-0.283-0.895
		l-2.548-2.341l-0.328-0.115l-0.243,0.579l-0.844,1.04l-0.268-0.406l-0.075-0.672l0.343-1.781l-0.134-1.155l-0.566-1.645
		l-0.432-2.759l-0.849-1.346l-1.326-0.819l-1.738-0.335l-3.119-0.068l-3.844,0.459l-2.757,1.557l0.104,3.249l-2.012,1.444
		l-0.775,1.081l-0.512,1.682l0.929-0.006l0.581,0.526l0.238,0.92l-0.074,1.161h-0.417l-0.114-0.539l-0.229-0.551l-0.378-0.402
		l-0.536-0.068l-0.507,0.402l-0.328,0.706l-0.085,0.675l0.273,0.297l1.008,0.86l-0.303,1.553l-0.815,0.73l-0.492-1.634l-0.894,0.551
		l-0.363,0.789l-0.03,4.462l0.184,1.734l0.373,1.428l1.147,3.012l-0.253,0.42l0.253,0.664l-0.805,0.537l-0.268,0.797l0.174,0.91
		l0.482,0.864v0.518l-0.561-0.062l-0.149,0.216l-0.01,0.395l-0.114,0.481l-0.686-0.842l-0.209-1.305l-0.074-1.389l-0.318-1.121
		l-0.889-0.75l-2.131-0.858l-0.735-1.032h-0.412l-0.626,0.655l-0.611-0.148l-0.576-0.59l-0.482-0.667l-0.581-1.131l0.05-0.837
		l0.377-0.822l0.363-1.076l0.984,0.284l0.283-0.903l-0.253-1.249l-0.631-0.776l0.303-0.371l0.566-1.135h-1.252l0.114-0.978
		l-0.085-1.176l0.209-0.904l1.013-0.105v-0.52l-1.192-0.421l0.134-1.3l1.058-2.484l-1.793,0.313l-1.172-1.856l-0.954-2.393
		l-1.118-1.311l0.094-1.485l-0.934-1.948l-4.282-5.904l-1.301-0.677l-1.535,1.161l-1.609-1.22l-0.661-0.761l-0.268-1.143
		l0.139,0.037l0.298-0.423l0.288-0.684l0.144-0.758l0.064-0.87l0.293-1.486l0.094-2.08l-0.119-0.541l-4.123-0.933l-2.29-0.134
		l-1.103,0.321l-2.31,1.44l-2.295,0.647l-0.7,0.79l-0.353,1.02l-0.616,7.292l-0.308,0.928l-0.03,0.692l0.258,0.878l0.378,0.664
		l0.169,0.67l-0.387,0.912l1.043,1.008l0.646,0.425l0.854,0.13v0.515l-0.82,0.065l-0.715,0.319l-0.383,0.515l0.209,0.617
		l-0.387,0.691l-2.538,2.359l-0.343,0.39l-0.372,0.257l-0.522-0.012l-1.053-2.16l-0.199-0.177l-1.878-3.901l-1.093,0.074
		l-0.924,0.217l-1.56,0.744l-0.725-0.763l-1.436-0.583l-0.382-0.732H264.7l-0.546,0.323l-0.333-0.58l-0.323-0.977l-0.497-0.847
		l0.238-0.723l-0.045-0.627l-0.149-0.745l-0.045-1.081l0.189-0.696l0.805-1.286l0.288-0.671l0.03-1.28l-0.447-1.113l-0.884-0.556
		l-1.232,0.392l0.576-0.295l0.184-0.242l0.074-0.507l-0.546-0.037l-0.303,0.202l-0.363,0.88l-0.427-2.695l-1.56-2.003l-1.828-1.898
		l-1.262-2.371l-0.546-3.02l-0.129-3.072l0.417-2.762l1.083-2.13l3.835-3.11l1.669-1.779l0.824-2.488l-0.268-3.092l-0.576-1.716
		l-0.437-1.307l-4.133-7.958l-2.325-3.529l-1.162-1.24l-5.27-3.758l-1.257-0.643l-0.685-0.696l-1.187-1.571l-0.621-0.571
		l-3.596-1.073l-1.192,0.339l-0.318,2.086h-0.382l-0.124-0.734l0.01-0.772l-0.129-0.681l-0.586-0.489l0.755-1.582l0.224-1.268
		l-0.174-1.293l-1.013-3.502l-0.631-1.037l-0.849-0.641l-2.667-1.43l-6.422-1.968l-0.551-0.459l-0.333-0.937l0.243-1.158
		l-0.328-0.591l1.669-5.282h0.417l1.465,1.294l2.647-1.269l2.677-2.337l1.579-1.916l0.854,0.29l0.73-0.473l0.68-0.779l0.69-0.624
		v-0.577l-0.224-0.158l-0.07-0.06l-0.03-0.076l-0.129-0.189l-0.591,0.262l-0.596,0.404l-0.522,0.454l-0.378,0.416l2.747-4.232
		l0.119-0.505l2.18-3.465l0.268-0.808l0.139-1.007l0.124-4.644l-0.089-1.271l0.651,0.74l0.815,1.413l0.626,0.543l-0.05-0.932
		l-0.149-0.74l-0.268-0.569l0.318,0.496l0.889,0.471l1.073,0.152l1.311,0.016l0.869,0.322l3.05,2.332l4.828,1.102l1.177-0.23
		l1.222-0.569l1.982-1.365l1.619-1.988l2.454-5.008l1.381-2.028l4.659-2.944l0.546-0.595l4.033,0.839l1.311-0.009l0.581-0.133
		l0.571-0.342l0.586,0.532l0.765,0.494l0.884,0.374l0.934,0.146l0.765,0.285l0.383,0.69l0.253,0.886l0.432,0.842l0.671,0.569
		l1.818,0.886l0.656,0.136l0.487-0.085l0.69-0.361l0.303-0.032l0.517,0.544l0.417,0.351l0.507,0.161l0.373,0.398l0.656,1.992
		l0.447,0.797l0.507,0.272l2.22,0.74l0.189,0.174l0.228,0.379l0.343,0.379l0.492,0.174h1.892l2.637,0.657l0.735,0.404l1.122-0.515
		l0.954,0.629l1.013,0.973l1.878,0.764l0.616,0.505l0.641,0.313l0.656-0.306l0.442-0.111l4.803,1.083l6.661,3.554l3.651,1.309
		l0.522,0.568l0.581,0.199l4.872,4.319l1.103,1.872l0.358,0.246l1.162,0.343l1.897,1.679l0.904,0.617l0.944,0.151l0.949-0.17
		l1.475-0.51l0.467-0.019l0.507,0.05l0.487-0.022l0.407-0.246l1.232-1.874l0.134-0.416l-0.601-0.908l-0.889-0.908l-0.7-0.413
		l-0.954-0.312l-1.505-1.239l-1.118-0.085l0.199-0.259l0.204-0.11l-2.041-0.113l1.311-1.101l0.606-0.385l0.795-0.151l0.805-0.303
		l1.351-1.407l0.556-0.404l1.639,0.117l3.01,1.297l1.222-0.36l1.803,0.852l1.972-0.271l4.391-1.325l1.028-1.155l1.038-0.265
		l0.606-0.429l-0.387-0.934l-0.984-0.896l-1.137-0.338l-0.015-0.388l0.015-0.673l0.775-0.085l1.371-0.35l0.775-0.095v-0.578
		l-0.611-0.079l-4.232-0.556l-0.954-0.376l1.252-1.062l-1.599-1.719l-0.8-0.158l-1.962,1.89l-0.661,0.202l-2.101-0.215v-0.531h1.207
		l-0.805-1.207l-0.839-0.645l-0.894-0.266l-3.571-0.408l-1.108,0.25l-0.695,1.17l0.825-0.278l0.894,0.063l0.765,0.446l0.392,0.875
		l-1.048-0.025l-1.818-0.338l-0.844,0.363l-0.835-3.758h-0.417l-0.447,1.104l-0.079-0.367l-0.189-0.36l-0.109-0.376l-1.113,0.37
		l-2.225,0.266l-0.874,0.468l-2.493-1.635l0.512-0.8l1.103-0.946l0.462-0.908l-1.132-0.5l-2.315-0.661l-1.401-1.029l-1.008-0.291
		l-0.392-0.222l-0.308-0.411l-0.983-1.665l0.556-1.362l-0.869-1.593l-1.445-0.656l-1.202,1.435l1.103,0.149l0.079,0.608
		l-0.576,0.431l-0.79-0.367l-0.7-0.222l-0.695,0.637l-0.556,0.893l-0.283,0.579v0.484l0.313,0.181l0.179,0.152l0.238,0.127
		l0.447,0.12v0.481l-0.447,0.317l-0.06,0.161l0.099,0.199l0.03,0.43l-0.71,0.747l-0.745,0.221l-0.849-0.259l-1.028-0.709
		l-0.025-0.228l-0.69-1.329l-0.119-0.032l-0.184-0.446l-0.169-0.228l0.129-0.171l0.641-0.219l-0.834-1.719l-2.921-3.647
		l-0.541-1.204l-0.328-0.387l-0.258-0.143l-0.646-0.2l-2.846-1.788l0.075,0.809l0.278,1.398l0.06,0.742l-1.664,1.306l-0.452,0.529
		l0.447,0.627l0.303,0.295l0.243-0.025l0.293-0.361l0.233,0.719l-0.144,0.589l-0.392,0.475l-0.531,0.342l0.417,0.532l-0.343,0.649
		l-0.904,0.063l-1.167-0.427l-1.579-0.285l-2.295,0.288l-0.343-0.45l-0.785-0.424l-0.844-0.19l-0.566,0.244h-0.382l-0.745-0.171
		l-0.949,0.554l-0.815,1.042l-0.412,1.282l-0.507-0.538l-0.343-1.039l-0.397-0.598l-0.566-0.228l-0.536,0.092l-0.303-0.095
		l0.119-0.785l-0.924-0.675l-1.942-0.589l-3.154-1.416l-1.192-0.057l-1.118,0.561l-1.44-1.445l-1.818-0.086l-1.763,0.685l-2.468,1.8
		l-0.566,0.139l-0.924,0.025l-0.487-0.253l-0.298-0.551l-0.308-0.57l-0.348-0.276l-0.566,0.171l-2.99,2.569l-0.467,0.862
		l-0.179,1.475l-0.556,0.412l-1.192-0.738l-1.629-1.558h-3.561l-0.998,0.266l-0.884,0.491l-0.829,0.247l-0.849-0.472l-3.919,2.884
		l-0.7,1.411h-0.378l-0.566-0.5l-0.859-0.187l-0.78-0.038l-0.338-0.073l-0.417-0.535l-2.493-1.367l1.033-0.275l0.968,0.551
		l0.909,0.826l0.834,0.535v-0.576l-0.283-0.339l-0.149-0.263l0.065-0.345l0.368-0.598l-0.581-0.427l-0.253-0.104v-0.579l0.238-0.114
		l0.596-0.418h-1.207l0.372-1.064l-0.556,0.285l-0.517,0.117l-0.492-0.082l-0.477-0.32l-0.353,0.301l-0.258,0.114l-0.641,0.165
		l0.387-1.53l-0.745-0.808l-1.247-0.314l-1.123-0.057l-0.462-0.726l-0.596-4.639l-1.286-1.545l-0.705-0.549l-0.303-0.133
		l-0.263,0.076l-0.586,0.073l0.209,0.609l2.518,4.18h-0.869l0.129,0.285l0.06,0.057l0.079,0.013l0.184,0.178l-0.223,0.805
		l-0.149,0.868l-0.229,0.694l-0.442,0.285l-0.626,0.143l-1.296,0.684l-0.407,0.291l0.149,0.311l0.065,0.019l0.243,0.149l-0.457,0.58
		l-0.824-0.532l-0.497,0.238l-0.194,0.504l0.074,0.276l0.283,0.266l-0.447,0.586l-0.894,0.792l-0.671,0.437l-0.417,0.133
		l-1.207-0.086l-0.492-0.285l-0.457-0.465l-0.457-0.095l-0.507,0.845l0.308,0.304l0.377,0.193l0.452,0.082l-0.298,0.085
		l-0.745,0.218l-0.477,0.456l-0.035,0.829l-1.152-0.098l-0.427-0.788l-0.169-1.013l-0.333-0.754l-0.73-0.266l-1.863-0.044
		l-0.775-0.222l0.715-0.336l0.536-0.396l0.224-0.58l-0.194-0.865l-0.596,0.358l-0.238,0.222l0.536-1.216l0.298-0.424l-0.179,0.545
		l0.626,0.329l0.7-0.469l0.527-0.678l0.412-0.795l-1.098-0.894l-0.467,0.057l-0.521,0.837l-0.7-0.32l-0.487-0.583l-0.303-0.799
		l-0.174-0.951l0.189-0.158l0.06-0.006l0.04-0.073l0.094-0.342l0.611,0.79l0.705,0.374l0.576-0.203l0.224-0.961l-0.835,0.58
		l0.283-1.027l-0.576-1.453l0.293-0.717v-0.581l-0.581-0.003l-0.397-0.133l-0.685-0.343l0.561-0.349l0.273-0.124l0.412-0.06
		l-0.243-0.165l-0.348-0.308l-0.273-0.111l0.581-1.25l0.164-0.629l-0.089-0.467l-0.566-0.352l-0.477,0.314l-0.477,0.514l-0.566,0.27
		l-0.224,0.301l-0.665,0.556l-0.695,0.349l-0.323-0.352l-0.134-0.714l-0.566-1.124l-0.134-0.851l0.472-3.189l0.005-1.697
		l-1.281-1.405l-0.949-2.935l-0.556-0.668l-2.374-0.029l-0.824-0.299l-0.745-0.741l-0.427-0.964l-1.48-6.323l-0.596-1.249
		l-0.825-0.644l-0.894,0.306l-0.894,0.927l-0.735,1.118l-0.437,0.86l-0.447-0.85l-0.363,0.143l-0.382,0.392l-0.477-0.124
		l-0.656,0.564l-0.243-0.322l-0.114-0.71l-0.229-0.596l-2.096-1.708v-0.488l0.467-1.004l0.273-1.435l0.482-1.282l1.098-0.555
		l1.311,0.048l0.7-0.067l0.298-0.249l-0.199-0.498l-0.472-0.447l-0.502-0.319l-1.311-0.622l-0.517-1.184l-0.119-1.417l0.209-1.188
		l0.75-1.482l0.328,0.578l0.392,1.303l0.983,0.674l1.182,0.396l1.152-0.591l0.844-1.159l0.616-1.322h0.417l0.199,0.623l0.069,0.418
		l-0.06,0.3l-0.209,0.262l0.109,0.134l0.189,0.16l0.04,0.278l-0.338,0.501l1.237,0.019l1.028-0.147l0.73-0.632l0.298-1.431h0.417
		l0.591,0.808l0.616,0.035l0.745-0.246l0.969-0.01l0.82,0.316l0.581,0.374l0.68,0.3l1.093,0.128l0.159,0.501l-0.199,1.101
		l-0.07,1.111l0.512,0.498l0.829,0.211l0.81,0.53l1.49,1.403l0.074-0.708l0.149-0.402l0.258-0.255l0.383-0.29v-0.488l-0.472-1.008
		l0.651-0.495l1.133,0.048l0.983,0.603l1.43,1.713l0.025,0.211l0.377,0.22l0.343,0.131l0.293-0.198l0.238-0.737l-0.502-0.45
		l-0.209-0.364l-0.174-1.181l-0.214-0.073l-0.273,0.077l-0.263-0.201l-0.775-1.366l-0.104-0.824l0.432-1.022l-0.323-0.632
		l0.189-0.706l0.462-0.419l0.502,0.198l-0.055-1.85l-1.485-2.013l-3.075-3.108l-0.432,0.502l-0.229,0.512l0.005,0.524l0.273,0.556
		l-0.835-0.333l-0.303,0.115l-0.313,0.122l-1.088,1.221l1.281,1.02l-3.368-0.483v-0.537l-0.75-0.179l-0.715-0.508l-0.561-0.508
		l-0.263-0.173l-0.725,0.409l-0.586-0.345l-0.407-0.716l-0.164-0.71h0.119l0.184-0.339l0.531-0.15v-0.537h-0.452l-0.591,0.393
		l-0.685,0.019l-0.656-0.326l-0.492-0.672h-0.457l-0.348,0.787l-1.088,0.62l-0.223,0.493l0.258,0.78l0.675,0.15l0.273,0.374
		l-2.538-0.038l0.914-0.435l-0.104-0.534l-0.025-0.758l-0.169-0.518l-0.536,0.201l0.015-0.304l-0.06-0.186l-0.035-0.134l0.099-0.096
		l-0.02-0.403l-0.521-0.086l-0.323,0.112l-0.199,0.25l-0.209,0.31l0.755-1.728l-0.238-1.315l-0.715-0.474l-0.675,0.781l-0.378-0.538
		l-0.238,0.566l-0.358,0.439l-0.492,0.333l-0.621,0.275v0.586l0.894,0.208l-0.238,0.656l-0.02,0.899l-0.218,0.924l-0.447,0.576
		l-0.487,0.329l-0.437,0.419l-0.248,0.822l-0.874-0.591l0.045,0.802l0.089,0.358l0.243,0.058l0.497-0.089l2.831,2.342l1.197,0.585
		l0.373,0.556l0.134,0.556l-0.184,0.249l-0.531-0.134l-1.098-0.661l-1.793-0.597l-0.387,0.051l-0.541,0.268l-0.03,0.345l-0.616,0.93
		l-0.72,0.616l-0.353-0.578l-0.184-0.731l-0.442-0.533l-0.422-0.431l-0.194-0.422l-0.07-0.467l-0.139-0.256l-0.139-0.169
		l-0.07-0.201l0.134-0.518l0.298-0.316l0.283-0.23l0.119-0.253l-0.616-2.628l-1.172-1.877l-1.619-1.379l-1.972-1.146l-1.942-1.517
		l-4.763-6.054l-1.803-1.25l-0.576-0.673l0.219-0.718l-0.308-0.718l-0.139-0.92l0.079-0.908l0.368-0.68v-0.587l-0.735,0.33
		l-0.621,0.093l-0.452-0.25l-0.278-0.712l-0.904,0.523l-0.869-0.039l-0.819-0.43l-0.745-0.642l-1.709,0.732l-2.483-1.271
		l-1.957-2.34l-0.129-2.463l-0.825-0.794l-0.457-0.999l-0.656-0.784l-1.401-0.164v-0.54h0.417v-0.492l-0.497-0.627l-0.676-1.225
		l-0.492-0.354l1.048-0.341l1.271,0.039l0.839-0.219l-0.209-1.094l-0.591-0.637l-2.359-1.573v-0.492l1.058,0.058l0.76,0.203
		l0.591-0.058l0.541-0.743v-0.541l-0.631-0.444l-1.073-0.522l-0.854-0.039l0.025,1.004l-0.536-0.502l-0.7-0.431l-0.7-0.1
		l0.685-0.638l-1.147-0.28l-1.058-0.116l-0.988,0.087l-0.979,0.309l0.472-0.641l0.258-0.731l0.099-0.85l-0.03-1.021l0.452,0.538
		l0.417-0.036l0.412-0.409l0.422-0.58l0.025-0.271l-0.05-1.025l0.025-0.377l0.119-0.051l0.581-0.413l0.134-0.029l-0.392-1.605
		l-1.013-0.726l-1.038-0.31l-0.477-0.387l-0.204-0.329l-0.959-0.813l-0.313-0.161l-0.695-0.177l-0.507-0.387l-0.467-0.565
		l-2.702-0.62l-1.401-0.539l-0.71-0.465l-0.343,0.061l-0.278-0.058l0.99-0.626l2.044,0.689l2.428,0.787l2.801,1.475l1.741,1.577
		l1.243,0.577l0.965-0.242l0.215-0.418l-0.025-0.578l0.069-0.61l0.479-0.533l0.492-0.168h0.517l0.53,0.168l0.536,0.328l0.183-1.737
		l0.921-0.894l1.135-0.66l0.839-1.029l0.183-0.861l-0.183-0.418l-0.328-0.353l-0.233-0.693l-0.107-0.238l-0.448-0.562l-0.151-0.263
		l0.069-0.246l0.385-0.952l0.095-0.41l-0.202-0.624l-0.36-0.337l-0.151-0.324l0.429-0.595l0.511-0.209l0.606,0.094l0.076,0.029
		l2.277,0.878l1.079,0.653l1.041,0.119l1.06-1.1l0.492-1.585l-0.246-1.38l-2.813-4.676l-1.451-1.443l-0.315-0.477l-0.915-4.834
		l-0.309-0.622l0.738-0.235l3.047-0.095l1.009-0.214l0.259-1.429l0.511-1.417l0.694-1.261l0.814-0.952l1.161-0.527l2.025,0.239
		l0.959-0.556l1.11-0.293l3.236,0.482l1.52-0.148l2.293-1.096l1.517-0.726l0.448-0.313l0.259-0.557l0.915-2.594l0.088-0.363
		l-0.29-1.481l-0.019-0.404l-0.202-0.883l0.032-0.491l0.284-0.438l0.902-0.277l0.334-0.268l0.681-1.908l0.013-1.64l-0.126-1.599
		l0.278-1.823l0.479-0.777l0.662-0.467l0.669-0.347l0.479-0.43l0.177-0.442l0.945-2.358l0.669-1.254l0.271-0.662l0.208-0.989
		l-0.032-0.836l-0.265-2.183l0.101-0.754l0.542-0.564l1.268-0.302l0.543-0.307l0.498-0.821l0.24-0.767l0.328-0.676l0.814-0.547
		l1.634-0.033l1.394,0.667l1.363,0.336l1.52-1.041l0.587-0.833l0.202-0.398l0.177-0.464l-0.044-0.995l0.366-0.714l0.65-0.452
		l0.789-0.216l0.416-0.822l0.561-0.457l0.561-0.324l0.416-0.457l0.322-0.809l0.095-0.627l0.025-0.668l0.107-0.926l0.65-2.796
		l0.215-1.475l-0.082-1.58l-0.397-1.406l-0.625-1.131l-1.621-1.98l-1.741-1.656l-0.265-0.604l-0.12-0.649l-0.227-0.608l-0.599-0.491
		l1.053-1.249l0.372-1.712L218.861,103.207z M411.921,567.005l-0.373,0.654l-0.055,0.772l0.263,0.687l0.581,0.381V570l-1.629-0.115
		l-1.371-0.726l-2.424-1.691v-0.463l0.7-0.009l0.551-0.227l0.457-0.369l0.378-0.412l0.765-0.042l0.735,0.109l1.421,0.396V567.005z
		 M585.724,524.008l1.609-0.421l0.581-0.055l0.084,0.476l-0.383,0.293l-0.452,0.219l0.452,1.536v0.466l-0.899,0.043l-1.49,0.286
		l-0.561,0.229l-0.775,0.509l-0.551,0.493l-0.566,0.378l-0.795,0.152l-0.546,0.241l-1.063,1.044l-0.71,0.25l-0.76-0.317
		l-0.641-0.703l-0.328-0.704l0.214-0.323l0.596-0.317l1.083-1.407l0.437-0.32l0.219-0.238l0.402-1.06l0.214-0.238l0.507,0.094
		l0.685,0.372l0.293,0.046l2.205-0.893L585.724,524.008z M545.75,532.698l-0.536,1.369l-0.884,0.901l-1.028,0.791l-0.919,1.071
		l1.093,3.867l0.954,1.696l1.321-0.927l-0.571,1.164l-0.998,1.197l-0.636,1.166l0.546,1.063l-0.432,1.36l-0.571,1.357l-0.651,1.205
		l-0.656,0.916l-0.313,0.637l-0.611,1.79l-0.343,0.37l-0.705,0.127l-0.606,0.309l-0.536,0.352l-3.531,1.583l-0.869,0.218h-1.694
		l-0.094-0.209l-0.889-0.998l-0.452-0.315l-1.45-0.234l-1.212,0.155l-1.088-0.009l-1.103-0.725l-0.551-0.476l-0.507-0.155
		l-0.497,0.164l-0.531,0.467l-0.472,0.127l-2.21-0.382l-2.598,0.522l-4.48,1.589l-12.626-0.582l-3.854,1.234l-0.939,0.567
		l-1.008,0.361l-5.553-0.682l-4.122,0.164l-1.172,0.318l-1.495,0.185l-0.561,0.285l-0.914,0.621l-3.457,1.373l-0.944,0.2
		l-3.467-0.315l-1.341,0.315l-0.378,0.245l-0.502,0.597l-0.412,0.17h-0.631l-0.392-0.185l-0.348-0.218l-0.482-0.106l-1.078,0.085
		l-0.904,0.212l-1.579,0.679l-0.969-0.397l-1.187-0.13l-14.965,0.527v-0.466l0.805-0.639l0.214-0.851l-0.189-2.831l0.109-0.904
		l0.368-1.437l-0.06-1.055l-0.189-0.743l-0.348-1.019l-0.447-0.901l-0.472-0.391l-0.328-0.164l-0.303-0.346l-0.407-0.349
		l-0.646-0.161l-5.404-0.094l-1.48-0.307l-0.884-0.574h-0.383l-0.571,0.228l-0.685-0.628l-1.281-1.634l-0.815-0.595l-1.118-0.595
		l-1.192-0.261l-1.043,0.431l-3.681-1.859l-0.104-0.735v-0.465l-6.646,0.659l-4.604-0.659l-0.268-0.204l-0.298-0.371l-0.219-0.346
		l-0.06-0.146l-0.407,0.018l-0.328,0.201l-0.268,0.228l-0.278,0.109h-4.371l-1.058-0.501l-0.571,0.009L409,541.721l-0.253-0.07
		l-1.624,0.325L406,541.484l-1.719-2.167l-0.954-0.492l-5.235,0.158l-2.543-0.383l-2.046-1.216l-0.507,0.395l-0.372,0.188
		l-0.353,0.015l-0.427-0.131l-1.063,0.87l-4.296-0.152l-1.728,0.815l-0.869-0.857l-3.576,0.176l-1.426-0.341l-0.298-0.426
		l0.134-0.681l-0.253-0.426l-0.447-0.255l-0.829-0.088l-0.392-0.167l-0.492-0.523l-0.388-0.569l-0.462-0.526l-0.78-0.423
		l0.452-0.511l-0.243-0.055l-0.144-0.003l-0.06-0.107l-0.005-0.344l0.894-0.469l0.367-0.085l0.442-0.006l0.074-0.219l-0.01-0.155
		l0.06-0.091h0.293l-0.383-0.545l-0.298-0.569l-0.064-0.658l0.328-0.825l-0.462-1.34l0.656-1.709l0.969-1.661l0.507-1.173
		l-0.124-0.475l-0.293-0.476l-0.283-0.32l-0.134-0.006l0.065-0.494l0.616-1.897l0.407-0.689l0.05-0.573l-0.755-0.485v-0.467
		l0.303-0.366l0.094-0.174l-0.094-0.168l-0.303-0.36l0.924-1.889l0.199-0.888l-0.253-0.855l1.227-2.04l0.263-0.715l0.179,1.512
		l0.03,3.059l0.382,1.3l0.333,0.772l0.233,0.195l0.487,0.058l0.477,0.128l0.055,0.293l-0.055,0.339l0.139,0.266l0.527,0.259
		l0.551,0.177l1.46,0.122l1.197-0.247l0.944-0.747l0.576-1.276l0.159-1.825l-0.343-1.459l-0.536-1.374l-0.204-1.13l0.666-0.742
		l-0.596-1.347l-0.164-1.054l0.283-0.951l0.685-1.009l0.884-0.902l0.517,0.028l0.596,0.538l1.172,0.593v0.562l-0.68,0.764
		l0.015,0.963l0.666,2.374l-0.079,1.93l0.079,0.586l1.252,2.348l1.078,0.736l5.141,0.574l1.689,0.485l0.924-0.32l3.437,0.378
		l1.52-0.058l0.636-0.204l0.541-0.317l0.382-0.504l0.139-0.769l0.268-0.623l0.656-0.192l1.569,0.098l-0.75-2.681l2.041-0.855
		l2.757,0.318l1.376,0.861l1.242,3.285l-0.169,0.558l-0.288,0.211l-0.492,1.013l-0.293,0.36l-0.571,0.275l-0.601,0.137l-1.291,0.055
		l-2.384-0.522l-1.361-0.073l-0.874,0.595l0.308,0.65l1.043,0.686l1.142,0.54l1.798,0.537l2.012,1.409l1.008,0.317l1.078-0.195
		l1.108-0.506l1.013-0.665l0.815-0.677l0.705,3.439l0.089,1.417l-0.124,2.678l0.124,0.646l0.467,0.371l1.242,0.085l0.581,0.332
		l2.265,0.822l5.369-1.599l2.2,0.542l1.296-0.725l4.962-0.902l1.644-0.524l3.805-1.983l1.281-0.436l1.316-0.25l1.371-0.031
		l6.055,1.064l1.262,0.677l0.581-0.43l1.028-0.506l1.729-0.6l3.785,1.536l0.358-0.466l0.228-0.174l0.149-0.241l0.099-0.655
		l2.901,0.71l0.665,0.881l1.083-0.167l0.358,0.113l0.079,0.494l-0.139,0.405l-0.218,0.399l-0.099,0.466l0.507,1.888l1.321,0.804
		l1.818,0.149l2.831-0.167l1.738-0.402l0.944,0.055l0.209,0.183l0.293,0.347l0.412,0.335l0.566,0.158h1.858l3.368-0.56l1.51,0.472
		l0.894,0.058l0.934-0.53l0.417,0.56l0.457-0.56l1.113,1.075l0.844,1.205l1.053,0.983l1.728,0.405l1.729-0.246l9.576-3.625
		l1.286-0.259l0.7,0.158l1.291,0.703l0.929,0.161h3.576l-0.442,1.017l-0.695,0.858l-1.401,1.232l0.452,0.466l-0.373,0.685
		l-0.06,0.593l0.253,0.468l0.596,0.341l-0.074-1.302l0.308-0.593l0.497,0.091l0.487,0.733l-0.323,0.511v0.253l0.323,0.307
		l-0.348,0.554l-0.308-0.262l-0.219-0.079l-0.283,0.207l-0.477,0.602l0.179,0.66l-0.507,0.839l-0.447,1.113l0.323,1.514
		l-0.735,0.617l0.084,0.662l0.402,0.723l0.248,0.802l0.229,1.506l0.626,0.176l0.879-0.158l1.013,0.492l0.8,0.638l0.755,0.213
		l1.366-0.061l0.775-0.48l1.058-2.104l0.7-0.477l0.512-0.033l0.353-0.094l0.596-0.431l0.76-1.319l0.07-0.207l0.725-0.188
		l1.992-0.131l2.28-0.471l0.417-0.185l1.907-1.24l0.566-0.55l0.447-0.292l0.581-0.146l0.412,0.076l0.338-0.027l0.338-0.462h0.417
		l0.854,0.727l2.335,0.617l-0.695,0.742l1.311,0.711l1.55-0.155l1.485-0.69l1.118-0.888l-0.313-0.14v-0.085l-0.104-0.28l1.679-1.593
		l1.182-1.618l1.326-1.174l2.101-0.256l-0.457-0.977l0.656,0.027l0.219-0.027l-0.134-0.256l-0.154-0.548l-0.129-0.265H545.75z
		 M600.118,517.311l1.296,1.245l0.253,0.802l-0.298,1.586l-1.565-0.396l-1.579,0.643l-1.177,1.412l-0.298,1.917l0.134-0.219
		l0.114-0.219l0.209-0.128l0.417,0.055l-0.318,0.6l-0.477,0.579l-0.606,0.503l-0.725,0.366l0.417-1.228l-0.477-0.436l-0.864-0.11
		l-0.745-0.274l-0.556-0.686l-0.412-0.851l0.074-0.729l0.894-0.335v-0.464h-0.417v-0.512l1.023-0.268l0.06-0.784l-0.666-2.068
		l0.045-1.065l0.184-0.653l0.07-0.552l-0.298-0.803l-0.492-0.406l-1.584-0.986l-0.427-0.654l0.089-0.999l0.447-1.017l0.551-0.788
		l0.372-0.321l1.44-0.877l0.507-1.919l0.258-1.92l1.599-1.85l0.467-2.175l0.04-2.286l-0.348-1.286v-0.514l0.874-0.56h0.407v0.56
		h0.417l0.338-0.441l0.914-1.148l0.526-0.429l0.442-0.092l0.363,0.162l0.338,0.358l-0.218,1.004l-0.844,1.427l-0.189,0.955v1.8
		l0.079,0.649l0.323,0.759l0.015,0.643l-0.358,0.557l-0.705,0.701l-0.705,0.902l-0.318,1.174l-0.258,0.667l-0.591,0.703l-0.591,0.92
		l-0.258,1.302l-0.015,1.14l0.124,0.507l1.589,1.222l1.475,2.681l0.402,0.44l0.338,0.238l-0.268,0.525l-0.457,0.519l-0.238,0.204
		l-0.045,0.504l-0.035,0.037l0.099,0.024L600.118,517.311z M360.016,488.992l1.093,0.865l1.212,0.484l0.914,1.1l0.154,2.693h-0.417
		l-0.358-0.705l-1.52-1.584l-0.507-0.827l-0.392-0.898l-0.561-1.64l0.263-0.034l0.069,0.107v0.199L360.016,488.992z
		 M343.764,457.957l3.979,2.844l1.068,1.241l0.576,1.296l-0.368,0.32l-0.914,0.037l-1.013,0.462l-0.477,0.751l-0.243,0.991
		l-0.149,4.424l-0.313,0.123l-0.894-0.095l-1.088-0.292l-0.73,0.129l-0.715,0.726l-0.194-1.098l-0.631-0.483l-1.689-0.532
		l-0.07-0.231l0.07-0.326l0.03-0.295l-0.238-0.129l-0.844,0.055l-0.189-0.055l-0.318-0.486l-0.576-1.219l-0.358-0.412l0.526-4.252
		l-0.07-1.737l-0.457-1.756l-0.348-0.835l-0.204-0.672l0.119-0.768l1.892-3.253l0.73-0.617l0.72,0.45l2.434,4.493L343.764,457.957z
		 M510.013,452.262l0.849-0.321l0.576-0.629l0.541-0.426l2.146,0.91l1.982,1.777l1.202,0.194l-0.507,1.008l-0.536-0.114
		l-0.586-0.561l-0.661-0.333l-0.969,0.179l-0.73,0.352l-0.79,0.21l-1.58-0.333l-0.278,0.018l-0.189-0.065l-0.397-0.555l-0.268-0.521
		l-0.134-0.537L510.013,452.262z M662.851,448.54l-0.849,1.105l0.641,3.406l-1.252,0.716l-0.283,0.45l-0.372,2.651l-0.467,0.811
		l-1.341,1.63l-0.278,0.943l-0.149,2.132l-0.308,0.918l-0.541,0.385l-0.372,0.496l-0.765,2.333l-0.328,0.739l-0.174-0.077
		l-1.078-0.009l-0.412,0.086l-0.144,0.308l-0.109,0.523l-0.238,0.498l-0.576,0.218l-1.47,3.663l0.556,0.415l0.487,0.274l0.482,0.172
		l0.596,0.123l-0.164,0.621l-0.238,0.529l-0.373,0.479l-0.477,0.479l0.253,0.32l0.581,1.226l-3.174-1.005l-1.262-0.043l-1.435,0.531
		l-2.747,1.732l-0.983,1.032l-2.439,4.03l-1.758,2.332l-2.205,2.052l-2.866,1.787l-2.513-1.741l-0.402-0.147l-0.144-0.503
		l-1.103-2.331l0.8-1.092l1.753-5.28l0.363-1.871l-0.179-1.693L632.766,474l-0.834-0.639l-1.485-1.697l-0.094-0.372l0.383-0.587
		l-0.079-0.354l-0.571-0.452l-0.387,0.068l-0.343,0.006l-0.407-0.655l1.003-0.397l2.369-1.668l1.455-0.511l0.526-0.425l-0.278-0.616
		l0.526-0.428l0.124-0.415l0.005-0.499l0.139-0.674l0.407-0.952l0.427-0.693l0.556-1.201l0.283-0.305l1.803-0.511l0.278-0.284
		l0.457-0.665l2.036-2.117l0.457-0.842l0.571-0.573l3.636-1.258l6.81-3.683l0.914-0.716l1.992-0.978l3.998,0.244l1.828-2.352
		l0.521-0.04l0.531,0.472l0.527,0.843V448.54z M488.436,444.965l2.19,0.701l2.101,1.529l1.634,1.963l0.745,2.024l-0.129,1.506
		l-0.566,1.514l-0.909,1.169l-1.128,0.462l-1.232-0.123l-2.841-0.832l-1.113-0.592l0.715-0.37l1.44,0.025l0.76-0.173l0.596-0.49
		l0.581-1.166l0.492-0.417l-0.412-1.987l-0.288-0.759l-0.551-0.407v-0.466l0.343-0.945l-0.904-0.522l-2.354-0.655v-0.519
		l0.278-0.139l0.288-0.207L488.436,444.965z M611.403,448.074l-0.571,1.352l0.74,0.812l1.286,0.114l1.088-0.722l0.209,0.232
		l0.089,0.231l0.08,0.571l-0.363,0.762l-0.641,0.703l-0.755,0.37l-0.705-0.238l-0.308,0.358l-0.556-0.358l-0.745,0.108l-0.805-0.861
		l-0.447-1.277l0.328-1.12l-0.805-0.472l-0.7,0.213l-0.566,0.596l-0.432,0.698h-0.417l-0.343-0.667l-0.76-0.562l-0.149-0.605
		l0.045-1.525l0.114-0.723l0.219-0.63l0.586,1.195l0.904-0.318l1.008-0.877l0.869-0.47l0.775,0.55l0.805,2.143L611.403,448.074z
		 M548.253,432.941l1.902,0.102l2.27,1.355l1.768,1.677l0.397,1.061l-0.367,0.38l-0.308,0.065l-0.298-0.281l-0.328-0.68
		l-0.914,0.829l-0.844,0.281l-1.778-0.074l-0.82,0.263l-0.626,0.665l-0.879,1.716l-0.06,0.992l0.109,0.943l-0.477,0.476l-1.46,0.136
		l-1.023-0.432l-1.142-2.021l-0.993-0.612l0.144-0.538l0.089-0.21l0.224-0.291l-0.556-0.891l-0.174-1.089l0.303-0.631l0.844,0.489
		l0.884-0.538l1.038,0.646l1.018,0.974l0.805,0.473l0.561-0.281l0.596-1.045l0.328-0.229l0.69,0.099l0.526,0.161l0.487,0.031
		l0.606-0.291l-0.825-0.452l-0.328-0.712l0.243-0.65l0.03-0.217l-0.656-0.229l-0.531-0.396l-0.477-0.464V432.941z M640.276,436.62
		l0.045,0.891l0.119,0.649l0.253,0.581l-0.561,0.362l-0.273,0.111l0.303,0.164l0.248,0.216l0.169,0.297l0.114,0.408l-1.356,0.804
		l-0.7,0.198l-0.899-0.009v-0.473l0.358-0.173l0.517-0.538l0.412-0.328l-2.652-0.927l-0.82-0.519l0.939-0.677h-2.921l0.417-0.708
		l0.671-0.792l0.556-0.81l0.055-0.804l0.283-0.025l0.169-0.118l0.383-0.421v0.563l1.013-1.306l1.455-0.814l1.162-0.152l0.124,0.672
		l-1.699,0.517l-0.79,0.557l-0.427,1.046l0.561-0.223l0.253-0.003l0.432,0.795l2.086-1.652l0.134,0.282l0.045,0.071l0.06,0.04
		l0.179,0.17l-0.328,0.266l-0.209,0.297l-0.149,0.297l-0.149,0.229l0.417-0.316l0.204,0.093l-0.02,0.445L640.276,436.62z
		 M457.07,430.861l4.868,3.111l0.964,1.658v0.47l-1.57-0.105l-0.924-0.346l-1.669-1.671l-0.983-0.65l-0.974-0.409l-0.834-0.665
		l-0.546-1.393l1.272-0.056L457.07,430.861z M474.042,426.701l2.414,0.056l-0.164,0.211l-0.04,0.341l0.06,0.434l-3.288,3.49
		l-2.225,1.805l-1.569-0.096l2.275-4.678l0.72-0.245l1.217-1.075L474.042,426.701z M267.621,424.104l0.969,0.493l0.094,0.846
		l-0.219,1.221l-0.01,1.598l-0.378-0.471l-0.219-0.192l-0.129-0.248l-0.109-0.651l-0.835,0.57l0.343-2.188l0.209-0.821
		L267.621,424.104z M433.035,424.625l2.339-1.283l1.262-0.307l0.775,1.069l-0.174,0.828l0.174,4.136l-0.517,0.564l-1.172,0.588
		l-2.061,0.641l-7.326,0.167l-2.295,0.919l-0.248-1.096l0.512-1.66l-0.263-0.929l0.263-0.211l0.273-0.452l0.298-0.328l-0.566-0.44
		l-0.268-0.13l0.591-0.601l0.492-1.364l0.581-0.632l0.293,0.419l0.392,0.418l0.462,0.384l0.522,0.335l0.84-0.18l0.725,2.181
		l1.177,0.601h2.086l0.656-0.372l-0.179-0.83l-0.571-0.88l-0.526-0.521l-0.834,0.462l-0.596-0.483l-0.512-0.858l-0.601-0.676v-0.521
		l0.695-0.781l0.795,0.459l1.048,0.887L433.035,424.625z M443.282,421.453l0.854,0.447l0.581,0.629l0.119,0.812l-0.512,1.023
		l-0.889,0.251l-0.919-0.784l-1.316-1.81l0.835-1.042l1.028,0.028l0.313,0.127L443.282,421.453z M481.776,426.701l0.139-0.155
		l0.07-0.049l0.074-0.074l0.134-0.242l-0.526,0.068l-1.182-0.068l0.323-0.7l0.323-1.051l0.159-0.948l-0.139-0.419l2.702-2.084
		l0.765,0.996l1.018,1.845l0.72,0.806l1.093,0.577l1.093,0.341l0.954,0.542l0.611,1.187l-0.76,0.143l-0.417,0.52l-0.04,0.719
		l0.348,0.694v0.474l-1.341,1.917l-2.156-1.108L481.776,426.701z M263.449,425.139l0.07-2.7l0.238-1.163l0.526-0.813l0.308,0.18
		l0.238,0.214l0.268,0.149l0.397-0.028v0.475l-0.268,0.152l-0.278,0.248l-0.248,0.168l0.015,0.791l-0.372,0.707l-0.497,0.741
		L263.449,425.139z M441.201,417.858v0.521l-0.472,0.534l-1.689,3.061l-0.998,0.121l-1.013-0.316l-0.452-0.564l-0.174-0.896
		l-0.333-0.521l-0.179-0.524l0.303-0.893l0.492-0.537l0.795-0.484l0.889-0.242l0.745,0.22l0.373,0.316l0.358,0.161l0.397-0.074
		l0.507-0.403l0.109,0.223l-0.015,0.133l0.045,0.09L441.201,417.858z M490.94,418.119l0.442-0.881l1.013-1.018l1.465-1.012h0.452
		l-0.452,0.568l0.333,0.04l0.129,0.205l-0.045,1.896l-1.217,0.785l-1.431,0.168L490.94,418.119z M604.33,412.366l0.646,1.227
		l3.02,0.758l0.904,1.425l-1.977,1.108l-6.666,1.893l-1.431,0.881l-3.715,3.926l-1.272,0.192l-1.58-0.223l-1.411-0.471l-0.765-0.586
		l-3.387,1.637l-0.993,0.976l0.626,1.593l-0.874,0.276l-0.367,0.815l0.055,1.053l0.387,0.975l-1.073-0.214l-1.103-0.842
		l-0.849-1.022l-0.343-0.756l0.154-2.668l0.368-1.1l0.695,0.366l0.288-0.415l0.7-0.738l0.298-0.409l0.323,0.251l1.341,0.791
		l0.824-0.828l0.487-0.71l0.81-1.582l2.101-1.837l0.368-0.509l6.288-3.955l6.189-0.981L604.33,412.366z M502.264,414.211
		l0.363-0.764l0.626-0.382l0.77-0.342l0.745-0.64l0.596,0.317l1.525,1.242l-0.636,0.894l-1.182,0.043l-1.406-0.286L502.264,414.211z
		 M526.508,409.999l0.805,1.053l0.998,0.926l1.147,0.721l1.222,0.422l0.03,0.36l-0.099,0.093h-0.159l-0.189,0.068l-1.053-0.441
		l-1.108,0.23l-0.978,0.342l-0.616-0.13l-0.909,0.922l-2.588,1.897l-0.874,0.357l-0.785,0.649l-1.699,2.867l-0.849,0.645
		l-4.942,1.693l-2.633,0.214l-1.008-1.907l0.869,0.475l0.457-0.785l0.814-0.614l0.904-0.161l0.71,0.571h0.417l0.412-0.388
		l0.541-0.146l1.371,0.012l0.238-0.276l0.839-1.809l-0.705,0.366l-0.372-0.419l-0.104-0.648l0.104-0.338l0.68-0.115l7.033-3.583
		v-0.472l-0.353-0.186l-0.209-0.162l-0.243-0.137l-0.487-0.081v-0.522l1.689-0.497l0.725-0.441l0.497-0.624H526.508z
		 M470.064,408.952l-0.879-0.193l-1.197-1.075l-1.008-1.508l-0.283-1.446l0.586-1.073l1.083-0.952l1.192-0.597l0.924,0.016
		l-1.118,4.006l-0.591,1.259l0.387,0.336l0.348,0.37L470.064,408.952z M447.072,402.646l0.72,1.151l2.165,2.622l0.795,2.229
		l0.07,0.566l-0.189,0.292l-0.864,0.46l-0.199,0.292l-2.116,2.392l-0.904-1.454l-1.033-2.156l-0.591-2.061l0.447-1.157v-0.522
		l-0.651-0.538l-0.72-1.288l-0.72-0.261l0.035-0.376l0.074-0.227l0.343-0.485l-0.243-0.069h-0.139l-0.05-0.1l-0.02-0.355h0.834
		l1.45,1.22l0.586,0.28l0.502-0.454H447.072z M581.79,409.474l0.526-0.994l0.288-0.326l0.392-0.289l-0.372-1.132l0.278-0.939
		l0.536-0.809l0.392-0.731l0.134-0.159l0.239-0.383l0.164-0.513l-0.119-0.554l-0.507-0.426l-0.521,0.084l-0.407,0.249l-0.233,0.093
		l-0.452-0.498l-0.288-0.405l-0.546-1.189l-0.457-0.492l-0.432-0.159l-0.204-0.352l0.258-1.086l0.72,0.956l5.151,2.178v0.523h-0.8
		l0.566,1.011l0.8,0.448l0.646,0.513l0.075,1.204l0.507-0.634l0.521-0.302l0.521,0.025l0.536,0.342l0.184,0.889l-0.452,1.359
		l0.268,0.886l-0.303,0.513l-0.084,0.227l-0.065,0.348h0.452v-0.519h0.382l-0.437,1.097l-1.023,0.003l-1.843-0.581l-0.313,0.454
		l-0.129,0.687l-0.169,0.624l-0.447,0.273l-0.596-0.143l-0.462-0.242l-0.417-0.05l-0.417,0.435l-0.447-0.696l-0.482-0.59
		l-0.531-0.329L581.79,409.474z M514.394,397.423l-0.119,0.324l-0.025,0.069l-0.05,0.019l-0.224,0.162l-1.222-2.146l1.028,0.056
		l0.76-0.28l1.515-0.819l-0.159,0.567l-0.224,0.477l0.536,0.788l0.298,0.258l-0.323,0.607l-0.467,0.386l-0.611,0.031
		L514.394,397.423z M482.193,401.601l-0.671,0.205l-0.353,0.473l-0.268,0.66l-0.417,0.753l-0.427,0.526l-0.77,0.725l-1.694,1.234
		l-0.974,0.28l-2.175-0.112l-0.581-0.252l-1.306-1.11l-0.636-0.252l-0.497-0.383l-0.02-0.874l0.606-2.937l0.755-0.903l1.887-1.167
		l-0.427-0.283l-0.417-0.109l-0.407,0.084l0.874-1.28l1.738-1.448l1.907-1.115l1.768-0.598l-0.904,1.34l0.487,0.523l1.669,0.271
		l0.834-1.044l-0.164-0.302l-0.253-0.788l0.834-0.069l0.824,0.069l-0.119,0.583l-0.199,0.589l-0.238,0.542l-0.268,0.421
		l-1.028,2.613l-0.005,1.09l1.033,0.483v0.52h-0.834v0.573h0.834V401.601z M497.228,390.316l0.462-0.34l1.003,0.527l1.49,1.169
		l0.715,1.371l0.378,1.387l0.159,3.28l-0.139,1.438l-0.596,3.143l-0.134,1.683l-1.728,3.731l-0.313,0.277l-0.427,0.093l-0.869,0.357
		l-2.121,2.085l-0.695,0.283l-1.152,0.298l-0.685,0.463l-0.139-0.481l-0.238-0.103l-0.422-0.46l-0.268-0.547l-0.363-1.535
		l-0.204-0.572l-0.392-0.479l-1.694-1.042l0.268-0.413l0.045-0.454l-0.169-0.479l-0.353-0.504l-0.293-0.594l-0.06-0.619l0.079-0.482
		l0.065-0.153l-0.924-1.867l-0.7-0.903l-0.834-0.411v-0.476l0.348-0.339l0.298-0.131l0.263,0.106l0.303,0.364l0.621-0.467
		l2.295-2.672l3.978-2.898l0.343-0.467l0.909-1.624l0.437-0.199l1.212-0.112L497.228,390.316z M431.163,391.672l-0.457-0.524
		l1.957-1.281l1.058-0.309l0.775,0.496h0.417l0.283-0.402l0.313-0.084l0.343,0.159l0.343,0.327l0.363,1.076l0.159,1.375l-0.01,1.48
		l-0.129,1.396l-0.383-1.096h-0.447l0.005,0.947l-0.219,0.704l-0.437,0.533l-0.601,0.43l-0.144-0.215l-0.035-0.1l-0.06-0.078
		l-0.179-0.177l-0.03-0.346l0.114-0.072l0.159,0.025l0.174-0.084l-0.521-0.318l-0.536-0.121l-0.517,0.103l-0.512,0.336l-0.124-0.729
		l-0.159-0.284l-0.223,0.1l-0.323,0.442l-0.517-0.333l-0.467,0.022l-0.387,0.296l-0.338,0.486l-0.209-0.894l0.169-0.193l0.526-0.48
		l-0.427-0.414l-0.03-0.374l0.288-0.374l0.517-0.402l-0.209-0.567l0.119-0.246L431.163,391.672z M350.887,383.25l0.358,0.293
		l1.023,0.596l0.452,0.415l0.243,0.54l0.139,0.808l-0.144,0.736l-0.631,0.324l-1.281-0.287l-0.735-0.699l-0.601-0.867l-0.899-0.811
		l0.427-0.478l0.497-0.337l0.546-0.187L350.887,383.25z M378.885,376.916l-0.978,0.965l-1.431,0.653l-1.49,0.247l-1.108-0.247
		l0.223,1.531l-0.73,0.759l-1.267,0.253l-1.371,0.028l-3.487,1.009l-1.356,0.041v-0.525l5.454-3.67l1.465-0.475l2.742-0.031
		l1.247-0.537H378.885z M426.538,373.766l0.422-2.039l1.271-1.414l1.46-1.133l1.013-1.186h0.457v1.099l-0.154,0.601l-0.417,1.089
		l-0.233,0.363l2.374,1.426l0.81,1.157l-0.298,1.66l-0.879-0.281l-0.646,0.847l-0.407,1.356l-0.149,1.225l-0.854,0.847l-1.093,1.14
		l-1.391,0.771l-1.286,0.337l0.536-2.72l0.541-1.243l1.008-0.75v-0.478l-0.273-0.166l-0.263-0.266l-0.298-0.141v-0.478l0.512-0.822
		l-0.124-0.788l-0.626-0.388L426.538,373.766z M489.236,373.287l-0.77-0.122l-4.614,0.6l0.139-0.6l-0.025-0.225l-0.065-0.138
		l-0.05-0.322l0.139-0.579l0.288-0.172h0.298l0.149-0.06l0.313-1.821l-0.243-0.626l-0.944-0.131l0.348-1.192l0.715-0.529
		l0.815-0.344l0.626-0.657l1.788,3.13l0.293-0.172l0.214-1.558l0.596-0.31l1.917,0.535l0.248,0.169l0.333,0.379l0.447,0.372
		l1.177,0.385l0.164,0.513l-0.149,0.663l-0.358,0.669l-0.899,0.394l-1.157-0.016l-0.969,0.329l-0.313,1.435H489.236z
		 M461.66,371.955l0.164,0.191l0.382,0.256l0.417,0.369l0.278,0.516l0.149,0.797l-0.129,0.463l-0.457,0.363l-3.68,1.95l-0.879,0.625
		l-0.03-0.747l0.05-0.547l0.149-0.428l0.248-0.375v-0.572l-0.407,0.044l-1.262-0.044l0.164-0.694l0.253-0.569l0.358-0.463
		l0.477-0.375l-0.248-0.1l-0.586-0.375l1.133-0.269l0.695-1.029l0.278-1.314l-0.02-1.108l-0.372-1.675l-0.055-0.654l0.586-0.028
		l1.51,0.207l0.556,0.645l0.566,1.089l0.427,1.149l0.149,0.842l-0.159,0.544l-0.586,0.713L461.66,371.955z M372.18,362.693
		l0.273-0.044l0.085,0.113v0.207l0.06,0.251l0.482,0.764l0.536,0.501l0.656,0.276l0.859,0.078v0.479l-1.177,0.689l-1.535,0.251
		l-1.545-0.225l-1.197-0.714v-0.479l1.729-0.442l0.661-0.545L372.18,362.693z M470.69,360.637l-0.656-0.329l-2.046-2.351
		l-2.344-1.11l-0.656-0.47l-0.422-0.624l-0.402-0.928l-0.179-0.941l0.209-0.665l0.795-0.232l3.378,0.232l0.278,0.119l0.586,0.364
		v0.571h-0.457v0.527l0.621,0.044l0.452,0.22l0.353,0.351l0.283,0.439l0.969-0.7l1.157,0.16l1.043,0.69l0.586,0.9l0.939-1.138
		l1.699,0.348l1.853,0.884l1.381,0.433l-0.417,0.527l0.522,0.191l0.333,0.477l0.233,0.665l0.164,0.774l-1.5,2.09l-0.452,1.961
		l-0.69,0.348l-2.811-0.442l-1.699-1.084l-1.013-0.244l-0.606-0.326l-0.75-1.41L470.69,360.637z M426.956,352.647l1.694,2.353
		l-0.412,2.396l-1.565,2.276l-1.798,1.968l-1.689,2.412l-1.192,0.965l-1.103-0.46l-0.015-1.071l0.293-3.863l-0.084-0.658l-0.03-1.43
		l0.685-1.731l0.998-1.195l0.914,0.191l0.442-0.511l0.363-0.587l-0.626,0.041l-0.179-0.041v-0.483l0.596-0.395l0.566-0.176
		l0.507,0.107l0.382,0.464h0.417l0.035-0.477l0.179-0.082l0.278,0.057L426.956,352.647z M548.253,352.647l-1.073,2.065l-1.555,1.945
		l-5.399,4.846l-1.023,0.479l-5.245,0.717l-1.202,0.52l-0.631,0.482l-1.197,1.171l-0.666,0.445l-0.581,0.197l-0.432-0.019
		l-0.492-0.113l-0.79-0.066l-2.384,0.664l-0.879-0.219l-0.273-1.497l0.482-1.015l1.992-2.03l0.447-0.871l0.407-1.116l0.954-1.248
		l1.118-1.054l0.849-0.555l1.51-0.091l3.507,0.483l1.271-0.392l1.232,0.433l1.818-0.564l1.649-0.957l1.619-1.807l2.007-0.596
		L548.253,352.647z M376.382,345.845l1.038,0.474l-0.387,0.82l-0.725,0.971l0.074,0.895l-0.859,0.628l-0.154,0.835l0.035,0.891
		l-0.273,0.81l-0.507,0.32l-1.386,0.37l-0.641,0.358l-0.462-0.471l-0.318-0.248l-0.854-0.329v-0.527l0.71-0.442l-0.045-0.732
		l-0.546-0.681l-0.78-0.301l-0.74-0.49l-0.447-1.093l-0.159-1.084l0.069-0.496L376.382,345.845z M590.085,349.486l0.685-0.506
		l0.397,0.364l0.08,0.829l-0.328,0.895l-1.48-0.474l-2.205,0.483l-5.543,2.203l-0.566,0.358l-0.665,0.634l-0.368,0.543l-0.119,0.395
		l-0.189,0.32l-0.576,0.323l-0.517,0.1l-3.874-0.1l-0.606-0.195l-0.248-0.477l-0.139-0.612l-0.243-0.583l-0.989-1.603l-0.606-0.54
		l-1.445-0.377l-0.661-0.757l-0.502-0.169l-0.541,0.085l-0.964,0.358l-1.609,0.226l-0.998,0.421l-0.76,0.678l-0.338,0.91h-0.452
		v-0.571h-0.383l-0.661,0.7l-0.541-0.762l-0.367-1.318l-0.134-0.967l-0.065-1.859l0.228-0.886l0.671-0.704l1.043-0.327l1.088-0.157
		l0.854-0.368l0.348-0.99l0.516-0.585l6.944-1.647l2.111-0.031l2.176,0.415l0.834,0.5l1.594,1.336l2.126,0.584l2.359,1.615
		l0.656,0.707l0.233-0.851l-0.348-0.675l-0.601-0.698l-0.566-0.939l1.008,0.333l0.735-0.006l0.606-0.314l0.601-0.585l0.035,0.937
		l1.649,0.528l2.861,0.214l-1.743,0.798l-0.333,0.207l-0.099,0.634l0.238,0.55l0.373,0.622L590.085,349.486z M214.961,344.453
		l1.013,2.096l4.202,2.733l0.581,2.361l-0.81-1.004l-1.753-0.892l-2.041-0.603l-1.649-0.138l-0.899,0.405l-0.566,0.7l-0.402,0.659
		l-0.417,0.298l-0.79,0.399l0.015,0.898l0.343,0.897l0.223,0.439l-0.104,1.017l-0.273,0.47l-0.665,0.138h-1.272l-0.442-0.351
		l-1.873-2.328l-3.015-2.486l-1.43-1.532l-0.134-1.25l-1.326-1.191l-2.32-3.177l-1.401-0.905l0.427-0.896l-0.268-1.305l0.343-0.488
		l-0.502-0.525l2.473-3.568l1.57-1.473l1.421,0.337l0.045,0.246l0.005,0.189l0.278,0.337l-0.045,0.164l1.252,2.417l0.477,1.517
		l0.641,0.572l1.51,0.893l1.932-0.481l2.518,1.016l2.19,1.736L214.961,344.453z M464.61,346.323l0.164,1.09l-0.541,1.398
		l-0.874,1.338l-0.835,0.92l0.129,0.32l0.248,1.258h-0.378l-0.477-0.759l-1.391-1.08l-0.665-0.747l-1.133-3.241l-0.328-0.496
		l-0.939-0.1l-0.7-0.333l-0.626-0.585l-0.656-0.852l-0.983-1.921l-0.705-0.509l-1.013,0.61l-0.353-2.151l-1.128-1.425l-1.331-1.095
		l-0.939-1.186h-0.417l-0.432,0.762l-0.517,0.217l-0.243-0.406l0.358-1.101l-0.531-0.617l-0.844-1.398l-0.71-0.623l0.72-0.22
		l0.055-0.365l-0.238-0.529l-0.154-0.712l0.214-0.734l0.507-0.532l3.363-1.853l1.346-0.284l0.894,0.476l-0.085,0.832l0.144,0.482
		l0.358,0.217l0.611,0.054l0.626,0.252l0.566,0.564l0.278,0.564l-0.238,0.252l-0.02,0.372l0.437,1.722l0.199,0.501l0.462,0.321
		l1.624,0.686h4.813l0.601,0.711l-0.278,1.58l-0.964,2.554l2.533,2.113l-0.397,0.349l-0.169,0.104l-0.268,0.075l0.05,0.987
		l-0.392,0.66l-0.442,0.509l-0.05,0.528l0.417,0.437l0.983-0.405L464.61,346.323z M367.973,336.248l-0.382-0.573v-0.478l0.417-0.756
		l0.849-0.856l1.013-0.51l1.773,0.586l0.805-0.749l0.631-1.128l0.348-0.819l-0.74,0.047l-0.536,0.397l-0.462,0.45l-0.536,0.214
		l-0.527-0.126l-1.142-0.463l-0.676,0.009l2.156-1.052l-0.805-0.428l-0.899-0.681l0.69-0.069l0.656,0.044l0.616,0.202l0.541,0.403
		l0.134-0.574l0.134-0.12v-0.041l-0.268-0.321l0.472-0.369l0.497-0.183l0.546-0.05l1.401,0.214l0.75,0.35l0.387,0.507l-0.303,0.586
		l0.05,0.416l0.134,0.532l0.363,0.454l0.383,0.268l-0.094,0.101l0.035,0.391h1.669l-2.086,1.008l0.253,0.825l-1.326,1.152
		l-0.214,1.19h-0.382l-0.651-0.579l-0.566,0.463l-0.646,0.802l-0.879,0.425l-0.894-0.091l-1.893-0.585L367.973,336.248z
		 M204.72,323.563l-0.924-0.303l-0.785-0.722l-1.46-1.72l-1.748-1.035l-2.344-0.672l-2.066,0.338l-0.964,1.95l-1.132-0.909
		l-2.235-0.679l-0.835-1.061l-0.189-0.691l-0.119-1.44l-0.109-0.568l-0.998-1.772l-0.253-0.831l0.76,0.205l1.018,1.027l0.725,0.36
		v-0.575l-0.974-0.935l-0.606-1.176l-1.639-4.224l-0.715-1.164l-0.626-0.203l-0.437,1.332l0.02,1.252l0.477,2.57l-0.079,1.53
		l-0.576,1.359l-0.79,0.556l-0.849,0.395l-0.745,0.872h-0.378l-0.367-1.336l-1.748-1.017l-0.387-1.403l0.243-0.642l0.477-0.778
		l0.372-0.787l-0.089-0.692l-0.238-0.655l0.134-0.569l0.343-0.43l0.387-0.225l0.849-0.958l0.76-2.031l0.372-2.535l0.104-2.441
		l0.338,1.108l0.079,0.488h0.417l0.835-1.539l0.477,0.558l0.457,1.438l0.765,1.14l0.497-0.655l0.228,0.453l0.214,0.82l0.522,0.44
		l0.611-0.253l1.068-1.127l1.421-0.798l0.546-1.292l0.05-1.568l-0.527-1.388l1.242,0.536l-0.735-2.608l-0.089-0.58l0.119-1.027
		l0.199-0.837l0.04-0.714l-0.358-0.666v-0.485h2.076l3.298,9.518l0.114,0.637l-0.094,1.178l-0.368,0.639l-0.576,0.532l-0.705,0.836
		l0.492,0.709l1.425,2.765l0.755,0.354l0.859-0.709l0.834-0.993l0.671-0.531l-0.134,0.266l-0.164,0.544l-0.119,0.304l1.142,0.247
		l0.368,0.8l0.149,1.066l0.427,1.062l2.583,2.345l0.665,2.047l2.166,3.035l0.447,1.203l0.169,1.259l-0.189,1.287l-0.611,1.306
		l-0.328,0.085l-1.565-0.379l-0.566,0.085l-0.671,0.401L204.72,323.563z M203.637,297.953l0.745,0.219l0.656,0.387l1.142,0.992
		l-0.293-0.041l-0.924,0.041l0.373,2.112l0.387,0.754l0.834,0.326v0.579l-1.684,0.234l-1.018,0.345l-0.829-0.206l-1.098-1.437
		l0.457-0.532l-0.909-0.998l-0.8-1.178l-1.202-2.658l-0.114-0.593l-0.164-1.772l-0.179-0.824l-0.462-0.45l-0.686-0.469l-0.417-0.679
		l0.303-1.113l0.979,0.657l0.531-0.444l0.626-1.809l1.063,0.336l0.134,0.977l-0.363,1.12l-0.427,0.761l1.043-0.076l0.671,0.301
		l0.541,0.46l0.665,0.428l-0.372,1.604l-0.472,1.35l-1.242,2.414l0.462,0.292l0.611,0.203l0.7,0.063l0.73-0.079v-0.478l-0.834-0.583
		h1.242L203.637,297.953z M217.385,281.404l-1.331,1.964l-0.606,1.261l-0.109,1.086h-0.835v-0.581l2.335-3.634L217.385,281.404z
		 M536.134,286.201l-0.775,0.965l-0.104,1.555l-0.293,1.371l-1.371,0.419l0.477,0.707l0.258,0.2l0.516,0.152l-0.367,0.485
		l1.078,0.035l0.03,0.498l-0.74,1.113l-0.184,1.179l-0.005,0.98l0.646,5.864l0.834,3.185l-1.619,0.234l-1.435,1.196l-0.69,1.753
		l0.601,1.882v1.157l-1.46,0.778l-2.936,0.964l-0.487,0.815l-0.378,1.75l-0.378,0.613l-0.606,0.196l-1.262-0.55l-0.869-0.171
		l-0.626-0.455l-1.356-1.794l-0.253-0.117l-0.253,0.076l-0.586-0.591l-0.586-0.926l-0.273-0.926l-0.283,0.148l-0.695,0.199
		l-0.278,0.142l0.03-0.528l-0.06-1.075l0.03-0.522l-1.008,0.642l-0.442-0.462l0.089-1.091l0.532-1.212l0.591-0.512l0.795-0.297
		l1.118-0.253l0.328-0.25l0.71-0.813l1.495,0.111l0.343-0.111l0.397-0.911l0.035-0.956l0.253-0.823l1.013-0.494l-0.318-0.874
		l0.124-1.907l-0.224-0.992l-0.109,0.314l-0.01,0.076l-0.07,0.013l-0.258,0.133l-0.278-0.589l-0.368-0.45l-0.467-0.33l-0.556-0.228
		l0.343-0.691l-0.045-1.065l-0.308-1.119l-0.407-0.847l-0.73-0.761l-0.686-0.254l-0.805-0.146l-1.078-0.438l-0.889-0.749
		l-1.952-2.478l-0.527-1.032l-0.114-1.213l0.328-0.864l0.432-0.838l0.223-1.131l8.94-1.862l1.252,0.172l2.935,0.937l0.139,0.534
		l2.563,3.154l0.159-0.343l0.089-0.353l0.189-0.27l0.397-0.102l0.04-0.343l-0.074-0.114l-0.149-0.019l-0.194-0.057l0.914-0.305
		l0.785,0.219l0.671,0.657L536.134,286.201z M501.057,280.82l0.387,0.607l1.654,1.573l0.03,0.369l-0.089,0.102h-0.174l-0.218,0.064
		l-0.477,2.773l-0.129,0.476l-0.844-0.156l-0.631-0.254L500,286.322l-0.656,0.46l-0.209-0.724l0.114-0.518l0.159-0.438l-0.065-0.502
		l-0.243-0.353l-0.705-0.715l-0.298-0.534l-0.745-0.619l-0.303-0.442l0.179-0.534l0.417-0.206l0.382,0.175l0.288,0.324l0.164,0.242
		l0.363-0.547l0.457-0.384l0.477-0.054l0.407,0.451h0.383v-0.585H501.057z M195.68,280.336l-0.566,0.776l-0.656,1.115l-0.864,1.887
		h-0.407l0.02-1.967l1.063-7.542l1.152-2.591l0.258-1.582l1.043-2.908l0.586-0.322l0.497-0.765l0.795-1.641l0.73-0.912l1.137-1.004
		l1.366-0.711l0.144,0.281l0.094,0.402l0.73,0.344l0.954,1.119l0.253,1.202l0.06,1.112l0.392,0.895l-0.333,0.921l0.035,0.749
		l0.189,0.647l0.109,0.592l0.025,0.685l-0.055,0.408l-0.229,0.465l-1.44,2.088l-0.278,0.636l0.109,0.55l0.447,0.188l0.288-0.598
		l0.288-0.866l0.427-0.637l0.084,1.158l-0.194,4.224l-0.288,0.89l-0.397,0.105l-0.447-0.995h-0.417l0.129,0.366l0.288,1.237
		l-0.238-0.191l-0.636-0.343l-0.04,0.585l-0.114,0.311l-0.134,0.254l-0.09,0.451l-1.028-0.521l-0.969,0.181l-0.492,0.626
		l0.412,0.823v0.486l-0.651-0.067l-0.373-0.286l-0.099-0.512l0.248-0.731l-1.202-0.216l-0.69-1.545L195.68,280.336z
		 M445.373,265.329l0.124,0.233l0.149,0.185l0.119,0.309l0.055,0.612l-0.06,0.66l-0.179,0.076l-0.263-0.07l-0.328,0.191
		l-0.378,0.522l-0.402,0.456l-0.442,0.08l-0.487-0.577h-0.417l-0.621,0.497l-0.7-0.303l-0.566-0.739l-0.228-0.793l-0.368,0.086
		l-0.785,0.335l-0.725,0.717l-0.204,1.223l-2.091-2.628l2.538-1.071l-0.621-2.257l-0.417-0.558l-0.666,0.682h-0.348l-0.209-0.88
		l-0.527-0.262l-0.7,0.156l-0.715,0.399l0.005-0.829l-1.381-0.606l-0.293-1.193l-0.224,0.144l-0.194,0.392l-0.462-0.715
		l-0.536-0.357l-0.556,0.045l-0.566,0.491l-0.085-0.794l0.243-0.705l0.427-0.498l0.497-0.195l0.502-0.393l0.015-0.881l-0.313-1.405
		l0.025-1.156l0.209-1.009l0.616-0.722l1.237-0.326l4.227,2.894l0.81,0.907l0.119,0.76l-0.209,1.915l0.089,1.024l0.283,0.775
		l0.338,0.364l1.013,0.517l2.553,1.773l1.262,1.18L445.373,265.329z M439.949,316.051l-0.531,3.874l0.06,1.947l0.889,1.691
		l-0.507,1.091l-0.651,3.399l-0.541,1.28l-0.889,0.756l-1.242,0.696l-1.371,0.513l-1.296,0.195l-0.681-0.189l-0.243-0.46
		l-0.119-0.932l-1.415-2.332l-0.248-0.076l-0.854-0.747l-1.624,0.719l-1.018,1.191l0.959,0.665v0.58l-0.929,0.781l-0.924-0.12
		l-0.889-0.662l-1.133-1.26l-0.293-0.485l-0.417-0.952l-0.397-0.612l-0.407-0.47l0.01-0.454l0.795-0.577l-0.745-1.731l-0.556-0.533
		l-0.82,0.145l-0.363-1.268l-1.038-0.71l-1.257-0.114l-1.053,0.508l-0.834-0.508l-0.318,0.076l-0.526,0.432l0.01-0.353l0.04-0.151
		l0.119-0.041l0.248-0.035v-2.067l-0.487-0.436l-1.023,0.208l-0.189-0.59l0.258-0.556l1.142-1.143l0.298-0.708l-0.124-0.979
		l-0.899-1.049l-0.531-2.007l-0.77-0.667l-0.959-0.234l-0.879,0.202l0.378,1.068l-1.376-0.332l0.298-1.426l1.068-1.613l0.884-0.873
		l-0.586-1.05l-0.487,0.032l-0.467,0.547l-0.576,0.471l-0.104,0.212l0.025,0.361l-0.084,0.339l-0.462,0.145l-0.536-0.161
		l-0.03-0.345l0.209-0.367l0.149-0.184v-0.582h-0.844l1.262-2.658l-1.252-0.722l-1.321-0.516l-1.5-0.304l-1.798-0.095l1.48-0.465
		l0.616-0.371l0.437-0.76l-0.477-0.703l-0.119-0.694l0.06-0.513l0.079-0.165l-0.631-1.312l-0.417-0.545l-0.204,0.475l-3.546-0.269
		l-4.177,0.532l-1.222-0.162l-2.091-0.732l-0.874-0.168l-1.177,0.12l-1.863,0.437l-0.914-0.029l-4.212-1.062l-0.904,0.101
		l-1.942,0.545l-0.864-0.114l-0.651-0.767l-1.47-3.535l-0.209,0.308l-0.218,0.244l-0.313,0.111l-0.507-0.082l0.611-1.167
		l1.147-1.279l0.79-1.257l-0.467-1.089v-0.584h0.452v-0.483l-1.306-2.292l-0.864-1.048l-0.988-0.438l-2.667-0.413l-1.296-0.502
		l-0.834-0.68l-0.209-0.597l-0.06-1.373l-0.184-0.655l-1.425-1.148l-0.238-0.258l-0.194-0.258l-0.432-0.114l-0.432-0.334
		l-0.194-0.891l-0.243-0.573l-0.566-0.509l-1.843-1.158l-1.52-0.719l-1.723-1.887l-0.586-0.248l-0.372-0.344l-0.591-1.506
		l-0.303-0.338l-1.401-0.755l-5.965-4.522l-2.086-1.141l-1.5-0.485l-0.785-0.067l-1.013,0.067l-1.868,0.392l-0.879-0.073
		l-0.81-0.615l-1.187-1.569l-0.472-0.23l-0.824-0.048l-0.998-0.22l-0.929-0.405l-0.864-0.246l-0.795,0.287v0.584l0.859,0.026
		l0.819,0.325l0.492,0.692l-0.075,1.1l-0.546,0.44l-0.993,0.319l-6.695,0.628l-1.391,0.8l-0.045-0.874l0.089-0.902l0.224-0.711
		l0.373-0.287l0.482-0.246l1.43-1.069l0.591-0.242l1.401-0.338l2.767-1.512l1.838-0.476l1.758-0.938l1.46-0.533l0.224-0.233
		l0.268-1.073l0.134-0.297l0.705-0.243l1.252-0.045l0.536-0.3l0.427-0.648l0.219-0.744l0.005-0.696l-0.184-0.543l0.894-0.307
		l1.122-1.102l0.646-0.249h3.765l1.281-0.451l3.189-1.889l1.594-0.291l0.621,0.333l0.899,1.055l0.358,0.224l0.8,0.099l0.904,0.31
		l0.844,0.505l0.611,0.69l-0.442,1.495l0.626,1.176l1.217,0.76l1.286,0.275v0.789l1.013,3.604l0.472,1.012l0.045,0.852l0.705,1.467
		l1.113,1.393l2.697,1.167l2.637,2.298l1.594,0.36v0.589l-0.164,0.592l0.164,0.309l0.373-0.022l0.457-0.398l0.755,0.787l1.738,0.341
		l0.844,0.478l0.636-0.42l0.651,0.42l1.177-0.783l1.222,0.245l0.964,0.981l0.387,1.426l0.536,0.939l1.227,0.863l2.399,1.133
		l2.722,0.872l2.95,0.245l1.321,0.305l1.232,0.474l1.147-0.054l1.078-1.26l1.311,0.639l1.411,0.009l1.401-0.175l1.301,0.06
		l3.869,1.374l1.167,0.716l-0.626,0.21l-0.636,0.477l-0.531,0.677l-0.283,0.817l-0.03,1.3l0.328,0.744l5.469,4.609l0.939,1.34
		l-1.52,1.212l-1.122,2.551l-0.233,2.686l1.197,1.633v0.482l-1.152,0.38l0.189,0.685l1.381,1.647l0.129,0.925l0.015,1.226
		l0.104,1.061l1.43,1.808l0.129,0.769l0.303,0.411l0.298,0.228l0.134,0.209l-0.04,1.379l0.05,0.705l0.318,0.512l-0.616,1.015
		l-0.159,0.37l0.447,1.024l0.785,0.907l1.644,1.252l2.121,1.106l0.199,0.461l0.184,0.701l0.263,0.632l0.417,0.278l2.086-0.404
		l0.854,0.035l1.714,1.292l2.439,0.259l1.048,0.411l1.167-0.587L439.949,316.051z M369.677,238.919l-0.671-0.199l-0.656-0.09
		l-0.626,0.054l-0.551,0.234l0.209-1.377l0.73-0.529l0.785-0.163l0.363-0.298l0.268-0.846l0.661-0.907l0.825-0.775l0.75-0.433
		l0.998,0.606l1.033,0.933l0.556,1.24l-0.472,1.528l-0.983-0.759l-0.849,0.865l-0.894,2.043l-0.462-0.128l-0.507-0.676
		L369.677,238.919z M383.922,241.122l-0.641-0.381l-1.917-1.911l-0.397-0.666l-0.234-1.054l-1.848-3.028l0.864-0.49l0.055,0.407
		l0.169,0.09l0.253-0.045l0.323,0.038l1.435,1.577l1.684,1.41l1.897,1.127l2.066,0.724l-0.228,1.153l1.167,0.211l1.639-0.042
		l1.217,0.387v0.493l-1.977,2.163l-1.162,0.816l-1.49,0.24l-0.596-0.205l-0.884-0.717l-1.619-0.301l-0.487-0.39l0.025-0.519
		l0.685-0.557V241.122z M168.516,231.395l0.929,1.039l1.083,0.888l1.023,1.151l0.72,1.81l-1.247-0.042l-0.78-0.208l-0.611-0.5
		l-1.237-1.586l-0.631-1.09l-0.169-1.016L168.516,231.395z M400.209,233.005l-0.909,2.429l-1.575,2.255l-1.912,1.399l-1.892-0.17
		l0.834-1.115l0.844-0.698l0.735-0.865l0.993-2.939l3.079-4.91l1.053-0.767l-0.079,0.292l-0.04,0.286l-0.074,0.27l-0.224,0.279
		l1.341,0.26l-0.318,1.636l-1.038,1.748L400.209,233.005z M563.522,246.539v0.71l-0.139,1.359l-0.77,0.863l-1.818-0.786
		l-0.988,0.543l-0.735-0.339l-0.601-0.722l-0.626-0.607l0.447-0.486l-0.551-0.396l-0.089-0.403l0.119-0.406l0.075-0.403l0.065-0.265
		l0.348-0.857l0.035-0.49l-0.7-0.595l-0.129-0.259l-0.437-1.171l-1.013-0.352l-2.096,0.179l-1.093,0.621l0.974,1.344l2.379,1.846
		l2.25,3.29l1.118,0.949v0.585l-0.154,0.339l-0.055-0.013l0.06,0.089l0.149,0.658l-1.584,0.7l-1.947,0.501l-3.974,0.409
		l-1.043-0.166l-1.947-0.741l-2.185-0.31l-0.844-0.38l-1.51-1.087l-1.49-0.716l-3.616-0.789l-3.139-0.134l-0.636-0.201l-0.546-0.563
		l-1.878-2.718l-0.69-0.624l-0.998-0.201v-0.49l0.358-0.144l0.507-0.442l0.437-0.141l0.263,0.045l0.224,0.086l0.288,0.01
		l2.334-0.537l0.268-0.23l0.983-1.623l0.656-0.496l0.671-0.118l0.69-0.019l0.725-0.195l1.629-1.614l1.828-1.38l0.069-0.231
		l0.616-0.343l-0.199-0.756l-0.621-0.763l-0.626-0.34l-1.962-0.481l-0.735-0.058l-1.296,0.141l-1.038,0.295l-0.854,0.554
		l-0.805,0.92l-0.909,2.178l-0.174-0.006l-2.747,3.941l-0.894,0.826l-1.147,0.336l-1.281-0.182l-5.166-1.923l-0.884-0.531
		l-0.884-0.695l-0.576-0.304l-0.79-0.122l-1.103-0.477l-2.111-2.152l-1.202-0.596v-0.586l0.69-0.26l0.243-0.711l0.099-0.904
		l0.219-0.817l-0.258-0.083l-0.159-0.128l-0.149-0.154l-0.234-0.167l0.472-0.327l0.229-0.334l0.089-0.481l0.01-0.77l0.214-0.548
		l0.492-0.318l0.581-0.218l0.417-0.234l1.684-1.627l0.402-0.578h0.417l0.75,1.608l1.987-0.164l2.275-0.606l1.649,0.289l0.248-0.44
		l0.238-0.327l0.209-0.353l0.139-0.497l0.343,0.722l0.075,0.356h0.417l0.765-1.081l1.277-0.574l2.588-0.453l1.609-0.584l0.596-0.928
		l-0.099-1.407l-0.447-2.024l10.952-0.328l1.167,0.328l-0.452,1.764l1.137,0.758l1.639,0.446l1.053,0.851l-0.372,0.751l-1.937,3.02
		l0.154,0.439l2.563,2.521l2.086,0.853l0.487,0.398l0.268,0.321l2.076,3.163l0.805,0.711l1.331,0.788l-0.8,0.538l0.253,0.669
		l0.427,0.596l0.571,0.608l0.035,0.788l0.174,0.48l0.382,0.182l0.661-0.099l-0.084,1.587l0.805,1.779l1.128,1.452L563.522,246.539z
		 M465.862,205.947l2.146,1.465l-0.427,1.961l-2.97,4.238h-0.417l-0.685-3.768l0.179-1.822l1.301-0.992l-0.209-0.631l0.139-0.3
		l0.392-0.1L465.862,205.947z M165.565,216.255l0.293,0.849l0.541,2.391l0.73,1.147l0.015,0.552l-0.745,0.501l-0.541-0.466
		l-1.515-0.453l-1.416-1.051l-1.003-0.427l-1.068-0.257l-0.954-0.087l-0.541-0.309l-1.56-1.398l-0.611-0.405l-1.043-0.141
		l-0.849,0.013l-0.735-0.206l-0.263-0.37l0.452,0.087l0.417-0.309l0.353-0.74l-2.121-0.695l-0.795-0.38l-0.03,0.193l-0.03,0.296
		l0.01,0.109l-0.815-1.216l-0.656-1.612l-0.437-1.638l-0.417-3.349l-0.73-1.611l-1.162-1.324l-1.565-1.199l-1.416-0.696l-0.76-0.558
		l-1.639-3.661l-0.169-0.545l-1.068,0.019l-0.715-0.103l-0.512-0.465l-0.427-1.075l0.164-1.837l-0.323-0.584l-1.133,0.746
		l0.025-1.249l-0.209-0.901l-0.521-0.491l-0.924-0.023l0.606-0.649l1.579-2.229l0.318-0.717l0.576-0.129l5.662-0.233l1.793-0.375
		l1.579-0.689l1.639-1.038l0.839,0.278l0.566,0.453l0.497,0.511l0.601,0.437l1.584,0.524l0.621,0.378l0.328,0.724h0.417v-0.588
		h0.417l-0.104,2.472l-0.765,1.434l-1.271,0.849l-3.745,1.582l-0.611,0.504l-0.343,0.93l0.194,0.997l0.521,0.784l0.671,0.297v0.587
		h-0.834v0.49l3.591,1.871l1.445,0.297l-0.243,1.728l-0.387,0.367l-1.038-0.422l0.715,1.647l1.257,8.285l0.248,0.454l0.7,0.473
		l0.82,0.319l1.709,0.36l0.81,0.347l1.281,1l0.551,0.164l1.083-0.084l0.894-0.331l0.546-0.351l0.477,0.129L165.565,216.255z
		 M492.574,168.424l-0.531,0.808l-0.268,0.282v0.496l0.298-0.036l0.065,0.136l-0.01,0.233l0.199,0.713l0.089,0.791l0.159,0.382
		l-1.426,0.814l-1.52,1.15l-0.979,1.542l0.204,1.982l-0.839-0.019l-0.676,0.201l-0.527,0.369l-0.457,0.489l0.835,0.521l0.417,0.071
		l-0.934,0.505l-0.705,0.699l-0.079,0.767l0.924,0.689l-0.775,0.867l0.343,0.867l0.75,0.809l0.477,0.718l0.084,0.589l-0.074,0.065
		l-0.283,0.026l-0.522,0.456l-0.109,0.562l-0.055,0.785l-0.234,0.446l-0.646-0.465l-0.378-0.204l-1.748-0.582l-0.507-0.34
		l-0.099-0.747v-0.747l-0.204-0.34l-1.048-0.391l-1.008-1.608l-1.088-0.171l1.401-0.984l0.765-0.767l0.338-0.718l-0.283-1.156
		l-0.681-0.767l-0.815-0.418l-0.725-0.078l-2.543,2.124l0.566-0.007l0.457,0.087l0.372,0.197l0.313,0.311l-1.088,0.181l-0.8,0.757
		l-0.586,1.097l-0.447,1.174l0.507-0.239l0.129-0.081l0.199-0.223l0.685,0.864l0.755,1.297l0.397,1.171l-0.397,0.521l-1.331-0.078
		l-1.078-0.21l-1.942-0.799l1.376-2.212l0.253-0.281l-0.308-0.844l-0.675,0.262l-0.705,0.77l-0.397,0.676h-0.417l-0.03-0.621
		l-0.104-0.34l-0.144-0.262l-0.139-0.404l-3.536,1.106l-0.666,0.521h-0.377l0.209-0.505l0.214-0.411l0.313-0.362l0.507-0.349
		l-0.343-0.149l-0.442-0.32l-0.457-0.126l0.089-0.689l-0.089-0.346l0.377-0.33l0.407-0.214v-0.589h-0.407v-0.492l0.278-0.097
		l0.169-0.117l0.417-0.379h-0.457l0.507-1.143l-0.258-0.693l-0.576-0.593l-0.457-0.836l-0.06-1.127l0.094-1.06l-0.134-0.778
		l-0.735-0.298v-0.545l2.151-0.13l3.889-0.953l0.611,0.165l0.392,0.366l0.258,0.373l0.199,0.178l0.954-0.136l3.248-0.947
		l1.356,0.512l0.834,0.917l0.69,1.157l0.904,1.218l-0.119,0.616l1.331-0.531l1.664-0.982l0.839-0.736v-0.694l1.301-1.906l0.78-0.661
		l0.238,0.052l1.639-0.052l0.531-0.143L492.574,168.424z M507.271,135.521l0.283,1.204l-0.775,0.77l-5.707,1.999l-1.341-0.14
		l-2.111-1.213l-4.043-3.266l-0.874-1.038l-0.517-1.058l1.108,0.023l3.581-2.097l1.604-0.611l1.783,0.049l4.922,1.489l0.939,0.696
		l1.023,1.002l0.541,1.123L507.271,135.521z M452.078,112.425l-1.276,0.059l-0.378,0.882l0.447,0.957l1.207,0.295v1.602
		l-1.043,0.364l-0.214,1.107l0.417,2.429l0.422,0.923l0.174,0.628l-0.139,0.641l-0.422,0.059l-1.068-0.68l-0.219,0.347l-0.467,0.576
		l-1.078,0.425l-2.012,0.37l-0.735,0.291l-1.485,1.413l-0.929,0.543l-0.288-0.739l-0.422-0.582l-0.954-0.926l-0.194-0.043
		l-0.507,0.105l-0.169-0.062l-0.03-0.213l0.065-0.69l-0.035-0.193l-0.854-0.788l-0.397-0.255l-1.689-0.416l-1.331-0.046
		l-0.854-0.658l-0.293-2.229l0.387-2.083l0.919-2.054l2.031-3.009l4.614-3.899l1.972,0.987l2.488,0.295l0.998,0.364l0.243,0.502
		l0.169,0.758l0.328,0.688l0.715,0.305l0.636,0.154l0.576,0.393l0.437,0.534L452.078,112.425z M397.02,417.275l0.194,0.379
		l0.094,0.329l-0.288,0.149l-0.447-0.316l-0.015-0.549L397.02,417.275z M371.102,411.338l0.278,0.329l0.189,0.814l-0.209,0.183
		l-0.372-0.186l-0.174-0.522l-0.02-0.146l-0.129-0.096l0.04-0.376l-0.209-0.593l0.387,0.103L371.102,411.338z M621.71,462.753
		l3.099,0.175l0.154,0.354l-0.02,0.745l-0.258,0.637l-0.263,0.24l-0.472-0.034l-1.192,0.332l-0.874-0.197l-1.098-0.055l-1.162,0.314
		l-0.77-0.388l-0.089-1.062l0.556-0.693l0.437-0.139l0.914-0.166L621.71,462.753z M598.524,434.63l0.541,0.665l0.695,1.507
		l-0.492,1.429l-1.431,0.591l-0.805,0.012l-1.296-0.217l-0.636-0.479l-0.219-0.801l0.675-1.522l1.803-1.138L598.524,434.63z
		 M579.361,395.075l0.372,0.392l0.546,0.947v0.835l-0.437,0.143l-0.258,0.009l-0.02,0.277l-0.323,0.156l-0.507,0.056l-0.71-0.087
		l-0.755-0.48v-0.567l0.675-0.439l0.224-0.514l-0.566-0.044l-0.81,0.492l-0.765-0.087l-0.417-0.729l0.233-0.67l0.164-0.645
		l-0.641-0.393l-0.69-0.29l-0.412-0.505l-0.74-0.583l-0.214-0.997l0.7-0.673l0.844,0.069l0.184-0.153l-0.045-0.514l0.487-0.075
		l0.546,0.418l0.358,0.115l0.228-0.072l0.248,0.109l0.234,0.134l0.387,0.147l0.531,0.14l0.189,0.424l-0.407,0.81l-0.129,0.704
		l0.621,0.268l0.611,0.399l0.338,0.941L579.361,395.075z M562.697,378.107l0.298,0.459l0.149,0.759l-0.323,0.169l-0.328-0.328
		l-0.412-0.244l-0.229-0.062l-0.224-0.087l-0.541-0.031l-0.531,0.419l-0.243,0.562l-0.079,0.356l-0.229,0.2l-0.358,0.044
		l0.308,0.512l0.69,0.88l0.154,2.591l-0.636,0.262l-0.666-0.456l0.06-0.496l-0.159-0.365l-0.735-0.256l-0.253-0.69l0.323-1.874
		l0.214-0.487l0.089-0.509l-0.184-0.687l-0.129-1.044l0.164-0.925l0.532-0.031l0.69,0.081l0.745-0.181l0.73,0.331l0.596,0.434
		l0.387,0.403L562.697,378.107z M449.212,358.23l-0.099,0.461l0.209,0.937l-1.411,0.163l-2.792-0.533l-0.775-0.492l1.113-0.198
		l0.983-0.442l0.601-0.734l0.745-0.489l1.028-0.078l0.497,0.473L449.212,358.23z M217.634,277.634l0.397,0.254l0.074,0.811
		l-0.686,0.896l-0.77,0.629l-0.884,0.524l-0.517,0.223l-0.487,0.292l-0.68,0.756l-0.507,0.931l-0.492,0.149l-0.199-0.759l0.169-0.88
		l1.113-1.99l0.944-1.078l1.073-0.417L217.634,277.634z M208.832,276.635l0.248-0.032l0.02,0.293l-0.209,0.41l-0.323,0.439
		l-0.492,0.496l-1.569,0.439l-0.199,0.916l0.834,0.696l0.507,0.515l0.099,0.197l0.457,0.324l0.571,0.763l-0.79-0.34l-2.161-2.05
		l-0.899-2.041l0.576-0.884l0.949-0.204l1.286-0.697l0.328,0.324l0.263,0.172l0.298-0.105l0.134,0.096l-0.06,0.238L208.832,276.635z
		 M409.045,222.667l0.566,0.263l0.253,0.276l-0.045,1.223l-0.74,1.993l-1.142,0.61l-0.576-0.648l0.06-0.549l0.288-0.176
		l-0.209-0.353l-0.626-0.347l-0.258-0.568l0.209-0.867l0.358-0.828l0.477-0.732l0.522-0.138l0.119,0.764l0.045,0.604l0.253-0.257
		L409.045,222.667z"/>
</g>
<g id="Copyright">
	<text transform="matrix(1 0 0 1 681.6426 577.5916)" class="st1 st2"> Vemaps.com</text>
</g>
</svg>
