<?xml version="1.0" encoding="utf-8"?>
<!-- Generator: Adobe Illustrator 23.0.1, SVG Export Plug-In . SVG Version: 6.00 Build 0)  -->
<svg version="1.1" xmlns="http://www.w3.org/2000/svg" xmlns:xlink="http://www.w3.org/1999/xlink" x="0px" y="0px"
	 viewBox="0 0 800 600" style="enable-background:new 0 0 800 600;" xml:space="preserve">
<style type="text/css">
	.st0{fill:#808080;}
	.st1{font-family:'Roboto-Regular';}
	.st2{font-size:14px;}
</style>
<g id="Guatemala">
	<path class="st0" d="M510.91,480.297l-0.025-0.004l-3.662-2.691l-0.138,0.299l-0.657,1.008l-0.168-2.538l-1.295,0.506l-2.892,2.996
		l-2.001,0.417l-1.436-0.533l-1.436-0.76l-2.018-0.265l-1.382,0.59l-0.876,0.374l-3.145,3.807l-1.729,1.252l-0.368-2.433
		l-1.39-1.415l-1.87-0.156l-1.804,1.34l-0.828,2.08l0.546,1.483l0.93,1.299l0.368,1.53l-0.805,1.282l-1.275,0.916l-0.753,1.102
		l0.786,1.859l2.659,0.353l0.878,0.393l0.736,0.699l0.368,0.499l0.739,1.411l0.164,0.614l0.23,2.004l0.237,0.855l0.555,0.553
		l1.614,0.807l0.408,0.536l0.02,2.048l-0.818,0.814l-13.658,3.282l-3.346,1.536l-3.208,2.471l-2.547,2.793l-5.436,9.638
		l-0.362,1.071l0.125,1.006l0.821,1.902l0.096,0.222l-0.049,0.728l-1.86,1.003l-1.867-0.759l-3.31-2.581l-2.307-0.603l-1.876,0.129
		l-5.63,2.151l-1.357,0.891l-2.708,2.713l-12.222,8.586l-1.883,1.669l-1.081,1.839l-0.841,1.906l-1.18,1.845l-1.561,1.256
		l-3.49,1.865l-1.522,1.567l-1.009,1.892l-0.677,2.071l-0.316,2.129l0.059,2.061l2.036,8.494l-0.003-0.001l-18.726-7.767
		l-19.792-8.889l-12.599-4.731l-10.202-2.433l-7.327-1.191l-8.809-0.856l-9.837,0.963l-1.48,0.443l-14.511,0.921l-16.969-0.321
		l-15.52-1.719l-19.168-3.797l-29.942-13.319l-10.843-6.184l-15.956-9.934l-18.524-13.603l-17.985-16.304l-25.015-18.162
		l2.564-0.403l2.294-2.781l2.797-7.764l2.715-5.072l0.5-2.018l-0.118-2.477l-2.245-6.477l-0.092-0.948l0.164-1.92l-0.072-1.033
		l-1.18-3.243l-0.276-1.098l-0.105-2.771l0.618-1.574l2.642-3.101l1.443-3.945l-0.368-8.194l0.427-4.331l1.508-1.521l1.587-0.456
		l1.64-0.191l1.673-0.721l1.301-1.521l2.517-5.833l-16.478-21.539l-0.963-2.136l-0.046-2.466l0.845-2.3l2.35-4.072l6.198-10.743
		l4.008-6.946l4.756-8.245l10.04-17.435l10.053-17.439l8.762-15.222l6.195-10.78l2.353-4.082l2.872-5.013l1.532-1.942l2.044-1.033
		l5.771-0.014l17.543-0.034l17.537-0.021l17.53-0.027l17.537-0.034l16.804-0.013l0.739-0.001l17.536-0.034l17.53-0.027l17.53-0.034
		l11.414-0.014l2.491-0.294l2.284-0.839l0.045-0.056l0.468-0.657l0.858-1.881l0.375-1.101l-0.73,0.308l-0.322,0.089l-0.227,0.123
		l-0.46,0.465h-0.947l-0.496-2.258l3.076-2.579l-1.633-1.581v-0.821l2.8-1.156l-0.838-1.335l-3.701-2.108l-0.48-2.512l0.9-1.807
		l1.561-1.205l1.495-0.726l-1.719-0.685l-1.252-1.013l-0.204-1.315l1.436-1.595l0.562,0.562l0.394,0.205l1.647,0.226l-0.477-0.705
		l-0.776-1.472l-0.48-0.705l0.578,0.068l0.158-0.185v-0.335l0.132-0.37l0.753,0.52l1.058,0.301l0.785-0.329l0.007-1.397
		l-0.785,0.315l-1.85-0.692l-1.292-0.945l0.891-0.493l2.343-0.76l1.88-1.815l0.749-2.13l-1.068-1.706h-0.868v0.986h-0.864
		l0.329-1.877l1.206-0.685l1.732,0.123l1.942,0.548l-1.466-2.48l-0.168-0.76l-0.026-1.74l-0.256-1.905l-0.723-0.178l-1.127,0.514
		l-1.443,0.205l-0.749-0.343l-0.943-0.624l-1.305-0.582l-4.003-0.521l-0.329-0.754l0.171-1.138l-0.664-1.467l-0.753-0.733
		l-1.213-0.857l-1.42-0.404l-3.05,1.48l-0.785-1.186l-0.592-2.831l-1.232-0.007l-3.3,0.994l-0.684,0.336l-0.749-0.418l-1.788-0.37
		l-2.044-0.075l-1.571,0.452l0.664-1.268l1.131-0.953l0.881-1.001l-0.072-1.392l-1.466-0.905l-1.952-0.123l-1.104-0.494l1.045-2.023
		l-0.453-2.146l0.828-2.242l0.414-1.893l-1.729-1.049l-0.368,0.885l-0.427,0.439l-0.664,0.219l-1.065,0.192v-0.823l1.676-3.107
		l-1.742-4.775l-8.597-12.483l-1.84-1.476l-4.555-2.3l-1.88-1.572l0.434-1.572v-0.899l-1.735-0.996l-1.19,1.009l-1.499-0.014
		l-8.762-2.733l-2.346-1.373l-3.701-3.77l-2.636-1.284l2.051-2.198l-0.309-1.044l-1.735-0.302l-2.215-0.007l-0.217,0.557
		l0.467,1.216l0.132,1.216l-1.249,0.563l-0.67-0.371l-1.597-1.745l-0.736-0.604l-4.864-1.752l-1.518-1.353l-0.565-2.755
		l-0.716-1.409l-4.489-5.45l-0.493-1.169l-0.651-2.543l-0.677-0.825l-1.348-0.254l-3.063,0.337l-1.269-0.536l-4.522-4.971
		l-1.17-1.843l-0.546-1.341l-0.651-2.359l-0.539-0.928l-1.17-0.695l-2.596-0.681l-0.5-0.853l-0.256-2.063l-0.723-2.401l-1.104-2.105
		l-1.387-1.197l-3.477-0.186l-3.405,0.55l-2.59-0.454l-1.025-3.172l-1.959-1.067l-3.931-0.819l-2.958-1.363l0.539-2.092l0.953-0.172
		l55.811,0.406l0.069-36.657l0.069-36.712l1.025-1.146L307.324,30h5.482l27.968,0.028l27.955,0.028l27.958,0.035l27.968,0.028
		l27.951,0.021l27.965,0.035l27.964,0.028l27.958,0.028l0.544,28.85l0.698,36.963l0.194,37.911l-2.145,34.466l-2.326,37.321
		l-1.118,13.692l-1.956,27.363l-3.259,30.602l-0.24,6.409l-0.062,1.664l1.052,1.729l0.286-0.424l1.203-0.608l1.489-0.499
		l1.154-0.068l2.33-0.97l9.734,0.458l3.628-0.622l4.078-0.027l11.25,2.918l4.822-1.891l1.775,0.807l4.301,3.637l4.399-1.098
		l5.631,1.264l4.332,2.55l0.481,2.776l2.888,0.479l12.825,8.1l-1.568,5.958l0.264,0.887h3.431l1.382-0.532l0.404-1.129l-0.145-0.989
		l-0.3-0.14l-0.036-0.548l-0.43-0.468l-0.409-0.613l0.016-0.995l0.637-0.199l1.18,0.134l1.144-0.194l0.507-1.172l0.492-2.124
		l1.123-1.452l1.201-1.129l0.735-1.162l0.155-2.033l-0.973-3.131l-0.124-2.061h0.942l-0.047,1.383l0.047,0.425h0.792l1.516-1.001
		l3.701,0.721l1.806-0.71l-2.94-2.755l-1.635-1.248l-2.35-1.076l-0.983-1.324l-0.849-1.507l-0.87-1.114l-5.476-3.1l-1.563-1.965
		l1.832-2.164l1.941,1.141l3.607,1.582l1.47,0.888l3.695,3.913l2.671,1.544l6.656,5.602l13.11,6.181l4.301,3.905l1.351,0.608
		l5.605,4.948l4.425,1.914l0.078,0.032l-1.486,0.56l-0.398,1.188l0.105,1.434l-0.848,1.762l-0.785-0.983l-2.192,0.935l-1.87,1.038
		l-2.021,0.758l-2.682,0.055l-0.716,0.969l-3.848,6.652l-5.906,5.824l-8.705,6.873l-4.145,3.272l-11.112,8.664l-11.042,8.607
		l-11.028,8.585l-10.955,8.526l-16.077,12.508l-4.433,2.107l-12.916,4.34l-3.904,1.984l-0.816,0.673l-1.764,1.454l-1.522,2.375
		l-2.011,6.074l2.478,2.327l-0.007,3.47l-1.574,3.738l-0.978,1.396l-1.221,1.743l-3.155,2.737l-0.996,1.54l-0.125,2.475l0.605,1.833
		l1.107,1.697l2.563,3.104l1.196,1.985l2.399,5.815l1.384,1.798l1.163,1.03l0.548,0.846l0.218,0.336l0.23,2.239l-0.322,1.029
		l-1.351,1.471l-0.453,0.826l0.532,6.624l-0.066,2.333l-0.592,2.177l-1.495,1.43l-1.469,0.115l-3.194-1.107l-1.561-0.282
		l-2.166,0.282l-0.963,0.652l-0.618,1.026l-1.154,1.436l-3.983,3.449l-1.771,1.925l-1.265,2.285l-1.048,1.117l-2.826,0.723
		l-1.301,0.855l-0.825,1.714l-0.23,2.081L510.91,480.297z"/>
</g>
<g id="Copyright">
	<text transform="matrix(1 0 0 1 681.6426 577.5916)" class="st1 st2">© Vemaps.com</text>
</g>
</svg>
