<?xml version="1.0" encoding="utf-8"?>
<!-- Generator: Adobe Illustrator 23.0.1, SVG Export Plug-In . SVG Version: 6.00 Build 0)  -->
<svg version="1.1" xmlns="http://www.w3.org/2000/svg" xmlns:xlink="http://www.w3.org/1999/xlink" x="0px" y="0px"
	 viewBox="0 0 800 600" style="enable-background:new 0 0 800 600;" xml:space="preserve">
<style type="text/css">
	.st0{fill:#808080;}
	.st1{font-family:'Roboto-Regular';}
	.st2{font-size:14px;}
</style>
<g id="Guyana">
	<path class="st0" d="M579.228,514.857l-3.405,1.284l-2.218,1.267l-1.163,0.087l-1.112-0.549l-1.044-0.847l-1.153-0.728l-1.41-0.168
		l-1.229,0.496l-0.967,0.745l-1.042,0.566l-1.47-0.053l-1.462-0.241l-0.984,0.23l-3.136,2.476l-0.882,0.404l-1.003-0.004l-5.19-0.88
		l-0.954-0.332l-1.176-0.952l-0.482-0.7l-0.618-0.385l-1.575-0.011l-2.431,0.268l-1.195-0.019l-1.308-0.271l-1.918-1.009
		l-1.349-1.144l-0.863-1.505l-0.456-2.078l-2.22-1.772l-3.531,1.405l-6.238,3.916l-1.474-0.27l-2.638-1.65l-1.794-0.168
		l-1.609,0.605l-1.07,0.99L514.54,515l-1.149,1.054l-1.534,0.798l-1.018,0.372l-0.727,0.649l-1.809,4.851l-0.765,1.32l-4.851,6.143
		l-2.178,1.648l-3.407,0.865l-2.239,0.068l-6.166-1.129l-2.604-0.132l-2.329,0.622l-5.887,2.604l-2.472,1.51l-1.229,0.443
		l-1.225-0.06l-2.197-0.888l-1.157-0.162l-0.437,0.532l0.09,1.154l0.426,2.224l-0.222,1.261l-0.482,1.338l-1.281,2.357l-1.172,1.41
		l-3.057,0.573l-3.449-0.113l-2.348-0.622l-0.505-0.605l-0.535-1.591l-0.565-0.703l-1.214-0.641l-0.765,0.125l-0.671,0.434
		l-0.927,0.285l-1.379-0.047l-1.602-0.264l-1.564-0.456l-1.255-0.628l-0.52-0.554l-0.716-1.176l-0.317-0.17l-0.833,0.571
		l-0.497,0.963l-0.403,1.073l-0.52,0.888l-0.648,0.434l-1.666,0.741l-0.52,0.471l-0.105,0.724l0.422,1.54l-0.034,0.696l-1.975,1.325
		l-0.946,0.162l-5.284,0.906l-0.21,0.263l-0.868,1.087l0.486,1.51l1.379,2.867l0.464,1.519l0.045,1.764l-0.475,1.27l-2.284,3.589
		l-0.599,0.03l-0.577-0.343l-0.584-0.207l0.023-0.143l-0.29-0.298l-0.407-0.305l-0.339-0.166l-0.324,0.128l-0.931,0.712
		l-0.464,0.192l-7.444-0.709l-1.104,0.102l-0.837,0.641l-2.02,2.914l-1.161,1.267l-1.395,0.999l-1.753,0.69l-1.458,0.332
		L407.677,570l-1.315-0.211l-1.466-0.622l-1.877-1.5l-0.626-1.512l-0.384-1.583l-1.149-1.749l-1.349-1.078l-1.496-0.814
		l-0.403-0.157l-2.85-1.113l-12.17-2.156l-4.681-1.508l-1.296-0.703l-0.912-1.22l-1.56-3.499l-0.611-0.792l-1.323-0.771l-0.32-1.257
		l-0.162-1.369l-0.848-1.103l-0.665-0.102l-1.483,0.411l-0.886-0.215l-0.27-0.332l-0.518-1.15l-0.268-0.422l-0.371-0.188
		l-0.903-0.091l-0.345-0.147l-0.66-0.779l-1.432-2.558l-0.675-0.752l-2.278-1.806l-1.227-1.574l-2.035-3.314l-1.513-1.273
		l-1.549-0.484l-1.302,0.164l-1.266,0.358l-1.475,0.087l-0.839-0.215l-0.741-0.383l-0.667-0.517l-1.596-1.701l-0.119-0.599
		l1.167-1.569l1.532-2.962l-0.072-0.896l-0.194-0.102l-0.464,0.121l-0.912-0.219l-2.742-1.073l-0.85-0.047l-1.479,0.53l-0.887-0.038
		l-0.661-0.79l-0.351-1.491l-0.115-1.61l0.043-1.16l0.268-0.831l0.912-1.41l0.332-0.773l0.073-0.666l-0.185-1.912l0.132-0.62
		l0.418-1.209l0.051-0.598l-0.241-0.801l-0.807-1.522l-0.109-0.964l0.228-0.767l0.822-1.288l0.232-0.722l-0.034-0.745l-0.665-2.174
		l-0.057-2.723l0.403-2.821l-0.108-2.505l-1.572-1.765l-0.658-0.173l-1.428-0.038l-0.682-0.136l-0.907-0.471l-2.233-1.916
		l-2.904-1.501l-1.391-0.992l-0.752-1.396l0.119-0.664l0.752-1.218l-0.023-0.811l-0.162-0.773l-0.075-1.581l-0.124-0.796
		l-2.12-4.753l-0.268-1.396l0.021-0.909l-0.109-0.551l-0.605-1.23l-0.3-0.298l-0.94-0.347l-0.362-0.283l0.053-0.234l0.36-0.898
		l0.021-0.392l-2.292-4.478l-0.264-1.407l0.464-11.92l1.513-5.989l0.186-1.543l-0.26-4.178l0.347-1.83l0.718-1.736l1.949-3.182
		l0.386-0.313l0.482-0.177l0.43-0.234l0.237-0.472l-0.079-0.51l-0.547-0.774l-0.1-0.445l0.232-0.2l0.923-0.143l0.183-0.283
		l-0.162-0.479l-0.62-0.687l-0.213-0.476l0.013-0.951l0.377-0.562l0.53-0.464l0.482-0.668l0.993-3.299l0.32-0.732l1.888-3.128
		l0.769-2.458l0.234-0.062l0.46-0.03l0.501-0.121l0.367-0.34l0.057-0.504l-0.445-0.965l-0.102-0.491l0.324-3.526l-1.263,0.459
		l0.205-1.288l1.253-3.022l-0.597-1.854l-1.319-1.512l-1.123-1.601l0.011-2.145l1.839-2.015l5.989-2.107l2.764-2.564l1.647-0.719
		l0.645-0.523l0.445-0.838l0.041-0.633l-0.089-0.644l0.045-0.874l0.609-1.836l0.925-0.927l2.978-1.335l1.436-1.112l0.234-1.033
		l-0.315-1.213l-0.203-1.649l0.45-1.477l1.061-1.704l1.359-1.388l1.355-0.55l0.72-0.102l0.4-0.351l0.115-0.557l-0.141-0.725
		l-0.528-0.603l-0.865-0.31l-2.312-0.38l-0.701,0.03l-0.458-0.287l0.066-1.882l-0.317-0.431l-0.439-0.357l-1.027-1.87l-2.47-2.301
		l-0.697-1.135l0.23-1.716l0.81-1.215l0.205-1.041l-1.545-1.209l-3.134-1.015l-1.197-0.879l-0.855-1.924l-0.143-0.796l-0.008-0.635
		l0.189-1.293l0.177-0.427l0.65-0.867l0.154-0.465l-0.151-0.486l-0.739-0.833l-0.13-0.329l0.778-1.368l2.493-2.589l0.454-1.739
		l0.02-0.512l0.027-0.711l-0.271-0.24l-0.839-0.087l-0.842-0.272l-0.645-0.61l-0.552-0.718l-0.586-0.588l-4.253-2.387l-0.974-1.283
		l-0.588,0.652l-0.624,0.163l-1.56-0.412l-0.345-0.038l-0.793,0.008l-0.32-0.096l-0.296-0.457l0.207-0.928l-0.298-0.276l-0.94-0.004
		l-1.419,0.692l-0.677,0.068l-0.392-0.355l-1.048-1.393l-0.658-0.414l-0.716-0.144l-0.842-0.045l-0.72,0.204l-0.317,0.607
		l-0.413,0.484l-0.906-0.144l-1.73-0.593l-1.421,0.215l-1.125,0.318l-0.776-0.2l-0.386-1.333l-0.388-0.543l-0.795-0.408l-0.79-0.034
		l-0.383,0.586l-0.172,0.834l-0.424,0.325l-0.65-0.015l-0.871-0.183l-1.161-0.595l-0.818-1.081l-0.354-1.348l0.241-1.389
		l1.949-2.074l0.628-0.106l1.464-0.026l0.661-0.234l0.684-0.656l0.249-0.688l0.079-0.743l0.185-0.822l0.367-0.875l2.084-3.035
		l0.626-1.189l0.439-1.274l0.173-1.386l-0.324-3.179l1.025-3.257l0.183-4.388l0.507-2.158l0.541-1.326l0.247-1.354l0.068-2.822
		l1.296-4.432l-0.117-2.089l-2.035-1.031l-3.217-1.835l-1.504-1.152l-0.946-1.067l-0.185-0.208l-2.318-5.391l-0.635-0.846
		l-3.27,1.19l-1.05-0.937l-0.682-1.722l-0.957-0.276l-3.047,0.789l-1.351,0.666l-2.942,2.961l-1.387,0.963l-1.598,0.044
		l-3.205-1.109l-1.521,0.079l-0.556,0.473l-0.854,1.419l-0.718,0.524l-0.539-0.034l-0.494-0.39l-0.503-0.501l-0.545-0.371
		l-1.453-0.293l-4.116,0.577l-1.053-0.121l-0.81-0.376l-0.752-0.465l-0.88-0.394l-0.859-0.172l-4.332-0.299l-1.621,0.079
		l-3.258,0.717l-5.619-6.074l-5.525-6.115l-5.531-6.118l-5.525-6.12l-5.525-6.12l-5.529-6.124l-5.527-6.116l-5.525-6.126
		l-2.352-2.613l-1.247-2.954l0.761-0.807l2.444-1.364l1.07-0.851l3.42-5.454l0.921-2.339l0.669-1.04l0.969-0.525l2.42-0.451
		l1.197-0.385l0.878-0.519l0.71-0.965l0.784-1.88l0.938-0.824l1.004-0.159l1.068,0.11l0.812-0.228l0.234-1.168l0.023-1.003
		l0.379-2.781l-0.141-0.724l-0.23-0.237l-0.249-0.163l-0.204-0.497l-0.36-0.519l-1.285-0.8l-0.384-0.671l-0.548-2.048l-0.104-0.813
		l0.445-3.538l0.356-1.018l0.645-0.882l0.154-0.613l0.03-0.607l-0.087-0.601l-0.207-0.599l-0.793-1.096l-0.697-2.196l-0.571-1.098
		l-1.114-1.034l-1.018-0.571l-0.699-0.725l-0.168-1.502l0.524-2.525l1.065-2.72l1.425-2.616l2.286-2.639l0.692-0.837l1.376-0.27
		l1.598,0.148l1.361,0.414l0.669-1.338l1.543,0.228l1.56,0.48l1.344-1.023l3.33,0.414l1.515-0.22l0.398-0.304l1.979-2.097
		l0.128-0.304l0.03-0.603l-0.162-0.679l-0.72-1.029l-0.162-0.822l0.424-0.296l0.948,0.08l1.617,0.444l0.488,0.353l0.524,0.503
		l0.65,0.478l0.874,0.264l0.68-0.057l1.681-0.393l0.855-0.099l1.493,0.397l2.668,1.736l1.089,0.374l1.545-0.543l1.182-1.245
		l2.067-2.978l1.185-0.966l1.376-0.6l5.248-1.264l9.319-5.812l1.952-0.459l1.229,0.729l0.675-3.641l0.613-1.234l1.102-0.934
		l1.242-0.805l1.031-0.858l0.718-1.021l0.567-1.219l0.307-1.291l-0.055-1.246l-0.554-1.158l-0.94-0.851l-2.535-1.421l-0.051-0.057
		l-0.863-0.962l-0.869-0.479l-0.959-0.076l-1.189,0.178l-1.046-0.034l-0.797-0.406l-0.758-0.505l-0.903-0.338l-1.883-0.011
		l-1.553,0.581l-1.185,1.132l-1.607,2.898l-0.955,0.019l-5.079-4.034l-0.786-0.79l-1.069-2.188l-0.036-2.188l0.908-1.987l1.775-1.6
		l0.33-0.521l0.166-0.543l0.007-0.585l-0.139-0.608l-0.641-0.992l-0.835-2.052l-0.509-0.943l-0.518-0.403l-0.661-0.262l-0.59-0.372
		l-0.294-0.711l0.026-0.62l0.079-0.464l-0.032-0.437l-0.319-0.54l-0.989-0.688l-1.016-0.232l-0.914-0.357l-1.69-3.113l-0.428-1.068
		l-0.064-1.11l1.027-1.924l3.307-1.064l1.133-1.411l1.031-1.89l0.714-1.008l0.477-0.357l1.057,0.194l0.686-0.517l0.277-0.947
		l-0.175-1.091l1.119-1.985l0.008-0.799l-0.241-1.396l0.053-0.647l0.358-0.677l1.641-1.966l1.44-2.727l1.027-0.978l1.639-0.552
		l6.183,0.11l3.19-0.312l1.775-1.339l0.584-1.693l1.609-1.469l3.535-2.431l0.283-0.258l1.072-0.979l0.75-1.18l0.867-0.997
		l3.503-1.366l1.266-1.058l1.163-1.21l1.5-1.13l1.555-0.497l2.91,0.28l1.57-0.086l1.232-0.729l0.739-1.288l0.616-2.956l0.852-1.102
		l0.096-0.859l-0.185-0.847l-0.009-1.06l0.537-1.148l1.869-1.464l0.775-0.866l1.264-0.611l3.645-0.844l1.498-0.091l1.513-0.487
		l1.398-1.28l0.921-1.628l0.077-1.516l-2.919-4.744l-7.59-8.555L321.108,30l1.451,0.672l2.401,1.573l2.603,2.641l4.169,6.381
		l2.736,2.649l2.071,1.077l3.561,0.972l1.834,0.927l4,2.927l2.095,1.146l2.163,0.453l0.662,1.133l0.136,0.147l0.101,0.594
		l0.285,0.132l0.454-0.048l4.104,0.846l0.534,0.516l0.956,1.178l6.511,5.612l-1.68-2.719l-2.546-2.513l-3.054-2.033l-5.475-2.249
		l-6.713-4.666l-4.422-2.411l-0.6-0.816l-0.899-2.04l0.169-0.954l1.727-0.276l1.202,0.534l2.582,2.07l2.971,0.891l1.448,0.993
		l2.344,2.009l4.802,2.873l6.659,3.032l7.745,5.586l13.328,7.962l4.401,3.324l1.07,1.001l1.072,1.417l3.938,3.666l9.968,11.214
		l3.744,2.973l2.131,3.097l1.865,2.492l1.792,3.698l1.198,1.75l0.271-0.468l-0.728-1.814l0.138-0.804l1.005,0.072l1.807,0.613
		l1.536,1.282l1.401,1.349l1.199,1.482l1.198,1.818l1.53,2.491l1.842,2.26l1.158,1.65l5.721,5.679l1.323,2.259l0.537,2.441
		l-0.727,2.37l0.499-0.548l-0.377,3.159l0.377,9.434l-1.288,7.739l-0.902,1.175l-1.62,1.262l-1.169,0.909l-1.098,1.336l-0.795,1.459
		l-0.481,1.501l-0.427,2.822l-1.727,4.415l-0.154,1.545l0.154,4.82l-0.154,0.756l-0.683,0.911l-0.16,0.816v13.076l-0.41,1.583
		l-0.214,0.827l-4.849,6.928l0.306,0.194l0.193,0.266l2.243-2.055l0.742-0.451l0.223-0.296l0.196-0.418l0.294-0.239l0.985,0.436
		l0.626,0.078l0.339-0.017l0.011-0.001l0.858-0.048l-0.546-0.454l1.208-2.939l0.288-9.636l0.745-3.083l7.692-13.596l1.944-2.642
		l2.659-1.877l3.211-0.807l3.08,0.161l2.795,0.855l4.357,2.302l1.43,1.339l0.359,0.209l0.223,0.263l0.605,0.511l0.329,0.161
		l0.294,0.143l0.291-0.326l0.252-0.858l0.62-0.197l6.261,0.773l4.536,2.199l1.448,1.215l2.17,1.639l2.732,2.689l1.948,1.458
		l3.925,3.755l2.329,2.359l0.667,1.104l1.322,0.573l1.595,1.663l4.183,3.383l2.311,1.885l1.54,1.33l0.989,1.052l1.1,1.108
		l1.429,1.551l1.501,3.602l2.215,5.211l0.798,1.026l0.23,1.431l0.336,0.583l0.619-0.901l0.126-0.671l0.12-0.814l0-1.237l0.937-1.025
		l0.724-0.424l0.265-0.301l0.333-0.043l1.437,0.117l1.515,0.553l1.214,0.559l1.469,0.733l2.288,1.352l0.903,0.503l2.522,1.694
		l2.964,2.176l6.005,6.115l1.52,2.215l1.411,2.646l0.647,2.987l0.225,1.812l0.253,0.87l0.375,0.749l0.169,0.628l0.06,0.809
		l-1.072-1.536l-0.543-0.495l1.301,2.623l0.435,1.039l0.02,1.581l0.122,1.193l0.2,2.627l-1.197,2.564l-0.329,1.357l-0.528,1.265
		l-0.334,0.86l-0.043,1.509l-0.734,1.767l-0.174,1.724l1.713,2.822l-0.142,3.958l-0.862,2.304l-0.899,1.475l-0.822,1.655
		l-3.701,5.343v0.507l-0.676,1.527l-0.23,1.164l-0.083,1.571l-0.29,1.713l-0.75,1.17l-3.547,3.575l-0.596,0.785l-0.249,0.804
		l0.29,0.68h0.648l1.052-0.43l0.735,0.18l0.46-0.023l0.234,0.204l0.113,5.115l0.132,0.577l0.366,0.401l0.641,0.182l0.629-0.083
		l0.482-0.314l0.192-0.486l-0.746-0.887l-0.377-0.708l0.128-0.702l0.614-0.36l0.829-0.042l0.731,0.223l0.313,0.45l0.058,0.147
		l0.496,1.242l2.431,2.962l0.546,1.466l-0.358,1.02l-0.89,0.85l-1.149,0.664l-1.134,0.471l-0.396-1.457l-0.622-0.759l-0.923-0.288
		l-1.297-0.046l-0.822,0.431l-0.479,1.012l-0.486,2.104l-1.085,2.469l-0.226,0.831l-0.091,0.971l0.328,0.819l2.661,2.406
		l-0.731,0.426l-0.599-0.061l-0.569-0.244l-0.637-0.121l-1.036,0.148l-0.629,0.244l-0.543,0.303l-0.78,0.306l-1.835,0.49
		l-5.77,0.594l-1.229,0.376l-0.942,0.083l-0.482-0.242l-1.119-1.061l-0.392-0.24l-1.873,0.098l-1.673,0.293l-3.2,1.152l-2.864-1.25
		l-2.74,0.159l-2.446,1.205l-1.956,1.888l-1.097,2.084l-0.848,0.666l-1.786,0.248l-0.912-0.182l-0.701-0.348l-0.705-0.202
		l-0.916,0.233l-0.55,0.518l-1.485,2.48l-0.984,1.22l-1.331,1.43l-1.172,1.681l-0.501,2.46l0.55,1.008l1.217,0.618l1.21,0.809
		l0.976,3.01l1.956,2.503l0.607,1.293l-0.102,1.388l-0.584,1.271l-1.304,1.887l-1.153,3.724l-1.236,2.072l-1.342,3.251l-0.539,2.423
		l-0.69,0.958l-0.837,0.932l-0.72,1.125l-0.29,1.338l0.23,1.151l0.396,1.113l0.203,1.211l-0.155,1.841l-0.471,1.444l-0.81,1.242
		l-6.351,6.504l-1.014,1.555l-0.128,1.513l0.92,3.15l0.954,6.217l0.72,2.582l1.768,2.225l4.798,3.789l1.187,1.392l3.697,5.424
		l1.553,3.328l0.309,1.403l0.196,3.316l0.434,1.543l0.818,1.356l1.214,0.774l3.565,1.48l2.781,1.782l0.264,0.529l0.366,1.28
		l0.58,1.078l0.064,0.261l0.094,0.253l0.328,0.364l0.354,0.151l0.784,0.106l0.154,0.219l0.283,0.136l1.519,0.886l1.195,1.354
		l-0.105,1.291l-1.108,2.154l0.011,0.476l0.158,0.904l-0.041,0.491l-0.369,1.32l-0.045,0.606l0.151,0.765l0.317,0.866l0.245,0.372
		l0.358,0.306l0.618,0.257l2.058,0.423l1.229,0.687l0.015,0.009l2.265,1.264l0.795,0.225l0.671-0.102l0.712-1.435l0.939,0.185
		l0.931,0.553l0.418,0.317l0.588,0.026l0.573,0.106l0.433,0.217l0.17,0.378l0.253,0.325l0.546-0.31l0.516-0.497l0.181-0.245
		l2.062-0.532l0.509-0.64l-0.079-1.323l2.303,0.999l1.948,0.6l1.949-0.332l2.307-1.808l1.813,3.734l0.226,1.025l-0.17,2.537
		l-0.106,0.457l-0.603,0.914l0.162,0.608l0.456,0.6l0.26,0.872l-0.094,0.868l-0.392,1.502l-0.06,0.895l0.166,0.804l0.784,1.687
		l-0.203,0.883l-0.471,0.581l-0.136,0.479l0.81,0.593l0.731,0.121l0.724-0.234l0.637-0.423l0.494-0.457l0.136,0.219l0.015,0.064
		l0.049,0.038l0.249,0.132l-1.112,2.14l0.663,1.332l1.259,1.159l0.682,1.623l0.079,0.562l0.347,0.925l0.075,0.551l-0.237,0.298
		l-1.021-0.053l-0.234,0.257l0.128,0.883l0.211,0.638l0.045,0.574l-0.384,0.672l-0.596,0.951l0.931,0.536l2.423,0.257l0.351,1.083
		l-0.795,1.026l-1.138,0.906l-0.678,0.725l0.969,3.777l0.298,0.755l0.584,0.309l0.234,0.687l0.324,0.683l0.874,0.313l0.682-0.155
		l1.462-0.683l0.863-0.159l0.509,0.479l-1.259,2.63l0.482,1.377l0.241-0.166l2.495-0.377l0.705,0.343l-0.166,0.792l-0.501,0.924
		l-0.286,0.724l0.381,0.955l1.884,1.992l0.724,1.339l0.437,2.875l0.58,0.43l1.515-0.856l0.494,0.932l-0.196,0.86l-0.347,0.954
		l0.049,1.241l0.354,0.66l1.843,2.147l0.132,0.532l-0.385,2.46l0.471,0.679l1.029-0.355l1.489-1.094l0.607,0.675l-0.098,0.796
		l-0.358,0.807l-0.151,0.709l0.235,1.003l0.345,0.641l1.208,1.12l0.352,0.709l-0.13,0.758l-0.469,1.049l0.556,1.324l2.61,2.278
		l0.814,1.63l-0.04,2.629l0.313,0.653l0.677,0.34l1.683,0.313l0.65,0.347l0.925,1.418l0.718,3.217l0.554,1.592l0.531,2.176
		l7.021,9.949l1.997,0.82l7.15,0.117l2.749,1.433l0.407,0.622l0.518,0.5l0.614,0.37l1.53,0.492l0.641,0.517l0.445,0.707
		L579.228,514.857z M440.893,146.738l3.279,0.502l-0.08,0.314l-4.107,3.022l-3.647,1.109l-1.421,1.572l-0.217-1.243l0.436-1.671
		l0.766-1.471l1.113-0.852l0.674-1.005l0.261-0.278l0.677-0.111L440.893,146.738z"/>
</g>
<g id="Copyright">
	<text transform="matrix(1 0 0 1 681.6426 577.5916)" class="st1 st2">© Vemaps.com</text>
</g>
</svg>
