<?xml version="1.0" encoding="utf-8"?>
<!-- Generator: Adobe Illustrator 23.0.1, SVG Export Plug-In . SVG Version: 6.00 Build 0)  -->
<svg version="1.1" xmlns="http://www.w3.org/2000/svg" xmlns:xlink="http://www.w3.org/1999/xlink" x="0px" y="0px"
	 viewBox="0 0 800 600" style="enable-background:new 0 0 800 600;" xml:space="preserve">
<style type="text/css">
	.st0{fill:#808080;}
	.st1{font-family:'Roboto-Regular';}
	.st2{font-size:14px;}
</style>
<g id="Croatia">
	<path class="st0" d="M405.653,36.133l0.54,0.43l4.027,2.519l1.243,1.256h0.568l0.405-1.207l0.578-0.462l0.732,0.126l0.838,0.539
		l2.476,0.486l2.014,1.392l1.695,2.098l1.503,2.579l1.753,2.292l2.842,1.764l1.137,2.399h0.636l0.694-1.924l0.665,0.437l2.514,0.566
		l0.414,0.181l0.414,0.314l0.395,0.412l0.405,0.524l0.617,0.552l0.25-0.45l0.202-0.618l0.491,0.007l1.195,1.19l0.833,1.122
		l0.564,0.759l0.896,2.198l-0.308,2.114l0.703,2.043l0.925,2.685l0.636,0.795l0.674,0.585l3.488,4.104l2.293,4.318l0.886,1.197
		l4.961,4.05l0.771,1.009l0.462,1.454l1.089,1.175l4.499,3.399l1.397,0.681l7.563,0.264l1.05,0.618l3.728,4.883l0.511,1.264
		l1.166,4.303l0.222,1.353l0.645,2.241l1.455,0.548l1.522,0.208l0.838,1.172l-0.694,0.139l-1.156,0.534l-0.636,0.16v0.915
		l1.368,0.485l0.168,0.148l0.931,0.822l0.983,0.236l1.002-1.691l0.539,2.294l-0.145,1.192l0.299,0.395l1.859-0.139l2.225-0.852
		l0.983,0.423l0.607,2.182l0.501-0.395l0.356-0.416l0.26-0.443l0.79-0.499l7.948,0.374l3.95,0.824l3.43,1.552l4.412,4.674
		l0.684,1.274l0.106,1.086l0.482,1.993l0.106,1.536l0.135,0.702l0.173,0.896l0.761,0.505l2.11,0.138l11.358,3.505l2.707,1.976
		l1.84,3.178l0.01,0.552l1.117-0.235l0.53-0.96l0.443-1.05l0.867-0.484h1.533h6.444l9.798,2.728h1.079l1.011-0.387l1.609-1.174
		l0.819-0.262h7.668l1.734,0.553l2.861,2.155l2.119,0.028l1.609,1.747l1.599,0.607l1.609-0.628l1.513-0.856l1.493,0.028l1.551,2.002
		l0.029,0.014l0.617,0.173l0.636,0.062l0.636-0.062l0.684-0.186l1.773-1.394l3.237-4.019l1.522-1.029l2.091,0.988l2.428-0.912
		l4.027-3.455l1.118-1.369l2.042-3.983l1.378-1.57l0.135-0.035l0.25-0.823l0.279-1.612l0.347-0.678l2.11-2.097l1.744-0.374
		l4.615,1.599l3.68,1.938l1.137,0.152l0.973-0.547l0.414-0.934l0.414-1.225l0.935-1.419l1.204,1.094l0.434-0.015l0.549-0.019
		l1.59-1.101l1.869-0.554l1.04-0.582l0.925-1.073l1.378-0.104l0.53,2.077l-1.599,1.045l-0.732,0.706l-0.848,0.99l1.917,1.522
		l0.983,1.093l0.279,1.038l-0.674,0.878l-1.175,0.256l-2.967,0.284l-0.27,3.651l-0.193,0.781l-0.337,0.567l-0.164,0.574l0.347,0.822
		l1.426,1.472l0.665,1.147l2.707,3.35l0.433,2.023l0.385,4.051l0.78,1.718l1.281,1.021l1.59,0.917l1.358,1.2l0.539,1.91l-0.52,1.151
		l-2.563,3.562l-1.021,0.758l-1.127,1.13l-0.385,2.506l-0.116,2.499l-0.318,1.142l0.79,0.647l1.859,3.02l0.906,0.88l1.724-0.027
		l1.204-0.949l0.935-1.128l1.628-0.86l0.8-0.571l0.828-0.255l0.848,0.64l0.578,1.06l0.289,0.688l0.414,0.592l0.935,0.811l1.57,0.736
		l1.349,0.296l1.195,0.681l1.04,1.918l-2.707,2.66l-5.526-0.82l-0.774-0.115l-1.233,3.305l0.617,2.452l0.862,0.917l1.806,1.919
		l0.54,1.558l-0.819,1.345l-4.913,2.285l1.195,2.085l1.387,1.742l1.618,1.179l1.85,0.425h3.844l0.925,0.535l0.318,1.261l0.077,1.507
		l0.241,1.226l2.418,2.883l3.478,1.732l18.738,4.873l1.397,2.47l1.792,0.834l0.983,2.667l-0.231,3.103l-1.065,1.064l-0.303,0.302
		l-8.054,0.369l-0.453-0.321l-0.751-1.155l-0.434-0.239l-0.674,0.301l-0.347,0.581l-0.279,0.594l-0.463,0.335l-3.902,0.512
		l-1.994-0.123l-1.792-0.683l-1.002-1.025l-1.753-2.536l-1.108-0.602l-2.052,0.492l0.646,1.948l1.204,2.501l-0.376,2.131
		l-2.013,0.417l-5.222-0.526l-1.416,1.27l0.125,1.174l0.742,1.024l0.925,0.928l0.694,0.86l0.713,1.645l0.289,1.276l0.347,3.172
		l0.771,3.893l0.106,1.383l-0.202,1.24l-0.443,1.587l-0.308,1.607l0.193,1.342l1.011,0.933l1.908-0.729l0.848,0.94l0.376,2.008
		l-0.665,0.953l-1.069,0.463l-0.886,0.551l-1.464,2.49l-0.857,1.116l-1.118,0.68l-1.358-0.17l-1.879-2.061l-1.262-0.401
		l-2.514,1.415l0.27,2.646l2.004,3.841l-1.012,0.306l-2.801,0.073l-7.95,0.206l-2.88-0.965l-1.547-1.014l-2.268-1.487l-3.208-3.448
		l-1.002-3.783l0.674-1.286l2.023-1.545l0.279-1.3l-0.145-0.456l-0.472-0.647l-0.202-0.375l-0.058-0.388v-0.701l-0.048-0.279
		l-0.27-0.804l-0.26-0.552l-0.376-0.361l-0.646-0.245l-2.601-0.252l-1.098-0.484l-1.117-1.349l-3.478-7.139l-0.462-0.6l-0.549-0.341
		l-0.636,0.068l-0.491,0.512l-0.26,0.771l-0.193,0.798l-0.289,0.634l-0.877,0.477l-0.761-0.355l-0.646-0.873l-0.53-1.064
		l-0.636-1.726l-0.414-0.6l-0.703-0.321l-0.617,0.109l-1.3,0.798l-0.626,0.246l-0.752-0.027l-1.503-0.375l-0.751-0.048l-1.368,0.573
		l-0.011,0.266l-0.037,0.907l0.453,1.61l0.173,1.855l-2.245-0.075l-2.447-0.914l-0.846-0.546l-1.456-0.94l-1.329-1.441l-2.101-2.278
		l-1.609-1.351l-1.782-0.819l-6.58-0.56l-1.387-0.614l-4.239-3.059l-2.245-0.895l-2.293,0.485l-1.021,1.284l-0.212,1.646
		l-0.068,1.666l-0.636,1.386l-1.638,1.024l-1.984,0.423l-0.928-0.019l-1.105-0.022l-1.811-0.362l-2.062-0.976l-5.154-4.67
		l-1.484-0.806l-1.455,0.014l-1.397,0.731l-5.665,6.84l-1.541,1.446l-0.8,0.437l-2.553,0.498l-2.755,1.153l-0.925,0.109
		l-1.879-0.757l-1.686-1.555l-5.231-6.777l-2.505-2.479l-2.775-1.578l-3.092-0.184l-2.013,1.059l-3.439,3.667l-1.927,1.215
		l-1.021,0.137l-2.042-0.212l-4.682,0.621l-0.694,0.246l0.482-0.853l0.857-2.752l-2.225,1.181l-1.117,0.198l-1.175-0.403
		l0.674-0.833l0.289-0.731l-0.106-0.751l-0.539-0.881l-0.732-0.471l-0.424,0.519l-0.241,0.82l-0.193,0.444l-3.102,0.997
		l-1.715,0.184l-1.291-0.724l-0.857-0.738l-3.064-2.015l-1.744-0.724l-3.622-2.399l-1.792,3.922l-0.395,0.594l-4.441,0.321
		l-1.002,0.581l-5.823-2.709l-2.443-1.137l-3.979-3.014l-1.811-3.973l-0.568,0.465l-1.474,0.951l-0.568,0.479l0.395-1.101
		l0.096-0.807l-0.145-0.78l-0.347-1.019l-0.896,1.69l-0.983-0.677l-1.137-1.409l-1.378-0.499l0.385,0.889l0.25,0.917l-1.927,0.212
		l-0.539-0.732l0.058-1.143l-0.135-1.047l-0.751-2.786l-0.771-0.76l-2.553,2.17l-0.279,0.609l-0.761,1.102l-0.973,1.095
		l-0.751,0.472l-0.52,1.477l-0.915,0.636l-1.04,0.451l-0.934,0.93l-0.53,1.579l0.067,1.148l-0.145,0.964l-1.166,1.039l-2.37,0.314
		l-18.574-5.558l-5.414-0.185l-4.383,3.008l-3.054,6.799l-1.272,2.014l-1.002,0.737l-2.447,0.771l-0.867,0.608l-0.694,1.222
		l0.019,0.744l0.193,0.86l-0.193,1.549l-0.434,1.071l-1.898,3.56l-1.02,3.774l-0.502,1.856l-2.274,0.62l-3.439-0.783l-3.555-1.553
		l-2.63-1.649l-8.526-8.538l-1.628-2.163l-1.984-5.162l-1.426-2.377l-1.166-0.902l-2.042-0.437l-0.809-0.608l0.058-0.608
		l0.347-0.971l0.048-1.162l-0.819-1.176l-1.118-0.561l-1.021-0.048l-2.139,0.417l-8.921-0.246l-5.039,0.827l-2.072,1.92
		l-0.953,0.883l-1.06,2.884l-0.087,1.018l0.347,7.845l-0.405,2.054l-2.187,5.694l-0.039,2.461l1.108,3.999l-0.356,2.329
		l-2.312,4.044l-0.439,1.372l-0.303,0.949l0.318,3.306l1.281,2.645l1.493,2.365l0.877,2.501l-0.443,2.323l-1.628,0.761l-1.917,0.598
		l-1.358,1.813l0.116,2.199l1.04,2.28l2.351,3.914l0.52,0.671l2.196,1.519l0.713,1.207l0.607,1.328l0.809,0.867l1.368-0.21
		l0.896-0.298l1.667-0.129l0.8-0.271l0.694-0.84l0.501-1.125l0.655-0.82l1.166,0.074l0.636,0.746l0.347,1.227l0.25,1.362
		l0.318,1.138l0.713,0.739l0.79-0.21l0.771-0.44l0.703,0.068l1.002,1.423l0.703,3.264l1.243,1.828l0.944,0.636l1.166,0.386
		l2.274,0.325l1.146,0.555l0.732,1.232l0.462,1.637l0.337,1.759l-0.145,0.122l-0.771,0.399l-0.414,1.725l-1.541,1.988l-0.732,2.095
		l1.917,2.068l1.927,0.243l3.391-1.513l1.975,0.331l1.079,1.426l0.617,2.297l0.491,2.559l2.293,6.432l0.626,2.475l0.019,2.009
		l-0.559,0.93l-0.79,0.519l-0.617,0.546l-0.048,1.018l0.347-0.411l1.04,0.04l1.696,0.438l1.936,1.26l1.002,0.997l0.259,1.205
		l0.021,0.095l-0.251,2.182l-0.327,1.091l-0.944,2.107l-0.27,1.42l0.087,1.978l0.886,4.07l1.744,5.593l1.522,2.231l4.046,4.372
		l1.349,2.37l2.071,5.079l1.368,2.287l1.792,1.804l1.05,0.818l0.915,0.523l1.002,0.101l2.428-0.181l0.935,0.382l1.204,1.984
		l0.424,1.91l0.761,1.527l4.085,1.487l1.638,1.272l1.445,1.707l1.017,1.513l2.644,3.934l4.566,4.711l3.035,4.224l3.844,3.584
		l0.703,1.88l0.337,2.173l0.79,2.743l1.339,2.138l10.366,8.284l14.74,15.151l4.528,5.302l2.964,2.666l2.074,1.865l5.424,3.071
		l9.017,1.404l2.89,1.951l1.484,3.318l-1.753,10.782l2.081,6.393l3.613,5.515l3.796,3.558l1.888,1.21l0.983,0.902l0.617,1.358
		l0.78,2.617l1.079,2.46l1.426,1.697l0.825,0.547l12.721,8.431l0.992,1.177l2.832,3.359l2.852,6.747l0.01,0.003l0.01,0.023
		l0.01,0.007l0.318,3.529l-2.63,1.948l-5.02,1.059l-0.053-0.031l-2.837-1.653l-1.411,0.596l-1.76-1.052l-1.593-1.69l-0.956-1.332
		l-1.274-2.365l-0.349-1.561l0.774-1.147l2.124-1.095l-1.305-0.509l-1.517,0.576l-1.707,0.981l-1.843,0.685l0.66-0.327l1.821-1.406
		l-0.91-0.021l-0.91-0.145l-0.781-0.498l-0.577-1.074l0.698-0.877l-0.577-1.194l-0.121-0.55l-2.01,1.744l-3.141-2.855l-5.09-6.815
		l-13.412-6.972l-3.201-2.622l-1.555-0.827l-0.69-0.562l-0.577-1.686l-0.698-0.677l-0.941-0.448l-0.941-0.172l-0.614-0.312
		l-0.637-0.755l-0.963-1.552l-0.174-0.542l-0.311-1.667l-0.152-0.484l-0.41-0.224l-1.183-0.333l-0.395-0.24l-8.784-11.45
		l-2.602-1.754l-0.956-0.94l-0.675-0.846l-0.736-0.611l-11.947-1.739l-5.462-2.413l-6.342-1.379l-8.481-6.178l-0.129-0.329
		l-0.083-0.596l-0.235-0.57l-0.501-0.262l-0.569,0.141l-0.842,0.596l-0.478,0.141l-3.527-0.879h-7.002v-0.879l1.859-0.021
		l2.132-0.523l2.018-0.91l1.631-1.182l-1.547-0.994l-2.139-0.497l-9.05-0.183l-1.1,0.34l-1.737,1.104l-0.652,0.23l-1.699,0.272
		l-3.869,1.219l-11.363,0.267v0.879l3.08,0.805l1.32,0.936l0.698,1.851h-5.735l0.212,1.385l-1.366-0.146l-3.012-1.239l-2.48-0.141
		l-1.047-0.533l-1.335-1.161h-0.577v0.878l-1.123-0.8l-2.078,0.031l-0.668-0.988l-0.076,0.22l0.008,0.376l-0.114,0.293l-0.455-0.01
		l0.167-1.422l0.493-0.241l0.728,0.021l0.865-0.554l0.311-0.8l-0.258-0.612l-0.182-0.675l0.47-0.978l-1.525,0.178l-0.546,0.204
		l-0.523,0.487l-0.303-1.256l-0.759-0.639l-2.124-0.733l1.548-0.183l0.212-0.864l-0.819-0.801l-1.623,0.005v-0.796l0.432-0.262
		l0.463-0.408l0.425-0.293l-0.933-0.696l-0.387-0.173l0.683-0.801l-0.683-0.88l0.683-0.959l-0.592-1.918l0.986-0.707l3.429,0.063
		v-0.959l-4.187-0.896l-1.547,0.016l1.115-0.723l0.918,0.079l0.766,0.409l0.706,0.236l0.986-0.367l-0.144-0.844l-0.819-0.886
		l-0.979-0.535l1.29-0.498l0.599-0.96l-0.182-1.133l-1.07-1.018L352,409.11l-0.797,0.147l-2.276-1.93l-1.29-1.165l-0.645,0.021
		l-0.857-0.168l-0.561-0.199l-0.584-0.64l-1.282-2.036l-0.63-0.771l-3.778-2.126l-1.054-1.04l-1.972-0.709l-6.031-0.446
		l-1.274-1.444l-0.979-2.916l-2.207-1.02l-2.374-0.694l-1.449-1.945l2.784,1.246l1.472,0.373l1.472,0.147v-0.962l-0.546-0.252
		l-0.379,0.032l-0.205,0.131l-0.091,0.089l-2.511-2.176l-6.038-3.024l-2.534-2.204l-0.159-0.137l-1.889-2.952l-1.183-1.374
		l-1.35-0.574l-1.426-0.211l-0.819-0.258l-0.705-0.332l-1.024-0.822l-0.501-0.822l-0.379-0.901l-0.645-1.075l-5.098-6.182
		l-2.42-3.671l-1.722-1.773l-1.874-0.76l-3.907-4.814l0.068-0.422l-4.203-4.585l-1.047-0.613l-0.85-0.703l-0.379-0.925l0.364-1.311
		l-1.472-1.068l-4.885-5.066l1.479-2.307l-0.766-2.874l-1.927-2.515l-1.972-1.266l1.108-1.361l1.714-0.996l1.578,0.276l0.698,2.49
		l1.077,1.467l1.987-0.959l0.918-2.013l-2.086-1.642l0.713-0.191l0.106-0.233l0.038-0.021l0.417,0.445h0.698l-0.501-1.579
		l-0.288-0.54l4.612,3.084l1.942,2.542l1.039,0.868l1.464,0.143l-1.259-4.518l0.819-0.265l0.41-0.366l0.273-0.493l0.455-0.668
		l-1.252-0.397l-1.039-0.991l-0.865-1.389l-0.713-1.58l1.798,0.658l2.617,2.38l2.64,0.991l6.676,3.825l1.487,0.562l7.373,1.139
		l2.018-0.191l0.319-1.446l-1.29-0.874l-6.114-0.895l-0.47-0.403l-2.807-3.657l-0.751-0.53l-9.141-4.401l-1.32-1.358l-12.934-13.296
		l-4.377-6.162l-2.61-2.905l-2.617-1.229l-0.387-0.639l-3.034-2.449l-0.743-0.085l-0.561-1.15l-9.315-14.626l-1.639-4.387
		l1.062-1.644l-0.121-1.944l-0.599-2.286l-0.341-2.677l-0.228-7.266l0.228-2.29l2.003-8.309l0.895-2.015l0.63-2.487l-0.683-2.981
		l-5.393-12.536l-0.341-2.267l-0.956-1.569l-1.411-1.113l-5.727-3.091l-10.074-7.833l-4.771-6.322l-1.297-0.722l-1.563-1.649
		l-0.69-1.811l1.267-1.245l-1.062-1.1l-3.398-2.524l1.669,1.99l0.296,0.237l-0.326,1.035l-0.804,0.561l-0.956-0.005l-0.804-0.647
		l-1.297-1.456l-10.081-5.151l-3.611-0.799l-1.654-0.928l-1.502-0.313l-1.699,1.328l-1.934,3.113l-1.752,4.028l-1.259,4.549
		l-1.001,9.17l-1.214,4.218l-0.061,0.199l-0.136,0.489l-2.177,3.038l-2.784-1.075l1.487,1.839l-0.205,1.978l-1.183,1.87
		l-1.494,1.526l-0.577-0.983l-0.364,1.112l-0.023,0.918l0.387,2.475l-0.364-0.236l-0.637-0.301l-0.334-0.279v0.816l1.449,1.696
		l0.63,2.823l-0.228,3.058l-1.153,2.408l-1.07,0.81l-0.751-0.096l-0.713-0.44l-1.017-0.273l-1.115,0.424l-1.085,1.024l-0.865,1.217
		l-0.44,1.018h-0.637l0.258-2.573l0.743-1.169l0.395-1.115l-0.759-2.43l-1.972-1.797l-0.281-0.998l0.144-0.939l-0.106-0.644
		l-1.085-0.123l0.357,1.557l-0.395,2.339l0.41,1.057l0.971,0.644l0.88,0.102l0.69,0.316l0.387,1.271l-1.016,0.997l-1.305,2.589
		l-0.592,0.67l-0.387-0.654h-0.523l0.379,0.917l0.137,1.099l-0.106,1.216l-0.41,1.254l-0.751-0.23l-0.387,0.075l0.015,0.38
		l0.486,0.68v0.894l-0.478,0.048l-0.114,0.118l0.023,0.3l-0.114,0.525l-0.926-0.546l-2.063,0.589l-1.472-0.043l0.751,0.6
		l0.478,0.589l0.667,1.419h-0.637v0.819h0.637v0.979l-0.667,0.455l-0.425,0.572l-0.804,1.664l0.182,0.984l0.159,0.289l-0.008,0.337
		l-0.334,1.086l0.986-0.053l0.577,0.257l0.425,0.604l0.561,0.979l-3.368,0.16l-1.638-0.257l-1.365-0.882l-0.182,0.545l-0.015,0.144
		l-0.44,0.289l-0.569-2.102l-0.842-0.251l-0.941,0.251l-0.88-0.583l-0.652,0.898l1.001,0.428l0.971,0.802l0.47,1.091l-0.455,1.342
		l0.834,2.148l0.425,0.545l-1.381,0.769l-0.349-1.256l0.03-2.143l-0.258-1.94l-0.683-0.529l-2.761-1.128l-1.017-0.128l0.197-0.444
		l0.243-0.925l0.197-0.423l-0.296-0.064l-0.675,0.08l-0.303-0.016l0.637-0.904l-0.637-0.984l-1.017,0.251l-1.464-0.508l-1.525-1.049
		l-1.138-1.381l0.698-0.819l0.956,1.408l1.373,0.385l1.32-0.749l0.797-1.943l-2.519,0.605l-0.971-0.246l-0.956-1.258v-0.809
		l0.379-0.375l0.448-0.878l0.432-0.632l-1.062-1.243l-2.109-5.128l-3.854-4.102l-4.794-6.782l-0.743-0.623l-1.168-1.337
		l-1.585-1.224l-1.919-0.338l0.417-0.838l0.501-1.322l0.356-0.548l-2.268-3.208l2.42-1.607l8.177-0.591l-1.82-0.871l-2.154-0.301
		l-4.354,0.177l-2.321,0.694l-1.062-0.064l-0.432-1.075l0.182-1.393l0.25-1.146l-0.114-0.882l-0.956-0.554l0.432-0.899l0.061-0.667
		l-0.357-0.592l-0.774-0.635v-0.824l0.766-0.484l0.372-0.813l-0.023-1.077l-0.478-1.314l0.614-1.303l-0.046-1.357l-0.652-1.164
		l-1.191-0.701l0.311-0.808l0.508-0.674l0.728-0.404h0.994v-0.825l-0.948-0.458l-0.736-0.582l-0.531-0.771l-0.326-0.987l0.956-0.178
		l0.819-0.437l1.403-1.197l-1.085-0.561l-2.503-0.086l-0.865-0.178l-1.039-1.052l-0.872-1.57l-0.068-1.409l1.343-0.572v-0.831
		l-1.1-1.172l-2.776-7.974l0.19-0.254l0.296-0.292l0.205-0.357l-0.448-0.589l-0.03-0.092l0.205-0.216l0.273-0.995l-1.51-3.537
		l-0.288-1.959l0.523-1.77h0.584l0.91,0.752l4.24,2.056l1.949,0.26l3.681,3.968l2.885-0.132l9.258-0.424l4.403,2.795l1.243,1.263
		l1.464,0.467l4.981,0.728l0.992-0.741l0.819-1.284l1.358-1.339l4.364-1.861l1.195-1.642l-1.975-2.37v-1.429l0.328-0.942
		l0.646-0.433l1.453,0.308l2.468,0.524l1.339,0.708l1.233,1.264l2.341,1.711l2.447,0.845l2.221,0.122l0.053,0.003l0.22,0.012
		l2.408-0.447l4.432-2.082l2.389-0.701l2.042,0.508l3.709,1.628l4.326,0.824l4.287-0.392l3.584-2.041l1.725-1.622l3.651-2.688
		l1.233-2.242l0.491-1.885l0.381-3.004l0.072-0.567l0.588-1.7l0.867-1.287l2.351-2.645l0.983-1.433l1.166-2.701l0.723-0.8
		l0.485-0.208l1.105-0.474l1.021,0.593l0.202,2.047l-0.106,2.446l0.087,1.798l0.857,1.68l1.204,1.267l3.199,2.56l0.655,0.275
		l0.592,0.345l0.035,0.02l0.54,0.729l0.173,1.032l-0.328,2.352l0.029,0.688l1.85,1.588l8.651,3.815h0.01l0.01,0.021l0.01,0.007
		l1.464,3.717l3.882,0.824l3.989-1.435l1.792-3.105l0.337-2.832l1.696-0.069l2.12,1.388l1.609,1.512l1.371,0.188l0.835,0.114
		l1.04,0.488l0.925,0.845l4.547,0.124l0.929,0.795l6.817,5.832l4.191,0.59l3.88-1.441l5.195-1.93l3.025,0.062l1.04-0.309
		l0.809-0.755l1.667-2.342l0.896-0.783l-4.692-3.175l-1.339-2.269l-0.751-2.874l-0.559-3.467l-0.04-0.118l-0.509-1.492l-0.665-1.432
		l-0.096-1.095l1.166-0.599l0.636-0.558l0.347-1.054l0.54-0.992l2.736-0.875l1.156-0.62l1.301-0.455l1.927,0.014l-0.511-1.178
		l-1.522-2.536l-0.18-0.207l-1.506-1.737l-0.289-0.255l-0.347,0.186l-1.127,0.303l-0.424,0.359l-0.125,0.538l-0.385,0.269
		l-1.214-0.455l-0.828-0.607l-0.491-0.655l-0.925-1.793l-0.896-0.89l-0.684-0.338l-0.183-0.559l0.093-0.253l0.476-1.299l0.79-0.925
		l3.757-2.105l2.538-0.846l9.138-3.048l0.064-0.053l1.053-0.866l-0.145-1.271l-0.366-1.396l0.443-1.251l1.021-0.491l1.05,0.124
		l1.06,0.352l1.069,0.187l0.925-0.332l1.734-1.438l0.896-0.456l2.444,0.418l3.5,0.598l3.613-0.131l1.821-0.525l1.908-1.009
		l0.935-1.341l-0.058-1.909l-1.098-2.691l-0.395-1.709l0.366-1.606l0.655-1.585l0.482-1.676l0.145-2.23l-0.161-4.115l-0.109-2.774
		l0.01-0.021l0.713-2.711l1.089-1.644l0.405-1.402l-0.476-0.729l-0.834-1.277l-1.137-0.84l-2.611-1.09l-1.137-0.68l-0.739-0.785
		l-1.843-1.958l-1.301-3.029l0.01-3.385l1.339-3.811l1.725-3.325l0.347-0.472l1.233-1.678l2.004-1.03l1.555,0.115l6.692,0.497
		l1.782-1.156l1.888-3.196l0.968-0.746l0.333-0.257l1.416-0.676l1.484-0.383l4.205-0.127l0.147-0.004l0.263-0.008l3.28-1.811
		l2.779-1.534l3.102-0.558l1.088-0.307l0.444-0.125l1.936-0.983l1.84-1.297l1.023-1.119l0.23-0.251l0.674-1.852l0.01-1.755
		l-0.212-1.937l0.048-2.415l2.861,0.601l0.531,0.111l1.089-0.199l0.886-0.751l0.713-1.026l0.78-0.835l1.146-0.223l0.906,0.444
		l2.235,2.14l1.329,0.785l1.57,0.363l0.79-0.035l3.324-0.82l2.129,0.035l0.434-0.412l-0.032-0.331l-0.113-1.174l-0.434-0.643
		l-1.59-1.055l-0.568-0.688l-0.25-1.128l0.173-2.177l-0.067-1.094l-1.108-3.726l-0.357-1.85l0.049-0.833l0.067-1.144l2.426-2.741
		l0.281-0.318l2.929-1.155l1.426-0.886l1.802-0.606l0.959-1.135L389.699,30l0.662,0.956l0.041,0.059L390.98,30l1.079,0.868
		l1.185,0.161l1.185-0.098l1.06,0.084l0.828,0.532l1.57,1.673l0.78,0.567l0.809,0.091l2.023-0.259l0.983,0.168l0.915,0.525
		L405.653,36.133z M584.814,551.939l0.433,2.05l-0.52,4.079l0.068,2.195l0.665,1.956l0.992,1.669l1.195,1.433l0.722,0.45l1.619,0.94
		l0.462,1.416L590.32,570l-2.048-3.16l-1.259-0.833l-3.11-0.925l-1.35-0.833l-0.114-1.789l-16.12-10.503l-1.714-2.544l0.03-1.159
		l0.212-1.747l0.03-1.592l-0.554-0.685l-4.802-0.866l-3.838-2.238l-1.51-0.356l-1.585-0.108l-1.456-0.387l-1.123-0.799l-0.615-1.305
		h1.859l-1.995-1.914l-0.751-0.965l-0.432-1.45l-1.388,1.362l-2.336-1.187l-3.922-3.645l-5.553-2.856l-1.95-2.139l1.13-2.806
		l-2.587,0.114l-2.807-2.192l-2.64-0.6l-0.614,0.119l-0.721,0.31l-0.622,0.429l-0.516,1.044l-0.592-0.207l-0.561-0.475l-0.22-0.269
		l-0.615-0.403l-2.207-1.825l-1.32-0.543l1.737,1.675l0.85,1.225l1.229,3.137v0.558l-0.63,0.429l-0.599-0.139v-0.775l0.144-0.961
		l-0.129-0.651l-1.874-1.261l-4.68-1.965l-4.202-0.853l-4.976-2.327l-5.113-0.936l-7.904-3.146l0.212-3.215l-2.374-1.6l-6.182-1.346
		l-7.419-5.295l-3.156-1.021l-1.487-1.073l-0.713-0.358l-1.115-0.218l-9.93-0.016l-3.065-0.715l-1.525-0.638l-1.737-1.084
		l-0.895-1.307l0.956-1.318v-0.872l-0.872-0.394l-0.546-0.654l-0.455-0.778l-0.599-0.789l2.003,0.363l3.034,2.512l1.639,0.612
		l7.965-0.872l7.601,1.048l14.003,5.741l3.292,2.146l2.64,2.368l0.152,0.492l0.015,0.699l0.083,0.756l0.319,0.663l0.432,0.135
		l1.092-0.218l0.455,0.083l1.661,1.264l0.781,0.352l1.047,0.119l0.349-0.264l-0.046-1.196l0.372-0.275l0.554,0.15l0.88,0.653
		l0.47,0.15l1.153,0.186l0.857,0.476l1.456,1.067l3.649,1.196l1.745,0.87l1.032,1.413h0.584l1.373-0.217l3.945,3.927l2.374,0.626
		l-2.845-2.209l-0.842-1.506l1.092-1.568l-0.584-0.792l-2.67,0.973l-2.367-1.47l1.174-1.81l1.262-1.338l2.062-0.487l2.052,0.414
		l3.902,1.542l1.984,0.349l0.742-0.408l0.742-0.641l0.848-0.03l1.079,1.463l0.27,1.236l-0.106,3.066l0.193,1.452l2.919,4.595
		l1.021,0.657l3.266,0.923l2.274,1.746l4.008,4.551l2.187,1.843l5.038,3.259l16.291,10.99l3.073,1.669l5.077,1.731l2.524-0.164
		l1.021,0.789l1.88,2.772l0.065,0.096l1.378,0.899l3.333,0.366L584.814,551.939z M437.612,523.44l5.864,0.868l1.198,0.79
		l0.228,1.958l-1.092,1.792l-1.79,1.224l-1.912,0.299l-0.258-0.888l-0.758-0.155l-1.479-0.682l-0.979,1.193l-1.244,0.336
		l-1.259-0.651l-1.024-1.746l1.161-0.672l0.167-1.136l-0.486-0.672l-0.842,0.744h-0.637l0.675-1.503l1.669-0.713L437.612,523.44z
		 M512.256,528.648l1.904,1.663l4.764,2.086l1.714,2.395l-33.832-9.692l-1.13,1.39l-1.866-0.847l-1.798-1.736l-1.001-1.333
		l1.661-0.326l3.004-1.173l1.729,0.119l-0.463,0.186l-0.501,0.305l-0.971,0.889l1.032-0.103l0.994,0.062l0.948,0.305l0.834,0.605
		l0.698-0.868l1.578,1.044l4.582,0.057l3.512,2.201l4.733,0.93l2.147,0.976l-0.288,0.263l-0.083,0.067l-0.266,0.537l5.363,0.568
		L512.256,528.648z M463.123,499.839l1.57,2.161l1.456,1.415l3.345,2.507l-0.637,0.953l-1.775-0.984l-1.98,0.114l-4.256,0.87
		l-8.587-1.823l-3.952,0.243l-6.918,2.657l-4.407,0.652l-10.408-2.097l-4.506-1.404l-1.73,0.186l-0.023,0.632l-1.601-0.57
		l-1.585-1.083l6.372-3.482v-0.949l-1.775-0.56l-3.679-0.487l-1.547-0.617l1.957-1.244l2.063-0.067l2.116,0.347l2.139,0.016
		l1.949,1.203l2.534,1.068l5.173,1.291h5.09l1.297-0.409l2.139-1.171l10.863-1.032l7.366,2.333L463.123,499.839z M380.105,486.781
		l0.394-0.561l0.41-0.389l0.334,0.197l0.137,1.189l-0.258,0.784l-0.622,0.592l-1.092,0.799l-1.1,1.432l-1.085,0.892l-8.291,2.537
		l-3.186,0.244l-2.238-0.757l1.988-1.089l0.243-1.972l-0.743-1.516l-0.91,0.228h-0.577l-1.335-1.744l0.387-0.4l0.402-0.244
		l0.463-0.135l0.66-0.088l2.162-1.376l3.512-0.727l3.725,0.094l2.754,1.059l-0.47,0.639l-0.167,0.311l2.139-0.919l1.153,0.062
		L380.105,486.781z M422.228,479.722l-2.139,0.229l-10.286-2.235l-7.874-3.005l-2.814-0.551l-1.669-1.16l-1.047-0.25l-4.142-1.748
		l0.395-0.567l0.425-0.26l1.032-0.047l1.168,0.661l1.054-0.167l2.283-1.447l0.584,0.952l0.281-0.531l1.047-1.212v0.791l3.368-1.062
		l2.852,1.764l2.602,2.091l2.64-0.094l-2.549-2.7l-2.481-1.515l-0.819-0.942l1.35,0.161l2.587-0.161l1.912,1.666l0.357-0.036
		l0.918-0.703l0.637-0.219l1.176-0.01l2.761,0.463l1.259,0.505l0.63,0.656l0.584,0.999l0.759,1.056l1.161,0.78l0.046,0.593
		l-0.129,0.156h-0.258l-0.296,0.125l1.821,1.409l2.04,0.79l2.192,0.343l9.035-0.052l1.517-0.832l1.305,1.279l1.707,0.52l5.78,0.302
		l5.576,1.476l8.511-0.374l4.233,0.442l3.55,1.668h-23.315H422.228z M404.296,459.647l-7.351-4.268l-1.502-1.94l0.751,0.495
		l0.523,0.469h0.637l0.046-0.808l0.273-0.125l0.432,0.094l0.508-0.125l-0.516-0.923l0.061-0.834l0.63-0.616l1.1-0.25l-1.282-2.275
		l-1.252-2.975l1.934-0.094l0.599,0.094l3.77,1.513l18.062,0.678l11.386,3.057v0.871h-1.274l0.994,0.501l0.88,0.287l0.743-0.099
		l0.569-0.688l0.842,0.704l1.752,2.013l1.009,0.334l0.812-0.109l0.69,0.188l0.675,1.251l-1.191,2.34l-0.675,0.761l-0.736-0.474
		l-1.699,2.345l-3.08,0.719l-17.235,0.516l-5.993-0.813L404.296,459.647z M394.108,451.686l-1.441,1.658l-2.549-0.673l-6.235-3.933
		l-4.612-1.936l-2.352-0.36l-0.061-0.579l0.129-0.172l0.235-0.01l0.273-0.115l-0.918-0.752l-0.273-0.908l0.478-0.752l1.35-0.298
		l5.31,0.423l1.972,1.065l0.425,2.098l2.526-0.313l1.752,1.461l1.684,2.202L394.108,451.686z M327.688,412.927l5.735,2.641
		l-5.507-1.651l-0.865,0.372l-0.834-1.064l-4.051-2.993l-1.479-0.745l0.706-0.954l0.387,0.661l0.387,0.199l2.845,0.309l1.07,0.975
		l0.751,1.253L327.688,412.927z M288.758,384.654l0.478,1.305l7.093,5.836l1.107,1.482l1.214,1.324l2.64,2.285l-0.812-0.573
		l-5.5-2.517l-1.775-1.198l-1.912-2.57l-2.534-1.845l-1.244-1.194l-1.35-1.704l-0.523-1.584l1.206-0.815L288.758,384.654z
		 M292.626,371.806l-0.523-1.518l-2.511-2.878l-0.834-1.392l1.775,0.032l1.502,0.675l4.991,3.796l2.67,0.601l0.508,0.195
		l0.235,0.743l0.266,2.171l0.205,0.706l0.561,0.648l1.259,0.553l0.713,0.49l0.743,0.916l0.804,1.395l0.683,1.579l0.311,1.495
		l-0.683-0.41l-0.683-0.268l-0.721-0.158l-0.804-0.058l-0.743-0.221l-0.326-0.526l-0.19-0.589l-0.357-0.432l-2.389-0.748
		l-1.252-0.711l-0.812-1.264l0.41-0.3l0.228-0.506l-1.236-0.553l-1.684-1.138l-1.479-1.296L292.626,371.806z M288.121,365.132
		l-1.168-1.282l-0.895-1.773l-0.834-1.145l-0.986,0.654h-0.577l-0.114-0.586l-0.182-0.353l-0.182-0.327l-0.22-0.496l-0.925,1.43
		l-1.813-1.409l-1.949-2.296l-2.511-2.059l-3.239-4.089l-1.714-1.332l0.197-0.476l0.03-0.111l0.083-0.042l0.326-0.259l-0.379-0.724
		l-0.834-2.019l15.217,12.425l1.988,2.533L288.121,365.132z M249.752,348.215l0.713-0.518l0.637,0.026l0.607,0.507l0.501,0.988
		l-1.214,0.476l-1.95-0.624l-1.434-1.475l0.243-2.035l0.463,1.401l0.751,0.893L249.752,348.215z M277.88,373.972l6.736,4.772
		l0.319,1.5l-2.306,0.774l-4.658-3.712l-1.138,0.348l0.41,0.432l0.243,0.627l0.395,0.637l2.344,1.7l0.546,0.521l0.736,0.516
		l0.713-0.074l0.531,0.147l0.212,1.131l-0.425,0.647l-0.925-0.579l-0.88-0.926l-0.258-0.421l-3.345-2.005l-1.411-1.237l-1.373-1.664
		l-3.702-5.711l-2.245-2.704l-3.702-8.023l-1.866-1.816l-2.609-1.204l-7.92-8.468l-0.212-1.459l-0.455-1.168l-1.244-1.893
		l0.523-0.116l0.41,0.063l0.341,0.053l1.821,2.136l5.249,4.16l0.47,0.893l0.425,1.183l0.531,1.03l0.766,0.438l1.274,0.412
		l0.819,0.739l0.812,0.407l1.259-0.671l-0.425,1.278l-0.212,0.486l1.297,0.19l0.774,0.744l0.372,1.283l0.106,1.773l0.379,1.594
		l0.88,1.287l4.369,4.767l1.017,0.59l1.365,0.169l0.296,0.643L277.88,373.972z M252.938,294.57l-1.032-0.862l-9.732-12.084
		l-1.661-2.864l-0.933-2.977l0.417,0.011l0.288,0.197l3.611,4.209l6.084,9.035l3.596,2.732l-0.341-3.867l2.23-0.107l3.186,2.077
		l2.617,2.711l2.124,3.508l1.381,1.378l3.474,1.123l0.986,1.479l0.925,2.021l1.29,2.175l-1.828-0.282l-2.587-2.212l-1.942-0.181
		l0.41-1.351l0.228-0.505l-3.846-2.272l-1.866-0.702l-1.009-0.777l-1.259-0.639h-1.623v0.894l5.113,2.825l7.646,11.031l4.536,3.165
		l-1.479-1.221l-1.479-1.747l-1.297-2.263l-0.887-2.79l3.891,1.929l8.701,9.209l2.094,1.337l1.32,1.544l2.625,2.366l1.214,1.437
		l-1.798,0.493l-2.177-1.289l-2.276-1.782l-2.078-0.987v0.891l1.661,0.35l1.638,1.087l1.434,1.485l1.047,1.532h-1.912l0.159,0.732
		l0.25,0.445l0.379,0.313l0.486,0.286l-1.987-0.562l-4.134-1.819l-2.207-0.207v0.811l3.869,2.741v0.806l-2.154-0.525l-1.912-1.15
		l-1.639-1.643l-1.35-2.01v-0.811h1.274v-0.971l-0.751-0.451l-0.478-0.541l-0.743-1.682l0.986,0.08l0.668-0.207l0.485-0.573
		l0.47-0.993l-2.382-1.587l-0.804-0.281l-0.88,0.138l-1.472,0.817l-0.819-0.064l-0.994-1.12l-1.639-3.489l-5.773-4.792l-0.85-0.181
		l-4.87-2.982v-0.803l0.531-0.186l0.903-0.558l0.539-0.234l-1.153-2.138l-2.67-3.98L252.938,294.57z M212.726,293.756l7.555,8.141
		l0.721,2.568l-2.086,0.239l-2.511-2.403l-3.087-4.085l-1.282-0.883v-0.894l1.965,0.564l0.637,0.33l-2.617-3.401l-1.434-1.208
		l-1.73-0.756l-0.66,1.374l-0.971,0.463l-1.107-0.256l-1.085-0.767v-0.815h0.637v-0.021l-0.114-0.288l-0.364-0.682l1.661-2.099
		l-0.615-2.59l-2.48-4.232l-0.448-1.728l-0.698-4.081L202.493,274l1.858,1.27l2.367,1.11l1.525,1.707l-0.66,3.072l0.448,1.152
		l0.41,2.079l0.417,3.56l0.554,1.225L212.726,293.756z M240.217,265.931v1.021l0.228,0.62l1.039,1.052l-1.229-0.871l-1.487-0.427
		l-1.396-0.032l-0.979,0.353l-3.876-4.408l1.168-0.096l1.161,0.096l1.115,0.305l1.016,0.513v-0.818l-0.319-0.444l-0.083-0.289
		l-0.008-0.39l-0.174-0.754l1.525,1.299l0.387,0.577h0.637l-1.183-2.582l-0.774-1.107l-1.282-0.872l-0.212-0.428l-0.372-1.369
		l1.957,0.289l1.866,0.615l-0.25-0.546l-0.387-1.343l1.775,0.161l1.327,0.995l0.266,1.337l-1.456,1.187v0.807l0.705,0.487
		l3.664,3.619l2.253,1.32l1.016,1.021l2.685,4.481l0.728,2.616l-0.88,1.857l-2.625-2.29l-4.521-5.206L240.217,265.931z
		 M219.098,281.16l-0.546,1.162l0.046,1.045l0.599,0.416l1.168-0.752l0.637,1.786l-0.652,0.933l-0.652,0.735l-0.652,0.352
		l-1.032-0.186h-2.731l-4.202-4.755l-3.11-6.689l0.25-5.776l-0.417-0.118l-0.266-0.203l-0.235-0.23l-0.357-0.256l-0.842,0.513
		l-0.592-0.945l-0.364-1.752l-0.114-4.222l-0.137-1.24l-0.463-0.497l-0.986-0.096l-1.51-1.765l-1.464-7.872l-1.859-1.955
		l0.091-0.584l0.099-0.375l0.493-0.841l-0.842-2.373l0.842-0.407l2.207,0.911l0.66,0.568l1.676,2.539l0.872,0.562l1.631,0.064
		l0.956-0.112l0.546-0.761l0.372-1.885l-0.341-0.745l-0.425-2.052l0.121-1.324l1.282,1.431l0.683-0.9l-1.858-1.721l-1.373-2.3
		l-2.799-8l-0.546-1.063l-4.976-6l-0.835-1.623l-0.076-1.935l1.016-2.753l1.024-1.786l1.312-1.334l1.699-0.452l2.268,0.872
		l0.736,1.538l-0.334,5.286l0.235,3.176l0.614,2.385l1.684,4.811l2.291,4.668l0.501,0.746l1.229,1.014l2.147,0.306l1.138,0.563
		l0.69,1.619l-0.227,2.305l-0.789,2.363l-0.994,1.8l0.683,0.905l-0.865,2.292l-0.137,1.879l0.319,4.319l1.206,3.872l0.159,2.181
		l-1.365,0.797l0.478,1.448l1.138,1.924l0.341,1.036l0.091,1.4l-0.584,1.629l-0.144,1.618l0.569,2.866l1.252,2.081l1.464,1.824
		L219.098,281.16z M238.624,244.222l-1.585-0.445l-4.521-3.071l-2.701-1.072l-0.41-0.965l-0.068-2.097l0.235-4.727l-0.508-1.1
		l-1.639,0.875v0.896l1.274,0.993l-2.45,0.182l-7.472-1.175l-2.344-0.773l-2.352-1.895l-1.995-2.39l-1.274-2.224l0.751-1.123
		l0.789-0.521l0.895-0.161h1.07l0.357-0.564l-0.061-1.241l0.114-1.242l0.865-0.564l3.512-0.091l1.502-0.764l-0.827-1.85l1.206-1.764
		l0.501-1.087l0.205-1.124l-0.22-1.049l-0.326-0.969l0.091-1.001l1.039-1.131l0.167-1.475l-0.091-1.158l-0.47-0.738l-0.88-0.237
		l1.35-1.481l1.35-0.135l3.034,1.616l-0.971-0.043l-0.303,0.043l0.167,0.975l0.296,0.77l0.387,0.592l0.425,0.447l1.381,2.439
		l1.221,2.987l-2.458,1.194l1.411,0.952l2.905,0.323l2.01-0.662l0.523,2.426l-1.115,4.639l0.592,2.772l1.191,1.305l1.669,0.532
		l4.149,0.048l-0.046,3.791l5.576,5.162l1.411,3.652h-0.576l-1.077,0.81l-1.168,0.268l-1.161-0.268l-1.054-0.81l-1.274,0.981v0.82
		l1.259,1.142l-0.364,0.847l-1.381,0.525L238.624,244.222z M386.545,430.974l2.223,0.8l3.831,1.459l-0.417,0.753l-3.49,0.376
		l-4.787-0.842l-1.365,0.136l-0.797,0.429l-1.153,0.272l-1.472-0.23l-1.153-0.397l-0.637-0.481l0.03-0.706l0.667-0.282l0.41,0.047
		l0.622,0.157l1.259,0.157l0.812-0.643l-0.387-1.072l1.525-0.591L386.545,430.974z M242.014,329.511l1.274,0.901l1.699,1.642
		l-0.182,0.731l-1.335,0.042l-0.88,0.201l-0.561,0.678l-1.062-0.238l-0.971-1.361l0.136-1.049l0.941-0.005l0.326-0.429v-0.975
		L242.014,329.511z M228.375,323.161l2.807,1.962l1.661,2.227l-0.372,0.445l-1.548-0.859l-3.907-3.547l-0.357-1.05L228.375,323.161z
		 M245.565,318.354l0.728,1.284l0.516,2.318l-0.948,0.907l-1.479-0.493l-1.024-0.732l-1.676-1.501l0.152-1.077l0.971-1.56
		l-0.448-4.061l0.341-0.17l0.425-0.159l1.047-0.138l1.108,0.579l0.789,1.173l0.167,1.274l-0.501,1.056l-0.273,0.828L245.565,318.354
		z M193.951,281.256l2.018-2.368l1.365,0.256l-0.038,1.28l-0.546,0.8l-1.236,0.288l-0.137,0.171l-0.197,0.192l-0.046,0.48
		l0.152,0.682l-0.197,0.714l0.03,0.704l0.22,0.384l0.63,1.14l0.501,1.684l-0.667,0.128l-1.1-0.693l-1.161-0.394l-0.667-0.81
		l0.091-1.151l0.19-0.97L193.951,281.256z"/>
</g>
<g id="Copyright">
	<text transform="matrix(1 0 0 1 681.6426 577.5916)" class="st1 st2">© Vemaps.com</text>
</g>
</svg>
