<?xml version="1.0" encoding="utf-8"?>
<!-- Generator: Adobe Illustrator 23.0.1, SVG Export Plug-In . SVG Version: 6.00 Build 0)  -->
<svg version="1.1" xmlns="http://www.w3.org/2000/svg" xmlns:xlink="http://www.w3.org/1999/xlink" x="0px" y="0px"
	 viewBox="0 0 800 600" style="enable-background:new 0 0 800 600;" xml:space="preserve">
<style type="text/css">
	.st0{fill:#808080;}
	.st1{font-family:'Roboto-Regular';}
	.st2{font-size:14px;}
</style>
<g id="Israel">
	<path class="st0" d="M303.609,335.41l1.887-1.752l6.051-4.498l4.119-4.45l0.34-2.353l-0.972-4.73l0.036-2.341l2.527-4.832
		l13.293-12.789l1.774-1.211h0.024l3.828-3.549l0.255-2.93l-2.236-2.788l-3.551-2.974l0.977-2.383l2.87-3.691l10.439-18.048
		l0.813-1.075l6.621-14.993l3.205-7.28l2.201-3.484l3.693-12.235l0.077-0.66l-0.153-1.524l0.077-0.66l1.607-0.864l9.482-29.74
		l4.181-20.823l3.636-18.162l0.67-1.345l0.708-6.229l0.593-1.863l-0.211-2.057l2.698-11.39l0.641-12.534l0.947-2.829l1.751-0.979
		l1.493,0.364l2.382,1.571l1.799,0.353l1.053-0.222l4.124-4.441l0.507-1.19l0.995-3.674l0.478-1.783l-0.21-1.687l-1.454-0.729
		l0.718-2.08l0.813-8.536l1.588-4.536l0.497-2.688l-0.478-2.432l0.507-0.514l0.632-0.879l0.545-0.44l-0.804-0.959l0.545-0.131
		l0.115-0.068l9.41,0.707l0.51-0.218l1.3-1.012l0.766-0.29l0.705,0.051l1.665,0.432l0.838,0.062l4.35-1.439h1.434l0.607,0.278
		l0.681,0.313l1.312,1.066l1.167,1.425l0.814,1.664l1.094,1.432l1.555,0.221l6.634-1.733l5.626-2.425l3.609-0.304l0.583-2.136
		l2.187-3.932l1.009-2.358l0.632-3.578l0.28-6.927l0.911-3.101l1.069-1.914l0.693-1.922l0.79-1.333l1.373-0.156l0.68,0.836
		l2.126,3.372l1.495,1.104l0.012-0.004l0.024,0.018l0.68,0.585l0.005-0.033l0.08-0.559l-0.365-2.59l1.045-1.061l1.684-0.378
		l1.865-0.407l2.345-1.886l4.472-4.7l2.078-0.571l1.555-0.153l1.677-0.473l1.628-0.724l1.397-0.891l1.92-2.146l2.345-4.711
		L488.517,30l0.158,0.753l-0.644,0.87l-0.182,2.299l-0.365,0.775l-0.279,1.877l-1.932,1.422l-0.911,0.993l-2.576,1.193l4.496,3.083
		l-3.937,5.597l0.826,1.097l3.293,2.31l0.474,6.569l2.649,1.648l0.377,4.054l-1.288,2.747l-1.288,2.079v2.085l4.399,1.857
		l-0.365,1.86l1.555,13.353l0.656,1.749l2.758,4.594l-1.652,3.167l-0.839,0.217l-2.017,3.495l-1.373,4.171l0.449,1.743l-0.899,3.587
		l-5.881,6.993l-3.129,4.698l-0.018,0.009l-2.029,0.524l-6.464,4.095l-3.9,3.502l-1.884,0.982l-2.782-0.334l-0.013-0.002
		l-2.163,1.563l-1.774,2.363l-1.045,0.931l-0.838,0.357l-0.255,0.462l-0.061,1.147l0.474,1.006l0.996,0.591v0.869h-0.814v1.042
		l0.668,1.255l0.365,3.598l0.656,1.727l-0.486,0.757l-0.17,0.079l-0.061-0.328l-0.158-0.508l-0.279,0.497l-0.535,1.496l-0.729-0.955
		l0.401,2.919l0.328,0.897h-1.604v0.944l0.62-0.072l0.486,0.022l0.838,1.243l0.243,0.591l1.106,1.156v0.872l-1.057,0.317
		l-0.705,0.738l-0.437,0.951l-0.219,0.933l0.438,0.31l0.267,0.259l0.316,0.187l0.523,0.108v1.04l-0.741,0.504l-0.802,0.36
		l0.729,0.95l-1.604,1.044l0.255,0.245l0.243-0.047l0.194,0.094l0.182,0.651h-0.875v0.864l0.729,0.731l0.109,0.561l-0.498,0.389
		l-1.142,0.223l0.522,1.536l0.28,0.453l0.571,0.608l0.486,0.863l-9.502-2.464l-2.758-0.723l-2.807-0.09l-3.05-0.91l-0.644-3.513
		l0.049-4.313l-1.045-3.277l-3.5-2.179l-3.499-0.414l-7.4,0.364l-2.139-0.764l-3.354-2.781l-1.571-0.833l-0.203-0.108l-2.102,0.13
		l-1.64,1.257l-2.953,3.455l-3.645,2.312l-3.524,1.685l-3.099,2.243l-2.309,4.043l-1.409,7.23l-0.462,2.372l-0.851,2.862
		l-0.437,0.331l-1.568,0.579l-0.45,0.324l-0.486,1.765l-0.413,4.378l-0.365,1.822l1.47,0.464l0.814,1.042l0.207,1.466l-0.413,1.767
		l-0.863,1.72l-4.569,4.23l-1.568,2.042l-0.231,1.335l1.908,4.292l0.583,2.346l1.482,13.079l0.061,2.587l-0.207,3.074v0.093
		l0.036,0.086l0.073,0.072l0.085,0.057l0.097,0.458l0.036,0.501l-0.036,0.501l-0.097,0.473l-0.498,4.154l2.321,5.412l1.397,4.637
		l-3.22,1.81l-3.184,1.13l-0.696,1.87l-0.228,0.611l1.106,2.317l3.876,0.686l1.835,0.021l0.839-0.172l1.167-0.729l2.078-2.245
		l0.875-0.558l1.665,0.279l6.136,2.953l8.178,1.93l1.993,1.237l0.923,1.715l0.207,2.301l-0.17,2.972l-0.437,0.786l-0.535,0.172
		l-0.608-0.3l-0.668-0.636l-7.254,1.572l-2.236,1.129l-2.102,1.707l-4.095,4.199l-9.454,7.159l-2.151,2.554l-0.251,0.49
		l-1.863,3.633l-0.523,3.737l-0.049,3.857l-0.668,4.49l-5.298,8.896l-1.713,4.606l1.373,4.626l2.6,1.978l3.111,0.491l3.232-0.512
		l2.989-1.039l7.035-0.968l14.667,0.128l6.865-2.583l12.819-10.715l6.792-3.897l7.995-0.67l0.049,0.043l-0.166,8.007l-0.029,1.38
		l-0.474,3.125l-2.09,5.537l-2.187,3.962l0.875,0.996l-0.194,2.973l-1.653,2.887l-1.47,3.348l0.644,3.766l1.118,3.531l1.252,2.763
		l1.75,3.43l0.826,3.755l-0.559,3.91l-5.517,10.951l-0.753,4.019l0.012,4.301l-1.312,2.487l-3.173,3.074l-1.432,1.388l-1.495,3.101
		l-0.316,3.101l0.061,3.064l-0.401,3.028l-0.681,1.302l-1.993,1.797l-0.911,1.075l-0.778,1.655l-0.401,1.542l-0.535,3.457
		l-0.904,3.247l-0.007,0.026l-6.878,14.035l-5.079,16.714l-0.559,3.25l-2.041,5.547v3.276l0.583,1.402l1.689,2.761l0.328,1.936
		l-0.255,1.894l-0.644,1.464l-0.79,1.401l-0.705,1.703l-1.106,7.092l-0.839,2.342l-0.049,3.889l2.406,8.322v4.285l-1.908,4.572
		l-5.03,7.567l-1.361,5.354l-0.073,1.634l-0.437,1.199l-0.583,1.052l-0.462,1.171l-0.863,4.606l-0.109,8.241l-0.498,2.753
		l-5.456,14.796l-0.875,3.375l-0.62,7.605l-1.118,3.376l-1.568,2.554l-0.838,2.963l-0.504,3.679l-0.497,1.804l-0.746,1.188
		l-2.028,2.546l-0.938,1.435l-0.469,0.967l-0.201,0.868l-0.383,0.522L380.577,570l-1.091-0.115l-0.823,0.066l-1.014-1.924
		l-2.685-5.596l-0.826-3.234l0.219-9.346l-3.026-13.931l-4.605-12.734l-5.152-14.176l-0.741-7.371l0.061-0.835l-0.073-0.814
		l-0.207-0.8l-0.328-0.758l-4.557-13.093l-6.938-20.06l-3.9-11.231l-1.3-1.95l-6.416-5.641l-0.814-1.282l-0.255-1.571l0.207-2.396
		l1.118-4.074l0.024-1.854l-1.167-1.692l-1.871-2.56l-0.705-2.32l-0.255-5.644l-2.564-10.864l-7.242-19.16l-5.991-15.902
		l-4.508-11.937l-3.706-11.565l-4.63-14.472L303.609,335.41z"/>
</g>
<g id="Copyright">
	<text transform="matrix(1 0 0 1 681.6426 577.5916)" class="st1 st2">© Vemaps.com</text>
</g>
</svg>
