<?xml version="1.0" encoding="utf-8"?>
<!-- Generator: Adobe Illustrator 23.0.1, SVG Export Plug-In . SVG Version: 6.00 Build 0)  -->
<svg version="1.1" xmlns="http://www.w3.org/2000/svg" xmlns:xlink="http://www.w3.org/1999/xlink" x="0px" y="0px"
	 viewBox="0 0 800 600" style="enable-background:new 0 0 800 600;" xml:space="preserve">
<style type="text/css">
	.st0{fill:#808080;}
	.st1{font-family:'Roboto-Regular';}
	.st2{font-size:14px;}
</style>
<g id="Iceland">
	<path class="st0" d="M698.882,78.78l-3.159,3.56l-11.897,5.488l-5.295,4.096l-6.166,1.568l-2.109,1.771l-1.623,2.909l1.642,0.63
		l0.807,0.847l0.338,1.314l0.341,0.325l1.457,2.966l0.281,0.745l0.469,0.907l-0.305,1.962l-0.829,2.792l-0.551,1.25l-6.414,6.245
		l-1.129,0.546l-4.141,0.263l-1.768,1.598l-1.23,3.693l2.062,1.63l1.015,0.458l3.978,0.263l0.854,1.286l0.376,3.135l-0.704,0.505
		l-1.23,1.284l-0.813,0.571l1.391,1.069l7.562,0.262l4.368,2.056l3.042-0.262l5.516-5.068l3.424-0.417l1.498,0.807l1.32,1.533
		l0.944,2.486l0.36,3.741l0.428,1.939l0.941,0.657l0.941,0.221l0.434,0.604l0.156,1.891l0.663,3.679l0.093,1.795l-0.202,0.676
		l-0.857,0.883l-0.311,0.683l-0.041,0.756l0.101,1.793l-0.06,0.709l-1.547,4.043l-0.243,1.115l-0.775,0.694l-4.343,5.458
		l-4.943,3.719l-1.506,1.978l0.123,2.856l-1.318,2.335l-3.383,3.743l2-0.133l1.781-1.449l3.129-4.11l-1.034,3.346l-1.926,3.662
		l-0.788,2.935l2.374,1.215l2.406-0.697l5.257-3.068l14.394-3.934l5.181-2.867l2.742-0.712l2.15,2.355l-2.908,6.858l-1.659,1.686
		l0.166,1.394l0.491,1.367l0.281,0.557l0.311,0.411l1.522,1.193l4.245,2.876l1.249,1.576l-3.645,1.126l-1.953,1.549l-1.637,4.194
		l-3.465,4.137l-1.361,3.466l-5.093,6.153l-1.02,2.036l-0.78,2.43l-0.357,2.705l0.854-1.27l1.43-3.529l0.715-0.731l0.769-0.435
		l2.248-2.313l0.693-1.068l1.222-2.632l8.305-12.548l1.457-1.046l1.795,0.47l5.32,3.969l-1.053-1.548l-1.904-2.097l-0.747-1.8
		l14.732,8.875l1.877,0.297l7.366-1.883l1.25,0.185l0.786,0.793l0.496,1.942l0.09,1.658l-0.374,1.129l-0.878,0.304v1.016
		l2.106-0.079l0.927,0.323l0.628,0.97l0.071,1.128l-0.169,1.484l-0.322,1.911l0.458,1.186l0.581,0.896l1.214,1.126l3.121-4.645
		l1.721-1.285l2.022,0.508l0.349,0.679l0.082,1.035l-0.014,0.975l0.082,0.521l0.417,0.125l0.966-0.303l0.404,0.178l2.363,2.667
		l0.426,0.75l0.109,3.573l-0.955,2.242l-1.233,1.544l-0.709,1.465l0.169,0.939l0.769,3.072l0.025,1.398l-0.445,0.63l-2.305,1.672
		l0.685,0.983l-0.014,1.226l-0.237,1.487l0.027,1.808l-2.264,1.656l-6.106-0.93l-2.663,1.466l1.653,1.44l5.216,1.858l0.215,2.635
		l-1.53,1.803l-2.136,0.973l-3.339,0.026l-1.416,0.451l-2.821,1.782l-5.598,1.057l-1.724,1.135l1.048,1.5l10.634-3.993l3.236,0.3
		l6.477-1.711l2.03,0.614l3.323,2.233l1.713,1.879l0.622,1.663l0.336,0.893l-1.596,1.264l-2.725,4.351l-1.46,0.95l-8.493,2.173
		h-8.967l-3.89,0.995h-4.12l2.062,1.658l7.802-1.658l10.318,1.19l4.619-1.19h2.518l0.671,0.54l-0.316,1.171l-1.039,1.762
		l-0.177,1.007l0.06,0.728v0.624l-0.341,0.714l-2.54,1.182l-2.259,0.227l-2.109,0.863v1.194l5.189-1.103l1.214,1.103v0.98
		l-0.641,0.175l-0.589,0.448l-0.548,0.7l-0.507,0.953h2.084l0.658,0.331l0.521,0.72l0.387,0.713l0.284,0.318l0.671-0.486
		l1.075-2.178l0.562-0.493l0.136-0.623l1.948-3.842l2.745-3.26l0.185,2.338l-0.027,3.388l-0.218,3.25l-0.396,1.906v1.186
		l1.247,0.913l0.366,1.509l-0.447,1.929l-1.165,2.174l-1.359,1.255l-2.84,0.841l-1.342,1.151l1.195,2.165l0.611,1.492l-0.177,0.685
		l-1.045,0.517l-2.095,2.304l-1.02,0.523l-4.834-1.181l-4.166,0.755l-1.367-0.755l-0.638-1.478l-0.556-2.196l-0.704-1.964
		l-1.056-0.866l-1.089-0.355l-2.221-1.552l-3.517-1.184l-3.719-3.676l-2.062-0.829l0.426,1.748l0.698,1.281l0.818,0.854l0.761,0.466
		l-2.414,2.716l-13.652,0.53v1.189l21.143,2.061l0.685,0.62l0.93,1.207l0.821,1.536l0.352,1.562l0.573,0.845l3.127,2.895
		l6.913,3.222l1.331,2.279l-2.788,2.214l-3.287-0.502l-5.868-2.884l-6.679,1.172l-4.117-1.784l-1.149,0.612l3.961,2.864l9.603,2.245
		l4.332,3.619l0.535,0.925l0.638,1.445l0.218,1.348l-0.723,0.591l-1.094,0.507l-1.67,2.227l-0.884,0.5l-7.006-2.759l-2,1.771
		l7.268,2.995l1.22,1.186l0.041,1.692l-1.915,0.602l-7.653-0.32l-2.128-0.871l-0.417,0.75l-0.554,0.545l-1.361,0.858v1.172
		l2.062,2.573l1.089,1.734l1.015,2.136l-1.091,0.409l-3.075,2.812l-14.896,3.206l-2.398-0.766l-1.331-0.856l-0.887-1.047
		l-1.918-6.13l-1.713-1.766l-1.806-3.63l-0.993-0.826l-5.265-1.172l0.663,0.904l0.72,0.314l1.591-0.045l0.922,0.73l-0.09,1.633
		l-0.445,1.78l-0.158,1.139l1.037,1.324l3.388,1.861l1.108,0.128v1.074l-0.109,1.968l0.925,2.491l1.26,2.138l0.884,0.9l3.405,1.174
		l1.241,1.352l-0.737,1.76l0.458,1.071l-11.24-3.806l-3.454,2.735l1.094,1.338l2.687,1.402l1.299,1.529l0.647,1.757l-0.079,1.489
		l-0.709,1.215l-1.274,0.878h-8.94l-0.818,1.024l0.824,2.085l1.331,1.754l0.698-0.019l0.685,1.6l1.449,1.029l1.309,0.095
		l0.262-1.162l2.761-0.756l4.141-6.254l2.084-1.527l0.426,0.763l-1.031,1.743l-6.146,7.516l-0.865,1.809l-0.232,1.446l-0.199,3.215
		l-0.276,1.236l-2.191,3.889l-0.306,1.418l0.074,0.962l0.076,0.544l0.153,1.088l-0.074,0.588l-0.336,0.487l-0.374,0.272
		l-0.306,0.455l-0.131,0.967l-0.153,0.67l-0.739,2.413l-0.27,0.518l-6.962,0.777l-4.823,1.736l-1.743,0.764l2.906-2.31l5.997-1.737
		l3.045-1.251l-1.713-1.163l-7.453-1.195l-0.529,0.246l-0.087,0.657l0.128,2.073l-0.254,0.442l-0.491,0.335l-1.432,1.459
		l-0.818,0.322l-0.308,0.417l-1.359,2.669l-0.775,0.807l-3.71,2.39l-1.522,1.607l-1.37,1.871l-0.859,1.889l0.363-1.776l0.226-0.75
		l0.325-0.649v-1.059h-0.456l-0.458,1.544l-1.034,1.348l-1.135,0.964l-0.791,0.378l-0.248,0.497l0.196,1.127l0.51,1.126l0.688,0.503
		l1.451-0.164l0.641-0.333l0.636-0.648l0.327,2.177l0.589,2.05l-1.5-0.025l-1.975,2.596l-1.315,0.679l-3.113-0.333l-1.367-0.641
		l-1.301-1.137l-2.12-2.584l-1.285-1.151l-1.383-0.484l-0.6,0.44l-1.258,2.025l-0.641,0.616l-0.816-0.176l-0.767-0.604l-0.786-0.214
		l-0.873,0.993l0.868,1.138l-0.717,0.76l-0.772,0.264l-1.67-0.063l1.331-4.225v-0.956l-2.161,0.604l-1.05-0.082l-0.45-1.095
		l-0.306-2.385l-0.742-1.599l-0.9-0.542l-0.797,0.781v1.064l0.551,0.749l0.385,0.78l0.27,1.076l0.205,1.604l-0.908-0.623
		l-1.91-0.717l-0.881-0.761v-0.957l0.652-2.166l-0.988-3.257l-1.686-2.988l-1.435-1.306l-1.381-1.533l-2.652-1.06l-1.711-0.492
		l1.143,0.947l2.303,0.985l1.383,0.681l0.717,1.722l1.228,3.795l0.592,1.298l-0.57,0.844l-0.573,0.246l-0.576-0.302l-0.573-0.787
		v1.159l1.359,1.247l0.237,2.379l-0.557,2.705l-1.039,2.207l-1.64,0.867l-3.738-1.024l-1.533,1.119l0.944,0.829l1.023,0.32h2.202
		l-1.697,1.413l-4.294,1.563l-3.852,0.37l-4.049,1.531l-1.757,1.449l-0.319-0.772l-0.425-0.696l-0.167-0.747l-1.872,2.648
		l-5.953,4.814l5.585-1.899l1.318,0.946l-2.251,1.892l-17.367,5.352l-2.431,2.214h3.159v0.944l-4.264,3.705l-1.441,0.493
		l-0.652,0.406l-2.302,2.734l-1.588,1.179l-0.644,0.749l-0.513,1.31l-0.701-1.478l-0.668-0.262l-0.677,0.618l-0.742,1.123v1.047
		h0.911v0.954l-4.027,2.822l-1.462,0.411l0.42-2.187l-3.623,2.76l-1.735,2.117l-1.053,2.526l1.099,0.062l0.876-0.815l0.671-0.859
		l-1.735,3.546l-0.911,1.299l-4.818,4.187l-3.208,5.089l-2.087,1.129l0.835-0.459l0.843-0.738l0.693-1.172l0.376-1.787l-10.113,8.42
		l-8.995,2.626l-1.342-0.396l-1.151-1.288l0.513,0.923l0.557,0.65l0.6,0.39l0.66,0.111l-1.244,0.761l-1.086,0.279l0.224,1.603
		l-0.038,2.109l-0.355,1.799l-0.747,0.723l-0.327-0.482l-0.125-1.038v-2.078l-0.172-0.482l-1.203-1.114l-2.521-3.485l-0.688-0.669
		l-1.075-0.378l-0.546,0.44l-0.186,1.325l-0.019,2.247l0.221,2.821l-0.038,1.972l-0.412,0.921l-0.898-0.525l-0.142-1.347
		l0.352-3.841l-0.221-1.374l-0.486-1.777l-0.488-0.972L540,481.493l0.024,4.066l-0.115,1.893l-0.327,1.743l0.9,1.384l-0.319,1.038
		l-1.07,0.655l-1.345,0.21l0.756-3.435l0.049-1.502l-0.387-1.28l0.278-1.324l0.18-0.594l0.229-0.254l0.614-0.427l0.035-0.873
		l-0.229-0.749l-0.191-0.031l0.376-4.082l0.074-2.219l-0.199-0.98l-0.229-0.608l-0.726-1.166l-0.769-0.682l-0.36,0.85l-0.18,3.95
		l0.115,1.611l0.565,1.351l-1.094,0.991l-1.255-0.093l-1.113,0.223l-0.696,1.895l0.819,1.56l0.352,1.751l0.45,1.626l1.127,1.206
		l-1.225,1.718l-2.485,0.581l-4.799-0.136l-1.023-0.346l-2.414-1.817l-0.909,0.649l-0.909,1.038l-0.685-0.037l-0.245-2.596
		l-8.277,5.184l-9.199,3.111l-6.247,1.505l0.739-1.092l0.426-1.333l-0.03-1.623l-0.379-1.519l-0.499,2.161l-0.802,1.469
		l-0.958,0.432l-0.985-1.037l0.158,0.839l0.008,0.389l0.041,0.29l0.289,0.543v1.129l-8.741,6.212l0.66-3.308l1.735-1.868l2.15-0.845
		l1.904-0.191v-1.129l-4.436-2.32l-1.593-1.815l-0.344,2.05l0.06,0.827l0.284,1.259l-1.724,1.209l-1.645-0.339l-1.678-0.783
		l-1.822-0.086l1.372,1.129v0.944l-1.689-0.037l-0.764,0.308l-0.707,0.857l-1.099-0.629l-1.217,0.906l-0.982,1.676l-0.409,1.669
		l-0.36,2.678l-0.909,1.846l-1.195,0.492l-1.241-1.403l-0.868,1.292l-0.316,1.335l0.344,1.07l1.091,0.436l0.851-0.326l1.334-1.421
		l1.023-0.32l5.293,0.597l1.82-0.597l-2.884,5.631l-1.749,1.548l-1.776-0.995l0.224-0.276h0.076l0.035-0.08l0.123-0.584h-2.745
		l0.098,1.407l-1.888-0.19l-1.039,0.847l0.865-0.104l0.592,0.436l0.221,1.038l-0.224,1.725l4.992-0.288l0.955-0.835l-1.664,5.098
		l-2.414,4.663l-3.077,3.404l-6.867,3.156l-4.395,3.337l-4.188,0.978l-2.196-3.068l0.848-1.1l1.885-0.697l0.723-0.82l0.898-1.621
		l0.843-0.734l2.128-0.165v-1.028l-1.904-0.037l-3.596,1.12l-1.825-0.055l-4.575-2.865l-1.37-0.312l0.412,1.133l-0.499,0.233
		l-0.207,0.269l-0.21,0.514l0.647,0.918l1.435,2.57l0.458,0.532l0.649,0.954l0.322,2.121l0.188,2.114l0.232,0.965l2.805,0.183h1.58
		l1.116,0.22l-14.35,2.198l-8.307,4.002l-14.11,3.864l-3.418-0.14l-12.855-4.005l-5.423,1.5l-1.943-0.567l0.739-0.091l0.303-0.232
		l0.333-0.61l-2.395-0.537l-1.195-0.671l-0.99-0.933l-1.356,1.94l-9.025-1.94l-0.851-0.384l-3.5-2.686l-5.497-1.111l-7.83-5.329
		l-10.771-2.936l-2.122-1.909l0.906-0.171l0.516-0.582l-0.068-0.741l-0.851-0.655l-0.819-0.055l-1.127,0.919l-0.827,0.269
		l-6.425-1.133l0.197,0.753l6.711,1.396l-17.695-1.224l-1.154-1.862l-0.295,0.147l-0.172,0.221l-0.164,0.276l-0.246,0.294
		l-0.327-0.655l-0.197-0.147l-0.434-0.135l0.458,2.07l-5.148,0.098l-2.507-0.612l-10.192-8.631l-1.004-1.24l0.944,0.865l1.08,0.368
		l1.108-0.258l1.029-0.976l-0.859-0.166l-1.528-0.7l-0.862-0.166l0.322-2.34l0.136-0.663l-1.228,1.812l-1.108,0.731l-1.2-0.313
		l-1.498-1.29v-0.94l2.292,0.94l-0.898-2.304l-1.222-1.346l-1.32-1.07l-1.184-1.464l-1.08-2.547l-0.584-1.822l-0.786-0.924
		l-1.667,0.129v0.942l2.338,3.348l1.353,2.485l0.928,2.508l-4.455-4.082l-2.046-2.689l-1.28-3.547l0.256-0.253l0.655-0.875
		l-0.497-0.715l-0.919-2.392l1.88-2.183l2.123-1.259l4.51-0.691l2.12,0.987l3.721,3.984l2.212,0.29l-1.116-1.461l-1.637-2.825
		l-0.911-0.975l-5.118-3.025l2.019-3.806l0.314-1.465l-0.254-2.134l-0.748-0.557l-0.595,0.538l0.221,1.206v0.946l-0.799,1.465
		l-2.9,3.806l-1.882,2.174l-1.28,1.339l-1.632,0.549l-0.529,0.592l-0.071,1.443l0.055,1.727l-0.161,1.498l-0.51,1.479l-0.325,0.314
		l-3.015-1.756l-2.957-2.595l-2.262-1.03l-4.701-3.746h4.371l0.788,0.395l1.612,1.568l1.009,0.111l0.136-0.883l0.884-0.278
		l2.226,0.123v-1.037h-1.871v-1.037l0.235-0.031l0.483,0.068l0.237-0.037v-0.951l-4.763,1.223l-1.686-0.272v-0.951l2.281-3.009
		l0.671-4.607l-0.928-3.925l-2.524-0.904v0.941l1.885,0.793l-0.213,2.099l-1.266,2.456l-2.502,3.401l-1.601,1.248l-1.803,0.408
		l-1.825-1.057l0.72,2.49l0.237,0.618l-2.709-2.916l-6.048-4.068l-8.575-3.23l-2.908-2.136l-1.621-0.762l-1.612-1.227l-1.372-2.367
		l0.387-1.184l-0.098-1.507l-0.701-3.556l5.224,0.335l2.875-0.67l1.967-1.751h-5.039l-3.195-1.827l-1.17-0.261l-3.446,0.926
		l-0.712,0.64l-0.606,0.938l-2.101,2.266l-0.756,0.54v0.949l3.413,1.526l1.727,1.451l0.854,2.312l-1.397-0.769l-3.034-0.465
		l-3.105,0.372l-1.882,0.787l-1.078,1.586l0.884,2.645l-0.319,0.043l-0.202,0.285l-0.18,0.371l-0.256,0.34l-19.643,2.692
		l-2.373-1.652l-2.254-2.408l-2.084-1.499l-2.226-0.328l-11.147,4.08l-2.739,0.142l-0.944-0.062l-3.446,1.114l-18.145-4.154
		l-1.413,0.997l-1.233,1.9l-1.241,1.25l-1.44-1.033l0.958-1.04l-1.58,0.006l-2.521,1.646l-2.147,0.687l-1.282,1.299l-0.753,0.519
		l-0.72,0.155l-6.49-0.748l-1.487,0.594l-0.322,0.427l-0.352,0.668l-0.426,0.612l-0.524,0.278l-0.816-0.464l-1.02-2.003
		l-0.742-0.464l0.42-1.559l0.521-0.978l0.407-1.027l0.104-1.721l-0.289-1.672l-0.557-0.744l-0.72-0.607l-0.761-1.227l1.039-1.55
		l1.348-5.56l0.608-1.224l2.955-0.019l0.458-0.503l-0.284-1.584h-0.682l-1.55,1.062l-1.288-0.335l-1.419-1.1l-1.146-1.939
		l-0.458-2.874l1.031-2.938l0.262-1.245l0.071-1.757l-0.109-3.204l0.038-1.416l-0.082-1.235l0.401-1.292l0.712-1.074l0.84-0.587
		l0.969,0.362l2.038,2.322l2.333,1.634l1.814,2.75l1.64,3.707l0.909,3.971h-0.96l1.102,1.642l1.631,0.504l6.542,0.336l1.612-0.392
		l1.05-1.057l-0.748-1.126l0.398-1.226l0.911-1.089l0.81-0.741l0.982-0.492l3.184-0.542l2.447-1.919l0.75-0.268l0.837,0.336
		l1.738,1.501l0.889,0.349l1.773-0.654l3.257-2.879l5.598-1.104l1.817-1.253l1.574-2.583l0.565,0.88l0.436,0.169l0.39-0.337
		l0.401-0.711v-0.942l-1.157-1.224l-1.618-1.149l-1.601-0.506l-1.118,0.681l0.698-2.48l1.661-1.206l1.852-0.163l1.282,0.7
		l-0.529,0.163l-1.263,0.993l1.214,0.643l1.356,0.175l1.326-0.256l1.138-0.562v-1.156h-1.37l0.952-0.85l0.417-0.2l-4.166-3.877
		l-2.259-1.214l-2.311-0.15l2.024-1.578l10.075,1.84l0.491,0.62l0.341,0.707l0.387,0.513l2.084,1.188l1.067-0.1l1.007-1.088
		l-0.764,0.138l-0.717-0.081l-0.674-0.382l-0.633-0.726l0.799-1.189l0.499-0.501l0.578-0.413l-1.375-1.052l1.738-0.658l2.371,0.751
		l0.9-0.025l1.359-0.031l1.41-3.094l-2.324,1.341l-1.252,0.163l-0.54-1.021l0.464-1.836l1.075-0.915l2.12-1.066l-1.35-0.866
		l-2.03-0.245l-2.062,0.307l-1.468,0.803l0.415-2.622l-0.764-1.199l-1.331-0.32l-1.877,0.075l-0.63,0.226l-0.592,0.452l-0.48,0.741
		l-2.515-0.527l1.967-1.72l0.652-1.262l-0.333-2.28l4.109-2.923l2.013-2.308l1.473-2.637l1.154-3.174l0.638-0.914l1.146-0.712
		l1.457-0.347l2.982,0.441h1.249l-1.334-0.58l-0.581-0.574h-0.532l2.717-2.301l1.46-0.707l1.588-0.265l9.232,2.472l1.569-0.353
		l1.132-1.867l0.737-1.218l-3.015,1.722l-1.604-0.757v-0.965l0.641,0.031l0.546-0.24l1.064-0.846l0.038-0.707l-0.095-0.189h-0.177
		l-0.185-0.17h0.42l-12.184-0.777l-5.724,1.364l-5.066,4.618l-0.262,0.643l-0.213,0.851l-0.319,0.927l-0.584,0.851l-0.57,0.447
		l-1.301,0.46l-0.638,0.044l-1.056,0.409l-3.036,2.236l-0.949,1.202l-2.504,2.265l-3.176-0.434l-6.032-2.303V410.5l2.816-1.681
		l2.676-2.552l2.232-3.171l1.435-0.908l1.451,0.902l1.239-1.331l2.966-0.959l1.293-0.884l-5.977-0.65l-1.847,0.65l-1.293,0.896
		l-1.048,0.347l-1.023-0.833l-1.255-2.633l0.9-1.453l0.153-1.864l0.027-2.194l0.518-2.397l0.447-0.19l0.543,0.456l0.458,0.057
		l0.346-2.696l0.366-1.254l0.859-2.154l0.09-1.647l1.694-1.585l7.546-3.914l3.986-0.4l-0.319-1.39l-0.636-0.781l-0.84-0.248
		l-0.949,0.19v-0.972l1.222-1.169l2.564-3.521l2.248-1.011l1.089-1.342l0.655-0.522l0.898-0.204l2.81,0.204l-0.267,2.811
		l1.353,0.458l1.721,0.038l0.851,1.589l0.87,1.144l5.582,0.362l-1.102-0.883l-2.341,0.241l-1.176-0.33l-0.966-1.068l-1.476-2.416
		l-1.222-0.776l2.747-1.171v-0.961h-6.908v-1.178l3.839-2.369l1.238-1.312l1.11-0.299l5.301,0.879v-1.166l-5.219-1.128l-1.651,0.057
		l-4.289,4.033l-1.705,0.236v-1.07l1.754-1.682l0.644-1.153l0.393-1.53l-2.676,2.945l-0.777,0.459l-0.617,0.809l-0.442,3.616
		l-0.816,0.815l-0.663,0.433l-2.791,2.767l-3.487,1.335l-1.048,0.896l0.417,2.135l-1.989-0.705l-1.88,0.527l-3.915,3.378
		l-1.588,1.923l-1.056,0.647l-1.064-0.45l-0.72-1.51l0.098-1.542l1.08-3.429l-1.391,0.457l-0.66,1.746l-0.191,2.387l-0.005,2.424
		l-0.256,0.748l-1.612,2.98l-0.281,1.407v1.096l-0.093,0.918l-0.54,0.924l-2.412-0.025l-0.382,0.557l-0.24,0.57l-0.568,0.475
		l-0.666,0.335l-0.54,0.12l-1.089-0.513l-1.209-1.386l-1.042-2.033l-0.598-2.445l-0.576,0.925l-0.521,0.595l-0.537,0.374
		l-0.655,0.228l0.955-1.977l0.824-2.428l0.273-2.347l-0.679-1.751l0.286-0.241l0.63-0.825l-0.516-0.609l-0.54-0.394l-0.589-0.191
		l-0.644,0.032l0.284-0.514l0.671-1.62v-0.972l-3.083,2.325l-1.902,0.914l-1.459-0.133l-1.209-1.899l-0.488-2.561l0.243-2.473
		l0.952-1.603v-0.961l-1.162-0.229l-0.851-1.165l-0.584-1.299l-0.355-0.624l-0.862-0.446l-0.968-1.128l-0.925-1.421l-0.698-1.371
		l1.672,0.746l1.749,1.778l1.77,1.09l1.716-1.376h-1.421l0.409-1.778l0.641-1.18l0.802-0.772l0.9-0.555l-0.644-0.855l-0.276-0.217
		v-1.072l7.767-3.92l1.932-2.505v-1.074l-4.158,3.63l-2.215,1.188l-2.155,0.441l-1.828,1.181l-2.06,2.227l-1.891,1.359l-1.342-1.454
		l0.876-0.632l1.869-2.681l1.364-1.424l0.777-1.143l0.652-1.617l-0.502-1.074l0.603-0.281l0.374-0.448l0.857-1.413l-1.501-1.772
		l-2.019-0.57l-4.308,0.192l0.958-2.151h-1.37l0.469-1.595l1.236-3.095l0.581-1.853l-0.693,0.192l-0.611,0.622l-0.529,1.032
		l-0.453,1.372l-0.423-1.461l-0.548-0.59l-0.63,0.179l-0.69,0.795v1.077l-3.699-1.077l-1.045,0.525l-1.981,2.243l-1.1,0.461v1.172
		l0.527,0.154l1.307,0.922l-6.177,1.21l-1.604-1.21l1.58,0.224l0.805-0.128l0.57-0.634l-0.194-0.884l-0.69-1.287l-0.835-1.172
		l-0.592-0.519h-7.099l1.048,1.153l3.533,2.171v1.076l-1.798-0.07l-3.154-2.818l-1.921-0.34h0.458l-8.408-0.775h-7.993l-9.235-0.686
		l-3.899-4.148l-3.716-0.276l-6.488,1.494l-0.041,0.449l-1.17,2.128l-0.458,0.641l-0.709,0.673l-0.747,0.493l-0.81,0.199l-7.8-2.441
		l0.72-0.667l0.791-0.397l0.838-0.141l-1.127-0.475l-2.564,1.391l-2.013,2.634l-0.306,3.132l-1.241,3.692l-1.833,1.535l-4.957,0.141
		l-1.451,0.409l-2.936,1.649l-1.359,0.192l-4.848-2.838l-1.034-1.516l-0.96-0.384l-0.704-0.761l-0.278-2.656l-0.376-1.402
		l-2.867-4.601l-1.228-2.495l-1.039-2.65l-1.85-6.713l0.453-1.177l1.353,1.402l1.263-0.592l2.464-2.971l1.282-0.811l7.284-2.099
		l1.424,0.167l5.391,3.572l7.382,1.331l0.636-0.412L92.33,318l0.633-0.721l2.775,0.154l0.679-0.695l2.444-3.889l2.755-0.954
		l6.078,1.069v-1.185l-0.385-0.458l-0.196-0.458l-0.139-0.541l-0.235-0.709l2.81-0.193l0.917,0.851l-0.48,2.694l0.884,0.67
		l0.578-0.844l0.529-1.063l0.75,0.052l0.243,1.52l0.011,2.215l0.349,1.146l1.23-1.635l1.045,1.004l1.211-0.612l0.993-1.487
		l0.415-1.565l-0.251-1.618l-0.507-2.057l-0.352-2.264l0.197-2.227l1.841-2.538l2.791-0.504l5.481,0.872l-0.505,1.815l-0.835,1.226
		l-1.912,1.394l0.194,0.619l0.311,1.548l-0.786,0.174l-0.565,0.6l-0.469,1.006l-0.513,1.366l3.708,5.5l-0.401-2.401l-0.049-1.99
		l0.3-1.701l0.649-1.573l0.431-0.348l1.271-0.245l0.54-0.387l0.434-0.89l0.426-2.032l0.308-0.968l1.85-2.46l1.918-0.194l1.82,1.576
		l1.528,2.801l1.064-1.646l1.402-1.026l4.114-1.02l3.989-2.804l-1.067-0.691l-4.878,0.691v-1.189l2.818-0.646l5.014-5.214
		l2.652-0.647l-0.385,0.641l-0.491,0.447l1.195,0.324l1.132,0.764l-0.104,1.223l-0.038,0.213l0.033,0.013l0.109,0.621l-0.938,1.384
		l-2.024,1.138l-0.739,0.931l0.887,0.246l1.118-0.084l1.151-0.465l0.966-0.885l0.447,3.076l0.57,1.292l2.229,1.052l2.995,2.788
		l1.124,0.465v-0.987l-0.835-0.503l-0.753-0.994l-1.659-2.938l1.817-2.442l0.999-0.776l1.348-0.032l0.131-2.108l1.255-0.614
		l5.598,0.272l5.492-1.32l9.068,1.831l6.005,3.129l0.682-0.42l1.026-1.428l0.622-0.427h5.036l1.359,0.634l1.441,1.125l1.41,0.523
		l0.128-0.123l1.157-1.073l1.757,1.196l7.437-1.196l1.781-1.519l0.068-1.973l-1.195-1.579l-2.024-0.35l0.677-2.11l0.797-0.699
		l0.974-0.389l1.211-1.153l0.859-1.84l2.807-8.149l0.221-5.53l-2.144-2.263l-2.908,0.293l-2.079,2.146v1.092h0.496v1.19
		l-10.111,8.719l-3.35,1.407l-19.116-3.743l-4.812-3.967l-0.728-0.331l-0.327,0.097l-0.955,0.721l-6.111,0.961l-1.801-0.792
		l-1.271-1.559l1.028-0.676l1.962-0.624l1.525-1.404l0.51,0.832l0.502,0.338l1.233,0.02v-1.19l-1.484-1.105l-1.697-0.169
		l-3.23,1.274l0.688-2.367l1.219-2.29l2.259-2.982l3.118-1.498l1.184-1.355l-0.18-2.614l0.985-0.43l2.423,0.43l0.597-0.626
		l1.986-3.856l1.787-1.384l7.481-2.142l6.321-4.922l2.423-3.062l4.294-2.233l1.539-1.716l-0.153-0.177l-0.166,0.039l-0.117-0.138
		l0.019-0.727l1.007,0.118l1.645,1.854l1.012,0.131l-0.6-2.49l-0.314-0.813l4.158-2.439l8.705-2.769l2.54-1.529l1.612-0.965
		l-6.439,2.134l-2.341,0.059l-4.783-1.09l-3.978,1.195l-1.31-0.105l1.318-2.501l1.43-1.898l-2.42-2.399l-0.909-1.756l-0.335-2.467
		l-0.876,0.665l-0.925,0.401l-0.952,0.158l-0.949-0.118l0.379,2.269l-0.598,0.73l-0.955-0.23l-0.699-0.559l-0.617-1.453
		l-1.258-3.876l-0.876-1.304l0.349,2.732l-0.158,2.29l-0.595,1.999l-0.971,1.814l-1.184,1.498l-0.682,0.578l-0.606,0.223
		l-0.245,0.696l-0.417,1.51l-0.543,1.51l-0.644,0.689l-2.529,0.243l-1.132-0.459l-1.801-2.849l-3.945-3.639l-2.821-1.453
		l-0.376-1.427l1.32-2.638l1.454-1.086l7.423-1.633l3.11-2.2l1.604-0.501l0.742-0.712l0.199-1.661l0.008-1.912l0.153-1.451
		l0.578-1.142l0.742-0.871l1.465-1.208l-1.983,0.555l-4.924,7.19l-2.284,1.924l-2.182,1.034l-4.731,0.356v-1.107l2.837-2.056
		l0.867-1.154v-1.213l-1.391,0.106l-0.999,0.956l-1.735,2.366l-1.386,0.54l-0.848-0.659l-0.778-0.903l-1.187-0.191v1.213
		l0.816,1.239l-0.344,1.456l-0.977,1.218l-3.702,1.507l-0.99-0.513l-0.712-2.805l-0.068-2.655l0.256-1.991l-0.016-2.018
		l-0.878-2.745l-1.299-5.714l-0.802-1.99l-0.837,1.507l0.046,0.872l-0.049,1.758l0.098,1.73l1.069,3.452l0.008,1.326l-0.379,1.247
		l-1.288,2.854l-0.731,1.107l-0.84,0.112l-0.993-1.562l-1.271-3.066l-0.57-0.27l-0.423,4.219l-0.507,1.278l-0.726,0.619
		l-0.868-0.072l-0.518-0.692l-0.535-1.304l-1.53-5.083l-0.292-2.646l0.486-2.72l1.517-3.053l-0.611-0.893l-0.338,0.231l-0.333,0.555
		l-0.592,0.106l-1.792-1.21h-1.13l-0.385,0.278l-0.311,0.932l0.041,0.932l0.6,3.508l0.644,2.007l1.833,12.37l-0.938,1.007
		l-1.146-0.25l-1.239-0.632l-1.217-0.125v-1.007l0.382-1.343l-0.327-1.093l-0.758-0.711l-0.9-0.27l-2.221,0.731l-0.737-0.198
		l-0.057-1.529l-0.548,0.125l-1.697-0.125v-1.213l1.623-1.635l2.995-4.13l1.792-0.885l-0.671-1.783l-1.13-1.235l-2.365-1.513
		l-0.368,3.62l-1.364,3.102l-1.697,1.557l-1.375-1.023l-0.434-1.782l-0.303-1.98l-0.401-1.618l-0.717-0.661l-0.175,1.097
		l-0.333,5.122l-0.199,1.53l-1.424,1.853l-4.029,0.995l-1.888,1.081l-3.699-1.839l-1.975-2.017l0.199-2.381v-1.016l-1.869,1.102
		l-1.14,3.205l-0.087,3.539l1.266,2.114v1.205l-0.868,0.908l-1.522,2.507l-0.895,0.908l-1.072,0.335l-4.466-0.533l-1.836-0.829
		l-1.078-0.178l-1.042-0.526l-0.797-1.197l-0.737-1.435l-0.376,0.039l-0.453,0.079l-0.322,0.224l-0.688,0.704l0.303,0.217
		l0.196,0.217l0.461,0.671l-1.926,0.809l-3.527,2.946l-9.055,1.853l-2.057-1.196l-0.06,1.938l-0.289,0.624l-0.453,0.164
		l-0.567,0.585l-2.521,4.398l-12.298,3.462l-3.105-0.374l-2.717-1.888v-1.2l0.377-1.279l-0.284-1.175l-0.674-1.05l-0.794-0.893
		l1.222,0.085l0.518,0.335l0.551,0.683l0.197-2.969l-1.236-1.498l-1.531,0.217l-0.679,2.135l-1.604-2.411l-10.299-4.3l-19.114,2.052
		l-2.45-0.467L30,222.977l2.944-1.777l1.49-1.495l0.644-1.647l0.846-1.107l3.918-2.512l1.189-1.405l0.273-2.521l-0.011-2.925
		l0.382-2.425l2.062-1.375l1.173-1.587l0.949-0.364l1.705,0.317l6.523,3.907l1.882,0.317l1.151,0.694l3.678,4.747l2.641,1.689
		l4.684,1.266l1.113,1.543l0.974,1.819l1.154,1.522l2.021,1.027l1.956-0.138l3.811-1.996l-3.061,0.119l-1.585-0.435l-1.269-0.679
		l-1.097-1.456l-0.941-1.905l-1.031-1.662l-1.342-0.713l-3.298-3.657l-1.833-3.211l-2.139-2.896l-1.176-2.329l10.113,2.11
		l6.567,3.887l2.092,0.654l-1.282-2.518l-1.792-2.122l-1.915-1.482l-2.914-1.079l-3.478-2.343l-3.105-1.146l-1.479-1.438l-2.39-3.42
		l-2.75-5.673l-0.221-2.072l0.079-1.973l-0.076-1.921l-0.693-1.929l2.837-2.555l2.881,0.2l28.28,15.925l0.638,0.802l1.19,2.426
		l1.825,1.424l0.466,0.801l0.688,2.9l-0.3,1.839l-0.709,1.687l-0.554,2.452l1.203,0.687l1.539-1.236l2.75-3.888l0.267,0.814
		l1.067,1.409l0.728-1.528l3.645,0.926l1.618-0.509v-1.111l-0.589-0.324l-0.276-0.37l-0.507-1.522l1.168-0.086l2.995-2.139
		l1.086-0.132l1.075,0.159l1.023-0.132l0.936-1.007l-7.955,0.676l-3.629-1.179l-2.652-1.723l-0.928-1.087l-1.192-1.923l-0.655-1.831
		l0.671-0.816l4.174-1.952l0.909,0.379l1.042,0.936l5.473-0.75l1.743-1.594l1.375-0.365l2.933,1.136l1.435,0.146l1.375-1.282
		l-0.846-0.857l-0.42-0.279l-0.565,0.02v-1.003l3.159-2.227l0.963-1.23l-3.678,0.532l-2.117,0.977l-2.881,2.632l-18.071-0.445
		l-3.549-1.462l-2.333-2.234l-3.53,1.31l-0.799-0.698l-0.93-1.696l-3.899-4.393l-2.152-4.438l-1.435-5.343l0.232-4.969l2.856-3.269
		l1.32-0.08l3.803,2.32l4.993,1.13l1.255,0.822l2.128,2.658l1.233,1.001l1.269,0.16l4.226-1.282l8.283,3.351h2.747l4.777,3.548
		l2.586,1.073l2.33-1.16l-5.544-1.807l-1.768-2.235l-5.544-0.527l-1.732-1.035l-3.146-2.865l-6.946-1.67l-1.539-1.163l-3.639-5.01
		l-1.839-1.051l-0.898-1.54l-1.449-0.616l-3.069-2.941l-2.742-3.842l-0.598-1.342l-0.008-5.089l0.385-2.675l0.998-1.977l2.764-1.022
		l3.473,0.8l12.154,7.439l3.56,0.94l2.398-1.396l0.311,2.591l0.824,2.214l1.165,1.529l1.359,0.536v-1.033l-1.138-1.757l-2.057-5.142
		l-1.38-1.081l-1.533-0.356l-3.083-1.546l-1.604-0.356l-0.747-0.565l-2.043-2.825l-3.926-3.574l-2.253-3.193l2.169-1.82l5.844-0.58
		l4.428,0.728l5.953,4.959l-1.593-1.488l-2.635-4.374l-1.517-0.924l-6.438,0.155l-1.593-1.187v-1.235l0.66-1.255l0.977-1.499
		l1.13-1.256l0.647-0.304l0.483-0.223l2.777-0.142l1.053-0.953l0.098-2.197l1.522-0.784l10.531,3.055l6.829,5.091l2.013,0.466
		l1.326,1.073l1.694,2.529l1.154,2.986l-0.265,2.465l0.461,3.594l3.307-5.244l1.309-0.613l0.72,0.431l0.636,1.01l0.933,2.047
		l1.222,1.77l0.136,0.895l0.019,2.414l0.36,2.668l0.101,1.599l-0.445,1.215l-1.13,2.135l-0.265,0.329l-3.007,5.747l-0.658,1.615
		h0.417l1.44-2.345l3.667-4.533l1.342-2.221l0.376-1.336l0.303-1.505l0.426-1.209l0.728-0.464l0.802,0.517l0.508,1.236l0.977,3.888
		l-0.314,0.731l-0.139,0.497l0.966-0.953l1.064-1.584l1.075-0.906l1.012,1.088l-1.143,3.831l-1.574,3.855l-1.932,3.115l-2.218,1.566
		l2.693-0.174l1.225-0.643l1.119-1.433l1.282-4.221l0.974-2.515l0.737-0.523l0.936,4.446l-0.428,4.581L145,154.785l0.36,2.327
		l2.286-7.962l-0.126-3.678l0.278-4.245l0.562-3.947l0.707-2.761l0.54-1.25l0.368-0.262l4.542,0.424l0.456,0.524l0.158,2.238
		l0.426,1.357l0.584,0.833l2.564,2.745l2.423,4.62l0.393,0.59l0.06,0.744l-0.305,3.57l-0.284,1.814l-0.409,1.599l-0.532,0.809
		l0.172,0.602l0.284,0.408l-3.451,9.684l-0.707,3.014l0.486,1.393l0.873-0.26l1.574-6.323l4.45-12.011l0.442-3.248v-1.233
		l1.435-0.261l0.911,1.561l0.775,2.337l1.037,2.088l0.486,0.12l0.387-0.402l0.415,0.007l0.546,1.398l-0.038,1.324l-0.36,1.277
		l-0.057,1.11l0.914,0.782l0.117-0.835l0.314-1.651l0.447-1.251l0.491,0.368l0.005,1.123l-0.458,5.606l-0.557,1.843l-1.55,3.149
		l-0.644,1.82v1.02l2.564-1.46l2.614-9.151l2.142-1.711v-1.23l-1.378-1.511l-0.764-3.172l-0.486-3.636l-0.573-2.902l-0.977-2.347
		l-1.277-2.214l-1.419-1.651l-1.408-0.658l0.693-2.143l0.295-2.016l0.385-1.856l0.963-1.661l1.279-0.659l1.34-0.081l1.173-0.606
		l0.78-2.248l-1.378,0.054l-3.309,1.683l-1.26,1.238l-1.241,0.484l-5.617-2.806l-3.754-3.94l-15.943-6.96l-4.687-5.025l-2.799-7.386
		l3.132-2.031l9.952-2.724l2.103,0.102l7.12,2.276h1.85l0.72,0.285l0.36,0.684l0.221,0.785l0.3,0.623l1.803,1.888l0.949,0.244
		l0.914-0.995l-0.453-0.569l-0.327-0.751l-0.595-2.194l3.312,0.02l1.7-0.467l2.946-2.378l3.348-0.346l1.55-1.281l-9.112,1.464
		l-2.783-1.464l-1.318-1.404l0.278-0.224l1.08-0.122l1.08-1.153l0.712-1.249l0.982-0.998l1.113-0.57l1.102,0.034v-1.25l-1.49-0.863
		l-0.889,0.319l-2.652,2.825l-3.405,1.9l-3.967,0.38l-3.137-0.658l-0.565-0.373l-0.09-1.806l0.581-1.209l1.383-1.657l0.246-1.189
		l0.36-3.352l0.267-1.054l0.917-1.014l3.203-1.375l-2.914,0.612l-2.202,1.579l-5.304,5.785l-1.247,0.693l-2.78,0.455l-0.821-0.978
		l0.453-2.188l1.037-2.298l0.917-1.272v-1.245l-2.297,0.959l-1.138,0.986l-1.143,1.482l-2.674,4.831l-0.535,0.346l-1.615,1.935
		l-10.618-2.811l-2.766-1.583l-1.822-2.42l-1.097-1.088l-0.458-1.088l0.9-1.551l2.575-0.184l3.241,1.266l2.867-0.429l1.471-5.215
		l-1.893-0.286l-2.117-1.629l-1.962-2.379l-1.438-2.572l2.052-1.679l2.106,0.983l2.106,1.904l2.024,1.078l-0.497-1.883l-0.338-0.812
		l-0.546-0.839l7.347-1.242l0.478,0.198l0.409,0.676l0.562,2.047l0.404,0.71l1.446,0.375l0.606-1.276l-0.245-1.679l-1.097-0.853
		l-1.097-0.43l-3.315-3.012h6.703l1.187,0.533l2.371,2.37l3.023,1.174l2.417,2.989l1.359,0.955l1.719-0.3l2.619-3.125l1.577-1.154
		l-0.147-0.615l-0.27-1.68l2.638-0.963l2.166,1.762l2.112,2.512l4.627,2.306l1.012-0.212l0.303-2.068l-0.486-1.659l-1.757-1.229
		l-0.507-1.598l2.152,0.376l2.071,2.104l1.571,3.297l0.617,3.963l1.173,2.467l5.456,3.058l1.691,3.144l-0.955,1.666l0.865,1.006
		l2.846,0.653v1.142l-1.228-0.408l-0.513,0.714l-0.098,1.434l0.006,1.779l0.333,0.862l0.589,1.161l0.12,1.248l-1.042,1.18v1.234
		l0.87,1.139l0.914-1.017l1.067-0.834l1.11-0.509l1.031-0.014l0.617,0.746l0.54,1.139l0.646,0.502l0.527-1.153l0.993-2.103
		l1.075-0.339l0.617,1.167l-0.396,2.414l4.777-0.508l1.214,0.508l0.587-1.044l0.595-0.054l0.562,0.502l0.507,0.597l0.379,0.624
		l2.409,3.929l-0.636,1.178l-3.945,3.356l0.892,0.609l0.859-0.46l0.9-0.866l1.012-0.514l0.988,0.25l3.132,2.638l0.843,1.278
		l0.532,0.466l0.663,0.041l1.359-0.872l0.717-0.189l4.21,2.271l-0.199,0.594l-0.3,1.567l1.157,0.756l0.668,1.985l-0.016,2.011
		l-0.892,0.911l0.251,1.032l0.543,1.638l0.117,0.829l0.022-0.061l0.109,2.715l0.341,3.184l0.445,1.11l0.914,0.848l0.952-0.148
		l1.176-0.74l1.143-0.303l0.854,1.191l0.131,2.286l-0.589,2.07l-0.802,1.894l-0.532,1.753l0.857-0.242l1.064-0.765l0.9-0.96
		l0.382-0.853l0.033-2.762l-0.068-1.277l-1.375-3.303l0.832-0.922l2.384-1.218l2.979-0.209l0.502,0.566l0.365,1.225l0.286,1.238
		l0.265,0.565l1.239,0.592l-0.807,1.291l-1.43,1.17l-0.625,0.222l-0.442,1.579l0.297,1.203l1.29,2.236l1.702,1.423l7.265-2.041
		l1.926,0.517l1.582,0.926l1.211,1.926l0.813,3.501l-9.439,0.898l-1.795,1.501l-7.077,2.11l-0.999-0.02l1.233,2.33l1.877-0.261
		l3.779-2.069l6.286-1.145l1.973,1.145l-0.81,1.393l-2.889,2.082v1.124l7.219-2.088l1.768,1.526l0.977,3.311l0.21,2.827
		l-0.794,2.144l-2.013,1.255l3.2,2.229v1.221l-3.326,7.837l-1.208,2.123l-1.978,1.823l-6.804,2.646v1.223l1.451,0.106l2.499-0.479
		l1.13,0.372l3.563,2.299l1.056,1.036l-5.497,6.675l-1.97,1.525l-9.099-0.411l-0.646-0.756l-1.105-2.122l-0.308-0.451l-1.293-0.968
		l-1.206-2.157l-0.813-2.277l-0.12-1.388l-1.664-2.346l-2.062-1.143l-2.158,0.06l-1.94,1.203l1.301,0.213l3.157,2.087l1.075,1.043
		l0.139,0.445l1.408,2.662l0.286,0.239l0.172,1.971l-0.21,1.3l-0.54,1.087l-0.838,1.299l1.08,1.113l0.557,0.822l0.237,0.848
		l0.352,2.159l0.769,1.231l0.772,0.662l0.349,0.45l1.189,1.092l11.194-0.298l1.923,1.012l0.889,2.122l-0.682,1.85l-3.465,5.547
		l-1.351,1.478v1.095l3.249-1.807l4.103-3.749l3.517-0.806l1.49,6.969l-1.416,5.917l-3.356,5.698l-3.953,4.141l-3.217,1.314v1.103
		l6.766-2.64l2.597-2.339l1.457-0.539l1.506,0.315l0.974,0.881l1.891,3.219l2.554,2.449l0.688,1.575l-0.497,2.676l0.947,0.597
		l0.145,1.213l-0.161,1.671l0.033,2.024l0.401,3.554l0.011,2.485l-0.306,3.222l0.033,1.587l2.608,8.43l0.911,1.642l-0.27,0.287
		l-0.066,0.104l-0.016,0.143l-0.147,0.45l1.34,1.439l1.353,2.663l0.709,3.123l-0.611,2.808v0.994l1.091,0.961l0.426-0.357
		l0.688-0.585l0.529-2.19l-0.977-3.896l-0.194-2.584l-0.188-1.172l-0.589-1.635l-1.178-2.418l-0.529-1.415l0.988-1.794l0.387-0.496
		l-0.24-1.39l0.431-1.018l0.676-0.894l0.505-0.986l0.363-2.469l-0.035-2.229l-1.391-12.185l-0.27-5.111l0.859-2.285l2.065,1.176
		l1.438,2.882l2.049,6.859l1.959,3.929l0.289,1.113l0.453,1.165l2.289,0.746l0.919,0.837l0.502-1.21l-1.749-3.697l-1.58-4.946
		l-1.189-5.293l-0.557-4.754l-0.246-3.799l-0.022-2.625l0.267-2.409l0.297-0.889l0.819-1.541l0.297-0.777l0.701-4.681l0.213-1.056
		l2.046-3.974l7.565-6.008l4.125-5.553l1.241-0.689l1.285-0.371l0.944-0.676l0.229-1.604l0.884-0.146l0.644,0.497l1.26,1.875
		l0.289,0.053l0.862-0.199l0.229,0.146l0.196,1.404l-0.196,0.45l-0.327,0.093l-0.175,0.384l-0.469,6.51l-0.057,3.277l0.526,2.404
		l-0.805,2.745l-0.041,2.823l0.72,1.701l1.498-0.62l-0.688-2.967l0.117-2.619l0.867-1.221l1.572,1.267l0.587,1.056l0.065,0.647
		l-0.033,0.943l0.259,1.893l-0.276,1.233l-0.147,1.087l0.003,0.889l0.235-0.059l1.252,0.751l0.39,0.415l0.469,1.35l0.246,1.093
		l0.336,0.974l0.739,1.007l0.748,0.612l0.802,0.395l0.84,0.145l0.851-0.145l0.224-0.158l1.266-0.895l0.586-1.724l0.344-2.502
		l0.786-3.465l-0.769-0.679l-1.029-2.176l-0.758-0.455l-2.308,0.198l-1.113-0.317l-0.93-1.095l2.234-0.871l2.117-0.145l0.889-0.343
		l1.847-1.525l0.969-0.337l0.851,1.525l-0.267,7.209l0.971,2.326l-0.245-2.609l0.619-1.938l0.428-1.866l-0.802-2.441l0.764-2.152
		l2.155-3.164l1.037-1.937l0.251-1.19l0.079-2.646l0.336-1.204l0.63-0.622l1.236,0.02l1.383-0.404l-1.49-0.311l-0.917-2.007
		l-0.123-2.266l0.909-1.087l0.87-0.636l0.652-1.671l0.409-2.322l0.147-2.656l-0.532-4.186l-1.304-3.837l-1.659-3.029l-1.588-1.725
		v-1.219l1.784-1.679l-0.677-4.762l-1.735-5.329l-2.543-5.797l-0.472-1.533l-0.434-5.666l-0.42-2.729l-0.726-2.127l-0.974-1.698
		l-1.165-1.443l1.026-1.612l0.944-2.507l0.311-2.683l-0.87-2.119l1.35-1.211l1.61-0.283l2.785,0.37l0.671-0.29l1.211-1.414
		l0.652-0.559l0.878-0.283l2.368,0.283l1.29-0.741l2.414-3.086l1.064-0.688l3.285,1.213l0.731,0.081l0.769,0.081l1.435-1.375
		l0.344,3.538l0.889,2.061l1.293,1.252l1.593,1.05l-0.458,1.245l0.698,0.659l0.494,1.244l0.638,2.501l0.884,2.452l2.824,5.437
		l0.409,1.455l0.229,1.287l0.352,1.052l0.799,0.697l-0.235,0.509l-0.409,1.239l-0.235,0.502l1.304,2.196l1.721,1.8l1.241,2.08
		l-0.147,3.015l1.211,1.163l3.612,0.601l2.684,1.803l0.807-0.04l0.737,0.154l0.835,1.362l0.387,0.447l0.859-0.16l0.357,0.274
		l0.42,1.188l0.18,1.161l0.106,1.14l0.205,1.08l1.479,3.272l0.395,1.205l0.292,2.031l0.371,4.417l0.442,1.875l1.449,1.993
		l3.421,1.036l1.351,2.032l0.417-3.48l0.475-1.236l2.062,0.266l0.259,0.286l0.922,1.375l0.486,0.458l0.756,0.219l1.899-0.1
		l-0.592,0.359l-0.491,0.558l-0.202,0.737l0.24,1.328l0.57,0.047l1.228-0.816l0.712-0.976l0.617-2.271l0.753-4.66l0.469-4.765
		l0.038-4.11l-0.442-3.861l-0.977-4.031l-1.907-5.693l-0.18-1.036l-3.948-4.49l-0.03-1.172l0.295-1.547l0.573-1.313l0.827-0.563
		l1.219-0.282l1.334-0.845l1.269-1.381l1.001-1.892l-0.737-0.946l-0.649-1.329l-0.529-1.632l-0.641-3.507l-0.008-0.565l0.289-0.444
		l0.652-1.318l1.209-1.52l3.83-2.073l8.943-1.535l3.14,2.43l1.67,0.303l-0.145-2.733l0.524-0.66l0.535-0.404l0.584-0.141
		l0.646,0.168l-0.188,0.64l-0.27,1.623l1.345,0.538l2.275,2.395l1.375,0.35l-0.846-0.807l-0.611-0.949l-0.442-1.205l-0.349-1.548
		h0.458v-1.037l-0.374-0.269l-0.636-0.687l-0.366-0.27v-1.024l0.628-1.152l0.72-3.891l0.442-1.755l0.655-1.012l2.322-2.087
		l5.991-2.236l2.131,1.041l-0.486,5.327l1.282-0.526l0.895-1.458l1.528-3.573l-0.3-1.636l-0.205-0.635l1.228-0.987l1.817,0.325
		l3.364,1.683l-0.524,2.48l-1.13,3.605l-0.213,2.469l0.745-0.054l4.829-5.089l1.964,0.459l1.618,1.998l1.378,2.173l1.241,1.032
		l0.633,1.18l-0.777,2.629l-1.899,4.202l0.848,0.074l0.96-0.262l0.911-0.606l0.677-0.949l0.786-0.626l0.876,0.7l0.854,1.097
		l0.75,0.572l1.048,1.238l0.652,2.893l0.535,3.348l0.72,2.566l-1.239,4.939l-0.529,2.897l0.164,1.273l4.807,1.233l3.091,1.982
		l4.976,0.736l0.671,0.549l0.72,1.285l1.127,2.689l1.55,1.244l0.518,1.684l0.349,1.904l0.595,2.164l0.126,0.721l0.224,0.541
		l0.537,0.214l1.228-0.187l0.606,0.133l0.456,0.601l0.671,2.041l0.18,1.347l-0.145,4.551l0.265,1.858l1.233,2.928l0.376,1.251
		l-0.011,6.851l0.218,1.056l0.578,0.458l1.959,2.886l3.165,3.328l-0.36,2.18l0.333,2.9l0.808,2.31l1.094,0.39l0.843-2.025
		l-0.057-2.98l-0.57-2.948l-0.674-1.942l-0.54-0.617l-1.391-1.075l-0.396-0.637l-0.292-1.845l0.196-1.049l0.36-0.75l0.229-0.917
		l-0.041-1.535l-0.155-1.13l-0.063-1.17l0.259-1.742l0.352-0.639l1.151-1.064l0.33-0.532l0.393-3.035l-0.205-2.611l-2.022-7.763
		l-0.049-0.514l0.049-2.284l-0.172-0.621l-0.409,0.027l-0.475,0.187l-0.36-0.154l-1.32-2.921l-0.507-0.562l-0.071-0.167
		l-0.098-0.361l-0.191-0.328l-0.349-0.154l-0.333,0.354l-0.551,1.571l-0.237,0.314l-0.908-0.615l-2.073-2.668l-0.685-1.204
		l0.63-2.329l-0.254-2.21l-0.851-1.648l-1.934-1.294l-1.353-3.407l-0.854-1.577v-1.128h0.499v-1.242l-1.822-4.609l-0.838-7.704
		l0.36-7.759l1.801-4.787l0.892-0.399l6.016,0.399l0.914,0.547l1.615,1.432l0.925,0.29l2.865-0.29l1.045,0.29l-0.136,0.608v0.223
		l-0.044,0.108l-0.316,0.297l2.513,1.485l6.613-1.755l2.862,1.302l0.551,1.275l0.696,3.264l0.581,1.227l0.742,0.377l2.712-0.377
		l1.173,0.701l2.15,3.111l1.252,0.7l0.897,0.801l2.63,4.15l0.846,1.822l1.08,4.755l0.767,2.208l2.152,1.623l1.146,1.65l1.724,3.378
		l2.278,6.84l0.966,2.139l0.27-3.13l-0.562-2.449l-0.879-2.209l-0.704-2.425l1.304,0.08l1.536-0.422l1.498-0.811l1.195-1.086
		l-6.155,0.328l-1.626-1.361l10.67-0.188l0.783,0.791l0.447,1.877l0.96,3.042h0.412l0.36-1.165l0.079-1.219l-0.251-1.133l-0.6-0.972
		v-1.033l0.862-0.751l0.761-1.234l0.412-1.691l-0.202-2.162l1.067-1.216l0.428-0.813l0.338-1.243l0.044-0.948l-0.155-2.562
		l0.112-2.14l0.837-2.262l1.702-2.189l1.981-1.671l1.672-0.647l0.726-0.89l0.385-1.942l0.063-1.943l-0.276-0.891l-0.737-0.499
		l0.33-1.181l1.364-2.33l1.828-1.919l4.106-1.568l0.704-2.909l1.768,1.671l6.744,0.697l1.76,1.231l0.06,0.128l1.307,2.872
		l2.594,7.108l-0.071,0.897l-0.003,0.351l0.033,0.324L540,122.1h-0.917v1.132l0.786,0.708l0.84,0.364l0.838-0.162l0.786-0.91
		l-0.445-0.135l-0.977-0.997l2.39-1.82l8.446-2.368l2.485,0.789l-1.08-0.04l-1.064,0.364l-1.018,0.749l-0.96,1.194l0.857,0.586
		l1.203,2.392l0.477-0.209l1.359-3.31l0.799-1.335l0.802-0.391l1.891,1.848l1.386,2.939l1.484,2.506l2.188,0.525v-1.037
		l-2.144-1.563l-1.07-1.186l-0.723-1.2l-0.524-2.171l-0.019-1.632l-0.267-1.296l-1.244-1.235l3.053-2.222l4.575-1.527l2.758-1.764
		l1.555-0.047l-5.934,3.514l-1.85,2.046l5.882-2.35l1.397,0.081l1.631,1.499l2.608,4.009l1.757,0.263v-1.235l-2.365-2.47
		l-1.195-1.864l-0.516-1.845l0.262-2.535l0.696-2.144l1.012-1.651l1.189-1.097l0.038-0.785l-0.104-0.203l0.229-0.799l0.589-1.301
		l0.45-1.606l0.172-1.566l-0.169-2.55l-0.447-1.398l-0.649-1.14l-1.067-2.526l-0.327-0.55l-0.379-0.36l-0.415-0.122l-0.352-0.618
		l-0.123-1.407l-0.055-1.509l-0.134-0.918l-1.858-1.51l-0.458-1.34l0.483-2.968l-0.221-0.061l-0.696,0.061l0.237-0.552l0.434-1.274
		l0.246-0.559l-0.475-0.477l-0.327-0.716l-0.614-2.134h1.416v-1.146l-1.162-1.631l-1.285-5.347l-1.899-2.256l0.606-2.318
		l1.383-2.046l1.44-0.26l0.393,0.992l0.052,1.279l0.175,1.04l0.756,0.226l0.183-0.759l0.276-1.614l0.499-1.588l0.876-0.726
		l1.882-0.815l1.089,0.062l0.022,1.328l-0.341,1.855l0.229,1.567l0.576,1.163l0.701,0.574l-0.131-0.916l-0.049-0.739l-0.082-0.745
		l-0.237-0.937l1.059-0.417l1.978-1.704l0.63-0.274l0.988,0.869l0.737,1.293l0.805,1.067l1.17,0.205l-0.941,1.026l-0.434,0.226
		l1.154,1.046l1.247-0.246l1.31-0.643l0.409-0.157v-1.252l0.742-1.19l0.688-1.615l0.786-1.054l0.12,0.424l0.469,1.93l0.777,0.287
		l0.72-0.972l0.548-3.177l0.578-0.774l1.484-0.747h1.858l3.822,1.671l0.764-0.425l3.115-1.37l5.647,5.711l3.184,1.3l-0.903,1.539
		l-1.048,0.69l-0.873,1.039l-0.42,2.576l0.688-0.048l0.229,0.048v1.045l-1.372,1.25l0.36,0.471l0.668,1.331l0.344,0.491
		l-0.786,1.508l0.911,0.246l2.412-0.614l2.69,0.621l1.179-0.621l-0.125,0.764l-0.175,1.868l-0.112,0.804h6.403l1.211,0.45
		l1.091,1.158l0.622,1.512l-0.136,1.546v1.042l1.334,4.572l-2.799,5.286l-1.58,2.145l-2.03,1.683l0.917,2.374l0.802-0.909
		l0.818,0.515l0.928,0.99l2.207,0.976l0.237,1.179l-0.295,1.802l-0.54,2.275l1.042,0.907l4.911,0.23l2.363-1.097l0.794,0.223
		l0.336,0.751l0.671,1.15l0.289-0.014l0.398-0.298l0.644-0.717l0.15,1.807l0.426,1.461l0.671,1.007l1.891,0.879l2.005,2.271
		l2.169,1.722l1.31,2.289l1.326,1.417l1.582-1.417l-0.54-0.263l-0.216-0.324l-0.205-0.648l1.179-0.871l0.876-1.824l0.543-2.615
		l0.194-3.246l-0.27-3.35l-0.295-2.357l0.442-1.613l1.953-1.152h8.255l4.712-1.668l0.368-1.289l0.065-1.54l0.371-1.296l4.747-3.124
		l0.748-1.998l0.469-2.556l1.119-2.041l2.614-2.729l1.79-1.287l5.746-1.09l1.582,0.456l2.578,2.227l1.58,0.735L698.882,78.78z
		 M485.158,503.044l0.505,0.943l0.041,1.275l-0.409,1.699l-1.053,1.514l-0.412,0.185l0.472-0.628l0.338-0.8l-0.106-0.88
		l-0.559-0.443l-0.72,0.105l-2.925,1.034l0.175-1.25l2.049-2.051l1.143-0.739l0.497-0.16L485.158,503.044z M467.884,48.604
		l1.672,2.284l0.516,0.391l-0.278,1.556l-1.299,0.952l-1.165-1.953l-0.155-2.756L467.884,48.604z M316.831,544.213l0.265,0.549
		l0.36,1.72l-0.51,1.628l-0.636,1.426l-0.663,0.957l-0.486-0.561l-0.325-1.329l-0.434-1.158l-0.502-1.75l0.199-1.678l1.34-0.696
		l1.593-0.116l0.128,0.256L316.831,544.213z M442.989,140.649l0.597,0.919l0.977,2.193v1.911l-0.884,0.597l-0.797-0.275
		l-0.581-0.623l-0.409-0.992l-0.147-1.281l-0.39-2.012l-0.658-2.342l0.393-0.618l1.29,1.464L442.989,140.649z"/>
</g>
<g id="Copyright">
	<text transform="matrix(1 0 0 1 681.6426 577.5916)" class="st1 st2">© Vemaps.com</text>
</g>
</svg>
