<?xml version="1.0" encoding="utf-8"?>
<!-- Generator: Adobe Illustrator 23.0.1, SVG Export Plug-In . SVG Version: 6.00 Build 0)  -->
<svg version="1.1" xmlns="http://www.w3.org/2000/svg" xmlns:xlink="http://www.w3.org/1999/xlink" x="0px" y="0px"
	 viewBox="0 0 800 600" style="enable-background:new 0 0 800 600;" xml:space="preserve">
<style type="text/css">
	.st0{fill:#808080;}
	.st1{font-family:'Roboto-Regular';}
	.st2{font-size:14px;}
</style>
<g id="Kyrgyzstan">
	<path class="st0" d="M766.832,216.202l0.416,1.368l0.222,2.944l0.319,1.475l0.707,1.322l0.825,1.133l0.61,1.271l0.069,1.726
		l-1.768,2.852l-3.307,1.148l-16.841-0.208l-3.446,0.91l-2.454,1.026l-1.082,0.865l-0.936,1.32l-0.603,1.59l-0.756,3.353
		l-0.624,1.598l-2.399,2.284l-2.988,0.433l-3.168-0.081l-3.002,0.74l-3.779,2.704l-4.347,1.652l-5.29,3.66l-1.352,0.53l-1.574,0.028
		l-4.243-1.364l-1.463,0.365l-1.172,0.809l-3.175,2.993l-1.449,1.052l-1.435,0.62l-3.127,0.748l-2.628,1.056l-7.55,5.455
		l-4.049,0.775l-1.234,0.619l-6.046,4.29l-9.069,3.586l-0.929,0.537l-0.887,0.783l-0.513,0.972l-0.555,2.231l-0.666,0.884
		l-2.364,1.083l-4.936,1.036l-6.226,4.827l-2.676,1.238l-1.192,0.813l-1.102,1.386l-0.277,1.607l1.179,3.439l0.187,1.615
		l-0.686,1.522l-1.206,1.042l-2.676,1.6l-1.089,1.065l-1.678,2.525l-1.275,2.467l-1.803,3.487l-0.936,1.422l-0.971,1.09
		l-6.781,5.872l-1.193,0.46l-1.387-0.156l-2.607-1.218l-8.784-1.269l-2.392,0.096l-2.246,0.736l-8.854,4.751l-1.026,0.367
		l-1.241,0.119l-3.425-0.17l-5.179,1.479l-1.921-0.087l-1.99-1.033l-3.785-1.599l-3.744-0.799l-2.135,0.119l-3.889,1.213
		l-8.341-0.533l-2.031-0.703l-3.591-1.847l-1.83-0.345l-7.217,1.641l-2.628,1.116l-1.747,1.75l-0.943,1.396l-2.475,1.836
		l-1.151,1.106l-0.631,1.679l0.236,1.702l0.499,1.738l0.166,1.765l-0.562,1.783l-1.047,1.113l-2.655,1.493l-2.219,1.965l-1.768,2.71
		l-1.144,3.185l-0.444,8.964l-0.229,1.434l-0.763,1.256l-3.557,2.775l-1.692,2.71l-2.163,6.209l-1.505,2.51l-1.837,1.817
		l-5.845,3.842l-2.135,2.097l-1.116,0.418l-0.95-1.087l-1.075-5.425l-0.666-1.485l-1.962-0.624l-1.927,2.172l-2.038,2.85
		l-2.26,1.415l-1.262-0.3l-2.503-1.393l-1.283-0.405l-1.643,0.155l-5.983,2.894l-0.881,1.255l-0.756,1.483l-1.109,1.505l-1.317,0.9
		l-1.435,0.318l-1.47-0.095l-4.347-1.105l-1.456-0.109l-1.442,0.159l-3.092,1.336l-1.518,0.127l-1.137-1.232l-0.576-1.528
		l-1.082-3.893l-0.125-1.656l0.541-1.693l0.887-1.211l0.652-1.17l-0.159-1.576l-0.652-0.957l-1.893-1.782l-0.742-1.117l-0.478-1.669
		l-0.347-4.99l-1.206-3.757l-1.865-1.85l-2.42-0.027l-2.815,1.685l-14.663,11.825l-0.666,0.369l-0.79,0.169l-0.825,0.328
		l-0.354,0.697l-0.257,0.834l-0.513,0.729l-1.248,0.305l-1.248-0.606l-1.255-0.884l-1.241-0.506l-1.671,0.273l-3.273,1.494
		l-1.699,0.241l-2.461-0.547l-2.434-1.057l-5.831-4.038l-1.525-0.716l-1.414,0.137l-0.204,0.311l-0.822,1.249l-0.27,0.907
		l-0.062,0.315l-0.541,1.618l-0.832,1.854l-0.485,1.762l0.485,1.339l3.155,2.949l0.818,1.165l0.555,2.874l-2.094,0.55l-5.65-1.46
		l-1.477-0.091l-1.269,0.55l-3.446,3.496l-1.123,0.841l-2.614,1.39l-2.232,1.69l-5.956,6.546l-7.162,5.845l-2.42,1.06l-2.073,0.322
		l-2.052-0.331l-2.309-0.884l-2.33-0.521l-2.385,0.304l-2.329,0.97l-2.121,1.445l-2.129,0.969l-4.396,0.611l-1.83,1.508
		l-0.693,0.905l-0.568,1.037l-0.388,1.154l-0.159,1.276l-0.381,2.068l-1.123,1.465l-1.324,1.352l-0.964,1.727l-0.52,3.637
		l-0.319,1.007l-0.52,0.713l-1.934,1.639l-0.811,1.255l-0.603,1.575l-0.298,1.714l0.083,1.687l0.652,1.723l0.908,0.577l1.13,0.28
		l1.303,0.807l0.95,1.528l0.409,1.825l0.312,3.747l1.512,4.667l-0.347,0.936l-1.498,0.922l-1.089,0.899l-0.846,1.254l-0.756,1.96
		l-0.749,3.001l-0.652,1.222l-1.179,0.651l-12.618,1.724l-1.9-0.979l-6.177-0.678l-2.371,0.229l-7.328,1.823l-1.643,1.14
		l-0.513,1.346l-0.146,1.22l-0.465,0.888l-3.827,0.722l-6.808,2.359l-2.135,0.166l-2.35-0.668l-1.179-0.578l-0.825-0.251
		l-0.853,0.166l-3.293,1.753l-1.005,0.067l-1.179-0.381l-4.188-0.91l-1.387-0.103l-2.898,0.623l-1.019,0.045l-12.396-3.26
		l-1.123-0.063l-1.165,0.354l-0.686,0.601l-1.283,1.614l-0.756,0.484l-1.096-0.022l-1.699-1.108l-1.012-0.292l-0.735,0.323
		l-2.101,2.242l-1.095,0.175l-1.13-0.058l-2.205-0.569l-1.172,0.045l-2.503,1.277l-1.463,0.197l-1.193,0.435l-0.811,1.322
		l-1.532,4.667l-2.759,6.046l-0.763,0.058l-0.016-0.023l-0.678-0.986l-0.631-1.42l-0.18-0.83l-0.007-0.669l-0.208-0.537
		l-1.401-0.739l-1.026-0.815l-0.568-0.336l-2.891-0.479l-1.394-0.6l-0.603-1.303l-0.111-1.832l-0.402-2.2l-0.749-1.896l-1.151-0.901
		l-1.227,0.188l-2.35,1.287l-2.503,0.52l-1.13,0.592l-6.628,4.682l-2.447,1.057l-2.454,0.287l-1.29-0.408l-1.227-0.94l-0.978-1.384
		l-0.499-1.725l0.139-1.784l0.686-1.08l0.901-0.919l0.77-1.3l0.25-1.745l-0.173-2.243l-0.603-1.984l-1.061-0.961l-1.331,0.036
		l-6.829,1.446l-3.252-0.157l-2.78-1.275l-1.393-3.027l0.568-1.352l1.706-2.517l0.361-1.299l-0.402-1.398l-0.971-1.304l-0.084-0.074
		l-1.115-0.979l-2.246-1.381l-1.227,0.126l-2.316,1.089l-1.907,0.346l-0.655,0.234l-0.464,0.342l-0.922,0.985l-0.489,0.396
		l-2.326,1.264l-0.936,0.715l-2.139,2.463l-0.724,0.544l-0.829-0.009l-3.82-0.741l-2.853,0.162l-2.787,0.764l-2.212,1.456
		l-1.383,2.412l-0.988,2.837l-1.227,2.396l-2.156,1.104l-1.834-0.507l-1.654-1.059l-1.463-0.686l-1.265,0.606l-0.822,0.947
		l-0.541,0.206l-0.596-0.099l-1.019,0.027l-0.808,0.247l-2.042,1.148l-1.844,0.283l-2.038-0.359l-1.775-1.059l-1.019-1.786
		l0.035-1.077l0.298-1.158l0.16-1.199l-0.381-1.185l-0.645-0.611l-1.57-0.669l-0.721-0.588l-0.004-0.018l-0.022-0.069l-1.316-4.159
		l-0.929-1.83l-1.629-1.241l-1.179-0.153l-2.461,0.459l-1.172-0.117l-0.846-0.513l-1.511-1.336l-0.922-0.378l-1.158,0.144
		l-2.17,0.823l-1.109,0.229l-0.645,0.234l-0.409,0.459l-0.333,0.477l-0.409,0.274l-0.673-0.013l-1.397-0.427l-0.69-0.081
		l-0.867,0.328l-5.983,4.41l-1.192,0.288l-1.158-0.436l-0.111-1.223l0.714-3.125l-0.014-1.484l-0.305-1.62l-0.645-0.85l-1.036,0.797
		l-1.868,4.044l-0.562,0.836l-1.109,0.369l-1.085-0.4l-2.25-1.318l-1.373-0.319l-1.47-0.014l-1.387,0.436l-1.137,1.021l-1.047,1.501
		l-0.562,0.45l-2.021-0.926l-2.742-0.297l-5.186,1.065l-2.607-0.796L65.12,449.2l-2.648-0.89l-2.745-0.324l-5.845,0.369
		l-1.165,0.472l-2.246,1.956l-1.144,0.701l-1.227,0.436l-1.262,0.189l-1.477-0.004l-2.891,0.472l-1.39-0.476l-1.626-1.69
		l-0.374-0.256l-0.645,0.283l-0.243,0.562l-0.166,0.679l-0.416,0.634l-2.641,1.083l-0.95-2.094l0.333-10.375l-0.243-1.648
		l-0.499-1.437l-0.95-1.176l-1.179-1.014l-1.009-1.158l-0.472-1.6l0.218-3.45l0.749-3.353l3.068-9.338l1.29-2.876l0.295-0.878
		l0.017-0.538l0.246-0.185l0.929,0.19l1.976,2.212l3.224,5.542l6.455-2.305l-0.076-1.157l-1.553-2.84l0.056-0.602l-0.056-0.574
		l-0.146-0.538l-0.264-0.52l-0.541-2.779l0.437-2.241l1.078-1.993l1.383-2.034l0.194-0.571l0.284-1.514l0.305-0.385l0.541,0.168
		l0.707,1.342l0.43,0.422l1.061,0.118l1.116-0.163l26.436-9.48l2.35,0.25l9.564,6.302l1.452,0.467l3.335-0.218l1.543,0.122
		l1.473,0.743l0.96,1.07l0.835,1.219l1.075,1.174l1.206,0.639l2.364,0.304l2.558,1.123l5.339,0.806l1.671,0.53l1.567,1.078
		l0.679,1.553l-0.984,1.946l-1.068,0.756l-1.109,0.574l-1.026,0.737l-0.87,1.226l-0.627,1.637l-0.191,1.523l0.51,1.152l1.449,0.515
		l0.586-0.759l0.551-1.93l0.451-0.778l0.784-0.402l2.849-0.095l1.446-0.525l1.341-0.85l1.165-1.208l0.901-1.588l0.575-3.032
		l-0.083-2.699l0.315-2.247l1.778-1.686l4.285-1.451l0.915-0.562l2.621-2.236l0.416-0.562l0.229-0.209l0.374-0.05l0.333,0.159
		l0.225,0.218l0.045,0.132l1.22-0.649l0.465-0.408l0.894-0.318l3.581,0.807l2.063-0.703l2.253-1.674l1.116-2.142l-1.38-2.134
		l2.427-2.48l3.896-0.673l7.793,1.127l2.121-0.214l0.946-1.486l0.593-1.945l1.047-1.605l0.957-0.291l0.68,0.546l0.596,0.923
		l0.697,0.818l0.929,0.404l1.106,0.1l2.104-0.223l1.355,0.095l2.108,1.986l3.005,0.936l0.645,1.054l0.534,1.299l1.22,1.171
		l1.428,0.903l1.532,0.595l3.155,0.631l1.657-0.163l0.582-1.012l0.159-1.521l0.409-1.68l1.22-1.099l1.186,1.036l0.95,1.989
		l0.471,1.784l-0.021,3.603l0.416,1.338l1.359,0.594l0.929-0.277l3.529-2.091l1.081-1.039l0.728-1.193l1.255-2.792l2.08-2.098
		l2.447-0.141l2.642,0.645l2.648,0.222l0.776-0.25l0.388-0.059l0.527,0.118l0.804,0.331l1.061,0.177l0.943-0.241l0.437-0.954
		l-0.374-0.69l-0.441-0.294l-0.488-0.324l-1.941-0.909l-1.262-0.918l-0.478-1.318l0.374-1.246l5.803-2.96l1.775-1.77l0.971-2.462
		l0.402-1.643l0.617-0.911l4.465-2.473l1.13-0.296l3.061-0.16l0.51-0.027l1.227,0.141l0.617,0.499l0.014,0.012l-0.27,0.893
		l-0.971,0.323l-1.144,0.105l-0.777,0.228l-0.317,0.803l-0.008,0.021l0.853,0.278l3.037-0.141l0.984,0.369l3.966,2.331l1.816,0.683
		l1.581-0.332l1.366-1.875l0.721-2.227l0.069-2.059l-0.007-0.018l-0.407-1.012l-0.293-0.728l-0.005-0.004l-2.907-2.111l-0.589-0.798
		l0-0.009l-0.014-0.985l0.451-1.437l0.007-1.578l-0.01-0.017l-1.439-2.424l0.002-0.011l0.227-1.454l1.99-0.899l2.232,1.968
		l2.219,2.597l1.934,0.963l2.586,0.347l4.728,3.256l2.662-0.155l1.033-0.825l0.645-1.086l0.312-1.254l0.09-1.305l0.52-1.469
		l1.22,0.009l2.468,1.132l1.955-0.904l0.783-5.89l1.602-2.467l2.35-1.01l4.832-1.239l5.755-3.627l6.295-2.338l3.182-1.813
		l2.052-2.725l-0.354-1.787l-0.005-0.001l-0.553-0.126l-1.514-0.345l-3.952,0.252l-1.359-0.967l-0.929-1.302l-1.075-0.734
		l-4.964,2.306l-3.106,2.176l-0.86,0.128l0.18-1.475l-0.291-2.598l-2.586-0.706l-8.646,0.784l-2.884-0.348l-2.6-1.146l-2.08-2.284
		l-2.877-4.501l-1.296-0.505l-1.664-0.115l-1.213-0.629l0.014-2.039l0.111-0.537l-0.035-0.455l-0.187-0.367l-0.347-0.267
		l-3.571-0.349l-1.9-0.561l-1.401-0.882l-1.921-3.025l-0.894-0.612l-1.227,0.993l-0.354,0.644l-0.77,2.339l-0.506,0.409
		l-2.468,0.349l-3.857,1.179l-2.036,0.622l0.915-2.118l0.458-1.59v-1.742l-0.617-4.65l-0.118-2.54l-0.319-2.426l-0.77-1.713
		l-1.713-1.018l-1.636,0.258l-1.56,1.027l-1.449,1.308l-2.004,1.211l-1.158-0.617l-1.026-1.469l-1.622-1.354l-5.325,0.917
		l-1.747-0.852l-0.354-3.756l0.166-3.804l-0.388-2.944l-1.075-2.645l-6.295-9.431l-0.534-0.495l-0.562-0.231l-0.43,0.379
		l-0.049,1.887l-0.541,0.476l-0.631-0.291l-0.361-1.438l-0.721-0.301l-0.312,0.495l-0.277,0.976l-0.395,0.73l-0.638-0.236
		l-0.055-1.087l1.234-5.029l-0.007-1.865l-0.354-1.741l-0.853-1.195l-1.47-0.227l-1.484,0.602l-0.811,0.991l-1.331,3.44l0.007,0.005
		v0.019l0.673,1.49l1.886,2.438l0.25,1.642l-0.291,1.784l-0.957,2.999l-2.232,4.849l-1.851,1.948l-2.288,0.452l-2.898-1.26
		l-3.231-3.042l-0.919-0.231l-0.416,1.136l0.596,15.4l-0.361,3.094l-1.505,1.302l-4.59-3.972l-1.678,2.164l-0.721,1.707
		l-0.894,0.064l-0.856-0.92l-0.641-1.247l-0.825-3.357l-0.763-1.078l-1.595-0.134l-1.387,0.76l-0.18,1.234l0.326,1.598l0.139,1.869
		l-0.659,1.721l-1.054-0.718l-1.699-2.867l-1.075-0.875l-2.503-0.341l-1.22-0.686l-1.38-1.096l-1.498-0.691l-3.189-0.585
		l-2.884,0.438l-1.338-0.143l-1.224-1.166l-0.926-1.281l-1.102-1.134l-1.206-0.881l-1.29-0.539l-1.511,0.148l-1.303,0.627
		l-1.082,0.171l-0.832-1.217l-0.118-1.559l0.991-5.482l-0.125-1.884l-0.638-1.824l-3.765-6.526l-1.13-1.522l-1.269-0.796
		l-2.281,0.347l-8.216,4.744l-2.288,0.878l-0.432-0.02l-1.18-0.054l-1.016-0.948l-1.64-3.098l-0.981-1.277l-1.123-1.027
		l-2.503-1.527l-0.014-0.014l-0.014-0.005l-0.007-0.009l-9.457-1.06l-2.475-1.306l-1.227-2.89l1.411-2.321l10.861-6.396l4-3.181
		l2.191-1.065l2.024-1.363l1.581-2.369l1.962-4.241l2.926-3.462l6.632-5.704l2.063-1.236l6.684-0.771l2.326-0.89l0.745-1.514
		l0.197-5.18l1.168-3.305l2.766-0.735l3.3,0.147l2.766-0.665l9.478-7.111l5.539-1.617l2.496-1.76l1.005-3.378l-0.224-0.075
		l-2.148-0.723l-9.408-6.778l-2.135-0.888l-2.128,0.295l-2.981,2.197l-1.463,1.389l-1.955-0.473l-1.397-0.747l-2.662-2.671
		l-0.368-1.361l0.815-1.404l1.612-1.545l0.773-0.741l2.17-2.674l0.478-1.056l-0.166-0.631l-0.374-0.61l-0.125-0.981l0.416-1.756
		l0.77-1.787l0.964-1.529l1.019-0.968l3.193,2.072l1.092,0.106l0.919-0.507l0.634-0.905l0.142-1.074l-0.565-1.025h-0.014
		l-0.007-0.009v-0.009l-2.336-2.078l-0.673-0.872l-0.638-3.414l2.513-1.549l5.793-0.918l1.057-1.088l0.357-1.354l-0.111-3.598
		l0.173-1.924l0.572-0.912l2.527-0.849l1.089-0.729l0.832-1.161l1.449-2.667l1.144-0.588l1.491,0.472l1.595,0.758l1.428,0.281
		l1.193-0.531l1.04-1.029l0.887-1.298l0.714-1.348l1.186-1.079l1.626-0.064l3.238,1.101l1.109-0.491l0.707-0.064l0.68,0.357
		l2.648,2.267l0.839,0.335l1.158-0.22l7.377-4.768l2.205-0.718l4.715-0.241l2.329-0.848l1.095-0.227l1.04,0.458l1.047,0.704
		l1.109,0.484l4.132,1.047l7.765,4.333l2.156,0.625l1.012-0.134l1.934-0.93l1.026-0.283l8.604,0.368l4.43,1.796l7.938,5.371
		l2.35,0.457l4.832-0.066l9.526,2.317l2.087,1.155l1.588,1.802l2.323,4.321l1.713,1.579l2.267,1.066l2.267,0.64l2.281,0.085
		l8.604-1.447l2.981,0.099l2.524,1.059l1.345,1.035l1.095,0.644l1.193,0.327l4.798,0.343l1.546,0.576l1.019,1.215l-0.215,2.778
		l0.069,1.964l0.79,1.172l6.122,1.057l3.987,1.634l1.893-0.352l0.028-1.634l-0.029-0.057l-4.838-9.394l-1.033-2.851l-0.506-3.05
		l0.18-3.434l0.749-3.233l3.557-8.043l1.789-3.948l0.236-1.401l-0.187-1.663l-0.825-3.057l-0.166-1.54l0.236-1.568l0.548-1.318
		l1.38-2.457l2.544-7.439l0.756-1.342l1.054-0.951l3.182-1.852l11.502-4.801l1.158-0.238l2.78,0.112l2.51-1.365l2.239-6.324
		l2.031-1.584l1.345,0.483l2.42,2.335l1.234,0.409l10.566-1.281l1.109-0.63l0.18-1.315l-0.707-1.582l-1.83-2.541l1.941,1.097
		l3.418,3.133l1.9,0.787l2.219,0.511l1.927,0.977l3.474,2.897l1.345,0.708l2.829,0.295l2.378,1.611l2.752,0.755l1.269,0.722
		l0.929,1.18l1.678,2.926l0.957,1.117l6.885,5.349l2.337,0.905l7.654,1.301l5.748,2.84l1.9,1.683l1.913,0.923l4.077,1.264
		l1.886,1.126l1.602,1.261l4.056,2.459l1.747,0.409l4.465-0.052l15.121,1.997l2.642-0.284l1.338,0.165l4.326,1.822l1.726-0.073
		l1.955-0.848l1.914-1.382l1.595-1.664l0.714-1.18l2.17-5.867l0.77-0.703l1.012-0.263l0.664-0.053l3.482-0.278l2.621,0.377
		l5.269,1.555l1.511,0.099l4.389-1.496l1.747-0.028l4.909,1.202h6.087l5.768,1.784l0.714-0.111l1.331-0.615l0.804-0.043l0.693,0.44
		l0.749,1.467l0.645,0.343l1.206-0.374l2.004-1.962l1.248-0.547l1.768,0.227l3.48,1.491l1.761,0.312l1.4-0.338l2.579-1.157
		l2.981,0.073l1.283-0.305l2.572-1.394l0.277-0.339l0.083-0.414l0.153-0.336l0.499-0.118l1.22,0.253l0.381-0.033l0.52-0.312
		l1.421-1.689l1.297-0.94l1.338-0.218l2.967-0.038l2.662-1.054l1.31-0.227l1.31,0.578l7.613,1.289l2.288,0.848l0.742,0.656
		l1.92,2.727l1.005,0.805l1.102,0.286l1.126,0.012l1.19,0.012l6.607,1.122l2.198-0.639l2.843-1.394l1.026-0.227l1.033,0.076
		l1.865,0.644l2.669-0.014l1.304,0.698l1.172,0.975l1.296,0.745l1.116,0.026l3.522-1.713l1.401-0.27l4.43,0.175l4.52,1.096
		l0.423,0.542l0.277,0.61l0.437,0.506l0.79,0.57l1.719-0.783l1.116-0.743l0.603-0.263l1.518-0.22l1.553,0.177l1.497,0.575
		l3.813,2.27l2.981,0.506l7.197-0.669l3.064,0.168l3.099-0.445l1.297,0.239l2.753,1.003l1.414,0.085l1.151-0.437l2.433-1.577
		l1.401-0.523l2.953-0.222l4.465,0.464l6.586,2.322l2.759,1.624l2.316,1.95l1.151,0.6l8.105,0.824l5.38,2.227l4.437,0.255
		l2.593,1.032l2.544,0.09l5.227-2.668l2.648-0.515l1.685,0.489l0.499,0.923l-0.381,3.517l0.062,2.109l0.388,1.856l0.693,1.712
		l0.95,1.676l2.399,2.434l5.311,2.515l2.128,2.267l3.044,7.316l1.83,2.487l3.404,1.421l6.406,0.404l5.408-1.048l2.947,0.11
		l14.858,3.218l2.829,1.902l0.929,1.094l2.558,3.81l4.354,3.969l2.219,2.941l1.775,3.124l2.018,2.731L766.832,216.202z
		 M201.678,412.029l-1.671,0.525l-2.447,1.841l-1.158,0.574l-1.685,0.09l-1.089,1.302l0.659,1.261l1.442,1.044l1.296,0.619
		l1.719,0.524l1.04-0.203l0.659-1.08l1.518-5.589L201.678,412.029z M160.852,407.448l-0.506-0.072l-0.264-0.159l-0.229-0.199
		l-3.761-1.581l-1.82-1.2l-1.147-1.45l-0.926-2.398l-1.123-2.14l-1.518-0.952l-2.108,1.156l-1.158,2.734l-0.392,1.546l-0.073,1.454
		l0.367,1.413l1.657,3.654l0.763,1.095l0.881,0.471l1.789,0.385l0.773,0.62l0.305,2.551l-2.867,4.526l0.111,2.223l0.846,0.429
		l0.95-0.587l0.922-0.913l0.749-0.538l1.276,0.063l0.322,0.75l0.163,0.962l0.783,0.727l0.991,0.09l3.175-0.854l2.253-0.05
		l0.929-0.348l0.714-1.062l0.132-2.694l-2.953-3.188l-0.156-2.262l1.092-1.073l3.106-2.177l0.451-1.372l-0.513-0.815l-0.846-0.159
		l-1.712,0.462l-0.354,0.204l-0.742,0.602L160.852,407.448z M115.357,421.46l-1.005-0.027l-0.076,1.351l0.506,1.45l0.894,1.282
		l2.274,1.589l0.666,0.844l1.917,3.28l0.385,0.307l3.446-2.783l1.921-0.993l2.208-0.438l0.69-0.632l0.108-1.566l-0.503-1.612
		l-0.825-0.212l-2.122,0.971l-2.354-0.081L115.357,421.46z"/>
</g>
<g id="Copyright">
	<text transform="matrix(1 0 0 1 681.6426 577.5916)" class="st1 st2">© Vemaps.com</text>
</g>
</svg>
