<?xml version="1.0" encoding="utf-8"?>
<!-- Generator: Adobe Illustrator 23.0.1, SVG Export Plug-In . SVG Version: 6.00 Build 0)  -->
<svg version="1.1" xmlns="http://www.w3.org/2000/svg" xmlns:xlink="http://www.w3.org/1999/xlink" x="0px" y="0px"
	 viewBox="0 0 800 600" style="enable-background:new 0 0 800 600;" xml:space="preserve">
<style type="text/css">
	.st0{fill:#808080;}
	.st1{font-family:'Roboto-Regular';}
	.st2{font-size:14px;}
</style>
<g id="Kazakhstan">
	<path class="st0" d="M770,285.421l-2.231-0.647l-0.7-0.388l-0.828-0.193l-2.552,1.031l-0.523-0.057l-1.073-0.341l-0.505,0.041
		l-0.386,0.317l-0.399,0.976l-0.313,0.447l-0.704,0.609l-0.3,0.342l-0.29,0.478l-0.247,0.562l-0.081,0.432l0.039,0.472l0.117,0.675
		l0.432,0.929l0.577,0.555l0.286,0.532l-0.449,0.865l-0.336,0.405l-0.125,0.255l0.024,0.324l0.206,1.165l0.002,0.376l-0.136,0.325
		l-1.368,1.896l-0.868,0.849l-0.282,0.356l-0.217,0.436l-0.333,0.936l-0.182,0.341l-0.338,0.276l-2.098,0.854l-1.753-0.123
		l-0.479,0.199l-0.382,0.365l-0.717,0.881l-0.991,0.521l-3.37-0.308l-4.028,0.598l-0.657,0.476l-0.521,0.85l-2.397,5.902
		l-0.446,2.99l-0.266,1.017l-0.333,0.712l-0.198,0.592l-0.044,0.657l1.45,7.961l0.007,0.889l-0.286,1.797l0.083,0.82v0.004
		l0.284,0.795l1.271,2.105l0.154,0.547l-0.088,0.521l-0.124,0.486l0.054,0.453l0.159,0.488v0.421l-0.192,0.879l-0.072,0.547
		l-0.086,0.393l-0.224,0.229l-0.828,0.092l-0.437,0.14l-0.375,0.277l-0.176,0.444l-0.052,0.5l-0.102,0.406l-0.161,0.362
		l-0.233,0.371l-0.159,0.472l-0.042,0.494l-0.129,0.32l-1.205-0.034l-2.326,0.364l-1.043-0.133l-0.368,0.075l-0.375,0.208
		l-0.246,0.277l-0.437,0.802l-0.388,0.395l-1.247,0.92l-0.524,0.598l-0.233,0.152l-0.815,0.193l-0.265,0.15l-0.297,0.294
		l-0.409,0.789l-0.376,0.276l-1.374,0.302l-1.324,0.556l-0.498,0.087l-0.359-0.173l-0.077-0.366l0.161-0.398l0.257-0.42l0.199-0.431
		l0.036-0.939l-0.361-0.787l-0.588-0.595l-0.646-0.36l-0.861-0.064l-1.721,0.436l-0.82-0.144l-0.977-0.473l-0.288-0.03l-0.3,0.029
		l-0.013,0.004l-2.225-0.189l-1.934,0.182l-0.007,0.003l-0.01,0.001l-0.006,0.003l-1.157,0.677l-0.441,0.079l-1.276-0.262l-1.7,0.01
		l-6.9-2.468l-3.1-2.066l-0.711-0.344l-1.67-0.371l-0.363-0.224l-0.934-0.829l-0.434-0.161l-0.494-0.056l-0.498,0.032l-0.448,0.102
		l-0.461,0.233l-0.144,0.301l0.03,1.068l-0.054,0.311l-0.197,0.565l-0.056,0.295l0.022,0.271l0.124,0.515l-0.015,0.287l-0.277,0.997
		l-0.084,0.52l0.052,0.517l0.091,0.46l-0.028,0.447l-0.114,0.429l-2.655,5.546l-1.658,6.286l-0.717,1.551l-0.119,0.453l-0.217,1.422
		l-0.271,0.822l-1.205,1.984l-0.717,1.532l-0.478,1.695l-0.471,3.602l-0.488,2.374l-0.238,0.74l-0.513,1.238l-1.364,2.363
		l-0.655,2.559l-0.569,1.35l-0.136,0.73l-0.102,0.551l0.652,1.027h0.003l0.003,0.001l0.632,0.311l2.724,0.398l1.86,0.781
		l0.295,0.504l0.08,0.95l-0.046,1.016l-0.349,2.331l-0.532,1.838l-0.824,1.361l-1.158,0.204l-0.876-0.552l-1.551-1.732l-0.856-0.597
		l-0.893-0.093l-0.97,0.246l-3.466,1.76l-0.912,0.231l-0.725-0.347l-0.346-0.402l-0.284-0.188l-1.233-0.196l-0.247-0.177
		l-0.094-0.346l-0.021-0.595l-0.107-0.88l-0.295-1.054l-0.469-0.779l-0.625-0.047l-0.716-0.208l-0.772,0.35l-1.46,1.053
		l-7.208,2.273l-1.479,0.831l-0.736,0.271l-0.831,0.015l-2.213,0.885l-0.477,0.018l-1.483-0.474l-0.88,0.016l-2.904,1.09
		l-1.255-0.133l-0.403,0.053l-0.367,0.309l-0.339,0.908l-0.296,0.277l-0.453,0.066l-1.35-0.078l-1.296,0.516l-1.294-0.215
		l-0.801,0.058l-0.755,0.338l-0.687,0.656l-1.796,1.572l-0.843,0.432l-0.361,0.281l-0.275,0.771l0.464,0.615l2.23,1.418l0.863,0.08
		l3.241-0.702l0.479,0.054l0.335,0.168l0.929,0.739l2.929,1.142l0.292,0.189l0.094,0.331l-0.099,0.336l-0.286,0.205l-1.178,0.276
		l-0.631,0.293l-0.371,0.467l-0.024,0.282l0.084,0.233l0.328,0.438l0.118,0.317l-0.069,0.291l-0.279,0.549l-0.483,1.916
		l-0.135,1.037l0.045,0.902l0.727,3.716l0.004,0.989l-0.492,1.815l-0.129,0.941l0.112,0.463l0.266,0.347l0.59,0.599l0.208,0.415
		l0.112,0.427l0.043,0.461l0.006,0.508v0.003l0.189,0.529l0.303,0.581l0.657,0.972l2.143,5.645l2.143,5.624l-0.047,0.821
		l-0.288,0.774l-0.931,1.701l0.283,0.387l0.68,0.183l0.715,0.357l0.236,0.34l0.133,0.435l0.06,0.48l0.015,0.482l0.096,0.467
		l0.416,0.785l0.096,0.465l-0.101,0.53l-0.262,0.374l-0.361,0.22l-0.397,0.073l-0.376-0.091l-0.919-0.693l-0.753-0.036l-0.771,0.367
		l-1.414,1.069l-1.588,0.68l-0.762,0.499l-0.236,0.688l0.339,0.627l0.614,0.506l1.24,0.602l0.829,0.119l0.38,0.217l0.21,0.437
		l-0.107,0.504l-0.397,0.248l-0.916,0.111l-1.371,0.514l-0.341,0.286l-0.865,0.353l-0.311,0.036l-0.635-0.175l-0.305-0.023
		l-0.302,0.184l-0.376,0.621l-0.401,1.472l-0.298,0.725l-0.661,1.012l-0.157,0.383l-0.067,0.535l0.097,0.388l0.146,0.382
		l0.161,0.959l0.206,0.379l0.477,0.699l0.189,0.43l0.028,0.296l-0.105,0.313l-0.21,0.481l0.026,0.286l0.408,1.947l0.124,0.389
		l0.182,0.353l0.253,0.357l0.343,1.756l-0.144,0.523l-0.206,0.283l-0.702,0.374l-0.792-0.468l-0.545-0.735l-0.479-0.841
		l-0.599-0.791l-1.176-1.068l-0.691-1.025l-0.251-0.294l-0.764-0.512l-4.013-0.866l-0.796-0.03l-1.461,0.282l-1.73-0.109
		l-0.919-0.382l-0.494-0.669l-0.822-1.969l-0.575-0.61l-1.434-0.677l-0.648-0.655l-0.256-0.451l-0.187-0.461l-0.105-0.5
		l-0.017-0.568l0.103-0.947l-0.135-0.248l-0.455-0.132l-0.715,0.138l-1.412,0.718l-0.687-0.024l-0.7-0.278l-1.198-0.069
		l-1.453-0.599l-2.189-0.222l-0.311-0.161l-0.625-0.525l-0.745-0.437l-1.779-0.625l-1.206-0.125l-0.798,0.06l-0.378,0.141
		l-0.657,0.424l-0.311,0.118l-0.382-0.023l-0.743-0.27l-0.35-0.064l-0.837,0.12l-0.828-0.045l-1.944,0.18l-0.805-0.136l-1.03-0.611
		l-0.404-0.155l-0.419-0.048l-0.41,0.059l-0.163,0.071l-0.301,0.2l-0.464,0.211l-0.214-0.153l-0.118-0.136l-0.075-0.164
		l-0.114-0.146l-1.221-0.295l-1.196-0.047l-0.378,0.073l-0.951,0.461l-0.302-0.007l-0.35-0.201l-0.317-0.262l-0.352-0.188
		l-0.721,0.004l-0.504-0.173l-0.279-0.02l-0.277,0.061l-0.768,0.375l-0.594,0.172l-1.784-0.302l-0.321-0.003l-0.304-0.003
		l-0.298-0.077l-0.271-0.217l-0.519-0.734l-0.2-0.177l-0.618-0.228l-2.056-0.347l-0.354-0.156l-0.354,0.061l-0.719,0.284
		l-0.801,0.01l-0.361,0.059l-0.35,0.253l-0.384,0.454l-0.14,0.084l-0.103,0.009l-0.33-0.068l-0.135,0.032l-0.041,0.091l-0.023,0.111
		l-0.075,0.091l-0.695,0.375l-0.346,0.082l-0.805-0.02l-0.696,0.311l-0.378,0.091l-0.476-0.084l-0.94-0.401l-0.477-0.061
		l-0.337,0.147l-0.541,0.528l-0.326,0.101l-0.174-0.092l-0.202-0.395l-0.187-0.118l-0.217,0.011l-0.359,0.166l-0.193,0.03
		l-1.558-0.48h-1.644l-1.326-0.324l-0.472,0.008l-1.185,0.403l-0.408-0.027l-1.423-0.418l-0.708-0.101l-0.94,0.075l-0.179,0.014
		l-0.273,0.071l-0.208,0.189l-0.586,1.579l-0.193,0.318l-0.431,0.448l-0.517,0.372l-0.528,0.228l-0.466,0.02l-1.168-0.49
		l-0.361-0.045l-0.713,0.076l-4.084-0.538l-1.206,0.014l-0.472-0.11l-1.095-0.662l-0.433-0.339l-0.509-0.303l-1.101-0.34
		l-0.517-0.248l-0.513-0.453l-1.552-0.764l-2.067-0.35l-0.631-0.244l-1.859-1.439l-0.258-0.301l-0.453-0.787l-0.251-0.318
		l-0.343-0.194l-0.743-0.203l-0.642-0.433l-0.764-0.079l-0.363-0.191l-0.938-0.78l-0.521-0.263l-0.599-0.138l-0.513-0.212
		l-0.923-0.843l-0.524-0.295l0.494,0.684l0.191,0.426l-0.049,0.354l-0.3,0.169l-2.854,0.345l-0.333-0.11l-0.654-0.628l-0.363-0.13
		l-0.549,0.426l-0.605,1.702l-0.678,0.367l-0.751-0.03l-0.313,0.064l-3.106,1.292l-0.859,0.499l-0.285,0.256l-0.204,0.361
		l-0.687,2.002l-0.373,0.661l-0.148,0.355l-0.064,0.422l0.045,0.414l0.223,0.823l0.05,0.448l-0.064,0.377l-0.483,1.062l-0.961,2.164
		l-0.202,0.87l-0.049,0.924l0.137,0.821l0.279,0.767l1.307,2.528l0.008,0.015l-0.008,0.44l-0.511,0.095l-1.077-0.44l-1.653-0.284
		l-0.214-0.315l-0.019-0.528l0.058-0.747l-0.275-0.327l-0.418-0.155l-1.296-0.092l-0.322-0.088l-0.296-0.173l-0.363-0.279
		l-0.682-0.285l-0.805-0.027l-2.324,0.389l-0.616-0.023l-0.612-0.172l-0.612-0.287l-0.462-0.425l-0.627-1.163l-0.429-0.485
		l-0.564-0.311l-2.573-0.624l-1.305,0.018l-0.635-0.123l-2.144-1.445l-1.197-0.483l-2.324-0.099l-0.277,0.076l-0.522,0.25
		l-0.273,0.036l-0.582-0.168l-2.097-1.166l-1.116-0.282l-0.3-0.13l-0.283-0.19l-0.281-0.123l-0.296,0.061l-0.629,0.228l-1.273,0.065
		l-0.595,0.193l-1.992,1.283l-0.313,0.059l-0.227-0.09l-0.715-0.61l-0.184-0.096l-0.191,0.017l-0.3,0.132l-0.874-0.296l-0.439,0.017
		l-0.32,0.29l-0.193,0.363l-0.24,0.349l-0.281,0.277l-0.322,0.143l-0.386-0.076l-0.431-0.204l-0.402-0.127l-0.309,0.158
		l-0.391,0.717l-0.225,0.312l-0.294,0.196l-0.683,0.229l-0.154,0.245l-0.047,0.518l0.03,0.968l-0.096,0.364l-0.285,0.293
		l-1.565,0.247l-0.679,0.417l0.172,0.919l0.182,0.235l0.631,0.559v0.003l0.002,0.003h0.004l0.153,0.276l-0.038,0.289l-0.171,0.243
		l-0.248,0.137l-0.295-0.028l-0.862-0.558l-0.275,0.26l-0.26,0.412l-0.208,0.481l-0.112,0.473l0.034,0.264l0.101,0.164l0.045,0.17
		l-0.129,0.284l-0.586,0.72l-0.209,0.199l-0.435,0.416l-0.22,0.378l0.099,0.366l0.719,0.719l0.377,0.201l0.528,0.127l-0.614,0.502
		l-0.614,0.503l-0.341,0.176l-0.341,0.174l-0.343,0.05l-0.343,0.05l-0.419-0.117l-0.421-0.117l-0.215,0.009l-0.217,0.009
		l-0.129,0.174l-0.131,0.176l-0.073,0.225l-0.073,0.227l-0.098,0.163l-0.096,0.163l-0.252,0.304l-0.255,0.304l-0.213,0.397
		l-0.211,0.396l-0.165,0.444l-0.168,0.444l-0.193,0.357l-0.192,0.359l-0.285,0.135l-0.281,0.136l-0.216-0.031l-0.214-0.029
		l-0.189-0.077l-0.192-0.076l-0.138-0.142l-0.14-0.142l-0.064-0.227l-0.064-0.228l-0.066-0.16l-0.068-0.158l-0.144-0.162
		l-0.145-0.164l-0.165-0.118l-0.167-0.119l-0.135-0.025l-0.133-0.026l-0.882,0.383l-0.885,0.383l-0.39,0.336l-0.386,0.336
		l-0.225,0.497l-0.225,0.495l-0.064,0.213l-0.068,0.212l-0.114,0.131l-0.115,0.129l-0.148,0.078l-0.15,0.078l-0.163,0.058
		l-0.165,0.059l-0.157,0.088l-0.155,0.09l-0.13,0.134l-0.131,0.135l-0.612,1.063l-0.616,1.064l-0.23,0.267l-0.228,0.269
		l-0.755,0.558l-0.752,0.555l-0.507,0.185l-0.507,0.188l-0.141,0.113l-0.14,0.114l-0.124,0.187l-0.124,0.187l-0.276,0.324
		l-0.276,0.326l-0.375,0.161l-0.378,0.16l-1.009,0.037l-1.009,0.039l-1.222,0.34l-1.222,0.34l-0.155,0.122l-0.153,0.121l-0.26,0.301
		l-0.257,0.301l-0.92,0.729l-0.922,0.726l-0.516,0.163l-0.516,0.165l-0.24,0.176l-0.242,0.176l-0.116,0.315l-0.119,0.315
		l0.035,0.128l0.032,0.127l0.15,0.276l0.152,0.279l0.011,0.125l0.011,0.125l-0.107,0.06l-0.105,0.064l-0.541-0.098l-0.537-0.1
		l-0.138,0.037l-0.134,0.037l-0.35,0.225l-0.349,0.224l-0.132,0.02l-0.133,0.019l-0.268-0.096l-0.269-0.098l-0.145,0.03
		l-0.148,0.032l-0.494,0.312l-0.492,0.314l-0.223,0.219l-0.221,0.218l-0.092,0.25l-0.092,0.25l-0.167-0.067l-0.169-0.066
		l-0.17,0.052l-0.17,0.053l-0.418,0.205l-0.418,0.206l-0.075,0.061l-0.075,0.063l-0.041,0.085l-0.042,0.085l0.025,0.099l0.023,0.099
		l0.083,0.106l0.084,0.107l0.045,0.032l0.042,0.031l0.025,0.043l0.026,0.044l0.024,0.14l0.026,0.142l0.008,0.199l0.008,0.197
		l-0.142,1.142l-0.141,1.142l-0.073,0.139l-0.071,0.138l-0.156,0.152l-0.154,0.152l-0.309,0.214l-0.313,0.213l-0.327,0.159
		l-0.325,0.161l-0.39,0.051l-0.388,0.051l-0.187,0.061l-0.186,0.062l-0.119,0.155l-0.114,0.156l-0.226,0.388l-0.226,0.39
		l-0.621,0.273l-0.623,0.273l-0.252,0.281l-0.246,0.281l-0.333,0.957l-0.332,0.958l-0.181,0.224l-0.184,0.226l-0.557,0.245
		l-0.165,0.072l-0.391,0.171l-0.253,0.173l-0.251,0.173l-0.099,0.279l-0.099,0.281l-0.041-0.026l-0.039-0.027l-0.086-0.033
		l-0.084-0.033l-0.042-0.022l-0.038-0.023l-0.004,0.132l-0.002,0.131l0.022,0.267l0.024,0.268l-0.011,0.116l-0.012,0.115
		l-0.057,0.134l-0.06,0.136l-0.06,0.043l-0.056,0.044l-0.051,0.062l-0.05,0.059l-0.035,0.184l-0.032,0.184l0.09,0.998l0.093,0.997
		l0.059,0.227l0.06,0.221l0.075,0.096l0.075,0.095l0.086,0.049l0.088,0.049l0.23,0.054l0.227,0.054l-0.008,0.148l-0.009,0.149
		l0.034,0.153l0.032,0.153l0.06,0.145l0.062,0.148l0.078,0.132l0.078,0.133l-0.019,0.08l-0.017,0.08l-0.221,0.363l-0.22,0.36
		l0.173,0.093l0.176,0.092l-0.054,0.156l-0.057,0.156l-0.194,0.114l-0.191,0.114l-0.242-0.034l-0.243-0.037l-0.36-0.179
		l-0.362-0.179l-0.105-0.018l-0.104-0.018l-0.085,0.056l-0.084,0.058l-0.051,0.103l-0.051,0.103l-0.065,0.083l-0.07,0.084
		l-0.137-0.007l-0.137-0.007l-0.112,0.113l-0.111,0.113l-0.03,0.06l-0.03,0.06l-2.135-1.119l-1.403-0.737l-0.732-0.385l-0.61-0.48
		l-0.607-0.479l-0.828-0.82l-0.829-0.821l-0.276-0.155l-0.275-0.156l-0.358-0.076l-0.359-0.078l-0.059-0.043l-0.06-0.042
		l0.029-0.094l0.028-0.094l0.082-0.074l0.081-0.074l0.318-0.143l0.318-0.144l0.151-0.121l0.149-0.118l0.134-0.15l0.134-0.151
		l0.102-0.157l0.098-0.157l0.138-0.31l0.141-0.311l0.133-0.391l0.135-0.39l0.09-0.402l0.088-0.401l0.004-0.34l0.002-0.342
		l-0.075-0.14l-0.074-0.14l-0.042-0.057l-0.045-0.057l-0.074-0.04l-0.074-0.041l0.079-0.038l0.076-0.038l0.211-0.153l0.208-0.153
		l-0.024-0.023l-0.027-0.025l-0.087-0.028l-0.086-0.029l0.022-0.111l0.023-0.11l-0.003-0.026l-0.002-0.027l-0.034-0.254
		l-0.036-0.255l-0.195,0.02l-0.193,0.018l-0.126,0.268l-0.125,0.268l-0.095-0.126l-0.099-0.127l-0.112-0.019l-0.111-0.016
		l-0.114,0.053l-0.116,0.056l-0.109,0.09l-0.108,0.089l-0.122-0.197l-0.118-0.197l-0.073-0.464l-0.071-0.463l-0.092-0.213
		l-0.092-0.213l-0.401-0.524l-0.399-0.526l-0.064-0.133l-0.064-0.134l-0.021-0.016l-0.023-0.016l-0.108-0.341l-0.111-0.342
		l-0.231,0.149l-0.229,0.149l-0.524,0.348l-0.524,0.347l-0.174,0.026l-0.174,0.025l-0.199-0.069l-0.198-0.071l-0.38-0.198
		l-0.382-0.199l-0.206-0.057l-0.207-0.058l-2.317,0.137l-2.35,0.143l-1.472,0.089l-2.311,0.137l-1.937,0.117l-2.642,0.159
		l-1.768,0.104l-2.104,0.126l-0.746-0.193l-0.294-0.077l-0.452-0.118l-0.402-0.493l-0.408-0.493l-0.773-3.537l-0.777-3.546
		l-0.579-2.979l-0.577-2.983l-0.316-3.059l-0.314-3.066l-0.045-0.025l-0.045-0.026l-0.062-0.014l-0.061-0.015l-0.068-0.003
		l-0.069-0.003l-0.066,0.009l-0.069,0.01l-2.188-0.01l-1.979-0.007l-1.988-0.008l-2.181-0.009l-0.079-0.06l-0.077-0.063
		l-0.021-0.131l-0.019-0.131l0.065-4.74l0.056-4.018l0.01-0.737l0.054-0.169l0.052-0.169l0.214-0.083l0.213-0.083l0.09-0.211
		l0.092-0.21l0.045-0.645l0.045-0.645l0.39-6.091l0.39-6.117l-2.615,1.414l-2.615,1.411l-0.155-0.018l-0.159-0.018l-1.163-2.392
		l-1.358-2.79l-0.983-2.023l-1.539-3.177l-0.358-0.317l-0.359-0.317l-1.864-1.169l-1.867-1.17l-0.901-0.951l-0.902-0.955
		l-1.951-2.538l-1.951-2.54l-0.307-0.273l-0.302-0.27l-0.288-0.046l-0.29-0.045l-0.325,0.124l-0.327,0.123l-1.765,0.981
		l-1.798,0.999l-1.743,0.967l-1.822,1.009l-0.315,0.091l-0.316,0.091l-0.998-0.089l-2.509-0.227l-2.509-0.229l-2.514-0.228
		l-2.51-0.229l-2.758-0.251l-2.762-0.249l-2.76-0.253l-2.76-0.251l-1.655,0.271l-1.653,0.269l-1.653,0.269l-1.653,0.269
		l-1.655,0.269l-1.653,0.268l-1.653,0.27l-1.653,0.268l-1.022,0.187l-1.022,0.189l-1.022,0.189l-1.024,0.188l-0.637,0.117
		l-0.64,0.118l-0.64,0.118l-0.637,0.118l-1.496,0.274l-0.04,0.007l-0.365-0.158l-0.367-0.158l-1.359-1.556l-1.017-1.168l-1.019-1.17
		l-1.019-1.172l-1.017-1.171l-1.041-1.198l-1.041-1.199l-1.043-1.201l-1.039-1.201l-1.27-1.461l-0.994-1.073l-0.992-1.072
		l-2.078-2.245l-1.066-1.711l-0.176-0.589l-0.118-1.306l-0.116-0.613l-0.328-0.669l-0.468-0.526l-1.129-0.748l-1.59-1.054
		l-2.163-1.435l-2.64-1.754l-3.028-2.013l-3.318-2.211l-3.518-2.346l-3.625-2.424l-3.638-2.434l-3.558-2.386l-3.387-2.274
		l-3.118-2.098l-1.181-0.795l-1.58-1.064l-2.309-1.557l-1.764-1.19l-1.129-0.761l-0.395-0.269l-1.391-0.939l-0.494-0.219
		l-0.425-0.04l-1.468,0.421l-1.09,0.316l-1.092,0.317l-1.092,0.317l-1.09,0.314l-1.05,0.313l-1.047,0.311l-1.047,0.31l-1.047,0.313
		l-2.266,0.695l-2.266,0.694l-2.264,0.695l-2.264,0.693l-1.698,0.547l-1.698,0.547l-1.698,0.548l-1.7,0.545l-1.698,0.547
		l-1.698,0.546l-1.696,0.544l-1.7,0.545l-0.374,0.12l-1.324,0.425l-1.696,0.545l-1.698,0.545l-1.698,0.545l-1.702,0.546
		l-1.696,0.544l-1.698,0.543l-1.697,0.545h-0.002l-0.002,0.001h-0.002l-0.002,0.003h-0.002h-0.002l-0.002,0.003l-0.002,0.001h-0.002
		h-0.002l-0.002,0.001l-0.002,0.001l-0.002,0.001l-0.002,0.003l-0.002,0.001h-0.002v0.003l-0.002,0.001l-0.002,0.001l-0.002,0.001
		l-0.002,0.003l-0.002,0.003l-0.002,0.003v0.003v0.004h-0.002v0.003v0.003l-0.002,0.003l-0.002,0.003v0.003v0.003v0.003v0.004v0.005
		v0.003v0.003v0.003v0.003l0.004,5.848l0.002,5.825l0.004,5.8l0.002,5.78l0.004,5.755l0.002,5.733l0.004,5.711l0.002,5.689
		l0.004,5.668l0.002,5.647l0.004,5.625l0.002,5.605l0.004,5.585l0.002,5.564l0.004,5.543l0.004,5.526l-1.238-0.118l-0.607,0.051
		l-1.618,0.788l-1.683,0.243l-1.067,0.413l-2.286,0.132l-0.562-0.19l-0.507-0.29l-0.376-0.287l-0.305-0.411l-0.507-1.217
		l-0.219-0.409l-0.286-0.324l-1.135-0.781l-0.633-0.557l-0.558-0.678l-1.15-2.04l-1.176-2.092l-0.82-1.108l-1.885-2.553
		l-0.189-0.437l-0.096-0.487l0.026-0.522l0.075-0.423l0.004-0.41l-0.18-0.476l-0.431-0.556l-3.058-2.819l-2.15-1.435l-1.824-1.219
		l-3.052-2.038l-2.812-1.882l-1.316-0.477l-1.367-0.19l-4.34,0.789l-2.775,0.503l-3.189,0.581l-1.198,0.256l-3.996,1.588
		l-1.026,0.614l-2.833,1.003l-3.878,3.23v0.004l-0.006,0.003l-2.408,2.408l-2.765,2.759l-0.746,0.762l-0.034-0.476l0.142-0.542
		l0.695-1.769l0.164-0.923l-0.117-0.96l-0.189-0.509l-0.234-0.397l-0.173-0.179l-0.181-0.147l-0.143-0.196l-0.059-0.323l0.122-0.829
		l-0.009-0.242l-0.108-0.227l-0.522-0.617l0.201-0.345l0.165-0.453l0.112-0.49l0.038-0.449l0.105-0.39l0.258-0.193l0.321-0.129
		l0.295-0.21l0.888-1.711l0.979-1.34l0.118-0.206l0.092-0.23l0.038-0.284l-0.021-0.521l0.018-0.267l0.068-0.197l0.537-0.537
		l0.152-0.236l0.057-0.201l0.027-0.418l0.04-0.202l0.301-0.977l0.181-0.899l0.004-0.884l-0.239-0.936l-0.46-1.05l-0.352-0.562
		l-0.776-0.497l-0.208-0.547l-0.007-0.525l0.193-0.186l0.128,0.26l0.137,0.516l0.205,0.506l0.335,0.227l0.167,0.063l0.638,0.441
		l0.09,0.179l0.029,0.188l0.032,0.131l0.094,0.006l0.253,0.893l0.181,0.436l0.173,0.191l0.199-0.198l0.202-0.499l0.156-0.59
		l0.062-0.478l-0.15-1.08l-0.425-0.723l-0.659-0.39l-0.858-0.078l-0.075-0.612l-0.92-0.585l-1.872-0.682l-1.794-0.152l-0.261,0.017
		l-0.224,0.057l-0.215,0.104l-0.227,0.158l-0.1,0.142l-0.198,0.426l-0.084,0.118l-0.482-0.195l-1.208-1.658l-0.672-0.515
		l-0.429-0.036l-1.579,0.247l-1.208,0.463l-0.663,0.469l-0.404,0.14l-0.369-0.182l-1.062-1.267l-0.254-0.384l-0.398-0.783
		l-0.277-0.432l-0.178-0.383l-0.187-0.918l-0.189-0.484l-0.861-0.976l-0.236-0.504l-0.234-0.085l-0.255-0.044l-0.156-0.094
		l-0.091-0.317l0.056-0.208l0.106-0.196l0.062-0.291l-0.068-0.467l-0.211-0.495l-0.302-0.288l-0.702,0.355l-0.889-0.052
		l-0.425,0.104l-0.143,0.139l-0.114,0.168l-0.125,0.14l-0.184,0.06l-0.23-0.057l-0.417-0.242l-0.227-0.056l-1.675,0.355h-1.669
		l-0.236-0.251l0.065-0.568l0.655-2.017l0.189-1.046l0.122-3.262l-0.088-0.496l-0.571-1.142l-0.084-0.231l-0.034-0.237l-0.024-0.563
		l-0.044-0.219l-0.277-0.341l-0.717-0.525l-0.143-0.418l-0.06-0.358l-0.152-0.043l-0.202,0.091l-0.203,0.046l-0.23-0.051
		l-0.134-0.053l-0.257-0.222l-0.486-0.676l-1.665-3.501l-0.149-0.44l-0.06-0.437l-0.053-0.24l-0.121-0.215l-0.127-0.182
		l-0.071-0.141l-0.012-0.247l0.044-0.542l-0.033-0.239l-0.142-0.273l-0.543-0.496l-0.118-0.211l-0.146-0.464l-0.274-0.435
		l-0.223-0.485l-0.174-0.218l-0.187-0.11l-0.408-0.123l-0.145-0.127l-0.146-0.336l0.016-0.221l0.081-0.218l0.049-0.331l-0.066-2.096
		l-0.08-0.519l-0.102-0.4l-0.463-0.649l-0.731-0.526l-1.539-0.717l-6.372-1.183l-0.824-0.381l-0.388-0.256l-0.407-0.367
		l-0.321-0.462l-0.133-0.546l0.121-1.138l0.013-0.551l-0.134-0.478l0.134-0.188l-0.181-0.458l-0.097-0.826l0.044-0.833l0.234-0.477
		l0.299,0.734l0.258-0.33l0.184-0.706l0.059-0.39l0.199-0.132l0.046-0.31l0.003-0.35l0.066-0.263l0.22-0.178l0.162,0.062
		l0.158,0.168l0.202,0.136l2.859,0.561l0.863-0.041l0.849-0.312h0.447l0.19,0.398l0.277,0.082l1.589,0.006l0.274,0.288l0.203,0.105
		l0.208-0.134l0.128-0.259l0.066-0.191l0.093-0.118l0.212-0.039l0.942,0.037l0.453,0.1l0.398,0.211l0.643,0.6l0.546,0.689
		l0.174,0.11l0.442-0.073l0.186,0.058l0.118,0.202l-0.047,0.166l-0.143,0.112l-0.175,0.039l0.295,0.423l0.473,0.329l1.47,0.692
		l0.521,0.094l0.531-0.021l0.547-0.135l0.407-0.223l0.966-0.985l0.044-0.065l0.031-0.09l0.053-0.097l0.119-0.095l0.125-0.034
		l0.441,0.034l0.274-0.043l0.5-0.157l0.277,0.011l-0.14,0.811l0.52,0.16l1.24-0.265l1.213,0.571l0.405-0.052l0.246-0.317
		l-0.094-0.35l-0.259-0.323l-0.264-0.235l-1.092-0.593l-0.734-0.682l-0.425-0.053l-0.864,0.288l-0.879,0.111l-0.498-0.459
		l-0.613-1.889l-0.428-0.766l-0.606-0.555l-1.451-0.95l-0.186-0.183l-0.124-0.168l-0.14-0.122l-0.649-0.086l-0.193-0.082
		l-0.08-0.157l-0.199-0.209l-1.15-0.746l-0.15-0.421l-0.044-0.581l0.1-0.515l0.277-0.223l0.162-0.089l0.074-0.21l0.003-0.238
		l-0.053-0.175l-0.206-0.137l-0.248-0.019l-0.211-0.071l-0.087-0.296l0.177-0.383l0.414-0.272l0.478-0.162l0.358-0.055l0.457,0.066
		l0.211-0.04l0.257-0.2l0.125-0.169l0.209-0.353l0.17-0.176l0.78-0.548l0.441-0.219l0.398-0.087l0.308,0.206l0.327,0.432
		l0.354,0.373l0.395,0.036l0.159-0.329l-0.124-0.493l-0.257-0.506l-0.234-0.355l-0.08-0.271l0.078-0.305l0.121-0.299l0.065-0.252
		l-0.027-0.174l-0.149-0.394l-0.071-0.131l0.124-0.35l0.217-0.438L117.24,388l0.108-0.396l0.175-0.42l1.594-1.932l0.161-0.411
		l0.062-0.577l0.112-0.486l0.258,0.232l0.485,0.862l0.674,0.326l0.902-0.005l0.892-0.252l0.634-0.42l0.557-0.623l0.164-0.109
		l0.407,0.024l0.177-0.089l0.27-0.452l0.209-0.508l0.237-0.449l0.341-0.268l0.218,0.245l0.201,0.348l0.143,0.383l0.058,0.357
		l1.557,0.264l0.287,0.112l0.487,0.494l0.344,0.111l0.32-0.111l0.585-0.494l0.339-0.112l0.41,0.056l0.736,0.242l0.4,0.053
		l5.598-0.717l0.774,0.227l1.331-0.214l0.858,0.21l3.053,1.359l1.811,0.287l0.904,0.471l0.447,0.144l1.676-0.191l0.476,0.094
		l0.994,0.38l0.451,0.052l0.38-0.135l0.755-0.452l0.425-0.099l0.111-0.053l0.217-0.247l0.103-0.065l0.448,0.133l0.047,0.041
		l0.122-0.082l0.164-0.15l0.111-0.207l-0.027-0.261l-0.332-0.222l-1.896-0.367l-0.152-0.144l-0.106-0.175l-0.122-0.145l-0.178-0.106
		l-0.55-0.07l-0.835-0.254l-2.282-1.15l-0.445-0.104l-0.17-0.094l-0.335-0.453l-0.13-0.142l-0.171-0.079l-0.661-0.097l-0.888-0.406
		l-0.304-0.227l0.09-0.328l-0.097-0.222l-0.111-0.186l0.049-0.224l0.146-0.274l0.006-0.19l-0.05-0.182l-0.032-0.243l0.028-0.609
		l0.102-0.473l0.208-0.308l0.341-0.108l0.296-0.198l0.211-0.461l0.298-0.947l0.696-1.229l0.304-0.361l0.195-0.126l0.447-0.177
		l0.164-0.145l0.624-0.886l0.237-0.453l0.346-0.994l0.283-0.517l0.526-0.553l0.159-0.236l0.085-0.223l0.167-0.576l0.117-0.28
		l0.388-0.704l0.087-0.4l-0.088-0.476v0.16l-0.086-0.395l0.097-0.336l0.414-0.603l0.155-0.363l0.084-0.429l0.167-1.798l0.528-2.323
		v-1.815l-0.516-1.367l-0.823-1.074l-0.911-0.942l0.374,0.058l0.543,0.486l0.342,0.173v-0.195l-0.324-0.24l-0.158-0.406
		l-0.007-0.487l0.121-0.478l-0.335,0.173l-0.407,0.411l-0.416,0.302l-0.352-0.155l-0.032-0.53l0.236-0.706l0.551-1.109l0.031,0.487
		l0.226,0.257l0.318,0.022l0.292-0.228l0.142-0.392l0.08-0.967l0.147-0.436l0.171,0.532l0.146-0.135l0.143-0.423l0.159-0.332
		l0.174-0.062l0.416,0.072l0.165-0.01l0.212-0.119l0.085-0.091l0.074-0.33l0.057-1.031l-0.355-0.605l-0.566-0.287l-0.565-0.071
		l-0.361-0.149l-0.115-0.366l0.047-0.843l-0.336-1.851l-0.339-0.692l-0.08-0.34l-0.153-0.161l-0.777,0.095l-0.305-0.016
		l-0.327-0.343l-0.699-1.071l-0.283-0.226l-0.814,0.018l-1.672,0.342l-1.003-0.164h-2.041l-0.442-0.116l-0.341-0.207l-0.627-0.704
		l-0.318-0.142l-1.15-0.184l-0.347,0.055l-0.173,0.236l-0.071,0.294l-0.004,0.669l-0.069,0.259l-0.82,1.067l-0.305,0.265
		l-1.721,0.621l-0.493,0.032l-0.602-0.438l-0.236,0.044l-0.147,0.217l0.04,0.361l0.119,0.084l0.478,0.187l0.155,0.088l0.114,0.168
		l0.121,0.254l0.097,0.294l0.04,0.294l-0.108,0.085l-2.29-0.156l-0.447-0.217l-0.177-0.127l-0.115-0.113l-0.062-0.195l-0.018-0.37
		l-0.1,0.035l-0.223-0.18l-0.585-0.629l-0.186-0.116l-0.127-0.145l-0.038-0.326l0.103-0.177l0.198-0.201l0.145-0.238l-0.065-0.285
		l-0.36-0.105l-0.323,0.467l-0.372,0.992l-0.349,0.155l-0.575-0.03l-0.597-0.155l-0.414-0.225l0.572-0.767l0.183-0.168l-0.389-0.127
		l-0.442,0.196l-0.79,0.506l-0.382-0.001l-0.385-0.174l-0.358-0.294l-0.293-0.359l-0.697-0.558l-0.243-0.452l0.367-1.128
		l-0.037-0.544l-0.251-0.406l-0.451-0.076l-0.354,0.294l-0.162,0.517l-0.103,0.58l-0.183,0.491l-0.339,0.042l-0.367-0.465
		l-0.47-0.932l-0.342-0.343l-0.445-0.222l-1.174-0.207l-1.014-0.385l-2.324-0.512l-0.743-0.476l-0.463,0.107l-0.818,0.59
		l-0.709,0.377l-2.391,0.546l-0.34,0.204l-0.526,0.721l-0.315,0.16l-0.265-0.088l-0.407-0.384l-0.198-0.086l-0.198,0.086
		l-0.108,0.193l-0.019,0.191l0.077,0.088l-0.102,0.239l-1.455,2.498l-0.313,0.247l-0.183-0.454l0.062-0.308l0.349-0.532l0.084-0.342
		l-0.103-0.177l-0.229,0.144l-0.647,0.702l-0.463,0.265l-0.487,0.116l-0.367-0.148l-0.273-0.045l-0.103,0.538l-0.062,1.246
		l-0.15,0.414l-0.239,0.402l-0.296,0.216l-0.317-0.147l0.33-0.468l0.199-0.403l-0.049-0.284l-0.411-0.106l-0.618,0.204l-0.125,0.075
		l-0.211,0.217l-0.165-0.058l-0.136-0.164l-0.594-0.521l-0.187-0.098l-0.15-0.038l-0.082,0.004l-0.091,0.105l-0.17,0.273
		l-0.582,1.706l-0.295,0.294l0.085-0.335l0.04-0.927l-0.243,0.21l-0.141,0.307l-0.103,0.318l-0.133,0.247l-0.127,0.064l-0.342,0.045
		l-0.149,0.071l-0.131,0.123l-0.081,0.106l-0.774,1.463l-0.372,0.432l-0.323-0.057v-0.252l0.122-0.328l0.059-0.286l-0.181-0.122
		l-0.231,0.069l-0.572,0.369l-1.62,1.72l-0.518,0.9l-0.304,0.38l-0.36,0.158l-0.681-0.081l-0.252,0.081l-0.178,0.143l-0.283,0.415
		l-0.156,0.174l-0.638,0.276l-0.199,0.391l-0.251,0.008l-0.522-0.136l-0.258,0.244l-0.04,0.478l-0.106,0.338l-0.463-0.18
		l-0.223-0.383l-0.149-0.138l-0.189,0.097v0.569l-0.062,0.264l-0.184-0.122l-0.372-0.48l-0.239-0.18l-0.199,0.031l-0.032,0.204
		l0.063,0.664l-0.031,0.207l-1.176-1.525l-0.274-0.144l-0.053,0.5l0.13,1.169l-0.339-0.203l-0.189,0.154l-0.139,0.313l-0.201,0.272
		l-0.15-0.605l-0.231-0.327l-1.084-0.484l-0.313-0.205l-0.2-0.34l-0.012-0.547l0.003,0.834l0.056,0.421l0.251,0.314l0.189,0.673
		l0.136,0.267l-0.204-0.019l-0.313-0.141l-0.18-0.035l-0.161-0.086l0.013-0.202l0.075-0.234l0.01-0.177l-0.072-0.1l-0.358-0.357
		l-0.173-0.119l-0.096,0.114l-0.037,0.184l-0.004,0.099l-0.578-0.112l-0.646-0.25l-0.559-0.382l-0.32-0.513l0.138,0.67l1.188,1.362
		l0.283,0.836l-0.357-0.15l-0.669-0.031l-0.078,0.018l-0.255-0.333l-0.174-0.394l-0.212-0.301l-0.358-0.045v0.162l0.301,0.296
		l0.053,0.554l0.108,0.536l0.469,0.242l0.678,0.717l0.072,0.236l0.034,0.275l-0.024,0.289l-0.082,0.272l-0.746-0.559l-0.351-0.355
		l-0.264-0.354l-0.252-0.43l-0.209-0.269l-0.289-0.14l-0.488-0.039l0.203,0.161l0.155,0.162l0.102,0.245l0.035,0.407l0.084,0.25
		l0.659,0.726l-0.071,0.045l-0.177,0.15l-0.258-0.188l-1.43-0.462l-0.205,0.008l-0.097,0.108l0.04,0.27l0.144,0.165l0.192,0.081
		l0.186,0.019l0.301,0.227l0.115,0.498l0.031,0.497l0.046,0.225l0.012,0.15l0.001,0.002l-3.514-2.016l-1.328-1.057l-0.759-0.762
		l-0.379-0.206l-0.513-0.005l-0.446,0.1l-0.444-0.019l-1.107-0.889l-0.464-0.549l-0.506-0.431l-0.721-0.177l-1.667-0.029
		l-0.613-0.254l0.428-0.614l-0.292-0.209l-0.09-0.367l-0.049-0.387l-0.167-0.269l-0.663-0.402l-0.352-0.151l-0.343-0.042
		l0.434-0.596l0.483-1.294l0.923-0.768l1.114-0.229l1.058,0.327l0.374,0.341l0.279,0.43l0.487,1.007l0.444,0.203l2.769-0.52
		l0.566-0.457l1.054-1.296l-5.599-8.778l-2.738-7.141l-0.187-0.642l-0.195-0.447l-0.268-0.192l-0.672-0.079l-0.646-0.234
		l-0.479-0.442l-0.908-1.261l-0.007-0.004l-3.374-5.887l-1.121-0.958l-1.232-0.569l-7.152,0.11l-3.884-1.85l-0.42-0.04l-0.326,0.244
		l-0.097,0.4l0.011,1.622l-0.118,1.24l-0.157,0.524l-0.264,0.067l-3.355-2.341l-0.614-0.595l-0.303-0.413l-0.079-0.315l0.103-0.332
		l0.238-0.471l0.125-0.167l0.118-0.089l0.091-0.11l0.035-0.225l-0.06-0.159l-0.61-1.024l-1.277-1.596l-0.125-0.312l0.257-0.223
		l1.425-0.885l0.745-0.663l0.251-0.541l-0.328-0.335l-0.987-0.11l-0.288-0.349l0.009-0.488l0.136-0.46l0.089-0.477l-0.139-0.545
		l-0.112-0.171l-0.404-0.425l-0.092-0.248l0.114-0.182l0.189-0.149l0.12-0.143l0.245-0.514l0-0.018l-0.005-0.238l-0.234-0.39
		l-0.374-0.271l-1.795-0.505l-4.529-1.579l-4.528-1.581h-0.013L30,303.906l0.006-0.016l0.013-0.019l2.552-7.032l2.421-6.703
		l0.438-0.604l0.633-0.488l1.361-0.737l0.416-0.339l0.345-0.309l0.891-1.192l0.755-1.367l0.346-1.476l-0.206-1.414l-0.895-1.184
		l-2.691-2.051l-1.007-0.394l1.131-6.778l1.13-6.812l0.411-1.149l0.652-0.639l3.964-1.769l1.236-1.269l1.144-1.475l0.359-0.793
		l-0.017-1.023l-0.989-1.385l-0.144-0.787l0.202-0.382l0.659-0.636l0.175-0.423l-0.096-0.438l-0.25-0.299l-0.153-0.337l0.198-0.549
		l0.312-0.272l1.257-0.531l0.255-0.311l0.511-1.197l0.08-0.189l0.56-0.81l0.756-0.714l0.823-0.444l0.768-0.003l0.46,0.337
		l1.183,1.544l0.815,0.461l0.257,0.278l0.202,0.37l0.121,0.282l0.173,0.209l0.353,0.142l0.222,0.137l0.839,0.987l0.354,0.526
		l0.713,0.638l0.728,1.1l0.717,0.652l0.129,0.341l0.085,0.386l0.13,0.392l0.226,0.306l0.903,0.732l0.395,0.752l0.174,0.785
		l0.118,0.807l0.232,0.815l0.126,0.26l0.183,0.56l0.125,0.248l0.21,0.238l0.717,0.602l0.352,0.66l0.131,0.617l0.221,0.413
		l0.629,0.048l0.522-0.103l0.169,0.088l0.858,0.83l1.052,0.624l0.223,0.056l0.234-0.149l0.418-0.583l0.24-0.206l3.704-1.466
		l1.831-1.064l1.402-1.672l0.293-0.481l0.136-0.277l0.004-0.296l-0.214-1.108l-0.155-0.461l-0.248-0.311l-1.25-0.4l-0.034-0.735
		l0.146-1l-0.328-1.073l-0.762-1.536l-0.5-1.957l-0.487-4.078l0.077-1.991l-0.096-0.882l-0.451-0.626l-0.925-0.184l-0.444-0.252
		l-0.084-0.561l0.285-0.372l0.449,0.049l2.37,1.435l0.845,0.197l0.8-0.154l3.302-2.49l1.625-2.128l0.755-0.678l2.53-0.629
		l1.553-0.659l0.707-0.615l0.277-0.967l-0.33-0.902l-0.615-0.742l-0.438-0.713l0.213-0.814l0.438-0.768l0.17-0.425l0.151-0.945
		l0.173-0.531l0.227-0.473l0.243-0.298l0.427-0.11l1.443,0.442l4.336-0.04l0.305-0.213l0.85-1.184l2.609-2.282l0.759-0.38
		l3.237-0.662l2.136-1.084l0.306-0.268l0.121-0.285l-0.027-0.365l-0.127-0.51l-0.051-0.555l0.166-0.266l0.274-0.179l0.26-0.279
		l-0.06-0.117l-0.154-0.17l-0.088-0.186l0.142-0.163l0.221-0.064l1.079-0.054l0.331-0.112l0.246-0.267l0.143-0.511l0.43-0.07
		l0.284-0.105l0.161-0.3l0.075-0.656l-0.167-1.686l0.058-0.431l0.317-0.342l0.344-0.095l0.251-0.226l0.035-0.725l0.074-0.639
		l0.329,0.017l0.714,0.54l0.843,0.016l0.153,0.13l-0.347,0.488l-0.296,0.53l0.221,0.252l0.464,0.056l0.425-0.053l0.803-0.327
		l0.478-0.542l0.069-0.835l-0.854-2.42l-0.058-0.972l0.414-0.497l0.976,0.2l0.333,0.205l0.335,0.299l0.288,0.391l0.193,0.476
		l0.298,0.537l0.448,0.217l4.426,0.297l0.371-0.135l0.404-0.223l0.386-0.109l0.326,0.203l0.442,0.784l0.221,0.254l0.363,0.169
		l0.798,0.024l0.352,0.193l0.182,0.576l-0.015,0.661l-0.144,0.449l-0.257,0.295l-0.359,0.188l-1.767,0.329l-0.093,0.227l0.204,0.43
		l0.29,0.47l0.167,0.349v0.008l0.565,0.608l1.363,0.132l1.492-0.238l0.962-0.505l0.31-0.456l0.229-0.456l0.273-0.304l0.444-0.01
		l0.464,0.209l0.191,0.263l0.045,0.419l0.026,0.674l0.416,0.864l0.832-0.083l0.924-0.561l0.688-0.563l0.012-1.074l-0.275-0.963
		l-0.055-0.882l1.005-1.154l0.556-0.835l0.331-0.333l0.5-0.194l0.508,0.043l0.503,0.213l0.473,0.309l0.47,0.16l0.556,0.072
		l0.556-0.03l0.468-0.154l0.348-0.338l0.404-0.925l0.266-0.409l0.473-0.268l1.016,0.081l0.507-0.051l0.388-0.325l0.229-0.884
		l0.282-0.26l0.491,0.316l0.313,0.978l0.226,1.164l0.237,0.879l1.212,2.326l0.506,1.893l0.116,0.295l0.206,0.356l0.283,0.398
		l0.347,0.329l0.377,0.232l0.142,0.045l0.388-0.266l1.606,0.107l0.088,0.241l0.204-0.112l0.227-0.274l0.155-0.241l0.155-0.154
		l0.217-0.089l0.436-0.054l0.127-0.1l0.086-0.217l0.133-0.212l0.273-0.083l0.18,0.098l0.386,0.407l0.176,0.108l1.007-0.089
		l0.367,0.139l-0.249,0.526l0.373,0.062l0.468,0.279l0.273,0.072l0.281-0.086l0.243-0.225l0.229-0.264l0.236-0.217l0.693-0.277
		l2.176,0.079l-0.155-0.515l0.084-0.23l0.227-0.055l0.277,0.007l0.17,0.053l0.084,0.129l0.064,0.163l0.114,0.152l0.167,0.071
		l0.116-0.049l0.099-0.088l0.112-0.035l1.361,0.199l0.271-0.044l0.434-0.223l0.373,0.274l0.047-0.008l0.685,0.282l0.215,0.269
		l0.371,0.689l0.249,0.268l1.848,0.765l0.762,0.531l0.232,0.254l0.139,0.471l-0.155,0.233l-0.633,0.315l0.341,0.408l-0.002,0.477
		l-0.082,0.499l0.099,0.46l0.614,0.625l0.264,0.357l0.124,0.522l0.444,0.504l3.331,1.017l0.929-0.168l0.487,0.139l0.704,0.551
		l0.35,0.377l0.427,0.988l0.403,0.251l0.944,0.148l0.356,0.266l0.155,0.427l0.178,1.117l0.152,0.394l0.133,0.258l0.062,0.287
		l-0.067,0.488l0.565,0.71l0.316,0.279l0.715,0.433l0.257,0.347l0.228,0.389l0.281,0.376l0.44,0.274l1.466,0.266l0.193,0.141
		l0.331,0.337l0.176,0.121l0.809,0.185l0.258,0.13l0.133,0.24l0.036,0.274l-0.047,0.29l-0.122,0.278l-1.026,1.344l-0.137,0.577
		l-0.036,1.268l-0.095,0.548l-0.395,1.293l-0.101,0.57l0.069,0.556l0.288,0.604l0.657,0.886l0.361,0.341l0.414,0.272l0.378,0.076
		l0.835-0.206l0.094-0.023l0.738-0.313l1.017-0.879l0.52-0.834l-0.049-0.905l-0.625-2.071l-0.008-0.6l0.223-1.074l-0.013-0.591
		l-0.088-0.182l-0.275-0.315l-0.06-0.226l0.054-0.25l0.292-0.498l0.105-0.244l-0.245-1.13l-0.989-0.571l-1.045-0.308l-0.418-0.339
		l0.234-0.258l0.341-0.182l0.204-0.277l-0.374-1.085l0.154-0.349l0.343-0.199l1.55-0.503l0.434-0.006l0.427,0.125l0.382,0.209
		l0.713,0.67l1.185,0.59l0.354,0.375l0.545,0.729l0.597,0.616l2.781,0.807l0.281,0.632l-0.034,1.13l0.41,0.737l4.011,3.766
		l0.434,0.28l0.333,0.108l0.331-0.031l0.904-0.255l0.477-0.007l0.461,0.134l0.423,0.317l0.264,0.445l0.146,0.462l0.191,0.38
		l0.835,0.352l0.286,0.282l0.554,0.81l0.783,0.566l0.622-0.248l1.279-1.367l3.033-1.7l2.655-2.231l0.384-0.66l0.676-3.458
		l0.184-0.673l0.197-0.379l0.3-0.09l1.509,0.693l0.551,0.12l0.487-0.101l0.367-0.345l0.148-0.446l0.12-1.049l0.262-0.283
		l0.921-0.138l0.294-0.389l-0.002-0.39l-0.21-0.828l0.015-0.428l0.172-0.342l0.286-0.32l0.577-0.473l0.537,0.195l1.605,2.363
		l0.363,0.163l1.299,0.264l0.346-0.037l0.039-0.32l-0.126-0.476l-0.367-0.929l-0.039-0.553l0.258-0.394l0.389-0.258l0.354-0.147
		l0.444-0.076l0.294,0.123l0.676,0.545l0.453,0.162l0.479-0.01l0.474-0.138l0.446-0.218l0.457-0.12l1.524,0.163l0.856-0.203
		l1.187-0.752l0.3-0.117l0.249,0.178l0.236,0.583l0.157,1.111l0.137,0.503l0.292,0.208l0.427,0.018l0.346,0.1l0.301,0.246
		l0.283,0.466l0.165,0.467l0.227,1.021l0.159,0.462l0.279,0.453l0.333,0.327l1.185,0.676l0.451,0.132l0.446-0.021l0.431-0.24
		l0.316-0.413l0.2-0.438l0.234-0.383l0.418-0.252l0.73,0.087l1.685,0.543l0.601-0.343l0.27-0.846l0.011-0.937l-0.176-1.901
		l0.112-1.058l0.335-0.679l0.288-0.639l0.496-0.103l0.826,0.503l0.288,0.069h0.989l0.232,0.108l0.163,0.164l0.29,0.424l0.184,0.05
		l0.511-0.286l0.24-0.068l1.371-0.235l0.124,0.038l0.084,0.135l0.017,0.181l-0.002,0.172l0.024,0.101l0.412,0.314l0.487,0.245
		l0.491,0.042l0.416-0.298l0.214-0.515l0.165-0.618l0.223-0.523l0.389-0.219l0.414-0.11l0.73-0.446l0.271,0.233l0.547,0.574
		l0.225,0.376l0.06,0.398l0.028,0.378l0.129,0.324l0.363,0.2l2.219,0.051l0.779,0.365l0.571,0.744l0.139,1.21l-0.114,0.538
		l-0.2,0.421l-0.262,0.339l-0.298,0.302l-0.142,0.387l0.066,0.535l0.178,0.518l0.208,0.334l0.344,0.07l0.916-0.067l0.185,0.29
		l-0.133,1.104l0.051,0.383l0.32,0.325l0.461,0.044l0.539-0.146l0.511-0.046l0.374,0.354l0.301,0.942l0.161,0.344l0.318,0.348
		l1.363,1.042l0.71,0.308l4.919,0.439l0.397,0.125l0.296,0.392l0.204,0.427l0.219,0.263l0.258,0.125l0.316,0.015l1.734-0.424
		l0.927-0.022l0.734,0.477l0.361,0.418l0.959,0.39l0.225,0.175l-0.054,0.741l-0.455,0.206l-1.035-0.166l-0.479,0.431l-0.017,0.426
		l0.281,0.424l1.024,0.929l0.584-0.276l0.592-0.619l0.625-0.51l0.921-0.154L270,245.04l0.891-0.172l0.743-0.83l0.788-1.697
		l0.232-0.383l0.578-0.692l0.202-0.386l0.081-0.488l-0.103-1.001l0.013-0.568l0.101-0.49l0.76-1.9l0.126-0.225l0.163-0.183
		l0.783-0.294l1.123-0.089l0.959,0.362l0.288,1.052l0.049,1.052l0.397,0.821l0.594,0.64l0.652,0.507l0.996,0.494l7.574,0.912
		l1.809-0.292l5.016-1.705l5.016-1.707l0.579-0.575l0.414-0.872l0.27-1.199l0.272-2.58l0.157-0.793l0.865-4.799l0.38-1.342
		l0.601-0.802l0.792-0.444l0.953-0.264l-0.315-0.139l-0.962-0.423l-0.547-0.511l-0.44-0.799l-0.73-2.239l-0.369-0.597l-0.077-0.135
		l-0.655-0.187l-0.796-0.51l-0.68-0.285l-0.255,0.035l-0.431,0.145l-0.243,0.016l-0.243-0.062l-0.622-0.352l-0.438-0.099
		l-1.249,0.099l-0.408-0.059l-0.719-0.26l-0.369-0.059l-0.597,0.037l-0.189-0.037l-0.157-0.072l-0.11-0.082l-0.079-0.091
		l-0.067-0.099l-0.082-0.121l-0.122-0.129l-0.597-0.434l-0.217-0.269l-0.26-0.567l-0.131-0.363l-0.054-0.26l-0.017-0.948
		l0.071-0.371l-0.296-0.009l-7.355-0.187l-0.169-0.054l-0.107-0.214l-0.026-0.293l-0.056-0.265l-0.193-0.139l-1.972-0.335
		l-0.376-0.259l0.017-0.608l0.281-0.376l0.848-0.414l0.345-0.264l0.069-0.228l-0.019-0.517l0.103-0.178l0.361-0.267l0.176-0.205
		l0.077-0.235l-0.502-0.62l-3.217-0.8l-1.857-1.391l-0.614-0.249l-0.21,0.286l-0.157,0.455l-0.463,0.257l-0.571-0.114l-0.374-0.367
		l-0.824-1.906l-0.161-0.469l0.028-0.486l0.288-0.697l0.482-0.001l3.134-0.004l2.625-2.846l1.415-1.176l1.462-0.65l1.013,0.039
		l1.009,0.218l0.979-0.041l0.918-0.744l0.727-1.197l0.331-0.307l1.73-0.746l0.361-0.259l0.919-1.035l0.333-0.291l0.773-0.456
		l0.569-0.591l-1.122-1.557l-0.301-0.426l-0.099-0.529l-0.081-1.223l-0.124-0.533l-0.148-0.282l-0.227-0.153l-1.678-0.576
		l-0.298-0.26l-0.09-0.49l0.081-1.41l-0.017-0.584l-0.092-0.467l-0.095-0.195l-0.182-0.031l-0.932,0.102l-0.311-0.025l-0.232-0.179
		l-0.101-0.248l-0.036-0.197l-0.08-0.166l-0.236-0.158l-0.178-0.165l-0.077-0.256l-0.007-0.312l0.024-0.335l0.41-1.225l0.77-0.478
		l0.884-0.208l0.755-0.41l0.253-0.37l0.433-0.843l0.326-0.389l3.144-2.902l-1.504-1.449l-0.015-0.023l0.015-0.009l1.395-0.009
		l0.655-0.186l0.611-0.433h0.002l0.004-0.005l0.002-0.001l0.599-0.511l0.625-0.104l0.627,0.203l0.612,0.413l0.519,0.225l0.564,0.08
		l0.56-0.072l0.494-0.233l0.863-0.742l0.434-0.122l0.539,0.272l0.663,0.594l1.08,1.102l0.567,0.226l0.56-0.354l0.352-0.323
		l0.352-0.082l0.77,0.11l1.848-0.249l0.665,0.243l1.197,0.96l0.665,0.097l1.37-0.533l0.685-0.506l0.389-0.687v-0.005l0.353-1.479
		l0.043-0.683l-0.145-0.721l-0.449-0.744l-0.59-0.345l-3.905-0.794l-1.284-0.553l-1.071-1.026l-0.74-1.068l-0.384-0.134
		l-1.736,0.963l-0.597,0.084l-0.657-0.195l-1.779-1.411l-0.635-0.249l-1.726,0.013l-0.844-0.204l-0.728-0.687l-0.361-0.722
		l-0.165-0.76l0.064-0.757l0.341-0.714l0.815-1.199l0.161-0.412l0.08-0.366l0.071-0.935l0.309-0.316l0.468-0.11l0.481,0.105
		l0.352,0.32l0.386,0.665l0.455,0.635l0.509,0.415l0.556,0.011l0.453-0.326l0.927-0.996l0.476-0.4l0.736-0.402l-0.489-2.005
		l-0.21-0.428l-0.249-0.099l-2.043,0.014l-0.526,0.181l-0.818,1.137l-0.64,0.085l-2.543-0.618l-0.343-0.215l-0.125-0.195
		l-0.202-0.496l-0.127-0.205l-0.901-0.282l-2.524-0.158l-0.491-0.584l0.444-0.741l1.863,0.651l0.637-0.564l0.039-0.38l-0.017-0.381
		l0.015-0.372l0.135-0.363l0.285-0.172l0.706-0.107l0.159-0.342l0.214-0.718l0.44-0.553l0.489-0.477l0.369-0.498l0.052-0.688
		l-0.449-0.405l-0.629-0.277l-0.498-0.32l-0.358-0.546l-0.185-0.158l-0.358-0.097l-1.189-0.029l-0.391-0.098l-0.12-0.318
		l-0.036-0.346l0.043-0.355l0.112-0.333l0.328-0.452l0.386-0.232l0.841-0.195l0.59-0.028l0.886,0.187l0.12,0.144l0.067,0.216
		l0.135,0.305l0.24,0.368l0.301,0.289l0.324-0.017l0.3-0.56l0.058-0.527l-0.097-0.527l-0.369-0.994l-0.064-0.178l-0.14-0.612
		l1.021-0.076l0.453-0.24l0.335-0.539l0.329-0.425l0.474-0.102l1.449,0.221l0.281,0.263l0.521,1.118l0.301,0.253l1.344,0.319
		l0.062,0.97l0.14,0.283l0.324,0.125l0.339-0.079l0.191-0.286l0.097-0.449l0.064-0.565h1.728l0.24,0.224l0.245,0.114l0.234-0.052
		l0.399-0.512l0.258-0.027l0.273,0.1l0.257,0.152l0.137,0.594l0.034,0.395l0.112,0.284l0.367,0.259l0.639,0.198l2.029,0.13
		l-0.006-1.853l-0.017-0.184l0.004-0.586l7.43-0.285l0.376,0.06l0.229,0.312l-0.038,0.683h-0.004l-0.801,0.548l-0.235,0.405
		l0.061,0.606l0.329,0.517l0.879,0.476l0.381,0.431l0.175,0.282l0.209,0.25l0.23,0.158l0.247,0.024l0.289-0.147l0.07-0.215
		l-0.154-0.959l-0.088-0.232v-0.241l0.215-0.389l0.777-0.824l-0.311-0.553l-0.112-0.145l-0.228-1.055l0.551-0.824l0.872-0.541
		l0.745-0.202l1.575-0.104l0.994-0.428l0.349,0.07l0.795,0.406l0.492,0.033l1.505-0.444l1.797,0.223l0.499-0.248l0.276-0.516
		l-0.038-0.445l-0.169-0.458l-0.109-0.565l0.249-0.498l0.597-0.183l1.079,0.041l2.035,0.482l0.055,0.013l0.665-0.005l0.516-0.239
		l0.959-0.788l0.505-0.243l1.221-0.077l2.966-1.36l0.64,0.053l0.535,0.28l1.495,1.169l0.5,0.137l0.251,0.101l0.191-0.412
		l0.586-0.241l0.657-0.11l0.566-0.304l0.318-0.822l-0.575-0.779l-0.267-0.498l0.025-0.224l0.142-0.128l0.141-0.237l0.154-0.131
		l0.34,0.376l0.215,0.112l0.234,0.04l0.208-0.032l0.154-0.123l0.296-0.388l0.17-0.123l0.26-0.018l0.796,0.229l0.446-0.098
		l0.882-0.437l0.553-0.125l0.369-0.178l0.111-0.114l0.212-0.165l0.263,0.048l0.458,0.223l1.788-0.213l0.218-0.098l0.176-0.218
		l0.136-0.22l0.096-0.099l0.216,0.034l0.382,0.146l0.205,0.034l0.455-0.109l0.761-0.526l0.235,0.218l1.108,0.975l0.573,0.341
		l0.65,0.07l1.166-0.601l1.136-0.952l1.149-0.584l1.215,0.501l1.438,1.946l0.26,0.279l0.253,0.195l0.268,0.096l0.313-0.029
		l0.127-0.078l0.217-0.23l0.131-0.038l0.545,0.231l0.189-0.008l0.521-1.011l-0.573-3.294l0.379-0.728l-0.051-0.474l-0.025-0.14
		l0.002-0.743l0.292-0.365l2.306-1.047l0.521-0.031l1.035,0.301l0.39-0.119l0.13-0.662l-0.205-1.133l0.089-0.415l0.5-0.163
		l1.761,0.226l2.507,0.882l0.562-0.115l0.477-0.516l0.508-0.96l0.519-0.767l0.588-0.409l1.329-0.525l0.345,0.278l0.159,2.053
		l0.304,0.508l2.18-0.795l6.318-2.306l1.149-0.181l2.314,0.095l1.135-0.175l0.401-0.249l0.689-0.743l0.387-0.228l3.543-0.172
		l0.559-0.133l1.065-0.614l0.571-0.141l1.367,0.019l0.713-0.181l0.475-0.494l0.372-0.752l0.433-0.514l0.496-0.208l1.207,0.341
		l1.179-0.25l3.256,0.099l1.372-0.441l1.077-0.94l0.718-1.237l0.359-0.472l0.534-0.371l0.642-0.205l0.56,0.041l1.749,0.823
		l2.833-0.413l0.318-0.347l0.132-0.801l0.402-0.186l0.158-0.293l0.076-0.414l0.159-0.556l0.344-0.233l0.505-0.039l0.41-0.173
		l0.071-0.638l-1.45-0.909l-0.681-0.751l0.298-0.91l-0.403-0.415l-0.138-0.103l1.155-0.653l0.389-0.092l0.266,0.101l0.232,0.177
		l0.288,0.123l0.361-0.018l0.925-0.416l0.442,0.011l1.38,0.376l1.21-0.445l0.418-0.021l0.479,0.126l0.212-0.064l0.191-0.313
		l0.043-0.316l-0.097-0.611l0.015-0.265l0.294-0.374l0.843-0.582l0.132-0.489l-0.052-0.673l0.027-0.552l0.119-0.512l0.212-0.547
		l0.397,0.245l0.212,0.034l1.601,0.26l0.424,0.215l0.376,0.353l0.659,1.106l0.356,0.459l0.414,0.19l0.452-0.262l0.186-0.407
		l0.043-0.543l-0.109-1.212l-0.451-0.292l-0.363-0.156l-0.262-0.322l-0.204-1.086l-0.075-0.237v-0.224l0.157-0.25l0.293-0.202
		l0.287-0.026l3.251,1.168l0.457,0.625l0.303,0.98l0.391,0.688l0.726-0.248l1.522-1.523l0.44-0.117l2.586,1.136l3.561,0.489
		l2.327,1.333l0.51,0.492l1.472,2.06l0.519,0.36l1.444,0.156l0.7,0.263l2.507,1.694l0.301,0.047l0.32-0.301l0.592-1.01l0.374-0.309
		l1.594-0.55l0.178-0.18l0.051-0.244l0.009-0.269l0.042-0.249l0.216-0.496l0.745-1.187l0.343-0.13l0.154,0.062l1.273,0.515
		l0.405-0.012l0.419-0.113l0.401-0.233l0.343-0.381l0.73-0.53l1.005-0.125l1.021,0.194l0.775,0.409l-0.286,0.4l-0.283,0.51
		l-0.124,0.539l0.2,0.485l1.245,1.667l1.779,2.372l0.309,0.872l0.013,0.387l-0.013,0.39l0.006,0.057v0.116l-0.006,0.057
		l-0.069,0.872l-0.074,0.422l-0.106,0.404l-0.116,0.591l0.316,0.836l-0.145,0.377l-0.205,0.367l-0.139,0.541l-0.028,0.57
		l0.133,0.453l0.665,0.781l0.131,0.433l-0.056,0.858l0.215,1.043l0.743,0.788l0.91,0.502l0.719,0.188l0.786-0.01l0.369,0.105
		l0.328,0.307l0.616,0.994l0.215,0.646l0.004,0.704l-0.228,0.432l-0.402,0.244l-0.926,0.276l-0.57,0.539l-0.115,0.864l0.127,2.22
		l-0.042,0.196l-0.013,0.174l0.03,0.138l0.363,0.418l0.075,0.365l-0.093,1.055l0.05,0.189l0.135,0.104l0.315,0.111l0.082,0.14
		l0.002,0.244l-0.044,0.533l0.003,0.425l-0.095,1.322l-1.018,0.205l-0.33-0.005l-0.351-0.122l-0.671-0.381l-0.369-0.128
		l-0.654-0.032l-0.423,0.25l-0.167,0.621l0.114,1.08l1.117,0.078l0.241,0.136l0.094,0.497l-0.016,0.733l-0.087,0.714l-0.138,0.444
		l0.696,0.361l0.273,0.284l0.282,0.458l0.556,1.127l0.318,0.362l0.381,0.013l0.648-0.454l0.502-0.601l0.916-1.643l0.44-0.372
		l0.528,0.104l0.577,0.273l0.569,0.136l0.553-0.021l0.174,0.117l0.168,0.303l0.107,0.405l0.159,1.503l0.399-0.059l0.91-0.475
		l0.438-0.069l0.193,0.102l0.371,0.376l0.187,0.129l0.315,0.073l0.27-0.045l0.605-0.324l0.509-0.405l0.155-0.44l-0.092-1.366
		l0.058-0.62l0.18-0.567l0.29-0.412l0.382-0.161l3.543,0.361l0.464,0.136l0.341,0.184l0.294,0.329l1.056,2.059l0.408,0.507
		l0.532,0.18l0.476-0.072l0.408-0.234l0.232-0.494l-0.056-0.847l-0.315-0.538l-0.502-0.2l-0.558-0.089l-0.478-0.214l-0.333-0.286
		l-0.024-0.174l0.006-0.401l0.034-0.313l0.082-0.36l0.107-0.346l0.374-0.824l0.079-0.343l-0.15-0.285l-0.425-0.386l-0.595-0.397
		l-0.206-0.288l-0.043-0.484l0.335-0.22l1.968,0.303l0.597,0.354l0.672,0.732l0.56,0.922l0.266,0.928l0.204,0.333l0.828,0.286
		l0.23,0.524l-0.075,0.395l-0.624,1.402l1.621,0.641l1.719,0.679l0.026,0.097l-0.043,0.127l-0.096,0.144l-0.182,0.424l-0.227,0.086
		l-0.262-0.054l-0.3,0.006l-0.071,0.104l-0.133,0.387l-0.073,0.099l-0.17-0.003l-0.549-0.205l-0.178,0.104l-0.028,0.346l0.056,0.404
		l0.066,0.28l0.331,0.509l0.421,0.38l0.245,0.45l-0.197,0.723v0.006l-0.447,1.102l-0.187,0.62l0.004,0.497l0.348,0.363l0.565,0.146
		l0.582-0.057l0.384-0.247l0.749-0.915l0.468-0.846l0.234-0.199l0.277,0.024l1.841,0.797l0.479-0.219l-0.097-1.074l-0.348-0.895
		l-0.352-0.643l-0.442-0.35l-0.627-0.021l-1.59,0.339l-0.114-0.224l0.103-0.551l0.189-0.6l0.148-0.365l0.828-0.883l0.927-0.195
		l2.412,0.277l2.322,0.268l1.024-0.137l0.268,0.131l0.21,0.413l0.094,0.543l0.058,1.195l0.85,0.423l0.21,0.412l0.165,0.869
		l0.333,0.407l2.318,0.537l3.073,0.713l0.247-0.078l0.097-0.238l0.036-0.354l0.054-0.31l0.154-0.114l0.567,0.043l0.17,0.06
		l0.227,0.208l0.418,0.51l0.228,0.059l0.44-0.133l0.219-0.194l0.064-0.391l-0.03-0.724v-0.003l0.152-0.563l1.062-0.269l0.318-0.469
		l-0.064-0.377l-0.163-0.333l-0.062-0.259l0.236-0.156l0.957-0.224l0.292,0.08l0.023,0.11l0.058,0.64l0.182,0.097l1.009-0.293
		l-0.788,4.828l-0.258,0.819l-0.384,0.407l-0.496,0.104l-2.7-0.534l-0.532,0.036l-0.436,0.252l-0.378,0.466l-0.358,0.674
		l0.844,0.604l-1.638,0.639l-0.294,0.381l-0.446,2.735l-0.775,0.142l-0.344,0.189l-0.273,0.378l-0.169,0.589l0.082,0.403
		l0.614,0.718l-0.511,1.034l2.91,1.584l-0.798,1.849l1.155,0.891l0.238-0.077l0.482-0.486l1.321-1.331h0.002v-0.003l0.414-0.438
		l0.157-0.239l0.15-0.325l0.165-0.539l0.062-0.303l0.118-0.167l0.324-0.129l0.137-0.014l0.434,0.075l0.159-0.072l0.045-0.212
		l0.017-0.272l0.125-0.475l0.004-0.244l0.03-0.195l0.125-0.072l1.389,0.055l0.303,0.083l0.625,0.364l0.281-0.101l1.258-1.028
		l0.569-0.214l0.59-0.011l0.725,0.132l1.211,0.159l0.262,0.164l0.09,0.483l-0.028,0.585l0.024,0.496l0.255,0.214l0.558,0.033
		l0.2-0.135l0.335-0.743l0.195-0.124l1.195,0.03l0.17,0.074l0.217,0.387l0.114,0.429L533.15,156l0.359,0.108l-0.131,0.699
		l0.118,0.456l0.659,0.688l0.002,0.006h0.002l0.955,0.797l0.534,0.119l0.376-0.466l0.865-2.803l-0.026-0.233l-0.197-0.257
		l-0.326-0.321l-0.105-0.205l0.161-1.539l0.159-0.605l0.272-0.353l2.953,0.131l0.187-0.202l0.32-1.444l0.182-0.422l0.154-0.201
		l0.212-0.065l0.918-0.063l0.174-0.185l0.154-0.436l0.198-0.889l0.142-0.43l0.178-0.255l0.62-0.209l1.491,0.041l0.642,0.165
		l1.393,0.75l0.491-0.044l2.352-1.751l2.17-1.613l2.835-2.114l-1.328-2.247l1.241-0.941l0.637-0.323l0.642-0.054l1.872,0.24
		l0.674-0.134l0.921-0.44l1.101-0.526l2.052-0.984l3.2-1.534l2.571-1.232l-0.215-0.715l-0.039-0.517l0.133-0.477l0.305-0.585
		l0.378-0.514l0.352-0.162l3.603,0.956l0.786-0.203l1.151-0.867l0.395-0.16l0.277-0.016l0.554,0.069l0.277-0.042l0.324-0.329
		l0.079-0.537l0.008-0.618l0.11-0.578l0.38-0.44l0.517-0.117l1.013,0.098l0.451-0.074l1.273-0.675l0.361-0.109l0.427,0.026
		l0.264,0.288l-0.125,0.684l-0.324,0.305l-1.466,0.393l-0.326,0.226l-0.401,0.382l-0.211,0.43l0.238,0.375l0.901,0.279l0.333,0.308
		l0.163,0.724l-0.099,0.788l-0.305,0.597l-0.376,0.525l-0.322,0.566l-0.219,0.904l-0.141,0.324l-0.204,0.267l-0.453,0.426
		l-0.18,0.289l-0.936,1.136l-1.101-0.04l-2.307-0.885l-1.157-0.051l-0.344,0.121l-0.307,0.231l-0.041,0.201l1.85,3.259l0.11,0.366
		l0.229,1.164l0.552,0.953l1.545,1.249l2.226,1.797l3.359,2.707l3.359,2.703l3.359,2.696l3.359,2.691l2.487,1.988l2.194,2.464
		l0.92,1.031l1.488,1.667l1.985,3.134l1.223,2.157l1.959,3.449l1.959,3.441l1.961,3.431l1.96,3.421l2.563,4.795l2.565,4.779
		l2.567,4.76l2.563,4.743l0.002,0.002h0.002l1.934,3.661l1.932,3.654l0.869,1.638l1.064,2.004l1.934,3.632l1.62,3.481l1.618,3.471
		l1.621,3.46l1.618,3.452l0.839,1.786l0.966,2.054l0.513,1.503l0.204,0.452l0.427,0.631l0.565,0.607l0.61,0.4l0.562,0.021
		l-0.994-1.618l-0.285-0.878l0.614-0.368l0.32,0.164l0.627,0.717l0.318,0.189l0.427-0.062l0.214-0.29l0.247-0.933l0.238-0.453
		l0.257-0.191l0.713-0.312l0.161-0.155l0.262-0.363l0.165-0.124l0.223-0.043l0.74,0.087l0.721-0.147l0.773-0.416l0.655-0.699
		l0.369-0.991l0.067-0.436l0.034-0.515l-0.009-0.515l-0.062-0.438l-0.17-0.418l-0.5-0.535l-0.245-0.367l-0.062-0.356l0.009-0.533
		l0.105-0.941l0.155-0.552l0.225-0.376l0.32-0.211l0.436-0.049l1.543,0.218l0.687-0.186l0.24-0.73l0.03-0.456l0.133-0.43
		l0.198-0.387l0.228-0.326l0.354-0.315l0.33-0.054l2.425,1.184l0.47,0.101l0.217-0.205l0.173-0.324l0.333-0.26l0.421,0.037
		l0.154,0.387l0.037,1.005l0.144,0.557l0.214,0.3l0.724,0.421l0.835,0.395l0.412,0.112l0.458,0.044l0.511-0.545l0.263-0.145
		l0.36,0.042l0.349,0.229l0.12,0.354l-0.049,0.485l-0.159,0.618l-1.208,3.023l-0.479,1.752l-0.046,0.406l0.123,0.248l0.356,0.184
		l0.479,0.114l0.987-0.045l2.149-0.701l2.235,0.102l0.008,1.036l0.27,0.955l0.424,0.858l0.482,0.742l-0.388,0.582l-0.337,0.721
		l-0.133,0.734l0.223,0.621l0.528,0.297l3.875-0.162l0.419-0.257l0.517-0.846l0.333-0.294l0.35,0.016l0.678,0.471l0.39,0.061
		l1.315-0.242l0.912,0.143l0.815,0.273l0.403,0.272l1.097,0.984l0.406,0.215l0.938,0.186l0.477-0.041l0.455-0.164l0.323-0.304
		l0.357-0.429l0.352-0.307l0.315,0.062l0.276,0.161l0.231-0.1l0.227-0.195l0.267-0.124l0.232,0.052l0.183,0.136l0.202,0.097
		l0.829-0.179l0.399,0.207l0.825,0.774l2.326-1.571l1.241-0.592l0.458-0.606l0.036-2.004l0.479-0.566l0.69-0.17l1.442,0.428
		l2.387,0.281l0.826-0.283l0.659-0.727l0.511-1.015l0.389-1.151l0.178-0.055l0.182-0.019l0.184,0.016l0.466,0.178l0.296,0.034
		l0.296-0.043l0.292-0.111l2.024-0.28l1.996,0.28l0.508,0.813l0.271,0.314l0.387,0.228l2.018,0.384l0.415,0.207l1.049,0.945
		l0.403,0.275l0.359,0.074l0.825,0.006l0.404,0.108l0.363,0.219l0.322,0.336l0.569,0.998l0.238,0.269l0.71,0.322l0.518,0.58
		l-0.015,1.786l0.473,0.899l2.043,1.475l0.238,0.171l0.567,0.792l0.169,0.549l0.049,0.439l0.112,0.384l0.629,0.699l0.175,0.47
		l0.042,0.52l-0.384,1.533l0.273,0.891l0.481,0.851l0.38,0.937l0.045,0.644l-0.043,0.639l0.003,0.596l0.187,0.517l0.214,0.178
		l0.539,0.158l0.232,0.136l0.14,0.194l0.221,0.473l0.127,0.174l0.678,0.047l0.661-0.537l0.643-0.39l0.634,0.496l0.522,0.635
		l0.564,0.385l0.608,0.153l0.665-0.054l0.652,0.071l0.448,0.42l0.411,0.535l0.56,0.406l0.323,0.035l0.636-0.083l0.316,0.157
		l0.197,0.253l0.446,1.044l0.227,0.166l0.312-0.113l0.324-0.214l0.257-0.121l0.404,0.047l1.187,0.56l0.198,0.231l0.605,0.954
		l0.149,0.353l-0.052,0.462l-0.291,0.176l-0.809,0.142h-0.002l-0.044,0.025l-0.134,0.039l-0.075,1.607l0.071,0.74l0.384,0.362
		l1.03,0.254l0.429,0.326l0.262,0.647l0.094,1.017l0.105,0.389l0.298,0.499l1.18,1.348l0.396,0.809l0.18,2.215l0.518,0.834
		l0.715,0.396l0.719-0.239l0.318-0.261l0.393-0.243l0.402-0.166l0.359-0.043l0.421,0.169l0.792,0.591l0.448,0.15l0.68-0.063
		l0.328-0.105l0.326-0.171l0.571-0.504l0.297-0.166l0.32,0.06l0.246,0.297l0.251,0.808l0.252,0.35l0.31,0.125l0.303-0.069
		l0.647-0.282l0.392,0.001l0.314,0.171l0.269,0.301l0.27,0.396l0.268,0.148l0.331-0.125l0.603-0.459l0.361-0.161l0.346-0.022
		l0.738,0.124l0.028,0.237l-0.185,1.142l-0.008,0.479l0.269,0.319l0.303,0.078l0.309-0.119l0.286-0.276h0.003l0.572-0.635
		l0.778-0.296l0.743,0.17l0.456,0.756l0.735,0.825l0.67-0.912l0.582-1.5l0.466-0.936l1.039-0.742l1.129-0.411l1.204-1.135
		l0.312-0.144l0.114-0.17l0.022-0.261l-0.06-0.307l-0.125-0.309l0.851-0.517l0.085-0.075l0.236-0.277l0.148-0.089l0.12,0.009
		l0.109,0.025l0.125-0.035l0.359-0.485l0.189-0.583l0.269-0.409l0.584,0.046l0.77,0.438l0.277,0.013l0.554-0.134l0.318-0.012
		l0.191,0.121l0.012,0.305l-0.127,0.327l-0.166,0.316l-0.105,0.272l0.052,0.342l0.198,0.309l0.442,0.466l-0.367,0.377l-0.346,0.268
		l-0.369,0.143l-0.877,0.071l-0.374,0.296l-0.652,0.933l-0.274,0.512l-0.076,0.409l0.137,0.382l0.348,0.433l0.434,0.292l0.391,0.001
		l0.822-0.197l0.418,0.107l1.266,0.791l0.397,0.362l-0.026,0.457l-0.156,0.552l-0.005,0.638l0.272,0.464l0.461,0.334l0.925,0.461
		l0.5,0.405l-0.041,0.265l-0.274,0.294l-0.192,0.5l0.144,0.367l0.368,0.4l1.211,0.975l0.225,0.232l0.079,0.22l0.005,0.391
		l0.134,0.269l0.219,0.172l0.249,0.106l0.464,0.056l1.53-0.142l0.541,0.116l0.501,0.222l0.975,0.683l0.288,0.574l0.372,1.947
		L770,285.421z M336.28,379.248l1.08-0.055l1.049-0.161l1.013-0.262l0.97-0.358l0.923-0.448l0.871-0.534l0.815-0.613l0.751-0.689
		l0.682-0.758l0.609-0.822l0.528-0.88l0.446-0.934l0.356-0.983l0.26-1.024l0.159-1.064l0.055-1.095l-0.055-1.096l-0.159-1.065
		l-0.26-1.03l-0.356-0.988l-0.446-0.94l-0.528-0.887l-0.609-0.829l-0.682-0.765l-0.751-0.696l-0.815-0.62l-0.871-0.541l-0.923-0.454
		l-0.97-0.362l-1.013-0.267l-1.049-0.164l-1.08-0.056l-1.08,0.056l-1.049,0.164l-1.012,0.267l-0.971,0.362l-0.923,0.454
		l-0.872,0.541l-0.814,0.62l-0.751,0.696l-0.682,0.765l-0.608,0.829l-0.53,0.887l-0.445,0.94l-0.355,0.988l-0.26,1.03l-0.161,1.065
		l-0.054,1.096l0.054,1.095l0.161,1.064l0.26,1.024l0.355,0.983l0.445,0.934l0.53,0.88l0.608,0.822l0.682,0.758l0.751,0.689
		l0.814,0.613l0.872,0.534l0.923,0.448l0.971,0.358l1.012,0.262l1.049,0.161L336.28,379.248z M98.518,393.516l0.136-0.612
		l0.072-0.574l0.097-0.388l0.214-0.175l0.212-0.044l0.096,0.004l0.09-0.017l0.342,0.017l0.152-0.065l0.105-0.092l0.081,0.028
		l0.096,0.303l-0.168,0.53l-0.121,0.24l-0.145,0.101l-0.062,0.15l0.124,0.984l-0.156,0.545l-0.364,0.352l-0.416,0.1l-0.31-0.212
		l-0.141-0.566L98.518,393.516z M96.888,398.1l-0.492,0.313l-0.572-0.064l-0.582-0.334l-0.279-0.271l-0.084-0.228l-0.025-0.286
		l-0.108-0.432l-0.184-0.347l-0.683-0.698l-0.327-0.624l0.001-0.542l1.009-2.286l0.184-0.207l0.283-0.15l0.83-0.215l-0.024,0.445
		l-1.062,0.606l-0.274,0.614l-0.059,0.353l-0.257,0.641l-0.058,0.399l0.06,0.411l0.159,0.336l0.233,0.163l0.28-0.118l0.003,0.64
		l0.065,0.615l0.206,0.461l0.422,0.181l0.198,0.074l0.159,0.152l0.183,0.131l0.27,0.009l0.591-0.461l0.276-0.079L96.888,398.1z
		 M107.276,396.674l0.257,0.397l0.053,0.143l-0.385-0.087l-0.239,0.062l-0.246,0.152l-0.271,0.053l-0.075-0.162l0.15-0.262v-0.155
		l-0.181-0.065l-0.058-0.154l0.081-0.253l-0.121-0.322l-0.829-0.551l-0.264-0.454l0.031-0.407l0.141-0.01l0.137,0.37l0.293,0.357
		l0.335,0.085l0.265-0.128l0.17-0.193l0.109-0.159l0.103,0.015l0.052,0.181l0.075,0.13l0.133,0.026l0.119,0.273l0.043,0.568
		l-0.003,0.3L107.276,396.674z M142.59,381.983l0.112,0.469l0.065,0.411l-0.003,0.521l-0.46,0.212l-0.891-0.341l-0.714-0.581
		l-0.494-0.611l-0.168-0.561l0.258-0.392l0.299-0.22l0.195-0.177l0.08-0.201l-0.053-0.173l0.09-0.103l0.644,0.048l0.354,0.109
		l0.326,0.452l0.26,0.743L142.59,381.983z M90.586,359.821l0.289,0.734l0.053,0.602l-0.358,1.184l-0.305,0.183l-0.413-0.357
		l-0.271-0.616l-0.833-2.361l-0.018-0.488l0.544-0.019l0.764,0.482l0.354,0.329L90.586,359.821z"/>
</g>
<g id="Copyright">
	<text transform="matrix(1 0 0 1 681.6426 577.5916)" class="st1 st2"> Vemaps.com</text>
</g>
</svg>
