<?xml version="1.0" encoding="utf-8"?>
<!-- Generator: Adobe Illustrator 23.0.1, SVG Export Plug-In . SVG Version: 6.00 Build 0)  -->
<svg version="1.1" xmlns="http://www.w3.org/2000/svg" xmlns:xlink="http://www.w3.org/1999/xlink" x="0px" y="0px"
	 viewBox="0 0 800 600" style="enable-background:new 0 0 800 600;" xml:space="preserve">
<style type="text/css">
	.st0{fill:#808080;}
	.st1{font-family:'Roboto-Regular';}
	.st2{font-size:14px;}
</style>
<g id="Laos">
	<path class="st0" d="M294.78,36.364l0.404,0.898l0.355,0.641l0.599,2.039l0.167,0.23l0.518,0.394l0.194,0.284v0.35l-0.197,0.764
		l0.093,0.397l0.867,0.971l1.034,0.727l0.858,0.834l0.383,1.294l1.151,1.097l3.595,1.83l4.277,4.212l1.873,1.136l0.559,0.53
		l0.395,0.683l0.586,1.598l0.413,0.726l1.222,0.952l1.494,0.866l0.91,0.812l-0.525,0.806l-0.17,0.186l-0.13,0.203l-0.105,0.233
		l-0.056,0.25l0.697,2.432l2.259,1.184l2.648,0.885l1.839,1.55l2.037,4.678l0.565,2.629l-0.287,3.771l0.126,1.468l0.293,1.455
		l0.389,1.003l0.438,0.657l0.167,0.096l0.238-0.136l3.157-0.056l0.648-0.153l1.852-1.235l1.345-1.734l0.716-2.06l0.148-5.171
		l1.049-1.014l1.179,0.951l0.506,2.938l-0.182,2.562l0.194,1.242l0.719,0.771l1.034-0.076l4.329-1.89l0.336-0.253l0.309,0.12
		l0.491,0.847l0.232,0.701l0.111,0.741l-0.056,4.413l0.197,1.557l0.596,1.407l0.049,0.179l0.022,0.186l-0.022,0.183l-0.049,0.182
		l-1.194,1.158l-2.24,2.807l-1.29,1.174l-2.706,4.483l0.901-0.434l1.194-0.762l1.16-0.554l0.827,0.166l-0.074,0.736l-1.969,3.225
		l-0.25,1.312l-0.049,2.932l-0.216,1.08l-0.728,0.739l-2.021,0.507l-0.978,0.768l-0.685,1.222l0.469,0.271l1.136-0.119l1.315,0.05
		l0.892,0.351l0.778,0.549l0.58,0.685l0.305,0.758L340.947,113l-0.525,1.274v0.619l0.364,0.642l0.407,0.119l0.494,0.023l0.611,0.371
		l0.67,1.072l0.015,0.065l0.562,2.449l0.41,1.121l0.278,0.576l0.284,0.44l0.472,0.205l0.873-0.119l1.497,0.658l0.917,1.078
		l1.349,2.883l1.858,4.104l1.105,1.873l1.706,2.147l0.88,0.862l0.38,0.284l0.633,0.284l1.08,0.149l0.608,0.158l0.503,0.264
		l0.802,0.591l0.586,0.208l0.697,0.013l0.432-0.131l0.734-0.222l0.537-0.053l0.972,0.277l3.37,1.822l1.663,0.561l0.636,0.086
		l0.327,0.007l1.512-0.426l0.105-0.03l1.216-0.693l0.42-0.396l0.182-0.403l0.315-0.165l0.827,0.317l0.725,0.73l1.092,2.136
		l0.642,0.828l0.463,0.346l0.475,0.264l0.515,0.152l0.605,0.026l0.003,0.013l3.691,0.795l1.16,0.673l2.308,2.524l1.308,1.154
		l0.191,0.254l0.253,0.158l0.654,0.112l0.543-0.073l0.728-0.247l0.648-0.333l0.346-0.317l-0.031-0.518l-0.605-1.24l-0.074-0.604
		l0.29-0.838l0.37-0.251l0.512-0.069l0.737-0.261l1.207-0.766l0.241-0.436l-0.204-0.617l-0.13-1.307l0.222-1.03l0.503-1.294
		l0.62-1.192l0.583-0.707l0.663-0.228l1.21,0.168l0.605-0.05l0.534-0.294l0.879-0.799l0.484-0.307l4.391-1.42l1.197-0.542
		l0.605-0.155l0.697,0.023l2.185-0.367l2.753-3.244l2.126-0.152l0.41,0.225l0.901,0.681l0.5,0.248l0.565,0.096l1.355,0.026
		l0.636,0.096l1.7,0.631l0.441,0.284l0.349,0.499l0.623,1.318l0.21,0.32l0.417-0.02l1.345-0.38l0.565-0.043l0.54,0.175l0.589,0.297
		l0.534,0.37l0.441,0.38l0.713,0.971l0.957,1.965l0.784,0.948l0.497,0.343l0.935,0.357l0.457,0.317l0.321,0.472l0.497,1.109
		l0.441,0.472l1.21,0.37l1.364-0.036l1.222,0.139l0.809,0.891l0.568,2.006l0.994,1.029l3.08,1.491l3.394,1.161l0.864,0.897
		l-0.067,0.247l-0.408,1.503l-3.857,5.317l-1.308,1.048l-1.487,0.468l-1.561-0.27l-1.475-1.176l-1.265,2.497h-0.006l-3.419,2.355
		l-0.395,1.195l1.895,1.215l2.438,0.612l8.548-0.191l0.827,0.461l1.37,1.916l0.963,0.696l2.268,0.894l0.867,0.688l0.222,0.505
		l0.182,0.722l0.096,0.745l-0.04,0.571l-0.404,0.864l-0.463,0.138l-0.494-0.026l-0.506,0.388l-0.228,0.837l-0.092,1.296l0.062,1.293
		l0.241,0.834l2.018,1.028l2.552-0.523l2.7-0.908l2.41-0.125l5.305,2.905l0.059,0.478l-0.33,0.682l0.086,1.428l0.805,1.203
		l2.299,1.521l0.451,0.999l-0.194,0.253l-0.818,0.164l-0.21,0.154l-0.018,0.391l0.167,0.557l0.111,1.178l0.188,0.772l0.105,0.778
		l-0.222,0.875l-0.227,0.199l-0.597,0.522l-0.79,0.121l-1.765-0.207l-1.139,0.181l-0.287,0.312l-0.111,0.547l-0.552,0.885
		l-1.349,1.037l-3.265,1.956l-1.126,1.434l-0.373,1.175l0.309,0.353l1.765,0.113l1.133,0.381l0.441,0.354l0.015,0.577l-0.108,1.053
		l-0.602,2.001l-1.182,0.885l-1.463,0.661l-1.432,1.323l-1.133,0.348l-0.812,0.095l-0.747,0.205l-0.938,0.684l-0.771,0.854
		l-0.494,0.841l-1.895,5.066l-0.525,0.675l-0.555,0.061l-1.025-0.601l-0.512-0.131l-0.537,0.174l-0.92,0.624l-0.518,0.223
		l-1.395,0.162l-1.012-0.218l-3.388-2.051l-1.512-0.673l-0.5-0.319l-0.845-0.863l-0.568-0.786l-0.697-0.536l-1.197-0.138
		l-1.083,0.282l-2.783,1.784l-1.089-1.84l-2.083-0.716l-0.787-0.687l-1.717,0.471l-2.51,0.688l-1.305,0.018l-0.302,0.318
		l-0.404,0.415l-0.435,0.945l-0.475,0.388l-1.225,0.188l-1.136-0.388l-2.864-1.484l-0.685-0.198l-0.556,0.242l-0.346,1.004
		l0.148,0.785l1.176,3.304l0.691,0.911l1.867,1.133l0.679,0.572l0.383,1.03l0.077,1.089l0.194,1.039l0.685,0.866l0.009,0.01
		l-0.25,0.748l-0.518,0.277l-0.642,0.144l-0.599,0.363l-0.386,0.679l-0.247,1.463l-0.201,0.632l-0.463,0.893l-0.031,0.029
		l-0.188-0.237l-0.879,0.106l-1.416,0.51l-1.355,0.713l-1.265,0.298l-0.703,0.608l-1.179,1.809l-0.92,0.695l-2.142,0.943
		l-0.793,0.613l-0.497,1.094l0.605,0.289l1.086-0.029l0.95,0.121l0.79,1.509l0.302,0.445l0.42,0.307l1.503,0.794l1.768,1.284h0.074
		l1.265-0.541l1.253-0.065l1.228,0.292l6.628,2.995l2.395,1.663l0.614,0.609l0.216,1.258l0.006,1.13l0.525,0.532l1.728-0.514
		l1.197,0.301l0.019,0.005l0.861,0.669l0.772,0.82l0.932,0.748l1.142,0.518l1.024,0.333l0.957,0.462l1.006,0.904l1.716,2.608
		l0.747,0.579l1.065,0.238l1.855-0.194l1.123,0.297l1,0.614l0.728,0.734l2.055,3.129l0.704,0.652l2.006,1.096l0.855,0.657
		l1.626,1.661l0.895,0.619l0.605,0.179l1.154,0.095l0.592,0.217l0.315,0.344l0.697,1.063l0.463,0.403l0.697,0.258l2.444,0.35
		l2.314,0.714l0.821,0.093l3.435-0.272l1.58,0.465l0.589,1.572l0.626,0.637l1.046,0.279l1.173-0.033l1.012-0.277l0.975,0.192
		l2.996,1.766l1.447,0.528l0.741-0.055l0.697-0.192l0.694-0.094l0.741,0.234l1.697,2.854l1.299,0.887l0.395,0.531v0.772v0.219
		l-0.441,1.05l-0.599,0.088l-0.701-0.231l-0.728,0.098l-0.867,1.139l-0.784,1.868l-0.91,3.489l-0.315,2.608l0.645,1.752l1.385,1.347
		l1.879,1.382l1.04,1.079l-0.037,0.763l-0.373,0.834l0.04,1.308l0.568,0.821l2.901,1.82l0.342,0.444l0.525,0.973l0.398,0.369
		l0.629,0.193l0.624-0.068l1.564-0.171l0.293-0.203l0.269,0.042l0.404,0.673l0.093,0.698l-0.386,1.507l0.04,0.713l0.63,0.914
		l0.972,0.69l1.089,0.468l0.944,0.245l0.441,0.221l0.133,0.263l0.167,0.068l0.546-0.361l0.244-0.445l0.272-1.393l0.352-0.583
		l1.077-0.482l1.275,0.085l1.197,0.492l0.913,0.739l0.364,0.564l0.481,1.708l0.018,0.383l-0.123,0.328l-0.136,0.242l-0.049,0.146
		l0.275,0.231l0.679,0.162l0.244,0.184l0.981,2.219l0.488,0.435l1.043,0.576l0.5,0.488l0.321,0.691l0.219,1.431l0.225,0.617
		l0.407,0.444l1.413,0.785v0.01l0.813,1.658l0.156,0.318l-0.71,4.771l0.66,2.124l2.314,2.143l1.543,2.949l1.327,1.818l0.549,1.033
		l0.753,2.391l0.552,1.001l0.728,0.593l3.114,1.376l1.938,1.285l1.562,1.476l3.888,5.085l1.256,1.32h0.009l5.193,6.337l9.921,8.576
		l1.305,0.695l0.867,0.087l0.691-0.443l0.867-0.892l0.265-0.52l0.145-0.54l0.309-0.378l0.756-0.039l0.713,0.317l0.127,0.514
		l-0.059,0.663l0.136,0.763l0.309,0.43l0.827,0.872l0.213,0.365l-0.046,0.575l-0.484,0.995l-0.049,0.653l0.33,0.94l1.802,2.997
		l2.873,2.699l0.614,1.085l-0.034,0.361l-0.386,0.659l-0.046,0.281l1.009,2.032l0.287,0.579l0.151,0.597v0.006l0.531,0.439
		l1.012,0.513l1.154,0.429l1.028,0.181l1.379,0.423l1.654-1.581l0.531,1.036l0.007,1.375l0.091,16.663l0.333,1.52l0.543,1.33
		l1.355,1.51l1.133,0.692l1.203,0.489l0.799,0.068l0.91,0.428l0.247,0.705l-0.278,3.335l0.089,0.711l0.836,2.462l0.926,1.644
		l1.327,1.03l1.777-0.286l-0.006,0.676l0.188,0.28l0.404-0.026l0.592-0.248l0.544-0.419l0.061-0.047l0.111-0.47l0.012-0.479
		l0.272-0.512l1.611-1.036l0.67-0.644l0.244-1.036l1.281-2.173l1.423,0.058l1.037,1.619l0.167,2.504l-0.253,2.072l-0.074,0.167
		l-0.188,0.203l-0.139,0.267v0.354l0.238,0.177l0.398-0.138l0.377-0.206l0.207-0.042l0.725,1.689l0.555,0.769l1.031,0.859
		l1.463,0.81l0.389,0.347l0.278,0.611l0.204,1.399l0.148,0.421l0.642,0.447l0.771,0.096l2.037-0.068l2.333,0.26l0.871,0.275
		l0.156,0.049l1.105,0.556l1.145,0.845l0.512,0.8l0.636,3.336l0.349,0.794l0.159,0.213l0.36,0.484l0.737,0.681l0.913,0.569
		l0.808,0.228l0.833,0.138l0.935,0.27l1.552,1.047l2.216,2.846l1.376,1.233l1.666,0.504l1.734-0.199l3.32-0.857l1.166-0.039
		l0.275,0.302l-0.133,0.713l-0.008,0.118l-0.069,1.066l0.275,0.71l0.407,0.494l0.071,0.555l-0.719,0.873l-0.876,0.767l-1.635,2.966
		l-0.901,1.04l-0.864,0.42l-2.277,0.401l-1.068,0.417l-4.144,2.708l-0.503,0.138l-0.546-0.093l-0.552-0.269l-0.611-0.183
		l-0.737,0.167l-0.657,0.674l-1.497,3.368l-0.083,1.292l0.685,0.914l3.286,1.937l0.62,0.663l0.259,0.894l0.272,2.572l0.272,0.981
		l0.574,0.87l0.997,0.771l2.277,1.173l0.768,0.682l3.16,5.745l0.734,0.466l0.42-0.246l0.377-0.556l0.602-0.44l0.429-0.013
		l1.188,0.304l0.349-0.106l0.299-0.224l0.293,0.067l0.327,0.757l0.185,0.469l0.259,0.245l0.343,0.002l0.432-0.242l0.818,0.424
		l0.161,1.233l-0.031,1.462l0.256,1.108l1.117,0.658l2.564-0.392l1.049,0.28l0.191,0.507l0.08,0.212l0.13,2.378l0.401,1.107
		l0.71,0.789l2.663,2.028l0.867,0.955l0.389,0.859l0.015,0.953l-0.451,2.938l-0.17,0.379l-0.389,0.118l-0.29-0.297l-0.352-0.161
		l-0.565,0.529l-0.219,0.574l-0.136,2.024l-0.33,1.177l-0.62,0.922l-0.37,0.36l-0.849,0.649l-0.268,0.467l0.018,0.607l0.549,1.115
		l-0.055,0.663l-0.66,0.676l-0.92,0.089l-1.635-0.284l-0.969,0.096l-0.992,0.297l-1.708,0.513l-1.117,0.101l-0.568,0.54
		l-0.052,0.839l0.401,0.982l-0.09,0.917l0.241,0.818l0.478,0.684l0.707,0.53l0.938,0.49l3.592,2.783l0.509,0.529l-0.17,0.65
		l-0.879,1.196l-2.493,2.421l-0.475,0.828l0.204,0.956l0.599,0.962l0.296,0.898l-0.67,0.783l0.38,0.597l0.611,0.498l0.454,0.589
		l-0.111,0.871l-0.805,0.688l-1.978,2.912l-0.929,0.461l-0.386,0.408l-0.475,1.397l-0.201,0.348l-0.429,0.591l-0.176,0.499
		l-0.034,0.488l0.071,0.521v0.524l-0.185,0.474l-0.771,0.634l-0.685-0.029l-1.392-0.626l-1.12-0.239l-0.586-0.228l-1.126-1.025
		l-1.614-1.172l-1.099-0.08l-0.901,0.812l-1.055,1.505l-0.302,0.268l-0.691,0.421l-0.238,0.301l-0.089,0.408l-0.127,1.237
		l-0.63,1.251l-0.509,0.279l-0.91-0.154h-0.009l-0.012-0.006l-0.006-0.003l-0.892-0.003l-0.484,0.735l-0.336,1.055l-0.484,0.964
		l-1.629,1.479l-1.83,1.228l-1.327,0.422l-0.639-0.33l-0.509-0.734l-0.978-0.782l-0.753-0.331l-0.185,0.051l-0.04,0.311
		l-1.743,2.163l-1.16,1.832l-0.256,0.148l-0.75,0.162l-0.654,1.573l-0.025,0.382l-0.216,0.317l-0.747,0.207l-0.605-0.108
		l-1.117-0.702l-0.543-0.185l-0.633,0.048l-0.346,0.175l-0.281,0.268l-2.314,1.312l-0.895-0.032l-0.833-0.33l-0.83-0.595
		l-1.571-1.586l-2.092-2.983l-0.463-0.918l-0.278-0.387l-0.463-0.491l-0.259-0.214l-4.345-1.332l-0.737-0.413l-0.997-0.558
		l-1.176-1.809l-0.614-0.373l-1.37-0.304l-0.518-0.319l-0.21-0.59l-0.315-1.948l-0.238-0.784l-0.75-1.175l-0.355-0.33l-1.281,1.194
		l-0.435,0.217l-0.395,0.037l-0.293,0.174l-0.099,0.606l0.022,0.593l0.133,0.441l0.259,0.301l0.438,0.159v0.383l-0.92-0.054
		l-0.762-0.198l-0.651-0.073l-0.555,0.325l-0.13,0.26l-0.099,0.443l0.056,0.414l0.691,0.384l-0.259,0.422l-0.438,0.37l-0.238,0.042
		l-0.614,1.203l-1.518,0.634l-3.212,0.443l-0.392,0.054l-0.793,0.223l-0.818-0.06l-0.58-0.148l-3.629-2.25l-0.352-0.376
		l-0.555,1.047l-0.605,3.212l-0.401,1.325l-0.883,1.295l-0.95,0.569l-1.142,0.131l-2.095-0.121l-1.435-0.255l-0.929,0.057
		l-0.645-0.045l-0.306,0.032l-0.176,0.252l-0.148,0.97l-0.161,0.288l-1.031,0.048l-2.629-0.909l-1.203-0.212l-0.272,0.677
		l-0.096,0.709l0.08,0.699l0.287,0.661l1.16,0.946l0.664,0.984l0.207,1.185l-0.234,1.53l0.503,1.242l0.824,0.785l2.049,1.305
		l0.932,1.068l1.524,3.655l0.809,0.915l0.957,0.819l0.793,0.899l0.293,1.16l-0.441,1.142l-0.935,0.8l-1.071,0.717l-0.861,0.873
		l-0.722,0.937l0.111,2.889l-0.876,1.075L529.49,570l-3.092-0.79l-1.401-0.06l-1.481,0.596l-1.469,0.153l-1.487-0.339l-0.244-0.134
		l-1.345-0.742l-5.132-4.511l-1.012-1.511l-0.673-1.71l-0.889-1.506l-1.672-0.899l-0.648-0.029l-1.284,0.194l-0.855-0.096
		l-0.96-0.409l-0.605-0.395l-0.611-0.035l-0.935,0.679l-0.441-1.093l-0.913-0.961l-1.077-0.473l-0.904,0.361l-0.349-0.489
		l-0.395-0.433l-0.46-0.374l-0.481-0.317l-1.666,1.187l-0.883,0.501l-0.994,0.27l-1.419,0.947l-1.666,0.571l-1.774,0.255
		l-1.694-0.019l-0.969-0.124l-0.602-0.242l-0.497-0.466l-1.524-2.145l-0.438-0.274l-0.861-0.272l-0.41-0.22l-1.099-1.085
		l-3.552-5.412l-0.565-1.277l-0.222-1.427l0.003-1.946l0.83,0.032l3.12-0.737l1.083-0.443l0.426-0.476l0.716-1.306l0.42-0.357
		l0.592,0.054l1.049,0.728l0.768,0.042l0.342-0.271l1.123-1.12l0.478-0.387l0.691-0.228l1.58-0.296l0.614-0.315l0.259-0.435
		l0.512-1.415l0.296-0.602l0.389-0.457l1.392-1.272l1.898-2.539l0.722-1.661l0.154-1.822l-0.858-4.092l0.096-1.885l0.463-2.836
		l-0.213-0.592l-0.648-1.103l-0.093-1.391l0.281-1.399l0.46-1.133l0.278-0.19l0.827-0.188l0.259-0.233l-0.019-0.327l-0.426-0.865
		l-0.065-0.935l0.114-0.37l0.247-0.064l0.938,0.042l0.324-0.128l0.454-1.371l-0.984-1.961l0.583-1.179l2.367-1.514l0.568-0.816
		l-1.589-0.318h-0.006h-0.012l-0.753-0.582l-1.747-2.511l-0.086-0.252l0.019-0.689l-0.136-0.307l-0.259-0.062l-0.775,0.139
		l-0.315-0.077l-1.46-1.515l-1.308-0.256l-0.497-1.026l0.009-1.389l0.234-1.33l0.401-1.252l0.518-0.86l2.438-2.576l1.651-1.351
		l1.713-1.116l0.222-0.099l0.049-1.667l-0.198-1.328l-0.207-0.262l-1.163,0.224l-1.145,0.029l-1.216-0.224l-0.938-0.609
		l-0.349-1.133l0.525-1.368l1.191-0.786l2.783-0.895l2.123-1.348l0.232-0.233l0.719-0.723l0.364-1.112l0.099-2.621l0.253-1.352
		l1.469-3.845l0.605-3.18l-0.602-2.939l-1.673-2.449l-2.651-1.731l-2.574-0.875l-1.315-0.167l-2.45,0.208l-0.861-0.128l-0.734-0.42
		l-0.756-0.76l-0.654-0.984l-2.358-5.113l-0.713-2.313l0.111-2.198l1.435-1.614l1.247-0.504l0.642-0.363l0.346-0.459l-0.042-0.181
		l-0.069-0.3l-0.454-0.331l-0.571-0.225l-6.949-1.776l-2.456-0.109l-0.608-0.103l-7.777-2.799l-1.653-0.595l-1.265-0.98
		l-0.935-1.259l-0.589-1.481l-0.222-1.629l0.052-2.77l-0.201-1.347l-0.651-1.186l-0.481-0.424l-1.158-0.648l-0.521-0.291
		l-0.466-0.354l-1.16-1.251l-0.478-0.399l-1.598-0.917l-0.552-0.486l-0.386-0.566l-0.272-0.64l-0.555-1.94l-0.494-1.116
		l-0.629-1.033l-0.802-0.975l-0.994-0.849l-3.351-1.828l-1.049-0.888l-0.636-1.094l-0.299-1.272l-0.065-1.407l0.275-2.673
		l0.639-2.615l0.827-2.322l0.086-0.677l-0.04-0.683l-1.287-5.153l-0.028-0.712l0.095-0.562l0.032-0.189l0.404-1.419l0.111-0.716
		l-0.04-0.751l-0.21-0.68l-0.589-1.297l-0.201-0.684l-0.198-2.043l-0.357-3.687l0.296-1.388l3.857-9.176l0.272-1.399l0.231-2.888
		l-0.114-3.742l0.213-3.055l-0.04-0.76l-0.173-0.734l-1.416-3.172l-0.225-0.343l-0.435-0.395l-1.015-0.573l-0.469-0.346
		l-0.426-0.514l-0.92-1.799l-1.179-1.776l-0.71-0.754l-2.839-1.803l-1.117-0.398l-9.267-4.885l-1.743-1.6l-1.774-2.121l-0.265-0.489
		l-0.37-1.241l-0.164-0.395l-0.241-0.392l-0.87-1.079l-1.345-2.722l-0.904-1.177l-3.885-2.347l-0.333-0.298l-0.222-0.198
		l-0.475-0.587l-0.358-0.668l-0.549-1.903l-2.642-5.878l-0.451-0.629l-0.311-0.435l-3.728-3.398l-0.796-0.98l-0.682-1.211
		l-2.54-6.338l-2.972-5.264l-1.111-1.216l-1.469-0.769l-1.444-0.146l-1.311,0.34l-1.151,0.772l-0.975,1.136l-0.25,0.384
		l-0.213,0.262l-0.278,0.163l-0.438,0.075l-0.966-0.205l-0.525-0.621l-0.404-0.803l-0.605-0.727l-0.886-0.609l-0.947-0.497
		l-1.003-0.354l-1.04-0.176l-3.468-0.19l-0.809-0.221l-3.401-1.556l-0.518-0.332l-0.512-0.475l-0.849-0.607l-3.484-0.945
		l-1.53-0.143l-1.518-0.38l-0.515-0.044l-0.855,0.143l-0.29,0.011l-1.099-0.21l-3.271-1.013l-0.605-0.003l-4.764,0.994l-1.45,0.636
		l-1.302,0.967l-0.997,1.267l-0.602,1.528l-0.018,0.41l0.099,0.252l0.161,0.232l0.13,0.351l0.506,0.211l2.493,1.729l0.364,0.518
		l-0.068,0.574l-0.54,0.468l-0.765,0.268l-2.197,0.382l-1.302,0.484l-1.774,0.286l-0.506,0.182l-0.509,0.32l-0.651,0.801
		l-0.383,0.976l-0.346,2.105l-0.389,1.338l-0.713,0.934l-0.99,0.632l-1.253,0.442l0.019-0.027l0.041-0.059l0.03-0.043l0.13-0.273
		l-0.037,0.02l-0.264,0.139l-0.464,0.244l-0.515,0.58l-0.296,0.836l-0.093,1.144l0.494,3.676l-0.29,0.612l-0.592,0.409l-0.531,0.896
		l-0.685,0.899l-1.043,0.406l-0.994-0.273l-1.845-1.204l-1.074-0.276l-0.975,0.201l-5.129,2.316l-0.876,0.519l-0.367,0.668
		l-3.453,1.907l-2.191,2.027l-0.907,0.542l-2.117,0.519l-0.821,0.512l-0.321,0.96l0.343,1.147l0.571,0.904v0.457l-1.321-0.175
		l-3.067-1.514l-0.845-0.24l0.018-0.58l1-4.092l-0.759-2.504l-1.916-0.983l-5.104-0.019l-2.182-0.415l-1.987-1.032l-1.617-1.372
		l-1.12-1.428l-1.784,0.11l-1.781-0.905l-2.993-2.675l-1.401-1.893l-0.451-0.253l-0.225-0.214l-1.805-1.286l-0.565-1.078
		l-0.222-1.052l-0.386-0.9l-1.099-0.617l-2.756-0.143l-1.725-0.089l-0.432,0.333l-0.94,1.016l-9.03,9.753l-1.225,0.394l-2.305-1.337
		l-2.336-0.644l-0.562-0.703h-0.373l-0.984,0.943l-0.488,1.146l-0.528,2.669l-1.453,4.13l-0.21,1.245l-5.545,1.09l-0.975,0.639
		l-0.521,1.2l-0.642,0.7l-1.364-0.862v0.953l-0.148,0.823l-0.272,0.684l-0.389,0.538l-1.105,0.416l-0.685,0.258l1.327,1.092
		l-1.179,0.817L258,330.978l-1.179,1.228l-0.238,0.489l-0.287,0.463l-0.225,0.502l-0.126,0.139l-0.549-1.199l-0.105-0.395
		l-0.077-0.275l-0.154-0.052l-0.219,0.11l-0.272,0.217l-0.79,0.765l-0.898,0.078l-0.904-0.088l-0.827,0.279l-0.364,0.538
		l0.386,0.185l0.62,0.039l0.315,0.1l-0.056,0.382l-0.089,0.175l-1.065,1.364l-0.376,0.142l-0.454-0.032l-0.75,0.259l-6.585,5.443
		l-1.099,1.483l-1.2,2.33l-0.38,0.508l-0.71,0.278l-0.796,0.146l-0.611,0.362l-0.148,0.932l-1.018,1.456l-0.321,0.333l-0.568,0.343
		l-0.204,0.032l-0.253-0.175l-1.71-0.708l-1.784-1.061l-1.006-0.22l-0.827-1.058l-0.981-0.877l-1.086-0.725l-1.154-0.589
		l-2.614-0.493l-2.138-0.403l-0.95-0.741l-0.022-1.385l0.824-1.321l2-2.354l1.247-2.837l0.123-0.485l0.287-1.132l-0.117-1.267
		l-0.139-0.635l0.13-0.515l0.376-0.405l0.562-0.308l0.056-0.133l0.018-0.136l-0.018-0.133l-0.056-0.13l-0.392-0.441l-0.151-0.415
		l0.111-0.389l0.432-0.34l1.225-0.532l0.327-0.801l-0.188-2.14l0.222-1.268l0.444-0.655l1.882-1.054l1.574-1.378l0.944-1.528
		l0.771-1.635l1.04-1.69l0.784-0.629l1.916-1.201l0.457-0.815l-0.185-0.881l-1.021-2.342l-0.201-1.208l0.241-1.13l0.889-2.361
		l0.136-0.992l-0.21-0.551l-0.389-0.315l-0.432-0.247l-0.352-0.359l-0.472-1.267l-0.201-0.432l-0.025-2.215l0.13-0.642l0.315-0.455
		l1.015-1.131l0.179-0.41l-0.589-0.84l-3.777-1.759l-0.489-0.466l-1.378-1.312l-0.836-1.132l-0.401-1.091l0.318-1.262l1.737-1.799
		l0.432-1.212l0.111-0.636l0.244-0.293l3.833-2.133l0.793-0.783l0.225-0.692l-0.059-1.403l0.164-0.619l0.41-0.414l1.049-0.389
		l0.525-0.269l1.66-1.591l0.765-1.034l0.321-0.958l-0.318-0.998l-1.404-1.414l-0.324-1.145l0.201-1.025l0.883-2.032l0.278-1.077
		l-0.318-3.777l0.096-1.216l0.478-1.133l1.454-1.69l0.599-0.944l0.58-2.059l0.413-0.91l2.536-2.467l-0.509-1.869l-1.595-1.823
		l-2.611-2.325l-0.701-0.779l-0.392-0.978l-0.142-1.49l0.185-3.709l-1.216-5.289l-0.016-0.391l0.099-0.319l0.022-0.363l-0.21-0.527
		l-0.346-0.252l-1.012-0.211l-0.392-0.293l-0.364-1.884l0.324-2.584l0.901-2.253l1.339-0.859l1.37-0.376l0.805-1.403l0.312-1.796
		l-0.123-1.544l-0.228-0.833l-0.29-0.632l-0.475-0.501l-0.79-0.445l-1.018-0.275l-0.636,0.17l-0.537,0.388l-0.685,0.38l-1.444,0.404
		l-1.673,0.206l-1.722-0.137l-1.648-0.624l-2.623-1.631l-1.299-0.491l-1.688-0.182l-5.292,0.066l-0.349-0.072l-0.312,0.043
		l-0.571,0.365l-0.228,0.288l-0.728,1.273l-2.422,2.915l-2.737,2.601l-0.574,0.827l-0.447-0.164l-0.438-0.635l-0.534-0.609
		l-0.864-0.494l-4.866-1.883l-1.568,0.079l-1.256,0.948l-0.67,1.116l-0.484,0.805l-1.037,0.069l-1.713-0.511l-1.719-0.751
		l-1.049-0.666l-0.734-0.768l-0.179-0.933v-1.028l-0.204-1.053l-0.481-0.83l-1.219-1.523l-0.491-0.796l-0.355-1.091l-0.145-2.073
		l-0.194-0.995l-0.404-0.742l-0.622-0.809l-0.372-0.483l-0.278-0.867l0.259-1.154l1.442-1.929l0.768-1.027l0.651-1.766l0.42-0.568
		l0.466-0.312l1.157-0.486l0.515-0.354l0.58-0.975l0.238-1.034l0.281-2.202l1.546-4.051l1.481-4.523l0.432-2.54l-0.114-3.275
		l-0.13-0.629l-0.271,0.076l-0.315,0.843l-0.444,0.238l-0.981-0.353l-0.981-0.61l-0.444-0.539l-0.198-0.345l-1.006-0.442
		l-0.463-0.317l-0.222-0.362l-0.309-0.881l-0.287-0.496l-1.537-2.046l-3.416-7.563l-1.197-1.338l-2.259-0.619l-2.166,0.5
		l-1.784,1.212l-1.176,1.517l-0.688,2.292l-0.117,0.118l-0.327,0.053l-1.327,0.499l-0.185,0.118l-0.555,0.51l0.037,2.482
		l-0.907,0.921l-1.068,0.003l-1.077-0.567l-0.815-0.992l-0.34-1.25l0.12-2.201l-0.099-1.091l-0.034-0.856l0.163-0.882l0.676-0.803
		l0.586-0.889l0.256-1.123l0.13-1.366l0.552-1.999l0.753-5.667l0.645-2.205l0.768-1.684v-0.831l0.432-1.025l1.324-1.9l0.29-0.818
		l0.247-1.062l0.614-0.779l1.62-1.429l1.54-1.917l0.935-0.832l2.358-0.703l0.734-0.861l0.546-1.01l0.818-0.822l1.126-0.225
		l5.206,0.858l2.54,0.72l1.392-0.043l1.932-0.647l1.784-1l0.53-0.41l1.124-0.871l1.524-1.476v-0.393l-1.734-0.37l-5.308,0.935
		l-1.105-0.803l0.126-1.268l0.552-2.597l0.13-1.375l0.241-0.321l1.117-0.76l0.315-0.426l-0.09-0.502l-0.734-1.762l1.098-0.493
		l2.682-0.565l1.12-0.651l0.719-0.995l3.095-5.739l1.892-7.772l0.089-0.772l-0.034-0.702l0.204-0.513l0.775-0.199l0.559,0.033
		l0.534,0.116l0.497,0.209l0.454,0.318l1.157,0.441l1.352-0.182l2.194-0.934l0.663-0.547l2.006-2.081l0.83-0.278l5.582-2.943
		l8.344-6.893l0.833-0.401l0.241-0.965l-0.127-1.155l0.926,0.066l0.719,1.048l0.071,1.891l-1.163,5.219l0.188,1.356l0.46,0.335
		l1.722,0.941l1.105,0.809l0.259-0.056l0.139,0.003l0.099,0.517l-0.713,1.832l-0.92,1.299l0.124,0.394l0.531,0.56l0.117,0.235
		l-0.077,0.884l-0.602,2.368l0.679,0.758l0.861,1.758l0.571,0.857l0.92,0.857l0.929,0.344l1.04-0.126l1.265-0.556l2.888-1.989
		l1.148-0.427l6.786-1.304l1.342,0.013l1.284,0.242l2.018,0.685l0.404,0.036l0.256,0.205l0.253,0.708l-0.093,0.583l-0.339,0.609
		l-0.222,0.612l0.272,0.609l0.879,0.146l2.354-1.029l1.145,0.017l0.898,0.778l1.083,1.999l0.954,0.688l0.815,0.04l1.169-0.198
		l1.105-0.364l0.642-0.473l0.102-0.628l0.104-0.64l-0.395-0.91l-0.21-0.725l0.805-0.731l1.342,0.285l0.549-0.099l0.481-0.324
		l0.358-0.41l0.131-0.327l0.079-0.196l0.056-0.662l-0.21-0.821l-0.475-0.695l-0.663-0.573l-0.753-0.457l-3.107-1.159l-0.836-0.765
		l-0.441-1.083l0.028-1.093l0.595-2.386l0.247-6.341l0.87-1.37l0.238-1.214l-0.805-2.561l0.086-1.058l0.879-0.564l1.299-0.183
		l1.247-0.368l0.753-1.138l-0.139-1.281l-0.855-0.521l-1.117-0.309l-0.889-0.631l-0.216-0.674l0.197-1.341l-0.049-0.628
		l-0.339-0.531l-0.975-0.86l-0.253-0.392l-0.034-0.973l0.219-1.146l1.188-3.592l-0.028-0.628l-1.487-1.36l-0.293-0.455L270.3,70.4
		l-1.364-1.869l-0.167-0.549l-0.037-0.496l-0.111-0.502l-0.414-0.562l-2.123-0.612l-1.302-0.822l-0.568-0.898l-0.383-2.569
		l-0.491-1.328l-1.626-2.667l-0.568-1.342l-0.025-1.422l0.407-1.139l0.306-1.243l-0.324-1.726l-0.747-1.123l-1.839-2.237
		l-0.148-1.107l0.954-1.164l0.534-0.52l0.617-0.337l0.759-0.007l0.719,0.237l0.731,0.113l0.79-0.364l0.293-0.507l0.821-2.685
		l0.157-1.028l0.071-0.277l1.04-1.074l0.154-0.09l0.12-1.281l-0.093-1.258l0.056-1.305l0.565-1.416l0.842-1.045l1.222-1.072
		l1.435-0.818l1.71-0.291h0.528l0.265,0.033l1.781,1.506l1.966,4.257l1.481,1.485l1.512,0.29l0.559-0.841l0.253-1.312l0.605-1.132
		l1.058-0.401l2.598-0.063l1.274-0.534l1.241-0.147l1.169,0.087l3.663,0.881l0.574,0.214l0.586,0.387l0.275,0.534l0.04,0.587
		l0.402,0.531H294.78z"/>
</g>
<g id="Copyright">
	<text transform="matrix(1 0 0 1 681.6426 577.5916)" class="st1 st2">© Vemaps.com</text>
</g>
</svg>
