<?xml version="1.0" encoding="utf-8"?>
<!-- Generator: Adobe Illustrator 23.0.1, SVG Export Plug-In . SVG Version: 6.00 Build 0)  -->
<svg version="1.1" xmlns="http://www.w3.org/2000/svg" xmlns:xlink="http://www.w3.org/1999/xlink" x="0px" y="0px"
	 viewBox="0 0 800 600" style="enable-background:new 0 0 800 600;" xml:space="preserve">
<style type="text/css">
	.st0{fill:#808080;}
	.st1{font-family:'Roboto-Regular';}
	.st2{font-size:14px;}
</style>
<g id="Lebanon">
	<path class="st0" d="M194.89,559.039v-0.534l0.335-1.441l-1.252,0.187l-0.402-0.4v-0.827l-0.224-1.001l1.699-3.67l2.459-3.697
		l2.951-2.883l6.081-2.563l1.967-3.271l1.699-3.739l1.878-2.778l-1.654-2.23l1.654-0.307l0.894,0.427l0.984,2.11l8.272-17.94
		l1.207-9.796l-5.723-8.342l5.88-4.399l4.136-6.112l5.187-14.369l0.671-4.336l0.179-8.862l1.028-4.579l5.008-7.527l1.744-4.072
		l-1.118-4.126l14.286-11.002l7.176-7.561l3.085-9.749l0.581-4.252l10.485-28.626l-1.721-2.256l4.27-3.733l3.219-13.554l4.628-2.983
		l-0.179-3.964l10.843-26.61l1.096-6.539l0.469-13.728l0.067-2.41l-0.894-3.905l-1.699-3.178l-0.917-2.72l1.475-2.613l2.951-0.997
		l3.622,0.593l3.152,1.374l1.677,1.495h1.878l2.66-1.495l3.912,0.283l2.571,0.175l4.002-1.428l1.744-2.223l2.616-6.588l1.431-2.708
		l0.089-1.374l-0.402-0.499l-1.721-0.162l2.347-2.776l3.309-7.926l1.99-3.289l1.811-0.647l4.561-0.067l1.14-1.362l-0.134-3.02
		l-1.274-1.564l-1.475-0.944l-0.872-1.241l-0.067-8.093l4.494-14.533l1.207-10.3l-0.872-3.889l-3.89-7.293l-0.872-4.688V192.04
		l0.872-2.433l3.89-2.839l0.872-1.717l0.156-10.452l1.297-10.388l3.353-8.809l6.461-5.644l4.695,3.898l4.494-6.944l4.158-10.561
		l3.689-6.853l15.225-8.386l4.784-6.505l-4.986-8.052v-2.074l5.097,1.356l21.798-5.708l14.688-14.038l4.427-3.229l2.817-2.958
		l1.543-4.696l0.223-15.667l-0.76-7.049l-1.699-5.91l-2.951-3.791l3.5-0.13l2.413,0.673l2.016,0.949l4.798,3.917l5.962,1.743
		l6.275,0.173l7.269-1.035l6.842,0.495l12.011,0.868l1.193-0.38l3.293-2.001l1.675-0.414l1.391,0.604l3.237,2.433l1.675,0.587
		l16.581-0.932l2.726-1.242l2.527-2.726l1.022-3.072l0.113-6.541l0.909-2.555L525.563,30l4.089,2.693l6.474,11.806l5.537,4.986
		l6.502,2.243l6.814-0.138l6.644-2.157l-1.079,10.522l-1.959,1.552l-2.924-2.38l-4.06-1.173l-4.06,2.535l-0.568,4.001l0.341,4.914
		l-1.249,5.241l-5.366,4.24l-7.524,4.084l-4.6,4.911l2.739,5.173l0.782,1.476l0.738,0.232l0.767,0.06l0.767-0.06l0.738-0.232
		l5.338-1.619l8.035-0.37L556,93.143l3.776,1.335v0.052l1.76,5.572l2.726,4.305l3.691,3.099l4.656,2.032l3.975,4.958l1.988,1.317
		l2.016-0.706l4.372,3.158l1.505,2.917l-0.227,3.691l-0.965,5.462l-0.738,2.297l-0.994,1.574l-0.88,1.729l-0.227,2.734l0.738,2.665
		l1.363,2.579l5.934,8.372l2.924,3.206l1.959,0.859l2.016-0.155l1.789,0.43l1.42,2.586l-0.568,4.322l-2.641,3.668l-2.073,4.295
		l1.306,6.252l1.789,4.782l6.644,6.61l1.468,3.239l0.15,0.332l-7.751,8.581l-6.36,10.714l-12.294,10.555l-5.366,6.815l-1.59,4.688
		l-0.539,3.899l-1.505,3.067l-4.486,2.253l-3.776,0.188l-5.906-2.21l-3.152-0.274l-5.792,2.955l-9.142,11.657l-10.931,9.623
		l-4.316,5.341l-3.776,5.922l-5.877,11.96l0.483,1.197l1.76,3.164l1.732,2.018l8.092,6.327l10.789,1.846l4.742,2.932l0.539,6.795
		l-3.322,4.375l-5.281,0.854l-10.363-2.478l-14.111-6.965l-4.77-0.923l-4.174,1.581l-3.833,3.128l-4.429,2.675l-5.735,0.137
		l-2.215-1.41l-3.492-4.418l-1.817-1.06l-9.852,6.068l-4.77,2.059l-5.111,1.341l-4.401,1.837l-2.726,3.579l-3.691,7.047
		l-9.086,7.796l-3.776,5.669l-1.675,3.764l-5.025,4.634l-2.044,2.944l-0.397,2.764l0.795,5.989l-0.738,3.173l-1.306,1.279
		l-3.577,1.365l-1.107,1.126l-1.051,7.052l3.634,2.276l6.076,1.142l6.417,3.606l3.918,1.091l5.054,2.531l4.6,3.426l2.413,3.724
		l-0.88,6.117l-4.23,5l-5.65,3.747l-5.224,2.41l-6.445-0.085l-6.474,2.103l-3.123,4.368l3.719,6.691l-4.372,10.51l-8.518,7.223
		l-5.054,3.02l-6.861,4.114l-6.598,3.956l-4.231,5.059l-5.48,11.007l-4.486,5.014l-3.265,2.082l-3.805,1.691l-3.918,1.104
		l-3.634,0.357l-4.855,1.334l-10.448,10.982l-5.48,4.407l-4.357,0.951l-3.934,0.883l-2.442,2.479l0.852,6.052l-0.188,1.307
		l-0.011,0.076l-1.59-1.366l-0.057-0.042l-0.028,0.008l-3.492-2.58l-4.969-7.878l-1.59-1.953l-3.208,0.365l-1.845,3.116
		l-1.618,4.491l-2.499,4.473l-2.129,7.247l-0.653,16.185l-1.476,8.36l-2.357,5.51l-5.111,9.187l-1.363,4.99l-8.433,0.712
		l-13.146,5.667L260.801,570l-3.634-0.517l-2.555-3.346l-1.902-3.888l-2.726-3.329l-3.066-2.491l-1.592-0.731l-1.417-0.65h-3.35
		l-10.165,3.364l-1.959-0.144l-3.89-1.008l-1.647-0.119l-1.789,0.678l-3.038,2.364l-1.193,0.508L194.89,559.039z"/>
</g>
<g id="Copyright">
	<text transform="matrix(1 0 0 1 681.6426 577.5916)" class="st1 st2">© Vemaps.com</text>
</g>
</svg>
