<?xml version="1.0" encoding="utf-8"?>
<!-- Generator: Adobe Illustrator 23.0.1, SVG Export Plug-In . SVG Version: 6.00 Build 0)  -->
<svg version="1.1" xmlns="http://www.w3.org/2000/svg" xmlns:xlink="http://www.w3.org/1999/xlink" x="0px" y="0px"
	 viewBox="0 0 800 600" style="enable-background:new 0 0 800 600;" xml:space="preserve">
<style type="text/css">
	.st0{fill:#808080;}
	.st1{font-family:'Roboto-Regular';}
	.st2{font-size:14px;}
</style>
<g id="Saint_Lucia">
	<path class="st0" d="M523.978,168.491l5.047,40.063l-0.107,35.632l-15.893,104.77l3.812,60.003l-16.376,66.516l-3.544,9.398
		l-3.973,1.659l-16.538,4.644l-5.638,3.759l-6.121,13.046l-11.92,51.904l-8.215,7.904L440.431,570h-6.551l-24.162-33.053
		l-98.689-38.474l-22.122-26.647l-4.188-7.132l-8.054-8.901l-5.155-10.284l9.182-21.288l1.45-13.769l-1.45-26.765l-2.094-8.738
		l-3.759-6.858l-3.329-8.628l-0.537-13.827l3.436-14.38l11.92-25.333l2.577-11.285l7.195-18.919l31.572-45.809l11.813-30.543
		l32.109-48.643l6.873-5.479l12.887-7.305l6.551-6.531l3.114-8.413l5.155-24.022l5.262-9.41l32.27-46.501L462.392,30l25.504,8.415
		l-5.906,23.473l8.806,12.179l14.39,8.303l10.631,11.846l3.651,16.938L523.978,168.491z"/>
</g>
<g id="Copyright">
	<text transform="matrix(1 0 0 1 681.6426 577.5916)" class="st1 st2">© Vemaps.com</text>
</g>
</svg>
