<?xml version="1.0" encoding="utf-8"?>
<!-- Generator: Adobe Illustrator 23.0.1, SVG Export Plug-In . SVG Version: 6.00 Build 0)  -->
<svg version="1.1" xmlns="http://www.w3.org/2000/svg" xmlns:xlink="http://www.w3.org/1999/xlink" x="0px" y="0px"
	 viewBox="0 0 800 600" style="enable-background:new 0 0 800 600;" xml:space="preserve">
<style type="text/css">
	.st0{fill:#808080;}
	.st1{font-family:'Roboto-Regular';}
	.st2{font-size:14px;}
</style>
<g id="Liechtenstein">
	<path class="st0" d="M356.982,30l15.873,23.52l29.401,27.302l-11.724,35.796l7.756,22.575l16.594,22.373l14.971,35.643
		l-1.804,18.315l-17.316,38.613l0.18,22.287l51.947,30.772l41.485,58.076l17.676,65.406l-12.085,66.632l-48.159,61.239L425.883,570
		l-106.599-17.805l-39.321-11.65l-1.984-23.899l20.382-27.48l26.695-27.551l16.594-34.182l-0.902-54.736l-14.61-41.099l-18.939-37
		l-13.348-42.45L298,165.682l30.122-86.654L356.982,30z"/>
</g>
<g id="Copyright">
	<text transform="matrix(1 0 0 1 681.6426 577.5916)" class="st1 st2">© Vemaps.com</text>
</g>
</svg>
