<?xml version="1.0" encoding="utf-8"?>
<!-- Generator: Adobe Illustrator 23.0.1, SVG Export Plug-In . SVG Version: 6.00 Build 0)  -->
<svg version="1.1" xmlns="http://www.w3.org/2000/svg" xmlns:xlink="http://www.w3.org/1999/xlink" x="0px" y="0px"
	 viewBox="0 0 800 600" style="enable-background:new 0 0 800 600;" xml:space="preserve">
<style type="text/css">
	.st0{fill:#808080;}
	.st1{font-family:'Roboto-Regular';}
	.st2{font-size:14px;}
</style>
<g id="Latvia">
	<path class="st0" d="M681.762,179.895l17.889-0.167l-0.549,6.929l0.29,4.49l-1.103,3.889l-0.359,3.318l2.548,2.788l10.672,5.058
		l5.47,6.178l1.383,1.561l10.33,6.465l1.899,1.7l1.282,2.705l0.596,4.406l-0.507,10.583l-0.738,5.789l-0.981,4.033l-3.091,2.952
		l-9.501,4.627l-1.915,2.837l1.414,3.428l2.654,1.403l2.39,1.878l0.538,4.811l-0.507,2.046l-1.656,4.051l-0.633,2.073l-0.264,1.898
		l-0.227,3.737l-0.348,2.119l-6.779,14.614l-2.079,6.557l1.634,0.445l1.716,0.467l8.462-4.766l4.321-1.207l4.537,1.303l2.184,1.863
		l4.009,4.591l2.247,1.784l0.549,2.66l-1.92,4.258l-2.448,4.4l-1.087,3.118l1.751,3.203l10.045,7.155l1.055,3.164l0.084,8.353
		l0.538,3.926l1.382,3.018l1.804,2.002l8.167,3.998l1.783,1.373l0.623,2.182l-0.712,1.636l-2.654,2.544l-0.612,2.185l0.327,1.783
		l0.823,1.643l5.307,6.809l0.791,1.527l0.369,1.999l-0.369,6.332l0.295,4.231l0.744,3.728l4.12,12.565l0.253,1.957l-0.201,2.707
		l-0.601,1.443l-0.823,1.187l-0.839,1.956l-0.892,4.317l-0.591,4.333l-0.971,4.066l-2.063,3.542l-3.872-2.638l-4.363,1.691
		l-1.75,1.267l-2.787,2.018l-4.368,2.129l-4.22,0.908l-1.287,0.677l-1.593,1.67l-1.013,1.995l-0.897,2.241l-1.234,2.42l-6.953,5.365
		l-3.197,3.314l-0.433,4.378l-3.323,5.959l-10.15,6.726l-2.844,8.064l-0.718,8.656l-0.881,3.878l-0.897,2.792l-2.87,0.366
		l-12.841-1.182l-3.366-1.018l-3.192-1.906l-2.548-2.977l-2.089,2.479l-4.769,4.67l-1.984,0.844l-2.807-1.567l-6.362-5.431
		l-2.221-1.221l-4.152-0.695l-13.242,1.71l-0.168,0.107l-2.206,1.401l-5.888,7.241l-5.856,10.77l-2.036,2.397l-8.145,4.212
		l-2.342,0.178l-5.434-2.19l-2.733-0.29l-2.501,1.376l-2.152,3.799l-5.824-0.458l-5.761-1.59l-14.159-6.89l-6.394-4.876
		l-5.392-9.744l-2.363-5.544l-2.564-4.026l-10.129-8.835l-6.31-7.145l-5.754-3.846l-9.186-6.145l-7.735-8.765l-2.984-3.385
		l-5.866-4.097l-1.245-1.253l-0.897-1.91l-1.899-6.169l-0.749-1.609l-1.245-0.549l-6.088,0.492l-1.751-0.35l-5.117-2.481
		l-6.937,1.269l-10.793-1.875l-24.49-4.256l-3.682-2.702l-2.975-5.54l-1.815-5.915l-0.992-1.786l-3.397-3.787l-1.023-1.887
		l-1.129-3.41l-2.638-11.172l-2.669-7.755l-1.825-3.096l-2.173-0.716l-1.414,1.336l-0.38,1.965l-0.127,2.041l-0.644,1.611
		l-0.833,0.181l-2.258-0.896l-1.023,0.048l-9.24,4.113l-3.717,1.654l-4.03,3.191l-8.293,11.304l-1.931,2.015l-5.887,3.454
		l-3.482,1.529l-3.355-0.917l-6.489-4.789l-3.292-1.293l-3.155,0.561l-12.334,6.476l-2.695,0.499l-0.153,0.028l-3.092-0.598
		l-3.418-1.928l-9.58-7.581l-11.25-3.621l-1.327-0.427l-3.376-0.095l-7.038,1.646l-3.176-0.523l-0.137-0.609l0.116-1.156
		l-0.127-1.366l-0.865-1.276l-0.855-0.314l-2.785,0.476l-7.101-0.362l-3.281,0.962l-6.141,3.674l-3.672-0.266l-10.572-4.518
		l-6.88-2.942l-2.268-0.452l-11.828,2.781l-1.878,1.209l0.886,1.914l-5.117,5.547l-5.149,1.236l-4.653-3.624l-3.609-9.087
		l-2.49-5.313l-3.313-1.869l-3.63,0.677l-2.998,2.098l-3.744,2.62l-14.444,6.001l-1.54,0.224l-1.762-0.738l-4.526-4.791
		l-2.708-1.459l-0.246-0.133l-6.542-1.52l-30.303,1.029l-2.005-0.824l-3.788-2.841l-1.941-1.006l-4.6-0.315l-11.322,5.361
		l-1.822,0.862l-28.669,13.553l-9.032,0.409l-3.788,1.949L76.01,421l-1.593,0.536l-4.632,0.228l-3.134,1.628l-3.798,3.202
		l-3.63,3.987l-2.574,4.037l-1.741,5.9l-0.739,5.048l-1.53,3.471l-4.104,1.149l-6.004,0.052l-3.875,0.965v-0.059l-0.083-0.841
		l-1.005-6.777l-1.421-6.015l-4.569-11.56l-1.088-3.96l-0.44-3.947l0.199-1.137l0.939-3.606l0.249-2.11v-1.969l-0.125-1.662
		l-1.072-7.245L30,396.633l0.199-3.534l0.864-2.837l1.379-2.5l0.598-1.434l0.49-1.683l0.224-2.044l0.017-3.631l0.515-1.888
		l-0.748-3.115l-0.283-3.342l0.598-1.724l1.828,1.754l0.64,1.912l0.54,4.845l0.906,2.188l-1.446,2.526l0.706,0.699l0.739,0.451v2.63
		v1.262l-1.446,2.403l2.334,3.348l0.856,0.54l0.856-0.428l0.715-1.081l0.266-1.449l-1.138-3.875l-0.199-3.283l0.15-3.134
		l0.407-1.985l-0.457-1.263l-0.449-3.25l-0.499-1.791l-0.557-1.37l-0.49-0.843l-1.794-1.581l-1.121-0.542l-0.922-0.128l-0.756-0.414
		l-0.69-1.446l-0.424-2.049l0.299-0.829l0.532-0.799l1.038-7.602l3.639-10.67l1.246-6.033l0.698-15.94l-0.407-3.693l-0.715-3.323
		l-0.149-3.165l1.271-3.25l8.374-5.615l0.972-1.711l6.754-4.138l1.844-1.978l3.739-5.771l1.038-1.196l1.263-0.754l2.866-2.637
		l3.257-3.011l2.285-3.608l1.952-5.357l1.221-6.699l0.125-7.639l-0.299-1.997l-1.105-5.053l0.216-2.022l0.964-2.666l0.224-1.632
		l-0.224-12.29l0.224-3.933l0.673-3.366l1.246-3.352l1.62-2.561l1.745-1.039l1.396-1.539l3.83-10.213l7.286-9.703l11.241-22.14
		l3.107-3.516l4.287-2.348l18.809-1.302l4.428-1.403l19.931-10.924l29.526-16.216l4.328-1.37l2.343-0.187l1.146-0.405l1.255-0.778
		l1.346-0.553l1.479,0.319l1.03,0.654l-0.025,0.218l-0.523,0.467l-0.482,1.378l-0.964,7.211l-0.374,7.856l0.391,3.859l0.997,2.794
		l5.649,8.452l22.747,19.872l7.294,9.197l8.275,7.266l5.3,3.075l3.489,0.817l1.296,0.593l0.299,1.479l0.042,1.871l0.457,1.879
		l2.26,4.648l0.449,0.931l1.022,3.084l0.798,3.72l0.798,6.636l0.872,3.454l1.512,1.496l0.906,1.741l2.866,17.427l1.063,2.914
		l1.429,1.17l1.811,0.711l4.844,5.701l8.449,3.444l8.748,1.687l1.255,1.061l4.985,7.369l0.914,0.785l0.665,0.564l4.785,1.524
		l6.447,0.686l17.447-4.292l6.214-3.028l2.65-1.297l3.913-3.373l1.844-2.695l1.296-2.52l1.396-1.872l3.971-1.116l3.93-2.591
		l9.978-6.578l0.864-2.686l1.977-2.174l2.31-1.486l1.77-0.674l0.025-2.023l1.014-1.341l2.443-1.771l6.788-7.9l2.193-5.267
		l0.839-7.562l-0.341-8.755l-2.443-23.682l-0.174-7.048l-0.482-4.185l-1.088-1.873l-0.606-2.276l0.449-4.995l1.205-7.023
		l-1.196-11.215l-0.548-2.525l-4.486-7.557l-1.446-3.595v-3.457l-1.097-9l-0.291-4.54l0.291-2.435l0.748-2.318l1.022-2.076
		l4.44,1.832l2.912-0.154l2.385-1.349l1.139-1.939l1.678-4.565l1.277-1.489l4.052-2.155l5.36-4.953l2.047-0.452l7.164,0.666
		l6.204-0.696l1.593-1.272l1.878-5.321l1.498-1.995l3.186,0.826l2.659,1.716l2.659,0.448l1.083-1.003l2.135-1.978l2.469-1.598
		l7.839-1.155l2.606-1.812l6.127-6.312l1.427-1.471l2.226-1.431l2.406-0.713l4.78-0.135l2.648,1.79l1.403,3.968l0.939,4.752
		l1.245,4.152l1.498,1.269h1.604l3.271-1.697l2.026-2.688l-0.696-3.078l-2.859-5.222l0.116-3.341l1.308-1.282l1.857,0.334
		l1.825,1.506l0.696,1.326l1.213,3.494l0.644,1.131l0.928,0.568l0.633-0.149l0.665-0.359l1.034-0.06l4.094,2.232l6.183,7.537
		l4.025,2.592l3.608,0.801l0.992,0.696l0.876,1.442l0.159,1.052l0.03,0.201l0.084,1.277l0.549,1.526l2.152,2.841l2.258,1.395
		l2.406,0.367l2.553-0.218l5.483-1.903l1.143-0.397l1.562,0.05l1.54,2.682l0.95,3.896l1.308,3.835l2.564,2.484l21.45,1.918
		l1.203,0.605l0.76,0.937l0.338,1.828l-0.359,1.149l-0.58,1.139l-0.306,1.758l0.306,3.95l0.886,2.36l11.279,9.486l3.397,3.961
		l9.665,15.884l3.471,4.131l4.231,3.046l1.296,0.562l8.101,3.51l0.025,0.011l1.699,1.672l3.419,4.905l1.889,2.152l1.583-0.275
		l1.393-1.258l1.382-0.816l0.971,0.256l1.889,1.375l0.981,0.334l1.044-0.481l0.485-1.164l0.359-1.4l0.654-1.229l3.018-2.684
		l3.334-1.987l3.419-1.121l7.924,0.433l1.804-0.541l2.1-1.879l1.224-2.638l1.045-2.826l1.593-2.418l1.889-0.882l1.256,0.97
		l1.139,1.354l1.583,0.296l1.794-0.404l1.773,0.039l3.524,1.211l2.406,1.92l3.746,5.801l2.063,2.434l2.432,1.185l8.198,0.521
		l15.753,5.813L681.762,179.895z"/>
</g>
<g id="Copyright">
	<text transform="matrix(1 0 0 1 681.6426 577.5916)" class="st1 st2">© Vemaps.com</text>
</g>
</svg>
