<?xml version="1.0" encoding="utf-8"?>
<!-- Generator: Adobe Illustrator 23.0.1, SVG Export Plug-In . SVG Version: 6.00 Build 0)  -->
<svg version="1.1" xmlns="http://www.w3.org/2000/svg" xmlns:xlink="http://www.w3.org/1999/xlink" x="0px" y="0px"
	 viewBox="0 0 800 600" style="enable-background:new 0 0 800 600;" xml:space="preserve">
<style type="text/css">
	.st0{fill:#808080;}
	.st1{font-family:'Roboto-Regular';}
	.st2{font-size:14px;}
</style>
<g id="Mongolia">
	<path class="st0" d="M695.871,206.121l-4.862,10.904l-0.349,0.838l-4.83,10.99l-4.83,10.921l-0.097,0.622l0.323,1.212l0.009,0.626
		l-0.456,1.128l-5.24,8.255l-0.212,0.574l-0.107,0.723v0.694l0.523,6.893l-0.214,1.093l-0.67,0.63l-5.392,2.585l-0.511,0.604
		l0.007,0.329l0.72,4.443l0.369,2.054l0.319,0.805l0.556,0.766l5.815,6.227l1.422,0.74l1.343-0.859l2.563-3.349l2.237-1.461
		l1.433-0.456l4.255,0.951l1.628-0.042l5.796-1.295l1.619-0.074l0.718,0.143l2.75,1.182l1.714,0.623l0.513,0.319l5.691,5.338
		l1.006,0.109l0.899-1.189l0.841-1.532l0.837-0.915l1.25-1.001l4.933-6.554l0.58-0.534l1.11-0.402l3.625,0.238l0.561-0.072
		l1.538-0.673l1.346-0.273l1.379-0.024l0.547,0.169l1.105,0.703l0.592,0.163l4.434,0.298l1.598,0.797l1.449,1.771l2.486,4.15
		l1.245,1.282l4.72,2.087l2.001,0.74l0.549,0.407l0.31,0.511l0.168,0.644l0.283,2.445l0.128,0.582l0.271,0.389l0.544,0.336
		l2.15,0.842l0.92,0.291l0.439,0.282l0.176,0.476l-0.119,0.336l-0.547,0.786l-0.159,0.486l0.891,0.266l3.573,3.322l0.338,0.409
		l0.304,0.61l0.209,0.56l0.278,0.402l1.432,0.422l0.968,0.754l1.622,1.914l0.666,1.044l0.576,1.156l0.151,0.67l0.027,1.995
		l0.075,0.393l0.053,0.193l0.065,0.173l0.326,0.495l0.762,0.789l0.328,0.43l0.119,0.289l0.065,0.266l0.088,0.252l0.202,0.251
		l0.245,0.057l0.374,0.03l0.315,0.089l0.081,0.233l-0.138,0.348l-0.126,0.247l-0.081,0.271l-0.005,0.414l0.043,0.172l0.086,0.134
		l0.111,0.1l0.119,0.068l0.14,0.137l-0.018,0.17l-0.074,0.205l-0.021,0.231l0.015,0.75l-0.294,1.074l-0.064,0.573l0.094,0.293
		l0.372,0.6l0.084,0.271l-0.065,0.315l-0.143,0.244l-0.176,0.23l-0.407,0.722l-0.419,0.455l-0.46,0.292l-0.395-0.022l-0.483-0.242
		l-0.323,0.107l-0.281,0.404l-0.359,0.642l-0.326,0.373l-0.474,0.353l-0.503,0.262l-0.406,0.109l-0.491-0.152l-0.812-0.675
		l-0.49-0.112l-0.605,0.017l-1.716-0.296l-1.111,0.017l-2.062,0.484l-1.066,0.046l-5.855-1.651l-0.585-0.261l-0.526-0.489
		l-0.67-1.383l-0.407-0.534l-0.465,0.111l-0.574,0.727L747,313.766l-0.38-0.139l-0.251-0.463l-0.102-0.559l-0.178-0.482l-0.482-0.24
		l-0.696,0.245l-0.553,0.685l-0.883,1.564l-0.776,0.483l-0.815-0.225l-0.856-0.478l-0.875-0.27l-0.327,0.092l-0.631,0.446
		l-0.363,0.133l-1.821,0.003l-0.865-0.184l-1.472-0.765l-0.82-0.275l-0.799-0.09l-0.732,0.064l-0.706,0.253l-0.742,0.485
		l-0.851,0.752l-0.311,0.132l-1.232,0.05l-0.416,0.161l-1.802,1.383l-0.754,0.119l-1.127,0.275l-0.532,0.254l-0.513,0.376
		l-0.437,0.539l-0.611,1.254l-0.361,0.512l-0.447,0.241l-2.332,0.268l-0.525-0.126l-1.108-0.656l-0.406-0.498l-0.587-1.387
		l-0.319-0.387l-0.273,0.065l-1.063,0.774l-0.19,0.041l-0.231-0.061l-0.435-0.187l-1.819,0.445l0.376,1.056l0.055,0.507
		l-0.162,0.462l-0.834,1.173l-0.269,0.911l-0.102,2.299l-0.359,0.741l-0.823,0.238l-7.909-0.543l-2.903-0.665l-0.392-0.012
		l-0.231,0.128l-0.454,0.567l-1.445,1.24l-0.338,0.149l-1.429,0.192l-0.958,0.305l-0.497,0.376l-0.314,0.238l-0.461,1.051
		l-0.2,0.602l-0.333,0.479l-3.863,4.026l-3.312,6.537l-0.14,0.902l0.319,1.028l0.487,0.754l0.219,0.781l-0.49,1.104l-1.391,2
		l-0.597,0.477l-1.129,0.596l-0.371,0.104l-0.354,0.002l-1.182-0.172l-0.226,0.099l-0.445,0.524l-4.957,4.257l-1.724,2.008
		l-0.575,0.481l-0.68,0.325l-3.792,1.035l-3.121,0.593l-4.852,0.008l-4.312,0.677l-0.773-0.13l-3.863-1.549l-0.782-0.069
		l-0.782,0.142l-3.119,1.222l-0.228,0.171l-0.1,0.306l-0.178,1.487l-0.216,0.729l-0.673,1.439l-1.246,1.885l-4.764,4.542
		l-1.108,0.717l-0.328,0.328l-0.233,0.355l-0.433,0.844l-0.716,1.023l-0.782,0.689l-0.88,0.432l-1.01,0.259l-1.365,0.126
		l-0.563,0.233l-1.189,1.31l-2.346,1.686l-1.453,1.548l-0.861,0.71l-0.697,0.213l-1.664-0.181l-0.352-0.137l-0.649-0.542
		l-0.361-0.144l-8.473-0.767l-2.023-0.866l-1.006-0.005l-5.168-1.428l-3.088-1.414l-0.649-0.487l-0.495-0.653l-0.934-1.604
		l-1.899-1.924l-0.656-0.444l-0.763-0.153l-6.257,0.109l-2.211-0.655l-0.618,0.011l-0.26,0.004l-0.347,0.081l-0.238,0.222
		l-0.216,0.285l-0.271,0.262l-0.471,0.22l-0.991,0.256l-0.456,0.22l-1.307,1.007l-0.594,0.627l-0.509,0.748l-4.305,8.858
		l-0.238,0.807l-0.021,0.518l0.1,1.102l-0.014,0.544l-0.128,0.576l-0.186,0.414l-0.487,0.776l-0.58,1.296l-0.242,0.358l-0.055,0.065
		l-0.552,0.561l-0.523,0.898l-0.409,1.017l-0.214,0.937l-0.014,1.312l0.326,0.66l1.441,0.875l0.399,0.521l0.174,0.584l0.128,1.243
		l0.361,1.192l0.561,1.021l2.085,2.909l0.775,0.787l2.589,1.764l0.706,0.7l0.63,0.815l2.111,3.786l0.316,1.076l0.083,0.937
		l-0.064,1.054l-0.271,0.867l-0.528,0.371l-0.395,0.076l-1.091,0.499l-1.683-0.076l-0.433,0.194l-3.602,4.44l-0.68,0.661
		l-0.751,0.374l-2.446,0.215l-0.628,0.267l-1.445,1.183l-5.577,2.264l-2.822,1.615l-0.913,0.88l-3.145,4.383l-2.689,2.875
		l-0.331,0.638l-0.568,1.561l-0.756,1.355l-0.953,1.072l-2.147,1.747l-0.552,0.551l-0.566,1.633l-0.416,0.521l-6.138,2.693
		l-0.787,0.499l-0.288,0.276l-0.205,0.244l-0.216,0.204l-0.338,0.162l-0.402,0.075l-1.274-0.016l-1.716,0.239l-5.644,2.494
		l-3.428,2.548l-0.183,0.081l-0.126-0.006l-0.112,0.05l-0.143,0.253l-0.086,0.122l-0.114,0.062l-3.602,0.275l-1.11,0.379
		l-0.618,0.074l-5.956-0.735l-0.763,0.062l-2.268,1.205l-0.786,0.275l-0.729,0.052l-5.99-1.145l-4.984,0.08l-1.955-0.546
		l-1.321-0.132l-2.937,0.474l-9.828,1.584l-9.828,1.582l-9.828,1.581l-10.342,4.552l-10.342,4.541l-9.08,4.734l-1.636,0.889
		l-1.025,0.793l-0.314,0.146l-0.428,0.136l-1.184,0.655l-1.293,0.217l-0.399,0.153l-4.28,4.537l-0.943,0.308l-0.883-1.116l-0.5-0.49
		l-0.491-0.198l-6.696-0.021l-2.216-0.342l-0.159-0.284l0.064-6.317l-8.968,1.776l-8.968,1.774l-0.68-0.113l-6.747-3.616
		l-6.747-3.623l-0.009-0.002l-0.711-0.337l-7.969-1.859l-7.969-1.861l-7.969-1.863l-1.379-0.723l-2.018-2.179l-3.476-5.702
		l-2.249-1.693l-2.591-0.687l-2.627-0.231l-4.417,0.469l-9.214-1.527l-9.214-1.528l-9.214-1.529l-1.045,0.007l-8.043,2.465
		l-3.391,1.038l-9.341-1.241l-9.342-1.241l-9.341-1.242l-9.341-1.243l-7.553-1.005l-7.553-1.006l-0.06,0.006l-8.235,0.86
		l-8.235,0.86l-2.194,0.363l-0.297-0.074l-0.197-0.049l-0.164-0.514l-0.309-3.937l-0.15-0.729l-0.276-0.639l-0.561-0.729
		l-8.874-8.857l-0.785-1.028l-0.447-1.183l-0.219-1.326l-0.093-1.456l-0.197-1.152l-3.228-7.031l-2.375-7.609l-1.241-2.816
		l-0.575-0.685l-0.813-0.24l-1.201-0.064l-2.189-0.577l-0.197-0.334l-0.005-0.756l0.219-1.841l-0.157-1.608l0.029-0.315l0.102-0.323
		l0.309-0.617l0.159-0.879l0.281-0.542l0.68-0.929l0.195-0.634l-0.421-0.213l-7.881,1.033l-0.989-0.143l-2.025-1.119l-4.253-1.336
		l-0.521-0.248l-0.328-0.422l-0.262-0.552l-0.354-0.484l-1.59-1.523l-2.938-1.844l-0.694-0.36l-1.467,0.005l-0.642-0.252
		l-0.38-0.513l-0.609-1.399l-0.414-0.587l-1.897-2.093l-0.302-0.211l-0.38-0.162l-0.376-0.044l-1.041,0.503l-1.039,0.012
		l-1.921-0.281l-1.096-0.419l-1.217-1.336l-3.692-5.198l-0.592-0.535l-3.749-1.956l-2.408-0.124l-0.475-0.178l-0.887-0.58
		l-0.468-0.21l-0.547-0.034l-1.11,0.188l-0.57-0.047l-1.804-0.849l-0.611-0.072l-1.454,0.152l-0.541,0.056l-0.445-0.136
		l-0.442-0.054l-0.447,0.03l-0.449,0.119l-0.687-0.037l-0.663-0.284l-1.27-0.759l-0.309-0.04l-0.768,0.17l-0.352,0.023l-1.063-0.156
		l-2.627,0.728l-1.529,0.084l-2.23,0.506l-0.371-0.015l-1.039-0.434l-0.399-0.061l-1.129,0.178l-0.376-0.007l-1.051-0.38h-0.402
		l-1.127,0.306l-0.58-0.143l-1.961-1.421l-0.754-0.348l-0.751-0.194l-0.773-0.046l-0.789,0.093l-1.289,0.254l-3.958-0.224
		l-0.513,0.056l-0.944,0.311l-0.476,0.054l-2.277-0.574l-0.269,0.059l-0.207,0.115l-0.214,0.024l-0.281-0.207l-1.512-1.955
		l-0.404-0.283l-0.497,0.015l-0.395,0.286l-0.371,0.413l-0.392,0.325l-0.456,0.017l-2.244-0.521l-1.491-0.787l-0.335-0.317
		l-0.506-0.772l-0.292-0.348l-0.775-0.418l-1.025-0.224l-1.046-0.045l-0.832,0.133l-1.602,0.943l-0.742-0.007l-0.359-0.943
		l0.062-0.542l0.128-0.356l0.017-0.36l-0.281-0.557l-0.397-0.307l-0.934-0.419l-0.128-0.375l-0.012-1.092l-0.285-0.903l-0.357-0.861
		l-0.214-0.962l-0.352-0.681l-1.51-1.113l-0.487-0.573l1.046-7.789l0.326-0.731l4.795-6.534l1.286-1.233l0.254-0.192l0.373-0.951
		l0.069-1.533l-0.219-1.513l-0.478-0.89l-0.606-0.921l-1.141-3.77l-0.069-0.678l0.226-0.508l0.685-0.885l0.906-2.423l0.252-0.624
		l0.352-1.328l0.292-0.606l0.494-1.199l0.223-0.736l0.05-0.513l-0.345-0.452l-0.487-0.181l-0.354-0.311l0.05-0.858l0.314-1.43
		l0.059-0.902l0.029-0.448l-0.247-1.249l-0.682-1.132l-0.823-0.83l-0.323-0.48l-0.124-0.689l0.064-0.268l0.269-0.513l0.048-0.256
		l-0.086-0.349l-0.159-0.197l-0.188-0.16l-0.174-0.235l-0.226-0.616l-0.152-0.589l-0.197-0.558l-0.352-0.526l-0.468-0.434
		l-0.49-0.307l-0.521-0.153l-0.544,0.017l-0.908-0.186l-0.697-0.77l-5.599-9.953l-0.055-0.252l0.05-0.244l0.155-0.23l0.238-0.496
		l0.102-0.575l-0.064-0.555l-0.276-0.438l-0.623-0.44l-0.147-0.901l0.043-1.097l-0.055-1.03l-0.321-0.46l-0.751-0.617l-0.299-0.467
		l-0.68-1.702l-0.312-0.494l-0.254-0.691l0.231-0.476l0.278-0.369l-0.109-0.371l-0.49-0.393l-0.492-0.285l-2.125-0.589l-1.065-0.488
		l-1-0.688l-0.853-0.888l-0.281-0.47l-0.273-0.673l-0.152-0.726l0.088-0.624l0.193-0.744l-0.103-0.624l-0.351-0.376l-0.969-0.021
		l-0.905-0.284l-0.379,0.188l-0.176,0.423l-0.032,0.456l-0.074,0.455l-0.301,0.417l-0.743,0.267l-2.427,0.199l-0.742-0.199
		l-0.254-0.406l-0.209-0.98l-0.178-0.46l-0.371-0.373l-0.811-0.173l-0.385-0.197l-0.262-0.444l-0.178-0.577l-0.202-0.493
		l-0.321-0.193l-0.388-0.103l-0.307-0.325l-0.175-0.481l0.013-0.579l-0.1-0.948l-0.692-0.363l-0.877,0.035l-0.651,0.242
		l-1.148,0.045l-0.373-0.051l-0.92-0.517l-0.344-0.021l-0.46,0.22l-1.117,0.921l-0.393,0.428l-0.566,0.444l-0.581,0.112
		l-1.186-0.241l-2.127-0.009l-0.662-0.297l-0.002-0.004h-0.006l-2.604-3.577l-0.357-0.31l-0.634-0.171l-1.33,0.199l-0.599-0.028
		l-0.692-0.503l-1.521-1.579l-0.656-0.23l-0.58,0.064l-0.452-0.161l-0.91-0.753l-0.355-0.494l-0.168-0.612l-0.107-0.673
		l-0.175-0.659l-0.057-0.685l0.327-1.288l-0.181-0.611l-1.436-1.716l-0.542-0.263l-0.46,0.07l-0.448,0.153l-0.528-0.013
		l-0.765-0.505l-1.18-1.571l-0.626-0.521l-1.593-0.839l-0.409-0.063l-0.79,0.078l-0.403-0.034l-0.407-0.195l-0.749-0.595
		l-0.632-0.333l-0.378-0.442l-0.214-0.142l-0.242-0.011l-0.544,0.124l-0.269-0.006l-0.773-0.435l-0.718-0.795l-0.207-0.845
		l0.751-0.592l0.326-0.266l0.188-0.383l0.128-0.377l0.156-0.258l1.032-0.697l0.203-0.32l-0.102-0.888l-0.59-0.733l-1.341-0.937
		l-0.53-0.179l-1.032,0.079l-1.516-0.716l-0.474-0.312l-0.349-0.429l-0.086-0.314l-0.038-0.724l-0.102-0.331l-0.197-0.238
		l-0.247-0.161l-0.506-0.213l-0.388-0.423L30,239.194l0.182-0.646l0.305-0.532l1.816-0.894l0.845-0.775l-0.008-1.264l-0.352-0.404
		l-0.44-0.169l-0.366-0.292l-0.137-0.767l0.118-0.745l0.197-0.497l0.136-0.517l-0.071-0.814l-0.331-1.059l-0.04-0.416l0.476,0.205
		l0.418,0.036l2.337-0.349l0.43-0.244l0.402-0.56l0.846-0.839l1.812-1.123l0.815-0.821l0.102-0.911l-0.442-1.036l-0.314-1.082
		l0.466-1.042l0.226-0.393l0.371-1.164l0.299-0.486l0.58-0.371l4.113-0.759l0.533-0.002l1.132,0.379l0.559,0.053l1.457-0.102
		l0.439-0.161l0.964-0.631l0.332-0.137l0.037-0.005l0.409,0.06L51,218.189l0.598,0.842l0.483,0.455l0.547,0.143l3.478,0.245
		l0.108-0.205l-0.471-1.136l0.03-1.332l0.059-0.562l0.218-0.381l0.477-0.126l0.447,0.203l0.247,0.452l0.181,0.558l0.245,0.516
		l0.229,0.355l0.164,0.388l0.183,0.344l0.291,0.223l0.891-0.166l3.373-1.493l0.794-0.666l0.468-0.848l-0.323-0.892l-0.537-0.988
		l0.21-0.835l0.669-0.444l0.823,0.18l1.346,1.288l0.661,0.438l0.748-0.031l0.596-0.614l0.478-0.895l0.529-0.688l0.776,0.006
		l1.034-0.701l2.208-0.792l1.518-0.814l0.462-0.414l0.235-0.541l-0.256-0.64l-0.41-0.285l-1.029-0.51l-0.288-0.447l0.021-0.313
		l0.335-0.403l0.037-0.383l-0.106-0.212l-0.411-0.365l-0.132-0.245l-0.001-0.45l0.133-1.385l0.064-0.334l0.215-0.187l0.793-0.691
		l1.22-0.445l3.352-0.107l1.236-0.29l1.133-0.58l0.617-0.919l0.02-0.39l0.037-0.751l0.143-0.935l0.359-0.717l0.706-0.481
		l3.018-0.656l0.932-0.428l2.781-2.163l0.461-0.184l0.944-0.102l0.461-0.154l1.155-0.995l1.006-0.136l1.978,0.446l1.001-0.024
		l0.414-0.134l0.402-0.21l0.364-0.321l0.297-0.461l0.109-0.506l0.005-1.034l0.207-0.4l0.825-0.499l1.783-0.544l0.854-0.669
		l1.645-2.096l0.611-0.593l0.849-0.41l2.708-0.032l0.773-0.239l2.225-1.221l0.861,0.007l1.947,0.413l0.773-0.232l0.385-0.603
		l0.174-0.742l0.238-0.742l0.568-0.611l2.315-0.941l0.62-0.638l1.16-2.191l0.609-0.598l1.614-1l1.712-0.634l1.743-0.206l3.744,0.76
		l2.211-0.101l1.93-1.122l1.189-2.591l0.059-0.677l0.01-0.645l0.097-0.574l0.311-0.456l0.466-0.283l0.585-0.173l0.544,0.102
		l0.352,0.546l0.44,1.415l0.559,0.925l0.727,0.575l0.956,0.359l0.877,0.641l1.317,2.011l0.872,0.493l0.509-0.056l0.537-0.229
		l0.509-0.372l0.411-0.475l0.261-0.589l0.157-1.208l0.157-0.584l0.825-0.628l1.417-0.273l1.457,0.111l0.934,0.53l0.283,1.298
		l-0.014,1.737l0.426,1.437l0.254,0.724l0.195,0.418l0.264,0.255l0.454,0.232l1.434,0.401l0.787-0.023l1.132-0.013l5.363-0.346
		l2.641,0.893l8.065,0.353l8.065,0.353l0.485,0.279l0.338,0.462l0.112,0.563l0.036,1.322l0.92,2.3l0.178,0.89l0.109,3.726
		l0.278,1.865l0.233,0.92l0.323,0.751l0.535,0.616l1.914,0.837l0.385,0.358l0.157,0.458l0.086,0.519l0.157,0.545l0.271,0.434
		l0.991,0.96l0.24,0.446l0.411,1.029l0.257,0.361l0.485,0.163l0.609-0.094l2.194-0.807l4.03-0.198l0.739,0.189l0.618,0.568
		l0.54,1.145l0.404,0.821l0.155,0.229l1.105,0.639l6.402-0.078l1.036,0.316l1.044,0.873l0.38,0.421l0.357,0.305l0.078,0.067
		l0.461,0.196l0.459-0.103l0.38-0.397l0.599-0.96l0.478-0.325l2.22-0.333l0.941-0.447l0.863-1.237l0.661-0.668l0.925-0.302
		l0.901,0.185l0.578,0.79v0.006l0.283,1l0.418,0.722l0.544,0.218l0.656-0.499l0.25-0.447l0.29-0.392l0.314-0.333l0.338-0.272
		l0.33-0.183l0.345-0.031l0.347,0.074l0.342,0.137l0.002,0.002l0.005,0.002l0.002,0.002l3.433,1.558l1.048,0.82l0.97,1.013
		l0.528,0.332l0.611,0.09l0.604-0.203l1.143-0.794l0.594-0.275l0.658-0.017l0.473,0.227l0.354,0.496l0.316,0.786l0.347,0.645
		l0.392,0.151l0.442-0.192l0.497-0.374l1.248-1.297l0.499-0.144l6.148,0.967l0.844,0.764l0.837,1.5l0.345,0.374l0.644,0.245
		l0.342,0.13l0.454,0.304l0.209,0.635l0.551,0.911l1.198,0.576l1.317,0.283l0.906,0.02l0.958-0.307l1.091-0.544l1.928-1.397
		l1.567-1.214l0.711-0.883l0.176-1.086l-0.219-0.671l-0.197-0.436l0.078-0.28l1.74-0.473l2.102-1.012l0.523-0.113l0.487,0.19
		l0.763,0.894l0.442,0.281l0.402-0.242l0.625-0.853l0.727-0.684l3.262-1.788l1.324-1.462l3.609-7.899l0.157-0.562l0.069-0.705
		l-0.05-0.611l-0.19-1.136l0.102-1.199l0.735-2.146l0.055-1.18l0.002-0.002v-0.004l-0.166-0.929l-0.416-0.69l-0.554-0.466
		l-0.592-0.256l-1.431-0.254l-0.63-0.228l-1.745-1.374l-0.497-0.51l-0.349-0.691l-1.122-2.945l-0.701-1.865l0.078-0.782l0.984-1.443
		l-0.128-0.412l-0.727-0.58l-0.328-0.422l-0.209-0.445l-0.235-0.394l-1.091-0.718l-0.835-0.862l-0.625-1.087l-0.05-1.12l1.467-3.135
		l0.357-1.22l0.209-1.237l0.128-0.535l0.661-1.711l0.062-0.565l-0.083-0.774l-0.271-1.265l-0.014-0.542l0.164-0.657l0.252-0.49
		l0.654-0.872l0.283-0.484l1.06-2.455l0.44-0.816l0.257-0.337l0.364-0.105l1.027-0.571l0.609-0.043l1.9,0.394l0.219-0.653
		l0.09-0.874l-0.219-1.608l0.09-0.866l0.24-0.669l0.568-1.249l0.233-0.728l1.35-2.355l2.135-1.036l4.455-1.28l0.751-0.626
		l0.72-0.818l0.654-0.954l1.507-3.168l0.347-1.769l0.195-0.569l0.882-1.216l0.183-0.526l0.055-0.635l0.017-1.266l0.138-0.62
		l0.708-0.819l0.949-0.039l0.23,0.183l0.571,0.454l0.276,1.205l0.466,0.827l0.699,0.478l3.994,1.456l0.784,0.461l0.533,0.61
		l0.43,0.688l0.475,0.595l0.656,0.348l5.358,1.595l2.817,0.104l0.698,0.301l1.709,1.6l1.488,1.796l1.593,1.482l2.025,0.659
		l2.123-0.257l2.577,0.462l6.914-0.025l1.385,0.82l1.56,0.474l9.904,5.135l1.094,0.947l0.96,0.245l0.965,0.011l0.939,0.212
		l0.877,0.835l0.822,1.071l0.799,0.485l0.865-0.004l2.168-0.824l1.02-0.109l1,0.212l1.699,0.738l1.217-0.087l0.623,0.069
		l0.426,0.212l1.222,0.939l0.609,0.214l1.842-0.129l0.433,0.149l0.803,0.71l0.428,0.242l1.771,0.133l0.54,0.324l0.382,0.375
		l2.13,1.501l0.219,0.614l-0.324,0.764l-1.012,1.696l-0.034,0.346l0.135,0.364l0.183,0.672l0.055,0.633l-0.029,0.609l-0.152,1.245
		l0.1,1.363l0.434,1.467l0.612,1.353l0.63,1.021l0.237,0.489l0.032,0.525l-0.126,0.517l-0.238,0.458l0.557,0.945l-0.175,1.005
		l-0.44,1.021l-0.223,0.998l0.316,1.11l0.664,0.731l1.423,1.111l0.503,1.069l-0.21,0.824l-0.539,0.769l-0.481,0.898l-0.1,1.061
		l0.25,1.099l0.472,0.968l0.568,0.664l1.036,0.43l2.281,0.316l0.949,0.768l1.69,3.195l0.718,0.576l0.04,0.011l3.291,0.873
		l2.865,2.157l0.926,0.432l1.075,0.264l3.586-0.486l1.649,0.437l0.885,1.893l0.297,1.057l0.544,0.626l0.686,0.256l2.312-0.247
		l0.727,0.169l0.811,0.381l1.379,1.013l1.552,0.727l1.533,0.083l2.696-1.972l1.384,0.052l2.957,1.292l1.507,0.271l1.89-0.254
		l1.758-0.781l1.135-1.314l0.495-0.801l1.205-0.914l0.647-0.632l0.638-0.623l0.657-0.409l1.571-0.458l2.365,0.136l0.77-0.169
		l0.506-0.344l0.907-0.885l0.579-0.177l2.128,0.02l0.666-0.205l1.392-0.923l0.519-0.212l0.751-0.125l2.665,0.352l0.647-0.06
		l0.634-0.177l0.588-0.289l2.516-2.164l0.868-0.527l1.154-0.14l7.147,1.969l3.218-0.252l0.628,0.164l1.108,0.485l1.139,0.257
		l1.239,0.007l0.617,0.138l1.243,1.023l0.1,0.239v0.333l0.027,0.343l0.086,0.285l0.178,0.164l1.826,0.233l0.59,0.27l0.926,0.717
		l0.485,0.264l0.519,0.076l4.484-1.357l2.494-0.283l2.491,0.317l2.062,0.706l0.969,0.573l3.408,2.963l0.856,0.459l0.208,0.332
		l0.352,1.34l0.186,0.345l0.463,0.519l0.17,0.249l0.13,0.378l0.212,0.847l0.2,0.378l0.303,0.282l0.7,0.339l0.32,0.226l1.147,1.132
		l0.637,0.459l0.752,0.322l0.689-0.067l0.587-0.311l0.562-0.087l1.362,1.213l8.401,0.15l0.352,0.164l0.136,0.063l0.838,0.621
		l0.483,0.155l0.719-0.096l0.271,0.018l1.086,0.377l1.111,0.072l0.229,0.362l-0.089,0.925l-0.189,0.609l-0.204,0.492l-0.126,0.542
		l0.053,0.754l0.406,1.704l0.132,1.316l-0.021,0.454l-0.126,0.432l-0.518,1.343l0.014,0.456l0.277,0.242l0.539,0.075l0.918-0.074
		l0.3,0.264l-0.19,0.786l-0.052,0.561l0.24,0.552l0.39,0.458l1.691,1.241l0.466,0.255l1.92,0.245l0.609,0.275l0.326,0.357
		l0.207,0.452l0.178,0.489l0.227,0.472l1.328,1.633l3.193,2.825l1.481,1.023l0.734,0.06l0.885,0.073l3.281-0.618l2.482,0.022
		l1.645-0.292l2.357,0.739l0.577-0.042l2.359-0.62l2.9,0.286l0.58,0.212l0.561,0.325l1.258,0.496l0.466,0.215l0.908-0.097
		l0.261,0.193l0.083,0.211l0.095,0.629l0.105,0.264l0.402,0.224l0.561,0.242l4.883-0.372l1.298,0.532l0.754,0.832l0.333,0.031
		l1.861,0.464l6.172,1.821l1.003-0.12l0.996-0.411l0.944-0.662l0.83-0.871l0.359-0.493l0.233-0.251l0.254,0.06l1.174,1.318
		l0.414,0.284l1.31,0.36l2.194,1.372l0.951,0.302l0.991,0.078l0.996-0.111l2.522-0.87l2.865-1.582l3.98-2.966l3.105-1.103
		l0.418-0.281l0.673-0.867l0.402-0.332l0.559-0.102l0.514,0.19l1.025,0.56l0.573,0.117l0.566-0.009l0.561-0.131l2.598-1.391
		l1.025-0.351l8.492-0.548l2.213-0.993l7.035-3.16l0.944-0.176l2.553,0.277l2.004,1.076l0.692,0.165l0.742-0.053l0.998-0.304
		l2.092-1.073l1.336-1.237l0.487-0.339l0.516-0.246l0.53-0.147l1.17-0.051l0.395-0.262l0.247-0.772l0.059-1.265l0.069-0.556
		l0.238-0.654l1.593-3.202l0.597-0.876l0.685-0.715l4.671-3.582l0.616-0.846l0.373-0.401l1.193-0.85l0.402-0.422l1.191-0.971
		l3.97-2.101l0.48-0.109l0.982,0.171l0.483-0.002l0.299-0.135l2.836-2.862l0.464-0.293l0.963-0.297l0.464-0.247l1.448-1.458
		l1.883-1.145l1.983-0.744l1.074,0.164l2.116,1.097l1.106,0.281l4.293-0.625l2.163,0.547l5.603,3.301l0.411,0.412l0.295,0.465
		l0.497,1.042l0.316,0.478l3.376,3.789l3.647,2.726l0.44,0.155l1.434-0.013l0.525,0.155l0.818,0.011l1.602-0.245l2.42,0.57
		l0.756-0.004l0.796-0.256l6.963-4.056l1.88-0.572l1.892,0.02l1.907,0.747l6.324,2.546l0.96,0.873l0.832,1.195L695.871,206.121z"/>
</g>
<g id="Copyright">
	<text transform="matrix(1 0 0 1 681.6426 577.5916)" class="st1 st2">© Vemaps.com</text>
</g>
</svg>
