<?xml version="1.0" encoding="utf-8"?>
<!-- Generator: Adobe Illustrator 23.0.1, SVG Export Plug-In . SVG Version: 6.00 Build 0)  -->
<svg version="1.1" xmlns="http://www.w3.org/2000/svg" xmlns:xlink="http://www.w3.org/1999/xlink" x="0px" y="0px"
	 viewBox="0 0 800 600" style="enable-background:new 0 0 800 600;" xml:space="preserve">
<style type="text/css">
	.st0{fill:#808080;}
	.st1{font-family:'Roboto-Regular';}
	.st2{font-size:14px;}
</style>
<g id="Mexico">
	<path class="st0" d="M526.076,247.997l-0.659,3.564l0.237,1.014l-0.166,0.52l-0.016,1.198l-0.217,0.497l-0.277,0.446l-0.278,1.044
		l-0.627,1.613l-0.855,2.2l-1.353,2.833l-3.26,5.442l-2.249,8.555l-2.249,8.532l-1.322,11.075l-0.088,0.889l-0.115,1.049l-0.2,5.175
		l-0.189,0.441l-0.413,0.165l-1.662-0.165v0.158l0.647-0.01l0.504,0.064l0.327,0.283l0.118,0.646l-0.159,2.343h0.159l0.161-0.694
		l0.113-1.685l0.205-0.756l0.259,0.906l-0.457,5.177l-0.381,2.446l-0.243,4.589l0.612,7.317l-0.268,3.114l0.027-1.464l-0.029-0.411
		l-0.247,0.285l-0.708,2.629l-0.178,0.369l-0.78,0.826l-0.076,0.189l0.018,0.356l-0.115,0.162l-0.159,0.024l-0.625-0.179
		l0.451,0.529l0.055,0.507l-0.802,1.852l-0.089,0.384l0.052,0.358l0.21,0.208l0.278,0.004l0.274-0.145l0.196-0.24l0.017-0.261
		l-0.095-0.778l0.078-0.344l0.235-0.324l0.132,0.014l0.068,0.254l0.042,0.402l-0.011,0.695l-0.466,2.07l0.7,2.562l-0.048,0.733
		l0.101,0.344l0.203,1.273l0.088,0.282l0.143,0.261l0.583,1.65l0.068,3.074l0.251,0.903l3.508,6.553l2.391,2.842l0.424,0.251
		l1.278,1.194l0.244,0.108l0.259,0.36l1.672,1.1l0.608,1.056l-0.068,1.032l-0.338,1.042l-0.202,1.085l-0.131,0.432l-0.653,1.12
		l-0.268,0.349l-0.254,0.445l-0.141,0.57l-0.164,1.142h-0.173l-0.306-1.728l-0.57-1.255l-0.179-0.797l-0.182-0.169l-0.016-0.178
		l0.388-0.438l0.37-0.285l0.476-0.254l0.434-0.095l0.237,0.198l0.24-0.416l0.146-0.379l0.074-0.39l0.02-0.444l-0.204-0.423
		l-0.474-0.409l-0.919-0.626l-1.13-1.028l-0.344-0.607l-1.266-1.315l-1.08-1.615l-0.538-0.437l-0.122-0.251l-0.016-0.313
		l-0.389-1.699l-0.262-0.582l-0.632-0.429l-1.908-3.51l-0.317-0.809l0.096,0.575l0.395,0.913l0.202,0.281l0.167,0.486l0.574,1.376
		l0.166,1.029l0.1,2.102l0.473,1.677l0.363,2.151l0.351,0.974l1.868,3.405l0.365,0.386l0.382,0.208l0.35,0.028l0.34-0.14
		l0.362-0.283l0.262,0.31l-0.031,0.468l-0.231,1.031l0.088,0.514l1.573,3.235l0.029,0.283l0.369,0.131l0.178,0.334l0.172,0.921
		l1.39,3.761l1.633,3.181l1.658,2.943l0.238,0.835l0.214,0.433l-0.125,0.085l-0.115,0.107l-0.238,0.32l1.116,2.296l2.714,3.307
		l0.797,0.719l0.945,0.522l0.456,0.391l0.343,0.968l0.345,0.437l0.637,0.607l1.608,1.945l1.438,1.237l0.444,0.492l0.298,0.705
		l0.233,0.255l0.243,0.211l0.139,0.087l0.252,0.093l0.197,0.221l0.816,1.434l1.542,1.836l1.524,2.404l1.256,1.515l0.375,0.772
		l0.817,2.381l0.268,2.177l0.786,2.909l0.252,0.434l0.788,0.92l0.122,0.478l-0.243,0.598l0.036,0.35l0.336,0.811l0.148,0.937
		l0.189,0.534l0.281,0.445l0.556,0.326l1.937,1.667l0.333,0.222l0.594-0.266l0.229,0.342l0.08,0.584l0.147,0.454l0.222,0.353
		l0.337,1.25l0.26,0.475l0.373,0.435l0.472,0.318l0.563,0.125l0.607-0.01l0.328,0.068l0.16,0.301l0.328,1.737l0.34,0.911
		l0.422,0.773l0.471,0.636l0.837,0.81l0.547,0.388l0.467,0.167l0.376,0.052l0.519,0.141l0.487,0.207l0.291,0.258l0.036,0.178
		l-0.036,0.666l-0.588-0.313l-1.091-0.859l-1.284-0.376l-0.824-0.839l-0.534-0.142l-0.495,0.292l0.522,0.445l0.83,0.396l0.434,0.131
		l0.222,0.451l0.519,0.467l1.013,0.684v0.184l-0.394-0.014l-0.633-0.269l-0.351-0.069l-0.257,0.163l0.1,0.358l0.26,0.357l0.23,0.163
		l0.378-0.02l0.269-0.062l0.542-0.269l0.079-0.099l0.013-0.109l0.07-0.092l0.251-0.036l0.203,0.016l2.464,0.733l0.524,0.092
		l0.432,0.253l0.513,0.476l0.5,0.281l0.39-0.336l-0.933-0.601l-1.543-0.536l-1.264-0.687l-0.104-1.055l1.604,1.208l1.883,0.725
		l2.066,0.353l3.048,0.1l2.091-0.164l1.563,0.031l0.428,0.086l0.398,0.208l0.816,0.732l2.025,1.352l0.304,0.352l0.119,0.514
		l0.212,0.323l0.507,0.213l3.052,0.482l0.395,0.196l1.103,0.105l0.489,0.288l0.415,0.705l0.715,1.885l0.481,0.788l1.525,1.503
		l0.572,0.7l1.108,2.35l0.137,0.038l0.741,0.544l0.291,0.137l0.716,0.074l0.778,0.329l0.666-0.073l0.664-0.156l0.506-0.053
		l0.801-0.315l3.435-0.519l1.689-0.451l0.543-0.316l0.632-0.28l1.794-0.398l0.374-0.337l0.45-0.245l2.596-0.847l-0.16,0.264
		l-0.215,0.228l-0.185,0.257l-0.079,0.342l0.245,0.129l1.871-0.26l0.399-0.13l0.319-0.207l0.195-0.271l0.006-0.228l-0.108-0.166
		l-0.076-0.162l0.099-0.223l0.148-0.132l0.284-0.165l0.127-0.114l0.313,0.087l0.341-0.061l0.332-0.162l0.291-0.215l0.149,0.456
		l0.475,0.076l1.504-0.286l0.272-0.278l0.34-0.808l-0.228-0.561l-0.091-0.11l-0.197,0.024l-0.324,0.106l-0.302,0.149l-0.133,0.147
		l-0.267,0.211l-1.663,0.538l-0.146,0.129l-0.203,0.283l-0.145,0.108l-1.031,0.168l-0.804,0.58l-0.249,0.123l-0.264,0.015
		l-0.266,0.053l-0.257,0.236l0.192-0.464l0.439-0.221l0.442-0.151l0.203-0.255l0.262-0.219l4.33-1.648l1.035-0.233l2.516-0.306
		l3.252,0.095l3.5-0.126v0.153l-0.232,0.377l-0.173,0.194l-0.234,0.116l0.11,0.211l0.046,0.559l0.149,0.223l0.223-0.009l0.356-0.135
		l0.348-0.191l0.203-0.168l-0.021,0.372l-0.264,0.47l-0.034,0.351h0.16l0.336-0.517l0.159-0.171l-0.175-0.153l0.468-0.081
		l0.15-0.361l-0.177-0.397l-0.521-0.183l-0.494-0.096l0.042-0.212l0.366-0.224l0.486-0.126l3.771-0.066l1.964-0.5l1.144-0.691
		l1.109-1.049l0.489-0.678l0.183-0.319l0.1-0.259l0.22-0.112l0.22,0.032l0.099,0.163l0.304,0.773l0.188,2.389l0.306,0.655
		l0.16-0.689l-0.187-0.382l0.02-0.526l0.167-1.026l-0.143-0.51l-0.575-1.134l-0.068-0.323l0.347-0.179l0.577-0.034l1.063,0.06
		l0.511-0.076l2.403-0.582l1.893-0.557l2.627-0.142l2.476-0.232l2.959-0.38l1.889,0.079l0.73,0.178l0.637,0.723l1.259,0.828
		l0.152,0.161v0.296l-0.144,0.282l-0.235,0.203l-0.273,0.062l0.108-0.164l0.066-0.173l-0.276,0.115l-0.291,0.054l-0.637,0.013
		l-0.238-0.11l0.044-0.259l0.08-0.288l-0.133-0.2l-0.169-0.022l-0.143,0.053l-0.462,0.39l-0.108,0.007l-0.108-0.063l-0.213-0.044
		l-0.321,0.065l-0.074,0.139l0.148,0.123l0.335,0.026v0.183l-0.3,0.09l-0.301,0.014l-0.281-0.084l-0.249-0.203l0.044,0.144
		l0.013,0.108l0.03,0.106l0.088,0.147l-0.193,0.163L645.092,435l-0.097,0.223l-0.062,0.269l0.118-0.099l0.377-0.238l0.418,0.346
		l0.23,0.113l0.308,0.061l0.516-0.159l0.314-0.048l0.142,0.114l0.152,0.322l0.374,0.288l0.465,0.212l0.431,0.097l-0.625-0.488
		l-0.653-0.404l-0.495-0.501l-0.143-0.778l0.473,0.237l0.263,0.223l0.294,0.072l0.568-0.209l-0.305,0.504l0.32,0.114l0.308,0.187
		l0.234,0.251l0.097,0.306l-0.334-0.168l-0.024,0.078l0.006,0.06l-0.023,0.033l-0.105-0.003l0.411,0.276l0.928,0.275l0.256,0.291
		l-0.066,0.349l-0.588,0.714l-0.145,0.373l0.19,0.321l0.428,0.428l0.46,0.348l0.285,0.074l0.227-0.392l-0.097-0.354l-0.222-0.377
		l-0.154-0.475l0.191,0.204l0.231,0.12l0.26,0.042l0.277-0.03l-0.245-0.328l-0.337-0.308l-0.203-0.327l0.16-0.383l0.596,0.319
		l1.427,0.387l0.689,0.303l0.436-0.14l1.061,0.27l0.59,0.054l1.132-0.15l0.54-0.145l0.403-0.224l0.034,0.357l0.158,0.249
		l0.219,0.078l0.212-0.163l0.047-0.286l-0.165-0.74l-0.027-0.335h-0.16l-0.036,0.133l-0.089,0.189l-0.034,0.182l-0.251,0.014
		l-0.608,0.281l-0.113-0.128l0.113-0.243l0.524-0.602l0.177-0.164l0.552-0.305l1.324-0.493l0.676-0.395l0.364,0.136l0.413-0.078
		l0.388-0.188l0.285-0.193l0.204-0.268l0.394-0.767l0.128-0.158l0.784,0.066l0.395-0.014l0.171-0.135l0.183-0.252l0.915-0.271
		l0.351-0.251l-0.4-0.165l-0.308,0.047l-0.582,0.301l-1.112,0.306l-0.323,0.199l0.753-1.866l0.021-0.774l-0.47-0.744l-0.391-0.374
		l-0.193-0.087l-0.279-0.028l-0.234,0.067l-0.095,0.156l-0.07,0.165l-0.16,0.102l-0.479-0.134l-0.663-0.873l-0.452-0.174
		l0.318-0.587l0.476-0.544l0.537-0.4l1.09-0.375l0.715-0.524l0.642-0.619l0.37-0.507l-0.552,0.123l-1.522,1.226l-1.525,0.783
		l-0.597,0.521l0.049,0.581l-0.221,0.119l-0.113-0.119l-0.54,0.372l-0.283,0.081l-0.453,0.023l-0.462-0.054l-0.044-0.173
		l0.534-0.644l1.197-0.926l1.502-0.839l1.99-1.272l2.807-1.253l1.917-1.757l0.481-0.242l1.059-0.401l1.826-1.23l1.846-2.356
		l0.482-0.346l0.767-0.263l0.788-0.652l0.629-0.835l0.288-0.816l0.368-4.807l0.22-1.042l0.05-0.513l-0.051-0.551l-0.088-0.402
		l-0.017-0.41l0.156-0.587l0.446-1.037l0.448-0.72l1.351-0.976l2.1-1.501l0.912-1.005l0.224-1.049l0.103-0.337l0.031-0.443
		l-0.108-0.439l-0.706-1.344l-0.067-0.296l0.002-0.221l0.065-0.503l0.017-1.899l0.219-1.244l-0.061-1.385l0.038-0.544l0.295-1.405
		l0.028-0.998l-0.353-2.046l-0.008-1.087l0.537-2.116l0.176-2.414l0.24-0.665l1.306-1.55l0.331-0.583l0.281-1.351l0.588-1.442
		l0.066-0.831h-0.174l-0.318,1.367l-0.418,0.926l-0.061,0.191l-0.108,0.598l-0.298,0.709l-0.455,0.591l-0.574,0.242v-0.171
		l0.465-0.633l1.452-4.523l0.243-0.409l0.404-0.393l2.624-1.651l0.482-0.395l1.539-0.569l0.798-0.683l0.508-0.241l0.28-0.086
		l0.721-0.086l1.232-0.46l1.417-1.047l0.403-0.152l0.418-0.077l2.347-0.871l2.533-0.435h1.858l3.248-0.582l4.438-0.449l1.918-0.566
		l0.928-0.118l0.566,0.171l0.246,0.017l0.232-0.065l0.494-0.227l0.158-0.05l2.002-0.343l1.545-0.465l1.033-0.112l0.45-0.121
		l0.831-0.344l2.833-0.676l0.821-0.542l1.451-1.355l0.456-0.194l1.458-0.166l0.454-0.145l0.853-0.401l0.463-0.125h1.835l0.395,0.082
		l0.8,0.354l0.416,0.08l0.414-0.053l0.756-0.236l1.289-0.134l0.419-0.133l0.312-0.224l0.341-0.138l1.507,0.046l-0.462-0.183
		l-0.563-0.124l-0.551,0.009l-0.807,0.452l-0.939,0.211l-0.19,0.024l0.105-0.213l0.476-0.276l0.519-0.18l0.636-0.115l0.511-0.227
		l0.221-0.051l0.339,0.046l1.025,0.282h2.002l0.546,0.073l1.456,0.628l0.978,0.269l2.057,0.295l1.403,0.397l0.082,0.086l-0.2,0.17
		l-0.238,0.086l-0.295,0.021l-0.285-0.055l-0.219-0.144l-0.354-0.161l-1.641-0.292l-0.492-0.155l0.559,0.459l0.709,0.383
		l0.778,0.262l0.761,0.097h1.603l0.749,0.162l0.384,0.02l0.388-0.183l-0.993-0.046l-0.474-0.125l-0.375-0.251l0.115-0.13
		l1.568,0.208l1.305,0.478l0.536,0.052l0.681-0.034l0.203,0.034l0.082,0.102l0.091,0.18l0.164,0.159l0.302,0.041l-0.162,0.104
		l-0.141,0.06l-0.114-0.021l-0.077-0.143h-0.146l0.215,0.292l0.435,0.035l1.033-0.139l0.504,0.059l1.339,0.456l1.443-0.061
		l0.391,0.154l0.365,0.196l0.438-0.06l1.684-0.744l0.246-0.229l0.307-0.492l0.171-0.222l0.12-0.232l-0.045-0.227l-0.104-0.211
		l-0.057-0.195l0.045-0.202l0.048-0.142l-0.082-0.119l-0.344-0.131l-0.53-0.02l-0.563,0.169l-0.513,0.288l-0.38,0.335l-0.432,0.238
		l-0.559,0.003l-0.568-0.138l-0.457-0.189l-0.16,0.172l-0.13-0.356l-0.016-0.159l-0.372,0.195l-0.61,0.496l-0.468,0.167l0.039,0.11
		l0.012,0.018l0.029-0.003l0.093,0.046l-0.24,0.104l-0.188-0.074l-0.095-0.218l0.03-0.327l0.718-0.608l0.24-0.273l0.161-0.121
		l0.177-0.03l0.555,0.019l0.732,0.129l0.224,0.103l0.489,0.109l0.66-0.195l2.563-1.279l0.531-0.1l1.593,0.536l0.4,0.243l0.661,0.667
		l1.244,1.83l0.106,0.257l0.152,0.201l0.105,0.217l0.103,0.505l0.146,0.164l0.213,0.115l0.253,0.085l0.089-0.306l0.22-0.035
		l0.488,0.167l0.601,0.015l0.253,0.116l0.359,1.267l0.049,0.315l-0.047,0.388l-0.209,0.623l-0.048,0.292l0.014,1.225l0.183,1.623
		l0.564,1.164l1.153-0.145l-0.063,0.237l-0.075,0.143l-0.085,0.124l-0.502,1.127l-0.107,0.176l-0.299,0.679l0.027,0.159l0.12,0.237
		l0.027,0.126l-0.027,0.202l-0.071,0.021l-0.103-0.027l-0.119,0.059l-0.141,0.1l-0.357,0.128l-0.139,0.114l-0.1,0.188l-0.051,0.205
		l-0.023,0.547l-0.052,0.29l-0.413,1.334l-0.569,1.311l-0.004,0.256l-1.587,2.319l-2.176,2.473l-0.477,0.82l-0.249,0.28
		l-1.289,0.813l-0.361,0.37l-0.989,0.615l-1.275,1.362l-2.779,4.129l-0.267,0.823l-0.305,0.073l-0.146,0.17v0.219l0.132,0.217
		l-0.725,0.508l-0.477,0.629l-0.316,0.744l-0.512,1.976l-0.126,1.063l0.083,2.094l0.171,0.558l0.529,1.016l0.112,0.539l-0.028,0.264
		l-0.195,0.898l-0.122,0.103l-0.157,0.046l-0.151,0.139l-0.312,1.104l-0.129,0.316l-0.068-1.023l0.023-0.277l0.08-0.12l0.264-0.023
		l0.154-0.177l0.188-0.061l0.118-0.248l0.049-0.307l0.031-0.973l-0.415-0.38l-0.107-0.237l-0.036-0.401l-0.076-0.192l-0.164-0.067
		l-0.164,0.063l-0.076,0.196l0.042,0.197l0.201,0.206l0.077,0.182l0.086,0.794l-0.014,0.353l-0.071,0.225l0.117-0.119l0.108-0.085
		l0.24-0.135l-0.987,1.482l-0.203,0.215l-0.114,0.097l-0.163,0.197l-0.182,0.156l-0.18-0.025l-0.213-0.218l-0.178-0.122
		l-0.168,0.068l-0.18,0.358l-0.359,0.036l-0.478,0.686l-0.418,0.857l-0.243,0.703l-0.417,0.768l-0.275,0.814l-0.211,0.275
		l-0.297-0.055l0.256-0.156l0.24-0.327l0.108-0.382l-0.139-0.321l-0.242,0.047l-1.255-0.004l-0.245-0.043l-0.152,0.3l-0.071,0.494
		l-0.003,0.526l0.053,0.389l0.247,0.357l0.672,0.427l0.051,0.233l0.174,0.094l0.23,0.064l0.263,0.021l0.277-0.026l-0.145,0.379
		l-0.068,0.722l-0.106,0.438l0.453-0.044l0.299-0.262l0.248-0.365l0.29-0.343l0.263-0.15l0.672-0.218l0.326-0.156l0.651,0.186
		l0.494,0.305l0.144,0.034l0.151-0.085l0.049-0.156l0.032-0.165l0.086-0.119l0.21-0.001l0.154,0.124l0.135,0.062l0.154-0.186
		l0.088,0.065l0.053,0.055l0.062,0.038l0.103,0.028l-0.305,0.153v0.186l0.616-0.174l0.342-0.493l0.023-0.46l-0.342-0.073l0.14,0.27
		l0.009,0.174l-0.23,0.08h-0.717l-0.647-0.1l-0.303-0.094l-0.326-0.145l0.477-0.021l1.436,0.19v-0.169l-0.041-0.156l0.18-0.62
		l0.023-0.424l0.449,0.896l0.198,0.551l-0.084,0.244l-0.161,0.242l-0.229,1.636l-0.255,0.482l-0.339,0.435l-0.387,0.315
		l-0.397,0.121l-0.154,0.091l-0.645,0.678l-0.202,0.108l-0.842,0.139l0.426-0.128l0.167-0.244l0.068-0.309l0.135-0.336l-0.818,0.235
		l-1.074,0.557l-0.888,0.798l-0.266,0.962h0.162l0.174-0.508h0.144l-0.196,0.392l-0.339,0.393l-0.15,0.297l0.367,0.103l-0.491,1.034
		l-0.157,0.573l0.256,0.253l0.426,0.109l0.224,0.17l0.236-0.007l0.477-0.427l0.608-0.744l0.247-0.442l0.101-0.427l0.245-0.342
		l0.569-0.163l1.1-0.094l-0.478,1.016l0.28-0.241l0.24-0.327l0.304-0.254l0.468-0.023v0.168l-0.466,0.237l-0.376,0.379l-0.609,0.906
		l-0.243,0.602l-0.27,1.325l-0.285,0.453l0.194,0.574l-0.316,0.765l-0.501,1.209l-0.522,0.811l-0.464,3.238l-0.84,3.025
		l-0.421,0.699l-0.549,0.661l-0.464,0.753l-0.319,0.894l-0.118,1.077l0.12,1.091l-0.053,0.52l-0.306,0.507l-0.133,0.392
		l-0.106,1.726l-0.202,0.566l-1.127,1.669l-0.121,0.362l-0.073,0.368l-0.319,0.771l-0.073,0.382v1.611h-0.173l-0.044-0.657
		l-0.116-0.534l-0.378,0.478l-0.285-0.108l-0.089-0.332l0.201-0.19l0.19-0.28l0.137-0.624l0.071-0.643l-0.007-0.331l-0.079,0.251
		l-0.121,0.244l-0.137,0.216l-0.127,0.158l-0.139-0.292l0.074-0.234l0.143-0.268l0.067-0.397l-0.056-0.033l-0.342-0.396
		l-0.011-0.115l0.024-0.211l-0.002-0.238l-0.09-0.198l-0.65-0.144l-0.06-0.024l-0.12-0.102l0.034-0.208l0.099-0.182l0.072-0.01
		l-0.093-0.4l-0.109-0.26l-0.231-0.14l-0.458-0.042l-0.623-0.158l-1.221-0.693l-0.556-0.157l-0.243-0.177l-0.057-0.385l0.035-0.377
		l0.034-0.156l0.782-0.927l-0.157-0.551l0.248-0.524l0.362-0.476l0.185-0.409l0.051-0.221l0.231-0.395l0.051-0.302l-0.051-0.027
		l-0.116-0.117l-0.115-0.15l-0.051-0.126l0.029-0.158l0.06-0.148l0.06-0.099l0.026-0.017l0.123-1.016l-0.018-0.528l-0.192-0.415
		l-0.249-0.357l-0.16-0.421l-0.141-0.984l-0.54,0.447l-0.578,0.632l-0.462,0.705l-0.19,0.665l-0.049,0.352l-0.127,0.42l-0.182,0.353
		l-0.208,0.147l-0.157-0.182l0.062-0.434l0.131-0.501l-0.072,0.181l-0.266,0.301l-0.414,0.112l-0.56,0.018l-0.186,0.118l-1.005,0.89
		l-0.14,0.187l-0.11,0.221l-0.069,0.268l0.462-0.194l0.462-0.375l0.4-0.473l0.273-0.489l0.146,0.428l-0.11,0.311l-0.171,0.325
		l-0.04,0.467l0.125-0.196l0.197-0.233l0.237-0.187l0.241-0.058l0.227,0.129l-0.145,0.184l-0.263,0.154l-0.124,0.039l-0.564,1.186
		l-0.548,0.725l-0.644,1.212l-0.103,0.391l-0.509,0.762l-0.2,0.453l-0.285,0.05l-0.098,0.048l-0.096,0.084v0.066l-0.133-0.023
		l-1.447,0.012l-0.178,0.052l-0.136,0.076l-0.137,0.023l-0.177-0.109l-0.225-0.218l-0.123-0.045l-0.158,0.043l-0.254,0.129
		l-0.467,0.17l-0.206,0.029l-0.241-0.069l-0.216-0.121l-0.235-0.027l-0.723,0.565l-0.178,0.183l-0.122,0.267l-0.125,0.745
		l-0.211,0.592L726.753,440l-0.081,0.283l-0.289,0.461l-0.722,0.838l-0.225,0.396l-0.088,0.418l-0.039,0.389l-0.021,0.087
		l-0.068,0.285l-0.235,0.372l-0.278,0.214l-0.682,0.329l-0.665,0.496l0.086,0.071l0.08,0.342l-0.078,0.276l-0.581,0.983
		l-0.064,0.245l-0.071,0.555l-0.074,0.265l-0.228,0.364l-0.28,0.212l-0.319,0.188l-0.347,0.292l-0.111,0.222l-0.335,0.961
		l-0.22,0.26l-1.193,0.901l-0.104,0.176l-0.106,0.543l-0.14,0.198l-0.209,0.061l-0.938-0.552l-0.3-0.231l-0.321-0.691l-0.222-0.051
		l-0.265,0.056l-0.278-0.029l-0.393-0.305l-0.35-0.392l-0.385-0.35l-0.5-0.175l-1.942,0.711l-0.499,0.717l-0.174,0.973l0.02,2.139
		l-5.136-0.005l-5.138-0.005l-5.138-0.006l-5.135-0.004l-5.138-0.005l-5.136-0.006l-5.136-0.005l-5.138-0.005h-1.007l-0.482,0.134
		l-0.188,0.211l-0.013,6.745l-0.013,6.734l-10.253-0.075l-0.175,0.032l-0.099,0.384l0.543,0.25l0.722,0.15l0.36,0.196l0.188,0.583
		l0.476,0.083l0.625-0.101l0.639,0.034l0.255,0.22l0.203,0.387l0.133,0.441l0.047,0.379l0.092,0.157l0.477,0.125l0.215,0.128
		l0.099,0.171l0.12,0.433l0.1,0.246l0.215,0.339l0.831,0.913l0.233,0.099l0.563-0.062l0.247,0.047l0.124,0.152l0.12,0.467
		l0.091,0.215l0.825,1.001l0.132,0.259l0.104,0.506l0.279,0.249l0.894,0.322l0.135,0.111l0.293,0.32l0.123,0.068l0.229-0.103
		l-0.024-0.223l-0.086-0.223l0.04-0.102l0.407,0.001l0.319,0.055l0.057,0.192l-0.377,0.404l0.484,0.236l0.68,0.693l0.431,0.252
		l1.61,0.502l0.275,0.003l0.219-0.185l0.319,0.183v0.165l-0.08,0.289l0.345,0.289l0.837,0.422l0.338,0.271l1.579,2.293l0.32,0.877
		l-0.308,0.571v0.151l0.196-0.035l0.122-0.04l0.078-0.081l0.068-0.163l0.318,0.193l-0.076,0.348l-0.152,0.412l0.083,0.394
		l-0.192,0.372l0.203,0.091l0.359,0.023l0.269,0.166l0.013,0.256l-0.162,0.184l-0.208,0.175l-0.122,0.233l0.289-0.083l0.376,0.014
		l0.328,0.068l0.138,0.077l0.126-0.062l0.606-0.183l0.227,0.001l0.109,0.52l0.144,0.218l0.56-0.272l0.261,0.074l0.223,0.157
		l0.138,0.135l0.122,0.269l-0.031,0.209l0.06,0.138l0.735,0.096l0.24,0.107l0.173,0.115l0.138,0.063l0.265-0.038l0.207-0.094
		l0.133,0.033l0.047,0.35l0.005,0.32l0.031,0.14l0.269,0.456l-0.357-0.101l-0.318-0.023l-0.221,0.126l-0.06,0.345h0.159v-0.181
		h0.159l0.196,0.313l-0.138,0.391l-0.345,0.333l-0.43,0.14l-0.164,0.091l0.237,0.174l0.34,0.127l0.144-0.058l-0.001,0.257
		l-0.144,0.06l-0.194-0.055l-0.138-0.096l-0.024,0.068v0.062l-0.029,0.034l-0.106-0.013l0.088,0.13l0.143,0.271l0.088,0.129
		l-0.302-0.042l-0.073-0.038l-0.103-0.103l-0.264,0.293l0.037,0.241l0.23,0.186l0.316,0.126l-0.275,0.133l-0.287,0.221l-0.165,0.332
		l0.088,0.462l0.68,0.387l0.154,0.245l-0.514,0.212v0.151l0.3,0.29l-0.565,0.474l0.091,0.415h0.174l0.085-0.085l0.042-0.023
		l0.059-0.016l0.134-0.057l-0.069,0.202l-0.158,0.346l-0.086,0.121l-0.008,0.01l-0.42,0.154l-0.458,0.054l-2.097,0.003l-3.221,0.006
		l-3.221,0.005l-3.222,0.006l-0.136,0l-3.087,0.002l-3.222,0.006l-3.221,0.005l-3.222,0.004l-3.223,0.006l-1.06,0.003l-0.376,0.19
		l-0.281,0.357l-0.528,0.921l-0.432,0.75l-1.138,1.98l-1.61,2.797l-1.847,3.204l-1.845,3.203l-0.874,1.515l-0.736,1.276
		l-1.139,1.974l-0.432,0.748l-0.155,0.422l0.008,0.453l0.177,0.392l3.027,3.957l-0.463,1.072l-0.239,0.279l-0.307,0.133
		l-0.301,0.035l-0.292,0.084l-0.277,0.279l-0.078,0.796l0.068,1.505l-0.265,0.725l-0.485,0.57l-0.114,0.289l0.019,0.509l0.051,0.202
		l0.217,0.596l0.013,0.19l-0.03,0.353l0.017,0.174l0.412,1.19l0.022,0.455l-0.092,0.371l-0.499,0.932l-0.514,1.426l-0.421,0.511
		l-0.471,0.074l-0.105-0.107l-1.289-1.553l-1.779-1.68l-2.939-2.958l-4.487-4.643l-2.921-3.305l-0.368-0.618l0.004-0.503
		l0.384,0.222l1.008,0.338l0.204,0.206l0.046,0.45l0.144,0.455l0.254,0.352l0.368,0.141l-0.251-0.493l-0.191-0.996l-0.282-0.42
		l-0.323-0.204l-0.484-0.204l-0.499-0.106l-0.377,0.095l-0.064-0.414l-0.254-0.064l-0.133,0.174l0.305,0.304l-0.394-0.056
		l-1.39-1.116l-0.953-0.402l-0.453-0.285l-0.352-0.688l-1.867-1.325l-2.148-2.429l-0.422-0.695l-0.269-0.326l-0.678-0.263
		l-5.659-4.824l-0.405-0.199l-3.923-3.165l-2.41-1.625l-4.304-2.538l0.285-0.134l0.563,0.04l0.268-0.072l0.153,0.267l0.258,0.025
		l0.296-0.164l0.265-0.309l-0.465-0.576l-0.264-0.542l-0.3-0.44l-0.581-0.267l-2.796-0.617l-0.727-0.38l-0.23-0.193l-0.445-0.371
		l-0.32-0.365l-0.136-0.324l-0.132-0.691l-0.341-0.144l-0.463,0.172l-0.499,0.255l-0.949,0.137l-0.993-0.285l-0.944-0.544
		l-0.799-0.638l-0.52-0.565l-0.33-0.203l-0.505-0.079l-0.42,0.149l-0.042,0.36l0.088,0.437l-0.026,0.385h-0.16l-0.212-0.118
		l-0.099,0.079l0.037,0.143l0.194,0.077l0.29,0.06l-0.008,0.133l-0.205,0.116l-0.317,0.024l2.135,1.453l1.235,0.535l0.633-0.176
		l-1.77-0.664v-0.152l0.607,0.035l0.947,0.359l0.448,0.09l0.598-0.031l0.246,0.048l0.359,0.164l0.798,0.483v0.181h-0.32v0.166
		l1.654,0.359l0.716,0.265l0.596,0.462l0.614,0.876l0.262,0.211l0.79,0.319l0.344,0.199l0.157,0.299l-8.877-3.653l-0.339-0.258
		l-0.792-0.47l-1.107-0.222l-2.185-0.062h0.16l-1.247-0.012l-0.61-0.09l-0.39-0.214l-0.398,0.161l-0.478,0.042l-0.959-0.039
		l-0.501-0.099l-0.154-0.237l0.11-0.279l0.291-0.23l2.021-0.638l0.893-0.631l0.147-1.073l-0.247-0.262l-0.907-0.267l-0.362-0.213
		l-0.203-0.162l-0.188-0.044l-0.177,0.038l-0.164,0.077l-0.076,0.384l-0.069,0.116l-0.125,0.062l-0.275,0.074l-0.093,0.045
		l-0.266,0.241l-0.15,0.176l0.025,0.082l-0.653,0.331l-0.333,0.124l-0.388,0.618l-0.309,0.256l-0.261-0.428l-0.098-0.273
		l0.026-0.296l0.252-0.233l0.362-0.205l0.197-0.257l-0.245-0.39l-0.337-0.369l-0.1-0.27l-0.022-0.266l-0.107-0.353l-0.163-0.202
		l-0.297-0.276l-0.328-0.247l-0.257-0.105l-0.621,0.104l-0.539,0.286l-0.459,0.427l-1.021,1.514l-0.231,0.163h-1.363l0.137,0.437
		l-0.189,0.146l-0.281,0.045l-0.146,0.135l-0.265,0.412l0.031,0.244l0.468,0.176l1.039,0.243l0.812,0.081l0.796-0.049l0.666-0.049
		l0.293-0.033l0.483-0.111l0.225-0.166l0.407-0.469l0.181-0.045l0.142,0.37l-0.718,0.342l-0.991,0.238l-0.682,0.062l0.794,0.233
		l2.122-0.066l0.682,0.257l0.347,0.552l-0.127,0.128l-1.219-0.364l-1.794,0.048l-1.234,0.244l-1.03,0.127l-0.592,0.149l-1.103,0.163
		l-0.876-0.016l-0.47-0.097l-0.308,0l-0.308,0.033l-0.146,0.13l0.033,0.146l0.114,0.178l-0.275,0.123l-0.633-0.106l-0.243,0.227
		l-0.405,0l-0.406,0l-0.324,0.26l-0.032,0.324l-0.47,0.146l-0.292,0.227l0.016,0.259l-0.097,0.097l-0.307,0.065l-0.179,0.194
		l-0.746,0.114l-0.373,0.227l-0.583,0.779l0.13,0.486l-0.276,0.146l-0.344,0.308l-0.616,0.228l-0.064,0.34l-0.145,0.243
		l-1.362,0.018l-0.096,0.227l-1.764,0.199l-0.21,0.292l-0.647,0.083l-0.129,0.308l-1.116,0.424l-1.018,0.066l-0.632,0.132
		l-0.518,0.099l-0.372,0.212l-0.178,0.146l0.001,0.275l-0.518,0.067l-0.518,0.132l-0.587,0.165l-0.722,0.18l-0.21,0.179
		l-1.681,0.379l-0.193,0.26l-0.824,0.214l-0.646,0.391l-0.501,0.116l-0.61,0.423l-0.294,0.034l-0.112,0.162l-0.242,0.115
		l-0.244-0.112l-0.257,0.228l0.052,0.356l-1.839,0.835l-0.757,0.49l-1.18-0.059l-1.746,0.044l-0.923-0.188l-0.696-0.101
		l-0.359,0.338l-0.556,0.236l-0.37,0.277l-0.438,0.067l-0.501-0.045l-0.534-0.109l-0.16,0.131l-1.346-0.507l-1.574-0.716
		l-2.868-0.543l-0.968-0.019l-1.999-1.216l-1.428-0.423l-0.713-0.172l-0.636-0.528l0.096-0.082l-0.395-0.659l-0.323,0.067
		l-0.618-0.302l-1.358-0.843l-1.056-0.387l-1.406-0.395l-0.448,0.009l-1.409-0.25l-0.539,0.274l-2.119-0.253l-1.646-0.564
		l-0.648,0.145l-1.371-0.325l-1.026-0.022l-0.305,0.175l-0.203,0.173l-0.857-0.161l-1.269-0.259l-0.448-0.2l-0.45-0.371
		l-0.574-0.185l-0.241-0.201l-0.2-0.154l-0.155-0.088l-0.377-0.274l-1.567-1.151l-0.862-0.535l-2.429-1.355l-0.85-0.271
		l-0.761-0.342l-0.42-0.46l1.378,0.401l0.725,0.083l0.319-0.318l-0.348,0.039l-0.326-0.247l-0.314-0.187l-0.304,0.229l-0.468-0.205
		l-0.489-0.128l-0.017-0.047l-0.068-0.11l-0.103-0.113l-0.132-0.062l0.004,0.057l-0.111,0.113l-0.163,0.112l-0.151,0.051
		l-0.456-0.044l-2.333-0.755l-3.026-0.546l-1.479-0.544l-0.542-0.222l-0.318-0.069l-0.174-0.057l-0.04-0.086l-0.32-0.139
		l-0.069-0.076l0.087-0.001l0.066-0.097l-0.042-0.23l-0.375-0.489l-0.86-0.759l-1.843-1.709l-0.87-1.266l-0.677-0.711l-0.09-0.191
		l-0.204-0.103l-0.338,0.025l-0.349-0.09l-0.181,0.109l-0.178,0.007l-0.225,0.079l-0.348,0.08l-0.132,0.166l-0.083,0.204
		l-0.027,0.077l-0.765-0.178l-0.413,0.017l-0.922-0.377l-4.612-1.478l-3.816-1.014l-1.568-0.376l-2.81-0.435l-1.459-0.049
		l-1.132,0.122l-0.717-0.179l-0.636-0.197l-0.604-0.214l-0.675-0.319l-0.542-0.259l-1.263-0.999l-0.611-0.445l-0.145,0.022
		l-0.123,0.157l-0.256-0.085l-0.095-0.142l-0.239-0.103l0.198-0.095l0.249,0.13l0.077-0.183l-0.113-0.161l-0.155-0.033l-0.135,0.085
		l-0.201-0.05l-0.182,0.004l-0.176-0.168l0.153-0.058l0.041-0.201l0.141-0.212l0.109,0.016l0.144-0.058l0.015-0.164l-0.167-0.204
		l-0.201-0.104l-0.338-0.074l-0.38,0.144l-0.243,0.159l0.04,0.19l0.217-0.068l0.129,0.097l-0.195,0.213l-0.327,0.035l-0.149-0.169
		l-0.115-0.531l-0.171-0.107l-0.558-0.559l-0.075-0.233l-0.753-0.417l-1.724-0.613l-1.163-0.326l-1.208-0.461l-1.597-0.588
		l-1.976-0.769l-5.72-2.02l-2.067-0.704l-1.405-0.441l-1.562-0.693l-1.259-0.448l-1.546-0.45l-1.299-0.483l-1.23-0.394l-0.808-0.422
		l-0.379,0.146l-0.142-0.288l0.267-0.165l-0.032-0.487l-0.426-0.446l-0.742-0.721l-1.559-0.967l-0.244-0.557l-1.889-1.07
		l-1.947-0.71l-1.106-0.517l-1.449-0.492l-0.025-0.27l0.319-0.049l0.058-0.436l-0.186-0.323l-0.221-0.319l-0.896-0.762l-0.686-0.098
		l-0.637,0.172l-0.098-0.344l-0.294,0l-0.221-0.269l-0.369,0.025l-0.098-0.441l-0.368-0.171l-0.687-0.195l-0.074-0.907l-0.566-0.858
		l-0.615-0.417l-1.106-0.858l-0.252-0.605l-0.341-0.304l-0.049-0.466l-0.889-1.032l-1.054-0.472l-0.344-0.146l-1.427-0.857
		l-1.353-0.6l-1.095-0.391l-1.49,0.205l-0.22,0.418l-0.466,0.346l-0.367,0.419l-0.392,0.223l-0.319,0.198l-0.344,0.026l-0.911-0.414
		l-1.379-0.706l-3.089-0.894l-1.269-0.486l-0.91-0.069l-1.945-0.7l-2.197-0.188l-1.192-0.252l-3.204-1.356l-2.19-1.084l-1.198-0.482
		l-0.825-0.042l-1.256-0.112l-0.275-0.342l-0.367,0.102l-1.876-0.794l-0.418,0.053l-1.233-0.43l-0.393-0.241l-0.816-0.288
		l-0.42,0.102l-0.422-0.291l-1.039-0.604l-1.735-0.746l-0.578-1.053l-1.214-2.858l-0.838-0.958l-0.194-0.142l-0.228-0.272
		l-0.35-0.269l-0.424-0.292l-0.721-0.436l-0.32-0.069l-0.077-0.246l0.556-0.675l-0.326-0.636l-0.799-0.706l-1.4-1.438l-3.713-2.666
		l-0.626-0.634l-2.588-1.318l-2.1-1.065l-1.417-0.498l-0.721-0.261l-0.522-0.19l-0.497-0.166l-0.373-0.142l0.062-0.767l0.518-0.083
		l0.17-0.225l-0.105-0.394l-0.575-0.436l-0.273-0.045l-0.243,0.251l-0.125-0.097l0.043-0.421l-0.324-0.143l-0.419,0.056l-0.17,0.176
		l0.08,0.37l-0.197,0.053l-0.177-0.22l-0.229-0.137l-0.262,0.343l-0.293,0.252l-0.281-0.564l-0.815-0.352l-0.406-0.272l-2.074-0.493
		l-1.016-0.242l-0.863-0.426l-0.258-0.171l-0.111-0.263l-0.074-0.333l-0.191-0.069l-0.259,0.024l-0.274-0.052l-0.174-0.163
		l-0.026-0.141l-0.049-0.116l-0.244-0.087l-0.16,0.011l-0.637,0.157l-0.504,0.015l-0.169-0.112l0.048-0.664l0.134-0.674
		l-0.054-0.288l-0.334-0.121l-0.237,0.051l-0.376,0.222l-0.178,0.05l-0.224-0.038l-0.165-0.046l-0.149,0.04l-0.186,0.229
		l-1.807-0.964l-0.836-0.598l-0.549-0.651l-0.271-1.149l-0.248-0.514l-0.719-0.301l-0.009-0.21l0.115-0.465l-0.06-0.258
		l-0.141-0.191l-0.159-0.156l-0.118-0.155l-0.041-1.373l-0.682-0.607l-0.309-0.022l-0.297,0.085l-0.21-0.028l-0.44-0.448
		l-0.444-0.315l-1.427-1.269l-1.111-1.303l-1.247-2.133l-0.696-0.735l-0.163-0.455l-0.258-0.315l-0.682-0.603l-0.302-0.426
		l-0.587-1.091l-1.378-2.029l-0.141-0.465l-0.05-0.278l-0.22-0.466l-0.049-0.276v-1.097l-0.184-1.638l-0.134-0.416l-0.181-0.228
		l-0.404-0.258l-0.214-0.195l-0.366-0.681l-0.462-0.675l-0.633-0.329l-0.461-0.984l-0.347-0.803l-0.197-0.549l0.364-0.417
		l2.512-1.598l1.047-0.136l1.644,0.014l0.337-0.091l0.394-0.241l1.623-0.163l0.724-0.031l0.649-0.452l0.325-0.451l0.475-0.191
		l0.265-0.325l0.274-0.323l0.16-0.471l0.059-0.841l-0.453-0.5l-0.704-0.347l-0.617-1.428l-0.731-0.685l-0.468-0.203l-0.188,0.193
		l-0.439,0.388l-0.527,0.137l-0.726-0.368l-0.85-0.069l-0.836-0.471l-0.438,0.347l-0.281-0.291l0.228-0.258l0.27-0.28l0.213,0.038
		l0.234,0.08l0.419-0.283l0.258-0.604l0.212-0.357l0.16-0.532l0.101-0.277l0.145-0.151l0.214,0.041l0.351-0.454l0.49-0.985
		l0.773-0.629l0.295-0.091l0.164-0.322l0.397-0.368l0.202-0.441l0.161-0.362l0.211-0.332l0.253-0.091l0.173,0.189l0.276,0.017
		l0.212,0.018l0.481-0.457l0.366-0.436l0.093-0.744l-0.054-0.657l-0.155-0.358l0.223-0.598l-0.076-0.699l0.394-0.537l-0.225-1.993
		l-0.408-1.46l0.295-1.168l0.251-0.474l0.394-0.684l0.419-0.208l-0.039-0.26l-0.215-0.484l-0.099-0.507l-0.182-0.325l-0.227-0.287
		l-0.293-0.193l-0.32-0.059l-0.143,0.321l-0.318,0.026l-0.41-0.376l-0.902-0.431l-1.677-1.099l-0.53-0.297l-0.802-0.752
		l-0.339-1.016l-2.021-3.993l-1.937-3.162l-0.386-0.922l-0.198-1.385l0.224-3.616l-0.172-1.658l-0.632-2.285l-0.564-1.885
		l-0.324-1.304l-0.295-0.787l0.375-0.256l-0.161-0.359l-0.208-0.331l-0.222-0.117l-0.206,0.29h-0.16l-0.219-1.414l-0.776-1.214
		l-1.892-1.883l-1.035-1.352l-0.399-0.394l-0.98-0.616l-0.152-0.155l-0.045-0.083l-0.1-0.084l-0.104-0.115l-0.056-0.175l0.465-0.676
		l-0.319,0.057l-0.289,0.141l-0.265,0.21l-0.244,0.267l-4.401-5.629l-0.197-0.155l-0.429-0.152L313,322.405l-0.455-0.372
		l-2.185-2.549l-0.406-0.218l-0.28,0.063l-0.231,0.163l-0.217,0.096l-0.244-0.133l-0.046-0.205l0.046-0.947l-0.125-0.353
		l-0.831-1.29l-0.379-0.323l-0.057-0.174l0.29-0.198l-0.036-0.155l-0.066-0.141l-0.095-0.127l-0.028-0.025l-0.847-1.721l-0.299-0.28
		l-0.399-0.127l-0.437-0.301l-0.945-0.859l-0.108-0.124l-0.119-0.17l-0.255-0.616l-0.185-0.3l-0.611-0.311l-0.348-0.425l-0.516-0.8
		l-0.679-0.757l-0.421-0.316l-0.996-0.342l-0.253-0.518l-0.218-1.199l-0.307-0.461l-0.426-0.455l-0.379-0.501l-0.288-1.101
		l-0.67-1.235l-3.128-3.429l-1.145-0.877l-0.451-0.172l-0.299-0.19l-1.232-1.209l-3.349-2.301l-1.514-1.038l-0.258-0.269
		l-0.096-0.61l-0.266-0.291l-0.915-0.404l-0.875-0.645l-1.457-1.364l-5.417-3.358l-0.405-0.426l-0.171-0.465l0.068-0.27l0.16-0.009
		l0.187,0.128l0.15,0.151l0.069,0.118l0.025,0.133l-0.006,0.292l0.06,0.044l1.837,1.022l0.242,0.066l3.24,2.102l0.361,0.175
		l0.26,0.16l0.394,0.207l-0.254-0.222l-0.69-0.43l-0.347-0.223l0.085-0.252l0.442,0.199l0.764,0.577l0.03-0.082l0.087-0.152
		l0.029-0.098l-0.077-0.005l-0.165,0.016l-0.077-0.01l0.242-0.298l0.234-0.196l0.16-0.262l0.017-0.488l-0.1-0.353l-0.874-2.016
		l-0.245-0.271l-0.392-0.181l-0.396-0.044l-0.375,0.079l-0.309,0.192l-0.211,0.299l0.33,0.077l0.623-0.245l0.178,0.167l-0.099,0.23
		l-0.621,0.631l-0.237,0.191l-0.699,0.231l-0.422-0.301l-0.342-0.485l-0.465-0.322l-0.46,0.295l-0.179,0.056l-0.179-0.032
		l-0.165-0.081l-0.474-0.383l-0.138-0.22l-0.051-0.161l-0.025-0.343l-0.084-0.182l-0.147-0.135l-0.339-0.132l-0.151-0.085
		l-0.967-1.001l-0.288-0.091l-0.355,0.216l-0.445-0.46l-0.512-0.4l-0.553-0.28l-0.564-0.107l0.102,0.272l0.18,0.186l0.357,0.262
		l0.725,0.797l0.394,0.326l0.996,0.583l0.294,0.397l-0.64-0.161l-1.745-1.096l-2.024-1.812l-0.223-0.345l-0.091-0.397l-0.106-0.942
		l-0.133-0.438l-0.212-0.465l-0.257-0.368l-0.262-0.151l-0.103-0.082l-0.098-0.182l-0.037-0.182l0.086-0.082l0.255,0.029
		l0.223,0.084l0.407,0.254l0.181,0.175l0.378,0.27l0.374,0.027l0.17-0.56l-0.11-0.464l-0.262-0.459l-0.319-0.369l-0.28-0.203
		l0.288-0.279l0.031-0.411l-0.146-0.909l0.034-0.406l0.103-0.336l0.342-0.665l-0.265-0.371l-0.924-0.79l-0.294-0.077l-0.011,0.486
		l0.297,1.379l0.063,0.137l0.034,0.15l-0.001,0.333l-0.15,0.825l-0.054,0.892l-0.071,0.277l-0.139,0.115l-0.152-0.014l-0.11-0.049
		l-0.095-0.084l-0.114-0.125l-0.174-0.106l-0.071,0.125l-0.049,0.182l-0.11,0.07l-0.858-0.551l-0.729-0.99l-1.835-3.747
		l-0.553-0.721l-0.825-0.708l-0.455-0.223l-0.225-0.183l-0.131-0.3l0.505-0.004l0.525,0.116l0.412,0.257l0.169,0.425l1.436,1.69
		l0.26,0.73l0.073,0.133l0.135,0.018l0.143-0.063l0.118-0.082l0.068-0.034l0.445,0.305l0.122,0.047l0.2-0.073l0.066-0.191
		l-0.021-0.544l-0.089-0.362l-0.22,0.004l-0.266,0.075l-0.236-0.156l0.019-0.158l0.234-0.448l0.082-0.112l0.196-0.192l0.091-0.059
		l0.085,0.092l0.178,0.253l0.468,0.507l0.386,0.191l0.989,0.12l0.783,0.335l0.197-0.196l0.071-0.296l-0.043-0.27l-2.416-2.206
		l-0.295-0.169l-0.387-0.033l0.184,0.204l-0.021,0.158l-0.179,0.107l-0.287,0.059l-0.296-0.055l-0.262-0.185l-0.416-0.464
		l-0.503-0.913l-0.134-0.161l-0.318,0.034l-0.243,0.179l-0.243,0.12l-0.327-0.14l-0.312,0.19l-0.608,0.036l-0.65-0.103l-0.425-0.221
		l-0.1-0.792l0.02-0.169l0.167,0.05l0.537,0.365l0.254,0.115l-0.07-0.341l-0.006-0.75l-0.069-0.334l-0.21-0.264l-0.549-0.259
		l-0.199-0.199l-0.576,2.775l-0.308,0.431l-0.035-0.235l0.108-1.138l-0.001-0.407l-0.211-0.508l-0.323-0.396l-0.375-0.301
		l-0.368-0.221l-2.416-0.993l-1.398-0.919l-0.941-0.268l-0.987-0.125l-0.827,0.01l0.545-0.406l0.964,0.079l1.711,0.504l-0.565-0.276
		l-0.909-0.783l-0.702-0.162l-1.246,0.404l-0.589,0.051l-0.326-0.455l0.959-0.015l0.205-0.179l-0.279-0.44l-0.096-0.208l0.007-0.2
		l-0.029-0.152l-0.208-0.059l-0.095,0.048l-0.273,0.228l-0.189,0.077l0.232-0.813l0.054-0.363l0.017-1.217l-0.052-0.375
		l-0.142-0.032l-0.2,0.1l-0.229,0.032l-0.812-0.336l-0.029-0.067l-0.025-0.126l-0.057-0.121l-0.129-0.056l-0.14,0.03l-0.221,0.12
		l-0.118,0.027l-0.419-0.074l-0.297-0.095l-0.159,0.079l-0.002,0.444l0.081,0.276l0.12,0.159l0.098,0.168l0.021,0.297l-0.048,0.3
		l-0.072,0.183l-0.112,0.139l-0.167,0.164l-0.375,0.272l-0.323,0.029l-0.278-0.185l-0.236-0.371l0.108,0.027l0.157-0.067
		l0.068-0.139l-0.16-0.191l-0.178-0.045l-1.169,0.102l-0.325,0.171l-0.07,0.281l0.293,0.392l-0.664,0.055l-0.74-0.513l-1.164-1.327
		l0.508-0.233l0.144-0.103l0.145-0.244l0.108-0.303l0.162-0.259l0.297-0.109l0.791,0.3l0.18-0.021l0.254-0.105l0.168,0.24
		l0.13,0.502l0.221,0.128l0.063-0.006l0.043-0.161l0.165-0.331l0.023-0.118l-0.041-0.306l0.018-0.121l0.09-0.107l0.184-0.045
		l1.244-1.258l0.238-0.361l0.024-0.143l-0.047-0.095l-0.036-0.104l0.059-0.172l0.072-0.065l0.127-0.073l0.106-0.005l0.065-0.169
		l-0.051-0.839l0.224-0.505l0.93-0.834l0.122-0.536l-0.232-0.392l-0.276,0.309l-0.515,1.05l-0.331,0.521l-0.346,0.817l-0.375,0.35
		l-0.563,0.264l-1.13,0.362l-0.475,0.349l-0.749,1.163l-0.476,0.373l-0.61-0.193l-0.594,0.346l-0.411,0.025l-0.307-0.293
		l-0.282-0.609l-0.185-0.534l-0.159-0.257l-0.223-0.11l-0.291-0.063l-0.731-0.349l-0.6-0.448l-0.099,0.116l0.063,0.298l0.135,0.287
		l0.192,0.217l1.599,1.369l0.386,0.557l-0.087,0.51l-0.548-0.507l-0.508-0.716l-0.605-0.639l-0.827-0.276l-2.593,0.056l-0.851-0.233
		l0.54-0.381l0.652-0.196l0.697,0.006l0.676,0.233l-0.025-0.445l0.025-0.44l0.063-0.123l0.211-0.198l0.046-0.129l-0.027-0.157
		l-0.061-0.071l-0.059-0.043l-0.028-0.083l-0.193-0.29l-0.449-0.328l-0.51-0.268l-0.372-0.113l-0.434,0.028l-0.267,0.139
		l-0.133,0.329l-0.016,1.501l-0.088,0.19l-0.249-0.383l0.118-0.463l0.04-0.659l-0.063-0.588l-0.184-0.254l-0.492-0.189l-0.126-0.443
		l0.085-0.529l0.269-0.999l0.114-0.227l0.049-0.026l0.013-0.519l-0.03-0.361l-0.078-0.24l-0.196-0.398l-0.164-0.577l-0.04-0.484
		l0.044-1.149l0.103-0.42l0.854-1.436l0.875-0.964l0.395-0.541l0.297-1.051l0.956-1.791l0.448-0.874l0.077-0.42l0.097-0.276
		l0.175,0.055l0.079,0.327l-0.251,0.559l-0.161,0.143l-0.145,0.194l-0.117,0.194l-0.082,0.182l-0.005,0.012l-0.096,0.366
		l0.026,0.564l-0.055,0.258l-0.102,0.287l-0.046,0.286l0.115,0.245l0.238,0.066l0.178-0.193l0.111-0.308l0.148-0.795l0.704-1.358
		l0.108-0.481l0.036-1.394l0.204-0.248l0.462,0.004l0.486,0.146l0.284,0.178l0.183,0.497l-0.024,0.509l-0.181,0.414l-0.283,0.214
		v0.161l0.489,0.2l1.092,1l0.335,0.044l0.03-0.278l-0.328-0.623l-0.022-0.344l0.181-0.163l0.26-0.076l0.16-0.138l-0.123-0.35
		l-0.651,0.04l-0.54-1.118l-0.409-0.846l-0.648-0.375l0.098,0.088l0.088,0.111l0.078,0.138l0.07,0.18l-0.476-0.144l-0.252-0.045
		l-0.243,0.027l-0.663,0.767l-0.223,0.028l-0.079-0.381l0.327-1.837l-0.135-1.024l-0.256-1.025l-0.505-0.621l-0.86-1.226
		l-1.022-0.749l-0.682-1.062l-0.709-0.626l-0.681-0.258l-0.668-0.081l-0.177-0.191l0.259-0.068l0.477,0.136l0.531,0.204
		l-0.123-0.477l-0.177-0.109l0.136-0.245l-0.137-0.286l-0.423-0.04l-0.327-0.04l-0.164-0.286l-0.069-0.368l-0.272,0.137
		l-0.259,0.218l-0.137-0.477l-0.395-0.108l-0.286,0.341l-0.204,0.273l-0.068,0.286l0.177,0.136l0.286,0.04l0.259,0.054l0.082,0.163
		l-0.081,0.164l-0.041,0.191l0.464,0.258l0.245,0.054l-0.027,0.191l-0.845-0.394l-1.731-0.324l-1.008,0.084l-0.326,0.246
		l-0.054,0.259l-0.709-0.107l-0.724-0.339l-1.004-0.403l-0.379-0.338l-1.095-1.211l-0.581-0.923l-0.181-0.903l-0.176-0.926
		l-0.35-0.557l-0.327-0.809l-0.076-0.39l-0.174-0.371l-0.802-1.183l0.089-0.27l0.218,0.349l0.661,1.04l0.488,0.354l-0.586-1.462
		l-0.018-0.539l-0.185-1.123l-0.822-1.011l-0.326-0.27l-0.374-0.165l-0.397-0.079l-0.404-0.023l-0.172,0.043l-0.179,0.105
		l-0.163,0.143l-0.13,0.15l-0.188,0.314l-0.239,0.226l-0.665-0.552l-1.368-0.412l-1.007-0.248l-0.571-0.176l-0.571-0.101
		l-0.556-0.131l-0.526-0.131l-0.777-0.442l-0.37-0.179l-0.82-0.97l-0.746-0.956l-1.032-0.759l-0.394-0.238l-0.832-0.204
		l-0.513,0.019l-0.048-0.256l0.725,0.055l0.634,0.055l0.649,0.085l0.299-0.243l-0.454-0.415l-0.608-0.741l-0.189-0.336l0.041-0.118
		l0.09-0.188l0.001-0.173l-0.324-0.117l-0.11-0.097l-0.177-0.221l-0.439,0.377l-0.279,0.153l-0.24,0.026l-0.24-0.135l-0.089-0.194
		l0.01-0.668l-0.098-0.638l-0.675-0.394l-0.034-1.646l-0.215-0.838l-0.67-1.71l-0.009-0.859l0.236-0.432l0.416-0.188l0.473-0.099
		l0.258-0.344l-0.051-0.423l-0.276-0.072l-0.32,0.174l-0.181,0.321l0.202-0.874l0.133-0.207l0.308-0.148l0.291-0.04l0.232-0.079
		l0.126-0.273l-0.79-0.053l-0.412-0.199l-0.051-0.389l0.297-0.638l-0.333-0.051l-0.224-0.205l-0.064-0.298l0.142-0.332l0.129,0.256
		l0.158,0.058l0.135-0.124l0.114-0.515l0.15-0.047l0.21,0.024l1.171-0.174l0.297-0.241l-0.115-0.516l-0.467,0.191l-1.364-0.57
		l-0.576,0.036l0.285,0.279l-0.117,0.127l-0.342-0.057l-0.722-0.509l-0.381-0.163l-1.656-0.416l-0.82-0.073l-0.822,0.062
		l-0.864,0.208v-0.197l0.248-0.065l0.708-0.297l-0.182-0.351l-0.093-0.243l-0.036-0.241l-0.008-0.338l-0.124-0.283l-0.274-0.173
		l-0.276,0.009l-0.124,0.258l-0.014,0.733l-0.094,0.442l-0.242,0.378l-0.462,0.549l0.347-0.055l0.197,0.093l0.088,0.228l0.02,0.357
		l-0.103,0.348l-0.224,0.423l-0.223,0.218l-0.103-0.267l-0.104-0.049l-0.535-0.755l-0.121-0.056l-0.371-0.049l-0.16-0.074
		l-0.103-0.13l-0.08-0.148l-0.105-0.147l-0.177-0.116l0.294-0.261l0.131-0.067l0.214-0.033l-0.396-0.426l-0.48-0.414l-0.545-0.315
		l-0.509,0.057l-0.457,0.158l-0.434,0.5l-0.661,0.021l-0.411,0.022l0.069-0.25l0.16-0.182l-0.205-0.273l-0.342-0.206l-0.229,0.022
		l-0.331-0.399l-0.683-0.16l-0.273-0.432l-0.341-0.409l-0.523-0.593l-0.706-0.205l-0.296-0.569l-0.432-0.477l-0.433-1.002
		l-0.754-0.823l-0.182-1.189l-0.208-0.278l-0.072-0.02l-0.335,0.02l-0.141-0.052l-0.066-0.122l-0.04-0.149l-0.176-0.364
		l-0.082-0.576l-0.135-0.277l-1.045-0.92l-0.302-0.455l-0.153-0.574l0.146-0.308l0.228-0.278l0.097-0.473l-0.826,0.161l-0.998-0.338
		l-1.635-0.575l-1.48-0.77l-0.564-0.21l-0.564-0.139l-0.247-0.07l-0.357-1.091l-0.428-1.022l-0.436-1.18l-3.734-3.623l-0.46-0.704
		l-0.217-0.268l0.1-0.184l0.285,0l0.268-0.117l0.419-0.318l0.214-0.026l0.163,0.26l0.118,0.269l0.139,0.213l0.218,0.087l0.137-0.098
		l0.087-0.241l0.034-0.303l-0.025-0.286l-0.261-0.5l-0.359-0.004l-0.43,0.088l-0.538-0.046l-0.653-0.62l-0.335-0.436l-0.87-0.369
		l-0.602-0.168l-0.116-0.51l-0.319-0.142l0.05-0.268l-0.335-0.336l-0.536-0.401l-0.167-0.402l-0.18-0.328l-0.156-0.174l-0.235-0.117
		l-0.319-0.067l-0.503,0.034l-0.369-0.1l-0.101-0.167l0.234-0.201l0.201-0.184l-0.066-0.246l-0.054-0.251l-0.317-1.099l-0.051-0.62
		l-0.302-0.117l0.05-0.252l0.235-0.386l0.208-0.303l-0.028-0.281l-0.265-0.54l-0.404-0.453l0.084-0.251l-0.42-0.376l-0.418-0.199
		l0.314-1.053l0.05-0.671l-0.305-0.74l-0.35-0.935l-0.561-0.393l-1.181-0.015l-0.218,0.102l-0.168,0.152l-0.038,0.127l0.063,0.217
		l-0.085,0.314l-0.192-0.118l-0.361-0.479l-0.868-0.376l-0.405-0.319l-0.201-0.836l0.291-0.763l0.514-1.041l0.176-0.526l0.002-0.616
		l-0.22-0.337l-0.488-0.119l-0.27-0.201l-0.254-0.269l0.032-0.573l-0.068-0.527l-0.809-0.657l-0.919-0.841l-0.582-1.589
		l-0.117-0.328l-0.184-0.269l-0.39,0.051l-0.461-0.583l-0.16-0.394l-0.205-1.04l-0.338-0.554l-0.38-0.484l-0.266-0.431l-0.476-1.551
		l-0.26-0.382l-0.395-0.274l-0.164,0.124l-0.373-0.184l-0.473,0.188l-0.391-0.201l-0.121-0.372l0.285-0.458l-0.122-0.474l0.198-0.78
		l0.13-0.691l-0.175-0.395l-0.21-0.369l-0.278-0.472l-0.019-0.456l0.16-1.44l-0.011-1.526l-0.258-0.693l-0.358-0.497l-0.377-0.456
		l-0.308-0.321l-0.464-0.287l-0.187-0.016l-0.221-0.049l-0.202,0.239l-0.137-0.169l0.285-0.528l0.046-0.832l-0.026-1.139
		l-0.194-1.063l-0.342-0.758l-1.045-1.263l-1.663-1.552l-1.279-2.067l-0.903-1.681l-0.794-3.01l-0.35-0.85l0.419-0.841l0.256-1.729
		l0.06-1.067l-0.06-0.906l-0.721-1.944l-0.004-0.394l0.188-0.053l0.157,0.273l0.089,0.307l0.194,0.563l0.333,0.869l0.155,0.101
		l0.15-0.208l0.488-0.917l0.049-1.314l0.006-1.215l0.112-0.908l-0.484-0.424l-0.522-0.818l-0.587-0.423l-0.669-0.045l0.036,0.257
		l0.361,0.185l0.276,0.152l-0.101,0.207l-0.413-0.15l-0.396-0.253l-0.968-0.557l-0.271-0.635l-0.312-0.327l-0.255-0.755l-0.302,0.03
		l-0.371,0.174l-0.334,0.063l0.273,0.422l0.287,0.186l0.331,0.117l0.199,0.183l-0.283,0.105l-0.863-0.257l-3.637-0.7l-1.118-0.279
		l-1.568-0.253l-0.222-0.545l-0.629-0.206l-0.862-0.066l-0.496-0.443l0.154-0.159l0.432,0.072l0.212-0.218l-0.241-0.79l-0.379-1.453
		l0.027-0.843l-0.582-0.874l-1.262-0.942l-1.027-0.475l-0.398-0.387l-0.687-0.029l-1.049-0.553l-0.628-0.336l-0.214-0.492
		l-0.657,0.276l-0.308,0.087l-0.312,0.029l-0.428-0.426l-0.109-1.078l-0.355-0.216l-0.063,0.351l0.011,1.492l-0.028,0.252
		l0.164,0.21l0.169,0.056l0.125-0.029l0.032-0.049l0.211,0.326l-0.087,0.065l-0.191,0.076l-0.392,0.485l-0.072,0.354l-0.233,0.141
		l-0.294,0.044l-0.119,0.254l-0.107,0.152l-0.089,0.183l-0.237,0.343l-0.992-0.013l-1.086-0.008l-0.961-0.06l-1.165-0.487
		l-0.539-0.499l-0.651-0.222l-0.655-0.379l-0.24-0.25l-0.326-0.393l-0.294-0.183l-0.066-0.332l-0.772-0.376l-1.215-0.738
		l-0.458-0.304l-0.374-0.071l-0.306-0.504l-0.772-0.277l-1.085-1.095l-1.029-1.196l-0.449-0.126l-1.713,0.035l-0.224-0.04
		l-0.212-0.152l-0.433-0.48l-0.072-0.102l-0.223-0.09l-0.466-0.399l-0.278-0.091l-0.812-0.09l-0.232-0.082l-0.314-0.301
		l-0.599-0.854l-0.291-0.176l-0.483-0.139l-1.353-0.986l-0.005-0.003l-0.521-0.254l-0.287-0.089l-0.302-0.034l-0.233-0.062
		l-0.34-0.269l-0.146-0.063l-0.085-0.148l-0.042-0.321l-0.084-0.323l-0.196-0.148l-0.135,0.134l0.011,0.312l0.096,0.349l0.337,0.633
		l0.1,0.12l0.23,0.161l0.177,0.064l0.606,0.123l0.404,0.209l0.354,0.268l0.298,0.309l0.235,0.343l0.571,0.13l0.443,0.451
		l0.323,0.487l0.158,0.444l0.337,0.115l0.164,0.333l0.281,1.941l0.2,0.572l0.339,0.523l0.288,0.644l-0.187,0.539l-0.825,0.981
		l-0.401,0.921l-0.275,1.103l0.014,3.758l-0.535,1.662l0.06,1.533l-0.261,2.471l-0.114,0.529l0.108,1.151l0.471,0.847l0.601,0.629
		l0.577,0.454l-0.034,0.196l-0.42,0.42l0.012,0.566l0.248,0.483l0.426,0.336l1.57,0.743l0.376,0.225l0.082,0.154l0.044,0.194
		l0.104,0.27l0.032,0.911l0.028,0.292l0.077,0.429l-0.107,0.392l0.123,0.25l0.165,0.405l-0.087,1.229l0.126,0.368l0.186,0.443
		l-0.15,0.237l-0.276,0.667l0.211,0.658l0.106,0.448l-0.154,0.918l0.331,0.827l0.526,0.88l0.285,0.537l0.026,0.29l0.058,0.254
		l0.019,0.282l0.116,0.301l0.226,0.492l0.009,0.388l-0.183,0.469l0.033,0.581l0.166,0.462l-0.118,0.759l-0.142,0.584l0.124,0.288
		l-0.202,1.376l-0.177,0.468l-0.028,0.221l0.041,0.305l0.253,0.358l-0.109,0.372l-0.159,0.583l-0.087,0.408l-0.244,0.374
		l0.127,0.441l0.179,0.228l0.245,0.535l0.269,0.284l-0.002,0.328l0.145,0.402l0.469,0.183l0.187,0.575l0.378,0.455l-0.025,0.58
		l0.544,0.904l0.324,0.7l0.261,0.64l1.211,0.557l0.201,0.764l0.312,0.239l0.739,0.076l0.254,0.434l0.188,0.276l-0.147,0.705
		l0.282,0.591l0.157,0.151l-0.161,0.01l-0.127,0.147l-0.019,0.16l0.261,0.154l0.051,0.122l0.006,0.244l0.084,0.353l0.257,0.23
		l0.237,0.115l0.186-0.051l0.231,0.109l0.173,0.25v0.192l0.147,0.185l0.398,0.098l0.43-0.013l0.166-0.021l0.192-0.16l0.02-0.127
		l0.044-0.097l-0.147-0.012l-0.038-0.115l0.026-0.141l0.172,0.024l0.059-0.114l0.058-0.057l0.044,0.044l0.115,0.006l0.058-0.051
		l0.127,0.076l0.058,0.122l0.071-0.018l0.063,0.134l0.084-0.044l0.245-0.025l0.177,0.118l0.192,0.231l0.154,0.025l0.019,0.071
		l0.276,0.044l0.121,0.136l0.07,0.333l0.096,0.147l0.135,0.051l0.076,0.154l0.091,0.038l0.038,0.09l0.065,0.051l0.083,0.077
		l0.122,0.064l0.121,0.058l0.102,0.212l0.064,0.051l0.128-0.057l0.045-0.038l0.182,0.089l0.032,0.211l0.202,0.168l0.014,0.151
		l0.127,0.016l0.184,0.198l0.148,0.186l0.027,0.081l0.323,0.137l0.168,0.148l0.186,0.039l0.457,0.314l0.076,0.34l0.07,0.122
		l0.14,0.186l0.096,0.238l0.32,0.052l0.051,0.033l0.064,0.16l0.108,0.082l0.013,0.077l0.179,0.091l0.217,0.032l0.263-0.006
		l0.305,0.244l0.166,0.294l0.203,0.275l0.174,0.174l0.142,0.039l0.207,0.377l0.295,0.123l0.188,0.208l0.271,0.316l0.313,0.402
		l0.401,0.231l0.357,0.36l0.344,0.131l0.272,0.059l0.157,0.173l-0.017,0.4l0.185,0.144l0.272,0.044l0.215,0.102l0.17,0.215
		l0.216,0.045l0.386,0.188l2.104,2.46l0.755,0.59l0.285,0.316l0.111,0.488l0.157,0.143l0.042,0.158l-0.36,0.328l-0.207,0.334
		l-0.216,0.256l0.029,0.298l0.215,0.142l0.182,0.091l-0.071,0.396l0.214,0.272l0.086-0.042l0.085,0.143l0.013,0.2l0.243,0.001
		l0.129-0.028l-0.001,0.243l0.151,0.36l0.257,0.315l0.273,0.072l0.198,0.301l0.153,0.629l0.396,0.702l0.269,0.373l-0.088,0.315
		l-0.243,0.027l-0.144,0.285l-0.129,0.114l-0.044,0.257l0.04,0.371l0.283,0.186l0.111,0.472l-0.046,0.442l-0.199,0.099l-0.056,0.187
		l0.266,0.399l0.14,0.343l0.154,0.372l0.184,0.144l0.027,0.257l0.469,0.06l0.543-0.109l0.101-0.127l-0.042-0.1l0.159-0.354
		l-0.255-0.174l-0.113-0.23l0.172-0.084l-0.056-0.158l0.101-0.184l0.129-0.041l0.256,0.031l0.284,0.117l0.23-0.242l0.13-0.228
		l0.197,0.287l-0.06,0.385l0.368,0.331l0.158-0.128l0.016-0.157l0.415-0.182l0.113,0.115l-0.087,0.128l-0.1,0.056l-0.075,0.413
		l0.626,0.161l-0.015,0.142l-0.258,0.041l-0.03,0.185l0.185,0.186l0.098,0.229l0.213,0.101l-0.158,0.141l-0.031,0.27l-0.004,0.356
		l-0.074,0.213l0.125,0.356l0.314,0.146l-0.061,0.483l0.514-0.009l0.526-0.038l0.185-0.184l0.258-0.268l0.13-0.184l0.396-0.168
		l0.189-0.211l0.614,0.12l0.323,0.288l0.143,0.201l0.054,0.385l0.215,0.116l0.155,0.172l-0.09,0.326l0.198,0.187l0.024,0.356
		l-0.09,0.411l0.286,0.754l0.143,0.059l0.139,0.586l0.324,0.903l0.554,0.435l0.125,0.358l-0.108,0.62l0.248,0.684l0.11,0.356
		l0.108,0.527l-0.061,0.468l0.264,0.626l0.478,0.303l0.042,0.169l0.409,0.189l0.552,0.092l0.082,0.256l0.805,0.293l0.71-0.02
		l0.954-0.273l0.656-0.233l0.393,0.316l-0.031,0.198l0.255,0.145l0.012,0.142l-0.145,0.21l0.041,0.071l0.284,0.061l0.129-0.069
		l0.102-0.169l0.271,0.004l-0.018,0.284l0.054,0.213l-0.158,0.141l-0.161,0.352l0.098,0.158l0.109,0.413l-0.104,0.367l-0.381,1.002
		l-0.092,0.608l0.126,0.216l-0.076,0.424l0.167,0.316l0.278,0.313l0.323,0.202l0.032,0.235l0.767,0.872l0.111,0.186l0.197,0.059
		l0.126,0.143l-0.172,0.154l-0.045,0.169l-0.076,0.41l-0.115,0.154l-0.089,0.31l-0.095,0.805l0.243,0.922l0.069,0.114l0.169,0.087
		l0.039,0.283l-0.173,0.252l-0.158,0.324l-0.04,0.362l0.141,0.387l0.32,0.385l0.395,0.019l0.196,0.116l-0.019,0.353l0.107,0.425
		l-0.016,0.142l-0.207,0.659l0.092,0.48l0.01,0.326l-0.03,0.169l0.026,0.199l-0.114,0.083l-0.046,0.269l-0.104,0.437l0.347,0.47
		l0.364,0.23l0.099,0.207l0.308,0.187l0.029-0.127l0.112,0.03l-0.002,0.184l0.151,0.341l-0.072,0.155l0.022,0.437l0.223,0.171
		l-0.073,0.267l0.122,0.325l0.249,0.327l0.327,0.369l0.199,0.286l0.168,0.073l0.124,0.171l0.212-0.053l0.127,0.002l0.152,0.171
		l0.095,0.255l0.223,0.186l0.049,0.242l0.502,0.303l0.038,0.325l0.731,0.339l0.532,0.018l0.366,0.106l0.294,0.204l0.421,0.121
		l0.293,0.116l0.152,0.158l0.277,0.212l0.25,0.215l0.883,0.209l0.348,0.245l0.709,0.435l0.43,0.442l0.035,0.353l0.472,0.457
		l0.216,0.58l0.11,0.93l-0.036,0.407l0.258,0.566l0.246,0.454l-0.067,0.321l0.106,0.311l0.241,0.401l0.38,0.216l0.129,0.411
		l0.168,0.299l0.382,0.106l0.13,0.312l0.137,0.621l0.293,0.203l0.25,0.585l0.267,0.289l-0.168,0.514l-0.114,0.124l-0.088,0.195
		l-0.032,0.21l0.43,0.302l0.303,0.314l0.275,0.299l0.11,0.232l0.234,0.125l0.49,0.052l0.454,0.471l0.598,0.278l0.493-0.06
		l0.081,0.142l0.236,0.117l1.007,0.188l0.411,0.541l0.786,0.016l0.224,0.061l-0.032,0.21l0.124,0.157l0.051,0.254l-0.312,0.134
		l-0.294-0.091l-0.385,0.315l-0.386,0.531l-0.207,0.557l-0.064,0.42l-0.057,0.524l0.367,0.689l0.422,0.296l0.221,0.105l0.059,0.232
		l0.329,0.447l0.13,0.492l0.235,0.145l0.611,0.222l0.13,0.506l0.919,0.807l0.172,0.599l0.062,0.393l-0.017,0.167l-0.256,0.19
		l-0.103,0.263l-0.019,0.265l-0.294-0.173l-0.35,0.75l0.118,0.516l0.33,0.089l0.525,0.474l0.244,0.411l0.104,0.351l0.034,0.222
		l0.094,0.268l0.432,0.136l0.302,0.286l0.314,0.427l0.326,1.068l0.525,0.476l0.607,0.363l0.497-0.31l0.882-0.792l-0.077-0.309
		l-0.288-0.244l-0.519-0.698l-0.661-0.603l-0.331-0.175l-0.23-0.439l-0.636-0.363l-0.311-0.665l-0.167,0.025l-0.037-0.21l0.06-0.222
		l-0.079-0.211l0.007-0.714l-0.129-0.323l-0.025-0.35l-0.126-0.421l0.118-0.319l-0.187-0.214l-0.123-0.156l0.005-0.224l-0.081-0.169
		l-0.136-0.185l0.02-0.293l-0.165-0.157l0.018-0.167l0.408-0.076l0.172-0.193l0.199-0.15l0.537,0.32l0.064,0.225l0.566,0.334
		l0.535,0.487l0.378,0.567l0.187,0.423l0.957,0.72l0.299-0.047l0.105,0.31l0.148,0.256l0.178,0.157l0.025,0.169l0.513,0.177
		l0.066,0.17l0.345,0.175l-0.003,0.141l0.553,0.235l0.291,0.118l0.052,0.183l0.235,0.131l-0.099,0.641l-0.041,0.571l0.07,0.616
		l-0.141,1.294l0.101,0.476l0.371,0.246l0.567,0.208l0.49,0.196l0.496,0.12l0.179-0.066l0.045-0.124l0.294-0.049l-0.019,0.209
		l0.122,0.128l0.317,0.189l-0.156,0.094l-0.131,0.22l-0.027,0.501l-0.294,0.52l0.043,0.686l-0.057,0.539l0.171,0.507l0.547,0.367
		l0.226,0.087l0.109,0.143l0.025,0.14l-0.241,0.099l0.016,0.185l0.22,0.274l0.387,0.155l0.298,0.376l0.133,0.413l0.074,0.372
		l0.067,0.594L193,239.872l-0.099,0.672l0.217,0.248l0.016,0.205l0.273,0.58l-0.09,0.325l0.092,0.432l0.262,0.191l0.135,0.352
		l-0.011,0.491l0.193,0.454l0.214,0.414l0.461,0.318l-0.028,0.306l0.114,0.33l-0.027,0.265l-0.146,0.119l-0.048,0.285l-0.292,0.238
		l-0.109,0.263l0.174,0.413l0.004,0.654l-0.233,0.342l-0.303,0.272l0.12,0.501l0.135,0.487l0.242,0.459l0.076,0.235l0.075,0.376
		l-0.148,0.307l0.117,0.185l0.066,0.742l0.179,0.124l0.129-0.027l0.049-0.067l0.164,0.127l0.2,0.263l0.063,0.122l0.129,0.109
		l-0.113,0.125l-0.101-0.011l-0.109-0.112l-0.027-0.135l-0.199-0.068l0.023,0.127l0.088,0.367l0.032,0.304l0.051,0.261l0.112,0.2
		l0.302,0.19l0.259,0.351l0.361,0.124l0.169,0.11l0.194,0.273l0.071,0.203l0.179,0.091l0.108-0.103l0.163-0.015l0.291,0.591
		l-0.062,0.171l0.068,0.317l0.124,0.376l0.154,0.368l0.009,0.382l0.08,0.231l0.113,0.403l0.199,0.317l0.253,0.198l0.197,0.561
		l0.305,0.075l0.122,0.109l0.015,0.192l0.171,0.376l0.206,0.129l0.118,0.233l0.236,0.121l0.239,0.006l0.089-0.103l0.084,0.088
		l0.458,0.031l0.168-0.196l0.046,0.068l-0.149,0.207l0.045,0.116l0.199,0.053l0.098-0.112l0.116-0.035l0.131,0.12l0.162,0.005
		l0.061-0.124l0.086,0.002l0.084,0.079l0.295,0.064l0.108,0.242l-0.178,0.187l0.172,0.386l0.005,0.163l-0.138,0.12l0.031,0.288
		l-0.165,0.081l0.021,0.297l0.12,0.166l0.159,0.432l0.225,0.189l0.069,0.622l0.098,0.259l0.336,0.601l0.064,0.441l0.176,0.186
		l0.379,0.176l-0.018,0.147l0.214,0.187l0.09,0.203l-0.077,0.056l-0.014,0.192l0.158,0.108l0.15,0.069l-0.059,0.056l-0.041,0.123
		l0.091,0.164l-0.089,0.122l-0.094-0.011l-0.112,0.303l0.033,0.173l0.174,0.241l-0.036,0.295l0.187,0.492l0.215,0.13l0.179,0.473
		l0.158,0.138l0.054,0.116l-0.155,0.111l0.043,0.458l0.15,0.443l0.259,0.293l0.31,0.132l-0.021,0.066l0.158,0.128l-0.022,0.104
		l0.035,0.115l0.129,0.137l0.005,0.162l0.091,0.155l0.057,0.354l0.329,0.142l0.025,0.124l0.397,0.108l0.138,0.164l-0.074,0.266
		l0.118,0.18l0.174,0.203l0.284,0.047l0.178,0.019l0.015-0.098l0.079-0.062l0.166,0.104l0.089,0.162l0.508,0.367l-0.045,0.147
		l0.056,0.079l-0.024,0.161l0.169,0.091l0.045,0.166l0.01,0.344l0.036,0.261l0.298,0.297l0.154,0.294l0.227,0.277l-0.023,0.153
		l0.196,0.096l0.127-0.015l0.087,0.093l0.07,0.074l-0.038,0.044l-0.128,0.033l-0.066,0.07l0.098,0.048l-0.004,0.135l0.327,0.253
		l-0.004,0.126l0.16,0.104l-0.084,0.079l-0.012,0.126l0.086,0.174l0.034,0.073l-0.035,0.215l0.13,0.184l0.094,0.174l0.013,0.162
		l0.012,0.18l0.148,0.176l0.05,0.173l0.023,0.136l0.062,0.056l0.063-0.007l0.043,0.055l-0.087,0.187l-0.023,0.17l0.032,0.099
		l-0.084,0.347l-0.015,0.282l-0.341,0.436l-0.189,0.44l-0.09,0.294l0.061,0.231l-0.13,0.266l-0.354,0.059l-0.337,0.422l-0.135,0.481
		l-0.086,0.618l-0.148,0.441l0.012,0.513l-0.023,0.337l0.108,0.462l0.06,0.245l-0.14,0.158l0.087,0.259l0.145,0.571l-0.005,0.162
		l0.167,0.288l0.807,0.995l0.035,0.305l0.031,0.255l-0.181,0.225l-0.009,0.296l0.088,0.218l-0.114,0.199l0.167,0.247l0.115,0.192
		l-0.047,0.228l0.115,0.219l-0.076,0.322l0.622,0.813l0.036,0.149l0.356,0.212l-0.071,0.146l0.305,0.628l0.311,0.399l0.122,0.394
		l0.277,0.17l0.398,0.174l0.096,0.379l0.278,0.143l0.061,0.19l0.531,0.218l0.655,0.211l0.605,0.144l0.768,0.193l1.186,0.182
		l1.232-0.031l0.448-0.011l0.117,0.038l-0.046,0.16l-0.249,0.221l-0.341,0.15l-0.395,0.135l-0.225-0.128l-0.582-0.328l-0.668-0.156
		l-0.032,0.147l0.196,0.195l-0.093,0.387l0.195,0.221l0.087,0.218l-0.128,0.197l0.139,0.3l0.564,0.06l0.517-0.185l0.227,0.061
		l0.245-0.086l0.02-0.201l0.022-0.255l0.033-0.187l0.097-0.091l0.442-0.362l0.42-0.498l0.124-1.033l-0.266-0.035l0.034-0.255
		l0.02-0.228l-0.197-0.1l-0.146-0.099l0.069-0.092l0.02-0.201l-0.032-0.23l-0.132-0.058l-0.049,0.268l-0.149,0.036l-0.064-0.487
		l0.099-0.158l-0.089-0.151l0.102-0.239l-0.09-0.138l0.048-0.227l-0.076-0.137l0.337-0.003l0.085-0.119l-0.187-0.073l-0.076-0.137
		l0.208-0.169l0.339-0.056l0.18-0.156l0.102-0.212l0.485,0.029l0.617,0.128l0.085-0.119l0.317,0.186l0.088,0.192l-0.152,0.09
		l-0.024,0.309l0.13,0.179l0.26,0.078l0.194,0.25l0.266,0.09l0.183,0.168l0.193,0.275l0.005,0.256l0.168,0.235l0.088,0.191
		l0.626,0.181l0.235,0.21l0.234,0.25l0.2,0.047l0.396,0.229l0.308,0.036l0.078,0.083l0.158,0.1l0.087,0.193l0.253,0.075l0.087,0.192
		l0.292,0.129l0.343,0.218l0.316,0.2l0.261,0.268l0.102,0.557l0.14,0.217l-0.038,0.338l0.103,0.122l0.122,1.15l0.023,0.497
		l0.315,0.198l0.496,0.018l0.503,0.22l0.961-0.208l0.873-0.346l0.412-0.228l0.164-0.075l0.021,0.149l0.044,0.257l0.086,0.232
		l0.25,0.143l0.179,0.262l-0.035,0.214l-0.111,0.09l-0.035,0.227l-0.321,0.311l-0.134-0.005l-0.057,0.092l0.02,0.202l-0.096,0.413
		l-0.063,0.253l0.04,0.35l0.17,0.489l0.142,0.219l0.201,0.116l0.158,0.086l0.09,0.125l0.173,0.155l0.088,0.071l0.181,0.167
		l0.305,0.119l0.745,0.895l0.443,0.414l0.235,0.473l0.313,0.239l-0.277,0.594l-0.024,0.669l0.16,0.63l0.24,0.901l-0.049,0.598
		l0.385,0.443l0.461,0.205l0.409,0.176l0.154,0.18l0.331,0.106l0.306,0.052l0.553,0.275l0.18,0.208l0.251,0.103l0.598,0.143
		l0.399,0.082l0.156,0.14l0.068,0.311l0.367,0.16l0.52,0.102l0.197,0.129l0.001,0.179l-0.206,0.233l-0.027,0.346l0.224,0.549
		l0.575,0.747l0.407,0.409l0.072,0.486l-0.107,0.419l0.017,0.333l0.298,0.102l0.016,0.363l-0.071,0.269l-0.278,0.171l0.05,0.273
		l-0.018,0.452l0.08,0.275l-0.052,0.571l0.008,0.395l-0.189,0.311l-0.091,0.093l-0.017,0.255l0.04,0.532l-0.023,0.255l-0.107,0.248
		l-0.219,0.438l-0.052,0.283l-0.213,0.191l-0.278,0.427l-0.452,0.667l-0.25,0.173l-0.263,0.499l-0.227,0.092l-0.135,0.341
		l-0.805,0.336l-0.257,0.337l-0.712,0.014l-0.457,0.248l-1.052,0.389l-0.523,0.388l-0.435,0.248l-0.094,0.361l0.112,0.229
		l-0.447,0.514l-0.632,0.078l-1.047,0.719l-0.061,0.509l-0.424,0.41l-0.293,0.253l-0.335,0.253l-0.188,0.056l-0.604,0.014
		l-0.392,0.191l-0.027,0.203l0.176,0.19l-0.915,0.048l-0.467,0.004l-0.258-0.152l-0.301-0.092l-0.496-0.321l-0.65-0.551
		l-0.371-0.399l-0.389-0.48l-0.428-0.757l-0.083-0.243l-0.188-0.525l-0.197-0.169l-0.197-0.778l-0.019-0.692l-1.028-3.833
		l-0.208-1.675l-0.158-0.737l-0.257-0.232l-0.175-0.25l-0.558-0.977l-0.15-0.392l-0.315-0.337l-0.12-0.484l-0.752-1.329
		l-0.256-0.253l-0.691-1.347l-1.088-1.013l-1.18-0.71l-2.794-1.271l-1.247-0.589l-1.64-1.336l-2.472-2.687l-1.46-1.78l-0.838-0.809
		l-0.419-0.291l-0.265-0.049l-0.057-0.328l-0.26-0.253l-0.871-0.986l-0.517-0.406l-0.78-0.678l-0.532-0.361l-0.154-0.352
		l-0.54-0.486l-1.006-0.682l-0.582-0.425l-0.726-0.408l-0.827-0.452l-1.245-0.934l-1.246-0.654l-3.825-2.087l-0.12-0.147
		l0.287,0.069l1.813,0.951l-0.342-0.4l-0.887-0.496l-0.762-0.368l-0.368-0.092l-0.405-0.298l-0.195-0.498l-0.846-0.781l-0.446-0.278
		l-0.553-0.095l-0.706-0.592l-0.557-0.793l-0.226-0.909l-0.474-0.853l-0.097-0.269l0.183,0.107l0.267,0.006l-0.3-0.377l-0.485-0.36
		l-0.262-0.253l-0.388-0.021l0.009,0.403l0.217,0.375l-0.3,0.548l-0.635-0.096l-0.263-0.191l-0.27,0.117l-0.393,0.094l-0.532-0.094
		l-0.347-0.11l0.482,0.483l0.486,0.319l-0.453,0.072l-0.244-0.128l-0.229,0.118l-0.271,0.179l-0.158-0.27l-0.031-0.452l0.047-0.286
		l0.096-0.635l-0.464-1.325l-0.331-0.829l-0.402-0.399l-0.462-0.524l-0.477-0.617l-0.535-0.434l-0.29-0.354l0.08-0.105l0.518,0.381
		l0.088-0.079l-0.017-0.185l-0.466-0.319l-0.466-0.481l-0.358-0.504l-0.142-0.385l-0.067-0.427l-0.18-0.545l-0.256-0.48
		l-0.297-0.226l0.2,0.745l0.093,0.676l0.191,0.585l0.49,0.473l-0.136,0.067l-0.372,0.283l0.133,0.116l0.242,0.294l0.133,0.117
		l-0.209,0.079l-0.185-0.043l-0.152-0.147l-0.108-0.241l-0.396,0.474l-0.318-0.415l-0.416-1.289l0.218-0.162l0.105-0.213
		l-0.014-0.247l-0.134-0.272l-0.365,0.266l-0.076,0.333l0.122,0.806l0.041,0.532l0.105,0.3l-0.48,0.047l-0.339-0.27l-0.232-0.289
		l-0.146-0.355l-0.08-0.476l0.046-0.781l-0.046-0.273l-0.135-0.164l-0.174-0.034l-0.138-0.071l-0.172-0.437l0.253-0.125l0.412-0.384
		l0.129-0.191l-0.154-0.574l-0.089-0.099l-0.076-0.126l0.01-0.212l0.094-0.113l0.311-0.218l0.088-0.18l-0.034-0.172l-0.231-0.342
		l-0.054-0.287l-0.02-0.213l-0.169-0.213l-0.145,0.136l-0.231,0.374l0.016,0.451l-0.239,0.297l-0.175,0.336l0.139,0.489l0.194,0.459
		l-0.248,0.5l-0.264,0.407l-0.255-0.035l-0.118-0.459l0.077-0.365l0.087-0.628l-0.195-0.187l-0.025-0.094l-0.059-0.289l0.128-0.144
		l0.306-0.042l0.128-0.238l-0.169-0.238l0.154-0.28l0.273-0.484l0.172-0.748l-0.11-0.209l0.171-0.408l-0.033-0.289l-0.238-0.001
		l-0.008-0.17l-0.229-0.154l0.103-0.374l0.06-0.264l-0.11-0.392l0.044-0.477l0.181-0.715l0.301-0.708l0.42-0.636l0.366-0.504
		l0.146-0.392l0.028-0.818l0.047-1.388l0.011-0.742l-0.281-0.129l-0.016-0.333l0.138-0.443l0.197-0.23l0.044-0.443l0.001-0.196
		l-0.29-0.069l0.206-0.324l0.606-0.257l0.411-0.186l-0.273-0.103l-0.581,0.049l-0.282,0.119l-0.119-0.256l0.222-0.144l0.289-0.21
		l-0.025-0.48l-0.08-0.957l-0.118-0.547l0.172-0.528l0.037-0.871l-0.183-1.522l-0.117-0.761l-0.128-0.189l-0.188,0.136l0.024,0.428
		l0.034,2.74l-0.122,1.137l-0.097,0.999l-0.18,0.17l-0.025-0.299l0.027-0.598l0.098-1.461l-0.05-3.444l-0.159-1.456l-0.52-0.84
		l-0.203-1.065l-0.469-0.857l-0.45-1.68l-0.452-1.038l-0.513-0.525l-0.427-0.664l-0.599-0.345l-0.671,0.114l-0.371-0.522
		l-0.097-0.838l-0.193-0.755l-0.522-1.227l-0.831-1.098l-0.552-0.519l-0.936-0.534l-0.239-0.057l-0.289,0.125l-0.169,0.267
		l-0.204,0.254l-0.396,0.081l-1.367-0.973l0.023-0.104l0.03-0.38l-0.127-0.265l-0.313,0.21l-0.393,0.135l-0.344-0.264l-0.184-0.478
		l-0.101-0.089l-0.386-0.036l-0.996,0.048l-0.301-0.09l-0.917-1.238l-0.625-0.439l-0.724-0.46l-0.449-0.339l-0.586-0.458
		l-0.76-0.735l-0.938-0.777l-1.176-0.66l-0.061-0.277l-0.013-0.054l-0.013-0.114l-0.036-0.122l-0.084-0.083l-0.129-0.025
		l-0.451,0.025l-0.388-0.166l-0.339-0.379l-0.604-0.554l-0.391-0.357l0.042-0.334l-0.034-0.44l0.097-0.281l-0.019-0.281
		l-0.154-0.172l-0.31-0.476l-0.251-0.389l-0.368-0.498l-0.29-0.216l-0.251-0.346l-0.251-0.433l-0.135-0.281v-0.324l0.059-0.304
		l0.348-0.195l0.154-0.13l-0.213-0.109l-0.192-0.02l-0.31,0.108l-0.328,0.151l-0.077,0.304l-0.078,0.325l-0.348,0.065l-0.251,0.064
		l0.097,0.238l-0.019,0.196l-0.31,0.13l-0.232-0.151l-0.192-0.281l-0.136-0.303l-0.039-0.367l-0.155-0.151l0.155-0.13l0.444-0.022
		l0.194-0.195l0.348-0.239l0.193-0.151l0.27-0.324l0.213-0.325l0.328-0.195l0.212-0.281l0.136-0.477l0.161-0.272l-0.038-1.352
		l-0.122-0.452l-0.335-0.393l-0.422-0.123l-0.363,0.206l-0.308,0.574l-0.09,1.614l-0.183,0.786l-0.659,0.632l-0.288-0.203
		l-0.309,0.326l-0.136,0.345v0.24l-0.018,0.215l0.038,0.216l-0.02,0.303l-0.038,0.374l-0.12,0.196l-0.356,0.077l-0.923-0.714
		l-0.904-0.477l-0.865-0.199l-0.434-0.083l-0.67,0.036l-0.532-0.002l-0.769,0.292l-0.338,0.628l-0.19,0.414l-0.37,0.301
		l-0.015,0.599l-0.277,0.026l-0.451,0.344l-0.55-0.12l-0.922-0.416l-0.671-1.149l-1.387-0.8l-0.206-0.361l-0.076-0.39l-0.394-0.835
		l-0.873-1.558l-0.582-0.758l-0.815-0.497l-0.641-0.409l-0.73-0.232l-1.165-0.148l-0.35,0.116l0.029,0.35l-0.248,0.104l-0.228,0.116
		l-0.264-0.147l-1.036-1.063l-0.329-0.86l-0.486-0.655l-0.7-0.78l-0.764-0.473l-0.816-0.424l-0.636-0.071l-0.64-0.288l-0.877,0.116
		l-0.379,0.062l-0.087,0.553l-0.613-0.526l-0.714-0.532l-1.036-0.451l-0.614,0.432l-0.321-0.26l0.159-0.307l-0.05-0.259l0.016-0.29
		l-0.344-0.143l-0.44-0.213l-0.293,0.127l-0.272-0.537l0.015-1.145l0.057-1.121l-0.166-1.011l-0.348-1.144l-0.531-0.546
		l-0.202-0.184l-0.596-0.388l-0.414-0.058l-0.362-0.694l-0.825-0.305l-1.15-0.497l-0.81-0.376l-0.432,0.017l-0.343-0.687
		l-0.075-0.151l-0.329-0.431l-0.075-0.138l-0.288-0.741l-0.561-0.482l-0.576-0.266l-0.197,0.073l-0.142,0.324l-0.253-0.16
		l-0.145-0.233l-0.326-0.339l0.089-0.144l0.325,0.268l0.215-0.037l0.103-0.504l-0.074-0.308l-0.133-0.272l-0.192-0.218l-0.254-0.136
		l-0.331,0.004l-0.136,0.2l-0.12,0.238l-0.053,0.374l-0.288-0.142l-0.468-0.177l-0.166-0.646l-0.272-0.411l-0.541-0.207
		l-0.341-0.073l-0.304,0.288l-0.218-0.322l-0.272-0.322l-0.256-0.502l-0.022-0.522l-0.274-0.431l-0.075-0.342l-0.079-0.364
		l-0.09-0.071l-0.633-0.694l0.652-0.243l0.337,0.092l0.435,0.322l0.201,0.377l1.117,0.102l1.006-0.259l0.92,0.154l0.36-0.003
		l0.487,0.141l0.182,0.341l0.487,0.087l0.774-0.167l0.505,0.123l0.577,0.105l0.379-0.002l0.108,0.27l0.233,0.126l0.397,0.106
		l0.524-0.003l0.73,0.216l0.792,0.141l0.772-0.203l0.953-0.147l0.738,0.358l0.831-0.388l0.716-0.304l0.656-0.46l0.251-0.284
		l0.297-0.213l0.379-0.377l0.465-0.328l0.251-0.174l0.213-0.13h0.212l0.29,0.065l0.135,0.11l0.019,0.197l0.058,0.217l0.097,0.503
		l-0.117,0.415l-0.135,0.416l-0.154,0.328l-0.097,0.26l0.173,0.393l0.523,0.765l0.483,0.24l0.502,0.547l0.386,0.24l0.656,0.13
		l0.445,0.327l0.599,0.263l0.348,0.326l0.232,0.37l0.155,0.196l-0.02,0.262l0.194,0.131h0.213l-0.059,0.283l0.059,0.219l0.212-0.152
		l0.269-0.174l0.175-0.219l0.019-0.174l0.405-0.327l0.213-0.306l0.097-0.393l-0.154-0.152l-0.174,0.11l-0.058-0.174l-0.078-0.089
		l-0.038-0.087l-0.156,0.087l-0.154-0.02l-0.038-0.154l0.116-0.11l0.194-0.044l0.269-0.064l0.155,0.088l0.039,0.174l0.097,0.13
		l0.29-0.087l0.212,0.087l0.018,0.219l0.194,0.154l0.405,0.174l0.62,0.11l0.348-0.024l0.076-0.107l0.175-0.262l0.154-0.24
		l0.115-0.241l0.309-0.239l0.078-0.349l-0.096-0.241l-0.252-0.197l-0.251-0.044l-0.096-0.153l-0.348-0.174l-0.233-0.043
		l-0.115-0.067l-0.039-0.197l-0.173-0.13l-0.097,0.021l-0.154,0.174l-0.213-0.02l-0.289,0.044l-0.136,0.02l-0.097-0.044
		l-0.271-0.479l-0.192-0.415l-0.116-0.219l-0.213-0.241l-0.173-0.066l-0.059,0.11l0.097,0.24l0.192,0.393l-0.018,0.284l0.193,0.131
		l0.155,0.242l0.096,0.304l-0.078,0.176h-0.173l-0.039,0.151l-0.02,0.175l-0.095-0.021l-0.156-0.11h-0.231l-0.174,0.153
		l-0.271,0.197l-0.308,0.11l-0.291-0.044l-0.193-0.13l-0.155-0.242l-0.211-0.195l-0.04-0.305l-0.077-0.35l-0.174-0.261l-0.193-0.24
		l-0.251-0.373l-0.019-0.393L128,199.516l0.039-0.284l0.155-0.196l0.115-0.284l0.367-0.502l0.271-0.35l0.077-0.308l-0.097-0.108
		l-0.213-0.045l-0.115-0.021l-0.039-0.086l0.175-0.11l0.154-0.088l0.038-0.153l-0.095-0.087l-0.213-0.087l-0.135-0.132l-0.097-0.174
		l0.097-0.174l0.018-0.22l-0.193-0.11l-0.155-0.044l-0.212,0.131l-0.019,0.197l-0.097,0.197l-0.192,0.067l-0.175,0.153l-0.251,0.131
		l-0.27-0.044l-0.445,0.197l-0.193,0.284l-0.212,0.241l-0.256,0.137l-0.205-0.377l0.062-0.408l0.078-0.346l0.204-0.383l0.192-0.22
		l0.464-0.415l0.156-0.327l0.366-0.394l0.1-0.121l0.499-0.601l0.714-1.052l0.484-0.569l0.339-0.054l0.141,0.677l-0.079,0.456
		l-0.425,0.315l-0.252,0.252l-0.079,0.22l-0.031,0.236l0.283,0.424l0.189,0.44l0.016,0.283l0.55,0.88l0.283-0.785l0.063-0.487
		l-0.094-0.534l-0.267-0.456l-0.252,0.063l-0.126-0.141l0.047-0.173l0.299-0.204l0.331,0.173l0.393,0.393l0.22,0.362l0.299-0.314
		l0.362-0.535l0.047-0.252l-0.205-0.032l-0.268-0.094l-0.283-0.346l-0.362-0.047l-0.331,0.047l-0.031-0.425l-0.016-0.74
		l-0.094-0.331l-0.173-0.236l0.063-0.128l0.11-0.25l0.363-0.567l0.269-0.536l0.206-0.457l0.29-0.337l-0.097-0.154l-0.077-0.305
		l-0.117-0.419l-0.193-0.195h-0.251l-0.23,0.215l-0.259-0.083l-0.176-0.24l-0.176-0.129l0.148-0.36l0.186-0.449l0.264-0.555
		l0.423-0.951l0.477-1.639l0.265-0.741l0.16-0.687l-0.194-0.419l-0.314-0.14l-0.168-0.199l0.058-0.456l0.018-0.37l-0.212-0.155
		l-0.136-0.219l-0.077-0.242l-0.232-0.286l-0.329-0.264l-0.406-0.022l-0.472,0.05l-0.284-0.144l0.059-0.427l0.061-0.501
		l-0.054-0.656l-0.2-0.567L128,177.193l-0.212-0.111l-0.555,0.011l-0.645,0.037l-0.253,0.18l-0.598-0.146l-0.031-0.38l0.091-0.054
		l-0.06-0.249l-0.085-0.314l-0.537-0.202l-0.368-0.6l-0.768-0.118l0.001-0.484l-0.027-0.399l-0.312-0.372l-0.016-0.462l-0.207-0.482
		l-0.484,0.171l-0.365-0.886l0.116-0.541l-0.397-0.486l-0.427,0.026l-0.055-0.456l-0.455-0.43l-0.403-0.492l-0.591-0.091
		l-0.327,0.077l-0.166,0.115l-0.161-0.004l-0.301-0.237l-0.142-0.457l-0.173-0.501l-0.115-0.27l-0.323,0.031l-0.388,0.369
		l-0.284-0.86l0.029-0.875l-0.135-0.424l-0.23-0.45l-0.122-0.467l-0.188-0.373l-0.657-0.229l-0.689-0.271l-0.371,0.455l-0.399-0.572
		l-0.137-0.633l-0.165-0.284l-0.114-0.635l-0.093-0.322l-0.199-0.14l-0.771-0.036l-1.029-1.002l-0.515-0.715l-0.656-0.787
		l-1.06-1.16l-1.103-1.254l-3.089-1.103l-1.937-0.261l-1.055-1.649l-1.249-1.069l-2.003-0.727l-1.218-1.041l-0.664-0.656
		l-0.595-0.171l-0.494,0.405l-0.481-0.426l-0.396-0.212l-0.28-0.49l-0.573-0.412l-0.493-0.631l-0.662-0.084l-1.764-1.629
		l0.054-0.575l0.169-0.662l0.052-0.777l-0.116-0.569l-0.094-0.471l-0.12-0.776l-0.489-0.614l-0.189-0.386l-0.359-0.333l-0.426-0.17
		l-1.051-0.065l-0.086-0.318l0.486-1.891l0.167-1.473l-0.167-0.841l-0.05-0.156l-0.219-0.367l-0.05-0.224l0.02-0.313l0.14-0.885
		l-0.026-1.204l-0.209-1.186l-0.435-0.909l-0.266-0.778l-0.67-0.602l-0.756-0.486l-0.809-0.367l-0.993-0.029l0.656-0.6l0.242-0.318
		l0.074-0.394l-0.15-0.372l-0.338-0.439l-0.416-0.36l-0.388-0.126l0.209,0.404l0.223,0.318l0.17,0.33l0.036,0.447l-0.237,0.217
		l-0.26,0.06l-0.147-0.23l-0.313-0.248l-0.177,0.162l-0.114,0.249l0.011,0.229l0.2,0.1l0.225,0.319l0.119,0.594l0.271,0.792
		l-0.579,0.005l-0.182-0.896l-0.389-1.328l-0.474-1.039l0.424-4.004l-0.134-2.8l-0.42-1.454l-0.072-0.511l-0.236-0.291l-0.879-0.153
		l-1.085-1.062l-0.554-0.063l-0.596-0.856l-0.404-0.587l-0.178-0.363l-0.551-0.826l-0.431-0.192l-0.914,0.265l-0.657-0.061
		l-0.115-0.897l0.333-1.041l0.187-1.697l0.203-1.606l-0.75-1.941l-2.631-3.253l-1.016-1.868l-0.247-0.343l-0.139-0.095l-0.373-0.48
		l-0.206-0.189l-0.314-0.133l-0.462-0.405l-0.313-0.123l-0.243-0.178l-0.084-0.165l-0.057-0.2l-0.167-0.281l-0.884-0.74
		l-0.123-0.261l-0.547-0.404l-0.127-0.375l0.089-0.315l-0.089,0.013l0.314-0.075l0.54,0.013l-0.459-0.593l0.052-0.42l0.145-0.44
		l0.18-0.733l-0.164-0.516l-0.314-0.523l-0.16-0.153l-0.346-0.153l-0.588-0.078l-0.604-0.757l-0.215-0.38l0.971,0.224l0.701,0.473
		l0.41,0.099l0.413-0.299l0.308-0.51l0.253-0.52l0.164-0.805l0.061-0.593l-0.042-0.558l-0.184-0.404l-0.87-0.174L69.547,90.3
		l-0.429-0.585l-0.562-0.307l-0.385-0.063l-0.455-0.169l-0.029-0.686l-0.045-0.839l-0.28-0.351l-0.794-0.026l-0.898-0.215
		l-0.54-0.73l-0.232-0.592l-0.078-0.958l-0.192-1.732l-0.426-1.279l-0.411-1.133l-0.251-0.398l-0.348-0.365l-0.429-0.264
		l-1.01-0.235l-0.353-0.327l-1.133-2.559l-0.354-0.982l-0.436-0.906l-0.26-0.468l-0.067-0.481l-0.05-0.517l-0.027-0.619l0.009-0.31
		l-0.023-0.209l1.89-0.159l1.717-0.154l1.718-0.154l1.719-0.154l1.718-0.155l1.719-0.154l1.718-0.155l1.718-0.153l1.718-0.154
		l1.718-0.155l1.718-0.154l1.719-0.153l1.719-0.156l1.718-0.153l1.717-0.156l1.718-0.154l1.72-0.155l1.718-0.154l1.718-0.154
		l1.718-0.154l1.717-0.155l1.72-0.154l1.718-0.154l1.718-0.155l1.719-0.152l1.717-0.156l1.718-0.154l1.718-0.155l1.718-0.154
		l1.72-0.155l1.718-0.153l1.718-0.156l0.941-0.083l0.01,0.037l-0.172,0.691l-0.193,0.488l-0.273,0.468l-0.179,0.205l-0.531,0.465
		l-0.123,0.195l-0.371,0.736l0.198,0.565l-0.031,0.607l-0.325,1.134l-0.296,0.307l0.064,0.024l0.06,0.023l0.856,0.313l9.562,3.503
		l9.562,3.499l9.563,3.493l9.562,3.489l9.563,3.483l9.563,3.479l9.563,3.475l9.562,3.467l1.203,0.456l1.203,0.452l1.203,0.453
		l1.203,0.454l1.203,0.454l1.202,0.454l1.204,0.451l1.203,0.452l0.639,0.243l1.422,0.177h1.344l0.997-0.001h0.998h0.999h0.998h0.997
		h0.999h0.998h0.999h0.997h0.997h0.999h0.997h0.997h0.999h0.999h1h0.997h0.999h0.999h0.997h0.997h0.999h0.997l0.997-0.001l1-0.001
		h0.997h1h0.997h0.997h1h0.997h0.997h0.999h0.997h0.999h0.999h0.997h0.998h0.999h0.998l0.998-0.001h0.999h0.997h0.998h0.509h0.489
		h0.999h0.361h0.637h0.998h0.998h0.998h0.999h0.998h0.998h0.999h0.998h0.999h0.998h0.997h0.998h0.998h0.998h0.997h0.999l0.999-0.001
		l-0.001-0.192v-0.194v-0.191v-0.192v-0.194v-0.192v-0.191v-0.194v-0.194v-0.192v-0.191v-0.194v-0.192v-0.192v-0.193l-0.001-0.194
		l-0.001-0.192v-0.192v-0.193v-0.192v-0.194v-0.191v-0.192v-0.194v-0.194v-0.191V99.95v-0.194v-0.191v-0.193v-0.194v-0.193
		l-0.001-0.193v-0.193v-0.194v-0.193V98.02v-0.193v-0.193v-0.193v-0.194v-0.193v-0.193v-0.193v-0.193v-0.193v-0.194l-0.001-0.192
		l-0.001-0.193v-0.194v-0.193v-0.193v-0.194v-0.193v-0.192V94.35v-0.195v-0.193v-0.192v-0.195v-0.193V93.19v-0.193v-0.193
		l0.604,0.001l0.606,0.001l0.604,0.003h0.605l0.605,0.004h0.604l0.605,0.001l0.605,0.003l0.605,0.001l0.604,0.001l0.605,0.002
		l0.605,0.001l0.604,0.003h0.605l0.605,0.001l0.604,0.003l0.605,0.001l0.605,0.001l0.605,0.001l0.604,0.001l0.605,0.003h0.605
		l0.605,0.001l0.605,0.003l0.605,0.001l0.605,0.001l0.605,0.001l0.604,0.001l0.605,0.003l0.605,0.001l0.605,0.003l0.604,0.001h0.605
		l0.605,0.003l0.604,0.001l0.605,0.003l0.605,0.001l0.604,0.001l0.605,0.001h0.605l0.605,0.004l0.604,0.001h0.605l0.605,0.003
		l0.604,0.001l0.605,0.001l0.605,0.001l0.605,0.001l0.605,0.003l0.605,0.001h0.605l0.605,0.003l0.604,0.002l0.605,0.001l0.605,0.001
		l0.605,0.001l0.604,0.003l0.605,0.001h0.605l0.604,0.003l0.605,0.001l0.605,0.003l0.604,0.001l0.605,0.001l0.976,0.001l0.26,0.098
		l0.108,0.107l0.202,0.201l0.459,0.109l1.033-0.094l0.869,0.345l0.778,0.779l0.635,0.972l0.444,0.921l0.607,1.879l0.27,0.48
		l0.984,1.17l0.228,0.421l0.097,0.273l0.03,0.161l0.047,0.132l0.144,0.181l0.813,0.467l0.237,0.341l0.542,0.236l0.975,0.282
		l0.796,0.491l0.445,0.173l0.587,0.068l0.383,0.143l1.017,0.71l0.297,0.267l0.158,0.243l0.168,0.461l0.152,0.247l0.45,0.259
		l0.272,0.205l0.004,0.096l0.394,0.14l0.424,0.342l1.803,2.114l0.163,0.5l0.226,0.347l1.774,1.157l0.398,0.155l0.168,0.111
		l0.566,0.66l0.475,0.364l0.412,0.23l0.349,0.286l0.287,0.526l0.302,0.968l0.228,0.383l0.588,0.297l0.797,0.959l1.896,1.472
		l0.92,1.168l0.29,0.25l0.688,0.179l1.339,0.664l0.146,0.138l0.115,0.162l0.149,0.148l0.244,0.112l0.118-0.007l0.097-0.066
		l0.163-0.207l0.085-0.029l0.257,0.093l0.144,0.03l0.168,0.09l0.225,0.394l0.238,0.09l0.241,0.018l0.175,0.076l0.107,0.17
		l0.042,0.294l0.072-0.044l0.106,0.069l0.299,0.346l0.159-0.202l1.088,1.308l0.442,0.194l0.436,0.093l0.502,0.249l0.455,0.357
		l0.297,0.414l0.066,0.279l0.03,0.303l0.059,0.292l0.148,0.24l0.234,0.073l0.74,0.108l0.157,0.095l0.142,0.299l0.703,0.818
		l0.271,0.475l0.06,0.272l0.044,0.568l0.057,0.273l0.39,0.23l0.088,0.139l-0.008,0.167l-0.132,0.304l-0.034,0.186l0.052,0.298
		l0.229,0.36l0.052,0.268l-0.028,0.403l-0.033,0.176l0.041,0.144l0.194,0.301l0.173,0.189l0.31,0.186l0.14,0.181l0.053,0.231
		l0.024,0.309l0.048,0.267l0.121,0.116l0.443,0.284l0.342,0.659l0.291,0.741l0.287,0.534l0.169,0.124l0.411,0.207l0.219,0.222
		l0.453,0.962l0.334,0.419l0.068,0.61l-0.042,0.979l-0.097,0.621l-0.326,0.969l-0.07,0.539l0.058,0.645l0.435,1.484l0.009,0.234
		l-0.055,0.422l0.046,0.265l0.092,0.148l0.305,0.371l0.066,0.125l0.1,0.276l0.438,0.545l0.323,1.253l0.095,0.227l0.432,0.493
		l0.412,0.329l0.311,0.406l0.208,1.133l0.414,0.78l0.153,0.385l0.045,0.384l0.004,0.27l0.098,0.266l0.331,0.365l1.104,0.777
		l0.331,0.323l0.074,0.169l0.082,0.253l0.106,0.228l0.144,0.101l0.173,0.071l1.902,1.215l0.246,0.364l0.418-0.221l0.651-0.015
		l0.598,0.168l0.377,0.483l0.558,0.418l0.197,0.086l0.15,0.139l0.415,0.959l0.768,0.863l0.511,0.434l0.803,0.4l1.124,1.251
		l0.892,0.501l2.127,0.732l1.495,0.312l1.634,0.101l0.246,0.075l0.22,0.195l0.112,0.267l-0.194,0.596l0.162,0.146l0.273,0.08
		l0.224,0.104l1.098,0.94l0.686,0.382l2.059,0.506l0.63-0.042l0.182,0.042l0.199,0.156l0.081,0.171l0.062,0.195l0.137,0.223
		l1.197,1.196l1.001,0.56l0.283,0.087l0.21,0.146l0.655,0.631l0.34,0.135l0.27-0.163l0.207-0.256l0.212-0.048l0.283,0.467
		l0.133-0.082l0.346-0.117l-0.035,0.137l-0.111,0.427l0.344,0.206l1.397-0.03l1.277,0.355l0.914,0.137l0.589-0.304l0.317-0.719
		l0.106-0.922l0.218-0.065l0.089,0.065l0.139-0.477l0.113-0.253l0.192-0.166l0.933-0.503l0.195-0.159l0.197-0.284l0.641-1.347
		l0.435-0.421l0.519,0.29l0.123-0.219l1.06-0.805l0.632-0.12l0.259-0.117l-0.214-0.301l-0.565-0.375l-0.177-0.255l0.007-0.327
		l0.325-1.037l0.007-0.498l0.049-0.279l0.143-0.191l0.281-0.232l0.119-0.044l0.14,0.004l0.171-0.02l0.208-0.123l-0.008-0.113
		l-0.176-0.38l0.024-0.156l0.219-0.357l0.005-0.318l-0.087-0.301l-0.057-0.305l0.048-0.366l0.12-0.252l0.155-0.245l0.744-1.981
		l0.21-0.167l0.135-0.208l-0.12-0.365l0.22-0.111l0.055-0.099l-0.13-0.341l0.282-0.134l0.146-0.165l0.224-0.45l0.002-0.062
		l0.377-0.727l0.099-0.029l0.106-0.374l0.677-1.212l0.071-0.298l0.025-0.236l0.06-0.2l0.177-0.186l0.173-0.021l0.872,0.021
		l0.409-0.096l0.839-0.469l0.434-0.171l0.091,0.046l0.107,0.276l0.121,0.063l0.153-0.031l0.076-0.061l0.042-0.063l0.243-0.2
		l0.188-0.334l0.182-0.065l2.551,0.2l0.046-0.095l0.563-0.824l0.081-0.272l0.048-0.717l0.089-0.26l0.175-0.175l0.284-0.063
		l0.264-0.109l0.223-0.493l0.216-0.135l0.44,0.123l0.307,0.304l0.3,0.231l0.418-0.106l0.113,0.49l0.319,0.166l0.843,0.081
		l1.085,0.582l0.271,0.238l0.848,0.366l2.214-0.239l0.623,0.157l0.367-0.35l0.355,0.111l0.336,0.281l0.305,0.159l0.221-0.013
		l0.217-0.046l0.199-0.09l0.162-0.145l0.188-0.099l0.231,0.039l0.465,0.152h0.783l0.266-0.184l0.157,0.003l0.07,0.283l0.197,0.15
		l3.793,0.544l1.214-0.159l0.359-0.132l0.255-0.275l0.098-0.512l0.077-0.12l0.17,0.058l0.17,0.185l0.077,0.26l-0.045,0.134
		l-0.214,0.465l-0.075,0.219l0.493,0.138l0.375-0.214l0.362-0.314l0.453-0.161l0.198,0.07l0.158,0.351l0.224,0.131l0.257,0.025
		l0.254-0.035l0.238-0.081l0.208-0.108l-0.098,0.341l0.065,0.347l0.162,0.328l0.38,0.598l0.158,0.48l0.287,0.645l0.156,0.248
		l0.202,0.197l0.299,0.156l0.618-0.006l0.204,0.135l-0.039,0.421l-0.19,0.567l-0.03,0.401l0.261,0.1l0.406-0.367l0.58-0.332
		l0.581-0.067l0.348,0.333l0.029,0.701l-0.204,0.799l0.086,0.367l0.232,0.247l0.259,0.025l0.242,0.067l0.203,0.155l0.447,0.565
		l0.673,0.366l1.561,0.488l0.705,0.253l0.191,0.458l0.086,0.768l0.088,0.372l0.139,0.279l0.191,0.254l0.228,0.218l0.255,0.165
		l1.698,0.785l0.549,0.496l0.454,0.592l0.185,0.156l1.117,0.532l0.466,0.351l0.303,0.391l0.493,0.922l-0.187,0.572l0.178,0.362
		l1.233,1.022l0.068,0.144l0.112,0.175l0.262,0.07l0.296,0.043l0.215,0.086l0.189,0.362l0.202,1.547l0.454,1.06l0.091,0.556
		l-0.21,0.573l0.167,0.166l0.095,0.223l0.045,0.282l0.011,0.348l0.128,0.181l0.278,0.208l0.28,0.288l0.127,0.423l0.07,0.098
		l0.345,0.176l0.129,0.091l0.068,0.205l-0.149,0.333l0.081,0.19l0.153,0.083l0.339,0.01l0.152,0.09l0.098,0.144l0.121,0.274
		l0.1,0.136l0.139,0.263l0.587,2.574l0.293,0.595l0.852,1.126l-0.03,0.46l0.266,0.196l0.546,0.261l0.234,0.188l0.101,0.254
		l-0.039,0.641l0.023,0.294l0.316,0.543l0.472,0.329l0.967,0.383l-0.677,0.364l-0.121,0.197l0.029,0.296l0.169,0.211l0.19,0.159
		l0.091,0.151l0.109,0.972l0.211,0.933l0.671,0.889l0.359,0.593l0.014,0.43l-0.15,0.488l0.216,0.512l0.401,0.443l0.402,0.287
		l0.652,0.123l0.161,0.058l0.07,0.224l0.041,0.373l0.083,0.349l0.197,0.155l0.382,0.074l2.29,1.17l0.43,0.437l0.177,0.582
		l0.021,0.356l0.069,0.192l0.316,0.357l0.326,0.287l0.173,0.055l-0.007,0.14l-0.07,0.176l-0.015,0.172l0.156,0.447l0.161,0.348
		l0.221,0.334l0.339,0.406l0.345,0.131l0.494,0.112l0.29,0.198l-0.266,0.388l0.228,0.39l0.364,0.478l0.411,0.405l0.36,0.171
		l0.059,0.122l-0.091,0.271l-0.201,0.411l0.077,0.296l0.182,0.148l0.217,0.126l0.177,0.233l0.035,0.253l-0.067,0.575l0.032,0.255
		l0.12,0.03l0.315,0.263l0.276,0.301l0.001,0.143l0.578,0.115l0.028,0.026l0.27,0.251l0.2,0.355l0.287,0.334l0.219,0.123
		l0.417,0.136l0.161,0.102l0.097,0.226l0.053,0.306l0.079,0.269l0.178,0.117l0.289,0.456l0.116,0.183l0.124,0.105l0.833-0.005
		l0.141,0.142l0.235,0.451l0.088,0.11l0.265-0.009l0.493-0.279l0.287-0.074l0.232,0.115l0.281,0.508l0.139,0.115l0.403,0.131
		l0.467,0.229l0.468,0.428l0.182,0.391l0.003,1.063l-0.07,0.604l0.013,0.276l0.136,0.117l0.36,0.024l0.184,0.102l0.093,0.218
		l0.082,0.374l-0.017,0.118l0.017,0.978l-0.065,0.313l-0.208,0.605l-0.072,0.524l-0.121,0.343l-0.027,0.28l-0.083,0.247
		l-0.402,0.447l-0.153,0.277l0.658,0.262l0.155,0.096l0.04,0.073l0.045,0.213l0.059,0.09l0.268,0.133l0.066,0.045l0.334,0.404
		l0.255,0.43l0.161,0.469l0.048,0.509l-0.089,0.504l-0.34,1.136l-0.049,0.529l0.053,0.119l0.104,0.151l0.101,0.19l0.047,0.24
		l-0.062,0.229l-0.46,0.857l0.42,0.587l0.09,0.148l0.356,0.29l0.201,0.079l0.204,0.009l0.187,0.049l0.153,0.207l0.062,0.293
		l-0.005,0.537l0.098,0.286l0.218,0.222l0.932,0.76l0.257,0.347l0.748,0.923l0.334,0.436l0.394,0.409l0.339,0.444l0.331,1.138
		l0.298,1.254l0.94,2.768l0.064,0.424l0.166,1.299l0.15,0.614l0.559,0.236l0.604,0.151l0.283,0.354l0.269,0.733l0.049,0.336
		l-0.102,0.297l-0.205,0.335l-0.149,0.332l0.058,0.293l0.489,0.402l0.447,0.076l0.437-0.058l0.462,0.019l0.114,0.076l0.153,0.232
		l0.138,0.048l0.151-0.032l0.4-0.163l0.563,0.015l0.203,0.146l0.205,0.408l0.362-0.364l0.862,0.636l0.533-0.112l0.226,0.152
		l0.227,0.058l0.199-0.046l0.146-0.164l0.258,0.148l0.18-0.054l0.164-0.103l0.21,0.008l0.128,0.1l0.351,0.434l0.805,0.509
		l0.245,0.315l-0.093,0.438l0.32-0.03l0.305,0.027l0.275,0.111l0.232,0.232l-0.299,0.354l0.047,0.131l0.208,0.028l0.188,0.054
		l0.481,0.465l0.258,0.166l0.306,0.065l1.377-0.533l0.674,0.363l0.731,0.193l0.668,0.269l0.481,0.598l0.37-0.476l0.647,0.214
		l0.74,0.432l0.651,0.186l-0.185,0.53v0.262l0.269,0.089l0.619,0.008l0.146,0.178l0.543,0.831l0.219,0.251l1.817,0.937l0.878,0.265
		l0.814,0.04l1.101-0.293l0.463,0.105l0.191,0.632l0.226,0.116l0.497-0.172l0.727-0.387l0.323-0.016l1.345,0.195l1.483-0.18h1.78
		l0.46,0.133l0.047,0.401l0.312,0.093l2.041,0.13l0.461,0.103l0.431,0.212l0.439,0.349l0.224,0.34l0.193,0.417l0.245,0.353
		l0.681,0.302l1.049,1.09l0.422,0.283l0.371,0.16l0.395,0.072l0.494,0.016l0.162,0.192l0.13,0.407l0.241,0.374l0.496,0.09l0.1-0.097
		l0.01-0.157l0.039-0.121l0.185,0.004l0.158,0.133l0.07,0.191l0.096,0.168l0.234,0.074l0.473-0.216l0.013-0.506l-0.166-0.592
		l-0.066-0.475l0.094-0.146l0.529-0.387l0.408,0.291l0.545-0.171l0.431-0.408l0.066-0.423l0.311-0.074l1.124,0.074L526.076,247.997z
		 M113.965,440.216h1.204l0.089,0.069l-0.015,0.158l-0.072,0.175l-0.075,0.117l-0.161,0.112l-0.153,0.023l-0.159-0.009l-0.806,0.102
		l-0.39-0.156v-0.285L113.965,440.216z M203.453,429.244l0.319,0.132l0.299,0.344l0.192,0.449v0.44l-0.306,0.428l-0.411,0.034
		l-0.451-0.024l-0.428,0.251l-0.354-0.365l-0.321-0.266l-0.346-0.211l-1.03-0.44l0.016-0.172l0.106-0.43l0.208-0.565l0.339-0.479
		l0.888-0.811l0.479,0.183l0.558,0.423l0.359,0.543L203.453,429.244z M206.528,415.693l0.203,0.147l0.163,0.206l0.257,0.493
		l-0.594,0.435l-0.257,0.249l-0.105,0.262l-0.038,0.058l-0.076-0.074l-0.063-0.179l0.003-0.243l0.086-0.218l0.308-0.541l0.114-0.256
		V415.693z M313.79,366.329l-0.04,0.503l-0.041,0.439l-0.221-0.098l-0.242,0.135l-0.535-0.283l-0.214-0.343l0.452-0.488l0.426,0.028
		l0.23-0.057l0.105,0.062L313.79,366.329z M309.58,362.435l0.426,0.028l0.31,0.018l0.019,0.257l0.211,0.188l0.006,0.232
		l-0.421,0.203l-0.093,0.389l-0.058,0.272l-0.362-0.058l-0.613-0.305l-0.348-0.044l-0.364-0.288l-0.455-0.077l-0.324-0.442
		l0.482-0.373l0.29-0.277l0.258,0.045l0.268-0.072l0.288,0.199L309.58,362.435z M307.053,359.593l-0.085,0.208l0.045,0.244
		l0.056,0.179l-0.191,0.094l-0.022,0.142l-0.125,0.146l-0.138,0.159l-0.007,0.219l-0.105-0.075l-0.115,0.029l0.022-0.143
		l0.073-0.157l-0.172-0.163l-0.169-0.047l-0.911-0.338l-0.932-0.594l0.025-0.091l0.036-0.117l-0.005-0.193l-0.159-0.228
		l-0.142-0.332l-0.228-0.33l-0.107-0.152l0.152-0.107l0.006-0.258l-0.033-0.283l-0.238-0.226l0.437-0.089l0.495,0.155l0.49-0.026
		l0.289,0.173l0.927,0.403l0.316,0.276l-0.046,0.234l-0.07,0.298l0.292,0.314l0.186,0.176l0.121,0.203l0.106,0.088l0.105,0.062
		L307.053,359.593z M303.514,355.061l0.018,0.194l0.118,0.062l0.048,0.322l-0.176,0.185l0.134,0.177l-0.495,0.323l-0.233-0.498
		l0.118-0.356l0.135-0.349l0.157,0.074L303.514,355.061z M229.394,292.926l0.301,0.391l0.334,0.696l0.033,0.273l0.204,0.42
		l-0.104,0.464l-0.28-0.086l-0.378-0.079l-0.735-0.091l-0.267-0.118l0.051-0.205l-0.31-0.435l-0.36-0.579l-0.293-0.935l-0.255-0.792
		l0.063-0.235l0.107-0.231l-0.486-1.034l0.075-0.878l0.024-0.385l0.151,0.038l0.175,0.28l0.043,0.347l0.27,0.351l0.144,0.235
		l0.176,0.241l0.23,0.564l0.273,0.562l0.293,0.344l0.363,0.734L229.394,292.926z M189.065,288.992l0.518,0.139l0.697,0.223
		l0.994,0.698l0.097,0.179l-1.632-0.732l-0.664-0.104l-0.841-0.07l-0.961,0.241l-0.618,0.099l-0.197-0.168l0.182-0.272l0.18-0.159
		l0.274,0.107l0.403-0.041l0.669-0.097l0.402,0.035L189.065,288.992z M184.582,287.225l0.684,1.304l0.421,0.419l0.268-0.035
		l0.057,0.186l-0.174,0.385l0.137,0.29l-0.173,0.427l-0.212,0.323l0.052,0.474l-0.718-0.981l-0.461-0.461l-1.151-0.846l-0.887-0.737
		l-0.604-0.546l-0.852-0.469l-0.16-0.188l-0.265-0.088l-0.34-0.397l-0.813-0.366l-0.611-0.218l-0.119-0.208l0.418-0.34l0.406,0.234
		l0.267,0.005l1.294-0.014l0.553,0.032l0.392-0.074l0.323,0.274l0.31-0.075l-0.028,0.328l0.177,0.353l0.222,0.148l0.075,0.33
		l0.468,0.092l0.531,0.053L184.582,287.225z M217.963,285.456l0.227,0.29l0.239,0.036l0.062,0.37l0.152,0.305l0.187,0.183
		l-0.105,0.297l-0.331,0.043l-0.145,0.252l0.114,0.359l-0.219,0.166l-0.126,0.229l-0.092,0.425l-0.503-0.044l-0.019-0.231
		l-0.091-0.168l0.091-0.297l-0.146-0.141l-0.19-0.033l-0.169,0.172l-0.047-0.233l-0.075-0.207l0.398-0.138l-0.036-0.137
		l-0.161-0.032l-0.037-0.138l-0.201-0.102l-0.173-0.142l-0.103-0.221l-0.069-0.398l0.102-0.201l-0.213-0.143l0.02-0.204l0.304-0.127
		l0.156-0.173l-0.207,0.035l-0.254-0.145l0.036-0.284l-0.26,0.059l-0.049-0.192l0.101-0.2l-0.215-0.09l-0.076-0.18l0.363-0.3
		l0.063-0.245l0.257,0.101l0.14,0.306l0.144,0.209l0.251,0.254l0.073,0.262l-0.081,0.366l0.422,0.054L217.963,285.456z
		 M208.947,270.546l0.049-0.185l0.042-0.076l0.114,0.045l0.164,0.242l0.239,0.717l0.377,0.346l0.615,0.091l0.659,0.188l0.491,0.193
		l0.067,0.215l0.154,0.095l0.204,0.173l-0.018,0.252l0.171,0.214l0.06,0.441l-0.114,0.646l0.266,0.51l0.139,0.255l0.114,0.369
		l0.339,0.533l0.211,0.278l-0.191,0.088l-0.473,0.1l-0.219-0.028l-0.21,0.035l-0.174,0.225l-0.102-0.066l0.099-0.154l0.131-0.184
		l-0.004-0.209l-0.236-0.133l-0.266-0.196l-0.35-0.157l0.004-0.125l-0.236-0.143l-0.273,0.033l-0.241,0.024l0.015-0.167l0.12-0.174
		l-0.176-0.381l-0.249-0.092l-0.134-0.422l0.006-0.22l-0.129-0.234l-0.172-0.204l-0.024-0.241l-0.042-0.358l-0.15-0.234
		l-0.343,0.014l-0.187-0.262l-0.195,0.018l-0.076-0.275l0.001-0.366l0.081-0.205l-0.01-0.335L208.947,270.546z M176.404,282.853
		l0.167,0.261l0.427,0.57l0.168-0.009l-0.001,0.289l0.148,0.149l0.166,0.372l-0.057,0.336l-0.195-0.047l-0.539-0.233l-0.26-0.196
		l0.056-0.131l-0.129-0.503l-0.193-0.394l-0.307-0.324l-0.241-0.188l-0.215,0.01l-0.296-0.625l-0.298-0.094l-0.102-0.177
		l0.187-0.195l0.047-0.251l0.149-0.037l0.186,0.047l0.168-0.009l0.15-0.242l0.057-0.457l-0.083-0.429l-0.157-0.448l-0.223-0.29
		l-0.279-0.308l-0.186-0.206l-0.324-0.272l-0.403-0.211l-0.165-0.07l-0.252-0.084l-0.308-0.029l-0.191,0.012l-0.107,0.025
		l-0.149,0.102l-0.094,0.186l-0.001,0.177l0.073,0.466l-0.037,0.056l-0.214-0.224l-0.092-0.382l-0.749-0.494l0.069-0.281
		l-0.009-0.112l0.047-0.065l0.233-0.065l0.347-0.696l0.417-1.158l1.193-3.432l0.364-1.169l0.643-2.408l0.437-1.846l0.047-0.707
		l0.109-0.262l0.293-0.015l0.119,1.171l-0.155,0.492l-0.388,0.999l-0.294,0.568l-0.312,1.735l-0.232,0.736l0.198,0.397l0.082,0.263
		l-0.056,0.345l0.131,0.235l0.061,0.228l-0.008,0.352l-0.194,0.124l-0.207-0.132l-0.187,0.345l-0.042,0.235l0.033,0.787l-0.2,0.165
		l0.116,0.656l0.179,0.263l0.151,0.187l-0.133,0.166l-0.298-0.034l-0.21,0.011l-0.067,0.155l-0.05,0.147l-0.103,0.196l0.065,0.224
		l0.046,0.392l0.065,0.159l0.242,0.15l0.186,0.14l0.13,0.168l0.084,0.103l0.177,0.028l-0.047,0.056l-0.103,0.037l0.037,0.065
		l0.242,0.327l0.081,0.411l0.54,0.561l0.177,0.243l0.018,0.326l-0.01,0.159l0.093,0.084l0.093-0.018l0.176,0.457l-0.253,0.4
		l-0.121,0.177l-0.196,0.195l-0.075,0.242l0.065,0.158l0.093,0.279L176.404,282.853z M252.858,261.984l0.299,0.145l0.456,0.69
		l0.298,0.224l-0.407,0.281l-0.763-0.351l-0.839-0.536l-0.639-0.279l-0.169-0.019l-0.211-0.106l-0.179-0.05l-0.204-0.023
		l-1.438,0.015l-0.326-0.151l-0.12-0.372l2.62,0.011l0.427,0.086L252.858,261.984z M207.673,257.647l-0.481-0.27l-0.459-1.038
		l0.046-0.791l0.271-0.528l0.221-0.39l0.212-0.064l0.08,0.445l0.186,0.052l-0.108,0.462l0.165,0.727l0.15,1.287L207.673,257.647z
		 M200.292,247.143l0.261,0.042l-0.02,0.285l0.129,0.087l-0.007,0.274l-0.04,0.166l-0.115-0.146l-0.166-0.028l-0.172-0.243
		l-0.164-0.088l-0.171-0.302l-0.262,0.005l-0.17,0.116l0.008,0.154l-0.031,0.261l-0.236,0.375l-0.245,0.232l-0.299,0.515
		l-0.442,0.512l-0.186,0.281l0.068,0.132l-0.129,0.401l0.049,0.394l-0.173,0.257l-0.215,0.018l-0.15,0.281l0.034,0.525l0.049,0.394
		l-0.099,0.164l-0.194-0.314l-0.153-0.04l-0.245-0.162l0.014-0.189l-0.085-0.312l0.036-0.226l0.315-0.521l-0.023-0.326l0.22-0.85
		l-0.028-0.31l0.235-0.35l0.103-0.319l0.198-0.397l0.314-0.22l0.127-0.24l-0.065-0.393l0.089-0.54l-0.173-0.305l-0.01-0.212
		l0.333-0.053l0.653-0.195l-0.053-0.272l0.2-0.13l0.176,0.185l0.387,0.192l0.563-0.166l0.112-0.223l0.425-0.079l-0.345,0.474
		l-0.254,0.648L200.292,247.143z M224.518,218.714l0.18-0.061l0.451,0.147l0.753,0.371l0.648,0.462l0.455,0.808l-0.18,0.001
		l-0.53-0.733l-0.538-0.397l-0.637-0.332l-0.391-0.073L224.518,218.714z M211.438,212.644l-0.056-1.067l0.047-0.63l0.165-0.611
		l0.103-0.296l-0.125,1.024l0.103,1.217l0.441,0.477l1.04,0.35l-0.086,0.422l-1.267-0.483L211.438,212.644z M104.164,185.604
		l0.253,0.707l0.239,0.157l-0.043,0.266l0.168,0.363l0.137,0.631l-0.235,0.71l0.011,0.581l0.314,0.525l0.079,0.587l-0.099,0.53
		l0.091,0.263l-0.16,0.296l-0.295,0.136l-0.026,0.205l-0.218,0.28l0.064,0.292l-0.115,0.221l0.136,0.439l-0.144,0.368l0.21,0.424
		l-0.087,0.147l0.031,0.191l-0.177-0.072l-0.124-0.096l-0.274-0.106l-0.277,0.164l-0.234,0.091l-0.134-0.205l-0.307,0.062
		l-0.163-0.174l-0.183-0.79l-0.43-0.459l-0.544-0.191l-0.424,0.21l-0.351,0.062l-0.231,0.355l-0.267-0.305l0.138-0.896l0.424-0.224
		l1.41-1.713l0.793-1.169l-0.36-0.804l-0.171-0.924l0.125-0.761l0.197-0.846l0.319-0.29l0.47-0.214l0.535,0.463L104.164,185.604z
		 M157.937,176.66l0.771,0.155l1.304,0.941l0.32,0.364l0.193,0.14l0.107,0.194l0.348,0.199l0.08,0.212l0.18,0.1l-0.225,0.243
		l-0.277,0.164l-0.165-0.14l-0.062-0.132l-0.128-0.024l-0.206-0.613l-0.296-0.227l-0.438-0.196l-0.311-0.38l-0.588-0.085l0.06-0.183
		l-0.155-0.144l-0.13-0.208l-0.165-0.182L157.937,176.66z M164.494,175.379l0.292-0.059l0.167-0.113l0.552,0.089l0.291-0.131
		l0.222,0.14l0.029,0.295l0.124,0.138l-0.107,0.277l0.006,0.407l-0.192,0.381l-0.423,0.104l-0.528-0.125l-0.226,0.097l0.08-0.201
		l-0.264-0.753L164.494,175.379z M172.404,174.243l-0.336,0.143l-0.482,0.444l-0.386-0.436l-0.451-0.066l-0.317,0.185l-0.185-0.367
		l-0.352-0.048l-0.402-0.501l-0.318-0.2l-0.302,0.086l-0.234-0.133l-0.451,0.035l-0.268-0.133l-0.016-0.369l-0.622-0.096
		l-0.051-0.267l-0.602-0.316l-0.623-0.348l-0.32-0.3l-0.251,0.018l-0.236-0.183l0.636-0.438l0.695-0.455l0.359-0.521l0.15-0.093
		l0.104-0.228l0.095-0.273l0.115-0.235l0.115-0.326l-0.089-0.251l-0.243-0.251l-0.08-1.115l0.075-1.162l0.194-1.123l0.275-0.998
		l0.15-0.364l0.214-0.356l0.274-0.314l0.334-0.229l0.384,0.34l0.487-0.001l0.502-0.421l0.402-0.337l0.453-0.084l0.638,0.015
		l0.386-0.067l0.286-0.272l0.218-0.254l0.319-0.118l-0.067,0.236l-0.336,0.338l0.101,0.437l0.269,0.302l0.051,0.134l-0.084,0.219
		l-0.033,0.251l-0.134,0.269l0.136,0.334l-0.1,0.403l0.875,1.122l0.928,1.989l-0.419,0.924l-0.032,0.871l-0.316,1.34l-0.352,0.386
		l0.135,0.351l-0.384,0.519l-0.116,0.519l-0.284,0.368l-0.116,0.485l0.086,0.569l0.268,0.1l0.185,0.301l-0.234,0.151
		L172.404,174.243z M152.226,166.328l0.311,0.114l0.165,0.116l0.366,0.085l-0.34,0.719l0.053,0.333l-0.01,0.782l-0.199-0.05
		l-0.291-0.373l-0.265-0.1l-0.282-0.365l-0.738-0.294l-0.202-0.483l-0.394-0.23l-0.309-0.111l-0.33-0.265l-0.17-0.334l-0.17-0.153
		l-0.111-0.406l-0.299-0.384l-0.396-0.429l-0.186-0.316l-0.278-0.031l-0.2-0.248l-0.325-0.145l-0.443-0.262l-0.189-0.451
		l-0.587-0.259l-0.428-0.395l-0.596-0.825l0.082-0.247l-0.165-0.395l-0.363-0.347l-0.347,0.017l-0.396,0.017l-0.331-0.181
		l-0.166-0.346l-0.034-0.495l-0.165-0.264l-0.298-0.215l-0.166-0.396l-0.182-0.149l-0.101-0.315l-0.348-0.313l-0.049-0.213
		l-0.264-0.312l-0.4-0.317l-0.101-0.645l0.117-0.623l0.345-0.582l0.212-0.783l-0.102-0.451l-0.051-0.416l0.265-0.116l0.034,0.166
		l0.216,0.133l0.314-0.134l0.281-0.134l-0.001-0.183l0.298,0.016l0.001,0.316l0.265,0.066l0.531,0.081l0.315,0.355l0.713,0.707
		l0.314,0.702l0.565,0.19l0.016,0.219l0.215,0.231l-0.017,0.2l0.299,0.362l0.282,0.529l-0.05,0.232l0.315,0.247l-0.265,0.265
		l-0.281,0.348l-0.066,0.463l0.083,0.248l0.049,0.661l0.577,0.38l0.912,0.147l0.214,0.264l0.281,0l0.199-0.232l0.297,0.017
		l0.198,0.083l0.413-0.082l0.396-0.016l0.346,0.099l0.549-0.116l0.333,0.364l-0.24,0.446l0.021,0.578l0.152,0.314l-0.017,0.529
		l-0.001,0.314l0.15,0.149l-0.116,0.281l-0.067,0.578l-0.017,0.743l0.099,0.248l0.281,0.529l0.083,0.182l-0.067,0.263l0.214,0.462
		L152.226,166.328z M113.717,92.108l0.722,0.144l1.055,0.936l0.947,1.176l0.394,0.856h-0.313l-0.278-0.127l-0.221-0.203
		l-0.146-0.232l-0.511,0.413l-1.098-0.561l-0.833-1.127L113.717,92.108z M755.264,435.844l0.071-0.218l0.089-0.211l0.137-0.213
		l0.195-0.217l-0.421,0.85l0.142,1.071l-0.29,0.859l-0.904,1.278h-0.146l0.088-0.191l0.4-0.471l0.228-0.325l0.12-0.241l0.144-0.627
		L755.264,435.844z M756.714,430.761l0.32,0.351l0.171,1.186l-0.04,0.625l-0.305,0.548l0.101-0.698L756.714,430.761z
		 M655.506,429.934l1.042-0.485l0.394-0.035l0.15,0.192l0.12,0.204l0.068,0.259l-0.004,0.357l-0.099-0.077l-0.076-0.091
		l-0.512,0.346l-0.279,0.117L656,430.761l0.107-0.183l0.143-0.142l0.178-0.105l0.211-0.075l-0.462,0.043l-0.803,0.333l-0.346-0.024
		l-0.917,1.292l-0.673,0.565l-0.802,0.164l0.478-0.856l-1.224,0.749l-0.721,0.315l-0.708,0.129h-0.453l-0.164-0.051l0.104-0.173
		l0.353-0.373l0.257-0.159l1.027-0.438l0.654-0.156l1.27-0.684l0.919-0.6L655.506,429.934z M768.869,384.759l0.049-0.091h0.11
		l0.11,0.09l0.049,0.173l-0.044,0.079l-0.276,0.362l-0.825,1.444l-0.299,0.807l-0.384,0.408l-0.711,0.594l-0.274,0.411l-0.586,1.12
		l-0.112,0.426l-0.099,0.129l-0.221,0.13l-0.218,0.172l-0.102,0.25l-0.093,0.171l-0.224,0.272l-1.23,1.143l-0.377,0.174
		l-0.164-0.231l-0.069-0.501l-0.319-1.053l-0.091-0.572l0.072-1.048l0.276-0.967l0.929-1.747l0.733-1.021l0.169-0.071l0.37-0.334
		l0.193-0.107l0.2-0.003l0.148,0.062l0.112,0.075l0.083,0.036l0.256,0.057l0.582,0.24l0.215,0.045l0.314-0.07l0.513-0.314
		l0.293,0.067l0.418-0.155l0.365-0.285L768.869,384.759z M770,369.585l-0.455-0.346l-0.456-0.755l-0.241-0.76l0.194-0.364
		l0.071,0.525l0.257,0.598L770,369.585z M514.109,354.793l0.858,0.592l0.304,0.313l-0.204,0.296l-0.689-0.124l-0.549-0.84
		l-0.369-1.126l-0.132-0.988l0.341,0.348l0.135,0.492l0.093,0.542L514.109,354.793z M510.28,331.254l0.395-1.072l0.23-0.312
		l0.094,0.482l-0.271,0.812l-0.502,0.735l-0.597,0.25l0.141-0.284l0.356-0.392L510.28,331.254z M32.742,165.672l0.512,0.741
		l0.212,1.244l-0.2,0.513l0.18,0.978l-0.104,1.183l-0.597,0.814l-0.444-0.044l-0.272,0.189l-0.168,0.006l0.01,0.288l-0.225-0.233
		l0.085-0.316l0.261-0.105l-0.214-0.618l-0.111-0.405l0.08-0.46l-0.139-0.525l-0.374-0.372l0.272-0.436l-0.218-0.736l-0.229-0.385
		l-0.275-0.299l-0.473-0.424l-0.063-0.446l-0.136-0.392L30,165.004l0.08-0.461l0.201-0.477l0.469-0.37l0.642-0.221l0.302-0.391
		l0.528-0.091l0.417,0.231l-0.371,0.423l-0.278,0.355l-0.058,0.412l0.165,0.54l0.278,0.486L32.742,165.672z M149.735,228.21
		l0.368-0.217l0.211,0.043l0.214,0.087l0.193,0.13l-0.021,0.151l0.194,0.087l0.078-0.087l0.115-0.109l0.155-0.043l0.136,0.066
		l0.269,0.41l0.369,0.542l0.192,0.301l0.02,0.195h-0.194l-0.193-0.151l-0.252-0.172l-0.617-0.261l-0.696-0.216l-0.58-0.151
		l-0.27-0.086l-0.154-0.108l0.154-0.237L149.735,228.21z M700.749,340.087l-0.477-0.244l-0.167-0.173l0.058-0.31l-0.204-0.447
		l0.084-0.185l0.393-0.121l0.478-0.43l0.045-0.64l-0.41-0.52l-0.349-0.374l-0.08-0.538l-0.536-0.314l-0.578-0.211l-0.415,0.142
		l-0.126,0.372l-0.206-0.105l0.084-0.351l0.25-0.329l0.251-0.433l0.374-0.142l0.867,0.4l0.803,0.668l0.779,1.081l0.345,0.932
		l-0.274,1.296l-0.29,0.782l-0.381,0.286L700.749,340.087z M211.859,277.323l0.272-0.209l0.124-0.093l0.094,0.075l-0.057,0.276
		l0.069,0.099l0.08,0.159l-0.004,0.133l-0.157-0.005l-0.007-0.181l-0.133-0.004l-0.146,0.032l-0.151-0.198L211.859,277.323z
		 M91.129,274.163l0.011,0.013v0.026l-0.023,0.006l-0.011-0.013v-0.023L91.129,274.163z M208.854,265.1l0.233-0.003l0.194-0.025
		l0.136-0.148l0.027,0.112l-0.106,0.139l-0.232,0.359l-0.075,0.453l-0.146,0.189l-0.148,0.127l-0.212-0.016l-0.021-0.162
		l-0.098-0.298l0.028-0.263L208.854,265.1z M176.337,260.491l0.079-0.123l0.112,0.079l-0.023,0.359l0.032,0.438l-0.047,0.617
		l-0.024,0.493l-0.136,0.527l-0.069,0.74l0.122,0.538l-0.035,0.426l-0.169,0.302l-0.135,0.336l0.032,0.448l-0.123,0.045l-0.19-0.169
		l-0.167-0.225l0.091-0.403l0.203-0.381l0.182-0.851l0.104-1.121l0.182-1.009l0.058-0.482L176.337,260.491z M200.807,254.872
		l-0.009-0.188l0.374,0.039l0.004-0.144l0.145-0.04l0.137,0.264l0.183,0.164l0.099,0.089l0.148,0.394l-0.079,0.243l-0.137,0.256
		l-0.15,0.198l-0.158-0.033l-0.208-0.309l-0.083-0.147l0.035-0.23l-0.177-0.38L200.807,254.872z M196.155,251.971l0.081,0.039
		l0.038,0.253l0.132,0.063l-0.055,0.117l0.093,0.136l0.028,0.067l-0.076,0.072l0.024,0.201l0.086,0.113l0.004,0.133l-0.067,0.028
		l-0.165-0.204l-0.128-0.203l0.014-0.251l0.022-0.266l-0.076-0.217L196.155,251.971z M195.491,243.834l0.266-0.274l0.156,0.003
		l0.113,0.032l0.029,0.251l-0.045,0.187l-0.064,0.082l0.108,0.099l-0.039,0.164l-0.229,0.001l-0.173,0.003l-0.112,0.045l0.064-0.088
		l0.072-0.102l0.01-0.109l-0.155-0.114L195.491,243.834z M176.555,215.102l-0.276-0.326l0.438-0.606l0.606,0.487l0.441,0.652
		l-0.163,0.604l-0.328,0.386l-0.495-0.104l-0.111-0.546L176.555,215.102z M181.339,209.724l-0.281-0.227l0.075-0.305l0.508-0.104
		l0.382,0.176l0.154,0.228l-0.075,0.203l-0.458,0.053L181.339,209.724z M103.949,197.496l0.169,0.027l0.284,0.251l0.312,0.222
		l0.212,0.139l0.072,0.224l-0.125,0.226l-0.196,0.072l-0.127-0.055l-0.089-0.477l-0.27-0.335l-0.367-0.081l-0.254-0.11l0.054-0.197
		L103.949,197.496z M193.111,195.478l-0.153-0.28l0.178-0.23l0.332,0.51l0.179,0.408l-0.382-0.102L193.111,195.478z M94.844,186.246
		l0.13,0.196l0.21-0.115l0.268,0.011l0.073,0.169l-0.254,0.003l-0.083,0.171l-0.309,0.089l-0.242-0.181l-0.03-0.155l0.069-0.156
		L94.844,186.246z M143.331,165.508l0.162,0.015l0.168,0.076l0.015,0.113l-0.089,0.135l-0.025,0.112l0.112,0.091l-0.033,0.122
		l-0.01,0.218l0.136,0.17l-0.025,0.153l0.104,0.057l0.007,0.161l0.112,0.073l-0.009,0.097l-0.218-0.01l-0.128-0.09l0.049-0.121
		l-0.096-0.114l-0.128-0.13l0.049-0.129l0.065-0.072l-0.096-0.065l-0.039-0.186l0.009-0.161l-0.145-0.074l-0.039-0.186l-0.104-0.17
		L143.331,165.508z M122.307,141.571l0.39,0.02l0.042,0.451l0.123,0.246l-0.287,0.041l-0.349-0.205l0.143-0.267L122.307,141.571z
		 M82.679,127.791l0.112,0.024l0.126,0.197l0.001,0.149l-0.247,0.015l-0.187-0.085l-0.002-0.174L82.679,127.791z M56.057,75.065
		l0.142,0.06l0.061,0.111l0.072,0.282l0.061,0.202l0.001,0.222l-0.091,0.01L56.22,75.64l-0.031-0.202l-0.071-0.101L56.057,75.065z"
		/>
</g>
<g id="Copyright">
	<text transform="matrix(1 0 0 1 681.6426 577.5916)" class="st1 st2"> Vemaps.com</text>
</g>
</svg>
