<?xml version="1.0" encoding="utf-8"?>
<!-- Generator: Adobe Illustrator 23.0.1, SVG Export Plug-In . SVG Version: 6.00 Build 0)  -->
<svg version="1.1" xmlns="http://www.w3.org/2000/svg" xmlns:xlink="http://www.w3.org/1999/xlink" x="0px" y="0px"
	 viewBox="0 0 800 600" style="enable-background:new 0 0 800 600;" xml:space="preserve">
<style type="text/css">
	.st0{fill:#808080;}
	.st1{font-family:'Roboto-Regular';}
	.st2{font-size:14px;}
</style>
<g id="Nicaragua">
	<path class="st0" d="M339.542,524.393l-0.084-0.04l-6.081-2.547l-2.366-0.369l-1.716-0.94l-0.962-2.209l-1.146-4.479l-2.222-3.322
		L311.96,495.83l-1.071-0.774l-0.575-0.268l-1.865-1.325l-0.402-0.526l-4.236-1.199l-1.89-1.781l-4.092-4.989l-3.249-1.69
		l-4.161-4.428l-5.312-3.042l-1.761-1.589l-0.476-1.007l-1.156-3.705l-3.78-1.696l-4.538-4.425l-11.225-4.947l-1.905-1.403
		l-1.622-1.909l-1.369-3.92l-14.597-11.2l-2.346-2.949l-3.264-7.378l-1.319-1.12l-1.225-0.659l-3.214-3.264l-1.9-2.722l-2.073-3.914
		l-0.397-1.856l-0.595-1.734l-1.404-1.445l-3.001-2.343l-2.842-3.585l-4.603-8.004l-4.281-11.719l-1.205-1.888l-3.04-2.634
		l-24.954-15.325l-1.562-1.929l-6.87-3.976l-3.725-4.027l-8.417-3.804l-0.312-2.88l1.399,1.859l2.391,1.595l2.788,1.143l2.659,0.518
		l-3.031-3.347l-1.562-1.265l-1.686-0.503l-1.042-0.813l-2.748-5.238h-0.759l1.245,4.628l-1.989-1.748l-3.184-4.039l-2.341-2.246
		l-1.513-0.635l-7.619-5.931l-1.012-1.052l-0.551-1.296l-0.66-2.171l-0.342,0.676l-0.947,1.184l-0.372,0.615l-13.412-15.572
		l-1.572-3.27l0.521,0.6l0.506,0.346l1.468,0.763v-0.778l-0.58-0.208l-1.081-0.722v-0.778l-0.312-1.266l-2.044-1.709l-2.763-1.495
		l-2.445-0.651v0.778l3.234,2.136l1.696,1.582l0.06,1.404l-1.24-0.178l-1.801-1.378l-2.708-2.635l-14.3-8.613l-2.976-2.641
		l-1.796-3.099l-0.02-3.664l2.291-4.337l3.437-3.034l3.517-2.199l2.584-2.785l0.6-4.796h0.759l-0.342,2.689l-0.417,0.733h1.369
		l1.652,0.219l1.394,0.428l0.585,0.591l0.575,0.367l3.095,2.663l0.774,0.443l2.207,2.973l0.536,0.412l1.562,0.947l0.402,0.351
		l0.104,0.814l-0.253,1.888l0.149,0.794l3.988,3.99l5.188,1.125l12.544-0.773v-0.931l-6.349,0.163l-3.184-0.351l-1.369-1.13l1.23-2
		l5.893-2.957l0.799-0.545l27.961-1.798l1.805,0.194l2.803,1.729l1.439,0.097l0.661-2.04l2.542-1.251l3.118-1.975l1.386-1.503
		l2.854-4.481l0.693-0.546l1.795-0.899l0.617-0.643l0.327-1.226l-0.479-0.453l-0.687-0.304l-0.309-0.789l1.052-6.585l-0.221-0.314
		l-0.92-2.012l-0.227-0.728l0.208-0.333l0.882-3.526l0.869-1.679l0.983-1.229l5.858-5.054l1.613-1.113l1.959-0.566l2.098,0.178
		l7.017,3.476l1.14,0.362l1.153-0.304l0.869-0.596l0.882-0.605l1.669-1.55l0.945-1.647l0.265-1.926l-0.724-3.586l-0.258-0.761
		l-0.882-1.596l-0.787-0.712l-0.831-0.198l-0.724-0.382l-0.466-1.25l0.189-1.79l1.55-3.461l0.202-1.953l-3.937-15.039l-0.063-2.135
		l0.756-4.015l-0.082-2.006l-0.466-0.81l-1.064-0.81l-0.498-0.379l-0.479-0.648l-0.233-1.138l0.352-6.686l0.115-2.176l0.283-1.748
		l0.208-0.765l0.58-0.512l1.405-0.976l2.765-1.398l2.551-0.221l5.316,0.668l9.94-1.903l4.813-0.285l4.038,2.228l2.161,0.613
		l1.77-0.568l1.638-0.869l1.783-0.253l1.921,1.988l0.724,0.519l1.153,0.373l0.85,0.123l6.293-0.405l2.236-0.551l1.82-0.892
		l1.417-1.612l0.705-1.894l0.958-3.72l1.927-3.062l7.988-8.62l4.208-6.594l1.279-0.854l1.436-0.558l1.474-0.772l1.424-1.496
		l0.876-1.6l0.479-1.211l0.636-1.087l1.367-1.247l1.676-0.873l9.329-1.393l-0.031,1.393l-1.316,2.701l0.346,3.331l8.611,6.277
		l2.639,3.505l0.819,0.766l1.694,0.584l1.121-0.24l1.109-0.461l1.663-0.104l2.677,1.184l1.43,2.177l1.191,2.576l1.943,2.371
		l2.699,0.937l2.847-0.091l2.482,0.208l1.622,1.833l0.229,0.091l0.08,0.032l0.264-0.243l0.841-0.772l1.008-2.027l0.258-1.943
		l-0.693-1.457l-1.827-0.571l-0.46-1.093l0.507-2.421l1.206-3.777l0.145-2.752l0.592-0.688l1.263,0.292l2.164,0.149l1.553-0.734
		l2.476-2.152l1.039,0.312h0.753l-0.057-0.591l0.189-0.146l0.334,0.007l0.372-0.123l-0.397-1.321l4.274-1.311l1.187-1.23l1.153-1.75
		l2.671-0.886l1.042-0.188l2.013-0.364l2.277-0.753l1.137-1.721l0.271-2.003l0.702-1.666l4.384-1.208l2.079-1.211l3.156-2.488
		l1.411-1.764l1.345-2.426l1.005-2.391l0.885-3.216l1.172-1.972l1.402-1.842l1.175-1.134l0.529-0.098l1.307,0.208l0.51-0.11
		l0.343-0.41l0.346-0.92l0.863-1.046l0.495-0.848l0.668-0.702l1.143-0.293l2.898-1.446l1.266-0.273h4.614l3.017-0.536l3.049-1.014
		l2.507-1.524l1.414-2.077l-0.123-2.868l-1.565-2.51l-2.176-1.993l-1.962-1.297l3.332-2.579l0.139-0.797l-0.284-1.922l0.145-0.8
		l2.816-3.006l0.435-0.817l0.246-6.364l0.529-3.495l0.967-1.793l2.22,0.569l1.947,2.154l2.069,1.552l2.576-1.224l4.34-4.37
		l0.729-1.711l0.175-0.411l-3.162,0.003l0.724-0.97l2.684-2.552l-3.452-2.467l-0.658-1.227l1.915-0.524l0.63-0.296l0.397-0.752
		l0.639-4.663l1.083-1.97l1.666-1.576l0.249-0.169l1.899-1.287l2.183-1.563l5.587-5.43l2-1.17l7.288-1.333l3.21-0.14l3.165,0.958
		l2.677,2.007l1.792,2.984l-0.378,0.355l-0.954,1.235l-0.066,0.248l2.425,0.306l0.337,1.521l-0.123,1.677l2.491,1.697l1.272,2.107
		l1.839,4.314l2.252-1.358l2.334,0.254l4.721,2.045l2.746,0.592l8.901,0.267l-0.463,0.892l-0.365,2.467l1.849-0.573l1.288,0.713
		l1.276,1.097l1.868,0.56l1.351-0.397l3.156-1.771l4.545-1.605l2.246-2.78l1.691-3.181l1.609-2.38l1.187,1.215l0.872,3.276
		l0.932,0.667l1.855,0.173l2.961,0.671l1.351,0.098l2.501-1.325l0.624-2.774l-0.63-5.914l0.674-1.495l1.534-0.111l1.685,0.59
		l1.099,0.625l0.939,0.798l2.885,3.117l1.477,0.612l1.792-0.14l2.973-0.869l0.721-0.423l0.491-0.606l0.624-0.524l1.112-0.241
		l1.024,0.176l0.573,0.3l0.516,0.059l0.835-0.534v-0.944l-1.068-1.042l-0.844-1.156l-1.414-2.961l1.335-1.121l0.891-0.065
		l2.79,1.782l0.315,0.583l0.46,0.446l1.282,0.173l2.057-0.068l0.627,0.345l0.233,0.974l2.094,0.254l12.05-0.645l-0.627-1.036
		l0.025-1.163l0.602-2.886l1.471,0.831l1.962,2.111l1.559,0.42l-0.151-0.534l-0.602-1.182l0.885,0.365l0.479,0.137l0.425,0.313
		l0.706,0.902l1.484-1.345l2.17-1.215l2.419-0.782l2.249-0.02l-0.948-0.645l-0.602-0.616l-0.869-1.476l6.797-0.417l2.532-0.994
		l-0.249-1.958l1.54-0.098l1.257,0.176l0.904,0.57l0.46,1.075h0.904l-1.156-3.62l0.472-1.401l2.274-1.089l2.416-0.336l2.706,0.143
		l2.242,0.668l1.036,1.326h0.907l0.526-1.541l0.258-1.698l0.598-1.366l2.986-1.125l3.036-2.435l1.754-0.525l-0.239-0.443
		l-0.327-0.893l-0.271-0.385l1.811,0.528l0.687,0.336l-0.372-1.692l0.157-1.467l0.68-0.541l1.197,1.115l0.073-1.914l0.198-0.776
		l0.643-0.838l-0.822-1.223l0.413-0.636l1.228-0.14l1.603,0.274l0.646,0.623l1.483,2.289l1.121,0.619l2.86-0.339l2.469-1.483
		l1.899-2.106L621.3,30l1.521,1.226l1.565,0.62l1.272,0.792l0.633,1.673l1.843-1.216l2.094-0.14l5.373,0.571l-1.452,0.714
		l-0.095,0.665l0.895,0.629l1.483,0.584l0.504-0.088l5.398,0.088l3.219-1.483l1.698-0.323l4.113,0.241l1.61-0.266l-0.892,1.299
		l-2.232,1.042l-1.106,1.186l-1.791-2.136l-1.468,1.479l-1.17,2.675l-0.903,1.432l-1.557,0.76l-1.488,1.812l-1.101,2.14l-0.432,1.74
		l-0.322,0.59l-1.552,1.529l-0.625,0.898l-0.312,1.227l-0.223,2.699l-0.298,1.242l-0.997,1.575l-1.468,1.124l-4.196,1.678
		l0.298-0.754l0.337-0.6l1.032-1.226v0.944l0.412-0.703l0.238-0.58l0.104-0.621l0.01-0.836l-0.947,0.585l-0.392,0.097l-1.091-0.682
		v-0.78l1.458-0.693l1.389-0.18l1.22,0.451l0.932,1.201l-0.094-2.381l-1.31-3.264l-0.332-2.54l-0.754-2.525l-1.746-0.416
		l-1.974,0.739l-1.438,0.909l-2.401,2.248l-5.397,6.974l-1.28,2.996l1.19-1.257l0.407-0.549l1.671,1.344l1.324,5.176l0.818,1.154
		l1.607,0.969l1.756,1.698l1.845,0.605l1.87-2.334l-0.888-0.775l-2.247-1.385l-1.027-0.426l1.374-0.77l1.409,0.416l1.28,1.241
		l1.002,1.698l-0.079-2.878l0.883-0.893l1.091,1.093l4.767,22.074l0.263,0.707l1.141,2.352l1.012,6.011l5.912,17.257l0.635,4.941
		l-0.585,4.305l-3.313,7.938l-10.128,16.392l-4.37,5.329l-0.625,2.081l-0.858,1.534l-5.803,4.08l-2.45,3.481l-1.691,4.002
		l-2.931,11.656l-4.692,15.838l-2.887,14.309l0.179,6.149l-0.506,2.995l-0.025,2.398l-2.554,6.239l-2.172,8.277l-1.339,16.129
		l0.233,3.017l0.863,1.733l-0.908,0.785l0.685,1.534l4.072,24.789l2.669,16.242l-4.102,32.971v7.288l0.407,1.199l1.766,3.588
		l1.18,3.973l3.403,4.786l0.813,3.114l-0.312,3.814l-1.28,2.037l-2.47,0.818l-3.923,0.152l-2.986,0.614l-3.045,1.102l-2.847,0.457
		l-2.43-1.32l0.918-0.894l2.515-1.788l0.729-0.813l0.104-1.463l-0.461-1.96l-0.779-1.717l-2.673-2.398l0.213-8.17l-0.565-3.12
		l0.446-0.244l0.144-0.015l0.074-0.066l0.248-0.452h0.754l4.315,1.387l3.006-3.903l1.022-5.621l-1.607-3.802v-0.93l1.052-1.185
		l0.417-1.683l0.198-6.982l0.218-0.264l0.496-0.417l0.565-0.631l0.377-0.859l-0.407-3.352l-2.361-1.989l-3.264-0.799l-3.115,0.244
		l-2.52,1.475l-1.081,2.309l0.07,2.543l0.952,2.207l2.678,1.444l0.278,0.254l-0.015,0.422l0.208,2.12l0.179,0.875l0.521,0.854
		l0.565,0.356l0.466,0.488l0.188,1.286l-0.06,2.11l-0.268,0.864l-0.58,0.945l0.481,0.59l1.26,1.972l-3.824,2.236l-6.488,5.469
		l-3.913,1.672l-5.268,0.564l-2.217,0.732l-0.908,1.646v6.503l0.149,0.142l0.486-0.274l1.022,0.061l1.468,0.315l0.982-0.03
		l0.818,0.254l0.977,1.168l0.833,5.577l-0.486,2.666l-0.853,2.524l-0.407,2.382l0.913,2.27l2.262,1.112l3.819-0.823l0.65,1.919
		l-0.144,1.249l-0.625,2.442l-0.139,1.421l0.253,0.782l0.565-1.137l1.934-6.402l0.744-1.609l1.076-0.66l2.406,0.35l0.511,0.949
		l-5.694,11.473l-2.703,14.798l0.893,15.957l0.923,2.677l-0.833,0.507l-0.908,0.345l0.496-2.561l-0.863-2.13l-3.041-3.809
		l-1.28-3.16l1.037-1.339l1.776-1.222l0.967-2.871l-0.625-2.116l-1.602-2.435l-2.148-2.101l-2.287-1.091l-3.7,0.396l0.179,1.852
		l1.944,1.152l1.577-1.695h0.913l2.053,2.156l0.843,1.304l0.352,1.649l-0.446,2.105l-1.845,2.709l-0.203,1.999l-0.69,2.379
		l-2.187,0.076l-5.029-1.532l-0.655,0.416l1.488,0.913l2.991,1.222l0.719,0.974l0.496,1.334l0.278,1.542l0.089,1.643l-0.248,1.126
		l-1.091,2.297l-0.243,0.913l0.203,0.684l0.417,0.715l0.278,0.776l-0.149,0.837l-0.635,0.766l-0.685,0.365l-0.635,0.223l-0.461,0.35
		l-2.257,2.935l-0.694,0.471l-1.051,0.365l-1.19,0.897l-1.022,1.135l-0.516,1.074l1.597,1.085l1.954,1.784l1.657,1.926l1.047,2.392
		l0.888,0.654l1.19,0.431l1.23,0.152l1.795-0.203l0.134-0.562l-0.506-0.816l-0.174-0.963l0.828-2.417l0.67-1.272l1.081-0.487
		l2.034-0.071l1.171,1.024l5.645,22.718l0.298,4.381l-0.065,1.605l-0.154,0.977l-0.466,0.759l-0.972,0.911l-0.238-0.359
		l-1.726,0.354l-1.686,0.557l-0.139,0.299l-0.962,0.41l-1.215,1.802l-1.106,0.405l-1.478,0.03l-1.19,0.182l-1.017,0.486
		l-0.977,0.932l-1.24,3.858l-1.18,5.821l-1.647,4.393l-2.589-0.405h-0.759l-3.869,4.954l-1.116,1.913l-0.64,2.13l0.015,12.586
		l3.735,16.297l2.634,6.475l3.66,5.66l1.181,3.103l2.911,4.669l1.027,0.985l2.217,1.379l0.878,2.385l0.967,2.647l2.143-0.404
		l-0.461-1.324l1.771-0.258l2.589,0.53l1.999,1.051l-0.868-0.086l-0.772,0.019l-0.718-0.154l-0.885,0.632l0.145,0.632l-0.057,0.6
		l0.113,5.331l1.118,4.416l-0.353,3.37l-4.28,2.216l-8.006,1.921l-0.627,0.151l-8.091,3.084l-2.494,2.93l-0.454,0.276l-3.332-0.667
		l-0.816,0.276l-1.698,1.186L557.063,570l-1.134-0.176l-0.822-0.391l-7.351-5.825l-0.557-2.116l-1.345-0.917l-1.641,0.276
		l-1.446,1.452l-2.082-0.5l-3.024,1.953l-1.477-1.452h-0.838l-1.402,1.068l-1.402-0.535l-2.265-2.225l-1.464,0.247l-1.062-0.155
		l-0.866-0.127l-1.899-0.039l-1.364,0.997l-0.643-0.843l-2.683-2.164l-0.277-0.43l-0.498-0.529l-0.227-0.699l0.542-0.959
		l0.504-0.346l1.691-0.888l-0.453-2.976l-2.107-1.78l-2.324-1.193l-1.09-1.216l-1.295-0.882l-5.663-2.184l-1.288-1.209l-0.34-0.873
		l-1.622-2.047l-0.535-0.898l-0.252-1.537l0.025-1.254l-0.284-0.934l-1.156-0.587l-1.036,0.622l-6.557,4.293l-1.156,0.488
		l-1.336-0.135l-1.301-0.513l-1.093-0.622l-1.042-0.882l-2.772-3.465l-0.51-0.379l-0.592-0.321l-0.63-0.253l-0.658-0.186
		l-6.079-2.692l-2.813-0.902l-2.627,0.148l-2.126-0.308l-4.639-3.35l-2.161-0.953l-3.817,0.915l-9.021,5.982l-12.58,8.345
		l-2.857,1.033l-2.803-0.314l-19.679-7.296l-17.509-6.514l-4.374-1.627l-16.463-6.117l-12.337-4.594l-3.94-2.225l-3.439-3.114
		l-3.49-1.808l-4.066,1.705l-3.433,4.646l-2.227,4.87L339.542,524.393z M580.352,425.16l-0.923-3.386l-0.278-4.481l0.863-3.929
		l2.51-1.739l0.188,0.03l0.144,0.101l0.045,0.238l-0.06,0.401l-0.804,1.278l-0.843,2.033l-0.635,2.266l-0.208,2.008l0.714,4.552
		l0.064,1.668L580.352,425.16z M662.301,392.107l-0.248-2.785l1.161-2.187l1.696-0.883l1.389,1.126l-0.476,0.822L662.301,392.107z
		 M697.24,107.744l1.984-0.993l1.617,0.01l1.071,1.029l0.402,2.059l-0.833,3.503l-2.232,1.019l-6.473-0.563l-0.526-0.051h0.476
		l0.079,0.005l0.253-0.067l0.144-0.307l-0.05-0.497l1.959-1.101l0.799-1.413l0.437-1.444L697.24,107.744z"/>
</g>
<g id="Copyright">
	<text transform="matrix(1 0 0 1 681.6426 577.5916)" class="st1 st2">© Vemaps.com</text>
</g>
</svg>
