<?xml version="1.0" encoding="utf-8"?>
<!-- Generator: Adobe Illustrator 23.0.1, SVG Export Plug-In . SVG Version: 6.00 Build 0)  -->
<svg version="1.1" xmlns="http://www.w3.org/2000/svg" xmlns:xlink="http://www.w3.org/1999/xlink" x="0px" y="0px"
	 viewBox="0 0 800 600" style="enable-background:new 0 0 800 600;" xml:space="preserve">
<style type="text/css">
	.st0{fill:#808080;}
	.st1{font-family:'Roboto-Regular';}
	.st2{font-size:14px;}
</style>
<g id="Oman">
	<path class="st0" d="M417.967,90.348l1.548,0.201l0.962,1.493l2.046,0.416l-0.244,1.565l-1.439,0.75l-1.198,0.427l-0.586,0.509
		l-1.522,1.097l-0.846,0.368l-0.814-0.232l-0.635-0.317l-0.077-0.555l0.116-1.41l1.377-0.689l0.503-0.598l-0.309-0.47l-0.165-0.572
		l-0.105-0.925L417.967,90.348z M418.091,95.008l1.027-0.356l0.275-0.936l-0.747-0.533l-0.45,0.007l-0.283,0.296L418.091,95.008z
		 M408.535,48.646l0.005-0.017l0.235-0.536l0.486-2.052l3.41-5.423l1.24-2.578l0.52-0.521l0.842-0.46l0.046,0.318l-0.046,0.775
		l0.599,0.937l-0.159,0.322l-0.226,0.819h0.385l0.494-0.514l1.341-0.075l0.268-0.373l0.314-0.166l0.674,0.252l0.612,0.644
		l0.159,1.011l0.36-0.635l0.356,0.033l0.44,0.236l0.603-0.026l1.399-1.037l0.549-0.135l1.571,0.439l0.344-0.051l0.143-0.481
		l-0.235-0.514l-0.402-0.406l-0.369-0.163l-1.005-0.119l-0.624,0.04l-0.457,0.276l-0.293,0.36l-0.507,0.509l-0.603,0.318
		l-0.574-0.206l-0.008-0.638l0.394-2.413v-0.906l1.508,1.217l0.679,0.245l0.277-0.836l-0.243-0.449l-0.578-0.579l-0.712-0.5
		l-0.603-0.201l0.218-0.533l0.285-0.105l0.314,0.002l0.302-0.185l0.633-0.785l0.285-0.685l-0.067-1.251L423.278,30h0.318
		l0.704,1.566l0.796-0.528l0.26-0.252l0.385,0.423l-0.243,0.435l-0.021,0.147l0.113,0.14l0.151,0.421l0.486-0.407l0.302,0.145
		l0.256,0.381l0.364,0.308l1.194,0.33l0.628,0.061l0.666-0.033l-0.109-0.259l-0.176-0.659l-0.1-0.259l1.089-0.393l0.52,1.449
		l-0.109,0.561l-0.721,0.056l-1.307-0.068l-0.863,0.32l-1.542,1.362l-0.855,0.558l0.063,0.002l-0.013,0.329l-0.444,0.598l1.148,1.21
		l0.587,0.469l0.695,0.245l0.469-0.238l0.536-0.455l0.561-0.11l0.57,0.803l-0.955,1.702l-0.469,0.196l-0.327-1.114l-0.528,0.061
		l-0.57-0.061l0.197,0.567l0.054,0.364l-0.075,0.294l-0.176,0.339l0.649,0.682l0.779,0.465l0.679,0.588l0.356,1.043l-0.603-0.009
		l-0.553-0.14l-0.494-0.271l-0.453-0.399l-0.741,0.362l-0.624-0.266l-0.385-0.698l-0.042-0.927l-0.302,0.191l-0.779,0.369
		l-0.293,0.187l-0.025-0.612l0.1-0.467l0.243-0.318l0.385-0.173l-1.169-0.198l-1.278,0.754l-0.763,1.064l0.369,0.73l-0.26,0.618
		l-0.059,0.7l0.1,0.74l0.218,0.721l0.452-1.157l0.427-0.621l0.553-0.182l0.327,0.364l0.05,0.667l-0.142,0.742l-0.235,0.574
		l1.005,0.424l4.617-0.065l-0.444,0.76l-0.779,0.676l-1.592,0.944l-1.5,0.571l-0.465,0.508l0.18,0.914l1.299-0.692l0.721,0.643
		l0.025,1.061l-1.181,0.811l0.239,0.573l0.683,0.946l0.197,0.419l0.465,0.224l1.139,0.317l-0.402,0.27l-0.147,0.182l-0.189,0.755
		l-0.762-0.405l-0.838-0.242l-0.75,0.089l-0.499,0.559l0.813,1.36l-0.352,1.253l-0.846,1.211l-0.637,1.22l-0.059,0.419l0.059,1.359
		l-1.018,0.991l-0.855,1.551l-0.574,0.733l-0.746,0.447V65.71l-0.712,1.216l-0.729,1.855l-0.369,2.087l0.369,1.901l0.272,0.677
		l-2.138,0.62l-0.825,0.156L415.145,74l-0.362-0.428l-0.511-1.151l-0.463-0.381l-1.208-0.218l-0.201-0.118l-0.087-0.051
		l-0.293-0.685l-0.245-2.553l0.042-0.98l0.553-0.596l0.665-0.517l0.367-0.747l-0.239-0.712l-1.197-1.613l-0.229-0.975l0.25-0.854
		l0.995-1.404l0.346-0.822l0.213-5.135l0.34-1.702l0.112-1.048l-0.261-1.172l-0.809-2.209l-0.585-0.071l-2.612,0.684L408.535,48.646
		z M424.283,110.415l1.139,4.595l3.301,6.917l0.553,0.579l0.335,1.319l0.344,2.361l6.058,11.542l1.257,1.411l2.912,2.609l5.626,6.91
		l1.114,1.797l0.473,1.052l0.452,1.619l5.065,6.089l6.116,5.233l4.801,3.918l1.684,1.086l7.314,2.83l9.434,2.529l3.955,1.781
		l3.025,0.957l2.141,0.398l1.181,0.064l3.481-0.211l0.947,0.211l1.475,1.945l0.545,0.426l1.248,0.336l1.466,0.744l1.29,0.169
		l6.711-0.378l2.245,0.137l2.308,0.494l3.171,1.347l0.88,0.19l0.88,0.384l1.894,1.928l0.938,0.755l1.793,0.59l2.384,0.302
		l2.493-0.037l2.111-0.437l1.127-0.425l0.453-0.37l0.373-1.036l0.444-0.018l0.98,0.279l2.204,0.046l1.173,0.233l1.047,0.526
		l0.452,0.704l1.031,2.236l0.453,0.475l0.26,0.107l0.226,0.245l0.205,0.27l0.18,0.183l0.117-0.037l0.285-0.043l0.369-0.002
		l0.327,0.082l0.733,0.622l0.402,0.475l0.23,0.439h0.385l0.318-0.768l0.121,0.304l0.105,0.185l0.096,0.226l0.063,0.432h0.352
		l0.059-0.24l0.256-0.528l0.277,0.247l0.163,0.069l0.645-0.315l1.24,1.681l0.352,0.923l-0.184,0.845l0.411,0.776l0.528,2.562
		l0.666,1.087l3.016,2.832l1.856,0.851l0.733,1.008l0.88,2.411l0.499,0.878l1.558,1.509l0.783,1.126l0.431,3.309l3.276,3.362
		l0.214,0.453l0.297,1.667l0.218,0.389l0.239,0.266l1.437,1.168l2.74,1.611l1.743,1.32l1.274,1.529l0.913,1.733l1.86,4.779
		l0.189,0.805l0.398,1.081l0.934,0.738l1.86,1.022l2.049,3.291l0.289,0.899l0.691,0.851l2.153,2.05l1.617,0.851l1.181,1.046
		l1.181,0.681l0.293,0.268l0.05,0.585l-0.31,0.141l-0.436-0.118l-0.327-0.191l0.008,0.785l0.377,0.356l0.62,0.07l0.754-0.07
		l3.963-1.377l1.374,0.563l2.078,1.576l0.314,0.029l0.809-0.111l0.285,0.082l0.143,0.259l0.096,0.596l0.138,0.286l-0.008,0.159
		l-0.059,0.254l0.042,0.331l0.343,0.399l0.26,0.15l0.327,0.122l0.344,0.077l0.318,0.032l0.184-0.277l-0.335-0.603l-0.746-0.853
		l0.218-0.753l0.545-0.014l1.031-0.166l1.383,0.374l1.114,1.442l0.746,1.87l0.268,1.673l-1.014,9.121l-0.674,2.449l-1.031,2.186
		l-2.937,4.166l-1.533,1.309l-0.863,0.936l-0.385,0.979l-0.138,1.288l-0.943,2.657l-0.239,2.681l-0.503,1.104l-2.04,0.867
		l-0.628,0.968l-0.846,2.025l-4.072,5.541l-1.558,4.983l-0.98,2.299l-4.818,7.707l-0.385,1.776l-0.167,0.488l-0.415,0.387
		l-7.252,3.242l-1.496,0.902l-5.76,4.735l-6.958,7.365l-2.116,3.305l-0.524,0.498l-0.704,0.505l-0.809,1.165l-1.579,2.962
		l-0.176,0.507l-0.13,1.949l-0.159,0.563l-0.302,0.475l-2.991,2.446l0.214,1.143l-0.867,0.782l-2.153,1.085l0.059,0.103
		l-0.394,1.008l-0.059,0.018l-0.356,0.345l-0.23,0.289l-0.117,0.303l0.126,0.506l0.318,0.515l0.453,0.435l0.519,0.271l0.763-0.361
		l0.863-0.815l0.578-0.329l-0.067,1.095l-0.511,0.73l-0.938,0.708l-0.93,0.269l-0.469-0.578h-0.318l-0.289,0.775l-0.39,1.489
		l-0.41,0.777l-0.406,0.372l-1.135,0.658l-0.561,0.504l-0.654,1.063l-0.566,1.401l-0.39,1.531l-0.142,1.45l-1.307,2.63l-0.712,1.925
		l0.063,0.885l-0.289,0.416l-0.276,1.831l-0.151,0.416l-0.419,0.087l-0.687,0.244l-0.695,0.362l-0.486,0.429l-0.344,1.475
		l-1.114,0.599l-1.449-0.054l-1.341-0.487l-0.98-0.489l-0.691-0.23l-1.684-0.063l-0.649,0.105l-1.223,0.516l-0.746,0.161
		l0.159-0.489l0.302-0.253l-0.251-0.156l-1.827-0.516l-1.022-0.118l-1.102-0.458l-0.122-1.079l0.662-2.247l-0.008,0.691l0.209,0.612
		l0.385,0.534l0.507,0.449l0.197-1.109l-0.524-2.473l0.503-1.127l0.683-1.091l0.528-1.588l0.134-1.624l-0.465-1.19l-1.043-0.351
		l-1.5,0.128l-1.516,0.474l-1.651,1.074l-2.095,0.553l-0.654,0.456l-0.327,0.483l-0.888,2.583l-0.034,0.617l0.335,0.586l0.143,0.501
		l-0.423,0.416l-0.633,0.288l-1.265,0.293l-0.943,0.465l-0.93,0.613L506,364.79l-0.444,0.568l-0.323,0.621l-0.126,0.722l0.163,0.521
		l0.729,0.827l0.163,0.527l-0.377,1.211l-0.917,0.695l-2.25,0.922l-0.855,0.552l-0.926,0.75l-0.737,0.9l-0.297,1l-0.281,0.616
		l-0.586,0.706l-0.503,0.946l-0.038,1.339l0.976,2.227l0.31,1.332l-0.838,1.996l-0.796,2.992l-0.029,0.776l-0.105,1.621
		l-1.198,2.901l-0.859,3.074l-0.599,1.363l-3.251,4.847l-0.499,1.433l0.214,1.68l0.365,0.627l0.452,0.505l0.39,0.543l0.163,0.752
		l0.029,1.664l-0.084,0.801l-0.26,0.707l-0.377,1.432l-0.109,1.098l0.377,1.051l2.497,4.117l0.39,0.909l0.314,1.517l-0.008,1.461
		l-0.243,1.379l-0.867,2.511l-0.201,1.123l0.121,1.252l1.039,2.787l0.499,0.863l1.294,1.533l0.318,0.878l-0.457,2.275l-0.05,1.108
		l1.948,3.53l0.013,0.798l-1.257,1.283l-0.75,0.605l-0.205,0.078l-2.308,0.337l-0.255,0.283l-0.23,0.326l-0.561,0.438l-0.645,0.374
		l-0.499,0.16l-10.72-0.527l-2.891,0.454l-12.241,1.924l-6.372,1.829l-8.685,3.594l-3.331,2.418l-2.191,1.099l-1.19,0.925
		l-0.511,1.163l-0.427,0.562l-5.496,5.514l-0.955,1.96l-0.218,2.569l0.335,1.778l0.046,0.629l-0.163,0.689l-0.746,1.033
		l-0.276,0.883l-0.461,1.084l-0.138,0.572v2.256l-0.465,2.282l-2.664,6.264l0.767,1.063l-0.126,1.137l-0.725,1.058l-1.01,0.813
		l-2.237,0.985l-1.11,0.654l-1.575,2.829l-0.327,0.258l-0.737,0.229l-0.369,0.22l-2.392,2.669l-0.138,0.405l0.067,1.207
		l-0.587,0.119l-8.052-1.044l-1.043,0.163l-1.537,0.731l-1.139,0.216l-4.382-0.37l-1.047,0.165l-3.331,1.347l-1.885,0.478
		l-13.175,0.612l-5.178,1.356l-1.152,0.106l-0.415,0.101l-0.264,0.227l-0.23,0.258l-0.323,0.189l-0.943,0.029l-0.075-0.029
		l-1.693,0.464l-0.452,0.238l-0.695,0.885l-0.737,2.132l-0.482,0.893l-0.767,0.895l-0.226,0.424l-0.788,2.214l-0.201,0.376
		l-0.708,0.798L366.621,518l-1.449,2.641l-0.352,1.083l-0.142,1.259l0.209,1.449l0.545,0.725l1.734,0.958l1.001,1.065l0.39,1.126
		l0.017,2.463l-0.356,1.027l-2.099,2.857l-0.113,0.494l-0.088,0.748l0.059,0.673l0.318,0.292l0.411,0.184l0.017,0.417l-0.251,0.689
		l-0.285,0.3l-1.349,0.678l-0.478,0.309l-0.314,0.447l-0.197,0.46l-0.218,0.934l-0.494,0.829l0.168,0.274l-0.49,0.592l-1.563,0.482
		l-0.788,0.43l-0.264,0.482l-0.281,0.745l-0.423,0.677l-0.628,0.302l-2.099,2.406l-2.312,1.672h-0.318l-0.503-0.815l-0.603,0.355
		l-0.628,0.771l-0.599,0.425l-0.809,0.14l-0.75,0.263l-0.708,0.153l-0.737-0.191l-0.804,0.848l-0.955,0.315l-2.111,0.276
		l-1.718,0.67l-0.855,0.004l-0.582-0.674l-0.591,0.324l-0.943-0.14l-0.582,0.217l-1.755-1.137l-0.381,0.401l-0.419-1.031
		l-0.23-0.946l-0.578-0.692l-2.107-0.385l-1.483-0.506l-0.633-0.116l-0.603,0.061l-1.06,0.25l-0.62,0.057l-1.818-0.364l-0.674-0.004
		l-0.553,0.155l-1.077,0.48l-0.306,0.101l-2.426-0.701l-1.265-0.088l-1.056,0.789l-0.482-0.258l-0.503-0.112l-9.589,1.106h-4.072
		l-0.896,0.237l-2.271,1.152l-0.553,0.416l-0.193,0.482l0.017,0.416l0.109,0.39l0.067,0.414l-0.168,0.46l-0.725,0.65l-0.163,0.328
		l-0.57,0.565l-1.299,0.263l-2.354,0.14l-3.079,0.652l-1.01,0.081l-0.93,0.315l-1.064,0.617l-1.064,0.414l-0.934-0.276l-0.955,0.624
		l-1.303,1.083l-1.148,1.204l-0.49,0.996l-0.423,0.593l-0.964,0.586l-1.81,0.823l-1.684,0.427l-8.219,0.168l-4.344,0.645
		l-8.408,2.703L254.767,570l-3.214-7.26l-3.224-7.285l-3.219-7.285l-3.214-7.296l-1.995-4.512l-0.543-0.744l-0.883-0.318
		l-1.937-0.111l-0.761-0.485l0.08-0.028l0.271-0.036l0.096-0.028l-1.633-3.86l-2.203-5.208l-2.203-5.214l-2.195-5.214l-2.203-5.217
		l-2.208-5.219l-2.203-5.219l-2.2-5.231l-2.205-5.226l-2.205-5.229l-2.195-5.236l-2.208-5.238l-2.203-5.238l-2.197-5.245
		l-2.203-5.245l-2.203-5.251l-2.203-5.251l-1.455-3.46l-0.364-0.866l5.73-2.015l8.811-3.107l8.805-3.108l8.803-3.109l8.816-3.108
		l8.811-3.113l8.805-3.113l8.816-3.112l8.805-3.115l8.811-3.113l8.805-3.118l8.811-3.118l8.816-3.118l8.811-3.12l8.8-3.119
		l8.811-3.12l8.811-3.125l7.746-2.747l1.655-5.293l0.34-1.082l0.958-3.06l1.479-4.757l1.926-6.18l2.282-7.314l2.538-8.169
		l2.719-8.743l2.809-9.04l2.147-6.917l0.662-2.133l2.713-8.775l2.543-8.213l2.277-7.366l1.926-6.23l1.484-4.808l0.952-3.094
		l0.341-1.098l0.257-0.834l1.925-6.265l-0.027-1.274l-0.532-1.214l-2.735-4.564l-4.161-6.94l-4.155-6.949l-4.166-6.955l-4.155-6.962
		l-3.272-5.471l0.553-8.145l-0.325-8.155v-0.006l0.181-1.656l1.602-5.381l4.9-8.616l1.139-3.43l1.075-5.594l0.575-1.87l0.963-1.45
		l0.011-0.006l1.921-2.114l0.713-1.085l1.697-6.972l0.468-0.95l2.405-3.571l0.218-0.747l-0.165-4.267l-0.234-1.62l-0.825-1.235
		l-1.867-1.125l-0.862-0.787l-0.452-1.014l0.208-0.822l2.213-0.419l2.187-0.836l1-0.552l1.511-0.833l1.405-0.571l1.469-0.275
		l1.708,0.042l1.676,0.284l0.793-0.02l0.846-0.32l0.926-0.162l1.341,1.047l0.958,0.118l5.996-2.461l3.256-0.803l0.569-0.896
		l-1.91-3.449l-0.607-2.392l-0.814-2.025l-1.543-0.651l-2.884,1.176l-0.867-0.048l-3.224-0.712l-0.617-0.308l-0.08-0.855l0.41-0.988
		l2-3.575l0.33-0.82l0.181-2.738l-0.117-0.475l-0.388-0.499l-1.032-0.701l-0.33-0.397l-0.165-0.859l0.117-3.063l-0.644-2.387
		l-0.069-1.193l0.521-0.785l0.724-0.788l0.319-1.899l1.442-1.332l-0.17-1.096l-0.769-1.729l-0.268-0.604l-0.106-1.041l0.223-2.112
		v-1.066l-0.431-4.358l0.537-1.753l1.559-1.99l1.464-1.345l0.223-0.204l1.793-1.144l1.979-0.518l2.082,0.319l0.131,0.02l1.399,0.885
		l0.585,1.678l0.426,2.5l0.207,1.214l-1.234-0.897l-0.665-0.342l-0.718-0.176l-0.904,0.276l-0.165,0.714l0.367,0.84l1.921,1.75
		l1.516,3.905l1.575,1.268l0.728,0.102l0.086,0.012l1.091-0.042l0.984-0.278l0.463-0.583l0.314-0.971l1.107-1.354l0.841-2.114
		l0.01-0.005l0.767-0.35l1.926-0.24l0.926-0.451l1.7-1.674l0.29-0.286l1.442-1.032l0.271-0.562l0.035-0.391l0.091-1.019l0.166-1.852
		l0.266-0.307l0.234-0.27L424.283,110.415z M396.118,524.308l-0.193-0.512l-0.038-0.101v-0.004l0.276-0.417l0.603-0.281l0.729-0.193
		l1.035,0.633l0.402,0.138l-0.004,0.002l-0.771,0.466l-1.55-0.009l-0.486,0.277L396.118,524.308z M407.4,520.589v0.004l0.147,0.749
		l0.012,0.081l0.486,0.655l0.679,0.464l0.746,0.257l-1.634,1.041l-0.871,0.336l-0.813,0.132l-2.279-0.108l-0.72-0.294l-0.444-1.164
		l1.357-0.835l1.969-0.663L407.4,520.589z M554.16,353.53l0.109,1.173l0.306,0.929l1.584,2.893l0.457,0.841l-0.201,0.604
		l-0.457,0.441l-1.973,1.474l-2.086,1.171l-0.938,0.85l-1.232,1.884l-0.612,1.287l-0.599,2.639l-0.465,0.934v0.004v0.612
		l0.008,0.049l0.08,0.505l0.004,0.366l-0.218,0.384l-1.734,1.728l-0.93,1.288l-0.469,0.516l-0.461,0.167l-0.654,0.092l-0.587,0.147
		l-0.243,0.344l-0.176,0.58l-0.44,0.625l-0.565,0.446l-0.578,0.049h-0.008l-0.268-0.504l-0.226-0.415l-0.264-1.712l-0.05-1.715
		l0.113-0.929l-0.017-0.067l-0.126-0.502l0.36-4.342l0.272-0.699l0.557-0.762l0.285-0.282l0.917-0.702l0.39-0.143l0.1-0.107
		l0.101-0.109l0.226-1.017l0.126-0.297l0.871-0.324l0.855-0.036l0.875-0.136l0.909-0.63l0.423-0.581l0.189-0.264l0.193-0.682
		l0.034-0.123l0.218-2.104l0.318-1.016l0.478-0.828l2.472-3.294l0.951-1.994l0.578-1.811l0.448-0.647l0.771-0.204l0.62,0.909v0.007
		l-0.067,0.94l-0.352,1.007L554.16,353.53z"/>
</g>
<g id="Copyright">
	<text transform="matrix(1 0 0 1 681.6426 577.5916)" class="st1 st2">© Vemaps.com</text>
</g>
</svg>
