<?xml version="1.0" encoding="utf-8"?>
<!-- Generator: Adobe Illustrator 23.0.1, SVG Export Plug-In . SVG Version: 6.00 Build 0)  -->
<svg version="1.1" xmlns="http://www.w3.org/2000/svg" xmlns:xlink="http://www.w3.org/1999/xlink" x="0px" y="0px"
	 viewBox="0 0 800 600" style="enable-background:new 0 0 800 600;" xml:space="preserve">
<style type="text/css">
	.st0{fill:#808080;}
	.st1{font-family:'Roboto-Regular';}
	.st2{font-size:14px;}
</style>
<g id="Panama">
	<path class="st0" d="M90.262,152.85l1.472,0.907l12.09,9.569l7.418,7.479l4.729,2.586l3.292-2.239l-0.291,2.176l-0.567,1.705
		l-3.415,5.969l-0.337,1.445l0.399,1.751l1.068,1.186l1.426,0.932l1.043,1l-0.102,1.378l-1.697,1.352l-3.159-0.249l-0.297,1.43
		l-0.624,0.989l0.159,0.632l0.613,0.259l0.721-0.145l1.237,0.849l1.094,1.487l0.798,1.709l0.291,1.611l0.66,1.212l4.494,2.771h0.859
		l0.946-1.476l1.534-0.187l0.726-0.451l-1.488-2.315l1.672,0.466l0.634,1.295l0.363,1.523l0.833,1.145l1.375,0.368l0.951-0.559
		l0.435-1.346l-0.189-2.02h0.864l0.118,1.678l0.889,0.829l1.007,0.124l0.48-0.456l0.061-1.564l0.235-1.124l0.547-0.326l0.951,0.839
		l0.123-0.394l-0.005-0.342l0.153-0.186l0.588,0.052l0.24,1.16l0.348,0.901l0.48,0.735l0.649,0.684h0.854v-0.87h0.859l-0.332,1.911
		l0.22,3.48l-0.746,1.559l-3.829-2.366l-2.009-0.751l-3.205-0.274l-1.396,0.989l-0.383,2.227l0.383,2.377l0.92,1.434v0.787
		l-0.695-0.295l-1.871-0.492l0.675,1.812l3.006,1.584l0.685,1.346l-0.864,8.293l-0.567-0.135l-0.378-0.14l-0.342-0.212l-0.496-0.383
		l2.152,2.102l3.042,1.413l3.031,0.305l2.142-1.221l4.509,1.475l1.6,0.963l-0.026,1.04l1.861,2.857l0.634,0.693l0.297,0.435
		l0.204,0.849l0.435,0.455l0.516,0.129l1.401-0.14l2.393,0.124l5.981-1.853l2.801-0.274l1.569,0.652l1.319,0.906l2.029,0.455
		l1.835-0.445l1.825-1.107l1.089-1.439l-0.373-1.428l1.416-0.6l1.099-0.005l1.769,0.606l0.245,0.481l1.212,1.061l1.345,0.631
		l0.624-0.828l1.268-0.321l7.392,3.395l2.249-1.097l0.624-2.189l-0.46-5.088l-8.496-4.814l-4.422-6.616l-1.15-1.123l-1.641-0.73
		l-2.331-1.667l-1.958-1.812l-0.501-1.16l1.932,0.026l3.19,0.808l2.986,0.285l1.319-1.553l-4.069-1.931l-1.953-1.424l0.879-1.419
		l2.577-0.031l2.178,1.636l2.965,3.604l2.904,2.195l0.527,0.57l-0.184,1.087l-1.027,0.331l-1.278-0.197l-0.941-0.435v0.87
		l1.022,1.243l0.992,1.085l0.622,1.862l0.932,0.362l1.656-0.001l2.95,0.361l1.864,0.156l3.152,3.412l1.974,0.625l1.85,4.179
		l0.613,0.616l1.769,1.289l7.53,10.821l5.056,5.438l2.49,1.635l0.741,1.159l1.36,1.469l1.472,1.257l1.104,0.533l1.104,0.248
		l2.284,0.741l1.52-0.003l2.227-0.713l6.529,1.293l1.517-0.467l3.503-0.003l2.961,1.909l6.724,0.409l4.804-0.935l6.678-0.327
		l4.81-0.63l5.584-0.632l5.355-0.891l0.981,0.497l1.155-0.253l1.155-0.807l0.997-1.174l9.855-3.264l9.576-4.011l2.162-0.771
		l4.631,0.155l2.819-0.79l1.196-1.523l1.081-1.234l2.605-3.412l1.38-1.811l1.263-0.776l0.424-0.404l0.414-0.901l0.654-0.9
		l1.125-0.404l1.867-2.184l2.933-1.385l4.571-2.751l1.743-0.709l2.024-2.082l7.259-3.691l9.117-3.843l12.37-3.992l14.539-1.157
		l1.902-0.642l4.105-2.382l1.237-0.528l4.396-0.497l4.652-1.243l4.172-1.688l3.63-2.051l4.475-5.113l4.901-4.346l3.188-3.043
		l0.291-1.436l2.458-4.018l3.168-1.284l0.791,0.075l0.462,1.179l-0.271,4.803l0.271,1.274l0.695,0.855l1.104,0.637l1.288,0.124
		l1.273-0.668l0.936-2.321l0.169-2.57l0.7-1.223l2.49,1.689l-0.276-1.078l-0.307-2.186l-0.276-1.078l0.302,0.233l0.557,0.554
		l0.859-0.788l-1.554-2.213l1.155-1.218l1.435,0.652l2.373-0.207l2.799,1.232l2.294,3.852l0.93,1.456l-0.506-2.793l-0.649-1.959
		l-0.072-1.772l1.227-2.244l1.861-1.705l3.752-1.394l2.106-1.337l0.271-0.373l0.343-0.943l0.24-0.425l0.43-0.321l0.835-1.353
		l1.155-0.715l1.863-1.317l0.797-3.271l0.868-3.074l2.223-0.862l1.008-0.933l-0.606-0.671l-1.412,0.53l-1.103,0.304l-0.711-0.778
		l0.807-0.533l0.74-0.533l0.673-1.336l1.816-0.795l1.404-1.134l1.07-1.27l2.277-0.662l2.006,0.273l2.474-0.799l3.214-1.466
		l2.274,0.632l0.613,1.514l0.675,1.224l0.02,0.964l-1.309,0.731v0.793l1.232,0.544l0.031,0.296l0.455,0.975l0.613-0.435l0.45-0.259
		l0.358-0.363l0.363-0.757h0.859l0.772,0.591l1.022,0.467l2.5,0.757l0.061-1.099l0.874-2.38l0.665,1.146l0.838,0.456l0.92-0.114
		l0.93-0.617l4.768,1.152l7.016,0.783l7.952,2.209l4.151,1.466l5.773,0.753l2.356-1.249l2.353-0.707l2.89,0.198l2.166,0.193
		l2.169-0.528l2.35-0.707l3.971-0.336l4.467-0.765l5.317-0.393l1.667,1.023l-0.006,1.433l-2.155,1.184l-1.551-0.306l-1.258,0.95
		l-1.374,0.113l-3.823,0.461l-2.091,0.409l-1.38,2.324l0.34,2.984l0.64,4.122l2.206,0.726l2.032-0.469l1.311,0.603l1.613-0.291
		l1.613-0.232l1.374-0.233l1.371,0.304l1.73,0.008l2.204,0.905l1.311,0.423l1.123,0.942l0.956,0.767l0.598,1.005l0.951-0.191
		l1.612-0.111l1.014,0.065l1.252,0.304l1.55-0.173l0.667-1.188l1.369-0.293l2.323,0.548l3.576-0.699l1.036-1.186l2.14,0.428
		l1.439-0.231l1.389-0.529l1.68-0.827l1.299,1.674l2.039,0.965l1.607-0.165l4.18,1.153l2.806-0.285l1.663,1.262l2.026,0.31
		l1.794-0.765l1.449-1.209l2.107-0.782l1.873,0.467l2.423,1.639l1.797,0.702l4.137-0.001l2.065,1.451l1.362-0.538l1.871,0.571
		l1.313,1.331l1.421,1.221l3.42,1.587l1.308,0.777l1.771,0.58l3.252,0.661l2.617,1.445l1.858,1.445l1.967,0.895l1.204,0.561
		l1.203,0.119l1.64,0.452l1.634,0.999l1.963,1.112l2.288,1.333l1.969,0.347l1.972-0.312l1.202,0.451l1.528,0.894l1.635,0.227
		l2.286,1.444l1.219,1.598l3.247,0.742l4.041,0.579l2.398,0.897l1.55,1.263l0.47,1.637l2.709,2.9l1.634,0.245l2.211,1.055l4.177,4.8
		l2.121,3.345l1.696,2.2l1.869,2.812l4.323,2.916l-0.64-1.756l-0.551-1.549l-1.409-2.963l-0.153-1.951l2.207,1.078l1.613,2.909
		l1.013,1.407l3.434,2.349l0.464,2.889l1.248,1.408l1.561,0.94l1.894,1.641l0.44,1.48l1.094,1.377l1.38,1.139l0.393,1.143
		l-1.23,2.279l2.447,2.82l1.754,3.967l1.313,1.4l1.164-1.015l0.543,0.233l0.153,1.794l2.416,1.487l2.568,2.343l2.814,3.274
		l2.403,1.107l-0.644-1.045l-0.828-0.786l-0.716-0.859l-0.307-1.257l0.644-0.595l1.391,1.18l1.329,1.656l0.45,0.838l3.739,2.902
		l-0.478,2.253l2.328,1.948l0.719-2.167l1.248,0.238l1.079,2.179l-0.408,2.089l-0.245,1.937l-0.56,1.459l1.584,1.449l3.947,2.716
		l2.985,1.515l4.115,0.703l3.896-0.295l2.336-1.489l0.491,0.621l0.613,0.502l0.726,0.372l0.818,0.243l-0.177,1.753l-1.312,0.929
		l-2.032,0.204l-2.026,0.453l-2.052,1.297l-0.13,0.969l0.604,1.294l0.143,2.265l-1.513,3.171l-3.548,3.793l-1.38,1.475l-1.045,3.768
		l-0.006,2.908l1.136,0.735l3.779-0.354l2.123,0.709l1.305,1.099l2.078,3.551l1.824,4.433l1.039,8.711l1.084,4.524l1.402,2.188
		l1.597,0.594l1.675,0.098l1.61,0.689l0.935,1.315l2.727,5.756l3.237,4.797l1.171,1.736l3.649,7.017l2.694,9.901l0.234,3.062
		l0.825,1.849l1.214,1.16l1.344,0.977l1.227,1.298l0.98,1.986l-0.721,0.531l-4.655-0.052l-3.779,0.793l-4.22,1.409l-3.857,2.032
		l-2.662,2.674l-3.214,7.255l-3.701,4.718l-0.409,1.546l1.682,3.715l2.578,2.457l0.786,2.346l-3.688,3.354l-17.62,10.985
		l-5.726,5.783l-3.149,2.548l-2.85,0.295l-1.337-1.447l-1.526-6.333l-0.954-1.677l-3.48-4.736l-0.331-0.242l-1.065-0.255
		l-0.37-0.341l0.007-0.478l0.519-1.127l0.052-0.334l-1.221-1.395l-6.278-5.372l-1.298-0.701l-3.013,1.664l-0.792,4.658l0.591,5.391
		l1.13,3.917l2.837,5.548l0.377,2.718l-1.13,3.261l-1.87,2.344l-2.402,1.441l-2.772,0.439l-3-0.668l-4.376,14.083l-5.13,16.503
		l-0.09-0.025l-2.796-0.804l-3.619-3.293l-5.383-6.752l-2.009-1.459l-0.997-1.082l-0.429-1.428l0.286-1.325l0.501-1.325l0.225-1.304
		l-0.583-1.273l-0.716-0.547l-0.348,0.237l-0.256,0.5l-0.389,0.278l-0.992-0.402l-0.286-0.809l0.256-0.66l0.583,0.062l-1.503-2.305
		l-0.818-0.459l-1.186,1.031h-0.772l-3.037-3.475l-1.999-1.799L650.123,421l-0.409-0.552l-0.312-1.212l-0.598-1.227l-1.247-0.547
		l-0.792-0.557l-0.619-1.268l-0.818-2.506h-0.777l-0.542,1.903l-0.281-1.238l-0.118-4.44l-0.624-2.28l-1.329-0.505l-1.212,1.011
		l-0.261,2.249l-0.69-1.666l0.215-1.181l0.46-1.109l0.015-1.392l-0.475-1.336l-0.521-0.722l-1.503-1.32l-2.674-3.466l-1.84-1.403
		l-2.423-0.33l0.296-1.393l-0.542-1.047l-1.074-0.717l-1.258-0.382l1.201-2.43l0.639-1.738l-0.082-1.651l-0.895-2.126l-3.778-5.799
		l-0.593-1.445l-1.176-4.056l-2.73-3.416l-3.118-3.045l-2.331-2.947l-1.641-3.907l-1.012-4.047l-0.046-1.528l0.296-1.456
		l-0.25-1.265l-2.254-4.084l-0.322-1.585l0.67-2.391l1.477-2.319l1.477-0.862l1.452,4.1l1.81,0.795l2.024-0.299l1.462-1.229
		l3.568,1.869l4.867-2.509l4.305-4.668l1.851-4.627l-0.24-2.593l-0.675-1.591l-1.074-1.126l-1.447-1.219l-3.676-4.292l-1.472-0.914
		v-0.945l3.41,0.367l1.074-0.181l1.595-0.966v-0.956l-0.726-0.356l-0.368-0.372l-0.261-0.434l-0.435-0.568l1.002-0.403l0.297-0.052
		l0.491-1.281l1.063,0.713l1.442,1.359l0.849,0.527l1.104,0.31l0.966-0.031l1.825-0.279l0.199-0.501l1.539-2.134l0.368-0.356
		l-0.184-3.482l0.184-1.323l0.363-0.233l2.295-2.372l0.532-1.178l0.225-1.116l0.02-2.511l0.532-0.682l1.186-0.579l1.186-0.165
		l0.527,0.558l0.629,4.63l0.307,1.044l1.242,1.054l2.06,1.132l2.249,0.915l1.779,0.372l1.442,0.816l1.074,1.922l2.208,6.049
		l1.227,1.674l1.58,1.209l1.902,0.465l0.598-0.253l1.334-0.398l1.35,0.057l0.976,1.808l0.869,0.682l1.115,0.506l1.089,0.196h1.718
		v-0.785l-1.927-0.424l-1.759-1.033l-1.401-1.41l-0.838-1.55l6.278,1.209l3.343,1.224l2.132,2.438l3.006,1.637l0.68,0.899
		l0.118,1.885l0.399,1.338l0.792,0.93l1.263,0.651l1.355-0.775l1.401,0.77l1.094,1.74l0.445,2.169l0.864,1.41l1.953,0.496
		l2.035-0.568l1.155-1.771l-3.507,0.031l-4.616-5.624l-2.178,0.393l-6.457-8.187l-1.268-0.956l-1.851-1.043l-11.165-2.03l-2.72-1.08
		l-2.167-1.834l-1.452-2.433l-0.526-2.883l-2.735-5.534l-0.797-3.405l1.902-1.897l-1.36-0.894l-1.513-1.246l-1.401-1.504
		l-1.033-1.643l-0.552-2.093l0.373-1.194l0.7-0.853l0.419-1.06l-0.184-1.592l-0.721-0.403l-1.135-0.269l-1.396-1.21l-0.614-1.422
		l-0.133-1.21l-0.399-0.987l-1.421-0.719l0.511,1.174l0.102,3.2l0.634,1.225l1.672,1.096l0.629,0.124l0.046,0.383l-0.087,4.182
		l0.215,1.111l1.743,4.13l0.169,1.328l-0.573,1.209h-0.777l-2.377-4.021l-1.529-1.974l-1.237-1.023l-1.958-0.01l-1.672,1.085
		l-1.165,1.979l-0.44,2.667l-0.746,1.948l-1.871,1.499l-2.362,0.971l-2.265,0.351l-1.073-0.429l-0.465-0.992l-0.026-1.152
		l0.24-0.899l0.726-0.863l3.635-1.814l0.491,0.419l0.338,0.212l0.889,0.315l0.153-4.171l-0.649-3.861l-2.081-6.87h-0.935
		l-0.879,1.814l0.614,1.163l1.196,0.992l0.864,1.313l-0.179,2.254l-0.971,1.809l-0.613,1.499l0.905,1.375v0.946l-0.394,0.279
		l-0.434,0.202l-0.956,0.31l-0.552-1.023l-0.757-0.574l-0.716-0.419l-0.481-0.512l-0.409-1.116l0.215-0.129l0.501,0.036l0.481-0.605
		l1.35-2.435l-0.148-1.204l-1.989-0.693l0.603,1.587l-0.271,0.744l-0.67,0.439l-0.593,0.693l-1.718,3.473l-2.019,0.3l-1.104-1.401
		l-1.166-4.099l-0.936,0.941l-0.123,1.639l-1.733,2.548l-2.285,2.196l-1.789,0.558l-1.155-2.134l-1.309-7.515l-0.961-2.569
		l0.476-0.863l0.302-0.874h-0.777v0.863h-0.935v-2.6h-0.782l-0.48,3.117l2.29,6.306l1.217,6.083l2.357,1.948l0.547,2.098
		l-3.435,7.41l-0.501-1.095l-0.9-0.563l-1.048-0.403l-0.235-0.129l-0.746-0.413l-2.899-3.576l-1.391-0.837l0.675-1.55l-0.097-2.269
		l-0.598-2.295l-0.844-1.612l-0.925,0.713l-0.511,0.775l-0.235,0.905l-0.112,1.08l-0.583-1.209l-1.37-1.752l-0.552-1.457
		l-0.072-1.788l0.93-4.28l-0.859-2.212l-3.671-4.953l-1.472-1.592l1.886,0.093l1.375,0.419l1.237,0.155l1.503-0.667l-2.055-1.613
		l-0.695-1.318l0.184-4.441l-7.801-2.167l0.654-1.955l0.286-0.574l-0.828-0.103l-0.429,0.197l-0.542,0.698l-1.033-0.683
		l-0.966,0.067l-0.92,0.393l-0.905,0.222l-1.104-0.636l-0.798-1.489l-1.135-3.082l1.789-1.464l0.665-2.302l-0.138-2.617
		l-0.598-2.374h-0.935l-0.179,2.048l0.501,2.622l-0.077,1.821l-1.886-0.341l-2.106,2.322l-3.855-5.058l-3.476,0.057l-2.454-1.531
		l-2.51-5.4l-1.978-1.748v-0.869h0.941v-0.869l-1.861-0.548l-1.176-1.18l-0.982-1.407l-1.288-1.2l1.002,2.121l0.22,1.666
		l-0.792,1.283l-2.06,1.004l-1.886,0.31l-1.273-0.486l-2.459-2.902l-0.879-2.013l-0.501-2.452l-0.67-2.07l-16.507-8.694
		l-6.574-1.459l-3.19-2.267l-0.532-0.699l-0.158-1.242l0.353-0.719l0.491-0.709l0.245-1.196l0.061-2.63l-0.194-2.216l-1.002-1.398
		l-2.372-0.233v-0.947l2.694-0.197l2.06-1.108l1.421-1.76l0.767-2.144h0.782l1.109,1.719l1.222-0.067l2.03-1.652l2.556-0.911
		l1.135-0.668l0.603-1.113l-0.803,0.404l-1.687,0.135l-1.017,0.331l-0.838,0.663l-1.605,1.75l-0.526,0.352l-1.007-0.383
		l-0.327-0.803l-0.388-0.658l-1.237,0.031l-0.777,0.663l-1.534,2.309l-0.726,0.497l-0.297,0.269l-0.399,0.601l-0.706,0.601
		l-1.217,0.269l-1.166,0.062l-0.93,0.238l-0.613,0.554l-0.21,0.963l0.772,0.87l1.621,0.481l1.467,1.098l0.348,2.682l-0.573,1.563
		l-1.299,2.164l-1.753,1.511l-1.948-0.424l-0.818-0.424l-3.047-0.839l-0.133-0.559l-0.614-1.025l-0.654-0.342l-0.317,1.501
		l-2.132,0.704l-10.097-1.791l-3.282,0.652h-0.787v-0.87l-3.088,0.963l-7.101-0.694l-2.827,1.46l-1.114-0.859l-1.166,0.098
		l-1.212,0.481l-2.178,0.419l-1.564,0.59l-0.956,0.14l-0.941,0.279l-0.256,0.59l-0.082,0.6l-0.404,0.269l-0.399,0.435l-3.533,2.174
		l-0.256,1.139l0.123,1.087l-0.245,0.838l-1.339,0.404l2.178,3.705l0.465,1.506l-1.651-1.164l-2.03-2.034l-1.702-2.391l-0.69-2.22
		h-0.782l0.174,0.735l0.225,0.476l0.383,0.6v0.787h-0.782l0.905,3.157l-0.588,2.737l-1.835,1.335l-2.853-1.071l-5.736,1.024
		l-1.805,0.942l0.685,1.511v0.792l-1.396-0.471l-0.895-0.6l-0.838-0.264l-1.242,0.543l-0.368-0.419l-0.148-0.212l-0.296-0.114
		l-0.828-0.124v0.869l0.353,0.435l0.199,0.652l0.307,0.652l-2.157-0.372l-2.045,1.055l-1.677,1.811l-1.063,1.842l-0.532,2.452
		l0.532,7.568l0.271,0.729l0.588,0.383l0.593,0.259l0.266,0.403l-0.123,0.802l-0.256,0.683l-0.399,0.688l-0.286,0.988l-0.501,1.06
		l-0.654,1.019l-0.746,0.874l-0.501,0.367l-1.564,0.76l-1.585,0.331l-0.092,0.476l0.153,0.569l-0.307,0.502l-2.143,0.568
		l-2.047,1.027l1.586,1.583l4.282,0.972l4.053-1.633l3.775-1.913l1.445-0.793l0.466-0.606l0.606,0l0.047,1.072l-0.466,0.932
		l-4.241,3.311l-5.029,4.568l-2.422,0.933l-4.099,1.354l-4.751,1.168l-0.931,1.212l0.219,1.399l-0.245,0.972l-0.394,0.439
		l-0.644,0.264l-1.411,0.295l-0.521,0.222l-1.907,1.788l-0.89,0.641l-1.145,0.258l-0.675,0.538l-1.217,2.383l-0.639,0.543
		l-0.261,0.486l-2.669,2.315l-8.87,5.855l-5.035,3.328l-5.649,2.94l-8.757,4.531l-3.696,1.509l-6.002,0.79l-1.115-0.139
		l-1.616-0.573l-0.7-0.078l-1.104,0.305l-2.193,1.059l-0.997,0.295l-3.425-0.868l-1.656-1.085l-0.762-0.889l0.624-0.62l-1.258,0.496
		l-0.061,0.558l0.189,0.682l-0.506,0.858l-2.29,1.498l-7.944,7.919l-0.997,2.324l0.419,12.167l-0.159,1.472l-0.296,0.444
		l-0.746,1.121l2.04,0.976l0.91,2.427l0.608,2.478l1.12,1.131l1.856,0.387l4.79,2.106l1.467,1.053l4.238,1.275l2.653,4.563
		l1.81,5.311l1.672,3.566l12.008,9.609l7.622,6.95l11.482,14.661l5.858,10.753l1.539,3.739l-0.143,2.449l-1.932,4.841l-0.982,1.067
		l-1.534,0.366l-3.359,0.175l-1.028,0.196l-8.864,3.341l-7.914-0.01l-1.529,0.876l-1.523-0.706l-3.374-0.794l-1.181-1.093h-0.859
		l-1.12,0.557l-4.028,1.17v0.866l1.621-0.186l1.309-0.325l1.135-0.49l1.084-0.649l0.859,0.784l-9.033,2.969l-3.343,2.428
		l-0.491,3.33l2.147,3.587l-0.399,1.16l-3.113,0.443l-0.869,0.253l-0.987,0.598l-0.813,0.716l-0.337,0.598l-0.322,1.397l-0.823,0.49
		l-1.135,0.309l-1.227,0.835l-0.542,1.051l0.046,0.881l-0.123,0.778l-1.022,0.742l-0.951,0.077l-2.377-0.732l-1.35-0.211
		l-15.372,1.932l-0.91,0.17l-13.701,2.566l-10.081,0.366l-2.592-0.706h-0.854l-0.649,0.737l-0.644,0.247l-0.644-0.247l-0.639-0.737
		h-0.859l-1.718,1.701l-1.416-0.866l-2.009-3.355l-0.675-0.556l-0.92-0.593l-1.104-0.464l-1.196-0.196l-1.212-0.402l-0.056-0.897
		l0.578-0.886l0.69-0.402l0.511-0.557l-0.143-2.721l0.097-1.051l0.654-0.897l1.411-1.077l0.496-0.618l0.455-1.691l0.097-2.335
		l-0.511-2.083l-3.205-1.954l0.046-2.377l1.334-3.913l-0.613-1.645l-4.534-4.919l-0.435-0.258l-0.951-0.882l-0.593-0.944
		l1.534-0.887l0.245-1.083l0.138-1.284l0.491-1.078l0.179-1.47l-1.181-1.769l-1.667-1.573l-1.273-0.887v-0.866h0.936v-0.867
		l-6.078-6.06l-1.242-0.702l-0.951-0.279l-0.476-0.433l0.174-1.186l0.593-1.13l0.925-0.789l1.252-0.284l1.518,0.392l-0.608-1.088
		l-1.411-1.109l-1.585-0.841l-1.115-0.341l-0.189-0.598l2.336-3.807l-1.37,0.093l-1.222-0.155l-1.002-0.356l-0.777-0.526
		l0.429-0.098l0.353,0.016l0.194-0.139l-0.041-0.568l-2.904-0.557l-1.181-1.816l0.082-1.93l0.92-0.887l0.706-0.279l0.629-0.588
		l0.838-0.599l1.339-0.268h1.574l1.263-0.227l0.792-0.748l0.153-1.625h-0.777l-2.842,1.625l-0.884-3.385l0.291-7.839l-2.72,5.063
		l-1.912,1.703l-1.447-2.441h-0.782l0.281,1.357l0.475,0.991l0.736,0.702l1.084,0.49v0.872h-5.7l-1.171-0.268l-1.564-1.192
		l-1.549-0.273l-3.175-0.934l-0.624-1.992l-0.322-1.848l-2.275-0.496l1.242,0.516l0.368,0.449l0.107,0.836l-1.667,0.552l0.307,1.012
		l2.219,1.904l2.178,1.156l0.389,0.144l-0.199,1.125l-0.368,0.913l-0.204,0.759l2.331,4.396l-1.222,3.297l-2.796,2.698l-2.684,1.961
		l-0.547-1.032l-0.097-0.609l0.215-0.444l0.43-0.511v-0.944l-1.759-0.108l-1.748,0.108v0.944l1.329,0.366l0.741,0.763l1.437,2.332
		l-1.697,0.64l-0.736-0.093l-1.074-0.547l0.915,1.517l0.879,1.083h0.777l1.677-0.913l1.835-0.743l0.537,1.424l-0.537,5.499
		l0.261,1.48l0.036,0.867l-0.297,1.114l-0.475,0.619l-1.518,1.238l-0.583,0.82h-0.936l-1.074-0.799l-4.044-2.171l-0.889-0.139
		l-0.68-1.594l-1.564-0.583l-2.899,0.016l-10.393-2.914l-3.41,0.315l-0.516-1.46l-0.844-1.279l-1.002-0.991l-0.992-0.593
		l-2.904,0.727l-3.711-0.325l-2.807-1.202l-0.169-1.878l1.063-0.335l2.347-1.238l1.411-1.336l-4.938-1.439l-1.38,0.408l-0.143,2.208
		l-2.893-2.074l-1.472-0.521v-0.867l0.823-1.115l-0.69-1.052l-1.16-1.151l-0.614-1.404l0.215-2.079l0.568-1.357l1.794-2.234v-0.862
		l-0.895-0.594l-0.915-0.232l-0.89,0.176l-0.813,0.65h-0.772l-0.946-0.867v-0.944l1.176-0.96l-0.015-0.914l-1.023-0.609
		l-1.846-0.031l0.389-1.935l0.117-2.116l0.721-1.192l2.198,0.831l-0.322-1.13l-0.511-0.79l-1.733-1.543l0.583-0.945l-0.215-1.848
		l0.48-1.544l-1.534,0.635l-0.726-0.186l-0.225,0.124l-0.005,1.595l0.603,1.76l0.194,0.945l-0.414,0.408l-0.93-0.145l-0.649-0.428
		l-0.394-0.687l-0.128-0.945l-0.414-1.394l-2.219-3.072l-0.874-1.203l-1.794-4.801l-0.782-1.27l-0.767,1.967l-0.153,1.027
		l0.061,1.265l-1.319-1.301l-0.021-1.843l-0.23-1.776l-1.932-1.069v-0.945l1.063,0.62l0.981,0.279l0.828-0.17l0.629-0.728h0.859
		l0.429,0.372l0.276,0.15l1.012,0.423l-4.284-7.875l-2.776-3.47l-1.242-1.968l-0.353-2.366h-0.782l-0.721,1.42l-0.307,1.4
		l0.399,1.069l1.411,0.444l-0.777,1.1l-1.891,2.06l-0.844,1.177h-0.777l-2.255-1.73l-9.831-3.904l-1.104-0.687l-5.235-1.255
		l-1.774-0.227l-1.339-0.821l0.496-1.88l2.096-3.44l-1.518,0.47l-1.687,1.095l-1.375,1.519l-0.573,1.72l-0.777,0.377l-1.733-1.09
		l-2.638-2.278l-1.846,1.369l-4.074-0.253l-4.126-1.281l-2.04-1.648h-0.782l-0.215,2.309l-3.154,6.993l-0.271-0.232l-0.547-0.279
		l-0.174-0.052v0.868h-0.782l1.171-2.954l-0.046-0.935l-1.125,0.423l0.143-1.043l0.199-0.775l0.429-0.511l0.869-0.263v-0.956
		l-1.687,0.15l-2.162,1.271l-1.733,0.315l-1.084-0.372l-1.6-1.694l-1.252-0.449v-0.868l0.644-0.196l0.567-0.47l0.583-0.279
		l-1.457-3.921l-0.128-1.777l0.726-1.24v-0.868l-0.736-0.573l-0.143-0.635l0.297-0.687l0.583-0.698l0.148,0.331l-0.031,0.351
		l0.128,0.232l0.613-0.057l-0.613-1.695l0.148-1.302l1.017-0.915l2.024-0.496l-2.945-0.093l-1.539,0.124l-0.67,0.439l-2.009,4.164
		l-0.128,0.718l-2.449-0.222l-1.902-0.822l-0.92-1.643l0.547-2.666l-2.065,0.889l-2.193,0.682l-2.224,0.134l-2.168-0.759l0.23,0.837
		l0.266,1.798l0.276,0.827l-1.999,0.305l-3.584,1.86l-1.626,0.439l-2.362-0.641l-1.799-1.436l-0.261-1.493l2.275-0.847v-0.78
		l-1.063-0.429l-0.578-0.744l-0.184-1.023l0.107-1.276l-1.273,0.961l-0.199,1.571l-0.552,1.622l-2.336,1.054v0.858l0.527,0.708
		l0.501,0.873l0.414,0.956l0.266,0.935l-2.367,0.512l-0.869-0.036l-1.048-0.475l-3.216,0.599l-5.143-1.39l-8.798-3.539l-4.555-0.956
		l-4.984-0.005l-4.954,0.682l-8.88,2.764l-3.808,2.18l-2.945,3.105l-1.851,4.442l-0.337,5.227l0.884,5.33l2.965,8.582v0.79
		l-1.615,1.668l-0.767,2.096l-1.099,1.079l-2.599-1.38l0.786-2.893l0.623-5.666l-6.619-14.551l-0.575-4.028l-0.86-1.302
		l-2.198-1.161l-1.146-0.161l-1.516,0.607l-0.795-0.046l-0.701-0.561l-1.214-1.794l-0.666-0.715l-3.519-2.077L30,313.245
		l0.143-1.591l1.107-0.902l5.72-3.228l5.561-5.326l3.61-1.861l3.551-1.093l3.279-1.621l2.779-3.436l1.178-3.742l0.37-4.464
		l-0.74-8.857l-0.997-3.861L54,269.979l-2.1-2.969l-3.944-4.43l-1.117-1.672l-0.62-1.797l0.149-1.902l1.016-1.097l3.74-2.339
		l1.172-1.363l0.02-1.731l-0.997-0.618l-0.597-0.578l1.224-1.633l1.464-1.055l12.959-5.326l3.759-2.293l1.722-2.83l0.1-0.164
		l-0.5-1.196l-3.24-5.488l-1.704-1.134l-5.713-1.955l-5.769-4.276l-2.824-1.266l-0.737-0.434l-0.558-0.782l-0.354-1.003
		l-0.451-0.963l-0.873-0.651l-1.159,0.007l-3.759,1.581l-0.018-1.408l-0.268-20.842l-0.195-15.263l-0.136-10.549l0.325-2.445
		l1.055-1.78l2.347-0.833l6.7-0.922l1.873-1.076l0.201-1.037l-0.578-0.355l-0.821-0.25l-0.539-0.734l-0.87-3.496l-1.523-2.709
		l0.234-1.182l1.425-2.025l2.334-1.985l2.318-0.263l7.278,2.914l5.243,4.454l1.211,0.454l1.01-0.467l1.285,1.458l1.607,3.071
		l1.334,1.488l1.237,0.586l2.198,0.678l2.334,0.405l1.669-0.26l0.812-1.629l0.526-4.888l0.893-1.376l1.912,0.309l1.918,1.02
		l0.977-0.059L90.262,152.85z M186.483,443.568l1.222-0.464l1.017,0.124l1.181,0.289l1.733,0.051l-1.549,1.258l-1.677,3.272
		l-1.068,1.603l0.491,0.639l0.445,1.01h-0.936l-1.927-5.741l0.21-1.098l-0.527-0.716l-0.051-0.392l0.578-0.701l0.475,0.015
		l0.317,0.088l0.133,0.237L186.483,443.568z M269.224,408.882l1.708-0.887l2.198-0.805l3.814-0.897l1.595,0.542l1.687,0.222
		l3.584,0.021l-1.498,2.697l-0.987,1.207l-1.416,0.5l-1.37,0.675l-0.971,0.191l-1.089-0.469l-0.798-0.634l-0.7-0.382l-0.818-0.191
		l-1.155-0.057l-1.283,0.279l-0.644,0.681l-0.435,0.83l-0.644,0.727l-3.507,1.81l-1.764,2.078l-0.731,0.443h-1.053l-1.186-0.268
		l-0.91-0.34l-0.286-0.18l-3.466,1.222l-0.787-0.046l1.176-1.645l1.217-1.263l1.278-0.975l1.544-0.619l4.529-0.696l1.298-1.15
		l0.808-1.403L269.224,408.882z M204.494,429.651l1.493,0.794l3.824-0.361l0.777,0.907l3.502,6.526l-2.346,0.964l-2.699,0.758
		l-2.669,0.01l-4.376-2.515l-5.388-0.387l-2.403-0.562l-1.314-1.124l-3.021-3.356l-2.423-1.438l-5.255-4.464l-2.863-6.037
		l-1.033-0.959l-0.281-0.557l-0.966-3.341l0.491-0.088l2.617-0.005l1.176-0.34l-0.031-0.495l1.595-2.862l0.235-0.103l0.327-1.49
		l0.046-1.129l0.179-1.011l0.695-1.165l0.961-0.64l2.321-0.485l3.543-2.61l1.227-0.681l0.056,0.48h0.93l-0.343-0.965l-0.261-1.573
		l-0.327-0.995h0.93v0.939h0.787l-0.071-0.629l0.184-0.186l0.368-0.021l0.45-0.103l2.848,8.19l0.123,1.475l0.24,0.268l1.002,1.547
		l0.061,0.33l-0.138,1.011l0.077,0.309l0.399,0.062l1.043-0.155l0.353,0.093l1.13,0.773l0.803,0.309l0.486,0.732l0.159,2.042
		l-0.736,0.598l-4.018,1.526l-0.123,0.866l-0.936,3.692l-0.276,0.629l0.787,1.578l2.26,2.042l0.465,1.258l0.23,1.299l0.598,1.113
		l0.823,0.433l0.925-0.722H204.494z M135.719,327.958l-2.669-0.775l-1.764-0.181l-0.798,0.558l0.01,1.152l0.092,0.62l0.833,2.169
		l-3.502-2.603l-0.946-0.222l-2.515-0.325l-0.828-0.392l-0.966-1.994l1.155-1.162l4.1-1.178l1.789,0.801l2.602,0.811l2.357,1.09
		L135.719,327.958z M119.263,320.241l3.512,2.516l-2.52,0.646l-4.376,2.314l-2.106,0.506l-1.493-0.677l-1.779-1.627l-1.534-1.973
		l-0.777-1.705h0.782l2.858,0.362l6.523-4.634l2.704,0.718l1.503,1.353l-0.087,1.24l-1.237,0.594l-1.973-0.589V320.241z
		 M527.42,314.083l0.824,1.615l0.566,2.741l0.897,1.04l0.612,0.19l0.66,0.474l-0.517,0.471l-1.323,0.282l-1.368-0.616l-1.572,0.853
		l-0.093,1.086l0.764,0.753l-0.008,1.091l-0.801,0.14l-0.477,0.616l-0.105,1.708l-1.657,0.189l-2.173-4.496l0.381-1.656l0.805,0.095
		l0.095-0.946l0.522-1.703l-0.472-1.23l0.617-2.034l1.516-1.796l0.948-0.141l0.567,0.142l0.69,0.716L527.42,314.083z
		 M116.84,342.217l0.353-1.544l0.854-1.652l1.171-1.436l1.355-0.806l1.462-0.077l0.297,0.806l-0.138,1.379l0.153,1.673l-2.3,1.022
		l-1.375,0.454L116.84,342.217z M528.635,304.688l-1.062,0.674l-2.429-1.818l-2.252-1.698l1.49-3.079l1.661,1.317l1.279,1.557
		l0.589-0.482l0.277-1.177l0.692,0.451l-0.483,1.593l0.932,0.622l-0.174,0.968L528.635,304.688z M146.869,185.142l3.18,1.461
		l1.564,1.083l1.339,1.803l-2.433-0.347l-2.536,1.015l-2.014,1.911l-1.084,2.921l-0.603-0.233l-1.355-1.429l0.056-0.104l0.281-0.093
		l0.179-0.565l0.005-2.916l-0.475-1.15l-1.247-0.751v-0.793l1.718,0.793l-1.135-2.668l-1.881-0.922l-2.3-0.445l-2.408-1.181v-0.788
		l0.705-0.616l0.649-0.254l0.624,0.176l0.593,0.694l1.109,0.446l1.017,0.228l1.053-0.114l1.186-0.56l1.237,0.601L146.869,185.142z
		 M121.058,173.759l3.369-2.581l2.03-0.834l2.398-0.062l3.476,5.172l0.874,3.233l-1.779,2.104v0.953l0.552,0.611l0.179,0.332
		l-0.194,0.492l-0.537,1.021l-1.723-2.943l-2.648-2.741L121.058,173.759z M552.776,295.091l-0.185-1.426l0.475-0.618l1.225,0.721
		l1.388,0.864l0.798,1.013l0.573,1.364l0.358,1.473l0.112,1.302l-0.025,0.991l1.565,0.282l0.844,1.66l-0.23,1.413l-1.047,0.711
		l-0.288,1.608l1.694,3.276l-1.097,2.838l-1.142,1.04l0.002,1.135l-0.721,0.951l-1.557-0.102l-0.619-0.615L554,315.113l-0.845,0.158
		l-0.901,0.217l-0.333-0.662l-0.286-0.803l-0.423,0.802l-0.943,1.133l-1.04,1.417l0.045,1.087l-0.334,1.086l1.23,1.468l0.232,2.505
		l0.757,0.617l0.947,0.05l-0.001,0.568l-0.805,0.661l-1.751-0.998l-1.323-1.09l0.191-1.796l-0.844-2.978l-0.803-1.183l-2.256-0.996
		l-0.797-0.558l-0.698-1.304l0.564-1.989l0.901-1.059l0.435-2.211l-0.466-0.805l-1.105-1.216l-0.331-0.948l0.522-0.943l0.522-0.8
		l0.048-0.85l-0.565-2.274l0.172-1.2l-1.302-3.391l0.476-1.789l1.607-0.045l1.134,0.764l5.067-2.191l1.132,1.07l0.353,0.625
		l0.194,0.615L552.776,295.091z M467.576,251.818l0.886-0.771l0.81,0.27l0.385-0.116l0.077,0.385l-0.27,0.308l0.347,0.771
		l0.578,0.385l0.771,0.27l0.077,0.693l-0.269,0.732l-0.578,0.193l-0.424-0.655l-0.501-0.462l-0.925,0.193l-0.81-0.231l-0.309-0.771
		L467.576,251.818z M216.568,212.432l0.349,0.35l0.699,0.195l0.274-0.272l0.584,0.039l0.739,0.389l0.663,0.467l0.507,0.506
		l0.156,0.467l0.351,0.35l-0.078,0.35l-0.546,0l-0.624-0.312l-1.053-0.156l-1.285-0.156h-0.582l-0.581,0.156l-0.158-0.817
		l-0.273-0.584l-0.271-0.506l0.234-0.389L216.568,212.432z M156.392,204.247l-0.65-0.648l0.072-0.577l0.794,0.359l0.506,0.792
		l0.721,0.432l0.866,0.071l0.434,1.081l0.289,0.865l0.866,0.359l0.938,0.431l-0.216,0.793l-1.153,0.506l-0.937,0.578l-0.721-0.215
		l-1.155-0.791l-1.01-0.648l-0.65-1.008l0.071-1.009L156.392,204.247z"/>
</g>
<g id="Copyright">
	<text transform="matrix(1 0 0 1 681.6426 577.5916)" class="st1 st2">© Vemaps.com</text>
</g>
</svg>
