<?xml version="1.0" encoding="utf-8"?>
<!-- Generator: Adobe Illustrator 23.0.1, SVG Export Plug-In . SVG Version: 6.00 Build 0)  -->
<svg version="1.1" xmlns="http://www.w3.org/2000/svg" xmlns:xlink="http://www.w3.org/1999/xlink" x="0px" y="0px"
	 viewBox="0 0 800 600" style="enable-background:new 0 0 800 600;" xml:space="preserve">
<style type="text/css">
	.st0{fill:#808080;}
	.st1{font-family:'Roboto-Regular';}
	.st2{font-size:14px;}
</style>
<g id="Peru">
	<path class="st0" d="M559.444,544.68l-3.717,3.633l-1.321,0.912l-1.308,0.22l-1.356-0.192l-1.224,0.066l-0.921,0.987l-0.224,1.296
		l0.333,1.063l0.494,1.057l0.259,1.287l0.056,0.771l0.156,0.513l0.643,1.111l0.239,0.583l0.072,0.57l-0.093,0.579l-1.753,4.011
		l-0.631,0.958l-0.525,0.58l-1.141,1.003l-1.378,1.653l-0.505,0.416l-0.644,0.256l-0.851,0.013l-0.692,0.233l-2.056,1.167
		l-0.722,0.215l-1.502,0.161l-3.102-0.306l-1.493,0.107L533.803,570l-0.726-0.651l-1.44-0.926l-1.793-1.307l-0.897-0.573
		l-1.032-0.573l-1.061-0.575l-1.416-0.768l-1.453-1.409l-0.095-0.134l-0.159-0.328l-0.159-0.181l-0.136-0.082l-0.293-0.04
		l-0.166-0.069l-1.681-1.568l-0.502-0.308l-1.026-0.303l-0.37-0.337l-0.383-1.19l-0.282-0.61l-0.413-0.263l-0.465-0.193
		l-1.222-0.937l-0.583-0.322l-1.715-0.563l-0.587-0.082l-1.493-1.472l-0.623-0.382l-0.392-0.362l-0.882-1.026l-0.455-0.337
		l-1.408-0.619l-1.065-0.768l-0.616-0.327l-0.612-0.129l-0.96,0.129l-0.127,0.079l-0.021-0.322l0.189-0.352l0.425-0.594l0.127-0.703
		l-0.092-0.604l-0.163-0.609l-0.269-3.065l-0.124-0.564l-0.402-1.204l-0.129-1.029l-0.121-0.128l-0.183-0.054l-0.228-0.151
		l-0.791-1.038l-1.026-0.727l-0.074-0.086l-0.401-0.949l-0.487-0.38l-0.466-0.148l-1.126-0.198l-0.685-0.232l-0.274-0.183
		l-0.506-0.462l-0.488-0.324l-0.134-0.062l-4.816-1.222l-1.104-0.509l-0.934-0.773l-1.348-1.622l-0.701-0.671l-1.579-0.938
		l-0.623-0.271l-0.658-0.178l-1.816-0.141l-0.238-0.116l-0.156-0.301l0.039-0.641l-0.064-0.318l-0.396-0.392l-1.174-0.686
		l-0.245-0.266l-0.297-0.513l-0.691-0.318l-1.387-0.325l-0.708-0.441l-0.133-0.535l0.018-0.589l-0.265-0.587l-1.615-1.902
		l-0.663-0.473l-0.327-0.101h-0.269l-0.242-0.032l-0.259-0.197l-0.299-0.438l-0.198-0.177l-0.293-0.072l-0.182-0.089l-0.628-0.426
		l-0.288-0.143l-1.207-0.207l-1.684-0.731l-3.032,0.039l-2.579-0.948l-3.102-2.259l-4.983-1.806l-0.973-1.05l-1.278-0.652
		l-1.079-0.765l-0.504-0.184l-1.135,0.025l-0.543-0.15l-0.445-0.28l-0.417-0.162l-0.466,0.219l-0.245-0.413l-0.366-1.254
		l-0.252-0.292l-0.291-0.135l-0.842-0.192l-1.6-0.809l-1.782-0.43l-3.395-1.179l-2.24-0.362l-0.71,0.505l0.012-0.721l-0.528-0.437
		l-0.274-0.307l-0.205-0.179l-1.053-0.36l-2.066-0.952l-0.856-0.543l-1.804-1.274l-2.019-1.49l-0.833-0.747l-0.01-0.347l0.152-0.361
		l-0.228-0.469l-0.315-0.395l-0.884-0.425l-2.452-1.356l-0.455-0.125l-1.253-0.169l-0.473-0.309l-0.384-0.449l-0.092-0.314
		l-0.359-0.243l-0.702-0.243l-1.101,0.255l-1.02-0.265l-1.011-0.373l-1.267-0.869l-0.136-0.174l-0.074-0.588l-0.074-0.304
		l-0.15-0.243l-0.028-0.414l-0.157-0.425l-0.737-0.271l-1.444-0.454l-4.135-1.825l-2.036-1.125l-2.792-1.154l-0.611-0.85
		l-3.202-1.675l-0.791-0.636l-0.39-0.122l-0.432,0.064l-0.198,0.088l-0.205-0.044l-0.46-0.333l-0.879-0.976l-0.326-0.257
		l-0.569-0.181l-0.573-0.093l-0.443-0.186l-0.179-0.472l-0.149-0.12l-0.502-0.123l-0.046-0.224l0.044-0.112l0.402-0.203l0.585-0.156
		l0.11-0.404l-0.441-0.652l-0.843-0.531l-1.173-0.506l-0.775-0.792l0.561,0.029l0.32-0.169l0.126-0.301l-0.035-0.362l-0.13-0.276
		l-0.203-0.276l-1.406-1.33l-0.578-0.271l-1.514-0.217l-0.425-0.323l-0.255-0.513l-0.258-0.691l-1.359-1.986l-0.205-0.594
		l-0.223-0.296l-1.038-0.708l-0.323-0.327l-0.047-0.2l0.047-0.945l-0.111-0.217l-1.277-0.998l-2.384-1.174l-0.783-0.422l-0.598-0.32
		l-0.702-0.458l-1.263-1.043l-1.446-0.709l-0.1-0.146l-0.241-0.163l-0.288-0.144l-0.243-0.059l-0.323-0.117l-0.217-0.278
		l-0.175-0.332l-0.196-0.297l-0.205-0.195l-0.215-0.158l-1.209-0.612l-0.428-0.434l0.098-0.674l-0.091-0.701l-0.068-0.701
		l-0.386-0.633l-0.498-0.723l-0.295-0.18l-0.089-0.34l0.135-0.271l0.203-0.475l-0.119-0.261l-0.339-0.678l-0.66-0.338l-0.979-0.614
		l-0.347-0.336l-0.559-0.799l-0.389-0.409l-0.298-0.136l-0.709-0.073l-0.289-0.107l-0.192-0.224l-0.3-0.949l0.795-0.09l0.227-0.273
		l0.045-0.296l-0.204-0.387l-0.273-0.569l-0.178-0.313l-0.225-0.645l-0.35-0.538l-0.451-0.224l-0.477-0.173l-0.243-0.409
		l-0.156-0.475l-0.213-0.375l-0.382-0.219l-1-0.401l-0.047,0.658l-0.569,0.931l-0.558-1.002l0.243-0.792l-0.022-1.113l-0.259-0.679
		l0.305-0.229l0.009-0.476l0.376-0.229l-0.182-0.319l0.068-0.25l0.069-0.318l-0.273-0.342l-0.166-0.507l0.341-0.126l0.069-0.744
		l-0.203-0.52l-0.518-0.316l-0.073-0.369l0.028-0.214l0.09-0.224l0.031-0.209l-0.149-0.187l-0.308-0.073l-0.191,0.146l-0.081,0.479
		l-0.203,0.248l-0.361-0.136l-0.496,0.089l-0.54-0.317l-0.607-0.024l0.012-0.779l0.071-0.42l0.391-0.954l0.316-0.414l-0.135-0.383
		l0.271-0.225l0.518,0.114l0.533-0.426l0.512,0.017l0.353,0.05l0.157,0.338l-0.294,0.428l-0.068,0.406l0.271,0.226l0.378,0.197
		l0.545,0.435l0.226-0.315l0.023-0.631l0.158-0.631l0.43-1.329l0.249-0.901l-0.018-0.604l0.104-0.806l0.337-0.974l0.335-0.939
		l0.489-2.475l-0.191-2.222l-0.237-1.096l-0.727-2.104l-1.541-2.093l-0.947-0.901l-1.855-2.484l-2.319-3.033l-0.939-1.054
		l-0.22-0.72l-0.421-0.652l-0.319-1.309l0.139-1.051l-0.132-1.216l-0.456-0.773l-0.3-0.356l-1.993-1.713l-0.55-0.704l-1.23-2.44
		l-0.27-0.392l0.033-0.793l-0.024-0.278l-0.228-0.288l-0.448-0.452l-0.91-1.247l-1.271-0.862l-0.553-0.417l-0.367-0.792l0.598-0.771
		l0.252-1.113l-0.245-1.133l-1.001-0.848l-0.818-1.478l-2.763-1.559l-1.661-0.705l-0.317-0.017l-0.106-0.152l-0.506-0.483
		l-0.18-0.285l-0.07-0.415l0.08-0.258l0.118-0.224l0.052-0.319l-0.453-1.173l-1.016-0.748l-0.737-0.227l-0.536-0.164l-1.218-0.116
		l0.244-0.55l0.33-0.424l0.29-0.473l0.126-0.707l-0.15-1.989l-0.245-0.67l-0.217-0.887l-0.131-0.294l-0.445-0.701l-0.16-0.61
		l0.168-0.732l-0.433-0.703l0.001-0.266l0.532,0.075l0.316-0.41l-0.117-0.604l-0.705-1.326l-0.127-0.629l-0.322-0.701l-0.421-0.568
		l-0.424-0.231l-0.375-0.135l-0.326-0.313l-0.497-0.655l-0.098-0.2l0.203-0.282l-0.006-0.253l-0.114-0.231l-0.495-0.578
		l-0.399-0.744l-0.224-0.327l-0.261-0.14l-0.315-0.091l-0.223-0.226l-0.361-0.508l-0.502-0.332l-1.247-0.565l-0.944-0.799
		l-4.497-2.404l-0.744-0.563l-0.379-0.328l0.07-0.367l-0.063-0.684l-0.147-0.584l0.202-0.182l-0.082-0.251l0.235-0.249l0.267-0.015
		l0.35,0.085l0.267-0.165l0.334-0.115l0.12-0.466l-0.029-0.767l-0.396-0.685l-0.298-0.435l0.169-0.348l-0.597-0.671l0.136-0.299
		l-0.298-0.52l0.135-0.249l-0.248-0.569l-0.535-0.674l0.118-0.249l0.302-0.282l-0.263-0.601l-0.246-0.468l0.036-0.383l-0.214-0.584
		l-0.313-0.518l-0.429-0.569l-0.446-0.669l0.069-0.466l-0.747-0.589l-0.528-0.488l0.003-0.433l0.152-0.266l-0.495-0.685l0.035-0.216
		l-0.835-0.784l-0.441-0.322l-0.168-0.35l-0.166-0.319l-0.223-0.252l-0.626-0.562l-1.84-3.166l0.07-0.333l-0.378-0.717l-0.564-0.442
		l-0.767-0.645l0.064-0.467l-0.315-0.651l-0.531-0.703l-0.45-0.57l-0.057-0.281l0.235-0.28l-0.046-0.332l-0.33-0.316l-1.101-0.714
		l-0.044-0.565l-0.024-0.779l-0.543-0.452l-0.251-0.269l-0.061-0.466l-0.227-0.616l0.139-0.348l-0.281-0.417l-0.131-0.399
		l-0.562-0.635l-1.225-1.123l-0.26-0.6l-0.196-0.3l-0.014-0.299l0.249-0.048l0.182-0.166l-0.048-0.366l-0.264-0.351l0.084-0.183
		l-0.047-0.349l-0.015-0.25l-0.463-0.637l-0.118-0.691l-0.161-0.317l-0.253-0.4l-0.081-0.299l-0.302-0.119l-0.099-0.134
		l-0.166-0.051l-0.049-0.167l0.051-0.149l0.168-0.182l-0.032-0.317l0.025-0.345l-0.027-0.366l-0.132-0.46l-0.206-0.268l-0.048-0.501
		l0.127-0.595l0.261-0.402l0.014-0.919l-1.145-1.035l-0.934-1.079l-0.186-0.691l-0.49-0.512l-0.233-0.53l-0.292-0.296l-0.346-0.609
		l-0.447-0.493l-0.131-0.901l0.185-0.819l-0.55-0.3l-0.112-0.489l0.026-0.409l-0.272-0.42l-0.189-0.71l0.238-0.406l0.366-0.367
		l-0.236-0.472l-0.379-0.005l-0.603-0.455l-0.13-0.803l0.085-0.487l0.222-0.231l0.181-0.173l-0.318-0.122l-0.257-0.337l-0.243-0.164
		l-0.163-0.373l-0.369-0.139l-0.401,0.041l-0.255,0.158l-0.653-0.741l-0.037-0.273l-0.056-0.332l-0.272-0.178l-0.222-0.257
		l0.265-0.192l0.256-0.212l0.333-0.075l0.22-0.583l0.044-0.585l-0.267-0.705l-0.543-0.336l-0.565-0.162l-0.431,0.172l-0.233,0.156
		l-0.097,0.235l0.133,0.234l0.014,0.369l0.134,0.588l-0.024,0.35l-0.329-0.099l-0.383-0.803l-0.561-0.649l-0.41-0.435l0.022-0.312
		l-0.116-0.157l0.138-0.135l0.448,0.161l0.684,0.204l0.175-0.235l0.14-0.349l0.007-0.594l-0.249-0.703l-0.309-0.432l-0.387-0.354
		l-0.39-0.023l-0.528,0.074l-0.252-0.197l-0.269-0.471l0.043-0.487l0.2-0.486l0.14-0.291l-0.252-0.256l-0.701-0.26l-0.017-0.312
		l0.234,0.061l0.139-0.194l0.005-0.644l-0.17-0.743l-0.231-0.451l-0.327-0.608l-0.231-0.432l-0.426-0.512l-0.596-0.828l-1.363-1.811
		l0.061-0.273l0.003-0.273l0.217-0.252l0.335-0.232l0.067-0.837l-0.131-0.683l0.063-0.448l-0.208-0.761l-0.262-1.132l-0.873-1.216
		l-0.878-1.131l-1.145-1.083l-0.658-0.491l-0.909-0.353l-0.421-0.348l-0.36-0.442l0.159-0.368l0.294,0.043l0.154,0.079l0.37-0.27
		l0.142-0.602l-0.013-0.603l-1.784-2.638l-0.052-0.642l-0.709-0.96l0.122-0.426l-0.945-1.079l-3.069-2.662l-0.012-0.72l-1.713-1.154
		l-3.361-2.546l-1.507-1.696l-0.938-1.373l-0.337-1.21l-1.421-1.609l-0.342-0.324l-0.273-0.304l0.138-0.212l0.351-0.113l0.354-0.327
		l0.045-0.563l-0.381-0.703l-1.038-1.662l-2.067-2.859l-0.781-0.938l-0.056-0.703l-0.15-0.546l0.025-0.281l0.313-0.337l0.121-0.387
		l-0.322-0.858l-0.343-0.762l0.026-0.543l-0.492-1.347l-0.926-1.012l-1.132-1.158l-0.384-0.412l0.182-0.619l0.048-0.757
		l-0.555-0.705l-3.079-3.091l-1.501-1.495l-0.325-0.607l-1.567-1.328l-0.401-0.918l-0.105-0.932l-0.454-0.955l-0.688-0.861
		l-0.468-0.495l-3.315-2.635l-1.464-0.931l-3.729-2.167l-4.699-2.386l-7.752-3.885l-1.822-0.868l-1.814-1.755l-2.114-1.461
		L226,207.442l-2.538-1.953l-0.851-1.093l-0.597-1.71l0.069-1.162l-0.01-1.271l-0.024-0.271l0.603-0.503l0.169-0.567l0.137-0.188
		l0.652-0.039l0.306-0.672l0.032-0.461l0.275-0.376l0.513,0.035l0.557,0.878l0.832,0.393l1.101,0.419l0.918,0.142l1.059-1.055
		l1.141-2.06l0.226-2.723l-0.725-2.231l-1.467-3.205l-0.877-0.983l-2.702-2.623l-0.49-0.612l-0.645-0.171l-0.381,0.128l-0.696-0.496
		l-0.605-0.953l-0.745-0.848l-0.587-0.886l0.143-0.286l0.193-0.241l0.382-0.158l0.224-0.59l-0.104-0.325l-0.239-0.3l0.033-0.378
		l0.408-0.103l-0.128-0.514l-0.126-0.622l0.25-0.428l0.459,0.06l0.516-0.289l0.48,0.492l0.864-0.069l0.44-0.64l0.123-1.023
		l-0.628-1.384l-0.958-0.984l-0.908-0.687l-0.688-1.035l-0.474-0.87l-0.983-1.31l-2.321-2.495l-0.988-1.234l0.141-0.403l0.357-0.182
		l0.439-0.425l-0.077-0.572l-0.249-0.659l0.249-1.488l0.013-0.459l-0.164-0.523l-0.276-0.594l-0.182-0.558l0.119-0.438l0.304-0.27
		l0.202-0.144l0.174-0.166l0.218-0.327l0.414-0.989l0.011-0.662l-0.425-1.63l0.14-0.575l0.328-0.688l0.395-0.632l0.326-0.397
		l2.526-1.724l0.657-0.674l0.54-0.958l0.406-0.454l0.548-0.192l0.525-0.123l0.314-0.322l0.456-0.946l1.56-2.355l0.908-0.951
		l1.094-0.858l1.185-0.667l0.439-0.411l0.173-0.61l0.078-0.653l0.196-0.61l0.519-1.019l0.778-0.981l1.04-0.851l4.597-2.744
		l0.827-0.801l1.225-1.799l0.176-0.605l0.234-0.094l0.29-0.047l0.258-0.151l0.451-0.175l2.016,0.066l0.555-0.123l0.594-0.248
		l0.472-0.383l0.196-0.518l0.08-0.319l0.384-0.655l0.127-0.317l0.009-0.283l0.198,0.103l0.472,0.246l1.098,0.291l0.408,0.315
		l-0.061,0.507l-0.177,0.603l0.065,0.606l0.176,0.162l0.478,0.198l0.186,0.21l0.069,0.258l0.001,0.285l-0.054,0.555l-0.225,0.783
		l-0.002,0.225l0.187,0.201l0.286,0.093l0.252,0.117l0.079,0.273l0.005,0.324l0.166,0.555l0.035,0.318l-0.046,0.288l-0.189,0.564
		l-0.048,0.255v0.291l0.028,0.225l0.177,0.543l0.029,0.285l-0.097,0.225l-0.124,0.201l-0.054,0.222l0.135,0.585l0.582,0.931
		l0.256,0.586l0.037,0.261v0.537l0.078,0.249l0.252,0.294l0.26,0.168l0.175,0.171l-0.001,0.035l-0.005,0.272l-0.461,0.519
		l-2.259,1.039l-0.412,0.51l-0.421,0.673l-0.488,0.604l-0.605,0.297l-0.544-0.111l-1.223-0.658l-0.598-0.189l-0.59-0.033
		l-0.586,0.042l-0.535,0.156l-0.433,0.309l-0.316,0.469l-0.336,0.703l-0.25,0.73l-0.002,0.024l-0.052,0.534l0.145,0.36l0.477,0.658
		l0.157,0.372l0.01,0.273l-0.112,0.553l-0.002,0.27l0.613,1.286l1.011,0.108l1.255-0.372l1.338-0.165l-0.32,0.643l-3.833,5.098
		l-0.109,0.496l0.254,0.61l0.393,0.352l1.3,0.739l0.481,0.174l0.514-0.015l0.229-0.021l0.279-0.252l1.187-0.637l2.229-1.713
		l0.456-0.493l0.216-0.46l0.297-1.018l0.246-0.409l0.243-0.195l0.298-0.147l0.317-0.108l1.181-0.153l0.082-0.03l0.185,0.315
		l0.482,0.15l0.59,0.108l0.499,0.18l0.523,0.448l0.938,1.025l0.585,0.412l0.785,0.43l0.753,0.09l0.744,0.009l0.761,0.192
		l0.735,0.679l0.609,0.91l0.72,0.745l1.076,0.168l1.947-0.601l0.999-0.595l1.048-0.141l0.801,0.4l1.463,1.448l0.226,0.108
		l0.413,0.307l0.178,0.096l0.698-0.006l0.589,0.346l0.162,0.273l-0.073,0.427l-0.668,1.19l-0.02,0.625l0.845,1.238l0.333,1.725
		l0.759,1.431l0.006,0.037l0.089,0.54l0.208,0.616l0.5,0.4l0.598,0.316l0.503,0.373l0.157,0.259l0.189,0.574l0.155,0.25l0.252,0.183
		l0.566,0.213l0.255,0.168l0.383,0.553l0.309,0.615l0.404,0.49l0.665,0.177l1.35-0.049l0.706-0.026l0.509,0.084l0.969,0.34
		l0.506,0.114l0.295-0.012l0.468-0.117l0.3,0.036l0.312,0.147l0.317,0.232l0.537,0.532l0.836-0.695l0.748-0.797l0.208-0.61
		l0.321-1.418l0.309-0.478l0.582-0.147l0.762-0.006l0.671-0.15l0.307-0.577l-0.148-0.694l-0.654-1.308l-0.021-0.797l0.327-0.8
		l0.542-0.748l1.321-1.22l1.211-0.685l2.654-1.061l0.312-0.207l0.79-0.523l0.261-0.469l0.035-0.559l-0.027-0.58l0.075-0.535
		l0.419-0.676l0.448-0.55l0.078-0.469l-0.689-0.421l-0.353-0.556l-0.234-1.079l-0.035-1.091l0.24-0.61l0.533-0.445l0.25-0.568
		l0.276-1.271l1.767-3.701l0.31-1.288l-0.028-1.73l0.14-0.477l0.295-0.306l0.323-0.084l0.351-0.027l0.375-0.117l0.404-0.222
		l0.12-0.12l-0.002-0.201l0.286-2.15l0.207-0.555l0.299-0.562l0.175-0.132l0.357-0.168l0.23-0.147l0.707-0.691l0.177-0.558
		l-0.371-1.876l-0.001-0.366l0.017-0.15l0.138-0.048l0.369-0.063l0.221-0.168l0.019-0.282l-0.121-0.591l-0.013-1.045l0.067-0.564
		l0.195-0.597l0.534-1.165l0.04-0.126l0.375-1.18l0.222-1.255l0.017-0.318l-0.177-0.57l-0.027-0.186l0.317-0.549l0.488-0.147
		l0.607,0.084l1.256,0.351l0.362,0.291l0.217,0.435l0.401,1.867l0.277,0.528l0.395-0.189l0.459-0.375l0.514-0.111l0.446-0.189
		l0.267-0.594l-0.061-0.798l-0.364-0.417l-0.457-0.324l-0.335-0.528l0.003-0.636l0.342-0.411l1.056-0.786l0.358-0.516l0.896-1.719
		l0.407-0.447l1.401-1.164l2.93-3.93l2.134-1.866l0.545-0.279l1.12-0.392l0.802-0.28l3.644-1.275l3.646-1.275l3.644-1.278
		l3.644-1.275l3.644-1.278l3.647-1.275l3.644-1.275l3.646-1.278l2.669-0.933l0.433-0.263l1.287-0.781l1.642-1.259l1.73-1.325
		l1.73-1.325l1.729-1.322l1.732-1.328l1.728-1.325l1.732-1.322l1.729-1.325l1.729-1.325l1.448-1.688l1.447-1.685l1.448-1.688
		l1.447-1.688l1.447-1.688l1.449-1.687l1.447-1.687l1.446-1.684l1.167-1.361l1.592-1.477l0.458-0.554l0.224-0.27l0.377-1.007
		l0.426-1.675l0.87-3.416l0.87-3.419l0.87-3.419l0.87-3.416l0.367-1.432l0.179-0.255l0.822,0.755l0.395,0.455l0.169,0.291
		l0.286,0.234l0.66,0.015l1.23-0.147h1.371l0.259-0.018l-0.007-0.195l-0.21-0.288l-0.278-0.243l-0.224-0.33l-0.053-0.27l0.046-0.5
		l-0.009-0.261l-1.287-4.374l0.012-0.362l0.184-0.521l0.061-0.297l-0.015-0.294l-0.124-0.533l-0.03-0.285l0.132-0.345l0.309-0.207
		l0.351-0.18l0.261-0.276l0.06-0.258l-0.04-0.219l-0.067-0.21l-0.024-0.24l0.09-1.138l-0.106-0.536l-0.329-0.515l-0.13-0.045
		l-0.272,0.141l-0.147-0.03l-0.112-0.138l-0.15-0.333l-0.124-0.135l-1.13-0.878l-0.118-0.171l-0.165-0.093l-0.357,0.03l-0.297-0.051
		l-0.329-0.204l-0.54-0.509l-0.829-1.141l-0.536-1.228l-0.929-3.274l-0.331-0.422l-0.463-0.291l-0.619-0.204l-0.359-0.183
		l-0.607-0.572l-0.352-0.213l-0.282-0.039l-0.621,0.048l-0.273-0.06l-0.263-0.302l-0.283-0.566l-0.139-0.641l0.163-0.503
		l0.423-0.141l0.521,0.138l0.529,0.213l0.452,0.087l0.518-0.054l0.407,0.006l0.392,0.093l2.043,1.1l0.747,0.072l0.78-0.518
		l0.242-0.021l0.992,0.141l0.463-0.024l0.386-0.129l0.371-0.183l0.655-0.464l0.344-0.443l0.439-0.153l0.458-0.353l0.359-0.428
		l0.145-0.372l0.099-0.56l0.279-0.297L394.323,30l0.581,0.063l1.305,0.354l0.61,0.309l0.551,0.434l1.14,1.567l0.336,0.324
		l0.246,0.087l0.509,0.012l0.27,0.081l0.181,0.138l1.185,1.288l0.387,0.3l0.621,0.273l0.989,0.213l0.482,0.174l0.29-0.024
		l0.326-0.255l0.723-1.156l0.344-0.081l0.607,0.536l0.413,0.581l0.989,2.007l-0.798,0.605l-0.228,0.389l0.513,0.177l0.299,0.033
		l0.571,0.147l0.721,0.069l0.182,0.087l0.121,0.126l0.201,0.15l0.147,0.141l0.091,0.147l0.172,0.108l0.401,0.018l0.146-0.072
		l0.183-0.138l0.241-0.141l0.312-0.063l0.278,0.222l0.819,1.378L413,41.893l0.755,0.596l1.76,1.058l0.344,0.3l0.383,0.428
		l0.252,0.404l0.155,0.066l0.395,0.015l0.144,0.126l0.062,0.291l0.032,0.321l0.001,0.011l0.058,0.261l1.385,2.987l-0.069,0.204
		l-0.373,0.321l-0.134,0.249l-0.011,0.554l0.202,0.422l0.982,1.088l0.196,0.132l0.281,0.084l0.501,0.015l0.225,0.099l-0.226,0.464
		l0.167,0.339l0.297,0.306l0.159,0.365l-0.174,0.321h-0.404l-0.467-0.081l-0.36,0.066l-0.199,0.341l0.177,0.264l0.723,0.485
		l0.289,0.386l0.413,1.312l0.649,0.848l0.77,0.422l1.729,0.315l1.765,0.674l0.79-0.024l0.449-0.848l0.332,0.306l0.678,2.019
		l0.14,0.249l0.235,0.195l0.356,0.15l0.165-0.045l0.151-0.15l0.317-0.15l0.105-0.126l0.102-0.186l0.146-0.078l0.241,0.207
		l0.033,0.24l-0.271,0.509l0.04,0.24l0.396,0.213l0.905-0.204l0.479,0.174l0.168,0.27l0.445,1.151l0.522,0.818l0.282,0.303
		l0.401,0.264l0.774,0.273l0.464,0.099l0.346,0.009l0.484-0.273l0.466-0.734l0.437-0.162l0.242,0.521l0.406,0.44l0.55,0.309
		l0.673,0.114l0.321,0.093l0.552,0.408l0.681,0.198l0.15,0.258l0.075,0.321l0.21,0.449l0.044,0.318l0.052,0.132l0.117,0.027
		l0.386-0.054l0.109,0.027l0.091,0.21l0.055,0.243l0.034,0.629l0.056,0.198l0.136,0.234l0.165,0.192l0.454,0.21l-0.14,0.306
		l-0.455,0.551l0.267,0.441l1.075,0.503l0.324,0.506l0.611,0.45l0.224,0.312l0.055,0.288l-0.005,0.306l0.04,0.381l0.305,1.211
		l-0.029,0.554l-0.704,0.417l-0.249,0.441l-0.33,0.959l-0.063,1.121l0.581,0.719l1.874,1.148l0.042,0.108l0.096,0.39l0.042,0.099
		l0.135,0.024l0.319-0.042l0.412,0.048l0.32-0.015l0.351,0.048l0.362,0.231l0.697,0.632l0.297,0.045l0.22-0.321l0.467-0.456
		l0.445-0.054l0.972,0.252l0.184-0.099l0.118-0.767h0.297l0.774,0.869l0.279,0.201l0.27,0.117l0.243,0.156l0.196,0.318l-0.214,1.079
		l0.154,0.402l0.685,0.806l0.168,0.486l-0.064,0.267l-0.291,0.728l-0.04,0.408l0.111,0.456l0.196,0.381l0.503,0.746l0.196,0.543
		l0.159,0.666l0.226,0.608l0.391,0.366l-0.854,1.406l-0.273,0.63l-1.053,0.95l-0.262,0.315l-0.094,0.192l-0.037,0.288l0.06,0.285
		l0.274,0.441l0.06,0.174l0.091,0.144l0.395,0.303l0.091,0.156l0.142,0.866l0.072,0.222l0.476,0.321l1.264,0.315l0.258,0.258
		l0.178,0.618l0.38-0.345l0.343-0.657l0.07-0.312l1.997,1.097l0.094,0.165l0.421,0.369l0.493,1.34l0.276,0.486l0.228,0.183
		l0.268-0.003l1.228-0.246l0.4-0.144l0.346-0.333l0.828-0.294l0.719-0.36l0.484,0.168l0.762,0.543l0.076-0.357l0.141-0.27
		l0.235-0.21l0.358-0.171l0.144,0.207l0.121,0.255l0.082,0.297l0.099,0.759l0.171,0.066l0.481-0.162l0.367-0.342l0.764-1.583
		l0.363-0.468l0.532,0.081l0.509,0.276l1.317,1.064l0.547,0.174l2.972,0.468l0.259,0.225l0.148,0.351l0.385,0.351l0.512,0.273
		l0.538,0.123l0.65-0.054l1.158-0.306l0.674-0.072l0.249-0.078l0.082-0.204l-0.026-0.594l0.15-0.12l0.746-0.153l0.291-0.024
		l1.871,0.432l0.433-0.135l1.278-1.466l0.81-0.702l0.809-0.318l0.944-0.012l1.817,0.258l0.511-0.126l0.357-0.357l0.133-0.645
		l0.213-0.225l1.369-1.061l1.047-1.601l0.141-0.3l0.292-0.021l1.687-1.067l0.632-0.288l0.222,0.156l-0.043,1.022l0.249,0.492
		l0.562-0.09l0.971-0.501l0.685,0.123l0.571,0.342l0.539,0.417l0.599,0.324l1.669,0.345l0.327,0.249l0.141,0.546l0.038,1.211
		l0.201,0.444l0.461,0.222l0.223-0.342l0.286-1.088l0.403-0.414l0.295,0.105l0.508,0.902l0.688,0.873l0.105,0.3l-0.079,0.246
		l-0.4,0.36l-0.115,0.222l0.328,0.606l0.981-0.207l2.073-1.01l0.228,0.399l0.538-0.129l0.605-0.318l0.43-0.168l0.316,0.072
		l0.348,0.258l0.307,0.102l0.313-0.066l0.545-0.426l0.821-0.417l0.554-1.373l0.662-0.312l0.804-0.141l0.38,0.009l0.73,0.438
		l0.362,0.078l0.34-0.039l0.263-0.147l-0.266-0.738l-0.064-0.66l0.306-0.408l0.833,0.021l1.229,0.522l0.727,0.141l0.6-0.267
		l0.88,0.537l1.502,1.601l1,0.657l1.067,0.381l0.538,0.129l0.75,0.096l0.149,0.144l0.069,0.228l0.001,0.842l0.11,0.057l0.914,0.759
		l0.179,0.315l0.038,0.294l-0.001,0.402l0.052,0.357l0.199,0.156h1.195l0.224-0.12l0.025-0.276l-0.024-0.327l0.073-0.27l0.506-0.321
		l0.379,0.24l0.357,0.417l0.449,0.225l0.488,0.063l0.548,0.168l0.508,0.252l0.363,0.309l0.168,0.315l0.102,0.297l0.162,0.246
		l0.34,0.168l0.302-0.024l0.682-0.297l0.321-0.075l0.622-0.006l0.616,0.066l0.366,0.282l-0.136,0.63l-0.142,0.093l-0.494,0.186
		l-0.139,0.135l0.018,0.246l0.139,0.267l0.183,0.213l0.145,0.087l0.71-0.192l0.581-0.354l0.556-0.186l0.636,0.315l0.364,0.537
		l0.408,1.232l0.326,0.519l0.538,0.204l0.482-0.225l0.494-0.141l0.574,0.45l0.085,0.291l-0.01,0.294l0.051,0.255l0.268,0.153
		l0.25-0.066l0.156-0.243l0.13-0.309l0.166-0.267l0.592-0.393l0.314,0.213l0.372,1.277l0.184,0.429l0.241,0.351l0.333,0.261
		l0.161,0.054l-0.005,0.024l-0.65,1.032l-2.274,3.551l-2.274,3.549l-2.273,3.555l-2.274,3.553l-2.274,3.553l-2.274,3.556
		l-2.272,3.551l-2.274,3.554l-0.973,1.522l1.26,0.138l3.933,2.066l0.309,0.213l1.548,0.384l0.772,0.009l0.746-0.321l1.139-1.042
		l0.624-0.378l0.815-0.087l1.115,0.39l1.088,0.793l0.947,0.997l0.693,0.991l0.359,1.021l0.163,1.042l0.306,0.958l0.774,0.775
		l2.934,1.499l0.87,0.709l0.588,0.685l0.506,0.748l0.806,1.616l0.069,0.808l-0.268,0.775l-0.509,0.688l-0.971,0.706l-0.41,0.057
		l-0.404-0.105l-0.359-0.255l-0.356-0.357l-0.159-0.213l-0.135-0.724l-0.315-0.529l-0.577-0.216l-0.648,0.063l-0.532,0.282
		l-0.377,0.532l-0.472,1.1l-0.553,0.484l-0.322-0.409l-0.231-0.46l-0.191-0.273l-0.228-0.054l-0.255,0.009l-0.279-0.084
		l-1.432-1.133l-0.282-0.384l-0.049-0.526l0.262-1.096l-0.051-0.592l-0.22-0.423l-0.345-0.382l-0.361-0.108l-0.533,0.835
		l-0.355-0.105l-0.724-0.646l-0.483-0.195l-0.423-0.042l-0.414,0.093l-0.458,0.21l-1.185,0.952l-0.437,0.144l-0.302-0.183
		l-0.087-0.426l-0.137-0.424l-0.452-0.177l-0.462,0.237l-0.194,0.496l-0.123,0.523l-0.252,0.309l-1.37-0.805l-0.019-0.436
		l0.104-0.535l-0.043-0.421l-0.455-0.096l-0.467,0.189l-0.265,0.327l-0.32,0.883l-0.318,0.246l-0.524-0.012l-1.801-0.49
		l-0.299,0.036l-1.382,0.673l-0.375,0.336l-0.091,0.39l0.246,0.706l-0.085,0.273l-0.449,0.15l-0.448,0.216l-0.215,0.432l-0.158,0.52
		l-0.285,0.475l-0.868,0.847l-0.362,0.469l-0.268,0.556l-0.597,0.613l-0.61-0.556l-0.456-0.541l-0.131,0.646l-0.561,0.466
		l-1.514-0.631l-0.709,0.282l-0.392,0.655l-0.259,0.159l-0.452-0.075l-0.243-0.219l-0.309-0.658l-0.19-0.183l-0.478,0.273
		l-0.421,0.682l-0.388,0.442l-0.8-0.895l-0.671-0.132l-0.686,0.153l-0.467,0.412l-0.076,0.346l0.061,0.285l-0.008,0.303
		l-0.283,0.376l-0.096-0.018l-0.163-0.081l-0.193-0.042l-0.181,0.093l-0.258,0.342l-0.106,0.099l-0.397,0.165l-0.229-0.174
		l-0.187-0.307l-0.271-0.225l-0.4-0.045l-1.339,0.201l-0.882,0.009l-0.433,0.063l-0.4,0.168l-0.195,0.249l-0.18,0.64l-0.16,0.174
		l-0.225-0.015l-0.731-0.153l-0.406,0.039l-1.321,0.571l0.108-0.613l-0.292,0.087l-0.589,0.583l-0.368,0.129l-0.252,0.024
		l-0.228-0.114l-0.298-0.295l-0.463-0.346l-0.3,0.09l-0.331,0.234l-0.554,0.081l-0.327-0.102l-0.664-0.307l-0.304-0.03l-0.238,0.12
		l-0.078,0.189l-0.036,0.198l-0.106,0.129l-0.202,0.06l-2.392,0.268l-0.494,0.138l-0.752,0.532l-1.366,1.325l-0.857,0.27
		l-0.473,0.409l-0.271,0.18l-0.234,0.057l-0.289-0.105l-0.265-0.132l-0.244-0.015l-0.22,0.24l-0.518,1.058l-0.331,0.421l-0.553,0.46
		l-1.604,0.89l-1.469,1.097l-0.52,0.304l-0.529,0.177l-0.379,0.015l-1.085-0.153l-0.352,0.09l-0.142,0.192l-0.075,0.216
		l-0.153,0.153l-1.2,0.331l-0.312,0.34l-0.211,1.587l-0.306,0.469l-0.476,0.334l-0.623,0.331l-0.156,0.036l-0.4,0.009l-0.136,0.051
		l-0.087,0.162l-0.014,0.177l0.008,0.159l-0.029,0.108l-0.151,0.268l-0.088,0.251l-0.18,0.168l-0.424,0.015l-0.544,0.078
		l-0.52,0.234l-0.457,0.349l-0.707,0.77l-0.804,0.379l-0.375,0.37l-0.126,0.313l-0.024,0.28l-0.076,0.262l-0.282,0.256l-0.273,0.075
		h-1.559l-0.604-0.171l-0.544-0.063l-0.365,0.28l-0.37,0.478l-0.503,0.223l-1.183,0.229l-0.151-0.012l-0.367-0.12l-0.144,0.012
		l-0.088,0.147l-0.02,0.424l-0.036,0.114l-0.403,0.22l-0.228,0.048l-0.38,0.018l-0.699,0.18l-0.117,0.43l0.204,0.511l0.271,0.427
		l0.153,0.451l0.157,1.778l-0.051,0.463l-0.253,0.409l-0.315,0.391l-0.225,0.421l-0.189,1.249l-0.124,0.457l-0.852,1.793
		l-0.27,0.942l0.127,0.963l0.255,0.933l-0.004,0.816l-0.476,2.694l-0.298,0.855l-0.41,0.807l-3.023,4.026l-0.996,0.919l-1.655,3.687
		l-0.631,1.027l-0.461,1.088l-0.015,1.344l0.27,0.708l1.401,1.588l0.163,0.503l0.304,2.336l0.169,0.669l0.635,1.323l0.198,0.678
		l-0.001,0.633l-0.138,0.648l-0.464,1.194l-0.686,1.203l-0.797,0.823l-1.004,0.537l-1.302,0.341l-2.049,0.021l-0.623,0.217
		l-1.032,0.926l-1.134,0.7l-1.965,1.698l-2.338,1.348l-1.454,1.168l-0.809,0.489l-0.38,0.326l-0.344,0.739l-0.285,0.362
		l-1.212,0.757l-0.314,0.347l-0.176,0.489l-0.064,1.608l-0.711,2.65l-0.415,0.824l-0.167,0.721l0.162,0.437l0.093,0.251l2,2.88
		l0.29,1.241l0.245,0.55l0.087,0.535l-0.338,0.589l-0.479,0.281l-0.565,0.088l-1.145-0.051l-0.742,0.051l-0.509,0.166l-1.053,0.64
		l-0.646,0.245l-0.535-0.036l-1.177-0.459h-0.633l0.1,0.529l0.837,1.423l0.18,0.746l-0.161,0.48l-0.229,0.444l-0.027,0.632
		l-0.368,0.644l-0.379,0.159l-0.985,0.413l0.255,0.514l1.168,0.689l3.785,3.975l0.801,0.547l0.914,0.399l1.083,0.326l0.872,0.705
		l0.279,1.161l-0.324,1.125l-0.939,0.59l-0.971-0.351l-0.436-0.009l-0.033,0.529l0.314,1.409l0.178,0.402l0.879,0.668l1.234,0.493
		l1.098,0.584l0.475,0.944l0.201,0.654l0.953,1.295l0.312,0.69l0.016,0.566l-0.163,1.093l0.084,0.551l0.367,0.678l0.837,1.111
		l0.261,0.775l0.146,1.202l0.198,0.554l0.414,0.391l2.298,1.281l0.312,0.267l0.472,0.615l0.291,0.272l0.282,0.115l0.611,0.073
		l0.258,0.097l0.409,0.427l0.207,0.536l0.03,0.594l-0.273,1.309l0.02,0.551l0.186,0.485l1.231,1.609l0.529,0.506l0.601,0.327
		l1.685,0.361l0.551,0.291l0.505,0.494l0.322,0.555l0.511,1.249l2.238,3.271l0.43,0.361l1.075,0.716l0.378,0.403l0.8,1.21
		l0.175,0.485l0.309,2.457l-0.124,0.877l-0.241,0.555l-0.301,0.373l-1.318,1.056l-0.02,0.807l-0.169,0.352l-0.393,0.228l-0.472,0.13
		l-0.412,0.061l-0.343,0.215l-0.318,0.464l-0.475,0.938l-0.674,0.908l-1.528,1.551l-0.622,0.981l11.643,0.055l3.524,0.711
		l0.142,0.07l0.255,0.222l0.166,0.049l0.13-0.039l0.231-0.161l0.112-0.024l0.563,0.115l1.173,0.371l1.206,0.601l0.545,0.164
		l1.3,0.143l1.755-0.124l0.601,0.121l0.559,0.298l0.804,0.711l0.52,0.358l0.291,0.034l0.336-0.055l0.298,0.012l0.171,0.246
		l0.033,0.286l-0.037,0.863l0.081,0.614l0.268,0.489l0.789,0.942l0.174,0.526l-0.1,0.562l-0.345,1.109l0.342,1.116l2.043,1.283
		l0.605,1.177l0.079,0.325l0.238,0.599l0.072,0.307l-0.066,0.365l-0.454,0.547l-0.162,0.304l-0.046,0.608l0.058,0.511l-0.031,0.517
		l-0.32,0.617l1.556,0.003l5.169,0.006l5.168,0.006l5.169,0.012l5.169,0.006l1.08,0.003l0.523-0.134l0.283-0.228l0.117-0.225
		l0.16-0.164l0.418-0.046l0.31,0.107l0.21,0.18l0.24,0.14l0.398-0.024l0.562-0.292l1.02-0.806l1.409-0.477l0.388-0.566l0.267-0.687
		l0.373-0.639l0.487-0.368l1.936-0.861l1.798-0.48l0.528-0.41l0.222-0.337l0.347-0.745l0.248-0.35l0.336-0.28l0.751-0.459
		l0.327-0.283l0.831-1.222l0.467-0.532l1.458-0.79l0.574-0.459l1.09-1.121l0.595-0.45l1.926-1.085l0.544-0.544l1.013-1.251
		l0.601-0.522l0.565-0.273l0.577-0.125l1.217-0.128l0.036,0.383l-0.047,0.082l-0.299,0.519l-0.076,0.486l-0.144,0.368l-0.541,0.243
		l0.062,0.094l0.076,0.225l0.06,0.1l-0.369,0.094l-0.24,0.292l-0.055,0.374l0.392,0.693l-0.271,0.07l-0.393-0.064l-0.151-0.055
		l-0.77,0.021l-0.151,0.039l0.282,0.538l0.214,0.96l0.188,0.544l0.324,0.441l0.852,0.678l0.336,0.422l0.196,0.605l-0.045,0.55
		l-0.227,0.504l-0.351,0.489l-0.096,0.185l-0.072,0.356l-0.145,0.17l-0.156,0.021l-0.305-0.195h-0.15l-0.296,0.176l-0.279,0.213
		l-0.236,0.258l-0.168,0.31l-0.273,1.183l-0.003,1.761l-0.003,1.302l-0.006,2.442l-0.009,3.749l-0.009,3.75l-0.01,3.752l-0.01,3.75
		l-0.009,3.755l-0.01,3.753l-0.008,3.755l-0.006,2.389l2.486-2.008l0.622-0.137l0.78,0.684l1.296,1.553l0.731,0.674l1.332,0.659
		l1.457,0.241l1.496-0.073l1.447-0.284l1.181-0.412l7.033-3.598l1.215,0.061l0.553,0.162l0.563,0.034l1.177-0.079l0.776,0.055
		l0.5,0.21l1.091,0.708l0.963,0.195l3.593-0.381l0.539,0.009l0.105,0.183l0.102,0.18l0.106,0.18l0.103,0.183l0.103,0.183
		l0.105,0.186l0.105,0.183l0.103,0.18l3.026,5.345l3.021,5.352l3.026,5.358l3.025,5.359l3.023,5.362l3.026,5.366l3.023,5.369
		l3.024,5.373l0.718,1.28l0.151,0.269l-0.294,0.129l-0.169,0.273l-0.175,0.592l-0.24,0.451l-0.334,0.439l-0.412,0.374l-0.865,0.47
		l-0.399,0.338l-0.276,0.43l-0.034,0.485l0.269,0.279l0.938,0.261l0.291,0.329l-0.672,1.33l-0.22,0.264l-2.391,0.654l-0.59,0.402
		l-0.447,0.617l-0.366,0.839l-0.637-0.089l-0.351,0.556l-0.31,0.719l-0.914,0.716l-0.163,0.67l0.01,1.275l0.356,2.927l0.052,0.428
		l-0.218,3.525l0.076,1.202l0.413,2.342l-0.338,5.817l0.107,0.675l-0.176,0.739l-0.256,0.715l-0.249,0.382l-0.613,0.669
		l-0.226,0.342l-0.067,0.41l0.056,0.376l-0.007,0.348l-0.255,0.327l-0.33,0.062l-0.884-0.16l-0.378,0.037l-0.406,0.678l0.595,0.86
		l1.565,1.277l0.321,0.444v0.342l-0.141,0.352l-0.1,0.481l0.034,0.404l0.375,1.145l0.497,0.759l0.11,1.012l0.004,1.086l0.176,0.96
		l0.384,0.546l1.552,1.028l0.302,0.429l0.168,0.463l0.181,1.028l0.72,2.002l0.129,1.047l-0.559,0.606l-1.959,0.253l-0.974,0.25
		l-0.732,0.525l-0.161,0.516l-0.044,0.578l0.031,1.156l0.228,0.535l0.397,0.597l0.127,0.6l-0.577,0.541l-1.883,1.058l-0.563,0.418
		l-1.144,1.327l-0.207,0.102l-0.494,0.13l-0.176,0.136l-0.091,0.517l0.085,1.38l-0.171,0.334l-0.633-0.018l-0.658-0.139
		l-0.571,0.059l-0.372,0.582l-0.183,3.84l-0.4,0.864l-0.461,0.27l-1.609,0.452l-0.649,0.397l-0.264,0.406l-0.042,0.514l0.123,2.455
		l-0.061,0.233l-0.475,1.125l-0.129,0.558l0.184,0.521l0.623,0.586l0.485,0.456l1.667,2.566l0.475,0.487l1.725,1.294l0.469,0.459
		l0.717,1.027l0.686,0.677l-0.067,0.549l-0.455,0.37l-0.684-0.047l-0.562,0.037l-0.39,1.158l-0.965,0.336l-0.559,0.509l-0.463,0.618
		l-0.168,0.485l0.335,0.895l-0.015,0.261l-0.203,0.134l-0.792,0.27l-0.293,0.162l-0.378,0.541l-0.148,0.591l-0.075,0.603
		l-0.154,0.587l-1.878,2.858l-0.256,0.899l0.165,0.902l0.351,0.89l1.235,3.106l1.231,3.105l1.234,3.106l1.231,3.111l0.652,1.647
		l1.008,1.276l0.539,0.465l0.625,0.393l0.692,0.234h0.743l0.327-0.14l0.562-0.437l0.318-0.112l0.314,0.028l0.944,0.296l0.815-0.275
		l0.653,0.403l1.181,1.307l1.51,0.612l0.667,0.456l0.294,0.815l-0.648,1.033l-3.262,1.305l-0.967,0.497l-0.758,0.946l-0.259,0.525
		l-0.06,0.616l0.036,1.765l-0.072,0.941l0.145,0.503l0.777,1.094l-0.353,0.463l-0.48,0.629l-0.485,0.366l-1.688,0.882l-0.537,0.131
		l-1.037,0.1l-0.464,0.291l-0.27,0.432l-0.551,1.636l-0.4,0.642l-2.942,3.149l-0.768,1.682l-0.344,0.407l-1.242,0.742l-0.186,0.201
		l-0.086,0.295l0.094,0.175l0.211,0.094l0.138,0.191l-0.138,0.479l-0.621,0.724l-0.774,0.295l-0.831,0.157l-0.791,0.313
		l-0.896,0.611l-1.567,1.439l-0.177,0.056l-0.499,0.082l-0.129,0.041l-0.32,0.659l-0.452,1.684l-0.495,0.775l0.06,0.008l1.49,0.199
		l0.456,0.163l1.169,0.941l0.575,0.596l0.42,0.546l0.325,0.898l0.088,1.074l-0.051,2.17L559.444,544.68z M365.672,446.923
		l0.181,0.341l0.091,0.25l0.295,0.159l-0.114,0.204l-0.341-0.068l-0.454-0.341l-0.386-0.205l0-0.341l0.227-0.113L365.672,446.923z
		 M358.471,433.991l0.202,0.091l-0.002,0.316l-0.136,0.293l-0.269,0.067l-0.316,0l-0.25-0.068l0.074-0.361l0.249-0.247l0.067-0.315
		l0.314,0.023L358.471,433.991z M335.6,381.494l1.127,1.026l0.247,0.277l0.109,0.194l-0.303-0.084l-0.359,0.054l-0.385-0.278
		l-0.55-0.361l-0.329-0.47l-0.163-0.415l0.277-0.137L335.6,381.494z M230.954,214.515l-0.165,0.214l-0.196,0.484l0.157,0.408
		l0.24,0.274l0.022,0.352l-0.034,0.486l0.074,0.515l-0.325,0.049l-0.378-0.032l-0.104-0.272l0.112-0.296l-0.102-0.461l-0.24-0.219
		l0.219-0.24l0.087-0.431l0.339-1.022L230.954,214.515z"/>
</g>
<g id="Copyright">
	<text transform="matrix(1 0 0 1 681.6426 577.5916)" class="st1 st2">© Vemaps.com</text>
</g>
</svg>
