<?xml version="1.0" encoding="utf-8"?>
<!-- Generator: Adobe Illustrator 23.0.1, SVG Export Plug-In . SVG Version: 6.00 Build 0)  -->
<svg version="1.1" xmlns="http://www.w3.org/2000/svg" xmlns:xlink="http://www.w3.org/1999/xlink" x="0px" y="0px"
	 viewBox="0 0 800 600" style="enable-background:new 0 0 800 600;" xml:space="preserve">
<style type="text/css">
	.st0{fill:#808080;}
	.st1{font-family:'Roboto-Regular';}
	.st2{font-size:14px;}
</style>
<g id="Papua_New_Guinea">
	<path class="st0" d="M36.131,107.617l0.629-0.036l1.004,0.411l1.721-0.901l1.876,0.223l1.964,0.646l2,0.367h1.522l0.61,0.223
		l0.41,0.271l0.319,0.271l0.335,0.211l0.562,0.124l1.255,0.056l0.55,0.183l0.227,0.307l0.506,1.033l0.263,0.331l0.645-0.251
		l1.41,1.495l1.107,0.431l1.052,0.144l9.488,3.944l11.018,5.197l1.542,0.287l0.163,0.363l0.016,0.487l0.207,0.487l2.191,1.5
		l0.984,0.168l1.836-0.347l2.788-0.203l0.51,0.215l2.669,2.381l0.263,0.467l-0.107,0.419l-0.227,0.55l-0.155,0.574l0.124,0.499
		l0.335,0.096l1.251,0.1l0.454,0.14l1.613-0.558l1.072,0.511l1.103,0.694l1.076,0.359l1.111,0.096l0.733,0.243l1.37,0.658
		l6.126,1.795l5.25,2.529l5.561,1.715l9.628,2.936l1.087,0.12l0.562,0.136l1.625,0.87l0.641,0.088l0.697,0.02l0.657,0.096
		l1.422,0.834l3.931,1.005l1.107,0.024l1.625-0.144l0.844-0.072l0.797,0.192l0.335-0.367l0.821,0.335l3.374,0.335l0.466,0.156
		l0.92,0.694l0.621,0.156l0.598,0.036l10.448,1.844l2.207,0.754l0.853,0.575l2.816,2.813l0.49,1.369l0.203,0.335l0.323,0.247
		l0.773,0.323l0.398,0.251l0.406,0.204l1.446,0.467l0.191,0.2l0.434-0.208l0.713-0.507l0.283,0.012l0.327,0.112l0.104,0.307
		l-0.378,0.603l0.454,0.619l0.506,0.427l0.665,0.247l1.745,0.14l0.932,0.212l0.761,0.359l1.816,2.866l0.613,0.443l2.02,0.91
		l0.721,0.172l1.147,0.547l2.386,3.473l1.255,0.483l1.625,0.096l3.191-0.216l0.514,0.072l0.562-0.088l1.231,0.016l-0.406,0.403
		l-0.47,0.24l-0.546,0.084l-0.578-0.06l0.374,0.579l0.442,0.295l0.478,0.228l0.526,0.395l0.761,0.323l1.211-0.659l0.717,0.335
		l0.37,0.711l0.243,0.335l0.39,0.14l0.534-0.048l0.12-0.132v-0.208l0.183-0.284l0.466-0.507l0.43-0.671l0.227-0.667l-0.127-0.503
		l1.649-0.435l2.207-0.02l2.207,0.291l1.653,0.499l0.641-0.116l2.533,0.104l0.721,0.18l0.665,0.671l0.558,0.739l0.414,0.83
		l0.215,0.974v4.188l0.319,0.539l0.741,0.567l0.43,0.236l0.458,0.244l0.721,0.287l6.094,0.954l1.928,0.719l1.291,1.13l0.86,0.595
		l1.474,0.407l1.179,0.739l0.243,0.268l0.052,0.156l0.112,0.088l0.119,0.152l0.048,0.296l-0.127,0.327l-0.621,0.272l-0.223,0.264
		l-0.024,0.583l0.283,0.655l0.609,0.519l2.175,0.391l0.848,0.447l1.458,1.43l1.087,0.687l0.247,0.312l-0.008,1.781l0.175,0.264
		l0.709,0.407l1.8,2.612l1.314,0.723l5.067,1.65l1.952-0.02l2.103-0.503l2.091-0.24l1.9,0.763l2.008,2.517l3.003,2.509l1.765,2.05
		l0.41,0.763l1.036,1.395l0.466,0.3l0.406-0.016l0.347-0.12l0.279,0.016l0.761,0.851l1.04,2.306l5.342,5.991l0.761,0.667
		l0.916,0.376l0.773,0.516l0.167,0.212l1.665,0.484l0.438,0.46l0.725,0.931l0.51,0.911l-0.147,0.408l-0.562,0.452l-0.347,1.047
		l-0.283,2.223l0.044,1.16l0.502,2.015l0.123,1l0.112,0.284l0.454,0.676l0.104,0.416l-0.052,0.416l-0.358,0.56l-0.259,0.548
		l0.04,0.132l-0.12,1.76l-0.211,1.088L271.9,233.2l0.072,2.088l-0.084,0.9l-0.319,0.908l-1.749,2.476l-0.251,1.06l0.056,0.4
		l0.223,0.748l0.048,0.548l-0.12,0.608l-0.876,1.576l-0.128,1.584l0.542,1.536l1.036,1.145l1.382,0.464l2.968-0.524l1.171,0.312
		l0.713,1.549h0.335l0.072-0.348l0.211-0.612l0.052-0.376l0.335,0.112l0.143,0.072l0.191,0.144l0.594-0.696l0.721-0.144l0.741-0.064
		l0.645-0.464l0.864,0.876l0.832,0.312l0.896,0.236l1.087,0.624l0.37-0.32l0.239-0.04l0.183,0.136l0.211,0.224l0.526-0.024
		l1.661,0.752l0.848,0.272l1.195-0.032l0.57,0.12l0.243,0.416l0.227,0.588l0.55,0.18l1.227,0.072l0.936,0.444l0.526,0.164
		l0.88-0.248l0.47,0.296l0.466,0.44l0.43,0.28l0.514,0.008l1.016-0.296l0.649-0.08l0.582,0.012l0.374,0.092l0.904,0.568l0.335,0.228
		l0.426,0.36l0.53,0.164l0.649-0.056h-0.303l1.076-0.008l0.956-0.196l0.908,0.024l0.92,0.672l0.243,0.468l0.187,0.488l0.311,0.384
		l1.175,0.256l0.582,0.256l6.158,4.844l3.25,0.873l1.673,1.009l1.115,0.248l0.414,0.264l0.243,0.905l0.227,0.857l0.721,0.244
		l0.884-0.22l0.769-0.284l1.123-0.156l0.86,0.152l0.749,0.244l0.777,0.124l0.717,0.308l0.394,0.733l0.303,0.889l0.426,0.761
		l2.545,1.678l0.39,0.048l0.494,0.116l0.43,0.168l0.37,0.365l0.43-0.196l0.689-0.501l0.534-0.024l0.307,0.1l0.55,0.597l0.641,1.033
		l0.482,0.485l0.215-0.32l0.586-0.236l4.517,0.549h0.454l0.462-0.136l0.578-0.436l0.454-0.573l0.49-0.489l0.693-0.212l0.43,0.108
		l1.227,0.565l0.327-0.024l0.108-0.084l0.06-0.156l0.175-0.24l0.343-0.196l0.239,0.076l0.255,0.288l2.418,0.869l2.251,0.284
		l0.856,0.384l0.665,0.533l0.554,0.621l0.195,0.1l0.582,0.136l0.199,0.128l0.112,0.26l0.084,0.509l0.108,0.24l0.335,0.336
		l1.33,0.641l3.434,3.249l1.307,2.332l0.49,0.529l0.793,0.469l0.474,1.114l0.382,1.326l0.538,0.765l1.131,1.619l3.649,1.848
		l1.267,1.262l0.179,0.681l-0.072,0.449l-0.139,0.401l0.032,0.549l0.323,0.637l0.45,0.497l0.39,0.553l0.279,1.371l0.458,1.155
		l0.1,0.649l-0.159,0.433l-0.287,0.357l-0.155,0.413l0.267,0.633l-0.526,0.649l0.068,0.73l0.287,0.834l0.171,1.026l-0.151,0.225
		l-0.689,0.457l-0.155,0.144l0.084,0.609l0.239,0.329l0.323,0.036l0.35-0.301l-0.327,4.002l-3.836,1.323l-8.592,0.457l-0.47,0.293
		l-0.856,0.794l-0.378,0.229l-0.542-0.024l-0.538-0.225l-0.53-0.148l-0.546,0.229l-0.888,0.225l-3.274-1.067l-1.123,0.008
		l-2.016,0.529l-1.052,0.136l-7.624-0.417l-0.609,0.08l-0.275-0.493l-0.367-0.381l-0.47-0.281l-0.59-0.193l-0.761-0.088
		l-2.414,0.088l-0.657,0.208l-1.219,0.931l-0.813,0.208l-1.637-0.072l-0.837,0.084l-0.717,0.325l-0.072,1.187l-0.745,2.062
		l-0.187,1.123l0.052,2.375l0.311,2.339l0.327,1.152l1.605,1.991l1.048,0.955l0.51,0.646l0.311,0.237l0.546,0.128l0.386-0.08
		l0.653-0.618l0.633-0.313l-0.072,0.666l-0.251,0.51l-0.263,0.43l-0.112,0.389l0.104,0.614l0.438,0.807l0.155,0.626l-0.072,0.626
		l-0.354,1.168l0.064,0.594l0.195,0.068l2.529,1.963l0.566,0.618l0.442,0.719l0.171,1.04l-0.195,2.333l0.331,0.671l0.243,0.538
		l-0.155,0.233l-0.271,0.197l-0.124,0.41l0.275,0.478l0.366,0.871l0.231,1.506l0.131,0.482l0.793,1.269l0.211,0.45l0.291,0.209
		l0.231,0.201l0.147,0.233l-0.06,0.281l-0.263,0.153l-0.275,0.096l-0.072,0.145l0.299,0.518l0.215,0.028l0.295-0.072l0.526,0.233
		l0.231,0.362l-0.036,0.313l0.12,0.225l0.689,0.112l0.219-0.137l0.813-0.876h0.311l0.287,0.241l0.227,0.249l0.04,0.261l-0.223,0.261
		l2.956,0.715l1.458,0.687l0.633,1.137l0.187,0.506l0.438,0.249l0.522,0.096l0.394,0.008l0.729,0.121l0.454,0.317l0.394,0.422
		l0.581,0.458l-0.402,0.45l0.283,0.117l0.59,0.012l0.502,0.129l1.195,0.965l0.566,0.627l0.247,0.583l-0.032,1.853l0.474,0.458
		l2.653,0.418l0.693,0.378l0.227,0.728l0.024,1.266l0.342,1.025l0.649,0.796l0.402,0.776l-0.39,0.981l2.366-0.338v-0.37
		l-0.454-0.209l-0.347-0.338l-0.191-0.482l-0.012-0.659l1.322,1.025l1.056,1.086l0.705,1.423l0.394,3.181l0.394,0.824l0.633,0.567
		l0.872,0.354l0.797,0.072l1.486-0.346l1.064-0.056l0.295,0.161l0.287,0.281l0.362,0.101l0.562-0.382l0.462-0.197l0.574,0.048
		l0.566,0.217l2.302,1.693l1.079,0.551l1.064,0.221l0.374,0.475l0.12,0.366l0.582,1.846l0.454,0.688l0.956,0.117l1.016-0.241
		l0.86-0.092l0.478,0.583l0.538-0.282l0.562-0.064l1.243-0.02l0.259-0.165l0.769-0.294l0.554-0.02l-0.398,0.668l-0.032,0.801
		l1.012,4.494l0.717,1.135l0.263,1.433l0.896,1.803l0.394,1.135l0.303,1.409l0.032,1.409l-0.422,1.139l1.366,3.044l0.263,1.107
		l-0.096,0.87l-0.502,1.768l-0.052,0.93l0.088,1.051l0.239,0.979l0.394,0.725l0.785,0.572l1.745,0.842l0.478,0.649l1.131-0.371
		l0.964,0.282l0.801,0.504l0.641,0.262l0.367,0.097l0.382,0.266l0.303,0.379l0.124,0.443l0.267,0.33l1.765,0.544l0.418,0.423
		l0.55,1.265l0.502,0.733l0.701,0.77l0.279,0.822l-0.112,3.422l0.578,3.302l0.275,0.448l0.442,0.073l0.394,0.194l0.275,0.266
		l0.1,0.302l-0.056,0.319l-0.271,0.468l-0.064,0.242l0.096,0.29l0.438,0.581l0.135,0.347l0.458,1.988l0.857,1.892l1.291,1.565
		l1.737,0.976l4.246,0.775l1.729-0.056l0.741,0.27l0.446-0.182l2.075-0.496l0.809-0.044l0.637-0.129l0.542-0.214l1.02-0.593
		l0.55-0.427l0.446-0.524l0.183-0.573l0.382,0.157l0.892,0.077l1.012-0.077l0.757-0.327l1.004,0.762l1.33-0.085l3.127-0.726
		l0.283-0.113l0.219-0.165l0.084-0.169l0.108-0.48l0.263-0.178l0.335-0.064l0.299-0.137l0.773-0.895l0.51-0.452l0.689-0.347
		l0.574,1.44l4.41-0.319l1.063,0.911l0.502-0.274l0.426-0.077l0.295,0.189l0.116,0.532h0.335l0.478-0.298l0.426,0.274l0.311,0.565
		l0.12,0.601l-0.116,0.69l-0.275,0.565l-0.61,0.924l0.263,0.141l0.187,0.125l0.219,0.085l0.331,0.024l-0.785,0.266l-0.406,0.057
		l-0.478-0.02l0.681,0.682l0.884,0.137l0.613,0.234l-0.147,1.009l-0.526,0.759l-0.801,0.597l-0.896,0.262l-0.813-0.262l-0.37,0.476
		l-0.821,1.485l-0.147,0.597l-0.108,1.069l-0.454,1.651l-0.108,1.013l-0.37,0.819l-1.625,1.385l-0.371,1.199l0.215,1.122
		l0.936,1.918l0.211,1.062l0.777,1.785l1.793,0.832l3.477,0.61l1.311,0.678l0.279,0.242l0.514,0.582l0.239,0.194l0.227,0.044
		l0.558-0.089l0.219,0.044l0.621,0.594l0.048,0.085l1.697,0.679l-0.466,0.654l0.773,0.182l0.203-0.004l3.9-0.044l0.94,0.194
		l2.92,1.18l0.765-0.073l0.86-0.582l0.478-0.202l0.502,0.077l0.697,0.279l0.498-0.097l1.171-0.448l0.466-0.097l1.115,0.145
		l1.92,0.683l2.302,0.283l2.374,0.921l1.115,0.065l3.111-0.436l1.279,0.137l0.55,0.404l0.693,1.527l0.39,0.299l0.374,0.065
		l0.335,0.21l0.231,0.776l0.116,0.74l-0.06,0.146l-0.343-0.044l-0.745,0.178l-2.649,1.374l-0.96,0.356l-3.438,0.679l-1.892,0.59
		l-1.147,0.105l-0.968-0.388l-0.637,0.594l-2.302,0.679l-0.765,0.416l-0.49,1.059l0.215,0.853l1.303,1.548l3.585,2.915l1.541,1.864
		l-0.107,1.974l1.235,0.093l0.785,0.319l1.518,1.513l0.621,0.437l0.884,0.376l0.968,0.271l0.884,0.105l2.82-0.146l1.04,0.146
		l0.956,0.299l1.709,1.044l0.355,0.073l0.677-0.057l0.446-0.138l0.9-0.445l0.502-0.097l0.454,0.194l0.35,0.453l0.526,0.866
		l1.546,0.478l0.362,0.219l0.765,1.032l0.904,0.773l0.649,0.364l1.96,0.372l2.011,0.737l1.076,0.227l0.952-0.283l0.315,0.097
		l0.57,0.032l0.546-0.073l0.243-0.227l2.031,0.482l1.223,0.486l0.526-0.077l0.761-0.567l0.43-0.085l2.075,0.243l-0.263,0.376
		l-0.641,0.704l-0.1,0.308l0.315,0.502l1.111,0.745l0.247,0.64l0.578,0.267l1.302-0.17l3.163-0.785l3.187-0.154l0.741-0.251
		l1.466-1.162l0.956-0.312l1.267,0.186l-0.131,0.599l-0.908,0.648l-1.984,0.494l-6.043,3.271l-1.749,0.648l-1.844,0.3l-0.829-0.008
		l-0.271-0.105l-0.239-0.227l-0.964,0.089l-2.211-0.895l-1.024-0.243l-2.047-0.134l-0.964-0.251l-0.685-0.437l-1.315,0.008
		l-1.637,1.328l-0.956,1.911l0.713,1.709l0.239,0.024l0.08-0.057l0.044-0.336l0.713,0.389l2.227,0.109l0.908,0.365l0.402,0.243
		l0.53,0.158l1.629,0.247l0.494,0.292l0.789,0.604l5.935,1.811l1.143,0.94l0.335,1.702l0.574,0.81l0.179,0.519l-0.271,0.539
		l-0.757,0.462l-5.935,2.192l-0.534-0.272l-0.183-0.134l-1.306,0.304l-0.705,0.028l-0.386,0.113l-0.765,0.539l-0.088,0.207
		l-0.478,0.592l-0.526,0.49l-0.243-0.073l-0.147,0.182l-0.307,0.255l-0.259,0.426l0.016,0.669l-0.693-0.288l-0.856-0.041
		l-0.833,0.122l-0.601,0.207l-0.609-1.131l-0.801-0.357l-1.016,0.211l-2.271,1.18l-0.012,0.097l-0.335-0.097l-0.426-0.207
		l-0.303-0.231l0.032-0.142l-0.522,0.195l-0.498,0.316l-0.956,0.847l-0.339-0.414l-1.159-0.79l-0.132-0.324l0.191-0.3l0.287-0.336
		l0.155-0.401l-0.526-0.328l-1.171,0.195l-1.243,0.474l-0.741,0.499l-0.801-1.074l-0.235-0.259l-0.478-0.211l-0.195,0.122
		l-0.191,0.162l-0.466-0.073l-0.645-0.802l-0.366-0.247l-0.327-0.024l-0.406,0.053l-0.466-0.04l-0.498-0.328l0.908-0.596
		l-0.104-0.559l-0.498-0.535l-0.307-0.523l-0.159-0.191l-0.335,0.458l-0.478,0.924l-0.414,0.012l-0.438-0.162l-0.785-0.531
		l0.108-0.215l0.167-0.831l-0.518,0.458l-0.151,0.247h-0.343l-0.291-0.458l-0.617-0.393l-1.426-0.51l0.335,0.656l-0.159,0.053
		h-0.128l-0.06,0.065l0.012,0.251l-0.47-0.276l-0.486-0.203l-0.514-0.134l-0.562-0.073l0.562-0.579l0.765-0.247l0.609-0.34
		l0.096-0.899l-0.271,0.134l-0.701,0.207l0.199-0.377l0.295-0.284l0.366-0.203l0.446-0.13l0.335,0.551l0.526,0.049l1.314-0.288
		l2.187,0.587l2.259-0.705l0.422-0.195l0.112-0.284l0.111-0.839l0.112-0.267l0.283-0.121l1.087-0.219l-0.637-0.271l-0.661-0.045
		l-0.677,0.028l-0.725-0.049l-0.514-0.223l-1.004-0.66l-1.048-0.194l-0.578-0.259l-0.362-0.053l-0.199,0.109l-0.319,0.486
		l-0.191,0.109l-0.088,0.336l-0.12,0.753l-0.215,0.802l-0.406,0.49l-0.371-0.328l-0.203-0.34l-0.084-0.389l-0.012-0.474
		l-0.088-0.389l-0.199-0.17l-0.223-0.109l-0.159-0.182l-0.418-1.227l-0.275-0.474l-0.478-0.514l-1.291-0.802l-2.701-0.842
		l-1.036-0.737l-1.028-0.494l-1.625-0.17l-3.207,0.138l-1.645,0.36l-0.9,0.073l-1.227-0.441l-0.518,0.348l-0.605,0.308l-0.817-0.308
		l-0.335,0.372l0.669,0.304v0.34h-1.518l-0.394-0.182l-0.147-0.883l-0.319-0.292l-0.534,0.105l-0.434,0.397l-0.53,0.227
		l-0.837-0.389l0.55-0.348l0.008-0.332l-0.382-0.243l-1.235-0.247l-0.151-0.368l-0.032-0.494l-0.259-0.518l-2.175-0.85l-0.633,0.283
		l-0.908,0.988l-0.494,0.429l-0.59-0.405l-0.972-0.328l-1.076-0.207l-0.892-0.081l-0.637-0.162l-3.525-1.83l-0.717-0.271
		l-1.302-0.17l-0.896-0.255l-0.418-0.057l-0.948,0.146l-0.438,0.02l-0.287-0.166l-1.139,0.461l-0.582,0.162l-0.486,0.053
		l-0.653,0.194l-0.59,0.433l-0.51,0.47l-0.414,0.291l-0.968,0.097l-0.932-0.332l-3.326-1.643l-0.59-0.142l-0.745-0.044l-2.529,0.372
		l-0.621-0.024l-0.9-0.279l-0.657-0.069l-0.49-0.227l0.107-1.089l-0.442-0.384l0.107-0.162l0.124-0.34l0.104-0.178l-0.502,0.02
		l-0.167-0.02l0.263-0.575l0.394-0.303l0.522-0.121l0.661-0.02l0.279-0.397l-0.446-0.737l-0.661-0.372l-0.343,0.688l-0.239,0.352
		l-0.542-0.053l-0.57-0.243l-0.323-0.227l-0.227-0.445l-0.474-1.618h-0.303l-0.319,2.007l-0.366,0.955l-0.844,0.401l-0.502,0.559
		l-0.143,0.206l-0.323-0.081l-0.538-0.283h-2.31l-1.143-0.328l-0.621-0.085l-0.267,0.21l-0.259,0.421l-0.601,0.259l-0.717,0.13
		l-3.844,0.048l-0.96,0.332l-3.179-1.243l-0.498-0.627l-0.43-1.024l-0.936-0.753l-0.924-0.158l-0.382,0.745l-0.709-0.453
		l-0.59-0.615l-0.709-0.587l-1.032-0.376l-0.442-0.016l-0.9,0.073l-0.331-0.057l-0.299-0.279l-0.319-0.732l-0.41-0.348l-0.594,1.748
		l-1.916,1.109l-2.338,0.36l-1.844-0.53l-0.729,1.173l-0.542,0.526l-0.733,0.364l-0.9-0.562l-0.55-0.943l-0.414-1.036l-0.502-0.85
		l-0.769-0.461l-0.777,0.105l-0.92,0.283l-1.207,0.073v-0.34l0.924-0.303l0.422-0.797l-0.092-0.842l-0.594-0.437l-0.414,0.073
		l-0.319,0.259l-0.203,0.388l-0.179,1.028l-0.275-0.109l-0.609-0.651l-2.02-0.437l-1.159,0.263l-1.864,1.905h-0.335l-0.852-4.134
		l-0.454-0.081l-0.629-0.214l-0.534-0.263l-0.239-0.247l-0.243-0.352l-0.578-0.089l-0.661,0.008l-0.486-0.057l-0.629-0.445
		l-1.745-1.723l-0.367-0.752l-0.271-0.776l-0.653-0.631l-0.777-0.558l-0.633-0.574l-0.394-0.699l-0.203-0.788l-0.072-2.122
		l-0.183-1.019l-0.45-0.901l-4.398-5.747l-1.319-1.333l-0.478-0.655l-0.406-0.82l-0.546-0.751l-0.912-0.485l-0.331,0.339
		l-0.036-1.115l-0.43-0.796l-0.693-0.59l-0.876-0.553l-0.785-0.351l-0.602-0.032l-0.167,0.42l0.554,0.982l-1.135,0.073l-1.53-0.473
		l-1.494-0.743l-1.056-0.735l-0.287-0.574l-0.247-1.668l-0.303-0.654l-0.574-0.44l-0.605-0.154l-0.681,0.065l-0.813,0.19
		l0.251,0.408l0.777,0.258l0.307,0.351l0.12,0.553l-0.068,0.477l-0.171,0.307l-0.207,0.048h-0.008l-0.558-0.016l-0.9-0.396
		l-0.844-0.654l-0.633-1.551l-1.271-1.914l-0.474-0.921l-0.609-2.414l-0.438-1.098l-0.817-1.09l-0.96-0.295l-2.004,0.44
		l-0.522-0.682l0.594-0.121l0.434-0.27l0.163-0.408l-0.211-0.529l-0.458-0.315l-0.45-1.203l-0.072-1.469l0.669-1.106l-0.271-0.234
		l-0.263-0.323l-0.255-0.379l-0.207-0.419l0.374-0.161l0.932-0.206l1.123-0.775l0.211-0.052l0.311-0.504l1.386-1.053l0.335-0.629
		l-0.028-0.496l-0.151-0.536l-0.227-0.452l-0.287-0.21l-0.633,0.137l-0.303,0.48l-0.044,0.504l0.155,0.234l-0.056,0.347l-1.53,1.565
		l-0.574,0.424l-1.749,0.141l-1.506-0.662l-1.462-0.984l-1.657-0.831l-0.586-0.109l-0.888,0.149l-0.566-0.04l-0.363-0.157
		l-0.697-0.436l-3.402-0.754l-0.916-0.315l-1.223-0.843l-0.777-1.109l-0.609-1.153l-0.737-0.984l0.211-0.661l-0.131-0.79
		l-0.287-0.669l-0.287-0.282l0.299-0.468l0.096-0.911l0.267-0.645l0.845,0.339l0.729-0.58l0.514-0.601l0.227-0.701l-0.131-0.891
		l-0.685,0.685l-0.813,0.302l-0.486-0.189l0.303-0.798l-0.243-0.194l-0.215-0.266l-0.147-0.331l-0.064-0.375l-0.255-0.629
		l-0.59-0.121l-0.629,0.085l-0.371,0.008l-0.203-0.403v-0.5l0.056-0.516l-0.04-0.475l-0.219-0.596l-0.263-0.48l-2.33-2.631
		l-0.609-0.87l-0.251-0.661l-0.323-0.524l-2.354-1.37l-1.183-1.088l-4.202-6.222l-0.598-1.51l-0.056-1.989l-0.139-0.415l-0.418-0.58
		l-0.084-0.205v-1.534l-0.287-0.841l-0.478-0.886l-0.645-0.688l-1.613-0.604l-1.426-1.397l-0.426-0.314l-1.159-0.173l-0.534-0.495
		l-0.817-1.727l0.633-0.535l-0.143-0.805l-0.558-0.809l-0.629-0.551l0.502-0.217l0.339-0.294l0.096-0.374l-0.239-0.467l-1.004,0.209
		l-1.454-0.551l-2.585-1.348l-2.808-0.692l-1.601-0.081l-1.275,0.406l-0.948-0.68l-3.095-1.034l-0.665-0.817l-0.104-0.169
		l-0.231-0.193l-0.223-0.266l-0.111-0.386l0.143-0.153l0.653-0.089l0.203-0.266l-0.06-0.29l-0.227-0.193l-0.259-0.169l-0.12-0.201
		l0.088-0.338l0.578-1.174h-0.331l-0.59,0.768l-0.717-0.02l-0.825-0.145l-0.904,0.418l0.709,0.997l-0.876,0.378l-2.991-0.032
		l-0.617-0.185l-0.912-0.881l-0.657-0.277l-0.741,0.04l-0.729,0.193l-0.753,0.081l-0.789-0.314v0.33l-0.908-0.318l-3.31,0.628
		l-1.159-0.068l-0.908-0.217l-0.753-0.394l-2.832-2.719l-1.394-0.728l-1.856-0.229l-0.43,0.105l-0.478,0.173l-0.518,0.121
		l-0.546-0.06l-0.442-0.265l-1.036-0.941l-0.35-0.571l-0.693-0.483l-0.382-0.635l-0.454,0.515l-0.37,0.728l0.048,0.269l-0.908,0.068
		l-1.243-0.338l-1.087-0.655l-0.466-0.913l-0.163-0.543l-0.358-0.458l-0.351-0.129l-0.159,0.442l-0.016,1.053l-0.175,0.261
		l-0.45,0.237h-3.039l-0.534-0.338l-1.47-1.689l-0.621,0.828l-0.53-0.088l-0.594-0.466l-0.777-0.273l-0.319,0.064l-0.582,0.241
		h-0.287l-0.092-0.121l-0.259-0.458l-0.135-0.096l-0.406-0.145l-0.51-0.346l-0.386-0.39l-0.048-0.302l0.801-0.977l0.382-0.917
		l0.06-4.803l-0.155-1.109l-0.586-0.82l-0.382,0.944l-0.203,2.383l-0.446,1.053l0.291,0.796l-0.598,0.41l-0.984,0.153l-0.868,0.024
		l-0.789-0.249l-0.677-0.587l-1.056-1.254l-1.769-1.334l-0.466-1.105l-0.542-0.599l-1.239-1.037l-0.287,0.924l0.167,0.9l0.315,0.896
		l0.175,0.88l-0.466,0.736l-1.087,0.358l-1.243,0.028l-0.944-0.245l-0.454-0.478l-0.538-0.84l-0.454-0.908l-0.191-0.687
		l-0.012-0.555l-0.06-0.438l-0.159-0.362l-0.287-0.346l-0.199-0.466l0.127-1.21l-0.08-0.518l-0.749-0.884l-0.279,0.607l0.024,3.496
		l-0.394,1.587l0.028,0.619l0.271,0.426l1.099,0.956l-0.227,0.482l-0.474,0.362l-0.458,0.145l-0.211-0.165l-0.255-0.639
		l-1.275-1.025l-0.47-0.543l-0.135-0.354l-0.175-0.868l-0.024-0.309l-0.135-0.261l-0.307-0.201l-0.339-0.185l-0.223-0.177
		l-0.418-0.868l-0.554-1.587l-0.398-0.615h-0.303l0.215,0.856l0.088,1.877l0.231,0.755l0.645,1.358l0.123,0.747l0.096,1.608
		l0.275,1.294l0.287,0.498l0.462,0.571l0.406,0.671l0.183,0.784l0.55,0.539l0.98,1.282l0.382,1.182l-1.243,0.205l-0.131-0.297
		l-0.976-1.327l-0.231-0.217l-0.251-0.523l-0.578-0.691l-0.677-0.643l-0.534-0.354l-0.518,1.146l-0.896,0.422l-0.848-0.41
		l-0.374-1.327l-0.207-1.479l-0.534-1.35l-1.633-2.428l0.227,1.302l0.562,1.407l0.327,1.162l-0.482,0.579l-0.809-0.382l-1.091-2.271
		l-0.765-0.784l-0.311,0.579l-0.478,0.394l-0.59,0.241l-0.629,0.137v0.37l1.267,0.08l0.319,0.812l-0.307,1.109l-0.61,0.997
		l0.502,0.217l0.629,0.551l0.47,0.688l0.064,0.603l-0.486,0.374l-1.848,0.671l-0.669,0.338l-0.908-0.909l-0.478-0.294l-0.621-0.181
		l-0.538,0.08l-0.586,0.233l-0.574,0.121l-0.49-0.253l-0.84-0.655l-9.186-3.168l-3.569-2.098l-1.151-0.973l-0.502-0.892
		l-0.243-0.981l-1.765-3.279l-0.355-0.86l-0.175-0.213l-0.474-0.277l-0.482-0.181l-1.155-0.145l-0.562-0.004l-0.741-0.281
		l-1.673-1.31l-0.458-0.466l-0.112-0.169l-0.195-0.506l-0.363,0.675l0.502,0.771l1.569,1.671l0.466,0.313l0.478,0.104l1.079,0.458
		l1.131,0.217l0.088,0.265l-0.167,0.333l-0.076,0.309l0.837,2.029l3.979,6.764l0.319,0.989l0.167,1.045l0.048,1.174l0.219,1.146
		l0.538,0.897l1.251,1.528l2.346,3.603l0.789,2.075l-0.681,0.953l-0.084,0.117l-0.904-0.266l-0.721-0.812l-0.669-0.949l-0.745-0.676
		l-0.821-0.197l-2.856-0.133l0.299,0.209l0.37,0.547l0.335,0.249l0.418,0.145l0.837,0.08l0.414,0.113l0.86,0.491l1.844,1.874
		l-0.761,1.006l-0.837,0.491l-1.004,0.169l-4.569-0.052l-0.912-0.261l-0.398-0.274l-0.837-0.764l-0.434-0.314l-1.701-0.535
		l-0.474-0.31l-0.944-0.451l-1.139,0.032l-3.155,0.788l-2.78-0.201l-0.852-0.241l-0.542-0.628l-0.813-1.834l-0.629-1.006
		l-0.701-0.491l-0.908-0.149l-1.283-0.004l-0.175-0.137l-0.518-0.225l-0.546-0.105l-0.251,0.277l0.108,0.438l0.287,0.334l0.41,0.237
		l0.502,0.161l1.992,0.201l0.534,0.426l0.183,1.223l0.367,0.909l0.888,0.704l3.987,1.774l0.578,0.652l0.49,1.963l2.828,5.03
		l0.363,1.24l-0.287,0.942l-0.817,0.435l-1,0.137l-12.44,0.286l-0.49,0.213l-1.358,0.829l-4.167,0.31l-11.48,2.995l-1.107,0.077
		l-0.892-0.193l-4.804-2.222l-6.214-1.006l-0.211-0.06l-0.482-0.266l-0.821,0.386l-2.438,0.552l-0.92,0.077l-1.099,0.245
		l-2.772,1.812l-1.072,0.419l-0.956,0.064l-2.151-0.173l-1.068-0.278l-0.729-0.676l-0.45-0.882l-1.139-4.906l-1.044-1.304
		L101.832,381l-2.776,0.579l-1.725,0.129l-0.378,0.109l-0.287,0.254l-0.358,0.435l-0.538,0.423l-0.542,0.149l-0.55,0.089
		l-0.534,0.201l-0.661,0.523l-0.279,0.451l0.191,0.395l0.749,0.318l1.091-1.034l0.669-0.459l0.737-0.193l0.382-0.149l0.323-0.286
		l0.299-0.201l0.789,0.306l0.617-0.04l2.071-0.563l1.338-0.201l1.195,0.241l0.514,1.062l0.123,1.095l1.482,4.734l1.095,1.353
		l1.589,0.886l2.063,0.209l1.737-0.6l3.258-2.21l1.749-0.568l3.896,0.664l0.813-0.298l2.008,0.648l1.677,1.486l0.51,0.233
		l1.044,0.29l3.151,2.102l1.892,0.741l6.126,1.256l1.888,0.693l1.446,0.93l6.361,5.265l2.756,3.288l1.47,2.418l1.868,2.253
		l0.45,0.774l0.227,0.665v6.426l0.299,1.617l-0.024,0.875l-0.442,0.77l-1.171,1.093l-0.55,0.379l-0.813,0.403l-1.466,0.395
		l-2.776,0.008l-1.446,0.274l0.335,0.339l-0.494,0.161l-1.024,0.069l-0.761,0.141l-0.518-0.056l-0.239,0.024l-0.127,0.177
		l-0.151,0.343l-0.231,0.339l-0.327,0.157l-0.717,0.133l-4.35,1.351l-0.824,0.411l-1.199,0.992l-1.143,0.702l-0.474,0.129
		l-0.554,0.262l-0.458,0.585l-0.422,0.678l-0.414,0.504l-0.996,0.545l-2.286,0.944l-1.733,1.344l-5.246,2.046l-0.805,0.5
		l-0.331,0.577l-2.701,1.526l-1.964,0.218l-1.721-0.537l-1.478-0.977l-2.346-2.022l-1.669-1.134l-1.769-0.767l-1.454,0.137
		l-1.283-0.658l-0.753-0.254l-1.147-0.097l-0.741-0.186l-2.123-1.206l-2.561-0.9l-0.621-0.113l-0.526,0.161l-0.932,0.694
		l-0.57,0.157l-1.649-0.048l-6.931,0.508l-0.98,0.206l-2.968,1.081l-1,0.214l-1.199,0.073l-1.028-0.157l-2.051-0.69l-1.103-0.17
		l-4.147,0.755l-1.231-0.077l-0.406,0.327l-0.693,0.327l-0.769,0.262l-0.669,0.101l-0.761-0.262l-0.633-0.492l-0.657-0.29
		l-0.789,0.367l-0.597-0.097l-1.028-0.012l-0.98-0.157l-0.741-1.017l-2.032-1.424l-1.549-0.767l-1.82-0.428l-1.892-0.008
		l-1.753,0.524l-3.824,3.002l-1.554,0.751l-2.33,0.218l-1.84-0.682l-5.246-4.672l-1.51-0.896l0.009-5.703l0.018-9.555l0.005-9.263
		l-0.015-8.722l-0.015-13.098l-0.005-8.313v-1.972v-9.351v-9.153V339.74v-2.02l0.005-6.201v-7.514l0.008-5.331l-0.733,0.066
		l-0.923-0.489l-0.177-1.564l-1.159,0.316l-0.377-0.662l-0.078-1.039l-0.25-0.79l-0.938-0.688l-0.405-0.433l-0.162-0.545
		l0.116-0.234l0.463-0.642l0.089-0.331l-0.283-0.576l-1.022-0.917l-0.364-0.525L30,309.122l0.124-0.438l0.266-0.581l0.422-1.625
		l-0.043-0.917l-0.711-0.346l0.435-0.749l0.716-0.244l0.814-0.178l0.706-0.509l-0.081-0.362l-0.334-0.448l-0.172-0.377l0.422-0.163
		l0.405-0.036l0.255-0.143l0.134-0.265l0.045-1.242l0.109-0.565l0.354-0.331l0.746-0.107l0.329-0.433l0.144-0.896l-0.223-0.738
		l-0.771,0.02l0.018-0.601l-0.157-0.433l-0.334-0.255l-0.521-0.061l0.43-0.229l0.476-0.122l0.516-0.025l0.551,0.041l-0.129-0.631
		l0.266-0.377l0.369-0.346l0.192-0.509l-0.119-0.29l-0.473-0.412l-0.106-0.29l0.051-0.178l0.235-0.102l0.248-0.987l0.448-0.565
		l0.197-0.071v-5.206v-11.188v-9.627v-9.116v-12.655v-2.012v-6.167v-9.589v-0.137l-0.002-0.54l-0.031-10.551l-0.023-8.73
		l-0.05-20.731l-0.025-8.409l-0.033-9.923l-0.018-10.706l-0.041-16.237l0.046-12.164l0.03-9.563l0.028-8.63L36.131,107.617z
		 M662.024,551.286l0.239,0.146l0.319,0.098l0.287,0.134l0.104,0.272l-0.139,0.504l-0.259,0.151l-0.295-0.094l-0.255-0.252
		l-0.406,0.268l-0.295,0.081l-0.303-0.081l-0.39-0.268l-0.522,0.423l-0.594,0.228l-0.621-0.008l-0.602-0.273l-0.195,0.61
		l-0.271,0.053l-0.335-0.187l-0.382-0.13h-2.163l-0.263-0.049l-0.163-0.293l-0.267-0.004l-0.263,0.146l-0.394,0.443l-0.151,0.093
		l-0.55,0.207l-0.518,0.301l-0.446-0.033l-0.319-0.813l0.43,0.049l0.414-0.077l0.255-0.24l-0.072-0.447l-0.279-0.289l-0.355,0.029
		l-0.418,0.167l-0.486,0.094l-0.434-0.146l-0.259-0.333l-0.171-0.333l-0.167-0.146l-0.514,0.081l-0.414,0.138l-0.398,0.024
		l-0.51-0.244l0.139-0.207l0.227-0.537l-0.454-0.049l-0.227-0.159l-0.072-0.309l0.052-0.508l-0.502,0.402l-0.398,0.464l-0.414,0.378
		l-0.518,0.15l-1.84-1.053l-0.765,0.439l-0.466-0.354l-0.195-0.732l0.056-0.72l0.319-0.386l0.454-0.415l0.239-0.447l-0.342-0.488
		l-0.53-0.215l-0.227,0.167l-0.131,0.297l-0.263,0.15l-0.335-0.106l-0.251-0.244l-0.239-0.358l-0.741,0.252l-0.733,0.455
		l-1.227,0.996l-0.239-1.024l1.924-0.915l-0.012-0.789l-0.442-0.26l-1.087,0.008l-0.478-0.118l-0.466-0.39l-0.574-0.931
		l-0.466-0.536l-0.37-0.073l-0.394,0.171l-0.311,0.033l-0.12-0.471l0.263-1.065l-0.107-0.349l-0.645-0.142l-0.339-0.146l-0.39-0.354
		l-0.323-0.402l-0.139-0.305l0.056-0.609l0.151-0.553l0.47-1.068l2.557,1.816l0.964,0.26l0.916-0.272l0.426,0.004l0.354,0.825
		l0.434,0.183l0.554,0.114l0.534,0.171l1.159,0.788l0.514,0.236l1.147,0.24l0.502,0.191l1.378,1.138l3.019,1.187l2.294,1.488
		l0.55,0.219l1.044,0.057l5.64,1.553l0.498,0.264l0.131,0.537l0.367,0.492l0.482,0.362l1.072,0.313l0.303,0.394L662.024,551.286z
		 M687.485,539.418l0.08,0.479l0.207,0.609l0.323,0.528l0.394,0.264l-0.335,0.597l-0.346,0.475l-0.43,0.37l-0.562,0.293
		l-0.398-0.748l-0.892-0.39l-1.087-0.085l-1.024,0.175l-1.721,0.902l-0.709-0.073l-0.207-1.203h-0.307l-0.307,1.308l-0.717,0.553
		l-1.044-0.016l-1.307-0.423l-0.717,0.057l-0.426-0.228l-0.191-0.707l-0.191-0.321l-0.466-0.268l-0.562-0.191l-0.482-0.077
		l0.239-0.366l0.315-0.293l0.37-0.224l0.442-0.167l-0.251-0.195l-0.446-0.8l0.315-0.033l0.167,0.073l0.215,0.272l0.817,0.467
		l2.159,0.142l1.036,0.443l0.362-0.37l0.609,0.288l0.299-0.118l0.012-0.37l-0.251-0.484h-0.362v0.37h-0.307l-0.359-0.199
		l-0.331-0.232l-0.159-0.268l0.151-0.325l-0.438-0.203l-0.311-0.289l-0.199-0.386l-0.056-0.487l0.956,0.309l1.354,0.008l2.031-0.317
		l0.562,0.276l0.426-0.032l0.386-0.146l0.466-0.098l0.442,0.227l0.211,0.423l0.255,0.268l0.598-0.236l1.004,0.435l0.49,0.313
		L687.485,539.418z M633.806,535.884l0.478-0.301l0.215-0.073v-0.341l-1.362-1.023l-0.359,0.309l-0.207-0.089l-0.183-0.284
		l-0.255-0.276l-1.697-1.023l-0.741-0.865l0.167-0.621l0.614-0.231l0.621,0.329l0.617,0.503l2.418,0.512l2.147,1.535l0.896,0.203
		l-0.179,0.447l-0.339,0.593l-0.462,0.374l-0.538-0.219l-0.115,0.219l-0.47,0.256l-0.645,0.159L633.806,535.884z M615.363,503.73
		l0.39,0.024l1.681,0.644l0.597,0.377l0.442,0.596l-0.036,0.446l-0.39,0.357l-0.649,0.304l-0.53,0.15l-2.171,0.19l-0.562,0.118
		l-0.956,0.418l-0.49,0.146l-1.099-0.069l-1.366-0.389l-2.912-1.24l-3.011-0.685l-2.031-1.386v-0.34l0.339,0.036l0.151-0.097
		l0.072-0.146l0.108-0.134l3.183,0.948l0.689-0.085l0.474,0.016l1.474,0.94l0.562,0.247l1.494-0.438l1.697-0.888l1.609-0.571
		L615.363,503.73z M530.51,502.396l-1.354,1.078l-0.104,0.47l1.123,0.154l-0.275,0.239l-0.49,0.539l-0.271,0.239l-0.016,0.466
		l-0.705,0.069l-0.825-0.426l-0.394-0.973l-0.43-0.377l-2.131,0.004l-0.876-0.15l-0.195,0.725l0.06,0.681l-0.016,0.567l-0.454,0.405
		l-0.486-1.402l-0.107-0.713l0.227-0.944l0.327-0.523l0.51-0.421l0.677-0.284l0.828-0.134h2.701l0.43,0.142l0.462,0.43l0.414,0.138
		l0.378-0.113l0.163-0.304l0.147-0.174l0.346,0.223l0.048,0.174l-0.008,0.142l0.064,0.077L530.51,502.396z M520.759,498.94
		l0.609,0.292l0.55,0.434l0.131,0.583l-0.621,0.758l0.359,0.34l-0.175,0.499l-0.016,0.713l-0.167,0.49l0.319,0.523l0.04,0.478
		l-0.223,0.409l-0.47,0.316l-0.944-0.458l-1.223-0.405l-1.227-0.138l-0.956,0.324l-0.518-1.001l-0.359-0.434l-0.426-0.268
		l0.335-0.369l0.681,0.499l0.801,0.426l0.884,0.292l0.944,0.146l0.924,0.012l0.271-0.122l-0.251-0.316l-3.286-2.926l-0.263-0.446
		l0.112-0.47l0.45-0.267l0.454,0.085l0.386,0.312l0.231,0.393l0.677-0.093l0.677-0.016l0.657-0.134L520.759,498.94z M535.517,470.01
		l1.366-0.93l2.028-0.679l1.84,0.279l0.816,1.978l-0.207,1.043l-0.92,2.148l-0.406,2.124l-1.478,2.897l-0.335,0.299l0.215,0.53
		l-0.482,1.615l0.267,0.915l-0.996-0.684l-1.769-1.505l-0.94-0.498l-5.011-1.384l-2.306-0.34h-1.048l-0.765-0.085l-0.589-0.255
		l-0.203-0.761l-0.171-1.465l0.096-1.294l0.613-0.251l0.382-0.49l0.633-0.676l0.339-0.587l-0.506-0.247l-0.331-0.227l-0.486-0.522
		l-0.737-0.95h-0.299l0.108,1.302l-0.86,0.789l-1.064,0.028l-0.526-0.963l-0.096-0.388l-0.215-0.178l-0.239-0.105l-0.143-0.178
		l-0.056-0.404l0.056-2.471l-0.167-0.344l-1.016-1.379l-0.155-0.34l-0.135-0.631l-0.351-0.485l-0.482-0.311l-1.004-0.247
		l-0.179-0.319l-0.06-0.36l-0.132-0.239l-0.275-0.073l-0.765-0.105l-0.299-0.121l-0.526-0.477l-0.418-0.517l-0.263-0.655
		l-0.096-0.897l0.048-0.824l0.167-0.986l0.311-0.634l1.422,0.732l0.968,0.736l0.761,0.909l0.303,1.071l0.47,1.107l1.119,0.679
		l1.334,0.513l1.115,0.594l3.191,3.598l0.864,0.518l1.215,0.461l1.147,0.623l0.665,0.971l-1.147-0.307l-0.331,0.76l0.191,1.031
		l0.402,0.522l0.53,0.283l1.725,1.351l0.94,0.429l0.916,0.279l0.362-0.012l0.386-0.267l0.283-0.498l0.072-0.558l-0.143-0.457
		l-0.378-0.178l-0.032-0.38l0.669-0.817L535.517,470.01z M517.11,454.996l0.183,0.848l-0.964-0.093l-2.087-0.756l-3.079,0.343
		l-1.099-0.004l-1.685-0.461l-1.709-0.76l-1.876-0.57l-2.143,0.093l-1.912,0.299l-1.609,0.008l-0.183-0.348l0.717-0.768l1.649-1.224
		l1.175-0.602l0.482-0.549l0.08-0.695l-0.036-1.05l-0.358-0.501l-2.342-1.377l-1.51-3.436l-0.163-1.478l0.418-1.171l1.028-0.832
		l1.315-0.468l1.251-0.073l2.852,1.498l1.645,0.456l0.641,0.598l0.908,1.175l1.322,0.909l0.868,0.375l0.661-0.097l0.94-0.48
		l0.972-0.137l0.904-0.291l0.713-0.953l1.904,1.316l1.522,1.438l0.247,0.323l0.04,0.299l-0.099,0.743l0.06,0.287l0.486,0.456
		l0.685,0.444l0.729,0.347l0.609,0.133l0.128,0.279l-0.295,1.927l-0.227,0.363l-0.41,0.145l-0.283,0.19l0.219,0.489l0.582,0.368
		l0.55,0.016l0.406,0.113l0.347,1.269l0.41,0.291l0.462,0.226l0.311,0.428l0.012,0.679l-0.307,0.586l-0.494,0.465l-0.582,0.307
		l-0.506-0.533l-0.84,0.574l-1.657,1.657l0.024-0.82l0.514-1.184l0.131-0.558l-0.335-0.416l-0.777-0.133L517.11,454.996z
		 M495.963,441.07l0.06-0.016l0.414,0.509l0.1,0.254l-0.163,0.19l-0.243,0.174l-0.167,0.246l-0.243,0.783l-0.809,1.817l-0.478,0.63
		l-0.12,0.347l0.43,0.125l0.856,0.024l0.028,0.456l-0.072,0.339l-0.263,0.561l-0.86,0.897l-1.243-0.012l-1.366-0.533l-1.211-0.662
		l-0.1,0.129l-0.036,0.04l-0.056,0.044l-0.199,0.097l0.048-0.751l-0.056-0.771l-0.255-0.606l-0.542-0.246l-0.781-0.109l-1.888-0.569
		l-0.442-0.222l-0.311-0.529l-0.275-0.61l-0.319-0.505l-1.912-1.651l-0.287-0.408l0.032-1.623l0.191-1.433l0.494-1.324l0.952-1.239
		l1.135-1.021l1.195-0.759l1.203-0.299l1.179,0.383l2.597,1.4l1.163,0.876l0.92,1.142l0.908,2.176l0.211,1.183l0.414,0.686
		L495.963,441.07z M624.525,429.637l0.812,0.387l-0.779,0.586l-0.344,0.564l0.252,0.315l-0.188,0.283l-0.219,0.408l-0.503,0.157
		l-0.503-0.283l-0.378-0.408l-0.597-0.345l-0.313,0.251l-0.47,0.597l0.126,0.377l0.912,0.691l0.944,0.785l0.284,0.816l-0.408,0.534
		l-0.314,0.031l-0.252-0.754l-0.66-0.691l-1.005,0.032l-1.349,1.068l-1.946,0.189l-0.973,0.283l-0.345-0.314l-0.784,0.063
		l-0.408-0.722l-0.753-0.879l-0.69-0.314l-0.72-0.632l-0.377-0.657l-0.346-0.437l-0.282,0.628l-0.564,0.502l0.128,0.749l1.158,0.225
		l-0.063,0.911l-0.785,0.911l-0.753-1.414l-0.973-0.407l-1.38-0.503l-0.817-0.469l-0.565-1.067l0.314-0.722l1.067,0.847l1.131,0.061
		l-0.274-0.731l0.263-0.456l0.347-0.226l0.315-0.044l0.271-0.121l-0.482-0.491l-0.377-0.251l-0.565-0.282l-1.004-0.502l-1.412-1.161
		l-1.098-0.784l-0.753-0.784l-1.226,0.47l-0.439-0.283l-0.597-0.565l-0.786-0.503l-1.446-0.597l-1.697,0.312l-0.346-0.409
		l1.724-0.686v-0.371l-0.246-0.762l-1.069-1.194l-1.039-0.535l-1.259,0.846l-0.063,0.879l0.126,0.911l0.031,1.947l-0.032,0.597
		l-0.284,0.691l-0.471-2.482l-1.134-2.106l0.788-1.004l2.329-1.284l0.944,0.221l2.265,2.327l3.988-0.373l2.134,0.221l1.224,0.346
		l1.788,0.283l1.536-0.282l0.878,0.031l1.035,0l0.941,0.126l0.721,0.344l0.439,0.658l0.596,0.219l0.879,1.536l0.878,0.533l1.6,0.47
		l0.94-0.471l1.161,0.689l0.472,0.533l-0.126,1.255l1.194,0.407L624.525,429.637z M532.362,411.172l0.697,0.395l0.566,0.927
		l0.303,1.032l-0.08,0.717l-0.558-0.605l-1.442-2.467l-2.772-1.773l-0.088-0.29l0.219-0.403l2.378-3.232l1.099-2.566l0.159-0.931
		l-0.143-0.193l-0.852-0.822l-0.613-0.427l-0.422-0.177l-2.828-0.242l-0.845-0.387l-0.335-0.959l0.872-1.204l0.155-0.487
		l0.104-0.604l0.263-0.491l0.789-0.918l0.852-0.677l1.052-0.354l2.286-0.165l0.032,0.229l-0.08,0.06l-0.135-0.004l-0.151,0.052
		l-0.064,2.392l-0.203,1.011l-0.394,0.991l1.474,1.627l-0.032,2.127l-1.597,6.934l-0.116,1.31L532.362,411.172z M165.055,404.708
		l1.016,0.326l0.745,0.822l0.406,1.092l-0.008,1.144l-0.498,0.975l-0.657,0.21l-0.582-0.423l-0.243-0.915l-0.307-0.701l-0.745-0.488
		l-5.716-2.708l-1.107-0.85l-0.558-0.262l-0.725-0.133l-0.621-0.193l-0.271-0.443l-0.295-0.657l-3.063-2.558l-2.753-0.765
		l-1.307-0.568l-0.526-0.463l-1.139-1.595l-0.574-0.475l-1.028-0.68l-0.47-0.531l0.741-0.085l0.653-0.161l0.574,0.048l1.808,2.07
		l0.733,0.592l4.326,0.971l4.111,1.482l1.064,0.153l0.478,0.185l0.339,0.451l0.502,0.894l4.692,3.908L165.055,404.708z
		 M153.846,394.207l-1.044-0.556l-1.358-1.019l-0.669-1.083l1.04-0.725l0.657-0.02l0.394,0.225l0.295,0.29l0.382,0.181h0.59
		l1.546-0.334l3.306-0.048l4.374,0.503l0.542,0.374l0.04,1.244l0.147,0.713l0.789,1.297l0.331,0.749l-0.044,0.636l-0.466,0.423
		l-0.944,0.157l-2.529-0.061l-0.996-0.217l-2.342-1.136l-0.82-0.946l-1.056-0.298L153.846,394.207z M382.418,255.129l1.095,1.253
		l0.291,1.289l-0.482,4.379l-1.076,2.41l-0.331,1.289l-0.506-0.224l-0.195-0.14l0.028,0.336l-0.044,0.677l0.016,0.332l-0.494-0.096
		l-0.406,0.096l-0.374,0.276l-0.367,0.424l-0.243-0.629l-0.139-1.654l-0.287-0.769l-0.41-0.392l-0.585-0.284l-1.37-0.332
		l-1.629-0.148l-0.717-0.34l-0.665-0.857l-0.128-0.344l-0.207-1.029l-0.291-0.428l-1.844-1.585l-0.582-0.689l-0.988-1.633
		l-0.781-0.913l-0.191-0.432v-0.4l0.303-1.273l-0.195-2.345l0.195-0.704l0.518-0.572l1.235-0.22l0.621-0.584l0.12,0.252l0.135,0.1
		l0.175,0.096l0.239,0.248l0.151-0.18l0.159-0.068l0.167-0.024l0.191-0.056l0.574,0.508l1.091,1.269l0.669,0.568l0.713,0.348
		l1.964,0.324l1.251,0.512l1.255,0.696L382.418,255.129z M768.331,306.064l0.287,1.095l1.203,1.917L770,310.32l-0.323,1.135
		l-0.657,1.135l-0.849,1.007l-0.872,0.758l0.514-2.246l0.08-1.243l-0.426-0.546l-0.406,0.485l-1.434,3.181l-1.207-1.38l-1.816,0.425
		l-1.808,1.252l-1.187,1.083l-1.219,1.621l-0.614,0.514l-1.016,0.189l-0.546-0.1l-0.892-0.465l-0.59-0.104h-2.199l-2.087-0.441
		l-2.175-0.738l-3.76-1.853l-2.067-1.713l-0.466-0.269l-0.801-0.225l-0.872-0.538l-1.506-1.291l-0.454-0.562l-0.609-1.075
		l-5.927-6.504l-0.693-1.307l0.888,0.004l0.382,0.1l0.398,0.233l0.864-1.676l0.49-2.285l0.155-2.413l-0.167-2.068l-0.968-2.28
		l-1.625-1.25l-4.876-1.455l-1.769-0.978l-1.091-0.93l-1.095-0.409l-0.506-0.312l-0.446-0.457l-0.151-0.32l-0.211-1.054
		l-0.721-2.015l-0.844-0.945l-0.131-0.248l-0.359-0.449l-2.318-1.049l-1.386-1.61l-1.243-0.817l-0.669-0.557l-0.546-0.649
		l-0.219-0.625l-0.426-0.693l-1.832-1.354l-0.418-0.981l-0.048-0.549l-0.215-0.965l-0.044-0.501l0.307-0.472l0.211-0.469
		l0.088-0.573l-0.227-1.057l-0.538-0.821l-1.179-1.173l-0.414-0.608l-0.175-0.392l-0.072-0.344l0.119-0.44l0.86-2.038l0.586-4.183
		l0.382-1.009l0.076-0.913l-0.693-0.849V253.3l0.151-0.116l0.04-0.06l0.04-0.064l0.104-0.128l0.88,0.828l0.406,0.164l0.354-0.32
		l0.128-0.804l-0.267-0.744l-0.37-0.684l-0.191-0.624l-0.562-1.12l-2.131-2.081l0.088-1.024l1.613-0.216l2.019,1.116l1.781,1.681
		l0.932,1.477l0.836-0.152l0.912,0.472l0.805,0.808l0.486,0.888l0.283-0.468l0.386-0.188l0.462,0.056l0.51-0.408l0.554,0.252
		l0.705,0.092l3.286,0.008l0.502,0.188l-0.335,0.468v0.336l0.522,0.3l0.247-0.26l0.207-0.44l0.386-0.272h0.753l0.215,0.216
		l-0.024,0.372l0.032,0.452l-0.295,0.496l-0.072,0.328l0.207,0.152l0.988,0.32l0.167,0.016l0.271,0.624l0.231,1.117l1.251,1.453
		l1.036,2.282l0.773,1.089l0.247,0.192l0.374,0.136l0.199,0.184l0.374,0.621l0.167,0.204l0.084,0.473l-0.263,1.73l0.386,0.817
		l0.454,1.77l0.462,0.801l0.753-0.232l0.777,0.264l0.825,0.424l0.856,0.216l2.414,2.651l0.147,0.224l0.195,0.208l0.39,0.276
		l0.227,0.044l0.562-0.088l0.239,0.044l0.299,0.268l0.538,0.921l0.701,0.809l0.398,0.669l0.518,2.551l0.191,0.549l1.657,3.353
		l2.478,2.564l0.271,0.14l0.633-0.14l0.454-0.345l0.43-0.525l0.574,0.356l0.359,0.773l0.514,0.817l1.076,0.437l1.211-0.148
		l0.259-0.557l0.107-0.729l0.757-0.613v0.365l-0.12,0.212l-0.064,0.18l0.108,0.232l0.41,0.357l-0.183,0.553l1.183,1.19l0.498,1.122
		l0.382,0.272l0.494,0.168l0.49,0.056l0.49,0.257l0.422,0.589l0.605,1.174l0.542,0.773l0.617,0.637l0.737,0.445l0.94,0.156
		l1.004,0.441l0.765,1.042l1.044,2.253l1.076,1.467l1.187,1.307l0.992,1.451l0.454,1.852l-0.048,0.553l-0.239,0.946l-0.048,0.521
		l0.12,0.589l0.474,1.107L768.331,306.064z M384.923,243.84l1.303,0.748l0.956,1.368l0.08,1.396l-1.334,0.848l-1.446-0.424
		l-0.733-1.377l0.1-1.572L384.923,243.84z M360.772,239.447l0.884,0.112l0.406,0.464l0.255,0.592l0.454,0.504l-0.446,0.848
		l-0.49,0.432l-1.398,0.768l-1.004-1.376l-0.135-0.024l-0.446,0.056l-0.12-0.032l-0.048-0.216l0.02-0.204v-0.196l-0.124-0.208
		l-0.008-0.508l0.605-0.528l0.853-0.396L360.772,239.447z M341.326,238.599l0.104,1.176l0.319,1.152l0.526,0.968l0.725,0.6v0.304
		l-0.725,0.756l-0.132,0.96l0.048,0.948l-0.195,0.72l-0.398,0.3l-0.279-0.072l-0.275-0.188l-0.382-0.04l-0.526,0.216l-1.147,0.792
		l-1.697-0.072l-1.374-0.96l-2-2.321l-1.816-1.34l-0.526-0.708l-0.259-0.76l-0.036-0.856l0.295-1.736l0.374-1.12l0.462-0.416
		l1.84-0.512l0.733-0.496l0.741-0.64l0.848-0.496l1.048-0.048l1.689,1.856l0.681,0.528l1.147,0.532l0.155,0.276L341.326,238.599z
		 M709.298,235.719l-0.064,1.512l-1.267,4.56l-0.12,3.205l-0.442,1.34l-1.111,0.552l0.303-1.04l-0.745,0.252l-0.335,0.6
		l-0.287,0.692l-0.609,0.504l-0.868-3.409l-1.968-4.869l-0.199-1.348l-0.374-1.16v-0.708l0.542-0.316l0.335-0.368l0.151-0.828
		l-0.024-2.664l-0.247-1.02l-0.705-0.216l-1.35,1.096l0.287-1.68l1.139-1.816l1.514-1.592l1.402-1.012l1.601,0.312l1.076,1.32
		l0.574,1.676l0.127,1.392l-0.303,1.512l-0.008,0.744l0.311,0.768l0.462,0.456l0.494,0.288l0.438,0.416L709.298,235.719z
		 M434.926,219.588l0.378-0.28l1.936-0.732l0.55,0.82l-0.139,0.736l-1.052,1.467l-0.637-0.312l-0.661-0.436l-0.438-0.568
		L434.926,219.588z M292.048,216.718l0.12-0.759l0.358-0.668l0.617-0.408l0.884,0.004l0.725,1.075l0.259,0.576l0.02,0.7
		l-0.331-0.148l-0.311-0.216l-0.068,0.192l0.008,0.108l-0.056,0.048l-0.247,0.016l0.195,0.84l-0.737,0.048l-0.96-0.528
		L292.048,216.718z M454.376,207.82l0.689,0.296l0.769,0.504l0.621,0.639l0.259,0.727l-0.056,0.819l-0.104,0.42l-0.175,0.252
		l-0.426,0.096l-0.179-0.244l-0.096-0.376l-0.132-0.304l-0.37-0.52l-0.223-0.571l-0.303-0.492l-0.609-0.272l-0.729,0.144l-0.251,0.5
		l0.239,0.516l0.741,0.208l-0.307,0.408l-0.39,0.232l-0.976,0.368l-1.159-0.943l0.542-1.079l1.358-0.907L454.376,207.82z
		 M281.962,202.458l0.693,0.575l1.816,1.922l0.259,0.739l0.112,1.227l-0.024,1.707l-0.239,0.384l-0.167,0.552l-0.108,1.087
		l-0.243,0.551l-0.546,0.448l-1.804,1.123l-1.314,0.516l-1.255,0.3l-0.705-0.3l-1.593-1.463l-0.259-0.348l-0.382-0.747l-0.167-0.783
		l0.028-0.855l0.215-0.971l0.737-2.038l0.526-0.863l2.418-2.529l0.952-0.492L281.962,202.458z M596.259,193.18l-0.167,0.743
		l-2.414,5.481l-0.215,1.69l0.418,1.658l1.446,3.053l0.538,1.91l0.084,2.082l-0.884,3.17l-0.351,2.106l-3.139,4.913l-0.514,0.296
		l-0.191,0.24l-0.785,1.639l-0.358,0.28l-0.86,0.528l-1.012,1.144l-0.677,0.388l-2.139,0.284l-1.518,0.512l-1.028-0.008
		l-2.474-0.568l-0.717-0.076l-1.028-0.284l-0.574-0.08l-0.55,0.448l-0.657-0.228l-1.052-0.556l-0.896,0.608l-0.267,1.024l0.135,5.81
		l0.287,1.248l0.51,0.756l2.466,2.008l0.311,0.336l0.123,0.504l0.235,0.344l0.526,0.228l0.92,0.284l2.031,2.528l0.231,0.856
		l0.964,1.848l0.143,1.176l-1.498,2.681l-0.259,0.136l-0.275,0.312l-0.215,0.392l-0.096,0.336l-0.179,0.372l-0.442,0.096
		l-0.558-0.004l-0.526,0.072l-2.298,1.217l-0.37,0.288l-2.031,2.185l-0.398,0.12l-1.585,0.216l-1.554,0.6l-0.613,0.072l-0.789,0.372
		l-0.809,0.797l-0.98,0.716l-1.295,0.132l-1.068-0.528l-1.41-1.777l-0.868-0.72l-0.928-0.256l-1.219-0.092l-1.195,0.124
		l-0.849,0.392l-1.163,1.621l-0.526,0.228l-0.621-0.156l-0.139-0.38l-0.02-0.488l-0.219-0.488l-0.884-0.444l-3.298-0.06
		l-1.685-0.208l-0.729,0.216l-0.621,0.664l-0.299,1.064l0.275,0.84l0.454,0.68l0.239,0.62l0.243,0.172l1.171,0.044l0.422,0.14
		l1.354,1.325l0.112,0.865l-0.84,0.829l-1.287,0.444l-1.175-0.276l-0.753,0.432l-0.896,0.672l-0.741,0.745l-0.311,0.657
		l-0.084,0.989l-0.239,0.941l-0.367,0.817l-0.458,0.625l-1.518,1.461l-0.653,0.384l-1.534,0.625l-0.721,0.164l-0.45-0.088
		l-0.669,0.857l-1.84,1.326l-0.825,0.845l-0.263,0.513l-0.084,0.372l-0.155,0.348l-1.259,1.057l-0.343-0.032l-0.207-0.581
		l-2.748,0.997l-1.394,0.673l-0.597,0.865l-0.669,1.282l-1.522,0.144l-2.82-0.569l-3.513,0.793l-0.558,0.369l-0.43,0.469
		l-0.964-0.505l-1.617-1.462h-0.303l-0.211,0.537l-0.311,0.585l-0.187,0.569l0.462,1.13l-0.207,0.617l-0.354,0.585l-0.434,1.214
		l-0.55,0.341l-0.88,0.168l-1.697,0.669l-1.773,0.292l-0.422,0.2l-0.534,0.445l-0.259-0.024l-0.191-0.325l-0.335-0.433l-0.717-0.016
		l-1.016,0.521l-0.948,0.745l-0.526,0.641l-0.139-0.096h-0.072l-0.048-0.032l-0.076-0.236l-1.753,1.731l-1.06,0.701l-1.044,0.289
		l-0.418,0.272l-1.199,1.286l-0.546,0.429l-2.139,0.593l-1.275,0.132l-0.82-0.22l-0.558-0.257l-0.514,0.212l-0.474,0.361
		l-0.458,0.188l-0.155-0.112l-0.096-0.224l-0.132-0.232l-0.287-0.104l-0.131,0.048l-0.394,0.22l-1.972,0.429l-1.283,0.096
		l-0.884-0.289l-0.45-0.769l-0.307-0.272l-1.056-0.216l-0.299-0.224l-0.374-0.148l-0.709,0.084l-0.828,0.565l-1.04,0.91
		l-1.072,0.641l-0.912-0.232l-0.123-0.224l-0.044-0.253l0.012-0.533l-0.104-0.28l-0.243-0.144l-0.283-0.096l-0.717-0.449
		l-0.327,0.249l-0.366,0.89l-0.1,0.072l-0.562,0.264l0.582,0.505l-0.056,0.481l-0.494,0.393l-0.733,0.273l0.163-0.721l-0.211-0.757
		l-0.462-0.601l-0.629-0.244l-0.669,0.12l-0.86,0.341l-0.892,0.541l-0.781,0.681l-0.586-0.657l-0.502-0.144l-0.454,0.088
		l-0.466,0.04l-1.33-0.088l-0.307,0.088l-1.267-0.225l-4.661-0.112l-0.335,0.148l-0.912,0.677l-0.574,0.184l-1.179-0.24
		l-0.765-0.044l-0.757,0.284l-0.295-0.441l-1.872-1.395l-0.518-0.545l-0.287-0.553l-0.709-1.106l-0.713-1.487l-2.816-3.738
		l-1.179-0.857l-4.681-1.314l-0.932-0.609l-0.574-0.284l-0.836-0.144l-0.801,0.188l-1.231,0.941l-0.502,0.216l-0.41,0.108
		l-1.179,0.457l-0.765,0.108l-1.542-0.052l-0.585-0.192l-0.394-0.429h-0.307l0.112,0.709l-0.231,0.925l-0.43,0.877l-0.482,0.541
		l-0.681,0.244l-1.96,0.064l-0.358,0.22l-0.749,0.341l-0.605-0.008l0.008-0.861l0.422-0.228l0.59,0.084l0.335-0.096l-0.343-0.765
		l0.319-0.677l-0.335-0.941l-0.821-0.809l-1.139-0.292l0.478-0.817l0.566-0.673l0.287-0.685l-0.358-0.877l-0.386,0.961l-0.426,0.096
		l-0.51-0.18l-0.685,0.16l-3.72-1.518l-2.055-0.549l-1.267,0.356l-0.374-0.3l-0.327-0.344l0.247-0.449l0.303-0.384l0.367-0.312
		l0.454-0.228l-0.323-0.453l-0.299-0.064l-0.327,0.024l-0.422-0.18l-0.191-0.312l-0.016-0.332l-0.119-0.256l-0.49-0.104
		l-1.601-0.128l-0.578,0.172l-0.653,0.625l-0.358-0.336l0.343-0.725l-0.04-0.633l-0.191-0.589l-0.111-0.573l-0.371-0.521
		l-0.801-0.04l-0.801,0.064l-0.37-0.184l-0.299-0.585l-0.705-0.084l-1.37,0.144l-0.805-0.408l-1.147-1.153l-0.717-0.452
		l-1.159,1.005l-0.689,0.477l-0.645,0.196l-0.912-0.244l-1.482-1.249l-0.789-0.52l-1.028-0.196l-2.298-0.164l-0.868-0.48
		l-0.47-0.196l-0.617-0.052l-0.538-0.188l-0.227-0.573l-1.709-1.841l-0.868-2.078l-0.207-1.837l0.848-5.563l0.864-1.745l1.322-1.441
		l1.753-0.832l0.239-0.048l0.048-0.032l-0.008-0.072l0.084-0.184l0.777,0.296l0.582,0.296l1.147,0.932l0.386,0.216l0.848,0.18
		l0.438,0.288l0.247,0.396l0.247,0.9l0.203,0.384l1.314,0.792l1.446-0.28l1.402-0.952l1.187-1.241l0.637-0.432l0.661,0.056
		l1.506,0.544l1.717-0.136l0.625,0.136l0.47,0.352l0.47,0.5l0.59,0.484l0.836,0.344l1.98,0.324l0.729,0.348l0.084-0.624l0.299-0.3
		l0.956-0.42l0.765-0.612l0.311-0.076l0.757-0.016l0.665-0.184l2.545-1.489l3.784,1.645l0.59,0.572l0.852,0.076l3.665,1.677
		l0.653,0.424l0.41,0.012l0.311,0.052l0.283,0.164l0.315,0.292l0.594,0.889l-0.068-0.032l0.434,0.58l0.235,0.24l6.166-0.692
		l1.219-0.496l0.745,0.6l0.621-0.208l0.605-0.584l0.729-0.48l0.323,0.504l0.538,0.464l0.538,0.064l0.275-0.664l1.35,0.868
		l0.323,0.108l0.49-0.416l0.442-1.321l0.574-0.28l0.896-0.204l3.282-1.477l0.135,0.276l0.167,0.132l0.183,0.096l0.211,0.168
		l0.275-0.396l0.406-0.216l0.478,0.004l0.51,0.272l0.458-0.444l0.187-0.516l-0.056-0.552l-0.255-0.528l0.239-0.016l0.052,0.072
		v0.144l0.044,0.168l0.434,0.088l0.287,0.728l0.06,0.944l-0.478,1.473l0.534,0.48l0.749,0.272l0.446,0.072l0.661-0.248l0.462-0.348
		l0.526-0.312l0.844-0.132l0.422-0.18l0.43-0.46l0.295-0.656l0.008-0.712h0.335l1.649,0.964l1.924,0.052l1.892-0.616l1.577-1.081
		l0.51-0.612l1.279-2.093l0.251-0.848l-0.167-0.592l-0.43-0.212l-0.558-0.108l-0.542-0.256l-0.418-0.48l-0.769-1.28l-0.486-0.592
		l0.335-0.488l0.394-1.04l0.267-0.52l0.271-0.3l0.605-0.524l0.335-0.344l0.725-0.568l0.956-0.512l0.904-0.704l0.586-1.104l0.04-0.54
		l-0.076-0.504l-0.299-0.936l-0.096-0.036l-0.574-0.328l-0.008-0.356l0.247-0.54l0.175-0.864l0.478-0.888l0.111-0.544l-0.111-0.284
		l-0.478-0.42l-0.112-0.276l0.056-0.34l0.12-0.152l0.128-0.108l0.816-2.255l1.669-1.092l2.131-0.216l2.155,0.612l1.091,0.54
		l0.542,0.368l0.374,0.436l0.235,0.716l-0.143,0.416l-0.275,0.312l-0.143,0.4l-0.438,0.856l-1.032,0.492l-2.211,0.528l-0.884,0.636
		l-1.091,1.128l-0.661,1.08l0.832,1l0.211,1.172l0.048,1.26l-0.128,0.776l-0.347,0.292l-0.944,0.188l-0.414,0.192l-0.602,0.504
		l-0.116,0.224l0.884,0.792l0.223,0.452l0.167,1.1l1.255,1.992l1.406,2.889l0.159,0.648l0.06,0.912l0.211,1.056l0.398,1.049
		l0.633,0.856l0.928,0.616l1.02,0.288l3.378,0.26l0.988,0.288l0.904,0.144l0.836-0.252l0.359-0.496l0.406-0.792l0.49-0.74
		l0.586-0.324l0.693-0.264l1.494-1.177l0.502-0.264l0.609-0.776l0.239-0.2l0.323-0.12l2.486-0.428l0.944-0.024l0.904,0.172
		l2.92,1.136l1.028,0.636l0.45,0.792l0.207,0.932l0.562,1.049l0.809,0.656l0.948-0.272l0.773-0.416l1.677-0.136l0.765-0.288
		l1.342-1.081l0.594-0.732l0.406-0.9l-0.287-0.624l0.143-0.48l0.378-0.176l0.398,0.304l1.458-0.776l1.35,0.472l1.103,1.052
		l0.773,0.924l1.49-0.152l0.542-0.176l0.359-0.296l0.797-1.048l0.996-0.26l1.012-0.636l0.892-0.78l0.621-0.708l0.474-0.996
		l0.084-1.032l-0.191-2.184l0.096-1.032l0.558-2.212l1.275-2.88l1.147-1.792l1.283-1.528l1.322-1.168l0.331-0.184l0.717-0.268
		l0.323-0.192l0.9-1.188l0.741-0.496l1.37-2.035l0.661-0.672l0.14-0.024l0.394,0.06l0.135-0.036l0.024-0.132l-0.056-0.416
		l0.032-0.124l0.45-0.192l1.291-0.372l0.454-0.288l0.406-0.372l0.601-0.38l0.689-0.292l0.649-0.116l0.606-0.264l0.255-0.64
		l0.283-1.475h0.335l0.601,0.54l3.103,0.832l1.076,0.432l0.932,0.116l0.936-0.34l1.099-0.936l1.976,1.036l1.864,1.371l0.96-0.224
		l0.765-0.592l0.621-0.772l0.908-1.627l0.331-0.88l0.215-0.992l0.076-1.151l0.048-0.144l0.099-0.104l0.112-0.152l0.048-0.288
		l-0.112-0.288l-0.223-0.152l-0.231-0.096l-0.104-0.136l-0.139-0.544l-0.645-1.095l-0.219-0.556l-0.092-1.93l0.251-3.965
		l-0.466-1.874l-1.016-1.395l-0.478-0.903l-0.207-1.179l0.008-2.13l-0.183-0.963l-0.49-1.107l-0.641-0.791l-1.506-1.191
		l-0.558-0.735l-0.175-0.447l-0.096-0.427l-0.036-0.983l-0.171-0.587l-0.856-0.779l-0.335-0.491l-0.06-0.495l0.131-0.427
		l0.167-0.339l0.096-0.236l-0.072-0.491l-0.574-1.366l-0.299-1.138l0.104-0.791l0.542-0.755l0.968-1.031l0.741,0.28l2.701,0.499
		l1.936-0.076l0.657,0.124l0.876,0.395l0.498,0.152l0.617-0.092l0.629-0.192l0.426,0.12l-0.004,0.835l0.828-0.523l0.98-0.076
		l2.047,0.232l0.617,0.152l1.749,0.819l0.498,0.395l0.287,0.947l0.215,1.234l0.43,1.079l0.92,0.463l1.088,0.184l2.035,0.635
		l1.036-0.148l0.621-0.463l1.553-2.069l0.287-0.967l-0.597-0.839l-0.821-0.743l-0.374-0.679l0.446-0.943l0.836,0.112l0.988,0.511
		l0.9,0.32l0.414-0.04l0.502-0.104l0.442-0.152l0.179-0.176l0.247-0.14l1.247,0.292l0.514,0.016l0.621-0.739l0.227-1.078
		l0.394-0.939l1.123-0.296l0.753,0.851l0.884,0.691l0.729,0.807l0.606,2.197l-0.112,0.391l-0.697,0.152l-0.299-0.02l-0.86-0.188
		l-0.335-0.16l-0.143-0.375l-0.112-0.583l-0.247-0.443l-0.534,0.036l-0.271,0.463l0.028,0.711l0.243,1.198l0.016,1.846l0.382,0.575
		l0.972,0.296l0.263-0.112l0.323-0.224l0.45-0.16l0.637,0.128l0.375,0.324l0.342,0.459l0.43,0.407l0.669,0.184l3.019,0.335h0.876
		l2.044-0.623l0.693,0.008L596.259,193.18z M237.03,178.542l0.86,0.379l0.474,0.579l0.135,0.763l-0.135,0.926l-0.295,0.751
		l-0.47,0.411l-0.713,0.172l-1.04,0.032l-0.801-0.296l-0.458-0.727l-0.215-0.943l-0.044-0.898l0.167-0.603l0.382-0.12l0.362,0.12
		l0.116,0.12l0.84-0.691l0.367-0.164L237.03,178.542z M634.133,150.283l1.478-1.117l0.562-0.191l0.872,1.125l0.378,0.742
		l0.056,0.814l-0.386-0.204l-0.096,0.012l-0.024,0.108l-0.131,0.084l-0.633-0.515l-1.458-0.507L634.133,150.283z M639.51,145.263
		h1.287l0.729,0.495l0.247,0.834l-0.223,1.01l-0.605-0.854l-0.948-0.084l-1.091,0.235l-1.06,0.064l0.239-0.563l0.406-0.455
		L639.51,145.263z M705.117,140.054l1.16,2.317l2.492,4.111l1.042,2.374l-0.298,0.93l-1.363-2.836l-1.021-2.611l-1.817-2.608
		l-1.589-2.722l-2.951-1.701l2.084,0.254l1.566,0.754L705.117,140.054z M607.647,132.816l0.227,0.295l0.586,0.1l0.191,0.275
		l0.028,0.491l-0.1,0.427l-0.263,0.758l-0.669,1.609l0.139,0.968l-0.474,0.463l-0.49-0.227l-1.522-1.233l-0.331-0.383l-2.531-2.749
		l-0.418-0.63l-0.417-0.996l0.214-1.1l1.002-0.888l1.108-0.836l1.847-0.206l1.872,0.518l-0.092,2.705L607.647,132.816z
		 M526.471,125.121l0.55,0.1l0.462-0.056l0.366,0.076l0.287,0.514l-0.84,0.223l-0.825,0.447l-0.303-0.742l-0.498-0.16l-1.243,0.231
		h-2.151l-2.426-0.542l-1.076,0.028l-0.661,0.857l-0.749-0.283l-0.442,0.155l-0.394,0.299l-0.606,0.156l-0.339-0.231l0.41-0.543
		l1.115-0.893l0.757,0.16l1.159-0.754l2.067-1.723l2.94,0.993l1.099,0.654l0.896,0.79L526.471,125.121z M579.302,123.111
		l0.312,0.604l0.047,1.36l-0.788,0.783l-0.563,1.102l-1.269,0.042l-0.989-1.414l-0.624-1.1l0.058-1.726l-0.188-0.633l-0.55-0.172
		l-0.542-0.271l-0.438-0.61h0.335l-0.048-0.67l0.37-0.67l0.538-0.243l0.478,0.578l0.629,1.089l0.892,0.973l1.031,0.637
		L579.302,123.111z M576.446,117.726l-0.359,0.666l-0.92,0.53l-1.064,0.347l-1.849,0.66l-0.574-0.367l0.005-1.515l-0.153-1.206
		l-0.204-1.73l0.216-2.356l1.114,0.029l2.075,0.73l0.374,0.195l0.94,0.845l0.231,0.132l-0.056,0.443l0.139,0.957l-0.108,0.941
		l-0.813,0.363l0.08,0.132l0.255,0.566l0.462-0.287L576.446,117.726z M574.94,110.668l-1.087-0.55l0.004-1.216l0.749-1.156
		l1.171-0.423l0.777,0.403l0.645,0.801l0.402,0.79l0.028,0.351l-0.155,0.16l-0.135,0.343l-0.239,0.343l-0.486,0.156H574.94z
		 M631.464,189.458l-0.454,2.72l-0.056,1.242l0.51,1.262l-1.227,1.374l-2.844,2.377l-0.637,1.642l0.155,0.947l0.478,0.595
		l0.574,0.495l0.466,0.639l0.191,0.695l0.072,0.763l-0.072,0.791l-0.191,0.771l-0.358,0.416l-1.195,0.751l-0.422,0.512l0.072,1.239
		l-0.072,0.436l-0.283,0.468l-0.697,0.544l-0.354,0.36l-0.355,0.648l-0.566,1.591l-0.418,0.779l-0.442,0.456l-0.47,0.34
		l-0.438,0.452l-0.323,0.768l-1.076-0.324l-0.45,0.688l-0.279,1.095l-0.562,0.891l-0.41-1.483l-0.761-1.439l-1.191-1.227
		l-1.681-0.883l0.147-1.203l-1.326-1.247l-1.745-1.199l-1.115-1.079l-0.239-0.791l-0.068-2.709l-0.215-0.324l-1.048-0.516
		l-0.41-0.316l-0.115-0.344l-0.375-2.469l-0.49-1.582l-0.048-0.663l0.908-2.325l0.084-0.355l0.609-5.261l-0.574-1.174l0.287-0.591
		l-0.02-0.639l-0.231-0.603l-0.394-0.507l0.45-0.935l0.032-0.883l-0.335-0.859l-1.271-1.661l-2.426-4.832l-0.311-1.398l-0.35-0.835
		l-0.809-1.394l-1.028-1.03l-0.434-0.619l-0.175-0.862l-0.167-0.22l-0.729-0.503l-0.167-0.271l-0.052-0.563l-0.139-0.531
		l-0.211-0.451l-0.267-0.311l-0.378-0.156l-0.888-0.048l-0.434-0.16l-0.295-0.379l-0.518-1.05l-0.868-0.623l-4.135-5.15
		l-0.167-0.483l0.203-1.138l-0.048-0.395l-0.454-0.379l-0.737-0.483l-1.211-1.201l-0.538-0.69l-0.538-1.329l-0.733-0.327
		l-0.892-0.191l-0.765-0.279l-0.167-0.243l-0.359-0.838l-0.175-0.287l-0.446-0.315l-0.92-0.439l-1.295-0.982l-0.908-0.144l-1,0.012
		l-7.246-1.401l-1.888-0.718l-6.676-4.078l-9.624-9.556l-0.781-0.491l-3.059-0.694l-2.944-1.197l-0.43-0.311l-0.108-0.239
		l-0.227-0.247l-0.227-0.335l-0.191-0.973l-0.215-0.375l-0.729-0.67l-3.231-1.791l-0.924-0.738l-0.342-0.195l-2.231-0.866
		l-1.087-1.061l-0.514-0.399l-0.872-0.255l-0.88-0.152l-0.673-0.327l-0.275-0.758l-1.195-1.161h-0.996l-0.382-0.072l-0.04-0.179
		l0.056-0.223l-0.12-0.195l-0.717-0.451l-0.653-0.55l-0.088-0.148l-0.12-0.383l-0.096-0.14l-0.653-0.363l-0.207-0.167l-0.394-0.239
		l-0.53-0.155l-1.689-0.215l-0.386-0.255l-0.546-0.642l-0.601-0.554l-0.311-0.223l-0.418-0.227l-0.518-0.14l-1.203-0.152
		l-1.374-0.678l-1.008-0.08l-3.824,0.71l-2.04-0.008l-1.745-0.51l-1.02-1.176l0.048-0.602l0.362-0.714l0.621-0.339l0.816,0.494
		l0.892,0.391l1.028-0.399l1.912-1.176l1.036,0.77l0.797-0.742l0.044-1.093l-1.239-0.303l0.765-0.734l-0.123-0.518l-0.55-0.311
		l-0.546-0.108l-0.948-0.068l-0.653-0.175l-1.593-0.734l1.004-2.01l-0.096-0.148l-0.08-0.435l0.112-0.307l1.044,0.538l0.414,0.479
		l0.342,0.534l0.454,0.502l1.574,0.925l0.275,0.072l0.255,0.59l0.57,0.391l1.151,0.542l1.219,1.547l0.518,0.459l0.374,0.12
		l2.071,0.323l0.438,0.227l0.323,0.227l0.283,0.108l0.183,0.219l0.43,1.069l0.271,0.387l0.554,0.227l0.578,0.056l0.59,0.16
		l0.589,0.255l3.011,1.276l1.012,1.077l0.382,1.843l0.852,1.204l1.976,0.407l3.673-0.116l0.55,0.116l0.303,0.295l0.215,0.391
		l0.279,0.395l0.474,0.219l0.498-0.096l0.458-0.195l0.378-0.096l1.08,0.211l0.936,0.411l0.857,0.598l0.836,0.762l1.502,1.843
		l0.303,0.08l1.088,0.02l0.454,0.068l2.808,2.062l0.562-0.06l3.8,2.377l0.908,1.005l0.506,0.87l0.809,1.073l1.063,0.682l1.299-0.255
		l0.291,1.225l0.597,0.834l0.745,0.471l0.701,0.144l1.805-0.088l0.574,0.088l0.992,0.559l0.605,0.12l0.733-0.335l0.514,0.291
		l0.793,0.746l0.916,0.646l0.179,0.02h1.53l0.474,0.14l0.653,0.487l0.259,0.048l0.55-0.008l0.406,0.048l0.048,0.128l-0.052,0.215
		l0.112,0.279l0.06,0.195l-0.092,0.587l0.032,0.224l0.12,0.072l0.406,0.16l0.112,0.072l0.307,0.383l1.812,1.78l2.406,3.527
		l1.303,1.445l1.502,1.245l1.761,1.053l3.466,1.596l0.753,0.806l0.944,0.503l0.215,0.271l0.299,1.844l0.203,0.208l0.414,0.096
		l0.267,0.184l0.195,0.263l0.271,0.539l0.562,0.706l0.43,1.149l0.362,0.567l0.98,0.619l0.988-0.036l0.836-0.503l0.538-0.75
		l0.649,0.71l0.653,0.926l0.502,0.994l0.203,0.89l0.211,0.479l0.916,0.978l0.211,0.551l-0.1,0.595l-0.199,0.487l-0.131,0.495
		l0.239,0.583l0.458,0.427l0.414,0.483l-0.012,0.144l0.506,0.188l0.522,0.1l1.151,0.048l1.227,0.236l0.868,0.599l0.781,0.762
		l0.988,0.747l0.936,0.483l0.904,0.331l0.94,0.192l1.095,0.06l1.004-0.423l0.693-0.711l0.55-0.144l0.621,1.278l0.107,0.491
		l0.084,1.002l0.116,0.487l0.247,0.479l0.629,0.882l0.12,0.479l0.406,0.767l0.948,0.355l1.123,0.08l0.9-0.028l0.028-0.092
		l0.669-0.579l0.502,0.643l0.072,0.647l-0.06,0.679l0.12,0.739l0.518,0.715l1.561,1.274l0.633,0.667l1.302,2.708l0.801,1.118
		l0.454,0.839l-0.072,0.391l0.908,0.375l1.175,0.935l1.012,1.158L631.464,189.458z M500.671,104.284l0.275,0.71l-0.275,0.678
		l-0.454,0.702l-0.239,0.773l0.036,0.818l0.111,0.658l0.215,0.55l0.331,0.494l-0.335,0.546l-0.339,0.239l-1.052,0.215l-1.832,0.67
		l-0.518,0.116l-0.494,0.168l-0.358-0.02l-0.143-0.443l-0.327-0.55l-0.733,0.132l-0.789,0.467l-0.49,0.466l-0.267-0.195
		l-0.494-0.279l-0.243-0.223l-0.789,0.231l-3.669,0.183l-0.394,0.08l-0.359,0.016l-0.466-0.148l-0.418-0.323l-1.589-1.711
		l-1.052-0.586l-0.442-0.347l-0.801-2.416l-2.067-2.464l-0.717-0.546l-1.111,0.379l-1.47-0.682l-1.076-1.045l0.048-0.718
		l0.331-0.183l0.303,0.175l0.311,0.271l0.358,0.1l0.454-0.191l3.561-2.452l0.777-0.128l0.665-0.004l0.566-0.068l0.51-0.335
		l1.968-0.694l0.048-0.144l0.637-0.104l0.996-0.454l0.709-0.112l1.095,0.427l2.665,1.623l1.087-0.008l0.43,0.251l1.279,0.578
		l0.478,0.116l0.167,0.096l0.454,0.466l0.227,0.159l1.315,0.307l1.362,0.514l1.159,0.845l0.566,1.176l-0.386,1.511l0.506-0.223
		L500.671,104.284z M371.527,89.836l1.064,1.331l0.745,0.662l0.86,0.383l-1.127,1.882l-0.888,0.805l-1.155,0.319h-2.02l-0.737-0.08
		l-0.458-0.223l-0.992-0.725l0.107-0.335l0.092-0.136l0.135-0.167l1.267,0.375l1.171-0.458l0.629-1.005l-0.366-1.256l0.442-0.263
		l0.378-0.371l0.215-0.387l-0.032-0.351H371.527z M352.248,77.407l0.454,0.311l0.124,0.717l-0.076,1.507l-0.581,1.236l-1.41,0.295
		l-1.757-0.088l-1.629,0.096l0.243-0.255l0.454-0.781l-0.992-0.016l-0.514,0.267l-0.275,0.562l-0.251,0.861h-0.335l-0.358-0.773
		l-0.478,0.829l-0.362,1.299l0.016,0.678l-0.566,0.431l-1.549,1.985l-0.745,0.598l-0.526,0.151l-0.426,0.032l-0.442-0.052
		l-0.582-0.132l-1.792-0.869l-0.43-0.135l-1.079,0.239l-1.888,0.989l-1.219,0.112v-0.223l0.068-0.148l0.267-0.299l-1.565,0.518
		l-1.522,0.319l-1.665,0.072l-5.608-0.909l-0.227-0.119l-0.378-0.447l-0.255-0.104l-0.299,0.056l-0.45,0.223l-0.243,0.056
		l-0.283-0.156l-0.271-0.347l-0.342-0.347l-0.47-0.156l-0.247-0.135l-0.422-0.67l-0.183-0.231l-0.35-0.219l-0.223-0.084h-0.912
		l-1.195-0.351l-0.291,0.024l-0.259,0.435l0.02,0.43l0.263,0.335l0.446,0.14l0.729,0.311l0.406,0.686l-0.076,0.694l-0.725,0.311
		l-1.832,0.311l-0.86-0.155l-0.486-0.825l-0.92,0.399l-0.88,0.215l-0.645,0.367l-0.558,1.714l-0.737,0.183l-0.884-0.383
		l-0.753-0.821l-0.299-0.678l-0.578-1.965l0.028-0.53l0.765-0.933l0.434-0.271l0.844,0.323l0.502-0.028l1.565-0.407l0.37-0.04
		l0.239-0.207l0.167-0.646l-0.104-0.51l-0.315-0.626l-1.147-1.471l-0.263-0.47l-0.155-0.518l-0.048-0.582l0.072-0.646l0.203-0.14
		l0.753,0.283l0.179,0.183l0.227,0.335l0.346,0.247l0.554-0.104l0.175-0.371l0.37-1.363l0.323-0.299l0.143-0.056l0.084-0.112
		l0.143-0.112l0.283-0.056l0.287,0.108l0.454,0.478l0.271,0.116l0.534-0.068l0.801-0.263l0.514-0.036l0.609,0.132l1.191,0.442
		l0.717,0.096l0.629-0.159l1.896-1.148l1.291-0.423l1.179-0.072l1.103,0.247l1.103,0.55l1.235-0.414l8.317,0.414l0.458,0.247
		l0.57,0.578l0.518,0.674l0.295,0.542h0.335l0.219-0.781l0.594-0.423l0.602-0.036l0.287,0.383l0.291,0.546l0.701,0.096l1.374-0.12
		l2.008,0.845l0.362-0.016l0.311,0.199l2,0.646l0.793-0.183l1.303,0.02l1.259,0.263l0.689,0.562h0.335v-1.339l-0.147-0.423
		l-0.454-0.761l-0.096-0.335l-0.378-0.458l-0.669-0.45l-0.299-0.363l0.733-0.215l0.494,0.279l0.789,0.849L352.248,77.407z
		 M464.936,52.42l0.199,0.347l0.629,1.506l0.518,0.932l1.06,1.458l0.43,0.984l-0.801,0.056l-1.143,0.59l-0.697,0.024l-0.466-0.171
		l-0.143-0.211l-0.088-0.263l-0.311-0.359l-0.805-0.626l-0.398-0.235l-0.466-0.171l-0.048,1.415l-0.801-0.267l-1.705-1.454
		l-0.482-0.147l-0.466-0.363l-1.016-1.02l-0.215-0.446l-0.171-0.227l-0.283-0.131l-0.633,0.048l-0.255-0.084l-0.653-0.761
		l-0.287-0.869l-0.06-1.909l1.589-3.275l0.414-0.598l0.303,0.287l0.43,0.1l1.123-0.024l0.438,0.163l1.079,1.175l2.999,1.665
		l0.677,0.673l0.119,0.586l-0.064,0.542l0.032,0.534L464.936,52.42z M683.1,199.037l1.382,0.583l1.056,1.095l0.594,1.363
		l-0.02,1.387l-1.048,1.271l-1.323-0.428l-0.976-1.271v-1.283l0.287,0.488l0.406,1.107l0.311,0.42l0.546,0.344l0.335-0.044
		l0.637-0.771l0.251-1.151l-0.765-1.195l-1.127-0.983l-0.88-0.563l-0.072,0.064l-0.052,0.08l-0.08,0.096l-0.131,0.096l0.048-0.344
		l0.155-0.16L683.1,199.037z M681.104,197.735l-0.227-1.023l-0.418-1.083l-0.179-0.883l0.498-0.4l0.319,0.479l0.211,0.919
		l0.131,1.99H681.104z M599.617,182.923l0.809,0.843l0.151,0.907l-0.243,0.943l-0.418,0.967h-0.299l-0.315-0.12l-1.115-0.264
		l-0.243-0.088l-0.028-0.655l-0.12-0.519l-0.311-0.403l-0.574-0.299l1.259-0.847l0.39-0.459l0.386-0.699l0.514,0.479
		L599.617,182.923z M657.288,178.231l-0.359,0.311l0.641,2.12l-0.669,1.566l-1.334,0.383l-1.314-1.422l-0.143-0.084l-0.195,0.052
		l-0.187-0.008l-0.115-0.264l0.008-0.331l0.104-0.22l0.12-0.2l0.327-0.735l0.645-0.783l0.131-0.232l0.426-0.535l0.888-0.511
		l0.825-0.024L657.288,178.231z M659.952,176.194l0.92,0.132l0.442,0.639l-0.072,0.767l-0.621,0.499l-0.661-0.092l-0.534-0.423
		l-0.585-0.343l-0.864,0.16l0.374-0.495l1.076-0.483L659.952,176.194z M580.425,492.256l0.227-0.555l0.538,0.02l-0.12,0.462
		L580.425,492.256z M569.419,489.409l-0.06-0.348l0.442-0.182L569.419,489.409z M568.591,485.166l0.47-0.461l0.111,0.219l-0.39,0.51
		L568.591,485.166z M213.604,151.696l0.486,0.136l0.414,0.303l0.056,0.371l-0.303,0.164l-0.291-0.088l-0.382,0.016l-0.195-0.04
		l-0.175-0.192l0.036-0.375L213.604,151.696z M187.236,137.749l0.583-0.874l1.093-0.438l1.238,1.31l0.656,0.727l-0.947,0.875
		l-1.675-0.435L187.236,137.749z M126.373,65.14l0.02-1.044l0.733-0.733l0.924-0.215l0.641,0.522l-0.311,0.1l-0.697,0.359
		l-0.773,0.502L126.373,65.14z M528.06,454.326l0.267,0.21l0.199,0.347l-0.143,0.529l-0.653,0.4l-0.271-0.226l-0.072-0.582
		l-0.239-0.299l-0.139-0.202l-0.311-0.376l-1.366-0.731l-0.665-0.638l0.219-0.743l0.884-0.493l0.904-0.105l0.753,0.234l0.514,0.315
		l0.131,0.465l0.143,0.073l0.012,0.263l-0.187,0.816l-0.239,0.109l-0.127,0.044l0.052,0.388l0.096,0.178L528.06,454.326z
		 M175.212,397.642l0.303,0.213l0.04,0.487l-0.462,1.055l-0.852,0.367l-0.661-0.528l-0.112-0.709l0.586-0.455l0.538-0.165
		l0.327-0.209L175.212,397.642z M168.281,392.456l0.096,0.447l0.263,0.648l-0.131,0.435l-0.55,0.322l-0.952-0.105l-1.103-0.669
		l-1.757-2.009l-2.398-1.075l0.478-0.684l2.398-0.177l1.876,0.395l0.928,0.701l0.574,0.886L168.281,392.456z M167.724,378.545
		l0.828,0.579l0.502,0.773l-0.092,0.837l-1.056,0.684l-1.609-0.133l-0.98-1.28l-0.705-1.388l0.681-0.785l1.338,0.197l0.657,0.266
		L167.724,378.545z M168.345,375.802l0.526,0.619l0.55,1.215l-0.351,0.459l-0.709-0.338l-1.346-0.427l-2.023-0.149l-1.239-0.648
		l-0.386-0.869l-0.474-1.042l0.665-0.579l1.701,0.092l2.127,0.966L168.345,375.802z M536.079,220.004l0.849,0.492l0.856,0.828v0.732
		l-0.809,0.7l-0.53,0.208l-1.219,0.22l-0.876-0.14l-0.398-0.328l-0.661-0.42l-0.59-0.612l0.104-0.568l0.725-0.632l0.362-0.256
		l0.801-0.392l0.753-0.048L536.079,220.004z M163.92,145.758l-0.817,0.008l-1.378-0.551l-0.315-0.084l-0.53-0.239l-0.781-0.658
		l0.068-0.443l0.299-0.347l0.06-0.543l0.346-0.303l0.972,0.128l1.275,0.654l1.227,0.91l0.311,0.926L163.92,145.758z M478.113,62.167
		l0.713-0.032l0.227,0.136l-0.287,0.319l-0.837,0.223l-1.267-0.08l-0.729-0.271l-0.179-0.159l-0.382-0.112l-0.406,0.116l-0.12,0.155
		l-0.084,0.215l-0.418,0.096l-0.486-0.394l-0.255-0.626v-0.51l0.406-0.12l1.123,0.351l0.438-0.398l0.195-0.825l0.382-0.155
		l0.554,0.61l0.283,0.693l0.394,0.562L478.113,62.167z"/>
</g>
<g id="Copyright">
	<text transform="matrix(1 0 0 1 681.6426 577.5916)" class="st1 st2"> Vemaps.com</text>
</g>
</svg>
