<?xml version="1.0" encoding="utf-8"?>
<!-- Generator: Adobe Illustrator 23.0.1, SVG Export Plug-In . SVG Version: 6.00 Build 0)  -->
<svg version="1.1" xmlns="http://www.w3.org/2000/svg" xmlns:xlink="http://www.w3.org/1999/xlink" x="0px" y="0px"
	 viewBox="0 0 800 600" style="enable-background:new 0 0 800 600;" xml:space="preserve">
<style type="text/css">
	.st0{fill:#808080;}
	.st1{font-family:'Roboto-Regular';}
	.st2{font-size:14px;}
</style>
<g id="Pakistan">
	<path class="st0" d="M681.454,113.569l-0.227,0.146l-0.67,0.878l0.137,1.029l0.284,1.171l-0.23,1.32l-0.539,0.721l-2.089,1.689
		l-0.664,0.749l-0.442,0.346l-0.528-0.103l-0.915-0.591l-0.937-0.265l-1.235,0.109l-1.217,0.418l-0.847,0.668l-0.28,0.976
		l0.129,2.275l-0.327,0.807l-3.17,3.058l-0.452,0.247l-3.001,0.647l-0.603-0.015l-0.553-0.208l-1.508-1.127l-1.332-0.216
		l-1.328,0.514l-4.789,2.793l-3.72,0.971l-1.152,0.033l-2.204-0.952l-1.214,0.264l-0.553,0.508l-0.722,1.229l-0.463,0.578
		l-0.248,0.137l-0.937,0.297l-2.269,1.716l-2.007,2.097l-0.707,0.579l-0.65,0.173l-1.468-0.203l-0.736,0.004l-2.018,0.487
		l-1.526-0.059l-9.155-2.482l-1.429-0.708l-1.372-1.025l-0.56-0.624l-0.503-0.794l-0.429-0.284l-0.404-0.268l-1.271-0.017
		l-2.269,0.495l-3.238,0.166l-12.257-2.475l-8.782-3.219l-2.197-0.378l-2.19,0.192l-2.226,0.894l-2.603,1.939l-0.901,0.465
		l-5.511,0.958l-0.474,0.229l-1.016,0.853l-0.065,0.982l0.276,1.093l0.018,1.199l-0.521,0.844l-1.662,1.177l-0.56,0.959v0.007
		l-0.05,1.589l-0.18,0.508l-0.305,0.337l-0.862,0.473l-0.366,0.279l-0.571,0.946l-0.172,1.057l0.273,1.016l0.747,0.813l0.865,0.511
		l0.84,0.334l0.894,0.132l0.987-0.105l1.052,0.109l0.578,0.716l0.775,2.086l0.481,0.8l0.269,0.912l-0.1,0.855l-0.65,0.625
		l-2.079,1.104l-0.819,0.861l-0.309,1.281l0.323,1.254l0.783,1.105l1.027,0.761l1.073,0.218l2.373-0.622l0.704,0.045l1.845,0.663
		l1.246-0.066l1.314-0.325l1.26-0.043l1.088,0.775l0.438,1.351l-0.341,1.348l-0.797,1.211l-0.937,0.945l-1.217,0.874l-1.224,0.557
		l-3.741,0.654l-0.808,0.758l-1.203,2.155l-0.208,0.495l-0.158,0.523l-0.108,0.542l-0.079,1.222l0.079,0.648l0.183,0.613
		l0.291,0.572l1.652,1.424l2.219,1.208l1.856,1.497l0.564,2.298l-0.747,3.174l-1.07,3.029l-0.33,0.695l-0.377,0.589l-0.456,0.5
		l-0.578,0.426l-1.303,0.521l-0.56,0.388l-0.345,0.731l-0.115,1.825l0.481,1.284l0.941,0.977l1.264,0.894l1.135,1.152l1.924,2.68
		l1.285,0.749l3.235,0.55l0.948,0.602l0.373,0.921l0.086,2.096l0.424,2.121l-0.1,0.863l-0.377,0.775l-0.207,0.309l-0.036,0.054
		l-0.328,0.489l0.341,0.778l0.452,0.605l0.585,0.394l0.747,0.139l0.65-0.175l1.131-0.696l0.686-0.057l0.578,0.305l1.012,1.035
		l0.571,0.311l0.697,0.03l1.835-0.3l0.682-0.22l0.718-0.518l0.276-0.62l0.147-0.712l0.334-0.803l0.614-0.634l0.632-0.13l0.47,0.387
		l0.133,0.926l-0.237,0.888l-0.88,1.735l-0.251,0.917l0.014,0.905l0.248,1.677l-0.043,0.822l-0.28,0.703l-0.384,0.716l-0.255,0.749
		l0.104,0.821l1.041,2.876l0.93,1.113l1.239,0.434l1.339-0.077l1.246-0.412l1.346-0.09l2.391,1.222l1.44-0.148l1.468-0.601
		l1.145-0.119l1.084,0.441l1.296,1.078l1.174,0.724l2.438,0.594l1.181,0.704l2.37,1.964l0.99,0.82l0.905,1.154l0.212,0.933
		l-0.363,0.808l-1.113,1.284l-0.284,0.692l-0.359,1.4l-0.118,0.447l-1.088-0.083l-0.467,0.083l-0.815,0.28l-1.066,0.551
		l-0.786,0.776l0.036,0.939l-0.445-0.047l-0.797-0.227l-0.298,0.133l-0.377,0.377l-0.302,0.14l-0.284-0.019l-2.129-0.816
		l-0.632,0.136l0.262,1.159l-0.348,0.023l-0.855-0.064l-0.327,0.172l-0.266,0.402l-0.154,0.345l-0.215,0.29l-0.424,0.233
		l-0.844,0.097l-0.783-0.085l-0.686,0.123l-0.553,0.705l-1.547-0.563l-0.603,0.889l-0.305,1.429l-0.653,1.064l-0.718,0.159
		l-2.244-0.461l-0.987,1.887l-0.445,0.347l-0.56,0.209l-2.621,2.046l-0.528,0.554l-0.334,0.659l-0.118,0.898l-0.014,0.538
		l-0.065,0.188l-0.151,0.135l-0.269,0.382l-0.065,0.192l-0.101,0.488l-0.072,0.182l-0.1,0.093l-0.273,0.127l-0.075,0.059
		l-0.37,0.654l-0.111,0.137l0.348,0.462l1.95,3.577l1.005,3.862l1.045,1.617l0.09,0.77l-0.183,0.762l-0.413,0.654l-0.567,0.715
		l-0.42,0.704l-1.368,3.5l-0.24,0.935l-0.007,1.821l-0.557,1.614l-0.093,0.823l0.111,0.785l0.183,0.579l0.302,0.508l0.46,0.575
		l0.567,0.252l1.522-0.277l0.696,0.021l0.521,0.314l0.635,0.583l0.298,0.379l-2.011,1.102l-0.747,0.564l-0.528,0.716l-0.007,0.838
		l-0.531,0.494l-0.485,0.645l-0.539,0.559l-0.689,0.241l-0.772,0.017l-0.65,0.109l-0.589,0.293l-0.6,0.561l-0.38,0.699l-0.147,0.569
		l-0.273,0.32l-0.75-0.056l-0.905-0.268l-0.388-0.034l-0.442,0.094l-0.366,0.251l-0.294,0.362l-0.233,0.423l0.255,0.732
		l-0.388,0.719l-0.704,0.546l-0.686,0.213l-0.122,0.167l0.316,0.803l0.032,0.286l-0.262,0.297l-0.524,0.395l-0.291,0.288
		l-0.715,1.078l-0.567,0.503l-0.266,0.322l-0.226,0.816l-0.506,0.39l-0.115,0.326l-0.108,0.574l-0.277,0.215l-0.801,0.165
		l-0.736,0.373l-0.542,0.367l-0.474,0.455l-0.513,0.62l-0.359,0.765l0.04,0.69l0.111,0.761l-0.136,0.978l-0.467,0.513l-1.379,0.392
		l-0.291,0.321l-0.215,0.531l-1.763,2.489l-0.341,0.281l-0.438,0.077l-0.582-0.2l0.075,0.262l0.075,0.57l0.065,0.266l-0.643-0.069
		l-0.693,0.366l-0.553,0.595l-0.226,0.633l-0.101,0.16l1.713,0.934l0.704,1.046l0.79,1.719l0.496,1.76l-0.072,0.531l-0.086,0.635
		l-5.769,4.859l-1.339,0.757l-6.319,1.441l-5.996,2.816l-0.517,0.601l-1.49,4.891l-1.483,4.86l-1.802,5.879l-1.906,3.717
		l-1.705,3.315l-2.711,5.261l-2.161,2.928l-0.894,1.503l-1.131,2.748l-0.424,0.589l-0.578,0.406l-4.481,2.354l-3.96,2.078
		l-4.617,2.423l-4.983,2.613l-0.959,0.667l-2.581,3.17l-0.826,1.646l-2.039,7.937l-0.7,1.889l-0.962,1.709l-1.354,1.427
		l-4.265,3.531l-2.775,3.646l-0.395,0.789l-0.187,0.727l-0.402,4.809l-0.194,0.599l-0.47,0.373l-5.54,1.708l-4.886,1.503
		l-2.905,0.24l-2.755-0.233l-3,0.262l-2.957,0.643l-2.628,0.901l-4.276,2.135l-3.953,1.971l-2.856,0.642l-2.425-0.327l-1.784-1.231
		l-1.343-1.961l-1.077-2.502l-0.108-0.764l0.138-1.456l-0.293-0.801l-0.416-0.492l-0.984-0.801l-1.149-1.335l-0.865-0.689
		l-0.977-0.511l-1.027-0.326l-0.729-0.1l-0.671,0.175l-1.343,0.539l-1.346,0.21l-0.61,0.191l-0.628,0.434l-1.95,2.17l-2.387,1.742
		l-0.346,0.36l-3.025,3.145l-0.391,0.714l-2.563,7.57l-0.811,1.157l-2.969,2.891l-2.086,3.402l-4.078,3.913l-2.24,1.576
		l-3.145,3.188l-1.429,2.453l-0.933,2.946l-0.75,4.805l-0.725,4.636l0.269,1.603l1.088,1.222l5.393,2.235l1.418,0.96l2.502,2.251
		l1.504,0.574l8.354-0.341l1.307,0.337l1.248,0.694l0.989,1.258l0.169,1.428l-0.206,3.196l0.122,1.537l-0.117,0.671l-0.32,0.805
		l-0.19,0.757l0.054,0.751l0.264,1.56l-0.163,1.419l-0.517,1.431l-1.867,3.127l-0.153,0.64l-0.034,1.379l-0.3,2.008l0.013,0.587
		l0.646,1.947l1.102,1.862l1.364,1.634l1.436,1.252l0.639,0.796l0.711,2.135l0.514,0.899l0.533,0.4l1.359,0.49l1.96,0.428
		l4.068-0.109l1.37-0.291l1.312-0.576l1.314-0.387l1.391,0.287l0.749,1.038l0.126,1.573l-0.162,3.38l-0.215,4.407l0.273,1.338
		l0.553,0.809l1.393,1.526l0.28,0.963l0.158,0.903l0.409,0.766l1.163,1.316l2.19,1.911l0.596,0.768l0.393,0.916l1.161,5.276
		l0.761,2.118l0.966,2.013l2.089,3.287l1.172,3.346l0.684,1.068l0.251,0.392l-0.713,0.517l-2.3,1.123l-0.499,0.913l-0.277,1.195
		l0.102,1.089l0.673,0.597l0.129,0.216l0.036,0.237l-0.048,0.254l-0.117,0.26l-0.082,0.767l-0.054,0.295l-0.004,0.29l0.043,0.284
		l0.097,0.277l0.797,0.459l1.389,0.234l1.214,0.395l0.269,0.95l-0.337,0.359l-1.666,0.603l-0.373,0.423l-0.251,0.429l-0.363,0.281
		l-0.679-0.025l-0.758-0.33l-0.661-0.049l-0.646,0.209l-2.125,1.445l-0.542,0.685l0.126,0.669l0.452,0.633l-0.212,0.259
		l-0.603,0.137l-0.713,0.26l-1.305,0.677l-0.714,0.2l-4.653-0.37l-1.278-0.638l-0.592-0.568l-0.258-0.55l-0.169-1.516l-0.337-1.341
		l0.029-0.418l0.19-0.238l0.6-0.401l0.208-0.387l-0.427-0.918l-1.458-0.032l-3.633,0.876l-1.583,1.128l-0.61,0.232l-1.899,0.108
		l-0.675,0.318l-1.269,0.933l-0.688,0.149l-0.715,0.043l-2.002,0.674l-1.212,0.114l-0.411,0.231l-0.372,0.62l-0.84,2.371
		l-0.377,0.695l-1.257,1.067l-1.526,0.336l-7.051,0.101l-1.892-0.229l-1.529-0.766l-2.718-2.892l-1.016-0.463l-9.805-0.266
		l-2.59,0.959l-1.373,0.206l-0.643-0.133l-1.957-0.962l-0.84-0.249l-0.668,0.122l-1.413,0.788l-0.939,0.349l-0.63-0.07l-0.485-0.497
		l-0.67-1.223l-0.258-0.31l-0.305-0.257l-0.312-0.127l-0.483,0.042l-0.181,0.226l-0.063,0.312l-0.109,0.305l-1.084,2.032
		l-0.352,0.288l-0.664-0.528l-0.203-2.215l-0.508-0.787l-1.802-0.08l-0.743,1.599l-0.013,3.06l-0.016,3.992l-0.021,5.282
		l-2.711-0.02l-3.425-0.024l-4.039-0.031l-1.601,0.255l-1.106,0.803l0.007-0.299l-0.05-0.357l-0.122-0.306l-0.217-0.15l-0.424,0.076
		l-0.02,0.32l0.133,0.384l0.047,0.268l-0.314,0.502l-0.415,0.452l-0.474,0.205l-0.494-0.223l-0.214-0.355l-0.083-0.296l-0.127-0.159
		l-0.35,0.067l-0.312,0.259l-0.079,0.343l0.014,0.337l-0.04,0.244l0.063,0.077l0.145,0.126l0.084,0.149l-0.124,0.138l-0.136,0.009
		l-0.341-0.066l-0.108,0.012l-0.244,0.152l-0.621,0.28l-0.269,0.18l-0.826,1.281l-0.018,0.046l0.004-0.052l-0.891-2.342
		l-0.037,1.181l0.037,0.374l0.093,0.24l0.297,0.496l0.065,0.185l-0.133,0.756l-0.628,1.485l-0.187,0.751l0.031,0.683l0.367,1.095
		l0.093,0.685L372.294,570l-0.65-0.519l-0.978-0.973l-0.116,0.931l-0.596,0.023l-0.659-0.548l-0.308-0.781l0.107-0.275l0.489-0.368
		l0.116-0.159l-0.04-0.706l0.04-0.188l0.254-0.655l0.226-0.147h0.486v-0.236l-0.481-0.392l-0.551-0.6l-0.455-0.76l-0.192-0.866
		l0.271-1.011l0.071-0.451l-0.557,0.074l-0.817-0.534l-0.37-0.153l0.972,3.307l0.43,0.867l-0.633,1.404l-0.39,0.677l-0.379,0.23
		l-0.192-0.216l-0.158-0.42l-0.107-0.456l-0.037-0.323l-0.178-0.204l-0.382,0.059l-0.339,0.167l-0.051,0.12l-0.348-0.099
		l-0.384-0.161l-0.32-0.264l-0.136-0.397l-0.122-0.253l-0.285-0.04l-0.322,0.015l-0.238-0.099l-0.184-0.38l0.045-0.495l-0.209-0.315
		l-0.277-0.076l-0.294,0.181l-0.506,0.544l-0.153-0.581l-0.042-1.407l-0.28-0.346l-0.212,0.853l-0.35,2.51l-0.254,0.527
		l-1.012-0.125l-1.02-0.315l-1.897-0.858l0.421,0.307l0.359,0.476l0.09,0.542l-0.396,0.514l-0.577,0.134l-0.766-0.066l-1.286-0.328
		l-0.35-0.031l-0.305,0.043l-0.212-0.065l-0.082-0.349l0.051-0.46l0.124-0.315l0.158-0.287l0.141-0.374l0.283-2.149l0.192-0.469
		v-0.237l-0.158,0.012l-0.034-0.062l0.006-0.108l-0.028-0.125l-0.43,0.651l-0.023,1.583l-0.283,0.668l-0.512,0.25l-0.517-0.158
		l-0.356-0.467l-0.034-0.689l-0.481,0.49l-0.294-0.178l-0.277-0.464l-0.399-0.365l-0.489-0.034l-0.085,0.3l0.201,0.427l0.373,0.343
		l-1.931-0.461L349,562.522l0.331-0.059l0.252,0.029l0.254-0.023l0.345-0.204l0.277-0.334l0.407-0.84l0.288-0.385l-0.348,0.144
		l-0.37,0.274l-0.376,0.192l-0.353-0.09l-0.068-0.38l0.099-0.609l0.229-0.851l-1.484-0.303l-0.432-0.217l0.588-1.303l0.351-0.398
		l0.486,0.167l0.961-0.648l0.345-0.375l0.113-0.584l-0.809,0.692l-0.718-0.077l-0.758-0.382l-0.924-0.232l-1.984,0.132l-1.026-0.155
		l-0.441-0.59l-0.147-1.24l-0.37-0.945l-0.908-1.617l-0.164-0.493l-0.079-0.496l-0.034-1.891l-0.136-0.308l-0.322-0.43l0.164-0.254
		l0.189-0.409l0.122-0.164l-0.238-1.014l0.693-0.506l1.06-0.136l0.905,0.095l-0.693-0.377l-0.597-0.144h-1.473l-0.393-0.438
		l0.068-0.992l0.452-1.695l-0.212,0.275l-0.24,0.205l-0.514,0.3l-0.068-0.987l-0.348-0.877l-0.56-0.797l-0.687-0.749l0.69-0.635
		l-0.141-0.278l-0.786-0.104l-0.331-0.465l-0.206-0.538l-0.119-0.564l-0.057-0.542l0.551,0.211l0.647,0.09l0.645-0.059l0.554-0.242
		l-0.998-0.644l-0.517-0.252l-0.645-0.149l-0.616,0.068l-0.444,0.138l-0.271-0.132l-0.088-0.74l0.257-1.064l0.645-0.986l0.848-0.839
		l0.857-0.624l0.984-0.513l0.09-0.291l-0.362-0.523l-0.433-0.347l-0.308,0.039l-0.387,0.192l-1.272,0.268l-0.303-0.093l-0.198-0.813
		l-0.195-0.389l-0.271-0.315l-0.297-0.134l-0.619,0.079l-0.373,0.132l-0.387,0.026l-0.65-0.238l-0.26,0.286l0.305,0.828
		l-0.653-0.288l-1.416-1.085l-0.622-0.134l-0.616-0.332l-0.498-0.419l-0.274-0.399h-0.257l0.006,0.695l0.082,0.291l0.17,0.297
		l-0.831-0.097l-0.67-0.449l-0.645-0.57l-0.738-0.453l-0.984-0.047l-0.919,0.31l-0.862,0.176l-0.794-0.439l-0.359,0.145l-1.84,0.218
		l-0.865,0.343l-0.407,0.078l-0.888-0.33l0.09-0.748l0.704-0.798l0.953-0.478v-0.262l-0.803-0.447v-1.468l0.546-2.935l0.088-2.294
		l0.17-0.73l0.317-0.631l0.65-0.863l0.198-0.623l-0.028-0.829l-0.546-1.209l-0.136-0.714l-0.254-0.309l-1.255-1.144l-0.506-0.252
		l-0.39-0.292l-1.843-1.807l-1.199-0.748l-0.447-0.613l0.204-0.762l0.888,0.233l0.413-0.778l-0.141-1.023l-0.794-0.509l-0.475-0.679
		l-0.308-1.35l-0.37-0.999l-0.636,0.376l-0.073-0.175l-0.113-0.179l-0.051-0.172l-0.452,0.154l-0.218-0.291l-0.127-0.486
		l-0.175-0.426l-1.173-1.279l-0.246-0.586l-0.865,0.276l-0.848-0.072l-0.526-0.442l0.102-0.839l-0.585,0.431l-0.698,0.246
		l-1.227,0.136l-0.415-0.053l-0.721-0.219l-0.43-0.014l-0.136,0.093l-0.203,0.19l-0.3,0.183l-1.244,0.259l-0.712,0.447l-0.565,0.599
		l-0.396,0.646l-0.639,1.366l-0.201,0.21l-0.373,0.146l-0.39,0.352l-0.336,0.426l-0.192,0.366l0.927-0.012l2.756-0.488l0.438-0.135
		l0.368-0.313l0.514-0.628l0.107-0.102l0.124-0.075l0.158-0.047l0.189-0.016l0.127-0.108l-0.017-0.252l-0.051-0.273l0.045-0.179
		l0.729-0.265l1.049-0.155l0.941,0.025l0.413,0.276l0.153,0.41l0.376,0.201l0.466,0.127l0.401,0.193l0.3,0.352l0.515,0.838
		l0.39,0.388l0.489-0.395l0.659-0.183l0.681,0.105l0.568,0.473l-1.204,1.049l1.402,0.895l0.475,0.626l-0.458,0.604l-0.503-0.078
		l-0.639-0.426l-0.99-0.833l-2.691-1.23l-1.657-0.373l-1.153,0.291l-0.933-0.213l-1.122,0.307l-1.128,0.46l-0.967,0.232
		l-3.132,0.027l-2.236,0.639l-2.784,0.424l-1.493-0.039l-0.803,0.08l-1.196,0.588l-0.823,0.247l-1.213,0.685l-1.425,0.263
		l-1.832,0.914l-0.678,0.113l-0.777-0.094l-4.919-1.392l-0.707-0.089l-0.755,0.171l-0.806,0.332l-0.769,0.219l-0.639-0.172
		l0.161-0.202l0.291-0.61l-1.131,0.066l-0.924,0.202l-0.797,0.325l-0.727,0.457l-1.131-0.594l-0.956,0.375l-0.735,0.878
		l-0.803,1.415l-0.271,0.283l-0.348,0.161l-0.517,0.13l-0.413,0.008l-0.882-0.233l-0.987-0.139l-1.069-0.344l-0.585-0.08h-2.132
		l-2.084-0.402l-1.077-0.05l-0.992,0.452l-0.763-0.336l-1.105-0.122l-2.185,0.172l-0.899,0.371l-0.783,0.646l-0.605,0.799
		l-0.345,0.833l-0.204,1l0.02,0.462l0.184,0.395l0.39,0.201l0.571,0.169l0.447,0.247l0.037,0.433l-0.274,0.023l-1.642,0.501
		l-0.5-0.033l-0.882-0.253h-0.517l0.924-1.476l0.025-0.647l-0.594-0.892l-0.611-0.369l-0.958-0.344l-0.984-0.216l-0.65,0.011
		l-0.41,0.333l-0.506,0.816l-0.41,0.162L244.406,511l-0.678,0.178l-0.303,0.044l-0.758-0.242l-1.204-1.174l-0.769-0.444
		l-1.476-0.357l-1.498-0.145l-0.322-0.098l-0.452-0.497l-0.283-0.192l-2.109-0.08l-3.107-0.661l0.008-0.54l0.311-0.69l0.113-0.676
		l-0.181-0.208l-0.328-0.197l-0.305-0.29l-0.136-0.488l0.144-0.405l0.348-0.194l0.433-0.056h0.39l0.814,0.169l0.348-0.125
		l0.153-0.57l-0.158-0.172l-0.351-0.075l-0.464-0.016l-1.589,0.385l-0.871,0.078l-0.384-0.332l-1.939,0.958l-0.452,0.487
		l0.515-0.149l0.198-0.114l0.249,0.676l0.26,0.183l0.339-0.21l0.475-0.518l0.475-0.011l0.447,0.667l0.622,1.314l-0.447,0.72
		l-0.243,0.066l-0.616,0.003l-1.289,0.21l-0.619,0.027l-0.602-0.236l-0.891,0.368l-1.303-0.242l-3.531-1.298l-2.332-0.397
		l-2.358,0.066l-2.267,0.354l-1.117,0.363l-0.63,0.338l-0.582,0.45l-0.941,1.071l-0.512,0.968l-0.368,0.272l-0.546-0.189
		l0.161,0.619l0.263,0.499l1.052,1.285l0.17,0.12l0.065,0.105l-0.028,0.256l-0.088,0.281l-0.127,0.253l-0.178,0.183l-0.212,0.07
		l-1.103-0.206l-2.001-0.9l-1.187-0.203l-2.392,0.284l-0.582-0.094l-1.64-0.716l-2.281-0.638l-1.196-0.111l-1.074,0.224l-2.16,1.188
		l-0.803,0.147l-2.968-0.284l-5.97-1.311l-5.751-0.157l-2.691,0.069l-1.747,0.197l-0.422,0.838l0.09,0.526l0.758,0.359l-0.693,0.286
		l-0.874-0.276l-1.06,0.284l-0.992,0.54l-0.673,0.501l-0.387,0.383l-0.404,0.536l-0.24,0.6l0.102,0.579l0.447,0.457l0.738,0.17
		l0.487,0.262l-0.215,0.537l-1.436,0.007l-1.729-0.1l-1.177-0.33l0.842-0.69l0.127-0.128l0.133-0.089l0.105-0.095l0.297-0.156
		l0.311,0.025l0.243-0.078l0.099-0.446l-0.492-0.963l-0.226-0.699l-0.774-0.566l-0.728-0.466l-0.988-0.078l-1.181-0.231
		l-1.619,0.064l-1.476,0.509l-0.788,0.307l-0.416,0.73l-0.315,0.634l0.49,0.424l0.165,0.877l0.385,0.357l0.288,0.434l-0.751,0.244
		l-1.38-0.088l-1.623-0.193l-2.071-0.057l-1.681,0.251l-0.39,0.734l-0.122,0.325l-0.311,0.329l-0.351,1.109l-0.421-0.019
		l-0.707,0.468l-0.847,0.323l-1.237,0.165l-0.879-0.319l-0.33-0.6l0.198-0.823l0.351-0.407l-0.254-0.52l0.136-0.328l0.594-0.487
		l0.365-0.425l0.093-0.253l0.04-0.5l0.102-0.409l0.464-0.648l0.124-0.408l-0.023-0.568l-0.122-0.119l-0.204,0.102l-0.237,0.084
		l-0.102,0.075l-0.305,0.333l-0.195,0.094l-0.181-0.069l-0.458-0.35l-0.201-0.083l-0.407-0.07l-0.212-0.159l-0.175-0.184
		l-0.288-0.134l-0.396-0.044l-1.134,0.044l-0.557-0.131l-0.345-0.019l-0.407,0.15l-0.842-0.061l1.105-3.203l0.208-3.239l0.244-3.828
		l0.208-3.296l0.144-2.249l0.118-0.553l0.205-0.37l0.51-0.508l0.219-0.301l0.101-1.33l-0.384-1.526l-0.172-1.419l0.732-1.015
		l0.736-0.177l0.671,0.016l0.603-0.14l0.528-0.644l0.194-0.68l0.366-2.695l0.438-3.214l0.33-2.405l0.276-2.081l0.319-2.354
		l0.294-1.2l0.506-1.042l0.84-0.658l4.19-1.193l1.248-0.831l0.646-0.32l0.713-0.22l1.438-0.242l0.316-0.398l0.126-0.954l0.589-0.942
		l1.307,0.174l1.544,0.549l1.303,0.182l0.754-0.401l-0.031-0.551l-0.339-0.713l-0.19-0.89l0.248-0.481l1.091-1.075l0.359-0.676
		l-0.032-0.241l-0.133-0.219l-0.104-0.255l0.065-0.341l0.219-0.293l0.301-0.191l0.679-0.271l0.284-0.163l0.449-0.329l0.287-0.128
		l0.327-0.034l0.732,0.034l0.359-0.094l0.201-0.185l0.284-0.506l0.273-0.213l0.33-0.096l5.813-0.618l0.711-0.249l0.289-0.227
		l0.275-0.289l0.298-0.185l0.373,0.076l0.388,0.191l0.296,0.022l1.074-0.245l0.3-0.112l0.258-0.141l0.233-0.179l0.359-0.665
		l0.266-0.353l0.377-0.11l2.366,0.06l2.721,0.066l3.141,0.078l1.354,0.209l1.372,0.038l1.012-0.227l0.332,0.03l0.3,0.139
		l0.251,0.179l0.271,0.141l0.35,0.016l0.779-0.765l0.366-1.553l0.277-5.649l0.253-0.614l0.573-0.3l1.411-0.227l0.521-0.475
		l0.111-0.712l-0.291-0.628l-0.434-0.634l-0.312-0.729l-0.176-4.402l0.05-0.46l0.147-0.391l0.37-0.53l0.129-0.393l0.381-0.627
		l0.682-0.296l0.759-0.006l0.598,0.236l-1.183-2.629l-0.497-0.733l-0.37-0.406l-0.316-0.202l-0.858-0.313l-0.395-0.244l-0.899-0.83
		l-0.433-0.156l-0.352-0.01l-1.899,0.606l-0.447,0.014l-0.58-0.06l-0.923,0.046l-1.82,0.563l-0.901,0.141l-2.023,0.402l-0.944,0.054
		l-1.097-0.24l-0.815-0.454l-0.28-0.093l-0.244,0.044l-0.477,0.279l-0.275,0.008l-0.522-0.287l-1.502-1.341l0.551-0.034l0.343-0.26
		l0.21-0.436l0.161-0.56l0.065-0.634l-0.172-0.424l-0.682-0.828l1.826-4.119l0.212-1.629l-0.187-2.04l-0.334-3.615l-0.174-1.969
		l-0.289-3.171l-0.212-2.335l-0.907-3.777l-0.643-2.719l0.557-4.477l0.51-4.049l-0.169-1.378l-0.772-0.469l-5.685,1.155
		l-0.702-0.445l-2.194-2.382l-0.506-0.852l-0.226-0.686l-0.24-0.4l-0.363-0.232l-0.578-0.188l-0.564-0.32l-0.355-0.48l-0.298-0.529
		l-0.404-0.474l-0.964-0.504l-4.588-0.931l-2.89-1.297l-1.109-0.241l-2.309-0.196l-1.052-0.331l-1.657-0.96l-2.079-0.583
		l-0.643-0.35l-1.099-1.272l-2.204-2.05l-1.443-1.876l-3.583-3.263l-1.009-1.241l-0.995-2.182l-1.002-1.122l-0.18-0.593
		l-0.083-0.666l-0.201-0.77l-1.468-3.384l-0.305-0.411l-0.388-0.309l-0.449-0.205l-0.269-0.208l-0.079-0.232l0.097-0.243
		l0.251-0.257l0.32-0.342l0.118-0.361l-0.1-0.343l-0.338-0.271l-0.596-0.255l-0.266-0.576l-0.183-0.677l-0.355-0.565l-0.377-0.199
		l-0.32-0.041l-0.316-0.115l-0.37-0.418l-0.18-0.453l-0.093-0.993l-0.108-0.446l-0.445-0.685l-1.106-1.221l-0.33-0.812v-0.78
		l0.413-1.396l0.065-0.778l-0.32-1.009l-0.61-0.439l-0.732-0.289l-0.679-0.557l-2.858-3.417l-2.718-3.262l-2.617-3.134l-2.269-2.727
		l-1.838-2.175l-2.804-3.331l1.099,0.507l2.481,0.801l2.89,0.935l2.897,0.938l2.89,0.936l2.89,0.934l2.894,0.935l2.89,0.932
		l2.894,0.938l2.89,0.934l2.89,0.931l2.894,0.935l2.894,0.936l2.894,0.931l2.887,0.935l2.896,0.934l2.894,0.93l2.888,0.935
		l3.301,1.061l3.579,0.68l4.345-0.409l0.999-0.094l1.704-0.161l1.702-0.161l1.704-0.161l1.704-0.163l1.702-0.159l1.705-0.162
		l1.702-0.16l1.705-0.161l1.702-0.163l1.702-0.161l1.705-0.159l1.702-0.161l1.702-0.163l1.705-0.161l1.704-0.161l1.707-0.161
		l5.303-0.499l7.618,1.472l6.394,1.237l3.964,1.714l0.948-0.386l1.264-2.479l0.794-1.031l1.221-0.626l9.378-2.81l0.757,0.007
		l6.406,0.055l4.739,0.037l5.777,1.051l1.729,0.056l5.039-1.475l2.018-0.588l2.018-0.591l2.021-0.59l2.01-0.59l2.018-0.591
		l2.014-0.591l2.018-0.593l2.016-0.591l2.021-0.592l2.016-0.59l2.018-0.593l2.018-0.59l2.01-0.592l2.021-0.589l2.018-0.594
		l2.018-0.592l2.958-0.869l2.764-1.995l0.923-1.224l0.718-1.237l0.208-0.12l0.291-0.099l0.129-0.182l-0.284-0.381l-1.07-0.829
		l-1.429-1.459l-1.223-0.854l-0.206-0.539l0.084-0.637l0.508-1.521l2.242-4.581l0.153-0.771l-0.079-2.434l0.654-5.318l-0.084-0.825
		l-0.196-0.825l-0.266-0.517l-0.84-1.09l-0.591-1.601l0.106-1.758l3.414-12.996l0.316-0.561l0.589-0.32l4.696-0.961l0.783-0.35
		l3.264-3.372l0.664-0.931l1.178-4.574l0.844-0.588l1.328-0.183l0.896-0.691l0.81-0.932l1.038-0.905l2.343-1.16l1.298-0.374
		l2.043-0.046l0.512,0.273l0.246,0.563l0.072,0.905l-0.088,0.332l-0.192,0.25l-0.14,0.246l0.048,0.326l0.264,0.214l0.431,0.141
		l0.797,0.145l0.704,0.013l1.334-0.336l0.691-0.031l0.693,0.21l1.267,0.707l0.714,0.254l0.574,0.067l1.802-0.088l2.224,0.204
		l0.639-0.12l2.407-1.031l2.064-0.279l1.282-0.556l1.856-0.349l0.643-0.239l2.215-1.428l0.452-0.42l0.481-0.351l0.564-0.166
		l1.404,0.052l0.531-0.246l0.359-0.761l-0.163-1.705l-1.253-0.41l-2.888,0.385l-0.686-0.196l-0.693-0.435l-0.503-0.606l-0.205-1.593
		l-0.452-0.705l-0.51-0.617l-0.253-0.608l0.447-0.72l1.095-0.025l2.256,0.503l1.072-0.109l1.056-0.432l0.75-0.529l1.142-0.806
		l2.138-2.419l0.971-0.477l0.474-0.019l1.056,0.175l1.407-0.076l0.377-0.204l0.391-0.557l0.582-0.472l1.824-1.019l0.198-0.287
		l0.115-0.863l0.171-0.367l1.147-1.062l0.168-0.309l0.214-0.394l0.738-1.746l0.445-0.539l0.714-0.051l0.89,0.315l0.766,0.423
		l0.885,0.725l0.359,0.541l0.431,0.431l0.761,0.114l1.375-0.065l1.373,0.11l3.644,1.309l1.287,0.213l0.596-0.192l0.752-0.452
		l0.451-0.511l-0.319-0.367l-0.671-0.093l-2.079,0.049l-0.759-0.122l-0.603-0.268l-0.12-0.403l0.675-0.532l1.504-0.803l0.82-0.285
		l0.777-0.013l1.167,0.456l2.028,1.157l1.957,0.359l0.434,0.249l0.23,0.5l0.104,1.651l0.262,0.599l0.894,1.051l1.601,2.324
		l0.923,0.654l1.379-0.16l2.204-1.134l1.181-0.382l1.26,0.089l0.93-0.392l1.253-0.898l1.095-1.011l0.456-0.732l0.531-0.335
		l0.495-0.561l3.802-5.894l0.944-1.028l1.664-1.254l0.08-0.147l0.126-0.232l-0.091-0.531l-1.095-3.116l-0.68-3.882l0.029-0.886
		l0.266-1.735l0.016-1.737l0.242-1.757l0.039-0.894l-0.127-0.865l-0.899-2.299l-0.366-1.77l0.169-1.703l0.65-1.56l1.056-1.328
		l0.7-0.452l1.44-0.506l0.614-0.512l1.831-2.763l0.42-0.809l0.108-0.506l-0.348-1.366l-0.065-0.724l-0.09-0.313l-0.241-0.18
		l-0.298-0.125l-0.303-0.204l-0.25-0.271l-0.18-0.324l-0.061-0.808l0.377-0.556l1.177-0.887l0.851-1.193l0.899-0.685l0.203-0.19
		l0.345-1.201l-0.65-4.488l0.334-0.707l0.333-0.705l0.919-1.173l1.158-0.759l1.398-0.187l0.714,0.019l1.124-0.214l0.33,0.099
		l0.298,0.142l0.312,0.059l0.634-0.156l1.632-1.183l1.35-0.227l2.323,1.166l1.467-0.107l2.601-1.594l0.345-0.071l1.007,0.086
		l0.422-0.186l0.266-0.372l1.163-2.212l0.409-0.165l0.829,0.281l0.754,0.061l0.675-0.383l5.893-4.981l0.248-1.366l-0.551-1.293
		l-1.831-2.07l-0.18-0.305l-0.257-0.669l-0.246-0.222l-0.969-0.317l-0.273-0.185l-0.481-0.635l-0.305-0.748l-0.126-0.802
		l0.057-0.787l0.711-2.632l0.022-1.011l-0.135-0.274l-0.267-0.191l-0.574-0.277l-0.316-0.268l-0.151-0.214l-0.208-0.648
		l-0.293-1.652l-0.346-0.45l-1.479,0.262l-1.867-0.806l-0.533-0.074l-0.827-0.115l-0.526-0.328l-0.357-0.805l-0.248-0.815
		l-0.305-0.625l-0.826-1.22l-0.305-0.665l-0.463-1.588l-0.31-0.548l-1.018-1.021l-0.212-0.622l0.456-0.609l0.618-0.635l0.065-0.62
		l-0.118-0.629l0.075-0.666l0.578-0.586l0.93-0.322l1.844-0.287l1.172,0.081l7.504,2.644l1.971,0.189l1.192,0.607l0.635,0.184
		l2.806,0.12l2.867,0.62l1.059,0.038l4.662-0.672l4.694,0.05l2.463-0.47l0.618-1.235l0.151-0.536l0.346-0.097l0.935,0.299
		l0.643,0.055l0.495-0.163l0.408-0.377l0.397-0.57l0.715-0.248l1.702-0.358l0.553-0.519l0.161-0.787l-0.118-0.667l-0.038-0.687
		l0.386-0.837l0.969-1.115l0.219-0.563l0.048-1.007l-0.102-0.848l-0.336-1.469l0.007-0.761l1.018-2.934l-0.151-1.035l-2.47-1.388
		l-1.081-1.038l-0.984-1.206l-0.718-1.087l-0.334-0.789l-0.194-0.944l0.047-0.927l0.406-0.747l0.51-0.233l0.086-0.039l0.734-0.007
		l1.409,0.22l0.635-0.31l0.373-0.846l0.115-1.029l-0.126-0.875l-0.26-0.943l0.048-0.646l0.363-0.493l2.443-2.002l1.341-0.708
		l0.47-0.47l1.826-2.625l0.528-1.441l0.648-1.302l1.232-0.954l4.179-1.703l0.511-0.208l0.334-0.298l0.248-0.449l0.302-0.984
		l0.276-0.447v-0.004h0.004l0.377-0.274l0.244-0.344l0.057-0.399l-0.19-0.427l0.05-1.859l0.905-1.128l2.402-1.681l0.872-1.357
		l0.302-0.832l-0.147-0.571l-1.059-0.861l-1.924-2.222l-0.625-1.075l0.061-1.151l1.066-1.391l1.695-1.486l0.341-0.626l0.054-0.83
		l-0.294-0.579l-0.459-0.522l-0.254-0.373l-0.195-0.286l-0.212-0.948l0.151-0.809l0.237-0.772l0.022-0.818l-0.323-0.633
		l-0.567-0.428l-1.914-0.942l-0.697-0.567l-0.327-0.727l0.438-0.857l0.628-0.811l0.201-0.778l-0.154-0.758l-0.438-0.752l-0.23-0.237
		l-0.513-0.407l-0.201-0.296l-0.154-0.482l-0.004-0.387l0.036-0.369l-0.039-0.427l-0.226-0.633l-1.16-2.099l-0.497-0.649
		l-1.576-1.128l-0.37-0.649l-0.149-1.405l-0.515-0.61l-1.009-0.435l-0.98-0.217l-0.934-0.39l-0.887-0.963l-0.488-0.375l-1.249-0.692
		l-0.381-0.351l-0.035-0.163l-0.139-0.64l0.329-0.664l1.12-1.137l0.174-0.396l0.176-0.913l0.187-0.316l1.362-0.891l1.056-0.507
		l0.327-0.233l0.241-0.405l0.172-0.916l0.18-0.283l2.199-0.774l0.706-0.552l2.651-2.979l0.582-0.392l0.653-0.241l0.844-0.176
		l0.675-0.37l-0.198-0.566l-0.363-0.664l0.172-0.658l0.872-0.865l0.28-0.459l0.291-0.696l0.417-1.332l0.337-0.373l0.65-0.069
		l0.7,0.292l2,1.352l1.023,1.102l0.51,0.207l0.553-0.031l0.546-0.203l0.409-0.477l-0.101-0.591l-0.589-1.171l-0.047-1.366
		l0.714-0.462l2.251-0.147l0.56-0.212l0.449-0.386l0.42-0.447l0.478-0.4l1.648-0.952l0.56-0.581l0.722-0.407l1.425-0.347l0.56-0.536
		l0.047-0.391l-0.144-0.367l-0.061-0.358l0.301-0.367l0.409-0.224l0.876-0.286l2.018-0.284l0.607-0.354l-0.244-0.712l-0.521-0.835
		l0.133-0.553l0.564-0.401l1.526-0.654l3.07-0.706l1.537-0.094l1.429-0.473l1.591,0.103l0.729-0.197l2.176-1.849l1.684-0.868
		l2.237-0.536l2.301-0.164l2.901,0.431l3.07-0.157l1.012-0.285l0.84-0.451l0.862-0.211l1.073,0.44l0.477,0.022l0.409-0.197
		l0.833-0.579l0.564-0.209l5.188-0.554l1.099,0.117l1.016,0.274l0.513,0.065l0.499-0.063l1.734-0.613l1.666,0.123l2.298-0.314
		l1.077,0.157l1.127,0.182l4.542-0.78l2.411,0.105l0.057,0.002l0.007,0l0.018,0.001l2.121,0.092l2.125,0.397l1.077,0.447l2.844,1.81
		l1.034,0.262l1.03,0.395l1.005,0.007l2.05-0.68l0.334-0.437l0.169-1.49l0.226-0.604l0.499-0.386l0.567-0.142l2.283,0.285
		l0.833-0.305l1.698-1.393l2.901-1.849l0.901-0.751l1.443-0.4l0.743-0.051l0.682,0.22l0.129,0.104l0.115,0.128l0.628,0.937
		l0.682,0.605l0.556-0.163l0.237-1.382l0.136-0.332l0.039-0.317l-0.065-0.293l-0.176-0.261l0.675-0.348l2.233-0.569L598.552,30
		l0.539,0.122l0.495,0.688l0.937,0.845l2.549,0.056l1.102,0.915h0.007l0.998,1.528l0.266,0.526l0.205,1.318l0.194,0.411l0.467-0.189
		l0.215-0.414l0.305-1.258l0.338-0.549l0.503-0.362l0.603-0.266l1.199-0.317l1.307-0.009l2.976-0.419l0.639,0.126l0.495,0.284
		l0.987,0.891l1.178,0.666l4.111,0.875l1.314,0.564l0.926,0.934l0.574,1.304l0.24,1.667l0.068,1.782l0.248,1.625l0.743,1.057
		l2.107,0.096l0.219-0.3l0.104-0.448l0.212-0.419l2.172-0.829l2.754,0.551l2.743,1.337l2.147,1.532l2.057,1.867l0.869,1.094
		l3.536,6.781l0.008,0.038l0.148,0.704l0.221,1.047l-0.653,3.425l0.007,1.718l0.269,0.646l0.872,1.1l0.355,0.574l0.086,0.763
		l-0.445,0.356l-0.632,0.289l-0.463,0.563l-0.032,0.458l0.287,0.772l-0.029,0.474l-0.176,0.334l-0.255,0.222l-1.723,1.116
		l-0.456,0.442l-0.248,0.698l0.198,1.457l0.775,1.368l1.066,1.048l1.088,0.499l2.678,0.173l0.991,0.579l0.858,1.559l0.316,1.643
		l0.14,1.775l0.359,1.519l0.969,0.874l0.826,0.053l1.644-0.449l0.808-0.1l0.7,0.153l0.557,0.204l0.535-0.007l1.282-0.914l0.61,0.004
		l0.614,0.115l0.661-0.119l0.251-0.25l0.42-0.749l0.334-0.266l0.377-0.12l0.384-0.064l0.783-0.02l0.822-0.268l1.285-1.329l0.635,0.2
		l0.341,1.389l-0.492,3.489l0.682,1.403l1.163,0.666l2.517,0.938l1.124,0.844l0.829,1.174l0.434,0.495l0.625,0.34l0.484,0.041
		l4.718,11.43L681.454,113.569z M345.421,556.012l0.517,0.512l0.794,0.019l1.555-0.531l0.687,0.438l0.263,0.102l-0.003,0.001
		l-0.698,0.3l-0.153,0.529l-0.237,0.504l-0.939,0.224l-0.608-0.227l-0.557-0.554l-0.277-0.461l-0.136-0.229L345.421,556.012z"/>
</g>
<g id="Copyright">
	<text transform="matrix(1 0 0 1 681.6426 577.5916)" class="st1 st2">© Vemaps.com</text>
</g>
</svg>
