<?xml version="1.0" encoding="utf-8"?>
<!-- Generator: Adobe Illustrator 23.0.1, SVG Export Plug-In . SVG Version: 6.00 Build 0)  -->
<svg version="1.1" xmlns="http://www.w3.org/2000/svg" xmlns:xlink="http://www.w3.org/1999/xlink" x="0px" y="0px"
	 viewBox="0 0 800 600" style="enable-background:new 0 0 800 600;" xml:space="preserve">
<style type="text/css">
	.st0{fill:#808080;}
	.st1{font-family:'Roboto-Regular';}
	.st2{font-size:14px;}
</style>
<g id="Poland">
	<path class="st0" d="M382.914,525.008l0.241-1.463l-0.165-1.812l-0.817-3.74l-0.253-0.794l-0.67-1.533l-0.265-0.844l-0.382-3.024
		l-0.235-0.686l-0.853-0.636l-0.888,0.154l-0.888,0.386l-0.829,0.068l-0.717-0.432l-1.117-1.322l-0.741-0.609l-0.811-0.245
		l-1.752-0.155l-0.759-0.532l-0.359-0.659l-0.57-2.56l-1.341-2.767l-0.988-2.677l-0.023-2.365l1.564-1.819l-1.511-0.816
		l-0.247-1.081l0.141-1.355l-0.353-1.602l-0.841-0.511l-2.24,1.438l-1.323,0.005l-4.227-2.342l-2.199-0.785l-2.293,0.283h0.124
		l0.1,0.05l0.076,0.1l0.065,0.151l-1.593,1.392l-0.823,0.164l-1.129-0.927l-0.317-0.598l-0.394-1.37l-0.241-0.484l-0.676-0.503
		l-1.335-0.279l-0.67-0.302l-1.793-1.549l-0.864-0.48l-3.634-0.69l-0.741-0.86l0.37-1.633l-3.322-2.178l-0.806-0.202l-0.946-0.237
		l0.253,2.005l0.3,0.128l0.453-0.142l0.488,0.014l0.4,0.613l0.1,0.883l-0.288,0.389l-1.852,0.553l-2.281,0.069l-1.035,0.27
		l-1.676,1.5l-2.07,0.631l-2.069-0.439l-3.686-3.677l-0.641-0.888l-0.447-1.057l-0.318-1.094l-0.388-0.98l-0.629-0.756l-0.535-0.536
		l-0.176-0.509l0.182-0.486l0.529-0.454l0.023-0.064l0.012-0.069l-0.012-0.082l-0.023-0.087l-0.8-0.17l-1.546-0.77l-0.747-0.202
		l-0.606,0.142l-0.482,0.28l-0.576,0.105l-0.888-0.403l-2.763-3.508l-0.118-0.647l0.418-0.895l0.623-0.317l2.746-0.106l1.517-0.597
		l2.422-1.455l1.152-1.001l0.535-1.346l-0.888-1.645l-0.6-0.598l-0.129-0.896l0.112-0.814l0.617-1.665l0.129-0.281l0.041-0.267
		l-0.029-0.239l-0.141-0.202l-1.047-1.418l-0.318-0.299l-0.964-0.359l-0.37,0.239l-0.147,0.608l-0.318,0.727l-1.687,2.342
		l-0.976,0.8l-1.317,0.345l-5.086-0.901l-2.71,0.248l-1.67,2.032l-0.294,0.198l-0.3,0.064l-0.306-0.069l-0.288-0.193l-0.529-1.655
		l-1.241-1.007l-1.258,0.097l-0.617,1.628l-0.759-0.575l-0.394-0.915l-0.112-1.127l0.071-1.159l-0.259-0.225l-0.235-0.258
		l-0.2-0.299l-0.159-0.336l1.047-0.423l-1.176-0.502l-2.669,0.078l-1.352-0.391l-2.005-1.271l-0.559-0.608l-0.341-0.774
		l-0.353-1.152l-0.194-0.968l0.123-0.249l-0.664-0.203l-1.735,0.36l-0.782-0.009l-0.729-0.387l-1.323-1.116l-0.623-0.383
		l-5.844-1.642l-1.317,0.157l-0.841-0.506l-1.605-0.966l-1.299-0.166l-1.546,0.941l0.006,1.246l1.823,2.697l0.647,1.632l0.423,1.898
		l0.559,1.727l1.064,1.1l1.388,0.815l1.035,1.141l0.6,1.596l0.082,2.161l0.741,0.984l0.112,1.172l-0.365,0.758L278.42,463
		l-0.605-0.91l-0.265-0.538l-0.341-0.234l-0.835-0.014l-0.159,0.244l0.012,1.075l-0.141,0.326l-0.512,0.037l-1.052-0.377l-0.5,0.018
		l-0.682,0.473l-0.947,1.318l-0.535,0.478l-0.637,0.163l-0.691,0.177l-1.141-0.078l-1.129,0.165l-1.276,1.097l-1.023,1.551
		l-0.617,1.202l-0.694,0.986l-1.264,0.917l-1.752,2.397l-2.311,0.169l-2.387-1.242l-1.958-1.811l-1-1.312l-0.535-1.11l-0.647-3.029
		l-0.617-1.681l-1.723-1.801l-0.723-1.31l-0.823-1.122l-1.446-2.64l-0.817-1.155l-1.264-0.888l-2.534-0.93l-1.011-1.349
		l-0.147-0.778l0.047-0.811l-0.041-0.829l-0.4-0.829l-0.541-0.171h-2.593l-0.664,0.217l-0.406,0.355l-0.417,0.092l-0.729-0.59
		l-0.27-0.516l-0.735-2.301l-1.846-0.327l-0.535-1.596l0.447-1.417l1.135,0.258l-0.106-0.272l-0.276-0.992l0.347-0.032l0.523-0.332
		l0.312-0.125l0.876-0.734l0.999-0.596l0.853-0.734l0.441-1.155l0.894-0.291l1.823,0.508l0.976-0.217l0.535-0.753l1.17-1.16
		l0.488-0.684l-0.159,0.051l-0.006-0.527l0.076-0.689l0.088-0.453l0.247-0.518l0.159-0.25v-0.296l-0.217-0.676l1.787-0.736
		l-0.517-1.708l-4.845-5.147l-1.746-0.992l-1.858-0.478l-2.064-0.042l-0.735,0.158l-0.417,0.9l-0.412,1.145l-0.694,0.876
		l-0.958,0.222l-0.864-0.408l-1.799-1.381l-2.399-0.246l-3.528,3.425l-2.416,0.445l-0.118-0.269l-0.041-0.283l0.047-0.287
		l0.112-0.292l0.817-0.667l0.129-1.066l-0.312-1.238l-0.494-1.215l-0.741-1.41l-0.764-0.742l-0.941-0.135l-3.369,1.271l-1.576,0.046
		l-0.365-0.13l-2.875-4.906l-0.182-0.548l-0.123-0.613l-1.411-0.135l-4.727,1.147l-0.6-0.19l-0.418-0.409l-0.752-1.157l-0.647-0.432
		l-11.383-3.998l-2.369,0.2l-0.529,0.66l-0.541,0.958l-0.629,0.665l-0.095-0.03l-0.71-0.225l-0.365-0.744l0.047-0.856l0.159-0.902
		l-0.018-0.875l-0.682-1.689l-0.864-0.717l-1.029-0.456l-1.135-0.913l-0.606-0.978l-0.67-1.491l-0.529-1.589l-0.171-1.282l0.4-1.66
		l0.494-0.947l0.059-0.872l-0.911-1.48l-1.517-0.756l-3.24-0.051l-0.535-1.326l-0.265-1.373l-0.664-0.336l-0.735,0.519l-0.512,1.182
		v0.009l-0.188,0.92l-0.641,0.131l-0.8-0.397l-0.67-0.663l-0.482-0.892l-2.881-0.635l-1.082-0.998l-0.159,0.745l-0.265,0.416
		l-0.823,0.603l-0.323,0.07l-0.323,0.154l-0.288,0.238l-0.259,0.308h-0.006l0.241,1.023l0.923,0.733l0.864,1.265l0.065,2.622
		l-0.176,0.457l-0.559,0.634l-0.159,0.308l-0.053,0.504l0.035,0.345l0.065,0.256l0.071,3.131l-0.118,0.778l-6.497-0.48l-2.058,0.578
		l-1.211-0.042l0.006-1.677l0.805-1.333l2.023-2.256l2.869-6.846l2.54-6.457l0.171-1.039l0.012-1.741l0.1-0.892l0.306-0.627
		l0.441-0.419l0.376-0.604l0.118-1.164l0.065-2.292l0.464-2.546l0.77-2.419l0.976-1.922l-0.235-0.254l-0.206-0.282l0.294-2.638
		l-0.829-1.784l-1.288-1.521l-1.052-1.855l-0.159-0.628l-0.247-1.633v-0.085l-0.341-3.863l-0.212-2.405l0.482-1.141l-0.588-1.257
		l-1.052-1.109l-0.888-0.698l-1.288-0.618l-2.669-0.793l-1.299-0.746v-0.009l-1.199-0.859l-3.716-1.254l-1.258-1.318l-0.186-0.968
		l-0.126-0.655l0.464-1.778l1.105-1.757l0.67-1.834l-0.094-2.412l-0.559-2.326l-0.735-1.585l-2.763-2.307l-1.282-1.509l-0.588-2.335
		l-0.223-2.424l-0.788-1.059l-1.029-0.715l-0.935-1.433l-0.171-1.95l0.747-1.596l3.263-3.334l1.046-1.407l0.876-1.66l0.482-1.804
		l0.2-5.637l0.306-0.898l1.229-2.238l0.241-0.875l0.106-0.848l0.182-0.829l0.435-0.786l1.047-1.308l-3.698-2.78l-0.57-1.328
		l0.347-2.404l0.612-1.687l0.217-1.325l-0.823-1.292v-0.576l1.111-1.473l0.018-1.901l-0.882-1.632l-1.593-0.699l-1.617-0.377
		l-1.928-0.994l-1.276-1.439l0.341-1.692l-1.194-2.708l-1.352-4.065l-0.318-3.703l2.946-2.606l1.376-2.193l0.941-2.192l-0.265-0.997
		l-1.058-0.971l0.441-2.172l1.593-3.358l-1.77-1.461l-0.327-0.369l-3.301-3.723l-3.404-1.354l-1.635-2.244l-1.082-0.507
		l-0.594-0.575l-1.946-3.852l-0.882-1.036l-6.044-4.472l-1.552-0.834l-1.858-2.203l-1.141-0.506l-1.264-0.092l-1.194-0.375
		l-0.988-0.779l-0.653-1.324l1.511-1.317l0.588-1.142l0.235-1.783l-0.129-1.18l-0.694-3.348l-0.341-0.949v-0.588l2.752-2.053
		l3.463-1.817l3.351-2.68l1.746-1.836l0.764-1.71l0.159-0.793l1.705-5.364l-0.118-1.372l-0.341-1.343l-0.206-1.542l0.159-1.263
		l0.406-1.161l0.564-0.847l0.6-0.324l0.417-0.626l1.482-2.932l-0.741-0.688l-0.223-0.531l-0.87-0.74l-0.347-0.605l-0.176-0.934
		l-0.035-1.726l-0.088-0.807l-0.384-1.79l-1.191-5.556l-0.594-4.943l-1.194-2.019l-0.594-1.995l-1.382-2.145l-0.412-1.973
		l-0.041-2.122l0.153-3.505l-0.106-0.946l-1.194-3.727l-0.858-1.88l0.235-1.493l-0.07-2.7l0.002-0.01l0.557-0.063l1.023-0.446
		l0.75-0.7l0.074-0.782l-1-0.7l0.556-0.333l0.185-0.329l-0.185-0.329l-0.556-0.325l0.319-0.716l0.56,0.501l0.796,0.399l0.704,0.532
		l0.662,1.854l0.805,0.622l1.555,0.751l1.139,1.231l0.625,0.524l2.509,0.43l3.055,1.098l1.06,0.832l0.866,1.25l1.87,3.599
		l0.653,0.85l0.301-0.281l0.065-1.537l0.259-0.894l0.482-0.586l0.782-0.621l-0.042-0.363l-0.014-0.379l0.056-0.562l-0.611-0.18
		l-1.458-0.133l-0.653-0.344l-1.764-4.264l0.37-2.124l1.394-4.173l0.653,0.58l0.565-0.165l0.62-0.368l0.884-0.047l-0.403-2.429
		l0.208-1.936l0.393-1.721l0.19-1.812h-0.389l-0.139,1.154l-0.444,0.765l-1.361,1.376l0.357,0.659l-0.5-0.208l-0.398-0.259
		l-0.32-0.361l-0.305-0.49l0.292-0.282l0.514-0.686l0.361-0.349l-0.782-1.636l-1.352-0.769l-6.31-0.66l-0.889-0.985l0.718-1.881
		l-0.185-0.192l-0.046-0.028l-0.019-0.079l-0.106-0.362l-0.56,0.966l-0.445,0.138l-0.481-0.259l-0.681-0.185l-0.495,0.196
		l-0.389,0.479l-0.38,0.621l-0.486,0.628l1.699,0.33l0.926,0.424l0.482,0.62l-0.111,1.17l-0.593,0.851l-0.722,0.333l-0.514-0.381
		l-1.555,0.985l-0.773,0.251l-0.815,0.082v0.659l0.782,0.306l-0.042,0.2l-0.741,0.153l-0.537-0.082l-0.898-0.471l-0.667-0.106
		l-0.949-0.639l-2.736-3.971l-1.333-0.613l-0.132,0.016l-0.459-1.506l-0.994-1.227l0.541-0.16l0.47-0.324l0.966-2.606l0.94,0.429
		l0.62,0.519l1.741,0.66l5.629,0.468l2.259-0.468l2.208-1.179l4.083-3.017l15.05-6.714l12.981-3.411l15.828-6.7l10.25-2.747
		l11.222-3.042l11.032-5.017l9.166-1.149l6.296-2.117l-0.718,0.729l-2.819,1.268l1.236,0.88l5.014-0.88v-0.602h-0.389v-0.722h2.713
		l-0.028-0.476l-0.06-0.087l-0.107,0.032l-0.195-0.143l0.111-1.571l-1.31-0.063l-3.097,0.976l1.958-0.972l2.356-1.547l3.518-4.145
		l-0.713,1.454l-1.273,1.334l-0.495,0.726l0.519-0.19l1.032-0.214l0.903-0.365l0.792-0.953l1.995-0.945l0.731-0.846l-0.676-1.418
		l-1.13-0.036l-0.5,0.608l-0.833,0.846l2.412-4.173l6.588-8.507v0.602l-0.306,0.956l0.574,0.243l0.917-0.351l0.727-0.849
		l0.361-1.315l-0.333-0.403l-0.736,0.311l-0.847,0.805l1.167-2.34l1.977-1.986l3.884-2.43l11.884-1.761l4.616-1.845l2.421-0.412
		l2.148-0.775l5.454-5.999l17.157-8.069l21.518-4.085l9.657-3.326L344.184,30h9.361l1.287,0.478l2.065,1.812l0.759,0.398
		l1.194,0.277l19.43,11.651l3.542,4.611l0.574,1.08l0.583,1.527l0.056,1.335l-1.005,0.487l-0.25-0.336l-0.278-0.715l-0.347-0.708
		l-1.037-0.736l-0.694-1.844l-0.935-1.2l-2.708-4.6l-0.528-0.252l-1.995-0.413l-0.505-0.212l-0.542-0.926l-1.611-0.561l-3.398-2.341
		l-3.342-1.613l-0.537-0.77l-1.847-1.429l-0.486-0.229l-0.694,0.313l-0.361,0.506l-0.806,2.817l-0.111,0.65v1.44l0.306,0.365
		l1.361,0.613l0.306,0.369l0.685,1.202l0.833,1.818l-0.033,0.753l-0.217,0.653l0.019,0.644l0.657,0.7l-0.343,1.92l0.648,0.816
		l1.083-0.228l0.944-1.224l-0.333,1.632l0.458,1.303l0.708,1.103l1.435,4.462l0.445,0.946l-0.222,2.25l0.046,3.875l0.37,3.668
		l0.796,1.636l0.893,0.299l1.736,1.337l0.889,0.306l0.764,0.08l0.949,0.294l0.815,0.533l0.347,0.851l0.958,1.348l9.592,3.111
		l2.12,0.159l1.773-0.981l0.486,0.496l0.667,0.365l1.565,0.473l21.337-3.194l4.708-2.286l2.236-0.525l1.806-0.835l3.5-3.661
		l0.968-0.426l1.207,0.986l2.816,0.976l4.436,0.237l11.744,0.627l22.036,1.182l16.427,0.876l16.427,0.876l20.354,1.08l24.652,1.317
		l15.824,0.84l15.824,0.84l13.27,0.711l10.695,0.57l3.916-1.301l1.07-0.873l1.44-2.678l0.077-0.143l1.417-0.667l1.211,0.167
		l3.41,1.767l0.617,0.081l1.293-0.273l0.582,0.136l0.606,0.616l0.323,0.762l0.253,0.762l0.359,0.626l0.641,0.439l1.952,0.232
		l0.359,0.54l-0.206,0.928l-0.329,1.104l-0.006,1.033l1.023,1.436l1.305-0.005l1.358-0.579l1.146-0.257l1.035,0.504l3.528,2.966
		l2.169,1.334l4.586,1.741l1.136,0.972l1.051,0.899l0.547,0.855l1.035,1.985l0.523,0.754l0.588,0.402l1.223,0.337l0.523,0.311
		l0.941,1.396l0.794,1.942l0.623,2.172l0.435,2.071l0.829,4.524l0.018,2.187l-0.847,1.486l-0.688,0.575l-0.306,0.38l-0.276,0.43
		l-0.035,1.035l0.241,0.88l0.459,0.7l0.606,0.5l0.335,0.435l0.165,0.485l-0.035,0.529l-0.235,0.564l0.071,2.831l0.588,2.36
		l0.753,2.224l0.582,2.427l0.523,5.123l0.6,1.98l1.382,2.038h0.006l0.129,5.901l1.358,6.695l4.827,14.888l2.681,5.595l1.141,3.016
		l2.275,9.003l1.005,2.708l1.023,1.378l0.558,1.343l0.441,1.382l0.676,1.469l1.017,1.121l0.976,0.76l0.6,1.142l-0.129,2.298
		l-0.512,1.367l-0.688,1.141l-0.547,1.305l-0.076,1.847l0.488,1.604l1.723,2.222l0.653,1.4l0.094,0.726l-0.135,1.136l0.006,0.603
		l0.482,2.631l0.023,0.756l-0.17,0.583l-0.629,1.273l-0.159,0.744l0.053,1.012l0.194,0.565l0.229,0.475l0.147,0.721l0.476,11.415
		l0.118,2.823l-0.782,4.014l-2.263,2.798l-7.555,5.169l-9.507,2.718l-5.039,2.945l-5.015,4.187l-6.926,10.689l-2.281,2.8
		l-1.047,1.637l-2.64,5.408l0.176,0.043l0.418,0.353l0.422,0.356l0.623,0.915l0.182,1.222l-0.453,1.652l1.282,0.823l4.092,1.109
		l0.876-0.343l0.747,0.756l3.534,1.331l1.193,0.127v0.576l-0.417,0.856l0.165,0.154l0.817-0.316l0.711,0.316l0.511,0.53l0.541,0.103
		l0.782-0.949l0.224,0.412l0.564,0.475l0.376,0.439l0.952-0.928l0.218,0.697l-0.159,1.11l-0.229,0.326l1.582,3.169l1.105,0.352
		l2.699-0.084l1.07,0.651l0.376,0.718l0.288,0.754l0.341,0.586l0.535,0.239l0.694,0.486l0.229,1.069l0.059,1.066l0.47,1.152
		l0.805,3.493l0.653,1.578l-0.894,0.666l-0.747,1.181l-1.076,2.562l-0.37,1.697l-0.041,2.986l-0.37,1.043l0.223,0.091l0.1,0.005
		l0.041,0.109l0.029,0.424l-0.682,0.383l-0.235,1.997l-0.635,0.764l0.894,1.667l1.047,1.42l-0.635,2.139l-1.094,1.088l-1.193,0.734
		l-0.964,1.116l-0.229,0.66l-0.229,0.985l-0.323,2.117l0.206,0.474l0.382,0.645l0.129,0.572l-0.523,0.251l-0.223,0.256l0.182,0.59
		l0.347,0.633l0.282,0.398l-0.729,0.908l-0.347,0.213l-0.511,0.071v0.685l0.647,0.706l0.077,0.888l-0.3,2.474l0.2,1.316l0.494,1.275
		l1.246,2.152l-0.388,0.038l-0.388-0.038l0.706,1.43l0.905,0.345l0.776,0.468l0.223,1.224l0.106,0.564l0.382,1.28l0.894,0.621
		l1.029,0.385l0.805,0.55l-0.888,1.826l0.088,0.569l2.317,3.426l0.464,1.093l-0.659,0.309l-0.406,0.636l-0.07,0.938l0.353,1.232
		l-1.041,0.407l-1.011,1.076l-0.782,1.339l-0.306,1.214l0.37,1.935l0.894,0.463l1.099,0.021l0.97,0.635l3.151,6.921l1.282,1.565
		l2.893,1.836l2.705,2.768l0.635,1.101l-0.941,0.49l-0.212,0.834l0.841,1.793l1.493,2.321l0.494,1.212l0.67,3.787v0.561l-0.241,0.71
		l0.417,0.369l0.723,0.294l0.694,0.477l0.629,0.962l0.159,0.742l0.059,0.812l0.312,1.185l0.853,1.418l3.845,3.562l4.739,2.623
		l0.735,1.127l-0.7,1.564l-1.729,0.368l-1.887,0.014l-1.158,0.517l-1.505-0.852l-1.57,0.21l-1.305,0.996l-0.7,1.545l0.106,1.721
		l0.841,1.144l1.346,0.628l1.587,0.195v0.558l-0.741,1.575l0.8,1.375l1.552,0.975l1.529,0.376l-0.347,2.047l0.447,1.888l1.443,3.487
		l0.015,0.036l-1.317,2.284l0.576,4.259l0.406,1.184l0.294,0.25l-0.071,0.199l-0.711,1.027l-1.076,1.151l-3.663,1.923l-0.159,1.077
		l0.088,1.723l-0.094,1.159l-0.259,0.965l-1.246,2.939l-2.993,1.245l-10.307,0.129l-1.964,0.622l-0.982,0.503l-0.77,0.76
		l-0.623,1.309l-0.715,2.368l-0.037,0.124l-0.788,1.151l-4.486,4.886l-1.646,1.333h-0.006l-0.006,0.005h-0.006l-3.099,2.385
		l-2.569,1.998l-12.999,14.151l-1.711,2.654l-2.081,1.637l-2.264,2.509l-6.168,9.069l-2.381,2.452l-0.3,0.729l-0.465,1.776
		l-0.265,0.629l-0.494,0.496l-1.005,0.373l-0.5,0.332l-0.553,0.678l-3.504,6.367l-0.958,0.973l-0.623,0.268l-1.223,0.245
		l-0.635,0.55l-0.412,0.759l-0.982,2.806l-4.315,5.819l-1.417,3.385l1.094,3.133l0.382,1.281l0.353,3.722l0.212,0.994l0.159,0.484
		l0.741,1.175l1.229,1.301l0.318,0.668l0.253,1.391l0.77,8.001l-0.217,1.266l-0.958,2.652l-0.805,3.083l-0.9,1.884l-0.306,1.057
		l0.347,0.463l0.265-0.175l0.753-0.949l0.894,0.629l-0.071,0.036l-0.218,0.054l1.846,1.303l1.664,2.197l1.047,0.777l2.552,1.432
		l0.688,0.88l0.006,0.736l-0.517,1.701l-0.071,1.18l0.247,0.816l0.923,1.591l0.072,0.184l0.11,0.282L611.717,570l-1.152-0.497
		l-1.258-1.138l-1.017-0.533l-0.629-0.202l-1.052-1.48l-0.576-0.547l-0.617-0.072l-1.282,0.39l-2.058-0.153l-1.217,0.117
		l-1.223-0.148l-1.399-0.96l-2.134-2.365l-1.141-0.354l-1.199,1.158l-1.97-0.974l-4.451-0.193l-2.087-0.642l-2.881-2.906
		l-1.211-0.481l-3.145,0.121l-2.669-0.818l-0.423-0.364l-0.129-0.548l0.159-0.562l-0.006-0.611l-0.623-0.697l-0.47-0.09
		l-1.364,0.166l-0.57-0.036l-0.658-0.292l-1.852-1.196l-4.027-0.769l-1.611-1.183l-0.376-2.773l-0.717-3.077l-1.635-2.65
		l-2.052-1.939l-3.063-1.534l-2.087-1.927l-1.041-0.596l-1.147,0.212l-0.982,0.903l-0.805,0.961l-0.594,0.397l-0.876-0.713
		l-1.911-2.953l-0.958-0.985l-0.564-0.167l-0.882,0.199l-0.429-0.059l-0.576-0.402l-1.058-1.035l-0.576-0.389l-1.064-0.276
		l-4.074,0.461l-0.862,0.351l-1.037,0.422l-0.835-0.249l-2.111,0.465l-0.941,0.009l-5.544-1.573l-3.187-1.704l-0.788-0.19
		l-1.029,0.714l-1.776,2.639l-0.976,0.917l-1.223,0.203l-0.87-0.601l-0.811-0.908l-1.029-0.709l-0.882-0.081l-2.311,0.47
		l-0.87,0.416l-1.152,1.292l0.694,0.795l1.311,0.799l0.694,1.318l-0.465,0.799l-1.052,0.212l-1.199,0.014l-0.894,0.19l-1.17,1.142
		l-1.858,2.729l-1.229,1.068l-1.335,0.482l-1.047-0.198l-0.923-0.672l-0.929-0.969l-1.064-0.794l-0.894-0.135l-0.97,0.059
		l-1.276-0.198l-0.899-0.659l-5.05-6.053l-0.888-0.158l-2.152,0.348l-1.229-0.185l-0.523,0.036l-0.582,0.33l-0.905,1.125
		l-0.653,0.614l-1.346,0.483l-1.246-0.307l-4.809-2.461l-0.888,0.203l0.012,1.504l-2.94,0.113l-2.328-0.881l-0.676,0.014
		l-0.582,0.438l-0.212,0.542l-0.117,0.804l-0.294,1.246l-0.406,1.209l-0.282,0.388l-4.392,0.388l-0.864,0.487l-1.241,1.484
		l-0.559,0.523l-1.252-0.149l-0.141-0.135l-0.323,0.433l-1.088,2.447l-0.323,1.036l-0.394,0.968l-0.706,0.856l-0.323,3.043
		l-0.588,2.177l-1.111,0.859l-1.887-0.926l-2.934-2.767l-1.582-0.824l-1.823,0.202l-1.029,0.765l-1.11,1.15l-0.801,0.829
		l-1.264,0.468l-2.622-0.198l-1.435-0.526l-0.735-1.017l0.229-1.148l2.152-3.521l0.253-0.207l0.365-0.104l0.329-0.194l0.135-0.491
		l-0.106-0.378l-0.021-0.022l-0.432-0.456l-0.015-0.032l-0.091-0.198l-0.006-0.004l-0.776-0.577l-0.2-0.293l0.001-0.007l0.035-0.363
		l0.435-0.654l0.088-0.356l-0.335-4.222l-0.288-1.453l-0.529-1.653l-0.012-0.009l-0.512-0.389l-1.905,0.768l-1.152,0.117
		l-1.241-0.135l-3.269-1.118l0.003-0.026l0.121-1.029l-0.035-1.369l0.088-0.475l0.265-0.552l-2.275-0.023l-1.188-0.321l-0.976-0.755
		l-0.294-0.624l-0.917-2.787l-1.035-4.419l-0.688-1.763l-1.335-0.888l-0.429-0.458l-0.958-1.696l-0.481-0.198l-0.313-0.129
		l-0.329,0.145l-0.217,0.435l-4.933,5.453l-0.429,0.371l-0.806,0.326l-0.588,0.095l-1.752-0.018l-1.094,0.236l-0.929,0.457
		l-0.829,0.792l-0.776,1.245l-0.911,2.841l0.1,0.099l0.182,0.262l0.112,0.416l-0.135,0.583l-0.253,0.19l-0.7,0.018l-0.165,0.036
		l-0.4,1.704l-0.147,1.089l-0.412,0.7l-1.752,0.705l-1.429,0.284l-0.588-0.041l-0.547-0.28l-1.129-0.827l-0.523-0.181l-1.241,0.294
		l-2.199,1.283l-1.441,0.113l-1.111-0.208l-0.318-0.985l0.235-2.874l-0.147-1.298l-0.276-1.185l-0.059-1.249l0.5-1.475l-1.646-1.009
		L382.914,525.008z"/>
</g>
<g id="Copyright">
	<text transform="matrix(1 0 0 1 681.6426 577.5916)" class="st1 st2">© Vemaps.com</text>
</g>
</svg>
