<?xml version="1.0" encoding="utf-8"?>
<!-- Generator: Adobe Illustrator 23.0.1, SVG Export Plug-In . SVG Version: 6.00 Build 0)  -->
<svg version="1.1" xmlns="http://www.w3.org/2000/svg" xmlns:xlink="http://www.w3.org/1999/xlink" x="0px" y="0px"
	 viewBox="0 0 800 600" style="enable-background:new 0 0 800 600;" xml:space="preserve">
<style type="text/css">
	.st0{fill:#808080;}
	.st1{font-family:'Roboto-Regular';}
	.st2{font-size:14px;}
</style>
<g id="Portugal">
	<path class="st0" d="M694.909,85.121l0.331-0.243l0.666-0.344l0.759-0.232l0.604-0.405l0.224-0.4l0.314-0.856l0.256-0.399
		l0.502-0.379l0.515-0.105l1.08-0.03l0.542-0.225l1.016-0.701l0.555-0.214l4.558-0.74l0.496-0.268l0.758-0.692l0.262-0.17
		l0.223-0.053l0.506-0.023l0.541-0.222l0.884-0.639l0.265,0.382l0.268,0.606l-0.09,1.711l0.099,0.645l0.375,0.297l0.447-0.126
		l0.525-0.243l0.613-0.061l0.566,0.24l0.45,0.439l0.239,0.591l-0.067,0.693l-0.315,0.5l-0.469,0.397l-0.857,0.559l-0.861,0.849
		l-1.138,1.694l-0.28,0.715l-0.044,0.738l0.334,0.708l1.057,0.415l0.223,0.312l0.049,0.525l-0.114,0.95l-0.009,0.075l2.54,0.158
		l1.27-0.367l0.055-0.016l0.97-1.01l0.29-0.478l0.361-0.385l0.419-0.196l0.474,0.079l0.549-0.013l0.278-0.515l0.143-0.663
		l0.139-0.456l0.581-0.225l0.081,1.071l0.2,1.145l0.938,0.002l0.204-0.233l0.102-0.257l0.139-0.218l0.31-0.103l0.799,0.049
		l1.83-0.446l0.829-0.431l0.462,0.119l0.817,0.591l0.517,0.255l1.587,0.069l-0.456,1.246l0.018,0.372l0.476,0.269l0.521,0.052
		l0.628-0.094l0.602-0.216l0.447-0.321l0.154-0.285l0.032-0.269l0.058-0.238l0.22-0.191l0.227,0.002l0.447,0.318l0.287,0.028
		l0.41,0.145l0.378,0.527l0.284,0.689l0.125,0.629l0.389-0.339l0.712-0.819l0.398-0.271l0.445-0.079l1.072,0.033l0.532-0.087
		l2.095-0.725l0.968-0.608l0.275-0.401l0.336-0.489l0.067-0.629l-0.191-1.284l0.064-0.555l0.217-0.234l0.451-0.348l0.518-0.292
		l0.424-0.07l0.95,0.598l0.898,0.779l0.929,0.427l1.048-0.462l0.691-0.504l0.263,0.134l0.411,0.21l0.72,0.569l0.826,0.169
		l1.834-0.153l0.7-0.437l0.186-1.183l0.901,0.161l1.076,1.672l0.883,0.267l2.101-0.088l1.002-0.313l0.393-0.848l0.718,0.304
		l0.398,0.478l0.119,0.656l-0.241,1.712l0.233,0.279l0.526,0.079l0.762,0.256l-0.34,0.746l-0.72,3.234l-0.125,0.371l-0.21,0.328
		l-0.174,0.375l0.09,0.343l0.197,0.34l0.136,0.372l0.076,0.734l0.154,0.773l0.406,0.632l0.83,0.315l0.306-0.086l0.442-0.226
		l0.404-0.282l0.195-0.242l0.204-0.178l0.406,0.012l2.394,0.499l1.441,0.532l1.324,0.865l1.244,1.315l0.412,0.584l0.3,0.387
		l-1.407,2.08l-0.764,0.808l-0.188,0.399l0.021,0.312l0.079,0.262l-0.014,0.262l-1.124,1.812l-0.003,0.338l-0.921,0.069l-0.41,0.161
		l-0.381,0.309l0.089,0.018l0.018,0.238l-0.035,0.307l-0.072,0.217l-0.119,0.036l-0.363-0.073l-0.12,0.037l-0.927,1.511
		l-0.948,0.979l-0.965,0.753l-1.729,0.759l-0.267,0.193l-1.93,0.03l-0.523,0.091l-0.341,0.383l-1.049,1.588l-0.221,0.586
		l-0.168,0.318l-1.041,0.897l-0.383,0.494l-0.111,0.278l0.073,0.968l-0.244,0.712l-1.168,1.74l-0.403,0.402l-0.805,0.087
		l-1.816-0.164l-0.608,0.313l-0.012,0.006l-0.116,0.736l-0.316,0.513l0.061,0.493l0.29,0.442l0.926,0.99l0.415,0.697l0.636,1.586
		l0.247,0.823l0.242,0.325l0.442,0.117l0.322,0.228l0.146,0.516l-0.122,0.492l-0.482,0.155l-0.041,0.987l0.037,0.258l0.098,0.409
		l-0.03,0.217l-0.081,0.214l-0.055,0.385v0.755l0.064,0.553l0.374,1.27l0.238,1.305l0.06,0.693l-0.002,0.472l-0.207,0.661
		l-0.683,1.259l-0.177,0.604l0.061,0.679l0.255,0.395l0.331,0.351l0.31,0.53l0.163,0.67l-0.082,0.469l-0.689,0.982l-0.544,1.361
		l0.172,1.264l0.685,1.121l0.993,0.937l-0.517,0.932l-0.261,0.27l-1.273,0.944l-0.185,0.21l-0.108,0.3l-0.019,0.332l-0.018,0.307
		l-0.087,0.232l-0.543,0.378l-0.572,0.04l-0.578-0.054l-0.197,0.033l-0.371,0.063l-1.272,0.837l-0.531,0.24l-0.265,0.359
		l-0.29,0.895l-0.252,0.451l0.244,0.565l0.212,1.317l0.351,0.525l0.357,0.106l0.782,0.112l0.317,0.12l0.316,0.285l0.401,0.64
		l0.656,0.827l1.186,2.147l-0.508,0.85l-0.139,0.41l0.055,0.418l-0.116,0.344l-0.172,0.951l-0.09,0.149l-0.287,0.219l-0.087,0.173
		l0.003,0.219l0.105,0.388l-0.006,0.193l-0.05,0.34l-0.023,0.644l-0.101,0.371l-0.743,1.116l-0.281,0.167l-0.675,0.284l-0.23,0.195
		l-0.214,0.52l0.041,0.413l0.127,0.353l0.046,0.321l-0.111,0.365l-0.352,0.629l-0.136,0.361l-0.009,0.357l0.087,0.262l0.032,0.281
		l-0.34,0.823l-0.432,0.182l-4.341,0.543l-0.919-0.042l-0.64-0.396l-0.505,0.16l-1.177-0.038l-0.551,0.115l-0.485,0.212
		l-0.401,0.113l-6.369-0.305l0.042,0.1l0.225,0.536l0.956,2.661l0.531,0.487l0.878,1.179l0.494,0.475l0.997,0.522l0.255,0.33
		l0.281,0.838l0.45,0.37l0.627,0.302l1.24,0.332l0.218,0.381l-0.003,0.816l-0.154,0.872l-0.232,0.551l-0.154,0.539l0.015,0.844
		l0.14,0.812l0.218,0.449l0.555,0.443l1.464,1.803l-0.398,0.697l-0.043,0.799l0.227,0.764l0.412,0.596l0.732,0.411l0.819,0.216
		l0.694,0.325l0.361,0.728l-0.062,0.385l-0.323,0.743l0.041,0.318l0.303,0.306l0.433,0.225l0.45,0.078l0.357-0.138l0.706-0.431
		l0.778-0.088l0.77,0.214l0.68,0.469l0.474,0.461l0.413,0.682l0.186,0.744l-0.204,0.65l0.337,0.268l0.047,0.344l-0.163,0.385
		l-0.29,0.382l-0.988,1.932l-0.66,0.919l-0.636,0.532l0.409,0.743l-0.149,0.589l0.035,0.542l-0.242,0.153l-0.361,0.299l-0.358,0.374
		l-0.477,0.234l-1.362,0.299l-0.284,0.242l-0.165,0.359l-0.4,0.474l-0.492,0.413l-0.445,0.175l-0.424,0.349l-1.315,1.083
		l-0.052,0.143l-0.252,0.503l-0.099,0.272l-0.203,1.291l-0.06,0.862l0.014,0.384l0.046,0.301l0.145,0.236l0.195,0.113l0.174,0.133
		l0.091,0.291l-0.16,0.524l-1.235,1.796l-0.534,1.9l-0.29,0.442l0.34,0.495l-0.032,0.436l-0.285,0.419l-0.424,0.451l0.404,0.203
		l0.837,0.617l3.121,4.029l0.125,0.22l0.191,0.5l0.128,0.234l0.203,0.212l0.503,0.376l0.154,0.167l1.189,3.05l0.289,0.273l0.4,0.377
		l0.448,0.008l0.746-0.156l0.718-0.326l0.363-0.503l0.159,0.052l0.085,0.008l0.768-0.235l0.823-0.07l0.402,0.291l0.091,0.066
		l-0.299,1.069l-0.232,0.557l-0.398,1.252l-0.55,1.137l-0.258,1.135l-0.278,0.469l-0.242,0.909l-0.749,0.088l-1.67-0.691
		l-0.511-0.05l-0.258,0.286l-0.293,0.779l-0.305,0.409l-0.221,0.144l-0.387,0.111l-0.366,0.193l-0.364-0.047l-0.375-0.116
		l-0.383-0.03l-0.317,0.216l-0.938,0.191l-0.203,0.223l0.017,0.302l0.09,0.356l0.014,0.382l-0.156,0.662l-0.646,1.745l-0.326,1.275
		l-0.813,1.451l-2.713,2.289l-0.521,0.764l-0.399,1.122l-0.259,1.794l-0.156,0.561l-0.203,0.299l-0.779,0.837l-0.279,0.186
		l0.076,0.228l-0.023,0.183l-0.062,0.167l-0.035,0.184l-0.314,0.363l-0.095,0.15l0.017,0.39l0.045,0.044l0.116-0.006l0.155,0.511
		l0.026,0.252l0.062,0.217l0.024,0.037l0.244,0.38l0.227,0.24l0.506,0.42l0.163,0.228l0.209,0.695l0.175,0.909l0.085,0.817
		l-0.066,0.419l0.509,1.155l0.223,2.948l0.291,1.217l-0.197,0.563l0.143,0.837l0.442,1.628l0.086,0.181l0.061,0.155l0.089,0.121
		l0.182,0.072v0.229l-0.219,0.277l-0.492-0.377l-0.632-0.17l-0.677-0.026l-0.634,0.066l-0.639,0.25l-1.193,0.835l-0.495,0.178
		l-1.722,1.128l-0.231,0.316l-4.469,3.059l-0.972,0.886l-0.427-0.007l-0.459-0.202l-0.623-0.129l-1.821-0.024l-0.504-0.206
		l-0.253,0.424l-0.316-0.041l-0.377-0.235l-0.283-0.149l0.291,0.458l0.096,0.235l0.038,0.317l-0.663-0.979l-1.062-0.896
		l-2.103-1.175l-1.207-0.268l-0.935-0.428l-0.996,0.044l-2.37,0.34l-1.009-0.358l-1.121-0.393l-0.88,0.402l-1.287,0.163
		l-1.281-0.482l-0.059,0.059l-1.57-0.875l-1.259-0.227l-1.376,0.104l-0.437,0.126l-0.385,0.276l-0.933,1.012h-1.812l-0.354,0.099
		l-0.764,0.483l-0.384,0.175l-0.447,0.033l-0.694,0.185l-0.647,0.584l-0.583-0.237l-0.532,0.533l-0.24,0.187l-0.31,0.116
		l-0.591,0.504l-0.307,0.114l-0.447-0.167l-0.322-0.325l-0.319-0.2l-0.442,0.19l0.202-1.036l0.161-0.513l0.142-0.218l1.151-1.828
		l0.439-1.016l0.394-0.88l-0.27-1.102l0.533-0.502l0.687-0.714l0.421-1.64l-0.231-0.645l-0.232-0.586l0.475-0.936l0.827-0.934
		l0.156-0.901l0.513-1.238l0.352-1.668l0.183-0.997l0.07-1.702l-0.171-0.882l-0.29-0.589l-0.39-0.471l-0.064-0.485l0.403-1.643
		l0.136-1.019l0.264-0.953l0.387-0.188l0.843-0.154l0.161-0.897v-0.141l-0.285,0.254l-0.656,0.173l-0.727,0.009l-0.245-0.65
		l0.219-1.901l0.366-2.004l-0.052-1.242l-0.173-0.889l-0.468-0.95l-0.98-0.187l-1.209-0.758l0.142-0.314l0.203-0.134l0.229-0.107
		l0.233-0.234l1.529-3.315l0.552-2.667l0.667-2.015l-0.105-2.018l-0.222-2.376l-0.283-2.081l-0.763-1.49l-0.763-0.8l-0.929-1.096
		l-1.073-0.892l-0.825-0.322l0.452-0.468l0.672,0.279l1.093,0.962l1.347,0.464l0.64,0.356l0.047,0.49l1.227-0.046l2.954,0.804
		l1.478-0.48l-0.886-0.055l-0.765-0.164l-2.166-1.03l-0.262-0.317l-0.17-0.515l-0.05-0.529l0.048-0.477l0.151-0.356l0.253-0.181
		v-0.282l-0.421-0.153l-0.288-0.439l-0.089-0.528l0.195-0.424l-0.463-0.077l-0.579,1.197l-0.587,0.19v0.233l0.656,0.092l0.306,0.546
		l0.007,0.617l-0.247,0.29l-0.706-0.055l-0.588-0.158l-1.04-0.558l-1.131-0.397l-1.448,0.273l-1.324,1.541l0.233,0.18l-1.674,0.709
		l-2.864,0.35l-0.597,0.237l-0.479,0.357l-0.538,0.118l-0.762-0.223l-0.131-0.011l-0.1-0.208l0.007-0.273l0.079-0.234l0.114-0.101
		l0.214-0.327l0.883-0.885l0.182-1.191l0.002-1.788l-0.716-1.732l-0.897-1.435l-0.419-1.136l0.539-0.298l1.378-0.176l1.258-0.116
		l0.617,0.382l0.301,0.457h0.182l-0.182-0.775l0.444-0.235l0.932-0.254l0.439-0.051v-0.235l0.442-0.531l0.48-0.476l0.84-0.654
		l1.058-0.92l0.115-0.08l0.172-0.151l0.133-0.051v-0.233l-0.295-0.499l-0.343-0.755l-0.178-0.78l0.211-0.576l-0.684,0.046
		l-0.31-0.61l-0.17-0.921l-0.264-0.893l1.252-2.677l0.764-1.187l1.027-0.801l0.591-0.145l1.265-0.107l0.561-0.241l1.067-0.812
		l0.463-0.487l0.281-0.543l-0.785,0.582l-1.318,0.977l-2.547,0.283l-0.388,0.325l-0.567,1.083l-1.43,2.067l-1.634,3.274
		l-0.908,1.055l-0.312,0.506l-0.186,0.623l0.069,0.718l0.058,1.257l0.118,0.898l-0.421,0.895l-1.499,0.473l-1.678,0.294
		l-1.919-0.184l-0.539,0.418l-0.54,0.657l-1.145-0.726l-1.304-0.551l-0.72-0.12l-1.253,0.182l-0.591-0.194l0.012-0.762l0.193-0.642
		l-0.376-1.648v-0.815l0.163-0.359l0.355-0.436l0.72-0.747l0.967-3.068l-0.078-2.286l-0.333-1.437l0.295-0.845l0.121-1.022
		l1.146-2.107l0.362-1.023l0.607-1.385l0.12-1.444l0.183-1.204l-0.398-1.883l-0.347-0.754l-1.06-1.115l-0.222-0.381l0.339-0.107
		l1.325,0.384l2.174-1.446l0.544-0.482l0.605-0.059l0.366,0.442l0.304,0.086l0.345-0.354l-0.224-0.502l-0.483-0.463l0.479-0.775
		l0.666-0.784l0.242-0.422l0.545-0.361l0.847-0.541l0.425-0.724l0.304-0.604l0.607-1.087l0.062-0.666l-0.059-0.727l0.366-1.028
		l0.185-1.455l2.321-6.246l3.685-10.847l0.439-0.556l0.343,0.512l0.489,0.228l1.183,0.052v-0.287l-0.475-0.454l-0.444-0.333
		l-0.515-0.198l-1.351-0.176l-0.504-0.328l-0.299-0.566l-0.054-0.822l0.375-1.085l0.896-1.806l1.971-7.707l0.405-2.421l0.563-1.776
		l0.377-2.265l0.078-0.122l0.169-0.116l0.019,0.821l-0.019,0.263l0.588-0.99l0.425-0.348l0.417,0.255h0.181v-0.242l-0.07-0.1
		l-0.119-0.218l-0.071-0.258l0.078-0.222l0.288-0.166l0.166,0.114l0.115,0.207l0.144,0.111l0.292-0.119l0.25-0.285l0.355-0.66
		l-0.468-0.282l-0.262-0.459l0.079-0.423l0.552-0.188l0.682-0.068l0.529-0.2l0.457-0.328l0.464-0.442l-0.497,0.033l-0.744,0.38
		l-0.627,0.13l-0.115,0.06l-0.162,0.013l-0.681-0.301l-0.214-0.315l-0.237-1.073l1.125-1.581l-0.286-0.828l-0.05,0.638l-0.184,0.531
		l-0.216,0.146l-0.153-0.517l-0.417,0.793l-0.317,1.018l-0.202,1.078l-0.072,0.979l-0.131,0.627l-0.319,0.898l-0.394,0.836
		l-0.365,0.441l2.824-13.283l-0.005-1.435l-0.349-2.624l0.029-1.379l0.525-0.544v-0.241l-1.105-0.263l-0.573-1.075l-0.389-1.356
		l-0.555-1.105l0.144-0.521l-0.068-0.438l-0.161-0.428l-0.134-0.489l0.005-1.205l-0.138-0.381l-0.206-0.108l-0.124-0.407
		l-0.109-0.41l-0.417-0.709l-0.167-0.571l0.001-0.481l-0.053-1.132l0.316-1.317l-0.343-0.895l-0.053-0.817l-0.132-0.553
		l-0.079-0.659l-0.381-1.198l-0.133-0.886l-0.196-0.65l-0.028-0.719l-0.241-0.713l-0.056-0.925l0.102-0.443l0.66-0.256l1.812-0.304
		l0.512-0.243l0.469-0.346l0.409-0.4l-3.267,0.989l-0.682,0.092l-0.381-0.045l-0.538-0.339l-0.566-1.285l0-1.134l0.244-1.782
		l-0.202-1.126l0.122-0.417l0.214-0.379l2.091-1.751l0.999-1.136L694.909,85.121z M466.637,437.207l-1.026-1.673l-0.253-0.316
		l-0.187-0.332l-0.118-0.367l-0.047-0.42l0.504,0.466l0.549,0.806l0.431,0.946L466.637,437.207z M457.737,430.379l-0.522,1.047
		l-1.222,0.448l-1.419,0.086l-2.387-0.197l-4.903-2.046L446.171,429l-0.998-0.865l-0.789-1l-0.257-0.611l-0.065-0.631l0.167-0.494
		l0.448-0.203l0.186-0.173l0.729-1.025l0.262-0.15l0.192-0.05l0.216,0.05l0.337,0.15l0.306,0.254l0.702,0.779l0.302,0.164
		l0.181,0.033l0.639,0.202l0.765,0.476l0.791,0.069l0.792-0.17l0.576-0.369l0.437-0.2l0.652-0.16l1.125-0.12l0.492,0.172
		l0.891,0.663l0.358,0.149l1.536,1.166l0.331,0.191l0.349,0.08l1.126,0.051l0.511,0.141l0.487,0.287l0.293-0.211l0.315-0.071
		l0.311,0.071l0.289,0.211l-0.504,0.131l-1.042,0.481l-0.377,0.107l-0.358,0.263l-0.951,1.21L457.737,430.379z M470.978,417.362
		l-0.376,0.473l-0.343,0.331l-0.412,0.082l-0.592-0.272v-0.241l0.305-0.026l0.24-0.14l0.169-0.241l0.367-1.132l0.602-0.55
		l0.713-0.171l0.627,0.335l0.199-0.262l-0.019,1.032l0.112,0.418l0.313,0.256l-1.044-0.205l-0.439,0.009L470.978,417.362z
		 M718.37,275.951l1.527,0.21l0.588-0.222l0.706-0.723l0.067,0.11l0.052,0.12l0.083,0.275l-0.173,0.125l-0.029,0.105l-0.543,0.358
		l-0.749,0.183l-0.812-0.023l-0.718-0.243V275.951z M213.476,274.439l0.592,0.397l0.517,0.678l0.363,0.81l0.139,0.784l-0.439,0.55
		l-0.991-0.108l-1.722-0.568l-0.965,0.249l-0.513-0.005l-0.223-0.371l-0.193-0.475l-0.357-0.416l-0.187-0.379l0.314-0.37l0.61-0.558
		l1.083-0.277l1.155-0.054L213.476,274.439z M209.61,243.111l1.141,0.462l0.708,1.11l0.084,1.349l-0.724,1.182l-1.118,0.516
		l-3.919,0.503l-1.324,0.366l-1.413,0.144l-1.331-0.068l-0.674,0.064l-0.514,0.26l-0.797-0.499l-0.778-0.334l-1.667-0.442
		l-2.617-0.117l-3.565-2.665l-1.016-1.438l0.532-1.947l2.269-0.208l0.752,0.208l1.029,0.873l0.18,0.31l0.028,0.441l0.088,0.368
		l0.158,0.256l0.239,0.094l3.746,0.511l0.439-0.123l0.777-0.543l0.403-0.123l0.267,0.102l0.619,0.5l0.306,0.187l0.485-0.286
		l3.018-0.915L209.61,243.111z M123.696,221.264l1.347,0.144l0.493,0.385l0.192,0.884l-0.401,0.398l-0.905,0.012l-2.297-0.339
		l-0.664,0.046l-0.593,0.212l-1.078,0.856l-0.348-0.187l-0.274-0.463l-0.343-0.408l-0.656-0.213l-4.209-0.083l-0.593,0.296
		l-1.943-1.818l-0.694-1.15v-1.663l0.892-0.814l0.986-0.29l2.087,0.051l1.181,0.226l2.949,1.834l1.046,0.46l0.072,0.08l0.309,0.117
		l0.588,0.512l0.31,0.118l0.629,0.11L123.696,221.264z M108.936,215.577l0.403,1.686l-0.205,0.046l-0.944,0.411l-0.264,0.198
		l0.181,0.223l0.072,0.138l0.097,0.081l0.256,0.048l-0.378,0.258l-0.342-0.011l-0.707-0.247l-0.359,0.035l-0.897,0.23l-0.375,0.017
		l-0.665-0.325l-0.761-1.165l-0.588-0.571l-1.352-0.815l-0.037-0.313l0.987-0.181l0.857-0.025l0.4-0.071l0.371-0.187l0.256-0.283
		l0.487-0.747l0.265-0.235l2.566,1.179L108.936,215.577z M130.144,215.319l2.193,0.808l1.113,0.594l0.54,0.682l-0.497,0.184
		l-0.561,0.097l-1.16-0.046l-0.485-0.169l-0.965-0.501l-0.892-0.175l-0.497-0.194l-0.49-0.284l-0.407-0.341l-0.427-0.235
		l-0.794,0.138l-0.501-0.301l-0.407,0.276l-0.285-0.146l-0.515-0.671l-0.376-0.223l-3.054-1.037l-0.528-0.403l-0.584-0.996
		l-0.221-0.155l-0.238,0.045l-0.107,0.068l-0.115,0.015l-0.253-0.128l-0.071-0.14l0.032-0.169l-0.022-0.143l-0.234-0.065
		l-0.245-0.125l-1.376-1.213l-0.108-0.259l0.007-0.491l0.533,0.22l0.974,0.671l0.417,0.143l0.526,0.082l5.848,2.24L130.144,215.319z
		 M155.84,211.94l-0.166,0.138l-0.65,0.268l-0.195,0.134l-0.053,0.305l0.13,0.644l-0.077,0.343l-0.175,0.143l-0.85,0.393
		l-0.74-0.301l-1.993-0.014l-0.672-0.503l-0.373,0.429l-0.331,0.008l-0.724-0.437l-0.764-0.18l-0.766-0.055l-0.675-0.281
		l-0.74-0.683l-0.611-0.854l-0.292-0.785l-0.249-1.178l0.677-0.901l1.091-0.582l0.99-0.208l4.542,0.282l0.848,0.379l1.195,0.722
		l0.959,0.853l0.149,0.76l-0.1,0.376l0.238,0.222l0.295,0.217L155.84,211.94z M127.415,199.76l-0.603-0.031l-0.629-0.12
		l-0.588-0.246l-0.486-0.406l-0.335-0.634l0.043-0.557l0.492-1.145l0.295-0.209l0.31-0.07l0.31,0.07l0.295,0.209l0.199-0.26
		l0.466,0.637l0.98,0.81l0.468,0.51l0.186,0.649l-0.333,0.445l-0.562,0.263L127.415,199.76z M32.272,180.953l0.276,0.246
		l0.363,0.212l0.4,0.05l0.389-0.246l0.555,0.728l0.238,0.658l0.032,1.625l-0.22,0.867l-0.52,1.056l-0.608,0.649l-0.485-0.345
		l-0.556,0.264l-0.647,0.078l-0.599-0.092l-0.414-0.25l-0.276-0.525l-0.192-0.744L30,184.486l0.274-0.379l-0.156-0.65l0.156-0.535
		l0.252-0.572l0.133-0.758l0.201-0.596l0.485-0.386l0.6-0.185l0.545,0.008L32.272,180.953z M34.945,172.536l1.022,0.215l0.072,1.128
		l-0.582,1.123l-0.933,0.198l-0.043-0.249l-0.468-1.189l-0.112-0.181l0.09-0.4l0.252-0.361l0.346-0.239L34.945,172.536z
		 M480.183,522.07l0.144,0.044l0.002,0.104l-0.125-0.012L480.183,522.07z M485.01,518.013l0.264,0.192l0.014,0.25l-0.142,0.215
		l-0.103-0.047l-0.205-0.051l-0.133-0.06l0.019-0.061l-0.001-0.067l0.02-0.064L485.01,518.013z M686.343,205.355l0.173-0.111
		l0.02,0.241l-0.202,0.569l-0.388,0.613l-0.549,0.561l-0.192-0.074l0.244-0.661l0.295-0.555l0.333-0.359l0.182-0.154
		L686.343,205.355z"/>
</g>
<g id="Copyright">
	<text transform="matrix(1 0 0 1 681.6426 577.5916)" class="st1 st2">© Vemaps.com</text>
</g>
</svg>
