<?xml version="1.0" encoding="utf-8"?>
<!-- Generator: Adobe Illustrator 23.0.1, SVG Export Plug-In . SVG Version: 6.00 Build 0)  -->
<svg version="1.1" xmlns="http://www.w3.org/2000/svg" xmlns:xlink="http://www.w3.org/1999/xlink" x="0px" y="0px"
	 viewBox="0 0 800 600" style="enable-background:new 0 0 800 600;" xml:space="preserve">
<style type="text/css">
	.st0{fill:#808080;}
	.st1{font-family:'Roboto-Regular';}
	.st2{font-size:14px;}
</style>
<g id="Palau">
	<path class="st0" d="M540.107,137.63l0.815,0.188l0.408,0.419l0.127,0.642l0.06,0.843l-0.425,0.526l-0.985,1.686l0.883,1.378
		l-0.408,0.377l-1.002,0.051l-0.9,0.351l-1.512,2.131l-0.934,0.894l-0.408-0.514l0.544-2.028L540.107,137.63z M560.188,114.513
		l-1.529,0.445l0.178,0.882l0.841,1.028l0.51,0.873l-0.578,0.719l-1.274,0.308l-2.107,0.051l-0.985,0.565l-2.463,2.466l-1.563,0.565
		l-1.359-0.248l-1.011-0.685l-0.637-1.027l-0.204-1.276l0.076-1.884l0.306-0.355l3.313,3.498l0.671-0.103l1.325-0.796l3.67-3.305
		l0.731-1.002l0.076-1.242l-0.331-1.16l-0.034-0.681l0.875,0.205l0.561,0.334l0.433,0.411l0.331,0.582L560.188,114.513z
		 M560.97,107.332l1.801,0.488l2.429,1.109l1.614,1.662l-0.535,2.124l-1.079,0.291l-0.9-1.131l-0.697-1.524l-0.561-0.934
		l-1.402-0.441l-1.019,0.321l-1.937,1.627l-0.178-1.563l0.187-1.285l0.765-0.767L560.97,107.332z M579.428,69.75l1.249,3.519
		l0.331,4.997l-0.535,5.005l-1.342,3.539l-2.047,2.836l-0.094,0.694l1.164,1.521v0.664l-0.484,0.471l-0.883,2.725l-2.43,3.183
		l-0.561,2.257l0.714,3.949l-0.51,1.439l-0.476,0.321l-0.518-0.18l-1.223-0.103l-0.977-0.604l-0.654-0.09l-0.484,0.381l-1.096,1.473
		l-0.561,0.3l-1.13-0.197l-0.442-0.364l-0.153-0.63l-0.926-2.608l-0.79-3.392l-0.688-1.495l-0.841-0.668l-0.595,0.043l-0.272-0.171
		l0.153-1.362l0.331-1.178l0.603-1.075l0.833-0.865l1.07-0.54l0.408,1.362l0.934,0.18l0.985-0.754l0.518-1.444l-0.28-0.87
		l-0.815-0.857l-1.75-1.217l0.807-0.758l1.402-1.984l1.257-0.857l0.17,0.069l0.085-0.583l-0.008-1.44l-0.076-0.129l1.104-2.057
		l1.266-1.324l1.775-0.72l2.616-0.21l2.489-0.716l0.62-1.753l-0.833-5.498l-0.968-2.083l-0.238-1.234l0.408-0.463l0.934,0.201
		l0.943,0.6L579.428,69.75z M213.458,559.729l1.962-1.2l2.37-0.157l0.883,1.199l-1.215,1.625l-2.081,1.097l-2.302,0.4l-0.764-1.102
		L213.458,559.729z M326.01,324.765l-0.68-1.561l0.663-0.328l0.68,0.618L326.01,324.765z M528.436,157.617l-1.503-1.544
		l-0.892-2.096l0.306-1.596l2.107-0.077l1.393,1.065l0.476,1.651l-0.459,1.622L528.436,157.617z M281.244,567.002l1.555,0.362
		l0.688,1.446l-1.86,1.191l-1.707-0.396l-0.357-1.174l1.002-1.046L281.244,567.002z M585.845,30l1.312,0.016l0.532,1.432L586.725,34
		l-1.76,0.889l-0.91-1.113l0.03-1.554L585.845,30z"/>
</g>
<g id="Copyright">
	<text transform="matrix(1 0 0 1 681.6426 577.5916)" class="st1 st2">© Vemaps.com</text>
</g>
</svg>
