<?xml version="1.0" encoding="utf-8"?>
<!-- Generator: Adobe Illustrator 23.0.1, SVG Export Plug-In . SVG Version: 6.00 Build 0)  -->
<svg version="1.1" xmlns="http://www.w3.org/2000/svg" xmlns:xlink="http://www.w3.org/1999/xlink" x="0px" y="0px"
	 viewBox="0 0 800 600" style="enable-background:new 0 0 800 600;" xml:space="preserve">
<style type="text/css">
	.st0{fill:#808080;}
	.st1{font-family:'Roboto-Regular';}
	.st2{font-size:14px;}
</style>
<g id="Solomon_Islands">
	<path class="st0" d="M307.582,428.838l3.378,2.102l0.986,1.238l-1.298,0.929l-0.665,0.005l-0.488-0.166l-0.47-0.088l-0.656,0.25
		l-0.298,0.393l-0.439,1.146l-0.402,0.43l-0.787-0.051l-0.678-0.753l-0.601-0.947l-0.588-0.605l-0.846,0.374l-0.326,0.014
		l-0.326-0.153l-2.076-1.404l-0.289-0.383l-0.62-2.411l-0.488-1.002l-1.135-0.882l-0.574-0.171l-1.18-0.074l-0.556-0.143
		l-0.683-0.429l-0.136-0.346l0.1-0.346v-0.43l-0.068-0.559l0.05-0.443l-0.154-0.434l-0.629-0.503l-0.461-0.217l-0.592-0.171
		l-0.624-0.083l-0.561,0.083l-0.258,0.277l-0.529,0.965l-0.353,0.309l-0.497,0.097l-0.651,0.009l-1.158-0.106l-0.959-0.36
		l-2.152-1.196l-1.103-0.378l0.28-0.586l0.172-0.226l-1.013-0.729l-0.895,0.074l-0.76,0.411l-0.633,0.245l-0.981-0.249l-0.728-0.637
		l-1.592-1.994l-0.231-0.798l-0.271-0.388l-0.411-0.429l-0.118-0.295l0.326-0.988l0.38-0.669l1.112-1.038l0.398-0.678l0.19,0.226
		l0.19,0.078l0.199,0.042l0.217,0.074l0.8,0.854l0.543,0.392l0.592,0.268l0.615,0.046l1.316-0.069l0.529,0.249l1.112,0.992
		l1.149,0.748l3.111,1.5l1.646,1.251l1.971,0.969l1.61,1.242l1.148,0.526l2.483,0.748l2.284,1.02L307.582,428.838z M268.744,403.572
		l0.977,0.124l0.95,0.281l0.651,0.572l0.118,0.95l-1.293-0.517l-1.076-0.277l-0.959-0.457l-0.886-1.065l0.443-0.046l0.371,0.065
		l0.353,0.147L268.744,403.572z M376.333,345.996l0.271-0.524l-0.217-0.239l-0.384-0.092l-0.244-0.101l-0.742-1.369l-0.014-0.744
		l0.755-0.648l1.212,0.988l0.909,1.581l0.095,1.48l-1.262,0.643l-0.393-0.073l-0.208-0.221l-0.018-0.303L376.333,345.996z
		 M411.553,377.144l0.592-0.276l0.393,0.46L412.485,378l-0.742,0.341l-0.737-0.129l-0.651-0.203l-0.674-0.046l-0.778,0.377
		l-0.416-0.258l-0.579-0.101l-0.94-0.028l-0.76-0.138l-3.979-1.556l-1.284,0.166l-1.221,1.142l-0.624-0.341l-0.705-0.111
		l-1.51,0.028l-0.543-0.124l-0.398-0.318l-0.348-0.368l-0.421-0.313l-2.455-0.976l-0.891-0.746l-0.479-0.212l-0.705,0.115
		l-1.619,0.548l-0.516-0.101l-0.525-0.308l-2.324-0.677l0.081,0.111l-0.317,0.147l-0.714,0.166l-0.362-0.129l-0.57-0.552
		l-0.203-0.129l-0.547-0.152l-0.371-0.391l-0.443-0.994l-0.307,0.828l-0.045,0.364l-1.216-0.907L380,371.851l-0.823,0.276
		l-0.145-0.354l-0.407-0.469l-0.208-0.304l-0.516,0.216l-0.457-0.368l-0.258-0.58l0.095-0.428l-0.52-0.663l-0.66-0.055l-0.741,0.106
		l-0.737-0.193l-0.402-0.543l-0.154-0.639l-0.298-0.529l-0.855-0.216l-0.285-0.354l-0.733-0.695l-0.76-0.511l-0.339,0.207
		l-0.267,0.497l-0.597-0.373l-1.035-1.058l0.014-0.478l-0.244-0.341l-0.407-0.212l-0.502-0.161l0.113-0.428l-0.113-0.4l-0.298-0.386
		L367,362.055l-0.461,0.556l-0.665,0.189l-0.778-0.087l-0.782-0.239l1.139-3.509l-0.61-0.391l-0.068-0.543l0.027-0.598l-0.285-0.593
		l-0.344-0.083l-1.121,0.248l-0.642,0.028l0.516-0.658l0.434-0.92l-0.045-0.809l-0.904-0.313l0.57-1.416l0.38-0.658l0.398-0.276
		l0.299-0.124l-0.109-0.267l-0.393-0.382l-0.303-0.078l-0.877,0.106l-0.339-0.028l-0.38-0.303l-0.249-0.386l-0.353-0.326
		l-0.742-0.138h-1.51l-0.651-0.165l-0.253-0.414l-0.353-0.239l-0.778-0.046l-1.185,0.092l-0.344,0.165l-0.244,0.267l-0.289,0.23
		l-0.43,0.11l-0.393-0.06l-0.38-0.262l-1.456-0.193l-0.597-0.235l-0.457-0.414l-0.231-0.85l0.479-1.232l-0.249-0.616l0.271-0.267
		l0.136-0.184l0.122-0.156l0.271-0.129l-0.389-0.882l-0.027-1.227l0.457-1.052l1.058-0.377l0.299,0.161l0.312,0.115l0.312,0.188
		l0.285,0.303l3.066-0.565l5.901,2.637l5.964,3.732l3.283,2.716l1.035-0.414l0.719,0.446l1.121,1.729l0.819,0.524l0.873,0.092
		l0.837-0.064l0.701,0.037l0.696,0.299l1.641,1.016l0.312,0.418l0.529,0.552l1.198,0.055l1.293-0.29l0.814-0.51l2.071,0.69
		l0.945,0.055l0.782-0.359l0.488,0.446l0.818,1.058l0.583,0.428l0.651,0.207l1.809-0.207l0.945,0.198l0.285-0.138l0.253-1.191
		l0.371-0.29l0.502-0.11l0.529-0.009l1.103,0.506l1.488,2.106l0.628,0.474l0.633,0.373l0.461,0.865l1.131,3.045l0.253,0.382
		l0.407,0.327l0.366,0.115l0.285,0.244l0.285,1.854l0.466,0.851l0.728,0.653l1.976,1.325l0.57,0.699l0.222,0.888l0.014,3.226
		l-0.172,0.276l-0.353,0.12l-0.407,0.294l-0.357,0.364l-0.213,0.345l0.375,1.409l1.764,0.285l2.22-0.078L411.553,377.144z
		 M678.179,324.203l-0.42-1.019l0.244-0.519l0.592,0.055l0.633,0.725l0.208,0.73l-0.145,0.441l-0.448,0.051L678.179,324.203z
		 M673.648,319.517l0.705-0.083l0.208,0.156l-0.235,0.11L673.648,319.517z M389.491,322.207l-0.787-0.661l-0.755-1.267l-0.547-1.505
		l-0.651-3.946l0.081-0.743l0.57-0.835l0.665-0.101l0.719,0.082l0.705-0.293l0.041,0.459l-0.095,0.294l-0.33,0.395l-0.1,0.427
		l-0.086,0.179l-0.222,0.165l0.344,0.807l0.705,4.657v0.936L389.491,322.207z M357.097,297.508l-0.244,0.11l-0.62,0.165l-0.235,0.11
		v-1.178l-0.366-1.077l-1.189-2.007l0.407-0.303l0.267,0.041l0.466,0.678l0.742,0.779l1.908,1.173l0.389,0.55l0.226,0.898
		l1.668,2.37l1.411,2.865l0.678,0.807l0.298,0.468l0.411,1.252l0.443,0.605l0.534,0.578l0.434,0.619l0.728,1.307l0.375,1.032
		l0.113,0.977l-0.081,2.032l0.19,0.94l0.809,1.876l0.14,1.257l-0.267,1.271l-0.534,1.005l-0.524,0.202l-0.222-1.147l-2.284-2.523
		l-0.525-1.376l-0.353-0.619l-0.606-0.307l-0.606,0.183l-0.398,1.578l-0.579,0.964l-0.904-0.959l-0.977-1.317l-0.796-1.385
		l-0.33-1.183v-3.449v-3.288l-0.136-1.233l0.032-0.715l0.904-1.628l-0.172-0.903l-0.439-0.926L357.097,297.508z M325.512,321.436
		l-0.09,1.689l-1.456,0.945l-4.178,0.872l-2.171,0.698l-1.185,0.624l-1.008,0.799l-4.015-1.01l-3.55-1.689l-1.212-0.229
		l-2.279,0.422l-0.719-0.202l-0.484-0.505l-0.411-0.624l-0.488-0.597l-0.24-0.055l-0.651,0.101l-0.244-0.046l-0.14-0.202
		l-0.366-0.725l-0.258-0.266l-1.641-0.661l-0.461-0.303l-0.868-0.289l-6.227-0.28l-4.689,0.734l-2.487,0.037l-1.533-0.188
		l-0.62,0.005l-0.507,0.184l-0.371-0.202l-1.185-0.193l-1.23-0.33l-1.23-0.092l-1.207-0.211l-1.899-1l-0.882-0.284l-1.076,0.165
		l-0.891,0.395l-0.9,0.064l-1.149-0.84l-2.568-2.638l-0.999-0.651l-1.519-0.771l-0.059-0.234l0.09-0.661l-0.032-0.252l-0.222-0.239
		l-0.461-0.119l-0.289-0.22l-0.208-0.495l-0.054-0.573l-0.118-0.468l-0.389-0.197l-0.932-0.133l-0.176-0.353l0.149-0.5l0.009-0.592
		l-0.516-1.266l-0.651-1.147l-0.796-1.036l-0.904-0.94l-0.832-0.61l-0.366-0.394l-0.149-0.536l0.723-0.371l0.534-0.426l0.303-0.578
		l-0.108-0.582l-0.787-1.155l-0.244-0.541l-0.023-0.66l0.402-1.49l-0.059-0.591l-0.262-0.752l-0.059-0.596l-0.592-0.591
		l-0.217-0.165l0.24-0.371l0.57-0.619l0.158-1.92l0.357-0.816l0.814-0.344l0.864-0.252l3.491-2.085l1.926,0.664l1.962,1.264
		l2.984,2.717l2.256,1.645l0.357,0.486l0.244,0.807l0.588,0.967l0.751,0.903l0.733,0.61l1.017,0.362l1.18,0.101l2.161-0.078
		l0.579-0.082l0.529-0.234l0.457-0.312l0.371-0.335l0.488-0.115l0.705,0.183l1.275,0.509l1.112,0.307l0.597,0.092l0.597-0.014
		l0.543-0.225l0.977-0.766l0.543-0.165l1.185,0.124l1.786,0.522l1.072,0.124l0.371-0.105l0.47-0.5l0.298-0.165l0.307,0.027
		l0.479,0.307l0.312,0.05h4.178l0.217-0.06l0.57-0.284l0.348-0.041l0.086,0.124l0.244,0.261l0.326,0.261l1.126,0.486l1.153,1.591
		l2.229,0.784l0.904,1.027l1.56,2.425l2.062-0.275l2.537,1.123l2.333,1.742l1.447,1.605l0.389,0.949l0.235,1.156l0.127,2.362
		l0.28,0.45l0.606,0.018l0.891-0.275l0.705,0.11l0.574,0.284l1.158,0.762l1.849,0.5l0.461,0.261l0.136,0.569l-0.05,0.789
		l0.145,0.693l0.696,0.298l0.19,0.275l0.054,0.615l-0.036,1.207l0.136,0.546l0.298,0.34l0.371,0.33L325.512,321.436z
		 M270.087,283.987l-0.787-0.362l-0.475-0.893l-0.095-1.136l0.393-1.072l0.339-0.073l0.271,0.009l0.267-0.073l0.298-0.279
		l0.411,1.072l0.258,1.278l-0.122,1.081L270.087,283.987z M293.714,283.217l0.615-0.183l0.638-0.44l0.52-0.504l0.335-0.412
		l0.705-2.757l0.57-1.177l0.963,0.096l1.497,2.674l0.606,0.394l0.841,0.028l0.665,0.101l0.511,0.238l0.434,0.403l-0.678,0.705
		l-0.823,1.502l-0.746,0.481l-0.411,0.385l-1.189-0.389l-1.126-0.669l-1.099-0.426l-1.099,0.334l0.231,0.687l-0.827,0.476
		l-1.275,0.275l-1.167,0.096l0.271-0.444l-0.041-0.357l-0.353-0.243l-0.674-0.105l0.321-0.554l0.475-0.22L293.714,283.217z
		 M234.876,277.456l0.565-0.082l1.14-1.332l0.57-0.472l-0.014,0.252l-0.09,0.151l-0.14,0.137l-0.136,0.192v0.563l-0.104,0.142
		l0.104,0.449l-0.543,0.54l-0.131,0.504l0.298,0.256l0.755-0.188l-0.158,1.388l-0.805,0.921l-2.482,1.186l0.05-1.521l0.19-1.053
		L234.876,277.456z M284.969,277.456l-0.407-0.069l-0.312-0.188l-0.19-0.302l-0.068-0.403l0.448-0.137l0.999-0.11l1.04-0.32
		l0.579-0.778l0.38,0.421l0.262-0.449l0.099-0.357l-0.09-0.348l-0.271-0.458l0.217-0.247l0.149-0.018l0.384,0.266l0.995,0.439
		l1.022-0.101l0.977,0.128l0.805,1.145h0.416l0.543-0.943l0.986,0.156l1.112,0.788l0.95,0.925l0.353,1.246l-0.375,1.594
		l-0.787,1.465l-0.891,0.879l-0.19-0.431l-0.194-0.179l-0.294,0.023l-0.452,0.169l-0.068-0.664l-0.312-0.504l-0.506-0.289
		l-0.669-0.041l0.136,0.302l0.244,0.843h-0.38l-0.904-1.475l-0.687-0.559l-0.868,0.293l-0.841,0.394l-1.031,0.046l-1.013-0.238
		l-0.76-0.385l-0.113-0.33l-0.023-0.513l-0.086-0.481L284.969,277.456z M233.32,275.286l0.425-0.082l1.13,0.366l-1.863,3.768
		l-0.796,0.769l-2.65,0.801l-0.479-0.334l-0.389-0.577l-0.434-0.325l-0.633,0.435l-1.415-1.978l0.095-0.632l1.736-0.041
		l-0.344-0.751l0.181-0.531l0.529-0.183l0.737,0.311v-0.733l0.267,0.101l0.868,0.247l-0.077-0.591l-0.217-0.517l-0.357-0.458
		l-0.484-0.394h0.796l0.543,0.275l0.434,0.037l0.326-0.201l0.208-0.449l0.375,0.76l0.086,0.591l0.136,0.481l0.552,0.467l0.28-0.009
		L233.32,275.286z M283.992,275.57l-0.692-0.531l0.077-0.577l0.384-0.65l0.231-0.792l-0.262-1.483l0.181-0.462l0.832-0.146
		l0.877,1.163l0.298,0.737l-0.036,1.131l-0.778-0.334l-0.461,0.412L283.992,275.57z M147.102,259.341l1.112,0.54l0.8,1.19
		l-0.054,1.18l-1.479,0.54l-0.488-0.155L145,261.601l-2.659-0.723l-2.948-1.254l-1.352-0.993l0.163-0.865l2.076,0.311l0.895,0.032
		l0.827-0.343l0.339,0.421l0.47-0.736l0.307-0.334l0.326-0.156l0.511,0.091l0.321,0.284l0.235,0.293l0.28,0.137l0.927,0.247
		l0.574,0.535l0.407,0.544L147.102,259.341z M181.179,261.601l1.551,0.613l-0.059,0.522l-0.19,0.439l-0.303,0.302l-1.266,0.32
		l-1.158,0.97l-0.886,0.329l-1.054-1.666l-0.258-0.293l-0.552-0.307v-0.7l0.38-1.446l0.262-0.517l1.632-1.249l0.298-0.503
		l0.24-0.641l0.163-0.741l0.059-0.805h0.38v1.189l0.461,0.823l0.38,1.295l0.136,1.286L181.179,261.601z M171.629,247.751
		l1.153-0.265l1.397,0.005l1.167,0.38l0.484,0.85l0.14,1.198l-0.086,0.412l-0.43,0.494l-0.52,0.151l-0.624-0.055l-0.534,0.05
		l-0.222,0.448l-0.258,0.201l-1.076,0.425l-0.145,0.352l0.335,0.334l1.09,0.165l0.434,0.27l0.312-0.201l0.235-0.082l0.592-0.101
		l-0.705,0.942l-0.366,0.32l-0.448,0.274l1.262,1.272l-0.475,1.313l-2.265,2.017l-0.692,1.057l-0.271,0.316l-0.502,0.302
		l-0.968,0.229l-0.434,0.247l-0.796,0.114l-1.23-0.261l-1.103-0.375l-0.488-0.256l-0.149-0.375l-0.339-0.256l-0.651-0.32
		l-0.244-0.284l-0.326-0.585l-0.231-0.284l-1.623-1.445l-0.271-0.32v-2.872l0.38-1.957l0.226-0.338l0.326-0.329l0.244-0.466
		l-0.036-0.786l1.501,0.924l0.606,0.027l0.208-0.951l0.38,0.055l0.19,0.165l0.19,0.585l0.448-0.732l-0.149-0.54l-0.298-0.585v-0.869
		l0.339-0.375l1.931-0.768l0.425-0.082l0.163-0.078l0.172-0.224l0.416,0.384v0.384l-0.47,0.347l-0.19,0.425l0.09,0.471l0.362,0.485
		l0.723,0.306l0.606-0.306l0.543-0.544L171.629,247.751z M132.831,250.477h-0.244l-0.244-0.16l-0.285-0.078l-0.371,0.238
		l-0.077,0.284l0.077,1.253l-0.416,1.619l-0.068,0.91l0.294,0.745l2.012,2.164l1.126,0.796l1.262,0.325v0.348l-0.868,0.201
		l-1.036-0.046l-0.995-0.252l-0.742-0.444l-0.647-0.641l-0.393-0.233l-0.497-0.087l-0.466-0.229l-0.086-0.54l0.045-0.64
		l-0.041-0.508l-0.366-0.645l-1.465-2.031l-0.651-0.43l-0.895-0.293l-1.203-0.691l-1.067-0.846l-0.457-0.704l0.149-0.805
		l0.362-0.691l0.488-0.562l0.516-0.43l1.483-0.791l0.841-0.617l1.058-2.098l1.565-1.54l1.682-1.079l1.026,0.018l1.004,0.681
		l0.846,1.07l0.592,1.399l0.217,1.632l-0.19,0.357l-0.809,0.947l-0.579,1.879l-0.145,0.265l-0.154,0.188l-0.104,0.37l-0.122,0.21
		l-0.344,0.274l-0.253,0.018l-0.204-0.082H132.831z M262.296,246.608l0.651,0.594l-0.05,0.366l-0.601,0.576l-0.506,0.274
		l-0.516,0.073l-0.574-0.101l-0.678-0.247l-0.638-0.338l-0.461-0.37l-0.8-0.828l-0.674-1.07l-0.466-0.201l-0.76,0.535l-0.782-0.882
		l-0.859-0.466l-0.611-0.668l-0.054-1.467l0.407-1.481l0.728-0.955l1.112-0.521l1.578-0.146l1.623,0.375l0.452,0.905l-0.176,2.624
		l0.339,1.202l0.642,0.791L262.296,246.608z M431.766,239.893l-0.452-0.571l0.244-0.247l0.597,0.027l0.665,0.238l-0.195,0.224
		l-0.235,0.151l-0.299,0.101L431.766,239.893z M355.202,309.049l-2.876-2.027l-0.534-0.05l-0.154-0.958l-0.398-0.853l-2.202-2.898
		l-0.285-0.518l-0.136-0.555l-0.095-1.096l-0.185-0.628l-0.601-0.963l-2.618-2.741l-3.807-1.943l-1.329-1.558l-2.596-0.357
		l0.298-0.967l-1.555-1.764l-0.751-0.541l-0.425-0.082l-0.895,0.082l-0.389-0.211l-0.176-0.412l0.086-0.925l-0.1-0.408l-1.293-1.141
		l-3.143-1.415l-1.221-1.287l-4.038-7.473l-0.977-2.756l-0.742-1.328l0.298-0.43l0.09-0.32l-0.09-0.32l-0.298-0.43l-0.036-0.819
		l-0.859-2.828l-0.769-1.208l-2.293-4.635l-0.212-0.769l-0.032-3.028l-0.104-0.512l-1.8-3.961l0.977-0.659l1.637-1.418l1.022-0.265
		l0.004-0.508l-1.334-2.94l-2.198-2.908l-0.28-0.544l-0.719-0.357l-1.895-1.869l-0.601-0.846l-0.692-2.495l1.126-0.846l2.062,0.242
		l2.062,0.763l1.099,1.024l0.416,0.164l0.574-0.119l0.601-0.311l0.348-0.439l-0.19-0.494l-1.714-1.133l0.154-0.393l0.389-0.384
		l0.493-0.238l0.484,0.055v0.352l1.293,0.023l0.687,0.393l1.049,1.499l0.678,0.553l0.579,0.315l0.52,0.475l0.538,0.992l0.249,0.686
		l0.095,0.471l0.036,0.585l0.154,0.274l0.769,0.475l0.249,0.197l1.867,2.876l2.88,3.109l2.238,1.893l1.316,1.729l0.543,1.07
		l0.222,1.052l-0.439,1.171l-1.054,0.659l-1.253,0.457l-1.044,0.558l0.371,0.741l0.24,0.741l-0.023,0.737l-0.886,1.533l-0.014,0.718
		l0.19,0.718l0.122,0.819l0.235,0.828l1.04,0.984l0.244,0.522l0.344,0.549l0.787-0.137l1.329-0.618l0.497,0.22l1.519,1.153
		l0.488,0.549l0.036,0.394l-0.235,0.307l-0.136,0.352l0.335,0.513l0.448,0.261l0.366-0.027l0.244-0.142l0.081-0.092l1.302,0.618
		l1.393,0.989l1.28,1.25l0.99,1.401l-0.724-0.284l-0.565,0.439l-0.163,0.641l0.484,0.321l0.669,0.284l0.642,0.687l0.321,0.893
		l-0.285,0.865l0.488,0.275l0.217,0.357l0.063,0.458l-0.009,0.6l0.099,0.591l0.28,0.146l0.366,0.009l0.393,0.215l0.326,0.234
		l0.389,0.201l0.326,0.334l0.127,0.609l-0.19,0.257l-1.393,1.09l1.013,0.463l0.353,0.289l0.217,0.403l0.724-0.284l0.651,0.169
		l0.335,0.508l-0.19,0.756l0.421,0.055l1.058,0.33v0.385l-1.506,0.353l-0.556,0.032l-0.194,0.302l0.045,0.66l0.231,0.66l0.298,0.302
		l0.353,0.44l0.326,2.034l0.665,0.632l-0.751,0.412l-0.348-0.353l-0.271-0.559l-0.529-0.266l-0.516,0.312l0.122,0.605l0.461,0.674
		l2.193,2.282l0.629,0.894l1.75,4.409l0.502,0.504l0.583,0.468l0.787,1.073l1.072,1.926l0.665,4.43l-0.027,1.206l-0.344,0.716
		l-0.597,0.179L355.202,309.049z M119.858,233.531l0.303,1.864l0.411,0.791l0.805,0.416v0.416l-1.61-0.941l-0.805-2.084
		l-1.026-1.919l-2.252-0.461l0.194-0.165l0.362-0.416l0.203-0.183l-0.909-0.416l-0.968-0.763l-0.407-0.758l0.764-0.398l0.755,0.617
		l1.438,0.1l1.388,0.283l0.624,1.142l0.086,0.722L119.858,233.531z M124.443,234.299h-0.375l-0.109-0.795l-0.42-0.151l-0.534,0.036
		l-0.488-0.21l-0.217-0.416l-0.511-1.567l-0.529-0.987l-0.624-0.841l-0.814-0.69l-1.103-0.548l0.411-0.352l-0.57-0.055l-0.258-0.142
		l-0.041-0.233l0.077-0.338l1.361,0.475l1.298-0.096l1.203,0.096l1.108,1.028l0.529,1.179l0.407,1.467l0.231,1.599L124.443,234.299z
		 M102.377,221.197l0.203,0.936l0.583-0.137l0.922,2.434l-1.438-0.055l-1.655-1.448l0.235-1.731H102.377z M157.209,249.672
		l0.76,0.466l0.525,0.7l0.172,0.901l-0.316,1.043h-0.38l-0.122-0.924l-0.407-0.585l-0.439-0.375l-0.208-0.247l-0.19-0.805
		l-0.479-0.786l-1.23-1.308l-1.465-0.805l-3.03-0.265l-1.397-0.631l-2.446-1.714l-1.311-1.577L145,242.581l-0.09-0.823l-0.452-1.275
		l-0.181-0.782v-3.451l0.412,0.649l0.217,0.663l0.095,1.549l0.298,0.676l1.302,0.366l0.298,0.507l0.176,0.581l0.393-0.091
		l0.389-0.539l0.181-0.718l-0.298-0.58l-1.311-1.252l-0.534-1.819l-0.615-1.343l-0.868-1.298l-0.968-0.836l-0.683-0.169
		l-0.511,0.146l-0.561,0.27l-0.859,0.169l-0.362-0.228l-0.398-0.411l-0.398-0.082l-0.33,0.722l-0.61-0.366h-0.461l-0.859,0.366
		l-0.054,0.05l-0.443,0.219l-0.258,0.082l-1.895,0.027l-2.053-0.196l-0.642,0.169l-0.484,0.8l-0.366,1.051l-0.597,1.001
		l-1.207,0.635l-0.977-0.21l-1.899-1.11l-0.574,0.169h-0.38l-0.348-5.209l0.163-0.347l0.8-1.133l0.339-0.247l0.791-0.005
		l0.647-0.078l0.543-0.228l0.516-0.489l0.267,0.726l0.384,0.219l0.439-0.155l0.389-0.407l0.172-0.516l0.005-1.211l0.24-0.571
		l-0.19-0.662l0.307-0.763l1.212-1.471l0.552-0.84l0.832-1.886l0.534-0.735l2.369-2.338l0.868-0.571l0.895-0.342l1.682-0.447
		l0.841-0.329l-0.027,0.265l0.072,0.064l0.149,0.009l0.185,0.046l3.857,2.187l1.488,0.114l-0.389,1.009l0.172,0.712l0.357,0.68
		l0.203,0.886l-0.072,2.133l0.109,1.041l0.38,0.854l-0.525,1.032l0.181,0.717l1.271,1.137l0.484,0.886l-0.163,0.704l-0.267,0.64
		l0.149,0.663l0.38-0.407l0.326,0.082l0.353,0.247l0.461,0.078l0.353-0.137l0.669-0.443l0.497-0.183l1.085-0.21l0.904-0.009
		l0.873,0.297l1.596,1.156l0.217,0.229l0.289,0.452l0.122,0.356l0.221,1.179l0.687,0.932l1.438,0.982l0.57,0.804l-0.09,1.408
		l0.09,0.507l0.312,0.507l0.864,0.686l0.335,0.343l0.461,0.946l0.362,1.957l0.317,0.965l0.253,0.188l0.362,0.032l0.344,0.123
		l0.217,0.425l-0.018,0.549l-0.199,0.462l-1.099,1.847l-0.136,0.325l-0.104,0.627l-0.018,0.521l0.068,0.494l0.136,0.457l0.195,0.439
		l-3.423-1.354l-1.506-0.142V249.672z M91.298,222.17l0.267,1.452l0.027,0.781l-0.294,0.699l0.434,1.192l-0.167,1.375l-0.629,1.142
		l-0.959,0.471l-0.502-0.69l-1.397-4.102l-0.823-1.265l-0.136-1.247l0.389-2.699l-0.606-2.836l0.018-1.219l0.968-0.543l0.827,0.721
		l0.692,0.813l0.244,0.594l0.339,1.32l0.746,1.274l0.299,0.968l0.199,1.005L91.298,222.17z M118.719,225.102l-2.803,0.233
		l-2.885-2.37l-2.229-3.334l-0.841-2.68l0.095-0.708l0.19-0.676l0.506-1.26l1.325-2.045l0.19-0.447l0.746-0.726l1.709-0.685
		l1.908-0.497l1.334-0.201l2.582,1.36l1.827,1.972l1.158,2.411l0.538,2.685l0.077,2.667l-0.158,0.95l-0.841,2.329l-0.95,1.617
		l-1.167,0.735l-1.171-1.329l-0.47,0.178l-0.231,0.027L118.719,225.102z M102.187,202.394l0.421,0.808l-0.846,1.794l-2.044,2.802
		l-1.04,0.867l-1.348,1.406l-0.868,1.57l0.393,1.338l0.52,0.685l0.009,0.603l-0.407,0.479l-0.705,0.288l-0.176-0.196l-0.461-0.379
		l-0.619-0.164l-0.651,0.388h-0.371l-0.122-1.128l0.24-1.123l-0.158-0.849l-2.618-0.717l-0.19-0.931l0.57-2.328l-0.217-0.447
		L91,206.784l-0.525-0.32l-0.307-0.237l-0.724-1.506l-0.38-0.411l-0.94-0.319l-0.045-0.064l-0.448-0.055l-0.054-0.164l0.059-0.237
		l-0.579-1.278l-0.335-0.183l-0.732,0.383l-1.031-2.532l0.393-2.518l1.479-2.108l2.234-1.291l0.724,0.169l0.515,0.246l0.461,0.041
		l0.534-0.456l0.163,0.47l0.294,0.411l0.683,0.652l0.136,0.283l-0.059,0.246l0.05,0.173l0.868,0.109l0.167,0.164l0.027,0.292
		l-0.014,0.447l0.235,0.228l0.538,0.224l0.538,0.383l0.466,1.314l0.543,0.369l1.126,0.356l-0.407,0.42l0.751,0.798l1.257-0.479
		l1.248,0.452l1.194,0.744L102.187,202.394z M33.464,180.131l0.886,0.465l0.62,0.606l0.515,0.652l0.638,0.574l-1.153,1.062
		l-1.18,0.278l-2.831-0.223L30,183.09l0.357-1.021l1.551-1.938l0.389,0.132l0.312-0.009L33.464,180.131z M47.156,163.204
		l1.664,0.405l0.421,0.201l0.764,0.952L50,165.514l-0.326,0.775l-0.212,0.962l-0.407,0.355l-0.931,0.273l-1.031,0.096l-0.696-0.15
		l-0.913,0.82l-0.923-0.014l-0.949-0.118l-1.004,0.492l-0.515-0.264l-0.638-0.615l-0.402-0.301l-1.574-0.488l-0.316-0.278
		l0.09-0.761l1.456-3.094l0.452,0.269l0.172-0.829l0.335-1.02l0.94-0.333l-0.19-0.442l0.027-0.346l0.163-0.355l0.696,0.269
		l1.953,1.672L47.156,163.204z M63.918,157.469l0.439,0.237l1.054,0.305l0.407,0.191l-0.547,0.333l-0.592,0.082l-0.592-0.128
		l-0.547-0.287l-0.136,0.87l-0.267,0.852l-0.443,0.765l-0.705,0.601l-0.063-0.433l-0.099-0.223l-0.118-0.187l-0.099-0.301
		l-0.375,0.446l-0.434,0.282l-0.516,0.114l-0.57-0.041l0.882-0.615l0.823-0.765l0.181-0.46l-0.258-0.383l-0.353-0.387l-0.109-0.487
		l0.19-0.793l0.24-0.251l0.488-0.105l0.384-0.164l-0.299-0.332l-0.475-0.273l-0.181,0.005l-0.715-1.057l-0.57-1.139l0.154-1.116
		l1.51-0.924h1.171v0.383l-0.764,0.191l-0.597,0.433l-0.389,0.656l-0.149,0.824l0.488,0.465l0.954,0.246l0.714,0.328l-0.258,0.71
		l0.827,1.221L63.918,157.469z M664.32,423.445l0.071,0.79l-0.066,1.1l3.024-0.216l0.317,2.234l-4.16,0.288l-1.169,0.141
		l-0.929-0.032l-1.584-0.201l-0.829-1.133l-0.663-0.627l-0.76-0.291l-0.302-0.419l-0.967-1.201l-0.691-0.858l-0.003-0.929
		l0.446-0.586l0.55-0.311l1.134-0.553l1.032-0.002l1.273,0.066l1.271-0.211l1.309,0.273l2.34,0.853L664.32,423.445z
		 M643.946,403.186l-1.283,1.385l-0.425,0.045l-0.56,0.135l-0.424-0.111l-0.464-0.267l-0.015-0.379l0.031-0.512l0.338-0.423
		l0.193-0.381l-0.066-0.78l-0.787,0.473l-0.64,0.532l-0.32-0.492l0.115-1.278l0.806-1.028l0.977-0.898l0.736-0.248l0.851,0.312
		l0.852,0.693l0.452,0.806l0.045,1.071L643.946,403.186z M621.201,369.813l-0.605,0.638l-0.224,1.101l-2.072,0.817l-0.665,0.6
		l-1.019,0.478l-0.605,0.478l-1.083-0.076l-0.38,0.106l-1.433-0.569l-0.7,0.543l-0.499,0.371l-0.624-0.179l-1.964,0.314
		l-2.357,2.736l-1.658,2.514l-0.701-0.701l0.169-1.558l-0.665-0.795l-0.669-0.128l-1.572,1.428l-1.658-0.097l-0.765-1.339
		l-0.158-2.23l-0.033-1.18l1.062-0.757l0.501-0.769l0.637-0.892l0.51-0.031l-0.244,1.95l0.82,0.919l0.543,0.161l0.286-0.732
		l0.062-0.861l0.167-1.489l0.924-1.303l1.679-1.57l2.516-0.187l3.955,0.43l1.786-0.798l1.918,0.397l0.942,0.508l0.154,0.262
		l0.226,0.249l1.65-0.22l1.561,0.062L621.201,369.813z M195.477,196.234l0.809,0.347l0.886,0.812l0.552,0.903l-0.163,0.62
		l-0.877,0.096l-0.827-0.493l-0.638-0.771l-0.353-0.748l-0.583,0.753l-1.058-0.242l-2.148-1.277l0.109,0.534l0.683,1.346
		l-0.543-0.009l-1.384-0.338h-1.352l0.081-0.356l-0.235-0.794l-0.638-0.785l-1.108-0.356l-0.208-0.187l-0.28-0.388l-0.127-0.401
		l0.235-0.173l0.533,0.059l0.886,0.251l0.307,0.036l0.1,0.109l0.47,0.1l0.317-0.141l-0.335-0.607v-0.324l0.389-0.242l0.534-0.005
		l0.43,0.379l0.638,0.292l1.37,0.283l0.651,0.867l0.927,0.447l1.081,0.301L195.477,196.234z M271.783,246.8l1.637,1.262l0.642,0.951
		l-0.733,0.658l-0.497-0.096l-1.772-1.047l-0.267-0.055l-0.647,0.092l-0.271-0.037l-0.276-0.297l-0.131-0.384l-0.167-0.334
		l-0.963-0.38l-0.66-1.029l-1.148-0.375l-0.389-0.379l-0.773-1.015l-1.75-1.367l-0.529-0.581l-0.122-0.549l0.117-0.494l-0.136-0.357
		l-0.841-0.137l-0.633-0.379l-2.591-2.308l-4.626-0.987l-1.981-1.206l-1.384-0.576l-1.239-1.042l-0.904-0.48l-0.95-0.219
		l-0.746,0.26l-1.872-1.138l-1.018-0.302l-0.941,0.288l-0.561-1.293l-0.507-0.704l-0.637-0.302l-0.773-0.064l-0.732-0.247
		l-0.507-0.466l-0.077-0.758l-1.207,0.407l-1.194-0.233l-1.126-0.612l-5.205-3.81l-0.344-0.059l-0.855,0.123l-0.348-0.064
		l-0.235-0.361l-0.045-0.498l0.009-0.461l-0.072-0.247l-0.443-0.078l-0.226,0.21l-0.19,0.247l-0.316,0.037l-1.519-0.767
		l-0.357-0.055l-0.8,0.105l-0.362-0.05l-0.009-0.155l-0.244-0.767l-0.127-0.228l-0.624-0.292l-0.47-0.137l-0.308-0.311l-0.108-0.822
		l-0.371,0.283l-1.185,0.512l-0.099-1.114l-0.497-0.859l-0.805-0.548l-1.045-0.192l-3.242-1.534l-0.298-2.141l-0.461-0.972
		l-0.95,0.26l-1.696-0.411l-0.809-0.525l0.416-0.803l-0.61-0.685l-0.556-0.466h-0.38l-0.583,0.758l-0.583-0.703l-0.76-2.008
		l-0.624-0.744l-0.841-0.657l-0.963-0.342l-0.954,0.256l-0.538-1.004l-2.419-1.346l-0.877-0.753l-0.271-0.758l0.027-0.593
		l0.149-0.538l0.095-0.593v-2.322l-4.341-3.645l-2.862-1.533l-0.488-0.871l-0.081-0.962l0.384-0.648l0.94,0.146l1.144,0.693
		l5.458,1.87l0.457,0.31l0.543,0.018l0.493-0.666l0.592-0.57l0.8,0.296l0.203-0.214l0.158-0.114l0.172-0.064l0.262-0.064
		l0.407,1.104l0.805,0.721l2.17,0.922l0.217-0.329l0.38-0.392l0.416-0.328l0.344-0.128l0.692,0.233l0.294,0.57l0.181,0.693
		l0.353,0.639l1.085,1.026l0.669,0.493l0.552,0.205l0.353,0.37l0.877,1.629l1.008,0.593l0.855,1.15l0.475,0.502l0.692,0.42
		l1.999,0.73l0.995,0.602l1.673,1.438l1.167,0.643l-0.57,1.109l0.421,0.991l0.868,0.52l0.791-0.292l2.22,0.913l0.651,0.429
		l0.38,0.712l0.217,0.822l0.353,0.484l0.773-0.292l1.51,1.187l1.257-0.598l1.031-0.224l1.017,0.073l1.221,0.32l-0.705,0.324
		l0.176,0.516l0.583,0.484l0.529,0.21l0.941,0.091l0.525,0.265l0.312,0.484l0.285,0.694l0.95-0.703l0.561,0.484l0.443,0.899
		l0.57,0.47l1.809,0.155l0.742-0.21l0.312-0.712l1.031,0.475l0.421,0.274l0.448,0.402l0.868-0.648l0.574,0.621l0.479,1.169
		l0.561,0.968l0.904,0.694l1.578,0.877l0.728,0.566l0.145,0.082l0.647,0.269l0.122,0.178l0.136,0.452l0.09,0.137l2.582,2.069
		l5.141,3.079l10.73,8.106l0.244,0.548l-1.189,1.248l-1.158,1.604l-0.421,0.315l-0.488-0.279l-0.624-0.155l-0.624,0.073
		l-0.475,0.361l0.041,0.324l0.873,0.622l0.461,0.942h0.525l0.525-0.265l0.452-0.498l0.516,0.466l1.669,2.331l0.448,0.846
		l0.154,0.805L271.783,246.8z M188.762,192.758l-0.452-0.479l-0.47-0.634l-0.61-0.566l-1.66-0.415l-1.176-0.789l-0.746-0.173
		l-0.411-0.31l-0.077-0.639l0.231-0.552l0.448-0.032l0.538,0.36l0.574,0.223l0.502,0.319l0.312,0.629l0.728-0.228l0.651,0.274
		l1.275,1.095l0.683-0.556l1.207,0.091l1.316,0.511l1.004,0.721l-0.538,0.283l-0.371,0.388l-0.1,0.525l0.249,0.684l-2.469-0.493
		L188.762,192.758z M146.885,184.686l0.412,0.424l-0.344,0.424l-0.122,0.584l0.122,0.648l0.344,0.602l-1.519-1.113l-0.059,0.839
		l-0.565,0.315l-1.718-0.041v-0.347l0.335-0.187l0.484-0.388l0.321-0.192l-2.193-0.648l-0.619-0.328l-0.443-0.073l-1.42,0.068
		l-0.57-0.164l0.909-0.657l0.954-0.533l1.46,0.283l1.574-0.187l1.397,0.059l0.909,1.035L146.885,184.686z M184.204,185.11
		l-0.217,0.506l-0.149,0.556l-0.054,0.593l0.032,0.602l-0.823-0.479l-0.28-0.287l-0.407,1.952l-0.769-0.556l-0.479-0.757
		l-0.624-0.597l-1.167-0.041v-0.347l0.76-0.803h0.38l0.525,0.096l1.442-1.382l1.063-0.246v1.532l0.212-0.1l0.366-0.132
		L184.204,185.11z M156.033,184.896l0.104,0.839l0.656,2.057l0.416,0.762l-1.506,0.087l-0.791-0.05l-0.932-0.392l-0.362,0.087
		l-0.384,0.169l-0.421,0.1l-0.42-0.128l-0.353-0.524l-0.366-0.114l-1.067-0.638l0.579-1.409l1.818-2.193l2.645,0.948
		L156.033,184.896z M142.341,180.706v1.368l-0.19,0.743l-0.719,0.319l-1.551,0.059l-0.669,0.397l-1.42,2.663l-0.104-0.657
		l-0.24-0.351l-0.344-0.041l-0.448,0.246l-0.728-0.584l-1.348-0.305l-2.514-0.223l-1.081-0.351l-0.746-0.725l-0.226-1.04
		l0.497-1.327l-0.47,0.169l-0.33,0.264l-0.678,0.716l-0.43-0.205l-0.253,0.173l-0.077,0.798l-1.058-0.616l-1.981-0.67l-1.167-0.629
		l-2.944-0.242l-0.502,0.05l-0.357,0.547l-0.787-0.027l-0.782-0.575l-0.601-1.691l-0.597-0.811l-0.755-0.739l-0.678-0.337
		l-0.493,0.269l-1.085,0.442l-0.769,0.091l0.452-0.802l-0.516-0.921l-0.832-0.738l-1.072-0.492l-1.207-0.178l-0.76-0.287
		l-0.895-0.72l-5.191-6.102l-0.235-0.519l-0.136-0.697l-0.244-0.615l-0.516-0.269l-0.742-0.196l-0.411-0.478l-0.565-1.239
		l-2.175-3.034l-0.678-0.437l-0.538-0.538l-1.944-3.321l-0.913-0.642l-2.641-1.385l-0.827-0.264l-0.665-0.305l-6.199-5.424
		l-0.136-0.191l-1.171-0.956l-0.371-0.779l-0.434-3.046l0.018-1.129l0.416-0.783l1.854-1.557l0.95-0.173l1.284,0.182l1.112,0.414
		l0.656,0.724l0.384,0.182l0.402,0.291l0.176,0.496l0.244,0.496l0.529,0.009l0.543-0.2l0.24-0.127l2.107,0.619l1.474,1.115
		l2.858,3.264l0.782,0.683l2.51,1.694l2.378,0.642l3.468,2.364l2.32,1.111l2.008,0.373l0.95,0.483l0.687,0.232l0.606,0.36
		l0.262,0.674l0.217,0.41l0.507,0.064l0.624-0.032l0.552,0.109l0.547,0.465l1.194,1.653l2.116,1.74l0.466,0.82l0.158,0.98
		l0.104,2.406l0.615,2.515l0.904,2.137l0.543,0.711l0.579,0.597l0.511,0.715l0.298,1.035l0.855-0.515l0.28-0.278l0.439,0.98
		l0.733,0.729l0.963,0.465l1.112,0.15l0.751,0.351l0.538,0.802l0.326,0.957l0.109,0.775l0.312,0.483l0.733,0.351l1.61,0.524
		l0.629,0.365l0.683,0.547l0.606,0.67l0.393,0.711h0.348l0.136-0.93l0.411-0.032l0.583,0.346l0.611,0.232l1.194,0.005l0.556-0.109
		l2.017-0.743l1.085-0.041l0.751,0.547L142.341,180.706z M769.245,458.961l0.592,0.056l0.163,0.81l-0.402,0.194l-0.9,0.324
		l-0.253-0.495l0.434-0.444L769.245,458.961z M598.83,354.417l-0.538,0.166l-0.434-0.12l-0.271-0.543l0.05-0.639l0.136-0.391
		l0.33-0.267l0.787,0.202l0.484,0.759l-0.118,0.556L598.83,354.417z M314.922,211.978l0.678,2.009l-0.393,0.087l-0.493-0.078
		l-1.054-1.452l-0.303-0.689l0.249-0.68l0.624-0.128l0.366,0.329L314.922,211.978z M667.707,421.935l0.036,0.508l-0.326,0.868
		l-0.913,0.665l-0.977,0.166l-0.371-0.637l0.298-0.942l0.742-0.729l1.008-0.088L667.707,421.935z M627.01,345.564l0.814-0.037
		l0.714,0.496l-0.552,1.066l-1.031,0.974l-0.787,0.11l-0.068-0.823l0.108-0.74l-0.366-0.032l-0.154-0.386l0.398-1.172l0.19-1.186
		l-0.041-1.089l0.221,0.326l-0.005,2.72l0.366-0.129L627.01,345.564z M87.645,206.405l0.203,0.187l0.574,0.415l-0.222,0.835
		l-1.144,0.566l-0.999-0.52l0.059-0.497l0.443-0.552l0.583-0.465L87.645,206.405z"/>
</g>
<g id="Copyright">
	<text transform="matrix(1 0 0 1 681.6426 577.5916)" class="st1 st2">© Vemaps.com</text>
</g>
</svg>
