<?xml version="1.0" encoding="utf-8"?>
<!-- Generator: Adobe Illustrator 23.0.1, SVG Export Plug-In . SVG Version: 6.00 Build 0)  -->
<svg version="1.1" xmlns="http://www.w3.org/2000/svg" xmlns:xlink="http://www.w3.org/1999/xlink" x="0px" y="0px"
	 viewBox="0 0 800 600" style="enable-background:new 0 0 800 600;" xml:space="preserve">
<style type="text/css">
	.st0{fill:#808080;}
	.st1{font-family:'Roboto-Regular';}
	.st2{font-size:14px;}
</style>
<g id="Singapore">
	<path class="st0" d="M683.078,229.873l50.76,11.455l28.2,10.384L770,264.155l-23.555,38.98l-34.669,41.452l-41.802,33.128
		l-45.784,13.432l-50.262,5.521l-39.812,15.163l-71.329,48.538l-11.778,10.878l-5.806,6.922l-10.617,4.532l-26.209,3.956
		l-49.765-0.989l-24.551-6.263l-10.451-12.114l-17.418-27.771l-42.3-19.283l-50.926-11.784l-43.627-4.697l-88.581,2.307
		l-35.996-8.735L30,369.309l8.792-31.974l60.879-85.623l8.792-38.321l10.119-21.592l22.892-23.158l27.039-16.317l19.574-3.214
		l44.456,5.769l45.783-5.769l56.732-26.949l30.356-8.818l54.243,3.132l52.253,16.977L625.351,209.6L683.078,229.873z"/>
</g>
<g id="Copyright">
	<text transform="matrix(1 0 0 1 681.6426 577.5916)" class="st1 st2">© Vemaps.com</text>
</g>
</svg>
