<?xml version="1.0" encoding="utf-8"?>
<!-- Generator: Adobe Illustrator 23.0.1, SVG Export Plug-In . SVG Version: 6.00 Build 0)  -->
<svg version="1.1" xmlns="http://www.w3.org/2000/svg" xmlns:xlink="http://www.w3.org/1999/xlink" x="0px" y="0px"
	 viewBox="0 0 800 600" style="enable-background:new 0 0 800 600;" xml:space="preserve">
<style type="text/css">
	.st0{fill:#808080;}
	.st1{font-family:'Roboto-Regular';}
	.st2{font-size:14px;}
</style>
<g id="Slovenia">
	<path class="st0" d="M82.684,522.363l0.497-1.432l-0.593-2.85l1.606-3.451v-2.087l-2.294-0.45l-1.778-1.31l-1.376-2.21
		l-0.975-3.111l4.932,1.16l20.093-3.002l18.276-2.73v-2.075l-2.485-3.591l-3.518-3.837l-3.671-4.029l11.579-1.017l9.275,5.031
		l11.096-1.145l4.736-5.878l4.49-5.574l1.797-4.392l-0.246-0.644l-0.118-0.311l-2.112-0.156l-3.521-2.014l-2.525-2.761
		l-18.719-31.633l-16.267-7.377l-2.248-1.752l-9.297-7.247l-3.933-1.219l-8.085-0.992l-6.555-3.587l-1.667-3.297l-1.926-3.81
		l0.777-11.537l7.054-16.128l2.1-4.803l1.663-6.54l1.76-6.921l-3.982-6.428l-1.206,0.283l-6.831,1.604l-7.575,3.651l-7.041,0.541
		l-6.386-7.372l-0.097-0.384l-0.146-0.332l-0.194-0.314l-0.219-0.28l-1.093-0.891l-3.059-3.6l3.593-3.269l1.214-0.804l1.821-2.413
		l0.656-2.343l-0.583-2.186l-1.894-1.994l5.366-7.172l4.108-3.139l22.041-16.852l6.725-12.44l-0.932-3.281l-0.865-3.047
		l-2.355-0.457l-3.157-0.613l-6.92,0.754l-5.973-0.947l-7.065-7.033l-4.419-3.105l-6.555-1.333l-3.278-1.877l-7.041-0.491
		l-3.642-1.263l3.423,6.001l-6.41,1l-1.991-2.947l-0.825-4.702l-3.108-4.283l-0.024-0.035l-0.024-0.035l-1.432-8.515l-1.311-4.039
		L30,251.858l6.118-3.83l1.017-1.755l3.329-5.741l3.156-7.226l2.549-3.069l3.108-0.334l2.913-1.425l5.633-4.125l10.877-5.851
		l5.73-6.003l5.002-7.061l5.754-5.443l7.964-1.048l5.803,0.203l4.395-2.37l1.965-4.083l0.609-1.266l0.34-8.727l1.311-1.807
		l0.874-2.116l0.437-2.408l-0.024-2.681l3.557,0.3l15.515,3.784l3.205-0.035l15.248-2.514l7.089,1.182l21.487,10.193l3.86,0.476
		l3.796-0.685l4.119-0.743l4.128,0.106l3.836,1.146l3.448,1.736l13.208,11.428l2.508,0.686l0.454,0.124l21.72,0.621l28.15,0.805
		l7.915-1.744l2.501,0.564l1.117,1.603l0.753,1.92l1.311,1.585l4.021,1.863l3.239,1.501l3.933,0.616l8.109-1.937l3.205,4.428
		l2.647,5.835l3.108,3.264l4.079-1.804l1.037-2.655l1.148-2.942l1.967-6.594l3.472-5.011l2.282-0.934l5.099-0.458l2.379-0.705
		l2.428-1.586l4.71-4.934l1.068-0.282l1.39,0.25l1.742,0.314l1.675-4.212l2.744-3.323l1.165-2.318l1.408-1.622l3.909-1.772
		l2.088,1.49l6.021-1.005l5.196-2.381l1.311-1.155l1.898-4.354l2.473-5.676l1.722-5.23l1.823-5.538l2.671-5.757l3.933-5.724
		l2.962-1.263l3.302,0.406l3.995-0.538l0.861-0.116l5.117-3.236l3.308-2.093l3.375,0.636l4.516,6.503l8.741-12.514l13.524-4.35
		l5.584,0.603l4.668,0.504l15.731,1.698l7.596,0.82l30.044-1.58l13.003-0.684l6.92,2.608l4.179,3.681l1.089,0.96l5.317,3.332
		l7.041-1.246l4.37-3.447l0.637-1.429l0.869-1.948l0.628-3.244l0.125-0.646l2.307-4.873l3.593-2.751l5.026-1.327l5.001-0.071
		l3.545,1.008l3.035-0.867l1.197-0.899l1.231-0.924l1.408-2.999l-0.024-4.398l0.728-5.17l3.788,2.311l17.991,2.682l6.216-0.354
		l6.923-2.801l9.004-3.644l6.531-0.567l6.531,1.293l15.927,8.073l9.542,1.699l2.574,1.805l4.387,5.534l0.03,0.022l-0.509-7.884
		l-2.646-5.302l-5.002-3.205l-2.695-8.386l-0.194-6.006l0.301-4.979l0.063-1.038l1.627-10.657l-0.194-2.43l-1.044-0.763
		l-0.219-0.754l2.282-2.422l1.384-0.799l9.599-2.382l0.842-0.209l4.913-2.921l9.655-5.742l8.506,2.084l1.205,0.295l10.362-0.9
		l21.735-1.888l2.404,1.385l3.559,4.431l1.054,1.312l2.064,1.1l3.448,0.195l1.044,1.73l-0.534,3.07l-1.335,4.187l-1.627,3.867
		l-0.893,1.539l-2.093,3.604l-0.634,2.575l-0.313,1.272l0.534,1.276l3.229,9.861l2.671,3.445l2.015,3.949l2.185,2.594l3.253-0.567
		l0.073,5.762l1.832,0.787l0.196,0.084l1.226,0.527l4.37,0.265l3.52,2.363l1.287,6.467l-1.855,1.8l-1.399,1.358l-4.467,2.149
		l-2.161,3.378l0.895,2.276l0.975,2.48l4.273,3.447l8.376,5.001l8.668,13.565l7.915,6.797L770,179.847l-5.681-4.586l-2.307-1.323
		l-2.477-0.423l-5.099,0.653l-2.039-0.229l-1.967-1.429l-3.957-4.217l-2.088-1.341l-2.671-0.212l-2.986,0.247l-2.986-0.406
		l-2.719-2.189l-1.457,2.559l-0.103-0.149l-1.669-2.41l-0.91,1.077l-2.417,2.859l-4.54,1.526l-3.593,2.232l-7.381,2.911
		l-0.709,0.801l-6.114,6.907l-0.169,2.882l-0.123,2.099l0.898,4.662l2.792,9.391l0.17,2.757l-0.437,5.486l0.631,2.843l1.432,1.734
		l4.006,2.658l1.092,1.619l0.284,2.959l0.08,0.833l-1.093,1.038l-5.366-0.088l-8.376,2.067l-1.991,0.088l-3.958-0.915l-3.35-1.979
		l-5.633-5.394l-2.282-1.118l-2.889,0.563l-1.967,2.103l-1.797,2.587l-2.234,1.892l-2.744,0.501l-1.337-0.281l-7.209-1.514
		l-0.121,6.087l0.534,4.881l-0.024,4.422l-1.7,4.667l-0.578,0.633l-2.578,2.821l-4.637,3.268l-4.88,2.477l-1.12,0.316l-2.741,0.773
		l-7.818,1.405l-7.005,3.867l-8.267,4.563l-0.662,0.02l-0.369,0.011l-10.599,0.32l-3.739,0.966l-3.569,1.703l-0.839,0.647
		l-2.439,1.881l-4.759,8.055l-4.492,2.912l-16.865-1.253l-3.918-0.291l-5.05,2.596l-3.107,4.23l-0.874,1.19l-4.346,8.381
		l-3.375,9.603l-0.024,8.53l3.278,7.634l4.645,4.935l1.862,1.978l2.865,1.715l6.58,2.747l2.865,2.117l2.102,3.218l1.2,1.836
		l-1.02,3.532l-2.744,4.143l-1.797,6.833l-0.024,0.052l0.274,6.99l0.406,10.371l-0.364,5.621l-1.214,4.223l-1.651,3.995
		l-0.923,4.047l0.995,4.307l2.768,6.782l0.146,4.81l-2.355,3.38l-4.807,2.544l-4.589,1.324l-9.105,0.331l-8.821-1.508l-6.16-1.053
		l-2.258,1.15l-4.37,3.623l-2.331,0.836l-2.695-0.47l-2.671-0.888l-2.646-0.314l-2.574,1.237l-1.117,3.152l0.923,3.517l0.364,3.203
		l-2.654,2.181l-0.162,0.134l-23.029,7.681l-6.397,2.133l-9.469,5.305l-1.991,2.33l-1.199,3.274l-0.234,0.638l0.461,1.408
		l1.724,0.852l2.258,2.242l2.331,4.519l1.238,1.651l2.088,1.529l3.059,1.147l0.971-0.677l0.316-1.355l1.068-0.903l2.841-0.765
		l0.874-0.469l0.728,0.643l3.796,4.378l0.453,0.522l3.836,6.392l1.287,2.969l-4.856-0.035l-3.278,1.146l-2.913,1.562l-6.895,2.205
		l-1.36,2.5l-0.874,2.655l-1.602,1.406l-2.938,1.51l0.243,2.759l1.675,3.608l1.282,3.76l0.102,0.298l1.408,8.738l1.894,7.244
		l3.375,5.717l11.824,8.001l-2.258,1.974l-4.2,5.903l-2.039,1.904l-2.622,0.779l-7.624-0.156l-13.092,4.863l-9.779,3.632
		l-10.562-1.488l-17.18-14.697l-2.34-2.003l-11.46-0.312l-2.331-2.13l-2.622-1.229l-2.104-0.288l-3.456-0.474l-4.055-3.81
		l-5.341-3.499l-4.273,0.173l-0.85,7.136l-4.516,7.826l-10.052,3.618l-9.785-2.077l-3.69-9.367l-0.024-0.017l-0.024-0.052h-0.024
		l-21.803-9.614l-4.662-4.003l-0.073-1.733l0.826-5.928l-0.437-2.601l-1.36-1.838l-0.087-0.051l-1.491-0.868l-1.651-0.694
		l-8.061-6.453l-3.035-3.193l-2.161-4.234l-0.218-4.53l0.267-6.164l-0.51-5.158l-2.574-1.494l-2.785,1.195l-1.221,0.524
		l-1.821,2.015l-2.938,6.807l-2.476,3.611l-5.924,6.665l-2.185,3.245l-1.481,4.285l-0.181,1.428l-0.96,7.572l-1.238,4.75
		l-3.108,5.65l-9.202,6.774l-4.346,4.087l-9.032,5.143l-10.804,0.987l-10.902-2.078l-9.347-4.104l-5.147-1.282l-6.021,1.766
		l-11.169,5.246l-6.07,1.125l-0.556-0.031l-0.135-0.007l-5.598-0.308l-6.167-2.13l-5.9-4.312l-3.108-3.187l-3.375-1.784l-6.22-1.32
		l-3.661-0.777l-1.627,1.091l-0.826,2.373v3.602l4.977,5.974l-3.011,4.137l-10.999,4.69l-3.423,3.374l-2.064,3.235l-2.501,1.868
		l-12.552-1.833l-3.691-1.176l-3.132-3.183l-11.096-7.043l-23.333,1.069l-7.271,0.333L82.684,522.363z"/>
</g>
<g id="Copyright">
	<text transform="matrix(1 0 0 1 681.6426 577.5916)" class="st1 st2">© Vemaps.com</text>
</g>
</svg>
