<?xml version="1.0" encoding="utf-8"?>
<!-- Generator: Adobe Illustrator 23.0.1, SVG Export Plug-In . SVG Version: 6.00 Build 0)  -->
<svg version="1.1" xmlns="http://www.w3.org/2000/svg" xmlns:xlink="http://www.w3.org/1999/xlink" x="0px" y="0px"
	 viewBox="0 0 800 600" style="enable-background:new 0 0 800 600;" xml:space="preserve">
<style type="text/css">
	.st0{fill:#808080;}
	.st1{font-family:'Roboto-Regular';}
	.st2{font-size:14px;}
</style>
<g id="Suriname">
	<path class="st0" d="M639.273,115.919l-2.513,2.929l-10.146,7.336l-5.436,5.603l-1.202,1.728l-1.463,2.105l-1.492,5.154
		l-0.833,0.88l-1.985,1.401l-0.573,0.826l-0.313,1.465l-0.426,0.799l-7.042,7.959l-2.372,3.765l-0.793,2.04l-0.36,2.223l1.126,5.159
		l-0.253,1.909l-0.606,0.685l-3.431,2.41l-0.593,1.274l0.227,1.32l0.813,1.822v15.975l0.42,1.741l1.046,0.715l1.326,0.371
		l1.246,0.709l1.532,2.386l0.04,2.203l-0.44,2.47l0.107,3.175l1.605,4.227l0.233,1.514v5.297l-0.606,2.229l-2.552,4.735
		l-0.366,3.274l2.238,13.945l3.93,8.201l1.139,5.575l0.12,3.287l-0.826,2.214l-1.412,2.415l0.513,2.204l1.505,1.76l1.599,1.079
		l4.33,1.169l1.332,1.059l0.5,2.665l-0.373,1.947l-1.732,4.468l-0.533,2.01l0.167,3.206l1.226,2.167l4.404,3.974l0.813,1.259
		l1.386,4.478l0.859,1.175l1.799,1.446l0.866,0.905l3.191,5.966l2.425,1.312l0.546,1.105l0.446-0.073l0.966,1.516l1.232,2.531
		l1.306,1.579l0.74,0.474l1.472,0.671l4.397,1.302l1.366,0.905l2.671,3.966l1.332,1.419l2.631,9.166l3.011,4.593l0.073,0.778
		l1.379-0.247l1.419-0.437l1.359-0.21l1.166,0.457l1.805,1.849l0.773,1.629l-0.187,1.976l-1.033,2.927l-1.033,5.427l0.42,9.768
		l-2.105,5.169l-4.683,4.868l-0.6,1.738l-0.307,2.262l-0.873,2.532l-1.386,2.242l-0.073,0.053l-4.317,3.09l-3.318,5.211l-4.71,5.738
		l-1.792,2.902l-2.671,6.545l2.991-0.46l1.406,1.861l0.306,2.922l-0.3,2.729l-0.313,0.32l-0.586,0.3l-0.58,0.434l-0.28,0.707
		l0.273,0.107l1.206,0.867l0.28,0.347l0.793,3.109l0.22,1.821l-0.573,0.801l-1.486,0.867l0.693,1.814l1.419,1.594l0.686,0.214
		l0.06,1.774l-0.933,3.949l-0.393,0.761l-1.779,2.608l-0.466,1.481l-0.087,1.354l0.22,0.867l0.806,0.874l1.699,1.394l-1.546,0.84
		l-0.866,1.067l-2.039,6.003l-1.006,1.981l-9.386,12.705l-4.523,9.203l-5.03,12.73l-2.085,3.127l-6.169,6.174l-1.546,0.62
		l-1.945,0.28l-2.845,0.033l-1.379,0.754l-1.299,0.747l-3.471,8.795l-1.452,1.127l-2.525,0.267l-4.33-1.32l-1.865,0.327l-2.072,2.52
		l-2.428,0.793l-2.482,0.467l-2.512,0.067l-2.531-0.387l-1.499-0.753l-0.313-1.04l0.143-1.247l-0.167-1.373l-1.156-2.934l0.74-2.434
		l0.346-0.14l0.676,0.02l0.616-0.207l0.213-0.8l-0.16-0.72l-0.55-1.393l-0.186-0.754l-0.083-2.594l-0.576-0.58l-1.742-0.987
		l-2.818-1.1l-2.162,0.093l-2.023,1.091l-2.191,1.182l-6.372,1.894l-4.946-1.787l-12.671-12.349l-0.546-1.2l0.42-1.774l2.492-2.527
		l0.846-1.727l-0.699-1.28l-2.292,0.267l-5.27,2.107l-2.578,1.634l-4.97,4.221l-4.663,2.247l-1.086,0.387l-1.026-0.113l-0.999-1.047
		l0.453-2.461l-0.606-1.2l-4.403,0.367l-10.309,7.929l-3.008-0.187l-1.512-1.88l-2.039-0.747l-2.285,0.18l-2.222,0.907l-2.162,2.114
		l-0.716,2.407l-0.346,2.361l-1.069,1.987l-3.677,1.594l-4.637-0.087l-4.996-0.64l-4.77-0.073l-7.335,0.66l-2.465-0.333
		l-2.705-0.013l-4.78,2.234l-10.173,2.547l-2.555-0.533l-1.352-1.08l-1.486-2.82l-0.959-1.133l-1.232-0.66l-9.107-2.254
		l-2.178-1.067l-7.008-5.775l-2.858-1.614l-3.071-0.28l-1.546,0.5l-0.803,0.727l-0.989,2.267l-1.366,5.494l-0.087,5.728
		l-0.666,2.254l-3.767,5.641l-0.989,1.04l-1.536,0.707l-1.452-0.107l-1.142-0.687l-1.182-0.54l-1.589,0.367l-1.679,2.06
		l-1.959,3.707l-1.532,3.82l-0.373,2.393l1.486,0.987l5.646,0.34l2.388,0.567l2.438,2.253l1.183,5.073l1.742,2.74l3.471,2.387
		l1.112,0.98l4.617,5.986l4.404,3.78l0.973,1.456l0.403,1.643l-0.21,1.18l-0.466,1.176l-0.413,1.65l0.16,5.733l0.719,5.149
		l-0.68,4.646l-4.097,4.249L400.951,570l-8.121-1.683l-8.074-3.253l-8.314-2.163l-6.209,0.373l-2.045-0.24l-2.438-1.027l-4.63-2.966
		l-2.491-1.05l-2.478-0.293l-3.784,0.93l-2.405,0.253l-1.885-0.387l-6.705-2.44l-0.423-1.496l-0.786-1.25l-1.133-0.913l-2.705-0.87
		l-1.086-0.653l-0.916-0.883l-0.719-1.1l-4.86-2.533l-12.638-0.207l-3.531-1.45l-12.411-17.586l-0.939-3.847l-0.979-2.813
		l-1.269-5.687l-1.635-2.507l-1.149-0.613l-2.975-0.553l-1.196-0.6l-0.553-1.154l0.07-4.647l-1.439-2.88l-4.613-4.027l-0.983-2.34
		l0.829-1.854l0.23-1.34l-0.623-1.254l-2.135-1.98l-0.61-1.133l-0.416-1.774l0.266-1.254l0.633-1.427l0.173-1.407l-1.072-1.194
		l-2.632,1.934l-1.819,0.627l-0.833-1.2l0.68-4.348l-0.233-0.94l-3.258-3.794l-0.626-1.167l-0.087-2.194l0.613-1.687l0.346-1.52
		l-0.873-1.647l-2.678,1.514l-1.026-0.76l-0.773-5.082l-1.279-2.367l-3.331-3.521l-0.673-1.687l0.506-1.281l0.886-1.634l0.293-1.401
		l-1.246-0.607l-4.41,0.667l-0.426,0.293l-0.853-2.434l2.225-4.649l-0.899-0.847l-1.526,0.28l-2.585,1.207l-1.206,0.273
		l-1.546-0.554l-0.573-1.207l-0.413-1.214l-1.033-0.547L247.968,438l-1.712-6.677l1.199-1.281l2.012-1.601l1.406-1.814l-0.62-1.914
		l-4.284-0.454l-1.645-0.947l1.053-1.681l0.68-1.188l-0.08-1.014l-0.373-1.127l-0.227-1.561l0.413-0.454l1.805,0.093l0.42-0.527
		l-0.133-0.974l-0.613-1.634l-0.14-0.994l-1.206-2.869l-2.225-2.048l-1.173-2.355l1.965-3.783l-0.44-0.234l-0.087-0.067
		l-0.027-0.113l-0.24-0.387l-0.873,0.807l-1.126,0.747l-1.279,0.414l-1.292-0.214l-1.432-1.048l0.24-0.847l0.833-1.027l0.36-1.561
		l-1.386-2.982l-0.293-1.421l0.107-1.581l0.693-2.656l0.167-1.535l-0.46-1.541l-0.806-1.061l-0.286-1.074l1.066-1.615l0.187-0.807
		l0.3-4.484l-0.4-1.812l-3.204-6.6l-4.077,3.197l-3.444,0.587l-3.444-1.061l-4.07-1.765l0.14,2.339l-0.899,1.131l-3.644,0.941
		l-0.32,0.434l-0.913,0.877l-0.966,0.547l-0.446-0.574l-0.3-0.667l-0.766-0.384l-1.013-0.187l-1.039-0.047l-0.74-0.561l-1.645-0.978
		L205.565,372l-1.259,2.536l-1.186,0.18l-1.406-0.397l-4.003-2.234l-0.027-0.015l-2.172-1.215l-3.637-0.747l-1.093-0.454
		l-0.633-0.54l-0.433-0.657l-0.56-1.531l-0.267-1.352l0.08-1.071l0.653-2.332l0.073-0.868l-0.28-1.598l-0.02-0.841l1.959-3.808
		l0.186-2.283l-2.112-2.393l-2.685-1.565l-0.5-0.24l-0.273-0.387L184.587,348l-0.626-0.267l-0.58-0.644l-0.167-0.447l-0.113-0.461
		l-1.026-1.906l-0.646-2.263l-0.466-0.935l-4.917-3.151l-6.302-2.617l-2.145-1.368l-1.446-2.397l-0.766-2.727l-0.347-5.862
		l-0.546-2.48l-2.745-5.882l-6.535-9.588l-2.099-2.461l-8.48-6.698l-3.124-3.933l-1.272-4.565l-1.686-10.99l-1.626-5.567
		l0.227-2.675l1.792-2.749l11.225-11.497l1.432-2.195l0.833-2.552l0.273-3.254l-0.36-2.141l-0.699-1.968l-0.406-2.035l0.513-2.365
		l1.272-1.988l1.479-1.647l1.219-1.694l0.953-4.283l2.372-5.747l2.185-3.662l2.038-6.583l2.305-3.335l1.033-2.246l0.18-2.453
		l-1.073-2.286l-3.458-4.425l-1.725-5.321l-2.138-1.431l-2.152-1.093l-0.973-1.782l0.886-4.349l2.072-2.972l2.352-2.527l1.739-2.156
		l2.625-4.383l0.973-0.916l1.619-0.411l1.246,0.358l1.239,0.615l1.612,0.321l3.158-0.438l1.499-1.177l1.939-3.685l3.458-3.337
		l4.324-2.13l4.843-0.281l5.063,2.21l5.656-2.036l2.958-0.518l3.311-0.174l0.693,0.425l1.979,1.876l0.853,0.428l1.665-0.147
		l2.172-0.665l10.199-1.05l3.244-0.866l1.379-0.542l0.959-0.535l1.113-0.431l1.832-0.261l1.126,0.214l1.006,0.431l1.059,0.107
		l1.292-0.752l-4.703-4.253l-0.579-1.448l0.16-1.715l0.4-1.468l1.919-4.364l0.859-3.719l0.846-1.789l1.452-0.762l2.292,0.08
		l1.632,0.508l1.099,1.341l0.7,2.575l2.005-0.833l2.032-1.174l1.572-1.502l0.633-1.803l-0.966-2.592l-4.297-5.235l-0.876-2.196
		l-0.103-0.259l-0.553-0.796l-1.292-0.395l-1.466,0.074l-1.086,0.636l-0.227,1.241l0.666,1.251l1.319,1.569l-0.34,0.86l-0.853,0.555
		l-1.113,0.147l-1.133-0.321l-0.646-0.709l-0.233-1.02l-0.2-9.042l-0.413-0.361l-0.813,0.04l-1.299-0.318l-1.859,0.759h-1.146
		l-0.513-1.201l0.44-1.422l1.052-1.388l6.269-6.32l1.326-2.068l0.513-3.028l0.147-2.777l0.406-2.058l1.195-2.7l1.763-1.818
		l1.149-1.107l4.133-1.581l1.742-1.407l1.206-1.581l0.834-1.85l3.1-13.994l0.614-12.283l0.887-4.308l0.288-3.238l1.537-5.274
		l1.491-3.573l3.415-5.649l0.535-1.456l0.724-1.15l1.075-0.749l2.948-0.522l0.892-0.585l0.671-0.585l0.677-0.259l0.598-0.38
		l1.637-1.83l0.724-0.606l1.264-0.469l1.301-0.237l1.383-1.431L280.172,30l3.57,0.948l7.976,1.896l4.72,0.529l6.398,0.006
		l10.067,0.43l5.559,0.321l2.202,0.842l3.998,2.537l2.361,1.023l2.469,0.648l6.071,0.545l13.993,3.266l8.159,2.162l6.603,0.28
		l6.064,1.569l4.374,1.251l4.021,1.055l8.687,1.888l5.314,1.773l3.151,0.859l2.656,0.463l5.003,1.743l8.144,0.784l2.337,2.582
		l1.846,1.086l0.755,1.729v11.181h0.058h0.902l0.677-2.04l0.22-2.024l-0.095-4.386l-0.42-2.272l-2.224-4.888l-1.396-3.186
		l1.985-2.617l-1.294-1.16l-1.578,0.073l-1.51,0.068l-1.794-1.515l-0.425-2.59l0.58-1.942l2.093-2.733l0.879-1.33l1.704-1.785
		l1.256-1.339l1.882-1.427l2.328-0.889l3.043-0.797l3.131-0.17l11.732-0.511l6.512-0.524l5.319-0.084l31.24,1.56l7.609,1.447
		l3.622,2.509l2.04,0.858l2.736,0.872l0.907,0.464l1.364,1.118l1.327,1.092l1.29,0.791l0.404,0.111l1.075,0.285h1.102l1.347,0.188
		l1.814,0.177l1.477-0.505l1.657-0.699l2.09-0.194l2.206,1.597l2.565,1.903l0.996,1.913l-1.546,3.795l-1.904,2.123l0.163-0.079
		l3.554-1.185l1.202-2.889l0.124-2.893l0.674-0.996l2.849-0.011l4.259,2.996l2.612,0.548l1.684-0.38l1.049-0.675l0.997-0.232
		l2.885,1.772l1.096,0.195l1.096-0.237l1.269-0.443l1.007-0.633l0.703-0.865l0.865-0.749l1.511-0.327l1.222,0.264l1.296,0.649
		l2.282,1.661l-0.582-1.055l-0.876-1.023l-1.012-0.881l-1.044-0.575l-1.7-0.337l-1.174,0.178l-1.195,0.959l-1.478,0.901
		l-2.951,0.272l-1.98-1.256l-1.814-0.404l-2.047,1.183l-1.943-0.093l-1.951-1.619l-2.004-1.013l-7.48-2.157l-2.623-1.26
		l-2.235-1.487l-0.955-1.392l-0.483-1.361l-0.753-0.875l0.856-1.358l1.138-0.733l3.564-1.427l4.067-0.699l5.221-0.318l3.983-0.038
		l30.98,1.055l2.35,0.559l5.518,0.617l5.027,0.906l26.012,3.658l15.876,3.527l12.367,2.455l10.746,3.486l9.275,2.665l2.957,0.318
		l1.602,0.561l3.262-0.232l0.746,1.058l1.351,0.51l0.744,1.309l-0.209,1.353l3.122,5.987l0.738,2.311l-1.233,1.443l-3.072,5.901
		l-1.469,2.548l-0.682,5.157l-1.795,10.03l-1.385,5.075l-1.61,2.988l-2.345,2.835l-2.235,1.955l-1.207,1.302l-0.525,1.212
		l-0.771,2.477L639.273,115.919z"/>
</g>
<g id="Copyright">
	<text transform="matrix(1 0 0 1 681.6426 577.5916)" class="st1 st2">© Vemaps.com</text>
</g>
</svg>
