<?xml version="1.0" encoding="utf-8"?>
<!-- Generator: Adobe Illustrator 23.0.1, SVG Export Plug-In . SVG Version: 6.00 Build 0)  -->
<svg version="1.1" xmlns="http://www.w3.org/2000/svg" xmlns:xlink="http://www.w3.org/1999/xlink" x="0px" y="0px"
	 viewBox="0 0 800 600" style="enable-background:new 0 0 800 600;" xml:space="preserve">
<style type="text/css">
	.st0{fill:#808080;}
	.st1{font-family:'Roboto-Regular';}
	.st2{font-size:14px;}
</style>
<g id="Tajikistan">
	<path class="st0" d="M334.954,37.608l2.606,1.127l2.195,1.989l1.31,2.144l1.222,3.024l0.156,2.142l-1.877-0.44l-1.594-1.534
		l-2.767-3.749l-1.574-1.619l-0.098-0.104l-1.105-2.585L334.954,37.608z M372.141,134.846l1.946,3.01l-1.574,3.021l-3.178,2.361
		l-2.909,0.992l-5.051-1.139l-1.261,0.448l-0.655,0.576l-1.721,0.915l-0.064-0.186l-0.318-0.307l-0.469-0.224l-0.528,0.07
		l-0.323,0.294l-0.587,0.793l-3.696,3.153l-1.291,0.793l-6.043,2.046l-2.508,2.378l-0.445,3.169l0.117,3.806l-0.812,4.277
		l-1.271,2.24l-1.643,1.703l-1.892,1.199l-2.039,0.74l-4.019,0.134l-1.105,0.568l-0.636,1.097l-0.777,2.722l-0.826,1.071
		l-2.044-0.727l-0.719-1.626l0.269-2.149l0.885-2.309l1.227-1.729l1.447-1.04l1.565-0.81l1.506-1.066l1.388-2.745l-0.958-2.19
		l-2.21-1.52l-2.357-0.747l-7.529-1.137l-3.608-1.584l-3.334-0.428l-1.702-0.901l-1.516-1.655l-1.178-1.72l-1.354-1.509
		l-2.078-1.049l-2.176-0.173l-4.703,0.307l-2.049-0.659l-13.489-8.888l-3.315-0.352l-37.285,13.37l-1.574,0.23l-1.496-0.166
		l-0.606-0.594l-0.997-1.892l-0.763-0.237l-0.43,0.544l-0.401,2.135l-0.274,0.805l-1.951,2.869l-1.52,2.811l-0.616,3.161
		l0.763,3.919l0.372,0.734l0.205,0.759l0.078,0.81l-0.078,0.848l2.19,4.005l0.107,1.632l-9.104,3.251l-4.547-7.816l-2.787-3.12
		l-1.31-0.268l-0.347,0.262l-0.024,0.759l-0.415,1.238l-1.819,4.056l-4.327,13.17l-1.056,4.729l-0.308,4.866l0.665,2.257
		l1.423,1.634l1.662,1.43l1.34,1.659l0.704,2.027l0.342,2.325l-0.469,14.632l1.34,2.954l3.725-1.528l0.587-0.894l0.235-0.957
		l0.342-0.792l0.909-0.4l0.528,0.361l2.293,2.384l1.961,0.672l4.078-0.665l2.083,0.006l1.78-0.266l1.731-0.615l1.614-0.989
		l3.168-2.758l1.643-0.666l8.243-0.52l3.872,0.457l3.735,1.256l3.951,2.264l3.677,1.122l7.314-1.503l3.867,0.418l2.85,1.306
		l0.792-0.634l1.477-2.118l1.604-1.44l1.956-0.615l2.073,0.019l1.936,0.45l3.173,1.858l1.53,0.564l1.564-0.52l0.792-1.18
		l2.635-5.703l1.462-1.123l0.909,1.199l0.43,2.284l0.02,2.093l-1.007,4.407l0.156,1.724l1.633,0.615l1.682-0.406l8.439-6.22
		l1.222-0.463l0.973,0.114l1.97,0.603l0.949,0.019l0.577-0.387l0.469-0.672l0.577-0.647l0.909-0.33l1.565-0.324l3.061-1.161
		l1.633-0.203l1.3,0.533l2.132,1.884l1.193,0.723l1.652,0.165l3.471-0.647l1.662,0.216l2.298,1.751l1.31,2.581l1.856,5.867
		l0.031,0.098l0.005,0.025l1.017,0.83l2.215,0.944l0.909,0.861l0.538,1.672l-0.225,1.691l-0.421,1.633l-0.049,1.519l1.437,2.519
		l2.503,1.493l2.875,0.506l2.601-0.398l2.88-1.62l1.139-0.348l1.437-0.038l0.841,0.139l0.763-0.291l1.159-1.335l1.785-0.854
		l2.063,0.968l2.332,1.493l2.586,0.715l3.041-1.556l1.731-3.38l1.393-4.002l1.951-3.402l3.119-2.053l3.931-1.077l4.024-0.228
		l5.388,1.046l1.169,0.013l1.022-0.767l3.017-3.474l1.32-1.008l3.281-1.782l0.689-0.558l1.301-1.389l0.655-0.482l0.924-0.33
		l2.689-0.489l3.266-1.536l1.731-0.178l3.168,1.948l1.573,1.38l0.119,0.104l1.369,1.84l0.567,1.972l-0.509,1.832l-2.405,3.549
		l-0.802,1.907l1.966,4.269l3.921,1.798l4.586,0.221l9.632-2.039l1.878-0.051l1.496,1.355l0.851,2.798l0.244,3.164l-0.352,2.461
		l-1.085,1.834l-1.271,1.296l-0.968,1.524l-0.196,2.516l0.704,2.433l1.379,1.952l1.731,1.326l1.819,0.575l3.462-0.404l3.452-1.491
		l9.348-6.604l1.594-0.835l3.53-0.733l3.315-1.815l1.731-0.266l1.623,1.271l1.056,2.674l0.567,3.103l0.156,2.584l0.851,1.838
		l1.965,0.846l4.078,0.676l0.802,0.474l1.447,1.149l1.975,1.042l0.293,0.758l0.01,0.944l0.254,1.171l0.89,2.003l0.956,1.39
		l0.022,0.032l1.076-0.082l3.892-8.527l2.161-6.582l1.144-1.864l1.682-0.613l2.063-0.278l3.53-1.802l1.652-0.063l3.11,0.803
		l1.594,0.082l1.545-0.247l2.963-3.162l1.036-0.455l1.428,0.411l2.396,1.562l1.545,0.032l1.066-0.683l1.809-2.277l0.968-0.848
		l1.643-0.5l1.584,0.089l17.484,4.598l1.437-0.063l4.087-0.879l1.956,0.145l5.906,1.284l1.662,0.537l1.418-0.095l4.645-2.472
		l1.203-0.234l1.164,0.354l1.662,0.816l3.315,0.942l3.012-0.234l9.602-3.327l5.398-1.019l0.655-1.253l0.205-1.721l0.724-1.899
		l2.317-1.608l10.336-2.571l3.344-0.323l8.713,0.956l2.679,1.38l-0.068,2.393l1.007,6.985l0.117,2.504l-0.235,1.96l-2.953,8.536
		l-0.743,3.627l0.528,3.474l2.23,3.933l4.009,3.963l0.87,1.692l0.841,4.181l0.596,1.956l1.056,1.577l5.613,4.331l3.119,3.467
		l1.359,0.934l0.958,2.054l0.284,2.038l-0.489,1.852l-1.359,1.493l-2.054,0.679l-4.537,0.019l-2.151,1.015l-1.349,1.404l-1.32,1.938
		l-0.773,2.201l0.274,2.191l1.144,1.802l2.758,3.103l1.036,1.716l0.293,2.346l-0.596,5.329l0.352,1.88l3.393,5.704l0.645,1.747
		l0.9,5.042l0.831,1.905l1.799,1.967l1.623,1.044l3.422,1.351l1.643,0.938l2.855,2.657l1.477,0.897l9.084,0.294l1.574-0.384
		l1.252-2.01l-0.753-1.891l-1.203-2.004l-0.078-2.33l0.724-0.604l3.735-1.279l0.665-0.776l0.137-1.008l-0.02-1.083l0.225-0.977
		l1.33-2.003l1.349-0.87l1.613,0.031l5.828,2.047l1.838,0.316l2.112-0.059l6.591-2.304l1.965,0.269l13.475,6.654l16.037,6.167
		l1.721,1.463l1.447,1.706l1.594,1.322l2.142,0.297l2.171-0.188l1.731,0.375l1.516,1.125l1.496,2.015l0.01,0.028l0.851,1.324
		l0.684,0.625l1.672,0.968l0.636,0.724l0.274,1.024l0.127,1.139l0.685,3.442l-0.02,2.352l-0.557,2.214l-1.095,1.955l-4.009,4.529
		l-0.9,1.935l-0.352,2.181l0.02,11.476l1.838,13.813l1.819,3.394l6.669,3.79l1.173,3.32l-0.381,7.572l0.225,3.198l-0.039,0.784
		l0.303,0.654l1.066,0.638l0.802,0.731l-0.195,0.849l-1.613,2.595l-0.685,0.381l-0.391,0.607l0.274,1.594l0.479,0.901l0.685,0.653
		l4.811,2.667l1.154,1.179l0.352,2.156l-0.323,1.123l-0.694,1.24l-1.496,2.022l-0.636,1.107l-0.293,1.094l-0.176,1.057l-0.313,0.989
		l-1.203,1.804l-1.31,1.513l-1.036,1.686l-0.372,2.275l0.919,4.206l2.19,3.4l2.855,2.646l8.576,5.031l1.662,1.497l4.782,6.345
		l2.699,2.635l2.992,2.127l-4.625,1.529l-2.22,1.114l-1.154,2.049l-0.235,4.406l-0.821,1.436l-8.801,3.313l-2.259,0.356l-1.76,1.044
		l-0.87,2.058l-1.046,1.926l-1.926,0.936l-2.806-1.603l-4.332-7.41l-2.679-2.883l-12.125-7.477l-2.738,1.535l-9.612,0.634
		l-0.821,0.019l-0.802-0.194l-3.413-1.055l-2.063-0.898l-1.789,0.154l-1.662,0.375l-2.738-0.502l-1.066-0.043l-0.939-0.311
		l-1.379-2.327l-0.929-0.606l-1.076,0.077l-1.095,0.77l-0.499-1.551l-1.115,3.185l-2.308,0.317l-2.748-0.736l-2.503,0.04l-1.535,1.6
		l-0.156,4.079l-1.74,2.054l-2.308,0.99l-10.512,2.121l-7.138,2.612l-1.995,0.418l-5.329,2.531l-4.058,0.464l-1.907,0.574
		l-3.598,3.353l-1.349,0.313l-1.447-0.356l-2.132-0.197l-0.939,0.344l-1.535,1.2l-1.017,0.065l-0.645-0.494l-1.359-1.87l-0.714-0.66
		l-1.946-0.154l-3.999,1.256l-1.516-0.915l-0.411-2.488l1.193-2.329l1.995-1.736l1.985-0.722l3.638-0.375l1.379-0.682l1.633-1.368
		l1.594-1.891l0.626-1.728l0.02-5.005l0.108-0.979l0.606-3.01l-3.374-0.409l-4.097,0.092l-6.571-1.755l-11.333-4.195l-4.224,0.123
		l-5.887,3.265l-1.565-0.459l-1.594-0.964l-2.249-0.302l-2.357,0.246l-1.917,0.653l-1.496,1.124l-4.615,4.978l-1.027,0.486
		l-2.044-0.782l-0.831,0.296l-3.608,2.843l-1.486,1.824l-1.623,3.475l-1.085,1.642l-1.917,1.309l-6.806,0.685l-6.747,4.099
		l-2.083,2.5l-2.347,0.823l-4.439,0.844l-3.765,2.318l-2.816,3.892l-4.41,9.201l-3.941,6.212l-0.577,2.285l-0.841,1.127l-14.1,2.104
		l-3.188,1.61l-6.532-1.206l-4.254,0.875l-9.573,3.905l-3.735,2.576l-0.939,1.058l-1.369,2.086l-0.861,0.899l-3.217,1.856
		l-2.474,2.717l-27.448,20.506l-3.686,1.543l-4.645,0.878h-4.596l-4.439-0.988l-3.97-2.104l-3.188-3.355l-1.271-2.056l-1.046-2.234
		l-0.714-2.411l-0.645-5.447l-0.948-2.371l-5.368-8.742l-0.821-2.135l-0.293-2.57v-4.851l-0.332-1.399l-1.633-2.554l-0.567-1.262
		l-0.195-1.452l0.195-7.16l0.743-4.876l0.548-1.801l0.655-1.071l-0.342-2.858l3.491-5.988l0.078-3.321l0.567-1.494l0.254-2.496
		l-0.176-5.019l-0.714-4.572l0.293-1.702l1.066-2.669l0.919-4.78l-1.33-9.623l0.411-5.229l0.342-0.676l1.144-1.58l0.46-1.003
		l0.254-1.207l0.45-3.687l1.076-3.723l0.156-1.177l-0.215-1.311l-0.861-2.541l-0.157-1.122l0.782-2.143l3.491-2.271l1.477-2.122
		l0.372-2.16l0.078-2.848l-0.157-2.614l-0.293-1.45l0.704-0.83l-2.875-3.563l-2.865-1.965l-3.393-0.211L411.9,418.3l-1.721,1.307
		l-1.877,1.047l-2.024-0.874l-3.589-2.928l-1.007-0.143l-0.724,0.22l-0.499-0.254l-0.352-1.537l0.117-1.271l0.958-2.719l0.636-3.055
		l2.816-5.325l1.291-4.921l1.75-3.414l0.606-3.518l1.716-5.195l0.513-2.734l-0.601-5.353l-2.249-3.543l-3.242-2.174l-7.798-3.271
		l-5.843-6.079l-3.647-2.707l-2.65-1.354l-1.173-0.281l-1.139,0.044l-0.738,0.337l-0.694,0.044l-0.978-0.805l-0.616-1.005
		l-0.792-2.206l-0.562-0.955l-0.953-1.058l-0.978-0.855l-1.08-0.634l-1.208-0.334l-2.205,0.075l-0.689,0.859l0.313,2.744
		l-0.997,1.236l-2.269-0.562l-3.902-1.879l-1.105,0.187l-0.543,0.512l-0.357,0.556l-0.64,0.321l-0.846-0.053l-1.525-0.531
		l-0.86-0.165l-2.992-0.012l-1.53,0.356l-0.65,0.852l-1.173,2.056l-5.535,0.587l-1.745,1.107v0.817l1.882,1.447l-0.763,1.416
		l-3.344,2.501l-0.875,0.492l-2.156-0.131l-0.88,0.499l-0.401,1.072l-0.02,1.253l0.108,1.231l-0.01,1.013l-1.281,4.111l-0.948,0.486
		l-1.291,0.346l-1.154,0.666l-0.875,2.963l-2.782,5.485l-2.454,6.635l-1.164,2.026l-0.968,0.994l-3.227,1.395l-1.002,0.736
		l-4.18,4.354l-4.249,5.649l-0.787,0.596l-1.833,0.982l-0.455,0.243l-0.479,0.636l-0.469,1.073l-1.046,0.443l-1.115,0.205
		l-0.66,0.369l-0.332,1.11l-0.024,1.023l0.332,0.986l0.743,0.973l-2.215,0.831l-2.215,0.372l-2.127-0.434l-1.902-1.584l-1.1,3.05
		l0.445,3.687l1.32,3.49l1.594,2.501l1.085,0.514l3.109,0.966l0.645,1.006l0.254,1.711l0.631,1.565l0.856,1.268l0.905,0.841
		l-0.523,1.382l0.205,1.667l0.958,3.487l0.112,1.761l-0.24,1.051l-0.332,0.964l-0.181,1.495l-1.188,1.745l-0.46,0.333l-0.391,0.42
		l0.029,0.954l0.127,1.09l-0.122,0.796l-0.533,0.892l-0.21,0.247l-0.484,0.494l-0.313-0.117l-1.819,0.08l-0.186,0.037l-1.374,3.48
		l-0.24,1.04l-0.636,0.389l-3.295,4.129l-2.718,1.091l-2.846-0.512l-2.826-1.03l-2.601-0.435l0.596,0.885l-2.943-0.543l-0.88-0.342
		l-0.322-0.301l-0.538-0.503l-0.362-0.796l-0.489-0.605l-1.222-0.241l-2.004-0.734l-1.027-1.697l-0.88-1.907l-1.555-1.37
		l-2.229-0.124l-3.97,2.024l-1.926,0.543l-0.939,0.444l-0.978,0.848l-0.988,0.518l-0.983-0.549l-0.699-0.515l-2.102-0.642
		l-0.753-0.105l-2.337,0.309l-3.999,1.731l-2.112,0.41l-12.898-1.178l-1.892,0.842l-1.628,5.011l-2.053,2.01l-4.195,3.088
		l-0.342,0.567l-0.587,1.43l-0.367,0.594l-0.729,0.674l-1.359,0.961l-0.489,0.659l-0.577,1.891l-0.196,2.21l0.068,4.548l0.181,0.421
		l0.885,0.24l0.274,0.526l-0.029,0.64l-0.225,0.185l-0.254,0.074l-0.127,0.357l0.039,1.101l0.147,1.116l0.284,1.024l0.489,0.815
		l0.802,1.774l0.626,4.093l0.777,1.078l-0.763,2.617l1.608,0.737l1.736,0.362l-0.288,1.52l-3.256,5.481l-1.564,1.522l-3.819,2.435
		l-1.52,1.791l-1.027,0.957l-1.12,0.417L216,513.254l-2.176,0.469l-1.877,0.892l-1.902,0.181l-8.957-6.071l-0.499-0.227
		l-2.093-1.454l-0.88-0.982l-1.692-4.223l-1.706-1.443l-2.156-1.418l-1.877-1.72l-1.394-4.325l-1.472-2.09l-1.917-1.764
		l-1.872-1.045l-6.459-0.812l-0.332-0.141l-0.548-0.117l-0.264,0.394l0.494,1.414l0.611,0.768l1.535,1.156l0.44,0.516l0.332,1.721
		l-0.504,1.057l-1.051,0.283l-1.364-0.627l-1.257-1.681l-0.851-1.909l-1.066-1.519l-1.98-0.504l-2.083,0.682l-0.342,1.346
		l1.12,3.583l0.244,2.538l-0.401,1.155l-1.124-0.086l-3.52-2.27l-1.105-0.538l-1.237-0.117l-1.951,0.203l-3.686-0.535l-1.711,0.086
		l-1.071,1.263l0.484,0.47l0.264,0.516l0.548,1.45l-2.141,0.335l-1.154,1.717l-0.533,1.913l-0.367,0.899l-1.711,0.258l-3.54,1.114
		l-1.887,0.249l-0.464,0.522l-1.305,2.283l-0.841,0.515l-0.997,0.08l-4.498,1.025l-5.872,0.442l1.354,2.772l-0.621,1.769
		l-1.853,0.941l-2.464,0.264l-1.868-0.438l-1.838-0.727l-1.833-0.141l-1.794,1.306l-0.714,1.965l0.078,2.393l0.636,4.986
		l-0.997,1.699l-2.273-0.018l-3.897-1.307l-2.474,0.349l-1.745,1.448l-1.511,1.576l-1.76,0.741l-1.164,0.741l-6.258,5.403
		l-0.968,0.642l-1.134,0.471l-0.748-0.033l-0.435-0.019l-0.861-0.615l-0.479-0.924l-0.381-1.043l-0.553-0.982l-3.251-4.045
		l-0.841-0.747l-2.239-1.185l-1.027-0.897l-1.506-2.437l-0.997-2.092l-1.31-1.47l-4.278-1.026l-2.352-1.204l-2.146-1.578
		l-1.164-1.594l-0.103-1.778l0.812-7.586l0.43-1.746l1.785-3.549l1.085-4.029l0.494-4.277l-0.328-5.011l-1.877-9.408l0.367-5.007
		l2.65-7.333l4.034-7.025l4.875-6.209l5.104-4.894l6.894-9.648l2.787-5.49l4.029-12.23l1.677-1.723l2.948-1.004l4.41-0.601
		l1.447-0.446l0.473-0.349l1.013-0.748l0.709-1.513l0.43-1.826l0.709-2.047l0.01-0.009l0.01-0.009v-0.016l0.01-0.009l1.134-2.286
		l3.687-5.643l2.347-6.64l1.545-7.05l-0.421-4.641l-2.288-3.66l-7.51-6.72l-4.904-2.767l-1.618-1.664l-3.501-6.426l-3.706-3.566
		l-0.9-1.71l-0.323-1.757l-0.196-3.843l-0.538-1.843l-2.298-3.511l-0.704-1.6l-0.249-2.657l0.318-6.956l-0.205-2.447l-1.266-4.533
		l-0.254-2.217l0.743-1.826l2.391-1.701l0.489-0.743l0.068-1.363l-0.421-1.122l-0.557-1.075l-0.284-1.226l0.323-2.628l1.056-0.659
		l1.677,0.057l2.215-0.458l1.604-0.947l1.447-1.289l1.173-1.641l0.841-2.021l0.107-2.678l-0.944-2.449l-0.978-1.45l-1.77-2.624
		l-3.193-7.091l-1.447-1.764l-0.02-0.003l-0.015-0.019h-0.02L99.5,287.5l-0.772-0.069l-0.772,0.069l-0.743,0.192l-1.574,1.164
		l-1.574,0.572l-1.555-0.296l-1.457-1.418l-0.743-0.44l-1.594-0.551l-1.359-0.013l-1.33,0.359l-1.261,0.632H84.74l-0.01,0.009
		l-7.182,2.437l-2.542,0.044l-12.096-1.972l-1.634-1.627l-0.097-0.096l-0.004-0.027l-0.47-2.968l1.076-9.452l-0.176-1.67
		l-0.014-0.023l-0.852-1.458l-0.606-0.195l-1.574,0.337l-0.645-0.113l-0.528-0.57l-0.753-1.362l-0.411-0.473l-3.735-1.507
		l-7.696-0.29l-11.431-4.09l-2.66-2.483l-0.004-0.028L30,255.297l0.161-1.743l0.196-0.853l0.45-0.543l0.89-0.796l1.007-0.335
		l0.851,0.265l0.626-0.227l0.714-4.057l1.198-4.116l0.103-4.516l0.626-4.924l1.183-4.718l0.87-1.115l1.437-0.177l2.435,0.336
		l0.469-0.108l0.44-0.228l0.391-0.361l0.323-0.443l-0.655-5.431l1.873-1.832l7.564-1.192l8.805-6.319l3.515-1.136l4.439,0.095
		l32.327,8.406l14.159,0.438l7.73,2.777l4.64,0.336l4.699-0.444l5.813-1.547l1.868-0.862l-0.017-0.04l-0.673-1.552l-0.327-0.755
		l1.281-1.839l4.038-2.582l2.278-2.405l1.261-2.419l0.518-2.953l0.949-19.84l0.978-2.649l1.095,0.083l1.262,0.522l3.217-2.872
		l1.555,1.178l2.523,4.126l1.271,0.656l0.636-0.802l0.205-1.222l0.01-0.618l-0.02-0.172l0.675-1.853l0.323-0.197l0.993-0.172
		l0.357-0.248l1.149-2.363l0.024-1.733l-2.117-4.526l-0.914-2.666l-0.337-2.309l0.65-0.963l1.975,1.372l1.926,4.235l1.442,5.335
		l2.166,3.357l4.024-1.688l-0.318-2.74l-8.331-11.53l-0.469-1.238l-0.142-1.162l0.201-2.535l-0.323-0.939l-1.682-1.354l-0.201-1.111
		l1.227-2.275l1.486,1.201l2.151,3.864l1.222-0.389l3.354-2.938l1.917-0.62l6.884,1.086l2.151-0.351l0.773-1.514l0.147-1.802
		l-0.303-1.892l-0.616-1.732l-4.41-3.191l-22.15,4.339l-0.898,0.176l-3.344-1.291l-4.234-2.667l-2.445-2.712l1.975-1.388
		l3.854-1.023l5.259-1.396l2.102-0.192l5.481,0.96l2.215-0.294l3.29-1.895l1.882-0.781l15.391-2.395l2.156,0.359l2.992,1.516
		l3.252,1.647l8.507,2.56l4.708,0.154l3.554-1.638v-2.932l-6.884-6.213l-0.391-3.666l2.484-0.314l3.643,1.397l3.046-0.526
		l0.699-6.079l-0.601-2.752l-1.027-2.355l-2.464-4.456l-0.919-2.216l-2.024-7.005h-0.01l-3.804-6.457l0.039-2.574l3.388-2.337
		l5.745-0.483l1.359-0.831l0.391-1.687l-0.65-6.63l0.054-4.59l0.665-3.741l1.457-3.252l2.41-3.125l1.345-1.13l1.511-0.84
		l3.075-1.014l1.711,0.194l1.261,1.027l1.183,1.266l1.477,0.91l3.021,0.297l2.141,2.008l3.686,5.762l1.115,1.006l2.386,1.574
		l1.046,1.264l1.731,2.959l0.978,1.308l1.193,1.089l2.914,1.082l2.533-0.78l2.259-2.017l3.97-5.054l1.873-1.58l2.083-1.045
		l17.44-5.498l8.947-6.909l9.818-3.909l6.85-4.144l5.251-6.165l2.616-13.218l3.559-0.946l4.214,1.763l1.164,1.277l1.819,1.995
		l0.24,0.421l0.298,0.369l2.982,2.623l17.259,19.572l0.782,1.098l-0.186,2.312l-1.863-0.698l-3.29-2.874l-1.887,0.207l-0.89,1.583
		l0.23,2.151l1.481,1.924l8.654,2.014l3.618,2.104l-0.817,4.206l-0.209,1.042l-0.011,0.055l-1.467,0.928l-0.333,0.516L351,80.073
		l-0.323,0.483l-1.555,0.355l-0.797,0.393l-1.354,1.07l-1.418,1.308l-5.75,4.735l-3.32,4.134l-1.208,1.036l-1.428,0.676
		l-1.398,0.393l-1.32,0.592l-1.281,1.287l-2.278,3.885l-0.953,1.254l-0.909,0.373l-6.512,1.53l-2.811,1.826l-1.496,2.41l0.152,2.615
		l0.151,0.585l0.166,0.334l1.247,1.83l-0.054-0.045l0.205,0.193l0.812,0.976l0.264,0.526l-1.281,4.32l4.713,2.104l1.985,0.577
		l2.073-0.186l1.78-0.552l1.799-0.192l2.092,0.879l2.513,4.13l1.261,5.736l1.692,5.265l3.814,2.747l3.99,0.256l4.058-0.333
		l13.484-4.162l8.385-0.762L372.141,134.846z M328.598,178.911l11.465,3.848l3.32,0.115l2.992-1.369l1.164,0.299l0.709,2.274
		l-0.151,2.209l-0.973,0.891l-3.114,0.617l-2.709,1.4l-4.86,3.925l-0.543-0.433l-2.704-4.626l-0.939-1.19l-3.207-2.241l-1.261-1.808
		l-0.714-2.045l0.108-1.905L328.598,178.911z"/>
</g>
<g id="Copyright">
	<text transform="matrix(1 0 0 1 681.6426 577.5916)" class="st1 st2">© Vemaps.com</text>
</g>
</svg>
