<?xml version="1.0" encoding="utf-8"?>
<!-- Generator: Adobe Illustrator 23.0.1, SVG Export Plug-In . SVG Version: 6.00 Build 0)  -->
<svg version="1.1" xmlns="http://www.w3.org/2000/svg" xmlns:xlink="http://www.w3.org/1999/xlink" x="0px" y="0px"
	 viewBox="0 0 800 600" style="enable-background:new 0 0 800 600;" xml:space="preserve">
<style type="text/css">
	.st0{fill:#808080;}
	.st1{font-family:'Roboto-Regular';}
	.st2{font-size:14px;}
</style>
<g id="Turkey">
	<path class="st0" d="M717.175,195.044l-0.16,1.198l0.32,1.629l0.615,1.464l0.739,0.704l1.654,0.238l1.664,0.836l1.524,1.27
		l1.211,1.526l0.444,1.005l0.166,0.978l0.086,1.025l0.208,1.162l0.396,1.014l1.606,2.578l0.359,0.958l0.136,0.844l0.202,3.531
		l-0.114,0.413l-0.803,1.438l-0.236,0.316l0.296,1.153l-1.638,1.928l-0.515,1.052l0.04,1.22l-0.234-0.184l-0.172-0.068l-0.172-0.039
		l-0.236-0.087l0.122,0.208l0.064,0.152l0.104,0.365l-0.915,0.11l-0.835,0.581l-1.322,1.581l0.16,0.669l0.821,0.921l1.564,1.341
		v0.346l-0.033,0.112l-0.576,1.936l-0.33,0.566l-0.264,0.831l0.396,0.794l1.045,0.988l1.72,2.247l0.556,1.293l0.039,0.092
		l-0.707,0.552l0.411,0.892l1.206,1.491l0.25,0.57l-0.378,0.653l-1.75,0.382l-0.535,0.502l0.499,1.458l1.77,0.982l3.54,1.01
		l4.227,2.343l4.65,0.793l0.615-0.214l1.344-0.947l0.825-0.219l0.38,0.102l0.491,0.477l0.328,0.11l0.404-0.055l0.791-0.235
		l1.107-0.138l2.329-0.637h1.306l1.414,0.441l2.137,1.255l3.225,1.893l2.235,1.954l0.993,1.112l0.436,0.734l0.18,0.765l0.144,0.437
		l0.328,0.336l0.583,0.429l0.12,0.492l0.012,0.567l0.144,0.291l0.515-0.317l1.398,1.62l0.715,0.439l0.196,0.026l0.431-0.068
		l0.184,0.042l0.188,0.169l0.222,0.39l2.371,3.126l0.597,1.02l0.378,0.631l0.442,1.902l0.435,0.625l-3.141-2.281l-0.751-0.639
		l-2.311-1.08l-0.529-0.608l-1.043-1.585l-0.595-0.421l-0.955,0.283l-4.107,3.39l-0.172,0.569l0.2,1.64l-0.076,0.6l-0.024,0.191
		l-0.23,0.646l-1.281,2.585l-0.176,0.674l-0.076,0.824l0.076,0.707l0.132,0.645l-0.024,0.598l-0.385,0.593l-0.006,0.003
		l-0.192,1.118l0.136,0.944l-0.016,0.905l-0.651,0.996l-0.743,0.546l-2.002,0.915l-0.851,0.204l-0.983-0.083l-2.671-1.331
		l-0.925-0.103l-2.097,0.556l-0.891,0.098l-0.859-0.106l-0.603,0.015l-0.579,0.212l-0.787,0.494l-0.431,0.605l0.236,0.605
		l1.015,1.204l0.007,0.02l0.169,0.473l0.228,1.061l0.456,0.989l-0.008,0.372l-0.096,0.33l0.016,0.446l0.132,0.426l0.467,0.989
		l0.032,0.441l-0.268,0.905l0.044,0.43l0.999,0.769l1.722,0.907l1.49,1.063l0.316,1.226l-0.767,1.51l-0.196,0.79l0.358,1.963
		l-0.372,0.591l-0.625,0.522l-0.547,0.925v0.009l0.212,0.346l0.12,0.337l0.162,0.767l0.234,0.356l0.352,0.272l0.292,0.309
		l0.028,0.451l-0.02,0.413l0.128,0.381l0.168,0.376l0.372,1.111l0.527,0.749l0.627,0.607l2.049,0.986l0.186,1.457l-1.049,3.59
		l-0.156,0.991l0.072,0.625l0.192,0.591l0.194,0.893l-0.17,0.361l-0.336,0.34l-0.12,0.303l0.483,0.249l0.699,0.225l0.296,0.197
		l0.284,0.322l0.276,0.82l-0.008,1.024l-0.18,1.957l0.356,2.513l-0.046,0.847l-0.489,1.99l-0.004,0.581l0.12,1.251l-0.024,0.455
		l-0.128,0.808l0.114,0.431l0.354,0.25l0.569,0.265l1.932,0.355l1.274-0.743l0.491-0.104l0.603,0.234l0.547,0.467l0.475,0.666
		l0.296,0.774l0.016,0.784l-0.867,1.255l-1.398,1.097l-1.089,1.239l0.166,2.36l-0.134,0.956l-0.238,0.966l-0.252,0.719l-0.288,0.386
		l-0.687,0.292l-0.32,0.278l-0.054,0.428l0.314,0.924l-0.214,0.307l-0.745,0.363l-0.507,0.404l-0.36,0.624l-0.32,1.03l-0.34,0.752
		l-0.933,1.061l-0.358,0.706l-0.004,0.008l-0.328,0.63l-0.236,0.597l-0.07,0.625l0.194,0.69l0.032,0.622l-0.34,0.525l-0.399,0.503
		l-0.053,0.175l-0.113,0.372l0.677,1.071l1.346,0.219l2.505-0.295l0.464,0.142l1.388,0.673l0.417,0.299l0.228,0.448l0.144,0.567
		l0.22,0.603l0.432,0.555l0.298,0.099l0.266-0.096l0.252-0.053l0.292,0.228l0.028,0.245l-0.154,0.781l-0.026,0.293l0.284,0.555
		l0.543,0.057l0.619-0.22l0.491-0.28l1.053-0.121l1.081,0.496l0.965,0.84l1.42,1.741l0.088,0.457l-0.396,0.638l-1.338,1.083
		l-0.32,0.429l-0.17,1.48l0.777,0.881l0.871,0.662l0.152,0.833l-0.352,0.98l-0.252,1.204l-0.074,1.209l0.206,0.995v0.008
		l0.156,0.822l-0.515,1.451l0.24,0.798l0.519,0.298l1.438,0.135l0.595,0.453l0.543,1.391l0.363,0.407l1.406-0.214l0.352,0.442
		l0.228,0.689l0.324,0.657l2.225,1.433l0.875,1.026l-0.12,1.573l-0.453,0.592l-0.533,0.312l-0.481,0.41l-0.27,0.869l0.124,0.977
		l0.364,0.828l0.24,0.82l-0.24,0.937l-0.476-0.836l-0.775-0.392l-4.053-0.572l-0.721,0.033l-1.238,0.579l-1.502,1.103l-1.39,1.312
		l-0.935,1.193l-0.959,0.759l-1.019,0.561l-3.284,1.081l-0.308,0.547l-0.136,0.759l-0.599,1.033v0.005l-0.006,0.003h-0.004
		l-0.358,0.81l-0.363,0.353l-0.479,0.038l-1.606-0.416l-0.348-0.285l-0.252-0.506l-1.558-3.526l-0.288-1.001l0.024-1.033
		l0.332-0.983l0.647-0.844l0.495-0.291l0.442-0.083l0.383-0.177l0.318-0.568l0.05-0.474l-0.042-0.605l-0.194-1.063l-0.33-1.114
		l-0.457-0.839l-0.629-0.654l-0.867-0.566l-3.727-1.554l-0.735-0.125l-1.293-0.219l-1.748,0.279l-1.414,1.217l-1.145,1.671
		l-1.181,1.367l-2.073,0.379l-0.695,0.715l-0.487,0.13l-0.284-0.188l-0.831-0.815l-0.384-0.266l-0.917-0.233l-1.009-0.095
		l-3.963,0.273l-0.931-0.12l-0.979-0.4l-0.707-0.536l-0.316-0.173l-0.499-0.078l-0.479,0.078l-0.955,0.366l-0.495,0.068
		l-0.631-0.258l-1.798-1.481l-1.574-0.795l-0.523-0.407l-1.019-0.793l-0.463-0.097l-0.715,0.109l-0.34,0.157l-0.362,0.369
		l-0.344,0.068l-0.322-0.045l-0.268-0.098l-5.08-2.75l-0.663-0.189l-1.203,0.112l-1.554,0.417l-1.482,0.632l-0.987,0.75
		l-1.646,0.568l-1.558-0.231l-3.196-1.065l-0.332-0.245l-0.168-0.838l-0.336-0.255l-0.463-0.057l-0.344,0.029l-1.91,0.778
		l-0.252,0.176l-0.24,0.395l-0.08,0.342l-0.048,0.337l-0.148,0.383l-4.846,7.096l-0.476,1.319l-0.132,0.263l-0.619,0.278
		l-3.328,0.561l-2.213,0.735l-1.726,0.202l-0.028-1.372l-0.076-0.685l-0.304-0.292l-0.44-0.618l0.691-2.711l-0.252-0.618
		l-0.264-0.139l-1.318-1.064l-0.168-0.261l-0.196-0.475l-0.168-0.261l-0.24-0.073l-0.256,0.208l-0.244,0.269l-0.22,0.108
		l-1.174-0.572l-0.527-0.089l-0.04-0.207l0.064-0.485l-0.048-0.562l-0.44-0.533l-0.703,0.568l-0.559,0.337l-1.942,2.576l-2.912,2.75
		l-1.69,1.021l-4.364,1.035l-16.103,3.816l-10.763,0.513l-0.835-0.225l-1.726-0.709l-9.225-1.863l-7.247,1.077l-1.914,0.737
		l-5.17,2.876l-1.774,0.519l-0.883,0.05l-0.843,0.17l-0.823,0.319l-0.779,0.484l-5.115,3.446l-2.755,1.855l-1.446,0.679l-1.45,0.272
		l-1.39,0.477l-3.843,2.313l-8.294,3.127l-12.507,2.4l-7.812,1.499l-2.078,0.085l-5.941-2.008l-2.017,0.145l-0.851,0.254
		l-6.284,0.301l-2.721-0.351l-2.353-1.233l-1.119-1.183l-4.091-4.329l-1.91-1.063l-7.347-2.221l-2.537-0.324l-1.322,0.139
		l-2.593,1.01l-3.748,2.397l-0.698,0.446l-1.079,0.294l-6.196,2.854l-6.404,1.371l-2.345,1.042l-5.693,3.678l-1.61-0.012
		l-6.284-1.163l-0.859,0.07l-2.457,0.637l-0.723-0.095l-0.635-0.194l-0.639-0.052l-0.727,0.329l-0.599,0.61l-0.3,0.453l-0.359,0.104
		l-0.763-0.423l-0.727-0.652l-0.144-0.553l0.336-1.547l-0.04-1.004l-0.304-0.621l-1.179-1.097l-0.595-0.558l-0.727-0.426
		l-0.771-0.304l-0.739-0.175l-2.441-0.157l-7.117-2.481l-0.038-0.013l-0.364-0.05l-0.359,0.023l0.132,1.18l-0.435,0.933
		l-0.631,0.855l-0.479,0.947l-0.168,1.069l-0.032,0.932l-0.132,0.947l-0.459,1.128l-0.523,2.036l0.028,2.14l-0.18,2.079
		l-1.155,1.852l-0.164,0.72l0.1,0.795l0.731,2.609l0.204,0.362l0.272,0.241l0.611,0.275l0.188,0.137l0.188,0.32l0.108,0.33
		l0.044,0.362l-0.008,0.424l-0.252,0.719l-0.216,0.434l-0.176,0.01l0.392,0.387l1.275,0.134l0.631,0.25l0.447,0.523l0.005,0.009
		l0.375,0.73l0.272,0.791l0.14,0.679l0.036,1.08l-0.224,0.399l-2.737,0.522l-0.735-0.012l-2.932-0.456l-0.711,0.112l-0.435,0.151
		l-0.14,0.309l-0.052,0.342l-0.184,0.272l-0.328,0.154h-0.212l-0.232-0.072l-1.059-0.146l-0.531-0.181l-0.483-0.347l-0.487-0.582
		l-0.447,0.453l0.555,0.654l-0.052,0.413l-0.316,0.319l-0.224,0.361l-0.072,0.703l-0.12,6.917l0.096,1.358l-0.823,0.274
		l-1.522-0.597l-0.767,0.311l-0.004,0.01l-0.324,1.686l-0.615,0.148l-0.931-0.264l-1.242,0.452l-0.851,1.387l-0.236,3.368
		l-0.431,1.407l-0.089,0.016l-0.65,0.117l-2.249-1.641l-1.143-0.535l-1.21-0.037l-0.599-0.143l-0.447-0.389l-0.088-0.57l0.116-0.624
		l-0.012-0.617l-0.483-0.553l-0.755,0.118l-0.779,0.286l-0.763,0.155l-0.368-0.125l0.003-0.006l0.437-0.655l1.677-2.964l0.412-0.35
		l-0.05-0.838l-1.044-3.315l-2.712-4.51l-0.532-0.708l-0.475-0.799l-0.434-1.486l-0.544-0.624l-0.623-0.577l-0.472-0.579
		l-0.434-1.083l0.053-0.767l1.051-1.572l0.33-0.387l0.378-0.25l0.415-0.129l0.456-0.039l0.195-0.18l0.453-1.161l0.321-0.336
		l0.68-0.366l0.349-0.281l0.186-0.434l0.211-1.009l0.469-0.307l0.182-0.235l0.264-0.235l1.523-0.544l0.327-0.192l1.825-2.28
		l0.289-0.511l0.406-0.029l4.156-2.654l0.61-0.141l0.403-0.368l0.466-0.866l0.387-0.984l0.192-0.741l-0.022-0.612l-0.154-0.455
		l-0.195-0.424l-0.157-0.514l-0.022-0.334l0.022-3.034l-0.145-0.742l-0.378-0.829l-2.284-3.262l-1.331-1.345l-1.425-1.031
		l-1.482-0.382l-1.362,0.519l-1.321,1.188l-2.205,2.711l-0.529,0.434l-0.639,0.177l-0.378,0.31l-1.284,1.481l-0.588,0.485
		l-1.482,0.355l-3.209,0.149l-1.406,0.514l-0.444,0.452l-0.453,0.897l-0.425,0.296l0.151-0.334l0.028-0.234l-0.123-0.194
		l-0.321-0.228l-0.381,0.746l-0.563,0.585l-0.359,0.585l0.249,0.749l0.582-0.8l0.865,0.265l0.113-0.779l0.22,0.071l0.142,0.13
		l0.097,0.188l0.091,0.239l0.179-0.334l0.069-0.341l-0.05-0.337l-0.198-0.306l0.544-0.314l0.22,0.283l0.138,0.475l0.286,0.247
		l0.425-0.141l0.378-0.263l0.406-0.153l0.507,0.196l-2.281,1.063l-1.066,0.824l-0.613,1.106l0.076,0.525l0.519-0.355l1.727-2.018
		l0.513-0.335l0.601-0.151l-1.453,1.495l-0.223,0.408l-0.327,0.861l-0.242,0.378l-0.167,0.486l-0.006,0.615l-0.063,0.529
		l-0.302,0.223l-0.371,0.096l-0.585,0.435l-0.365,0.096l-1.246,0.098l-0.481-0.098l-1.211-1.13l-0.374-0.186l-0.529,0.141
		l-0.34,0.321l-0.098,0.419l0.381,0.07l0.321,0.127l1.321,0.564l-1.633-0.449l-1.674-0.208l-0.321,0.102l-0.925,0.507l-0.201,0.211
		l-0.138,0.354l-0.352,0.208l-0.824,0.29l-1.007,0.828l-0.076,0.159l-0.396-0.217l-0.604-0.918l-0.437-0.21l-0.547-0.166
		l-9.774-5.912l-1.069-0.379l-1.233-0.854l-0.768-0.286l-0.617-0.061l-0.51,0.024l-0.132,0.006l-0.617,0.13l-0.522,0.232
		l0.085-0.224l0.204-0.765l-0.554-0.271l-1.586-1.704l-3.161-1.678l-0.223,0.362l-1.126-0.633l-1.661,0.377l-2.558,1.212
		l-1.167,0.179l-0.44,0.181l-1.177,0.66l-0.227,0.206l-0.378,0.907l-0.201,0.202l-1.186,0.66l-3.4,3.076l-4.165,2.617l-1.208,1.04
		l-3.316,4.256l-0.34,0.728l-0.151,0.481l-0.368,0.309l-0.802,0.374l-1.372,1.422l-1.34,0.754l-0.094,1.278l0.195,1.524
		l-0.079,1.281l-0.777,0.621l-1.183,0.246l-1.06,0.377l-0.406,1.019l0.214-0.076l0.135-0.133l-0.094,0.312l-0.727,0.964
		l-0.321,0.601l-0.138,0.696l-0.031,0.567l-0.208,0.333l-0.68,0.01v-0.3l0.368-0.866l-0.192-1.318l-0.582-1.212l-0.793-0.529
		l-0.585-0.195l-0.469-0.332l-0.466-0.115l-0.604,0.478l-0.689,1.175l-0.378,0.418l-0.651,0.207l0.296,0.078l0.12,0.086l0.113,0.195
		l-0.425,0.396l-0.566,1.006l-0.472,0.205l-0.381,0.064l-1.321,0.56l-0.28,0.222l-1.173,1.294l-0.189,0.507l-0.252,1.294
		l-0.217,0.339l-0.113-0.296l-0.966-1.516l-0.145-0.661l-0.362-0.187l-0.507,0.107l-0.551,0.234l-0.903,0.799l-0.868,1.149
		l-0.843,0.826l-0.84-0.158l0.528-0.298v-0.356l-0.896-0.103l-1.652-0.446l-0.774-0.105l-0.834,0.166l-1.375,0.711l-0.566,0.134
		l-1.494-0.52l-0.812-0.105l-0.714,0.855l-0.846,0.109l-1.721-0.041l-1.142,0.321l-0.444,0.035l-0.475-0.117l-0.827-0.438
		l-0.4-0.099l-0.884,0.251l-0.488,0.608l-0.359,0.75l-0.522,0.677l-0.422,0.307l-0.154,0.004l-0.129-0.15l-0.359-0.161l-0.494-0.066
		l-1.217,0.066l-2.567-0.642l-0.755-0.039l-2.482,1.357l-0.444,0.158l-0.33,0.52l-2.048,1.616l-1.667-0.111l-3.476-0.823
		l-1.482-0.73l-2.34-1.532l-0.151-0.101l-1.409-0.13l-0.695-0.201l-2.944-1.706l-0.396-0.428l-0.286-0.569l-0.68-0.288l-0.793-0.222
		l-0.62-0.374l-1.809-2.425l-0.324-0.043l-0.17-0.244l-0.72-0.491l-0.167-0.279l-0.154-1.362l-0.11-0.422l-0.906-1.319l-2.34-2.066
		l-0.472-1.381l-0.06-0.393l-0.157-0.34l-0.444-0.594l-0.434-0.747l-0.123-0.16l-0.519-0.219l-0.113-0.022l-0.679-1.49l-0.481-0.792
		l-0.576-0.344l-2.362-2.411l-0.28-0.149l-0.34-0.059l-0.437-0.008l-0.422-0.098l-0.296-0.214l-0.233-0.221l-0.227-0.125
		l-1.554,0.065l-0.777-0.116l-0.33-0.472l-0.44-0.417l-0.988-0.364l-1.076-0.176l-0.692,0.137l-0.362-0.353l-1.482-0.635
		l-0.761-1.072l-0.494-0.482l-0.475,0.061l-0.805-0.125l-2.932-1.312l-0.654-0.539l-0.56-0.659l-7.292-3.266l-1.12-0.204
		l-0.088-1.172l-1.372-0.803l-15.505-2.339l-6.332,0.36l-1.076-0.295l-0.818-0.493l-1.56-1.223l-2.24,1.528l-1.038,1.036
		l-0.544,1.499l-0.51,0.847l-0.179,0.397v1.484l-0.201,1.572l0.044,0.857l0.422,0.726v0.3l-0.302,0.4l-0.239,0.388l-0.167,0.492
		l-0.085,0.696l0.066,0.88l0.23,0.496l0.28,0.394l0.217,0.56l0.264-0.329l-0.094,1.019l-0.535,1.7l0.101,0.57l-1.309,1.098
		l-0.585,0.743l-0.466,1.704l-0.843,1.314l0.038,0.422l-0.516,0.795l0.066,0.834l0.418,0.67l0.56,0.32l-0.289,0.686l0.994,0.357
		l-0.551,0.695l-1.038,0.902l-0.462,0.995h0.264l0.176-0.215l0.025,0.018l0.069,0.115l0.283,0.082l-0.393,0.4l-0.538,0.4
		l-0.472,0.449l-0.421,1.077l-0.516,0.62l-1.114,0.979l0.069-2.02l-0.17-0.835l-0.453-0.418l-0.919,0.269l-4.096-1.903l-0.805-0.029
		l-2.907,0.492l-0.359,0.422l-0.145,0.706l-0.032,0.997h-0.242l-0.047-0.302l-0.239-0.652l-0.242,0.919v0.392l-0.547-0.357
		l0.019,0.341l-0.019,0.343l-1.453-0.328l-0.286-0.146l-0.299-0.271l-0.374-0.152l-0.516,0.213h0.815v0.357l-2.608,1.396
		l-0.582-0.09l-0.469,0.277l-0.434-0.027l-0.453-0.156l-0.494-0.094l-0.349,0.027l-0.189,0.098l-0.519,0.53l-0.651,0.361
		l-1.444,0.337l-0.538,0.285l0.126,0.047l0.107,0.01l0.057,0.068l-0.025,0.234l-0.371-0.004l-0.956,0.298v0.327h0.793l-0.522,0.526
		l-0.554,0.421l-0.607,0.28l-0.689,0.111v-0.356l0.214-0.158l0.113-0.146l0.079-0.162l0.123-0.189l-0.503,0.076l-0.119,0.074
		l-0.17,0.206l-0.444-0.491l-0.462-0.158l-0.472,0.076l-0.472,0.216l-0.123,0.177l-0.028,0.214l-0.123,0.183l-0.412,0.08
		l-0.022,0.154l-0.632,0.857l-0.16-0.978l-1.324-0.635l-0.39-1.001l0.522,0.265l0.227-0.263l-0.044-0.433l-0.293-0.224l-1.972,0.296
		v-0.296l0.349-0.199l0.378-0.138l0.412-0.056l0.421,0.035l-0.837-0.378l-3.121,0.051l-1.044-0.242l-2.41-1.392l-0.453,0.453
		l-0.201-0.437l-0.138-1.326l-0.227,0.347l-0.151-0.078l-0.145-0.211l-0.242-0.059l-0.396,0.168l-0.154,0.109l-0.091,0.133
		l-0.204,0.216l-0.195,0.291l-0.138,0.324l-0.164,0.281l-0.289,0.146l-0.34-0.228l-0.236-0.495l-0.208-0.306l-0.274,0.345
		l-2.359-2.238l-0.176-0.166l-0.343-0.705l-0.51-0.603l-2.306-0.746l-0.639-0.812l-0.532,0.357l-0.151-0.631l0.038-0.142
		l0.113-0.209v-0.356h-1.076l0.286-0.301l-0.444-0.285l-0.255-0.07l-0.381-0.004l0.195-0.446l0.296-0.301l0.381-0.174l0.443-0.061
		l-0.019-0.221l-0.028-0.045l-0.057,0.004l-0.132-0.065l0.226-0.882l-0.23-0.821l-0.497-0.634l-0.579-0.321v-0.297l0.51-0.427
		l0.233-0.137l0.337-0.094v-0.36l-0.154-1.675l-0.208-0.82l-0.431,0.229h-0.286l-0.466-0.593l-1.853,0.719l-0.849-0.125l0.708-0.188
		l0.16-0.464l-0.211-0.64l-0.421-0.709l0.217-0.325l0.343-0.888l0.261-0.46l0.544,0.482l0.478-0.466l0.491-0.708l0.598-0.265v0.3
		l-0.223,0.519l0.318,0.168l0.456-0.133l0.242-0.378l-0.091-0.429l-0.204-0.427l-0.264-0.367l-0.233-0.271l-2.403-1.724
		l-3.011-1.279l-0.393-0.455l-0.277-0.691l-0.629,0.479l-0.717,0.883l-0.513,0.514v0.298h0.264v0.33l-0.727,0.063l-0.312,0.088
		l-0.283,0.177l-0.135,0.402l0.101,0.439l-0.006,0.347l-0.484,0.129l0.195,0.414l0.113,0.139l0.217,0.135l-0.261,0.329l0.39,0.443
		l0.135,0.212h0.242l0.22-0.486l0.22-0.376l0.082-0.443l-0.236-0.667l0.683,0.635l-0.245,0.812l-0.654,0.747l-0.576,0.437
		l0.236,0.492l-0.422,0.257l-0.664,0.055l-0.491-0.114l-0.396-0.443v-0.437l0.33-0.335l0.594-0.133v-0.355l-0.661-0.329
		l-0.396-0.341l-0.393-0.167l-0.664,0.208l-0.198-1.275l-1.406-0.979l-1.727-0.355l-1.158,0.602h-0.264l-0.192-0.889l-0.415-0.353
		l-0.513,0.185l-0.484,0.73l-0.277-0.318l-0.491-1.33l0.349-0.656l0.16-0.958l-0.101-0.886l-0.409-0.466l-0.019-0.224l0.057-0.059
		h0.104l0.123-0.043l-0.076-0.145l-0.082-0.102l-0.003-0.157l0.16-0.287h-0.264l-0.179,0.444l-0.057,0.208l-0.028,0.365
		l-0.217-0.194l-0.003-0.057l-0.094-0.377l-0.491-0.556l-1.148-0.189l-0.84,0.489l0.132,1.185l-0.39-0.332l-0.377-0.098l-0.39-0.039
		l-0.428-0.157l0.528-0.33v-0.362l-0.868,0.004l-0.547-0.134l-0.302-0.472l-0.132-1.016l0.264,0.022l0.179-0.039l0.085-0.165
		l-0.044-0.291l-0.101-0.13l-0.094-0.083l-0.05-0.153l-0.082-0.511l-0.182-0.295l-0.176,0.028l-0.088,0.448l-0.346,0.436
		l-0.774,0.244l-1.12,0.13l-0.406,0.124l0.028,0.293l0.245,0.338l0.264,0.263l0.236,0.026l0.324-0.104l0.371,0.022l0.39,0.387
		l-0.409,0.699l-0.299,0.717l-0.406,0.495l-0.736,0.035l-2.01-1.031l-0.387-0.287h-0.239l0.157,0.758l0.082,0.259l-1.019,0.063
		l-0.403-0.134l-0.164-0.42l0.17-0.434l0.409-0.206l1.007-0.185v-0.33l-0.472-0.318l-0.547-0.493l-0.598-0.295l-0.617,0.281
		l-0.541,0.792l-0.252,0.8l0.11,0.695l0.538,0.485l-0.176,1.058l1.535,1.17l0.252,1.095l-0.466-0.326l-0.61-0.206l-0.547,0.147
		l-0.252,0.746l-0.255-0.149l-0.249-0.212l-0.013,0.233l-0.05,0.153l-0.094,0.124l-0.157,0.149l0.189,0.071l0.05,0.008l0.076,0.251
		l-1.998,0.71l-0.758,0.577l-0.695,1.047l-0.525,1.059l-0.742,1.193l-0.903,0.729l-1.022-0.351l-0.148,0.306l-0.11,0.165
		l-0.17,0.092l-0.34,0.094l0.082,0.155l0.085,0.337l0.072,0.166l-0.469,0.206l-0.387,0.051l-0.293-0.161l-0.173-0.425l-0.393,0.672
		l-0.494,0.104l-0.51-0.288l-0.45-0.488l0.076-0.147l0.11-0.36l0.079-0.149l-0.205-0.149l-0.116-0.147l-0.208-0.331h2.907
		l0.755-0.341l0.444-0.478l0.384-0.564l0.55-0.619l-0.528-0.659l-0.746,0.712l-0.333,0.247v-0.3l0.378-0.418l0.132-0.577
		l-0.126-0.574l-0.384-0.408l-0.39-0.265l-0.101,0.147l-0.035,0.596l-0.186,0.233l-0.415-0.047l-0.447-0.186l-0.277-0.178
		l-0.337,0.147h-0.437l-0.384-0.192l-0.16-0.432l0.198-0.18l1.384-0.329l-0.264-0.33l0.818,0.055l0.239-0.055l0.182-0.145
		l0.233-0.233l0.164-0.212l-0.025-0.069l1.466-0.106l0.381-0.224l-0.142,0.777l0.566,0.047l0.61-0.443l0.019-0.71l-0.365-0.273
		l-0.764-0.081l-0.211-0.302l0.075-0.318l0.289-0.271l0.45-0.401l0.261-0.359l0.132,0.332l0.157,0.21l0.503,0.477l-0.205-0.836
		l-0.06-0.994l-0.204-0.42l-0.453-0.114l-0.453,0.075l-0.337,0.228l-0.664,1.043l-0.846,0.568l-0.305-0.055l-0.189-0.513
		l-0.569,0.577l-1.507,0.45l-0.566,0.322h-0.264l-0.198-0.601l-0.365,0.161l-0.478,0.467l-0.566,0.298l-0.201-0.663l-0.271,0.061
		l-0.299,0.363l-0.286,0.239l-0.277-0.167l-0.245-0.336l-0.248-0.086l-0.283,0.589h-0.264l-0.481-0.412l-0.68-0.412l-0.761-0.161
		l-0.72,0.33v-0.33l-0.456,0.236l-0.447-0.027l-0.494-0.132l-0.604-0.077l-0.645,0.22l-0.809,1.064l-0.55,0.361v0.33l0.101,0.422
		l-0.532,1.518l-0.076,1.053l-1.283-0.653l-0.698-0.247l-0.651-0.118l-0.692,0.088l-0.573,0.157l-0.409-0.039l-0.201-0.506
		l-2.636,0.959l-0.17,0.331l-0.164,0.235l-0.195,0.121l-0.179-0.098l-0.475-0.478l-0.283-0.112l-0.881-0.165l-0.381-0.018
		l-0.444,0.182l-0.088-0.59l-0.308-0.322l-0.428-0.029l-0.491,0.282l0.013-0.206l-0.057-0.063h-0.107l-0.138-0.031l0.227-0.3v-0.292
		l-0.179-0.249l-0.318-0.175v-0.298l0.484,0.2l0.635,0.155l0.651,0.014l0.491-0.22l0.34-0.5l0.16-0.771l0.434-0.553l0.428-0.33
		l0.359-0.082l0.941,0.082l2.841-0.42l1.384,0.09l0.736-0.218l0.211-0.524l0.035-0.648l0.214-0.585l0.849-0.228l1.771,1.068
		l0.55-0.214l0.61,0.342l0.541-0.035l0.503-0.096l0.456,0.149l0.991-0.955l0.519-0.267l3.379-0.106l0.412-0.169l0.252,0.314
		l0.62,0.295l0.783,0.196l0.746,0.031l1.35-0.165l0.632,0.196l0.657,0.629l0.126-0.503l0.236-0.271l0.717-0.542l-0.245-0.582
		l-0.368-0.291l-0.535-0.104l-0.724-0.014l0.264-0.33l0.365,0.13l0.05-0.283l-0.227-0.46l-0.453-0.405l0.176-0.031l0.113-0.069
		l0.11-0.096l0.151-0.104l0.286,0.147l0.296-0.118l0.333-0.224l0.406-0.165v-0.301l-0.771-0.796l-0.308-0.443l-0.242-0.439
		l0.51,0.358l0.286-0.358l-0.23-0.146l-0.104-0.147l-0.082-0.177l-0.138-0.222l0.324,0.024l0.67-0.051l0.327,0.028v-0.299h-0.768
		v-0.329l0.912-0.018l0.371,0.09l0.277,0.256l0.245-0.22l0.192-0.059l0.179,0.081l0.198,0.199h0.261l0.39-0.27l0.843,0.435
		l0.377-0.165h0.214l0.076,0.362l0.236,0.63l0.11-0.252l0.013-0.1l-0.05-0.092l-0.072-0.248l0.123-0.205l-0.013-0.157l-0.151-0.134
		l-0.271-0.132v-0.333l0.359-0.055l0.308,0.045l0.239,0.13l0.176,0.213l0.768-1.325l0.283-0.329v-0.36h-0.522l0.308-0.467
		l0.214-0.496l0.623,0.479l0.623,0.114l0.327-0.268l-0.252-0.685l2.067-0.827l1.142-0.266l-0.01-0.305l-0.255-0.343l-0.302-0.24
		l-0.396-0.099l-5.04,0.761l-1.859-0.035l-0.733,0.181l0.107,0.516v0.357l-0.661-0.355l-4.112-0.664l-0.425,0.138l-0.481,0.422
		l-0.437,0.103l-0.422-0.035l-1.142-0.268l-0.972,0.075l-3.152,1.046l-0.409-0.16h-0.242l-0.057,0.209l-0.23,0.482l-0.289-0.108
		l-0.39-0.071l-0.45,0.02l-0.453,0.159l-0.765-0.561l-1.239-0.012l-1.233,0.431l-0.746,0.774l-0.714-0.421l-1.07-0.437l-0.896,0.079
		l-0.198,1.14l-0.9-0.66l-0.403-0.221l-0.547-0.112l-1.176,0.136l-0.428-0.136l-0.384-0.364l-0.692-1.036l-0.245-0.252l-0.579,0.028
		l-0.598,0.5l-0.22-0.341l0.076-0.187h-0.289l-0.079,0.457l-0.444,1.196l-0.151-0.26l-0.019-0.085l0.066-0.083l0.104-0.264
		l-0.057-0.053l-0.076-0.01l-0.076-0.049l-0.057-0.189l0.17-0.187l0.032-0.047l-0.069-0.095l-0.132-0.331l-0.349,0.24l-1.022,0.209
		l-0.478,0.211v0.301l0.157,0.524l-0.239,0.536l-0.459,0.429l-0.541,0.195l0.186,0.474l0.104,0.187l-0.352-0.1l-0.195-0.006
		l-0.271,0.106l-0.233-0.36l-0.686,0.169l-0.406-0.725l-0.204-1.059l-0.05-0.849l-0.189-0.804l-0.34-0.627l-0.142-0.704l0.4-1.023
		l0.333-0.024l0.635-0.27l0.686-0.452l0.484-0.58l-0.271-0.249l-0.324-0.104l-0.349,0.075l-0.371,0.278l-0.148-0.164l-0.066-0.138
		l-0.076-0.361l0.289,0.302l0.434-0.539l1.211,0.45l0.727-0.213l-0.019-0.345l0.085-0.377l0.047-0.436l-0.113-0.525l0.415,0.12
		l0.274,0.274l0.132,0.424l-0.028,0.566h0.258l0.204-0.521l0.283-0.377l0.299-0.101l0.277,0.304l0.113-0.109l0.044-0.069
		l0.022-0.067l0.085-0.114l-0.013,0.831l0.139,0.225l0.28-0.035l0.406,0.034l0.315,0.215l0.223,0.215l0.28,0.079l0.503-0.211
		l-0.088,0.132l-0.05,0.043l-0.06,0.031l-0.091,0.095l0.563,1.006l0.551,0.363l0.591-0.146l1.013-0.726l0.808-0.363l0.34-0.284
		l0.406-0.249l0.912,0.016l0.403-0.217v-0.363l-0.51,0.087l-0.126,0.071l-0.176,0.205l-0.283-1.537l-0.296-0.799l-0.453-0.344
		v-0.361l1.812-0.405l0.5,0.115l-0.469,0.983l0.431-0.142l0.312-0.217l0.585-0.665l-0.604-0.225l-0.22-0.332l0.032-0.95l0.088-0.211
		l0.488-0.35l0.217-0.253l0.113-0.348l0.047-0.626l0.076-0.35l-0.472-0.328l-0.028-0.034l-0.333-0.081l-0.091,0.134l-0.019,0.198
		l-0.085,0.111l-0.95-0.04l-0.447,0.126l-0.189,0.393l-0.198,0.729l-0.491,0.656l-0.613,0.34l-0.566-0.219l0.686-0.591l0.082-0.636
		l-0.428-0.435l-0.868,0.008l-0.123,0.184l-0.368,0.373l-0.387,0.213l-0.186-0.29l0.101-0.462l0.252-0.461l0.711-0.886l-0.047-0.38
		l0.189-0.522l0.053-0.659l-0.434-0.795h-0.289l-0.16,1.365l-0.865,0.487l-1.076-0.188l-0.831-0.664l-0.315-1.076l0.312-0.989
		l0.714-0.78l0.9-0.445l-0.462-0.737l-0.745-0.331l-0.145,0.008l-0.654,0.026l-0.629,0.339l-0.352,0.63l-0.182,0.633l-0.396,0.416
		l-0.944-0.016v0.36l0.566,0.38l-0.236,0.198l-2.274,0.148l-0.535,0.196l-0.447,0.408l-0.283-0.376l-0.274-0.204l-0.261-0.006
		l-0.239,0.22l-0.066-0.354l-0.057-0.154l-0.141-0.154l-0.302,0.214l-0.107,0.032l-0.107-0.093l-0.302-0.152l0.384-0.447
		l0.264-0.481l0.076-0.513l-0.17-0.55l0.591-0.279l0.227-0.053v-0.333l-0.34-0.943l0.195-2.213l-0.673,0.196l-0.22-0.285
		l-0.261-0.004l-0.283,0.222l-0.293,0.369l0.16-0.819l0.23-0.727l0.101-0.702l-0.226-0.748l0.142-0.315l-0.154-0.208l-0.148-0.284
		l0.16-0.552l0.61,0.407l0.346-0.768l0.11-1.088l-0.142-0.55l-0.566-0.202l-2.227-1.465l-3.379-0.932l-1.444-0.761l0.359-1.004
		l0.68-0.189l2.595,0.189l0.84-0.111l3.322-1.217l0.513-0.366l0.893-1.144l0.274-0.742l0.151-1.098l0.041-1.055l-0.044-0.609
		l-0.299-0.454l-0.362-0.418l-0.239-0.57l0.076-0.928l0.132-0.179l0.503-0.442l0.189-0.349l0.116-0.454l0.076-0.401l-0.028-0.399
		l-0.164-0.451l0.554-0.491l-0.327-1.095l-1.051-1.794l-0.969,0.343h-1.412l-1.406-0.25l-0.956-0.395l-0.201-0.275l-0.138-0.345
		l-0.22-0.291l-0.39-0.128l-0.312-0.014l-0.302-0.072l-0.223-0.146l-0.088-0.252l-0.123-0.759l-0.34-0.252l-1.117-0.18l-1.994-0.779
		l-1.013-0.104l-1.217,0.244l-0.683,0.276l-0.258,0.028l-0.189,0.164l-0.113,0.358l-0.157,0.353l-0.327,0.162l-0.315-0.258
		l-0.884-1.754l0.208-0.623l-0.038-0.72l-0.189-0.728l-0.245-0.642l-0.393-0.672l-0.853-0.858l-0.362-0.484l-0.679,0.346
		l-0.176-0.602l0.085-1.453l-0.519-0.478l-0.604,0.054l-0.67,0.264l-0.736,0.16l-2.416,0.014l-0.381,0.154l-0.503,3.189
		l-0.183-0.136l-0.019-0.04l-0.085-0.13h-0.242l0.113,0.698v0.634l-0.195,0.47l-0.469,0.214l-0.245-0.21l-0.456-1.204l-0.355-0.602
		l-0.019,1.032l-0.396,0.082l-0.525-0.404l-0.755-0.83l-0.249-0.406l-0.072-0.494l0.148-0.686l-1.066,0.278l-0.972-0.816
		l-0.941-1.051l-0.956-0.426l0.176,0.781l0.082,0.226h-0.258l-0.208-0.304l-0.849-0.859l0.066-0.503l0.104-0.435l0.013-0.433
		l-0.182-0.493h-0.264l-0.321,1.322l-0.812,0.322l-0.981-0.334l-1.258-1.059l-0.365-0.22l-2.01-0.629l-0.06-0.317l0.22-0.766
		l1.029,0.449l0.425-0.679l0.368-0.896l0.84-0.216v-0.367l-0.723-0.499l-0.107-0.902l0.308-0.538l0.522,0.592l0.066-0.457
		l0.094-0.199l0.151-0.114l0.211-0.207l0.157,0.598l0.028,0.523l-0.123,0.463l-0.327,0.433l0.195,0.152l0.198,0.094l0.236,0.048
		l0.312,0.012l0.299,0.084l0.076,0.198l0.057,0.228l0.245,0.16l0.56,0.04l0.557-0.116l0.264-0.325l-0.33-0.578v-0.337l0.604,0.397
		l0.245,0.008l0.472-0.068l0.453-0.198l0.981-0.692l0.293-0.151l0.532-0.445l0.044-0.985l-0.349-1.024l-0.639-0.546v-0.365
		l0.981,0.464l0.472,0.518l0.34-0.054l0.585-1.265l-0.547-0.331l-0.95-0.874l-0.79-0.289l-0.506-0.474l-0.378-0.056l-0.346,0.209
		l-0.302,0.663l-0.271,0.141l-0.749-0.04l0.013-0.207l0.349-0.506l0.255-0.93l-0.151-0.595l-1.17-1.767l0.239,0.336l-0.107-0.601
		l-0.478-1.494l-0.06-0.298l0.038-0.326l-0.444-1.868l0.013-0.701l0.082-0.729l0.201-0.568l0.374-0.23l0.582-0.101l0.849-0.443
		l0.428-0.103l1.025,0.085l0.966,0.248l0.853,0.415l0.695,0.576l1.312,1.434l0.629,0.904l0.192,0.761l0.896,1.439l0.975,1.265
		l0.34,0.332l0.261,0.197l0.217,0.267l0.214,0.553l0.079,0.545l-0.019,0.484l0.022,0.468l0.204,0.494l-0.255,0.211l-0.138,0.076
		l-0.154,0.05l-0.302-0.283l-0.406-0.088l-0.447,0.101l-0.431,0.271l0.661,0.349l-0.009,0.446l-0.334,0.572l-0.318,0.715
		l0.915,0.121l0.396,0.538l0.239,0.753l0.44,0.764l0.673,2.256l0.62,1.064l0.83-0.295l0.208-0.619l-0.245-0.425l-0.623-0.453
		l-0.264-2.05l0.204-0.847l0.437-0.859l0.585-0.514l0.645,0.201v-0.337h0.242l0.437,0.494l0.447,0.899l0.72,2.003l0.179-0.1
		l0.444-0.16l0.17-0.106l0.299,0.636l0.569-0.07l0.689-0.355l0.689-0.211l3.058-0.303l1.903-0.913l0.617-0.132l0.182-0.094
		l0.503-0.441l0.227-0.137l0.396,0.02l0.362,0.153l0.368,0.068l0.459-0.241l0.057,0.197l0.208-0.197l1.06,0.506l0.896-0.58
		l0.912-0.97l1.114-0.639v-0.337l-0.378-0.295l-0.167,0.034l-0.274,0.261l-0.264-0.368l-0.746,0.344l-1.299-0.139l-0.334,0.163
		l-0.991-0.482l-1.035,0.036l-2.422,1.012L79.3,329.47l-0.126-0.032l0.374-0.578l-0.664-0.466l-1.17-1.909l-0.525-0.321l-0.96-0.31
		l-0.384-0.243l-0.865-0.681l-0.472-0.82l0.563,0.567l0.686,0.525l1.051,0.653l0.604-0.028v-0.338l-0.466-0.567l-0.491-0.454
		l-0.535-0.364l-0.62-0.302l0.16-0.581l0.201-1.219l0.167-0.592l-0.566-0.535l-0.355,0.169l-0.437,0.354l-0.777,0.012l0.173-0.511
		l0.113-0.197l-0.84-0.298l-0.478-0.064l-0.532,0.056l0.076-0.229l0.094-0.556l0.072-0.229l-0.503-0.012l-0.365-0.189l-0.692-0.504
		l0.271-0.314l0.292-0.23l0.34-0.129l0.415-0.004l-0.774-1.154l-0.283-0.647l-0.261-0.903l0.714-0.488l1.985-0.427l1.132-0.795
		l0.214,0.085l0.145,0.175l0.057,0.095l0.063,0.05l0.434,0.071l0.377,0.008l0.887,0.403l0.541,0.173l0.579-0.026l-0.242-0.68
		l0.381-0.266l0.318-0.313l0.299-0.109l0.324,0.351l0.116-0.387l0.025-0.375l-0.047-0.422l-0.094-0.51l-0.264,0.373l-0.777-1.391
		l-0.28-0.337l1.563-0.678l0.239,1.066l0.654,0.129l0.412-0.646l-0.491-1.256l0.642-0.206l0.601-0.319l0.503-0.388l0.365-0.412
		l0.78,0.529l0.83-0.525l0.296-0.784l-0.827-0.239l0.642-1.334l-0.003-0.558l-0.639-0.514l-0.664,0.592l-0.434,0.303l-0.45,0.109
		l-0.72,0.012l-0.195-0.156l-0.387-0.704l-0.198-0.158l-0.481,0.154l-0.321,0.255l-0.286,0.048l-0.374-0.457l-0.431,0.404
		l-1.324,0.782l-0.5,0.139l-0.409-0.206l-0.601-0.91l-0.576-0.21l-0.724-0.5l-0.359-1.143l0.076-1.255l0.601-0.834v-0.34
		l-0.198,0.02l-0.617-0.02l0.494-0.593l0.878-0.67l0.963-0.551l0.736-0.225l0.39-0.431l-0.305-0.96l-0.903-1.514l-1.088-1.385
		L74.32,293.6l-1.202-0.627l-0.293-0.152l-0.755-0.576l-0.535-0.627l0.047-0.518l-0.311-0.999l-0.17-0.993L70.8,288.34l-0.67-0.305
		l-1.859,0.104l-0.938-0.073l-0.768-0.341l0.39-0.396l0.227-1.006l0.286-0.506l0.5-0.207l0.359,0.218l-0.038,0.337l-0.692,0.165
		v0.311l0.418-0.018l0.359,0.152l0.305,0.262l0.261,0.317l-0.227-0.77l0.211-0.394l0.422-0.232l0.387-0.281l0.679-1.033l4.096-3.123
		l-0.359-0.287l-0.17-0.055v-0.312l0.06-0.338l0.006-0.297l-0.066-0.421l1.406-0.104l0.519-0.208l0.472-0.371l-0.425-0.733
		l0.613-0.485l2.243-0.717l0.151-0.096l-0.006-0.185l0.066-0.518l0.528-1.896l-0.047-1.071l-0.239-0.692l-0.598-0.371l-1.114-0.11
		l-0.887,0.378l-0.711,0.675l-0.742,0.329l-0.966-0.696l-5.436,0.996l-8.135,1.487l-0.871,0.361l-0.39,0.44l-0.396-0.006
		l-1.699,0.978l-0.302,0.222H56.55l-2.038-0.369l-0.415,0.055l-0.503,0.261l-0.412,0.053l-0.349,0.426l-0.063,0.104l-0.116,0.257
		l-0.261-0.098l-0.415-0.346l-3.051,0.766l-1.541,0.002l-1.497-0.768l-0.164-1.09l0.966-2.62l0.607-2.473l1.45-1.413l0.33-1.164
		l0.264-2.759l-0.164-0.54l-0.723-1.399l-0.164-0.65l0.057-0.446l0.164-0.168l0.179-0.117l0.123-0.297v-1.202l0.195-1.317
		l-0.126-0.453l-0.591-0.123l0.211-0.576l0.576-2.517l-0.028-0.308l-0.208-0.988l-0.028-0.457l0.104-0.445l0.349-0.685l0.076-0.421
		l0.157-0.456l0.812-1.423l0.352-0.357l2.064,0.706l0.61-0.415l1.29-0.571l0.415-0.257l1.629-1.65l0.346-0.571l0.11-0.419
		l0.047-0.65l0.132-0.312l0.028-0.197l-0.035-0.226l-0.003-0.189l0.132-0.078l0.425,0.016l0.201-0.051l0.164-0.154l0.245-0.638
		l0.151-0.917l-0.019-0.957l-0.258-0.751l0.252-0.743l0.198-0.315l0.267-0.062l0.491,0.021l0.535-0.107l1.01-0.476l1.283-0.352
		l0.72-0.618l1.711-2.279l0.343-0.223l0.343-0.124l0.525-0.285l0.488-0.396l4.137-5.08l0.812-0.657l1.589-0.099l3.338,0.285
		l1.321-0.318l0.425,0.124l1.013,0.57l2.205,0.196l0.846-0.196l1.079-0.87l0.947-1.215l1.183-0.953l1.806-0.083l1.312,0.26
		l1.482,0.056l0.859-0.211l1.312-0.812l0.598-0.019l0.635,0.496l0.399,0.73l0.576,1.55l-0.529,0.376h-0.264l-0.176-0.219
		l-0.013-0.025l-0.057,0.099l-0.283,0.145l1.667,1.819l2.139,1.43l2.296,1.019l2.743,0.67l1.082-0.002l0.415-0.085l1.353-0.904
		l0.617-0.136l1.079,0.247l0.934,0.439l0.887,0.186l0.937-0.528l0.786,0.351l1.164,0.097l1.048-0.258l0.906-1.352l2.092-1.104
		l0.626-0.884l-0.708-0.025l-1.931-0.665l-0.569,0.349l-0.34,0.006l-0.151-0.514l-0.079-0.502l-0.22-0.143l-0.258-0.039
		l-0.233-0.198l-0.258-0.407l-0.17-0.213l-0.088-0.289l-0.035-0.637l-0.116-0.343l-0.29-0.074h-0.346l-0.305-0.118l-1.261-1.265
		l-0.346-0.503v-0.314l0.466-0.207l0.378-0.279l0.632-0.73l0.415-0.219l0.34,0.217l0.318,0.081l0.381-0.627l0.736,0.956l0.053,0.149
		l0.346,0.056l0.11-0.143l0.113-0.197l0.368-0.095l6.386,1.005l1.711,0.602l0.783,0.85l-0.683,1.187l-3.356,1.734l-1.004,0.865
		l0.173,1.303l1.4,0.415l3.202-0.303l3.265-1.22l9.123-0.405l2.026,0.337l3.341-0.126l-0.415,0.099l-0.33,0.182l-0.227,0.304
		l-0.11,0.452l1.573-0.591l1.774-0.01l1.831,0.477l1.736,0.849l0.236-0.308l0.142,0.062l0.145,0.186l0.264,0.06l0.34-0.149
		l0.409-0.403l0.308-0.173l2.183-0.353l0.588-0.496l0.576-0.322l0.745,0.105l1.321,0.405l1.167,0.066l1.098,0.248l0.538,0.252
		l0.906,0.574l0.67,0.246l0.689,0.101l2.992-0.064l0.683-0.147l0.544-0.425l0.318-0.657l0.34-1.371l0.286-0.587l0.491,0.213
		l0.626-0.031l0.673-0.215l0.585-0.314l-0.695-0.847l-0.853-0.781l-0.912-0.577l-0.859-0.223h-2.114l-0.33,0.163l-0.856,0.717
		l-0.418,0.161l-2.042-0.484l-3.41-2.141l-2.098-0.497l0.714-1.552l1.321-0.882l2.74-1.075l1.161-0.748l1.636-1.683l0.629-0.27
		l11.413-1.078l1.611-0.552l1.566-0.888l0.802-0.629l0.283-0.068l0.283,0.268l0.311,0.483l0.371,0.324l0.459-0.216l0.349-0.228
		l0.488-0.199l0.428-0.245l0.182-0.374l0.151-0.38l0.355-0.262l0.437-0.162l0.409-0.085l0.39,0.073l0.629,0.305l0.569,0.604
		l0.255,0.952l0.428-0.004l7.474-1.708l4.404-0.222l1.406,0.645l0.796-0.01l0.585-0.948l-0.39-1.173l-1.51-0.278l-3.121,0.405
		l-0.267,0.087l-0.28,0.139l-0.333,0.116l-0.434,0.006l-0.447-0.206l-0.774-0.716l-0.242-0.156l-0.62-0.112l-1.353-0.486l-0.786-0.1
		l-9.179,0.38l-0.717,0.247l-0.613,0.465l-0.639,0.285l-0.805-0.299l-0.327-0.436l-0.163-0.473l-0.182-0.376l-0.403-0.141
		l0.151-0.106l0.101-0.106l0.116-0.096l0.186-0.073l-0.151-0.511l-0.239-0.359l-0.314-0.266l-0.378-0.224l-0.17,0.32l-0.359-0.32
		l-0.321,0.295l-0.459,0.168l-1.044,0.235v-0.32l0.371-0.046l0.255-0.199l0.129-0.357l0.019-0.507l0.371,0.247l0.157,0.135
		l-0.025-0.22l0.031-0.112l0.101-0.039l0.151-0.01l-0.428-0.657l-0.771-0.928l-0.396-0.291l-0.491-0.362l-0.793,0.146l-0.739-0.728
		l-2.186-1.032l-0.793-0.654l-0.802-1.014l-0.786-0.662l-2.13-1.15l0.154-0.098l0.031-0.027v-0.056l0.075-0.2l-0.447-0.194
		l-0.192-0.54l-0.141-0.698l-0.274-0.665l0.714-0.398l0.777-0.882l0.626-1.068l0.535-1.954l0.462-0.741l0.094-0.62l-0.831-0.608
		l0.909-1.417l1.447-1.62l1.532-1.09l1.17,0.201h0.242l0.384-0.525l0.604-0.067l7.26,1.357l7.701,1.819l10.274,1.536l9.752,0.267
		l1.095-0.146l0.573-0.253l0.906-0.664l0.525-0.136l0.362-0.297l0.28-0.594l0.264-0.403l0.302,0.245l0.415-0.42l0.472-0.792
		l0.434-0.224l0.506,0.416l1.589,0.339l1.287,1.001l12.728,3.071l1.283,1.134l0.604,0.382l3.294,0.62l9.947-0.269l0.953-0.557
		l0.368-0.109l0.475,0.027l0.827,0.232l0.425,0.056l1.585-0.315l0.233,0.046l0.371,0.219l0.198,0.05l0.293-0.088l0.085-0.207
		l0.076-0.238l0.23-0.169l1.598-0.626l1.29-0.821l2.127-2.087l0.547-0.715l0.321-0.702l0.154-0.826l0.038-1.092l0.079-0.46
		l0.365-1.025l0.082-0.619l-0.176-0.285l-0.73-0.494l-0.129-0.421l0.415-0.66l0.834-0.314l1.774-0.113l0.214-0.218l0.623-0.964
		l0.217-0.222l0.396-0.092l5.813-2.272l8.22-5.5l4.706-2.32l1.403-1.12l0.378-0.227l3.662-1.232l1.073-0.65l0.639-1.288l2.513-2.899
		l0.186-0.265l0.585-1.144l1.302-0.373l2.117-0.107l0.072-0.327l0.315-0.11l0.406-0.24l0.079-0.358l0.11-0.24l0.208-0.105
		l0.179,0.116l0.349,0.495l0.132,0.093l0.679-0.333l0.859-0.964l0.572-0.504l2.665-1.413l0.45-0.323l0.522-0.26l0.56-0.059
		l0.579,0.287l0.447-0.81l0.896-0.652l1.048-0.226l0.906,0.464l0.623-0.072l2.366-0.874l0.579-0.308l0.576,0.059l1.092-0.089
		l1.12-0.26l0.661-0.42l0.428,0.232l2.724-0.701l1.384-0.638l1.784-1.205l6.087-2.062l6.144-3.227l1.406-0.085l2.841,0.521h4.105
		l0.878,0.152l1.941,0.728l8.261,0.834l0.698-0.258l1.095,0.427l5.027-0.427l12.668,1.804l4.414-1.294l1.438-0.125l0.62,0.174
		l1.095,0.586l1.343,0.457l5.118,0.307l2.016-0.231l2.02-0.615l0.639-0.36l1.46-1.164l1.397-0.847l1.151-1.444l0.893-1.756
		l0.239-1.536l0.541,0.195l1.107,0.203l0.491,0.314l0.094-0.326l0.164-0.072l0.233,0.03l0.302-0.017l0.277,0.619l0.415,0.445
		l0.271,0.362l-0.17,0.381v0.324l1.434,1.165l0.887,0.381l1.132-0.091l0.403-0.254l0.626-0.676l0.418-0.138l0.579,0.087l0.371,0.229
		l0.793,0.752v0.356l-2.076-0.256l-0.969,0.114l-0.805,0.656l-0.359,0.792l-0.333,1.143l-0.223,1.197l-0.035,0.968l0.252,0.799
		l1.047,1.94l1.161,1.537l2.076,1.782v0.355h-0.529l0.239,0.677l0.378,0.833l0.503,0.7l1.114,0.582l1.12,1.37l0.604,0.468l2.3,0.948
		l1.677,0.274l0.629,0.421l1.227,1.183l1.422,0.8l1.711,0.56l1.799,0.236l1.667-0.152l0.815-0.345l1.463-0.911l2.391-0.417
		l4.083-1.746l0.925-0.143l0.915-0.31l1.585-1.292l0.849-0.2v0.354l-0.167,0.318l-0.22,0.314l-0.302,0.266l-0.387,0.164l0.06,0.781
		l-0.73,1.607l0.142,0.857h0.286l0.082-1.242l0.368-1.133l0.525-0.927l0.56-0.62l0.406-0.341l0.192-0.057l2.328,2.168v-0.708h0.264
		l2.919,3.815l0.541,1.483v2.113l-0.132,0.513l-0.337,0.849l-0.06,0.246l-0.031,1.689l0.148,0.783l0.412,0.89l1.718,2.161l1,0.696
		l1.239,2.453l0.635,0.518l1.938,1.045l1.101,0.274l0.208,0.239l0.101,0.392l0.025,0.536l0.126,0.607l0.327,0.262l0.428,0.132
		l0.434,0.209l0.217,0.249l0.387,0.609l0.189,0.201l0.387,0.144l0.727,0.098l0.334,0.28l0.717,0.299l0.969-0.232l1.617-0.91
		l2.045-1.815l0.33-0.484l0.123-0.503l0.547-0.936l0.123-0.321l0.079-0.115l0.261-1.092l-0.076-0.069l0.51-0.453l0.529,0.05
		l0.642,0.247l0.834,0.155h3.338l3.039,0.798l5.728,2.896l1.176,1.023l0.642,1.634l0.075,2.263l0.227,0.886l0.645,0.361l0.815,0.188
		l1.478,0.909l0.764,0.334l4.945-0.063l1.387,0.384l0.893,0.835l0.428,0.244l0.812,0.261l0.906,0.09l0.673,0.207l0.931,1.071
		l0.661,0.507l1.585,0.509l0.145,0.286l0.906,0.989l0.774,0.294l1.545-0.169l0.613,0.19l0.227-0.279l0.541-0.211l0.29-0.211
		l0.283-0.415l0.503-1.365l0.459-0.841l0.576-0.825l0.658-0.7l0.686-0.468l0.337,0.835l0.642,0.48l0.739,0.004l0.657-0.589
		l0.264,0.349l0.997-0.169l0.05,3.212l0.68,0.876l1.991,0.986l0.529,0.415l0.4,0.511l0.676,1.202l1.507-0.665l1.815,0.25
		l4.659,1.562l2.284,0.389l1.551,0.55l0.878,0.01l1.708-0.473l0.736,0.162l1.683,1.501h0.786l1.472-0.462l1.447,0.423l0.988,0.098
		l0.44-0.36l2.926-0.16l0.598-0.414l1.419-1.41l0.51-0.302l1.249-0.387l0.472,0.038l0.239,0.215l0.598,0.848l0.271,0.302
		l0.381-0.208l0.746-0.008l0.409-0.098l0.271-0.225l0.327-0.356l0.396-0.325l0.456-0.144l0.783-0.925l0.142-0.3l0.179-0.131
		l0.859-0.306l2.702-0.573l0.639-0.417l0.62-0.542l0.739-0.254l4.417-0.04l3.114-0.711l0.343-0.215l0.978-0.833l0.456-0.104
		l1.271,0.104l0.727,0.246l1.189,1.018l0.868,0.134l0.651-0.225l1.051-0.678l0.78-0.144l0.453-0.159l2.076-1.24l0.233-0.221
		l0.139-0.209l0.223-0.18l0.462-0.127l2.425,0.589l0.55,0.561l0.982,1.304l2.299,2.027l1.469,0.85l1.532,0.3l0.777-0.248
		l0.786-0.388l0.768-0.108l1.048,0.759l0.434,0.048l0.846-0.062l0.346,0.119l2.303,1.846l0.686,0.329l0.742,0.156l0.626-0.46
		l2.438-0.846l0.944-0.094l2.221,2.087l1.117,0.762l1.557,0.298l0.648-0.11l1.151-0.481l0.89-0.212l1.387-0.537l0.897-0.606
		l1.793-0.5l6.332-4.2l1.346,0.599l1.139,0.127l1.092-0.317l1.198-0.759l1.46-1.277l0.522-0.152l1.199-0.144l0.588-0.207
		l0.478-0.315l2.293-3.09l2.702-2.033l0.44-0.169l0.585,0.1l1.655,0.602l0.975-0.157l1.46-1.029l0.629-0.251l0.812-0.113
		l0.896-0.307l0.868-0.452l0.72-0.531l1.526-1.611l0.793-0.586l0.978-0.228l1.004-0.065l0.701-0.23l3.643-2.991l0.978-0.358
		l0.831-0.459l0.415-0.145l1.349-0.182l0.5-0.17l0.717-0.566l0.588-0.904l0.393-1.097l0.148-1.146l0.403-0.252l2.262-2.022
		l0.528-0.97l4.117,1.74l0.491,0.093l1.155-0.091l0.971-0.445l0.296,0.003l0.052,0.203l-0.044,0.387L650,176.376l0.164,0.325
		l0.451,0.184l1.131,0.141l0.511,0.171l1.538,1.436l0.471,0.2l0.371-0.216l1.55-1.33l1.211-1.741l0.531-0.411l1.554-0.624
		l2.769,1.059l1.366-0.435l0.559-0.264l0.543-0.077l0.543,0.091l0.551,0.251l1.214-0.349l0.587,0.019l0.551,0.331l0.643,0.608
		l0.927,0.077l1.902-0.109l6.78,2.655l0.509-0.026l0.465-0.024l0.803-0.533l1.159-1.757l0.839-0.891l0.388-0.832l0.364-2.103
		l0.396-0.868l0.775-0.601l0.055-0.018l0.165-0.055l0.759-0.253l1.95-0.166l5.409,0.467l0.735,0.355l-0.3,0.483l-0.128,0.521
		l-0.08,0.513l-0.16,0.459l-0.312,0.376l-0.763,0.648l-0.324,0.512l0.991,0.592l0.735,0.811l0.727,0.24l0.951-1.098l0.519-0.331
		l0.276,0.336l0.216,0.643l0.32,0.581l0.296,0.176l1.139,0.386l0.236,0.221l0.156,0.234l0.188,0.203l0.344,0.136l0.3,0.344
		l1.155,2.182l0.559,0.618l2.845,1.948l1.866,1.644l1.193,0.569l1.131,0.149l0.052,0.266l-0.521,0.744l-0.565,0.494l-2.091,1.076
		l1.051,0.335l0.851-0.096l0.761,0.093l0.781,0.893l0.927,2.283l0.557,0.406l3.556-0.998l1.127-0.08l1.219,0.329l1.055,0.618
		l1.045,0.974l0.549,1.212L717.175,195.044z M120.975,150.321l0.535,2.495l0.013,0.56l0.192,0.133l0.248,0.33l0.164,0.402
		l-0.063,0.359l-0.352,0.224l-0.393-0.076l-0.72-0.308l-0.635,0.027l-0.503,0.281l-0.327,0.706l-0.116,1.288l0.23,1.385l0.572,0.945
		l0.698,0.802l0.632,0.941l0.733,2.332l0.447,0.691l0.708,0.655l0.324,0.386l0.186,0.539l0.098,0.093l0.101,0.147l0.047,0.316
		l-0.098,0.194l-0.214-0.017l-0.189,0.03l-0.028,0.324l0.286,0.808l0.535,0.943l0.623,0.783l1.104,0.652l0.566,0.753l0.821,1.354
		l2.127,2.024l5.857,3.691l8.371,3.605l11.891,5.711l3.832,0.868l0.204,0.08l0.088,0.119l0.104,0.107l0.249,0.046l0.299-0.109
		l0.242-0.483l0.267-0.107l0.909,0.138l0.975,0.377l0.591,0.571l-0.362,1.28l-0.507,0.951l-0.673,0.882l-0.661,0.389l-0.443,0.146
		l0.098,0.34l0.315,0.401l0.23,0.426l0.245,0.363l0.076,0.077l0.192,0.142l-0.076,0.294l-0.164,0.251l-0.085,0.012l-0.141,1.013
		l-0.274,0.914l-0.362,0.791l-0.412,0.64l-0.318,0.259l-0.686,0.221l-0.318,0.238l-0.302,0.45l-0.057,0.271l0.019,0.213l0.041,0.234
		l0.113,0.175l-0.006,0.279l-0.227,0.286l-0.176,0.05l-0.831-0.069l-0.333-0.288l-0.22-0.044l-0.22,0.135l-0.34,0.465l-0.126,0.1
		l-0.421,0.113l-0.705,0.477l-1.535,0.321l-0.371,0.14l-0.22,0.173l-0.164,0.217l-0.242,0.192l-0.453,0.119l-0.944-0.048
		l-0.45-0.158l-0.192-0.319l-0.418-0.381l-0.963-0.044l-4.64,0.602l-1.161-0.49l0.321-1.613l-0.453-0.482l-0.271-0.163l-0.359-0.083
		l0.271-1.163l-0.39-1.03l-0.793-0.72l-0.931-0.238l0.195,0.745l0.837,0.87l0.308,0.865l0.013,0.517l-0.097,0.738l-0.261,0.713
		l-0.472,0.45l-1.117-0.158l-2.001-2.059l-0.982-0.515l-1.28-0.225l-2.683-0.987l-1.34-0.221h-1.318l-0.315-0.119l-0.421-0.501
		l-0.321-0.113l-1.438,0.338l-0.689,0.044l-0.267-0.161l-0.365-0.221l-1.85,0.714l-0.286,0.177l-0.377-0.002l-2.139,0.891
		l-0.573,0.146l-0.661,0.352l-0.607,0.444l-0.415,0.429l-0.859,1.403l-0.255,0.665l0.057,0.411l-0.695,0.215l-3.114-0.377
		l-0.579-0.39l-0.547-0.463l-0.629-0.386l-1.513-0.427l-1.482-0.085l-8.258,1.2l-1.199,0.713l-0.83,1.712l-0.972,4.098l-0.84,1.555
		l-3.633,3.59l-1.658,2.929l-3.467,2.57l-0.214,0.245l-0.403,0.609l-0.176,0.191l-0.415,0.141l-0.934,0.126l-1.066,0.696
		l-1.803-0.035l-0.815,0.112l-0.654,0.543l-1.126,1.591l-0.453,0.331l-1.013,0.141l-0.529,0.075l-1.479,0.449l-2.24,1.403
		l-0.582,0.552l-0.679,0.465l-2.381,0.354l-0.724,0.443l-1.252,1.104l-0.532,0.221l-0.434,0.3l-0.349,1.513l-0.406,0.616
		l-1.249,0.686l-0.258,0.384l-0.075,0.851l-0.239,0.822l-0.585,0.679l-2.12,1.956l-0.271,0.196l-1.132,0.28l-0.51,0.417
		l-0.818,0.839l-0.009,0.192l-0.192,0.19l-1.013,1.226l-0.701,0.575l-0.884,0.55l-0.918,0.41l-0.802,0.161l-0.525,0.424l0.126,0.933
		l0.484,0.949l0.56,0.459l-1.85,1.759l-0.579,0.438l-1.541,0.882l-1.167,1.102l-0.475,0.298l-2.051,0.715l-0.409,0.043l-0.368-0.275
		l0.097-0.6l0.308-0.604l0.227-0.275l0.632-0.485l0.434-1.065l0.302-1.068l0.211-0.488l1.743-2.449l0.472-1.819l-0.195-1.385
		l-0.736-1.082l-1.151-0.899l0.403-0.334l0.126-0.338l-0.17-0.264l-0.491-0.103l-0.183-0.231l0.352-0.483l0.506-0.435l0.255-0.076
		l0.44-0.404l1.982-0.77l0.761-0.025l0.579-1.022l1.919-1.245l1.818-1.523l2.278-0.847l1.708-1.472l1.104-0.709l1.202-0.557
		l1.057-0.25l1.812,0.23l0.541-0.23l0.522-0.565l0.812-1.275l0.56-0.625l0.906,0.455l1.239-0.412l1.098-0.917l0.475-1.071
		l-1.183-2.524l-0.308-0.46l-0.381,0.062l-2.564,0.41l-0.906,0.446l-0.513,0.158h-2.639l-1.051,0.33l-2.954,1.753l-1.104-0.74
		l-0.613-0.23l-0.639-0.073l-0.529,0.197l-0.607,0.354l-0.601,0.207l-1.032-0.524l-0.654,0.073l-2.07,0.605l-7.16-0.044
		l-1.007-0.174l-0.557-0.325l-0.324-0.779l-0.242-0.933l-0.33-0.773l0.277-0.778l-0.107-1.114l-0.387-1.118l-0.576-0.787
		l0.296-0.081l0.12-0.093l1.455,0.149l1.187-0.583l0.859-1.028l0.328-1.361l0.591-0.939l2.077-1.8l-0.268-0.56l0.028-0.338
		l0.112-0.174l0.384-0.182l-0.136-0.045l-0.1-0.013l-0.052-0.082l0.028-0.243l0.348-0.095l0.168-0.116l0.04-0.267l-0.004-0.536
		l0.192,0.486l0.048,0.211h0.264l0.276-0.296l0.228-0.465l0.316-1.018h0.236l0.136,0.288l0.2,0.233l0.272,0.156l0.328,0.055
		l0.515-0.148l-0.028-0.331l-0.232-0.354l-0.112-0.217l0.467-0.479l1.103-0.524l0.543-0.426l0.388-0.518l-0.112-0.177l-0.376-0.183
		l-0.403-0.521l-0.112-0.452l0.108-0.328l0.336-0.201l0.579-0.069l0.328-0.273l0.268-0.601l-0.032-0.598l-1.027-0.503l-0.332-0.543
		l-0.539-1.155l-0.104-0.742l0.659-1.331l-0.276-0.233l-0.579-0.167v-0.419l0.723-1.135l-0.459-0.889l-0.12-0.91l0.172-0.996
		l0.408-1.126l-0.599-0.89l0.431-0.406l2.449-0.25l0.659-0.346l1.019-0.92l1.079-0.699l0.216-0.245l0.096-0.229l0.168-0.167
		l0.408-0.064l1.965-2.107l0.404,0.516l0.735,0.42l0.831,0.221l0.719-0.072l0.499-0.497l0.352-0.883l0.188-1.078l-0.008-1.089
		l-0.164-1.039l-0.627-2.516l-0.192-1.92l-0.188-0.894l-0.411-0.742l0.24-0.512l-0.148-1.34l0.172-0.614l-0.144-0.294l-0.088-0.346
		l-0.04-0.383l0.008-0.387l-0.735,1.109l-0.383-0.401l-1.754-0.914l-2.193-1.66l0.34-0.652l0.116-0.755l-0.611-0.158l-0.679-0.294
		l-1.486-0.381l-1.043-0.974l-0.687-0.221l-1.015,0.096l-0.392-0.551l-0.268-1.04l0.144-1.125l0.547-1.248l1.598-1.404l3.975,0.173
		l1.846-0.568l0.519-0.713l0.32-0.949l0.164-0.943l0.033-0.374l0.027-0.315l0.044-0.272l0.164-0.456l0.032-0.291l-0.116-0.177
		l-0.467-0.295l-0.068-0.204l0.16-0.34l0.24-0.243l0.284-0.214l1.115-1.199l0.627-0.45l0.691-0.085l3.633,0.61l0.741-0.086
		l0.396-0.287l0.835-0.846l0.463-0.138l0.362,0.181l0.715,0.627l0.425,0.115l0.32-0.162l0.394-0.335l0.469-0.398l0.415-0.262
		l0.424-0.012l0.364,0.136l0.355,0.005l0.416-0.419l0.401-0.172l0.725,0.118l0.335-0.089l0.432-0.517l0.316-0.628l0.346-0.534
		l0.537-0.227l0.747-0.518l0.859-1.618l0.925-0.471l0.052,0.001l0.681,0.011l0.703,0.223l0.655,0.381l0.595,0.483l0.431-0.039
		l0.865,0.039l0.937,0.248l0.168-0.067l0.032-0.183l0.1-0.208l0.859-1.159l0.487-0.39l0.843-0.12l1.358,0.322l1.235,0.738
		l1.051,1.049l1.638,2.536l0.851,1.008l0.927,0.812l2.84,1.605l0.585,0.502l0.917,1.305l0.511,0.358l0.631-0.274l-0.535-0.231
		l0.092-0.115l0.24-0.125l0.124-0.113l-0.106-0.072l-0.118-0.066l-0.108-0.078l-0.052-0.124l0.829-0.293l0.394-0.262l0.316-0.416
		l0.292,0.223l0.204-0.001l0.136-0.254l0.094-0.518l3.006-0.786l1.426,0.052l2.018,1.116l0.527,0.179l0.503-0.02l0.483-0.193
		l0.114-0.316l-0.601-0.373l0.084-0.512l0.002-0.704l0.118-0.523l0.152-0.063l0.156-0.023l0.154,0.023l0.158,0.063l0.735-0.118
		l0.355,0.016l0.955,0.246l1.023,0.503l0.527,0.164l1.89-0.22l0.583,0.188L120.975,150.321z M45.357,259.529l0.642-0.356l0.227,0.49
		l-0.05,1.759l-0.261,0.76l-0.613-0.059l-1.258-0.872l-1.139-0.54l-0.519-0.399l-0.217-0.608l0.308-0.406l0.705-0.149l1.384,0.008
		l0.239,0.049h0.189l0.17,0.068L45.357,259.529z M43.489,242.928v1.037l-0.849,0.463l-0.868,0.311l-2.605,0.405l-1.705,0.753
		l-3.492,0.541l-0.799-0.057l-0.931-0.329l-0.459-0.259l-0.192-0.271L30,244.971v-0.315l0.887-1.438l1.268-1.334l1.548-0.988
		l2.624-0.501l3.341-1.248l0.488-0.078l0.475,0.06l0.248,0.235l0.208,0.373l0.302,0.332l0.541,0.099v0.344l-0.101,0.422
		l-0.076,0.645l0.01,0.64l0.167,0.397l-0.34,0.79l0.381,0.198l0.698-0.214l0.576-0.461H43.489z M107.09,218.226l0.61-0.168
		l1.123,0.174l0.981,0.529l0.189,0.889l-0.714,0.535l-1.46,0.23l-0.73,0.242l-1.277,1.137l-0.764,0.319l-0.859-0.381l-0.425-0.019
		L103,221.388l-0.61-0.557l0.113-1.088l-0.264-0.373l-0.22-0.429l0.179-0.56l0.302-0.348l0.274-0.174l0.217,0.135l0.116,0.549
		l0.963-0.487l0.997-0.346l1.01-0.01L107.09,218.226z M106.612,228.06l0.305-0.027l0.151,0.147l-0.016,0.409l-0.422,0.083
		l-0.547-0.302l-0.642-0.151l-0.717-0.064l-0.554-0.382l-0.082-0.56l0.422-0.372l0.321-0.643l0.315-0.453l1.284,0.575l0.063,0.35
		l-0.208,0.453l-0.063,0.587L106.612,228.06z"/>
</g>
<g id="Copyright">
	<text transform="matrix(1 0 0 1 681.6426 577.5916)" class="st1 st2">© Vemaps.com</text>
</g>
</svg>
