<?xml version="1.0" encoding="utf-8"?>
<!-- Generator: Adobe Illustrator 23.0.1, SVG Export Plug-In . SVG Version: 6.00 Build 0)  -->
<svg version="1.1" xmlns="http://www.w3.org/2000/svg" xmlns:xlink="http://www.w3.org/1999/xlink" x="0px" y="0px"
	 viewBox="0 0 800 600" style="enable-background:new 0 0 800 600;" xml:space="preserve">
<style type="text/css">
	.st0{fill:#808080;}
	.st1{font-family:'Roboto-Regular';}
	.st2{font-size:14px;}
</style>
<g id="Trinidad_and_Tobago">
	<path class="st0" d="M490.444,299.133l-7.538-1.376l-4.8,7.906l-2.177,12.336l0.445,11.848l7.868,25.069l1.633,12.214
		l-11.727,10.116l0.247,11.574l1.385,7.514l4.173,22.725l2.078,5.634l2.705,5.232l7.257,10.798l15.059,10.68l-11.727,12.674
		l-5.097,21.305l-0.214,24.067l2.969,20.946l-8.709-1.91l-9.764,2.982l-9.22,5.697l-7.175,6.149l-7.158,4.808l-9.203,3.451
		l-18.226,4.389l-4.173,0.402l-5.674,0.57l-24.873-4.054l-8.923,0.787l-25.813,5.109l-31.932-2.814l-34.703,2.814l-0.429-0.084
		l-16.197-2.731l-3.794,0.938l-11.546,4.657l-4.536,0.469l-7.967,1.91l-4.107,0.469l-5.723-0.888l-4.024-2.127l-3.695-2.747
		l-4.668-2.68l-7.538-2.245l-8.313-0.972l-35.115-0.067l-9.616,1.139l-7.356,3.552l-5.938,4.64l-7.884,4.707l-8.296,3.183
		L123.622,570l-8.709-5.93l3.959-5.578l13.063-6.885l1.93-1.541l4.453-1.374l13.145-2.479l2.672-2.597l4.222-6.182l6.334-4.825
		l6.779-3.318l31.256-9.35l1.897-0.922l15.537-7.474l12.057-10.725l0.214-0.184l-0.346-12.419l5.146-2.715l6.136-0.1l20.947,3.62
		l15.949-0.587l1.204-0.05l4.552-0.168l4.585-1.793l5.41-4.392l4.899-5.598l3.117-5.331l1.534-8.231l-0.511-3.101l-0.66-3.822
		l-2.045-6.673l-1.089-7.729l-0.742-2.23l-3.546-2.984l-1.254-1.811l-0.165-2.247l1.105-0.604l1.385-0.285l0.693-1.207l-0.396-3.203
		l-2.359-8.066l-1.517-2.817l-0.891-5.937l2.309-8.134l5.377-12.781l2.705-15.668l0.066-16.206l-4.107-15.134l-9.715-12.384
		l2.985-2.534l-16.18-11.076l-8.214-3.776l-11.579-5.304l-8.676-1.846l-20.667-1.41l-2.573-0.806l-1.996-2.216l-2.557-4.801
		l21.062-14.605l5.476-2.3l16.609,1.41l18.654-4.382l10.144,0.134l1.765,0.017l5.08-2.334l3.101-4.13l2.078-1.696l2.078,5.087h3.018
		l0.115-1.377l-0.115-4.264h2.491l0.28,2.082l0.676,1.091l0.957,0.89l1.121,1.578l-3.035,3.072l3.365-0.806l2.375-1.914l1.583-1.964
		l0.99-0.957l7.818-0.252l0.759,0.252l3.332-3.039l7.67-9.033l2.573-2.25l5.657-0.47l1.419-0.117l21.475,2.619l47.04,0.202
		l3.447-2.636l6.779-5.172l23.636-2.872l7.307-3.107l52.566-5.911l16.84,3.359l-17.22,30.392L490.444,299.133z M681.672,30
		l3.018,3.062l0.396,10.261l-1.402,12.682l-3.035,8.947l-4.519-1.076h-2.507l-2.491,6.206l-3.563,0.689l-4.041-1.379l-3.991,0.101
		l-0.792,1.816l-6.07,8.139l-1.435,0.32l-9.401,5.835l-2.952,2.388l-4.486,2.724l-5.13-0.05l-4.899-1.009l-3.827-0.151
		l-24.51,12.408l-7.191,1.715l-10.919,9.482l-6.845,2.774l-2.87-6.607l-6.086,3.076l-5.641-0.958l-3.315-4.068l0.94-6.271
		l3.431-1.732l5.624-0.908l5.245-2.118l2.293-5.38l4.024-5.347l34.307-22.601l7.323-7.266l4.189-3.128l5.146-2.674l13.294-4.928
		l11.447-2.422l4.767-2.725l4.932-0.925l6.449,3.819l2.985-0.37l7.719-9.185L681.672,30z"/>
</g>
<g id="Copyright">
	<text transform="matrix(1 0 0 1 681.6426 577.5916)" class="st1 st2">© Vemaps.com</text>
</g>
</svg>
