<?xml version="1.0" encoding="utf-8"?>
<!-- Generator: Adobe Illustrator 23.0.1, SVG Export Plug-In . SVG Version: 6.00 Build 0)  -->
<svg version="1.1" xmlns="http://www.w3.org/2000/svg" xmlns:xlink="http://www.w3.org/1999/xlink" x="0px" y="0px"
	 viewBox="0 0 800 600" style="enable-background:new 0 0 800 600;" xml:space="preserve">
<style type="text/css">
	.st0{fill:#808080;}
	.st1{font-family:'Roboto-Regular';}
	.st2{font-size:14px;}
</style>
<g id="Saint_Vincent_and_the_Grenadines">
	<path class="st0" d="M464.734,263.633l-9.473,9.226l-11.975,20.439l-10.576,7.401h4.925l-4.925,5.054l-3.391-4.971l-5.248-3.121
		l-6.701-1.353l-7.67,0.166v-5.054l9.85,3.093l15.016-3.01l0.027-5.468l-4.386-4.999l-2.018-3.48l5.49-5.359l18.407-11.933
		l7.697-6.354l0.942,2.624l0.296,2.458l0.915,2.348L464.734,263.633z M482.361,189.477l-11.814,9.202l-16.523-7.931l-40.447-28.743
		l-5.302-19.957l1.776-23.111l9.096-18.027l-1.722-2.571l-3.202-6.719l17.842-2.903l7.643-15.348l4.548-19.581l8.558-15.71
		l8.531-5.532l7.939-2.324L476.387,30l16.631,2.711l4.763,1.826l2.637,4.564l4.144,9.93l6.512,30.256l-0.323,41.641l-8.988,40.802
		L482.361,189.477z M301.115,554.586l7.966,5.019l1.803,5.846l-4.037,2.73l-6.943,1.82l-8.396-0.634l-2.583-3.64l2.745-3.474
		l0.673-2.84l-1.399-2.482l0.807-1.792l4.79-1.93L301.115,554.586z M381.795,469.245l2.045,2.538l1.292,6.207l-3.525,4.717
		l-3.848,3.89l-1.884,5.931l-3.66,3.972l-6.755,0.359l-5.947-2.317l1.615-2.069l7.535-1.655l3.498-4.469l-1.238-6.014l0.323-6.621
		l5.974-4.028L381.795,469.245z M466.215,378.064l5.678-10.352l5.436,1.159l-5.705,13.416l-2.664,3.809l-2.126,0.359
		L466.215,378.064z"/>
</g>
<g id="Copyright">
	<text transform="matrix(1 0 0 1 681.6426 577.5916)" class="st1 st2">© Vemaps.com</text>
</g>
</svg>
