<?xml version="1.0" encoding="utf-8"?>
<!-- Generator: Adobe Illustrator 23.0.1, SVG Export Plug-In . SVG Version: 6.00 Build 0)  -->
<svg version="1.1" xmlns="http://www.w3.org/2000/svg" xmlns:xlink="http://www.w3.org/1999/xlink" x="0px" y="0px"
	 viewBox="0 0 800 600" style="enable-background:new 0 0 800 600;" xml:space="preserve">
<style type="text/css">
	.st0{fill:#808080;}
	.st1{font-family:'Roboto-Regular';}
	.st2{font-size:14px;}
</style>
<g id="Vanuatu">
	<path class="st0" d="M517.264,561.395l1.451,1.128l1.124,0.661l0.913,0.748l0.726,1.409l-0.755,1.927l-0.492,0.929l-0.72,0.755
		l-0.796,0.38l-1.609,0.324L516.527,570l-0.691-0.667l-0.907-0.418l-1.844-0.48l-2.189-1.048l-0.995-0.773l-0.117-1.771l0.509-1.933
		l0.872-1.284l0.925-0.274l1.838-0.324l1.955-0.075L517.264,561.395z M487.955,511.865l2.329,1.26l1.112,0.82l1.516,0.565
		l-0.439,0.938l-2.552,3.236l-0.492,3.355l-0.55,1.672l-0.679,0.708l-1.393-0.143l-3.067-0.895l-1.188-0.578l-2.967-3.541
		l-0.737-0.578l-1.44-0.074l-0.562-0.224l-0.234-0.466l-0.222-0.857l-0.509-0.609l-0.509-0.397l-0.228-0.261l-0.181-0.596
		l-2.417-3.539l-0.299-0.795l-0.082-1.142l0.094-1.955l0.392-1.855l0.802-0.825l0.562-0.416v-0.98l-0.304-1.768l0.293-0.899
		l0.334-0.664l0.509-0.527l0.79-0.515l1.44-0.409l2.774-0.037l1.188-0.595l1.171,1.023l0.064,1.03l-0.421,1.265l-0.281,1.675
		l0.983,5.728l0.632,1.099l1.51,0.633l1.785,0.472L487.955,511.865z M481.038,469.367l-0.632,1.943l-1.434,0.947l-1.504,0.724
		l-0.854,1.287l-1.451-1.102l-6.356-3.465l-0.866-0.229l-0.878,0.39l-0.585-0.037l-2.253-0.656l-0.638-0.322l-0.749-0.711
		l-1.744-1.268l-1.206-0.594l-3.968-1.336l-0.129-1.286l1.182-3.389l0.018-1.014l-0.263-0.872l-0.445-0.785l-0.597-0.754
		l-0.129-0.556l0.468-5.469l0.439-1.588l0.954-1.495l2.177-1.581l2.833-0.828l2.92,0.086l2.44,1.285l0.726,1.211l0.293,1.501v2.749
		l0.404,1.384l1.053,0.643l2.914,0.334l-0.029-0.105l0.345-0.179l0.497-0.161l0.386-0.074l0.293,0.148l-0.047,0.68l0.626,0.365
		l0.392,0.501l0.339,0.618l0.146,0.532l-0.843,0.056l-4.559,1.243l1.744,2.151l0.217,0.73l0.474,0.142l2.23,1.15l0.737,0.55
		l2.177,1.138l1.527,1.355l0.901,1.738L481.038,469.367z M424.44,375.146l0.732,0.16l0.726-0.117l0.615-0.258l0.386-0.301
		l0.123,1.29l-2.142,4.375l-0.579,1.918l-0.533,0.91l-0.96,0.4l-1.849,0.387l-0.152,0.172l-0.199,0.357l-0.339,0.344l-0.533,0.16
		l-0.369-0.166l-0.457-0.35l-0.351-0.35l-0.059-0.166l-5.103,1.242l-0.55,0.012l-1.258-0.738l-0.281-0.566l-0.158-0.738
		l-0.316-0.221l-0.773,1.008l-0.059-0.627l-0.304-0.762l-0.076-0.627l-0.316,0.111l-0.041,0.037v0.086l-0.135,0.234l-0.591-0.172
		l-0.562,0.025l-0.462,0.246l-0.351,0.467l0.451-2.63h-0.451l-0.737,0.959l-1.153,0.504l-2.569,0.602v-0.467l1.247-0.947
		l1.598-0.492l1.282-0.701l0.334-1.573l-0.597,0.381l-0.492,0.037l-0.316-0.356l-0.228-1.597l-0.316-0.246l-0.474-0.061
		l-0.562-0.209l-1.159-0.639l-0.954-0.135l-0.878,0.24l-0.942,0.534l-0.509,0.553l-0.971,1.604l-0.486,0.461l-0.79,0.172
		l-0.48-0.301l-0.211-0.768l-1.012-0.651l0.217-0.934l1.785-3.747l0.843-0.921l1.855-1.339l0.743-0.835l2.862-4.273l1.879-1.571
		l2.177-0.381l0.369,0.467l0.258,0.786l0.357,0.479l1.258-0.773l4.957-0.835l1.159,0.209l1.018,0.7l0.17,0.466l0.246,1.363
		l0.293,0.282l0.609,0.117l0.421,0.325l0.714,1.105l0.585,1.4l0.398,1.48l0.667,1.198l1.34,0.553l0.439,0.749l0.574,1.425
		L424.44,375.146z M399.69,366.855l0.176-2.32l2.236-2.148l2.639-0.945l1.422,1.289l-0.913,0.319l-1.604,0.921l-0.96,0.258
		l-1.674,1.142l-0.749,0.651L399.69,366.855z M408.129,356.766l0.333-2.11l0.802-0.368l0.971,0.791l0.843,1.429l0.597,2.65
		l-1.135,0.38l-1.592-1.068L408.129,356.766z M413.045,328.135l-0.386,0.465l-0.281,0.502l-0.386,0.404l-2.388,0.606l-0.737,0.074
		l-0.737-0.374l0.363-0.857l0.843-0.894l0.708-0.49l2.803-1.389l0.983-0.018l1.662,0.428l-0.603,0.49L413.045,328.135z
		 M425.136,318.845l-1.17-0.098l-0.737-0.33l-0.211-0.636l0.375-1.034l-0.076-1.596l1.352-1.156l1.844-0.165l1.34,1.376l-1.92,3.187
		L425.136,318.845z M398.73,309.096l-0.913-0.569l-2.119-2.085l-0.41-0.703l0.164-2.072l-0.164-0.77l-1.135-0.978l-0.579-0.691
		l0.018-0.642l0.304-0.898l0.135-2.78l0.316-1.185l0.457-0.544l0.457-0.366l0.38-0.507l0.146-0.94l-0.035-0.721l-0.105-0.507
		l-0.357-1.13l0.708,0.464l0.439-0.049l0.439-0.256l0.65-0.159l0.702,0.177l0.351,0.366l0.193,0.366l0.228,0.165l0.503,0.641
		l1.253,2.822l0.72,0.641l0.141,0.531l0.17,1.173l0.316,1.24l0.603,0.684l0.562-0.073l1.188-0.77l0.708-0.171l0.626,0.116
		l0.568,0.275l0.474,0.33l0.334,0.293l0.755,1.137l0.468,1.161l0.638,0.917l1.305,0.379l0.234,0.403l0.304,0.88l0.679,0.88
		l1.288,0.391l3.81-0.134l1.65,0.569l1.194,1.669l-0.948,0.428l0.176,1.021l0.427,1.18l-0.146,0.966l-0.755-0.342l-0.72,0.342
		l-3.81-2.177l-1.171-1.247l-1.182-0.575l-1.393-0.44l-1.083-0.171l-2.991,0.648l-2.13,1.259l-2.095,0.813L398.73,309.096z
		 M408.621,288.508l-0.983-0.287l-0.597-0.842l-0.878-1.996l2.089-0.427l0.919-0.03l0.872,0.458l0.849,1.221l0.012,1.135
		l-0.784,0.739L408.621,288.508z M400.246,283.893l0.685-2.813l0.825-0.622l1.931-0.189l-0.667,1.123l-0.064,2.612l-0.503,1.123
		l-1.264,0.769l-1.159-0.012l-0.503-0.696L400.246,283.893z M398.034,274.125l-0.989,0.256l-1.047,0.494l-1.013,0.305l-0.901-0.342
		l-0.831-0.714l-0.96-0.592l-0.966-0.256l-0.907,0.293l-1.902-1.348l-0.966-0.177l-1.053,0.488l-0.691-0.89l-2.388-1.464
		l-1.135-0.939l-1.036-0.622l-1.247-0.512l-0.773-0.646l0.398-1.055l-0.977-0.878l0.93-0.993l1.768-0.817l2.107-0.5l1.065-0.743
		l0.702-0.165h3.195l1.498-0.774l2.692-2.754l0.983-0.603l0.351-0.439l1.112-2.942l0.644-0.304l1.563-0.408l1.422,1.572l1.141,2.485
		l1.405,4.68l0.281,2.304l1.364,1.384l5.15,2.749l0.527,0.64l0.088,1.11l-0.544,0.902l-2.446,1.927L398.034,274.125z
		 M371.435,279.499l0.737-0.037l0.562,0.927l0.474,1.196l0.486,0.775l-1.697,1.751l-0.562,0.244l-0.931,0.201l-0.439,0.531
		l-0.363,0.732l-0.749,0.842l-0.456,0.708l0.059,0.635l-0.035,0.562l-0.819,0.44l-1.165,0.012l-0.509-0.623l-0.281-0.855
		l-0.492-0.672l-0.667-0.189l-1.896-0.324l-0.386-0.159l-0.445-0.672l-1.03-0.012l-1.089,0.195l-0.65-0.055l-1.364-0.555
		l-1.592,0.592l-1.434,1.026l-0.843,0.763l0.486,0.446l0.187,0.287l0.258,0.171l0.644,0.122l-0.702,0.94l-0.854,0.348l-1.885,0.25
		l-1.522,1.526l-0.421-0.086l-0.492-0.366l-0.386-0.006l-0.164,0.971h-0.451l-0.591-0.769l-1.972-0.684l-0.878-1.722l-0.966-0.8
		l-0.866-1.062l-0.17-1.666h0.486l0.287,0.494l0.451,0.433l0.568,0.342l0.661,0.22l-0.187-1.196l-0.421-1.501l-0.62-1.428
		l-1.791-2.398l-0.31-0.811l-0.105-1.11l0.053-1.379l-0.053-0.415l-0.334-0.476l-0.474-0.256l-0.451-0.134l-0.217-0.11l-0.217-1.61
		l0.076-4.598l0.369-0.957l-0.761-3.621l-0.047-0.439l0.047-1.335l-0.164-0.573l-0.328-0.177l-0.339-0.055l-0.152-0.238l-0.38-1.316
		l-2.569-4.052l-1.147,0.694l-0.375,0.329l-0.439-0.554l-1.159,1.407l-3.307,2.212l-1.709-1.554l-0.96-0.39l-0.767,0.408
		l-0.486-0.762l-0.176-0.737l-0.094-0.761l-0.228-0.804l-0.556-0.755l-0.638-0.53l-0.544-0.603l-0.234-0.968l0.304-1.772
		l2.159-4.146l-0.31-4.937l0.064-0.962l0.369-0.609l0.117-0.572l0.252-0.414l0.737-0.17l2.206-1.576l7.901,3.109l-0.094,2.629
		l4.307,5.528l-1.264,2.612l0.925,0.365l0.749,0.518l0.281,0.725l-0.48,0.95l0.638,0.542l0.626,0.694l0.667,0.597l1.428,0.487
		l1.1,1.023l0.743,0.238l0.246-0.292l-0.111-0.676l-0.386-1.316l0.304-0.122l0.679,0.78l1.024,1.627l-0.07,0.664l-0.556,0.829
		l0.094,0.591l1.621,0.768l0.386,0.256h0.439l0.228-0.408l0.217-0.213l0.246-0.152l0.293-0.25l0.199,0.859l0.31,0.841l0.421,0.78
		l0.544,0.634l0.825,0.536l1.668,0.482l0.948,0.475l1.615,1.542l0.93,1.317l1.024,0.543l1.919-0.805l0.673,0.366l0.263,0.104v0.555
		l-0.48,1.079l1.288,1.439l3.113,2.561l1.838-0.329l0.983,1.689l0.615,3.703l-1.352,2.489l-0.141,1.379l1.1,0.83l0.082-1.446
		l0.293-0.952l0.509-0.714L371.435,279.499z M327.799,229.481l-1.428-0.036l-0.995-0.486l-2.002-1.508l-1.065-0.426l-2.013-0.535
		l-0.884-0.572l-1.211-2.042l0.246-1.988l1.387-1.495l2.3-0.602l5.092,0.632l2.575,0.863l0.234,1.331l-0.854,2.292l0.515,2.164
		l0.117,1.672L327.799,229.481z M324.323,213.631l1.369-0.559l0.989,0.012l0.181,0.279l-1.024,0.267v0.51l0.737,0.201l0.281,0.401
		l-0.111,0.492l-0.416,0.486l1.656,0.899l0.082,1.294l-1.053,0.833l-1.668-0.486l-0.24,0.304l-0.234,0.109l-0.55,0.109l-1.048-0.158
		l-0.755-0.273l-1.639-1.1L324.323,213.631z M398.279,212.052l0.486,0.68l0.456,0.194l0.351,0.364l0.14,1.13l-0.562,4.581
		l0.111,1.252l0.983,2.364v2.28l0.211,1.039l1.685,4.81l0.562,3.838l0.345,1.101l0.854,1.71l0.275,1.32l0.181,2.951l-0.187,2.611
		l-0.925,1.99l-2.019,1.132l-1.621,0.116l-0.855-0.517l-0.351-1.077l-0.263-3.013l-1.282-4.521l-0.79-5.736l-1.721-4.19
		l-0.638-2.651l-0.187-2.936l0.351-3.093l1.756-5.833l0.404-5.964l1.58-0.128l0.456,3.462L398.279,212.052z M380.564,202.652
		l-0.234,1.372l-0.597,0.996l-4.77,3.965l-1.656,0.601l-7.509-0.036l-1.527-0.498l-2.458-1.239l-0.421-0.838l0.685-1.287
		l8.779-8.394l1.563-0.516l1.217-0.206l3.488-1.371l6.133-1.056l1.838,0.303l0.059,0.728l-1.65,1.602l-0.936,1.135l-0.96,1.529
		l-0.743,1.669L380.564,202.652z M321.865,170.744l-1.592-1.787l-0.334-0.8l1.27,0.37l1.849,1.448l1.264,0.218l-0.632,0.697
		l-0.644,0.303l-0.62-0.055L321.865,170.744z M391.853,171.992l0.123-0.582l0.193-0.376l-0.029-0.406l-0.515-0.672l-0.199-0.709
		l0.258-0.902l0.55-0.787l0.644-0.376l0.878,0.521l0.773,1.308l0.556,1.472l0.205,1l0.117,1.721l0.872,4.151l0.029,0.764
		l-0.099,1.564l0.07,0.764l0.849,2.431l0.135,0.849v2.595l0.228,0.643l1.007,1.201l0.234,0.655l-0.222,5.089l0.386,1.086
		l-0.129,1.408l-0.486,2.112l-0.064,2.173l-0.427,2.209l-0.931-0.358h-0.772l-1.738,0.358l0.415-1.736l-0.105-1.863l-0.837-3.538
		l0.486-2.585l-0.029-7.981l-0.685-1.692L391.853,171.992z M323.117,213.376l-2.727,3.317l-0.62,0.474l-0.603,0.31l-0.667,0.176
		l-0.808,0.061l-0.86-0.134l-1.211-0.65l-0.667-0.237l-2.733-0.328l-3.078,0.085l-2.757,0.717l-1.762,1.616l0.702,0.729
		l-0.585,0.085l-1.533-0.304l-0.89,0.583l-0.357,0.62l-0.252,0.656l-0.515,0.681l-1.451,0.705l-1.615-0.146l-1.557-0.833
		l-1.264-1.307l0.901-1.41l0.023-1.859l-0.761-1.604l-2.481-1.13l-1.042-1.081l-1.592-2.587l-0.79-2.247l-0.451-0.589l-1.902-1.894
		l-0.298-0.674l-0.228-0.935l-1.053-1.384l-0.24-0.716l0.164-0.668l0.667-1.523l0.374-2.185l0.96-3.04l0.281-1.553l-0.064-3.457
		l-0.386-1.722l-1.726-2.51l-0.421-1.467l-0.293-3.098l-0.737-2.843l0.053-1.018l0.685-1.23l-1.241-0.418l-0.761-1.109l-0.386-1.424
		l-0.105-1.393l-0.316-1.29l-1.545-2.32l-0.597-1.242l-1.323-5.674l0.094-1.211l0.515-1.217l0.258-1.798l-0.07-1.761l-0.456-1.083
		l1.955-4.066l-0.141-1.839l0.258-0.871l2.265-0.708l0.439-0.581l0.334-0.248l0.825,0.702l0.293,0.605l0.702,1.972l0.216,0.417
		l0.597,0.333l0.38,0.786l0.211,0.932l0.059,0.786l0.281,0.139l1.674,2.148l0.632,1.828l0.445,0.853l1.451,0.726l2.926,2.222
		l-0.702,0.739l0.334,1.726l1.299,3.633l0.708,3.452l0.316,3.708l-0.094,0.891l0.369,0.491l0.474,0.382l0.246,0.527l0.983,9.219
		l0.819,0.606l1.849,0.036l3.207-0.364l1.849,0.067l0.761-0.073l0.457-0.582l0.913-1.492l0.585-0.612l0.644-0.515l0.527-0.655
		l0.211-1.037l0.415-8.217l-0.146-0.957l-0.386-1.169l0.819-1.048l1.293-0.775l0.989-0.357l5.408,0.509v0.551l-1.305,0.218
		l-0.615,0.63l-0.152,0.945l0.199,3.102l-0.281,0.763l-0.837,0.951l1.194,0.139l0.486,0.885l0.287,2.539l1.229,3.655l0.246,1.431
		l1.738-1.267l0.895-0.212l1.328,0.503l-0.345,1.364l1.293,5.991l-0.345,1.189l-0.603,0.267l-0.246,0.255l0.743,1.116l0.322,0.182
		l1.153,0.425l0.492,0.364l0.263,0.412l0.691,1.663l-0.164,1.42l-0.316,1.22l-0.445,0.419l-0.521-1.02h-0.492l0.497,2.494
		l1.276,3.788l1.686,3.461l1.721,1.512l0.615,0.316l0.135,0.759l-0.187,0.844l-0.293,0.62l-0.515,0.431l-0.421-0.042l-0.515-0.243
		l-0.808-0.146h-2.692l-1.03,0.377L323.117,213.376z M350.032,109.59l0.731,0.205l4.413,2.161l0.644,0.513l0.55,0.718l-0.474,3.912
		l-0.217,0.64l-0.41,0.453l-1.849,3.146l-1.007,1.051l-0.784,0.435l-0.79,0.073l-4.828-0.411l-0.983,0.374l-1.036-0.072
		l-0.884-0.375l-0.732-0.423l-0.521-0.193l-0.316-0.411l0.304-0.894l0.726-1.461l-0.439-4.07l0.175-1.34l0.486-0.646l0.708-0.416
		l1.715-1.425l0.515-0.096l0.632,0.133l1.211-0.06l0.632-0.308l1.106-0.984L350.032,109.59z M345.567,93.14l-0.047-1.537
		l-0.269-0.953l-0.732-0.784l-1.405-1.067l-1.703-2.598l-0.421-1.531l0.117-1.983l0.562-1.591l0.983-1.223l1.311-0.946l3.113-1.355
		l1.089-0.018l1.018,0.645l1.288,1.452l2.06,3.923l0.89,0.633l-0.895,1.187l-0.533,0.331l0.462,1.055l0.591,0.392l0.673,0.181
		l0.685,0.434l0.386,0.175l0.334-0.084l0.217,0.06l0.094,0.609l-0.205,0.289l-0.439-0.018l-0.527-0.09L353.86,88.8l-1.176,0.874
		l-1.299,0.639l-1.527,0.374l-1.832,0.139l0.246,0.211l0.234,0.12l-0.018,0.229l-0.462,0.452l0.831,1.736l-0.983,1.309l-1.51,0.133
		L345.567,93.14z M363.534,71.015l0.655,0.452l0.339,1.06l0.012,1.192l-0.269,0.879l-0.62,0.319l-1.206,0.404l-1.428,0.301
		L359.8,75.61l-0.515,0.807l-0.615,0.054l-0.111-0.687l2.622-3.535l1.007-0.873L363.534,71.015z M336.683,62.929l0.538,0.963
		l0.732,0.331l0.843-0.181l0.878-0.608l-0.158,1.926l-0.86,0.741l-1.34,0.042l-1.615-0.181l-0.749-1.096l-0.585-1.192l-0.029-1.192
		l0.878-1.059l1.867-0.487l1.188,0.692l0.006,0.963L336.683,62.929z M282.455,42.657l1.112-0.998l1.504-0.553l1.434,0.108
		l0.901,0.986l-0.088,1.305l-0.884,1.028l-1.258,0.487l-1.246-0.295l-0.544-0.427l-0.386-0.439l-0.287-0.535L282.455,42.657z
		 M282.455,36.61l-0.421,0.204l-0.088,0.307l0.035,0.433l-0.017,0.571l-0.141,0.3l-0.187,0.264l-0.269,0.228l-0.398,0.204
		l-1.159-0.625l-0.632-0.745l-0.217-1.07l0.053-1.587l0.421-2.031l0.07-0.793l-0.176-0.553l-0.386-0.366l-0.339-0.475L278.522,30
		l2.44,0.673l0.498,0.349l0.38,0.769l0.298,1.67l0.316,0.625v0.457l-0.351,0.421l-0.14,0.457l0.094,0.517L282.455,36.61z
		 M289.466,58.825l-1.024-2.924l1.106-0.578l1.071,1.167L289.466,58.825z"/>
</g>
<g id="Copyright">
	<text transform="matrix(1 0 0 1 681.6426 577.5916)" class="st1 st2">© Vemaps.com</text>
</g>
</svg>
