<?xml version="1.0" encoding="utf-8"?>
<!-- Generator: Adobe Illustrator 23.0.1, SVG Export Plug-In . SVG Version: 6.00 Build 0)  -->
<svg version="1.1" xmlns="http://www.w3.org/2000/svg" xmlns:xlink="http://www.w3.org/1999/xlink" x="0px" y="0px"
	 viewBox="0 0 800 600" style="enable-background:new 0 0 800 600;" xml:space="preserve">
<style type="text/css">
	.st0{fill:#808080;}
	.st1{font-family:'Roboto-Regular';}
	.st2{font-size:14px;}
</style>
<g id="United_Arab_Emirates">
	<path class="st0" d="M727.911,100.791l3.026,1.783l3.268,1.317l2.388,0.514l1.136,1.812l3.129,10.637l-0.881,14.584l0.174,1.591
		l0.475,4.234l-0.197,1.174l-1.101,1.963l0.139,1.443l1.391,2.514l0.672,1.59l0.637,1.039l0.475,1.225l0.07,0.878l0.093,1.231
		l-0.139,1.769l-0.603,3.089l-0.452,4.703l-1.321,6.854l-0.533,22.173l-0.035,1.727l3.036,12.425l-7.735,0.868l-0.647,0.746
		l-0.736,0.849l-0.46,5.124l-0.253,2.819l-0.097,1.082l-0.751,1.554l-3.989,2.856l-0.802,0.79l-4.703,4.632l-2.561,1.249
		l-5.328,0.665l-2.122,0.969l-0.027,0.012l-2.326,5.849l-3.062,3.745l-0.868,2.686l-1.28,1.613l-2.723,0.77l-3.017,0.118
		l-0.24-0.034l-2.012-0.282l-4.357-3.509l-4.195-10.801l-5.314-4.841l-1.016-2.324l0.456-1.975l2.502-0.762l1.987,0.487l1.84,0.945
		l3.415,2.482l-0.573-3.358l-1.179-6.917l-1.619-4.642l-3.871-2.448l-0.363-0.056l-5.76-0.882l-5.475,1.433l-4.96,3.166
		l-0.616,0.566l-4.05,3.719l-4.312,5.505l-1.487,4.851l1.192,12.057v2.95l-0.618,5.842l0.294,2.88l0.743,1.671l2.127,4.784
		l0.471,3.032l-3.989,3.684l-0.883,5.253l-2.002,2.181l-1.442,2.173l0.191,3.301l1.781,6.604l-0.324,8.474l0.456,2.376l0.913,1.099
		l2.855,1.94l1.074,1.382l0.324,1.313l-0.5,7.574l-0.913,2.27l-5.534,9.891l-1.133,2.732l0.221,2.365l1.707,0.851l8.919,1.969
		l2.399,0.133l7.977-3.252l4.268,1.8l2.252,5.604l1.678,6.618l5.284,9.542l-1.575,2.479l-9.008,2.22l-16.588,6.809l-2.649-0.326
		l-3.709-2.896l-2.561,0.447l-2.34,0.886l-2.193,0.056l-4.636-0.786l-4.725-0.117l-4.062,0.761l-3.886,1.579l-4.18,2.304
		l-2.767,1.526l-6.049,2.312l-6.123,1.16l-0.574,2.275l1.251,2.806l2.384,2.178l5.166,3.111l2.281,3.417l0.648,4.482l0.456,11.804
		l-0.603,2.067l-6.653,9.88l-1.295,2.628l-4.695,19.288l-1.972,3.002l-5.313,5.847l-0.029,0.016l-2.664,4.012l-1.59,5.174
		l-2.973,15.475l-3.15,9.488l-13.556,23.836l-4.43,14.887l-0.5,4.581v0.016l0.898,22.56l-1.531,22.532l-9.464,12.369L560.755,570
		l-19.473-2.591l-19.811-2.647l-19.811-2.632l-19.796-2.632l-19.782-2.648l-19.811-2.641l-19.797-2.633l-19.797-2.645l-19.826-2.646
		l-19.797-2.642l-19.797-2.639l-19.811-2.643l-19.797-2.643l-19.797-2.639l-19.811-2.64l-19.797-2.644l-19.796-2.644l-22.888-3.056
		l-3.503-1.155l-2.848-2.501l-7.639-9.837L180.139,499l-7.426-9.606l-7.433-9.61l-7.411-9.603l-7.433-9.615l-7.418-9.628
		l-7.433-9.628l-7.418-9.621l-7.433-9.633l-7.418-9.646l-7.433-9.634l-7.433-9.647l-7.433-9.643l-7.418-9.664l-7.433-9.665
		l-7.418-9.665l-8.11-10.561l-2.134-3.668l-0.765-4.056l0.294-10.006l0.044-4.026l-0.882-6.005l3.036-4.411l0.139-6.905
		l-2.515-5.603l2.816-3.2l1.229,2.659l3.048,4.465l0.591,3.065v9.015l0.927,5.491l2.028,1.296l2.028-2.224l1.379-7.068l0.962,1.92
		l1.414,4.856l0.95,1.614l0.672,0.381l1.298,0.127l1.205-0.311l0.765-0.731l0.174-0.75l-0.568-0.33l2.735-6.693l2.665-2.028
		l2.944,4.45l0.394,3.381l-1.46,10l0.209,3.608L88,339.965l0.162,1.676L88,346.896l0.301,1.675l1.333,3.172l0.29,1.535l1.46,2.759
		l3.396,0.894l6.919,0.165l1.669,0.546l1.275,0.736l2.445,2.385l1.286,0.875h1.089l0.394-0.691l-0.823-1.237l-0.278-1.693
		l3.06-0.457l8.136,0.476l0.985-0.285l0.997,0.285l1.773,1.674l4.416,2.131l1.182-0.057l6.015-1.103l2.515,0.678l1.414-0.85
		l1.426,0.85l2.214-1.065l2.445-0.139l2.573,0.178l2.573-0.14l2.364-0.875l5.424-3.387l2.399-0.368l4.543-0.019l1.889-0.571
		l1.634-1.377l1.738-1.802l1.901-1.574l2.028-0.673l2.353-0.457l2.735-1.155l2.295-1.567l0.962-1.656l0.8-1.771l4.335-1.866
		l2.109-1.695l1.878-1.924l2.492-1.873l2.503-1.441l1.936-0.572l1.553-1.149l0.44-2.642l0.046-2.877l0.394-1.861l2.781-1.588
		l2.585,0.915l2.237,2.154l5.123,7.05l1.599,0.61l0.579-0.413l0.464-0.8l1.252-0.559l3.222,0.102l5.829,1.702l3.094,0.425
		l1.808-0.311l3.06-1.473l1.53-0.444l1.646,0.025l1.229,0.375l0.985,0.457l1.032,0.305l12.122,1.067l1.368-0.273l5.053-1.956
		l0.672-0.584l0.197-0.851l0.209-0.673l0.869-0.025l0.73,0.476l0.545,0.68l0.394,0.635l0.278,0.343l4.172,3.467l2.619,1.257
		l5.69-2.495l2.921,1.124l2.677,1.46l2.411-0.546l-1.959-1.156l-0.556-1.486l-0.058-1.765l-0.417-1.994l3.257-0.699l3.743,1.702
		l3.419,2.788l2.306,2.61l1.97,3.225l1.159,0.838l7.881,0.47l18.219-3.752h1.252l1.252,0.844l1.947,2.197l1.495,1.035l2.028,0.476
		l2.109-0.14l1.634-0.831l2.584,1.961l1.53,0.863l1.31,0.368l0.591,0.597l1.831,2.837l0.985,0.914l1.182,0.228l1.634-0.019
		l1.565-0.279l2.434-1.257l1.46,0.355l1.356,0.685l1.147,0.286l4.392-2.113l0.962-0.685l1.171-0.628l1.368,0.26l1.425,0.584
		l1.379,0.368l17.326,0.114l3.581-0.444l1.553-1.32l8.738-4.748l8.993-1.486l2.828-1.479l2.99-0.572l3.755-1.791l4.346-0.61
		l1.495-0.457l1.831-1.143l2.596-2.064l2.341-2.471l0.997-2.357l1.414-1.156l9.364-2.732l7.568-5.573l1.286-0.229l1.147-1.939
		l2.7,0.14l5.783,2.371l1.078-1.761l5.285-4.107l2.665-3.751l5.644-11.284l-0.8-3.92l0.452-1.833l2.295-1.184l-1.321-0.891
		l-0.626-0.178v-1.165l2.214,0.21l3.5,1.629l2.075,0.395l-0.904-1.967l-2.434-2.68l-0.487-1.865l2.121,0.993l2.272,0.688l2.04,0.917
		l1.356,1.681h0.892l-0.44-4.125l-2.677-1.299l-3.767-0.191l-3.813-0.796l-8.344-5.63l-3.326-0.79v-0.962l1.715-0.497l1.75-1.166
		l1.46-1.695l0.243,0.994l0.487,1.3l1.147,1.064l-0.382-1.605l0.487-1.408l1.843-2.434h0.973l1.124,4.32l2.758,4.229l3.5,2.637
		l3.396-0.497l-0.869-0.465l-2.121-1.764l1.634,0.083l3.06,0.993l1.217,0.083l0.475-0.548l1.228-2.172l0.73-0.49l5.343-10.78
		l-2.364-1.02l-1.089-1.396l0.533-1.243l2.434-0.523l1.484-0.95l0.417-2.142l0.823-2.219l2.631-1.205v-0.976l-1.24-0.912
		l-0.591-1.607l-0.417-1.977l-0.661-2.016l0.765-1.135l-1.032-0.663l-1.112-1.142l0.406-2.52l1.31-1.461l5.574-3.791l0.695-1.053
		l0.684-1.475l0.811-0.881l4.381,2.036l0.232,0.204l2.098-0.44l2.051-1.417l0.719-2.088l-1.935-2.477l15.495-9.12l6.965-5.06
		l4.323-4.013l2.851-1.917l3.523-1.157l0.301-0.102l0.626-0.205l0.568-0.185l0.359-0.121l0.695-0.422l0.464-0.275l0.255-0.153
		l0.313-0.185l0.603-0.364l3.952-2.289l-0.765-3.223l4.705-0.998l0.661,0.537l10.628-12.563l14.545-18.649l0.73-2.505l-0.116-2.165
		l2.712-2.479l2.271,0.346l2.133,3.082l0.719,2.146l-0.591,2.082l-1.866,2.895l3.952-1.23l0.765-2.792l-1.101-3.459l-2.863-5.331
		l-0.383-1.256l0.788-1.372l4.288-4.679l1.252-0.526l2.156,0.115l-0.661-1.975l0.104-1.891l0.869-1.577l1.634-1.007l1.437,1.244
		l2.874-2.469l4.52-6.312h0.881l0.626,1.918l0.823,0.115l0.834-1.18l0.637-1.931l0.974,1.078l1.935-5.858l1.356-2.554l1.565-1.374
		l-1.773-0.937l0.904-1.926l1.831-2.504l0.985-2.658l0.626-2.672l1.565-3.122l2.19-2.557l2.434-0.957l-1.217,2.583l-1.565,2.12
		l-0.904,1.946l0.846,2.062l2.214,0.906l2.793-0.488l3.106-0.963l3.013-0.533l0.892-1.24l2.214-6.154l1.252-2.3l3.778-4.074
		l2.283-1.768l4.902-1.909l3.651-5.195l1.565-1.183l1.286-0.199l1.808-0.572l1.599-0.849l0.695-1.068l0.637-0.373l4.219-1.151
		l5.076-4.149l7.742-9.884l3.883-3.341l-0.846,1.436l-0.904,3.244l-1.46,2.754l0.58,0.946l1.031,0.277l0.545-0.502l0.301-2.368
		l1.321-4.473l0.325-2.981l0.904-1.365l5.992-5.699l1.252-1.642l1.078-1.842l0.869-2.255l0.591-2.919h-0.974l-0.51,1.469
		l-0.846,1.237l-1.101,0.947l-1.333,0.567l3.72-6.263l3.083-6.703l2.55-10.072l0.59-1.385l3.302-0.286L709.722,30l1.619,0.197
		l2.237,6.111l0.721,3.243l-0.309,2.899l-0.942,4.707l-0.589,14.205l-0.957,2.274l-2.752,3.884l-0.692,2.363l0.633,2.698
		l3.312,4.463l0.662,1.97l-1.016,2.067l-1.84,1.43l-1.531,1.65l-0.118,2.712l0.677,7.064l0.81,1.894l0.239,0.14l0.555,0.325
		l3.341,0.604l1.281,1.053l1.413,3.184l1.001,1.183l2.237,0.62l2.281-0.432L727.911,100.791z M725.286,147.545l-3.845,2.922
		l0.291,2.558l0.458,1.581l0.855,1.301l-1.39,1.656l-3.81,1.906l-0.321,3.901l0.214,1.537l1.756,0.878l2.252,0.643l2.34-1.017
		l4.21-3.034l1.622-1.407l3.315-1.182l3.98-2.074l0.676-4.331l-5.661-1.15l-2.66-4.13L725.286,147.545z M725.628,160.438
		l-0.491-4.214l0.783-0.818l1.244-0.018l2.067,1.474l-0.762,2.59L725.628,160.438z M354.5,331.438l-2.492-0.324l-1.611-0.584
		l-0.058-1.207l2.214-2.236l1.611-0.991l0.209-0.127v-0.013l3.5-1.302l1.495-0.762l2.712-2.434l0.8-0.527l0.997-0.655l0.614-0.197
		l1.68-0.553l1.333,0.038l2.086,0.896l0.313,0.07l0.73,0.159l0.974-0.413l3.407-2.79l3.929-1.672l1.565-0.922l1.217-1.672
		l0.765,1.932l-0.174,0.458l-0.591,0.814l1.46,2.396l0.661,0.705l3.639,2.3l0.533,0.33l4.879,1.01l1.043,0.426l2.944,1.194
		l1.46,4.434l-1.97,3.569l-4.358,1.543l-5.099-0.21l-4.219-1.715l0.301-1.448l-1.101-1.994l-1.704-0.502l-1.483,2.973l1.066,0.972
		l-3.871,2.527l-4.647,0.914l-4.728-0.527l-4.253-1.753l-2.457-1.384l-0.023-0.006l-1.414-0.483L354.5,331.438z M430.515,320.689
		l-1.414-2.783l-3.06-1.366l-3.593-1.03l-3.071-1.761l-1.565-4.062v-0.013l1.947-3.243l3.094-1.31l0.73,0.655l1.182,1.049
		l3.628,4.037l1.773,1.977l1.507,3.807l-0.012,0.006L430.515,320.689z M200.337,302.456l1.808-2.589l3.407-1.991l3.328,1.038
		l1.554,2.483l0.78,4.036l-0.296,2.404l-3.071,4.05l-2.642,2.397l-2.35,2.326l-1.864-2.014l-1.556-2.635l-1.714-3.722l0.304-3.105
		L200.337,302.456z M306.901,315.152l-2.007-2.489l-2.017-0.163l-2.634-1.406l-1.405,2.321l-5.432-0.795l-2.017-0.317l-3.008,0.613
		l-0.51,0.178l-0.371-0.013l-0.348-0.826l0.069-0.903l0.44-1.132l0.51-0.954l0.44-0.407l5.331,1.157l1.437-0.35l3.662-1.634
		l0.73-0.674l0.765-0.56l4.694-1.891l2.643-1.23l1.242,0.005l1.387,2.488l1.393,0.782l1.262-0.638l0.313-1.704l-0.174-1.679
		l-0.869-1.539l5.343-7.927l2.515-1.782l0.128,0.904l0.638,1.546l0.209,0.846l3.303,1.845l0.035,0.019l-0.939,6.03l-1.824,1.953
		l-5.596,2.61l-2.644,1.694l-3.415,0.45l-2.023,1.543l-0.007,1.706L306.901,315.152z M457.831,287.51l-6.803-2.139v-2.464
		l5.772-5.425l2.005-2.987h0.974l-0.974,3.299l1.031,2.84l2.515,2.012l5.285,2.725l2.608,2.616l0.116,1.789l-1.97,0.662
		l-3.743-0.694L457.831,287.51z M441.282,310.182l-1.286,1.055l-1.356,0.712l-1.217,0.312l-1.565-0.032l-0.869-0.483l-2.434-2.88
		l-1.808-1.278l-1.321-0.61l-0.522-1.005l0.73-2.442l1.043-1.425l1.692-1.183l2.028-0.661l2.051,0.064l1.252,2.627l1.414,2.22
		l3.176,3.694L441.282,310.182z M449.754,297.908l1.344,1.412l0.116,2.137l-1.518,4.541l-2.353,1.157l-3.894-6.818l-0.359-1.088
		l1.008-0.172l1.576,0.42l1.379,0.878l0.638,0.305l0.185-0.712l-0.394-0.833l-2.098-1.571l-0.452-1.451l1.831-0.223L449.754,297.908
		z M162.636,271.865l3.25,2.204l0.95,3.735l-1.853,3.272l-1.708,0.782l-2.076-1.134l-0.742-0.955l-0.695-0.408l-0.904-0.847
		l-0.125-2.095l1.238-1.716l1.081-1.871L162.636,271.865z"/>
</g>
<g id="Copyright">
	<text transform="matrix(1 0 0 1 681.6426 577.5916)" class="st1 st2">© Vemaps.com</text>
</g>
</svg>
