<?xml version="1.0" encoding="utf-8"?>
<!-- Generator: Adobe Illustrator 23.0.1, SVG Export Plug-In . SVG Version: 6.00 Build 0)  -->
<svg version="1.1" xmlns="http://www.w3.org/2000/svg" xmlns:xlink="http://www.w3.org/1999/xlink" x="0px" y="0px"
	 viewBox="0 0 800 600" style="enable-background:new 0 0 800 600;" xml:space="preserve">
<style type="text/css">
	.st0{fill:#808080;}
	.st1{font-family:'Roboto-Regular';}
	.st2{font-size:14px;}
</style>
<g id="Afghanistan">
	<path class="st0" d="M737.21,120.366l0.249,0.369l0.091,0.416l-0.056,0.449l-0.193,0.47l-0.336,1.958l-0.788,0.231l-0.966-0.858
		l-0.89-1.327l-0.163-0.181l-0.183-0.148l-0.966-0.312l-1.053,0.072l-2.044,0.567l-1.276,1.063l-4.109,2.619l-2.405,1.974
		l-1.18,0.432l-3.234-0.404l-0.804,0.202l-0.707,0.547l-0.32,0.855l-0.239,2.11l-0.473,0.619l-2.904,0.962l-1.424-0.009l-1.46-0.559
		l-1.465-0.372l-4.028-2.564l-1.526-0.633l-3.011-0.563l-3.004-0.131l-0.025-0.001l-0.01-0.001l-0.081-0.004l-3.415-0.149
		l-6.433,1.105l-1.597-0.257l-1.526-0.223L680,129.135l-2.36-0.175l-2.456,0.868l-0.707,0.089l-0.727-0.092l-1.439-0.388
		l-1.556-0.165l-7.349,0.785l-0.798,0.296l-1.18,0.82l-0.58,0.28l-0.676-0.032l-1.521-0.623l-1.221,0.299l-1.19,0.639l-1.434,0.403
		l-4.348,0.222l-4.109-0.61l-3.26,0.232l-3.168,0.759l-2.385,1.229l-3.082,2.619l-1.032,0.279l-2.253-0.146l-2.024,0.67
		l-2.177,0.133l-4.348,1l-2.161,0.926l-0.798,0.568l-0.188,0.783l0.737,1.183l0.346,1.008l-0.859,0.501l-2.858,0.403l-1.241,0.406
		l-0.58,0.317l-0.427,0.52l0.086,0.507l0.203,0.52l-0.066,0.554l-0.793,0.76l-2.019,0.491l-1.022,0.576l-0.793,0.823l-2.334,1.348
		l-0.676,0.566l-0.595,0.633l-0.636,0.547l-0.793,0.3l-3.189,0.209l-1.012,0.655l0.066,1.935l0.834,1.659l0.142,0.837l-0.58,0.676
		l-0.773,0.287l-0.783,0.044l-0.722-0.294l-1.449-1.561l-2.833-1.915l-0.992-0.414l-0.92,0.098l-0.478,0.528l-0.59,1.887
		l-0.412,0.986l-0.397,0.651l-1.236,1.225l-0.244,0.932l0.514,0.941l0.28,0.802l-0.956,0.524l-1.195,0.249l-0.926,0.341
		l-0.824,0.555l-3.756,4.22l-0.999,0.782l-3.115,1.097l-0.254,0.4l-0.244,1.298l-0.341,0.573l-0.463,0.331l-1.495,0.718l-1.93,1.263
		l-0.264,0.447l-0.249,1.294l-0.247,0.56l-1.587,1.611l-0.465,0.941l0.197,0.907l0.05,0.231l0.539,0.497l1.77,0.981l0.692,0.531
		l1.256,1.364l1.322,0.553l1.388,0.308l1.429,0.616l0.73,0.864l0.211,1.991l0.524,0.92l2.233,1.597l0.704,0.919l1.643,2.973
		l0.32,0.897l0.056,0.605l-0.051,0.523l0.005,0.548l0.219,0.683l0.285,0.42l0.727,0.576l0.326,0.335l0.62,1.065l0.219,1.074
		l-0.285,1.102l-0.89,1.148l-0.62,1.214l0.463,1.029l0.987,0.804l2.711,1.335l0.804,0.606l0.458,0.897l-0.031,1.159l-0.336,1.094
		l-0.214,1.146l0.3,1.343l0.276,0.406l0.359,0.528l0.651,0.74l0.417,0.821l-0.076,1.176l-0.483,0.886l-2.4,2.105l-1.51,1.97
		l-0.086,1.63l0.885,1.523l2.726,3.148l1.5,1.22l0.208,0.809l-0.427,1.179l-1.236,1.922l-3.402,2.381l-1.282,1.597l-0.071,2.634
		l0.27,0.605l-0.081,0.565l-0.346,0.487l-0.534,0.388h-0.005v0.006l-0.392,0.633l-0.427,1.393l-0.351,0.636l-0.473,0.422
		l-0.724,0.295l-5.92,2.412l-1.744,1.352l-0.918,1.844l-0.748,2.042l-2.586,3.718l-0.666,0.665l-1.899,1.003l-3.461,2.836
		l-0.514,0.699l-0.069,0.915l0.369,1.335l0.178,1.239l-0.163,1.458l-0.529,1.198l-0.9,0.438l-1.996-0.312l-1.04,0.009l-0.122,0.056
		l-0.723,0.33l-0.575,1.059l-0.066,1.313l0.275,1.337l0.473,1.118l1.017,1.54l1.393,1.708l1.531,1.47l3.499,1.966l0.214,1.466
		l-1.442,4.155l-0.01,1.078l0.475,2.081l0.145,1.201l-0.069,1.426l-0.31,0.797l-1.373,1.579l-0.547,1.185l0.053,0.974l0.168,0.946
		l-0.229,1.114l-0.783,0.735l-2.411,0.508l-1.012,0.351l-0.562,0.807l-0.577,0.534l-0.702,0.232l-0.91-0.078l-1.325-0.423
		l-0.491,0.138l-0.214,0.759l-0.875,1.75l-3.489,0.665l-6.65-0.07l-6.604,0.952l-1.5-0.054l-4.061-0.878l-3.975-0.17l-0.9-0.261
		l-1.688-0.86l-2.792-0.268l-10.629-3.746l-1.66-0.115l-2.612,0.407l-1.317,0.456l-0.819,0.83l-0.107,0.943l0.168,0.891
		l-0.091,0.878l-0.875,0.9l-0.646,0.863l0.3,0.881l1.442,1.446l0.44,0.777l0.656,2.249l0.432,0.941l1.17,1.728l0.432,0.886
		l0.351,1.155l0.506,1.141l0.745,0.465l1.172,0.163l0.755,0.105l2.645,1.142l2.095-0.371l0.491,0.637l0.415,2.34l0.295,0.918
		l0.214,0.304l0.448,0.379l0.814,0.392l0.379,0.27l0.191,0.388l-0.031,1.432l-1.007,3.728l-0.081,1.115l0.178,1.136l0.432,1.06
		l0.682,0.899l0.386,0.262l1.373,0.45l0.348,0.314l0.364,0.948l0.254,0.433l2.594,2.932l0.781,1.831l-0.351,1.934l-8.348,7.057
		l-0.956,0.542l-1.068-0.087l-1.175-0.398l-0.58,0.234l-1.648,3.134l-0.376,0.527l-0.597,0.263l-1.427-0.121l-0.488,0.1
		l-3.685,2.259l-2.077,0.152l-3.29-1.651l-1.912,0.322l-2.311,1.676l-0.898,0.221l-0.442-0.083l-0.422-0.202l-0.468-0.14
		l-1.592,0.303l-1.012-0.027l-1.981,0.266l-1.64,1.076l-1.302,1.662l-0.473,0.999l-0.473,1.001l0.921,6.357l-0.488,1.702
		l-0.287,0.269l-1.274,0.97l-1.205,1.69l-1.668,1.257l-0.534,0.788l0.086,1.145l0.254,0.459l0.354,0.384l0.43,0.289l0.422,0.177
		l0.341,0.255l0.127,0.443l0.092,1.026l0.493,1.935l-0.153,0.717l-0.595,1.146l-2.594,3.913l-0.87,0.726l-2.039,0.716l-0.992,0.641
		l-1.495,1.882l-0.921,2.21l-0.239,2.412l0.519,2.507l1.274,3.257l0.181,1.225l-0.056,1.266l-0.343,2.488l-0.023,2.46l-0.376,2.457
		l-0.041,1.255l0.964,5.498l1.551,4.414l0.13,0.752l-0.179,0.328l-0.114,0.208l-2.357,1.777l-1.338,1.456l-5.386,8.349l-0.702,0.795
		l-0.753,0.475l-0.646,1.037l-1.551,1.431l-1.775,1.273l-1.317,0.556l-1.785-0.125l-1.673,0.541l-3.123,1.607l-1.953,0.227
		l-1.307-0.926l-2.268-3.292l-1.266-1.488l-0.371-0.849l-0.147-2.338l-0.326-0.709l-0.615-0.353l-2.772-0.508l-2.873-1.639
		l-1.653-0.646l-1.101,0.018l-1.162,0.404l-2.131,1.137l-0.956,0.754l0.17,0.571l0.854,0.38l1.076,0.173l2.945-0.069l0.951,0.132
		l0.453,0.52l-0.638,0.724l-1.065,0.64l-0.844,0.272l-1.823-0.302l-5.162-1.854l-1.945-0.155l-1.948,0.093l-1.078-0.161l-0.61-0.61
		l-0.509-0.766l-1.254-1.026l-1.086-0.599l-1.261-0.446l-1.012,0.072l-0.631,0.763l-1.045,2.474l-0.303,0.558l-0.238,0.438
		l-1.625,1.504l-0.242,0.52l-0.163,1.222l-0.28,0.406l-2.584,1.443l-0.824,0.669l-0.554,0.789l-0.534,0.29l-1.994,0.108
		l-1.495-0.248l-0.671,0.027l-1.376,0.675l-3.029,3.427l-1.618,1.142l-1.062,0.749l-1.495,0.612l-1.518,0.155l-3.196-0.713
		l-1.551,0.036l-0.633,1.02l0.359,0.862l0.722,0.874l0.641,0.999l0.29,2.256l0.712,0.858l0.982,0.617l0.971,0.277l4.091-0.545
		l1.775,0.581l0.231,2.415l-0.509,1.078l-0.753,0.348l-1.988-0.074l-0.799,0.235l-0.681,0.497l-0.641,0.595l-3.138,2.023
		l-0.91,0.339l-2.629,0.494l-1.816,0.788l-2.924,0.396l-3.41,1.46l-0.905,0.169l-3.151-0.288l-2.553,0.125l-0.814-0.095l-1.012-0.36
		l-1.795-1.002l-0.982-0.297l-0.979,0.045l-1.889,0.476l-0.997-0.018l-1.129-0.205l-0.61-0.199l-0.374-0.303l-0.069-0.461
		l0.198-0.348l0.272-0.354l0.125-0.47l-0.102-1.282l-0.348-0.798l-0.725-0.387l-2.894,0.065l-1.839,0.53l-3.318,1.643l-1.47,1.282
		l-1.147,1.321l-1.269,0.978l-1.882,0.259l-1.195,0.832l-1.668,6.48l-0.941,1.318l-4.623,4.777l-1.109,0.495l-6.652,1.361
		l-0.834,0.454l-0.448,0.794l-4.837,18.409l-0.15,2.49l0.837,2.268l1.19,1.543l0.376,0.732l0.277,1.168l0.12,1.168l-0.926,7.533
		l0.112,3.448l-0.216,1.092l-3.176,6.488l-0.72,2.154l-0.12,0.902l0.292,0.764l1.732,1.21l2.024,2.067l1.516,1.174l0.402,0.54
		l-0.183,0.258l-0.412,0.141l-0.295,0.17l-1.017,1.752l-1.307,1.734l-3.916,2.827l-4.191,1.231l-2.858,0.838l-2.858,0.841
		l-2.863,0.835l-2.848,0.839l-2.858,0.836l-2.858,0.841l-2.856,0.836l-2.863,0.839l-2.856,0.837l-2.858,0.84l-2.853,0.837
		l-2.858,0.837l-2.848,0.835l-2.863,0.836l-2.858,0.838l-2.858,0.833l-7.138,2.09l-2.449-0.079l-8.183-1.489l-6.713-0.053
		l-9.074-0.078l-1.072-0.009l-13.284,3.981l-1.729,0.887l-1.124,1.461l-1.79,3.512L222.683,570l-5.615-2.427l-9.058-1.752
		l-10.792-2.086l-7.512,0.707l-2.418,0.228l-2.413,0.228l-2.416,0.228l-2.411,0.231l-2.411,0.228l-2.416,0.225l-2.411,0.228
		l-2.411,0.231l-2.416,0.228l-2.411,0.226l-2.416,0.229l-2.411,0.225l-2.413,0.231l-2.413,0.228l-2.411,0.228l-2.413,0.228
		l-1.416,0.133l-6.155,0.579l-5.07-0.963l-4.676-1.504l-4.091-1.324l-4.099-1.318l-4.102-1.324l-4.089-1.324l-4.099-1.318
		l-4.099-1.326l-4.099-1.325l-4.094-1.319l-4.094-1.323l-4.099-1.329l-4.094-1.32l-4.099-1.325l-4.094-1.322l-4.094-1.326
		l-4.104-1.329l-4.094-1.325l-3.514-1.134l-1.556-0.718l2.843-3.332l3.738-4.388l0.015-0.015l7.608-9.092l4.063-4.863l2.782-3.339
		l5.325-6.386l4.003-4.808l5.635-6.821l6.22-7.531l4.063-4.92l0.839-0.897l-0.122-0.305l-0.066-0.062l0.071-1.034l0.122-0.403
		l0.295-0.166l-0.188-3.918l-0.214-0.67l0.941-1.866l0.351-1.207l-0.005-1.128l-0.239-1.143l-0.6-1.876l-0.86-1.826l-0.122-0.597
		l-0.081-1.685l-0.417-1.293l-1.317-2.188l-0.478-1.175l-0.02-1.145l0.341-2.473l-0.341-1.066l-1.76-2.245l-0.966-0.768
		l-1.266-0.503l-2.702-0.394l-5.679-0.828l-9.648-1.415l-8.348-1.225l-0.079-0.012l-8.244-1.21l-4.969-0.73l-1.638-0.689
		l-0.58-5.409l-0.737-2.792l-0.117-1.353l0.626-4.274l-0.682-5.357l-0.107-2.805l0.366-3.582l-0.086-1.259l-0.193-0.62l-0.244-0.57
		l-0.102-0.597l0.422-1.277l-0.29-0.327l-0.412-0.24l-0.168-0.357l0.381-0.891l1.287-1.662l0.295-0.969l0.661-4.624l0.102-4.736
		l-1.673-6.23l-2.167-8.084l-1.999-6.756l-1.811-6.154l-1.714-5.847l-1.668-5.673l-1.409-4.808l-0.717-3.752l-0.071-4.643l0.3-0.822
		l2.38-3.228l2.675-3.619l2.395-3.257l1.871-2.551l1.419-1.264l1.612-1.008l0.514-0.672l0.275-1.178l-0.091-1.015l-0.173-0.983
		l0.142-0.848l0.87-0.582l2.334-0.157l0.727-0.265l0.38-0.652l0.053-0.091l-0.437-0.846l-0.829-0.749l-0.763-0.447l-1.653-0.418
		l-1.902-0.14l-3.616,0.195l-3.855-0.297l-3.972-1.648l-3.102-2.989l-1.226-4.316l0.397-1.937l1.521-3.435l0.107-2.328l-1.409-9.061
		l-0.538-5.147l-0.083-0.793l0.295-2.66l1.383-2.801l1.551-2.018l1.724-1.798l2.34-1.248l0.768-0.842l-0.341-1.268l3.479-0.208
		l4.999-0.306l3.667-0.217l-0.559-1.116l-3.652-4.76l-0.778-1.551l-0.478-0.692l-0.595-0.541l-1.205-0.555l-0.437-0.417
		l-0.422-1.424l-0.315-0.41l-0.422-0.238l-0.524-0.076l0.722-1.256l1.226-0.633l2.695-0.364l1.226-0.346l0.961-0.658l2.233-2.558
		l0.249-0.476l0.32-0.399l0.661-0.38l0.687-0.111l0.641,0.053l0.575-0.139l0.514-0.683l0.198-1.456l-0.163-1.546l0.061-1.414
		l0.89-1.043l1.556-1.219l0.956-1.721l0.28-0.991l1.51-0.508l0.392-1.977l0.214-2.12l-0.036-0.521l-0.219-1.116l-0.051-0.614
		l0.158-0.754l0.697-1.129l0.153-0.574l0.163-1.173l0.717-2.254l0.295-2.485l0.356-0.861l1.19-1.678l-0.519-0.547l-0.076-0.494
		l0.132-0.535l0.097-0.684l-0.137-0.255l-1.749-2.367l-0.254-0.601l0.295-0.271l0.493-0.261l0.02-0.579l-0.239-0.579l-0.275-0.261
		l-0.036-0.585l0.041-1.286l0.29-1.283l0.707-0.586l1.048-0.025l1.175-0.199l0.946-0.542l0.392-1.069l-0.229-3.105l0.229-1.238
		l0.285-0.667l1.032-1.395l0.27-0.618l0.427-1.895l0.544-1.162l1.155-1.412l0.656-1.14l0.305-1.256l-0.122-1.222l-0.519-2.477
		l-0.361-0.563l0.671-0.25l2.578-0.501h0.417l0.361,0.188l0.463,0.41l-0.041,0.16l-0.422,0.682l0.61,0.538l0.076-0.016l0.107,0.031
		l0.778,0.697l0.02,0.263l-0.193,0.653l0.015,0.241l0.326,0.472l0.31,0.359l0.397,0.228l0.56,0.091l0.329,0.147l0.413,0.184
		l3.199,2.943l2.263,2.529l3.25,1.311l6.637,1.017l2.924-0.225l5.92-2.076l2.873,0.056l1.462,0.724l1.297,0.902l5.045,4.987
		l1.355,0.916l2.713,1.2l0.722,0.754l0.524,0.947l0.338,1.065l0.069,1.059l-0.081,2.437l0.29,0.915l0.928,2.174l0.516,0.625
		l0.778-0.414l4.788-6.529l1.602-1.489l1.33-0.075l3.232,2.996l0.536,0.29l0.493-0.04l0.488-0.143l0.529-0.022l1.449,0.613
		l0.437,0.072l0.814-0.199l3.57-1.547l0.737-0.461l0.641-0.626l0.62-0.863l1.292-1.308l3.079-1.512l0.221-0.109l4.46-3.551
		l3.301-1.594l0.997-0.231l2.044-0.178l0.971-0.256l0.659-0.693l0.298-1.124l0.209-2.289l0.503-1.899l-0.173-0.634l-0.819-0.669
		l-0.158-0.741l-0.12-3.089l0.084-0.901l1.304-1.292l3.776-1.236l1.368-1.014l0.29-0.551l0.041-0.423l-0.249-0.316l-1.251-0.476
		l-0.328-0.276l-0.689-0.933l-2.52-2.281l-0.313-0.787l-0.216-1.072l-0.491-0.774l-0.341-0.775l0.208-1.051l0.76-0.794l1.043-0.229
		l10.711,0.242l4.295-0.897l3.98-1.871l0.73-0.659l1.165-1.602l0.682-0.703l0.918-0.512l0.994-0.22l6.072-0.377l1.978-0.512
		l4.623-2.725l1.475-0.459l0.812-0.128l0.77-0.121l1.378,0.296l4.681,1.833l0.023-0.764l-0.453-2.877l-0.008-1.085l0.415-0.969
		l0.62-0.787l3.252-2.487l1.739-0.866l1.831-0.343l2.029,0.334l0.816,0.34l0.61,0.145l0.488-0.412l0.778-2.451l0.58-0.737
		l0.753-0.501l0.9-0.378l3.624-0.848l1.658-0.618l1.63-1.321l1.007-1.208l3.863-5.998l0.872-2.114l0.564-2.257l0.229-2.438
		l-0.135-1.269l-0.692-2.339l-0.231-1.251l-0.01-1.238l0.158-1.264l0.631-2.421l0.814-1.966l5.275-9.704l1.805-3.325l0.666-2.083
		l-0.204-2.409l-0.936-4.686l0.224-2.405l0.916-1.569l1.434-1.078l8.915-4.827l3.641-1.209l20.905-0.542l0.664-0.017l1.744-0.917
		l2.278-3.151l1.383-1.423l0.631-0.872l0.264-1.256l-0.028-1.37l-0.389-2.656l0.234-1.388l0.493-1.32l0.61-1.224l0.005-0.006
		l0.003-0.013l0.511-1l0.498-0.638l0.6-0.362l0.849-0.188l2.024,0.022l0.651-0.547l0.305-1.629l0.127-0.885l0.743,0.34l0.982,0.221
		l0.387,0.25l0.824,1.87l0.394,0.593l0.343,0.401l0.941,0.696l11.046,4.159l0.895,0.772l1.366,1.841l0.852,0.845l0.992,0.506
		l0.57,0.086l1.628-0.086l0.529,0.13l0.692,0.581l0.46,0.131l0.441,0.226l0.339,0.174l0.819,0.84l0.987,0.747l1.292,0.128
		l3.392-1.116l1.175-0.152l0.498,0.245l0.74,1.1l0.61,0.307l0.511-0.093l0.417-0.329l0.753-0.844l0.87-0.758l0.821-0.528
		l0.956-0.304l1.259-0.099l1.18,0.138l3.252,1.382l0.608,0.114l1.332,0.056l0.524-0.193l0.969-0.843l0.519-0.195l6.436-0.286
		l4.521-1.07l2.375,0.051l0.895,0.427l1.968,1.419l1.032,0.306l0.605,0.56l0.814,2.686l0.463,0.941l0.992,0.625l2.182,0.842
		l0.992,0.914l0.493,1.064l0.359,1.146l0.564,0.945l1.101,0.448l1.099-0.217l1.877-1.221l1.261-0.284l1.195-0.102l1.065-0.303
		l0.989-0.514l0.976-0.733l1.617-1.639l0.905-0.685l1.022-0.284l1.132,0.561l0.928,2.557l0.806,0.719l0.531-0.201l0.382-0.588
		l0.3-0.615l0.308-0.283l0.514-0.067l0.938-0.288l0.559-0.07l0.564,0.176l1.073,0.816l0.544,0.276l0.623,0.08l1.757-0.08l1.02,0.256
		l0.87,0.527l0.577,0.824l0.224,1.154l-0.422,3.945l0.053,0.925l0.605,0.829l1.116,0.821l1.223,0.626l2.225,0.534l0.681,0.765
		l0.519,1.088l0.783,1.268l0.534,0.466l1.165,0.616l0.437,0.388l1.691,2.104l0.287,0.511l0.198,0.542l0.249,0.48l0.447,0.32
		l0.226,0.01l0.389,0.017l0.59-0.245l0.503-0.334l3.255-2.81l0.605-0.385l0.915-0.385l0.786-0.82l0.908-0.753l1.287-0.181
		l2.027,0.68l1.182,0.01l0.519-0.884l-0.331-2.593l-0.041-1.245l0.371-1.022l0.933-0.679l0.954,0.073l0.956,0.378l0.971,0.228
		l1.282-0.137l0.964-0.489l0.323-0.92l-0.704-1.442l3.054-0.23l2.339-0.533l0.519-0.042l0.437-0.268l0.679-1.187l0.242-0.271
		l0.982-0.129l1.841-0.579l0.89-0.134l0.191-0.468l0.277-0.995l0.6-0.893l1.114-0.174l-0.285-0.754l-0.137-0.268l-0.252-0.245
		l0.557-0.657l0.89-0.045l1.917,0.278l1.015-0.105l0.643,0.061l0.575,0.28l1.831,1.181l0.585,0.045l0.208-0.601l-0.127-1.32
		l-0.582-1.864l0.178-0.7l1.083-0.355l1.03,0.262l0.554,0.79l0.442,0.993l0.654,0.874l0.709,0.326l0.547-0.147l0.262-0.55
		l-0.173-0.895l-0.229-0.268l-0.798-0.601l-0.318-0.4l-0.257-0.736l0.137-0.205l0.285,0.061l0.173,0.074l3.359,0.422l0.974,0.544
		l0.997,0.918l0.765,1.087l0.725,2.25l0.976,0.894l1.121,0.738l0.888,0.75l0.88,2.196l0.458,0.511l1.088,0.756l0.259,0.118
		l4.659,3.158l0.989-0.094l0.976-0.464l1.132-0.244l0.17-0.037l0.582-0.217l0.534-0.497l0.791-0.931l1.986-1.267l0.814-0.791
		l1.694-2.851l0.15-0.79l-0.903-0.188l-0.837-0.383l0.397-1.361l-0.404-0.561l-0.326-2.129l-0.417-0.922l-0.254-0.424l-0.147-0.533
		l-0.076-0.58l-0.02-0.573l0.066-0.186l0.132-0.038l0.117-0.096l0.015-0.333l-0.142-0.273l-0.46-0.125l-0.094-0.219l-0.036-2.365
		l0.102-1.15l0.3-0.983l0.254-0.343l0.707-0.5l0.379-0.351l0.191-0.309l0.305-0.743l0.178-0.295l2.182-1.606l1.068-1.045
		l0.847-2.606l0.984-0.438l6.708,0.613l1.098-0.213l2.08-0.9l1.216-0.16l0.392,0.054l1.093,0.334l0.364,0.268l0.511,0.285
		l0.514-0.27l0.509-0.441l0.488-0.231l1.002-0.283l2.065-1.053l1.16,0.064l0.809,0.713l0.458,0.992l0.534,0.882l1.043,0.382
		l0.636,0.125l0.254,0.314l0.188,0.414l0.28,0.262l0.168,0.157l0.458,0.178l1.531,0.282l-0.31-0.46l1.353,0.226l1.47,0.536
		l1.48,0.266l1.414-0.568l1.714-2.147l0.331-0.202l0.125-0.541l0.714-1.81l0.097-0.019l0.946-0.042l0.163,0.061l0.252-0.257
		l0.109-0.129l0.277-0.464l0.064-0.414l-0.066-0.567l-0.015-0.496l0.203-0.218l0.239-0.174l0.618-0.907l0.094-0.778l0.173-0.501
		l0.125-0.546l-0.059-0.916l-0.498-1.813l-0.107-0.867l0.272-0.719l-0.471-0.438l-0.445-0.66l-0.328-0.814l-0.132-0.89l-0.336-0.523
		l-1.617-0.502l-0.565-0.267l-0.829-1.301l-0.687-1.815l-0.231-1.917l0.572-1.586l0.989,0.824l1.106,0.226l1.152-0.193l1.152-0.432
		l-0.386-0.506l-0.173-0.513l0.013-0.532l0.173-0.577l0.343-0.192l0.58-0.106l0.544-0.231l0.244-0.558l0.249-0.331l0.237-0.127
		l0.953-0.511l0.409-0.31l2.21-2.938l2.174-2.264l0.521-0.383l1.678-0.726l0.503-0.517l0.605-1.054l1.276-3.451l1.447-2.853
		l0.455-1.541l0.6-0.347l0.671-0.18l0.493-0.253l0.666-2.138l0.005-0.527l-0.056-0.64l0.01-0.652l0.208-0.558l0.458-0.259
		l1.121,0.068l0.455-0.256l1.739-1.3l0.397-0.736l-0.979-0.753v-0.425l0.908-0.576l2.879-0.305l0.61-1.069l0.338-0.443l0.796-0.185
		l1.556,0.006l0.448,0.086l0.793,0.276l0.44,0.028l0.333-0.167l0.186-0.289l0.282-0.266l0.575-0.097l2.029,0.977l1.18,0.292
		l0.519-0.643l-0.163-1.427l0.358-0.447L561.622,30l0.628,0.174l0.562,0.33l0.509,0.445l0.496,0.55l0.292,0.497l0.412,1.148
		l0.32,0.523l0.509,0.419l0.361-0.023l0.384-0.175l0.593-0.023l0.61,0.146l1.378,0.704l1.897,1.408l3.039,3.161l4.056,1.701
		l1.686,1.131l1.17,1.843l0.313,2.784l-0.267,1.422l-0.893,2.702l-0.315,1.83l-0.91,1.776l-0.671,2.56l-1.465,2.77l-0.331,1.589
		l-0.498,1.414l-0.061,0.661l0.183,0.799l0.259,0.132l0.376-0.115l0.524,0.074l1.866,1.523l1.053,0.454l0.977-0.545l0.895-0.68
		l6.004-2.076l1.765,0.11l1.49,1.022l1.495,1.853l-0.366,0.432l0.152,0.754l0.081,1.359l-0.041,1.481l-0.193,1.123l-0.768,1.104
		l-1.816,1.181l-0.407,1.115l0.081,0.584l0.448,1.322l0.112,0.682l-0.081,0.612l-0.559,1.936l-0.234,1.918l-0.132,0.628
		l-0.239,0.522l-0.595,0.822l-0.178,0.352l-0.214,2.72l0.692,5.005l-0.478,2.486l-0.554,1.388l-0.153,0.885l0.371,2.378l0.092,2.61
		l-0.132,1.298l-0.295,0.777l-0.041,1.727l-1.816,3.114l0.178,1.486l-0.341,0.557l-0.285,0.937l-0.387,2.536l-0.102,3.724
		l0.102,0.755l0.295,0.656l0.849,1.328l0.173,0.728v2.523l0.153,1.337l0.427,1.11l2.792,4.547l0.493,1.233l0.336,2.833l0.371,1.254
		l0.544,1.162l0.661,1.069l1.658,1.745l2.065,1.094l2.309,0.514h2.39l2.416-0.457l1.917-0.802l14.276-10.665l1.287-1.413
		l1.673-0.965l0.448-0.467l0.712-1.085l0.488-0.55l1.943-1.34l4.979-2.031l2.212-0.455l3.397,0.627l1.658-0.837l7.334-1.094
		l0.437-0.586l0.3-1.188l2.049-3.231l2.294-4.785l1.465-2.024l1.958-1.206l2.309-0.439l1.221-0.428l1.083-1.3l3.509-2.132
		l3.54-0.357l0.997-0.681l0.564-0.854l0.844-1.808l0.773-0.949l1.877-1.479l0.432-0.154l1.063,0.407l0.534-0.253l2.401-2.589
		l0.778-0.585l0.997-0.34l1.226-0.128l1.17,0.157l0.829,0.501l0.814,0.239l3.062-1.698l2.197-0.064l5.894,2.182l3.418,0.913
		l2.131-0.048l1.755,0.213l-0.315,1.566l-0.056,0.509l-0.01,2.603l-0.326,0.899l-0.829,0.983l-0.849,0.711l-0.717,0.355
		l-1.892,0.195l-1.032,0.376l-1.037,0.903l-0.62,1.211l0.214,1.294l0.788,0.476l2.08-0.653l1.012,0.08l0.371,0.343l0.707,0.972
		l0.336,0.257l0.529-0.034l0.798-0.624l0.488-0.179l1.109,0.102l0.753,0.185l0.702-0.163l1.871-1.744l0.992-0.299l2.111-0.241
		l2.772-1.317l1.037-0.217l3.713-1.359l5.467-1.103l1.2-0.515l0.905-1.068l0.081-2.121l0.798-0.832l1.302-0.021l1.429,0.382
		l1.2-0.165l0.58-1.657l0.259,0.807l0.57-0.4l0.56-0.04l0.483,0.315l0.717,1.21l0.488,0.162l0.554,0.022l1.424,0.261l0.865-0.195
		l0.931-0.08l1.073,0.467l1.775,0.549l0.417,0.101l0.427-0.01l4.999-0.33l1.424-0.799l6.306,3.889l1.394,1.5l2.253,3.854l1.46,0.834
		l-3.896,0.969l-0.941,0.093l-0.529-0.354l-1.933-4.249l-0.325-0.478l-0.783-0.102l-0.595,0.43l-0.514,0.65l-1.114,1.026
		l-0.265,0.147l-0.982,0.105l-0.229,0.297l-0.163,0.399l-0.641,0.623l-0.137,0.246l-0.193,0.217l-0.407,0.15l-0.295-0.112
		l-0.615-0.653l-0.32-0.161l-0.692,0.075l-2.151,0.615l-1.582,0.035l-0.631,0.351l-0.524,0.982l-0.442,1.243l-0.539,0.779
		l-0.742,0.418l-1.048,0.153l-1.872-0.246l-0.687,0.308l-0.107,1.192l0.809,1.308l1.566,1.156l3.062,1.524l0.859,1.028l0.575,1.198
		l0.661,1.035L737.21,120.366z"/>
</g>
<g id="Copyright">
	<text transform="matrix(1 0 0 1 681.6426 577.5916)" class="st1 st2">© Vemaps.com</text>
</g>
</svg>
