<?xml version="1.0" encoding="utf-8"?>
<!-- Generator: Adobe Illustrator 23.0.1, SVG Export Plug-In . SVG Version: 6.00 Build 0)  -->
<svg version="1.1" xmlns="http://www.w3.org/2000/svg" xmlns:xlink="http://www.w3.org/1999/xlink" x="0px" y="0px"
	 viewBox="0 0 800 600" style="enable-background:new 0 0 800 600;" xml:space="preserve">
<style type="text/css">
	.st0{fill:#808080;}
	.st1{font-family:'Roboto-Regular';}
	.st2{font-size:14px;}
</style>
<g id="Azerbaijan">
	<path class="st0" d="M79.028,157.314l4.652,1.116l1.311,4.479l-1.683,3.605l-4.28-1.471l-1.475-1.908l-0.738-2.361l0.384-2.167
		L79.028,157.314z M81.735,124.643l11.259-9.341l17.907-14.875l3.786-1.326l3.859,0.203l2.203,1.146l5.68,2.953l1.835,0.366
		l2.378-0.211l3.902-1.195l1.744,0.317l1.707,1.968l3.841,3.633l16.96,6.637l7.682,1.567l2.756,1.104l0.146,0.974l-1.683,0.925
		l-2.707,0.966l-2.621,3.279l2.817,4.478l4.877,4.193l2.271,1.396l5.947,3.654l17.509,6.351l5.694,0.704l2.853-0.259l2.329-0.859
		l3.097-1.996l3.011-1.941l2.628-0.608l8.87-0.041l2.122,0.745l1.866,1.831l3.426,4.3l6.95,6.33l2.451,1.465l7.023,2.298
		l1.933,1.707l3.298,4.464l2.115,1.301l2.579-0.113l1.036-1.633l0.659-2.458l1.329-2.507l2.493-1.569l2.31,0.227l2.243,0.615
		l2.317-0.372l1.622-2.291l0.658-0.929l0.988-5.035l0.622-5.377l1.146-4.221l0.695-0.972l1.561-1.467l0.695-0.997l0.25-1.029
		l0.128-2.749l0.232-1.208l1.036-1.225l0.976,0.146l0.366-0.195l-0.744-2.288l-3.707-5.697l-2.28-2.565l-0.793-1.348l-0.141-0.094
		l-0.822-0.548l-1.829,0.723l-1.865-4.386l-5.792-3.47l-11.486-4.869l-5.523-5.156l-2.402-0.594l-1.378-0.643l-6.17-4.28
		l-2.03-2.621l-1.049-3.428l-0.941-6.153l-0.174-1.139l-2.621-5.038l-0.268-0.881l-1.634,0.065l-0.78,1.19l-0.585,1.455
		l-1.036,0.856l-3.176-2.662l-1.506-7.1l-0.055-8.012l1.116-5.415l2.28-2.431l2.573-0.286l5.523,1.267l2.457-0.237l1.884-0.923
		l1.719-1.545l5.072-6.214l2.53-4.115L250.26,30l2.53,0.676l3.182-0.131l5.45,0.745l2.128,1.269l0.658,2.996l-0.567,6.431
		l0.652,2.691l2.091,1.754l2.243-0.016l2.048-1.329l3.841-3.378l2.426-0.867l4.768-0.986l1.423-1.083l0.711-0.541l1.987-2.046
		l0.988,0.025l0.5,1.759l1.061,6.213l0.634,2.151l1.146,1.831l7.749,7.191l2.018,1.25l1.488,0.421l3.073,0.408l1.378,0.686
		l0.549,0.919l0.634,2.895l0.439,1.212l1.597,2.167l5.865,5.01l2.914,4.746l1.024,4.72l1.701,2.925l0.145-0.02l4.823-0.664
		l2.256-0.896l2.268-0.465l2.134,0.57l1.865,2.192l0.866,2.729l0.415,2.671l0.835,2.304l2.085,1.579l0.266,0.277l0.923,0.96
		l0.561,1.408l0.39,1.53l0.634,1.595l3.652,4.611l0.896,1.862l0.439,3.844l-0.219,8.229l1.171,3.597l2.073,2.078l8.974,5.428
		l2.691,1.011l0.979,0.368l12.217,1.176l2.573,0.884l3.329,4.669l2.14,1.71l2.414,0.024l4.176-2.788l2.28-0.908l2.366,0.284
		l6.175,3.155l3.5,1.788l2.262,0.478l8.23-0.738l1.799-0.161l4.999-1.532l2.774-1.742l0.5-1.532l-0.597-2.01l-0.536-3.227
		l0.341-3.269l1.097-1.525l1.573-1.136l1.731-2.094l1-2.857l0.561-2.46l1.244-1.316l3.06,0.528l2.652-1.519l3.883-11.256
		l2.237-4.351l3.896-2.416l13.601-2.653l3.481-1.888l6.176-5.366l10.199-6.404l2.701-2.955l2.384-4.534l4.975-13.707l0.801-1.041
		l8.075-10.498l5.697-9.167l1.229,1.095l3.629,2.21l4.167,3.768l10.407,14.498l4.032,4.095l1.651,2.462l0.682,3.836l8.055,9.111
		l4.503,9.776l2.391,0.878l1.987,2.077l1.498,2.448l0.979,2.038l2.736,4.036l0.48,0.941l0.595,0.647l2.919,0.89l0.989,0.557
		l1.757,2.65l4.263,8.938l3.571,7.506l1.709,2.524l1.479,2.938l0.71,3.423l1.459,13.598l0.749,2.876l1.296,1.211l0.806,1.804
		l2.007,11.204l5.626,9.392l14.151,16.085l1.171,1.784l1.056,2.52l2.496,2.171l5.376,3.344l2.631-0.698l2.227,1.967l2.112,2.639
		l2.362,1.313l1.296,1.515l-0.528,3.41l-2.055,5.804l-0.701,3.015l-0.173,1.634l0.144,1.728l0.49,0.987l1.584,1.981l0.346,0.797
		l0.077,0.133l0.826,1.38l2.093,1.993l2.304,1.746l1.584,0.74l5.127,0.31l2.304,0.62l1.872,1.088l4.205,3.749l2.323,1.138
		l5.914,0.796l5.05,1.593l2.784,0.246l2.16-0.442l6.557-2.743l2.823-0.493l13.432,0.493l0.989,0.986l0.518,1.087l0.384,1.125
		l0.528,1.049l2.103,2.596l2.247,2.04l2.391,1.339l10.667,2.298l2.064,1.162l1.296,2.323l1.44,3.584l1.786,3.331l2.333,1.451
		l2.563,0.933l2.189,2.364l1.728,3.108l1.171,3.207l1.21,12.776l0.816,1.271l0.979,2.894l0.605,3.195l-0.384,2.144l-2.266-4.414
		l-2.448-3.818l-2.928-3.43l-5.828-4.759l-2.487-1.392l-2.669-0.995l-5.271-0.731l-4.436-1.461l-2.362-0.315l-1.325,0.151
		l-1.603,0.706l-1.094,0.296h-4.532l-2.074,0.888l-3.994,3.338h-2.362l-0.845-0.749l-1.517-2.437l-0.931-1.039l-1.239-0.498
		l-3.034-0.529l-3.091-1.688l-2.343,1.31l-3.917,3.521l0.807,3.665l-3.322,3.418l-4.8,2.511l-7.834,1.774l-6.874,4.007l-9.025,3.351
		l-2.112,1.553l-4.532,5.015l-2.035,1.432l-1.306,1.69l-0.25,3.335l0.643,4.193l0.086,1.644l-6.365,2.485l-1.181,2.384l0.288,3.111
		l1.613,3.122l1.056,1.153l1.68,1.316l0.922,1.159l0.49,1.585l-0.662,0.977l-1.181,0.764l-2.074,1.929l-0.922,0.457l-0.883,0.645
		l-0.845,1.572l-0.538,1.841l-0.067,1.384l0.605,3.086l1.354,3.297l0.403,1.789l-0.547,1.783l-1.037,1.144l-0.902,0.75l-0.653,0.875
		l-0.23,1.469l0.211,0.856l0.394,0.813l0.317,0.919l-0.115,1.087l-0.499,0.675l-1.92,1.418l-0.72,2.174l0.048,0.962l0.672,1.062
		l-0.538,2.011l0.672,2.098l2.688,3.745l-0.144,1.31l-1.623,1.254l-3.053,1.722l-2.976,3.611l-2.535,3.086l-2.266,3.833l0.115,2.636
		l-1.373,2.542l-1.21,3.369l-0.931,3.549l-0.509,3.087l0.106,4.131l1.171,2.824l10.983,10.07l1.421,1.746l0.95,1.975l-0.106,0.671
		l-0.528,0.54l-0.739,5.085l0.163,1.527l0.989,1.75l-1.45-0.763l-1.085-0.956l-0.816-1.148l-0.662-1.297h-0.73l0.442,2.259
		l0.998,2.495l1.45,2.184l1.853,1.303v1.135l-2.659-0.639l-1.671-1.855l-1.498-2.178l-6.048-4.022l-3.927,1.514l-3.043,3.947
		l-1.21,4.838l0.086,16.669l-0.413,2l-0.547,2.693l-1.661,4.913l-0.566,2.369l-0.346,5.373l-0.538,3.233l-1.114,2.7l-8.852,6.226
		l-4.666,1.821l-3.274-2.686l0.374-1.779l-0.038-1.223l0.173-1.019l1.104-1.155l5.3-1.038l1.815-0.939l1.555-2.324l0.96-3.035
		l0.106-3.042l-1.334-2.864l-2.362-1.219l-5.636-0.167v-1.355l-0.691-6.239l-0.451-1.746l-2.093-1.765l-2.237-0.582l-5.04,0.173
		l-1.402,0.495l-0.691,1.214l-0.461,1.548l-0.979,2.192l-0.096,0.774l0.038,1.652l-0.25,1.188l-0.566,0.322l-0.576-0.006
		l-0.288,0.155l-0.221,7.101l0.403,3.734l1.92,3.263l-0.48,3.707l-3.168,10.892l-0.413,0.987l-2.304,5.441l-0.288,0.352
		l-3.341,4.076l-4.263-1.11l0.086,5.381l0.259,2.477l0.528,2.384l2.823,7.094l0.634,23.299l0.682,25.37v0.025l-7.617-1.591
		l-3.774-0.027l-2.64,1.444l-2.329,2.358l-2.987,1.875l-3.195,1.369L513.135,570l-5.446-0.452l-0.601-0.05l-3.768-3.672
		l-3.219-5.406l-1.534-1.943l-2.929-3.711l-1.756-2.493l-1.987-2.178l-1.939-3.043l-1.89-1.731l-1.524-2.047l-0.823-3.997
		l-1.353-3.269h-2.774l-5.981,2.797l-3.627-0.086l-2.134-2.024l-1.853-2.751l-5.718-4.594l-0.22-2.553l0.488-2.952l-0.552-2.203
		l-0.313-1.25l-1.488-1.254l-15.619-7.743l-7.669-6.149l-2.341-4.32l-0.28-6.233l1.097-1.723l6.182-3.839l0.341-0.98l-0.024-1.144
		l0.402-0.98l21.783-3.869l4.859-3.02l0.012-0.035h0.018l1.067-1.608l0.914-1.954l0.02-0.073l0.553-2.054l0.061-2.115l-0.628-1.919
		l-3.56-7.642l-1.774-1.744l-6.743-2.806l-6.718-6.538l-2.878-4.087l-1.585-4.08l0.219-5.232l2.17-4.332l3.414-3.27l3.975-2.065
		l7.389-1.49l6.206-4.203l3.061-0.982l1.243-0.399l-2.621-5.53l-3.316-4.562l-8.084-7.487l-19.826-23.885l-7.23-6.772l-2.28-1.577
		l-1.617-0.414l-0.053-0.014l-1.366,2.052l-1.232,1.141l-1.451,0.364l-8.974-0.174l-2.804,0.76l-2.28,1.592l-1.836,1.882
		l-5.065,5.188l-14.193,8.019l-2.122,1.198l-6.243,6.364l-1.524,1.043l-2.646,0.3l-8.255,2.829l-4.938,2.733l-3.853,3.246
		l-5.865,7.577l-0.014,0.014l-3.9,4.009l-3.544,2.019l-1.37,0.781l-11.754,4.596l-5.645,3.467l-1.146,1.308l-0.402,1.52
		l-4.268,6.843l-1.987,5.776l-0.61,1.129l-1.231,1.467l-0.807,0.457l-7.064,4.002l-1.433,0.267l-1.768-0.48l-3.292-1.474
		l-1.853,0.051l-1.96,0.908l-0.027,0.013l-1.792,1.502l-1.603,1.863l-3.03,5.281l-0.671,0.931l-0.939,0.762l-1.951,1.064
		l-0.914,0.762l-1.433,2.246l-1.981,4.609l-1.939,1.868l-6.84,3.5l-2.152,1.816l-1.573,2.043l-3.323,6.899l-1.353,2.171
		l-1.634,1.818l-1.829,1.512l-1.902,1.198l-2.555,1.034l-2.128,0.125l-4.097-8.673l-0.5-1.771l-0.116-1.846l0.201-1.878l0.415-1.843
		l0.171-0.435l0.085-0.479l1.548-4.821l0.341-4.254l-0.658-4.311l-1.488-4.996l-2.853-2.306l-3.926-2.236l-3.018-3.011l-0.116-4.68
		l2.719-2.549l4.133,0.535l7.17,3.65l1.451-0.212l5.469-3.91l2.481-0.094l1.036-0.511l-0.409-1.066l-0.151-0.394l-0.793-0.913
		l-0.78-0.716l-5.036-3.546l-2.853-3.016l-1.146-2.245l-0.622-2.426l-0.872-2.214l-1.884-1.561l-8.486-3.8l-3.865-3.005
		l-1.622-4.796l1.548-3.93l3.743-2.321l8.639-1.626l0.043-0.008l1.427-0.695l0.805-1.121l0.043-1.43l-0.811-1.611l0.037-2.528
		l1.378-1.264l1.719-1.067l1.061-1.944l-0.354-2.522l-1.445-1.977l-1.957-1.281l-1.902-0.419l-7.45,0.712l-2.329-0.403l-1.768-1.281
		l-2.78-3.774l-1.671-1.369l-4.036-0.293l-8.06,4.139l-4.097,0.854l-2.621-0.815l-1.731-1.661l-2.768-5.263l-1.701-2.098
		l-2.03-1.148l-4.475-1.299l-3.707-2.978l-4.548-9.257l-3.225-3.156l-7.444-2.253l-3.888-1.995l-2.514-1.29l-5.316-5.318
		l-0.902-1.858l-5.28-10.885l-2.554-2.838l-3.225-1.598l-12.303-1.272l-3.743-1.694l-0.217-2.126l-0.155-1.526l7.468-4.855
		l19.387,3.224l8.243-0.812l1.585-1.337l0.805-1.64l1.39-7.088l0.439-1.171l2.615-2.295l2.25-3.029l1.439-3.779l2.14-9.926
		l0.079-0.918l-0.079-0.91l-0.219-0.894l-3.03-4.017l-1.695-1.654l-1.719-0.911l-2.585,0.16l-1.676,0.492l-0.8,0.235l-2.365-0.128
		l-5.017-5.548l-0.092-0.102l-27.483-15.623l-6.987-6.558l-3.816-8.158l-0.994-1.804l-2.445-1.62l-1.091-1.227l-0.543-1.668
		l-0.268-3.434l-0.463-1.533l-2.055-2.576l-2.384-1.887l-2.268-2.24l-1.683-3.606l0.005-2.889l0.007-3.732l2.969-5.234l4.615-3.805
		l4.767-2.305l9.145-4.423l3.109-3.551l2.213-6.421l-0.213-3.45l-2.048-1.088l-2.78-0.202l-2.402-0.774l-1.865-1.911l-5.048-6.518
		l-3.121-2.575l-1.176-0.311l-1.665-0.44l-1.451-1.582l1.036-5.055l-0.719-3.7l-3.256,0.356l-1.13,0.566l-5.497,2.754l-2.689-0.436
		l-5.17-2.133l-5.56-0.654l-1.939-1.632l-1.829-1.98l-2.414-1.503l-3.853-4.027l-1.951-1.051l-0.341,2.846L94.55,162.4l-2.28-0.234
		l-2.554-1.73l-1.518-2.612l1.256-5.032l11.669,0.494l4.048-2.97l-0.152-2.493l-1.53-2.227l-6.176-4.859l-2.018-0.656l-7.706-0.008
		l-2.024-0.875l-0.652-1.945l1.189-3.307L81.735,124.643z M142.053,232.179l3.951-3.044l1.597-4.057l-3.073-1.752l-1.707-0.233
		l-1.725,0.032l-1.628,0.482l-1.475,1.069l-0.695,1.543l-0.244,1.623l0.232,1.622l0.707,1.494L142.053,232.179z M215.455,498.863
		l-1.158,0.157l-6.852-1.734l-7.803-3.54l-24.862-5.25l-2.715-1.067l-6.04-2.374l-10.51-0.11l-6.718-1.65l-3.268-0.114l-0.894-0.201
		l-0.557-0.125l-2.426-1.423l-1.858-0.495l-1.41-0.376l-2.682-1.326l-2.506-1.687l-1.36-1.616l-0.213-1.632l0.348-1.287l0.482-1.272
		l0.262-1.566l-0.567-1.017l-2.817-1.276l-1.116-0.829l-0.597-1.28l-0.927-3.268l-0.488-1.202l-1.11-1.186l-1.097-0.648
		l-1.024-0.774l-0.786-1.54l1.018-2.244l-0.671-1.631l-1.573-0.991l-1.646-0.33l-1.158-0.562l0.024-1.302l0.305-1.432l-0.329-0.956
		l-1.109-0.13l-1.073,0.421l-0.817,0.562l-0.305,0.283l-12.29-4.076l-3.091,0.96l-0.762-2.306l-1.231-7.59l-0.817-1.646
		l-1.006-1.465l-0.711-1.594l-2.16-4.844l-0.951-1.466l-1.091-0.615l-1.189-1.443l-0.963-1.585l-0.39-1.088l-0.646-0.781
		l-4.255-2.919l-0.415-0.537l-0.256-0.694l-0.421-0.6l-0.921-0.253l-1.28,0.039l-0.616-0.126l-3.006-2.186l-0.439-1.089l0.982-1.855
		l-2.469-2.187l-1.451-3.08l-3.536-14.703l-1.414-3.307l-2.487-1.78l0.463-0.451l0.354-0.697l-2.719-0.079l-2.524-0.491
		l-0.458-0.267l-1.688-0.984l-0.313-0.45l-1.327-1.909l-1.347-5.806l-1.152-1.925l3.347-1.474l5.475-0.999l5.158,0.079l4.024-0.967
		l3.074-1.727l0.694-0.39l4.353-3.37l4.426-1.523l4.011,2.022l0.883,1.134l7.817,10.034l1.213,2.558l0.512,2.835l-0.195,3.578
		l-1.158,5.516l0.463,2.231l2.311,1.487l4.347-1.036l3.353-3.125l3.158-1.068l0.736,1.039l2.935,4.143l1.396,3.179l1.189,1.723
		l1.719,0.696l5.584,0.522l2.061,1.083l3.726,3.815l0.017,0.017l1.268,0.743l1.329,0.205l1.341-0.269l1.317-0.671l1.256-0.537
		l9.486-6.061l3.158-1.312l14.466-3.524l0.66-0.161l2.737-0.048l3.255,1.258l2.67,1.929l1.061,1.929l0.024,2.592l-0.384,3.888v0.016
		l1.067,6.981l-0.524,2.408l-3.969,6.557l-0.75,3.052l0.677,1.578l0.311,0.724l6.694,1.727l2.426,1.986l2.243,2.443l2.817,2.19
		l1.721,0.845l6.729,3.306l2.408,2.307l0.774,1.197l0.268,1.149l-0.244,1.098l-0.799,1.027l-2.847,3.761l-0.719,3.874l1.073,3.998
		l2.493,4.119l3.066,4.408l2.39,4.814l6.145,17.197L215.455,498.863z M106.218,175.148l-2.731-0.444l-1.134-3.594l0.366-0.404
		l0.415-0.234l0.463-0.073l0.488,0.089l3.377,2.932L106.218,175.148z M744.338,278.995l-2.218-0.573l-1.479,0.478l-1.747-1.46
		l-1.152-2.292l0.269-2.009l1.536,1.209l1.133-0.359l1.037-0.793l1.21-0.057l1.69,1.82l0.528,2.43L744.338,278.995z
		 M717.149,263.254l-1.757,0.404l-2.343-0.126l0.586-3.77l-3.85-5.248l0.048-3.691l1.44,0.776l1.776-0.587l0.807,0.965l0.269,3.237
		l1.152,1.703l1.469,1.331l1.21,2.106l0.115,1.841L717.149,263.254z"/>
</g>
<g id="Copyright">
	<text transform="matrix(1 0 0 1 681.6426 577.5916)" class="st1 st2">© Vemaps.com</text>
</g>
</svg>
