<?xml version="1.0" encoding="utf-8"?>
<!-- Generator: Adobe Illustrator 23.0.1, SVG Export Plug-In . SVG Version: 6.00 Build 0)  -->
<svg version="1.1" xmlns="http://www.w3.org/2000/svg" xmlns:xlink="http://www.w3.org/1999/xlink" x="0px" y="0px"
	 viewBox="0 0 800 600" style="enable-background:new 0 0 800 600;" xml:space="preserve">
<style type="text/css">
	.st0{fill:#808080;}
	.st1{font-family:'Roboto-Regular';}
	.st2{font-size:14px;}
</style>
<g id="Bahrain">
	<path class="st0" d="M333.915,64.769l8.546,1.775l11.003,5.044l8.937,4.11l0.056-0.031l28.262-11.271l4.524,2.989l2.848,9.994
		l5.027,6.911l1.508,3.144l1.508,3.113l-3.854,8.155l-6.479,1.805l-19.549-2.739l-9.607,3.548l29.603,25.953l6.955-11.032
		l10.314-8.209l4.42,11.493l4.42,18.057l8.841,0.821l-6.969,8.691l-0.398,14.286l-13.843,3.473l1.052,11.632l2.97,32.832
		l-1.508,67.369l-10.221,84.078l-6.2,16.664l-19.94,32.79l-0.112,0.124l-4.58-23.048l-7.82-25.289l-10.836-24.644l-13.74-21.204
		l-29.938-34.005l-5.027-21.155l13.405-25.635l3.742-11.126l3.742-11.128l-3.91-28.758l-10.445-28.269l-11.674-20.594l-2.793-9.21
		l0.447-12.509l7.987-36.168l5.027-8.904l8.881-4.359l0.112,0.031h0.67L333.915,64.769z M261.017,116.236l7.367,2.463l7.367,4.104
		v13.132l1.473,10.669l1.473,11.488l-12.524-3.282l-13.261,0.821l-3.684-12.309l1.473-15.594L261.017,116.236z M519.497,462.07
		l5.646,0.964l5.647-4.339l6.949-3.857v4.821l-1.737,6.75l-5.212,7.713l-5.212,6.749l3.475,3.374l5.212,5.784l-2.606,3.856
		l-8.253-1.928l-3.909,2.892l-5.646,5.301l-2.606,2.891l3.04,10.119l5.212,7.227l1.303,4.818l-4.778,1.927l-2.606,4.818
		l-0.869,6.262l3.909,2.89l3.041,4.335l-4.344,4.335l-3.909,6.743l-3.475,6.742l1.737,4.816L507.336,570l-7.818-3.852l-5.212-8.187
		l2.606-7.224l5.212-12.042l-0.434-7.226v-10.599l-6.081-6.745l0.434-6.746l0.869-9.156l2.606-10.121l6.949-11.086l9.121-11.087
		L519.497,462.07z M520.366,438.443l5.212-2.411l4.778,0.482l0.869,4.822l-7.384,2.893L520.366,438.443z M540.346,494.366
		l10.424,0.482l-2.172,7.229l-5.646,3.855l-3.04-4.337l-1.303-3.855L540.346,494.366z M532.528,515.087l4.344,0.482l8.253,1.445
		l3.475,3.854l-0.869,5.781l-2.606,3.854l-2.606-0.964l-3.475-0.964l-4.778,0.964l-3.475,1.927l-3.04-6.263l1.303-3.854
		l-2.172-3.373l1.303-3.373L532.528,515.087z M400.994,36.573L422.359,30l15.471,8.217l0.737,11.502v11.5l10.314,14.784l8.841,4.106
		l-3.684,10.675l-3.684,4.106l-11.051-6.569l-2.947-10.676l-3.684-10.677l-9.577-2.464l-8.841-1.643l-5.894,2.464l-8.841-16.429
		L400.994,36.573z"/>
</g>
<g id="Copyright">
	<text transform="matrix(1 0 0 1 681.6426 577.5916)" class="st1 st2">© Vemaps.com</text>
</g>
</svg>
