<?xml version="1.0" encoding="utf-8"?>
<!-- Generator: Adobe Illustrator 23.0.1, SVG Export Plug-In . SVG Version: 6.00 Build 0)  -->
<svg version="1.1" xmlns="http://www.w3.org/2000/svg" xmlns:xlink="http://www.w3.org/1999/xlink" x="0px" y="0px"
	 viewBox="0 0 800 600" style="enable-background:new 0 0 800 600;" xml:space="preserve">
<style type="text/css">
	.st0{fill:#808080;}
	.st1{font-family:'Roboto-Regular';}
	.st2{font-size:14px;}
</style>
<g id="Brunei">
	<path class="st0" d="M641.29,107.211l0.326,11.888l4.759,4.843l6.897,3.273l6.684,4.548l12.993,18.499l33.792,98.021l2.246,12.311
		l-0.802,8.985l-4.171,20.517l-0.267,20.422l2.887,21.896l6.79,20.393l11.924,15.914l18.179,17.133l7.486,11.1l1.283,10.751
		l-7.486,8.191l-11.335-0.429l-11.977-5.242l-9.357-6.26l-4.545-1.689l-9.945,0.402l-5.4-2.292l-8.074-6.797l-4.331-1.555
		l-15.452,1.555l-10.801-2.333l-29.461-10.953l-6.844-4.598l-4.117-7.36l-6.202-51.137l-6.042-20.449l-16.896-40.418l-4.491-20.13
		l-2.085-42.222l3.622-41.156l9.482,9.769l9.473-6.084l10.231-11.471l11.578-6.148l11.199-2.366l0.337-6.063l-4.421-8.134
		l-3.031-8.662l1.137-3.993l3.368-2.028l4.842-0.613l5.852,0.169H641.29z M556.203,117.31l-11.793,11.824l-1.657,7.982l-0.428,8.68
		l-3.368,7.928l-8.234,5.084l-9.09,0.215l-9.517-1.61l-9.464-0.51l-11.603,3.193l-9.357,5.889l-16.682,15.962l-8.769,5.54
		l-18.981,7.981l-4.446,4.121l-0.634,0.587l-0.321,8.571l3.85,9.63l9.999,19.152l2.994,10.729l1.764,11.507l2.513,60.651
		l3.101,18.986l9.25,14.467l10.159,3.7l7.646-1.26l3.85,2.534l-1.176,14.855l-4.759,19.654l-3.85,8.687l-5.561,8.834l-12.457,12.046
		l-3.263,3.155l-3.048,4.786l0.321,10.643l16.148-6.582l1.764,9.048l-3.743,9.53l-11.817,17.679l-3.636,10.092l-2.887,21.417
		l-3.957,7.599l-47.587,45.511L373.097,570l-21.28-2.466l-2.567-4.101l-3.85-12.864l-2.513-5.32l-4.117-3.953l-10.961-7.732
		l-32.509-30.1l-7.379-9.945l-5.079-10.146l-10.747-32.798l-6.523-6.849l-9.571-0.563l-21.174,3.807l-22.617-4.477l-17.645-1.247
		l-2.406-4.745l-0.909-7.761l1.657-3.043l7.218-6.314l1.711-4.987l-3.529-23.165l-7.058-10.658v-14.466l-4.01-14.533l-3.048-5.698
		l-5.454-6.034l-1.711-3.392l-0.481-4.09l-1.176-3.459l-3.743-1.448l-7.967-0.215l-3.208-1.569l-3.957-10.633l-6.095-3.982
		l-12.725-4.881l-16.896-13.195l-10.908-5.699l-28.338-4.358l-33.829-16.146l130.851,4.393l38.775-7.371l35.744-20.169
		l51.069-18.438l18.019-6.505l10.862-10.709l7.957-15.018l18.693-19.011l62.52-49.878l19.409-11.789l87.023-52.866l66.941-27.81
		L608.535,30l9.768,3.804l0.758,6.762l-7.536,5.325l-16.167,7.248l-4.294,6.994l-8.589,20.644l-1.516,6.212l-3.494,7.12
		l-16.083,14.938L556.203,117.31z"/>
</g>
<g id="Copyright">
	<text transform="matrix(1 0 0 1 681.6426 577.5916)" class="st1 st2">© Vemaps.com</text>
</g>
</svg>
