<?xml version="1.0" encoding="utf-8"?>
<!-- Generator: Adobe Illustrator 23.0.1, SVG Export Plug-In . SVG Version: 6.00 Build 0)  -->
<svg version="1.1" xmlns="http://www.w3.org/2000/svg" xmlns:xlink="http://www.w3.org/1999/xlink" x="0px" y="0px"
	 viewBox="0 0 800 600" style="enable-background:new 0 0 800 600;" xml:space="preserve">
<style type="text/css">
	.st0{fill:#808080;}
	.st1{font-family:'Roboto-Regular';}
	.st2{font-size:14px;}
</style>
<g id="Bhutan">
	<path class="st0" d="M669.557,243.037l-1.366,10.709l-10.315,14.542l-1.457,9.517l4.805,18.228l2.072,3.538l6.262,5.09l1.935,4.146
		l3.461,3.927l5.032,1.566l5.442,1.014l4.873,2.175l0.011,0.016l3.655,5.161l0.25,3.823l1.161,1.885l6.513-0.667l17.124-6.016
		l5.943-1.013l8.061,0.5l2.824-0.988l6.513-4.914l2.596-0.873l4.896,5.902l19.287,35.836l0.865,2.947l-1.526,4.266l-6.877,5.879
		l-3.051,3.701l-0.797,2.241l-0.706,4.699l-0.638,2.138l-1.23,1.984l-2.869,3.059l-0.591,0.834l-0.616,0.868l-1.571,3.609
		l-1.116,4.274l-0.638,4.58l-0.046,4.515l2.687,8.044l10.976,11.058l3.803,7.885v0.026l3.734,14.218l-0.782,3.893l-1.678,8.352
		l-8.129,8.13l-13.389,2.029l-3.894-1.889l-6.991-6.024l-3.848-1.608l-3.325,0.945l0.524,3.229v3.65l-4.736,2.271l2.619,3.318
		l0.228,4.057l-1.822,2.819l-3.438-0.434l-2.345-3.393l-0.638-4.006l-1.23-3.611l-4.144-2.246l-6.581,1.225l-14.027,9.212
		l-6.49,3.138l-10.657,1.365l-3.484-0.255l-9.746-2.908l-3.985,0.153l-7.993,2.794l-4.122,0.306l-2.915-2.577l-5.055-11.037
		l-2.072-3.165l-3.188-0.944l-8.904-0.536l-3.051,0.498l-3.939,2.731l-2.277,3.867l-1.776,4.479l-2.573,4.567l-2.824,2.832
		l-3.416,2.27l-3.712,1.683l-3.666,1.008l-4.531,0.128l-3.097-1.224l-6.49-3.979l-7.56-1.773l-15.666,0.357l-7.742-0.957
		l-6.581,0.051l-10.859,4.99l-1.187,0.545l-13.859,0.807l-50.105,2.917l-28.487-3.214l-24.798-12.922l-20.403-14.664l-7.446-1.2
		l-4.463,1.481l-3.165,2.54l-2.937,2.987l-3.621,2.77l-4.065,1.353l-8.118-0.319l-4.019,0.345l-7.378,4.798l-5.556,14.886
		l-5.511,5.024l-8.38,2.384l-25.094,2.435l-13.913,3.735l-4.782,0.459l-2.232-0.344l-4.486-1.389l-0.269-0.043l-1.747-0.276
		l-0.831-0.408l-1.753-1.581l-0.899-0.077l-1.15,0.969l-0.456,1.275l-0.091,1.122l-0.114,0.548l0.011,0.535l-0.342,1.44
		l-0.694,1.644l-1.059,1.185l-0.797,0.013l-2.118-0.892l-0.877-0.178l-8.767,0.077l-1.238-0.199l-3.51-0.565l-11.807-5.251
		l-4.827-0.229l-7.697,3.199l-4.076,0.077l-2.71-2.154l3.518-6.808l-0.467-4.297l-5.568-4.464l-8.721-3.329l-9.051-1.518
		l-13.776,1.646l-7.833-4.044l-8.47-5.914l-6.001-4.191l-9.143,2.45l-3.04-0.14l-2.812,0.268l-2.345,1.863l-2.277,2.361
		l-2.596,1.735l-6.171,1.658l-6.216,0.612l-12.456-0.714l-6.957-1.965l-3.097-3.611l-1.788-5.028l-3.006-6.19l-3.484-3.868
		l-5.135-3.843l-5.499-2.49l-4.691,0.255l-2.095,1.545l-2.482,0.702l-2.596-0.268l-2.3-1.366l-1.548-2.503l0.023-2.388l0.341-2.567
		l-0.547-3.027l-3.928-4.803l-4.452,0.524l-4.258,3.641l-3.393,4.65l-1.343-12.213v-0.026v-13.509l-1.059-6.354l-2.903-5.601
		l-4.93-3.748l-13.811-7.356l-2.091-1.544L30,394.118l1.844-7.141l3.507-8.128l4.736-7.004l5.579-3.855l13.275-3.458l3.236-2.505
		l1.876-1.453l1.696-7.239l5.03-3.801l7.854,0.655l4.654,3.929l5.527-4.584l-3.491-5.895l-3.782-9.5l-2.854-9.982l1.43-5.908
		l1.906-5.237l3.694-3.626l-0.643-1.328l-1.066-2.2l-0.497-2.688l1.192-3.136l3.179-1.792l2.682-3.025l-0.497-2.689l2.98-3.81
		l3.775-0.784l1.391-3.811l2.483-3.475l2.881-1.906l6.059-2.466l2.384,0.56l0.774,0.164l0.815,0.173l2.185,1.009l1.139,0.833
		l0.596-3.093l6.315-9.55l9.294-16.148l4.051-10.098l1.835-9.133l7.446-4.917l8.983-4.159l8.05-6.188l7.514-10.041l10.406-19.778
		l0.797-1.515h0.046l5.146-9.098l3.142-4.147l3.643-3.38l4.406-1.665l4.338-3.471l10.236-13.173l3.951-2.498l4.053-1.291
		l26.437-4.817l8.38-3.823l3.917-7.099l1.594-3.999l3.347-2.856l7.423-4.743l1.958-2.191l3.393-4.842l1.958-2.133l2.357-1.203
		l1.697,0.769l7.671-4.524l8.018,1.84l4.201-2.451l4.156-0.647l17.715-6.159l11.605,2.472l6.528,3.296l5.077-0.824l5.077-5.769
		l5.803-2.473l7.979,5.769v9.063l6.536,9.454l8.38,1.39l5.393-10.844h7.253l6.528,4.119h8.704l10.88,8.235l9.429,0.823l8.704,3.293
		l2.176,8.232l-6.528,2.469l-4.352,8.228l-7.253,0.823l-6.528,7.403l-2.3,13.066l3.826-0.516l3.848,0.077l14.368,2.064l4.873-1.187
		l5.397-0.594l6.422-3.504l3.621-0.832l3.621,0.813l9.473,6.336l6.253,1.629l7.364,1.919l13.708,0.864l12.911,2.838l11.249,9.466
		l3.211,3.152l7.423,3.822l9.496,0.993l8.949-2.217l5.921-5.75l0.045-0.039l3.12-4.797l9.268-10.829l4.144-3.271l5.716-1.071
		l5.625,0.852l5.192-0.348l4.509-4.633L598.33,169l7.013,6.45l17.055,8.944l3.886,1.335l2.193,0.754l3.188,0.496l8.061,0.071
		l8.812,3.674l9.063,1.16l4.85,1.354l4.645,2.133l3.575,2.739l3.279,5.734l-0.865,4.87l-2.596,4.979l-1.935,6.117l-0.228,5.698
		L669.557,243.037z"/>
</g>
<g id="Copyright">
	<text transform="matrix(1 0 0 1 681.6426 577.5916)" class="st1 st2">© Vemaps.com</text>
</g>
</svg>
