<?xml version="1.0" encoding="utf-8"?>
<!-- Generator: Adobe Illustrator 23.0.1, SVG Export Plug-In . SVG Version: 6.00 Build 0)  -->
<svg version="1.1" xmlns="http://www.w3.org/2000/svg" xmlns:xlink="http://www.w3.org/1999/xlink" x="0px" y="0px"
	 viewBox="0 0 800 600" style="enable-background:new 0 0 800 600;" xml:space="preserve">
<style type="text/css">
	.st0{fill:#808080;}
	.st1{font-family:'Roboto-Regular';}
	.st2{font-size:14px;}
</style>
<g id="Belarus">
	<path class="st0" d="M118.712,540.67l-0.255-1.395l-0.885-0.534l-1.032-0.393l-0.804-1.631l0.442,0.043l0.443-0.043l-1.421-2.454
		l-0.563-1.454l-0.228-1.5l0.342-2.821l-0.087-1.013l-0.738-0.805v-0.781l0.583-0.081l0.396-0.243l0.831-1.035l-0.322-0.454
		l-0.396-0.722l-0.208-0.673l0.255-0.292l0.597-0.287l-0.147-0.652l-0.436-0.736l-0.235-0.541l0.369-2.414l0.262-1.123l0.261-0.753
		l1.1-1.273l1.361-0.837l1.247-1.241l0.724-2.439l-1.193-1.619l-1.019-1.901l0.724-0.871l0.268-2.277l0.778-0.437l-0.034-0.483
		l-0.047-0.125l-0.114-0.005l-0.255-0.103l0.422-1.19l0.047-3.404l0.422-1.936l1.227-2.921l0.851-1.347l1.019-0.759l-0.744-1.8
		l-0.919-3.983l-0.536-1.314l-0.067-1.216l-0.262-1.219l-0.791-0.554l-0.61-0.273l-0.389-0.669l-0.328-0.859l-0.429-0.819
		l-1.22-0.742l-3.077,0.096l-1.26-0.401l-1.803-3.613l0.261-0.372l0.181-1.265l-0.248-0.795l-1.086,1.058l-0.429-0.5l-0.644-0.541
		l-0.255-0.47l-0.892,1.082l-0.617-0.117l-0.583-0.604l-0.811-0.361l-0.932,0.361l-0.188-0.175l0.476-0.976v-0.656l-1.361-0.145
		l-4.029-1.518l-0.851-0.862l-0.999,0.391l-4.666-1.264l-1.462-0.939l0.516-1.884l-0.208-1.394l-0.711-1.044l-0.482-0.406
		l-0.477-0.402l-0.201-0.049l3.01-6.167l1.193-1.866l2.601-3.193l7.898-12.189l5.719-4.775l5.746-3.359l10.841-3.099l8.615-5.895
		l2.581-3.191l0.892-4.577l-0.134-3.219l-0.543-13.017l-0.168-0.822l-0.261-0.542l-0.221-0.645l-0.06-1.154l0.181-0.848l0.717-1.452
		l0.195-0.665l-0.027-0.862l-0.55-3l-0.007-0.688l0.154-1.295l-0.107-0.827l-0.744-1.597l-1.964-2.534l-0.557-1.829l0.087-2.107
		l0.624-1.488l0.784-1.301l0.583-1.558l0.148-2.621l-0.684-1.303l-1.113-0.867l-1.16-1.278l-0.771-1.676l-0.503-1.576l-0.637-1.531
		l-1.167-1.571l-1.146-3.087l-2.595-10.266l-1.301-3.439l-3.057-6.38l-5.504-16.976l-1.549-7.634l-0.147-6.729h-0.007l-1.576-2.324
		l-0.684-2.258l-0.597-5.842l-0.664-2.767l-0.858-2.536l-0.671-2.691l-0.08-3.228l2.239,0.586l5.826,3.54l1.113,0.398l1.006-0.085
		l3.198-1.377l4.056-0.581l1.126-0.831l0.999-0.398l0.449,0.091l1.167,0.689l0.55,0.171l0.503-0.085l4.954-2.864l0.979-0.188
		l1.012,0.422l1.911,1.236l1.066,0.256l4.157-0.051l1.917-0.535l4.009-2.17l2.132-0.387l2.045,0.712l1.817,2.215l1.12,3.165
		l0.691,1.058l1.254,0.245l2.192-0.097l2.058,0.62l2.333,0.023l2.346-1.195l7.435-6.684l3.272-1.903l4.143-0.815l1.549-1.197
		l0.241-0.046l0.241,0.063l0.235,0.154l0.838,2.149l0.959,0.952l1.187,0.085l4.204-0.689l1.146-0.621l0.825-1.875l0.007-0.011
		l0.007-0.011l0.007-0.006l0.127-3.017l-0.577-2.1l-0.872-1.89l-0.771-2.388l-0.302-1.686l0.114-0.371l0.409-0.04l0.577-0.732
		l1.213-0.766l0.034-0.423l-0.081-0.738l0.007-0.841l0.262-0.698l1.908-1.154l0.324-0.196l3.003-0.338l2.983,0.429l5.115,1.997
		l2.91-0.48l2.829-1.837l2.655-2.983l1.073-2.314l1.327-5.223l0.825-1.457l1.16-0.195l4.116,1.48l5.33-0.298l1.576-1.027
		l2.601-3.852l1.636-0.787l0.825,0.195l0.429,0.425l0.312,0.626l4.572,6.267l-0.55,0.419l-1.515-0.126l-1.327,0.763l-0.154,1.101
		l1.562,0.842l0.362,0.951l-0.469,0.825l-1.85,0.642l-0.483,0.779l0.489,1.981l1.475,1.414l1.75,0.864l5.745,0.955l1.421-0.046
		l0.677-0.401l1.026-1.436l0.704-0.321l2.434,0.332l0.771-0.115l1.495-1.128l0.516-1.741l0.06-5.071l0.201-0.51l0.764-1.032
		l0.154-0.493l-0.168-0.677l-0.315-0.235l-0.355-0.132l-0.261-0.367l-0.429-1.228l-0.509-0.999l-0.577-0.815l-0.624-0.695
		l-0.295-0.069l-0.744,0.247l-0.261-0.063l-0.248-0.408l-0.691-1.976l-0.194-1.086l-0.376-0.914l-0.885-0.517l-0.972,0.259
		l-3.889,2.051l-2.816,0.19l-1.408-0.546l-0.885-1.437l0.087-2.8l1.22-2.405l2.977-3.603l1.16-2.419l0.241-2.15l-0.047-2.324
		l0.282-2.925l0.711-2.263l0.992-1.345l3.969-2.363l1.24-1.277l0.905-1.74l0.335-2.227l-0.369-2.164l-1.609-3.978l-0.436-2.219
		l0.074-1.414l0.282-1.113l0.342-1.032l0.255-1.189l0.101-1.161l-0.221-5.737l0.201-1.505l0.69-1.006l1.415-1.273l0.637-0.326
		l0.443-0.012l0.328-0.215l0.288-0.948l-0.04-0.931l-0.557-2.246l-0.094-1.007l0.677-2.12l1.287-1.346l1.508-1.171l1.354-1.603
		l0.416-1.155l0.114-1.021l0.235-0.846l0.764-0.659l2.44-1.045l1.187,0.035l2.36,0.549l1.207,0.023l7.877-1.617l2.34-1.349
		l0.972-1.08l1.083-1.668l1.136-1.75l2.387-5.223l0.308-0.966l0.121-1.364l-0.06-2.811l0.174-1.289l2.038-3.23l2.923-0.516
		l7.187,1.877l0.55-0.012l0.637-0.205l0.402-0.446l0.382-0.669l0.55-0.557l0.925-0.106l6.845,3.078l1.428-0.258l0.999-1.653
		l0.724-3.297l0.416-3.152l0.469-1.21l1.026-1.422l1.864-1.851l0.999-0.594l2.518-0.676l1.666-0.447l1.562-1.194l0.717-1.836
		l-0.593-1.919l-1.488-1.148l-10.764-1.896l-3.915,1.06l-1.099-0.059l-3.868-1.455l-1.019-0.707l-0.295-1.19l0.63-2.122l1.549-2.884
		l0.449-1.08l0.858-4.257l0.556-1.264l2.299-2.341l0.208-1.33l-1.22-2.396l0.288-2.758l1.267-2.09l1.589-1.842l1.26-2.003
		l0.624-2.532l0.161-3.026l-0.248-3.082l-0.603-2.727l1.368-2.414l1.589-0.874l1.736,0.184l3.453,1.392l1.488-0.113l5.176-2.676
		l1.294-1.523l3.721-6.843l3.741-4.601l1.402-0.89l0.107-0.068l8.414-1.086l2.638,0.442l1.411,0.776l4.043,3.451l1.783,0.996
		l1.26-0.537l3.03-2.967l1.328-1.575l1.619,1.892l2.028,1.211l2.139,0.647l8.159,0.751l1.824-0.232l0.57-1.774l0.56-2.464l0.456-5.5
		l1.807-5.124l6.449-4.274l2.112-3.786l0.275-2.782l2.031-2.105l4.418-3.409l0.784-1.537l0.57-1.424l0.644-1.268l1.012-1.061
		l0.818-0.43l2.682-0.577l2.776-1.353l1.771-1.282l1.112-0.805L410.923,30l2.46,1.676l1.311,1.997l4.499,4.959l2.005,2.838
		l1.327,1.348l1.368,0.456l1.461-0.879l2.145-3.354l1.508-1.099l9.604-1.064l3.691,0.619l1.086,0.457l0.6,0.637l1.063,2.006
		l2.259,3.271l0.563,1.182l0.61,2.726l0.355,2.754l0.707,2.354l1.656,1.512l4.998,1.416l1.421-0.359l0.141-2.7l1.73-1.794
		l4.049-1.819l0.007-0.006l0.013-0.006l3.788-2.47l3.238-1.236l3.754,0.111l3.684,1.298l3.081,2.308l2.018,1.618l9.949,2.8
		l1.18,0.73l1.133,1.128l1.2,1.598l0.617,1.071l0.218,0.927l-0.251,0.738l-0.443,0.117l-0.53-0.054l-0.53,0.23l-0.624,0.478
		l-0.53,0.23l-0.496,0.406l-0.51,0.974l-0.221,1.007l-0.328,2.825l-0.241,1.203l-1.542,3.873l-0.295,1.831l0.463,2.414l0.821,1.68
		l3.221,2.733l3.111,4.658l1.287,0.714l1.767-0.505l5.011-6.049l6.409-3.756l1.73-0.364l4.478,1.147l1.676-0.882l2.534-4.743
		l1.602-2.077l2.487-1.462l2.588-0.576l2.628,0.161l7.656,2.874l1.693-0.573l2.913-2.83l1.492-0.764l1.136,0.328l2.189,2.024
		l1.25,0.806l12.845,4.286l0.556,0.668l0.027,0.993l-0.389,0.942l-0.164,0.959l0.741,1.001l5.766,2.817l0.684,0.548l0.476,0.744
		l0.268,1.452l-0.208,1.047l-0.302,0.928v1.082l0.818,1.593l1.314,0.903l1.462,0.339l2.648-0.214l0.892,0.481l0.623,1.129
		l0.63,1.799l1.891,3.709l1.85,0.326l2.165-1.24l2.826-0.997l2.497,1.211l1.36,2.607l0.37,0.708l0.449,4.255l-1.321,4.05
		l0.972,0.669l0.328,0.112l-0.402,1.444l-1.689,1.331l-0.382,1.904l0.506,2.062l1.049,1.435l0.865,1.512l-0.02,2.267l-0.801,1.345
		l-3.912,2.837l-2.232,3.2l-0.912,2.144l-0.188,2.137l0.637,1.43l1.12,0.977l2.299,1.241l0.845,1.358l1.083,4.208l0.922,1.41
		l3.017,2.36l0.815,0.998l0.091,0.458l-0.282,1.027l0.127,0.575l0.221,0.176l0.664,0.229l0.168,0.153l0.288,0.598l0.295,0.381
		l0.094,0.575l-0.315,1.19l-0.516,0.768l-0.154,0.809l0.181,0.85l0.489,0.867l0.882,2.184l0.791,2.786l-0.05,2.199l-1.622,0.491
		l-3.057-0.789l-1.314,0.117l-0.429,1.362l0.67,1.87l0.939,1.227l0.302,1.349l-1.214,2.178l-1.16,0.858l-3.949,0.811l-1.542,1.26
		l0.168,1.172l0.65,1.703l-0.087,2.827l-0.999,1.8l-1.482,1.555l-1.281,2.002l-0.355,3.147l0.516,1.797l1.002,0.75l2.675,0.936
		l9.946,7.345l0.965,1.775l0.228,2.076l1.421-0.261l5.464,0.603l1.522,3.129l2.551,2.108l-1.847,4.335l-3.238,5.255l-1.616,4.874
		l1.877,1.437l4.82,1.379l0.721,1.53l0.013,0.027l1.934,0.565l1.059,2.231l1.515,5.713l0.845,1.37l0.805,0.874l0.69,1.029
		l0.469,1.794l0.463,6.52l0.69,3.139l0.965,1.675l10.117,8.05l1.669,1.408l1.589,0.721l3.389,0.875l5.437,3.06l2.005,0.434
		l1.814,0.052l0.711,0.366l0.737,0.869l0.496,1.257l0.442,1.617l0.563,1.302l0.794,0.303l1.619-1.125l0.349-0.12l0.57,0.4
		l0.081,0.366l-0.02,0.514l1.488,5.871l-0.328,0.855l-0.114,0.809l-0.027,0.821l-0.087,0.843l-0.744,2.421l-1.059,6.34l-1.14,2.769
		l-2.514,4.158l-0.593,2.719l2.766,0.051l5.571,1.895l13.65-3.57l1.455,0.295l3.815,2.775l8.146,2.286l2.296,1.689l2.048,2.822
		l0.935,0.583l3.228-0.153l1.334,0.204l1.26,0.782l1.234,1.614l0.469,0.81l0.154,0.826l-0.154,0.82l-0.469,0.792l-4.83,2.517
		l-0.456,0.441l-0.07,0.871l0.201,1.921l0.674,3.005l1.163,2.269l1.525,1.659l1.793,1.173l3.258,1.551l1.522,1.161l1.012,1.984
		v0.022l0.449,0.693l0.486,0.197l0.533-0.242l0.523-0.648l1.14-0.203l1.14,0.175l0.945,0.547l-0.174,0.907l-0.385,1.126l0.332,1.199
		l0.744,0.253l1.964-0.715l0.825,0.011l1.187,2.466l-0.113,0.917l-0.866,7.034l0.845,3.42l-1.267,0.982l-1.046-0.098l-0.979-0.494
		l-1.093-0.253l-4.535,1.01l0.228,0.342l0.546,1.018l0.261,0.387l-1.736,1.024l-2.065,0.409l-2.055-0.23l-1.626-0.867l-1.669,0.513
		l-0.496,1.267l0.57,1.191l1.502,0.311l-0.644,2.11l-0.878,2.036l-2.078,3.496l-1.173,1.27l-1.066,0.546l-2.353,0.778l-2.112,1.913
		l-1.629,2.37l-1.763,1.74l-3.392-0.081l-0.335,0.405l-0.094,0.586l-0.154,0.427l-0.013,0.274l0.034,0.508l-0.07,0.519l-0.312,0.301
		l-0.241-0.02l-0.57-0.162l-2.353,0.313l-1.673,1.309l-0.6,0.338l-2.239-0.092l-4.727-1.945l-1.904,0.209l-1.676,0.868L658.702,374
		l-1.529-0.388l-3.352-1.979l-0.835-0.209l-2.323,0.235l-0.684-0.257l-1.026-1.673l-0.697-4.477l-0.871-1.874l-1.15-0.646
		l-2.859-0.039l-1.267-0.252l-3.952-1.573l-1.324-0.101l-1.294,0.389l-2.447,1.324l-1.549,0.087l-3.117-0.641h-3.091l-2.454,1.944
		l-1.207,5.213l0.08,1.355l0.027,0.137l0.215,1.114l0.141,1.167l-0.218,1.097l-0.62,0.72l-1.602,0.299l-0.664,0.321l-3.238,5.175
		l-1.441,1.513l4.901,4.016l1.073,2.054l1.757,5.328l1.408,2.212l1.958,1.908l2.132,1.399l1.924,0.674l1.589,0.219l0.496,0.844
		l0.154,1.359l0.57,1.794l0.935,1.267l0.791,0.549l0.667,0.823l0.563,2.098l0.047,4.527l-1.448,2.095l-4.364,2.481l0.717,1.65
		l2.883,3.915l1.931,4.309l0.851,1.316l2.346,2.054l0.872,1.122l-0.281,1.067l-0.878,0.22l-2.36-0.562l-0.979,0.077l0.282,0.372
		l0.798,1.314l-1.153,0.504l-0.493,0.865l0.157,1.027l0.811,1.024l1.455,1.068l0.094,2.617l-0.392,3.165l-0.03,2.715l0.486,1.162
		l0.66,0.898l0.489,1.161l0.034,1.916l-0.379,1.435l-0.68,1.306l-0.821,1.072l-0.794,0.757l1.931,2.872l1.073,1.197l1.153,0.874
		l1.12,0.4l2.253,0.403l1.039,0.608l-0.684,0.873l-0.453,1.352l-0.158,1.546l0.188,1.474l0.463,1.096l0.597,0.648l3.265,2.274
		l0.878,1.492l0.262,2.089l-0.148,3.117l-7.422,0.393l-11.357-2.21l-5.953,0.03l-5.102,2.112l-1.307,1.716l-0.999,2.111
		l-1.066,1.766l-1.522,0.662l-1.562-0.602l-2.963-2.551l-1.582-0.903l-2.497-0.311l-8.887,0.521l-1.616,0.524l-1.012,1.112
		l0.382,1.782l-0.322,0.529l-0.188,0.518l-0.144,0.504l-0.218,0.529l1.897,0.262l0.624,1.402l-0.577,1.367l-1.69,0.128l-0.443-0.607
		l-0.362-0.171l-0.382,0.174l-0.53,0.419l-0.51,0.65l-0.121,0.648l0.04,0.542l-0.02,0.34l-0.664,0.909l-0.717,0.778l-0.805,0.661
		l-0.925,0.574l-1.837,0.712l-0.034,0.378l0.174,0.652l0.349,0.438v0.715l-0.878,1.225l-0.577,0.644l-0.563,0.283l-1.931-0.179
		l-0.523,0.179l-0.248,0.665l-0.04,0.983l-0.174,0.893l-1.334,0.711l-0.416,0.692l-0.308,0.695l-0.355,0.317l-0.181,0.364
		l-1.415,1.855l-0.416,0.757l-0.282,0.312l0.02,0.401l0.476,1l0.06,1.629l-1.153,1.195l-1.448,0.956l-0.798,0.91l1.294,0.652
		l0.523,0.06v0.782l-0.721,0.774l-0.198,1.226l-0.094,1.296L574,520.959l-0.724,0.333l-2.011,0.065l-0.811,0.249l0.369,1.414
		l-0.758,2.208l0.389,1.443l-0.443,0.438l-0.53,0.789l-0.349,0.27l0.188,0.402l0.245,1.015l-0.828,0.365l-1.864,1.719v0.774
		l1.26,1.087l0.556,0.34v0.647l-0.509,0.143l-0.272,0.178l-0.218,0.21l-0.335,0.248v0.647l0.751,0.987l2.159,0.625l1.076,0.523
		l-0.493,1.161l-0.322,0.49l-0.556,0.485l0.791,0.595l0.67,0.695l0.282,0.773l-0.372,0.848l0.318,1.252l0.543,0.786l0.67,0.463
		l0.684,0.28v0.78l-0.865-0.164l-0.731,0.242l-0.489,0.734l-0.131,1.315l0.251,1.234l0.5,0.25l0.677,0.04l0.788,0.607l0.288,0.688
		l0.637,2.925l0.329,0.558l0.456,0.615l0.067,0.542l-0.852,0.349l0.382,2.933l-1.807,1.902l-1.981,1.44l-0.174,1.52l-1.16,2.042
		l-0.178,0.209l-0.084,2.472l-0.043,0.099l-0.258,0.592L568.463,570l-0.493-0.98l-0.727-0.806l-0.825-0.546l-0.871-0.233
		l-0.905,0.11l-1.016-0.319l-1.445-2.189l-0.952-0.903l-0.945-0.238l-1.931,0.013l-0.992-0.389l-0.865-0.788l-1.984-2.564
		l-0.483-1.103l0.181-0.105l0.543-2.168l0.114-0.819l0.007-1.077l-0.07-0.822l-0.184-0.69l-0.389-0.709l-0.831-0.782l-3.275-1.607
		l-0.915-0.973l-2.427-3.34l-1.82-1.354l-1.86-0.514l-9.078,0.245l-1.488,0.439l-3.935,2.082l-0.811,0.046l-1.039-0.705
		l-0.667-0.062l-0.821,0.584l-1.093,2.012l-0.657,0.723l-1.167,0.306l-5.886-0.992l-0.818-1.14l-0.57-1.584l-1.073-1.878
		l-1.12-0.781l-1.421-0.202l-1.495,0.234l-1.281,0.546l-1.341,1.216l-0.918,1.369l-0.972,1.165l-1.502,0.621l-1.689,0.194
		l-0.878,0.452l-0.644,1.229l-0.952,2.537l-0.945,1.684l-1.291,0.016l-2.832-1.168l-1.495,0.478l-1.714,1.506l-0.824,0.723
		l-1.337,0.47l-1.488-0.846l-0.805-1.874l-0.55-2.27l-0.731-2.01l-1.327-1.56l-1.079-0.804l-0.436-1.181l0.61-2.699l-0.255-2.728
		l-0.758-1.711l-2.165-3.291l-1.364-3.79l-0.808-1.287l-1.562-0.983l-2.608-0.645l-1.327,0.065l-1.274,0.462l-1.294,1.269
		l-1.535,3.303l-1.24,1.351l-1.703,0.647l-4.002,0.04l-1.897,0.413l-2.058,1.11l-2.078,1.633l-1.817,2.225l-1.274,2.873
		l-0.181,1.755l0.141,3.967l-0.315,1.535l-1.167,1.325l-0.684-1.078l-0.463-1.938l-0.463-1.288l-0.831-0.083l-0.858,0.557
		l-0.932,0.425l-1.073-0.522l-0.63-1.105l-0.416-1.458l-1.019-5.828l-0.161-2.123l-0.57-1.42l-1.676-0.685l-5.819-1.243l-1.76,0.038
		l-1.679,0.577l-3.232,2.2l-1.679,1.636l-0.828,0.439l-0.845-0.337l-0.369-0.833l-0.697-2.879l-0.422-1.095l-0.805-0.89
		l-1.867-1.179l-0.774-0.782l-0.546-1.182l-0.064-0.942l0.033-0.888l-0.245-1.048l-0.955-1.099l-1.321-0.087l-1.455,0.708
		l-1.388,1.264l-1.267,1.955l-2.105,4.05l-1.562,1.416l-1.254,0.461l-6.336-0.019l-1.193-0.31l-1.213-0.65l-3.922-4.284
		l-1.388-0.761l-1.488,0.251l-1.214,1.139l-0.845,1.756l-0.409,2.106l0.034,1.326l0.164,1.124l0.057,1.14l-0.298,1.387l-0.339,0.665
		l-3.034,4.116l-0.677,0.651l-1.029,0.151l-0.922-0.398l-1.056-0.831l-0.872-0.969l-0.269-0.56l-0.133-0.277l2.152-5.247l0.51-2.626
		l-0.811-2.179l-1.026-0.583l-3.647-0.113l-7.018-2.841l-0.008-0.003l-2.273-0.057l-1.2,0.645l-1.804,1.992l-1.425,0.701
		l-1.337,0.103l-3.848-0.65l-2.581,0.834l-1.415,0.154l-0.872-0.823l0.369-1.767l0.959-2.246l0.194-1.812l-1.917-0.473l-1.576,0.205
		l-1.301-0.151l-0.945-0.902l-0.516-2.054l0.027-2.796l0.174-2.232l-0.409-1.637l-1.736-1.015l-2.668-0.593l-5.732-0.222
		l-6.537,2.307l-4.284-0.715l-12.262-5.456l-14.28-0.442l-0.912-0.485l-0.798-1.122l-0.148-1.02l0.194-0.955l-0.013-0.749
		l-0.778-0.393l-15.078-0.64l-1.944-0.855l-4.19-3.763l-1.958-0.437l-4.505,0.141l-13.831-2.633l-5.477,1.103l-8.827-0.15
		l-12.677-0.215l-10.941-2.974l-2.936,0.084l-2.943,0.968l-5.833,3.079l-18.222,2.958l-1.348-0.06l-3.976-0.969l-16.15,1.273
		l-1.374,0.516l-1.408,1.466l-2.36,3.527l-0.999,2.039l-1.542,6.84l-1.83,2.584l-7.355,5.067l-9.694,8.756l-2.595,0.426l-1.844-1.74
		l-1.817-2.224l-2.568-1.039l-1.622-0.151l-4.579-1.38l-1.522-0.041l-6.309,1.653l-0.798,0.445l-0.664,0.697l-0.784,1.374
		l-0.067,0.836l0.376,0.834l1.763,5.018l0.154,1.008l-0.295,1.597l-0.563,0.291L118.712,540.67z"/>
</g>
<g id="Copyright">
	<text transform="matrix(1 0 0 1 681.6426 577.5916)" class="st1 st2">© Vemaps.com</text>
</g>
</svg>
