<?xml version="1.0" encoding="utf-8"?>
<!-- Generator: Adobe Illustrator 23.0.1, SVG Export Plug-In . SVG Version: 6.00 Build 0)  -->
<svg version="1.1" xmlns="http://www.w3.org/2000/svg" xmlns:xlink="http://www.w3.org/1999/xlink" x="0px" y="0px"
	 viewBox="0 0 800 600" style="enable-background:new 0 0 800 600;" xml:space="preserve">
<style type="text/css">
	.st0{fill:#808080;}
	.st1{font-family:'Roboto-Regular';}
	.st2{font-size:14px;}
</style>
<g id="Costa_Rica">
	<path class="st0" d="M512.144,57.137l1.885,2.2l2.396,4.422l1.702,4.705l-0.217,3.018l-1.377-1.709l-2.465-6.111l1.587,7.622
		l-0.16,3.08l-2.709,2.33l1.435-0.264l0.969-0.668l0.912-0.831l1.225-0.781l-0.427,0.485l-0.099,0.583l0.16,0.691l0.366,0.784
		l0.359-1.122l0.397-2.19l0.527-1.188l4.544,12.617l5.701,13.5l6.719,11.298l17.892,23.51l1.439,1.105l5.975,7.348l3.69,3.662
		l2.232-1.255l0.855,0.546l2.473,0.434l0.511,0.728l0.069,1.778l0.298,1.484l0.687,1.317l1.221,1.271l4.365,6.507l1.396,0.999
		l5.403,7.327l4.075,3.864l2.396-0.736l0.542,1.494l0.515,3.832l0.866,1.757l1.446,1.115l6.292,2.198l2.236,0.232l2.198-0.077
		l2.068,0.17l1.824,0.968l2.347,3.553l1.58,0.967l0.091,0.058l1.009,3.566l-0.729,0.044l-1.432-0.762l-1.427-0.231l-0.666,1.027
		l-0.392,3.648l-0.606,1.216l-1.245,0.194l-1.742-0.302l-1.64-0.506l-0.923-0.437l-0.996-1.11l-1.199-2.292l-0.959-1.088
		l-0.754,0.349l-0.904-0.339l-3.913-3.324l-5.432-2.175l-1.73,0.197l-1.742,1.482l-1.064,1.511l-0.174,0.882l1.136,2.022
		l0.649,2.609l0.402,0.548l0.613,0.187l0.431,0.265l-0.15,0.774l-1.398,0.803l-5.001,0.688l-1.752,0.621l-0.787,1.329l-0.242,1.825
		l0.102,7.874l0.145,11.392l0.2,15.557l0.013,1.051l2.806-1.18l0.865-0.005l0.652,0.486l0.337,0.719l0.264,0.748l0.417,0.584
		l0.55,0.324l2.108,0.945l4.306,3.192l4.264,1.46l1.272,0.846l2.418,4.096l0.373,0.893l-0.074,0.122l-1.285,2.112l-2.806,1.712
		l-9.672,3.975l-1.093,0.787l-0.913,1.219l0.446,0.431l0.744,0.461l-0.015,1.292l-0.875,1.017l-2.791,1.746l-0.758,0.819
		l-0.111,1.419l0.463,1.341l0.833,1.248l2.944,3.307l1.568,2.216l1.165,2.451l0.744,2.882l0.552,6.611l-0.276,3.332l-0.88,2.793
		l-2.074,2.565l-2.447,1.21l-2.651,0.816l-2.694,1.389l-4.151,3.975l-4.269,2.41l-0.826,0.673l-0.107,1.188l0.86,0.923l2.626,1.55
		l0.497,0.534l0.906,1.339l0.523,0.419l0.594,0.034l1.132-0.453l0.855,0.12l1.64,0.867l0.642,0.972l0.429,3.006l4.94,10.861
		l-0.465,4.229l-0.587,2.159l-1.277-1.005l0.145-1.445l0.71-1.595l0.424-1.453l-0.259-1.16l-6.388-11.005l-2.259-2.387
		l-11.653-8.503l-3.19-3.143l2.755-3.379l0.508-0.27l0.527-0.972l1.019-1.261l0.649-1.454l-0.595-1.52l-3.064-3.839l-0.515-1.076
		l-0.05-1.401l0.668-0.49l1.168-0.347l1.473-0.938l-1.107-0.355l-2.736,0.147l-1.339-0.498l-0.698-0.783l-1.866-3.693l0.309-0.49
		l0.149-0.332l0.183-0.533h0.641l0.904,1.54l0.275,0.753l0.103,1.27l0.412,0.212l2.789-1.123v-0.706l-1.282-0.544l-1.358-1.011
		l-1.156-1.212l-0.687-1.123h-0.641l-0.71,1.165l-1.706,0.07l-1.95-0.228l-1.454,0.289l-0.687-1.274l-1.099-1.335l-1.301-0.679
		l-1.332,0.702l-2.972-1.756l-0.87-1.424l0.58-2.003l-0.641-0.046l-0.637,0.046l0.385-1.552l-1.328-0.745l-1.977-0.413l-1.568-0.525
		l-0.549,1.112l-0.496-0.081l-0.618-0.452l-0.95,0.004l-0.446,0.51l-0.115,0.668l-0.389,0.579l-1.267,0.247l-3.102-0.467
		l-1.263,0.463l-0.466,1.888l0.71-0.544l-0.011-0.043h0.584l3.293,4.975l0.435,1.509l1.923,3.041l0.748,0.895l1.236,0.637
		l3.503,1.065l1.408,0.181l1.29,0.776l1.229,1.509l1.187,1.015l1.156-0.706l0.05,2.338l-0.187,0.961l-0.569,0.641v0.648l1.416,1.944
		l0.572,3.318l-0.248,3.448l-1.034,2.353l-2.106,0.077l-3.43-1.107l-3.232-1.566l-1.534-1.284h0.576l0.42,0.336l0.343,0.154
		l1.274,0.15l-1.809-0.814l-0.733-0.482l-0.778-0.698v1.354l-5.407-2.372l-1.923-0.278l-5.743,0.698l-1.591,0.008l-1.355-0.644
		l-1.248-1.288l-2.286-2.982l-8.154-7.616l-0.523-0.861l-0.404-0.104l-1.919-0.787l-0.584-0.37l-0.29-2.948l2.854-4.415l0.664-0.764
		l1.473-0.88l1.007-0.39l0.462,0.274l0.298,0.567l0.649-0.656l2.282-3.501l0.614-0.656l-1.175-1.506l1.416-1.695l2.576-1.39
		l2.305-0.591v-0.587l-2.03-0.243l-1.019,0.093l-0.698,0.564l-1.084,1.174l-1.099,0.517l-0.366-0.911l0.446-1.61l1.312-1.587
		l2.324-1.135l1.068-0.741l0.446-1.07l-0.584-0.962l-1.217-0.668l-1.107-0.896l-0.233-1.657l1.812,0.931l0.878,0.274l1.148,0.035
		l-0.561-0.695l-0.71-0.529l-1.351-0.722l-0.572-0.475l-0.324-0.44l-0.5-0.301l-1.103-0.077l1.137-0.688l-0.16-0.498l-0.653-0.379
		l-0.324-0.324l0.424-1.043l0.481-0.776l0.656-0.688l0.939-0.788l-2.484-6.548l-0.458-0.831l-1.538-1.696l-0.641,0.641l-2.106-2.747
		l-1.919-3.204l-2.465-2.512l-3.751-0.673l0.217-2.45l-2.064-2.095l-2.835-1.45l-2.099-0.549l-7.368-7.075l-7.223-3.372
		l-1.156-0.905l-9.02-3.566h-0.584l-0.607,0.445l-0.527-0.004l-0.439-0.406l-0.351-0.743l-1.286,0.557l-0.767-0.615l-0.87-0.893
		l-1.61-0.29l1.007-1.752l-1.339-2.472l-2.45-2.166l-2.347-0.805v0.642l0.824,0.162l0.557,0.232l1.24,0.905l-2.438-0.429
		l-3.869-2.286l-2.453-0.526l-2.377-0.186l-12.538-3.513l-2.4-0.197l-1.122,0.197l-1.202,0.383l-1.248,0.255l-1.259-0.19
		l-1.099-0.929l-0.37-1.122l-0.443-0.906l-1.286-0.29l0.24,0.383l0.137,0.286l0.198,0.689l-1.549-1.254l-3.476-2.256l-0.675-1.416
		l-0.332-1.308l-0.824-0.631l-1.042-0.414l-1.007-0.631l-0.321-0.964l0.134-0.995l-0.259-0.643l-1.469,0.062l0.37-1.08l-0.103-1.037
		l-0.24-0.975l-0.027-0.859l0.553-1.068l1.614-1.614l0.637-1.611l0.656-0.801l0.66-1.038l0.301-1.371l-0.313-1.138l-0.733-0.987
		l-1.461-1.475l-3.793-5.669l-1.061-0.833l-1.522-0.655l0.202-1.441l1.32-2.185l-2.305-1.906l-0.424-0.926l0.485-1.395l-2.69-0.829
		l-8.311,0.829v-0.709l1.152-0.453l1.477-0.163l3.251,0.023v-0.651l-2.988-0.143l-2.667-0.477l-2.411-0.825l-2.236-1.209
		l-2.827-2.36l-0.431-0.511l-0.607-0.14l-1.19-0.81l-0.84-0.899l0.45-0.426l-1.568-0.818l-3.846-3.624l-2.049-1.023l-0.965-0.895
		l-0.591-0.202l-0.469,0.213l-0.404,0.357l-0.534,0.081l-0.828-0.651l0.553-1.012l0.183-0.647l-0.424-0.295l-0.366-0.174
		l-1.229-1.124l-1.69,0.554l-6.345,0.097l-1.679-0.434l-1.5-1.054l-2.35-2.47v-0.593l0.538-1.741l-1.637-2.005l-4.026-2.823
		l0.572,1.927l2.709,1.989l0.622,2.326l0.248,4.42l0.565,2.593l1.107,1.768l-1.221,0.791l0.172,1.318l1.107,1.244l2.865,1.012
		l1.019,1.112l1.236,2.383h0.584l0.756-0.314l0.328,0.256l0.141,0.651l-0.817,0.062l-0.843-0.109l-0.801-0.24l-0.687-0.306v0.593
		l1.759,1.566l2.144,1.91l5.689,2.325l0.717,0.407l0.668-0.263l1.496,0.616l3.621,2.092l1.671,0.542l1.793,0.047l1.687-0.732
		l1.107,0.887l2.362,1.495l1.076,0.93v0.593l-1.87,0.453l0.084,1.371l1.133,1.596l1.233,1.185l-0.763,0.263l-0.721,0.511
		l-1.133,1.173l1.385,0.627l1.637,0.186l3.377-0.105v0.592l-1.32,0.895l-1.679,0.709l-1.446,0.976l-0.618,1.673l-0.351,0.387
		l-2.209,1.266l-0.416,0.697l-0.481,1.754l-0.385,0.74l-2.942-1.463l-1.561-0.128l-0.675,1.266l0.416,0.778l1.442,1.839
		l-0.229,0.368l-3.037,1.49l-0.511,0.128l-0.343,0.488l-2.221,1.138l-0.458,0.755l-2.049,6.544l-0.859,1.664l-1.122,1.486h-0.691
		l-2.621-5.437l-7.814-10.633l-0.508-1.231l-0.385-0.445l-0.87-0.546l-2.35-0.976l-0.195-0.755l0.034-0.867l-0.076-0.662
		l-2.232-2.474l-3.106-1.77l-10.085-3.609l-0.901,0.194l-1.343,0.941l-0.607,0.225l-0.904-0.213l-1.271-0.93l-1.03-0.217
		l-0.603-0.05l-0.21-0.151l-0.122-0.287l-0.343-0.43l-0.656-0.306l-0.546,0.143l-0.359,0.302l-0.069,0.186l-5.3-1.712l-2.538-0.395
		l-0.599-0.372l-0.477-0.453l-0.748-0.372l-1.053,0.046l-0.694,0.422l-0.618,0.043l-0.836-1.104l0.672-1.774l-0.992-2.398
		l-9.604-11.845l-0.572-1.046l-0.755-2.566l-1.156-1.795l-3.655-8.99l-0.332-2.699l-0.401-1.64l-0.549-1.194l1.294-1.272
		l0.538-0.915l-0.202-0.772l-1.996-2.56l-1.255-0.768l0.694-0.939l1.625-1.296l1.099-1.618l0.767-1.579l1.603,0.64l0.87-1.013
		l0.679-1.478l1.992-1.513l-0.771-1.711l-1.416-1.785l-0.977-1.009l0.588-0.407l0.252-0.14l0.435-0.105v-0.652h-1.274v-0.652
		l1.068-0.202l0.687-0.664l0.801-1.801h0.641l1.305,1.067l1.839-0.765l1.877-1.06l1.435,0.171h0.584l-0.126-1.254l0.321-0.605
		l0.534-0.33l0.496-0.419l0.859-1.491l0.34,0.082l1.16,0.109l2.824-2.962l-0.214-0.792l-0.496-0.606l-1.213-0.85l-3.842,3.906
		l-0.092-0.314l0.012-0.28l-0.103-0.155l-0.458,0.039v-0.594l1.087-1.192l0.664-0.501l0.813-0.256l-0.641-0.652l-0.084,0.085
		l-0.126,0.182l-0.195,0.202l-0.294,0.182l0.237-0.792l0.046-0.276l1.057-0.295v-0.594h-0.641v-0.711l1.564-1.254l0.309-3.242
		l-0.534-6.288l-1.408-1.67l-3.102-1.387l-3.106-0.509l-1.408,0.963h-0.561l-2.587-2.152l-0.752-0.816l0.446,0.148l0.557-0.256
		l0.233-0.532l-0.538-0.664l-0.687-0.155l-1.812,0.179l-0.755-0.023l-2.759-1.041l-2.171-1.278l-2.427-1.076l-3.53-0.451v-0.711
		l2.122-0.536l3.968-1.811l2.232-0.264l-0.355-0.587l-0.282-0.361l-0.435-0.218l-0.847-0.14v-0.645l4.636-0.28l1.179,0.28
		l0.492,0.735l-0.118,0.855l-0.229,0.711l0.183,0.303l0.389,0.183l1.206,1.119h0.584l0.698-0.707V57.79l-1.068-1.065l1.023-0.688
		l1.999-0.299l1.889,0.093l0.641,0.303l0.84,0.835l0.763,0.167l0.611-0.225l0.259-0.548l-0.103-0.649l-0.454-0.529v-0.711
		l1.393-0.521l0.393-1.049l-0.324-1.24l-0.763-1.108l-0.679-0.498l-1.58-0.657l-0.675-0.474l-0.79-0.84v-0.226l0.473-0.101
		l0.637-0.467l1.435-1.333l0.832,0.459l0.973,0.906l1.881-0.031l1.129-1.042l-0.252-1.388l-1.015-1.337l-1.145-0.855l-0.798-0.339
		l2.265-3.703l1.713-3.746l2.641-3.574L328.962,30l2.685,1.391l2.646,2.396l3.031,1.711l9.491,3.534l12.665,4.706l3.365,1.252
		L376.314,50l15.139,5.612l2.156,0.242l2.198-0.795l9.677-6.42l6.939-4.602l2.937-0.704l1.662,0.733l3.569,2.577l1.635,0.237
		l2.021-0.114l2.164,0.694l4.676,2.071l0.506,0.143l0.485,0.195l0.456,0.247l0.393,0.291l2.132,2.666l0.802,0.679l0.841,0.479
		l1.001,0.395l1.027,0.104l0.889-0.375l5.045-3.302l0.797-0.479l0.889,0.452l0.218,0.718l-0.019,0.965l0.194,1.182l0.412,0.691
		l1.248,1.575l0.262,0.671l0.991,0.93l4.357,1.68l0.996,0.679l0.838,0.935l1.788,0.918l1.621,1.369l0.349,2.289l-1.301,0.683
		l-0.388,0.266l-0.417,0.738l0.174,0.538l0.383,0.407l0.213,0.331l2.064,1.665l0.494,0.649l1.049-0.767l1.461,0.03l0.666,0.098
		l0.817,0.119l1.127-0.19l1.742,1.712l1.078,0.412l1.078-0.821h0.645l1.136,1.117l2.326-1.502l1.602,0.385l1.112-1.117l1.262-0.212
		l1.035,0.705l0.429,1.628l5.655,4.481l0.632,0.301l0.872,0.136l0.918-0.18l1.306-0.912l0.628-0.212l2.564,0.513l0.349-0.212
		l1.919-2.254l6.225-2.373l0.483-0.116l6.159-1.478l3.293-1.704l0.271-2.593l-0.86-3.397l-0.087-4.101l0.044-0.461l-0.112-0.486
		l0.681-0.486l0.552,0.118l0.594-0.015L512.144,57.137z M372.704,136.035l0.916,0.221l0.519,0.446l0.763,0.205l0.992-0.027v0.589
		l-1.141,0.415l-1.438,0.349l-1.595,0.139l-1.591-0.19l-1.625-0.674l-0.859-0.876l-1.297-2.411l1.767-0.597l0.79-0.054l2.992,0.512
		l2.766,0.849v0.651h-3.251l0.889,0.477L372.704,136.035z M188.185,569.912L186.438,570l1.225-2.105l1.133-0.874l1.313-0.79
		l1.305-0.261v0.966l-0.088,1.223l-1.217,1.315L188.185,569.912z M488.488,268.369l1.234-0.617l1.346-0.056l-0.112,1.121
		l-0.729,0.28l-1.178-0.224L488.488,268.369z"/>
</g>
<g id="Copyright">
	<text transform="matrix(1 0 0 1 681.6426 577.5916)" class="st1 st2">© Vemaps.com</text>
</g>
</svg>
