<?xml version="1.0" encoding="utf-8"?>
<!-- Generator: Adobe Illustrator 23.0.1, SVG Export Plug-In . SVG Version: 6.00 Build 0)  -->
<svg version="1.1" xmlns="http://www.w3.org/2000/svg" xmlns:xlink="http://www.w3.org/1999/xlink" x="0px" y="0px"
	 viewBox="0 0 800 600" style="enable-background:new 0 0 800 600;" xml:space="preserve">
<style type="text/css">
	.st0{fill:#808080;}
	.st1{font-family:'Roboto-Regular';}
	.st2{font-size:14px;}
</style>
<g id="Слой_1">
	<path class="st0" d="M704.179,421.404l0.004-5.411l-2.879,0.002l0.128-0.344l0.37-0.354l1.005-0.69l0.888-0.166l0.817-1.546
		l0.361-0.856l-0.407-0.697l-0.111-1.876l-1.393,0.272l-0.656,0.988l-0.426,0.758l-0.492,0.889l-0.549-0.339l-0.72-0.38
		l-1.032,0.407l-0.412,0.862l-0.131,0.711l0.225,0.764l0.368,0.112l0.449,0.111l0.276-0.069l0.181-0.261l0.145-0.308l0.142,0.335
		l0.29,0.75l-0.83,0.474l-0.073,0.518l-1.277-0.006l-3.428,2.423l-0.266,2.721l-3.544,0.859l-6.748,0.42l-0.752-0.074l-2.28-0.524
		l-0.676-0.361l-0.473-0.077l-0.201,0.142l-0.568,0.675l-0.423,0.219l-1.851,0.246l-2.191-0.039l-2.049-0.403l-1.423-0.841
		l-2.263,0.34l-2.798-1.495l-2.831-2.022l-2.383-1.247l-1.498-0.172l-4.897,0.172l-1.303-0.166l-2.669-0.711l-1.398-0.166
		l-2.622,0.302l-1.375,0.397l-0.908,0.569l-0.999,0.148l-9.028-2.192l-6.172-0.717l-3.14,0.124l-5.462,1.49l-2.608,0.376h-4.966
		l-1.475,0.21l-2.873,0.998l-1.514,0.326l-8.702-0.524l-8.858,0.755l-1.414,0.728l-1.495-0.062l-1.506-0.341l-1.425-0.104
		l-1.052,0.459l-2.21,1.8l-1.448,0.722l-1.615,0.411l-8.836,0.408l-1.737-0.281l-3.418-1.368l-1.748-0.326l-0.946,0.705h-0.468
		L559,420.503l-0.696-0.107l-0.677,0.305l-0.451,0.74l-1.737-0.568l-1.99-0.157l-1.768,0.465l-1.088,1.297h1.865v0.497l-1.214,0.059
		l-1.918,0.752l-1.283,0.184l-6.341,0.175l-4.337,1.065l-2.461,0.249l-2.884-0.228l-4.226,1.142l-1.319,0.08l-0.924-0.16
		l-0.924-0.426l-0.754-0.648l-0.454-0.793l0.083-1.344l1.275-2.404l0.081-0.681l0.504-0.154l0.869-0.095l0.498-0.249l0.459-0.45
		l0.468-0.749l0.476-0.293l-0.209-0.791l0.317-0.56l1.292-1.179l1.526-2.121l0.111-0.362l0.239-0.551l3.262-2.969l-0.134-0.634
		l-0.919-0.922l0.117-0.442l0.618,0.042l1.804,0.596l0.679-0.655l1.314-0.421l0.301-0.285l0.189-0.436l1.214-1.823l1.192-0.83
		l2.937-1.572l1.122-1.649l1.292-0.949l6.89-3.257l1.319-0.205l1.019-0.561l1.077-2.629l0.985-0.837l0.2-0.033l0.242-0.009
		l0.448,0.042l-0.39,0.849l0.412,0.419l0.882,0.039l1.002-0.267l0.935-0.608l0.721-0.905l0.473-1.086l0.167-1.179l0.501-0.419
		l2.812-1.781l0.217-3.498l0.462-0.529l0.526-0.475l0.916-2.564l-2.121-3.444l-0.668-0.621l-1.843-1.24l-2.45-0.951l-0.665-0.089
		l0.443,0.818l-0.426,0.499l-1.272-0.883l-1.058-0.491l-0.713-0.74l-0.264-1.629l0.231-0.494l0.54-0.285l0.624-0.205l0.473-0.265
		l1.439-1.999v-0.494l-2.48-1.589l-1.325-0.28l-0.479,1.368l-1.378-1.366l-1.161-1.83l-1.347-1.607l-1.935-0.69l-1.957,0.173
		l-2.152,0.509l-1.79,0.786l-0.891,1.027l-0.651-0.411l-0.395,0.009l-0.345,0.211l-0.479,0.19l-0.724,0.19l-0.44,0.19l-0.456,0.125
		l-0.76-0.006l-1.194-0.202l-3.474-1.291l-2.661,1.428l-0.607,0.065l-0.991-0.759l-0.459-0.235l-0.518-0.104l-2.024,0.104
		l-0.534-0.066l-1.331-0.393l-0.451-0.271l-0.253,0.164l-0.883,0.065l-3.36-0.202l-1.172-0.375l-1.818-1.256l-1.278-0.381
		l-2.511-0.286l-1.487,0.357l-1.022,0.798l-0.868,0.839l-1.038,0.506l-4.448,0.131l-2.33-0.607l-0.738-1.571h-0.512l-0.42,1.048
		l-2.246-2.667l-0.813-0.375l-1.492-0.304l-0.824-0.795l-1.208-2.355l-0.724-0.828l-1.261-1.161l-1.386-0.87l-1.086,0.042
		l-0.735,0.405l-0.248-0.375l-0.039-0.685l-0.128-0.524l-0.821-0.995l-0.434-0.697l-0.186-0.623l-0.496-1.058l-4.832-3.538
		l-0.935-0.265l-2.402,0.131l-0.852-0.492l-0.76-1.109l-1.019-1.95l-0.844-0.838l-2.514-1.939l-0.61-0.072l-0.468-0.686l-0.42-2.506
		l-0.239-4.769l-0.54-2.054l-1.047-2.066l-0.727-2.081l0.443-2.112l0.626,0.741l0.76,0.107l0.64-0.493l0.267-1.057l-0.501-0.753
		l-2.221-0.744l-0.507-0.532l-0.142-1.285l-0.643-2.379l-0.145-1.399l-0.295-1.244l-1.286-2.236l-0.29-1.053l-0.418-2.47
		l-1.052-2.345l-1.392-2.011l-1.428-1.46l-1.116-0.754l-1.069-0.401l-3.627-0.569l-0.844-0.272l-0.326-0.548l0.443-1.015
		l0.774,0.446l0.868,0.147l1.882-0.045l0.273-0.335l-0.348-0.754l-0.86-1.174l-0.473-0.44l-0.702-0.512l-1.414-0.809l-1.002-0.299
		l-0.496,0.066l-0.448,0.299l-0.855,0.392l-3.171,0.737l-3.182,0.314l-0.34,0.135l-0.387,0.332l-0.309,0.404l-0.128,0.362
		l-0.228,0.275l-0.529,0.063l-2.093-0.126l-0.83-0.177l-0.735-0.057l-0.727,0.296l-0.465-0.548l-1.175,0.656l-1.25,0.293
		l-2.948,0.057l-1.345,0.237l-3.599,1.772l-2.812,0.757l-2.711,0.236l-2.773-0.254l-5.484-1.598l-1.13-0.698l-1.269-1.185
		l-0.966-0.147l-3.549,0.431l-1.345-0.009l-1.503-0.476l-0.649-0.395l-0.654-0.638l-1.035-1.749l-0.604-0.647l-0.267,0.617
		l-0.206,0.749l-0.512,0.485l-0.682,0.108l-0.685-0.362l-0.649-0.596l-0.395-0.213l-2.931-0.818l-0.404-0.171l-0.546-0.464
		l-0.406-0.686l-0.323-0.83l-0.476-0.701l-0.877-0.294l-4.833-0.126l-4.61-1.339l-1.757,0.027l-0.771,1.186l-0.465,1.285
		l-1.161-0.177l-1.514-0.794l-1.534-0.566v-0.503l1.403-0.548v-0.458l-1.061-0.246l-0.223-0.824l0.067-1.043l-0.187-0.902
		l-1.161,0.857l-1.208,0.372l-1.331,0.015l-1.52-0.243l-1.395-0.509l-0.793-0.183l-0.618,0.147l-0.184,0.521l0.434,0.501
		l0.676,0.363l0.56,0.123l-0.841,0.917l-1.269-0.611l-1.164-1.322l-0.507-1.199l-0.153-1.583l-0.47-1.385l-0.816-0.983l-1.169-0.372
		l-1.406-0.243l-2.806-1.071l-2.895-0.63l-2.015-1.698l-3.574-1.146l-2.11-1.818l-7.466-8.041l-0.134-0.324v-0.381l-0.05-0.411
		l-0.284-0.396l-0.301-0.051l-0.827,0.126l-0.276-0.075l-0.743-0.67l-0.203-0.469l0.011-0.877l0.969,0.192l1.191-0.054l1.175-0.372
		l0.916-0.775l-1.052,0.27l-0.392,0.186l0.278-0.643l0.379-0.625l0.284-0.607l-0.011-0.601l-0.546-0.228l-0.824,0.222l-0.618-0.033
		l0.081-0.964l-1.35-0.006l-0.863-0.535l-0.084-0.91l0.98-1.118l-1.631-1.013l-0.646-0.631l-0.529-0.878l-0.468,0.755l-0.841,0.268
		l-1.016-0.126l-0.985-0.433l-0.37,1.575l0.646,1.004l2.063,1.5l1.002,1.379l0.899,1.682l0.423,1.796l-0.417,1.739l-2.94-1.117
		l-8.501,0.243l-8.421-0.595l-9.863,1.105l-5.94-0.601l-1.336-0.463l-2.569-1.322l-2.686-0.547l-1.041-0.742l-0.69-1.133
		l-1.759-3.735l-0.239-0.718l-0.044-1.172l0.515-3.139l-0.315-0.21l-1.809-2.815l-0.916-0.596l-0.919-0.199l-0.768,0.259
		l-0.454,0.761l0.017,0.92l0.958,3.167l0.047,8.954l-0.534,2.286l-1.422-0.102l0.974-1.61l-0.287-2.326l-0.983-2.14l-0.638-0.526
		l-1.912,0.7l-0.426,0.31l-0.214,0.628l0.081,1.376l-0.292,0.565l-0.807,0.373l-0.546-0.273l-0.462-0.451l-0.562-0.159l-0.496,0.354
		l-0.083,0.508l-0.195,0.454l-0.841,0.198l-2.477-1.118l-1.506-4.917l-2.597-1.112h-3.29l-0.779-0.229l-1.317-0.968l-0.732-0.225
		l-0.529,0.225l-1.002,0.968l-0.802,0.229l-0.178,0.084l-0.131,0.189l-0.209,0.189l-0.412,0.084l-0.214-0.129l-0.167-0.646
		l-0.301-0.234l-2.842-0.959L257.254,252l-0.805-0.352l-0.816-0.018l-0.367,0.812l-0.668,0.301l-1.506,0.078l-1.598-0.171
		l-0.941-0.433h-0.429l-0.178,0.905l-0.443,0.234l-1.289-0.18l0.206,0.295l0.114,0.198l0.186,0.517l-0.754-0.003l-3.193-0.4
		l-0.974-0.376l-1.726-1.927l-0.621-1.028l-0.248-1.083l-1.186-1.245l-9.693-3.911l-0.991-0.569l-1.036-0.858l-0.612-0.349
		l-1.364-0.147l-0.571-0.217l-0.337-0.415l-0.785-1.357l-0.067-0.295l-0.933,0.009l-1.255-0.154l-1.158-0.572l-0.646-1.258
		l0.382-1.159l0.82-0.714l1.038-0.44l0.854-0.274l7.875,0.272l2.569-0.664l1.82,0.289l2.082-0.167l1.263-0.228l1.826,0.438
		l1.557,0.138l3.523-0.56l2.707-1.161l0.768,0.142l0.707-0.38l1.353,0.003l0.743-0.175l0.983-0.3l0.903-0.914l0.64-0.61l0.642-0.27
		l-0.085-1.552l0.274-0.704l-0.172-1.151l0.592-2.083l-0.041-0.799l-0.987-0.335l-1.023-0.031l-1.874-1.624l-1.288-1.045
		l-2.363-1.804l-2.396-0.894l-6.095-2.197l-2.389,0.089l-5.481,0.507l-7.269,1.244l-2.201-0.96l-4.644-1.327l-5.198,0.012
		l-2.899,0.344l-1.492,0.172l-1.425-0.16l-2.171-0.564l-4.5,0.596l-3.601-0.883l-0.802,0.157l-1.325,0.694l-0.674,0.16l-3.18-0.693
		l-2.431,0.58l-7.217-1.941l-1.467,0.03l-1.423,0.73l-0.699,1.204l-0.234,1.439l-0.02,1.457l-0.417,1.339l-1.008,0.691l-2.313,0.778
		l-4.109,3.509l-0.818,0.539l-1.553,0.127l-1.055,0.335l-4.557,2.393l-2.238,1.504l-1.873,1.973l-3.906,7.513l-1.62,1.607
		l-2.221,0.262l-2.252-0.65l-0.93-0.084l-0.977,0.274l-0.031,0.184l0.031,1.035l-0.114,0.28l-0.267-0.021l-0.312-0.096l-0.493,0.187
		l-0.309-0.096l-0.262-0.027l-0.111,0.298l0.033,1.038l-0.033,0.202l-2.475,1.604l-0.835,0.921l-0.367,0.623l-0.059,0.355
		l0.039,0.259l-0.081,0.325l-0.451,1.071l-0.334,0.472l-0.618,0.478l-0.22-0.229l-0.106-0.235l-0.039,0.866l-0.484,0.508
		l-0.382-0.751l-0.567-0.238l-0.601,0.08l-0.053,1.215l-1.128,1.237l-3.41,0.297l-3.533-0.454l-3.023-1.242l0.568-0.622
		l-0.181-0.752l-0.504-0.83l-0.392-0.872h-0.468l-0.969,1.976l-1.695,1.786l-2.001,1.29l-1.873,0.499l0.142-0.259l0.15-0.511
		l0.134-0.283l-7.572,1.112l-0.37-0.06l-0.267-0.289l-0.187-0.511l-0.084-0.493l0.07-0.222l-0.782,0.24l-0.813,1.037l-0.994,0.238
		l-5.314-0.307l-1.52,0.307l-2.806,2.774l-0.084,0.562l-0.523,2.034l-0.326,0.724l0.359,0.484l0.106,0.442l0.045,1.093l-0.777-0.655
		l-0.752,0.168l-0.465,0.79l0.081,1.207l0.518,0.976l0.671,0.36l0.791-0.198l0.868-0.679l-0.39,1.598l-2.366,1.759l-0.56,1.498
		l0.248,0.351l0.462,0.423l0.276,0.54l-0.303,0.702l-0.646,0.63l-0.738,0.576l-0.802,0.414l-0.835,0.162l-1.286-0.315l-2.586-1.386
		l-1.52-0.315l-1.487,0.345l-2.639,1.626l-1.264,0.549l-0.693,0.054l-1.42-0.105l-0.688,0.051l-0.757,0.315l-1.553,0.984
		l-2.138,0.642l-8.078,6.796l-2.937,1.61l-2.887,0.267l-0.888-1.454l2.739-5.793l0.532-2.907l-1.548-2.151l-2.728-0.471
		l-3.045,0.462l-5.434,1.611l-2.65,1.269l-6.909,4.625l-2.75,0.678l-2.976-0.048l-2.873-0.9l-0.938-0.762l-0.557-1.05L30,276.443
		l0.245-1.236l0.225-0.48l0.354-0.594l0.434-0.489l0.457-0.183l0.326,0.183l0.22,0.378l0.184,0.435l0.212,0.348l0.495,0.396
		l0.56,0.225l0.601,0.075l0.615-0.057l1.169-0.495l0.805-0.837l0.036-0.936l-1.122-0.801l1.166-0.639l1.038,0.003l0.649,0.714
		l-0.006,1.479l5.604-3.022l4.969-1.48l5.823-2.63l3.725-2.718l0.515-0.273l0.91-0.072l0.829,0.123l0.429,0.336l-0.301,0.577
		l2.149,0.955l1.595-0.451l1.551-0.949l2.007-0.52l0.994,0.303l1.161,0.727l0.969,0.916l0.401,0.829l0.331,0.432l1.857-1.351
		l1.044,0.162l0.974-4.082l-0.818,0.931l-0.724,1.286l-0.774,0.685l-0.955-0.838l-0.404-1.409l0.086-1.087l-0.234-0.847
		l-1.356-0.685l0.635-1.577l0.337-0.487l-1.269-0.144l-1.383-0.502l-1.247-0.679l-0.857-0.694l-0.554-1.043l-0.451-1.23
		l-0.632-0.965l-1.122-0.244l0.682-0.64l0.768-1.143l0.624-1.347l0.264-1.227l0.125-1.721l0.295-1.589l0.98-3.256l0.17-0.178
		l0.999-1.887l0.351-0.193l0.738-0.072l0.334-0.217l0.276-0.476l0.273-0.933l0.173-0.358l1.459-2.15l1.01-1.148l1.228-0.75v-0.551
		h-1.403l1.18-0.967l2.928-0.539l1.281-0.744l0.816-1.121l0.86-1.66l0.317-1.604l-0.802-0.947v-0.555l0.718,0.223l0.685,0.332
		l0.974-0.748l0.924-0.145l0.796,0.416l0.574,0.935l0.607-2.774l0.368-0.718l0.674-0.277l1.771-0.157l0.362-0.35l0.05-0.745
		l0.217-1.264l0.49-0.89l0.874,0.365l0.916,0.591l0.718-0.38l0.66-0.812l0.743-0.688l-0.518-0.848l-0.704-0.519l-0.913-0.205
		l-1.13,0.103l0.309-0.576l0.498-0.522l0.618-0.368l0.654-0.145l1.102,0.404l0.585,0.905l0.451,0.902l0.665,0.407l0.919-0.163
		l0.818-0.404l4.162-3.024l0.935,0.972l0.651-1.576l1.044-0.694l2.979-0.217l1.136-0.223l4.716-2.403l2.366-0.858l1.122-0.109
		l0.766,0.133l0.863,0.405l0.746,0.018l0.473-0.16l0.944-0.616l0.498-0.239v-0.556l-0.49,0.232l-0.49,0.323l-0.089-0.272l0.02-0.169
		l-0.059-0.081l-0.34-0.033l1.459-0.927l1.503-0.45l3.413-0.139l0.289-0.444l0.852-2.347l0.434-0.236l2.837-0.018l-0.175,0.514
		l-0.106,0.212l-0.186,0.29l1.336,0.248l0.802-0.767l0.551-1.142l0.585-0.876l1.022-0.423l0.785,0.314l0.824,0.626l1.147,0.499
		l-0.484,0.767l0.746-0.233l1.091-0.686l0.557-0.583l0.412-1.224l1.019-1.608l1.286-1.409l1.233-0.602l0.921-0.308l3.538-2.277
		l1.386-0.587l1.269-0.061l1.105,0.393l0.908,0.807v0.463l-0.626,0.481l-0.264,0.889l0.131,1.043l0.526,0.931l0.835,0.384
		l0.702-0.453l0.59-0.747l0.487-0.502l-1.25-1.034l0.081-0.967l1.005-0.85l1.52-0.65l2.85-0.556l0.535-0.272l0.888-0.617
		l0.401-0.121l0.71,0.127l0.944,0.656l0.721,0.227l0.356-0.2l0.409-0.423l0.504-0.239l0.646,0.36l0.429,0.765l-0.445,0.233
		l-0.685,0.112l-0.278,0.408l0.281,0.771l0.418,0.254l0.535-0.257l0.635-0.768l-0.142,1.469l1.194,0.097l1.356-0.907l0.134-0.091
		l0.732-1.839l0.969-1.591l2.219-0.048l2.45,0.396l1.645-0.275l1.506-0.544l6.197,0.29l6.344-0.835l1.64-0.687l1.403,0.1l2.97-1.715
		l1.512-0.463l0.379-0.236l0.679-1.053l0.34-0.236l0.846-0.1l0.651-0.251l1.072-0.666l2.029-1.589l1.058-0.639l2.723-0.415
		l3.151-1.372l4.785-0.793l2.171-0.902l4.724,1.142l1.498-0.161l1.937-0.49l0.81-0.206l1.59-0.161l0.69-0.163l0.746-0.294
		l0.74-0.133l0.668,0.339l2.572,1.823l2.032,0.581l4.382,0.43l2.032,0.509l1.525-0.503l10.684,0.064l1.768,0.009l1.077-0.151
		l0.913-0.475l0.779,0.418l0.763,0.057l0.81-0.036l0.919,0.115l0.471,0.282l1.197,0.981l1.453,0.851l0.237,1.492l-0.22,1.71
		l-0.334,1.286l-0.412,0.584l-0.423,0.284l-0.011,0.224l0.846,0.43l0.779,0.103l0.763-0.194l1.024-0.415l0.267-0.381l0.426-1.812
		l0.242-0.623l0.568-0.526l0.507-0.17l0.621-0.018l5.754-1.005l0.768-0.339l0.735-0.805l1.695-0.484l3.221-0.484l1.019-0.357
		l2.542-1.257l1.67-1.287l3.026-1.793l1.125-0.339l1.269,0.503l-0.969,0.845l-1.893,0.79l-3.109,0.818l-3.716,2.283l-0.963,0.854
		v0.466l3.034,0.784l3.903,4.584l2.444,1.277l1.358,0.03l0.587-0.333l0.482-0.762l1.035-1.247l0.328-0.611l0.724-1.822l0.345-0.381
		l0.777-0.085l1.403-0.363l0.434-0.061l2.842,0.508l0.473-0.018l0.267-0.133l0.125,0.269l0.031,1.177l0.512,1.634l1.258,0.402
		l1.548-0.29l1.395-0.454l10.742-2.079l1.681-0.045l3.19,0.669l1.709-0.07l1.431-0.614l1.28-1.126l0.376-1.398l-1.261-1.435
		l0.891-0.424l0.93-0.109l0.86,0.158l0.671,0.375v0.466l-0.585,0.545l-1.793,3.562l1.907,1.443l0.086,0.157l2.483,4.507l1.406,0.998
		l1.086,0.079l2.773,0.538l1.049,0.399l0.646,0.611l0.707,0.868l0.905,0.777l1.244,0.329l3.858-0.009l0.852,0.263l1.03,0.91
		l1.099,0.635l1.139,0.417l1.169,0.272l2.252,0.073l2.121-0.447l4.078-1.608l-0.512-1.771l1.152-0.039l3.633,1.823l1.612,0.502
		l1.37-0.257l0.262-1.778l0.732,0.396l0.749,0.532l0.579,0.641l0.234,0.713l1.548,2.811l0.15,0.483l2.589,1.523l0.373,0.061
		l1.219-0.061l0.473,0.169l0.195,0.363l0.039,0.363l-0.006,0.166l1.42-0.435l2.23-2.118l4.201-1.191l0.601,0.145v0.568l-0.643,0.592
		l-1.269,0.87l-1.57-0.761l-0.76,0.604l-0.894,2.695l0.743,1.154l0.429,0.489l0.651,0.429l0.729,0.199l2.817,0.26l1.208,0.411
		l4.02,2.88l0.217,0.35l0.259,0.32l0.409,0.139l0.379-0.169l0.412-0.365l0.303-0.362l0.075-0.163l1.559-0.199l0.587,0.377
		l1.69,7.511l0.039,0.042l1.024,0.341l0.83,0.428l0.74,0.597l0.771,0.844l0.782,1.182l0.938,2.288l0.635,1.082l1.734,1.965
		l0.387,0.335l1.019,0.196l1.979,0.042l0.785,0.217l1.826,2.833l0.351,0.85l0.546,0.464l5.128,4.391l2.004,0.952l1.821-0.295
		l0.693,0.699l1.286,0.93l1.244,0.434l0.56-0.798l0.735-0.09l3.583,0.78l1.286,0.018l0.743-0.533l0.148-0.47l0.172-0.331l0.849-0.09
		l0.693,0.169l1.063,0.656l0.791,0.145l1.47-0.214l2.567-0.984l1.314-0.319l1.559-0.024l3.783,0.434l6.739,0.771l3.204-0.169
		l0.351,0.744l1.306,4.307l0.248-0.187l0.643-0.319l0.685,0.957l0.635-0.59l1.058-2.344l-0.874-1.243l-0.468-0.476L454.967,239
		v-0.506l2.032,0.274l2.185,2.212l7.474,2.66l0.96,0.68l0.585,0.945l1.361,1.167l1.57,1.065l1.197,0.632l1.634,0.496l4.117,0.707
		l1.258-0.192l-0.031,0.496l0.067,1.029l-0.036,0.496l0.704-0.349l0.27-0.201l0.462,0.737l0.64,1.413l0.496,0.646l0.618,0.469
		l1.225,0.64l0.532,0.451l0.532,0.295l0.674,0.012l0.715-0.072l0.649,0.042l2.338,0.959l1.063,0.297l3.391,0.253l0.596,0.316
		l0.134,0.73l0.056,0.838l0.362,0.634l0.565,0.144l1.754-0.021l-0.225,0.111l-0.225,0.276l0.718,0.676l0.849,0.328l0.885,0.204
		l0.727,0.255l0.136,0.045l1.01-0.354l0.649,0.703l0.908,1.94l1.303,1.243l0.373,0.501l0.451,1.348l1.23,2.183l0.548,0.711
		l0.81,0.288l0.824,0.582l3.143,3.244l0.234,0.609l1.161,2.142l0.476,0.522l0.821-0.123l0.39-0.738l0.326-5.509l0.376-0.729
		l0.752-0.324l1.837,0.3l1.102,0.024l-0.607,0.765l-2.188,0.396l-0.473,0.63l0.095,1.314l0.273,0.99l0.437,0.783l0.593,0.711
		l0.785,0.741l0.596,0.282l1.681-0.018l0.738,0.492l0.518,1.14l0.298,1.269l0.1,0.873l0.251,0.9l0.637,0.639l0.902,0.441
		l1.937,0.624l0.384,0.069l1.005-0.489l0.582,0.309l0.551,0.513l0.585,0.264l4.159-0.633l1.194,0.135l1.147,0.54l3.056,1.972
		l0.039-1.019l0.535-0.513l1.762-0.483l0.109,0.731l0.401,0.372l0.626,0.084l0.777-0.132l-0.142-0.276l-0.175-0.528l-0.15-0.252
		l0.963,0.318l0.916,0.755l1.386,1.487l-0.983,0.132l-0.679-0.414l-0.429-0.033l-0.239,1.277l0.159,1.349l1.002,2.298l0.237,1.174
		l0.365,0.755l0.877,0.288l2.071,0.264l1.631,0.874l0.451,0.126l0.657-0.153l0.342-0.344l0.187-0.347l0.198-0.156l-0.025-0.401
		l-0.409-0.881l-0.651-0.881l-1.779-0.809l-0.735-0.983l-0.844-2.172l-0.384-1.711l-0.315-0.504l-0.47-0.285l-1.35-0.558
		l-0.278-0.213l-0.092-0.773l-0.348-1.007l-0.707-0.543l-1.191,0.612l-0.977-1.052l-0.927,0.863l-0.969-0.612l-1.843-2.309
		l-2.572-2.22l-0.724-1.14l-0.468-0.126l-0.946,0.462l0.582-1.26l1.088-1.326l1.25-0.852l1.069,0.168l2.38,2.016l0.256,0.603
		l0.437,1.863l0.242,0.39l7.266,5.305l1.395,0.686l3.482,1.091l0.977,0.695l0.972,0.998l2.316,1.903l0.919,0.345l4.028,3.059
		l1.01,0.518l0.952,0.302l1.019,0.006l1.225-0.324l-0.532,1.39l0.37,0.889l0.69,0.644l0.407,0.641l-0.239,1.461l-1.645,1.781
		l-0.451,1.278l-0.601-0.398l-1.183-1.326l-0.337-0.281l-4.401-2.054l-1.113-0.329l-1.283-0.132l0.036,0.132l-0.17,0.27
		l-0.225,0.255l-0.109,0.075l-0.147,0.266l-0.345-0.111l-0.401-0.249l-0.61-0.278l-0.743-0.677l-0.596-0.228l-1.576,0.132
		l-0.551,0.728l0.226,0.808l0.777,0.386l0.793,0.189l0.568,0.431l0.526,0.503l0.635,0.38l0.679,0.159l1.918-0.159l1.344,0.563
		l0.351,1.221l-0.496,1.221l-1.2,0.557l-0.192,0.604l0.434,1.323l0.596,1.277l0.306,0.494l0.774,0.153l1.531-0.254l1.086,0.126
		l-0.546,1.298l0.674-0.182l1.704-0.865l0.064-0.087l0.649-0.377l0.646-0.087l0.601-1.113l0.843-3.908l1.729-3.296l0.562-0.719
		l1.297-0.236l1.255,0.766l7.341,9.056l1.086,0.999l0.134,0.096l1.019,0.721l2.478,1.199l3.78,0.81l0.891,0.691l-0.468,1.005h1.403
		l-0.401,1.516l-0.543,0.753l-0.832,0.254l-2.425,0.155l-0.977,0.398l-0.685,0.702l-0.256,1.034l0.952,1.811l3.496-1.844l-0.2,1.829
		l0.66-0.481l0.303-0.756l0.167-0.894l0.273-0.879h-0.468l0.958-1.435l0.284-0.738l0.117-0.879l4.203,1.456l0.393-0.021l0.534-0.323
		l0.303,0.123l1.15,0.771l1.851,0.451l0.738,0.051l1.055,0.469l0.93,1.031l0.404,1.04l-0.501,0.466l-1.111,0.251l-3.833,1.757
		l0.265-1.099l-0.629-0.648l-0.679-0.033l0.109,0.777l-0.331,1.159l0.913,0.478l1.381,0.233l1.091,0.433l1.03,0.803l1.152,0.523
		l1.294,0.287l1.453,0.093v-0.454l-1.489-0.526l-0.448-0.335l-0.401-0.642l-0.459-1.055l0.033-0.469l1.32-0.529l1.197-0.036
		l1.631,0.514l1.514,0.911l0.88,1.162h0.429v-1.547h0.462l-0.239,2.939l-0.785,0.962l-3.644,0.158v0.499h1.4l-0.662,0.394
		l-0.27,0.108l0.551,0.944l0.671-0.036l0.763-0.367l0.818-0.045l0.585,0.496l0.688,1.278l0.635,0.233l0.348-0.152l0.47-0.358
		l0.409-0.415l0.175-0.352l0.164-0.236l0.384-0.015l0.445,0.054l0.367-0.03l2.013-1.188l0.788-0.311l-1.058-0.373l-2.235-0.305
		l-0.869-0.326l-0.827-0.983l-0.228-1.174l0.468-0.986l1.247-0.412l8.193,0.245l1.679,0.532l0.974,0.81l2.207,0.869l0.203,0.17
		l1.592,1.335l0.986,0.636l7.266,2.78l2.18,1.463l0.301,1.725l0.234,0.597l-0.05,1.57l0.284,0.883l0.671,0.779l0.473-0.054
		l0.685-0.725l1.097-0.618l0.763-0.179l0.985,0.251l0.696,0.421l0.484,0.525l0.259,0.683l0.003,0.922h0.429l0.136-0.352l0.217-0.364
		l0.15-0.331l0.468,1.128l0.585,0.248l0.409-0.57l-0.058-1.307l0.576,0.098l1.829,0.042l0.86-0.14l0.429-0.286l1.066-0.964
		l0.587-0.203l0.852,0.039l0.857,0.176l0.66,0.37l0.568,1.28l0.576,0.11l0.359-0.316l-0.348-0.662l3.53-2.548l0.376,0.089
		l1.027,0.466l0.209,0.197l0.287,0.555l0.665,0.03l1.194-0.337l2.363-0.003l1.935,0.316l1.347,1.164l0.612,2.53l2.7-0.57
		l1.556,1.011l2.372,3.606l-1.4,3.005l-0.404,0.51l-0.766,0.635l-0.278,0.402l-0.125,0.471l-0.153,1.094l-0.148,0.432l-0.585,0.837
		l-0.949,0.962l-1.122,0.682l-1.122-0.027l-0.34-0.703l-0.256-1.109l-0.42-0.709l-0.852,0.525l-0.56-0.355l-0.451-0.062
		l-0.401,0.143l-0.412,0.274l0.557,0.083l0.406,0.155l0.267,0.301l0.125,0.501l-1.937,0.143l0.042,0.894l0.885,1.254l0.59,1.257
		h0.42l0.766-1.156l1.804-0.542l2.049-0.095l1.495,0.203l2.837,1.46l0.437,0.357l0.075,1.016l0.278,0.771l0.573,0.444l0.944-0.003
		l-0.543,1.745h-0.963l-1.091-0.733l-0.93-0.47l-0.512-0.179l-0.223-0.435l-0.156-0.524l-0.301-0.453l-0.501-0.411l-0.217-0.119
		l-3.747,0.584l-1.325,0.471l-4.482-0.524l0.359,0.837l-0.092,0.938l-0.693,1.769l0.053,0.447l-0.061,0.923l-0.189,0.863
		l-0.312,0.768l0.635,0.643l0.793,1.58l2.636,1.5l1.072,0.36l0.468-0.771l0.752-1.592l3.274-2.768l0.688-1.453l1.083,0.875
		l0.654,1.131l0.139,1.256l-0.473,1.28l1.765-0.22l0.637,0.223l-0.301,0.768l-0.114,0.711l0.701,0.5l1.517,0.512l-0.381-1.613
		l4.031,0.952l1.063-1.333h0.423l0.328,0.405l0.448,0.402l0.537,0.375l0.598,0.318l0.51-1.5l-1.13-0.461l-0.599-0.092l-0.693,0.054
		l0.852-1.14l1.637-0.479l1.787-0.039l1.328,0.161l1.203,0.497l1.406,0.896l0.465,0.836l-1.628,0.309l0.596,0.94l0.34,1.012h0.462
		l0.083-0.315l0.384-0.678l0.585,1.571l1.67,0.36l3.864-0.437l-1.191-0.794l-2.589-1.306l-1.356-0.351l0.869-0.94l1.67-0.44
		l1.801-0.015l1.264,0.354l-0.468-0.548l1.047,0.086l3.196,0.67l0.846,0.476l0.231,0.506l-1.116,0.31v0.5l1.91,0.494l0.125-0.149
		l0.019-0.101l0.061-0.101l0.22-0.143l0.799,0.589l1.18-0.315l1.127,0.059l0.632,1.705l0.136-0.39l0.309-0.664l0.061-0.491
		l0.635,0.491l0.618,0.295l0.579,0.03l0.504-0.315l-0.971-0.994l5.501-0.702l1.333,0.452l0.66,0.369l0.693,0.161l0.548,0.274
		l0.22,0.69l0.487,0.419l1.1,0.027l1.684-0.196l1.13,0.821l0.974,0.991l1.258,0.83l5.409,0.642l1.411,0.455l1.069,0.753l-0.693,0.39
		l-0.284,0.11l0.977,1.746l0.045,0.8l0.161,0.202l0.287,0.03l0.443,0.262l0.462,0.351l0.365,0.279l2.486,0.823l0.239,0.972
		l1.32,1.064l3.112,1.997l0.543,0.654l0.738,1.533l2.168,3.018l0.518,0.321l0.225,0.475l3.349,3.531l0.632,0.318l0.935,0.119
		l1.492,0.445l1.837,1.131l1.525,1.481l0.557,1.514h0.507l0.916-1.021l1.386,0.006l1.52,0.38l1.319,0.095l1.144-0.51l1.194-0.751
		l1.303-0.615l1.453-0.116l0.849,0.282l0.679,0.466l1.361,1.244l2.33,1.496l0.83,1.039l0.54,1.228l0.312,1.35l0.15,1.403
		l-0.621,1.602l-1.434,0.878l-1.448,0.575l-0.958,1.005l-1.386,0.804l-0.462,0.157l-0.356,0.391l-0.387,2.597l-2.152,1.921
		l-2.539-0.074l-2.878-0.747l-3.173-0.107l-4.306,0.901l-2.903,0.222l-5.618,1.309l-2.612-0.501l-2.157,0.9l-4.306-0.702
		l-5.152,0.898l-1.68,0.161L721.761,412l-1.172,0.995l-1.063,1.147l-1.172,0.942l-1.52,0.394l-1.607,0.033l-0.945,0.165l-0.56,0.592
		l-0.414,1.514l-1.116,1.745l-2.204,0.834l-2.435,0.289l-0.367-0.857l-0.492-0.262l-0.362,0.099l-0.196,0.527l0.003,0.692
		l-1.741,0.562L704.179,421.404z M482.651,373.473l0.482,1.427l-0.156,1.008l-0.727,0.241l-1.253-0.907l-0.799-0.446l-1.019-0.297
		l-0.871-0.428l-0.902-1.986l-1.236-0.877l-2.436-1.228l0.974-0.767l1.075,0.25l0.997,0.761l0.735,0.755l1.01,1.374l0.632,0.571
		l1.158,0.55l0.189-1.139l0.629-0.235l0.802,0.446L482.651,373.473z M475.603,360.947l-0.888,1.051l-3.19,0.759l-1.099,0.738
		l-1.094-0.595l-1.203-0.363l0.835-0.625l2.383-0.539l0.985-0.878l0.367,0.146l0.011,0.071l0.134,0.235l0.724-0.381l0.69-0.042
		L475.603,360.947z M448.893,358.953l1.336-0.292l1.442,0.604l2.402,1.682l-1.178,1.006l-1.662-0.562l-1.537-1.283L448.893,358.953z
		 M675.304,355.952l0.61,0.563l0.985,1.867l0.551,0.822l0.242,0.881l-1.278-0.012l-2.274-0.619l-1.214-0.19l-1.075-0.569
		l-0.699-0.932l-0.05-1.31l3.374-0.613L675.304,355.952z M442.101,354.957l3.368-0.101l1.236,0.709l0.788,1.932h-0.509l-1.164-0.858
		l-4.799-0.569l-1.553-1.572l0.835-1.263l0.676-0.602l0.651,0.048l0.317,0.572l0.134,0.759L442.101,354.957z M435.303,349.187
		l0.799,0.322l1.612,0.194L439,350.15l-0.192,1.078l-0.599,1.037l-0.42,0.408l-0.192-0.468l-0.234-0.274l-1.629-0.429l-3.441-2.264
		l-0.727-0.828l0.874-0.137l1.247,0.083l1.13,0.313L435.303,349.187z M431.993,346.914l-0.342-0.042l-1.058,0.042l0.189,0.411
		l0.278,1.085l-1.94-0.992l-1.294-1.189l-2.372-2.772v-0.546l1.191,0.462l0.88,0.835l0.777,0.948l0.888,0.799l-0.896-1.469
		l-1.514-1.899l-1.726-1.482l-1.509-0.197v0.546l0.228,0.259l0.061,0.143l0.044,0.182l0.178,0.373l-0.779-0.236l-0.668-0.394
		l-0.54-0.566l-0.395-0.757l2.895-0.158l3.04,1.858l2.65,2.611L431.993,346.914z M410.422,331.851l2.16-0.319l1.74,1.056
		l2.686,2.817l-1.052,0.439l-1.147,0.036l-1.091-0.337l-0.916-0.683l0.459,0.039l1.409-0.039l-0.298-0.791l-0.504-0.501
		l-0.565-0.104l-0.501,0.394l-1.787-1.316L410.422,331.851z M274.733,289.071l-0.29,0.171l-2.806,2.588l-5.414,3.639l-2.121,0.928
		l-2.255,0.213l-0.008-1.428l0.643-0.383l1.907,0.305l0.757-0.545l0.643-1.093l0.651-0.836l0.777,0.234l0.896,0.419l0.997-0.266
		l0.807-0.602l0.334-0.581l0.418-1.261l0.985-0.899l2.143-1.381l0.568-0.219l0.412,0.309l0.156,0.456L274.733,289.071z
		 M192.931,294.139l-0.49,0.871l0.551,0.934l0.991,0.782l0.813,0.431l-0.693,1.123l-1.406,1.509l-1.587,1.32l-1.236,0.569
		l-1.283,0.245l-8.738,4.422l-5.225,1.902l-4.835,0.532l-0.813-0.302l-0.624-0.691l-4.471-0.084l-0.663-0.212l-1.339-0.592
		l-0.802-0.2l-2.458,0.048l-0.618-0.299l-2.233-2.98l-0.852-0.787l-1.924-1.284l-0.71-0.835l-0.635-1.398l-0.468-2.006l-0.774-1.82
		l-0.156-0.74h0.462l0.76,0.752l3.443,2.536l0.451,1.024l1.075,0.877l1.32,0.614l1.147,0.224h2.828l0.228-0.299l1.915-1.664
		l1.072-0.718l0.526-0.47l0.225-0.59l0.214,0.072l0.354,0.437l0.075,0.748l-0.643,1.024l0.468,0.461l1.236-2.287l-0.348-0.85
		l-2.038-0.335l-0.804-0.779l-5.871-10.366l-0.829-2.926l0.713-3.16l2.898-2.298l0.376-0.954l0.593-0.768l1.378-0.978l1.562-0.801
		l1.136-0.243l-0.752-0.36l-0.749-0.144h-0.79l-0.83-0.42l-0.036-0.144l0.443-0.165l0.635-0.486l8.927,1.089l5.576,1.386
		l3.836,1.089l1.211,0.537l0.927,0.81l0.373,1.155l-0.239,1.365l-0.359,0.9l0.064,0.84l1.002,1.196l3.073,2.518l0.919-0.051
		l0.679,0.348l0.456,0.818l0.345,0.917l0.362,0.683l0.017,0.566l-0.367,0.857l-0.771,1.39h-0.509l0.367,0.62l0.106,0.629
		l-0.131,0.638l-0.342,0.623l1.545,0.985l0.818,0.392l0.949,0.132V294.139z M530.467,263.35l0.521,0.901l0.15,0.91l-0.184,1
		l-1.478,3.323l0.212,0.711l0.779,1.215l-1.058,0.039l-0.813,0.321l-1.442,1.107l0.323-1.32l-0.44-0.6l-0.735,0.228l-0.551,1.189
		l0.184,0.228l0.292,0.486l0.05,0.522l-0.526,0.321l-0.395-0.099l-0.256-0.351l-0.223-0.45l-0.841-1.161l-0.328-0.693l-0.42-0.666
		l-0.849-0.657l-0.974,0.468l-1.47-0.315l-1.464-0.702l-0.952-0.705l-0.173-0.642l0.27-0.781l0.401-0.826l0.2-0.775l-0.326-0.531
		l-0.74-0.354l-1.308-0.375l0.345,0.634l0.134,0.637l-0.109,0.637l-0.37,0.616l-0.468-1.513h-0.423l-0.693,1.054l-1.119,0.297
		l-1.044-0.441l-0.459-1.183l-0.593-0.88l-1.18-0.958l-0.866-1.232l0.348-1.7l-0.507-0.499l1.319,0.036l0.952,0.613l0.863,0.781
		l1.066,0.535l1.119,0.027l0.771-0.393l0.657-0.571l0.763-0.529l1.175-0.345l0.958,0.072l0.83,0.333l0.777,0.445l0.259,0.312
		l0.635,0.991l0.292,0.21l0.587-0.156l0.985-0.694l0.512-0.159l0.746,0.336l2.196,1.448l0.793,0.276l0.885-0.487l0.562-0.625
		l0.665-0.069L530.467,263.35z M515.903,248.13l0.512-0.993l-0.76-1.113l-1.216-0.957l-0.835-0.518l1.681-0.274l1.498,1.225
		l1.08,1.829l0.868,3.173l1.066,1.236l1.239,1.136l0.98,1.311l-1.642,0.042l-1.737-1.831L515.903,248.13z M505.625,256.476
		l-0.468-1.1l-2.182-1.563l-0.663-1.143l1.113-0.418l0.888-0.953l0.585-1.212l0.217-1.2l0.097-2.683l-0.239-0.836l-0.752-1.273
		l1.036,0.163l1.061,0.361l0.838,0.659l0.34,1.041l-0.39,0.68l-0.74,0.743l-0.473,0.92l0.409,1.212l0.601,0.259l1.687-0.244
		l0.816,0.262l0.473,0.662l0.312,0.752l0.49,0.553l1.016,0.099l-0.894-0.55l0.273-0.469l0.303-0.406l0.351-0.343l0.392-0.298
		l0.512,0.896l0.682,0.448l0.671-0.111l0.512-0.773l0.546,1.266l-0.743,0.547l-1.244,0.28l-0.935,0.472l0.791,0.214l0.587,0.433
		l0.498,0.487l0.501,0.382l0.724,0.246l1.409,0.295l0.713,0.466l-1.539,3.092l-1.022,1.244l-0.752-0.763l-0.312,0.144l-0.788,0.216
		l-0.301,0.15l-0.22-0.568l-0.181-0.31l-0.535-0.637l-0.292-1.485l-1.445-0.517l-1.15,0.595l0.596,1.866l-0.882-0.397l-2.405-1.445
		L505.625,256.476z M491.996,243.039l1.448-0.921l-0.651-1.228l-1.389-0.722l-0.768,0.62l-0.086,0.689l-0.264,0.767l-0.451,0.479
		l-0.637-0.19l-0.429-0.785l-0.033-0.924l0.315-0.578l0.61,0.265l0.017-1.288l-1.086-1.469l-1.603-0.704l-1.531,0.982l-0.348-0.382
		l-0.309-0.087l-0.328,0.015l-0.415-0.093l0.949-1.192l1.347-0.373l2.416,0.051l2.199-0.876l0.955-0.045l0.543,0.921l1.364-0.762
		l1.748,0.452l1.72,1.123l1.281,1.25l0.657,0.918l0.596,1.093l0.443,1.156l0.267,2.456l0.315,0.77l1.459,1.643l0.582,0.015
		l0.949,0.37l0.846,0.12l-1.141,1.137l-1.637-0.457l-3.335-2.196l-1.492-0.292h-1.654l-1.726-0.361L491.996,243.039z
		 M476.285,233.167l-1.333,0.593l-1.854,0.253l-3.098-0.069l-1.559-0.473l-1.874-1.319l-2.825-0.53l-1.976-0.633l-1.203-0.823
		l0.985-0.816l-1.052-1.172l-1.395,1.058l-1.111,0.606l-0.178-2.513l0.251,0.202l0.64,0.304l0.234-1.468l0.624-0.157l0.727,0.344
		l0.537,0.015l0.746-0.124l3.034,0.63l1.665,1.067l1.926,0.154l1.946-0.154l1.723,0.148l1.668-0.102l1.086-0.88l0.938-1.013
		l1.216-0.485l1.553,0.16l1.64,0.464l1.392,0.778l0.785,1.079l-0.251-0.102l-0.64-0.353l0.306,0.997l4.576,4.715l0.256,0.651
		l-0.206,0.732l-0.493-0.009l-0.615-0.31l-0.554-0.16l-8.493,1.973v-0.455l0.145-0.226l0.173-0.187l0.134-0.301l0.059-0.572
		l0.2-0.277l0.451,0.036l0.47,0.099l0.281-0.09l0.058-0.696l-0.239-0.714l-0.562-0.334L476.285,233.167z M438.109,220.197
		l-0.387-1.019l-1.002-0.392l-4.1-0.268l-0.696-0.29l-0.863-0.561l1.152-0.163l6.419,0.407l1.075,0.621l-0.022,0.818
		L438.109,220.197z M412.569,220.197l-0.604-0.124l-0.629-0.287l-0.913-0.6l-1.019-0.914l-2.297-2.583l-1.233,0.459l-1.255-0.151
		l-1.169-0.573l-1.556-1.213l-0.445-0.169l-0.27-0.32l-0.097-0.845l-0.234-0.29l-1.091-0.824l-0.331-0.172l-0.568-0.477
		l-0.351-1.045l-0.593-1.042l-1.292-0.474l-2.032,0.854l-0.91-0.051l-0.114-1.359l1.943-0.601l1.395-0.072l1.133,0.529l3.558,4.046
		l1.481,1.219l3.151,0.981l2.555,2.118l2.8,1.089l1.372,1.436l1.116,1.677l0.601,1.345l-1.551-1.393L412.569,220.197z
		 M375.773,196.338l0.565-0.039l-0.05,0.998l-0.732,0.71l-1.456-0.934l-0.651,0.208l-0.715,1.013l-0.676,0.329l-0.529-1.829
		l0.985-0.602l1.08-0.384l1.111-0.006L375.773,196.338z M346.686,194.307l3.329-1.648l1.514-0.166l1.228,0.801l-0.353,0.212
		l-0.665,0.584l-0.337,0.218l0.624,0.293l0.44,0.432l0.242,0.58l0.05,0.726l-6.89-1.2l-1.047-0.832l0.418-0.336l0.406-0.172
		l0.465,0.082L346.686,194.307z M355.138,184.066l0.429,0.956l0.746,0.829l0.913,0.578l0.946,0.218l1.1,0.039l0.365,0.151
		l-0.195,0.309l-0.568,0.518l-1.37,0.635l-1.389-0.269l-2.889-1.383l0.159-0.76l0.359-0.548l0.451-0.545l0.434-0.73H355.138z
		 M311.954,180h0.51l0.662,1.087l0.432,0.503l-0.003,0.345l-0.629,0.605l-1.136,0.678l-0.818-0.076l-0.724-0.378l-0.846-0.224
		l-2.208,0.224l-1.667,0.587l-3.385,1.725l0.768-0.854l4.148-2.755l1.222-0.27l1.328,0.045l1.453,0.327l-0.267-0.406l-0.384-0.775
		L310.125,180l0.468-0.463l0.301,0.515l1.061,0.966V180z M334.967,178.982l0.37-0.091l0.482-0.191l0.412,0.024l0.178,0.533
		l-0.153,0.545l-0.404,0.306l-0.54,0.263l-0.576,0.412l-0.688-0.103l-1.208-0.521l-1.378-0.406L330.293,180l-0.267-0.436
		l-0.301-0.027L328.893,180l0.251-1.018l0.448-0.621l0.735-0.309l1.116-0.088l0.278,0.142l0.543,0.66l0.368,0.215l0.593,0.058
		L334.967,178.982z M465.646,365.655l0.22,0.289l0.014,0.675l-0.507,0.351l-0.568,0.054l-0.479-0.173l-0.365-0.363l-0.37-0.25
		l-0.114-0.315l0.298-0.202l0.34,0.173l1.651,0.318l-0.053-0.247l-0.039-0.119L465.646,365.655z M460.869,365.411l0.54,0.122
		l0.949,0.324l-0.098,0.417l-1.047,0.062l-0.663-0.455l0.1-0.387L460.869,365.411z M233.077,293.312l0.518,0.581l0.059,1.3
		l-1.166,0.985l-2.711,1.006l-1.993,1.009l-0.459,0.126l-0.354,0.239l-0.264,0.314l-0.96,0.296l-1.481,0.054l-0.29-0.21l0.827-0.305
		l1.367-1.146l0.752-0.216l0.64-0.398l0.501-0.572l0.423-0.332l1.954-0.764l0.813-0.036l0.768-0.374l0.618-0.605l0.239-0.521
		l0.083-0.323L233.077,293.312z M241.88,292.15l0.924-0.195l0.084,0.377l-1.016,0.824l-1.194,0.767l-2.138,1.755l-1.197,0.012
		l-0.924-0.958l-0.228-0.988l0.195,0.126l0.729,0.8l1.133-0.123l0.919-0.74l0.276-0.44l-0.267-0.027l0.2-0.144l2.049-0.899
		L241.88,292.15z M187.653,270.709l2.561,1.168l1.133,0.888l-0.802,0.348l-1.862,0.09l-1.898-0.837l-0.699-1.258L187.653,270.709z
		 M125.557,270.205l0.17-0.009l0.345,0.018l-0.365,0.135l-1.333,0.045l-1.537-0.096l-1.041-0.471l0.685-0.387l2.032,0.408
		L125.557,270.205z M262.148,262.485l0.47,0.559l0.161,1.021l-0.54,0.042l-0.718-0.432l-0.707,0.06l-0.418-0.114l-0.306-0.457
		l-0.173-0.559v-0.616l0.434-0.288l0.752,0.183l0.71,0.367L262.148,262.485z M454.975,226.812l0.153-0.211l0.49,0.247l-0.039,0.464
		l-0.504,0.82l-0.175,0.464l-1.247,0.428l-0.615-0.018l-0.131-0.476l-0.017-1.218l0.406-0.139l0.952,0.277l0.643-0.09
		L454.975,226.812z M196.594,221.126l0.251,0.887l0.212,1.713l-0.401,1.305l-0.356,0.497l-0.278,0.476l-0.314-0.308l0.148-4.661
		l-0.173-0.621l-0.033-0.392l0.256-0.06l0.328,0.311l0.262,0.558L196.594,221.126z M421.668,220.046l0.601-0.244l2.658-0.124
		l-0.883,0.754l-1.138,0.748h-0.468l0.003-0.492l-0.22-0.413L421.668,220.046z M390.502,203.746l0.938,0.544l0.381,0.517
		l-0.618,0.662l-1.058,0.19l-0.484-0.48l0.006-0.52l-0.198-0.248l-0.267-0.148l-0.376,0.054l-0.476-0.127l-1.322-0.94l-0.615-0.719
		l0.075-0.743l0.86-0.236l-0.142-0.471l0.05-0.641l0.367-0.242l0.459,0.822l-0.198,1.197l0.482,0.163l1.319,0.29l0.42,0.64
		L390.502,203.746z M380.5,195.93l0.535,0.768l0.097,0.526l-0.415,0.357l-0.818,0.26l-0.484,0.532l0.309,0.417l0.59,0.106
		l0.111,0.417l-0.518,0.544l-0.791,0.109l-0.788-0.49l-0.443-0.671l0.206-0.444l0.423-0.354l0.161-0.366l-0.612-0.097l-0.635-0.354
		l0.69-1.106l1.542-0.408L380.5,195.93z M364.416,189.604l0.259,0.548l0.276,0.983l-0.186,0.188l-0.384-0.563l-0.317-0.345
		l-0.284,0.024l-0.451,0.094l-0.551-0.076l-0.401-0.339l-0.245-0.405l0.022-0.175l0.234,0.051l0.108-0.408l0.125-0.889l0.743-0.182
		l0.832,0.883L364.416,189.604z M351.875,185.313l0.173,0.236l0.276,0.496l-0.086,0.493l-0.356,0.427l-0.39,0.03l-0.462-0.33
		l-0.323-0.511l-0.278-0.563l-0.543-0.188l-1.01-0.581l-0.306-0.133l-0.117-0.339l-0.117-0.163l-0.445-0.282l-0.189-0.602
		l0.665-0.442l0.509-0.097l0.509-0.042l0.593,0.169l-0.008,0.415l0.482,0.524l1.002,0.902L351.875,185.313z M341.152,181.807
		l0.782,0.009l0.938,0.173l-0.117,0.333l-0.554,0.139l-0.537-0.045l-1.759,0.227l-0.657,0.533l-1.035,0.448l-0.935,0.254
		l-0.117-0.136l-0.167-0.49l0.262-0.148l0.612,0.073l-0.111-0.66l0.34-0.412l0.98-0.142l0.501-0.018L341.152,181.807z
		 M322.88,177.52l0.181,0.227l0.153,0.579l-0.17,0.515l-0.301-0.024l-0.217,0.058l-0.067,0.536l-0.354,0.091l-0.785-0.158
		l-0.515,0.285l-0.136,0.5l-0.234-0.233l-0.047-0.948l0.688-0.809l1.183-0.473L322.88,177.52z M315.595,177.938l4.279,0.5l0.1,0.215
		l-0.061,0.46l-0.401,0.139l-0.507-0.285l-0.487-0.021l-0.309,0.469l-0.275,0.185l-1.453-0.663l-0.804-0.254l-0.473-0.082
		l-1.264,0.136l-0.74-0.055l-1.946-0.718l-0.668-0.167l-0.504-0.688l-0.398-0.197l0.281-0.406l1.331,0.17l1.912,0.724
		L315.595,177.938z M308.497,174.675l0.317,0.109l0.22,0.639l-0.523,0.615l-0.791-0.13l-0.76-0.248l-0.816-0.112l-0.774-0.327
		l-0.34-0.524l-0.295-0.321l-0.612-0.209l0.468-0.436l1.564-0.182l1.873,1.154L308.497,174.675z"/>
</g>
<g id="Copyright">
	<text transform="matrix(1 0 0 1 681.6426 577.5916)" class="st1 st2">© Vemaps.com</text>
</g>
</svg>
