<?xml version="1.0" encoding="utf-8"?>
<!-- Generator: Adobe Illustrator 23.0.1, SVG Export Plug-In . SVG Version: 6.00 Build 0)  -->
<svg version="1.1" xmlns="http://www.w3.org/2000/svg" xmlns:xlink="http://www.w3.org/1999/xlink" x="0px" y="0px"
	 viewBox="0 0 800 600" style="enable-background:new 0 0 800 600;" xml:space="preserve">
<style type="text/css">
	.st0{fill:#808080;}
	.st1{font-family:'Roboto-Regular';}
	.st2{font-size:14px;}
</style>
<g id="Estonia">
	<path class="st0" d="M318.098,464.122l1.223-1.988l0.9-2.086l0.408-2.487l0.284-2.622l0.408-2.462l5.507-13.717l2-8.666l5.62-6.875
		l2.047-3.888v-10.661l0.853-4.838l0.171-2.703l-0.626-2.327l-0.9-2.04l-0.55-2.373l-0.029-2.472l1.478-4.731l0.066-2.43
		l-0.057-2.43l0.389-2.458l2.388-3.27l3.497-2.307l3.147-2.921l1.384-5.104l-1.09-4.747l-2.587-3.756l-9.857-7.879l-4.777-2.043
		l-4.815-0.434l-4.056,2.034l-1.289,1.817l-1.327,2.639l-1.024,2.909l-0.408,2.637l-0.171,3.448l-0.455,1.994l-3.611,6.431
		l-1.46,2.064l-1.687,1.352l-2.104,0.604l-4.265-1.199l-2.113-0.009l-1.99,1.965l-2.104,5.044l-1.071,0.918l-2.047-0.81
		l-1.232-1.369l-3.526-6.063l-5.374-4.931l-3.128-3.969l-7.734-3.303l-4.672-0.415l-2.218-0.993l-0.607-0.686l-1.289-1.914
		l-0.569-0.569l-1.052-0.135l-0.711,0.623l-0.644,0.768l-0.834,0.397l-1.052-0.515l-1.137-0.948l-1.137-0.415l-1.052,1.048
		l-0.701,1.3l-0.749,0.966l-0.825,0.217l-0.881-0.894l-0.711-1.842l-0.654-2.547l-0.464-2.675l-0.189-2.178l-0.55-3.3l-1.327-1.737
		l-1.554-1.285l-1.26-2.009l-0.692-2.905l0.01-2.291l0.682-5.453l0.114-6.6l-0.626-5.462l-1.763-2.687l-3.365,1.743l-1.46-0.163
		l-2.237-1.525l-2.199-1.988l-1.26-1.58l-0.843-3.116l-0.133-2.563l-0.455-1.291l-1.753,0.727l-1.564,2.154l-0.929,2.39
		l-0.976,1.099l-1.734-1.753l-0.398-2.172l0.739-2.4l1.062-2.428l0.55-2.219l-0.673-4.167l-1.336-5.535l-0.91-5.886l0.531-5.197
		l1.024-1.97l0.967-0.292l2.455,0.876l0.853-0.474l0.398-1.058l-0.047-1.049l-1.886-1.917l-0.313-2.985l0.663-2.539l1.526-0.064
		l4.464,2.201l4.341-0.776l4.331-1.69l4.436-0.502l2.284,0.932l4.492,3.014l1.933,0.648h3.573l0.341-0.712l0.142-1.589l-0.208-1.58
		l-0.673-0.712l-1.829-1.051l-0.445-2.376l0.692-2.596l1.63-1.655l1.943,0.165l4.54,2.551l2.237,0.357l-3.137-3.721l-3.696-2.634
		l-3.668-0.229l-3.09,3.512l-2.114-2.844l-2.379-0.238l-4.957,1.546l-8.52-0.594l-2.682,0.594l-2.332,1.427l-1.185,1.106
		l-0.862,1.243l-0.711,0.201l-3.696-1.042l-2.256,0.402l-6.53,2.806l4.322-8.064l2.227-2.004l3.857-0.677l0.853-1.602l-7.279-9.992
		l-0.995-4.244l-3.81-5.788l-0.038-4.516l2.521-3.462l7.734,0.551l2.54-3.408l2.009,1.323l2.066,0.156l2.047-0.772l3.753-3.189
		l0.948-1.112l0.332-1.48l0.047-2.768l-0.758-5.411l-1.877-3.922l-2.559-2.736l-2.758-1.824l1.45,2.957l3.45,3.454l1.46,2.983
		l-0.986,0.635l-2.142,0.23l-0.843,0.543l-2.388,3.091l-0.161,0.782l0.019,1.343l-0.654,2.51l-1.128,0.23l-0.72-1.011l-0.597-1.398
		l-0.739-0.772l-7.497-1.904l-3.08-2.585l-3.08-4.924l0.796,0.138l1.658-0.202l0.796,0.064l-0.825-4.08l0.663-2.829l5.288-6.242
		l1.213-1.052l1.223,0.646l1.981,2.748l0.133-11.719l-3.867-11.163l-1.782-8.642l6.378-4.158l1.298,0.167l2.445,1.01l1.384,0.241
		l1.023-0.482l1.668-2.131l2.644-1.39l1.422-1.891l1.649-1.669l2.379-0.204l6.198,6.061l0.351,0.056l1.393,0.232l1.365-2.047
		l0.085-2.447l-0.806-2.15l-1.441-1.252l1.308-2.884l2.559-1.345l10.312-0.232l5.061,1.345l5.44-0.417l6.066-2.357l5.933-0.538
		l4.89,5.01l2.275-5.288l-0.938-4.122l-7.44-10.295l-1.024-2.194l0.332-2.484l1.469-2.41l1.554-1.47l1.725-0.521l2.047,0.438
		l3.27,2.429l6.549,7.032l3.374,1.45l3.27-1.701l-0.995-3.906l-3.042-4.215l-2.815-2.653l2.303-1.48l10.293-0.764l4.066-1.602
		l1.346-2.72l1.384-7.523l0.493-1.558l7.667-1.885l2.663,0.317l2.284,1.735l4.208,4.924l2.331,1.044l2.151-1.007l1.82-1.958
		l1.839-1.417l2.208,0.672l6.72,4.839l2.066,0.568l2.085-0.96l-0.455-2.125l-1.886-2.098l-2.161-0.933v-1.716l3.061,0.317
		l1.213-0.653l0.493-2.081l0.408-2.511l1.014-0.906l1.317,0.224l1.308,0.924l2.104,3.472l1.479,3.974l1.876,2.601l3.289-0.662
		l1.346-1.072l0.682-0.951l2.701-5.756l0.294-1.213l-1.043-3.529l-0.758-1.345l-1.042-0.953l-0.91-1.177l-0.398-2.093l-0.019-2.168
		l-0.114-1.627l-0.265-1.534l-0.474-1.796l3.592-2.423l4.445,3.695l7.866,9.851l2.938,0.803l9.06-2.373l2.749,0.729l4.815,3.25
		l2.407,0.728l2.17-1.204l-0.995-5.941l1.649-2.411l2.73,0.084l5.658,3.785l24.879,7.256h0.199l-0.825-5.341l1.564-2.934
		l2.834-1.159l10.842,0.019l1.223-0.71l-0.047-1.626l-0.834-1.627l-1.213-0.729l-3.336-4.228l-1.763-9.268l-0.398-9.298l0.739-4.222
		l2.047,1.745l3.829,7.671l2.142,1.743l2.483,1.04l1.981,2.501l3.526,5.88l2.587,1.984l3.753,1.328l3.393-0.739l1.469-4.211
		l-0.9-3.905l-1.772-2.613l-1.251-2.933l0.682-4.772l-0.739-0.197l-1.052-0.9l-0.54-0.319l2.796-3.546l3.573,1.164l6.426,6.95
		l-0.862,1.715l1.431,2.942l0.967,5.582l1.592,2.471l2.189,1.198l1.251-0.281l0.881-0.197l1.962-2.022l1.734-3.399l-0.862-1.573
		l1.659-5.435l2.493,1.687l2.616,4.31l2.047,2.444l2.388-0.609l0.237-1.498l-0.502-2.005l0.189-2.042l1.46-2.268l1.355-0.712
		l1.545,0.394l4.028,2.165l4.435,4.356l0.455,0.927l0.227,1.292l0.161,1.694l1.08,0.384l22.016-0.384l2.246,0.711l4.748,3.154
		l7.174,1.712l6.52,3.947l4.673,1.355l2.568,0.112l1.933-0.729l3.943-3.245l1.678-0.729l4.843,0.44l4.511,1.403l4.341,2.422
		l4.274,3.58l4.872,5.343l5.364,5.871l5.686,2.118l4.862,3.106l2.35,0.932l20.794,1.846l18.5-1.128l15.6-1.128l17.951,4.539
		l17.922,1.127l18.197,4.471l4.824-1.583l4.511-3.121l3.459-4.306l4.18-7.975l2.274,4.304l5.224,2.771l2.492,2.675l2.744,6.815
		l1.095,2.081l1.372,1.643l3.003,2.588l1.294,1.583l-0.542,4.311l-2.829-1.819l-5.122,4.25l-9.455,0.791l-3.695,1.876l8.45,3.374
		l2.756-0.106l-2.359,3.231l-13.613-0.271l-6.5,3.666l-2.516,3.358l0.987,4.016l-2.01,4.908l-3.623,17.124l-6.764,19.066
		l-1.998,4.812l-4.983,9.393l-1.288,5.095l-2.031,3.327l-0.172,0.282l-10.375,9.313l-14.853,13.366l-3.67,12.733l-4.153,14.383
		l2.125,10.201l2.377,11.397l5.778,27.708l6.524,31.022l-7.077,16.806l-1.312,11.279l1.456,10.44l2.822,5.958l2.378,5.017
		l4.622,10.138l5.91,8.281l0.716,6.407l-0.752,5.765l0.169,6.341l2.221,0.897l2.149,1.783l0.71,5.306l-0.554,2.819l-0.842,2.416
		l-0.445,2.523l0.65,3.083l0.951,1.224l11.796,4.847l1.914,2.157l0.987,4.334l-1.456,2.952l-2.72,1.951l-7.306,3.024l-16.814,2.571
		l-2.18,0.333l-1.517,0.932l0.927,0.486l2.479,2.253l-3.226,1.637l-1.601,1.304l-1.162,1.913l-0.536,3.684l1.288,6.156l-0.132,2.767
		l-2.022,2.214l-9.629,3.407l-1.896,1.914l-0.788,1.266l-0.578,1.727l-0.313,2.121l0.108,1.091l0.265,0.866l0.301,2.884l0.271,0.708
		l0.217,0.776l-0.247,4.495l-0.325,0.932l-0.843,1.05l-1.432,0.719l-1.589,0.107l-1.432,0.505l-0.999,1.864l0.06,2.733l0.819,3.618
		l1.095,3.432l0.927,2.276l-3.84,2.488l-17.971-6.631l-9.352-0.594l-2.774-1.352l-2.353-2.777l-4.273-6.618l-2.744-2.19l-4.02-1.382
		l-2.022-0.045l-2.046,0.461l-1.806-0.337l-1.3-1.545l-1.432-1.107l-2.154,1.006l-1.818,2.759l-1.192,3.224l-1.396,3.009
		l-2.395,2.144l-2.058,0.617l-9.039-0.494l-3.9,1.279l-3.804,2.266l-3.443,3.062l-0.746,1.401l-0.409,1.598l-0.554,1.328
		l-1.192,0.549l-1.119-0.381l-2.155-1.569l-1.107-0.291l-1.577,0.93l-1.589,1.435l-1.805,0.314l-2.155-2.454l-3.9-5.595
		l-1.938-1.907l-0.029-0.012l-9.242-4.004l-1.479-0.641l-4.827-3.475l-3.96-4.713l-11.025-18.12l-3.876-4.518l-12.867-10.821
		l-1.011-2.692l-0.349-4.506l0.349-2.005l0.662-1.299l0.409-1.311l-0.385-2.086l-0.867-1.068l-1.372-0.69l-24.47-2.188l-2.925-2.834
		l-1.492-4.375l-1.083-4.445l-1.757-3.059l-1.781-0.057l-1.304,0.453l-6.255,2.171l-2.913,0.249l-2.744-0.419l-2.576-1.592
		l-2.455-3.241l-0.626-1.74l-0.096-1.457l-0.035-0.229l-0.182-1.2l-0.999-1.645l-1.132-0.794l-4.116-0.913l-4.592-2.957
		l-7.053-8.598l-4.67-2.546l-1.18,0.068l-0.758,0.409l-0.722,0.171l-1.059-0.648l-0.734-1.29l-1.384-3.986l-0.794-1.513
		l-2.082-1.718l-2.118-0.381l-1.493,1.462l-0.132,3.811l3.262,5.957l0.794,3.511l-2.311,3.066l-3.731,1.936h-1.829l-1.709-1.448
		l-1.42-4.736l-1.071-5.421l-1.601-4.526l-3.021-2.042l-5.453,0.154l-2.744,0.814l-2.54,1.632l-1.628,1.678l-6.99,7.201
		l-2.973,2.068l-8.943,1.318l-2.817,1.823l-2.436,2.256l-1.235,1.144l-3.033-0.511l-3.033-1.958l-3.635-0.942l-1.709,2.276
		l-2.142,6.071l-1.818,1.452l-7.077,0.794l-8.173-0.76l-2.335,0.516l-6.115,5.651l-4.622,2.459l-1.457,1.699l-1.914,5.208
		l-1.3,2.212l-2.72,1.539l-3.322,0.175L318.098,464.122z M275.848,410.292l-0.626-5.312l2.019-3.205l3.364-1.177l3.393,0.799
		l1.024,5.216l-2.293,4.702l-3.696,1.973L275.848,410.292z M192.843,323.47l2.853,1.061l3.895,2.648l3.469,3.499l1.734,3.588
		l-0.967,3.133l-7.402-5.253l-2.767,2.12l1.469,0.408l1.336,0.652l1.118,1.25l0.777,2.11l-5.023-0.751l-2.237-1.331l-2.284-2.337
		l-0.445-1.06l-0.464-1.577l-0.739-1.441L186,329.563l-1.791-0.009l-0.199,0.453l-0.682,1.214l-0.227,0.816l-0.626,3.234
		l-0.417,1.277l-0.891,1.467l-0.796,0.851l-1.734,1.484l-0.787-0.127l-1.09-0.435l-0.967,0.426l-0.427,2.471l0.057,1.357
		l0.142,1.429l0.228,1.339l0.294,1.112l-2.673,2.116l-2.483,3.1l-2.388,1.834l-5.175-4.094l-2.644,0.136l-0.853,1.871l2.559,2.765
		l-7.781,10.724l-1.829,0.992l-1.867,0.595l-1.971,1.317l-3.393,4.327l-1.592,1.28l-2.635,0.451l-5.317-0.541l-2.531,0.775
		l-1.289,2.784l5.421,3.431l-3.905,3.727l-6.284,0.864l-1.659-5.131l-1.763-1.225l-2.151-0.558l-2.189,0.144l-1.905,0.954
		l-1.772,1.846l-0.701,0.945l-0.54-0.459l-1.308-2.332l-1.64-1.387l-1.033,1.477l-0.995,3.754l-0.834,0.711l-0.379,0.504
		l-0.351,0.306l-0.805,0.108l-0.047-0.765l-0.616-3.322l-0.066-0.702l-1.649-0.09l-2.038,0.927l-1.896,1.512l-1.242,1.62
		l-1.251,1.134l-1.355-0.531l-1.346-0.819l-1.223,0.216l-0.862,0.729l-2.218,1.269l-0.9,0.207l-3.535,2.249l-3.298,3.039
		l-1.526,2.274l-0.844,0.728l-0.351,1.105l-0.218,8.218l-0.521,4.846l-0.995,4.807l-3.213,9.041l-0.957,2.033l-1.308,1.773
		l-1.156,1.951l-0.171,2.13l0.531,4.919l-1.516,2.226l-16.491,15.083l-3.668,0.134l-3.118-4.631l0.502-2.553l-0.427-2.411
		l-1.156-1.813l-1.63-0.706l-0.313-0.366l-0.171-0.858l-0.047-1.028l0.133-0.894L48.33,439l0.91-0.286l0.815-1.52l1.26-4.632
		l0.692-2.022l4.379-6.839l2.009-4.64l1.109-2.025l1.223-0.843l1.687,0.52l1.498,0.995l1.393,0.618l1.422-0.627l0.635-1.47
		l0.682-4.6l0.701-2.153l4.416-6.839l-2.635-2.856l-4.483-1.914l-8.103-1.402l-2.246-2.373l-4.208-10.453l-2.682-2.395l-7.563-0.09
		l-3.772-1.243l-3.336-3.072l-1.924-3.83l-0.881-2.596l-0.057-1.894l1.441-1.046l6.122,1.804l-1.346-3.364l-1.99-3.465l-0.73-2.681
		l2.474-1.083l2.076,1.499l1.867,2.871l1.886,1.787l2.189-1.742l-0.986-3.873l1.526-2.33l2.616-0.732l2.417,0.867l-1.052-2.547
		l-1.412-4.781l-5.137-10.077l-2.502-3.268l-2.72-4.774l-1.564-2.021l-3.298-3.209L30,322.1l6.132,2.848l1.905,0.045l1.734-0.707
		l0.256-0.789l0.057-1.17l1.109-1.878l4.445,0.181l3.374,1.125l2.928,2.957l5.061,9.481l0.654,2.273l0.256,3.042l0.18,1.312
		l0.493,0.697l0.645,0.281l0.701,0.072l1.062-0.869l0.019-1.928l-0.644-3.287l0.663-5.844l0.569-2.547l1.156-2.403l1.535-1.478
		l3.744-2.005l1.507-1.769l1.327-3.104l0.521-1.652l0.796-0.663l2.132-0.118l0.313,0.49l0.398,1.153l0.37,1.335l0.152,1.035
		l0.161,2.668l0.464,1.307l1.687,1.279l3.478,0.626l1.128-4.464l0.123-6.137l0.512-4.415l3.914-3.454l16.434-1.818l10.16-8.198
		l3.829-1.102l1.27,1.202l2.161,5.242l1.298,1.201l0.739,0.473l1.242,2.092l0.853,0.473l1.175-0.473l2.047-2.11l0.739-0.455
		l2.388,0.719l1.933,1.319l1.99,0.7l2.521-1.082l3.81-4.894l2.407-1.82l4.075,2.129l6.208-1.529l2.606,0.637l2.559,1.62l5.326,1.883
		l5.44,3.928l6.359,2.954l2.36,3.398l1.687,4.604l0.9,1.362l1.715,1.661l4.701,2.486L192.843,323.47z M210.424,306.716l1.81,3.626
		l0.36,1.844l-2.369,1.753l-0.967,1.961l-1.099,1.407l-1.772-0.672l-1.867-1.344l-2-0.708l-4.094-0.381l-1.621,0.563l-3.469,2.052
		l-1.289-0.182l-10.387-9.92l-5.98-2.373l-2.786-2.892l0.408-4.722l1.469-1.174l3.573,1.256l1.725-0.919l0.303-1.202l0.796-4.654
		l0.493-1.64l2.331-3.162l2.464-1.158l2.559,0.109l10.549,3.163l4.881,3.007l1.573,1.867l0.626,2.158l-0.114,2.212l-0.256,2.13
		l0.18,1.901l0.948,1.974l2.142,2.673L210.424,306.716z M208.377,205.747l2.985,4.851l0.474,2.549l-1.042,3.55l-1.223,1.131
		l-1.393-0.441l-1.384-0.993l-1.204-0.469l-1.242,0.478l-3.535,2.473l-2.388,0.046l-3.981-2.409L192,215.926l-0.682,0.469
		l-0.284,1.021l-0.502,0.993l-4.265,1.048l-1.27-0.138l-1.744-1.149l-3.365-9.512l-0.616-1.289l0.559-2.652l1.45-1.63l1.962-0.838
		l2.559-0.332l4.407,0.405l8.151,2.653l5.127-1.501l2.587-0.064L208.377,205.747z M83.501,235.957l-7.554,1.972l-3.715-0.348
		l-15.429-8.534l-2.076-2.332l1.261-3.73l4.511-0.753l8.615,1.277l34.337-4.632l-2.275-1.545l-0.171-1.572l1.46-0.57l2.578,1.508
		l1.365-0.138l-0.104-7.977l1.943-2.072l2.635-0.175l2.047-0.847l1.725-1.879l1.592-3.261l0.408-2.018v-1.908l0.218-1.881
		l1.033-1.937l1.223-0.572l4.985,0.553l0.076,0.018l2.976,0.47l3.478,1.3l2.047,2.176l-2.625,6.433l1.137,3.665l2.227,3.02
		l1.886,1.482l11.705-0.801l11.288,5.557l1.801,2.97l0.36,2.326l-0.588,3.492l0.228,2.021l1.042,2.139l2.445,2.047l0.938,1.285
		l0.749,1.377l1.64,1.899l0.825,1.266l0.341,1.036l0.114,1.165l-0.057,2.558l0.37,1.485l0.787,0.44l0.815,0.027l0.417,0.22
		l0.171,4.562l-0.815,2.353l-1.687,0.275l-4.805-3.397l-1.223-0.522l-1.223-0.202l-0.843,0.779l-0.294,1.438l-0.559,0.751
		l-1.516-1.3l-1.933,0.989l-1.99,0.018l-1.858,0.632l-1.441,2.847l1.099,0.037l0.749,0.586l0.455,1.226l0.142,1.976l-0.171,2.826
		l-0.54,0.549l-0.91,0.027l-1.242,1.28l-2.123,1.28l-3.346,0.128l-3.099-1.134l-1.365-2.515l1.279-2.351l2.549-1.848l1.829-1.867
		l-0.881-2.362l-1.99-0.165l-2.872,1.355l-2.843,2.078l-1.924,1.949l-2.502,5.488l-3.98,13.018l-3.033,4.772l-5.099,2.754
		l-6.464,0.784l-6.284-1.742l-4.502-4.862l1.062-0.776l1.024-1.095l1.896-2.858l-1.611-2.393l-2.123-4.13l-1.829-4.543l-0.796-3.649
		v-5.436l-0.332-3.187l-1.147-2.492l-5.573-6.718l-3.184-2.21l-3.469-1.027L83.501,235.957z M342.522,75.867l1.753,3.249
		l2.227,6.026l-0.843,2.291l-3.09,0.813l-3.165-3.535l-0.208-4.341l1.535-4.081L342.522,75.867z M196.322,476.078l1.185,1.254
		l0.512,1.983l-0.569,2.863l-2.322,0.276l-2.417-1.6l-1.365-2.018l0.095-1.877l0.227-1.788l0.436-1.317l1.782,0.249L196.322,476.078
		z"/>
</g>
<g id="Copyright">
	<text transform="matrix(1 0 0 1 681.6426 577.5916)" class="st1 st2">© Vemaps.com</text>
</g>
</svg>
