<?xml version="1.0" encoding="utf-8"?>
<!-- Generator: Adobe Illustrator 23.0.1, SVG Export Plug-In . SVG Version: 6.00 Build 0)  -->
<svg version="1.1" xmlns="http://www.w3.org/2000/svg" xmlns:xlink="http://www.w3.org/1999/xlink" x="0px" y="0px"
	 viewBox="0 0 800 600" style="enable-background:new 0 0 800 600;" xml:space="preserve">
<style type="text/css">
	.st0{fill:#808080;}
	.st1{font-family:'Roboto-Regular';}
	.st2{font-size:14px;}
</style>
<g id="Spain">
	<path class="st0" d="M442.446,309.47l-0.598-0.547l-0.418-0.595l-0.305-0.678l-0.246-0.747l0.369-0.056l0.511,0.047l0.596,0.333
		l0.451,0.349l0.487,0.114l0.708-0.362l-0.237,0.704l-1.178,0.937L442.446,309.47z M506.962,326.629l0.695,1.381l0.238,0.355
		l0.008,0.011l-0.812,0.299l-0.559-0.606l-0.085-0.913L506.962,326.629z M538.068,45.166l-0.064,0.432l-0.019,0.781l0.007,0.452
		l0.773,0.378l0.336,0.459l0.091,0.721l0.072,0.159l0.064,0.14l0.291-0.049l0.316-0.156l0.58-0.078l0.548-0.234l0.247,0.029
		l0.511,0.245l0.266,0.191l-0.004,0.175l-0.075,0.226l0.045,0.324l0.196,0.633l0.134,0.169l0.329,0.152l0.291,0.044l0.34-0.044
		l0.294-0.17l0.153-0.324l0.213-0.632l0.403-0.246l0.535,0.019l0.839,0.252l1.124,0.592l0.299-0.054l0.298-0.107l0.323,0.004
		l0.775,0.802l0.103,1.354l-0.293,1.473l-0.411,1.169l-0.341,0.461l-1.11,1.201l-0.222,0.312l0.339,0.8l0.489,0.556l0.596,0.345
		l0.66,0.177l0.738,0.063l0.458-0.152l0.23-0.499l0.065-0.967l0.187-0.74l0.464-0.527l0.605-0.23l0.609,0.162l-0.564,0.487
		l-0.219,0.484l0.121,0.494l0.456,0.527l0.507,0.309l1.563,0.279l0.926,0.516l0.879,0.721l1.012-0.093l0.234,0.092l0.446,0.286
		l0.202,0.17l0.933,0.117l0.447,0.13l0.329,0.386l0.939,0.707l1.031,0.337l2.148,0.178l2.079-0.376l0.722,0.249l0.395,1.023
		l0.111,0.288l-0.014,0.258l-0.091,0.169l-0.029,0.198l0.151,0.336l0.274,0.268l0.265,0.033l0.263-0.039l0.273,0.046l0.925,0.577
		l0.479,0.403l1.046,1.41l0.039,0.157l-0.052,0.16l-0.006,0.138l0.178,0.083h0.438l0.118,0.037l0.156,0.222l-0.038,0.238
		l-0.004,0.219l0.26,0.173l0.212-0.033l0.451-0.311l0.237-0.081l0.047-0.874l0.687,0.019l1.455,0.683l0.823-0.065l0.652-0.391
		l1.296-1.027l0.234,0.239l0.211-0.082l0.187-0.28l0.147-0.365l0.414,0.392l0.062,0.037l1.566,0.955l0.32,0.684l0.722,0.086
		l0.781-0.215l0.485-0.206l-0.06,0.638l0.157,0.635l0.325,0.544l0.445,0.367l0.165,0.203l0.035,0.259l0.075,0.237l0.284,0.128
		l0.343,0.099l0.186,0.167l0.125,0.185l0.156,0.162l1.064,0.423l0.933-0.087l2.08-0.769l1.654-0.247l0.506-0.344L591,69.503
		l1.435,0.376l0.431,0.214l0.578,1.026l0.42,0.502l0.401-0.059l0.757-1.073l0.478-0.482l0.489-0.176l0.745,0.638l0.059,0.119
		l-0.009,0.153l0.019,0.151l0.132,0.126l0.539,0.106L598,71.097l1.028-0.272l0.447,0.189l3.36-0.098l0.956,0.129l0.354-0.129
		l0.18-0.302l0.054-0.09l0.028-0.591l-0.184-0.556l-0.323-0.409l-0.382-0.138l0.164-0.369l0.1-0.156l0.201-0.159l-0.298-0.415
		l0.379-1.029l-0.059-0.785l0.128-0.528l0.621-0.246l0.739-0.054l0.474,0.048l0.931,0.369l0.471,0.104l0.524-0.051l0.463,0.082
		l1.165,0.693l0.8,0.313l0.234,0.18l0.429,0.428l0.29,0.121l0.256-0.135l0.253-0.207l0.276-0.09l0.228,0.088l0.446,0.366
		l0.206,0.124l2.299,0.156l0.563,0.176l0.477,0.43l0.265,0.527l0.203,0.569l0.276,0.506l0.463,0.339l0.298,0.038l0.9-0.292
		l3.321,0.01l0.633,0.173l-0.117,0.521l0.137,0.147l0.254,0.014l0.226,0.122l0.477,0.861l0.518,0.719l0.454,1.256l0.39,0.511
		l-0.12,0.221l-0.15,0.37l-0.033,0.345l0.226,0.153l-0.003,0.141l-0.446,0.775l-0.089,0.416l0.607-0.081l0.474,0.424l0.092,0.578
		L625,78.035l-0.153,0.04l-0.457,0.209l0.777,1.216v0.458l0.309,0.23l1.633,0.218l0.22-0.03l0.312-0.173l0.17-0.208l0.117-0.21
		l0.15-0.172l1.7-0.222l0.864-0.365l0.293-0.986l0.098-0.114l0.081-0.041l0.075,0.03l0.07,0.113l0.32,0.117l0.326-0.004l0.301-0.141
		l0.256-0.304l0.081,0.053l0.053,0.075l0.019,0.092l-0.014,0.112l0.496,0.207l1.675,0.231l0.566,0.237l1.513,1.04l0.633,0.148
		l0.504,0.028l0.418,0.185l0.368,0.614l0.354,1.366l0.256,0.564l0.529,0.463l0.332,0.214l0.365,0.058l0.702-0.079l0.443-0.113
		l0.312-0.203l0.454-0.487l0.644-0.495l0.128-0.212l0.203-0.539l0.128-0.191l0.429-0.205l1.273,0.161l1.666-0.523l0.847-0.091
		l0.752,0.426l0.323,0.269l1.569,0.741l0.839,0.185l0.429,0.021l0.198,0.589l0.423,0.569l0.521,0.414l0.499,0.133l0.546,0.311
		l0.301,0.102l0.281-0.008l0.181-0.178l0.226-0.591l0.209-0.192l0.521-0.014l1.24,0.426l0.594,0.112l0.722-0.041l-0.011-0.158
		l-0.334-0.378l-0.245-0.698l0.215-0.315l1.137-0.902l0.477-0.245l0.552-0.042l1.056,0.163l0.563-0.09l0.432-0.275l0.814-0.795
		l0.432-0.258l0.435-0.046l0.462,0.016l0.451-0.076l0.886-0.693l0.872,0.337l0.46-0.304l0.287,0.062l0.789,0.021l0.178,0.051
		l0.173,0.403l0.212,0.342l0.262,0.279l0.323,0.206l0.555,0.176l0.688,0.079l0.705-0.034l1.163-0.203l-0.061,0.493l-0.23,0.782
		l0.116,0.573v0.624l0.347,0.521l0.454,0.362l0.601-0.107l0.63-0.025l0.355,0.511h0.184l0.29-0.279l0.353,0.068l0.647,0.438
		l-0.638,1.274l-0.099,0.363l-0.09,0.551l-0.206,0.265l-0.243,0.202l-0.198,0.373l-0.428-0.213l-0.998,0.218l-0.847-0.363
		l-0.23-0.363l-0.5,0.104l-0.575,0.622l-0.309,0.779l-0.037,1.291l-0.026,0.888l0.162,0.653l0.434,0.467l0.93,0.568l0.518,0.694
		l0.598,0.893l-0.04,0.448l-0.354,0.356l-0.107,0.475l0.153,0.569l0.145,0.753l0.024,0.242l0.107,0.196l0.505,0.421l0.138,0.271
		l-0.094,0.707l-0.667,1.164l-0.338,0.928l-0.441,0.473l-0.766,1.082l-0.899-0.08l-1.03,0.758l-0.258,0.996l-0.774,0.441
		l-2.41,1.902l-0.484,0.788l-0.866,0.208l-0.637,0.172l-0.706,0.173l-0.294,0.091l-0.127,0.075l-0.413,0.383l-0.083,0.156
		l-0.105,0.264l-0.255,0.06l-0.316-0.013l-0.364,0.845l-3.414,1.453l-5.457,2.525l-0.553,0.586l-1.553,1.071l-2.012,0.86l-0.792,0.6
		l-0.726,0.995l-1.308,2.307l-0.772,1.081l-0.882,0.825l-1.893,1.043l-1.095,0.314l-1.843,0.185l-1.812,0.473l-0.549,0.337
		l-0.263,0.076l-0.922-0.041l-5.27,1.612l-2.295,0.169l-6.771,2.548l-1.896,0.415l-0.208,0.172l-0.474,0.854l-0.103,0.275
		l-0.136,0.205l-0.287,0.14l-0.643-0.393l-0.2-0.074l-1.187,0.031l-1.132,0.214l-1.031,0.469l-0.729,0.432l-3.045,3.034
		l-1.474,1.969l-2.927,3.008l-0.522,1.04l0.72,0.417l0.772,0.31l0.329-0.017l0.132-0.177l-0.101-0.262l-0.36-0.271l0.452,0.035
		l0.366,0.197l0.309,0.296l0.645,0.811l0.698,0.579l0.334-0.036l0.527,0.185l-0.035,0.741l-0.386,0.741l-0.263,0.388l-1.733,0.512
		l-0.746,0.665l-1.33,2.09l-0.807,0.647l-0.786,0.293l-0.865,0.123l-0.632-1.017l1.299-0.169l0.608,0.43l0.891-0.555l0.983-1.541
		l-0.544-0.087l-0.816,0.069l-2.223,0.728l-0.529,0.357l-0.45,0.484l-0.404,0.628l-0.838,2.057l-0.435,1.069l-0.483,0.679
		l-0.465,0.509l-0.364,0.588l-0.176,0.908l-0.698,0.714l-1.878,3.656l-0.314,0.372l-0.724,0.595l-0.358,0.38l-0.919,1.306
		l-1.604,1.35l-1.637,3.268l-0.742,0.793l-1.371,0.86l-0.692,1.023l-1.171,2.495l-0.694,1.06l-1.688,1.893l-2.782,4.648
		l-0.144,0.368l-0.062,0.844l-0.183,0.587l-0.294,0.445l-0.644,0.712l-0.37,0.518l-0.327,0.614l-0.144,0.591l-0.178,0.436
		l-0.843,1.236l-0.286,0.621l-0.195,1.251l0.084,1.736l0.183,1.485l0.521,2.305l1.689,3.711l0.293,0.561l0.332,0.609l-0.333,0.229
		l-0.386,0.312l0.153,0.633l0.264,1.261l0.45,1.15l0.701,1.265l0.701,1.392l1.007,1.77l0.397,0.506l1.007,0.801l1.014,1.062
		l0.573,0.452l0.733,0.186l1.231,0.123l1.292,0.376l1.158,0.655l0.845,0.95l-0.116,0.056l-0.272,0.201l0.323,0.148l0.213,0.228
		l0.731,0.591l0.266-0.072l0.171,0.426l0.013,0.54l-0.184,0.266l-0.505,0.03l-0.456,0.114l-0.413,0.221l-0.382,0.363l-0.316,0.728
		l-0.053,0.087l-0.105,0.124l-0.52,0.03l-0.193,0.093l-0.358,0.354l-0.314,0.17l-0.287,0.23l-0.267,0.544l0.201,0.49l-0.543-0.132
		l-0.372,0.09l-0.358,0.167l-0.495,0.091l-0.803,0.011l-0.379,0.129l-0.382,0.309l-0.318,0.567l-0.009,0.501l0.039,0.476
		l-0.173,0.491l-0.415,0.441l-0.398,0.158h-1.12l-1.22,0.279l-0.678,0.264l-0.858,0.618l-2.574,1.089l-0.408,0.29l-0.169,0.399
		l-0.213,0.14l-0.983,1.108l-0.294,0.512l-0.11,0.672l0.004,0.357l-0.1,0.143l-0.868,0.048l-0.386,0.116l-0.28,0.281l-0.102,0.52
		l-0.957-0.056l-0.241,1.365l0.398,3.139l-0.308,0.402l-0.47,0.114l-0.97-0.07l-0.608,0.156l-0.488,0.398l-0.383,0.536l-0.288,0.569
		l-0.171,0.485l-0.115,0.536l-0.081,1.447l-0.121,2.261l-0.055,0.631l-0.239,0.309l-0.715,0.278l-0.51,0.543l-0.258,0.454
		l-1.084,2.722l-0.057,0.556l0.004,0.042l0.121,1.358l-0.125,0.339l-0.735-0.911l-0.658,1.799l-0.354,0.297l-0.6,0.18l-0.224,0.463
		l0.094,0.638l0.884,1.604l0.267,0.334l0.869,0.572l0.618,0.299l0.538,0.066l0.226-0.414l0.498,0.29l0.182,0.398l-0.11,0.402
		l-0.388,0.306l-0.22,0.242l-0.236,0.136h-0.244l-0.238-0.166l-0.257,0.161l-0.74,0.277l-0.444,0.102l-0.767,0.41h-1.01
		l-0.346,0.072l-0.375,0.179l-0.661,0.447l-0.23-0.174l-1.073-0.523l-0.887-0.172l-1.713-0.039l-0.481,0.058l-0.422,0.152
		l-0.303,0.263l-0.144,0.328l0.085,0.328l0.299,0.587l-0.847-0.199l-0.806-0.196l-0.171-0.385l-0.14-0.299l-0.57-0.091l-0.789-0.324
		l-0.37-0.106l-0.404,0.415l-0.108,0.318l-0.758-0.026l-0.915-0.122l-0.796,0.411l-0.429,0.291l-1.2,1.184l-0.45,0.286l-0.535,0.116
		l-0.144,0.068l-0.214,0.16l-0.2,0.195l-0.087,0.158l-0.069,0.166l-0.286,1.119l-0.029,0.223l-0.232,0.184l-0.158-0.05l-0.145-0.116
		l-0.184-0.018l-0.24,0.155l-0.534,0.464l-0.249,0.095l-0.398,0.076l-1.375,0.599l-0.617,0.382l-0.116,0.4l-0.187,0.271l-0.487-0.07
		l-0.25,0.301l-0.151,0.592l-0.356,0.697l-0.797,1.153l-1.583,1.599l-0.688,0.953l-0.475,1.377l-0.2,1.176l-0.326,0.919
		l-0.145,0.941l-0.803,2.065l-0.569,0.941l-0.023,0.416l0.076,0.301l0.099,0.257l0.049,0.294l-0.045,0.299l-0.132,0.176
		l-0.206,0.082l-0.604,0.045l-0.165,0.078l-0.336,0.335l-0.946,0.656l-0.374,0.454l-0.276,1.39l-0.316,0.404l-0.423,0.318
		l-0.442,0.48l-0.104,0.258l-0.139,0.636l-0.142,0.277l-0.247,0.159l-0.299,0.079l-0.253,0.104l-0.276,0.641l-0.421,0.327
		l-0.54,0.218l-0.523,0.079l-1.012-0.322l-0.756-0.772l-0.659-0.919l-0.719-0.764l-0.959-0.6l-0.561-0.214l-0.608-0.085l-0.5,0.101
		l-0.875,0.463l-0.55,0.126l-0.249-0.068l-0.729-0.318l-0.325-0.074l-2.139,0.376l-0.435,0.252l-0.534,1.286l-0.552,1.503
		l-0.688,0.72l-0.132,0.096l-0.305,0.315l-0.687,0.297l-0.914,0.133l-0.484-0.181l-0.552,0.237l-0.709-0.479l-0.53-0.427
		l-0.496-0.222l-0.243,0.073l-0.245,0.313l-0.248,0.074l-0.283-0.159l-0.737-0.991l-0.751-0.535l-0.52-0.045l-1.468,0.489
		l-2.392-0.426l-2.164,0.176l-1.919-0.347l-2.741,0.334l-0.399,0.268l-0.375,0.37l-0.552,0.405l-0.981,0.618l-1.684-0.02
		l-1.034-0.839l-0.542,0.089l-0.371,0.203l-0.986-0.478l-0.396-0.537l-0.844,0.043l-0.896,0.064l-0.382,0.355l-1.387,0.159
		l-1.945-0.618l-0.947-0.319l-1.372,0.289l-1.928,0.558l-2.581-0.713l-0.627,0.149l-0.815,0.6l-2.341,0.348l-0.747,0.101
		l-4.812-0.386l-0.462,0.134l-0.349,0.309l-0.753,1.319l-0.154,0.283l-0.366,0.398l-0.288,0.488l-0.114,0.541l-0.795,1.338
		l-1.698,0.232l-0.734,1.452l-0.938,0.619l-0.254,0.15l-0.567,0.229l-1.145,0.262l-1.118-0.033l-3.13-0.393l-0.602-0.029
		L454,287.537l-0.306,0.24l-1.904,1.333l-1.842,0.163l-1.246,0.777l-0.332,0.116l-0.986,0.121l-0.432,0.151l-0.348,0.209
		l-0.353,0.47l-0.741,1.314l-0.022,0.315l-0.452,1.22l-0.241,0.501l-0.134,0.152l-0.198,0.182l-0.22,0.152l-0.444,0.172l0.03,0.253
		l0.113,0.302l-0.305,0.449l-0.882,1.645l-0.127,0.345l-0.127,1.559l-0.529,0l-0.222-0.736l-0.429-0.306l-0.635-0.231l-0.522-0.018
		l-0.088,0.326L439.826,299l-0.12,0.424l0.023,0.475l0.178,0.435l-0.135,0.244l0.073,0.517l0.149,0.326l0.079,0.271l-0.085,0.375
		l-0.183,0.225l-0.185,0.179l-0.566,0.224l-2.699,0.97l-0.388,0.255l-0.829,0.251l-0.484-1.01l-1.132-0.64l-0.476-0.372
		l-0.641,0.239l-0.56-0.19l-0.533-0.331l-1.143-0.331l-0.41-0.377l-0.579-0.853l-1.756-1.72l-0.52-0.34l-0.587,0.008l-1.202,0.228
		l-1.435-0.419l-0.693-0.926l-0.531-1.118l-0.608-1.004l-1.476-0.789l-0.176-0.482l-0.069-0.556l-0.18-0.612l-0.243-0.574
		l-0.921-1.063l-0.639-1.475l-0.406-1.004l-0.607-1.169l-0.588-0.493l-0.232-0.273l0.332-0.156l0.224,0.049l0.859,0.789l0.23,0.303
		l-0.138,0.284l0.201,0.323l0.409,0.468l0.335-0.076l0.204-0.187l0.29-0.446l0.577-0.661l-0.192-0.023l-0.548,0.179l-0.473-0.065
		l-0.218-0.515l0.173-1.023l-0.239-0.641l-1.302-1.23l-0.287-0.15l-1.83-0.124l-0.487-0.124l-0.402-0.425l-0.331-1.337l-0.287-0.647
		l-0.375-0.627l-0.171-0.63l0.123-0.602l0.507-0.553l0.491-0.251l1.009-0.362l0.358-0.308l0.281-0.784l-0.23-1.404l0.149-0.802
		l0.913-0.792l2.186,0.165l0.767-1.004l-0.518,0.351l-0.691,0.28l-0.684,0.017l-0.499-0.439l-1.142,0.447l-0.507,0.384l-0.208,0.708
		l0.156,2.035l-0.156,0.381l-0.959,0.014l-0.761-0.998l-0.873-2.238l-0.606-1.059l-0.768-0.811l-6.613-4.786l-0.717-0.385
		l-0.625-0.168l-0.461-0.202l-1.112-0.926l-0.546-0.256l-0.529-0.267l-0.485-0.757l-0.182-0.884l0.185-0.424l0.324-0.277
		l0.934-1.414l0.308-0.6l-1.369,1.547l-0.746,0.532l-0.847,0.001v0.211l0.588,0.912l0.287,0.592l0.044,0.366l-0.355,0.043
		l-2.365-1.165l-0.871-0.285l-1.061-0.349l-0.709,0.322l0.765,0.096l0.362,0.183l-6.533,0.167l-0.41,0.181l-0.534,0.492
		l-0.499,0.061l-0.461-0.187l-0.429-0.249l-0.404-1.487l-0.131-0.765l0.18-0.515l-0.266-1.112l-0.203-2.694l-0.465-1.056l0.06-0.383
		l-0.078-0.747l-0.16-0.83l-0.191-0.635l-0.149-0.208l-0.463-0.384l-0.208-0.22l-0.223-0.347l-0.022-0.034l-0.057-0.199l-0.024-0.23
		l-0.141-0.467l-0.106,0.005l-0.041-0.04l-0.015-0.356l0.086-0.137l0.287-0.331l0.032-0.168l0.057-0.153l0.021-0.167l-0.07-0.208
		l0.255-0.17l0.712-0.765l0.185-0.274l0.142-0.513l0.237-1.639l0.365-1.025l0.477-0.698l2.479-2.092l0.743-1.326l0.298-1.165
		l0.591-1.595l0.142-0.605l-0.013-0.349l-0.082-0.325l-0.015-0.276l0.185-0.203l0.857-0.175l0.29-0.197l0.35,0.027l0.343,0.106
		l0.333,0.042l0.334-0.176l0.354-0.102l0.202-0.132l0.279-0.374l0.268-0.712l0.235-0.261l0.467,0.046l1.526,0.631l0.684-0.08
		l0.221-0.83l0.254-0.428l0.236-1.037l0.503-1.039l0.364-1.144l0.212-0.509l0.273-0.977l-0.083-0.06l-0.367-0.266l-0.752,0.064
		l-0.702,0.214l-0.078-0.007l-0.145-0.048l-0.332,0.46l-0.656,0.298l-0.681,0.143l-0.41-0.007l-0.365-0.344l-0.264-0.249
		l-1.087-2.786l-0.141-0.153l-0.46-0.343l-0.185-0.194l-0.117-0.214l-0.174-0.457l-0.114-0.201l-2.852-3.681l-0.765-0.564
		l-0.369-0.186l0.387-0.412l0.261-0.383l0.029-0.399l-0.311-0.452l0.265-0.404l0.488-1.737l1.129-1.641l0.146-0.479l-0.084-0.266
		l-0.159-0.121l-0.178-0.103l-0.132-0.216l-0.042-0.275l-0.012-0.351l0.054-0.788l0.185-1.18l0.091-0.248l0.23-0.46l0.047-0.13
		l1.201-0.99l0.387-0.319l0.407-0.16l0.45-0.377l0.365-0.434l0.151-0.328l0.259-0.221l1.244-0.274l0.436-0.214l0.327-0.342
		l0.33-0.273l0.222-0.14l-0.032-0.495l0.137-0.539l-0.373-0.679l0.581-0.486l0.603-0.84l0.903-1.765l0.265-0.349l0.149-0.351
		l-0.043-0.315l-0.308-0.245l0.187-0.594l-0.17-0.68l-0.378-0.623l-0.433-0.421l-0.621-0.428l-0.704-0.196l-0.71,0.081l-0.645,0.394
		l-0.326,0.126l-0.411-0.071l-0.396-0.206l-0.277-0.279l-0.038-0.291l0.295-0.679l0.057-0.352l-0.33-0.665l-0.634-0.297
		l-0.748-0.198l-0.669-0.376l-0.376-0.545l-0.208-0.698l0.039-0.73l0.364-0.637l-1.338-1.647l-0.507-0.405l-0.199-0.411
		l-0.128-0.742l-0.014-0.771l0.141-0.492l0.212-0.503l0.141-0.797l0.003-0.745l-0.199-0.348l-1.133-0.303l-0.573-0.276l-0.411-0.338
		l-0.256-0.766l-0.233-0.302l-0.911-0.477l-0.451-0.434l-0.803-1.077l-0.485-0.445l-0.874-2.431l-0.206-0.49l-0.038-0.091
		l5.82,0.279l0.366-0.103l0.443-0.194l0.503-0.105l1.076,0.034l0.461-0.147l0.585,0.362l0.84,0.038l3.967-0.496l0.394-0.167
		l0.311-0.752l-0.029-0.257l-0.079-0.239l0.008-0.326l0.124-0.33l0.322-0.574l0.102-0.333l-0.042-0.294l-0.116-0.323l-0.038-0.377
		l0.195-0.475l0.21-0.178l0.617-0.259l0.256-0.152l0.678-1.02l0.092-0.339l0.021-0.588l0.046-0.311l0.005-0.176l-0.096-0.354
		l-0.003-0.2l0.079-0.158l0.262-0.2l0.082-0.136l0.157-0.869l0.106-0.314l-0.05-0.382l0.127-0.375l0.464-0.777l-1.084-1.962
		l-0.599-0.756l-0.366-0.585l-0.288-0.261l-0.29-0.109l-0.715-0.102l-0.326-0.097l-0.32-0.479l-0.194-1.203l-0.223-0.516l0.23-0.412
		l0.265-0.817l0.242-0.328l0.485-0.219l1.162-0.765l0.339-0.057l0.18-0.03l0.528,0.049l0.522-0.037l0.496-0.345l0.079-0.212
		l0.016-0.281l0.017-0.303l0.099-0.274l0.169-0.192l1.163-0.863l0.238-0.247l0.472-0.852l-0.907-0.856l-0.626-1.024l-0.158-1.155
		l0.497-1.243l0.63-0.898l0.075-0.429l-0.149-0.612l-0.283-0.484l-0.302-0.321l-0.233-0.361l-0.056-0.62l0.162-0.552l0.624-1.151
		l0.189-0.604l0.001-0.432l-0.054-0.634l-0.217-1.193l-0.341-1.16l-0.059-0.506v-0.69l0.05-0.351l0.074-0.195l0.028-0.199
		l-0.089-0.374l-0.034-0.236l0.038-0.902l0.44-0.142l0.112-0.45l-0.134-0.472l-0.294-0.208l-0.404-0.107l-0.222-0.297l-0.226-0.752
		l-0.581-1.45l-0.379-0.637l-0.846-0.904l-0.265-0.404l-0.056-0.451l0.288-0.469l0.106-0.672l0.011-0.006l0.556-0.286l1.659,0.15
		l0.736-0.079l0.368-0.368l1.067-1.59l0.223-0.651l-0.067-0.884l0.102-0.254l0.35-0.452l0.952-0.82l0.153-0.291l0.202-0.535
		l0.959-1.451l0.312-0.35l0.478-0.083l1.764-0.028l0.244-0.176l1.58-0.694l0.882-0.688l0.867-0.894l0.847-1.381l0.11-0.033
		l0.332,0.067l0.109-0.033l0.065-0.199l0.032-0.28l-0.017-0.217l-0.081-0.017l0.348-0.282l0.375-0.147l0.842-0.063l0.003-0.308
		l1.027-1.656l0.012-0.24l-0.072-0.24l-0.02-0.285l0.171-0.365l0.698-0.739l1.286-1.901l-0.275-0.354l-0.376-0.534l-1.137-1.202
		l-1.209-0.79l-1.317-0.486l-2.187-0.456l-0.371-0.011l-0.187,0.162l-0.178,0.221l-0.369,0.257l-0.404,0.206l-0.28,0.078
		l-0.758-0.288l-0.371-0.577l-0.141-0.706l-0.07-0.671l-0.124-0.34l-0.18-0.311l-0.082-0.314l0.159-0.343l0.192-0.3l0.114-0.339
		l0.658-2.955l0.311-0.682l-0.697-0.234l-0.481-0.072l-0.213-0.254l0.22-1.564l-0.109-0.599l-0.364-0.436l-0.656-0.278l-0.359,0.775
		l-0.915,0.286l-1.92,0.08l-0.807-0.243l-0.984-1.528L402.43,96.6l-0.17,1.081l-0.64,0.399l-1.676,0.14l-0.755-0.155l-0.658-0.52
		l-0.376-0.192l-0.24-0.123l-0.631,0.461l-0.957,0.422l-0.848-0.391l-0.821-0.712l-0.868-0.546l-0.387,0.064l-0.474,0.267
		l-0.412,0.318l-0.198,0.214l-0.059,0.507l0.174,1.173l-0.061,0.575l-0.307,0.447l-0.252,0.366l-0.885,0.556l-1.914,0.662
		l-0.486,0.079l-0.979-0.03l-0.407,0.072l-0.364,0.248l-0.651,0.749l-0.355,0.309l-0.114-0.575l-0.259-0.629l-0.346-0.482
		l-0.375-0.133l-0.262-0.025l-0.408-0.291l-0.208-0.002l-0.201,0.175l-0.053,0.217l-0.029,0.246l-0.141,0.261l-0.408,0.294
		l-0.55,0.197l-0.574,0.086l-0.477-0.048l-0.435-0.246l-0.017-0.34l0.417-1.138l-1.45-0.063l-0.472-0.233l-0.747-0.54l-0.422-0.108
		l-0.758,0.394l-1.672,0.407l-0.73-0.045l-0.283,0.094l-0.127,0.199l-0.093,0.235l-0.187,0.213l-0.857-0.002l-0.182-1.046
		l-0.074-0.979l-0.531,0.206l-0.127,0.417l-0.131,0.605l-0.254,0.471l-0.502,0.012l-0.433-0.072l-0.383,0.179l-0.33,0.352
		l-0.265,0.437l-0.886,0.923l-0.051,0.015l-1.16,0.335l-2.321-0.144l0.008-0.069l0.104-0.868l-0.044-0.48l-0.204-0.285l-0.965-0.379
		l-0.305-0.646l0.04-0.675l0.256-0.653l1.04-1.548l0.786-0.776l0.783-0.511l0.428-0.363l0.288-0.457l0.061-0.633l-0.219-0.54
		l-0.411-0.402l-0.517-0.22l-0.56,0.055l-0.479,0.222l-0.408,0.115l-0.343-0.271l-0.091-0.589l0.082-1.563l-0.244-0.553l-0.242-0.35
		l-0.808,0.584l-0.495,0.203l-0.463,0.021l-0.203,0.049l-0.24,0.155l-0.692,0.632l-0.453,0.245l-4.165,0.676l-0.507,0.195
		l-0.928,0.641l-0.495,0.205l-0.987,0.027l-0.471,0.096l-0.458,0.346l-0.234,0.365l-0.287,0.782l-0.205,0.366l-0.552,0.37
		l-0.694,0.212l-0.609,0.314l-0.302,0.223l-0.301,0.594l-0.408,0.559l-0.494,0.416l-0.555,0.162l-0.454,0.262l-0.43,0.525
		l-0.428,0.383l-0.448-0.159l0.068-0.501l-0.535-7.061l0.083-0.63l0.294-0.253l1.069-0.021l0.497-0.142l0.201-0.334l-0.125-0.287
		l-0.513-0.249l-0.114-0.232l0.134-0.126l0.702-0.371l0.068-0.152l0.066-0.344l0.142-0.341l0.284-0.154l0.124-0.102l0.503-0.644
		l1.413-1.096l0.353-0.148l0.123-0.077l0.862-0.815l0.483-0.197l0.546-0.383l0.178-0.187l0.094-0.301v-1.116l-0.029-0.243
		l-0.101-0.031l-0.224,0.071l-0.408,0.393l-0.293,0.686l-0.379,0.648l-0.668,0.286l-0.546,0.131l-1.458,0.678l-0.298,0.325
		l-0.291,0.067l-1.416-0.099l-0.518,0.166l0.104-0.458l0.275-0.805l0.004-0.501h0.169l0.377,0.573l0.156-0.276l0.019-1.179
		l-0.054-0.298l-0.059-0.16l0.093-0.092l0.388-0.082l0.969,0.227l0.134-0.093l0.198-0.473l1.018-1.206l0.46-0.425l0.889-0.587
		l0.387-0.382l0.195-0.528l-0.246,0.123l-0.219-0.016l-0.27-0.107l-0.236,0.027l-0.087,0.036l-0.061,0.061l-0.595,0.366
		l-0.669,0.538l-0.377,0.22l-0.586,0.158l-0.854,0.08l-0.878-0.11l-0.645-0.401l-0.222-0.412l-0.122-0.696l-0.21-0.388l-0.349-0.196
		l-0.93-0.161l-0.193-0.143l0.204-0.357l0.494-0.312l0.56-0.229l0.397-0.098l0.33,0.116l0.22,0.307l-0.009,0.345l-0.355,0.229
		l0.237,0.156l0.377,0.156l0.393,0.067l0.282-0.107l0.109-0.384l-0.072-0.43l0.003-0.396l0.329-0.286l-0.332-1.268l-0.036-0.63
		l0.095-0.545l0.247-0.437l0.33-0.288l0.355-0.106l0.348-0.459l0.991-2.249l0.211-0.819h-0.168l-0.185,0.586l-0.265,0.57
		l-0.362,0.43l-0.476,0.168l-0.508-0.197l-0.328-0.461l-0.276-0.573l-0.358-0.304l-0.407,0.765l-0.065,0.456l0.27,0.313
		l-0.587,0.846l-0.317,0.209l-0.386-0.304l0.145-0.385l-0.376,0.188l-0.889,0.698l0.382,0.466l-0.317,0.252l-0.968,0.28
		l-0.078,0.192l-0.216,0.831l-0.226,0.085l-0.213,0.201l-0.391,0.465l-0.399-0.454l-0.059-0.672l-0.129-0.609l-0.606-0.267
		l-0.406-0.393l0.138-0.885l0.386-0.939l0.34-0.555l-0.018-0.439l0.086-0.546l0.166-0.725l0.306-0.442l0.128-0.26l0.21-0.257
		l0.317-0.116l0.067-0.076l0.779-0.448l0.694-0.973l0.408-0.38l0.646-0.154l0.186-0.259l0.173-0.576l-0.075-0.592l-0.56-0.307
		l-0.112,0.841l-0.418,0.517l-0.619,0.272l-0.71,0.103l-1.37-0.205l-0.56,0.115l0.089,0.614l-0.621,0.673l-0.34,0.179l-0.511-0.099
		l-0.355-0.314l-0.18-0.475l-0.145-0.588l-0.257-0.653l0.336,0.006l0.252-0.138l0.189-0.256l0.16-0.366l-0.219-0.425l-0.373-0.254
		l-0.512-0.21l-0.03-0.289l-0.14-0.49l-0.031-0.216l0.055-0.144l0.246-0.283l0.068-0.225l0.035-0.333l-0.022-0.234l-0.186-0.142
		l-0.463-0.045l-0.25-0.154l-0.42-0.679l-0.335-0.15v0.228l0.158,0.396l-0.156,0.214l-0.253,0.067l-0.132-0.036l-0.115-0.49
		l-0.267-0.043l-0.306,0.196l-0.234,0.225l-0.201,0.315l-0.27,0.738l-0.181,0.327l-0.125-0.075l-0.267-0.857l-0.243-0.222v-0.226
		l0.178-0.352l0.556-1.547l0.021-0.228l0.058-0.294l0.086-0.291l0.104-0.207l0.103-0.324l-0.171-0.238l-0.399-0.296l-0.2-0.875
		l0.227-0.203l0.355-0.015l0.184-0.327l0.145-0.673l0.317-0.314l0.314-0.23l0.127-0.433l0.395,0.347l0.354,0.101l0.35-0.12
		l0.393-0.328l0.145-0.195l0.072-0.183l0.105-0.18l0.245-0.195l0.218-0.114l0.197-0.06l0.487-0.057V53.96l-0.456,0.221l-0.604,0.141
		l-0.438-0.039l0.029-0.323l-0.861,0.442l-0.382-0.05l-0.249-0.645l1.281-1.235L340.069,52l1.012,0.444l0.465-0.009l0.485-0.095
		l0.344-0.149l0.34-0.302l0.346-0.208l0.275-0.507l0.14-0.551h0.202l0.494,0.44l0.722-0.022l0.713-0.289l0.465-0.36l-0.569,0.035
		l-0.317-0.217l-0.404-0.827l-0.118,0.012l-0.331-0.184l-0.222-0.226l0.195-0.109l0.268-0.023l1.088-0.488l1.145-0.778l0.847-0.228
		l0.202-0.265l0.214-0.181l0.302-0.084l0.35,0.199l0.848,0.867l0.459,0.199l0.487,0.08l1.044,0.347l0.502,0.08l0.747-0.288
		l0.953-0.544l1.012-0.309l0.919,0.407l1.414-0.679l0.227-0.232l0.089-0.327l0.22-0.285l0.272-0.199l0.546-0.136l0.116-0.149
		l0.066-0.171l0.16-0.124l1.476-0.393l0.098,0.489l0.241,0.361l0.597,0.533l0.345-0.419l0.095-0.338l-0.071-0.879l0.248-0.48
		l0.542,0.094l0.783,0.503l0.387,0.136l0.172,0.331l0.101,0.421l0.176,0.4l0.621,0.621l0.276,0.364l0.191,0.559l0.208-0.594
		l-0.013-0.572l-0.195-1.136l0.015-0.571l0.129-0.335l0.293-0.263l0.5-0.353l-0.53-0.257l-0.491-0.063l-0.913,0.069l-0.475-0.157
		l-0.646-0.702l-0.443-0.18l0.504-0.405l2.72-0.354l0.184-0.067l0.197-0.174l0.121-0.245l-0.043-0.277l-0.132-0.027l-0.622,0.281
		l-1.639,0.277l0.099-0.132l0.075-0.059l0.193-0.086l-0.103-0.095l-0.263-0.159l-0.32,0.485l-0.533,0.222l-1.19,0.054l0.21-0.567
		l0.099-0.785l0.136-0.558l0.309,0.132l0.352-0.505l-0.217-0.197l-0.217-0.301l-0.135-0.372l0.015-0.401h0.106l0.468,0.085
		l0.18-0.085l0.639,0.097l0.775-0.409l3.925-3.016l0.099,0.411l0.226,0.217l0.298,0.029l0.315-0.147l-0.284,0.018l-0.085-0.018
		v-0.233l0.115-0.07l0.13-0.123l0.124-0.083l-0.52-0.425l-0.076-0.397l0.129-0.401l0.098-0.432l0.168-0.319l0.399-0.1l0.904,0.014
		l0.803-0.228l0.761-0.458l0.669-0.621l0.528-0.731l0.747,0.115l0.318,0.538l0.204,0.659l0.404,0.493v0.232l-0.156-0.091
		l-0.27-0.077l-0.143-0.064l-0.19,0.319l-0.125,0.332l-0.014,0.319l0.162,0.279l-0.279,0.219l-0.087-0.04l-0.204-0.179l-0.171,0.176
		l-0.071,0.055l-0.126,0.049V34.6l1.353,0.073l0.247-0.276l-0.495-0.815l0.312-0.223l0.328-0.014l0.666,0.237l-0.06-0.123
		l-0.069-0.273l-0.056-0.137l0.379-0.424l0.489-0.411l0.541-0.316l1.072-0.279l0.574-0.396l0.46-0.53l0.185-0.564L379.227,30
		l0.194,0.111l0.19,0.284l0.08,0.386L379.576,31l-0.621,0.775l-0.014,0.538l0.124,0.16l0.204-0.055l0.238-0.109l0.043-0.102
		l-0.015-0.181l0.045-0.173l0.212-0.077l0.178-0.023l0.458-0.229l0.092,0.507l0.663,1.298l-0.079,0.587l0.237-0.096l0.339-0.469
		l0.22-0.533l0.327,0.127l0.239-0.196l0.26-0.292l0.387-0.15l1.062,0.123l0.32,0.112l2.225,1.272l1.094,0.416l1.697,3.036
		l1.277,0.632l-0.092,0.153l-0.057,0.12l-0.077,0.104l-0.16,0.106v0.279l0.36,0.167l0.218-0.101l0.205-0.201l0.321-0.142
		l0.395-0.001l0.554,0.192l1.022,0.157l1.648-0.064l0.445-0.285l0.478,0.262l0.466,0.082l0.322,0.238l0.04,0.736l-0.185,0.409
		l-0.288,0.439l-0.14,0.517l0.244,0.644h0.02h0.149l0.151-0.605l0.086-0.62l0.156-0.508l0.361-0.275l0.242-0.872l1.548-0.347
		l2.643-0.098l0.41,0.13l1.615-0.13l1.11,0.33l0.699,0.082l1.484-0.799l1.374,0.142l1.378,0.498l0.984,0.534l0.282-0.209
		l0.307-0.076l0.682,0.006l-0.048-0.176l-0.068-0.416l-0.049-0.168l0.372,0.076l0.634,0.369l0.382,0.085l1.389-0.279h1.389
		l0.393-0.074l0.704-0.335l0.645-0.165l0.164-0.195l0.202-0.186l0.368-0.059l0.857,0.645l0.349,0.118l2.093,0.23l0.417-0.23
		l0.426,0.212l0.404-0.182l0.404-0.318l0.423-0.198h3.131l0.14-0.338l-0.18-0.276l-0.114-0.296l0.336-0.386l-0.053-0.121
		l-0.075-0.273l-0.055-0.112l0.869,0.002l0.314-0.173l0.121-0.455l0.184-0.347l0.428,0.027l0.876,0.437l0.579,0.502l1.481,1.768
		l0.5,0.778h0.185l0.14-0.528l0.204,0.159l0.316,0.648l1.399,0.23l5.429-0.23l0.818,0.219l0.085,0.518l-0.346,0.592l-0.465,0.448
		l0.185,0.254l0.276-0.17l0.567-0.197l0.275-0.142l0.197-0.242l0.078-0.248l0.146-0.194l0.4-0.076l1.134,0.11l0.428,0.156
		l1.944,1.306l0.917,0.334l2.325,0.115l0.646,0.181l0.288,0.475l0.324-0.212l1.884,0.577l0.217-0.079l0.393-0.342l0.31-0.062
		l0.291,0.083l0.61,0.329l1.917,0.403l2.199,1.044l0.541,0.169l6.002,0.533l0.112,0.011l0.714,0.699l0.563-0.56l0.762-0.145
		l0.745,0.208l0.521,0.497h0.17l0.283-0.467l0.253-0.13l1.255,0.145l3.349-0.356l0.745-0.586l1.705-0.536l0.641-0.098h1.207
		l0.156-0.1l0.023-0.178l0.045-0.172l0.219-0.079l0.191,0.063l0.654,0.465l0.134-0.174l0.121-0.045l0.13-0.001l0.166-0.033
		l-0.12-0.065l-0.247-0.21v-0.233l0.931-0.682l0.467-0.204l0.442,0.127l0.338-0.212l0.079,0.044l0.135,0.168l0.783-0.49l0.811-0.172
		l0.801,0.159l0.751,0.503l-1.173,0.532l-0.494,0.33l-0.36,0.405l0.282,0.341l0.124,0.103l0.146,0.088l-0.092,0.027l-0.073-0.003
		l-0.042,0.039l0.007,0.166l0.298,0.012l0.243-0.045l0.396-0.196l0.188-0.189l0.36-0.512l0.105-0.106l0.237,0.083l0.252,0.363
		l0.247,0.083l0.115-0.151l-0.062-0.335l-0.158-0.348l-0.179-0.178v-0.231l0.377,0.056l0.156,0.053l0.185,0.122l0.046-0.186h0.036
		l0.118-0.045l-0.201-0.277l0.295-0.132l0.796-0.056l0.307-0.194l0.268-0.268l0.296-0.15l2.067-0.653l0.676,0.05l-0.052,0.64
		l0.464,0.027l0.362,0.272l0.294,0.313l0.252,0.15l1.853,0.324l0.138,0.134l0.087,0.191l0.031,0.227l-0.039,0.326l-0.108,0.053
		l-0.169-0.042l-0.219,0.054l-0.112-0.097l-0.254-0.168l-0.255-0.073l-0.116,0.2l-0.092,0.213l-0.217,0.204l-0.428,0.252
		l0.536,0.101l0.306,0.418l0.252,0.16l0.38-0.68l0.292,0.437l0.376,0.035l0.802-0.242l0.389,0.076l1.287,0.453l1.654,0.231
		l1.224,0.464l0.351,0.066l0.283,0.16l0.623,0.715l0.702,0.223l0.522,0.164l0.516,0.063l0.617-0.475l0.853,0.539l1.34,1.166v-0.279
		l-0.319-0.895l-0.092-0.459l-0.158-0.267v-0.149l0.134-0.177l0.36-0.119l0.312-0.379l1.173-0.723l0.431-0.121v-0.278h-0.182v-0.23
		l0.448-0.266l0.669-0.072l1.376,0.06l1.274-0.127l0.567-0.23l0.467-0.172l0.345,0.083l0.564,0.426l0.532,0.53l0.234,0.402
		l0.313,0.93l0.105,0.782l0.109-0.145l0.208-0.682l0.022-0.178l-0.009-0.22l0.026-0.208l0.131-0.154l0.317-0.059l0.32,0.089
		l0.303,0.133l0.84,0.151l1.564,0.678l1.156,0.24l0.607,0.241l0.514,0.794l2.615,1.243l1.088,0.329l1.143,0.124l1.174-0.139
		l0.896-0.25l0.313-0.029l0.158,0.118l0.188,0.262l0.242,0.262l0.33,0.118l0.071-0.041l0.088-0.086l0.129-0.086l0.18-0.041
		l0.129,0.081l0.06,0.173l0.08,0.172l0.19,0.08l0.78-0.619l0.336-0.115L530.749,48l1.912-0.698l0.615-0.4l0.308-0.143l0.397,0.017
		l0.321,0.26l0.192,0.362l0.213,0.181l0.378-0.276l-0.15-0.109l-0.233-0.267l-0.184-0.151l1.099-0.496l1.011-0.924l0.974-0.525
		L538.068,45.166z M639.913,79.947l-0.613-0.09l-0.354-0.275l-0.05-0.46l0.295-0.656l0.307-0.144l0.279,0.392l0.273,0.614
		l0.298,0.522l-0.092,0.039l-0.268,0.058H639.913z M102.917,563.609l0.536,0.076l0.474,0.282l0.336,0.388l0.128,0.398l-0.158,0.506
		l-1.114,1.679l-0.032,0.192l0.019,0.187v0.183l-0.088,0.174l-0.134,0.092l-0.149,0.059l-0.121,0.089l-0.048,0.186l-0.091,0.156
		l-0.201,0.168l-0.202,0.213l-0.091,0.284l-0.072,0.71l-0.221,0.36L101.295,570l-0.584-0.342l-0.401-0.438l-0.246-0.41l-0.36-0.301
		l-1.99-0.275l-0.531-0.253l-0.371-0.42l-0.184-1.072l0.721-0.342l1.152,0.104l1.105,0.27l0.399-0.265l1.044-1.024l0.213-0.281
		l0.033-0.326l0.115-0.151l0.573-0.259L102.917,563.609z M171.462,558.171l0.219,0.18l0.428,0.26l0.106,0.186l-0.071,0.496
		l-0.212,0.549l-0.069,0.549l0.352,0.489v0.209l-0.296,0.145l-0.196,0.265l-0.261,0.652l0.239,0.438l0.182,0.546l-0.05,0.467
		l-0.454,0.195l-0.331,0.231l-0.869,1.087l-0.373,0.349l-1.898,0.596l-0.309,0.16l-0.128,0.025l-0.711,0.798l-0.321,0.154
		l-0.278-0.139l-0.256-0.224l-0.257-0.123l-1.166-0.086l-0.513-0.123l-0.436-0.188l-1.455-1.25l-0.222-0.31l-0.107-0.208
		l-0.565-0.324l-0.247-0.197l-0.109-0.176l-0.783-1.74l-0.166-0.626l0.138-0.601l-0.107-0.348l-0.046-0.472l0.031-0.481l0.123-0.365
		l0.245-0.274l1.06-0.579l0.482-0.365l0.664-0.639l0.454-0.766l-0.144-0.732l0.312-0.28l0.109-0.55l-0.053-0.607l-0.166-0.443
		l0.301-0.025l0.287,0.018l0.269,0.072l0.247,0.144l0.391-0.102l1.449,0.5h2.042l1.687,0.407l0.638-0.205l-0.099-1.038l0.793-0.149
		l0.109,0.056l0.145,0.394l-0.007,0.239l-0.227,0.106l-0.191,0.374l0.019,0.826l0.172,1.21l0.062,0.209l0.063,0.359l0.115,0.416
		L171.462,558.171z M119.748,552.763l1.362-0.324l1.252,0.375l1.141,0.745l1.464,1.066l0.319,0.709l0.158,0.681l-0.418,0.605
		l-0.528,0.342l-0.8,0.757l-0.588,0.409l-0.597,0.15l-0.69,0.232l-0.679-0.167l-1.407-0.883l-0.894-1.35l-0.004-1.091l0.123-1.153
		L119.748,552.763z M143.528,554.52l-0.359,0.517l-0.424,0.529l-1.746,1.769l-0.398,0.645l-0.255,0.381l-0.915-0.194l-1.475,0.57
		l-0.621,0.244l-0.509,0.2l-0.441-0.084l-0.293-0.423l-0.059-0.285l0.045-0.366l-0.247-0.101l-0.211-0.19l-0.082-0.25l-0.049-0.574
		l-0.053-0.218l-0.37-0.465l-1.052-1.041l-0.217-0.487l-0.181-0.657l-0.408-0.508l-0.439-0.424l-0.279-0.404l-0.184-1.35
		l-0.088-0.289l-0.376-0.593l-0.329-0.715l-0.895-0.916l-0.255-0.607l0.65-0.419l1.469-0.687l0.53,0.23l0.636,0.442l0.314,0.095
		l0.335-0.008l0.77-0.221l0.592-0.3l0.874-0.292l0.62-0.244l0.533,0.132l1.078-0.099l0.533-0.044l0.543-0.436l0.689-0.078l0.29-0.13
		l0.568-0.062l0.546-0.434l1.266-1.134l0.527-0.472l0.165-0.263l0.062-0.446l0.1-0.187l0.509-0.273l0.221-0.169l0.482-0.27
		l0.601-0.109l0.494-0.211l0.171-0.572l0.438,0.167l2.628,0.08l1.654-0.596l0.636,0.349l-0.251,0.868l-0.818,0.593l-1.995,1.107
		l-0.448,0.837l-0.557,0.546l-0.74,0.783l-0.748,0.622l-0.478,0.188l-0.374,0.312l-0.277,0.573l-0.009,0.644l0.149,0.516
		l0.067,0.305l-0.087,0.313l-0.261,0.224l-0.243,0.269l-0.182,0.715l-0.875,1.641l-0.236,1.337L143.528,554.52z M209.719,536.545
		l1.004-0.418l0.991-0.135l0.919,0.298l0.783,0.883l0.301,1.036l0.087,1.387l-0.203,2.613l-0.175,0.639l-0.478,1.166l-0.098,0.422
		l-0.032,1.027l0.032,0.326l0.079,0.198l0.25,0.433l0.038,0.226l-0.13,0.292l-0.484,0.445l-0.105,0.183l-0.013,0.281l-0.046,0.299
		l-0.09,0.273l-0.456,0.639l-0.219,0.523l-0.298,1.037l-0.605,1.011l-0.892,0.497l-2.852,0.463l-1.24,0.377l-0.902,0.627
		l-1.068,0.28l-0.555,0.315l-0.871,0.958l-0.724,1.011l-0.807,0.864l-1.128,0.525l-0.697-0.002l-1.06-0.495l-0.547-0.129
		l-1.786,0.103l-0.329-0.103l0.099-0.109l0.112-0.361l0.076-0.366l-0.012-0.122l0.193-0.055l0.922,0.159l0.527-0.044l1.001-0.327
		l1.557-0.711l1.915-1.268l0.809-0.783l0.423-0.52l0.294-0.501l0.166-0.595l0.148-1.516l0.234-0.549l0.591-0.935l0.671-2.175
		l0.149-0.354l0.349-0.267l0.799-1.32l0.613-1.518l1.063-1.574l0.312-1.527l0.389-0.933l0.131-1.111l0.145-0.404l0.281-0.311
		L209.719,536.545z M107.721,534.004l-0.055,0.611l0.194,0.735l0.247,0.518l0.527,0.273l0.023,0.565l-0.81,0.943l-0.382,0.69
		l0.208,0.611l0.322,1.099l-0.217,0.579l-0.167,0.805l-0.633,0.866l-0.538,1.201l-0.496,1.032l-0.248,0.626h-0.167l-0.157-0.296
		l-0.599-0.317l-0.19-0.584l-0.203-1.512l-0.31-0.366l-0.2-0.491l-0.558-0.757l-0.15-0.677l-1.032-1.633l-0.109-0.776l-0.115-0.486
		l-0.127-0.48l-0.436-0.32l-0.267-0.338l0.145-0.939l0.704-1.019l0.926-0.834l0.68-0.471l0.556,0.359l0.666,0.102l0.652,0.16
		l1.086-0.427l0.536,0.217l0.444,0.396L107.721,534.004z M222.921,521.009l0.474-0.104l0.507,0.319l0.777,0.743l-0.264,0.625
		l-0.105,0.503l-0.196,0.415l-0.538,0.358l-0.099,0.471l0.088,0.418l0.138,0.448l0.057,0.557l-0.053,0.219l-0.227,0.407
		l-0.089,0.237l-0.018,0.256l0.044,0.542l-0.026,0.255l-0.444,0.754l-0.767,0.677l-0.878,0.485l-1.265,0.32l-0.263,0.287
		l-0.212,0.291l-0.329,0.13l-0.424,0.035l-0.619,0.143l-0.43,0.033l-0.941,0.211l-0.722,0.561l-0.569,0.806l-0.471,0.946h-0.168
		l-0.286-0.427l-0.556-0.173l-1.282-0.011l-0.205-0.168l-0.171-0.368l-0.072-0.368l0.089-0.167l0.299-0.098l0.229-0.233l0.283-0.51
		l0.103-0.504l0.109-1.52l0.08-0.406l0.906-1.47l0.475-0.518l0.379-0.282l0.439-0.203l0.516-0.124l0.608-0.042l0.505-0.151
		l0.908-0.776l0.53-0.337l0.5-0.168l0.429-0.058l1.38,0.001l0.376-0.124l0.299-0.372l0.327-0.755l0.292-1.032l0.207-0.523
		L222.921,521.009z M222.821,519.628l0.237,0.567l-0.381,0.729l-0.676,0.507l-0.652-0.097v-0.229l0.418-0.445l0.211-0.689
		l0.263-0.493L222.821,519.628z M566.683,245.478l-0.246,0.757l0.046,0.786l0.369,1.27l-0.551-0.633l-0.116-1.005l0.024-1.117
		l-0.113-0.967l0.137-0.017l0.033,0.058v0.092l0.033,0.078l0.09,0.144l0.164,0.352L566.683,245.478z M627.592,213.564l1.06-0.474
		l0.45,0.572l-0.026,0.754l-0.644,0.146l-0.918-0.019l-1.327-0.87l-0.435-0.233l-0.522,0.382l-0.261,0.184l-0.438,0.639
		l-0.426,0.269l-0.378-0.118l0.124-0.701l-0.11-0.263l0-0.359l0.14-0.232l0.125-0.316l0.011-0.274l-0.195-0.12l-0.099-0.135
		l0.156-0.26l0.334-0.387l0.189,0.202l0.273-0.118l0.263-0.397l0.092-0.536l0.11-0.017l0.031,0.046v0.083l0.026,0.082l1.31,1.89
		L627.592,213.564z M629.738,199.241l-0.138,0.309l0.164,0.695l0.435,1.151l-0.448,0.028l-0.355,0.282l-0.233,0.445l-0.088,0.538
		l-0.141,0.212l-0.943,0.626l-0.847,1.304l-0.338,0.288l-0.748,0.402l-0.292,0.351l-0.101-0.135l-0.176-0.165l-0.092-0.151
		l-0.443,0.574l-0.373,0.207l-0.285,1.173l-0.028,0.847l-0.875,0.016l-0.264-0.696l-0.467-0.362l-0.395,0.155h-0.184l-0.092-0.042
		l-0.024-0.025l-0.268,0.068l-0.202-0.435l-0.454-0.144l-0.454,0.148l-0.18,0.431l-0.856-0.579l-0.311-0.362l-0.121-0.629
		l0.327-0.836l0.088-0.508l-0.246-0.419l0.224-0.212l0.272-0.172l0.307-0.042l0.316,0.189l0.198-0.178l0.259-0.068l0.649,0.008
		l-0.235-1.461l0.015-0.812l0.314-0.353l0.353-0.144l0.404-0.335l0.654-0.708h0.169l0.248,0.216l0.531-0.414l0.307,0.198l0.535-0.45
		l0.742-0.39l0.755-0.206l0.562,0.099l0.246-0.329l0.38-0.157l0.388,0.03l0.443,0.36l0.184,0.064l0.485,0.033l0.305,0.074
		l0.222,0.161L629.738,199.241z M676.88,175.046l0.772,0.226l1.527,0.911l0.933,0.08l-0.158,0.364l0.024,0.29l0.088,0.262
		l0.046,0.282l-0.103,0.183l-0.167,0.137l-0.079,0.222l0.165,0.438l-0.369,0.976l-0.287,0.487l-0.358,0.208l-0.454,0.167
		l-0.303,0.414l-0.086,0.543l0.198,0.551l-1.095,1.012l-1.137,1.37l-0.849,1.68l-0.25,1.944l-0.263-0.162l-0.105-0.098l-0.437,1.444
		l-0.851,0.917l-2.471,1.539l-1.036,0.895l-0.208,0.347l-0.112,0.112l-0.246,0.179l-0.248,0.094l-0.112-0.136l-0.737-1.103
		l-0.171-0.123l-0.421-0.194l-0.162-0.137l-0.123-0.323l-0.057-0.383l-0.088-0.325l-0.193-0.135l-0.263-0.081l-0.421-0.34
		l-0.237-0.079l-0.32,0.04l-0.426,0.162l-0.263,0.037l-2.35-0.172l-1.047-0.43l-0.671-0.847l-0.283-1.905l-0.395-0.256l0.079-0.566
		l0.415-0.85l-0.307-0.725l-0.766-0.704l-0.902-0.529l-0.711-0.212l-0.588,0.191l-1.736,0.97l-0.362,0.401l-0.29,0.946l-0.667,0.704
		l-0.742,0.091l-0.509-0.893l-0.057-0.074l-0.072-0.279l0.086-0.219l0.228-0.142l-0.72-0.741l-0.219,0.299l-0.206,0.128
		l-0.189-0.087l-0.14-0.34l-0.746,0.435l-0.173,0.043l-0.263-0.192l-0.226-0.627l-0.487-0.401l-0.132-0.623l0.026-0.709l0.16-0.53
		l1.933-1.218l0.568-0.128l0.48-0.316l1.33-1.428l0.399-0.218l0.54-0.081l0.465-0.154l0.456-0.377l0.838-0.907l0.114-0.167
		l0.193-0.435l0.061-0.114l0.125-0.031l0.309,0.063l0.119-0.031l0.652-0.665l0.086-0.173l0.118-0.077l0.549-0.63l0.18-0.154
		l0.197-0.056l0.794-0.403l0.386-0.313l0.309-0.32l0.314-0.249l0.399-0.1l0.097-0.072l0.171-0.314l0.099-0.072l0.564,0.05
		l0.254-0.05l0.794-0.383l1.624-1.09l0.831-0.227l1.514-0.147l1.494-0.385l2.797-1.149l0.369,0.481l0.143-0.147l0.079-0.043
		l0.347,0.19l-0.285,0.209l-0.948,0.449l-0.347,0.083l-0.397,0.209l-0.362,0.401l-0.323,0.279l-0.301-0.167h-0.2l-0.059,1.135
		l0.957,0.169l2.065-0.583v0.217l-0.27,0.197l-0.033,0.234l0.024,0.26l-0.09,0.266l-0.16,0.183l-0.154,0.104l-0.439,0.193
		l-0.853,0.223l-0.195,0.27l-0.039,0.729l0.314,0.784l0.704,0.69l0.869,0.495l0.783,0.186h1.85l0.469-0.188l0.821-0.839
		L676.88,175.046z M702.451,170.089l0.118,0.526l0.579,0.952l0.224,0.572h-0.182l-0.11-0.22l-0.176-0.203l-0.215-0.174l-0.239-0.12
		l-0.077,2.312l-1.4,0.186l-1.913-0.943l-4.371-2.896l-0.908-0.362l-1.079-0.024l-1.942,0.395l-1.042-0.371l0.114-0.419l0.022-0.508
		l0.092-0.462l0.307-0.292l-0.219-0.195l-0.548-0.202l-0.246-0.213l-0.257-0.421l-0.007-0.175l0.105-0.181l0.066-0.427l0.333-0.431
		l1.878-0.42l0.645,0.267l2.6-0.267l1.082,0.049l0.307-0.049l0.382-0.166l0.452-0.368l0.29-0.165l0.075,0.416l0.241,0.281
		l0.601,0.483l-0.057,0.102l-0.057,0.258l0.015,0.264l0.184,0.12l0.169-0.106l0.2-0.241l0.266-0.397l-0.053-0.516l0.18-0.142
		l0.162,0.189l-0.105,0.469l0.162,0.249l0.757,0.494l0.156,0.266l0.118,0.163l0.279,0.271l0.147,0.077l0.399,0.082l0.191,0.103
		l0.279,0.389l0.228,0.578l-0.026,0.514l-0.481,0.199l0.419,0.209l0.426-0.03l0.327,0.093L702.451,170.089z M666.928,196.639
		l-0.083,0.938l-0.543,0.804l-0.844-0.074l-0.465-1.174l0.723-0.694l1.083-0.474L666.928,196.639z M470.504,331.815l0.036,0.004
		l0.049,0.012l-0.022,0.023l-0.045-0.004l-0.042-0.014l-0.026-0.02l0.022-0.008L470.504,331.815z M481.21,330.41l0.017-0.02
		l0.01,0.014l-0.016,0.022l-0.016-0.008L481.21,330.41z M481.27,330.327l0.021-0.001l0.004,0.019l-0.018-0.002l-0.014,0.004
		l-0.008-0.003l0.001-0.01L481.27,330.327z M520.809,331.402l0.131-0.027l0.078,0.129l-0.133,0.11l-0.12-0.08L520.809,331.402z
		 M440.342,307.199l0.076,0.069l-0.052,0.088l-0.064-0.025l-0.016-0.088L440.342,307.199z"/>
</g>
<g id="Copyright">
	<text transform="matrix(1 0 0 1 681.6426 577.5916)" class="st1 st2">© Vemaps.com</text>
</g>
</svg>
