<?xml version="1.0" encoding="utf-8"?>
<!-- Generator: Adobe Illustrator 23.0.1, SVG Export Plug-In . SVG Version: 6.00 Build 0)  -->
<svg version="1.1" xmlns="http://www.w3.org/2000/svg" xmlns:xlink="http://www.w3.org/1999/xlink" x="0px" y="0px"
	 viewBox="0 0 800 600" style="enable-background:new 0 0 800 600;" xml:space="preserve">
<style type="text/css">
	.st0{fill:#808080;}
	.st1{font-family:'Roboto-Regular';}
	.st2{font-size:14px;}
</style>
<g id="Finland">
	<path class="st0" d="M462.8,95.937l-2.65,2.625l-2.642,1.007l-5.648,4.151l-1.011,0.098l0.064,1.126l0.3,0.58l0.384,0.29
		l4.427-0.356l1.815,0.403l1.609,1.8l-1.191,4.578l-0.679,1.951l-5.635,11.191l-0.265,0.763l-0.01,0.89l0.298,1.429l0.438,1.706
		l4.018,15.392l0.584,1.232l0.811,0.62l6.279,2.684l6.279,2.678l0.707,0.535l0.644,0.939l1.812,3.854l0.84,1.796l3.743,7.993
		l1.376,1.807l6.496,6.187l-0.474,0.775l-0.224,0.592l-0.093,0.747l-0.193,3.728l-0.104,0.756l-0.581,2.602l-0.378,1.048
		l-8.711,12.008l-0.25,0.574l-0.252,1.014l-0.138,0.414l-0.216,0.353l-1.131,1.364l-7.236,13.647l-0.004,0.001l-1.063,4.681
		l0.827,3.931l5.122,8.77l0.885,2.967l0.033,0.109l0.625,1.069l0.066,0.489l0.023,0.543l0.108,0.576l0.178,0.428l2.528,4.263
		l0.214,0.946l0.264,2.314l0.12,1.053l0.396,1.9l0.517,1.767l1.267,3.175l3.109,5.836l1.824,2.57l0.545,1.386l0.447,2.138
		l0.622,4.185l0.211,0.939l0.868,2.284l0.259,0.853l0.65,2.706l0.788,2.287l0.184,0.976l0.62,4.956l0.1,1.325l-0.052,1.158
		l-0.338,0.486l-0.743-0.282l-1.356-0.878l-5.246,1.603l-1.349,0.997l0.647,1.1l1.635,1.268l0.699,1.061l-0.282,0.686l-1.765,2.152
		l-0.306,0.768l-0.114,0.287v0.014l-0.18,1.963l0.273,4.69l-0.229,1.911l-2.308,3.139l-0.77,1.785l1.024,1.058l3.08-0.112
		l1.458,0.647l0.134,1.996l-0.211,0.434l-0.257,0.335l-0.195,0.365l-0.02,0.519l0.267,0.459l0.39,0.089l0.267,0.173l-0.101,0.704
		l-0.552,0.75l-3.355,0.82l-0.89,0.819l-0.636,1.451l-0.225,2.234l0.999,4.374l1.422,3.52l1.801,2.25l2.144,0.555l4.059,0.035
		l0.865,0.448l0.372,0.389l0.034,0.328l-0.12,0.373l-0.084,0.511l-0.045,0.657l-0.049,0.311l0.051,0.285l0.25,0.574l0.238,0.396
		l0.861,1.004l0.379,0.993l-0.153,1.005l-0.449,0.856l-0.527,0.548l-3.75,1.882l-0.155,0.193l-0.086,0.301l0.089,0.153l0.139,0.079
		l0.073,0.082l0.034,0.891l0.078,0.47l0.158,0.483l-0.041,0.14l-0.016,0.148l0.017,0.142l0.04,0.143l0.236,0.119l0.041,0.127
		l-0.064,0.335l0.995,0.649l0.761,0.999l-0.167,1.196l-0.478,1.297l-0.189,1.323l0.451,0.959l0.882,0.856l1.567,0.981l3.443,1.229
		l1.085,0.854l0.633,0.898l0.491,0.934l0.536,0.703l1.263,0.353l0.72,0.46l0.489,0.757l-0.18,1.052l-0.391,0.994l0.007,0.839
		l0.263,0.815l0.382,0.955l0.534,2.15l-0.131,1.688l-0.619,1.473l-0.945,1.516v0.005l-3.972,4.772l-1.384,3.259l-1.407,1.894
		l-3.302,1.437l-1.161,0.828l-0.388,0.276l0.447,1.301l5.303,6.611l3.032,2.435l1.34,2.014l0.431,0.921l0.606,0.529l7.302,4.246
		l3.384,4.236l4.458,3.122l0.575,0.612l0.477,0.811l0.162,0.989l0.026,0.901l0.143,1.046l0.221,0.985l0.262,0.723l0.565,0.77
		l1.385,1.093l0.633,0.692l1.409,2.228l0.518,0.503l0.277,0.252l0.545,0.877l0.304,1.209l0.363,1.143l0.741,0.656l-1.953,3.847
		l-0.865,1.798l-0.675,2.025l-1.038,4.549l-0.359,1.064l-0.972,1.591l-0.411,1.1l-0.527,2.295l-0.359,1.024l-0.475,0.553h-0.005
		l-0.008,0.006l-1.164,0.741l-0.344,0.411l-0.249,0.515l-0.402,1.031l-3.137,3.605l-0.298,0.503l-0.554,1.59l-0.357,0.59
		l-0.397,0.436l-2.5,1.884l-1.977,2.01l-0.843,0.498l-0.391,0.332l-0.279,0.413l-0.611,1.541l-2.78,3.927l-3.093,3.557l-0.004,0.005
		h-0.003l-4.262,6.592l-3.691,5.685l-2.977,3.152l-0.447,0.721l-0.523,1.616l-0.416,0.764l-3.165,3.783l-0.678,0.549l-1.418,0.655
		l-0.499,0.455l-0.395,0.727l-0.4,1.125l-0.384,0.963l-3.187,3.459l-0.64,1.018l-0.268,0.531l-0.325,0.644l-1.299,2.04l-1.606,1.483
		l-3.28,2.067l-1.197,0.918l-1.558,1.605l-1.272,0.72l-0.358,0.449l-0.685,1.163l-1.345,1.542l-0.402,0.676l-0.37,0.935
		l-0.002,0.005l-0.861,1.351l-1.937,0.53l-0.999,0.759l-3.186,3.347l-2.021,3.056l-2.105,1.525l-3.172,4.2l-0.5,0.661l-1.935,2.026
		l-1.87,2.291l-0.367-0.409l-0.299-0.513l-0.342-0.289l-0.495,0.268l0.08,0.144l0.14,0.349l0.08,0.146l-0.374,0.193l-0.061,0.505
		l0.157,0.611l0.277,0.52l-0.331,0.251l-0.12,0.055l0.302,0.251l0.148,0.029l-0.764,0.775l-0.286,0.136l-1.515-0.305l0.204-0.505
		l0.678-0.34l0.331-0.347l-0.878-0.165l-0.429,0.044l-0.356,0.427l-0.17,0.543l0.057,0.349l0.186,0.359l0.227,0.577l-0.817-0.278
		l-1.846-1.629l-0.787,0.358l0.211,0.069l0.089,0.105l0.15,0.432l-0.134,0.125l-0.193,0.347l-0.123,0.165l0.24,0.158l0.208,0.189
		l0.17,0.243l0.13,0.325l-1.096-0.278l-1.923-1.524l-0.969-0.356l-1.679-0.091l-0.359-0.189l-0.036-0.634l0.567-0.14l1.132,0.164
		l-0.51-0.48l-1.604-1.044l0.347-0.881l-0.288-0.24l-0.503,0.233l-0.308,0.555l0.134,0.677l0.29,0.677l0.08,0.616l-0.504,0.498
		l-0.043-0.581l-0.134-0.156l-0.435,0.127l-0.268-0.145l-0.301-0.647l-0.252-0.147l-0.152,0.144l-0.218,0.644l-0.161,0.153
		l-0.207-0.127l-0.354-0.638l-0.186-0.175l-0.202,0.045l-0.259,0.178l-0.197,0.256l-0.011,0.294l0.07,0.427l-0.139,0.249
		l-0.199,0.218l-0.297,0.957l-0.469,0.2l-1-0.083l0.531,0.719l0.215,0.482l-0.064,0.502l-0.172-0.098l-0.665-0.784l-0.211-0.337
		l-2.014,0.749l-0.647,0.013l0.163-0.278l0.12-0.305l0.181-0.664l-0.388-0.022l-0.451,0.136l-0.433,0.278l-0.316,0.385l-0.075,0.317
		l0.043,0.767l-0.043,0.299l-0.156,0.18l-0.469,0.315l-0.202,0.264l-0.309,0.078l-0.397-0.457l-0.404-0.609l-0.329-0.381
		l-0.415-0.103l-0.497,0.029l-0.379,0.221l-0.059,0.462l-0.463,0.176l-0.572-0.306l-0.558-0.587l-0.424-0.666l-0.172-0.858
		l0.365-0.485l0.567-0.343l0.426-0.434l0.594-1.243l0.088-0.295l-0.07-1.012l0.064-0.375l0.274-0.466l0.993-0.816l0.916,0.142
		l1.901,1.444l-0.47-1.732l-0.715-1.225l-0.88-0.52l-0.96,0.392l-0.52,0.649l-0.846,1.647l-1.923,3.739l-0.211,1.498l0.647,1.371
		l-0.358,0.727l-0.191,0.293l-0.202,0.196l-0.619,0.007l-0.154,0.196l0.172,0.71l-0.249-0.09l-0.225-0.206l-0.424-0.616l0.027,0.518
		l-0.073,0.272l-0.157,0.103l-0.247,0.02l-0.25,0.141l-0.054,0.311l-0.014,0.315l-0.138,0.141l-0.397-0.331l-0.302-0.729
		l-0.243-0.735l-0.197-0.33l-0.254-0.259l-0.354-0.527l-0.372-0.44l-0.304,0.011l-0.054,0.544l0.299,0.631l0.671,0.983l-2.076-0.377
		l-0.188,0.043l-0.433,0.496l-0.182,0.112l-0.175-0.304l-0.876-0.913l-0.712-0.399l-0.286-0.232l-0.78-1.119l-0.719-0.588
		l-0.762-0.376l-0.638-0.055v0.332l1.2,0.582l0.236,0.305l0.465,0.783l0.554,0.319l0.157,0.382l0.07,0.456l0.016,0.38l-0.166,0.237
		l-0.331-0.047l-0.232,0.051l0.118,0.532l0.241,0.351l0.821,0.559l0.418,0.786l0.199,0.287l0.281,0.114l0.148,0.242l-0.038,0.527
		l-0.145,0.531l-0.188,0.242l-1.127,0.303l-0.027-1.015l-0.918-1.433l0.193-0.586l-0.272,0.013l-0.189,0.21l-0.166,0.239
		l-0.204,0.119l-0.252-0.043l-0.193-0.127l-1.305-1.346l-0.465-0.351l-0.553-0.228l0.783,1.079l0.47,0.474l0.399,0.266l-0.22,0.902
		l-0.504,0.93l-0.027,0.594l0.206,0.668l0.633,1.165l0.197,0.89l-0.458-0.043l-0.318-0.151l-0.268-0.281L395,550.002l0.163-0.303
		l-0.334-0.509l-0.429-0.166l-0.465-0.051l-0.435-0.18l-0.663-0.94l-0.365-0.292l-0.324,0.323l0.139,0.783l0.781,0.583l1.493,0.752
		l-1.502,0.633v0.276l-0.408,0.213l-0.581-0.305l-1.753-2.029l-0.134-0.3l0.027-0.607l0.168-0.412l0.265-0.209l-0.46-0.287v-0.331
		h1.202l-0.311-0.954l-0.474-0.08l-0.497,0.369l-0.37,0.389l-0.581,0.401l-1.683,0.51v0.273l0.333,0.204l0.116,0.466l-0.032,0.601
		l-0.104,0.603l-0.098,0.133l-0.156,0.054l-0.145,0.137l-0.118,0.746l-0.131,0.236l-0.179,0.135l-3.101,0.043l0.039-0.66
		l-0.275-0.317l-0.815-0.234l0.052,0.206l0.073,0.514l0.039,0.216l-0.676,0.243l-2.044,0.032l-0.118,0.059l-0.038,0.168l0.011,0.513
		l-0.014,0.031l-0.098,0.205l-0.256-0.101l-0.393-0.299l-0.027,0.371l0.796,0.506l0.279,0.358l-0.204,0.151l-0.292,0.014
		l0.345,0.437l-0.442,0.324l-1.318,0.334l-0.49-0.027l0.059-0.313l0.034-0.137l0.057-0.182l-0.944,0.588l-0.236,0.372l0.429,0.275
		l-0.139,0.27l-0.347-0.011l-0.35,0.395l-0.408-0.155l-0.283-0.5l0.283-0.318l0.236-0.624l0.097-0.684l-0.15-0.515l-0.445-0.077
		l-0.313,0.592l-0.513,2.116l-0.225,0.357l-1.872,0.147l-0.451-0.16l-0.243-0.534l0.808-0.259l-0.046-0.798l-0.579-0.658
		l-0.783,0.178l0.451,1.235l-0.326,0.194l-0.585,0.532l-0.292,0.18l-1.136,0.165l-0.73,0.26l-0.177,0.106l-0.139,0.206l-0.048,0.318
		l0.081,0.56l-0.1,0.19l-0.304,0.011l-0.15-0.378l-0.075-0.501l-0.086-0.361l-0.256-0.318l-1.352-0.781l-0.331-0.086l-0.111,0.14
		l0.25,0.469l0.358,0.305l0.311,0.133l0.132,0.219l-0.202,0.549l-0.284,0.312l-0.311,0.14l-0.275,0.215l-0.168,0.535l1.49-0.603
		l-0.12,0.416l-0.186,0.301l-0.445,0.486l0.451,0.328v0.274l-1.483,1.096l-0.866,1.299l-0.429,0.413l-0.493,0.182l-0.646,0.039
		l0.177-0.603l0.629-1.437l0.245-0.389l-0.395-0.041l-0.554,0.53l-1.014,1.342l-0.156-0.751l-0.383,0.242l-0.451,0.58l-0.375,0.258
		l0.141-0.732l0.252-0.331l0.301-0.226l0.295-0.406l0.059-0.312l-0.014-0.39l0.025-0.459l0.156-0.507l-1.06-0.084l-0.522,0.159
		l-0.381,0.527l0.3,0.328l-0.685,0.494l-0.189,0.081l-0.295,0.016l-0.771-0.317l-0.603-0.064l-0.397,0.22l-0.011,0.376l0.549,0.397
		l-0.411,0.265l-0.363-0.111l-0.349-0.265l-0.376-0.19l-0.193,0.016l-0.832,0.499l-0.215,0.007l-0.263-0.222l-0.401,0.709
		l-0.408-0.054l-0.154-0.458l0.365-0.498v-0.328l-0.404,0.064l-0.233,0.295l-0.182,0.422l-0.247,0.447l-0.338,0.361l-0.322,0.186
		l-1.486,0.275l-1.617,1.601l-0.621-0.498l-3.596,0.498l-0.288-0.198l-0.234-0.536l-0.227-0.191l-0.256,0.004l-1.459,0.418
		l-0.934,0.475l-0.517,0.029l0.245-0.668l0.944-1.734l0.324-0.351l0.633-0.2l0.302-0.233l0.041-0.304l-0.145-0.394l-0.039-0.383
		l0.066-0.412l0.193-0.478l-0.803,0.285l-0.249,0.183l-0.177,0.344l-0.1,0.455l-0.152,0.398l-0.327,0.168l-0.222,0.19l-0.097,0.458
		l-0.073,0.547l-0.139,0.469l-0.209,0.254l-0.488,0.363l-0.204,0.27l-0.74,1.268l-0.848,0.98l-1.962,1.097l-0.325,0.517
		l-0.004,0.805l0.241,0.693l0.399,0.176v0.299l-3.752,0.625l-0.274,0.265l-1.347-0.235l-0.504,0.107l-0.418,0.237L329.871,570
		l-0.372-0.085l0.392-0.283l0.558-1.014l0.324-0.224l0.889-0.174l3.096-1.507l0.894-0.111l-0.154-0.934l0.104-0.326l0.247,0.011
		l0.266,0.08l0.73-0.021l0.542-0.278l0.479-0.605l0.546-0.986l0.338-0.911l0.381-1.314l0.141-0.902l-0.372,0.327l-1.454,3.248
		l-0.579,0.816h-0.435l0.032-0.145l0.048-0.289l0.054-0.166l-0.22-0.203l-0.24-0.088l-0.236,0.055l-0.218,0.236l0.068,0.312
		l-0.866-0.286l-0.24,0.411l-0.068,0.43l-0.157,0.021l-0.154-0.28l-0.068-0.471l0.222-1.311l0.014-0.175l0.37-0.388l1.658-0.633
		l0.315-0.478l0.515-1.088l0.356-0.292l-1.154-0.439l-2.173,0.469l-1.028-0.03l-0.526-0.213l-0.487-0.308l-0.361-0.462l-0.136-0.672
		l0.143-0.543l0.343-0.533l0.726-0.878l-0.451-0.603l-0.122,0.287l-0.243,0.741L332.064,557l-0.179,0.161l-0.415,0.217l-0.184,0.194
		l-0.027-0.725l-0.211-0.474l-0.354-0.257l-0.762-0.194l-0.46-0.58l-0.27-0.207l0.222-0.453l0.018-0.419l-0.141-0.359l-0.263-0.277
		l1.195-2.097l0.469-0.621l1.422-1.41l0.392-0.707l0.129-0.43l0.15-0.733l0.172-0.352l0.585-0.515l0.227-0.32l-0.05-0.407
		l-0.445-0.101l-0.574,0.595l-0.519,0.887l-0.275,0.769l-1.25-0.437l-1.408,0.682l-3.097,2.788l-2.747,0.807l-1.27,0.661
		l-0.622,0.034l0.324-0.412l1.179-0.823l-0.438-0.122l-0.032-0.342l0.402-0.869l0.236-0.263l1.034-0.465l-1.093,0.13l-0.524,0.22
		l-1.037,0.827l-0.522,0.225l-1.189,0.083l0.182-0.319l0.032-0.281l-0.002-0.276l0.086-0.335l0.139-0.195l0.397-0.357l0.469-0.714
		l0.692-0.794l0.118-0.663l1.114-1.321l0.687-0.521l0.082-0.63l-0.156-0.423l-0.955,1.03l-0.821,0.15l-1.767-0.134l0.451-1.184
		l-3.459,0.88l-0.762-0.011l-0.25-0.17l-0.673-0.807l-1.495-1.152l-0.447-0.185l-0.977-0.103l-0.125-0.317l-0.063-0.569
		l-0.156-0.236l-0.404,0.665l-0.401,0.484l-0.383-0.109l-0.637-0.832l-0.014-0.109l0.025-0.392l-0.011-0.109l-0.102-0.027
		l-0.258,0.073l-0.091-0.045l-0.188-0.18l-0.156-0.071l-0.061-0.18l0.104-0.512h-1.066l0.095-0.31l0.131-0.572l0.104-0.309
		l-0.411-0.269l-0.626-0.174l-0.64-0.029l-0.451,0.167l-0.211,0.458l0.1,0.527l0.561,1.149l-0.998-0.332l-0.497-0.025l-0.454,0.358
		l0.093-0.764l0.295-1.341l0.059-0.969l-0.007-0.677l0.055-0.61l0.258-0.422l0.581-0.126l-0.281-0.388l-0.105-0.443l0.054-0.481
		l0.211-0.519l-1.463,1.11l-0.433,0.581l-0.494,0.413l-1.161,0.235l-0.377,0.409l-0.036,0.369l0.193,0.618l-0.091,0.398
		l-0.134,0.267l-0.068,0.196l-0.025,0.273l-0.004,0.485l-0.283,0.59l-0.646,0.309l-0.708,0.044l-0.477-0.196l0.563-0.57
		l-0.309-0.956l-1.141-1.828l0.345-0.033l0.993,0.366v-0.333l-0.519-0.217l-1.515-0.089l-0.692,0.289l-0.263,0.016l-0.182-0.115
		l-0.349-0.382l-0.218-0.087v-0.333l0.143-0.027l0.097-0.066l0.197-0.186l-0.299-0.638l0.667,0.273l0.384,0.02l0.161-0.293
		l-1.064-0.915l-0.476-0.241l-0.445-0.58l-0.365-0.706l-0.215-0.619l0.016-0.23l0.039-0.055l0.009-0.066l-0.064-0.259l1.597,0.473
		l0.286-0.031l0.147-0.562l-0.104-0.457l-0.215-0.446l-0.199-0.541h1.052v-0.276l-0.472-0.049l-0.47-0.192l-0.452-0.313l-0.42-0.399
		l0.35-0.265l0.182-0.064l0.231,0.026l-0.481-0.696l-0.275-0.211l-0.295-0.016l0.145-0.621l-0.145-0.64l-0.295-0.389l-0.316,0.139
		l-0.163-0.18l-0.127-0.213l-0.097-0.257l-0.064-0.33l0.231-0.444l-0.393-0.901l0.308-0.165l1.094,0.233l0.562-0.062l0.451-0.507
		l-0.243-0.204l-0.25-0.077h-0.551l-0.157-0.116l-0.449-0.811l0.231-0.105l0.393-0.441l0.2-0.099l0.195,0.125l0.17,0.261
		l0.193,0.228l0.268,0.031l-0.136-0.469l-0.096-0.515l-0.111-0.416l-0.182-0.169l-0.261-0.081l-0.104-0.21l-0.052-0.298
		l-0.109-0.337l-0.985-2.123l-0.377-0.352l0.315-0.524l0.136-0.122l-0.604-0.497l-0.208-0.386l-0.075-0.639l0.476-0.004l0.966,0.702
		l0.508,0.203l0.472-0.137l-0.016-0.222l-0.009-0.116l-0.359-0.327l-0.536-0.1l0.622-0.421l1.288,0.654l0.624-0.233l-0.308-0.305
		l-0.295-0.516l-0.097-0.571l0.279-0.472l-0.236-1.096l-0.139-0.452l-0.238-0.345l0.216-0.015l0.547-0.296l-0.161,0.009l-0.15-0.039
		l-0.148-0.096l-0.141-0.156l0.301-0.649h-0.301l0.29-0.282l0.335-0.091l0.712,0.033l-0.1-0.456l-0.05-0.167l0.66-0.392l0.692-0.204
		l-0.322-0.954l-0.426-0.435l-1.055-0.509l0.209-0.476l0.302-0.223l0.197-0.264l-0.107-0.595h0.901v-0.34l-0.054-0.248l0.054-0.827
		v-0.462l-0.054-0.276l-0.172-0.119l-0.075-0.227l-0.018-0.278l0.039-0.42l-0.022-0.242l-0.143-0.933l-0.129-0.288l-0.329-0.345
		l-0.293-0.19l-0.615-0.237l-0.29-0.2l0.637-0.404l1.402,0.146l0.676-0.368l-0.32-0.681l-0.343-0.501l-0.703-0.73l-1.499-0.784
		l-0.438-0.474l2.935,0.468l0.801-0.468l-0.461-1.325l-0.122-0.247l-0.322-0.107l-0.587,0.203l-0.308-0.096l-0.885-1.261
		l-0.177-0.505l-0.039-0.214l0.139-0.094l0.347-0.158l0.565-0.105l2.536,1.119l1.395,0.987l0.647,0.231v-0.343l-1.499-1.539
		l-0.744-1.161l-0.494-1.973l-0.408-0.344l-0.456-0.241l-0.327-0.42l-0.032-0.379l0.175-0.686l-0.068-0.343l-0.511-1.15v-0.287
		l0.408,0.142l0.748,0.611l0.343-0.123l-0.585-0.726l-1.54-1.097l-0.424-1.056l0.059-0.567l0.204-0.635l0.156-0.63l-0.064-0.56
		l-0.299-0.263l-0.372-0.146l-0.242-0.295l0.095-0.712l-0.669-0.974l-0.336-0.647l-0.197-0.605l0.206-0.175l0.184-0.325l0.047-0.317
		l-0.451-0.296l-0.089-0.368l-0.05-0.433l-0.147-0.346l-0.2-0.061l-1.005,0.061l-0.197-0.065l-0.093-0.03l-0.49-0.424l-0.279-0.12
		l0.383-0.928l-0.316-0.384l-0.966-0.255l0.871-3.053l0.179-1.16l0.104-2.19l0.161-0.417l0.349,1.002l0.37-1.363l0.075-0.679
		l-0.145-0.526l0.316-0.563l0.676-0.506l0.283-0.378l0.131-0.644l-0.199-0.456l-0.606-0.668l0.461-1.642l-0.483,0.036l-0.27,0.511
		l-0.234,0.649l-0.376,0.445l0.086-0.766l0.27-1.366l0.095-0.8l0.016-2.198l0.122-0.709l-1.18,0.486l-0.322-0.191l-0.181-0.468
		l-0.045-0.605l0.107-0.627l0.268-0.534l-0.15-0.679l-1.441,2.423l-0.059,0.497l0.3,0.67l-0.478-0.096l-0.1-0.728l0.116-0.968
		l0.161-0.827l-0.129-0.056l-0.209-0.177l-0.125-0.058l0.179-0.566l0.113-0.23l0.172-0.209l-0.36-0.282l-0.424,0.106l-0.417,0.357
		l-0.313,0.467l-0.048-0.604l0.392-1.443l0.118-0.841l-0.386,0.323l-0.279,0.151l-0.173-0.253l-0.073-0.869l0.056-0.827l0.191-0.676
		l0.299-0.509l0.367-0.324l-0.127-0.384l-0.485-0.886l0.442-0.413l0.451-0.617l0.458-0.435l0.463,0.132l-0.345-0.897l-1.581-0.408
		l-0.338-0.649l-0.266,0.171l-0.238,0.323l-0.397,0.808l0.059-1.162l0.336-1.872l-0.093-0.911l0.438-0.125l0.59-0.444l0.526-0.653
		l0.245-0.743l-0.014-0.521l-0.1-0.076l-0.154,0.064l-0.181-0.119l-0.386-0.519l-0.139-0.285l-0.188-0.834l0.123-0.68l0.341-0.463
		l0.479-0.17l0.444,0.469l0.27,0.108l0.12-0.399l0.075-0.108l0.383-0.706l0.141-0.348l0.129-0.779l0.016-0.703l0.089-0.617
		l0.367-0.529l0.528,0.02l1.5,0.655l0.461-0.196l0.166-0.284l0.408-0.441l0.175-0.277l0.104-0.339l0.091-0.644l0.209-0.632
		l0.24-1.018l0.045-0.334l0.118-0.108l0.783-0.356l-0.365-1.722l-0.084-0.874l-0.002-1.066l-0.02-0.353l-0.021-0.166l0.073-0.152
		l0.268-0.322l0.236-0.018l0.181,0.237h0.115l0.039-0.734l0.283-0.657l0.622,0.377l0.917,1.125l0.665,0.286l0.665,0.532l0.681,0.29
		l0.698-0.445l-0.941-1.365l-1.463-1.382l-0.429-0.553l-0.139-0.654l0.422-0.718l-0.272,0.178l-0.311,0.087l-0.306-0.087
		l-0.245-0.344l-0.089-0.526l0.023-0.507l-0.038-0.362l-0.279-0.097l0.156-0.533l0.258-0.178l0.653,0.046v-0.331l-0.858-0.345
		l-0.261-0.363l-0.097-0.805l0.182-0.413l0.415-0.389l0.454-0.274l0.3-0.077l1.259,1.399l0.699,0.305l0.456-1.067l0.44,0.456
		l0.587,0.383l0.608,0.131l0.479-0.303l-0.333-0.244l-0.683-0.216l-0.336-0.206v-0.304l0.901-0.665l0.316-0.103l0.885,0.103
		l0.504-0.211l1.068-0.767l0.542-0.052l-0.222,0.735l-0.039,0.465l0.193,1.917l-0.034,0.41l-0.199,0.499l0.542,0.121l1.722,1.568
		l-0.258-1.059l-0.358-0.963l0.619-0.315l0.227-0.254l0.22-0.46l0.123-0.482l0.055-0.417l0.075-0.375l0.193-0.361l0.404-0.302
		l0.229,0.228l0.172,0.429l0.234,0.31h0.342l0.581-0.512l0.29-0.153l0.27,0.07l0.433,0.304l0.349-0.042l0.113-0.141l0.021-0.222
		l-0.007-0.215l0.023-0.115l0.118,0.02l0.17,0.111l0.141,0.135l0.034,0.095l0.916-1.351l0.478-0.893l0.258-0.788h0.15l0.499,1.251
		l0.494-0.39l0.487-1.065l0.472-0.771l-0.215-0.271l-0.148-0.359l-0.225-0.737l-0.288-0.51l-0.626-0.638l-1.098-1.655l-0.107-0.24
		l-0.386-0.024l-0.322-0.126l-0.274-0.292l-0.225-0.536l-0.102-1.338l0.494-0.612l0.733,0.062l0.613,0.685l0.665,0.976l0.665,0.268
		l0.698,0.104l0.762,0.498l-1.833-2.082l-0.84-1.334l-0.191-1.287l0.224-0.614l0.238-0.174l0.596,0.114l0.397,0.201l-0.007,0.479
		l-0.129,0.555l0.046,0.449l0.486,0.282l0.544,0.102l0.365,0.417l-0.045,1.211l0.277-0.226l0.358-0.544l0.267-0.236v-0.332
		l-0.163-0.453l0.068-0.425l0.157-0.451l0.088-0.539l0.063-0.032l0.386-1.806l0.206-0.349l0.249-0.247l0.207-0.327l0.089-0.607
		l0.136-0.066l0.928,0.589l-0.173-0.619l-0.891-1.744l0.377-0.642l0.172-0.23l0.215-0.173l-0.056-0.334l-0.036-0.149l-0.061-0.189
		l0.93,0.226l0.402-0.193l0.17-0.865l-0.052-0.974l-0.045-0.454l0.111-0.048l0.422,0.248l0.318,0.587l0.204,0.216l0.09-0.266
		l0.082-0.5l0.202-0.258l0.245-0.051l0.222,0.119l0.34,0.426l0.254,0.514l0.104,0.599l-0.096,0.675l0.233,0.387l0.458,1.104
		l0.141,0.228l0.324-0.054l0.401-0.169l0.376-0.272l0.258-0.363l0.175-0.169l0.225-0.022l0.193-0.101l0.082-0.403v-0.369
		l0.011-0.272l0.048-0.238l0.102-0.274l0.333-0.472l0.692-0.4l0.327-0.511l-0.365-0.337l-1.148-0.681h1.513l-0.435-0.8l-0.163-0.218
		l0.565,0.321l0.315,0.043l0.243-0.208l0.059-0.267l0.03-0.404l-0.014-0.37l-0.075-0.16l-0.397-0.241l-0.197-0.54l0.082-0.577
		l0.436-0.34l0.451,0.061l0.263,0.358l0.402,1.109l0.37,0.482l0.234-0.115l0.025-0.504l-0.243-0.684v-0.006l0.086-0.652
		l-0.004-0.273l-0.082-0.456l1.25-1.292l0.335-0.582l0.266-0.219l1.019,0.39l0.247-0.146l0.215-0.298l0.245-0.25l-0.05-0.071
		l-0.211-0.227l0.005-0.325l0.29-0.386l0.27-0.163l0.672-0.183l1.699,0.085l0.687-0.266l0.438-0.835l0.535,0.606l0.485-0.089
		l0.47-0.522l0.474-0.677l-0.681-0.684l-0.306-0.411v-0.474l0.173-0.648l-0.045-0.491l-0.129-0.44l-0.075-0.487l0.054-0.3
		l0.258-2.254l0.327-0.401l0.411-0.004l0.764,0.405l0.145,0.135l0.241,0.38l0.215,0.141l0.225-0.043l0.202-0.176l0.216-0.11
		l0.698,0.49l1.454,0.212l0.336-0.521l-0.304-1.159l-0.533-1.184l-0.343-0.6l0.164-0.536l0.261-0.066l0.637,0.258l0.168-0.186
		l0.499-0.871l0.247-0.285l0.095-0.666l0.422-0.607l0.544-0.572l0.048-0.07l0.377-0.527h-0.15l0.057-0.795l0.109-0.74l0.249-0.368
		l0.483,0.337l0.331,0.031l1.019-0.592l0.317-0.315l0.179-0.469l0.427-1.605l0.451,0.091l0.943,0.577l0.415,0.401l-0.193-0.593
		l-0.154-0.643l-0.054-0.723l0.086-0.808l0.261-0.767l0.665-0.943l0.286-0.743l0.261-1.527l0.182-0.469l0.461-0.435l0.95-0.404
		l0.354-0.466l-0.091-0.864l0.279,0.066l0.254-0.042l0.234-0.182l0.209-0.383l0.091,0.077l0.882-0.58h0.801l0.111-0.193
		l-0.007-0.871l0.039-0.405l0.122-0.305l0.258-0.11l0.617,0.162l0.249-0.208l0.138-0.386l0.127-0.64l0.111-0.245l0.447-0.362
		l0.426-0.131l0.404-0.314l0.374-0.903l-0.021-0.356l-0.098-0.468l-0.014-0.404l0.415-0.365l0.014-0.423l-0.081-0.377l-0.064-0.087
		l0.166-1.045l0.157-0.584l0.576-1.169l0.12-0.393l0.088-0.46l0.1-0.389l0.143-0.163l0.259-0.119l0.655-0.935l0.892-0.552
		l0.411-0.402l0.347-0.8l-0.211-0.553l-0.089-0.185v-0.316l0.248-0.56l0.295-0.319l0.671-0.531l-0.826-0.793l-0.256-0.452
		l0.401-0.198l0.477,0.063l1.762,0.995l0.215-0.025l0.181-0.296l0.005-0.242l-0.243-0.388l-0.064-0.284l0.173-0.887l0.417-0.257
		l0.925-0.059l0.102-1.01l0.808-0.539l2.722-0.379l3.884-2.225l0.461-0.118l0.386,0.202l0.208,0.485l0.175,0.586l0.297,0.495
		l0.172,0.019l0.163-0.147l0.181-0.089l0.233,0.217l0.057,0.221l0.089,0.733l0.073,0.265l0.334,0.594l0.333,0.4l0.395,0.225
		l0.52,0.065v0.324l-0.209,0.002l-0.181,0.074l-0.361,0.277l0.757,0.324l2.094-0.677l0.161-0.181l-0.258-0.963l0.03-0.463
		l0.327-1.609l0.039-0.35l-0.197-0.654l-0.258-0.023l-0.286,0.24l-0.297,0.114l-0.329-0.215l-0.583-0.696l-0.848-0.348l-0.39-0.513
		l-0.715-1.447l0.113-0.156l0.224-0.4l0.115-0.152l-0.165-0.323l0.374-0.203l2.212,0.362l0.406,0.33l0.789,0.898l0.508,0.418
		l0.494,0.156l0.365-0.217l0.118-0.712l-0.159-0.702l-0.263-0.457l-0.166-0.495l0.139-0.832l-0.152-0.277l-0.068-0.237l0.004-0.248
		l0.066-0.303l-0.52-0.657l-0.258-0.432l-0.107-0.509l-0.036-0.554l-0.097-0.42l-0.141-0.331l-0.177-0.299l-0.69-0.695l-2.475-0.729
		l0.15-1.148l0.166-0.57l0.735-0.813l0.293-0.43l0.216-0.575l0.07-0.701l-0.129-0.796l0.272,0.047l0.27-0.032l0.259-0.128
		l0.247-0.25l-0.15-0.081l-0.281-0.226l-0.17-0.047l0.191-0.811l0.109-0.265l-0.365-0.282l-0.179-0.085l-0.204,0.009l0.316-0.534
		l0.301-1.63l0.295-0.741l-0.086-0.163l-0.145-0.396l-0.084-0.156l0.204-0.081l0.136-0.116l0.275-0.523l-1.513-1.799l0.306-0.187
		l0.59-0.021l0.317-0.185l0.193-0.288l0.365-0.803l0.193-0.32l-0.242-0.883l0.311-1.956l-0.15-0.984l-0.621-1.201l-0.656-0.971
		l-1.642-1.708l-0.481-0.285l-0.594,0.022l-0.512,0.171l-0.483-0.11l-0.511-0.839l-0.115-0.432l-0.07-0.366l-0.03-0.162
		l-0.139-0.543l-0.247-0.478l-0.297-0.165l-0.547,0.165l-0.293-0.364l-0.386-0.321l-1.048,0.225l-0.44-0.069l-0.288-0.338
		l-0.395-0.826l-0.233-0.288l-0.799-0.414l-0.871-0.163l-0.862,0.13l-0.769,0.447l-0.576,0.718l-0.27,0.245l-0.435,0.093
		l-0.247-0.208l-0.104-0.507l-0.02-2.051l-0.054-0.397l-0.177-0.224l-1.388-0.754l-0.275-0.411l-0.358-0.737l-0.283-0.773
		l-0.097-0.984l0.218-1.373l0.329-1.021l1.245-2.813l0.302-1.015l0.173-0.328l0.365-0.324l0.601-0.156l0.218-0.256l0.068-0.692
		l-0.352,0.436l-1.15,0.668l-0.172,0.035l-0.2-0.02l-0.163,0.112l-0.064,0.425l0.011,0.567l-0.022,0.249l-0.064,0.098l-0.536,0.538
		l-0.957,2.433l-0.545,0.694l-0.536,0.048l-0.46-0.109l-0.451,0.013l-0.494,0.419l-0.055,0.157l-0.041,0.242l-0.072,0.272
		l-0.157,0.257l-0.24,0.137l-1.048-0.534l-0.642-1.003l-0.247-0.231l-0.853-0.384l-0.869-0.714l0.22,0.733l0.064,0.798l-0.152,0.674
		l-0.433,0.357l-0.404-0.207l-0.395-0.615l-0.335-0.748l-0.218-0.626v-0.367l0.007-0.971l-0.856-1.51l-0.486-2.135l-0.579-1.046
		l-0.466-1.072l0.048-1.197l-0.036-0.813l-0.561-2.693l-0.223-0.755l-0.225-0.361l-0.534-0.582l-0.232-0.35l-0.198-0.476
		l-1.19-3.638l-0.486-0.678l-2.28-0.847l-0.781-0.706l-0.568-0.924l-0.763-2.746l-0.193-1.419l-0.322-1.229l-0.07-0.605l0.036-0.54
		l0.189-0.719l0.075-0.575l0.014-0.746l-0.118-0.996l-0.032-0.741l-0.095-0.563l-0.422-1.016l-0.095-0.67l0.223-1.242l0.536-0.835
		l0.643-0.494l0.55-0.23v-0.88l0.527-0.481l0.677-0.362l0.445-0.536l0.034-0.613l1.176-0.847l0.454-0.494l0.211-0.848l0.039-0.949
		l-0.091-0.998l-0.159-0.982l0.214-0.891l0.163-1.026l0.091-1.107l-0.005-1.143l-0.247-2.04l0.016-0.408l0.711-1.229l0.318-1.011
		l0.479-0.135l0.513,0.032l0.325-0.184l0.107-0.497l-0.061-0.404l-0.888-2.763l-0.604-1.504l-0.461-0.82l-0.852-1.19l-1.251-2.854
		l-0.541-0.755l-0.668-0.301l-0.393-0.379l-0.516-0.891l-0.802-1.839l-0.157-0.505l-0.091-0.407l-0.043-0.481l-0.009-0.725
		l-0.079-0.613l-0.189-0.344l-0.225-0.257l-0.6-1.17l-0.475-0.624l-0.386-0.727l-0.161-1.127l0.275-0.445l0.243-0.531l0.209-0.621
		l0.173-0.724l-0.4-0.226l-0.116-0.4l0.068-1.102l0.179-0.9l0.429-0.498l2.487-1.176l0.611-0.956l0.493-1.769l-0.752-0.497
		l-0.002-1.33l0.261-1.601l0.043-1.289l-0.277-0.414l-0.479-0.235l-1.497-0.275l-1.497-0.996l-0.895,0.092l-0.87,0.412l-0.815,0.058
		l-0.736-0.986l-0.273-1.405l0.268-1.102l0.495-1.018l0.411-1.18l-0.248-0.693l0.572-0.652l0.79-0.616l0.397-0.578l-0.07-1.377
		l-0.17-0.91l-0.522-1.51l-0.177-0.95l-0.247-2.3l-0.243-0.916l-0.084-0.716l0.002-3.43l-0.109-1.209l-0.066-1.417l0.1-1.359
		l0.386-1.022l0.74-0.643l1.556-0.574l0.72-0.613l0.552-1.133l0.021-1.028l-0.418-0.747l-1.526-0.593l-1.955-2.497l-0.602-0.495
		l-1.633-1.582l-0.179-0.514l-0.079-0.499l-0.886-3.495l-0.243-0.619l-0.293-0.433l-0.756,0.037l-1.865,1.342l-0.475,0.012
		l-0.15-0.326l-0.093-0.046l-0.064-0.113l-0.05-0.54l0.009-0.32l0.102-0.528l0.116-1.475l-0.027-0.471l-0.2-0.434l0.127-1.386
		l-0.334-0.992l-0.993-1.265l-0.291-0.579l-0.113-0.506l-0.064-0.482l-0.145-0.494l-0.325-0.473l-3.261-2.284l-0.629-0.862
		l-0.917-2.008l-0.552-0.604l-1.311,0.561l-0.649-0.793l-0.634-1.074l-0.615-0.636l-0.413,0.006l-0.386,0.133l-0.4,0.009
		l-0.934-0.68l-0.963-0.114l-1.417-0.813l-1.733-0.139l-0.089-0.133l0.014-0.588l-0.077-0.133l-1.495-0.464l-5.074-0.053
		l-0.743-0.675l-0.036-0.279l0.016-0.428l-0.03-0.387l-0.161-0.171l-0.1-0.065l-0.266-0.36l-0.3-0.564l-0.629-0.9l-0.13-0.366
		l-0.983-1.28l-4.002-1.185l-0.445-1.886l-1.215-0.863l-1.958-2.043l-1.688-0.49l-0.704-0.687l-0.266-0.581l-0.665-1.877
		l-0.132-0.682l-0.195-0.614l-0.45-0.301l-1.565-0.012l-0.204-0.107l-0.098-0.207l-0.159-0.546l-0.118-0.11l-0.277-0.389
		l-1.299-2.48l-1.401-1.491l-1.774-1.687l-3.657-1.535l-0.466-0.738l0.068-1.244l0.663-0.36l0.361-0.983l0.007-1.098l-0.513-0.842
		l-1.038-0.342l-1.508-1.531l-2.635-0.425l-1.149-1.117l2.053-3.84l0.611-0.344l6.332,3.898l0.856,0.267l0.604-0.438l1.26-2.695
		l-2.698-5.774l0.647-2.088l0.366-0.941l0.411-0.58l4.729-3.224l7.148,1.245l0.529,0.507l6.224,12.203l1.692,3.298l3.025,3.426
		l0.3,0.759l0.314,1.532l0.254,0.622l1.692,3.111l1.749,1.504l0.32,0.616l0.556,5.512l0.275,1.145l0.429,0.172l2.51-0.967
		l0.597-0.047l0.579,0.132l5.608,2.961l3.684-0.665l1.147,0.353l0.582,0.65l1.701,2.925l0.488,0.218l6.241-4.08l3.516-0.566
		l2.049-1.238l0.729-2.455l0.422-2.66l1.438-1.027l1.678,0.028l4.443,2.433l0.715,1.295l0.509,0.624l3.2,2.175l3.271,1.175
		l4.002,1.396l1.994,1.703l1.658,2.638l0.688,1.847l0.402,0.516l0.57-0.127l0.482-0.808l0.243-1.076l0.3-1.011l0.647-0.604
		l0.563,0.031l1.408-1.016l0.59-0.14l0.434-0.237l0.327-0.602l0.259-1.229l-0.266-0.518l0.014-0.369l0.132-0.34l0.095-0.463
		l0.039-2.825l0.104-1.335l0.288-1.211l0.847-1.705l4.086-3.77l1.027-0.567l1.036-0.236l2.668,0.952l0.556-0.123l0.525-0.57
		l0.32-0.848l0.268-0.924l0.361-0.799l0.693-1.03l0.243-0.616l0.116-0.816l0.245-0.766l0.922-0.915l0.195-0.786l-0.079-0.431
		l-0.179-0.308l-0.42-0.444l-0.175-0.324l-0.027-0.276l0.025-0.248l-0.014-0.257l-0.327-0.975l-0.018-0.388l0.17-0.588l0.041-0.426
		l0.032-2.04l0.043-0.248l0.086-0.217l0.079-0.29l0.027-0.475l-0.064-0.434l-0.286-1.075l-0.118-0.348l-0.348-1.617l0.068-1.663
		l0.82-5.002l0.266-0.868l1.994-3.615l-0.104-0.516l-0.686-2.417l0.536-1.451l0.257-0.378l0.202-0.511l-0.021-1.499l0.141-0.739
		l0.314-0.687l-0.109-0.457l-0.238-0.357l-0.086-0.38l0.297-0.701l1.32-1.046l0.57-1.053l0.391-1.37l0.025-1.492l-0.527-1.428
		l-0.368-0.581l-0.059-0.624l0.157-0.673l0.275-0.739l0.522-0.916l0.591-0.465l3.284-0.923l0.37-0.265l0.279-0.472l0.263-0.573
		l0.995-1.673l1.068-2.329l2.239-2.593l0.641-1.302l-0.264-1.161l0.22-0.48l0.772-1.128l0.431-1.21l0.729-0.443l3.804-0.629
		l1.426,0.427l2.037-0.621l0.684,0.24l1.217,0.908l0.659-0.2l0.582,0.053l1.619,1.248l0.42,0.076l4.647-1.774l0.892-1.231
		l-0.161-0.131l-0.32-0.431l-0.161-0.143l0.25-0.573l0.32-0.171l0.349-0.03l0.351-0.161l1.413-1.86l2.595-1.309l0.167-1.114
		l0.915-1.363l1.154-0.401l2.794,0.603L438.909,30l0.668,0.298l0.656,1.122l1.183,2.81l4.095,7.389l0.482,0.53l4.218,1.906
		l-0.032,2.158l0.545,1.28l0.838,0.687l0.84,0.365l7.145,3.542l7.145,3.532l0.35,0.65l1.231,4.919l3.107,7.639l-2.534,5.473
		l-8.009,9.961l-0.277,0.809l-0.177,1.378l-0.377,4.593l0.014,0.99l0.265,0.646L462.8,95.937z M318.955,559.404l-0.143-1.011
		l0.218-0.416l0.41,0.147l0.418,0.677l0.005,1.626l-0.038,0.755l-0.118,0.653h-0.15l-0.224-0.413l-0.354-0.107l-0.329,0.19
		l-0.145,0.465l-0.113,0.082l-0.25-0.526l-0.258-0.719l-0.143-0.501l-0.082-0.67l-0.013-0.691l0.131-0.547l0.347-0.226l0.265,0.274
		l0.018,0.559l0.082,0.448L318.955,559.404z M298.918,555.767l0.73-1.063l0.907-0.484l0.955,0.065l0.875,0.577l-0.15,0.474
		l-0.222,0.277l-0.529,0.429l0.372,0.027l0.148,0.212l-0.041,0.332L301.769,557l-0.29,0.231l-0.308-0.027L300.576,557l-0.225,0.034
		l-0.603,0.23l-0.222,0.158l-0.216,0.02l-0.231-0.248l-0.236-0.318l-0.24-0.205l0.372-0.276l0.426-0.079l0.869,0.054l-0.2-0.521
		l-0.35-0.158L298.918,555.767z M304.348,553.325l1.229-0.264l1.186-0.007l0.751,0.576v0.327l-0.247-0.027l-0.236,0.023
		l-0.222,0.101l-0.211,0.178l0.138,0.129l0.342,0.501H305.4l0.762,0.275l-0.199,0.183l-0.22,0.129l-0.232,0.05l0.098,0.074
		l0.102,0.194l-0.494,0.533l-0.683,0.355l-0.701,0.065l-0.536-0.35l0.19-0.232l0.054-0.118l-0.093-0.555l0.322-0.275l0.115-0.054
		v-0.275l-0.383-0.216l0.068-0.489l0.336-0.521L304.348,553.325z M295.769,552.42l0.343,0.641l0.56,0.254l1.198,0.011v0.304
		l-0.869-0.034l-0.333,0.259l-0.15,0.707h-0.15l-0.182-0.34l-0.333-0.182l-0.69-0.083l-0.333-0.135l-0.215-0.281l-0.243-0.227
		l-0.418,0.011l0.318-0.585l0.467-0.259L295.769,552.42z M311.276,552.42l0.288,0.633l-1.336,1.178l0.136,0.124l0.309,0.388
		l0.139,0.119l-0.628,0.819l-0.694,0.079l-0.594-0.6l-0.336-1.204l0.325-0.223l1.041-0.408l0.637-0.669l0.335-0.25L311.276,552.42z
		 M393.8,552.571l0.172-0.381l0.408-0.112l0.783,0.07l-0.288,0.574l-0.243,0.198l-0.361,0.166l-0.329-0.052L393.8,552.571z
		 M314.579,552.722l0.29-0.868l0.515-0.85l0.567-0.44l0.442,0.346l0.113,1.059l-0.606,1.123l-0.814,0.482L314.579,552.722z
		 M389.583,551.213l-0.665-0.187l-0.481-0.685l-0.125-0.896l0.379-0.803l0.365,0.251l1.892,2.018l-0.163,0.303l-0.376,0.173
		l-0.356,0.281l-0.218,0.432l0.048,0.623l-0.536-0.31l-0.181-0.184l0.105-0.31L389.583,551.213z M328.518,551.062l0.488-1.043
		l0.554-0.896l0.655-0.494l0.783,0.166l-0.152,0.997l-0.418,0.586l-0.528,0.432l-0.481,0.539l-0.156,0.427l-0.097,0.448
		l-0.136,0.356l-0.594,0.281l-0.139,0.356l0.011,0.486l0.139,0.529l-0.15,0.038l-0.102,0.094l-0.095,0.111l-0.114,0.086l0.125,0.054
		l0.336,0.248l-0.102,0.437l-0.059,0.167l0.304,1.373l-0.74,1.275l-1.817,1.564v0.301l0.204-0.016l0.132,0.072l0.268,0.272
		l-0.215,0.268l-0.288,0.773l-0.116,0.161l-0.536-0.086l-0.233,0.079l-0.279,0.334l-0.284-0.826l-0.313-0.703l-0.191,0.456
		l-0.71,0.891l-0.122,0.066l-0.068,0.186l0.025,0.501h-0.136l0.036-0.613l-0.064-0.42l-0.165-0.127l-0.272,0.263l-0.093-0.531
		l0.131-0.333l0.193-0.36l0.084-0.607l-0.261,0.349l-0.776,0.784l-0.358,0.553l-0.959,0.281l-0.361,0.191l-0.007-1.15l0.047-0.526
		l0.123-0.482l-0.129-0.546l0.043-0.539l0.064-0.484l-0.059-0.385l-0.261-0.291l-0.592-0.334l-0.279-0.427l0.46-0.172l0.823-0.6
		l0.447-0.133h2.185v-0.302l-4.067-0.329l0.24-0.96l0.172-1.241l0.311-0.972l0.642-0.146l-0.47,1.091l-0.107,0.507l0.34,0.212
		l2.2-0.423l0.78-0.578l0.408-0.209l4.271-0.704L328.518,551.062z M312.328,547.884l0.554-0.097l2.588,0.186l1.572,0.639
		l0.402,0.482l-0.054,0.519l-0.118,0.224l-0.417,0.166l-0.168-0.047l-0.165-0.177l-0.173-0.106l-0.182,0.179l-0.086,0.124
		l-0.268,0.276l-0.097,0.054l-1,0.254l-0.322-0.054l0.347-0.503l-0.279-0.471l-0.501-0.222l-0.531-0.018l-0.354,0.133h0.901
		l-0.408,0.864l-0.581-0.141l-0.599-0.395l-0.445,0.097l-0.204-0.016l-0.075-0.622l0.157-0.796L312.328,547.884z M318.507,547.552
		l-0.397,0.285l-0.424,0.038l-0.83-0.323l0.363-0.728l0.46-0.466l0.515-0.248l0.538-0.072l0.08,0.087l-0.004,0.199l-0.023,0.206
		l0.021,0.116l0.601,0.331l0.327,0.031l0.3-0.04l0.252,0.116l0.182,0.47l-0.503,0.534l-0.64,0.437l-0.671,0.262l-0.601,0.009
		l0.156-0.278l0.118-0.305L318.507,547.552z M309.928,546.976l-0.393,0.237l-0.418,0.047l-0.429-0.09l-0.426-0.193l-0.066,0.056
		l-0.107,0.144l-0.13,0.119l-0.143-0.016l-0.014-0.108l0.022-0.421l-0.007-0.105l-0.486-0.423l-0.238-0.136l-0.681-0.161
		l-0.504-0.296l-0.447-0.432l-0.193-0.51l0.152-0.512l0.365-0.367l0.44-0.196l0.377-0.002v-0.304l-1.048-1.216l0.079-0.578
		l0.136-0.443l0.215-0.236l0.318,0.038l0.352,0.327l0.966,0.651l0.199,0.393l0.072,0.39l0.181,0.23l0.223,0.11l0.197,0.029
		l0.404,0.942v0.275l-0.644-0.232l-0.309-0.025l-0.274,0.257l0.295,0.246l0.633,0.347l0.299,0.315l-0.179,0.331l0.717-0.06
		l0.302,0.157l0.197,0.483l-0.533,0.32l-0.218,0.011l0.354,0.222l0.186,0.06l0.211-0.005V546.976z M303.958,540.401l-0.238,0.481
		l-0.317,0.499l-0.279,0.196l-0.139-0.428l0.204-0.855l0.512-1.095l0.608-0.796l0.49,0.029l-0.08,0.614l-0.213,0.463
		L303.958,540.401z M295.018,540.401l-0.417-0.27l-0.751-0.103l-0.345-0.374l0.227-0.95l-0.168-0.522l-0.318-0.471l-0.204-0.802
		h0.463l0.621,0.786l0.581,1.043l0.059,0.418l0.379,1.227L295.018,540.401z M296.669,536.908l0.368,0.758l1.12,0.158l0.447,0.607
		l-0.098,0.025l-0.066,0.051l-0.089,0.015l-0.166-0.091l-0.102,0.432l-0.048,0.416l0.027,0.369l0.123,0.28l-0.367-0.049
		l-0.283,0.191l-0.064,0.354l0.263,0.446l-0.549-0.292l-0.558-0.548l-0.461-0.821l-0.245-1.108l-0.29,0.46l-0.238,0.154
		l-0.165-0.263l-0.059-0.796l0.173-0.635l0.411-0.2L296.669,536.908z M294.569,536.576l-0.388,0.044l-0.17-0.289l-0.077-0.397
		l-0.118-0.275l-0.44-0.133l-0.247-0.138l-0.225-0.339l-0.199-0.667l0.115-0.281l0.535-0.273l0.127-0.312l0.089-0.35l0.132-0.18
		l0.25,0.201l0.018,0.385l0.075,0.345l0.139,0.29l0.218,0.232l-0.172,0.638l-0.111,0.661l0.07,0.47l0.377,0.065V536.576z
		 M293.816,522.433h-0.719l-0.333-0.094l-0.311-0.243l0.558-0.463l1.073,0.48l0.485-0.298l-0.075-0.178l-0.032-0.151l-0.022-0.143
		l-0.036-0.173l0.136-0.105l0.199-0.318l0.129-0.165l-0.638-0.896l-0.404-0.307l-0.47-0.057l0.585-0.774l0.329-0.182l0.438,0.028
		l0.374,0.685l0.333,0.431l0.817,0.738l-0.429,0.477l-0.356,0.143l-0.234,0.296l-0.043,0.934l-0.172,0.419l-0.456,0.048
		l-0.486-0.188L293.816,522.433z M297.282,411.442l-0.152,0.651l-0.009,0.635l0.106,0.573l0.193,0.5l-0.524,0.288l-0.596,0.117
		l-0.297-0.172l0.365-0.595l-0.39-0.018l-1.574,1.38v0.331l0.154,0.044l0.447,0.258l-0.374,0.428l-0.397,0.206l-0.88,0.059
		l-0.27-0.374l-0.261-0.547l-0.261-0.668l-0.408-0.402l-0.286,0.16l-0.311,0.309l-0.316-0.012l-0.3-0.791h0.461v-0.363l-0.284-0.234
		l-0.626-0.82l-0.227-0.415l-0.138-0.465l-0.324-1.552l-0.063-0.513l0.909,0.774l0.86-0.087l0.88-0.34l0.966-0.014v0.302
		l-0.356,0.155l-0.265,0.38l-0.442,1.194l0.063,0.381l0.034,0.064l-0.012,0.006l-0.084,0.214l0.316,0.214l1.207,0.089l0.172,0.119
		l0.159,0.196l0.161,0.083l0.179-0.216l0.064-0.353l-0.072-0.286l-0.093-0.258l0.018-0.254l0.54-0.612l0.883-0.429l0.887,0.002
		L297.282,411.442z M295.006,409.44l-0.072-0.794l-0.206-0.092l-0.292,0.181l-0.333,0.036l-1.062-1.338l0.107-0.197l0.104-0.076
		l0.252-0.032l0.579-0.281l0.756-0.728l0.767-0.399l0.622,0.71l-0.009,0.777l-0.343,0.868L295.006,409.44z M375.763,320.264
		l0.882-0.125l0.62,0.731l-0.743,0.461l-1.446-0.008l-1.865-0.546l-1.268,0.103l-0.398,0.99l-1.74,1.082l0.624,1.429l1.354-0.168
		l0.328,0.323l-0.247,0.254l-0.25,0.044l-0.261-0.025l-0.279,0.049l-0.195,0.152l-0.223,0.384l-0.197,0.173l-0.383,0.114
		l-0.474-0.042l-0.274-0.334l0.218-0.769l-0.1-0.184l-0.188-0.526l-0.299-0.516l-0.562,1.277l-0.588,0.216l-0.752-1.282
		l-0.403-0.885l-0.2-0.696l-0.157-0.742l0.506-0.636l1.503-1.607l1.905-0.159l2.057-0.601l1.068,0.412l0.305,0.756l-0.527,0.343
		l0.216,0.349l0.52-0.07l0.654,0.07L375.763,320.264z M352.069,562.893l0.182,0.182l-0.075,0.068l0.007,0.366l-0.258,0.246
		l-0.279-0.021l-0.007,0.134l-0.032,0.068l-0.179,0.075l-0.336,0.055l-0.32-0.289l-0.127,0.032l-0.066-0.091l0.145-0.361
		l0.358-0.436l0.483-0.163L352.069,562.893z M329.482,558.745l0.667-0.039l0.195,0.145l-0.154,0.31l-0.061,0.401L330,559.898
		l-0.097,0.14l-0.129,0.038l-0.161,0.193l-0.206,0.607l-0.088,0.365l-0.172,0.22l-0.279-0.236l-0.186-0.725l0.102-0.591l0.606-0.079
		l0.011-0.218l-0.19-0.151l-0.29-0.018l-0.15-0.161l0.179-0.308L329.482,558.745z M331.023,556.849l0.091,0.282l0.032,0.332
		l-0.129,0.353l-0.231,0.183l-0.218,0.036l-0.107-0.088l0.029-0.17l-0.118-0.007l-0.283,0.229l-0.354,0.163l-0.628-0.023
		l-0.193,0.022l-0.354-0.052l-0.009-0.156l0.254-0.258l0.163-0.405l0.204-0.398l0.141-0.169l0.261-0.239l0.558-0.264l0.454,0.032
		l0.272,0.251L331.023,556.849z M309.795,556.004l0.181,0.065l0.277,0.253l-0.111,0.321l-0.433,0.151l-0.358,0.029l-0.604-0.091
		l-0.1-0.124l-0.206-0.366l0.127-0.296l0.326-0.196l0.254-0.095l0.333,0.314L309.795,556.004z M316.863,553.265l1.359-0.534
		l0.232,0.389l-0.388,0.79l-0.52,0.378l-0.533,0.212l-0.02,0.174l0.311,0.268l0.081,0.244l-0.29,0.072h-0.551l-0.227-0.131
		l0.084-0.097l0.002-0.189l-0.032-0.367l0.064-0.253l0.098-0.097l0.02-0.149l0.005-0.277l0.115-0.291L316.863,553.265z
		 M309.611,549.147l-0.14,0.018l-0.086-0.034l0.134-0.173l0.381-0.305l0.263-0.052l-0.05,0.229l-0.225,0.215L309.611,549.147z
		 M309.034,549.306l-0.27,0.191l-0.409-0.009l-0.358-0.124l-0.3-0.426l-0.243,0.009l-0.211-0.682l0.097-0.251l0.34-0.004
		l0.293,0.054l0.372-0.144l0.755,0.022l0.308,0.126l0.034,0.3L309.034,549.306z M316.566,545.481l-0.222,0.427l-1.921,0.656
		l-0.243,0.065l-0.46-0.109l-0.284-0.342l-0.004-0.286l0.157-0.148l2.01-0.557l0.642-0.036L316.566,545.481z M314.513,544.815
		l0.029,0.311l-2.089,1.005l-0.181-0.054l0.392-0.777l0.347-0.331l0.197-0.06L314.513,544.815z M295.435,544.779l0.313,0.575
		l0.105,0.546l-0.039,0.282l-0.055,0.007l-0.156-0.098l-0.161,0.032l-0.104-0.13l0.007-0.309l-0.064-0.098l-0.161-0.067
		l-0.436,0.109l-0.207-0.279l0.038-0.315l0.15-0.271l0.105-0.262l0.265-0.085L295.435,544.779z M411.113,541.968l0.923,0.652
		l0.188,0.221l-0.064,0.239l-0.29,0.297l-1.393,0.424l-0.311,0.353l-0.227,0.847l-0.225,0.013l-0.268-0.315l-0.417-0.815
		l0.138-0.348l1.043-0.246l0.304-0.221l0.132-0.25l-0.011-0.323l0.104-0.286l0.186-0.217L411.113,541.968z M310.557,407.756
		l0.159,0.006l0.601,0.975l-0.059,0.356l-0.252,0.621l-0.37,0.233l-0.351-0.016l-0.148-0.163l0.023-0.35l-0.079-0.143l-0.148,0.105
		l-0.048,0.209l-0.021,0.227l-0.104,0.123l-0.122,0.02l-0.134-0.139l-0.086-0.332l0.073-0.579l0.249-0.573l0.292-0.149l0.429,0.305
		l0.179-0.06l-0.082-0.245l-0.313-0.336l-0.097-0.225l0.113-0.06l0.129-0.006l0.08,0.137L310.557,407.756z M313.15,411.217
		l-0.17,0.042l-1.121-0.548l-0.134-0.221l0.084-0.203l-0.104-0.197l-0.25-0.221l0.036-0.239l0.154-0.113l0.168-0.089l0.122-0.322
		l-0.134-0.468l-0.22-0.422l-0.079-0.281l0.207-0.149l0.308-0.072l0.386-0.287l0.293,0.125l0.188,0.022l0.174,0.181l0.175,0.325
		l0.225,0.223l0.118-0.034l0.018-0.245l0.116-0.12l0.195,0.064l0.17,0.151l0.095,0.207l0.111,0.038l0.154-0.149l0.118-0.251
		l0.059-0.364l0.102-0.371l0.14-0.275l0.102-0.102l0.109,0.09l0.096,0.371l0.03,0.281l0.041,0.574l0.161,0.328l-0.039,0.225
		l-0.222,0.456l-0.258,0.645l-0.308,0.328l-0.47-0.012l-0.676-0.736l-0.924,0.215l-0.007,0.095l0.547,0.151l0.429,0.247l0.1,0.525
		l-0.129,0.332l-0.188,0.036l-0.102,0.082L313.15,411.217z M309.041,407.296l-0.181-0.108l-0.037-0.203l0.037-0.102l0.052-0.177
		l0.107-0.277l0.109-0.221l0.107-0.293l0.123-0.261l0.143-0.184l0.12-0.215l0.064-0.225l0.216-0.335l0.401-0.034l0.343,0.1
		l0.343-0.204l0.306-0.042l0.113,0.066l0.107,0.09l0.211,0.084l0.213-0.022l0.152,0.022v0.156l-0.157,0.132l-0.207,0.038l0.018,0.16
		l0.107,0.323l-0.197,0.341l-0.37,0.108l-0.714-0.407l-0.311,0.12l-0.236,0.467l-0.107,0.281l-0.284,0.359l-0.397,0.391
		L309.041,407.296z M327.736,385.192l0.34,0.014l0.12,0.146l-0.073,0.172l-0.097,0.069l-0.023,0.13l-0.021,0.279l-0.086,0.336
		l-0.07,0.15l-0.057,0.315l-0.161,0.445l-0.195-0.101l-0.245-0.228l-0.107,0.151l0.072,0.37l-0.097,0.305l-0.254,0.057l-0.173,0.214
		l-0.374,0.109l-0.447-0.303l-0.359-0.485l-0.234-0.732l-0.115-0.198l-0.086-0.174l-0.036-0.239l0.472-0.316l0.186-0.18l0.179-0.273
		l0.39-0.334l0.583-0.291l0.393,0.051l0.177,0.332l0.129,0.304l0.102,0.079l0.091-0.107L327.736,385.192z M320.937,567.095
		l0.258,0.059l0.057,0.112l-0.172,0.219l-1.348,0.755l-0.35,0.085l-0.258-0.149l-0.048-0.363l0.177-0.194l0.129-0.011l0.132-0.037
		l0.512-0.273l0.508-0.059l0.175-0.102L320.937,567.095z M301.201,550.483l0.34-0.016l0.238,0.115l-0.113,0.42l-0.252,0.366
		l-0.081,0.292l-0.104,0.252l-0.207,0.036l-0.107-0.036l-0.209,0.041l-0.317-0.203l-0.027-0.607l0.193-0.708l0.349-0.595l0.39,0.025
		l0.047,0.359l-0.206,0.162L301.201,550.483z M293.709,523.739l0.172,0.092l0.005,0.598l-0.096,0.339l-0.286-0.121l-0.887-0.556
		l-0.098,0.092l-0.064-0.075l-0.027-0.152l-0.125-0.178l-0.202-0.193l0.07-0.182l0.376-0.119l0.329,0.191l0.068,0.391l0.043,0.143
		l0.193-0.068l0.147,0.018l0.084,0.099l0.134-0.049L293.709,523.739z M297.277,509.062l0.165,0.171l0.05,0.07l-0.177-0.03
		l-0.764-0.404l-0.427,0.223l-0.374,0.004l-0.125-0.07l0.032-0.015l0.036-0.007l-0.057-0.174l-0.093-0.399l0.077-0.258l0.156-0.054
		l0.086-0.106l-0.014-0.128l0.139-0.273l0.372-0.249l0.249,0.201l-0.123,0.394l0.075,0.401L297.277,509.062z M299.46,488.067
		l0.059,0.04l0.048,0.186l-0.091,0.169l-0.161,0.023l-0.091,0.126l-0.059,0.192l-0.15,0.015l-0.497-0.143l-0.361-0.247l-0.043-0.147
		l0.241-0.045l0.299-0.469L299.46,488.067z M292.588,426.04l-0.376-0.372l-0.188,0.185l-0.324,0.199l-0.472-0.352l-0.234-0.468
		l0.011-0.206l0.118-0.049l0.14,0.132l0.052,0.094l0.093-0.195l0.1-0.378l-0.147-0.207l-0.27-0.236l-0.188-0.4l-0.032-0.386
		l0.129-0.28l0.197-0.173l0.141-0.008l0.077,0.169l0.104,0.12l0.547,0.238l0.24,0.244l0.258,0.398l0.189,0.532l0.115,0.667
		l0.016,0.484l-0.118,0.206L292.588,426.04z"/>
</g>
<g id="Copyright">
	<text transform="matrix(1 0 0 1 681.6426 577.5911)" class="st1 st2">© Vemaps.com</text>
</g>
</svg>
