<?xml version="1.0" encoding="utf-8"?>
<!-- Generator: Adobe Illustrator 23.0.1, SVG Export Plug-In . SVG Version: 6.00 Build 0)  -->
<svg version="1.1" xmlns="http://www.w3.org/2000/svg" xmlns:xlink="http://www.w3.org/1999/xlink" x="0px" y="0px"
	 viewBox="0 0 800 600" style="enable-background:new 0 0 800 600;" xml:space="preserve">
<style type="text/css">
	.st0{fill:#808080;}
	.st1{font-family:'Roboto-Regular';}
	.st2{font-size:14px;}
</style>
<g id="India">
	<path class="st0" d="M314.422,30l0.259,0.468l0.327,0.45l0.395,0.33l0.45,0.117l0.511-0.211l0.78-0.872l0.484-0.257l1.009,0.054
		l0.196,0.822l-0.304,1.162l-0.487,1.073l-0.15,1.663l0.609,1.58l1.618,2.932l0.159,0.77l0.154,1.599l0.243,0.723l0.697,0.908
		l0.154,0.368l1.068,3.983l0.395,0.718l0.679,0.636l0.763,0.33l3.938,0.676l0.989,0.421l1.488,1.156l0.882,1.179l0.648,0.379
		l0.805,0.233l0.627,0.282l0.502,0.484l0.099,0.193l0.333,0.644l0.159,0.477l0.054,0.486l-0.052,0.486l-0.161,0.475l-1.261,1.233
		l-1.679,0.734l-1.313,0.912l-0.155,1.77l0.85,2.542l0.293,1.33l0.118,1.341l-0.22,3.967l0.338,1.214l0.404,0.687l1.584,1.52
		l0.03,0.029l0.961,1.586l0.273,0.157l0.639,0.193l0.296,0.14l0.293,0.187l0.218,0.272l0.075,0.391l0.03,0.486l0.146,0.115
		l0.602-0.275l0.543,0.041l1.313,0.718l0.602,0.21l1.389,0.055l0.584,0.31l0.055,0.763l-0.15,0.313l-0.377,0.563l-0.123,0.39
		l-0.077,1.086l-0.107,0.391l0.011,0.772l0.346,0.54l1.011,0.906l0.332,0.641l0.118,0.633l0.171,0.596l0.479,0.53l0.407,0.472
		l0.088,0.671l-0.161,0.739l-0.334,0.673l-0.72,0.882l-1.693,1.369l-0.734,0.842l-0.316,0.09l-0.343-0.116l-0.355-0.173
		l-0.352-0.074l-0.416,0.075l-0.514,0.16l-0.493,0.225l-0.345,0.268l-0.173,0.461l-0.193,1.214l-0.284,0.405l-0.155,0.015
		l-0.461-0.121l-0.198-0.023l-0.232,0.063l-0.43,0.202l-0.236,0.051l-0.566,0.312l-0.555-0.171l-0.514-0.44l-0.447-0.495
		l-1.456-1.253l-0.289-0.658l-0.307-1.065l-0.034-0.305l0.098-0.37l0.146-0.352l0.032-0.347l-0.245-0.35l-0.407-0.158l-0.325,0.161
		l-0.511,0.629l-0.296,0.268l-0.304,0.163l-0.697,0.166l-2.459,0.075l-0.68,0.162l-0.404,0.222l-0.066,0.4l0.488,1.053l0.684,1.021
		l0.059,0.205l-0.07,0.125l-0.116,0.117l-0.087,0.18l-0.032,0.254l0.025,0.118l0.05,0.096l0.413,1.871l-0.023,0.442l-0.088,0.368
		l0.029,0.254l0.182,0.061l0.008,0.003l0.129,0.043l0.632,0.344l0.379,0.535l0.291,0.632l1.684,2.324l0.502,0.401l0.757,0.452
		l0.202,0.202l0.186,0.417l-0.045,0.384l-0.377,0.864l-0.104,0.405l-0.13,0.859l-0.109,0.389l-0.454,0.706l-0.055,0.334l0.427,0.484
		l-0.007,0.177l-0.045,0.194l0.011,0.201l0.084,0.152l0.214,0.261l0.138,0.357l0.096,0.148l0.127,0.107l0.146,0.041l0.316-0.012
		l0.643,0.666l0.407,0.536l-0.084,0.251l-0.295,0.328l-1.684,1.396l-0.072,0.444l0.65,0.412l0.511,0.459l-0.043,0.67l-0.252,0.779
		l-0.121,0.78l0.041,0.349l0.073,0.194l0.139,0.124l0.541,0.277l0.2,0.003l0.448-0.113l0.461,0.056l0.23-0.011l0.266-0.137
		l0.026-0.026l0.198-0.202l0.189-0.285l0.291-0.622l0.287,0.143l0.429,0.45l0.288,0.104l0.218-0.471l0.118-0.882l0.329-0.783
		l0.841-0.165l0.25,0.131l0.48,0.425l0.58,0.356l0.107,0.28l0.072,0.314l0.18,0.299l0.136,0.062l0.327,0.039l0.121,0.085l0.08,0.211
		l-0.014,0.188l-0.046,0.191l-0.012,0.218l0.066,0.162l0.266,0.211l0.098,0.15l0.009,0.174l-0.045,0.168l-0.025,0.178l0.071,0.203
		l0.264,0.208l0.297,0.074l0.241,0.15l0.1,0.43l0.007,0.386l0.048,0.357l0.123,0.323l0.232,0.284l0.439,0.239l0.47,0.14l0.416,0.228
		l0.177,0.317l0.1,0.179l0.114,0.661l0.114,0.264l0.221,0.066l0.282-0.056l0.27-0.012l0.264,0.054l0.255,0.143l0.075,0.08
		l0.061,0.093l0.045,0.105l0.023,0.116l0.163,0.268l0.261,0.303l0.293,0.254l0.252,0.124l0.375,0.1l0.205,0.082l0.202-0.037
		l0.705-0.449l0.309-0.066l0.697-0.033l0.873-0.239l0.373,0.041l1.259,0.317l0.291,0.142l0.216,0.261l0.304,0.578l0.393,0.456
		l0.198,0.129l0.082,0.053l0.268,0.174l1.222,0.509l0.398,0.332l0.273,0.485l0.312,0.441l0.513,0.207l0.295-0.073l0.543-0.304
		l0.284,0.001l0.211,0.159l0.463,0.747l0.493,0.282l0.118,0.184l-0.421,0.78l-0.123,0.109l-0.141,0.021l-0.168-0.007l-0.157,0.018
		l-0.109,0.096l0.005,0.251l0.179,0.242l0.23,0.239l0.161,0.243l0.059,0.392l-0.095,0.301l-0.163,0.288l-0.148,0.352l0.629-0.147
		l0.632,0.036l1.263,0.371l1.713,0.977l0.871,0.348l0.568,0.364l0.291,0.074l0.345-0.049l0.257-0.082l0.264-0.023l0.364,0.13
		l1.7,0.963l0.489,0.395l0.212,0.277l0.339,0.649l0.211,0.288l0.25,0.209l1.474,0.65l1.327,0.367l0.557,0.299l0.35,0.566
		l0.121,0.283l-0.126,0.315l-0.136,0.008l-1.164,0.398l-0.303-0.075l-0.167-0.353l-0.169-0.246l-0.276,0.205l-0.303,0.365
		l-0.241,0.238l0.229,0.533l-0.343,0.525l-1.04,0.796l-0.241,0.254l-0.518,0.835l-0.171,0.189l-0.616,0.424l-0.45,0.429l-0.22,0.142
		l-0.33,0.105l-0.623,0.08l-0.257,0.145l-0.146,0.342l-0.23,0.718l-0.384,0.623l-0.884,1.121l-0.368,0.31l-1.031,0.279l-0.454,0.371
		l-0.254,0.55l0.002,0.505l0.164,0.501l0.236,0.532l0.159,0.519l-0.027,0.437l-0.205,0.41l-0.389,0.439l-0.098,0.074l-0.214,0.117
		l-0.095,0.077l-0.062,0.138l0.025,0.122l0.045,0.111l-0.007,0.101l-0.123,0.179l-0.148,0.153l-0.346,0.266l-0.005,0.003
		l-0.157,0.205l-0.155,0.112l-0.118,0.13l-0.048,0.256l-0.104,0.182l-0.504,0.166l-0.184,0.14l-0.068,0.352l0.125,0.333l0.366,0.649
		l0.127,0.801l0.095,0.205l0.148,0.026l0.159-0.008l0.127,0.11l0.046,0.373l-0.07,0.46l-0.355,1.3l-0.164-0.038l-0.218-0.172
		l-0.298,0.039l-0.087,0.288l0.289,0.828l0.045,0.305l-0.214,0.262l-0.332,0.097l-0.361-0.003l-0.295-0.04l-0.534,0.26l-0.337,0.752
		l-0.145,0.882l0.055,0.649v0.003l-0.147,0.342l-0.246,0.193l-0.289,0.149l-0.268,0.214l-0.214,0.322l-0.114,0.333l-0.048,0.358
		l-0.014,0.397l0.105,0.802l0.318,0.253l0.316,0.064l0.152,0.031l0.559,0.331l0.577,0.774l0.25,0.198l0.33,0.118l0.609,0.105
		l0.291,0.182l0.098,0.127l0.18,0.316l0.132,0.147l0.141,0.068l0.314,0.077l0.132,0.112l0.471,0.976l0.197,0.249l0.346,0.143
		l0.334-0.048l0.332-0.091l0.346,0.018l0.314,0.188l0.73,0.885l0.339,0.185l0.086-0.26l-0.147-1.253l0.047-0.338l0.171-0.269
		l0.346-0.195l0.291,0.009l0.37,0.012l0.055,0.117l-0.029,0.171l-0.009,0.184l0.116,0.157l0.307,0.159l0.297,0.102l0.641,0.117
		l0.22,0.16l0.343,0.658l0.18,0.229l0.297,0.142l0.541,0.154l0.284,0.191l0.659,0.693l0.289,0.178l0.321,0.062l0.708,0.002
		l0.247,0.11l0.14,0.295l0.026,0.296l0.083,0.276l0.322,0.235l0.278,0.091l0.343,0.069l0.334,0.008l0.268-0.091l0.204,0.117
		l0.061,0.211l0.032,0.244l0.125,0.213l0.806,0.155l1.716,0.331l0.404,0.215l0.357,0.455l0.352,1.168l0.235,0.546l1.003,1.161
		l0.235,0.473l-0.263,0.107l-0.069,0.16l0.109,0.151l0.282,0.07l-0.055,0.278l0.188,0.088l0.288-0.048l0.249-0.127l0.158-0.229
		l0.072-0.243l0.112-0.18l0.264-0.036l0.395,0.141l0.368,0.267l0.31,0.338l0.224,0.36l0.081,0.281l0.019,0.204l0.072,0.183
		l0.263,0.213l1.529,0.791l0.35,0.249l0.223,0.36l0.005,0.002l0.34,0.265l0.871,0.204l0.406,0.149l0.37,0.307l0.687,0.74l0.864,0.5
		l0.479,0.361l0.48,0.287l0.476,0.037l0.396-0.275l0.697-0.826l0.51-0.227l0.887,0.089l0.397,0.133l0.024,0.008l0.346,0.296
		l0.323,0.346l0.295,0.171l0.754,0.299l2.063,1.715l1.339,0.673l0.933,0.953l0.67,0.21l1.477-0.171l2.177-0.565l0.376,0.15l0.1,0.04
		l0.3,0.488l0.211,0.751l0.166,1.458l0.188,0.74l0.388,0.452l2.145,0.144l0.432,0.14l0.793,0.449l1.094,0.271l2.114-0.016
		l0.637,0.254l0.857,0.728l0.213,0.244l0.199,0.371l0.109,0.273l0.174,0.194l0.396,0.14l0.388-0.019l0.337-0.19l0.29-0.297
		l0.373-0.558l0.118-0.244l0.024-0.234l-0.262-0.359l-0.034-0.226l0.036-0.238l0.088-0.189l0.45-0.161l1.623,0.014l1.891,0.256
		l1.261,0.474l2.395,1.292l0.795,0.289l0.092,0.094l0.022,0.022l0.123-0.184l0.1-0.075l0.171-0.065l0.004-0.159l-0.069-0.198
		l-0.043-0.182l-0.492-0.557l-0.149-0.311l0.336-0.135l0.801-0.056l0.383-0.114l0.017-0.005l0.223,0.076l0.689,0.124l0.55-0.021
		l0.367-0.251l0.876-1.087l0.345-0.143l0.305,0.07l0.076,0.357l0.162,0.167l0.186,0.11l0.415,0.167l0.162,0.179l0.186,0.474
		l0.163,0.05l0.523-0.085l0.233,0.18l0.171,0.364l0.325,0.465l0.375,0.242l4.97,0.916l0.51,0.361l0.438,0.65l0.281,0.706
		l0.163,0.725l0.038,0.744l-0.094,0.772l-0.171,0.42l-0.245,0.444l-0.154,0.443l0.1,0.417l0.224,0.157l2.082,0.569l0.195-0.003
		l0.234-0.18l0.284-0.102l0.269,0.061l0.184,0.304l0.003,0.002l0.405,0.247l0.861,0.29l0.388,0.223l0.251,0.37l0.098,0.405
		l0.147,0.35l0.398,0.208l0.214,0.06l0.219,0.03l0.297,0.151l-0.021,0.294l0.03,0.26l0.439,0.04l0.971-0.383l0.391-0.042
		l0.677,0.284l0.061,0.585l0.003,0.668l0.505,0.53l1.596,0.424l0.261-0.007l0.599-0.183l0.279-0.209l0.037-0.045l0.24-0.292
		l0.288-0.26l0.299,0.016l0.317,0.096l0.313-0.098l0.623-0.339l0.756-0.41l1.367-0.541l0.187,0.065l1.355,0.759l0.243,0.295
		l0.135,0.661l-0.128,1.432l0.184,0.682l0.245,0.302l0.932,0.742l0.155,0.042l0.174-0.071l0.167-0.045l0.137,0.122l0.033,0.163
		l0.004,0.17l0.032,0.151l0.12,0.108l0.28-0.046l0.373-0.221l1.18-1.024l0.302-0.177l0.407-0.045l0.616-0.195l0.524,0.174
		l1.192,0.748l0.089,0.081l0.107,0.044l0.393-0.024l0.027,0.003l0.109,0.014l0.262,0.078l0.115,0.064l0.083,0.091l0.105,0.081
		l0.181,0.034l0.121-0.037l0.385-0.248l0.655-0.226l0.369-0.057l0.293,0.058l0.125,0.133l0.007,0.274l0.12,0.136l0.124,0.017
		l0.374-0.049h0.153l0.518,0.189l1.057,0.575l0.53,0.215l0.336,0.08l0.271,0.149l0.237,0.214l0.232,0.274h0.004l0.345,0.21
		l1.165,0.535l1.207,0.735l0.318,0.071l0.181-0.143l0.114-0.228l0.129-0.191l0.237-0.035l0.611,0.24l0.159,0.03l0.439-0.128
		l0.423-0.28l0.334-0.382l0.178-0.434l0.538-0.32l0.484-0.17l0.644-0.226l0.221-0.168l0.522-0.547l0.25-0.209l0.197-0.008
		l0.054,0.367l0.01,0.326l0.198,0.954h0.004l0.173,0.565l0.287,0.647l0.397,0.527l0.496,0.203l0.923-0.104l0.53-0.164l0.179,0.18
		l0.119,0.298l0.155,0.252l0.227,0.141l0.727,0.327l0.234,0.043l0.211-0.184l0.323-0.695l0.198-0.277l0.48-0.288l0.557-0.161
		l0.573-0.032l0.531,0.101l1.239,0.708l0.604,0.168l0.639-0.287l0.428-0.33l0.188-0.145l0.372-0.13l0.283,0.154l0.23,0.204
		l0.288,0.037l0.254-0.13l0.125-0.294l0.116-0.409l0.221-0.088l0.293,0.106l0.32,0.167l0.297-0.003l0.527-0.447l0.306-0.077
		l0.015,0.076l0.416,0.343l0.044-0.01l0.081,0.158l0.113,0.337l0.108,0.184l0.246,0.228l0.557,0.337l0.246,0.239l0.539-0.064
		l0.651-0.691l0.516-0.931l0.139-0.79l-0.054-0.242l0.012-0.197l0.126-0.416l0.251-0.828l0.777-1.532l0.289-0.85l0.071-0.385
		l0.027-0.367l-0.022-0.366l-0.152-0.767l-0.064-0.834l-0.068-0.333l-0.148-0.302l-0.387-0.59l-0.149-0.299l-0.259-0.679
		l-0.345-0.629l-0.362-0.509l-0.227-0.212l-0.267-0.124l-0.309-0.2l-0.314-0.696l-0.273-0.265l-0.082-0.147l-0.027-0.157
		l0.029-0.164l0.253-0.566l0.067-1.36l0.265-0.598l0.421-0.951l0.105-0.476l-0.045-0.22l-0.214-0.379l-0.075-0.211l-0.018-0.269
		l0.043-0.217l0.148-0.445l0.065-0.13l0.09-0.099l0.078-0.111l0.04-0.167l-0.032-0.083l-0.155-0.163l-0.046-0.086l-0.082-0.38
		l-0.021-0.187l0.021-0.208l0.439-0.983l1.073-1.836l0.414-1.633l0.25-0.5l0.179-0.495l-0.088-0.801l0.207-0.361l-0.034-0.23
		l-0.142-0.116l-0.231-0.087l-0.429-0.101l-0.23-0.368l-0.128-0.475l0.042-0.475l0.273-0.37l0.189-0.062l0.423,0.063l0.204,0.006
		l0.205-0.056l0.397-0.167l3.126-0.476l0.363-0.237h0.002l0.001-0.003l0.965-0.717l0.339-0.093l0.461,0.144l0.261-0.209l0.236-0.38
		l0.38-0.373l0.712-0.559l0.285,0.015l0.366,0.44l0.352,0.273l1.004,0.145l0.441,0.132l0.769,0.527l0.394,0.339l0.252,0.315h0.004
		v0.003l0.034,0.34l-0.172,0.643l0.016,0.326l0.142,0.248l0.412,0.446l0.152,0.298l0.061,0.352l-0.021,0.303l-0.833,3.682
		l-0.39,0.645l-0.272,0.699l-0.332,0.508l-0.123,0.281l0.011,0.273l0.275,0.394l-0.006,0.321l-0.049,0.599l0.094,0.567l0.238,0.517
		l0.377,0.439l0.221,0.147l0.201,0.092l0.19,0.123l0.366,0.486l0.218,0.194l0.479,0.328l-0.133,0.568l-0.147,0.114l-0.254,0.196
		l-1.041,0.271l-0.438,0.302l-0.371,0.549l-0.275,0.637l-0.145,0.56l0.052,0.038l0.164,0.121l1.083,0.577l0.387,0.294l0.228,0.439
		l0.083,0.498v1.06v0.002l0.105,0.958l0.266-0.365l0.334-0.286l0.349-0.041l0.308,0.377l0.043,0.238l-0.027,0.201l-0.002,0.187
		l0.121,0.196l0.18,0.107l0.204,0.021l0.195-0.055l0.164-0.121l0.368-0.02l0.431,0.195l0.403,0.301l0.273,0.303l0.236,0.486
		l0.14,0.394l0.243,0.283l0.546,0.154l0.977,0.056l0.487-0.048l0.484-0.13l0.204-0.136l0.179-0.185l0.184-0.146l0.22-0.021
		l0.238,0.011l0.717-0.192l0.471,0.329l0.664,0.464l0.614,0.317l1.081-0.129l0.71,0.119l0.684,0.261l0.437,0.35l0.037,0.337
		l-0.276,0.534l0.213,0.169l0.32-0.006l0.604-0.251l0.379,0.018l0.926,0.412l0.275,0.044l0.097,0.016l0.688-0.006l0.069,0.014
		l0.166,0.07l0.062-0.001l0.083-0.093l0.054-0.129l0.027-0.113l-0.001-0.042l0.009-0.043l0.007-0.088l0.036-0.1l0.09-0.076
		l0.07,0.006l0.138,0.124l0.065,0.032l0.137,0.022l0.021,0.003l0.352,0.109l0.175,0.027l0.375-0.036l1.091-0.293l1.968-0.191
		l0.657-0.187l0.432-0.394l0.436-1.168l0.579-0.376l0.315-0.027l0.637,0.025l0.319-0.106l0.284-0.217l0.23-0.234l0.248-0.199
		l0.35-0.116l0.584,0.094l1.6,1.15l1.945,1.014l2.234,0.252l3.93-0.229l1.087-0.063l0.093-0.043l0.852-0.391l0.516-0.004
		l0.607,0.075l1.229-0.028l0.593,0.139l0.509,0.312l0.243,0.096l0.355-0.01l0.287-0.079l0.291-0.132l0.268-0.178l0.221-0.222
		l0.202-0.358l0.139-0.351l0.178-0.303l0.309-0.214l0.239-0.039l0.698,0.042l0.25,0.074l0.162,0.248l0.396,0.866l0.229,0.202
		l0.323-0.024l0.627-0.219l0.312-0.012l0.764,0.228l0.273,0.02l0.836-0.107l0.509-0.246l1.1-0.723l0.516-0.096l0.325,0.176
		l0.096,0.283l0.05,0.314l0.184,0.266l0.27,0.034l0.143-0.221l-0.018-0.318l-0.205-0.26l0.371-0.178v-0.286l-0.041-0.253
		l0.261-0.074l0.302,0.126l0.548,0.473l0.305,0.148l1.05-0.159l0.638-0.638l0.131-0.655l0.061-0.305l-0.293-1.115v-0.002
		l-0.298-0.618l-0.861-0.867l-0.211-0.631l0.004-0.354l0.05-0.359l0.088-0.335l0.123-0.283l0.048-0.068l0.046-0.065l0.225-0.24
		l0.096-0.156l0.05-0.168l0.055-0.368l0.063-0.176l0.239-0.29l0.539-0.461l0.12-0.335l-0.068-0.231l-1.513-2.811l-0.384-0.463
		l-0.204,0.068l-0.511,0.385l-0.221,0.077l-0.632-0.039l-0.466,0.079l-1.343,0.472l-0.511,0.052l-0.091-0.148l-0.02-0.3
		l-0.287-0.405l-0.001-0.001l-0.382-0.171l-0.427-0.079l-0.395-0.123l-0.271-0.308l-0.152-0.325l-0.491-0.399l-0.162-0.277
		l-0.377-1.43l0.114-0.746l0.809-1.14l0.107-0.84l2.434-0.085l0.709,0.181l0.598,0.376l0.268,0.103l0.757-0.037l0.752,0.138
		l0.395-0.034l0.641-0.288l0.993-1.029l0.638-0.329l0.341-0.036l1.447,0.126l0.196-0.022l0.132-0.064l0.102-0.205l-0.032-0.179
		l-0.068-0.177l0.004-0.192l0.177-0.314l0.166,0.051l0.157,0.282l0.293,0.713l0.234,0.363l0.261,0.135l0.232-0.342l0.205-0.572
		l0.095,0.032l0.089,0.307l0.177,0.254l0.309-0.025l0.132-0.338l0.095-0.417l0.204-0.265l0.2,0.043l0.223,0.486l0.177,0.152
		l0.198-0.041l0.623-0.456l0.836-0.262l0.252-0.179l0.455-0.509l0.209-0.113l0.418-0.076l0.48-0.213l0.586-0.457l0.439-0.562
		l0.057-0.53h-0.004l0.18-0.593v-0.246l-0.209-0.205l-0.605-0.074l-0.264-0.106l-0.029-0.284l0.304-0.663l0.411-0.534l0.505-0.438
		l1.075-0.721l0.157-0.073l0.064,0.097l0.043,0.15l0.084,0.086l0.261,0.017l0.252-0.024l0.257-0.084l0.268-0.165l0.261-0.26
		l0.418-0.6l0.247-0.272l0.314-0.175l0.663-0.227l0.252-0.237l0.447-0.518l1.597-1.137l0.407-0.47l0.339-0.665l0.23-0.727
		l0.098-0.656l0.558-0.457l0.559-0.463l0.763-0.405l0.916-0.811l0.661-0.406l1.569-0.942l1.823-0.139l0.957,0.133l0.318-0.003
		l0.309-0.155l0.282-0.262l0.259-0.186l0.25,0.076l0.282,0.143l0.293-0.094l1.191-1.071l0.271-0.16l1.014-0.319l0.136-0.131
		l0.062-0.206l0.179-0.053l0.211-0.003l0.152-0.059l0.061-0.155l-0.038-0.112l-0.055-0.113l0.007-0.153l0.196-0.157l0.345-0.068
		l0.368-0.004l0.264,0.036l0.293-0.19l0.336-0.165l0.266-0.22l0.909-0.373l0.966-0.29l0.661-0.639l1.322-0.058l0.712-0.872
		l0.966-0.93l-0.661-0.698l-0.661-0.757l0.289-0.989l0.627,0.038l0.207-0.071l0.182-0.187l0.28-0.52l0.179-0.217l0.407-0.213
		l0.448-0.067l0.909-0.006l0.402-0.087l0.286-0.116l0.239-0.202l0.934-1.42l0.298-0.272l0.527-0.056l0.657,0.255l0.618,0.434
		l0.902,1.073l0.195,0.33l-0.107,0.775l0.261,0.158l0.384,0.005l0.288-0.048l0.668-0.023l0.643,0.188l1.289,0.6l0.386,0.117
		l-0.111-0.174l-0.296-0.337l-0.173-0.375l0.3,0.177l0.295,0.121l1.013,0.261l0.888,0.535l0.309,0.112l1.289,0.223l0.141,0.051
		l0.141,0.092l0.086,0.153l0.021,0.174l0.039,0.16l0.148,0.111l0.979,0.132l-0.123-1.186l0.56-0.466l1.119-0.058l0.661,0.175
		l0.254-0.932l0.356-0.175l0.051,0.757l0.315,0.499l0.148-0.278l0.629,0.099l0.175-0.12l0.021-0.462l-0.186-0.719l0.059-0.235
		l0.602-0.06l0.032-0.151l-0.023-0.201l0.054-0.173l0.184-0.13l0.147-0.033l0.152-0.004l0.184-0.044l0.939,0.423l1.218,0.199
		l0.522-1.096l-0.045-1.323l0.547-0.101l0.338-0.145l1.161,0.573l1.566-0.698l1.044-0.1l1.044-0.1l1.165,0.016l0.155,0.285
		l0.261,1.009l0.177,0.331l0.504,0.584l0.516,0.312l0.563-0.01l0.627-0.386l0.33-0.273l0.239-0.093l0.221,0.109l0.282,0.337
		l0.011,0.258l-0.423,0.665l-0.257,0.598l-0.191,0.17l-1.838,0.516l-0.284,0.175l-0.175,0.26l-0.154,0.295l0.358,1.618l1.479-0.995
		l1.218-0.398l0.263,1.205l1.573,0.829l-0.111,0.261l0.016,0.217l0.138,0.139l0.252,0.026l0.304,0.278l0.141,0.37l0.18,0.863
		l0.223,0.417l0.914,1.102l0.275,0.999l0.094,0.945l-1.653,1.289l-1.161,0.655l0.552,0.93l-0.696,0.891l0.609,0.594l0.572,1.316
		l0.297-0.144l0.088-1.172l0.174-0.891l0.522-0.99l0.957-0.495l1.479,0.396l1.218,1.386l1.218,0.792l0.783,0.989l0.224,1.441
		l0.623,0.355l0.55,0.121l0.546-0.13l0.614-0.392l0.786-0.356l0.641,0.169l1.161,1.012l0.182,0.07l0.164-0.003l0.134,0.068
		l0.177,0.485l0.154,0.172l0.961,0.764l0.661,0.357l0.089,0.538l-0.514,1.191l-0.104,0.669l0.236,0.498l0.839,0.913l0.123,0.551
		l-0.095,0.28l-0.289,0.563l-0.075,0.317l0.011,0.439l0.032,0.227l-0.08,0.145l-0.321,0.187l-0.38,0.138l-0.073-0.133l-0.011-0.262
		l-0.202-0.246l-0.271-0.033l-0.336,0.082l-0.316,0.159l-0.207,0.199l-0.223,0.318l-0.275,0.313l-0.87,0.79l-0.148,0.092
		l-0.186,0.058l-0.111,0.072l-0.136,0.284l-0.104,0.108l-0.343,0.123l-0.121,0.101l-0.057,0.208l-0.029,0.252l-0.062,0.072h-0.107
		l-0.248,0.075l-0.555,0.169l-0.227,0.149l-0.586,0.752l-0.302,0.274l-0.688,0.479l-0.28,0.257l-0.23,0.336l-0.139,0.386
		l-0.002,0.408l0.072,0.193l0.193,0.3l0.052,0.18l0.013,0.184l0.063,0.362l0.066,0.169l0.03,0.286l-0.229,0.573l0.075,0.369
		l0.411,0.695l2.813,3.721l0.477,0.502l0.1,0.155l0.007,0.35l0.046,0.18l0.127,0.139l0.157,0.095l0.146,0.117l0.095,0.205
		l-0.03,0.15l-0.175,0.503l-0.064,0.124l-0.227,0.091l-0.139-0.064l-0.139-0.122l-0.22-0.083l-0.177,0.024l-0.141,0.061l-0.19,0.083
		l-0.17,0.015l-0.195-0.086l-0.136-0.14l-0.122-0.161l-0.154-0.146l-2.379-1.109l-0.391-0.328l-0.016-0.308l0.164-0.326l0.145-0.38
		l-0.102-0.156l-0.554-0.473l-0.204-0.247l-0.359-0.626l-0.221-0.246l-0.302-0.216l-0.6-0.282l-0.327-0.088l-0.311-0.019
		l-0.196,0.079l-0.288,0.316l-0.177,0.102l-0.218,0.013l-0.123-0.061l-0.105-0.096l-0.155-0.093l-0.471-0.1l-0.188,0.159
		l-0.148,0.333l-0.348,0.425l-0.268,0.154l-0.361,0.118l-0.361,0.034l-0.266-0.09l-1.155-0.054l-4.583,0.791l-1.182,0.537
		l-1.054,0.759l-0.662,0.93l-0.63,1.223l-0.379,0.553l-0.477,0.472l-0.473,0.249l-0.977,0.183l-0.466,0.186l-0.743,0.928
		l-0.445,0.772l-0.171,0.218l-0.229,0.095l-0.797,0.094l-0.271,0.11l-0.189,0.248l-0.172,0.458l-0.209,0.397l-0.286,0.147
		l-0.352-0.009l-0.398-0.071l-0.718,0.185l-0.468,0.649l-0.393,0.809l-0.507,0.653l-0.311,0.191l-1.325,0.439l-0.639,0.312
		l-0.318,0.103l-0.236-0.025l-0.136-0.014l-0.273-0.401l-0.318,0.054l-0.161,0.132l-0.241,0.369l-0.145,0.152l-0.17,0.079
		l-0.38,0.092l-0.152,0.081l-0.17,0.178l-0.064,0.143l-0.055,0.552l0.005,0.122l-0.021,0.131l-0.093,0.218l-0.179,0.293
		l-0.507,0.577l-0.268,0.219l-0.237,0.372l0.034,0.307l0.33,0.638l0.075,0.37l-0.032,0.286l-0.238,0.647l-0.118,0.605l-0.032,0.773
		l0.079,0.764l0.214,0.583l0.132,0.128l0.141,0.052l0.143,0.033l0.138,0.076l0.064,0.147l-0.082,0.143l-0.127,0.15l-0.07,0.163
		l0.17,1.294l0.234,0.206l0.618,0.201l0.218,0.231l0.02,0.404l-0.202,0.385l-0.541,0.67l-0.732,0.794l-0.284,0.194l-0.646,0.236
		l-0.197,0.181l-0.114,0.415l-0.014,0.374l0.35,1.982l0.032,0.433l-0.112,0.345l-0.154,0.107l-0.368,0.048l-0.166,0.066l-0.13,0.147
		l-1.552,2.299l-0.062,0.063l-0.182,0.103l-0.07,0.063l-0.009,0.101l0.139,0.179l-0.013,0.081l-0.164,0.084l-0.341,0.006
		l-0.15,0.064l-0.248,0.316l-0.443,0.728l-0.311,0.247l-0.322,0.097l-0.598,0.073l-0.33,0.124l-0.563,0.399l-0.158,0.169
		l-0.343,0.368l-0.389,0.627l-1,2.855l0.055,0.786l0.407,0.583l0.623,0.234l0.696,0.138l0.62,0.298l0.305,0.545l0.122,0.795
		l-0.091,0.808l-0.325,0.587l-0.28,0.387l-0.323,1.632l-0.271,0.502l-0.693,0.939l-0.1,0.565v0.34l-0.064,0.355l-0.138,0.326
		l-0.209,0.261l-0.238,0.144l-0.212,0.029l-0.214-0.003l-0.254,0.048l-0.145,0.303l-0.361,1.303l-0.209,0.439l-0.773,0.503
		l-0.204,0.201l-0.132,0.273l-0.238,0.966l-0.262,0.166l-0.198,0.163l-0.116,0.226l-0.043,0.767l-0.155,0.218l-0.211,0.151
		l-0.195,0.219l-0.007,0.114l0.059,0.33l-0.018,0.156l-0.122,0.155l-0.361,0.259l-0.129,0.16l-0.093,0.3l-0.054,0.639l-0.071,0.315
		l-0.843,2.01l-0.204,0.714l-0.064,0.681l-0.075,0.331l-0.18,0.216l-0.079,0.183l-0.091,0.727l-0.062,0.272l-0.784,1.067
		l-0.17,0.376l-0.025,0.375l0.025,0.413l-0.055,0.384l-0.052,0.058l-0.207,0.232l-0.297-0.019l-0.248-0.281l-0.246-0.352
		l-0.277-0.224l-0.988-0.548l-0.395-0.075l-0.596-0.15l-0.488-0.191l-0.504-0.119l-1.373,0.175l-0.361-0.178l-0.688-0.942
		l-0.552-0.193l-0.875-0.109l-0.83,0.041l-0.422,0.262l-0.041,0.15l-0.066,0.146l-0.084,0.125l-0.102,0.094l-0.168,0.044l-0.105-0.1
		l-0.091-0.133l-0.112-0.054l-0.288,0.104l-0.537,0.307l-0.361,0.031l-0.314-0.046l-0.132-0.17l-0.059-0.24l-0.111-0.258
		l-0.564-0.579l-0.173-0.221l-0.488-0.775l-0.341-0.197l-0.455,0.167l-0.216,0.304l-0.116,0.432l-0.007,0.102l-0.025,0.363
		l0.032,0.403l0.089,0.336l0.138,0.31l0.371,0.618l0.145,0.184l0.102,0.09l0.071,0.131l0.055,0.303l-0.016,0.674l0.286,2.195
		l0.545,0.375l0.104,0.197l0.236,0.338l0.075,0.197l0.036,0.623l-0.555,3.644l-0.007,0.526l0.105,1.1l0.032,0.212l-0.009,0.172
		l-0.061,0.16l-0.337,0.482l-0.109,0.307l-0.025,0.326l0.075,0.794l-0.139,1.268l0.005,0.293l0.038,0.227l-0.005,0.233l-0.718,1.455
		l-0.261,0.35l-0.336,0.295l-0.45,0.226l-0.454,0.027l-0.362-0.298l-0.232-0.366l-0.27-0.262l-0.336-0.086l-0.427,0.16l-0.213,0.339
		l-0.032,0.5l0.086,0.521l0.137,0.4l0.345,0.672l0.109,0.379l-0.032,0.347l-0.25,0.389l-0.618,0.739l-0.163,0.434l-0.061-0.029
		l-0.568,0.51l-0.15,1.496l0.054,0.393l0.138,0.357l0.389,0.691l0.105,0.367l-0.025,0.405l-0.188,0.738l0.016,0.436l0.18,0.616
		l0.143,0.302l0.616,0.661l0.214,0.765l0.145,2.189l-0.011,0.186l-0.08,0.233l-0.134,0.082l-0.17,0.029l-0.375,0.175l-0.086-0.013
		l-0.021,0.03l-0.007,0.23l0.322,0.581l-0.384,0.118l-0.262-0.116l-0.238-0.186l-0.312-0.099l-0.461-0.082l-0.162,0.012
		l-0.205,0.081l-0.037,0.106l0.027,0.138l-0.023,1.266l0.05,0.15l-0.311,0.13l-0.213,0.05l-0.168,0.136l-0.316,0.621l-0.032,0.245
		l0.054,0.25l0.112,0.24l0.052,0.127l0.029,0.133l0.005,0.132l-0.016,0.129l-0.032,0.043l-0.037,0.039l-0.118,0.068l-0.111,0.007
		l-0.105-0.051l-0.091-0.107l-0.223-0.329l-0.284-0.164l-0.255,0.084l-0.13,0.408l-0.162,0.534l-0.204,0.181l-0.18-0.177
		l-0.086-0.538l-0.141-0.536l-0.307-0.417l-1.114-1.075l-1.098-0.816l-0.42-0.119l-0.17,0.135l-0.05,0.246l0.062,0.528l-0.013,0.193
		l-0.077,0.048l-0.086-0.022l-0.043-0.017l-0.102,0.363l-0.002,0.275l0.039,0.261v0.256l-0.129,0.254l-0.191,0.108l-0.213,0.019
		l-0.213,0.066l-0.196,0.249l-0.102,0.114l-0.116,0.094l-0.128,0.073l-0.138,0.051l-0.013-0.168l-0.036-0.165l-0.227-1.229
		l-0.391-1.255l0.207-0.184l0.257,0.003l0.196-0.093l0.025-0.473l-1.004-6.103l-0.027-0.322l-0.221-0.584l-0.064-0.313l0.036-1.087
		l-0.121-1.442l-0.075-0.289l-0.188-0.283l-0.466-0.409l-0.202-0.28l-0.122-0.569l-0.15-1.458l-0.25-0.316l-0.573-0.234
		l-0.325-0.491l-0.132-0.633l0.014-1.306l-0.439-2.659l0.016-0.747l0.071-0.283l0.311-0.653l0.118-0.338l-0.011-0.191l-0.08-0.183
		l-0.089-0.312l-0.005-0.186l0.048-0.37l-0.016-0.172l-0.064-0.094l-0.229-0.18l-0.086-0.124l-0.023-0.13l0.027-0.261l-0.027-0.141
		l-0.096-0.163l-0.225-0.22L565,270.151l-0.08-0.278l-0.1-0.918l-0.661-2.149l-0.048-0.628l0.202-0.802l-0.034-0.331l-0.007-0.073
		l-0.355-0.196l-0.288,0.171l-0.22,0.871l-0.261,0.254l-0.234-0.325l-0.175-0.722l-0.343-0.529l-0.732,0.253l-0.28,0.319
		l-0.563,0.79l-0.298,0.263l-0.404,0.104l-0.268-0.139l-0.723-0.825l-0.216-0.352l-0.216-0.26l-0.241,0.011l-0.107,0.247
		l-0.036,0.407l0.027,0.72l0.455,2.182l-0.027,0.74l-0.391,0.664l-0.225,0.251l-0.277,0.202l-0.956,0.415l-0.279,0.244l-0.45,0.613
		l-0.502,0.881l-0.327,0.926l0.095,0.751l0.255,0.598l0.261,1.294l0.223,0.575l0.062,0.219l-0.073,0.171l-0.261,0.284l-0.043,0.007
		l-0.164-0.014l-0.057,0.003l-0.086,0.074l-0.007,0.088l0.013,0.088l-0.021,0.074l-0.289,0.442l-0.121,0.138l-0.291,0.267
		l-0.129,0.146l-0.213,0.136l-0.468,0.103l-0.234,0.086l-0.123,0.028l-0.121-0.027l-0.123-0.043l-0.121-0.023l-0.157,0.066
		l-0.08,0.154l-0.064,0.178l-0.102,0.138l-0.282,0.159l-0.054-0.064l0.002-0.186l-0.109-0.207l-0.236-0.116l-0.23-0.042
		l-0.229-0.087l-0.223-0.251l-0.073-0.195l-0.021-0.553l-0.045-0.07l-0.164-0.045l-0.048-0.061l-0.089-0.48l-0.398-1.374
		l-0.08-0.192l-0.118-0.579l-0.041-0.006l-0.255-0.253l-0.018-0.097l0.023-0.108l-0.005-0.127l-0.112-0.15l-0.005,0.017l-0.059,0.13
		l0.005,0.016l-0.145-0.276l-0.252-0.36l-0.332-0.264l-0.384,0.014l-0.193,0.27l-0.091,0.44l0.004,0.837l0.323,1.577l-0.064,0.619
		l-0.579-0.156l-0.413-0.563l-0.225-0.775l-0.402-3.026l-0.075-0.193l-0.093-0.152l-0.03-0.147l0.123-0.172l0.173-0.172l0.075-0.149
		l-0.057-0.111l-0.225-0.059l-0.221-0.17l-0.177-0.379l-0.232-0.8l-0.082-0.469l-0.041-0.143l-0.112-0.172l-0.302-0.189
		l-0.143-0.137l-0.159-0.309l-0.145-0.616l-0.132-0.334l-0.502-0.945l-0.079-0.328l0.059-0.454l0.218-0.029l0.245,0.019l0.152-0.306
		l-0.109-0.284l-0.286-0.106l-0.273-0.149l-0.073-0.411l0.162-0.363l0.273-0.096l0.329-0.029l0.318-0.163l0.177-0.31l0.346-1.031
		l0.05-0.356l-0.071-0.236l-0.195-0.439l-0.014-0.259l0.075-0.263l0.589-1.052l0.182-0.25l0.229-0.207l0.302-0.125l0.23,0.018
		l0.06,0.026l0.135,0.057l0.188,0.03l0.207-0.139l0.177-0.772l0.027-0.723l0.211-0.485l0.718-0.062l1.311,0.286l0.641,0.053
		l0.711-0.085l0.4-0.122l0.254-0.168l0.164-0.263l0.134-0.402l0.186-1.2l0.079-0.225l0.18,0.068l0.305,0.764l0.155,0.293
		l0.311,0.198l0.337,0.048l0.302-0.115l0.198-0.29l-0.011-0.329l-0.107-0.386l-0.048-0.358l0.171-0.252l1.1,0.24l0.18,0.009
		l0.046,0.125l0.029,0.426l0.041,0.169l0.527,0.527l0.35,0.09l0.218-0.141l0.125-0.332l0.373-1.612l0.016-0.374l-0.18-0.754
		l0.059-0.34l0.38-0.123l0.157,0.143l0.382,0.265l0.33,0.131l-0.014-0.258l-0.389-0.642l0.02-0.225l1.441,0.124l0.507-0.041
		l0.441-0.201l0.334-0.462l0.062-0.538l-0.091-1.157l0.086-0.362l0.213-0.211l0.266-0.159l0.197-0.161l0.055-0.045l0.18-0.278
		l0.091-0.287l0.078-0.648l0.164-0.739l0.879-2.478l0.047-0.295l0.007-0.296l-0.032-0.308l-0.002-0.004l-0.227-0.608l-0.001-0.003
		l-0.071-0.334l0.093-0.32l0.504-0.221l0.658,0.221l0.003,0.001l1.17,0.715l0.003,0.002l0.017,0.138l0.001,0.005l0.072,0.096
		l0.001,0.002l0.127,0.059l0.17,0.023l1.059-0.356l0.616-0.162l0.239-0.378l0.052-0.212l-0.055-0.332l-0.001-0.003l-0.129-0.301
		l-0.162-0.161l-0.002-0.001l-0.423-0.185l0.004-0.004l0.139-0.127l-0.004-0.005l-0.066-0.087l-0.004-0.002l-0.16-0.079
		l-0.001-0.001l-0.552-0.413l0-0.005l-0.003-0.058l-0.002-0.001l-0.005-0.002l-0.297-0.109l-0.134-0.036l0-0.002l-0.001-0.005
		l-0.034-0.178l-0.067-0.356l-0.429-0.259l-0.486-0.21l-0.277-0.393l-0.148-0.108l-0.898-0.124l-0.309-0.079l-0.234-0.104
		l-0.209-0.147l-0.241-0.211l-0.257-0.334l-0.113-0.101l-0.137-0.031l-0.238,0.073l-0.095-0.038l-0.12-0.09l-0.25-0.011
		l-0.138-0.047l-0.1-0.104l-0.171-0.271l-0.13-0.108l-0.464-0.187l-0.554-0.136l-0.557-0.025l-0.461,0.145l-0.325,0.107
		l-0.963-0.149l-1.847,0.234l-0.836-0.077l-0.263,0.036l-0.111,0.106l-0.104,0.231l-0.121,0.099l-0.154-0.047l-0.223-0.111
		l-0.198,0.007l-0.089,0.308l-0.177,0.178l-0.404,0.06l-0.441-0.021l-0.293-0.072l-0.277-0.229l-0.116-0.217l-0.127-0.147
		l-0.3-0.022l-0.148,0.066l-0.289,0.238l-0.204,0.051l-0.186,0.026l-0.348,0.112l-0.168,0.026l-0.677-0.077l-2.556-0.783
		l-0.834-0.438l-0.186,0.006l-0.377,0.196l-0.213,0.036l-0.959-0.034l-2.768,0.447l-0.548,0.198l-0.149,0.021l-1.95,0.269
		l-0.484-0.059l-0.252-0.125l-0.216-0.164l-0.223-0.134l-0.277-0.036l-0.091,0.048l-0.184,0.196l-0.098,0.058l-0.15,0.011
		l-0.641-0.11l-0.373-0.173l-0.196-0.062l-0.245-0.007l-0.693,0.179l-1.416-0.129l-1.756,0.378l-0.607-0.019l-1.343-0.574
		l-2.71-0.602l-3.835-1.63l-0.655,0.026l-0.615,0.251l-0.269-0.048l-0.202-0.373l-0.153-0.68l-0.061-0.652l0.073-0.549l0.025-0.191
		l0.136-0.51l0.253-0.95l0.032-1.443l0.161-1.347l-0.176-0.754l-0.392-0.97l-0.318-1.722l0.066-0.474l0.745-1.322l0.075-0.457
		l-0.138-0.11l-0.271-0.025l-0.323-0.199l0.337-0.117l0.243-0.202l0.053-0.263l-0.231-0.302l-0.02-0.02l-0.025-0.004l-0.029,0.006
		l-0.03,0.016l-0.003,0.002h-0.005l-0.118,0.124l-0.112,0.052l-0.105-0.039l-0.095-0.137l-0.13-0.252l-0.355-0.465l-0.097-0.176
		l-0.026-0.336l0.042-0.241l-0.022-0.238l-0.227-0.321l-0.138-0.262l-0.077-0.317l-0.101-0.286l-0.206-0.166l-0.154-0.012
		l-0.345,0.032l-0.127-0.019l-0.211-0.099l-0.041-0.04l0.025-0.079l0.01-0.42l0.01-0.398l-0.093-0.286l-0.313-0.061l-0.373,0.124
		l-0.12,0.161l0.036,0.584l0.118,0.223l-0.015,0.095l-0.353-0.107l-0.125,0.01l-0.118,0.06l-0.113,0.103l-0.184,0.349l0.114,0.241
		l0.283,0.138l0.319,0.042l-0.202,0.13l-0.254,0.129l-0.189,0.159l0.002,0.229l0.171,0.085l0.239-0.046l0.226,0.007l0.13,0.24
		l-0.146,0.326l-0.755,0.635l-0.146,0.523l0.02,0.26l-0.047,0.243l-0.128,0.176l-0.229,0.05l-0.177-0.095l-0.151-0.203l-0.244-0.431
		l-0.081-0.044l-0.087-0.027l-0.087-0.01l-0.937,0.081l-0.001,0.002l-0.089,0.033l-0.088,0.011l-0.084-0.011l-0.08-0.036
		l-0.263-0.392l-0.202,0.003l-0.207,0.19l-0.281,0.165l-0.279-0.033l-0.348-0.158l-0.315-0.219l-0.413-0.487l-0.611-0.281
		l-0.145-0.175l-0.107-0.373l-0.18-0.239l-0.255-0.168l-1.145-0.501l-0.214-0.248l-0.13-0.344l-0.144-1.168l-0.129-0.306
		l-0.346-0.578l-0.112-0.315l-0.01-0.518l0.198-0.026l0.25,0.118l0.151-0.081l-0.011-0.263l-0.124-0.139l-0.413-0.117l-0.287-0.124
		l-0.02-0.134l0.055-0.167l-0.08-0.231l-0.154-0.125l-0.38-0.1l-0.188-0.076l-0.157-0.135l-0.263-0.3l-0.194-0.1l-0.277-0.206
		l-0.158-0.161l-0.158-0.048l-0.284,0.141l-0.218,0.21l-0.216,0.323l-0.142,0.361l0.011,0.328l0.355,0.383l0.497,0.17l0.429,0.224
		l0.161,0.55l0.111,0.156l0.137,0.047l0.155-0.041l0.162-0.109l-0.062,0.413l0.125,0.126l0.206,0.007l0.187,0.059l0.093,0.359
		l-0.35,0.245l-0.763,0.195l-0.492-0.165l-0.763-0.771l-0.465-0.086l-0.348,0.236l-0.259,0.637l-0.273,0.105l-0.291-0.132
		l-0.164-0.274l-0.112-0.327l-0.138-0.296l-0.623-0.242l-1.461,0.541l-0.304-0.223l0.129-0.136l0.637-0.323l0.222-0.189l0.16-0.359
		l-0.044-0.238l-0.232-0.186l-0.396-0.201l-0.103-0.143l0.019-0.339l-0.129-0.061l-0.153-0.051l-0.041-0.133l0.036-0.167
		l0.075-0.156l-0.402-0.096l-0.184-0.086l-0.188-0.122l-0.137-0.18l-0.098-0.217l-0.116-0.189l-0.207-0.093l-0.366,0.006
		l-0.142-0.018l-0.396-0.169l-0.346-0.236l-0.141-0.14l-0.186-0.211l-0.216-0.178l-0.225-0.267l-0.275-0.13l-0.613-0.185
		l-0.227-0.262l-0.05-0.38l0.016-0.409l-0.027-0.357l-0.157-0.107l-0.22,0.231l-0.212,0.357l-0.129,0.279l-0.354,1.237l-0.225,0.382
		l-0.095,0.257l0.021,0.318l0.129,0.256l0.226,0.069l0.079-0.115l0.048-0.445l0.061-0.132l0.121-0.011l0.404,0.179l0.996,0.196
		l0.459,0.217l0.246,0.422l0.346,1.041l0.038,0.489l-0.384-0.06l-0.129,0.034l-0.172,0.02l-0.162-0.008l-0.114-0.052l-0.179-0.118
		l-0.098,0.083l-0.083,0.177l-0.128,0.164l-0.813,0.516l-0.261,0.24l-0.261,0.369l-0.063,0.281l0.028,0.702l-0.143,0.287
		l-0.304,0.189l-1.009,0.348l-0.354,0.077l-0.188,0.075l-0.12,0.123l-0.109,0.141l-0.151,0.13l-0.572,0.369l-0.141,0.231
		l-0.193,0.627l-0.054,0.104l-0.025,0.099l0.022,0.19l0.062,0.095l0.107,0.068l0.094,0.107l0.026,0.211l-0.119,0.368l-0.435,0.345
		l-0.334,0.643l-0.32,1.09l-0.093,0.14l-0.091,0.061l-0.052,0.089l0.132,0.851l0.12,0.292l-0.024,0.167v0.173l0.272,0.311
		l0.081,0.164l0.119,0.365l0.221,0.237l0.323-0.016l0.342-0.152l0.285-0.169l0.773-0.227l0.561,0.292l1.043,1.223l1.256,0.853
		l0.457,0.517l0.075,1.18l0.242,0.238l0.65,0.331l0.176,0.382l0.47,0.362l0.133,0.276l0.17,0.174l0.357,0.071l0.737,0.027
		l0.338,0.166l0.557,0.365l0.362,0.085l0.203-0.057l0.155-0.153l0.148-0.186l0.182-0.154l0.137-0.022l0.155,0.027l0.164,0.008
		l0.172-0.08l-0.011-0.336l0.525,0.207l0.149,0.13l0.21,0.253l0.22,0.197l0.157,0.25l0.024,0.409l-0.294,0.679l0.005,0.117
		l0.186,0.137l0.05,0.16l0.013,0.185l0.074,0.206l0.409,0.513l0.122,0.108l0.177,0.047l0.362,0.024l0.103,0.084l0.289,0.299
		l0.408,0.056l0.844-0.041l0.128,0.156l0.038,0.182l-0.045,0.192l-0.121,0.185l-0.649,0.479l-0.15,0.205l-0.019,0.258l0.048,0.254
		l-0.05,0.189l-0.315,0.068l0.251,0.406l-0.441-0.028l-1.182-0.42l-0.114-0.067l-0.112-0.038l-0.138,0.03l-0.114,0.136l-0.176,0.411
		l-0.14,0.107l-1.031-0.105l-1.036-0.39l-0.524-0.103l-0.607-0.017l-0.155,0.057l-0.214,0.242l-0.121,0.081l-0.196,0.047
		l-0.081-0.007l-0.08-0.038l-0.464-0.127l-0.541-0.216l-0.284-0.076l-0.589,0.103l-0.17,0.319l0.047,1.076l-0.145,1.252
		l-0.202,0.563l-0.399,0.504l-0.054,0.502l-0.211,0.441l-0.601,0.79l-0.314,0.561l-0.158,0.121l-0.29-0.026l-0.725-0.195
		l-0.209-0.012l-0.015-0.346l-0.156-0.372l-0.243-0.322l-0.282-0.193l-0.336-0.032l-0.32,0.112l-0.857,0.471v0.084l0.094,0.1
		l0.079,0.164l0.227,0.66l0.05,0.36l-0.168,0.244l-0.239,0.238l-0.166,0.346l-0.224-0.038l-0.113,0.133l-0.05,0.231l-0.023,0.258
		l-0.121,0.176l-0.22,0.038l-0.191,0.08l-0.082,0.833l-0.225,0.331l-0.143,0.344l-0.093,0.573l0.33,0.098l0.282,0.12l0.173,0.389
		l0.252,0.262l0.054,0.114v0.991l0.018,0.095l0.069,0.071l0.152,0.2l0.158,0.276l0.035,0.133l0.498,0.109l4.536,2.388l1.281,1.023
		l0.396,0.085l1.119,0.052l0.853,0.291l0.381-0.024l0.259-0.403l0.184-0.434l0.374,0.083l0.566,0.35l0.397,0.537l0.095,0.75
		l0.033,0.079l0.044,0.311l0.04,0.07l-0.059,0.174l-0.2,0.297l-0.055,0.162l-0.003,0.001l-0.269,0.13l-0.382,0.144l-0.173,0.166
		l-0.098,0.232l0.004,0.182l0.081,0.385l-0.021,0.22l-0.111,0.394l-0.022,0.174l0.085,0.216l0.325,0.283l0.053,0.239l0.416,0.1
		l0.008,0.179l-0.201,0.269l-0.212,0.367l0.117,0.222l0.104,0.362l0.048,0.402l-0.052,0.34l-0.168,0.216l-0.656,0.647l-0.231,0.184
		l-0.331,0.069l-0.359-0.032l-0.338,0.017l-0.276,0.222l-0.056,0.18l0.019,0.171l0.038,0.169l-0.002,0.172l-0.089,0.22l-0.254,0.401
		l-0.086,0.202l-0.004,0.181l0.125,0.286l0.025,0.175l-0.364,1.718l0.025,0.211l0.163,0.082l0.178,0.037l0.088,0.071l-0.034,0.236
		l-0.057,0.143l0.011,0.124l0.168,0.183l0.175,0.076l0.341-0.038l0.138,0.029l0.259,0.282l0.404,0.731l0.291,0.316l0.506,0.349
		l0.188,0.087l0.255,0.51l0.216-0.085l0.204-0.315l0.227-0.179l0.23,0.188l-0.039,0.406l-0.84,2.24l-0.419,0.672l-0.157,0.363
		l0.012,0.408l0.172,0.362l0.232,0.209l1.135,0.368l0.181,0.002l0.138-0.065l0.117-0.109l0.148-0.1l0.227-0.036l0.293,0.059
		l1.21,0.421l0.146,0.072l0.154,0.039l0.471-0.017l0.099,0.089l-0.003,0.155l-0.088,0.2l-0.153,0.178l-0.463,0.385l-0.939,1.007
		l-0.233,0.472l-0.045,0.963l-0.161,0.534l-0.011,0.367l0.069,0.211l0.328,0.416l0.18,0.293l0.368,0.884l0.202,0.248l0.483,0.156
		l0.197,0.19l0.039,0.253l-0.029,0.364l-0.068,0.364l-0.075,0.25l-0.184,0.287l-0.195,0.237l-0.118,0.255l0.042,0.341l0.206,0.541
		l0.059,0.241l0.071,0.416l0.214,0.396l0.167,0.479l0.076,0.504l-0.105,0.43l-0.386,0.259l0.537,0.212l0.206,0.166l0.155,0.692
		l0.318,0.742l0.072,0.435l-0.03,0.147l-0.148,0.246l-0.047,0.192l0.002,0.183l0.206,0.995l0.094,0.229l0.287,0.497l-0.249,0.172
		l0.164,0.391l0.754,0.992l0.146,0.312l0.095,0.369l0.034,0.451l-0.302,0.38l-0.005,0.012l-0.001-0.014l-0.287-0.127l0.084,0.269
		l-0.051,0.203l-0.1,0.208l-0.052,0.285l0.055,0.3l0.242,0.483l0.058,0.231l0.142,1.195l-0.082,0.534l-0.415,0.249l-0.238-0.111
		l-0.174,0.031l-0.086,0.165l0.025,0.297l-0.286-0.15l-0.562-0.403l-0.273-0.083l-0.118-0.185l-0.056-0.384l-0.101-0.322h-0.256
		l-0.153,0.319l0.1,0.428l0.229,0.375l0.238,0.161l0.243,0.07l0.283,0.171l0.477,0.383l0.346,0.574l0.26,1.543l0.221,0.69
		l0.072,0.099l0.346,0.351l0.257,0.575l0.042,0.065l0.052,0.762l-0.096,0.305l-0.319,0.151l-0.19-0.011l-0.148-0.069l-0.101-0.11
		l-0.034-0.138l-0.051-0.118l-0.11,0.161l-0.103,0.238l-0.032,0.106l-0.337,0.05l-0.423-0.232l-0.724-0.521l-0.637-0.115
		l-0.093-0.063l-0.096-0.154l-0.077-0.19l-0.165-1.432l-0.104-0.332h-0.128l-0.051,0.335l-0.245,0.606l-0.058,0.266l0.082,0.331
		l0.292,0.587l-0.021,0.298l-0.249,0.266l-0.35,0.092l-0.314-0.104l-0.138-0.322l0.293-0.254l0.062-0.07l0.003-0.153l-0.032-0.171
		l-0.1-0.31l-0.103,0.369l-0.077,0.186l-0.108,0.079l-0.176,0.031l-0.086,0.089l-0.034,0.142l-0.004,0.188l0.084,0.357l0.16,0.286
		l0.097,0.268l-0.105,0.3l-0.485,0.231l-0.598-0.075l-0.352-0.342l0.253-0.574l-0.591-1.281l-0.053-0.355l0.323-2.11l-0.097-0.277
		l-0.06-0.267l0.349-1.08l0.039-1.008l0.09-0.264l0.19-0.206l0.236-0.185l0.198-0.23l0.082-0.332l-0.145-0.378l-0.65-0.382
		l-0.148-0.264l0.11-0.275l0.264-0.31l0.568-0.503l-0.331,0.023l-0.299,0.152l-0.249,0.226l-0.181,0.246l-0.118,0.267l-0.034,0.292
		l0.114,0.236l0.329,0.096l0.211,0.203l-0.128,0.449l-0.374,0.691l-0.056,0.25l-0.146,0.309l-0.194,0.173l-0.203-0.155l-0.186,0.074
		l-0.236,0.003l-0.203-0.085l-0.084-0.187l0.025-0.277l0.073-0.175l0.253-0.381l0.124-0.331l-0.016-0.257l-0.066-0.265l-0.065-0.542
		l-0.096-0.412v-0.229l0.302-0.775l0.294-0.205l0.158-0.427l-0.055-0.363l-0.342-0.011l0.017,0.113l-0.089,0.293l-0.11,0.264
		l-0.058,0.024l-0.035,0.103l-0.162,0.323l-0.07,0.357l-0.152,0.182l-0.051,0.121l-0.014,0.122l0.028,0.46l0.096,0.355l0.008,0.209
		l-0.097,0.337l-0.308,0.439l-0.067,0.3l0.028,0.803l-0.032,0.333l-0.541,1.462l-0.042,0.344l0.014,1.138l-0.014,0.081l0.288-0.049
		l0.395-0.173l0.343,0.014l0.152,0.52l-0.045,0.341l-0.118,0.4l-0.186,0.238l-0.242-0.147h-0.118l0.135,1.267l-0.079,0.467
		l-0.292-0.21v0.962l-0.101,0.255l-0.231,0.044l-0.245-0.119l-0.143-0.243l-0.107,0.199l-0.011,0.205l0.083,0.194l0.165,0.164
		l-0.536,0.175l-0.329-0.189l-0.103-0.404l0.132-0.47l0.112-0.139l0.115-0.094l0.09-0.119l0.037-0.219l0.008-0.256l0.038-0.237
		l0.072-0.2l0.115-0.144l-0.347-1.017l-0.08-0.543l0.135-0.407l0.349-0.594l-0.032-0.536l-0.262-0.497l-0.35-0.482l0.329-0.736
		l0.006-0.391l-0.335-0.272l0.073,0.338l-0.129,0.217l-0.193,0.226l-0.117,0.365l0.045,0.345l0.259,0.645l0.062,0.344l-0.037,0.251
		l-0.09,0.028l-0.118-0.028l-0.121,0.078l-0.107,0.441l-0.183,0.342l-0.074,0.318l-0.021,0.353l0.045,0.324l0.239,0.525l0.062,0.258
		l-0.068,0.359l-0.207,0.371l-0.249,0.146l-0.273,0.095l-0.284,0.219l-0.287-0.018l-0.164-0.579l-0.013-0.742l0.169-0.506
		l-0.207,0.044l-0.279,0.172l-0.152,0.037l-0.165-0.068l-0.096-0.165l-0.073-0.209l-0.09-0.192l-0.084,0.148l-0.028,0.181
		l0.046,0.191l0.316,0.381l0.065,0.179l-0.011,0.198l-0.058,0.256l-0.173,0.386l-0.236,0.188l-0.208-0.084l-0.091-0.433
		l-0.042-2.078l-0.066-0.352l-0.145-0.3l-0.288-0.329l-0.2-0.014l0.045,0.435l0.54,1.836l0.028,0.422l-0.045,0.206l-0.177,0.401
		l-0.014,0.224l0.073,0.166l0.225,0.203l0.066,0.139l0.024,0.189l-0.036,0.054l-0.101,0.042l-0.186,0.154l-0.141,0.058l-0.222,0.024
		l-0.203-0.015l-0.089-0.067l-0.058-0.401l-0.146-0.405l-0.226-0.21l-0.278,0.187l-0.325-0.722l-0.131-0.436l-0.017-0.367
		l0.164-0.356l0.225-0.377l0.121-0.426l-0.156-0.503l0.143-0.265l-0.103-0.313l-0.859-1.539l0.041-0.182l0.052-0.155l-0.219-0.988
		l0.055-0.32l0.11-0.27l0.139-0.228l0.734-0.937l0.27-0.458l-0.167-0.412l-0.162-0.965l-0.093-0.299l-0.565-0.321l-0.81-0.283
		l-0.641-0.32l-0.069-0.431l-0.304,0.204l-0.281,0.088l-0.284-0.058l-0.311-0.235l-0.414-0.476l-0.215-0.322l-0.09-0.286
		l-0.056-0.388l-0.233-0.69l-0.055-0.33l-0.024-0.394l-0.099-0.338l-0.215-0.209l-0.37-0.01v0.115l0.281,0.389l0.224,0.796
		l0.203,1.448l0.091,0.284l0.216,0.329l0.46,0.54l0.285,0.205l0.293,0.074l0.553,0.038l0.658,0.143l0.641,0.225l0.491,0.421
		l0.217,0.74l-0.159,0.505l-0.409,0.553l-0.509,0.471l-0.457,0.264l-0.624-0.001l-0.094,0.064l0.035,0.2l0.066,0.207l0.031,0.194
		l-0.067,0.168l-0.25,0.351l-0.842,1.918l-0.228,0.329l-0.219,0.141l-0.169,0.066l-0.674,0.495l-0.118,0.037l-0.052,0.037
		l-0.061,0.102l-0.016,0.198l-0.032,0.083l-0.444,0.438l-0.574,0.4l-1.353,0.699l-0.897,0.673l-0.345,0.1l-0.721-0.036l-0.358,0.027
		l-2.488,0.688l-0.149,0.041l-1.103,0.46l-1.091,0.451l-0.835,0.163l-0.646-0.155l-0.176,0.1l-0.186,0.039l-0.411-0.002
		l-0.181,0.048l-1.519,0.818l-0.852,0.612l-2.524,2.74l-0.876,1.323l-0.513,1.508l0.117,1.713l1.869,4.314l0.233,0.797l-0.204,0.469
		l-0.304-0.128l-0.342-0.01l-0.652,0.138l0.183,0.298l0.368,0.149l0.804,0.059l0.394-0.043l0.114,0.068l0.143,0.238l0.089,0.198
		l0.031,0.171l-0.053,0.145l-0.174,0.127l-0.222-0.119l-0.252-0.04l-0.224,0.07l-0.139,0.204l0.202,0.018l0.16,0.036l0.127,0.072
		l0.1,0.125l0.128-0.018l0.083,0.018l0.065,0.081l0.08,0.171l0.423-0.178l0.242-0.181l0.17-0.144l-0.271,0.338l-0.413,0.418
		l-0.473,0.354l-0.917,0.298l-2.575,2.026l-0.392,0.42l-0.304,0.497l-0.16,0.558l-0.072,1.17l0.371-0.204l0.249-0.262l0.232-0.128
		l0.328,0.195l-0.008-0.234l0.027-0.219l0.11-0.417l0.236,0.41l-0.27,0.681l-0.447,0.64l-0.291,0.284l-0.211,0.071l-0.337,0.168
		l-0.312,0.209l-0.138,0.181l0.138,0.171l0.312-0.13l0.603-0.418l-0.643,0.507l-1.543,0.952l-0.766,0.314l-0.858,0.223l-0.392,0.16
		l-0.283,0.246l-0.082,0.184l-0.2,0.823l-0.178,0.369l-0.024,0.269l-0.9,1.073l-0.408,0.296l0.091,0.189l0.128,0.135l0.172,0.07
		l0.211-0.006l-0.502,0.3l-0.844-0.478l-1.261-1.076l-0.762,0.046l-0.383-0.032l-0.163-0.208l-0.065-0.043l-0.397-0.403
		l-0.079-0.202l-0.093-0.398l-0.076-0.153h-0.107l-0.129,0.389l0.16,0.589l0.076,0.165l0.156,0.149l0.346,0.171l0.449,0.391
		l0.285,0.131l0.662,0.163l0.084,0.005l0.194-0.024l0.076,0.02l0.072,0.092l0.016,0.105l0.001,0.097l0.03,0.07l0.121,0.138
		l0.09,0.129l0.118,0.096l0.203,0.037l0.257,0.091l0.257,0.174l0.276,0.1l-1.794,1.004l-2.713,1.004l-0.389,0.211l-0.184,0.012
		l-0.201-0.155l-0.174-0.09l-0.174,0.08l-0.149,0.133l-0.101,0.07l-0.321,0.045l-2.154,0.663l-0.734,0.131l-0.652,0.413
		l-0.342,0.141l-0.186,0.019l-0.582-0.019l-0.173,0.038l-0.337,0.173l-0.523,0.119l-1.042,0.535l0.03-0.079l0.173-0.069l0.034-0.092
		l-0.409,0.068l-1.125,0.685l-1.187,0.446l-0.409,0.055l-0.12-0.062l-0.041-0.146l-0.013-0.293l-0.063-0.034l-0.108,0.02
		l-0.111-0.007l-0.072-0.105l0.013-0.122l0.08-0.015l0.09,0.004l0.042-0.061l0.2-0.152l0.461-0.139l0.768-0.279l0.062,0.093
		l-0.036,0.098l-0.079,0.131l-0.068,0.192l0.758-0.495l0.305-0.142l-0.153-0.091l-0.076-0.112l0.016-0.137l0.107-0.161l-0.055-0.339
		l0.055-1.543l-0.228-0.113l-0.728-0.138l-0.66-0.215l-0.229-0.034l-0.405,0.123l-0.412,0.302l-0.721,0.771l-0.949,0.811
		l-0.266,0.018l-0.24,0.05l-0.211,0.08l-0.173,0.102l-0.367,0.319l-0.447,0.489l-0.304,0.528l0.055,0.431l-0.287,0.235l-0.256,0.625
		l-0.166,0.204l-0.266,0.226l-0.173,0.31l-0.014,0.308l0.208,0.22v0.137l-0.211,0.059l-0.281,0.148l-0.242,0.184l-0.104,0.172
		l0.028,0.27l0.073,0.148l0.117-0.013l0.148-0.218l0.081,0.181l0.025,0.198l-0.027,0.197l-0.08,0.177l0.202-0.06l0.104-0.101
		l0.069-0.116l0.097-0.098l0.191-0.085l0.15-0.018l0.128,0.003l0.121-0.025l0.299-0.21l-0.017-0.182l-0.097-0.209l0.051-0.286
		l0.122,0.112l0.142,0.013l0.158-0.049l0.166-0.076l-0.509-0.301l-0.186-0.063v-0.126l0.343-0.006l0.186-0.167l0.155-0.207
		l0.259-0.131v-0.114l-0.098-0.038l-0.079-0.065l-0.051-0.094l-0.02-0.126l0.053-0.051l0.198-0.327l-0.004-0.061l0.228,0.008
		l0.835,0.254l0.717-0.65l0.228-0.007l0.183,0.061l0.15-0.025l0.145-0.267l0.134,0.211l0.069,0.144l0.031,0.172l0.006,0.293
		l-0.053,0.036l-0.233,0.105l-0.07,0.042l-0.042,0.09l-0.031,0.211l-0.042,0.086l-0.164,0.125l-0.278,0.159l-0.269,0.061
		l-0.115-0.163l-0.063-0.254l-0.139-0.013l-0.127,0.166l-0.034,0.284l-0.097-0.045l-0.167-0.038l-0.093-0.031l0.243,0.268
		l0.058,0.119l-0.051,0.114l0.478-0.046l4.25-2.095l-0.626,0.386l-1.329,0.707l-1.437,0.683l-0.752,0.342l-0.886,0.713l-0.775,0.334
		l-1.039,0.789l-1.917,1.885l-1.273,0.894l-2.139,1.893l-1.401,1.816l-0.229,0.08l-0.045,0.016l-0.186-0.149l-0.238-0.273
		l-0.205-0.17l-0.089,0.155l-0.042,0.189l-0.177,0.267l-0.017,0.231l0.049,0.103l0.217,0.234l0.089,0.174l0.283-0.438l0.072-0.073
		l0.118-0.003l0.128,0.024l0.083,0.062l-0.03,0.111l-0.47,0.678l-0.174,0.471l-0.719,0.926l-0.344,0.581l-0.25,0.285l-0.591,0.263
		l-1.434,2.184l-0.104,0.371l-1.617,1.736l-0.191,0.326l-0.079,0.312l-0.155,0.168l-0.92,0.641l-0.363,0.574l-0.287,0.294
		l-0.356,0.128l-0.103,0.055l-0.307,0.254l-0.118,0.076l-0.156,0.023l-0.392,0.001l-0.053-0.025l-0.16,0.267l0.202,0.169
		l0.374,0.027l0.461-0.294l0.492-0.385l0.411-0.283l-0.323,0.26l-0.748,0.599l-0.827,0.82l-0.166,0.265l-0.728,0.514l-0.239,0.331
		l-0.374,0.296l-0.155,0.16l-0.086,0.194l-0.042,0.193l-0.063,0.185l-0.152,0.175l-0.189,0.647l-0.617,0.487l-5.223,2.4
		l-2.786,1.717l-0.547,0.473l-0.105,0.17l-0.231,0.484l-0.077,0.101l-0.029,0.074l-0.307,0.312l-0.077,0.054l-0.143,0.196
		l-0.683,0.466l-0.236,0.262h-0.127l-0.046-0.109l-0.19-0.262l-0.051,0.291l0.059,0.375l0.01,0.322l-0.377,0.259l-0.101,0.284
		l-0.131,0.588l-0.266,0.394l-1.055,1.217l-0.384,0.258l-0.101,0.037l-0.153,0.162l-0.1,0.038l-0.101-0.018l-0.055-0.038
		l-0.037-0.038l-0.048-0.018l-0.042-0.053l-0.034-0.121l-0.068-0.129l-0.141-0.08l-0.368,0.022l-0.084,0.176l0.125,0.202
		l0.392,0.131l0.354,0.193l0.105,0.085l0.008,0.154l-0.17,0.121l-0.363,0.164l-0.226,0.19l-0.142,0.071l-0.588-0.013l0.363,0.493
		l0.087,0.268l-0.277,0.117l-0.236,0.051l-0.226,0.125l-0.428,0.308l-1.437,0.527l-0.605,0.439l-0.577,0.282l-0.405,0.316
		l-0.356,0.358l-0.108,0.065l-0.29,0.075l-0.127,0.052l-0.841,0.612l-0.141-0.015l-0.093-0.216l-0.245,0.146l-0.257,0.203
		l-0.287,0.182l-0.713,0.176l-0.661,0.432l-0.685,0.191l-4.21,2.582l-0.397,0.426l-0.291,0.518l-0.211,0.25l-0.607,0.236
		l-0.299,0.305l-0.489,0.667l-0.525,0.48l-0.214,0.294l-0.132,0.577l-0.674,1.251l-0.034,0.385l0.076,0.407l0.221,0.322l0.526,0.163
		l0.09,0.077l0.079,0.084l0.105,0.053l0.093-0.011l0.131-0.04l0.107-0.048l0.022-0.035l0.301,0.157l0.18-0.247l-0.022-0.583
		l-0.065-0.606l-0.148-0.571l0.212,0.37l0.093,0.495l0.016,0.873l-0.032,0.879l-0.233,0.908l-0.105,0.996l-0.135,0.5l-0.413,0.906
		l-0.032,0.15l0.025,0.124l-0.017,0.087l-0.153,0.031l-0.08-0.066l-0.096-0.28l-0.12-0.046l-0.103,0.132l0.079,0.258l0.183,0.279
		l0.195,0.203l-0.835,0.258l-0.961,0.952l-0.263,0.155l-0.263,0.057l-0.866,0.424l-0.557,0.407l-0.381,0.189l-0.54-0.061
		l-0.253,0.215l-0.257,0.291l-0.262,0.201l-0.19,0.01l-0.238-0.019l-0.203,0.031l-0.141,0.281l-0.126,0.057l-0.706,0.046
		l-0.335,0.075l-0.326,0.113l-1.356,0.663l-0.35,0.288l-0.783,0.187h-0.104l-0.269-0.049l-0.331-0.224l-0.357-0.18l-0.343,0.083
		l-0.267-0.122l-0.621-0.047l-0.291-0.077l0.1-0.215l-0.081-0.166l-0.211-0.098l-0.29-0.012l0.153,0.384l-0.226,0.042l-0.693-0.191
		l-0.354,0.037l-1.014,0.333l0.077-0.195l0.086-0.139l0.037-0.125l-0.072-0.144l-0.219-0.159l-0.215-0.002l-0.207,0.105
		l-0.194,0.167l-0.278-0.123l-0.249,0.013l-0.236,0.069l-0.245,0.041l-0.999,0.626l-0.191,0.226l0.022,0.164l0.107,0.166
		l0.062,0.237l-0.094,0.312l-0.412,0.499l-0.204,0.794l-0.488,1.09l-0.177,0.938l-0.312,0.533l-0.103,0.334l-0.01,0.953
		l-0.098,0.285l-0.253,0.056l-0.81,0.814l-0.776,0.487l-0.284,0.238l-0.484,0.613l-0.008,0.216l0.079,0.169l0.101,0.134l0.065,0.105
		l0.115,0.351l-0.003,0.148l-0.112,0.114l-0.135-0.013l-0.153-0.104l-0.131-0.124l-0.16-0.219l-0.51-0.439l-0.152-0.092
		l-0.329-0.101l-0.201-0.253l-0.098-0.334l-0.028-0.351l0.129-1.349l-0.021-0.316l-0.051-0.294l-0.165-0.562l-0.073,0.182
		l0.073,0.186l-0.129,0.123l-0.056-0.089l-0.051-0.05l-0.129-0.107l0.276,0.704l0.077,0.759l-0.097,0.733l-0.595,1.303l-0.44,1.348
		l-0.176,0.372l-0.224,0.189l0.021-1.572l-0.097-0.691l-0.46-0.751l-0.277-0.156l-0.411-0.083l-0.793-0.056l-0.138-0.046
		l-0.107-0.07l-0.105-0.009l-0.122,0.126l-0.046,0.121l0.042,0.083l-0.768,0.03l-0.316,0.098l-0.273,0.174l-0.228,0.069l-0.18-0.218
		h-0.118l-0.211,0.23l-0.273,0.2l-0.588,0.317l-0.159,0.051l-0.122,0.009l-0.112,0.023l-0.132,0.09l-0.276,0.274l-0.159,0.11
		l-0.742,0.202l-0.582,0.381l-1.382,1.349l-0.284,0.469l-0.755,1.922l-0.035,0.346l-0.278,0.536l-0.065,0.273l0.235,0.115
		l-0.186,0.26l-0.287,0.535l-0.19,0.251l-0.562,0.572l-0.233,0.327l-0.096,0.324l-0.53,1.167l0.034,0.149l-0.176,1.656l-0.508,1.996
		l0.027,1.404l0.121,0.706l0.205,0.584l-0.007,0.384l0.556,2.801l0.052,0.885l0.044,0.171l0.108,0.118l0.194,0.173l0.409,0.28
		l0.138,0.181l0.112,0.616l0.125,0.208l0.084,0.192l-0.044,0.229l-0.108,0.127l-0.152,0.108l-0.329,0.153l0.127,0.111l0.176-0.013
		l0.413-0.096l0.119-0.002l0.117,0.111l-0.016,0.107l-0.063,0.104l-0.038,0.1l-0.034,0.391l-0.212,1.017l0.048,1.416l-0.065,0.8
		l-0.269,0.353l-0.387,0.978l-0.153,0.239l-0.523,0.04l-0.186,0.071l-0.266,0.322l-0.03,0.054l-0.26,0.136l-0.145,0.267l0.069,0.187
		l0.395-0.102l0.302-0.265l0.27-0.308l0.25-0.142l0.25,0.228l-0.211,0.636l0.042,0.802l0.412,2.152l0.246,0.708l1.266,2.64
		l0.21,0.701l-0.066,0.795l-0.312,0.624l-0.111,0.419l0.117,0.354l0.179,0.299l0.363,1.218l0.502,1.149l0.371,0.849l0.072,0.683
		h-0.118l-0.503-1.273l-0.558-1.408l-0.833-0.922l-0.236-0.633l-0.537-0.707l-0.184-0.178l-0.001,1.42l-0.107,0.534l-0.248-0.145
		l-0.062-0.206l0.062-0.443l-0.059-0.191l-0.138-0.111l-0.156-0.098l-0.118-0.151l-0.007,0.417l-0.039,0.217l-0.273,0.191
		l-0.389,0.521l0.06,0.425l0.225,0.369l0.55,0.663l0.186,0.454l0.127,0.193l0.215,0.08l0.367,0.035l0.395,0.087l0.757,0.027
		l0.138,0.039l0.128,0.133l0.143,0.105l0.173,0.062l0.117,0.004l0.098,0.004l-0.06,0.302l0.214,0.2l0.318,0.193l0.238,0.286
		l0.093-0.18l0.025-0.072l0.229-0.056l0.121,0.308l0.173,0.668l0.066,0.468l-0.039,0.494l-0.16,0.893l-0.036,0.498l-0.18-0.071
		l-0.068-0.04l-0.031,0.324l-0.074,0.282l0.077-0.035l0.276-0.074l-0.024,0.409l-0.148,0.315l-0.18,0.285l-0.12,0.323l0.004,0.185
		l0.114,0.53l-0.1,0.173l-0.315,0.342l-0.068,0.162l-0.053,0.678l-0.236,1.279l-0.101,2.161l-0.198,1.291l-0.312,0.913l-0.086,0.638
		l-0.113,0.266l-0.316,0.493l-0.128,0.326l-0.197,0.825l-0.029,0.359l-0.063,0.251l-0.409,1.028l-0.601,1.021l-0.073,0.281
		l-0.364,0.685l-0.152,0.199l-0.405,0.24l-0.068,0.058l-0.041,0.052l-0.548,0.968l-0.356,0.362l-0.915,0.462l-0.143,0.214
		l0.16,0.076l0.357-0.156l0.541-0.342l-0.994,1.558l-0.242,0.263l-0.105,0.157l-0.527,1.08l-0.464,0.554l-0.143,0.272l-0.023,0.186
		l0.023,0.593l-0.038,0.093l-0.16,0.24l-0.014,0.072l-0.079,0.385l-0.426,0.964l-0.295,1.458l-0.181,0.141l-0.118,0.333
		l-0.325,1.686l-0.063,0.695l-0.16,0.658l-0.038,0.353l0.093,0.721l0.405,1.252l0.09,0.686h0.121l0.076-0.153l0.031-0.129
		l-0.027-0.108l-0.08-0.092l0.283,0.038l0.127,0.146l0.091,0.917l-0.045,0.169l-0.156,0.046h-0.477l-0.115-0.026l-0.117-0.01
		l-0.181,0.045l-0.155,0.083l-0.163,0.128l-0.969,0.956l-0.139,0.277h0.118l0.228-0.123l0.79-0.567l0.171-0.087l0.127-0.314
		l0.295-0.082l0.354,0.07l0.464,0.218l0.107,0.01l0.053,0.073l0.034,1.377l0.352,1.832l-0.053,2.692l-0.096,0.478l-0.104,0.523
		l0.115,2.472l0.044,0.958l0.007,2.868l0.162,0.715l0.072,3.035l-0.122,1.501l-0.093,0.194l-0.294,0.061l-0.34,0.111l-0.338,0.056
		l-0.285-0.108l0.025-0.373l-0.397-0.219l-2.142-0.343l-0.205,0.078l-0.124,0.257l0.281-0.017l0.278,0.015l0.264,0.045l0.25,0.076
		l0.144,0.07l0.174,0.124l0.155,0.046h0.47l0.487,0.12l0.255,0.15l-0.021,0.21l-0.219,0.061l-3.105-0.661l-0.287-0.021l-0.118-0.027
		l-0.068-0.072l-0.017-0.186l0.089-0.049l0.143,0.006l0.151-0.021l0.52-0.213l0.053-0.122l-0.349-0.135l-0.332,0.137l-0.676-0.043
		l0.063,0.146v0.12l-0.359,0.116l-0.894,0.146l-0.388-0.022l-0.437-0.201l-0.239-0.064l-0.218,0.079l-0.375,0.32l-1.017,0.593
		l-0.325,0.269l-0.241,0.323l-0.034,0.195l0.007,0.242l-0.025,0.206l-0.125,0.087l-0.236,0.064l-0.143,0.166l-0.063,0.232
		l0.02,0.257l0.118,1.176l0.17,0.538l0.43,0.323l-0.662,0.443l-0.698,0.707l-1.011,1.388l-0.354,0.718l-0.308,0.353l-0.046,0.071
		l-0.117,0.417l-0.281,0.353l-0.674,0.613l-1.003,1.403l-0.017,0.15l0.007,0.167l-0.051,0.196l-0.077,0.116l-0.186,0.15
		l-0.091,0.091l-0.16,0.257l-0.159,0.336l-0.118,0.386l-0.107,0.842l-0.208,0.689l0.035,0.372l0.314,0.641l0.454,0.552l1.385,1.231
		l0.602,0.259l0.706,0.151l2.353,0.048l0.381-0.143l0.404-0.279l0.396-0.187l0.363,0.13l0.08,0.163l-0.055,0.132l-0.101,0.15
		l-0.052,0.214l0.035,0.186l0.084,0.117l0.08,0.088l0.037,0.098l0.107,0.164l0.249,0.233l1.215,0.897l0.266,0.303l-0.231,0.134
		l-0.281-0.135l-1.088-0.952l-1.18-0.645l-1.042-0.133l-0.267-0.167l-0.276,0.016l-0.293-0.093l-0.324-0.043l-0.621,0.313
		l-0.532-0.016l-0.198,0.06l-0.456-0.189l-0.606-0.16l-0.636-0.079l-0.555,0.06l-0.135,0.076l-0.346,0.292l-0.181,0.038
		l-0.124-0.009l-0.118-0.025l-0.155-0.004l-0.596,0.085l-0.298,0.088l-0.494,0.272l-0.658,0.158L331.031,527l-0.166,0.16
		l-0.194,0.136l-0.224,0.094l-0.89,0.058l-0.259,0.122l-0.107,0.273l-0.107,0.177l-0.245,0.12l-0.276,0.071l-2.298,0.275
		l-0.621,0.144l-0.652,0.293l-0.599,0.392l-2.379,1.958l-0.383,0.466l-0.602,1.082l-0.084,0.28l-0.059,1.166l-0.07,0.394
		l-0.139,0.322l0.232-0.182l0.224-0.027l0.203-0.074l0.169-0.325l0.086,0.399l-0.183,0.212l-0.312,0.147l-0.299,0.198l-0.076,0.125
		l-0.17,0.483l-0.25,0.319l-0.065,0.188l0.101,0.209h-0.484l0.361,0.561l0.118,0.572l-0.243,1.836l-0.086,0.184l-0.15,0.199
		l-0.474,0.448l-0.127,0.149l-0.295,1.026l-0.118,0.166l-0.295,0.049l-0.675,0.279l-3.346,2.03l-0.219,0.233l-0.435,0.59
		l-0.274,0.135l-1.877,0.316l-0.84,0.292l-0.591,0.426l0.073,0.56l-0.939,0.114l-1.057-0.2l-2.318-0.703l-0.121-0.055l-0.241-0.281
		l-0.136-0.113l-0.412-0.26l-0.415-0.117l-0.236-0.162l-1.668-1.526l-0.318-0.234l-1.979-1.448l-0.575-0.639l-1.424-2.027
		l-0.927-0.858l-0.221-0.55l-1.245-1.455l-0.18-0.41l-0.616-0.557l-0.61-1.048l-0.273-0.336l-1.485-1.254l-0.253-0.382l0.072-0.205
		l0.19-0.018l0.245,0.364l0.309-0.065l0.323-0.172l0.186-0.131l-0.231-0.006l-0.233,0.083l-0.211,0.02l-0.16-0.205l0.029-0.192
		l0.144-0.241l0.19-0.207l0.173-0.088l0.938,0.12l0.056-0.061l-0.151-0.13l-0.202-0.125l-0.105-0.043l0.132-0.078l0.252-0.065
		l0.207-0.083v-0.132l-0.183-0.058l-0.239,0.049l-0.207,0.097l-0.093,0.085l-0.105,0.181l-0.245-0.04l-0.409-0.195l-0.103,0.112
		l-0.189,0.54l-0.126,0.196l-0.129-0.25l0.121-0.117l0.059-0.104l0.068-0.268l-0.273,0.173l-0.187,0.207l-0.076,0.258l0.063,0.327
		l-0.173-0.137l-0.114-0.251l-0.062-0.282l-0.018-0.231l-0.052-0.201l-0.236-0.352l-0.189-0.582l-0.498-1.039l0.034-0.409
		l0.036,0.102l0.037,0.062l0.028,0.077l0.014,0.14h0.129l-0.006-0.256l0.112-0.71l-0.163,0.132l-0.041,0.072l-0.032,0.154h-0.115
		l-0.329-1.064l-0.262-0.581l-0.236-0.029l0.025,0.187l0.532,1.343l0.034,0.253h-0.107l-1.375-3.151l-0.885-2.939l-0.359-2.457
		l0.105-0.442l-0.342-2.645l-0.418-1.306l-0.111-0.176l-0.113-0.801l-0.067-0.233l0.262-0.183l0.312,0.213l0.262,0.394l0.11,0.35
		l-0.093,0.074l-0.405-0.126l-0.093,0.052l0.014,0.224l0.051,0.195l0.108,0.152l0.181,0.093l0.021-0.108l0.097-0.251l0.084,0.246
		l-0.014,0.279l-0.066,0.228l-0.063,0.094l0.156-0.017l0.176-0.07l0.082-0.148l-0.131-0.254l0.198-0.156l0.09,0.321l0.433,2.839
		h0.127l0.02-0.481l-0.169-1.094l0.149-0.471l-0.384-0.527l-0.068-0.271l0.218-0.16l0.082,0.255l0.27,0.463l0.107,0.24l0.032,0.215
		l-0.042,0.387l0.01,0.237l0.152,0.925l0.158,0.352l0.292,0.29l-0.028,0.282l-0.101,0.227l-0.128,0.212l-0.108,0.235l-0.339,1.56
		l0.072,0.257l0.333,0.109l0.848,0.161l0.16-0.041l0.413,0.181l0.312-0.113l0.453-0.547l-0.326-0.154l-0.308-0.221l-0.312-0.123
		l-0.35,0.141l-0.19-0.105l-0.177-0.134l0.219-0.44l-0.001-0.356l-0.079-0.38l-0.009-0.815l-0.079-0.308l-0.128-0.181l-0.148,0.076
		l-0.034-0.188l0.046-0.319l-0.013-0.211l-0.056-0.171l-0.151-0.311l-0.03-0.182l0.063-0.308l0.125-0.168l0.09-0.183l-0.042-0.354
		l-0.146-0.328l-0.377-0.662l-0.079-0.284l-0.664-0.665l-0.16-0.239l-0.298,0.274l-0.278-0.467l-0.153-0.673l0.08-0.343
		l-0.326-0.208l-0.172-0.957l-0.152-0.022l-0.149-0.107l-0.083-0.141l-0.131-0.362l-0.135,0.371l0.104,0.321l0.172,0.294
		l0.096,0.284l0.034,0.703l0.07,0.364l0.132,0.309l-0.25-0.219l-0.235-0.43l-0.557-1.425l-0.021-0.272l0.065-0.257l-0.006-0.16
		l-0.118-0.183l-0.004-0.269l0.806-0.461l0.211-0.234l0.017-0.118l0.076-0.122l0.017-0.124l-0.042-0.139l-0.101,0.018l-0.114,0.064
		l-0.086-0.003l-0.163-0.33l-0.122-0.169l-0.198-0.101l0.225,0.598l0.028,0.326l-0.135,0.287l-0.304,0.181l-0.233-0.077
		l-0.174-0.219l-0.126-0.244l-0.259-0.718l-0.304-1.449l-0.25-0.722l-0.623-0.846l-0.086-0.299l-0.031-0.357l-0.188-0.77
		l-0.135-0.269l-0.447-0.424l-0.184-0.24l-0.145-0.676l-1.046-2.119l-0.076-0.321l-0.045-0.117l-0.09-0.119l-0.084-0.138
		l-0.017-0.178l0.052-0.088l0.215-0.176l0.087-0.097l-0.526-0.229l-0.287-0.713l-0.249-1.459l-0.818-2.908l-1.552-3.74l-0.089-0.165
		l-0.072-0.1l-0.049-0.115l-0.027-0.21l0.177-0.125l0.051-0.141l-0.12-0.226l-0.231,0.071l-0.19-0.252l-0.277-0.674l-0.312-0.531
		l-0.212-0.221l-0.253-0.09l-0.346-0.017l-0.235-0.086l-0.132-0.199l-0.045-0.359l-0.094-0.319l-0.328-0.466l0.059-0.24
		l-0.942-2.299l-0.426-0.592l-2.184-2.431l-0.124,0.004l-0.29,0.125l-0.056-0.069l-0.055-0.184l-0.429-0.479l-0.292-0.584
		l0.326-0.065l1.274,0.276v-0.11l-0.236-0.153l-0.065-0.183l0.055-0.226l0.128-0.292l-0.228,0.109l-0.326,0.308l-0.211,0.065
		l-0.301-0.034l-0.27-0.108l-0.239-0.184l-0.205-0.266l-0.2-0.391l0.039-0.131l0.581,0.04l0.26-0.076l-0.083-0.177l-0.335-0.338
		l-0.024-0.024l-0.689,0.527l-0.066,0.275l0.28,0.536l-0.537-0.627l-0.11-0.096l-0.104-0.037l-0.087-0.081l-0.065-0.076
		l-0.039-0.047l-0.099,0.017l-0.101,0.072l-0.062,0.088l0.025,0.065l-0.256-0.246l-0.128-0.341l-0.1-0.631l-0.634-1.485
		l-0.224-0.822l0.152-0.6v-0.121l-0.224,0.049l-0.122,0.121l-0.098,0.156l-0.146,0.158l0.011-0.22l-0.024-0.219l-0.105-0.406
		l-0.273-0.652l-1.114-1.926l-0.128-0.372l-0.018-0.142l-0.058-0.1l-0.125-0.096l-0.127-0.121l-0.056-0.171l-0.059-0.354
		l-0.149-0.277l-0.371-0.535l-1.306-3.333l-0.164-0.308l-0.249-0.293l-0.025-0.104l0.008-0.385l-0.042-0.182l-0.143-0.19
		l-0.156-0.138l-0.127-0.156l-0.046-0.24l0.457,0.225l0.133,0.016l0.135-0.096l0.245-0.32l0.151-0.068l0.195-0.027l0.283-0.084
		l0.266-0.147l0.139-0.216l-0.797,0.132l-0.764,0.248l-0.571-0.081l-0.817-3.381l0.226-0.572l-0.16-0.155l-0.084-0.109l-0.108-0.341
		l-0.018-0.432l-0.037-0.214l-0.118-0.092l-0.072-0.186l-0.19-0.897l-0.076-0.735l-0.316-1.212l-0.136-0.308l-0.191-0.312
		l-0.115-0.277l0.089-0.205l-0.122-0.306l-0.072-0.577l-0.042-0.452l0.17,0.518l0.051,0.424l0.252,0.04l-0.11-0.13l0.008-0.395
		l-0.017-0.333l-0.421-1.162l0.016-0.398l-0.114-0.974l0.036-0.269l-0.062-0.052l-0.034-0.056l-0.014-0.061l-0.008-0.074
		l0.107,0.069l0.073-0.025l0.045-0.109l0.021-0.187h0.108l0.166,0.116l0.228-0.002l0.239-0.089l0.204-0.146l-0.26,0.027
		l-0.132-0.069l-0.198-0.312l-0.227-0.217l0.011-0.088l0.215-0.069l-0.236-0.303l-0.203,0.191l-0.269,0.729l-0.233-0.57l-0.414-1.46
		l-0.146-1.092l-0.322-0.64l-0.207-0.577l-0.574-0.741l-0.249-0.434l-0.547-0.719l-0.162-0.362l-0.01-0.18l0.025-0.37l-0.015-0.178
		l-0.069-0.162l-0.211-0.267l-0.074-0.179l-0.03-0.998l-0.098-0.351l-0.496-0.69l-0.167-0.362l0.074-0.409l0.236,0.167l0.415,0.094
		l0.413,0.022l0.242-0.051l-0.155-0.136l-1.1-0.387l-0.149-0.074l-0.214-0.308l-0.048-0.779l-0.156-0.324l-0.114-0.174l-0.045-0.217
		l-0.003-0.462l-0.041-0.147l-0.089-0.093l-0.089-0.125l-0.127-0.643l-0.353-0.675l-0.034-0.449l0.262,0.319l0.18,0.495l0.197,0.391
		l0.318,0.013l-0.166-0.24l0.06-0.077l0.46,0.062l-0.731-0.854l-0.225-0.109l0.039-0.063l0.042-0.129l0.036-0.064l-0.188-0.092
		l-0.073,0.01l-0.093,0.081l-0.056-0.223l0.006-0.095l0.051-0.158l-0.273,0.135l-0.034,0.223l0.034,0.256l-0.068,0.23l-0.245,0.121
		l-0.26-0.039l-0.16-0.142l0.052-0.183l-0.132-0.488l-0.013-0.398l0.211-0.26l0.547-0.073v-0.122l-0.262-0.104l-0.201,0.056
		l-0.193,0.11l-0.242,0.06l-0.194-0.076l-0.135-0.174l-0.021-0.203l0.162-0.157l-0.121-0.337l-0.104-0.763l-0.177-0.31l-0.326-0.27
		l-0.235-0.072l-0.202,0.112l-0.249,0.286l-0.236-0.471l-0.118-0.139l-0.076-0.017l-0.202,0.034l-0.076-0.017l-0.118-0.213
		l-0.011-0.031l-0.596-0.299l-0.257-0.233l-0.089-0.323l0.308,0.157l0.084-0.103l0.004-0.224l0.076-0.195l0.174-0.1l0.202-0.023
		l0.191,0.065l0.138,0.169l0.176-0.336l0.16-0.211l0.202-0.122l0.299-0.063l0.174,0.023l0.152,0.047l0.107-0.033l0.037-0.214
		l-0.077-0.064l-0.17-0.035l-0.167-0.095l-0.055-0.241l-0.181,0.178l-0.541,0.256l-0.115,0.121l-0.094,0.137l-0.228,0.169
		l-0.274,0.122l-0.228-0.006l-0.152-0.192l-0.205-0.549l-0.174-0.114l-0.068-0.079l-0.712-0.41l-0.098-0.249l0.013-0.26l0.086-0.534
		l-0.081-0.28l-0.191-0.116l-0.231-0.055l-0.191-0.104l-0.394-0.826l-0.149-0.139l-0.886-0.256l0.163-0.518l0.111-0.228l0.139-0.176
		l0.367-0.227l0.067-0.16l-0.139-0.291l-0.118,0.133l-0.967-3.267l-0.15-0.216l-0.226-0.077l-0.364-0.01l-0.363-0.091l-0.294-0.222
		l-0.475-0.543l0.976,0.069l0.156-0.008l0.202-0.06l0.204,0.108l0.225,0.069l0.253-0.177l0.584,0.224l0.207,0.174l0.152,0.348
		l0.076-0.016l0.055-0.019l0.044-0.035l0.062-0.064l-0.135-0.124l-0.397-0.549l-0.163-0.109l-0.72-0.319l-0.117-0.01l-0.243,0.026
		l-0.113-0.016l-0.076-0.055l-0.127-0.158l-0.091-0.032l-0.612-0.06l-0.169,0.06l-0.021-0.213l0.091-0.255l0.145-0.233l0.15-0.155
		l0.183-0.085l0.762-0.171l-0.158-0.097l-0.062-0.086l0.017-0.085l0.094-0.099v-0.111l-1.202,0.667l-0.173,0.147l-0.347-0.091
		l-0.26-0.285l0.084-0.439l-0.257-0.401l-0.076-0.211l-0.03-0.256l0.034-0.225l0.08-0.102l0.084-0.075l0.037-0.15l0.202-0.274
		l0.465-0.175l0.878-0.224v-0.123l-0.641-0.013l-0.297,0.049l-0.125,0.148l-0.145,0.071l-0.605,0.392l-0.086,0.099l-0.173-0.136
		l-0.194-0.297l-0.158-0.343l-0.124-0.556l-0.084-0.188l0.015-0.158l0.243-0.181l-0.19-0.023l-0.302-0.036l-0.283-0.068
		l-0.169-0.118l-0.046-0.219l0.046-0.773l-0.128-0.45l-0.591-1.143l-0.295-0.396l-1.012-0.831l-0.326-0.331l-0.331-0.465
		l-0.063-0.373l0.495-0.057v-0.134l-0.288,0.009l-0.266-0.07l-0.197-0.146l-0.076-0.218l-0.056-0.057l-0.126-0.045l-0.124-0.085
		l-0.058-0.18l0.103-0.094l0.079-0.097l0.055-0.122v-1.049l0.046-0.268l0.118-0.168l0.156-0.15l0.15-0.218l-0.397,0.127
		l-0.211,0.283l-0.083,0.419l-0.017,0.534l-0.118-0.871v-0.726l-0.086-0.279l-0.076-0.016l-0.084,0.064l-0.108-0.028l-0.105-0.13
		l-0.055-0.117l-0.075-0.366l-0.474-1.475L238,400.609l0.015-0.342l-0.052-0.06l-0.301-0.13l0.02-0.236l0.087-0.157l0.149-0.114
		l0.205-0.107l-0.302-0.127l-0.266-0.171l-0.186-0.251l-0.127-0.65l-0.256-0.749l-0.093-0.154l-0.138-0.079l-0.049-0.187
		l0.013-0.406l0.062-0.137l0.132,0.101l0.121,0.164l0.027,0.063l0.354,0.386l0.202,0.075l0.396,0.021l-0.159-0.057l-0.124-0.072
		l-0.105-0.095l-0.093-0.134l0.061-0.09l0.184-0.202l0.108-0.088l-0.298-0.007l-0.304-0.108l-0.236-0.19l-0.096-0.255l-0.02-0.145
		l-0.025-0.021l0.025-0.011l0.128-0.115l0.061-0.012l0.54-0.244l0.003,0.302l0.08,0.128l0.097-0.04l0.045-0.201l-0.083-0.323
		l-0.211-0.119l-0.266,0.054l-0.266,0.198l-0.195-0.434l-0.028-0.121l0.034-0.125l0.155-0.225l0.035-0.149l-0.032-0.241
		l-0.087-0.134l-0.281-0.24l-0.186-0.487l0.098-0.502l0.159-0.46l-0.013-0.354l-0.118,0.135l-0.177-0.275l-0.207-0.505l-0.091-0.484
		l0.176-0.217l-0.008-0.077l-0.167-0.673l0.02-0.286l0.076-0.246l0.25-0.455l-0.467-0.237l-0.135-0.176l0.141-0.213l-0.198-0.246
		l0.004-0.185l0.129-0.03l0.18,0.225l0.138-0.416l-0.028-0.432l-0.143-0.412l-0.212-0.355l0.118-0.252l-0.024-0.282l-0.094-0.265
		l-0.328-0.615l-0.003-0.387l-0.311-0.59l-0.055-0.281l-0.063-0.115l-0.312-0.342l-0.105-0.216l0.284,0.131l0.236,0.215l0.243,0.137
		l0.308-0.101l-0.247-0.316l-0.473-0.931l-0.197-0.283l-0.439-0.368l-0.07-0.225l-0.021-0.197l0.204-0.247l0.143-0.276l-0.208-0.281
		l0.126-0.367l-0.262-0.466l-0.585-0.652l-0.098-0.311l0.034-0.147l0.146-0.046l0.225-0.002l0.242-0.04l0.644-0.308l-0.256-0.109
		l-0.55-0.056l-0.257-0.094l-0.19-0.195l-0.118-0.269l-0.018-0.283l0.101-0.243l-0.125-0.146l-0.145-0.222l-0.087-0.239l0.046-0.197
		l0.159-0.208l0.101-0.219l0.001-0.226l-0.143-0.225l-0.089-0.183l-0.056-0.495l-0.091-0.196l-0.274-0.315l-0.104-0.199l-0.098-0.59
		l-0.148-0.386l-0.806-1.332l-0.025-0.37l0.316-0.359l-0.285-0.012l-0.177-0.14l-0.059-0.22l0.062-0.247l0.186-0.18l0.224-0.095
		l0.169-0.143l0.021-0.327l-0.198,0.055l-0.16,0.113l-0.131,0.155l-0.11,0.184l-0.132-0.237l-0.239-0.263l-0.11-0.254l0.038-0.021
		l0.061-0.109l0.025-0.151l-0.061-0.149l-0.108-0.14l-0.039-0.123l-0.152-1.407l-0.215-0.392l-0.482-0.117l0.143-0.379l0.082-0.118
		l-0.089-0.12l-0.027-0.158l0.031-0.177l0.084-0.177l0.228,0.086l0.076,0.122l0.03,0.159l0.091,0.198l0.141,0.187l0.07,0.038
		l0.096-0.03l0.222-0.016l0.299,0.035l0.345,0.096l0.321,0.189l0.217,0.312l-0.274,0.167v0.225l0.17,0.058l0.243-0.336l0.042-0.366
		l-0.15-0.607l0.108-0.281l-0.252-0.144l-0.242-0.026l-0.527,0.058l-0.304-0.08l-0.302-0.209l-0.162-0.283l0.117-0.309l-0.277-0.01
		l-0.136-0.088l-0.298-0.4l-0.098-0.048l-0.093,0.017l-0.09,0.004l-0.081-0.087l-0.048-0.126l0.006-0.081l0.025-0.088l0.017-0.151
		l-0.042-0.247l-0.101-0.169l-0.122-0.16l-0.1-0.22l-0.031-0.217l0.031-0.721l0.074-0.403l0.198-0.375l0.301-0.22l0.382,0.059
		l0.247,0.268l0.503,0.87l0.321,0.354l0.107-0.354l-0.183-0.184l-0.27-0.18l-0.135-0.345l-0.053-0.278l-0.129-0.308l-0.174-0.249
		l-0.174-0.104l-0.502,0.1l-0.19-0.075l-0.076-0.331l-0.408-1.064l-0.305-0.245l-0.159-0.588l-0.062-0.703l0.011-0.917l0.079-0.297
		l0.149-0.241l0.235-0.146l0.136,0.006l0.259,0.137l0.183-0.009l0.247-0.487l0.208,0.177l0.619,0.684l-0.146,0.33l0.056,0.264
		l0.191,0.186l0.25,0.105l-0.122-0.417l0.063-0.466l0.186-0.403l0.239-0.222l-0.489-0.207l-0.115-0.142l-0.112-0.285l0.022-0.111
		l0.063-0.163l0.034-0.149l-0.068-0.064l-0.097,0.013l-0.09,0.039l-0.066,0.058l-0.025,0.07l-0.269,0.125l-0.516-0.223l-0.336-0.438
		l0.273-0.53l0.267,0.222l0.113-0.172l0.038-0.486l0.215-0.074l0.245,0.064l0.239-0.008l0.191-0.292h-0.599v-0.125l0.253-0.025
		l0.411-0.181l0.866-0.242l0.077,0.01l0.176-0.368l-0.294-0.04l-0.482,0.148l-0.408,0.198l-0.082-0.216l0.073-0.484l-0.118-0.173
		l0.188-0.381l-0.107-0.13l-0.205-0.078l-0.113-0.228l0.129-1.318h-0.129l-0.298,0.643l-0.25,0.235l-0.028,0.635l-0.121,0.246
		l0.284,0.214l-0.158,0.385l-0.74,0.773v-0.175l-0.107-0.448l-0.276,0.264l-0.315,0.444l-0.256,0.512l-0.149,0.745l-0.11,0.275
		l-0.152,0.107l-0.169-0.226l-0.013-0.195l0.058-0.192l0.035-0.216l-0.08-0.27h-0.118l-0.062,0.116l-0.07,0.086l-0.222,0.183
		l-0.087-0.213l0.098-0.21l0.343-0.461l0.113-0.269l0.044-0.208l-0.038-0.533l0.177,0.085l0.07,0.052l0.082-0.17l0.042-0.211
		l-0.051-0.176l-0.202-0.067l0.214-0.554l0.02-0.208l-0.035-0.196l-0.16-0.332l-0.038-0.164l0.045-0.135l0.177-0.184l0.011-0.101
		l-0.087-0.112l-0.118-0.003l-0.104,0.068l-0.097,0.273l-0.128,0.118l-0.125,0.001l-0.058-0.17l0.031-0.165l0.33-0.786l0.3-0.531
		l0.177-0.216l-0.259-0.022l-0.225,0.289l-0.219,0.375l-0.242,0.232l-0.055-1.107l0.059-0.62l0.169-0.273l0.932-0.095l0.478,0.042
		l0.319,0.38l0.26,0.097l0.515,0.077l0.28-0.06l0.228-0.091l0.224,0.021l0.27,0.267l0.384,1.003l0.278,0.344l0.398-0.223
		l-0.339-0.183l-0.035-0.299l0.02-0.279l-0.17-0.123l-0.118-0.117l-0.184-0.258l-0.242-0.259l-0.291-0.116l-0.937,0.067
		l-0.308-0.067l-0.266-0.171l-0.488-0.423l-0.318-0.156l-0.318,0.326l-0.284-0.031l-0.25-0.243l-0.418-0.641l-0.063-0.161
		l-0.2-1.012l-0.024-0.435l0.131-0.253l0.256-0.16l1.9-0.768l-0.388-0.164l-0.359,0.085l-0.346,0.15l-0.346,0.031l-0.139-0.063
		l-0.114-0.116l-0.073-0.165l-0.028-0.213l-0.082-0.164l-0.184-0.127l-0.312-0.142h-0.128l0.065,0.193l0.042,0.175l-0.017,0.148
		l-0.09,0.111l0.255,0.227l0.097,0.132l0.013,0.141l-0.111,0.124l-0.132-0.063l-0.329-0.372l-0.202-0.941l0.125-0.35l-0.145-0.794
		l-0.396-1.373l0.128,0.084l0.101,0.111l0.08,0.14l0.055,0.167l0.322-0.153v-0.173l-0.135-0.233l-0.079-0.329l0.056-0.105
		l0.122-0.021l0.12-0.035l0.056-0.148l-0.008-0.17l-0.023-0.143l-0.077-0.255l-0.66,0.82l-0.211,0.044l-0.037-0.323l0.07-0.667
		l-0.121-0.226l-0.394-0.536l-0.016-0.184l0.173-0.265l0.087-0.278l0.034-0.643l-0.059-0.464l0.042-0.205l0.194-0.084l0.136-0.12
		l0.176-0.281l0.153-0.337l0.076-0.278v-1.073l0.044-0.217l0.311-0.857l0.108-0.811l0.053-0.198l0.253-0.359l0.058-0.21
		l-0.035-0.056l-0.079-0.002l-0.08-0.02l-0.042-0.104v-0.378l0.018-0.041l0.09-0.6l0.145-0.288l0.194-0.295l0.167-0.334l0.07-0.409
		l0.09,0.001l0.197-0.131l0.21-0.175l0.117-0.131l0.065-0.188l0.039-0.566l0.11-0.389l0.183-0.383l0.676-0.991l0.127-0.353
		l0.067-0.39l0.018-0.414l-0.014-0.22l-0.076-0.395l-0.017-0.198l0.055-0.171l0.245-0.248l0.055-0.21l0.063-0.838l-0.025-0.363
		l-0.156-0.256l0.714-0.504l0.112-0.001l-0.031-0.195l-0.149-0.116l-0.172-0.087l-0.121-0.119l-0.006-0.151l0.065-0.131l0.036-0.147
		l-0.096-0.202l-0.332,0.414l-0.25-0.147l-0.097-0.421l0.143-0.408l0.207-0.299l-0.114-0.036l-0.218,0.081l-0.101,0.059
		l-0.664,0.493l0.155-0.295l0.145-0.654l0.184-0.187l-0.488-0.604l0.342-0.334l0.519-0.261l0.034-0.38l-0.215,0.023l-0.384,0.119
		l-0.364,0.048l-0.166-0.19l-0.031-0.166l-0.09-0.137l-0.134-0.092l-0.156-0.035l-0.202-0.02l-0.097-0.06l-0.173-0.254l-0.089-0.272
		l0.295-0.035l0.676,0.122l0.378-0.083l0.084-0.179l-0.586-1.361l-0.11-0.158l-0.173,0.023l-0.759,0.357l-0.049-0.077l-0.111-0.086
		l-0.076-0.091l-0.075,0.108l-0.035,0.123l-0.018,0.338l-0.076,0.086l-0.515,0.242l0.094-0.585l0.255-0.433l0.141-0.341
		l-0.253-0.297l-0.129,0.119l-0.343-0.008l-0.177,0.084l-0.065,0.146l-0.014,0.21l0.02,0.404l-0.031,0.237l-0.084,0.044
		l-0.132-0.004l-0.36,0.226l-0.142-0.047l-0.253-0.332l0.008-0.259l0.257-0.299l1.091-0.787l0.315-0.289l0.16-0.088l0.233-0.002
		l-0.188-0.189l-0.622-0.21l-0.135-0.158l-0.115-0.187l-0.239-0.104l-0.214-0.165l-0.021-0.367l-0.356,0.26l-0.117,0.119
		l-0.212-0.254l-0.07-0.205l-0.072-0.555l-0.16-0.453l-0.032-0.171l0.065-0.136l0.219-0.078l0.61-0.082l0.125-0.104l-0.122-0.157
		l-0.264,0.018l-0.506,0.139l-0.263-0.078l-0.194-0.174l-0.052-0.174l0.158-0.079l1.06-0.322l0.652-0.384l0.062-0.065l0.896-0.634
		l0.325,0.24l0.096-0.199l-0.07-0.298l-0.177-0.06l-0.951,0.317l-0.315,0.159l-0.908,0.656l-0.498,0.082l0.107-0.285l0.515-1.014
		l0.267-0.222l0.276-0.143l0.675-0.625l0.239-0.144l0.395-0.088l0.421-0.222l0.381-0.286l0.274-0.279l0.368-0.735l0.219-0.165
		l0.189-0.01l0.427,0.128l0.222,0.02l0.312-0.074l0.793-0.331l0.515-0.38l0.987-0.368l1.08-0.579l0.401-0.068l0.152-0.073
		l0.173-0.177l0.087-0.205l-0.101-0.168l-0.127,0.039l-0.602,0.341l-0.645,0.243l-0.097,0.059l-0.321,0.263l-0.173,0.059
		l-0.363,0.082l-0.713,0.359l-0.402,0.078l-0.762-0.15l-0.426-0.036l-0.308,0.123l-0.366,0.248l-0.364,0.028l-0.734-0.213
		l-0.387-0.047l-0.981,0.174l-0.405-0.045l-0.312-0.076l-0.326-0.015l-0.787,0.278l-0.349,0.07l-0.27-0.116l-0.107-0.413
		l0.062-0.348l0.312-0.709l0.107-0.416l0.111-1.212l0.072-0.185l0.321-0.177l0.231-0.412l0.339-0.822l0.27-0.23l0.312-0.067
		l0.657,0.042l0.211-0.164l0.077-0.346l0.125-0.314l0.354-0.067v-0.14l-0.141-0.032l-0.113-0.011l-0.107,0.01l-0.103,0.033
		l-0.118,0.096l-0.059,0.127l-0.032,0.116l-0.036,0.067l-1.218,0.106l-0.198,0.207l-0.153,0.222l-0.361,0.287l-0.401,0.24
		l-0.274,0.083l-0.162-0.177l-0.454-0.782l-0.093-0.255l0.049-0.339l0.228-0.707l0.077-0.413l-0.013-0.221l-0.034-0.212v-0.203
		l0.182-0.355l0.058-0.206l0.044-0.41l0.108-0.302l0.263-0.372l0.312-0.333l0.26-0.196l0.408-0.125l0.352,0.025l0.309,0.15
		l0.298,0.251l0.212,0.137l0.169-0.007l0.139-0.056l0.139-0.015l0.201,0.067l0.17,0.089l0.328,0.25l0.726-0.992l0.381-0.315
		l0.607-0.118l0.305,0.13l0.277,0.244l0.278,0.138l0.325-0.188l0.105-0.251l0.01-0.337l-0.09-0.315l-0.202-0.186l-0.105,0.228
		l-0.235,0.127h-0.287l-0.263-0.157l-0.27-0.107l-0.353,0.059l-0.338,0.147l-0.229,0.162l-0.498,0.246l-0.519-0.097l-1.16-0.466
		h-0.224l-0.194,0.043l-0.177,0.004l-0.318-0.232l-0.177-0.058l-0.391-0.024l-0.357,0.108l-0.551,0.548l-0.336,0.237l-0.392,0.131
		l-0.222,0.015l-0.158-0.077l-0.038-0.16l0.21-0.197l-0.053-0.152l-0.262-0.053l-0.284,0.205l-0.321,0.178l-0.378-0.134
		l-0.097-0.243l-0.09-0.438l-0.011-0.419l0.135-0.185l0.29-0.198l0.053-0.383l-0.187-0.249l-0.447,0.203l-0.179,0.233l-0.197,0.357
		l-0.158,0.395l-0.067,0.344l-0.143,0.45l-0.332,0.065l-0.359-0.076l-0.228,0.018l-0.207-0.299l0.048-0.205l-0.022-0.147
		l-0.419-0.125l-0.294-0.023l-0.257,0.051l-0.131,0.168l0.093,0.328l-0.769-0.131l-0.225,0.057l0.298,0.328l0.426,0.169l0.321-0.152
		l0.538-0.538l0.098,0.236l-0.051,0.18l-0.101,0.18l-0.055,0.238l0.086,0.087l0.505,0.227l0.66-0.052l0.186,0.834l-0.166,1.975
		l-0.166,0.323l-0.041,0.196l-0.068-0.042l-0.143,0.183l-0.126,0.223l-0.017,0.077l-0.302,0.287l-0.144,0.072l-0.208,0.023
		l-0.283-0.073l-0.077,0.059l-0.037,0.256h-0.139l-0.111-0.241l-0.081,0.062l-0.069,0.186l-0.083,0.132l-0.068,0.071l-0.162,0.132
		l-0.167,0.046l-0.073-0.185l-0.129-0.2l-0.301-0.2l-0.354-0.111l-0.29,0.066l0.385,0.25l0.152,0.188l-0.056,0.209l-0.172,0.055
		l-0.664-0.193l0.104,0.118l0.38,0.264l0.006,0.144l-0.048,0.12l-0.101,0.038l-0.152-0.101l-0.245-0.113l-0.312,0.018l-0.29,0.111
		l-0.169,0.164l1.018,0.356l0.292,0.037l0.65-0.136l0.249-0.016l-0.193,0.152v0.127l0.239,0.116l-0.118,0.126l0.301,0.138
		l-0.042,0.211l-0.126,0.246l0.045,0.243l0.118,0.214l-0.131,0.041l-0.536-0.132l-0.131-0.139l-0.207-0.3l-0.222-0.198l-0.36-0.259
		l-0.34-0.08l-0.149,0.341l0.062,0.073l0.149,0.064l0.177,0.043l0.148,0.017l0.105,0.079l0.312,0.556l-0.307,0.102l-0.413-0.077
		l-1.014-0.435l-0.118,0.052l-0.046,0.287l-0.008,0.508l0.034,0.236l0.093,0.216l0.068-0.094l0.073-0.049l0.211-0.1l-0.006,0.122
		l0.014,0.251l-0.008,0.123l0.572-0.21l0.328-0.058l0.233,0.079l0.273,0.173l0.246-0.026l0.839-0.323l0.087,0.055l0.028,0.246
		l0.075,0.206l0.325,0.165l0.073,0.144l0.041,0.036l0.207,0.656l0.08,0.127l0.083,0.101l0.111,0.086l0.176,0.079l0.197,0.015
		l0.194-0.026l0.15,0.026l0.114,0.353l0.122,0.129l0.122,0.103l0.055,0.104l0.017,0.218l0.032,0.152l0.006,0.143l-0.055,0.191
		l-0.063,0.079l-0.222,0.209l-0.069,0.093l-0.57,2.132l-0.385,0.669l-0.917,0.977l-0.132,0.349l-0.131,0.243l-0.614,0.695
		l-0.2,0.143l0.096,0.189l0.025,0.162l-0.065,0.113l-0.186,0.043l0.096,0.246l-0.055,0.175l-0.1,0.125l-0.048,0.098l0.046,0.173
		l0.19,0.397l0.004,0.317l-0.24,0.252l-0.104,0.051l-0.162,0.056l-0.152,0.081l-0.066,0.123l-0.135,0.118l-1.111,0.593l-0.316,0.076
		l-0.797,0.041l-2.076,1.259l-0.304,0.27l-0.443,0.282l-0.333,0.087l-0.232-0.058l-0.218-0.025l-0.592,0.381l-0.749,0.271
		l-0.976,0.714l-0.586,0.129l0.134-0.273l0.087-0.129l0.121-0.115l-0.315,0.104l-0.248,0.172l-0.749,0.651l-0.156,0.222l-0.063,0.31
		l-0.319,0.279l-1.454,0.479l-1.028,0.187l-3.076,1.546l-0.409-0.023l-0.118,0.138l-0.253-0.079l-0.211,0.133l-0.184,0.201
		l-0.177,0.124l-0.309-0.029l-0.35-0.074l-0.285,0.054l-0.03,0.093l-0.089,0.266l-0.318,0.222l-0.163,0.01l-2.295,0.143l-0.354-0.02
		l-0.312-0.113l-0.284-0.242l-0.183-0.096l-0.197,0.052l-0.2,0.091l-0.197,0.021l-0.163-0.087l-0.557-0.429l-2.714-1.135
		l-0.991-0.667l-0.364-0.091l-0.201-0.13l-0.595-0.639l-0.315-0.242l-1.073-0.436l-0.634-0.583l-0.63-0.404l-1.924-1.816
		l-1.634-1.31l-1.493-1.944l-0.087-0.172l-0.136-0.184l-0.806-0.773l-1.152-1.384l-0.523-0.818l-0.105-0.597l-0.343-0.065
		l-0.298-0.169l-0.261-0.223l-2.188-2.334l-1.063-0.634l-0.267-0.28l-0.57-0.736l-0.353-0.287l-0.36-0.603l-0.557-0.254
		l-0.326-0.278l-0.513-0.633l-0.103-0.315l0.059-0.542l-0.075-0.286l-0.398,0.383l-0.214,0.055l-0.333-0.173l-1.595-1.555
		l-0.547-0.401l-0.239-0.228l-0.826-1.146l-0.541-0.389l-0.281-0.266l-0.19-0.433l-0.758-1.088l-0.616-0.517l-0.318-0.342
		l-0.236-0.59l-0.47-0.756l-0.151-0.356l-0.01-0.433l0.128-0.31l0.159-0.274l0.076-0.322l0.045-0.382l0.117-0.328l0.153-0.274
		l0.167-0.228l0.252-0.217l0.692-0.389l0.45-0.334l0.135,0.025l0.066,0.143l-0.051,0.25l-0.135,0.189l-0.319,0.142l-0.135,0.192
		l0.243,0.446l0.165,0.154l0.29,0.049l0.153-0.037l0.283-0.168l0.155-0.06l0.16,0.011l0.135,0.062l0.124,0.043l0.132-0.053
		l0.245-0.242l0.169-0.131l0.167,0.023l0.24,0.216l0.062,0.303l-0.408,0.602l0.055,0.313l-0.27,0.406l0.072,0.367l0.287,0.299
		l0.374,0.204v0.14l1.285-0.2l0.851-0.402l0.186-0.35l0.232-0.08l1.305-0.023l0.579-0.139l0.186-0.082l0.099-0.1l0.253-0.359
		l0.046-0.103l0.101-0.037l0.114-0.018l0.081-0.046l0.1-0.27l-0.049-0.221l-0.101-0.228l-0.056-0.29l0.039-0.31l0.104-0.015
		l0.152,0.053l0.177-0.112h0.118l0.207,0.758l0.032,0.373l-0.121,0.261l0.247,0.132l0.554,0.125l0.259,0.148l0.024-0.171
		l0.042-0.112l0.17-0.238l0.184,0.146l0.118-0.084l0.089-0.176l0.093-0.131l0.062-0.062l0.067-0.089l0.073-0.08l0.09-0.034
		l0.107,0.027l0.236,0.106l0.084-0.006l0.166-0.273l0.283-0.853l0.139-0.29l0.152,0.132l0.804,0.931l0.107,0.085l0.208-0.044
		l0.104-0.16l0.067-0.215l0.093-0.208l0.19-0.219l0.148-0.048l0.16,0.021l0.219-0.01l0.363-0.146l0.354-0.24l0.981-0.916
		l0.189-0.114l0.015,0.027l0.387-0.027l0.111-0.032l0.313-0.224l0.661-0.062l1.479,0.199l0.584-0.265l0.194-0.296l0.304-0.696
		l0.477-0.634l0.56-1.069l0.896-1.355l0.072-0.176l-0.029-0.451l0.017-0.205l0.051-0.069l0.302-0.316l0.558-1.116l0.215-0.176
		l0.292-0.141l0.557-0.664l0.285-0.22l0.162,0.001l0.2,0.047l0.208,0.007l0.194-0.119l0.124-0.179l0.132-0.296l0.096-0.16l0.16-0.37
		l0.023-0.441l-0.083-0.438l-0.152-0.36l-0.207-0.279L188,275.976l-0.295-0.142l-0.129,0.295l-0.15,0.157l-0.696,0.369l-0.205,0.319
		l0.003,0.187l0.037,0.257l0.059,0.226l0.113,0.191l-0.158,0.449l0.003,0.17l0.031,0.157l-0.006,0.263l-0.032,0.263l-0.049,0.156
		l-0.11,0.087l-0.136,0.037l-0.363,0.003l-0.101,0.037l-0.091,0.069l-0.098,0.033l-0.124-0.075l-0.087-0.091l-0.07-0.06
		l-0.082-0.032l-0.114-0.009l-0.077,0.037l-0.101,0.07l-0.091,0.031l-0.059-0.115l-0.111-0.134l-0.032-0.031l-0.388-0.104
		l-0.19-0.25l-0.149-0.292l-0.287-0.238l-0.02,0.474l-0.171,0.295l-0.309,0.131l-0.443-0.015l-0.117,0.02l-0.069,0.053l-0.08,0.003
		l-0.152-0.133l-0.062-0.093l-0.018-0.062l-0.038-0.033l-0.118-0.011l-0.2-0.05l-0.07-0.125l0.021-0.166l0.076-0.172l-0.364,0.653
		l0.188,0.124l0.205,0.216l0.053,0.208l-0.264,0.093l-1.008,0.128l-1.121,0.458l-0.972,0.143l-0.975,0.344l-0.543,0.079l-0.34,0.096
		l-0.456,0.247l-0.461,0.334l-0.346,0.359l-0.54,1.003l-0.225,0.149l-0.371-0.053l-0.7-0.202l-1.177-0.013l-0.173-0.059
		l-0.323-0.265l-0.217-0.06l-0.582,0.022l-0.186-0.022l-0.183-0.057l-0.118-0.07l-0.091-0.067l-0.089-0.049l-0.821-0.18
		l-0.323-0.176l-0.577-0.1l-0.595-0.264l-1.717-0.166l-0.637-0.193l-1.146-0.678l-1.654-1.166l-3.001-1.304l-3.023-2.077
		l-0.529-0.446l-0.114-0.066l-0.059-0.08l0.008-0.177l-0.025-0.177l-0.468-0.201l-0.232-0.286l-0.159-0.344l-0.073-0.288
		l0.045,0.064l0.191,0.193l0.186-0.352l0.053-0.202l-0.003-0.216l-0.307,0.151l-0.475,0.081l-0.442-0.083l-0.194-0.348l0.346-0.713
		l0.129-0.044l0.529-0.072l0.135-0.063l-0.068-0.136l-0.19-0.136l-0.236-0.063l-0.126-0.056l-0.076-0.124l-0.051-0.131l-0.046-0.075
		l-0.101-0.001l-0.115,0.046l-0.093,0.055l-0.036,0.03l-0.2-0.115l-0.152-0.115l-0.096-0.147l-0.034-0.208l0.034-0.211l0.097-0.155
		l0.152-0.083l0.198,0.005l-0.08-0.182l-0.108-0.082l-0.138,0.018l-0.155,0.117l-0.202-0.09l-0.087,0.102l-0.103,0.161l-0.262,0.084
		l-0.221-0.08l-0.065-0.202l0.039-0.251l0.076-0.238l-0.235,0.152l-0.198,0.065l-0.165-0.044l-0.125-0.173l0.16-0.379l0.25-0.406
		l0.314-0.336l0.35-0.166l-0.079-0.208l-0.098,0.019l-0.131,0.081l-0.162-0.031l-0.079-0.09l-0.174-0.281l-0.115-0.143l0.07,0.316
		l0.104,0.296l-0.008,0.251l-0.273,0.177l-0.337-0.021l-0.096-0.264l0.082-0.755l-0.101-0.92l0.068-0.447l0.322-0.19l0.761,0.241
		l0.345-0.004l0.021-0.354l-0.113-0.072l-0.16,0.039l-0.141-0.028l-0.056-0.272l0.067-0.075l0.338-0.104l0.273-0.178l0.332-0.032
		l0.166-0.061l0.091-0.091l0.274-0.424l0.498-0.544l0.315-0.253l0.624-0.243l0.288-0.708l0.28-0.315l0.163-0.038l0.612,0.038
		l0.173-0.06l0.337-0.268l0.197-0.06l0.212-0.092l0.913-0.704l-0.276-0.114l-0.443,0.195l-0.226-0.081l-0.461,0.471l-0.388,0.235
		l-0.447,0.082l-0.654,0.008l-0.356,0.06l-0.18,0.164l-0.236,0.551l-0.181,0.252l-0.193,0.117l-0.571,0.135l-0.283,0.137
		l-0.235,0.175l-0.255,0.15l-0.643,0.124l-0.399,0.267l-0.38,0.171l-0.292,0.26l-1.19,1.444l0.166,0.116l0.025,0.135l-0.072,0.137
		l-0.119,0.128l-0.253,0.183l-0.167,0.015l-0.165-0.055l-0.242-0.025l-1.094,0.044l-0.854-0.113l-0.415-0.127l-0.242-0.224
		l0.115-0.353l0.07-0.017l0.349,0.017l0.068-0.055l0.063-0.255l0.041-0.077l0.239-0.135l0.194-0.069l0.186,0.066l0.218,0.269
		l0.215-0.266l0.29-0.044l0.242-0.083l0.079-0.38l-0.371,0.213l-0.311,0.013l-0.279-0.148l-0.278-0.271l-0.194-0.346l-0.029-0.357
		l0.037-0.376l-0.003-0.404l-0.337,0.387l-0.174,0.129l-0.076-0.193l0.039-0.292l0.166-0.473l0.07-0.552l0.048-0.157l0.009-0.12
		l0.009-0.023l0.411-0.637l0.134-0.089l0.309-0.139l0.121-0.076l0.054-0.006l0.17,0.033l0.068-0.004l0.062-0.068l-0.042-0.074
		l-0.072-0.062l-0.031-0.039l0.02-0.121l-0.007-0.168l0.039-0.17l0.155-0.129l0.174-0.033l0.063,0.079l0.041,0.147l0.106,0.177
		l0.245,0.111l0.236-0.102l0.206-0.225l0.156-0.25l-0.023-0.133l-0.066-0.191l0.01-0.159l0.211-0.038l0.108,0.075l0.061,0.152
		l0.025,0.177l-0.004,0.149l0.55-0.4l0.797-0.127l2.009,0.016l1.704,0.012l1.348,0.01l0.011-2.628l0.008-1.986l0.006-1.522
		l0.37-0.796l0.896,0.04l0.253,0.391l0.101,1.102l0.33,0.262l0.175-0.143l0.539-1.011l0.054-0.152l0.031-0.155l0.09-0.112
		l0.24-0.021l0.155,0.063l0.152,0.128l0.129,0.154l0.333,0.608l0.241,0.247l0.313,0.035l0.467-0.174l0.703-0.392l0.332-0.061
		l0.418,0.124l0.973,0.479l0.32,0.066l0.683-0.102l1.288-0.477l4.877,0.132l0.505,0.23l1.352,1.438l0.761,0.381l0.941,0.114
		l3.508-0.05l0.759-0.167l0.625-0.531l0.188-0.346l0.418-1.18l0.185-0.309l0.204-0.115l0.603-0.057l0.996-0.335l0.355-0.022
		l0.342-0.074l0.631-0.464l0.336-0.158l0.945-0.054l0.304-0.116l0.788-0.561l1.807-0.436l0.725,0.016l0.213,0.456l-0.104,0.193
		l-0.298,0.199l-0.095,0.118l-0.014,0.208l0.168,0.667l0.084,0.754l0.129,0.274l0.295,0.283l0.636,0.317l2.315,0.184l0.355-0.099
		l0.649-0.337l0.354-0.129l0.3-0.068l0.105-0.129l-0.225-0.315l-0.062-0.333l0.27-0.341l1.057-0.719l0.321-0.104l0.329,0.025
		l0.377,0.164l0.338,0.012l0.18-0.14l0.125-0.213l0.186-0.21l0.829-0.3l0.168-0.178l-0.134-0.473l-0.604-0.197l-0.691-0.116
		l-0.396-0.229l-0.048-0.138l-0.021-0.141l0.002-0.144l0.027-0.147l0.041-0.382l0.058-0.13l0.024-0.126l-0.018-0.118l-0.064-0.107
		l-0.335-0.297l-0.051-0.541l0.137-0.594l0.248-0.454l1.144-0.559l0.355-0.257l-0.125-0.195l-0.34-0.531l-0.583-1.664l-1.039-1.635
		l-0.48-1.001l-0.379-1.054l-0.578-2.624l-0.196-0.456l-0.296-0.382l-1.089-0.95l-0.579-0.655l-0.204-0.381l-0.079-0.449
		l-0.139-0.479l-0.693-0.759l-0.275-0.402l-0.136-0.665l0.107-2.192l0.08-1.681l-0.063-0.782l-0.372-0.516l-0.692-0.143
		l-0.654,0.192l-0.653,0.286l-0.681,0.145l-2.023,0.055l-0.975-0.213l-0.676-0.244l-0.265-0.199l-0.255-0.447l-0.354-1.062
		L183.012,225l-0.714-0.623l-0.679-0.813l-0.548-0.926l-0.322-0.968l-0.006-0.292l0.149-0.999l0.017-0.686l0.076-0.318l0.929-1.556
		l0.257-0.712l0.081-0.706l-0.131-0.776l-0.027-0.374l0.095-0.376l0.159-0.401l0.058-0.334l-0.061-0.765l0.103-1.59l-0.084-0.71
		l-0.492-0.626l-0.621-0.345l-0.65-0.168l-4.156,0.17l-0.748-0.286l-1.245-1.12l-0.705-0.478l-2.682-1.111l-0.541-0.608
		l-0.134-0.797l0.361-2.306l0.373-2.39l0.464-1.465l0.711-1.22l1.564-1.586l1.114-0.784l2.029-1.947l1.038-1.693l1.477-1.438
		l0.404-0.575l1.275-3.766l0.195-0.355l1.505-1.564l0.172-0.179l1.188-0.867l0.97-1.079l0.312-0.216l0.304-0.095l0.67-0.104
		l0.668-0.268l0.334-0.087l0.363,0.05l0.511,0.162l0.486,0.254l0.431,0.343l0.571,0.664l0.489,0.398l0.207,0.245l0.146,0.398
		l-0.069,0.724l0.054,0.38l0.536,1.244l0.668,0.975l0.888,0.612l1.206,0.162l1.421-0.319l1.966-0.981l2.127-1.062l1.307-0.448
		l1.471-0.32l1.492-0.13l1.371,0.116l1.445-0.119l2.431-0.748l2.756-0.85l0.234-0.185l0.097-0.298l0.2-2.392l0.093-0.361
		l0.196-0.392l1.381-1.814l2.122-1.757l0.673-0.71l0.479-0.85l0.348-0.94l1.014-3.948l0.411-0.819l1.284-1.577l0.477-0.332
		l2.479-1.3l2.297-1.205l1.97-1.034l2.229-1.171l0.288-0.202l0.211-0.293l0.563-1.367l0.445-0.748l1.075-1.457l1.348-2.617
		l0.848-1.649l0.948-1.849l0.897-2.925l0.738-2.417l0.741-2.433l0.257-0.299l2.982-1.401l3.143-0.717l0.666-0.377l2.87-2.417
		l0.043-0.316l0.036-0.264l-0.246-0.875l-0.393-0.855l-0.35-0.52l-0.852-0.465l0.05-0.08l0.113-0.315l0.275-0.296l0.345-0.182
		l0.32,0.034l-0.032-0.133l-0.038-0.284l-0.037-0.13l0.289,0.099l0.218-0.038l0.17-0.14l0.877-1.238l0.107-0.264l0.145-0.16
		l0.686-0.195l0.232-0.255l0.068-0.486l-0.055-0.379l-0.02-0.343l0.179-0.381l0.255-0.308l0.236-0.226l0.27-0.183l0.366-0.186
		l0.398-0.082l0.137-0.107l0.053-0.285l0.057-0.162l0.252-0.194l0.113-0.406l0.132-0.16l0.282-0.25l0.355-0.536l0.145-0.143
		l0.261-0.196l0.13-0.148l-0.016-0.143l-0.157-0.399l0.061-0.083l0.341-0.106l0.35-0.271l0.193-0.358l-0.127-0.364l0.116-0.21
		l0.146-0.18l0.182-0.125l0.22-0.047l0.193,0.017l0.45,0.133l0.373,0.028l0.136-0.159l0.073-0.283l0.189-0.348l0.298-0.279
		l0.293-0.146l0.323-0.054l0.384-0.008l0.343-0.12l0.268-0.278l0.241-0.321l0.264-0.246l0.004-0.417l0.263-0.356l0.371-0.28l1-0.548
		l-0.148-0.189l-0.316-0.29l-0.259-0.156l-0.346-0.01l-0.757,0.138l-0.282-0.125l-0.229-0.286l-0.15-0.252l-0.091-0.288l-0.055-0.39
		l0.046-0.409l0.277-0.803l0.004-0.906l0.12-0.465l0.68-1.741l0.209-0.351l0.282-0.356l0.205-0.325l0.091-0.379l-0.045-0.383
		l-0.52-0.804l-0.5-1.921l-0.97-1.779l-0.173-0.23l0.055-0.068l0.184-0.325l0.037-0.029l0.136-0.063l0.05-0.046l0.036-0.09
		l0.05-0.243l0.032-0.096l0.134-0.19l0.075-0.067l0.032-0.094l0.007-0.268l0.059-0.447l0.166-0.328l0.262-0.275l1.304-1.018
		l0.279-0.104l0.221-0.173l0.491-0.938l1.116,0.229l0.357-0.079l0.325-0.529l0.152-0.711l0.3-0.442l0.77,0.28l0.275-0.351
		l0.341-0.061l0.389,0.042l0.42-0.049l0.211-0.116l0.107-0.144l0.077-0.172l0.132-0.2l0.163-0.085l0.425,0.032l0.173-0.012
		l-0.13-0.576l0.314-0.067l1.059,0.406l0.141,0.009l0.15-0.069l0.188-0.188l0.148-0.066l0.396,0.113l0.222,0.023l-0.018-0.467
		l0.391-0.386l0.53-0.274l0.405-0.139l0.232-0.041l0.541,0.041l0.059-0.223l0.179-0.696l0.141-0.344l0.554-0.639l0.18-0.402
		l-0.105-0.464l-0.45-0.574l-0.493-0.408l-1.179-0.977l-0.587-0.35l-1.213-0.296l-0.584-0.36l-0.645-0.537l-0.539-0.22l-0.57,0.059
		l-0.73,0.299l-0.716,0.074l-1.189-0.608l-0.67,0.045l-0.62,0.205l-0.666,0.038l-0.616-0.216l-0.463-0.554l-0.518-1.43l-0.052-0.409
		l0.127-0.372l0.191-0.356l0.139-0.35l0.021-0.409l-0.123-0.834l-0.007-0.45l0.125-0.456l0.438-0.863l0.118-0.442l-0.066-0.461
		l-0.234-0.192l-0.314,0.065l-0.305,0.316l-0.166,0.4l-0.073,0.354l-0.137,0.309l-0.357,0.257l-0.339,0.109l-0.913,0.149
		l-0.346-0.015l-0.284-0.154l-0.504-0.515l-0.288-0.152l-0.341,0.028l-0.563,0.346l-0.323,0.087l-0.372-0.069l-0.291-0.196
		l-0.225-0.301l-0.17-0.387l0.163-0.243l0.018-0.027l0.103-0.153l0.188-0.385l0.05-0.429l-0.211-1.055l-0.043-1.043l-0.186-0.458
		l-0.472-0.299l-1.609-0.274l-0.639-0.373l-0.957-1.333l-0.564-0.573l-0.629-0.445l-0.468-0.486l-0.239-0.639l0.057-0.908
		l0.171-0.364l0.279-0.193l0.648-0.259l0.288-0.212l0.227-0.249l0.188-0.293l0.164-0.346l0.532-1.507l0.372-1.579l-0.28-1.143
		l-0.923-0.745l-1.104-0.601l-0.822-0.708l-0.145-0.284l-0.091-0.305l-0.039-0.322l0.039-0.608l0.054-0.27l0.079-0.26l0.104-0.246
		l0.598-1.072l0.402-0.377l1.861-0.325l0.609-0.277l0.605-0.434l0.466-0.47l0.396-0.603l0.17-0.671l-0.218-0.672l-0.541-0.386
		l-0.627,0.022l-0.654,0.161l-0.62,0.033l-0.918-0.33l-0.35-0.023l-1.181,0.309l-0.534-0.108l-0.511-0.379l-0.389-0.55l-0.161-0.624
		l0.154-0.637l0.407-0.428l1.034-0.549l0.323-0.311l0.05-0.425l-0.134-0.454l-0.239-0.398l-0.386-1.038l-0.288-0.356l-0.523-0.054
		l-0.491,0.052l-0.445-0.065l-0.418-0.166l-0.43-0.254l-0.371-0.404l-0.136-0.505l0.086-0.526l0.284-0.471l0.182-0.139l0.429-0.235
		l0.152-0.168l0.089-0.253l0.025-0.79v-0.003l0.279-0.477l0.827-0.585l0.259-0.42l-0.009-0.596l-0.138-0.544l0.032-0.488
		l0.506-0.424l0.236-0.114l2.741-0.477l0.448-0.231l1.295-0.965l1.107-0.445l1.089-0.096l1.093,0.188l4.368,1.602l6.097,1.231
		l1.611-0.083l1.129-0.246l0.632,0.009l0.201,0.133l0.213,0.141l0.25,0.395l0.279,0.31l0.682,0.51l0.711,0.352l4.554,1.235
		l0.759,0.029l1.004-0.242l0.366-0.002l0.73,0.101l0.323-0.086l0.352-0.288l0.998-1.043l1.129-0.854l0.466-0.148l0.123-0.068
		l0.23-0.288l0.359-0.611l0.275-0.253l0.604-0.131l1.097,0.473l0.573-0.016l1.85-0.483l2.382-1.389l0.661-0.255l0.663,0.108
		l0.75,0.561l0.275,0.103l0.3,0.008l1.493-0.322l0.225-0.123l1.577-1.521l0.163-0.401l-0.064-1.132l0.139-0.486l0.422-0.332
		l0.605-0.208l0.614-0.055l0.466,0.132l0.455,0.294l0.262,0.051l0.22-0.172l0.33-0.373l1.039-0.84l0.268-0.359l0.114-0.656
		l-0.141-0.582l-0.068-0.512l0.333-0.437l0.113-0.072l6.492-4.071L314.422,30z M369.163,410.368l0.257,0.26l0.093,0.18l-0.063,0.161
		l-0.228,0.203l-0.502,0.17l-0.001-0.001l-0.425-0.252l-0.855-1.021l0.184-0.505l0.159-0.12l0.845,0.5L369.163,410.368z
		 M242.641,511.663l-0.039,0.136l-0.053,0.134l-0.068,0.118l-0.077,0.093l-0.016-0.185l0.028-0.176l0.072-0.161l0.111-0.131
		l0.001,0.002l0.021,0.04L242.641,511.663z M242.917,510.612l-0.001,0.001l-0.032,0.035l-0.017,0.045l-0.025,0.016l-0.056-0.043
		l0.017-0.057l0.032-0.006l0.038,0.013L242.917,510.612z M225.42,503.195l-0.194,0.131l-0.094,0.05l-0.096,0.031l-0.001,0.001
		l0.08-0.092l0.285-0.245l0.001,0.001l0.032,0.024l-0.003,0.024l-0.014,0.033L225.42,503.195z M223.676,499.456l-0.001,0.002
		l-0.131,0.113l-0.006-0.064l0.028-0.024l0.051-0.007L223.676,499.456z M243.074,498.572l0.17,0.029l0.055,0.009l-0.141,0.056
		l-0.059-0.006l-0.017-0.042l-0.008-0.045V498.572z M227.152,493.479l-0.042,0.064l-0.014,0.061l-0.031,0.043l-0.094,0.012v-0.09
		l0.044-0.035l0.065-0.016L227.152,493.479z M231.7,486.728l-0.039,0.212l-0.036,0.096l-0.055,0.089l-0.021-0.162v-0.135
		l0.046-0.085L231.7,486.728z M226.568,483.341l-0.001,0.001l-0.128,0.087l-0.059,0.032l-0.072,0.016h-0.003l0.072-0.104
		l0.072-0.032H226.568z M592.152,473.189l-0.329,0.147l-0.032-0.194l0.151-0.171L592.152,473.189z M599.204,452.368l0.17,0.367
		l-0.274,0.046l-0.225-0.159L599.204,452.368z M592.972,565.148l0.146,0.208l0.02,0.928l-0.152,0.439l-0.475,0.993l-0.072,0.609
		l0.059,0.135l0.111,0.12l0.084,0.137l-0.018,0.19l-0.08,0.071l-0.148,0.056l-0.17,0.009l-0.143-0.071l-0.214,0.004l-0.198,0.33
		L591.485,570l-0.373-0.147l-0.058-0.262l0.068-0.331l0.008-0.353l-0.143-0.147l-0.229-0.159l-0.134-0.183l0.152-0.222l-0.164-0.153
		l-0.138-0.164l-0.045-0.185l0.111-0.213l-0.152-0.064l-0.08-0.126l-0.028-0.181l0.014-0.222l-0.298,0.013l-0.183-0.343l-0.15-0.475
		l-0.194-0.385l-0.24-0.238l-0.333-0.254l-0.342-0.098l-0.266,0.234l0.008-1.855l0.068-0.207l0.395-0.877l0.155-0.046l0.383,0.002
		l0.169-0.057l0.127-0.127l0.096-0.126l0.077-0.057l0.091-0.028l0.439-0.21l0.118,0.129l0.44-0.398l0.283-0.126l0.291,0.104
		l0.423,0.378l0.167,0.235l0.093,0.35l0.11,0.296l0.068,0.336l0.044,0.689l0.067,0.269l0.277,0.495l0.17,0.448L592.972,565.148z
		 M589.705,559.138l0.055,0.323l-0.101,0.239l-0.225,0.196l-0.321,0.193l-0.307,0.286l-0.605,0.711l-0.277,0.073l-0.177-0.116
		l-0.027-0.128l0.018-0.153l-0.041-0.198l-0.073-0.123l-0.291-0.353l0.224-0.203l0.059-0.364l0.11-0.347l0.38-0.155l0.494-0.115
		l0.186-0.29l0.1-0.389l0.228-0.407v0.475l0.044,0.332l0.173,0.174l0.211,0.132L589.705,559.138z M584.491,548.923l0.063,0.017
		l0.461,0.759l0.011,0.191l-0.053,0.343l-0.051,0.19l-0.112-0.037l-0.191-0.207l-0.27-0.148l-0.107-0.008l-0.224,0.038l-0.224,0.075
		l-0.186,0.088l-0.183,0.038l-0.235-0.082l-0.16-0.141l-0.08-0.173l0.013-0.197l0.122-0.214l-0.129-0.119l-0.138,0.118l-0.167,0.01
		l-0.162-0.084l-0.121-0.163l-0.028-0.199l0.143-0.694l0.16-0.216l0.377-0.175l0.447-0.091l0.364,0.031l0.059,0.154l0.024,0.166
		l-0.003,0.364l0.09,0.147l0.396,0.141L584.491,548.923z M586.849,548.154l0.076,0.18l0.068,0.352l-0.004,0.767l-0.962-0.714
		l-0.131-0.251l0.013-0.268l0.16-0.155l0.321,0.088l0.017-0.294l0.139-0.068l0.177,0.113L586.849,548.154z M586.261,547.536
		l-0.068,0.04l-0.226,0.083l-0.051,0.061l-0.038,0.098l-0.256,0.388l-0.183,0.077l-0.089-0.192l-0.034-0.49l0.06-0.166l0.134-0.067
		l0.122-0.087l0.038-0.22h0.128l0.166,0.101l0.036-0.124l-0.094-0.202l-0.236-0.134l-0.097,0.33l-0.215,0.007l-0.232-0.195
		l-0.155-0.272l-0.186-1.124l-0.001-0.177l0.144-0.098l0.177-0.23l0.148-0.26l0.063-0.191l0.148-0.192l0.325-0.12l0.325,0.021
		l0.142,0.22l-0.011,0.34l-0.164,0.256l-0.19,0.219l-0.091,0.341l0.058,0.318l0.287,0.59l0.215,0.658l-0.004,0.166L586.261,547.536z
		 M232.806,542.639l0.08-0.01l0.021,0.026v0.047l0.017,0.056l-0.309,0.664l-0.163,0.183l-0.207,0.132l-0.207,0.051l-0.149-0.104
		l-0.028-0.33l0.118,0.001v0.003l-0.006,0.187l0.006,0.06l0.329-0.132l0.256-0.208l0.17-0.278L232.806,542.639z M579.395,543.95
		l0.454,0.2l0.211,0.131l0.056,0.146l-0.155,0.146l-0.239-0.017l-0.498-0.129l-0.383-0.151l-0.363-0.365l-0.273-0.45l-0.107-0.406
		l0.03-0.512l0.052-0.269l0.096-0.183l0.24-0.162l0.195,0.013l0.11,0.164l-0.011,0.812l0.056,0.414l0.174,0.335L579.395,543.95z
		 M587.57,538.572l0.243,0.488l0.087,0.249l0.024,0.337l-0.052,0.226l-0.118,0.344l-0.149,0.271l-0.143,0.004l-0.018-0.213
		l0.117-0.707l0.01-0.284l-0.209-0.606l-0.01-0.284l0.219-0.195V538.572z M573.81,526.624l0.388,0.504l-0.032,1.004l-0.56,0.61
		l-1.181-0.362l-0.19-0.285l-0.148-0.49l-0.055-0.464l0.093-0.207l0.266-0.077l0.274-0.197l0.16-0.269l-0.059-0.294l0.208-0.051
		l0.167,0.086l0.39,0.322L573.81,526.624z M569.9,499.6l0.033,0.615l0.191,0.475l-0.037,0.544l-0.37,0.402l-0.229,0.227l-0.176,0.14
		l-0.194,0.245l0.033,0.509l0.245,0.053l0.315,0.142l-0.476,0.577l-0.194,0.403l-0.387,0.297l-0.578-0.142l-0.28-0.264l-0.332-0.247
		l-0.386-0.019l-0.265,0.298l-0.386-0.001l-0.105-0.211l0.423-0.595l0.195-0.543l0.054-0.403l-0.14-0.316l-0.315-0.282l-0.193-0.159
		l-0.016-0.808l0.001-0.562l-0.052-0.44l0.018-0.158l0.158,0.036l0.37-0.139l0.141-0.158l0.124-0.422l0.11-0.492l0.93-0.613
		l0.774-0.173l0.368,0.371l0.28,0.441l0.05,0.598l0.244,0.441L569.9,499.6z M571.48,488.308l0.148,0.232l0.202,0.133l0.054,0.13
		l-0.295,0.227l-0.166,0.074l-0.47,0.146l-0.19,0.021l-0.266-0.05l-0.152-0.095l-0.122-0.112l-0.177-0.103l0.094-0.404l0.032-0.088
		l0.127-0.088l0.271-0.021l0.127-0.066l0.104-0.245l-0.034-0.297l-0.132-0.535l0.138-0.541l0.321-0.001l0.361,0.312l0.253,0.4
		l0.114,0.235l-0.114,0.209l-0.173,0.232L571.48,488.308z M564.4,485.187l0.195,0.101l0.152,0.364l-0.032,0.338l-0.204,0.228
		l-0.364,0.032l-0.304-0.196l-0.075-0.652l-0.224-0.246v-0.121l0.197,0.007l0.453,0.069L564.4,485.187z M577.804,478.627
		l0.107,0.148l0.307,0.948l-0.295,0.053l-0.24-0.279l-0.153-0.348l-0.028-0.15l-0.165-0.103l-0.243-0.057l-0.186-0.092l-0.179-0.164
		l-0.1-0.151l-0.12-0.112l-0.249-0.045l-0.105-0.152l0.176-0.336l0.259-0.336l0.148-0.152l0.586-0.015l0.186,0.099l-0.118,0.278
		l0.377,0.826L577.804,478.627z M578.855,474.575l0.008,0.045l0.002,0.047l-0.01,0.092l-0.122,0.377l-0.021,0.124l0.127,0.57
		l0.017,0.309l-0.156,0.196l-0.152-0.086l-0.194-0.256l-0.172-0.297l-0.082-0.205l-0.004-0.262l0.038-0.332l0.082-0.31l0.121-0.194
		l0.152-0.07l0.156,0.009l0.128,0.086L578.855,474.575z M572.458,460.729l0.076,0.191l-0.091,0.284l-0.038,0.895l-0.097,0.405
		l-0.117,0.18L571.912,463l-0.076,0.11l-0.035,0.232l0.025,0.209l-0.032,0.169l-0.205,0.115l-0.217-1.247l0.045-0.194l0.084-0.208
		l0.124-0.97l-0.036-0.296l0.212-0.208l0.127-0.17l0.103-0.1l0.149,0.004l0.096,0.048l0.079,0.067l0.063,0.08L572.458,460.729z
		 M577.981,455.204l0.397,0.262l0.065,0.165l-0.39,0.622l-0.075,0.494l0.003,1.134l-0.08,0.521l-0.195,0.737l-0.298,0.506
		l-0.371-0.178h-0.129l-0.065,0.177l-0.129,0.074l-0.146-0.022l-0.118-0.108l-0.045-0.201l0.089-0.426l-0.044-0.222h-0.129v0.364
		l-0.338-0.052l-0.141,0.3l-0.008,0.403l0.073,0.257l0.312,0.344l0.096,0.212l-0.062,0.193l-0.169,0.292h-0.118l-0.022-0.333
		l-0.127-0.141l-0.188-0.029l-0.194,0.007l-0.046,0.146l-0.378,0.773l-0.028,0.15l-0.048,0.094l0.008,0.091l0.134,0.143l0.204,0.066
		l0.159-0.113l0.173-0.24l0.155,0.092l0.065,0.16l0.028,0.154l0.048,0.067l0.139,0.064l0.404,0.432l-0.058,0.315l0.089,0.382
		l0.038,0.398l-0.198,0.357l0.287,0.331l0.194,0.341l0.105,0.368l0.001,0.411l-0.238,0.818l-0.068,0.475l0.278,0.638l0.044,0.443
		l-0.017,0.847l-0.153,0.233l-0.291,0.266l-0.155,0.241l0.247,0.161l-0.135,0.246l-0.219,0.132l-0.191,0.156l-0.045,0.323h-0.118
		l-0.093-0.196l-0.138-0.175l-0.17-0.143l-0.19-0.101l0.037,0.083l0.082,0.29l-0.494,0.038l-0.46-0.038v0.109l0.118,0.187
		l0.174,0.554l0.129,0.117l0.186,0.053l0.211,0.138l0.146,0.194l-0.011,0.218l0.228,0.114l-0.039,0.083l-0.166,0.081l-0.141,0.096
		l-0.149,0.14l-0.091,0.02l-0.032,0.029l0.025,0.161l0.087,0.147l0.132,0.092l0.117,0.127l0.03,0.25l-0.097,0.13l-0.17,0.147
		l-0.112,0.173l0.08,0.208l0.072,0.121l0.068,0.185l0.028,0.168l-0.045,0.074l-0.329-0.012l0.034,0.314l-0.181,0.216l-0.364,0.271
		l-0.268,0.284l0.108,0.255v0.132l-0.134,0.045l-0.337,0.196l0.044,0.155l-0.166,0.11l-0.266,0.065l-0.261,0.021l-0.195,0.128
		l0.169,0.287l0.439,0.44l-0.201-0.026l-0.169,0.03l-0.131,0.09l-0.089,0.158h0.118L572.674,478l-0.087,0.23l-0.053,0.397v1.457
		h0.128l0.072-0.594l0.082-0.341l0.142-0.151l0.249,0.015l0.2,0.084l0.138,0.218l0.062,0.407l-0.045,0.6l-0.637,2.762l-0.091,0.134
		l-0.349,0.032l-0.201,0.097l-0.57,0.595l-0.104,0.18l-0.022,0.228l0.003,0.384l0.073,0.064l0.169,0.006l0.166-0.057l0.075-0.128
		v-0.668l0.08,0.034l0.197,0.052l0.077,0.034l-0.017-0.33l0.1-0.194l0.174-0.023l0.215,0.185l0.051,0.169l0.072,0.601l-0.004,0.194
		l-0.084,0.146l-0.224,0.22l-0.046,0.181v0.538l-0.169,0.586l-0.145,0.312l-0.169,0.207l-0.066-0.227l-0.105-0.066l-0.139-0.013
		l-0.16-0.067l-0.532-0.542l-0.072-0.169l0.014-0.178l-0.017-0.138l-0.162-0.056l-0.203-0.099l-0.136-0.226l-0.07-0.246
		l-0.004-0.163l0.114-0.116l0.163-0.035l0.143-0.047l0.052-0.153l-0.101-0.119l-0.202-0.039l-0.198-0.068l-0.089-0.206l-0.018-0.198
		l-0.091-0.336l-0.018-0.199l-0.058-0.253l-0.135-0.022l-0.159,0.073l-0.12,0.032l-0.287-0.201l-0.051-0.279l0.11-0.791v-0.723
		l-0.059-0.12l-0.143-0.069l-0.16-0.053l-0.195-0.107l-0.059,0.017h-0.049l-0.051-0.096l-0.004-0.109l0.042-0.08l0.055-0.047
		l0.025-0.006l0.134-0.52l0.402-0.631l0.131-0.043l0.114,0.092l0.259,0.382l0.045,0.124l0.096,0.057l0.246-0.064l-0.118,0.288
		l0.055,0.217l0.118,0.072l0.063-0.151l0.055-0.975l0.084-0.24l-0.037-0.268l-0.073-0.271l-0.029-0.241l0.063-0.268l0.214-0.392
		l0.077-0.195l-0.03-1.764l0.089-0.352l0.396-0.794l0.235-0.329l0.136,0.211h0.128l0.117-0.309l0.159-0.131l0.136,0.106l0.059,0.394
		l-0.091,0.349l0.007,0.146l0.143,0.06l0.103-0.021l0.045-0.045l0.025-0.045l0.056-0.021l0.345,0.008l0.076-0.008l0.322-0.16
		l0.083-0.109l0.066-0.214l-0.177-0.724l-0.118-0.036l-0.135-0.085l-0.112-0.101l-0.046-0.084l0.004-0.188l0.028-0.005l0.07,0.045
		l0.285-0.087l0.145-0.004l0.083-0.065l-0.027-0.233l-0.098-0.176l-0.146-0.068l-0.411,0.001l-0.364-0.142l-0.196-0.349
		l-0.079-0.437l0.068-4.193l0.089-0.24l0.311-0.363l0.093-0.191l0.079-0.094l0.091-0.027l0.263-0.012l0.065-0.016l0.073-0.218
		l-0.101-0.077l-0.191-0.039l-0.2-0.1l-0.121-0.275l-0.049-1.237l-0.128-0.792l0.059-0.221l0.138-0.15l0.16-0.134l0.125-0.167
		l0.35,0.09l0.253-0.315l0.156-0.473l0.067-0.39v-0.915l0.257-0.48l0.114-0.299l-0.077-0.133l-0.385-0.188l0.023-0.437l0.352-1.042
		l0.325-0.59l0.08-0.107l0.02-0.059l-0.053-0.106l-0.232-0.266l-0.069-0.124l0.191-0.23l-0.046-0.368l0.013-0.342l0.367-0.151
		l-0.001-0.163l-0.243-0.787l0.075-0.273v-0.111l-0.225-0.254l0.108-0.355l0.682-0.862l0.077-0.133l0.063-0.215l0.011-0.174
		l-0.02-0.434l0.008-0.13l0.118-0.243l0.025,0.009l0.211-0.142l0.388-0.455l0.084-0.14l0.045-0.186v-0.306l0.073-0.137l0.152-0.1
		l0.323-0.063l0.124-0.068l0.127,0.135l0.097,0.059l0.101-0.007l0.148-0.066l-0.097-0.104l-0.027-0.099l0.034-0.117l0.09-0.166
		l0.079,0.191l0.112,0.023l0.152-0.053l0.188-0.038l0.129,0.086l0.284,0.521l-0.197,0.604l-0.022,0.563l0.101,1.148l0.079-0.033
		l0.195-0.044l0.08-0.034l-0.029,0.283l-0.354,0.253l-0.089,0.249l-0.101,0.204l-0.232,0.157l-0.278,0.144l-0.226,0.168l-0.01-0.312
		l-0.148-0.155l-0.186,0.017l-0.127,0.197l0.039,0.277l0.193,0.212l0.243,0.106l0.363-0.077l0.174,0.163L577.981,455.204z
		 M577.745,448.388l0.065,0.096l0.172,0.388l-0.574-0.163l-0.329-0.148l-0.172-0.174l0.501-0.225l0.236-0.002L577.745,448.388z
		 M505.754,304.501l0.27,0.111l0.234,0.172l0.16,0.249l0.045,0.343l-0.103,0.329l-0.211,0.042l-0.277-0.028l-0.298,0.119
		l-0.411-0.155l-0.136-0.844l0.181-0.681L505.754,304.501z M491.544,302.459l0.682-1.921l0.506-0.947l0.474-0.192l0.35,1.943
		l-0.062,1.116l-0.533,0.381l0.204,0.505l0.028,0.261l-0.114,0.25l-0.162,0.082l-0.2-0.033l-0.466-0.165l-0.485-0.002l-0.203-0.091
		l-0.149-0.298l-0.015-0.196l0.03-0.236L491.544,302.459z M501.665,298.439l0.24-0.113l0.226,0.115l0.127,0.258l-0.062,0.318
		l-0.202,0.442l-0.105,0.452l-0.049,1.013l-0.174-0.089l-0.633-0.204l-0.135-0.014l-0.023-0.158l-0.096-0.255l-0.011-0.17
		l0.034-0.135l0.214-0.5l0.308-0.523L501.665,298.439z M492.069,299.78l-0.149-0.138l-0.021-0.314l0.049-0.346l0.059-0.232
		l0.128-0.316l0.164-0.304l0.198-0.18l0.228,0.048l0.236,0.457l-0.131,0.593l-0.346,0.512L492.069,299.78z M217.177,498.932
		l-0.001-0.365l0.111-0.329l0.105-0.169l0.072-0.117l0.11-0.137l0.076-0.095v0.24l-0.205,0.498L217.177,498.932z M227.827,490.967
		h0.003h0.115l-0.006,0.078l-0.028,0.052l-0.042,0.047l-0.042,0.064l-0.02,0.278l-0.052,0.279l-0.163,0.522l-0.001,0.003
		l-0.073-0.256l-0.014-0.044l0.066-0.339L227.827,490.967z"/>
</g>
<g id="Copyright">
	<text transform="matrix(1 0 0 1 681.6426 577.5916)" class="st1 st2"> Vemaps.com</text>
</g>
</svg>
