<?xml version="1.0" encoding="utf-8"?>
<!-- Generator: Adobe Illustrator 23.0.1, SVG Export Plug-In . SVG Version: 6.00 Build 0)  -->
<svg version="1.1" xmlns="http://www.w3.org/2000/svg" xmlns:xlink="http://www.w3.org/1999/xlink" x="0px" y="0px"
	 viewBox="0 0 800 600" style="enable-background:new 0 0 800 600;" xml:space="preserve">
<style type="text/css">
	.st0{fill:#808080;}
	.st1{font-family:'Roboto-Regular';}
	.st2{font-size:14px;}
</style>
<g id="Italy">
	<path class="st0" d="M207.1,88.7l1.6,1.8l0.8,0.5l1.1,0.2l1.1,0l1.1-0.2l2.1-0.9l1-0.6l0.5-0.2l2.6,0.3l1.1-0.4l2.1-1.5l1-0.5
		l0.7-0.1l0.4-0.5l0.3-0.6l0.6-0.3l3.6,0.9l0.5,0.3l0.5,0.5l0.7,1l0.1,0.1l0.4,0.1l0.3-0.1l0.3-0.1l0.3,0l1.7,0.6l1,0l0.6,0.2l0.2,0
		l0.4-0.2l0.1-0.2l0-0.3l0.1-0.5l0-0.1l0.7,0l0.1-1l0.4-0.7l0.5-0.4l2.5-0.6l0.3-0.1l0.2-0.2l0.4-0.6l0-0.1l0.3-0.7l0.1-0.1l0.2-1.4
		l0-0.6l0.1-0.6l0.2-0.5l0.3-0.3l0.7-0.1l0.4-0.1l1.5-1.3l0.8-1.6l-0.1-1.8l-1-2l-0.8-0.7l-0.1-0.2l0.1-0.4l0.3-0.5l0.7-0.7l0.8-0.3
		l1.5-0.3l0.7-0.5l1.7-2.3l1-0.5l0.4-0.3l0.3-0.4l0.2-0.5l0-0.5l-0.2-0.2l-0.1-0.2l0.3-0.6l0.7-0.8l0.9-0.5l1.5-0.3l0.5-0.1l1,0.2
		l0.5,0.7l0.1,1.1l0,1.5l-0.1,1.5l-0.6,2.6l-0.1,1.3l0.1,1.2l0.4,0.8l0.6,0.5l0.9,0.4l1,0.5l1,1l2.2,3.3l0.3,0.2l0.7,0.2l1.6,1
		l0.6,0l0.2-0.1l0.5-0.5l0.2-0.1l0.2,0.1l0.1,0l0.3,0.5l0.3,0.2l0.6,0.1l1.1,0l0.5,0.2l0.9,1.2l-0.5,1.2l-1,1.2l-0.6,1.4l-0.1,0.2
		l-0.1,0.1l0.6,0L269,86l2,1.1l0.2,0.2l0.2,0.3l0.3,0.8l0.6,1.1l0.3,0.7l0.2,0.7l0.1,0.9l-0.1,0.6l-0.2,0.6l-0.1,0.8l1.4-0.4
		l1.1,0.5l1,0.2l1.1-1.4l0.9-1.7l0.1-0.9l-0.4-0.8l-0.3-0.2l-0.8-0.2l-0.3-0.2l-0.3-0.5l-0.3-0.9l-0.4-0.4l-0.1-0.1l0-0.1l0-0.1
		l0.1-0.1l1.1-1.1l-0.6-1.7L276,83l0.9-0.7l0.8-0.2l0.3-0.2l0.3-0.5l0.1-0.6l-0.1-1.1l0.1-0.6l0.6-1l2.5-1.7l0,0l0.3-0.5l0.2-0.6
		l0.2-0.5l0.4-0.3l0.4-0.2l0.4-0.4l0.3-0.5l0.5-1.8l1-2.1l0.2-1.1l0-0.6l-0.5-1.8l0-0.7l0.1-0.6l-0.1-0.5l-0.5-0.3l-0.3-0.7l0.3-1.2
		l0.6-1.2l0.7-0.6l1.7-0.2l0.7,0.2l0,0.6l0.9,0.8l0.3,0.1l0.4-0.2l0.2-0.3l0.1-0.4l0.2-0.3l0.6-0.4l0.3-0.1l0.1,0.3l0.2,4.8
		l-0.1,0.8l0.1,0.3l0.3,0.2l0.8,0.4l0.3,0.3l0.7,1.8l0.4,0.6l0.7,0.5l0.8,0.3l4,0l0.7-0.3l0.5-0.7l0-0.4l-0.1-0.6l0.1-0.6l0.4-0.4
		l0.4,0l0.8,0.5l0.4,0.1l0.7-0.2l2.3-1.2l1.5-0.3l0.7,0.1l0.7,0.2l0.9,0.6l0.2,0.8l0,1L310,70l0.5,0.7l1.4,1.2l0.4,0.9l0,1.1l1.2,0
		l1.5-0.6l1-0.6l0.5-1l-0.4-0.9l-1.4-1.5l-0.3-0.6l-0.1-0.4l0-0.5l0.2-0.7l0.3-0.5l0.7-0.7l0.3-0.3l0.3-1.1l-0.3-0.6l-0.6-0.2
		l-1.6-0.3l-1-0.4l-0.5-0.7l0.6-1l-0.3-0.2l-0.2-0.3l-0.1-0.4l0-0.5l0.2-0.5l0-1.1l0-0.4l0.3-0.5l0.8-0.8l0.3-0.4l0.4-1.7l0.2-0.4
		l0.3-0.2l3.3-1l0.9,0l0.6,0.5l0.1,0.6l-0.2,1L319,56l1.4,0.5l0.3,0.2l0.2,0.3l0.2,0.2l0.4,0.2l0.4,0.1l1.2-0.1l2.5,0.7l0.6-0.1
		l0.3-0.5l0.2-0.4l0.3-1.3l0-1.3l-0.3-1l-0.7-0.6l-1.5-0.2L324,52l-0.3-1l0.2-0.5l0.4-0.4l0.3-0.6l0.1-0.7l0-0.6l0.1-0.5l0.6-0.4
		l0.4-0.6l-0.1-0.7l-0.2-0.7l-0.1-0.8l0.8-0.9l0.2-0.3l0.1-0.5l0.2-1.6l1.1,0.9l1.4,0.2l3.5-1l0.6-0.1l0.5,0.1l2.7,1.6l0.3,0.5
		l-0.2,0.4l-0.8,0.6l-0.2,0.3l0.2,0.4l0.4,0l0.7-0.2l0.4,0.1l1,0.6l0.3,0l0.7-0.2l0.4,0l0.3,0.2l0.6,0.5l0.4,0.1l0.3,0l1.2-0.4
		l0.6-0.1l1.2,0.1l0.6,0.2l0.5-0.1l0.5-0.5l0.8-1.3l0.1-0.1l0.4-0.2l0.2-0.2l0.1-0.3l0-0.5l0-0.2l0.7-1.6l0.4-1.8l0.3-0.6l2.3-2.2
		l0.6-0.4l2.4-0.8l2.4-0.4l1.2,0.3l1.1,0.5l1.1,0.1l1.2-1.1l0,0l0.3-0.4l0.3-0.2l0.3-0.1l0.6,0.1l0.2,0.1l0.2,0.2l0.2,0.2l0.3,0.2
		l0.3,0.1l0.3-0.1l0.3-0.2h0l0,0h0l1-0.3l0.8-0.1l1.8,0.4h0l0,0l0.3,0l0.3,0l0.7,0.1l1.1,0.8l0.7,0.2l0.4-0.1l0.7-0.6l0.4-0.2
		l1.6-0.3l1.2-1l1.5-0.8l1.5-0.5l2.5-0.1l3.5-1.8l0.6-0.1l1.7-0.3l0.8,0.3l0,0.6l0,0.7l-0.7,1l-2.1,1.2l-0.4,0.9l0.2,0.5l0.2,0.6
		L385,37l0.2,0.6l0.2,0.5l0,0.5l-0.5,0.5l0.4,0.2l0.8,0.1l0.4,0.2l0.4,0.4l0.2,0.3l0.2,0.2l0.5,0.2l1.5,0.1l0.6,0.4l0.3,1.1l0,0.6
		l-0.1,0.4l-0.1,0.4l-0.1,0.6l0,0.7l0.1,0.3l0.2,0.2l0.3,0.2l0.7,0.3l0.7,0.1l0.6,0.4l0.3,1.1l0.7,1.6l1.2,1.1l1.4,0.6l0.8,0.1
		l1.1,0.2l1.1,0.7l0.6,0.3l0.5,0l2-0.3l1.7,0.2l0.1,0l0.3,0.1l0.6,0.5l0.3,0.1l0.3,0l0.6-0.2l0.3,0l0.3,0.1l0.9,0.3l2,1.3l8.2,0.6
		l2.9,0.7l2.2,1.4l0.7,0.3l1.4,0.1l3.6-0.8l1.5,0.3l2.1-0.2l0.2,0.1l0.5,0.6l0.3,0.2l1.5,0.1l4.2,1.4l0.5,0.1l0.5-0.1l0,0.4
		l-0.1,0.4l-0.1,0.3l-0.2,0.3l-0.1,1.3l-0.1,0.2l-0.3,0.6l-0.7,0.4l-0.9,0l-1.2,0.2l-0.9,0.8l-0.7,1l-0.8,0.9l-1.6,0.9l-0.8,0.6
		l-0.4,0.2l-0.5,0l-0.4,0.5l-0.5,1.1l-0.5,0.9l-0.2,0.3l-0.9,0.6l0.3,0.5l0.2,0.6l0.2,1.3l0,0l0,0l0.5,0.6l0.1,0.7l0.3,0.4l1-0.1
		l-0.5-0.9l0.5,0.2l1,0.1l0.5,0.3l1,0.2l0.7,0.5l1,1l0.9,0.1l1-0.1l0.5,0.1l0.3,0.1l0.1,0.5l0.1,0.5l-1,1.8l-3.3,2.5l-0.6,0.5
		l-0.8,1.1l0.3,0.3l0.1,0.3l-0.1,0.3l-0.3,0.4l-0.2,0.1l-0.5,0.5l0.5,0.5l0.2,0.1l0,0l0,0l0,0l0,0.1l0.9,1.1l1-0.1l1.1-0.5l1-0.2
		l0.2,0l0.6,1l-0.3,1l-0.2,1l-0.3,0.7l-1,2.4l-0.1,1.7l0.3,0.6l0.2,0.5l1,0.5l1.2,0.1l0.6,0.2l1.4,1.1l0.3,0.3l2.4,1.1l2.8,4.7
		l0.4,0.4l0.5,0.3l0.3,0l0,0l0,0.1l-0.3,0.7l-0.7,0.8l-0.7,0.9l-1.6,0.2l-1.4-0.7l-1.7,0.2l0.2-0.4l0.4-0.6l0.9,0l1,0.1l0.7-0.2
		l-0.4-0.1l-0.3-0.4l-0.3-0.6l-1.3-0.7l0.6-0.3l-0.1-0.9l-0.5-1l-0.4-0.6l-2.8-2.9l-0.6-0.5l-1.9-0.8l-0.8-0.1l-0.6,0.5l-0.4,1.1
		l0.1,1l0.9,0.2l-1.3,0.6l-0.2,0.2l-0.2,0.3l-1,0.2l-0.4,0.2l-0.6,0.7l-0.8,0.6l-0.9,0.3l-0.9-0.4l0.5-0.1l0.6-0.3l0.5-0.4l0.2-0.4
		l-0.3-0.9l-1.4-0.3l-0.4-0.7l-0.6,0.2l-3.4-0.8l-0.3-0.1l-0.8-0.9l-0.2-0.1l-0.4,0.1l-1.2,0.4l-0.4,0.7l-0.3,0.2l-0.3-0.2l-0.3-0.7
		l-0.4-0.2l-0.3,0.2l-0.1,0.5l0.1,0.5l0.4,0.2v0.4l-0.8,0l-0.7,0.4l-0.4,0.7l0.2,0.8l0.6,0.4l0.7-0.1l1.3-0.6l-0.4,0.7l-1.2,1
		l-0.3,0.8l0,0l-0.4,0.5l-0.9,0.3l-2.7,0.1l-1.3,0.3l-5.7,3.7l-5.9,2.9l-3.4,1.3l-0.6,0.5l-0.3,0.2l-1.3,0.3l-1,0.6l-0.5,0.1
		l0.3-0.7l0.4-0.6l0.2-0.5l-0.2-0.5l0.3,0.1l0.2-0.1l0.1-0.2l0-0.5h0.2l0.2,0.4l0.1,0.2l0.2,0l0.2-0.2l-0.5-0.7l0.4,0l0.4,0l0.4-0.1
		l0.1,0.1l0-0.1l0.1,0.1l0.1,0.2l0,0l-0.1,0l-0.4,0v0.4l0.8-0.1l0.2-0.6l0-0.7l0.3-0.3l0.6-0.1l0.5-0.2l0.4-0.4l0.3-0.6l-0.4,0.2
		l-0.9,0.6l-0.2,0l-0.7-0.7l-0.3-0.5l-0.1-0.7l-0.7,0.4l-0.9,0.8l-0.6,0.9l0.3,0.6v0.3l-0.6,0l-0.6-0.6l-0.3,0.3h-0.2l-0.2-1.1
		l-0.4,0.8l0.2,0.4l1.2,0.5v0.3l-0.4,0.2l-0.6,0.1l-0.4-0.2l0.1-0.5l-1.1,0l-1.4,0.8l-1.3,1.3l-0.7,1.4v0.3h0.2l-0.3,0.5l-0.1,0.5
		l0.1,0.4l0.4,0.4l-0.3,0.5l-0.1,0.4l0,0.4l-0.1,0.5l-0.3,0.2l-0.3,0l-0.2,0.2l0.3,0.7l-0.4,0.7l-0.2,0.5l-0.3,0.4l-0.7,0.1
		l-0.5-0.2l-0.4-0.3l-0.3,0.1l-0.2,1.1l0.4,0.4l0.3,1l0.4,0.2l0.4-0.2l0.3-0.6l0.1-0.7l-0.2-0.6l0.7,0.3l0.1,0.5l0,0.7l0.2,0.9
		l-0.4,0.2l-0.1,0.3l0.1,0.3l0.3,0.3l-0.1,0.7l0.3,0.6l0.6,0.4l0.7,0l-0.1-0.2l0,0l-0.1-0.1l0.5-0.4l0.8-0.8l0.4-0.2l-0.3,0.8
		l0.2,0.7l0.4,0.7l0.2,0.7l0,1.7l0.2,1.9l-0.4-0.1l-0.4-0.2l0-0.3l0-0.5v-0.2l-0.3,1.1l0,0.9l0.3,0.5l0.8-0.1l-0.1-0.2l-0.1-0.2
		l-0.1-0.3l0.7,0.6l0.4,0.7l0.4,0.7l0.5,0.7v0.3l-0.3,0.1l-0.1,0.1l-0.1,0.1l-0.2,0.1l0.5,0.7l0.5-0.8l0.1-0.6l-0.2-0.6l-0.4-0.7
		l0.5,0.5l0.6,0.3l0.4,0.3l-0.1,0.5l0.6,0.6l0.3,0.2l0.4,0.2l0.7,0.9l0.7,0.8l0.5-0.4l-0.1,0l-0.2,0l-0.1,0v-0.4l0.6,0l0.5,0.2
		l0.4,0.4l0.2,0.5l0,0.5l-0.3,0.5l0.1,0.3l-0.3,0.5l-0.1,0.3l-0.1,0.3h-0.2l-0.3,0l-0.1,0.5l-0.1,1.6l-0.2,0.8l-0.5,0.8l-1,1.2
		l-0.1-0.2l-0.2-0.5l-0.2-0.5l-0.3-0.4l0.5-1.1l0.1-0.6l-0.2-0.5l-0.4-0.2l-0.4,0.3l-0.3,0.4l-0.1,0.3l-0.4,0.8l0,0.5l0.9,0.4l0,0.4
		l-0.3,0.4l-0.4,0.1v0.3l0.2,0.1l0.4,0.2l0.3,0l-0.3,0.8l-0.6,0.5l-0.8,0.1l-0.6-0.6l-0.4-0.5l-0.9-0.9l-0.6-0.5l-0.4,0l-0.9,0.8
		v0.3h0.5l-0.9,3.4l-0.2,1.9l0.2,2.1l0.5,1.6l0.3,0.8l0.3,0.3l0.1,0.5l-0.2,3.5l0.1,2.2l1.1,4.9l0.1,1.3l0.1,0.4l0.2,0.3l0.5,0.7
		l0.1,0.2l0.1,1l0.2,1l0.6,1.8l0.7,1.4l0.9,1.3l1.4,1.4l0.7,1.3l1.1,1.2l1.3,1l0.9,0.4l2,2.7l1,1.1l1.1,0.9l0.7,0.4l1.5,0.5l0.1,0
		l1.7,0.2l0.7,0.4l1.4,1.1l2.3,0.9l0.3,0.5l0.3,0.3l10.7,9.4l4.1,2.5l0.7,0.3l0.3,0.4l1.6,0.6l0.9,0.6l0.3-0.2l0.3-0.4l0.2-0.2
		l0.1,0l0.1-0.1l0.1-0.1l0.2,0l0.2,0.1l0.1,0.2l0.1,0.2l0.1,0.1l0.7,0.4l0.5,0.8l0.4,0.8l0.3,0.4l0.7,0.2l0.6,0.4l0.3,0.6l-0.3,0.8
		l5,12.8l0.5,1l0.1,0.3l0.2,1.7l0.1,0.4l0.4,0.7l1.1,2.4l0.5,1.7l0.6,4l1.4,5l1.4,4.9l1.2,3.2l0.7,1.5l2.2,3.5l0.2,0.7l0.2,0.5
		l5.1,6.1l2.2,2l2.5,1.7l1.1,0.9l1.5,2.4l4.6,4.5l1.2,0.8l2,0.8l1.4,0.3l0.5,0.5l0.3,0.7l0.2,1.9l0.2,0.9l0.4,0.7l0.6,0.3l0.2,0
		l0.6,0.1l0.7,0.4l1.2,1l1.2,0.6l2.8,0.5l1.5,0.5l0.5,0.4l0.9,1.3l0.4,0.3l0.6,0.2l1.4,1.1l0.7,0.4l0.7,0.1l0.8,0.2l4.1,0l4.1,0.9
		l1.6,0l5.8-1l5.7,0.3l8.8-1.1l2.9,0.8l0,0.1l1,0.3l0.7,1.3l0.6,0l-0.1,0.7l0.3,0.9l0.3,1.7l0,0.6l0,0.8l-0.3,0.5l-0.6,0.8l-0.7,0.7
		l-0.6,0.3l-0.7,0.2l-0.6,0.5l-0.9,1.1l-1.2,1l-3.6,1.9l-0.9,1.2l-0.3,1.8l0.2,1.9l0.5,1.6l0.8,1.1l1,0.9l2.1,1.5l2.2,0.7l0.5,0.4
		l0.5,0.5l6.5,3l5.5,3l2.1,0.6l0.6,0.5l0.6,0.6l1.4,0.9l8.2,2.8l0.7,0.6h0.2v-0.3h0.2l0.7,0.8l6,1.9l5.1,2.8l2.6,1.9l1.2,1.2l1.3,2
		l0.5,0.3l0.6,0.2l1.3,1l2.2,2.3l0.6,0.3l0.7,0.2l1.3,0.8l3,0.8l0.4,0.2l3.6,1.5l3.3,2.5l2.7,0.5l1.2,0.6l0,1.1l0.4,0l0.9-0.3
		l0.5,0.1l0.1,0.3l0,0.4l0.2,0.5l0.8,0.8l0.1,0.3l-0.2,2.1l2.9,2.4l3.2,1.8l0.7,0.2l0.2,0.2l0.7,1.2l0.4,0.4l1.2,1l0.9,1.5l0.5,0.7
		l0.6,0.3l0.3,0.3l2.3,3.2l2.2,5.3l0.1,0.3l0.2,0.2l0.2,0.1l-0.2,0.5l0.1,0.3l0.1,0.3l0,0.4l-0.3,0.5l-0.6,0.5l-0.3,1.3l-0.5,0.5
		l-1.3,1l-0.8,2l-0.1,0.5l-0.1,1l-0.3,1l-0.1,0.4l0.2,1.2l0,0.5l-0.5,2.4l0.1,0.4l-0.2,0.1l-0.4,0.6l-0.2,0.1l-0.8-0.1l-0.3-0.1
		l-0.3-0.1l-1.7-1.4l-0.6-0.2h-1.4l-0.5-0.1l-0.9-0.6l-0.9-0.4l-1.1-1l-1.3-0.9l-0.5-0.2l-0.3-0.2l-2.2-3.4l-0.4-0.4V371l0.5,0
		l0.3-0.3l0.1-0.5l-0.2-0.7l-0.4-0.4l-0.9-0.3l-0.4-0.3l1.2-0.8l0.3-1l-0.5-1.1l-1-1.2l-0.9-0.8l-0.5-0.6l-0.2-0.7l0-0.9l-0.1-0.8
		l-0.2-0.6l-0.4-0.4h0.5v-0.3l-1.7-1.4l-0.5-0.2l-11.7-0.6l-0.6-0.2l-1.9-1.1l-0.3,0l-0.7,0.1l-0.4,0l-0.3-0.2l-0.6-0.6l-0.2-0.1
		l-0.6-0.2l-1.9-1.1l-2-0.7l-0.9-0.5l-0.4-0.6l0.8-0.4l0.7-0.6l0.2-0.7l-0.7-0.8l0.7-0.3l1.7,0.3l0.7-0.4l0.2-0.8l-0.7,0l-1.5,0.5
		l0.1-0.1l0.2-0.2l-0.7-0.3l-0.6,0.3l-0.6,0.5l-0.7,0.2L561,349l-0.2-0.4l-0.2-0.4l-0.2-0.3l-0.4-0.1l-0.8,0l-0.3-0.1l-2.6-0.2
		l-2.6,1.2l-2.2,2.2l-1.7,2.5l-2.8,4.1l-0.7,1.5l-0.8,2.7l-0.2,0.5l-0.5,0.3l-1.3,2.2l-1.4,1.2l-0.5,0.5l-0.7,1.1l-0.3,1.7l0.1,0.6
		l0.5,1.7l0.6,1.4l-0.3,0.6l-0.6,0.5l-0.6,1l-1.6,1.6l-1.2,2.2L537,380l-0.1,1.4l0.4,1.3l0.9,1.2v0.3l-0.5,1.1l1.1,1.3l1.6,1.1
		l1.2,0.5l4.4,0.2l1.1,0.4l0.5,0.4l0.6,0.6l0.5,0.7l0.2,0.7l0.3,0.4l2.1,1l1.6,1.4l0.6,0.2l0.9,0.1l0.6,0.3l0.4,0.5l0.4,0.7l0.7,0.9
		l1.1,0.9l1.2,0.6l1.2,0.1l-1.3,3.1l-0.3,2.5l0,0.6l0.1,0.6l0.2,0.5l0.6,1l0.1,0.5l-0.2,1.4l-0.6,2.6l0.1,1.4l0.8,1.6l0.1,0.4
		l0.2,0.2l1.2,0.4l0.5,0.1l-0.7,0.5l-0.4,0.3l-0.1,0.3l0,1.8l0,0.2l-1.2,1.1l-0.1,0.2l-0.3,0.2l-0.3,0.4l-0.5,0.9l-0.3-0.9l-0.9-0.2
		l-1,0.3l-0.7,0.5l-0.9-1.1l-0.5-0.3l-0.8-0.1l-0.8,0.1l-3.4,0.9l-3.9,1.8l-1.4,1l-0.3,0.4l-0.3,0.3l-2.1,1.1l-0.9,0.8l-0.4,0.6
		l-0.4,1.3l-0.4,0.7l-0.4,0.8l-0.1,1l0.4,0.3l0.1,0.1l0,0.8l0.4,3.4l0.6,3l0,1.1l-0.3,3.3l-0.3,0.6l-1.4,1.3l-0.5,0.7l-0.4,0.1
		l-1.1,0.9l-1.1,0.4l-3.3,1.7l-1.2,1.1l-4.8,5.9l-0.6,1.4l-0.9,4.7l-0.5,1.4l-0.3,0.6l-0.4,0.5l-0.4,0.4l-0.5,0.3l-1.6,0.4l-0.5,0.3
		l-2-0.6l-6.3,0.3l-0.9-0.3l-0.9-0.4l-0.8-0.6l-0.6-0.6l-0.7-0.9l-0.4-0.9l0.1-0.8l0.7-0.7l-0.9-1.4l-0.3-0.8l0.1-0.7l0.5-0.8
		l0.2-0.8l0-0.8l-0.3-1.1l-0.2-1.5l0.6-0.9l1.2-0.5l3.6-1.1l0.3-0.3l0.1-0.2l0.5-0.4l0.1-0.2l0.5-2l2.6-5.5l0.5-1.9l-0.1-1.5
		l-0.6-1.2l-1-1.2l-0.3-0.2l-0.5-0.2l-0.2-0.2l-0.3-0.5l-0.1-0.2l0.1-0.2l0-0.4l0.3-0.5l0.6-0.4l1.5-0.5l2.2-1.5l1.2-0.6l1.6-0.1
		l2.5,0.3l0.5-0.1l0.6-0.3l0.9-0.8l0.8-1.3l0.5-1.7l0.2-1.9l-0.1-1.9l-0.2-0.9l-0.4-0.7l-0.5-0.4l-0.7-0.1l-0.5-0.4l-0.5-0.8l-2-4.6
		l-1.4-10.6l-0.3-1.6l-1.3-4.2l-1.3-1.8l-0.9-1.6l-1-1l-1-0.7l-0.3-0.6l-0.3-1.1l-0.3-1.2l-0.5-1.7l-0.7-1.2l-0.3-0.8l-0.6-4.6v0.3
		l-0.2-0.9l-0.2-0.5l-0.3-0.2l-0.1-0.3l0.4-1.7l-0.3-1l-1.1-1.7l-0.3-0.6l-0.2-0.9l-0.5-0.8l-1.2-1.3l-0.9-1.6l-0.7-0.6l-0.2-0.3
		l0-0.6l-0.5,0.2l-2.6-0.2l-0.8,0.5l-0.6,1l-1.2,0.8l-1.1,1.3l-0.7,0.3l-1.7-0.2L497,371l-1-1.3l-0.4-0.1l-0.3,0.2l-0.4,0.1l-0.4,0
		l-0.4,0v-0.3l0.6-0.5l-0.5-1.2l-1-1.2l-0.8-0.5l-0.7-0.3l-2.2-2.3l-0.5-0.2l-0.6,0.1l-1.1,0.3l-0.6-0.1l-0.4-0.3l-0.4-0.9l-0.7-0.7
		l-0.9-0.4l-0.3-0.2l-0.3-0.3l-0.7,0.2l-0.6-0.5l-0.4-0.2l-0.1-0.8l0.9-1.2l0.3-1l-0.2-0.8v-0.4l0.3-0.2l0.4-0.1l0.4-0.2l0.3-0.3
		l0.8-0.3l0.2-0.5l-0.1-1.3l-0.8-1.6l-3-6.5l-1-1.6l-0.9-1.2l-0.9-0.9l-1-0.8l-1-0.3l-1.1,0.5l-1,0.8l-0.4,0.1l-1.8-0.1l-0.4,0.1
		l-1.5,1.3l-0.9,0.2l-1-0.3l-1-0.6l-0.5,0.4l-1.7,0.4l-0.7,0.6l-1.6,0.8l-0.5,0.6l-0.4-0.6l-0.1-1l0.3-0.9l0.8-0.4l0.7-0.1l0.3-0.1
		l0.4-0.3l0.2-0.6l1.4-1.4l1.1-0.4l0.1-0.8l-0.2-0.8l-0.5-0.7l-0.6-0.5l-0.7,0.2l-0.6-0.3l-0.4-0.2l-0.4-0.5l-0.6-0.4l-0.6-0.8
		l-1.3-1.4l-0.6-0.5l-0.6-0.1l-1,0.1l-0.9,0.3l-0.4,0.5l-0.3,0.9l-0.7,0l-0.6-0.7l-1.1-0.1l-0.8-0.5l-0.5-0.2l-0.5,0.1l-0.2,0.4
		l0,0.5l0.1,0.6l0,0.6l-0.3-0.1l-1-0.2l-0.2-0.3l0.4-1.9l-0.3-1.7l-0.8-2.2l-2-3.4l-1.2-0.8l-0.4-0.4l-0.1-0.4l-0.1-1l-0.1-0.5
		l-0.9-1.9l-1.1-2l-2.1-2.7l-2.4-2.2l-0.5-0.2l-1,0.3l-0.5,0l-0.2-0.4l-2.2,0.3l-1.1,0.7l0.4,1.4l-1.1,0.1l-0.3-0.1l-0.3-0.3
		l-0.2-0.5l-0.2-0.2l-0.3,0.4h-0.3l-0.7-0.8l-5.4-2.6l-1.3,0l-2.8,0.6l-0.6,0.3l-1.2,0.8l-1.3,0.4l-0.8,1.1l-0.8,0.2l-0.8-0.3
		l-0.3-0.6l-0.1-0.8l-0.3-0.8l-0.4-0.6l-0.7-1.3l-0.5-0.7l-1.9-2.3l-1.1-0.9l-1.1-0.7l-0.7-0.2l-2.7-0.1l-0.5-0.1l-2.4-1.6l-0.9-0.4
		l-0.4,0.3l-0.2,0.5l-0.6-0.5l-2.6-4l-3.4-4l-3.7-3.3l-0.5-0.4L391,292l-0.5-0.5l-0.3-0.1l-1-0.2l-0.3-0.1l-0.5-0.7l-0.3-0.8
		l-0.1-0.9l0-1l-0.2-0.9l-0.4-0.9l-0.9-1.5l-0.8-1.1l-3.4-2.7l-0.4-0.2l-0.3-0.4l-0.1-0.6l-0.2-0.3l-1-0.2l-0.3-0.2l-0.5-0.5
		l-0.6-0.5l-0.6-0.4l-0.6-0.3l-2.7,0.1l-0.4,0.1l-0.2-0.6l-0.4-0.9l-0.5-0.8l-0.5-0.4l-0.3-0.6l-0.8-1l-0.2-0.4l-0.1-0.7l-0.2-0.8
		l-1.9-3.9l-0.8-1.3l-4.2-3.3l-1.7-0.5l-2.4-1.3l-0.9-0.3V260l-0.3-0.2l-0.4-0.1l-0.4,0l-0.4,0l0.3,0.3l-1,0l-2.6-1l-0.5-0.1l-0.6,0
		l-0.6,0.2l-0.2,0.4l-0.1,0.7l-0.5,0.8l-0.1,0.6l-0.3-0.1h-0.3l-0.3,0.1l-0.1,0.1l-0.3-0.2l-0.5-0.6l-1-0.3l-0.4-0.5l-0.3-0.7l0-0.5
		l0.4-0.6l0.5-0.2l1,0.4l0.8,0l0.5-0.8l0.3-1.1l0-1.2l-0.1-0.8l-0.7-1.2l-0.3-0.8l-0.3,0l-0.4,0.2l-0.3,0l-0.4-0.7l-0.3-0.9
		l-0.3-0.8l-0.6-0.3l-0.1-0.9l-0.8-0.7l-1.7-1l-0.2-0.6l-0.2-0.8l-0.2-0.7L345,245l-0.3-0.2l-1-1.1l-1.8-1l-5.6-1.9l0.8-0.7l0.3-0.8
		l0.1-0.9l0-1.1l0.1-0.3l0.2-0.2l0.1-0.3l-0.2-0.6l-0.3-0.5l-0.4-0.3l-2.4-1.1l-1.7-0.4l-1.7-0.1l-1.5,0.5l0.2,0.5l0.1,0.2l-1,0.5
		l-0.7-0.7l-0.8-2.4l0.9-0.7l0.5-0.9l0.8-2.6l-0.1-0.6v-1l0.1-1l0.3-0.6l-0.3-0.8l-0.1-1l-0.1-2l-0.2-1l-0.4-1L326,213l-2.2-3.1
		l-0.5-0.6l-1.1-0.6l-0.3-0.8l-0.8-3.6l-1.1-11.6l-0.4-1.8l-1.4-3.6l-1-1.7l-1.5-1.1l-1.1-1.8l-0.5-0.4l-0.6-0.2l-1.3-0.9l-0.7-0.2
		l-0.6-0.3l-0.3-0.1l-0.2,0.2l-0.1,0.3l-0.3,0.2l-0.3,0.1l-0.3-0.2l-0.6-0.6l-1.2-0.9l-0.6-0.6l-0.4,0.3l-1.1-1l-0.6,0.1l0.2,0.4
		l-0.2,0.1l-0.2,0.1l-0.2,0.1l0.2,0.4l0.2,0.3l0.3,0.2l0.3,0.1v0.3l-0.2,0.1l-0.1,0.1L305,181l0.5,0.3l-0.1,0.2l-0.4-0.1l-0.2-0.6
		l-0.2-0.4l-1.7-0.8l-1.8-1.7l-0.4-0.2l-0.9-0.9l-0.4-0.2l-1-0.1l-0.4-0.1l-0.3-0.2l-1.2-1.4l-0.2-0.1l-0.2-0.6l-0.6-0.4l-1.6-0.7
		l-0.4-0.3l-0.3-0.4l-0.2-0.6l-0.4,0.2l-0.6,0.1l-0.6-0.1l-0.3-0.4l-0.2-0.5l-1.7-0.7l-0.2-1.1l-3.7-2l-1.1-0.8l-0.3,0.5l-0.3,0.5
		l-0.1,0.6l0,0.8l-1.6-0.6l-0.6-0.5l0.1-0.6l-0.6-1.1l-1-0.5l-3.5-0.6l-1.7-0.6l-1-0.6l-0.3,0.1l-1.6,0l-0.8-0.2l-0.3-0.2l-0.4-0.5
		l-2.3-0.2l-0.9,0.2l-0.4,0.2l-1,0.8l-0.4,0.4l-0.2,0.2l-0.3,0l-0.3,0l-0.3,0l-2.1,1.6l-0.6,0.1l-0.4,0.2L260,167l-2.6,1.7l-0.8,1
		l0.2,1l-0.4,0.5l-0.1,0.3l0,0.3l-0.1,0.1l-0.5,0.4l-0.2,0.2l-0.2,0.6l0.1,0.5l0,0.5l-0.5,0.5l-0.9,0.4l-1.9,0.6l-1,0.6l-0.5,0.5
		l-0.5,0.5l-0.8,1.2l-0.1,0.4l0,0.8l0,0.4l-0.2,0.7l-0.3,0.6l-1.6,1.9l-0.6,1.1l0.5,1v0.3l-0.8,0.2l-1,1.2l-0.9,0.4l-0.3,0.2
		l-0.2,0.3l-0.1,0.2l-0.2,0.4l-0.4,0.2l-0.8,0.2l-2.5,1.7l-6.1,1.5l-1.7,1.1l-1.4,0.3l-4.3,0l-1,0.3h-0.5l-0.3-0.2l-0.4-0.1l-0.4,0
		l-0.7-2.3l-0.2-1.2l0.5-1l1.5-1.7l0.7-1.1l1.8-1.5l0.8-0.9l0.3-0.6l0.3-1.1l0.2-0.6l0.4-0.4l0.5-0.4l0.4-0.5l0.1-0.8l-0.1-0.3
		l-0.4-0.9l-0.8-0.8l-0.4-0.9l0.5-1.6l-1.1-0.2l-1.4,0.9l-1,0.1l-6.1,1.8l-1.4,0l-0.3-0.1l-0.3-0.3l-0.2-0.4l-0.2-0.4l-0.5-0.2
		l-0.9-0.2l-0.7-0.3l-3.7-2.3l-1.4-0.5l-2-1.1l-0.4-0.1l-0.5,0l-0.4,0.1l-0.4,0.1l-0.5-0.2l-0.3-0.4l-0.2-0.4l-0.1-0.5l-0.2-0.5
		l-0.3-0.4l-0.7-0.5l-0.3-0.3l-0.2-0.4l-0.4-1l-0.3-0.5l-0.8-0.9l-0.1-0.2l-0.1-0.4l0-0.2l0.1-0.3l0.3-1.5l0.2-0.4l1.2-0.6l-0.9-0.8
		l-1.1-1.1l-0.8-1.4l-0.1-1.5l0.4-0.7l1.8-1.4l1.2-2.1l0.5-0.4l-0.4-1l0.2-1l0.6-0.8l0.8-0.4l0.6,0l1.3,0.4l0.6,0l-0.2-0.6l-1.1-2
		l-0.1-0.4l-0.2-1.2l-0.4-1.1l0-0.1l0.2-0.8l0.1,0l0-0.2l0-0.1l0-0.1l-0.1-0.3l-0.1-0.2l-0.6-0.7l-1.7-0.7l-0.6-0.1l-1.7,0.3
		l-0.7-0.2l-2.4-1.4l-1.1-1l-0.6-1l0.1-2.8l-0.2-1.4l-0.9-0.7l-1.2-0.1l-0.4-0.3l-0.4-0.7l-0.1-0.4l0-0.4l-0.1-0.3l-0.6-0.5
		l-0.6-0.9l0.4-0.6l0.5-0.4l0.1-0.1l1.2-0.7l0.3-0.1l0.6,0l0.3,0l0.3-0.2l0.6-0.5l0.3-0.1l1.2,0.2l1.3,0.7l1.3,0.4l1.1-0.5l0.1-0.3
		l-0.2-0.2l-0.2-0.3l0.2-0.4l0.3-0.1l0.8,0l0.3-0.1l0.5-0.5l0.6-1.1l0.5-0.4l1.2-0.6l1.2-0.3l0.3,0.1l0.4,0.5l0.2,0.1l0.2-0.2
		l0.7-1.2l0.9-0.8v-0.8l-0.4-1l-0.2-1.4l0.2-0.3l1.1-1.3l0.7-1.3l0.3-0.8l0-0.6l-0.3-0.2l-1.5-0.7l-0.5-0.4l-0.3-0.6l-0.2-0.6
		l-0.2-0.4l-0.1-0.2l-1.5-1.1l-1.6-0.9l-0.3-0.7l-0.2-2.1l-0.1-0.4l-0.4-0.6l-0.1-0.4l0.1-0.4l0.4-0.9l0.1-0.3l-0.2-0.7l-0.4-0.3
		l-1.1-0.3L203,102l-0.8-0.8l-0.5-0.2l-0.9-0.2l-0.9-0.7l-0.7-1.1l-0.4-2.1l-0.1-0.9l0-0.9l0.2-0.8l0.4-0.7l0.5-0.3l0.9-0.3l0.3,0.1
		l0.2,0.1l0.2,0.3l0.2-0.1l0-0.2l0-0.3l0-0.3l0.2,0l0.9,0l0.7-0.2l0.8-0.4l0.7-0.6l0.5-0.8l0.2-0.7l0.3-0.6l0.4-0.5L207.1,88.7z
		 M395.4,188.7l1.1-0.2l0.6-1.1l0-0.1l0-0.2l0.1-0.1l0.1-0.1l0-0.1l0.3-0.5l0.1-0.8l-0.1-0.8l-0.2-0.5l-1,0.2l-1.1,0.6l-0.4,0.4
		l-0.5,0.5l-0.3,1.2l0.5,1L395.4,188.7z M396.3,283.4L396.3,283.4L396.3,283.4L396.3,283.4L396.3,283.4L396.3,283.4L396.3,283.4z
		 M380.5,511.9l1.3,1.3l0.5,0.7l0.1,1l-0.8,1.1l-1.2-0.2l-1.2-0.9l-0.8-1l-0.2-0.3l-0.3-0.7l-0.1-0.7l0.4-0.3l0.2,0l0.3-0.2l0.2,0
		l0.2,0.1l0.3,0.4l0.1,0.1l0.3,0.1l0.2,0.1l0.2-0.1L380.5,511.9z M390,463.5l0.5,0l0.4-0.1l0.3-0.2l0.3-0.1l0.2,0.3l0.5,0.3l0.6,0.3
		l0.5,0.1l-0.4,0.5l-0.5,0l-0.6-0.2l-0.4-0.3l-0.5,0.3l-0.4-0.1l-0.3-0.3L390,463.5z M503.4,447.4l1.1,0.1l2,0.9l1.2,0.2l-0.1,0.4
		l-0.2,0.2l-0.3,0.1l-0.4,0l-1.4,0.9l-0.5,0.6l-0.2,0.6l-0.1,0.6l0.6,0l-1.7,2.8l-0.9,2.3l-3.8,4.8l-3.1,4.9l-0.7,1.4l-0.6,0.9
		l-0.9,0.7l-1,1.5l-0.2,0.6l0.1,0.5l0.4,0.8l0.1,0.5l-0.1,0.4l-0.5,0.5l-0.1,0.4l-0.1,0.9l-0.4,1.3l-0.2,0.9l-0.5,1.6l-1.7,2
		l-0.7,1.2l-0.2,0.7l-0.1,0.8l0.1,4.3l0.2,0.7l0.2,0.6l0.2,0.3l2.4,1.4l1.3,0.3l0.7,0.4l0.5,0.7l0.3,1l-0.6-0.5l-0.3,0.2l-0.2,0.5
		l-0.3,0.4l0.1-0.8l-0.2-0.3h-0.4l-0.4,0.2l0.2,0.5l-0.5,0.9l0.4,1.4l0.8,0.9l0.6-0.4l0.5,0.3v0.3l-0.6,0.1l0.1,0.6l0.5,0.7l0.6,0.3
		l0.8,0.1l0.5,0.3l0.2,0.6l-0.2,1.1l-0.5-0.3l-0.2,0.4l0.1,0.5l0.3,0.3l0.7-0.1l0.3,0.2l0.3,0.5l0.1,0.7l-0.3,0.1l-0.4-0.2l-0.2-0.2
		l-0.2,0.1l-1.2,0.7l0.2,0.3l-0.3,0.2l-0.1,0.1l0.1,0.3v0.3l-0.8,0l-0.6,0.3l-0.5,0.4l-0.5,0.2l-0.7,0.4l-0.6,0.9l-1.8,4.5l0,0.5
		l-0.4,0.4l0.2,0.9l0.6,1.4l0.6,2.6l0,0.5l-0.7,0.7l-0.7,0.2l-0.7-0.2l-0.6-0.5l-0.5-0.7l-0.3-0.3l-0.4-0.2l-0.5-0.1l-0.3,0
		l-0.1,0.3l-0.4,0.3l-0.9-0.4l-1.3-1l-1.3-0.5l-1.2,0.2l-2.3,1.2l-0.2-0.4l-0.1-0.1l-0.4,0.2l-0.6-0.6l-2.1-0.3l-0.5-0.8l-0.4-0.4
		l-2-0.8l-0.6-0.4l-0.6,0.1l-2.7-0.7l-0.4-0.5l-2.8-6.1l-0.9-1.2l-3.2-3.1l-2.4-1.6l-2.9-1.4l-1.3-0.2l-3.9,0.3L449,500l-0.7,0.4
		l-0.4,0.1l-1.5-0.2l-2.1-1.7l-1.3-0.5l-1.5-0.3l-1.2-0.5l-1.1-0.8l-2.9-2.9l-1-0.7l-1.2-0.4l-1.6-0.3l-1.3-0.5L430,491l-1.7-1.4
		l-1.5-0.9l-0.6-0.6l-0.3-0.2l-0.4-0.1l-0.4-0.2l-0.9-1.7l-0.2-0.2l-0.8-0.4l-0.4-0.5l-0.3-0.3l-0.4-0.1l-0.2-0.1l-0.3-0.6l-0.2-0.1
		l-4.3-0.6l-0.5,0.3l-0.4,0.1l-0.3-0.2l-0.2-0.4l-0.2-0.9l-0.1-0.4l-0.9-1l-1.1-0.5l-2.8-0.3l-2.8,0.1l-2.9,0.5l-1.3-0.1l-0.8-0.8
		l-1.4-2.4l-0.6-0.6l-0.5-0.3l-1.4,0l-0.6-0.3l-0.6-0.8l-0.5-0.9l-0.3-0.7l-0.2-0.7l0-0.6l-0.1-0.5l-0.3-0.5l-0.4-0.5l-0.3-0.6
		l0-0.5l0.6-0.3l0.1,0.2l0.5-0.3l0.2-0.2l-0.1-0.1l0.2-1.2l0.1,0l0.2-0.8l0-0.4l-0.1-0.2l-0.3-0.5l-0.1-0.4l0-0.3l0-0.1l0.1-0.1
		l0.8-1.7l0.2-1.2l0.2-0.7l0-0.6l-0.4-0.5l1.1-0.4l0.9-1l0.9-0.7l1.1,0.4l1.1-0.8l0.5-0.5l0.2-0.7l0.2-0.4l0.5,0l0.6,0.2l0.4,0.1
		l0.7-0.7l0-1.1l-0.1-1.1l0.4-0.8l0.2,0.5l0.4,0l0.4,0l0.2,0.8l0.9,2l1,1.7l0.4,0.4l1,0.5l0.4,0.3l0,0.4l1.1,0.6l1.5-0.2l2.9-1.3
		l1.2-0.9l0.3-0.3l0.1-0.2l-0.1-0.3l0-0.6l-0.1-0.4l-0.3-0.4l-0.1-0.4l1.2-1.1l-0.2-0.4l0.2-0.4l0.4-0.3l0.4-0.1l0.3,0.1l1.2,0.5
		l0.8,0.2l1,0l0.8-0.4l0.3-1l0.5,0.2l0.4-0.1l0.4-0.2l0.7-0.2l0.5-0.2l0.3,0l0.2,0.1l0.1,0.3l0,0.3l0.1,0.2l1.3,0.9l0.2,0.3l0,1.4
		l0.1,0.4l0.5,1.2l4.3-0.3l1,0.7l-0.1,0.8l0.1,0.4l0.2,0.5l0.4,0.3l1,0.4l1.2,1.1l1,0.6l1.6,0.3l0.5,0.2l-0.1,0.1l0,0l-0.1,0.2
		l0.8,0l2.2,0.3l0.8-0.2l1.6-0.8l1.4-0.3l0.5-0.4l0.4-0.4l0.5-0.3l2.4-0.4l0.5-0.5l1.5,0.8l0.7,0.3l0.8,0.1l0.5-0.1l1.1-0.3l4.2,0.6
		l2-0.1l1.9-0.5l1.6-0.9l1.1,0.5l1.7-0.3l4.3-1.6l1.2-0.8l1-1l1.3-1.6l0.4-0.2l1.1,0.1l0.7,0l2.6-0.7l0.5-0.3l0.3-0.1l0.3-0.1l1,0.1
		l0.3,0.2l0.6,0.8l0.2,0.2l0.4,0l0.9,0.3l1.1-0.1l0.3,0.1l0.1,0.2l0.4,0.6l0.2,0.2l0.7,0.1l0.6-0.2l0.6-0.3l1.9-0.7l0.9-1.2l1.3-2.6
		l-0.1-0.3l-0.1-0.1l0-0.1l0.1-0.4l-0.1-0.1h0.2l0.1,0.5l-0.2,1.1l0.2,0.6l0.4,0.3l0.6,0.1l0.6,0l1-0.2l2.7-1l0.8-0.5l0.4-0.4
		l1.4-0.6l1.4-1.3L503.4,447.4z M483.8,441.6v0.6l0.6,0.3l0.4,0.4l0.3,0.5l0.2,0.6l-0.3,0.3l-0.4,0.3l-0.8-0.8l-0.5-0.7l-0.1-0.7
		l0.5-0.9H483.8z M481.8,439.8l-0.3-0.3l0-0.8l0.3-0.7l0.5-0.3l1.2,0l0.3,0.3l-0.3,0.6l0.2,0.2l0.3,0.3l0.2,0.1v0.3h-0.9l0.2,0.5
		l0.1,0.2l0.2,0.2v0.3l-0.6,0.1l-0.5-0.3l-0.5-0.5L481.8,439.8z M480.2,436.5l-0.1,0.4l-1.3-0.6l-1.1-0.9l0.7-0.5l1.3,0l0.5,0.2
		l0.3,0.5l-0.2,0.2l-0.1,0.2L480.2,436.5z M257,413l0.1,0.2l0.2,0.1l0.2,0l0.2-0.2l0,0l0.1-0.1l0.2,0.1l-0.7,0.6l-0.2,0.3l0.1,0.3
		l-0.3,0.6l-0.3,1.5l-0.3,1.2l-0.2,0.2l-0.4,0.1l-0.4-0.1l-0.1-0.2l0-0.3l-0.1-0.3l-1.3-2.2l-0.5-1.5l0.1-1v-0.3h-0.3v-0.3l0.5-0.9
		l0.9,0.6l1.1-0.1l0.9,0.2L257,413z M251.8,407.6l0,1.5l0.2,1.8l-0.2,0.7l-0.6,0.3l-0.7-0.1l-0.5-0.3l0.1-0.5v-0.3l-0.9-0.9
		l-0.3-0.6l0.2-0.7l0.5-0.4l1.6-0.3L251.8,407.6z M448.2,339.1l-0.3-0.2l-0.5,0.1l-0.6,0.2l-0.5,0.3l-0.3-0.2l-0.8-0.4l-0.4-0.3
		l0.2-0.9l0.2-0.4l0.3-0.2l-0.1-0.2l-0.2-0.4h0.7l2.2,0.8l0.7,0.5l-0.1,0.3l0,0.3l0.1,0.4l-0.2,0.2L448.2,339.1z M250.7,322.7
		l-0.8,0.6l0,1.3l-0.2,1l-1.3-0.1l0.3-0.4l0.1-0.4l0.1-0.4v-0.4l0.2-0.4l0.4-0.5l0.7-0.6l0.5-0.2l0.1-0.6l-0.1-0.6l0.1-0.5l0.2-0.1
		l0.6,0.1l0.1-0.2l0.1-0.2l0.2-0.2l0.4-0.3l0,0.4l0.1,0.3l0.2,0.3l0.3,0.4l0.1,0.5l-0.1,0.6l-0.3,0.4L250.7,322.7z M303.6,345.7
		l1,0.9l0.2,0.3l0,0.5l-0.4,0.8l-0.1,0.5l-0.1,1l-0.3,0.7l-0.8,1.3l-0.6,1.7l-0.4,0.6l-0.8,0.2l-0.5,0.3l-0.4,0.6l-0.6,1.3l-0.5,0.5
		l-0.9,0.8l-0.4,0.6l-0.3,0.9l0,0.7l0.1,1.9l0.1,0.4l0.8,2.4l0.4,0.6l0.5,0.2l0.3,0.3l0.8,1.1l0.8,0.6l-0.1,0.7l-1.3,3.4l-0.2,1.4
		l0.3,1.2l0.2-0.2l0.3-0.1l0.2,0l0.1,0.3l-0.1,0.4l-0.2,0.1l-0.2,0l-0.2,0.1l-0.2,0.6l-0.2,0.6l0,0.5l0.2,0.5h-0.2v0.3l0.2,0.1
		l0.1,0.2l0.2,0.1v0.3l-0.4,0.5l-0.3,1l-0.2,1.1l-0.1,1.1l0,0.6l0.2,1.1l0,0.6l-0.1,0.5l-0.3,0.8l-0.1,0.7l-0.1,0.3l-0.2,0.4
		l-0.2,0.5l-0.1,0.6l0.2,2l-0.1,1.3l-0.9,2.9l0.6,0.8l-0.2,1.4l-0.9,2.4l-0.4,2l-0.1,0.7l0.1,0.7l0.3,0.4l0.8,0.6v0.3l-1,0.4l-0.9,1
		l-0.5,1.3l0.2,1.1l-0.3,0.4l0.1,0.3l0.2,0.2l0.1,0.3l-0.1,0.3l-0.3,0.9l-0.1,0.5l-0.3,0.4l-0.6,0.3l-0.6,0.4l-0.1,0.9l-0.3-0.2
		l-0.1-0.2l0-0.2l0.2-0.4l-0.5-0.4l-0.5-0.1l-0.5,0.2l-0.5,0.3h-0.3l-0.2-0.4l-0.3-0.2l-0.7-0.3l-0.9-1l-0.2-0.2l-0.3-0.2l-0.8-0.9
		l-0.3-0.2l-0.4-0.1l-0.5-0.2l-0.4-0.3l-0.3-0.3l-0.2,0.3l-0.5-0.3l-0.7-0.2l-1.3-0.1l-0.7,0.3l-0.6,0.6l-0.4,0.6l-0.1,0.3l-1-0.3
		l-0.8-0.8l-1.4-1.7l-0.3,0.2l-0.3-0.2l-0.3-0.4l-0.3-0.3l-0.5-0.1l-0.4,0l0,0.2l0.5,0.2v0.3l-0.2,0.4l0.2,0.2l0.3,0.2l0.1,0.2l0,0
		l0.4,0.1l0.9-0.2l0.2,0.2v0.4l0,0.2l-1.4,1.5l-0.4,0.6l-0.3,0.9l-0.1,1l0.1,0.9l0.2,0.8l0.3,0.7l0.2,0.3l0.2,0.2l0,0.3l-0.5,0.9
		l-0.4,1.6h0.3l-0.4,0.3l-0.1,0l-0.3-0.2l-0.3,0.6l-3.5,3.6l-0.2,0.1l-0.4,0l-0.2,0.1l-0.4,0.6l-0.3,0.2l-0.4-0.1l-0.5-0.4l-0.8-0.8
		v0.9l-0.5-0.9l-0.9-0.7l-0.9-0.5l-0.8-0.1l-0.8,0.3l-0.9,0.7l-0.6,0.9l0.1,0.9l-0.5,0.3l-0.2-0.3l0.3-0.8l-0.3-0.3l-0.6,0l-0.5-0.1
		v-0.3l0.5-0.8l0-1.1l-0.4-0.8l-0.8,0.2l-0.3-2.4l-0.4-1.9h-0.3l-0.3,0.2l-0.8-0.4l-0.6-0.1l0.2-0.2l0.3-0.7l-0.5-0.3l-0.8,0.5
		l0-0.2l-0.2-0.3l-0.1-0.8l-0.3-0.5l-0.4-0.2l-0.4,0.3l-0.1-0.5l0-1.1l-0.1-0.6l-0.2-0.3l-0.3-0.2l-0.2,0.1l0.1,0.4l-0.2-0.2
		l-0.2-0.2l-0.1-0.3l0-0.4l-0.1-0.5l-0.2-0.1l-0.2,0l-0.2-0.1l-0.3-0.7l0-0.4l0.2-0.3l1.7-2l0.2-0.8l-0.6-1l0.1-0.7l-1.2-0.9
		l-0.3-0.9l0.1-0.4l0.6-0.7l0.2-0.4l0.1-0.7l0-0.4l-0.5-1.2l-0.1-0.1l0-0.2l0.3-0.5l1-1.2l0.5-0.7l0.6-1.5l0.4-0.8L257,390l0.3-0.6
		l-0.1-0.9l-0.4-1.9l-0.1-2l-0.2-0.5v-0.3l0.1-0.4l-0.1-1.2l0.1-0.2l0.5,0.1l0.3,0.3l1.1,1.8l0.6,0.6l0.7,0.3l1-0.2l-1.8-0.6
		l-0.4-0.4l0.1-0.8l0.5-0.8l0.5-0.7l0.3-0.5h-0.2l-0.1,0.3l-0.2,0.3l-0.2,0.2l-0.2,0.1l0.4-0.5l0.4-0.8l0.3-0.8l0.1-0.6l0.1-1.4
		l-0.1-0.5l-0.3-0.7l-0.8-0.9l-1-0.6l-1.1-0.1l-1,0.7l0.2,0.3l0.1-0.2l0.2,0l0.2,0l0.3,0l-0.4,0.3l-0.2,0.4l-0.3,1.2l-0.2-0.3
		l0.3-0.5l-0.2-0.4l-0.4-0.3l-0.5-0.5l-0.1,0l-0.1-0.1l-0.1-0.3l0-0.4l0.1-0.3l0.1-0.3l0.1-0.3l-0.3-1.7l0-0.5l0.4-1l0-0.6l-0.4-0.6
		l-0.5,0.3l-0.1-0.2l0.3-0.4l0.6-0.4l0.1,0l1.1-0.1l0.6-0.2l0.3-0.1l0.3-0.2l0.4-0.5l0.3-0.7l0.1-0.7l-0.2-0.6l-0.6-1.2l-0.1-0.8
		l-0.1-2.4l0.6-2.1l0-1.4l-0.5-1l-0.8-0.8l-0.9-0.6l-0.3,0.3l-0.8-0.6l-0.1-0.9l0.4-2.4l-0.1-0.8l-0.4-1.2l-0.5-1.1l-0.5-0.5
		l-0.6-0.4l-0.3-0.9l-0.2-1.1l-0.3-1l-0.7-0.8l-0.8,0.1l-1.8,1.1l-0.7-0.3l0.3-0.9l0.4-0.7l-0.8-0.2l-0.6,0.5l-0.4,0.9l-0.2,1
		l-0.3-0.6l-0.2-0.7l-0.2-1.2v-0.3l0.6-0.3l0.6-0.4l0.4-0.7l0.1-1.1l0.1,0l0.2-0.2l0.1-0.3l-0.2-0.1l-0.5,0l-0.2-0.1l-0.2-0.2
		l-0.5-0.8l-0.3-0.3l-0.4-0.1l2.6-6.3l0.2-0.7l0-0.8l-0.2-0.7l-0.6-0.3l-0.5-0.3l0.1-0.8l0.4-0.9l0.3-0.5h0.3l0.1,0.5l0.3,0.1l0.3,0
		l0.2,0.4l0,0.4l-0.1,0.6l-0.1,0.6l0.1,0.5l1.6,2.1l1.1,0.7l3.9,0.5l2,0.6l0.8,0.1l0.7-0.1l2.7-1.2l0.7-0.6l0.6-0.7l0.2-0.7l2.4-1.1
		l0.9,0l0.6,0.1l0.5,0.2l2-1.5l0.6-0.7l1.2-2.1l0.4-0.4l-0.1-0.2v-0.1l0,0l-0.1-0.1l1.1-0.4l0.3-0.2l0.2-0.3l0.4-0.8l0.2-0.2
		l0.4-0.2l0.6-0.6l0.5-0.7l0.5-1.1l0.7-0.3l2.4-0.3l0.5-0.2l1-1l0.2,0.3l0.5-0.7l0.2-0.7l0-1.9l0.3-0.8l0.7-0.4l0.8-0.2l0.6-0.3
		l0.1,0.4l0.2,0.2l0.3,0.1l0.4-0.1l0.4,0.6l0,1.6l0.4,0.3l-0.1-0.2l0-0.3l0-0.3l0.1-0.4h0.2l0.1,0.6l0,0.1l-0.1,0.2v0.3l0.5-0.1
		l0.2-0.1l0.2-0.2l0.1,0.2l0.6,0.4l0.1-1.1l0.6,0.2l1.3,1.2v-0.3l0.3,0.2l0.3,0.1l0.3,0h0.4v0.3l-0.2,0.1l-0.1,0.2l-0.1,0.2
		l-0.1,0.2l0.4,0.2l0.2,0.3l0.2,0.4l0.4,0.4l-0.2,0.3l0,0.5l0.2,1.1l0.4-0.9l0.2-0.4l0.3-0.3l-0.1-0.2l-0.1-0.2l-0.1-0.1l-0.2-0.1
		l0.4-0.3l0.4,0l0.5,0.2l0.5,0.1l0.2-0.1l0.2-0.2l0.2,0l0.3,0.4l-0.3,0.3l0.3,0.2l0.2,0.2l0.2,0.1l0.2-0.2h0.2l0.1,0.2l0,0l0,0
		l0.1,0.1l0,0.6l-0.1,0.5l-0.2,0.4l-0.4,0.5l-0.1-0.2l-0.1-0.2l-0.1-0.2l-0.6,2.8l-0.3,0.7h0.7l-0.3-0.7l0.6-0.3l0.4,0.1l0.1,0.4
		l-0.2,0.7l0.2,0l0-0.1l0-0.1l0-0.1l0.2,0.2l0.1,0.1l0.2,0l0.5-0.5l1,0.1l1,0.4l0.6,0.4l-0.4,0.5l-0.5-0.1l-0.6-0.3l-0.5-0.2
		l-0.6,0.3l-0.2,0.7l-0.1,0.8l-0.4,0.6l0.2,0.6l-0.5,0.2l-1.6-0.1l0,0.2l0,0.1l-0.3,0l0.3,0.5l0.3,0l0.3-0.2l0.4-0.1l0.4,0.2
		l0.6,0.4l0.2,0.1l0.7-0.2l0.5-0.4l0.5-0.3l0.7,0.1l-0.2,0.4l-0.2,0.3l-0.3,0.2l-0.3,0.1v0.3l1.3,0.6l0.2,0.2l0.1,0.6l0.2,0.3l0.3,0
		l0.4-0.3l0.2,0.4l0.3,0.3l0.4,0.1l0.5,0.1l-1.1,0.4l-0.4,0.3l0.3,0.6v0.3l-0.5-0.1l-0.4,0.2l-0.1,0.4l0.4,0.4l0-0.5l0.2,0.6l1,1.3
		l0.2,0.6l0.1,0.8l1.1,2.1l0.1,0.6l0.2,2.8l0.1,0.5l0.2,0.4l0.2,0.1l0.5,0.1l0.1,0.3l0,0.4L303.6,345.7z M342,260.6l0.6,0.5l0.5,1
		l0.1,0.6l0.4,0.5l-0.6,0.6l-0.5-0.3l-1.3-1.4l-0.3-0.6l0.5-0.4l0-0.6l0.2-0.3L342,260.6z M326.3,238.9l-0.3,0.3l-0.2,0.5l0,0.6
		l0.2,0.6l-0.2,0.8l-0.3,0.5l-0.5,0.4l-0.6,0.3l0.7,0.3l0.6,0.8l0.2,0.9l-0.5,0.6l-0.2-0.4l-0.3,0l-0.4,0l-0.4-0.2l-0.1-0.3
		l-0.4-0.9l-0.1-0.2l-0.5-0.3l-0.5-0.4h-0.4l-0.4,1l-0.3-0.8l-1.4,0.7l-0.7-0.6l-0.2,0.7l-0.2,0.3l-0.2,0l-2.9-0.1l-0.8-0.3
		l-0.6-0.7l-0.2-1.3l0.4-0.8l0.7-0.5l0.9-0.3l0.7-0.1l0.4,0.1l0.8,0.4l0.4,0.2l0.6,0.1l0.8-0.1l0-0.2l0-0.1l-0.1,0l-0.1-0.1l0.5-0.3
		v-0.4v-0.1l0.6,0.1l1.3,0l-0.2,0.7l0.4,0.3l0.5,0l0.3-0.1l0.1-0.4l0.3-0.3l0.3-0.2l0.2-0.3l0.4-1.2l0.3-0.5l0.4-0.2l0.3,0.1
		l0.3,0.3l0.3,0.4L326.3,238.9z M305.2,228.5L305.2,228.5l0.1,0.2l0.1,0.1l0.3,0.7l-0.4,0.9l-0.7,0.8l-0.7,0l-0.6-1l0.8-1.8l0.7-0.4
		L305.2,228.5z M392.8,114.6l0.7-1l0.6-0.4l0.6,0.1l0.8,0.7l-0.4-0.2l-0.5-0.1l-1,0l-1.9,3.7l-0.1-0.3l0.3-0.9L392.8,114.6z
		 M410.4,553.6l0.2,0l0.2,0.3l0.1,0.5l-0.1,0.2h-0.5l-0.2-0.2L410,554l0-0.2l0.2-0.1L410.4,553.6z M462.2,437.1l-0.1-0.5l0.5-0.2
		l0.1,0.5L462.2,437.1z M470.2,435.2l0.1,0.5l0.2,0.2l0,0.2l-0.4,0l-0.8-0.2l-0.3-0.6l0-0.5l0.1,0l0.6,0.2L470.2,435.2z M421.2,429
		l0.6,0l0.4,0.3l0.1,0.1l-0.7,0.7l-0.4,0.1l-0.4-0.2l0-0.3l0.2-0.3L421.2,429z M492.9,424.8l0.2,0.1l0.2,0.2l-0.1,0.4l-0.2,0.3
		L493,426l-0.2,0.3l-0.2,0.2l-0.4-0.1l-0.7-0.6v-0.2l0.2-0.2l0.3-0.2l0.2-0.2l0.1-0.2l0.2-0.1L492.9,424.8z M429.9,334.8l0.2-0.2
		l0.3-0.1l-0.2,0.5l-0.4,0.2L429.9,334.8z M402.1,569.1L402.1,569.1l0.1,0.3l-0.1,0.4l-0.4,0.1l-0.3-0.1l-0.2-0.1l-0.2,0l-1.3-0.6
		l-0.7-0.2l-0.3-0.2l0.3-0.2l0.8,0l0.4,0.1l1.6,0.2l0.3,0.1L402.1,569.1L402.1,569.1z M383,462.2l0.2,0.3l0,0.4l-0.5,0l-0.6-0.4
		l-0.4-0.6l-0.2-0.5l0.2-0.3l0.6-0.1l0.4,0.3L383,462.2z M292.5,314.4l0.1,0.4l0,0.2l0,0.3l-0.3,1.3l0.1,0.2l0,0.2l-0.2,0.3l-0.2,0
		l-0.3-0.4l-0.3-0.2l-0.2,0.1l-0.2-0.1l0.4-0.9l-0.1-0.3l0.1-0.4l0.3-0.6l0.2-0.4l0.3,0.1L292.5,314.4z M291,314.9l0.1,0.2l0,0.2
		l-1.4,0.3l-0.6-0.1l-0.1-0.4v-0.4l0.2-0.2l0.3-0.1l0.2-0.2l0.2-0.3l0.1-0.4l0.1-0.1l0.2,0l0.2-0.2l0.3,0.1l0.2,0.3l0.1,0.4l0,0.4
		l0,0.4L291,314.9z M321.2,262.6l0.3-0.3l0.3,0.5l-0.1,0.8l-0.7-0.2L321.2,262.6z M314,250.8l0.2,0.2l0.1,0.1v0.2l-0.1,0.3l-0.3,0.2
		l-0.5,0l-0.5-0.2l-0.3-0.3l0.1-0.3l0.4-0.1l0.3-0.4l0.2-0.6l0.2,0l0.1,0.5L314,250.8z M392,112h0.6l0.6,0.5l-0.1,0.6l-0.3,0.2
		l-0.5,0.3l-0.6-0.1l-0.1-0.7L392,112z"/>
</g>
<g id="Copyright">
	<text transform="matrix(1 0 0 1 681.6426 577.5913)" class="st1 st2">© Vemaps.com</text>
</g>
</svg>
