<?xml version="1.0" encoding="utf-8"?>
<!-- Generator: Adobe Illustrator 23.0.1, SVG Export Plug-In . SVG Version: 6.00 Build 0)  -->
<svg version="1.1" xmlns="http://www.w3.org/2000/svg" xmlns:xlink="http://www.w3.org/1999/xlink" x="0px" y="0px"
	 viewBox="0 0 800 600" style="enable-background:new 0 0 800 600;" xml:space="preserve">
<style type="text/css">
	.st0{fill:#808080;}
	.st1{font-family:'Roboto-Regular';}
	.st2{font-size:14px;}
</style>
<g id="Cambodia">
	<path class="st0" d="M714.339,30l1.479,3.384l-0.635,3.19l-2.857,6.44l-0.178,1.968l0.476,3.775l-0.146,2.01l-0.635,1.43
		l-1.765,2.568l-0.533,1.722l-0.114,0.902l-0.457,1.728l-1.473,3.324l-1.105,1.924l-1.549,1.295l-2.375,0.597l-0.794-0.393
		l-0.457-0.846l-0.717-0.547l-1.587,0.502l-0.978,0.911l-0.381,1.052l-0.19,1.147l-0.349,1.157l-2.508,4.46l-0.889,2.323
		l-0.229,2.589l0.273,1.137l1.079,2.447l0.349,1.274l-0.019,1.192l-0.616,4.464l-4.159,12.008l-0.59,3.045l0.521,1.489l1.162,1.208
		l1.365,2.183l0.26,2.487l-0.413,2.628l-0.044,2.572l1.403,2.307l2.089,0.775l4.603-0.461l1.898,0.743l0.768,1.214l0.076,1.237
		l-0.152,1.207l0.114,1.161l1.733,3.716l0.103,0.634l0.253,1.561l-0.336,1.455l-0.673,1.436l-0.546,2.122l1.333,3.835l-0.152,1.131
		l-0.794,2.72l-0.044,1.324l0.622,1.899l2.336,2.817l1.168,1.912l0.248,0.562l2.819,3.111l2.159,3.098l10.152,19.908l0.908,4.617
		l0.762,12.4l-0.438,3.867l-3.937,9.611l-1.635,3.992l-12.434,30.332l0.317,1.802l1.917,1.417l0.305,0.922l0.038,0.821l-0.298,0.681
		l-0.635,0.502l-0.73,1.241l-0.216,1.368l0.279,1.397l1.384,3.179l0.457,3.82l0.495,1.892l0.851,1.488l3.448,3.94l1.67,3.51
		l0.33,3.301l-0.108,3.385l0.286,3.762l3.073,13.887l0.229,4.092l-0.432,3.812l-0.673,1.607l-0.762,1.359l-0.26,1.366l0.864,1.639
		l0.013,0.013l-0.013,2.946l-3.613,10.26l-0.616,3.088l-0.978,2.86l-1.81,2.268l-3.168,1.313l-2.965,2.054l-4.152,5.653
		l-2.806,0.156l-2.362-2.086l-3.682-5.744l-2.902-1.774l-5.41,0.481l-5.94,1.862l-1.958,0.614l-7.295,3.606l-3.632,3.872
		l-0.825,1.774l-1.473,1.371l-3.276,2.319l-3.879,4.826l-8.394,8.436l-2.984,2.032l-4.559,1.779l-4.546,0.526l-9.378-0.721
		l-1.524,0.133l-2.285,0.199l-2.794,1.694l-2.019,2.947l-1.435,4.083l-2.4,3.213l-2.591,0.721l-6.127-1.396l0.978,1.889
		l-10.584-1.467l-5.886-0.071l-3.784,2.674l-1.625-0.104l-0.66-0.857l-0.502-1.097l-1.105-0.805l-1.587-0.247l-1.435,0.123
		l-2.883,0.759l0.174,0.503l0.994,2.878l3.638,6.846l0.692,3.095l-0.317,0.318l-1.816,2.965l-0.14,0.83l-0.076,2.374l-0.165,1.083
		l-0.851,1.79l-1.01,1.667l-0.66,1.725l0.133,1.984l3.346,5.752l1.044,2.766l0.055,0.145l-1.13,1.906l-1.6,0.039l-1.562-0.849
		l-2.705-1.919l-1.708-0.59l-1.213-0.201l-1.308,0.136l-6.921,1.815l-1.625-0.279l-1.105-0.901l-1.765-2.769l-0.927-1.07
		l-2.406-1.303l-8.476-2.678l-5.092-0.097l-6.387-1.984l-5.625-0.953l-2.864,3.035l-0.102,1.738l-0.311,1.693l-0.698,1.543
		l-3.416,3.599l-1.117,2.626l-1.486,1.783l-3.511-0.181l-5.848-2.165l-2.095,0.428l-2.441,2.092l-0.365,0.313l-1.613,1.763
		l-1.409,2.21l-0.368,2.495l0.339,0.567l1.248,2.09l1.498,0.81l3.27,0.603l1.359,1.014l0.565,1.41l0.127,1.669l-0.267,3.266
		l1.905,6.621l0.203,1.908l-0.343,1.875l-1.359,4.259l-2.032,9.425l0.121,1.78l1.568,1.243l2.006,0.508l1.625,0.997l0.33,2.699
		v0.019l1.283,3.463l2.527,1.913l6.578,1.621l1.816,1.68l2.997,4.721l1.841,2.08l4.292,3.672l1.651,2.041l1.244,2.591l1.409-2.701
		l1.892-1.129l2.133,0.336l2.197,1.692l1.422,2.154l2.006,7.174l1.378,2.49l-0.864,0.757l-1.284-0.043l-2.615-0.087l-2.172,0.252
		l-0.4,0.446l-0.698,1.277l0.267,0.291l-0.152,3.22l-0.197,0.278l0.629,2.03l3.029,5.757l3.162,12.023l-2.737-2.249l-3.219-0.814
		l-6.959-0.688l-3.257-1.125l-3.416-1.745l-3.111-2.253l-2.286-2.628l-1.143-1.348l-4.095-3.349l-0.184,2.04l-1.149,2.741
		l-1.454,2.473l-1.143,1.251l-2.54,0.039l-2.171-1.406l-1.657-2.014l-0.921-1.788l-1.41-4.355L505.597,507l-4.178-5.794
		l-2.178-3.816l-2.064-2.396l-3.289-0.346l-3.543,1.019l-2.857,1.73l-0.032,0.019l-2.317,1.497l-2.794,1.294l-1.836,0.39
		l-11.505,2.446l-6.113,1.299l-0.991-0.116l-2.755-1.394l-3.479-0.97l-0.559-0.285l-1.549,1.054l-4.99,5.833l-3.657,7.468
		l-1.181,1.18l-1.829-0.646l-4.216-3.708l-1.892-1.235l-5.425-1.016l-11.966-2.242l-1.746-0.598l-1.41-1.898l-0.286-1.639
		l-0.718-0.537l-2.717,1.432l-1.6,1.138l-0.518,0.473l-1.164,1.063l-1.378,1.814l-0.794,1.972l0.419,4.332l1.924,4.7l4.394,8.157
		l0.063,4.062l-2.984,2.891l-12.057,6.151l-1.594,1.366l-1.429,1.586l-5.06,7.754l-2.965,3.081l-4.375,1.766l-5.524,0.232
		l-6.072-0.751l-2.923-0.362l-9.228-1.141l-5.283,0.229l-1.93,0.433l-1.575,1.217l-1.194,1.818l-1.022,1.973l-5.124,7.528
		l-1.295,1.211l-1.74,0.284l-2.239-0.486v-0.02l-0.26-0.722l-2.07-2.582l-1.27-0.752l-1.78,0.773l-4.329-4.494l-1.13-0.707h-3.759
		l-2.08,0.829l-1.16,0.315l-1.04-0.285l-0.97-2.08l-0.43-5.37l-1.49-1.083l-0.69-0.366l-1.47-1.719l-0.83-0.554l-0.88,0.153
		l-0.75,0.549l-0.77,0.188l-0.94-0.89l-1.92,2.533l-3.18,0.056l-6.269-1.658l-2.09,0.234l-2.96,0.788l-2.12-0.168l-11.758-3.316
		l-2.07-0.178l-1.68-0.524l-3.39-2.889l-0.21-0.921l-2.7-4.975l-0.37-0.092l-1.76,0.092l-0.44-0.209l0.04-0.499l0.12-0.59
		l-0.11-0.488l-0.36-0.748l-0.21-1.862l-0.34-0.727l-0.92,2.473l0.1,2.686l0.82,4.619l-0.44,2.167l-1.05,2.167l-2.7,3.814
		l-1.44,1.495l-1.56,0.763l-2.07,0.264l-2.94,0.041l-1.59-0.285l-0.73-0.671l-0.53-0.844l-0.96-0.763l-1.23-0.336l-2.06-0.071
		l-0.91-0.448v0.854l2.61,1.414l2.31,2.298l0.63,2.161l-2.58,0.951l-4.039-0.254l-4.599,1.027l-2.26,0.081l-1.66-0.798l-0.82-1.764
		l-0.22-1.759l0.1-0.793l-0.38-0.351l-0.31-1.648l-0.53-0.564l-0.97-0.081l-0.54,0.371l-0.41,0.442l-0.6,0.122l-0.78-0.214
		l-1.15-0.529l-1.05-0.905l-0.98-2.899l-1.2-1.333l-2.47-1.882l-2.04,0.875l-0.63-1.612l0.6-2.289l1.62-1.16l0.99-0.931l1.26-2.167
		l1.08-2.432l0.48-1.765l2.01-2.931l4.739-1.379l9.609-0.407l0.09-0.005l0.47-0.015v-0.255v-0.595l-1.61-0.504l-0.42-0.763
		l0.72-5.42l0.41-1.003l1.02-0.865l1.44-0.758l1.47-1.043l1.11-1.751l0.24-1.435l-0.24-4.857l-1.85-4.414l-3.54-6.268l-2.34-6.203
		l1.85-4.243l-2.35-1.849l-1.18-0.479l-3.64-0.397l-1.5-0.652l-1.08-0.958l-1.44-4.484l-2.66-2.272l-3.55-1.315l-3.719-0.418
		l0.27,0.438l0.04,0.102l0.11,0.051l0.48,0.265l-1.67,2.558h-0.91l-0.57-0.856l-0.39-0.341l-1.56-0.428v0.769l0.73,1.498
		l-0.76,1.844l-2.49,3.577l2.49-1.116l0.24,1.284l-0.92,2.277l-3.13,5.73l-0.79,2.328l-0.34,2.781l-1.36,3.279l-0.3,1.467
		l0.09,1.202l0.6,1.976l0.13,1.482l-0.68,1.879l-1.67,1.222l-1.98,0.428l-1.61-0.504l-0.52,0.596l-0.57,0.407l-1.44,0.631
		l-1.01-2.948l-2.58-1.767l-3.07-1.303l-2.55-1.589l-5.039,3.07l-2.13,1.96l0.45,1.797l-1.71-0.056l-1.47,0.255l-1.14,0.59
		l-0.78,0.922l-2.38-1.196l-2.84-0.3l-1.47-0.611l1.65-2.164l-3.779-2.968l-0.92-0.453l-0.78-1.008l0.58-2.149l1-1.986l0.54-0.484
		l-0.27-3.881l-1.2-6.413l-0.29-3.423l0.41-1.182l0.85-1.314l0.89-1.681l0.37-2.272l-0.16-2.145l-0.5-1.498l-1.86-3.195l-0.28-0.958
		l-0.14-1.05l-0.22-1.03l-0.57-0.856l-0.81-0.214l-2.43-0.041l-0.57-0.133l0.24-1.386l1.41-0.846l1.01-0.826l-0.98-1.295v-0.77
		l0.93-1.483l3.29-3.202l3.49-2.141l1.59,1.688h0.76l-0.13-1.932l-1.19-3.192l-0.28-1.795l-1.77,0.704l-0.81,0.428l-0.78,0.653
		l-1.54-1.55l-0.46-1.397l-0.07-1.652l-0.45-2.32l-0.8-1.872l-1.82-2.596l-0.8-1.596l1.02,0.306l0.36,0.061l0.12,0.311l0.26,1.107
		h0.76l0.78-1.377l1.26-1.076l1.59-0.709l1.89-0.265l1.65,0.694l1.95,2.974l1.86,0.617l-3.88-7.381l-1.16-1.178l0.56-1.357
		l0.28-0.434h-0.84l-0.28,0.459l-0.56,1.332l0.51,0.995l-0.24,1.133l-0.81,0.918l-1.14,0.301l-1.22-0.612l-1.45-2.245l-3.27-1.638
		l-0.88-2.709l-0.12-3.143l0.16-2.5l-0.84,0.857l0.4-2.562l0.44-0.934l-1.14-0.046l-0.62-0.337l-0.76-1.332l0.04,4.348l-0.22,1.96
		l-0.66,1.475h-0.84l-1.32-0.439l-1.74,0.403l-1.71,0.857l-1.17,0.888l-2.52-3.495l2.52-1.643l0.63,0.806l1.87,1.766h0.92
		l-0.44-1.235l-1.34-1.648l-0.74-1.393v-5.145l1.4-1.368l1.72,0.572l2.04,0.965l2.32-0.168v-0.934l-1.51,0.138l-1.23-0.352
		l-0.92-0.679l-0.54-0.817v-0.857h0.94v-0.858l-1.3,0.572l-0.4,0.286h-0.92l-0.14-0.924l-0.62-1.649h-0.84v2.573l-0.9-0.858v2.644
		h-0.78l0.2-3.476l0.67-2.65l1.29-1.95l2.04-1.419l1.22-0.551l1.08-0.245l1.06,0.255l1.23,0.929l1.51,0.699l1.73-0.337l1.49-1.036
		l0.76-1.43h-0.76l-1.1,1.593l-1.7-0.123l-1.8-1.072l-1.36-1.256h-0.84l-5.039,2.573l-0.69-0.776l-0.87-1.567l-0.72-1.792l-0.3-1.43
		l-0.66-1.052l-2.88-1.532l-4.099-6.42h-0.76l1.82,4.106l6.009,6.368l1.47,4.095l-0.27,2.098l-1.44,3.711l-0.03,1.899l1.28,5.37
		l-0.16,2.205l-1.12,2.776l-0.24-1.597l-1.17-2.261l-0.27-1.781l-0.45-0.822l-2.16-2.088l-0.75-0.944l1.868-2.859l-0.451-7.165
		l-1.391-4.987l-3.517-5.293l-5.181-7.324l-5.638-10.914l-1.225-6.237l-1.975-4.362l-0.744-0.906l-1.694-2.061l-6.298-9.773
		l-0.952-4.995l2.806-20.584l0.616-2.392l1.302-2.372l3.175-2.789l1.06-1.775l-0.169-1.121l-0.205-1.362l-1.41-1.625l-3.956-2.126
		l-1.67-1.814l-0.33-0.982l-0.203-2.107l-0.457-1.034l-0.864-0.832l-3.06-1.828l-9.371-9.517l-3.676-2.694l-6.984-2.336
		l-0.726-0.552l-1.166-0.887l-0.876-2.004l-0.317-2.688l0.159-2.669l0.584-1.962l1.533-1.362l0.009-0.008l1.263-3.991l0.133-1.227
		l-0.286-1.54l-0.47-0.853l-0.609-0.778l-0.711-1.312l-0.787-2.608l-0.508-4.829l-0.629-2.918l-0.762-1.397l-0.375-1.41l0.178-1.309
		l1.39-1.515l0.159-0.466l-0.159-0.463l-1.048-1l-0.229-0.534l0.197-0.495l0.648-0.45l0.895-0.453l0.648-0.534l0.381-0.652
		l0.043-0.659l0.007-0.113l-2.089-1.267l-1.225-1.658l-1.956-3.975l-5.575-6.583l-2.438-4.241l-6.495-17.165l-0.121-0.32
		l-0.14-8.873l0.806-7.681l-0.521-9.551l0.017-0.346l0.072-1.486l-0.089-1.009l-0.476-1.149l-1.321-2.135l-0.165-1.348l2.311-2.981
		l4.8-0.545l9.943,0.852l7.492-0.63l2.375-0.842l5.778-3.37l2.235-0.627l-4.33-2.855l-2.635-2.6l0.159-2.669l3.937-3.058
		l12.356-6.072l2.908-2.517l0.495-1.19l0.165-2.602l0.305-1.288l0.59-1.069l2.191-2.753l0.99-2.207l2.114-6.9l2.267-4.046
		l3.022-3.029l7.073-5.571l1.816-2.104l0.438-1.62l-0.057-1.895l0.413-2.906l0.863-1.98l2.559-3.679l0.883-2.043l0.298-2.491
		l0.029-1.669l0.01-0.557l0.565-2.046l1.898-1.962l2.07-0.973l4.533-1.313l2.095-1.238l1.484-1.281l8.364-7.22l4.057-2.208
		l2.483-0.826l7.416-1.111l5.491-1.702l3.735-1.158l8.317,0.02l2.641-0.324l2.133-0.963l3.422-2.504l1.772-0.511l0.457,0.295
		l0.648,0.633l0.952,0.59l1.283,0.164l0.902-0.361l4.648-3.238l4.736-2.425l2.07-0.354l2.197,0.751l1.657,1.082l1.784,0.39
		l2.54-1.295l0.749-1.006l0.191-1.026l0.368-0.918l1.181-0.695l1.244-0.089l1.225,0.357l1.01,0.662l0.749,0.81l0.292,1.298
		l-0.267,3.009l0.394,1.157l0.902,0.341l4.216,0.288l7.213,1.845l2.33,0.272l1.606-0.147l1.01-0.249l1.048-0.01l1.771,0.59
		l1.327,0.8l1.219,0.947l1.371,0.806l1.822,0.36l2.165-0.256l0.641-0.747l0.311-1.006l1.143-1.055l6.654-0.344l3.365,2.818
		l4.248-0.954l1.119-0.556l0.081-0.04l3.441-1.708l4.483-1.229l0.73,0.377l0.629,0.76l0.87,0.649l1.543,0.046l0.927-0.459
		l3.048-3.349l0.191-0.675l0.273-0.364l1.06,0.029l-0.381,0.459l0.114,1.134l0.698,1.157l1.486,0.547l2.197-0.619l1.625-1.301
		l1.854-1.009l2.921,0.256l6.654,2.72l13.981,2.055l0.838,0.347l0.813,0.223l0.723-0.014l0.426-0.008l0.679-0.377l0.787-0.711
		l0.99-0.701l1.308-0.354l2.235,0.439l1.93,0.888l2.006,0.4l2.451-1.026l1.359-1.53l1.181-1.937l1.371-1.799l1.943-1.137
		l1.981-0.039l3.048,1.314l2.089-0.092l0.781-0.636l1.219-2.019l1.01-0.433l1.003,0.495l0.635,2.262l0.819,0.685l1.854-0.393
		l3.682-2.93l1.689-0.865l2.038,0.21l1.67,1.033l1.625,1.298l2.006,1.026l0.87,0.039l2.317-0.341l1.13,0.046l0.946,0.407
		l1.962,1.311l0.978,0.501l2.143,0.389l4.853,0.88l2.298,0.714l0.603,1.54l0.032,1.717l-0.578,5.747l0.203,1.081l3.905,7.262
		l2.165,2.466l2.698,1.307l6.648-2.086l3.784-6.361l2.8-6.31l3.6-1.937l-0.006,4.004l0.457,2.935l1.162,2.627l7.308,11.135
		l2.26,2.233l0.845,0.452l1.771,0.56l0.902,0.563l3.137,4.413l1.022,0.959l1.238,0.497l1.994,0.255l3.486,0.039l3.651-0.524
		l3.429-1.175l2.921-1.948l2.044-0.557l1.816-1.031l3.429-2.442l0.99,0.652l0.946,0.769l0.813,0.891l0.717,1.005l1.86-0.743
		l2.216,0.972l1.879,1.977l0.908,2.249l1.924-1.398l1.257,0.072l1.245,0.812l1.975,0.841l1.759,0.196l2.641-0.399l1.333,0.059
		l3.441,1.849l1.828,3.099l1.384,3.518l2.083,3.108l10.559,9.281l2.768,1.526l0.502,0.277l3.06,0.697l3.022-0.314l3.048-1.227
		l2.883,0.124l6.362,1.626l2.451-0.137l1.803-2.211l-0.229-5.944l1.486-1.927l1.771-1.796l2.203-1.476l1.924-1.646l0.908-2.35
		l-0.603-2.386l-1.632-1.849l-1.968-1.686l-1.663-1.882l-3.137-7.52l-1.917-2.197l-4.216-2.685l-1.695-1.615l-1.035-2.555
		l0.482-3.148l-0.425-2.437l-1.365-2.025l-2.387-1.946l-0.591-1.36l-0.165-1.438l0.197-1.458l0.559-1.393l2.476,0.436l5.41,1.871
		l2.121-0.098l0.33-0.593l0.305-1.996l0.362-0.518l0.629-0.065l1.327,0.092l1.911-0.118l2.952,0.524l4.311,0.249l2.349-0.269
		l1.956-1.17l1.816-2.665l0.825-2.727l1.244-6.609l1.143-2.154l0.724,0.774l7.467,4.629l1.194,0.305l1.682,0.125l1.632-0.459
		l0.806-0.111l6.61-0.912l3.124-1.305l1.263-2.475l0.489-0.085l0.901-0.761l0.533-0.869l-1.422-0.79l-0.114-0.853l0.203-0.912
		l0.267-0.535l1.143-0.669l1.34,0.151l1.568,0.407l1.892,0.111v-0.787l-0.902-0.328l-0.533-0.62l-0.273-0.909l-0.044-1.22
		l0.203-1.246l0.603-0.358l0.813-0.075l0.895-0.446l2.635-2.457l0.73,0.679l1.543,2.418l0.489,1.614l0.648,4.008l0.432,1.213
		l1.067,0.656l2.819,0.626l1.263,0.767l2.419,3.721l2.051,1.147l1.518,0.849l8.94,2.741l0.533,0.439l0.952,1.01l0.571,0.797
		l0.952,1.888l4.305,6.138l3.232,3.263l1.708,1.225l1.714,0.678l1.841,0.066l4.762-2.7l0.578-0.55l0.711-0.36l1.302-0.098
		l1.117,0.38l2.298,1.445l1.244,0.223l1.536-0.426l0.445-0.652l0.051-0.786l1.346-3.238l1.543-0.334l0.527-0.305l2.387-3.769
		l3.587-4.451l0.083-0.639l0.381-0.105l1.549,0.682l2.013,1.61l1.048,1.511l1.314,0.679l2.73-0.869l3.765-2.527l3.352-3.042
		l0.997-1.984l0.692-2.17l0.997-1.512l1.835,0.007l0.013,0.007l0.025,0.013h0.019l1.873,0.318l1.048-0.574l1.295-2.574l0.26-2.545
		l0.184-0.84l0.489-0.62l1.422-0.866l0.622-0.551l2.171-3.097l1.854-1.67l2.26,0.164l3.321,2.411l2.318,2.109l1.206,0.469
		l2.305,0.492l2.864,1.289l1.409,0.059l1.587-1.305l0.381-0.974v-1.079l-0.146-1.073l0.07-1.004l0.362-1.027l0.883-1.217
		l0.413-0.715l0.978-2.874l0.794-0.84l1.911-0.948l4.07-5.992L714.339,30z M255.323,557.597l1.74,1.2l0.9,2.639l-0.13,2.639
		l-1.25,1.205l-2.01-0.03l-1.78-0.341l-1.46-1.007l-1.05-2.034l1.02-0.285l0.51-0.356l0.99-1.068l-0.81-1.495l0.38-0.915l1.21-0.346
		L255.323,557.597z M195.451,530.598l0.53,0.478l1.06,0.163l0.92,0.6l0.08,1.791l-1.62,0.57l-1.45,0.702l-1.17,1.119l-0.78,1.872
		l-1.06-0.87l-0.56-1.45l-0.3-1.353l-0.21-0.59l0.09-0.3l-3.919-1.491l-1.87-1.532l-1.44-1.786l-0.42-1.842l1.21-1.669l2.48-0.87
		l2.04,0.585l1.68,1.399l1.44,1.527l0.27,0.412l0.24,0.87l0.33,0.422l0.69,0.193l0.79-0.061l0.68,0.183L195.451,530.598z
		 M163.505,452.124l0.57,1.407l0.63,1.071l0.22,0.908l-0.66,0.897l0.65,1.703l-0.09,2.34l-0.56,2.258l-0.76,1.473l-1.68,0.811
		l-1.95,0.015l-1.17-0.642l0.6-1.116l-1.35-1.366l-0.42-2.62l0.09-4.568l-0.93-5.354l-0.03-3.08l0.96-2.693l0.2,0.546l0.34,0.597
		l0.22,0.566l1.38-1.194l1.19-0.128l0.96,0.74l1.53,3.157l0.08,1.357l-0.14,1.295L163.505,452.124z M162.665,434.073l0.62,1.178
		l1.38,2.061l0.52,1.041v0.928l-0.57,0.882l-1.38,2.708l-0.57,0.694l-1.22-0.097l-0.1-1.255l0.48-2.933l-1.11-2.03l-1.61-2.347
		l-0.67-2.316l1.63-1.944l2.12,1.271l0.48,0.444l0.27,0.648l-0.01,0.607l-0.14,0.413L162.665,434.073z M200,548.988l0.22,0.061
		l0.36,0.458v0.921l-0.52,0.977l-0.56,1.383l-0.81,1.048l-1.32-0.814l-2.53-3.936l-0.86-1.989l0.48-1.709l1.65-0.671l1.39-0.168
		l0.7,0.265l0.25,0.875l-1.19,1.714l-0.08,0.575l-0.05,0.631l0.21,0.987l0.62,0.585l0.88,0.066l0.84-0.707L200,548.988z"/>
</g>
<g id="Copyright">
	<text transform="matrix(1 0 0 1 681.6426 577.5916)" class="st1 st2">© Vemaps.com</text>
</g>
</svg>
