<?xml version="1.0" encoding="utf-8"?>
<!-- Generator: Adobe Illustrator 23.0.1, SVG Export Plug-In . SVG Version: 6.00 Build 0)  -->
<svg version="1.1" xmlns="http://www.w3.org/2000/svg" xmlns:xlink="http://www.w3.org/1999/xlink" x="0px" y="0px"
	 viewBox="0 0 800 600" style="enable-background:new 0 0 800 600;" xml:space="preserve">
<style type="text/css">
	.st0{fill:#808080;}
	.st1{font-family:'Roboto-Regular';}
	.st2{font-size:14px;}
</style>
<g id="North_Korea">
	<path class="st0" d="M470.091,477.002l-4.359,2.268l-2.103,1.669l-0.486,1.274l0.167,1.719l0.653,3.371l-0.335,3.494l-1.004,3.037
		l-1.49,2.731l-1.785,2.557l-4.103,4.309l-4.924,3.189l-5.29,1.888l-5.25,0.416l-8.086-0.472l-5.095,1.073l-1.06-0.271l-0.948-0.959
		l-0.984-1.427l-0.633-0.432l-14.87,1.305l-4.529,1.376l-2.322,0.213l-7.31-2.221l-9.504,0.833l-2.454-0.261l-4.971,0.538
		l-5.166,2.099l-4.911,3.082l-4.226,3.489l-0.451,0.576l-0.951,1.214l-1.048,2.598l-1.565,3.879l-1.271,1.471l-2.972,2.308
		l-1.346,1.372l-6.585,10.081l-3.067,2.451l-1.988,0.758l-1.426,0.157l-0.928,0.679l-0.406,2.328l0.535,8.398l-0.035,0.022
		l-0.866,1.275l-0.32,1.489l-0.734,0.123l-1.644,1.004l-2.12,1.298l-1.317-0.306l-10.758-6.912l-0.627-0.568l-1.863-3.218
		l-0.508-0.449l-1.468,0.211l-1.593,0.513l-6.047,3.23l-1.543,0.568l-1.744,0.207l-2.848-0.087l-1.656,0.361l-1.562,1.06
		l-0.696,0.731l-0.113,0.306l0.157,0.369l0.238,1.516l0.527,2.032l0.439,1.036l-0.081,1.329l-0.238,1.361l-0.232,0.702l-3.689-0.726
		l-1.035-3.948l-0.772-1.85l-1.142,0.107l-0.715-0.29l-0.326-2.192l-0.22-4.48l-2.283,1.653l-1.029-0.063l-0.42-1.955l-0.508-1.097
		l-1.142-1.252l-1.242-1.006l-0.797-0.342l-1.186,1.002l0.496,1.228l1.085,1.045l0.608,0.421l0.151,0.993l0.709,2.642l0.194,1.394
		l-0.64-0.635l-0.828-0.596l-0.866-0.477l-0.772-0.294l-0.966-0.127l-0.489,0.064l-0.414-0.087l-0.772-0.576l-1.242-1.371
		l-3.858-6.026l-0.339-0.962l-0.47-0.704l-1.826-0.394l-0.47-0.39l-0.207-0.72l-0.056-1.102l0.169-1.834l-0.358-0.386l-1.167-0.115
		l-0.803-0.195l-1.342-0.88l-0.753-0.263l-3.193-0.155l-1.374-0.287l-3.086-1.469l-1.938-0.454l-1.945-0.028l-1.386,0.693
		l-0.057,1.576l1.411,1.64l1.919,1.297l1.487,0.525l2.672-0.39l0.765,0.537l-0.539,1.914l0.809-0.342l0.784-0.211l0.759,0.076
		l0.809,0.477l-0.91,1.249l-0.671,1.42l1.443-0.004l0.59-0.215l0.596-0.509l0.527,0.728l-0.922,0.911l-0.96,0.747l-1.066,0.565
		l-1.267,0.382l-1.242-0.056l-0.916-0.652l-0.891-0.942l-1.148-0.954l-0.245,2.254l0.721,2.297l0.339,2.173l-1.399,1.883
		l1.135,1.148l0.489,0.246l-0.307,0.917l-0.508,0.377l-1.543,0.04l-0.332,0.278l0.144,0.639l0.452,1.076l0.264,1.425l-0.019,0.857
		l-0.508,0.385l-0.828-0.04l-0.753-0.179l-0.696-0.381l-0.678-0.67l0.32-0.222l0.057-0.095l0.025-0.111l0.182-0.302l-0.941-0.508
		l-0.847-0.063l-0.615,0.492l-0.232,1.111l-0.521,0.083l-0.997-0.202l-0.646-0.746l0.546-1.556l-1.857,1.691l-0.966,2.412
		l-1.261,2.229l-2.766,1.11l-2.704,0.071l-1.418,0.262l-0.615,0.607l-0.358,1.617l-0.853,1.312L237.497,570l-0.96-1.038l1.048-5.039
		l1.167-2.233l2.051,0.619l4.203-1.936l-1.192-0.699l-2.647,0.5l-1.374-0.532l0.972-1.389l1.625-1.294l1.844-0.941l1.612-0.369
		l3.801,0.941l1.468-0.453l0.263-2.49l-1.292,0.548l-1.041-0.191l-0.822-0.723l-0.583-1.029l2.277-2.551l0.113-1.029l-2.076-0.421
		l-1.487-0.541l-0.677-1.026l-0.728-0.565l-1.637,0.803l0.238,0.374l0.194,0.62l0.144,0.334l-1.976-0.004l-0.903,0.191l-0.847,0.481
		l1.487,0.604l1.938,1.081l1.411,1.414l-0.107,1.629l-1.437-1.239l-2.051-0.922l-2.145-0.357l-1.731,0.461l0.358,0.723l0.489,0.58
		l0.59,0.433l0.715,0.322l-2.415,2.025l-1.487,0.937l-1.411,0.373l0.056-0.191l-0.075-0.429l-0.207-0.461l-0.339-0.254h-4.742
		l0.941-1.465l3.331-2.149l1.035-1.78l-0.596-1.673l-3.356-1.896l0.226-1.765l-1.537,0.302l-0.891,1.404l-0.69,1.809l-0.853,1.518
		l-1.186,0.918l-1.273,0.405l-1.418,0.004l-4.46-0.731l-0.847-0.294l-2.102-1.765l-0.815-0.238l-1.706-0.147l-1.248-0.576
		l-0.508-1.216l0.533-2.06l-1.888,1.181l-0.734,0.215l0.32-1.67l0.659-1.038l1.023-0.537l1.443-0.155l0.96-0.35l1.957-1.464
		l1.054-0.183l1.073,0.454l2.033,1.281l1.374,0.263l1.242-0.072l1.073-0.294l0.891-0.601l0.734-1.031l-0.571-0.732l-0.847,0.653
		l-0.866,0.127l-0.847-0.342l-1.618-1.465l-0.37-0.1l-0.245-0.287l-0.433-1.262l-0.232-1.891l0.734-0.717l3.187-0.06l3.4-0.669
		l0.891,0.358l0.314,0.836l0.176,0.916l0.433,0.625l1.631,0.131l0.527-3.313l1.581-0.829l-0.677-1.522l-1.28-0.574l-3.067,0.032
		l-1.393-0.223l-2.666-0.956l-1.173-0.223l-1.242,0.263l-3.764,1.865l-3.726,0.693l-1.066,0.645l-5.834-3.467l-2.541-2.647
		l-1.512-0.67l-0.678,1.734l-0.847,0.674l-1.957,0.498l-3.569,0.41l-8.996-1.722l-0.759-1.013l0.489-1.124l1.863-0.762l3.651-0.291
		l1.543-0.798l0.627-1.951l0.521-0.259l3.218-0.718l0.565-0.77l1.261-2.415l0.809-0.838l1.788-0.363l1.242,0.898l1.976,3.153
		l0.778-0.351l4.78-3.337l-1.957-0.823l-4.052,0.615l-2.196-1.521l-1.098-1.282l-0.169-0.767l-0.038-1.638l0.778-6.196l0.32-0.992
		l3.4-5.29l0.546-1.133l0.941-2.943l0.903-1.021l0.583-0.244l0.433,0.12l0.207,0.689l-0.169,1.454l0.966-1.081l1.298-2.191
		l1.104-2.396l0.358-1.667l-0.483-0.994l-1.38-1.075l-0.295-0.986l0.144-1.163l0.169-0.834l-0.107-0.778l-1.143-0.997l0.238-0.768
		l1.064-0.057l1.537,0.887l0.888-0.589l0.649-0.175l0.412,0.945l1.178,1.303l1.658-1.53l1.775-0.94l1.945,1.306l0.503-1.082
		l-0.038-1.85l0.245-1.453l-0.859-0.839l-0.59-1.177l-0.144-1.189l0.527-0.9l1.093,0.394l0.822,1.599l0.645,1.421l1.775-0.289
		l0.299-0.767l-0.408-1.421l0.123-1.301l0.709,0.298l0.351,0.948l0.766,0.476l1.302-0.349l1.183-0.172l1.841-1.175l0.592-0.056
		l0.824,0.714l1.777,0.619l0.793-0.811l0.653-0.352l0.834-1.003l1.188-0.823l1.78-0.759l2.167,0.108l0.734,0.08l1.769,0.53
		l0.941,0.125l0.195-0.326l0.132-0.711l0.376-0.719l0.897-0.322l3.425,2.078l0.364,0.94l0.219,1.86l0.471,0.514l0.922-0.145
		l0.401-0.94l0.22-1.048l0.339-0.506l0.771,0.269l0.753,0.647l0.571,0.771l0.219,0.647l0.828,1.366l1.882,1.068l2.127,0.462
		l1.531-0.454l-0.715-0.739l-0.903-1.53l-0.477-0.482l-0.828-0.253l-1.562-0.08l-0.822-0.402l-3.488-4.424l-1.242-0.969
		l-0.991-0.185l-1.832-0.008l-0.916-0.478l-0.477-0.651l-1.995-3.68l0.075-0.459l-0.019-0.105l-0.696,0.165l-0.22,0.422
		l-0.289,0.813l-0.583,0.708l-1.054,0.085l0.702,0.483l0.602,0.599l0.489,0.728l-1.146,0.741l-2.318,1.167l-1.242-0.305
		l-0.777-1.386h-0.527l-0.452,1.315l-0.715,0.374l-2.045-0.342l-0.138-0.289l-0.188-0.587l-0.301-0.474l-0.414,0.004l-0.395,0.603
		l0.157,0.627l0.427,0.531l0.376,0.318v0.619l-1.129,0.402l-1.236-0.012l-1.173-0.454l-0.979-0.921l-0.483-1.098l0.264-0.828
		l1.537-1.814l-0.546-0.318l-0.508-0.418l0.358-0.929l-0.395-1.155l-0.903-0.942l-1.217-0.294l0.408,2.39l-1.073,3.183l-2.192,0.11
		l-0.883-1.247l-0.351-1.186l-1.182-0.597l-0.886-0.773l-0.621-2.615l0.471-1.667l0.326-1.659l0.245-3.706l0.095-1.678l0.899-2.37
		l0.721-2.313l1.314-1.955l0.838-1.66l-0.174-1.07l1.043-1.535l1.634-2.813l1.436-1.96l0.618-1.659l0.831-1.415l1.565,0.013
		l1.92,0.093l1.468-0.388l-3.93-0.607l0.202-0.744l0.302-0.743l-0.021-0.671l-0.32-0.573l0.152-0.645l-0.061-0.823l0.138-0.72
		l0.32-0.445l0.088-0.38l-0.546-0.493l0.721-0.914l0.803-0.388l1.919-0.053l0.885-0.291l-0.263-0.708l-0.621-0.89l-0.245-0.83
		l1.135-1.947l1.656-0.798l1.844,0.061l1.688,0.644l-0.464-1.506l-0.684-0.757l-0.188-0.919l2.955-5.47l1.004-0.985l-1.211-0.162
		L242.798,408l-0.395-1.318l0.546-1.744l-0.37-0.345l-0.678-1.018l0.784,0.264l0.32,0.146l0.42,0.341l1.637-0.978l0.659-0.738
		l0.389-1.071l-1.6,0.008l-4.78-0.751l-1.499-0.621l0.226-1.437l1.819-2.712l-0.847-0.065l-0.828,0.106l-0.784,0.252l-0.703,0.386
		l0.27-2.604l1.104-1.503l1.468-1.158l1.374-1.549l0.414-1.195l0.307-1.374l0.546-1.122l2.183-0.883l0.64-1.037l0.113-1.335
		l-0.527-1.31l-1.173,0.899l-8.017,4.219l-1.706,0.59l-0.665,0.427l-0.69,0.183l-0.684-0.484l-2.033-2.518l-0.339-0.24l-0.715-0.927
		l-1.349-0.358l-0.715-0.659l1.148-1.815h-5.213l0.263,0.602l0.527,1.542l0.263,0.59h-3.425l-0.759-0.199l-0.207-0.509l-0.057-0.663
		l-0.295-0.68l-0.458-0.81l-0.163-0.623l-0.32-0.403l-0.922-0.146l-1.192,0.269l-0.753,0.037l-0.972-0.305l-0.59-0.436l-1.694-1.547
		l-0.351-0.472l-0.226-0.66l-0.565-0.155l-0.684-0.004l-0.621-0.208l-2.164-2.306l-0.847-0.098l-0.728,1.719l-0.872-0.717
		l-1.035-0.326l-0.885-0.583l-0.69-2.995l-0.853-1.223l-1.179-0.97l-1.324-0.767l-1.198-0.449l-1.719-0.236l-0.634-0.212
		l-0.301-0.938l-2.198-0.2l-0.791-0.621l-0.304-2.271l-0.797-1.233l-0.452,1.082l-0.057,1.008l0.264,0.914l0.508,0.796l0.401,1.138
		l-0.345,1.138l-0.018,1.249l-0.45,0.86l0.034,0.997l0.963,0.346l-0.314,1.547l-0.965,0.067l-0.827,0.651l0.342,1.031l0.745,1.065
		l-0.676,0.277l-1.443-0.555l-1.649,0.96l-1.548,1.548l-1.994,0.995l-0.654,1.753l-0.241,0.412l-1.053-0.749l0.025-0.423
		l0.094-0.297l0.314-0.647l-0.577-0.146l-0.251-0.163l-0.226-0.314l-0.38-1.079l1.37-1.611l0.275-1.822l0.998-0.653l0.371-1.422
		l-0.226-1.394l-0.546-0.049l-0.653,0.416l-0.59,0.037l-0.301-0.44l-0.502-1.186l-0.301-0.489l-0.703-0.465l-0.678-0.155
		l-0.521-0.273l-0.195-0.82l0.075-0.881l0.357-1.579l0.094-0.959l-0.339-0.51l-1.443-0.796l-0.339-0.784l0.295-2.049l-0.107-0.719
		l-0.703-0.282l-2.71-0.098l-6.58-1.274l-0.339,0.143l-0.282,0.286l-0.289,0.229l-0.376-0.033l-0.314-0.331l-0.301-0.813
		l-0.194-0.167l-0.282-0.392l-0.339-1.838l-0.201-0.576l-0.533-0.233l-2.089-0.388l-1.054-2.117l-0.546-0.719l-0.539-0.564
		l-0.527-0.417l-0.496-0.294l0.816-1.251l1.048-0.515l1.054-0.331l0.815-0.65l0.471-1.416l0.54-4.887l1.75-2.527l2.183,0.324
		l2.447,0.934l2.603-0.729l-1.568-0.827l-3.576-0.205l-1.744-0.344l-1.449-1.217l-0.546-1.672l-0.307-1.791l-0.803-1.574
		l1.202-1.227l10.994-10.456l0.323-0.188l0.821-0.167l0.434-0.329l0.12-0.386l0.119-1.158l0.239-0.527l1.235-1.112l3.107-1.994
		l1.235-1.41l1.187-0.825l3.888-0.862l1.498-0.757l0.809-1.656l0.641-2.331l0.765-2.086l1.203-0.894l1.777-0.434l1.617-1.072
		l3.78-3.798l2.617-3.439l0.526-1.251l0.374-0.581l0.781,0.723l0.733,1.079l0.215,0.482l0.613,0.325l0.725,0.236l1.872,0.194
		l2.083-0.377l1.542,0.126l1.518-0.126l1.155-0.377l0.386-1.01l-0.574-1.257l-0.86-1.257l-0.956-1.257v-1.389l0.757-1.258
		l1.92-0.755l1.816-0.629l1.239-0.76l1.924-0.876l1.422-0.886l1.542-1.128l2.195-1.012l2.689-0.881l2.004-0.881l1.056-0.378
		l0.673-0.756l0.474-1.013l0.478-1.134l1.243-0.504l1.147-0.126l1.155,0.504l1.04,0.378l1.494-0.499l0.582-0.068l0.685,0.284
		l0.932,0.898l0.486,0.268l1.725,0.068l0.299-0.761l-0.167-1.286l0.016-0.076l0.287-1.41l0.574-0.467l1.338,0.247l0.717-0.473
		l0.255-0.641l0.048-1.424l0.223-0.778l0.713-1.177l0.749-0.594l0.992-0.221l3.195-0.089l1.032-0.421l0.53-1.135l0.155-2.203
		l0.362-1.993l0.9-0.668l1.139,0.31l1.064,0.931l0.602,0.868l0.139,0.294l4.529-0.089l1.076-0.684l-0.717-1.547l-2.199-2.699
		l2.96-3.801l1.609-1.152l0.179-0.128l2.358-0.484l0.685-0.3l0.374-0.674l0.307-0.706l0.478-0.406l0.761-0.058l0.645,0.163
		l3.298,1.517l0.749-0.111l3.163-2.229l0.964-0.49l1.259-0.184l0.829,0.527l0.904,1.027l0.936,0.68l1.036-0.527l1.131-0.891
		l2.374-0.29l0.984-0.527l0.578-1.001l-0.41-0.485l-1.032-0.105l-1.239,0.132l0.884-1.503l1.35-0.443l1.466-0.264l1.307-0.96
		l1.566-2.442l0.474-1.224l-0.207-0.897l0.49-0.786l0.621-0.554l0.745-0.38l0.825-0.301l-0.211-1.32l0.785-1.056l1.151-1.104
		l0.904-1.405l-1.111-1.897l1.824-1.712l8.732-5.203l1.083-0.968l0.741-1.18l1.94-4.478l0.884-1.133l1.94-1.928l0.86-1.202
		l1.792-4.245l0.841-1.294l3.808-4.615l2.438-1.863l2.219,0.043l-0.239,0.446l-0.131,0.382l-0.211,0.334l-0.47,0.308v0.759
		l2.657-0.775v-2.638l-1.068-3.239l-0.538-2.592l0.486-1.323l2.669-4.295l1.275-4.649l1.426-2.847l0.279-1.384l-0.279-1.347
		l-0.829-1.404l0.04-1.26l2.701-2.878l1.219-2.463l1.239-0.277l2.725,0.155l0.833-0.493l2.478-2.299l1.211-0.731l-1.064-0.894
		l-1.119-0.672l-0.964-0.785l-0.59-1.236l1.319-0.542h1.227l1.139,0.446l1.099,0.798l2.299,2.551l1.33,0.886l0.59-0.934l0.972-2.57
		l4.31-1.802l0.976-2.715l0.745-1.175l1.649-1.162l1.641-0.505l0.757,0.756l0.08,2.27l0.422,0.577l0.96-0.064l1.741,0.36
		l1.423,1.164l2.584,2.114l0.733-0.109l0.319,1.385l1.661,2.649l0.637,1.32l-1.31-0.149l-0.821,0.464l-0.271,1.005l0.307,1.504
		l0.737,1.045l1.159,0.783l2.362,0.983l-0.215,0.4l-0.358,1.015l1.291,0.216l4.015,1.587l1.052,1.009l-1.685,0.676l-1.645,0.964
		l-1.426,1.389l-1.028,1.89l0.562,0.08l0.685,0.192l0.57,0.33l0.494,0.984l0.598-0.197l1.044-0.681l0.709,0.207l0.402,0.474
		l0.307,0.479l0.414,0.239l0.581-0.468l1.008-2.118l0.522-0.399l1.147,0.532l1.737,1.314l1.064,0.261l0.705-0.192l0.558-0.319
		l0.522-0.064l0.578,0.575l0.064,0.713l-0.478,0.654l-0.649,0.5l-0.47,0.245l1.334,0.612l1.446,0.447l3.015,0.346l0.729-0.144
		l1.342-0.553l0.605-0.074l0.733,0.287l0.574,0.479l0.418,0.468l0.291,0.239l1.713,0.144l1.211-0.505l1.084-0.691l1.31-0.42
		l1.303,0.351l1.346,0.745l1.338,0.393l1.315-0.718l0.143,2.308l1.083,1.095l2.984,0.813l2.557,1.796l0.59,0.308l0.673-0.319
		l0.853-1.398l0.35-0.042l2.127,0.824l7.274,0.212l1.984-0.685l1.426,0.988l1.542,0.271l1.255-0.627l0.518-1.679l0.741-0.734
		l1.705-0.553l3.131-0.473l2.314,2.11l0.789-0.377l0.637-0.733l0.669-0.999l0.845,1.106l0.056,1.833l-0.12,1.844l0.279,1.137
		l0.669,0.186l0.757-0.234l1.306-0.717l-0.287,2.257l1.331,1.062l1.848-0.048l1.219-1.099l1.099,0.632l-1.099,1.471l3.25,0.287
		l3.051-2.889l7.855-14.429l1.187-3.988l-1.522-2.232l-0.143-1.849l-0.956-2.103l-1.394-1.727l-2.063-0.962l-2.94-2.421
		l-2.071-1.953l-0.327-2.266l-0.821-2.165l-3.641-7.02l-0.462-1.978l-2.573-0.839l-0.757-1.463l-0.605-1.615l-1.506-8.855l0.08-1.53
		l1.012-1.444l1.546-0.474l3.537-0.08l12.444-3.504l7.847,0.662l1.801,0.6l1.577,1.281l3.577-0.206l2.645,1.329l1.083,0.147
		l3.187-1.241l0.741,0.147l0.852,0.606l0.717-0.365l1.083-1.627l0.757-0.74l0.797-0.316l5.752,0.461l2.063-0.461l0.9-1.807
		l7.409,0.386l5.095,1.397l1.565,0.429l2.82-0.944l1.139-4.139l0.693-1.379l1.633-0.456l1.84-0.225l1.362-0.706l2.063-2.18
		l0.781-1.375l0.096-1.837l1.832,1.099l1.315,0.113l1.099-0.755l2.175-2.531l2.286-2.053l1.442-1.637l0.605-0.535l0.534-0.586
		l0.239-0.597l-0.383-0.936l-1.729-0.14l-0.47-0.737l0.199-1.192l0.677-0.552l0.828-0.302l0.637-0.444l0.279-0.899l-0.048-0.84
		l0.151-0.767l0.916-0.695l-0.566-0.619l-0.637-0.425l-0.669-0.25l-0.757-0.065v-0.778l2.486,0.011l0.781-0.598l0.462-1.549
		l-0.151-0.552l-0.47-0.264l-0.43-0.38l-0.048-0.938l0.239-0.881l0.383-0.701l0.542-0.453l4.127-0.89l0.55-0.245l0.255-1.882
		l0.645-1.535l0.852-0.464l0.876,1.29l1.099-0.647l-0.645-0.898l-0.398-0.955l0.12-0.742l0.924-0.259l0.844,0.308l0.693,1.301
		l1.091,0.464l0.709-0.218l0.829-0.602l0.972-0.532l1.179-0.005l3.728,3.173l0.494,0.852l2.175,1.211l0.486,0.79l0.263,1.076
		l0.645,0.367l0.781-0.183l0.685-0.58l0.406-1.057l0.064-1.022l0.223-0.763l1.888-0.758l0.526-1.133l0.088-1.398l-0.303-1.29
		l3.219,0.265l2.908,0.783l2.478-0.464l1.968-3.499l0.367-3.757l-0.167-4.092l0.39-3.583l2.047-2.208v-0.644l-1.299-0.327
		l-0.359-1.413l0.733-1.459l1.976-0.447l-0.343-1.517l0.55-0.916l0.629-0.677l-0.08-0.826l-0.924-0.902l-0.781-0.368l-0.526-0.713
		l-0.151-1.954l0.128-1.304l0.311-1.191l0.94-2.194l1.235-2.681l0.422-1.471l0.311-3.172l2.709-7.449l0.566-1.085l0.398-1.099
		l0.072-2.427l0.319-1.118l0.876-0.746l2.326-0.27l1.06-0.485l-0.717-0.275l-0.59-0.427l-0.462-0.602l-0.335-0.792l0.844-0.357
		l1.426-0.951L590.014,30l1.036,0.196l0.574,0.504l2.326,3.15l0.741,0.738l1.107,0.509l0.964,0.141l3.011-0.141l3.625-1.584
		l2.095-0.517l0.932,0.961l-0.239,1.396l-0.613,1.701l-0.844,1.502l-0.988,0.794l3.211,1.515l4.119-0.114l3.482,0.628l1.346,3.718
		l-1.1,8.921l0.064,4.058l1.514,3.647l4.198,4.322l0.59,1.793l5.258,4.615l0.844,0.227l0.677-0.06l0.597,0.038l0.558,0.514
		l0.175,0.825l-0.279,2.029l0.374,1.109l1.641,1.273l1.187-0.581l0.239-1.555l-1.227-1.612l0.98-1.596l1.259-1.007l1.33-0.081
		l1.163,1.196l0.231,1.128l0.438,4.119l0.43,1.963l0.916,2.086l0.143,0.443l0.12,1.151l0.295,0.513l0.375,0.289l0.311,0.513
		l1.299,3.864l0.908,1.433l1.426,1.19l1.745,0.607l1.331,1.454l0.836,1.839l0.303,2.51l-0.024,2.636l0.191,1.393l0.781,0.983
		l2.087,1.671l-0.339,0.637l-2.191,0.616l-2.74,0.906l-1.153,0.217l-0.987,0.944l-0.484,0.05l0.072-1.893l-0.063-1.145l-0.207-0.649
		l-0.997-1.018l-0.977-0.764l-2.225-0.324l-1.653-0.963l-0.683-0.853l-2.274-0.414l-1.159,0.521l0.289,1.322l-0.997,1.074
		l-1.261,0.275l-0.637-0.938l-0.977-0.654l-0.903-0.019l-0.035,0.921l-0.088,0.899l-0.914,0.747l-0.759,0.913l0.167,1.411
		l-0.006,0.729l0.376,0.682l0.627,0.098l0.508,0.246l0.013,1.17l-0.395,0.737l-0.583-0.165l-1.167-1.434l-0.785,0.226l-0.566,1.252
		l0.708,1.213l-0.849,0.285l-0.565,1.373l-1.268,0.217l-0.34,2.34l-0.915,0.705l-0.905,0.164l0.087-1.502l0.576-2.215l-0.633-1.813
		l-1.02-0.078l-3.301,3.305l-1.725,2.376l-1.083,0.814l-0.976,0.112l0.155,1.446l-0.383,6.064l-0.42,0.034l-0.659-0.304
		l-0.878,0.533l-1.054,1.42l0.257,0.169l0.232,0.663l-0.552,0.442l-0.719-0.132l-1.303-1.102l-1.012-0.557l-2.104,0.028
		l-1.521,1.179l-0.392,1.978l-0.073,0.78l-1.14,0.159l-0.193,0.838l-0.37,0.655l-0.65,2.527l-0.2,1.671l-0.544,0.292l-0.915-2.251
		l-0.93,0.362l-0.122,2.121l-1.473,0.81l0.527,0.464l0.395,0.532l0.659,1.122l-0.753,0.253l-0.565,0.468l-0.828,1.413l0.263-0.224
		l-0.201,1.016l-0.358,1.235l-0.188,0.476l-0.301,1.939l-0.79,0.695l-0.59-0.3l-0.724-0.928l-1.833-0.756l-1.301,0.718l-0.489,2.202
		l-0.539,2.649l0.088,3.44l-1.147,3.382l-1.116,0.999l-0.209,1.743l-0.744,0.635l-1.254-2.032l-1.02,0.074l-2.972,1.893
		l-0.923,2.933l-1.004,3.588l-0.648,1.265l-2.03,0.896l-1.865,2.644l-0.589,3.3l-1.062,4.305l-1.589,2.736l0.914,2.416l-0.226,1.72
		l-0.385,1.556l0.514,3.033l1.717,2.218l1.541,1.482l0.997,0.927l1.654-0.169l0.624,1.472l1.082,1.476l0.857,0.66l0.489,0.071
		l1.192-0.234l0.427,0.163l0.734,1.041l-0.075,0.334l-0.408,0.43l-0.251,1.35l-0.151,0.326l-0.602,2.281l-0.057,0.543l-1.217,0.99
		l-0.866,2.284l-3.049,12.908l-0.59,4.536l1.261,3.834l-0.483,1.361l-0.169,1.597l0.075,3.327l0.577,4.592l0.326,0.997l1.411,1.757
		l1.084,0.746l-0.718,0.556l-0.489,2.24l0.29,0.721l-1.443,1.921l0.237,2.003l-0.935,2.409l-0.668,1.348l-0.807-0.11l-0.596-1.013
		l-1.063,0.385l-1.673,0.311l-1.459-0.29l-1.369,0.337l-1.261-0.267l-0.912,0.243l-2.019-0.12l-1.375,1.099l-0.223,1.916
		l-1.469,0.289l-1.073,1.203l-0.913,0.345l-2.29-0.184l-3.821,1.281l-2.911,2.09l-2.891,1.569l-0.92,1.11l-0.919,1.658l-1.281,3.117
		l-0.615,1.405l-0.546-0.265l-0.734-0.744l-0.672-1.47l-0.6-1.011l-1.309-0.117l-1.517,0.348l-1.216,0.952l-0.409,1.057l-0.46,1.058
		l-0.003,0.555l0.047,0.656l-0.407,0.754l-0.104,0.554l-0.2,1.295l-0.339,0.546l-0.22,1.029l-0.268,0.606l-0.608,0.704l-0.355,0.603
		l-0.068,1.036l-0.082,2.49l-0.878,0.342l-0.457,0.904l-0.34,1.089l-2.762,3.522l-2.891,3.913l-3.658-0.142l-4.186,1.422
		l-5.863,6.255l-3.023,2.663l-2.312,0.451l-1.308,1.255l-2.512,0.805l-1.305,0.05l-0.928,1.156l-2.34-0.39l-2.608,0.784
		l-1.398,2.065l-1.003,0.001l-0.101-0.952l-1.453,0.704l-1.352,1.606l-0.193,2.616l0.952,0.549l2.153,0.896l0.301,0.951l0.551,0.749
		l-0.399,1.504l0.151,2.44l-1.051,0.413l-0.7,0.651l-0.55,0.651l-0.45,0.401l-0.551-0.049l-1.051-0.499l-1.503-0.098l-0.848,0.652
		l-2.652,1.356l-0.548,1.552l-0.648,0.802l-1.348,0.803l-2.342,0.071l-1.043,1.046l-1.365,1.499l-1.05,0.554l-1.816,0.768
		l-1.507-0.322l-2.087,0.271l-2.081,3.007l-0.772,3.91l-1.978-0.525l-1.693-3.227l-1.286-1.171l-2.091,0.927l-0.654,1.178
		l0.505,2.703l-0.715,0.18l-1.687-0.205l-0.759,0.025l-0.847,0.328l-1.393,0.819l-0.709,0.168l-0.64-0.201l-0.251-0.459l-0.32-0.451
		l-10.219-1.794l-0.351,0.471l-0.1,1.462l-0.245,0.557l-0.621,0.561l-0.765,0.43l-0.715,0.172l-0.527,0.479l-1.267,2.26
		l-0.558,0.692l-0.753,0.286l-1.82-1.21l-1.204,2.285l0.017,1.749l-0.556,4.196l-0.728,0.932l-7.151,0.744l1.123,0.981l-0.182,1.001
		l-2.436,1.219l-2.702-0.367l-2.438,0.902l-1.243,3.188l-1.259,0.967l-1.125-1.415l-1.923-1.008l-1.276,2.076l-1.091,0.404
		l-1.311,0.996l-1.091,1.233l-0.96,2.302l-2.202,1.412l-0.496,0.84l-0.151,0.75l-0.671,1.562l-0.188,0.832l0.031,0.876l0.358,1.471
		l0.169,2.376l0.282,1.059l0.489,0.464l0.734-0.098l1.901,0.904l1.355,1.894l0.326,2.284l-2.913,4.303l-1.259,4.152l1.154,6.662
		l2.127,9.976l-0.069,2.741l-0.59,1.022l-0.847,0.401l-0.897-0.316l-0.772-1.107l-0.094-1.314l0.489-1.476l1.179-2.718l-2.672-3.766
		l-0.276-1.356l-0.684-1.056l-0.941-0.357l-0.997,0.723l-2.277,2.184l-0.182,0.268l-0.546,0.787l-0.42,0.475l-3.632,1.363v0.734
		l0.885,0.446l1.863,0.519l0.885,0.466l0.947-0.71l1.236-0.373l1.054,0.414l0.452,1.623l-0.508,0.738l-2.421,0.535l-0.759,0.43
		l-0.408-0.588l-0.439-0.426l-0.483-0.259l-0.533-0.089l-0.728,0.227l0.056,0.543l0.333,0.673l0.1,0.596l-0.891,2.639l-0.64,2.808
		l-0.493,2.843l0.838,1.835l0.809,2.016l1.167,0.838l0.897,0.409l1.625,1.825l0.847,0.485l1.518-0.231l0.32-0.874l-0.188-1.004
		l-0.019-0.611l1.38-0.158l1.575,3.824l1.543,1.023l5.796-0.586l1.907,0.586l0.878,0.752l0.665,0.922l0.746,0.776l1.098,0.332
		l5.282-0.045l1.167,0.158l0.797,0.776l1.769,3.144l2.403,3.426l0.508,1.009l0.477,1.425l1.161,1.695l2.616,2.7l0.245,1.271
		l0.326,0.387l0.715-0.641l0.502-0.323l0.433,0.298l0.301,0.637l0.251,1.529l0.37,0.778l0.583,0.577l0.753,0.222l1.399,0.843
		l2.597,4.22l1.48,1.7l5.897,1.426l9.178,11.472l1.148-0.454l3.488-1.91l0.96-0.338l2.346,3.74l0.602,0.575l1.317,0.776l0.734,0.675
		l0.922,1.784l0.025,0.325l0.107,1.446l-0.075,1.771l0.326,1.779L470.091,477.002z M205.063,379.592l-0.348,0.65l-0.968,0.474
		l0.816,2.128l1.029,2.173l-1.659,0.974l-2.229,1.333l-1.659,1.982l-1.465,0.247l-1.857,0.971l1.416-2.547l0.993,0.44l0.551-1.136
		l-1.094-1.052l0.172-0.475l0.893-0.105l0.036-0.407l0.207-0.484l-0.411-0.344l0.005-1.717l1.237-0.718l-0.063-1.473l0.93-0.822
		l-0.1-0.859l1.443-0.167L205.063,379.592z M201.728,486.446l1.305,2.289l0.276,1.078l-3.306-0.934l-1.562-0.673l-1.449-1.15
		l-1.738,1.367l-0.709-0.878l0.32-1.628l2.911-1.885l0.928-0.209l0.395,0.915l1.261,0.433l0.885,0.509L201.728,486.446z
		 M236.054,561.126l0.69-0.198l-1.926,2.662l-1.311,1.345l-2.032,1.316l-0.646,0.65l-1.092,0.737l-1.581,0.341l-0.445-0.721
		l2.283-2.72l1.092-0.539l0.79,0.329l0.195-0.646l0.182-0.873l0.414-0.008l0.201-0.115l0.1-0.29l0.307-0.174l0.508-0.071
		L236.054,561.126z M222.097,559.28l-0.376-0.833l-0.113-0.524l0.395-0.266l1.518-1.12l1.361-0.5l0.357-0.024l0.226,0.349
		l0.113,0.429l-0.201,0.202l-0.401,0.083l-1.029,1.072l-1.192,1.024L222.097,559.28z M213.057,554.346l0.797,0.167l0.295,0.961
		l-0.22,0.715l-0.169-0.032l-0.245,0.016l-0.828,0.893l-0.753,0.258l-0.834,0.008l-0.565-0.278l0.006-0.453l0.37-0.23l0.326-0.377
		l0.395-0.25l0.546,0.151l0.489,0.238l0.238-0.095l0.075-0.405l0.05-0.206l-0.176-0.481L213.057,554.346z M186.635,387.353
		l0.458-0.791l0.855-0.2l0.237,0.667l-0.003,1.107l-0.224,1.057l-0.546,0.614l-1.016-0.065l-0.342-0.448l0.279-0.836l-0.138-0.508
		L186.635,387.353z M186.585,385.596l-0.885,0.622l-1.073,0.012l-1.299-0.927l-3.18,0.915l-0.245,0.232l-0.345-0.171l0.119-0.667
		l0.558-0.468l0.74-0.415l1.28-1.168l0.32,0.114l1.06-0.13l1.932-0.537l1.342,0.098l0.527,0.676l-0.188,0.911L186.585,385.596z
		 M179.572,397.033l-0.226-0.877l-0.019-0.776l0.684-0.252l0.834-0.78l0.144,0.792l0.05,0.171l0.213,0.321l0.094,1.125l-0.96,0.495
		l-0.351,0.065L179.572,397.033z M150.173,359.307l0.356-0.369l-0.131-0.396l0.208-0.04l0.219-0.153l-0.164-0.219l0.187-0.102
		l0.281-0.132l0.228,0.013l0.145,0.198l0.196,0.158l0.11,0.416l0.31,0.086l-0.023,0.28l-0.002,0.218l0.249,0.034l-0.003,0.27
		l-0.087,0.279l-0.292,0.089l-0.199,0.259l-0.375,0.012l-0.231,0.363l-0.107,0.323l-0.218-0.013l-0.153-0.229l-0.393-0.087
		l-0.342-0.045l-0.01-0.042l-0.017-0.395l0.098-0.456L150.173,359.307z"/>
</g>
<g id="Copyright">
	<text transform="matrix(1 0 0 1 681.6426 577.5916)" class="st1 st2">© Vemaps.com</text>
</g>
</svg>
