<?xml version="1.0" encoding="utf-8"?>
<!-- Generator: Adobe Illustrator 23.0.1, SVG Export Plug-In . SVG Version: 6.00 Build 0)  -->
<svg version="1.1" xmlns="http://www.w3.org/2000/svg" xmlns:xlink="http://www.w3.org/1999/xlink" x="0px" y="0px"
	 viewBox="0 0 800 600" style="enable-background:new 0 0 800 600;" xml:space="preserve">
<style type="text/css">
	.st0{fill:#808080;}
	.st1{font-family:'Roboto-Regular';}
	.st2{font-size:14px;}
</style>
<g id="Kuwait">
	<path class="st0" d="M540.039,66.211l2.13,5.824l3.134,5.286l2.938,6.769l1.347,7.332l-0.073,12.881l0.955,8.218l3.893,11.434
		l7.86,16.636l9.232,12.736l7.958-0.338l5.167,15.522l6.954,15.459l12.684,18.311l5.901,13.637l-1.252,7.022l-6.692,0.978
		l-12.331-5.376l-6.318-3.871l-1.983-3.181l-5.897-0.878l-7.35-1.57l-5.435-0.94l-17.551,2.945l-8.893,7.705l-7.63,7.691
		l-18.464,10.308l-12.702,11.876l-6.647,10.564l-6.345,8.332l-13.684,6.472l-1.258,5.43l-2.855,5.123l6.705,0.589l11.178-1.993
		l8.303-1.651l6.697-2.594l7.013-2.594l4.167,2.523l-8.588,5.79l0.025,4.142l-1.884,4.79l7.37,5.048l5.108-0.034l5.733-1.947
		l6.689-2.27l1.866-8.29l4.458-1.937l5.754,1.878l6.032-4.49l3.162-5.111l4.771-2.253l2.188,2.015l4.628,6.477l0.637,0.913
		l4.432,4.018l3.061,1.068l8.384,2.908l11.131-2.273l-2.17,15.281l-0.295,6.364l0.994,10.171l3.236,15.248l2.566,6.987l4.149,6.671
		l1.612,6.989l7.418,46.944l5.289,11.521l15.011,22.527l4.53,4.336l11.583,3.86l0.881,5.174l-1.273,6.767l-0.392,6.905l2.498,6.764
		l8.228,11.653l1.763,4.163l3.134,4.763l7.077,3.003l12.415,2.681l-2.939,5.278l-1.249,6.059l0.318,6.267l1.812,5.82l-4.555-3.182
		l-1.616-1.479l-0.367,2.708l0.294,1.744l1.347,1.298l2.84,1.465l-2.253,2.916l-1.42,0.837l-1.175-0.488l-1.273-1.13h-2.057
		l-0.269,7.171l2.767,1.702l4.114-2.093l3.624-4.227l0.833,3.516l1.224,16.486l1.077,4.225l2.449,4.601l4.702,6.273l3.477,3.721
		l0.095,0.081l-53.427,0.548l-53.505,0.549l-53.505,0.566l-53.49,0.566L455.823,570l-2.503-9.09l-5.629-5.896l-6.904-4.879
		l-6.422-5.942l-4.556-7.768l-4.105-10.117l-2.892-10.457l-1.151-18.493l-1.399-8.656l-16.685-45.832l-14.495-24.831l-3.682-6.31
		l-0.031-0.009l-0.155-0.035h-0.031l-16.793-2.231l-29.948-3.956l-29.979-3.965l-29.979-3.966l-29.948-3.948l-33.664-4.198
		l-33.571-4.172l-33.587-4.163l-33.618-4.173l8.736-9.789l45.252-50.748l18.846-31.797l19.281-21.22l4.478-6.767l8.925-23.488
		l22.485-37.337l5.878-12.997l0.746-3.489l1.151-10.47l1.555-4.977l11.009-20.613l25.594-65.501l10.294-14.738l15.767-10.739
		l48.483-20.122L379.895,30h77.747l17.229,3.361L540.039,66.211z M657.455,250.292l4.701,1.856l2.351,2.011l3.477,2.953l2.375,3.135
		l2.375,3.149l3.146,9.407l-0.634,3.503l-4.458-1.586l-2.867-0.632l-2.868-1.906l-8.291-7.308l-5.735-2.218l-7.963-1.256
		l-6.367,0.333l0.237-9.05v-0.028l3.33-5.231l5.24-0.703L657.455,250.292z M661.814,164.83l-5.681,10.571l-9.256,11.793
		l-11.068,10.128l-11.215,5.549l-2.008-0.211l-10.995-1.183l-7.273-8.915l-10.505-25.152L581.3,144.723l-1.763-2.116l-1.665-2.003
		l-6.024-3.583l-2.302-3.612l5.754-4.078l3.502-1.863l6.514-4.559l3.33-0.903l1.126-2.004l1.763-11.971l-4.775-1.92l-2.522-0.41
		l-2.89,0.141l-0.049,0.014l2.987-5.154l4.261,0.381l7.322,4.773l3.404,0.537l4.163-0.311l2.351-2.33l-1.714-5.423l5.436-2.415
		l4.457-2.754l1.126-3.094l-4.824-3.377l-0.024-0.014l-3.428-0.466l-3.967,1.851l-2.865-1.385l-1.322-2.289l-0.735-3.646
		l-0.294-3.688l0.294-2.417v-0.028l-5.314,0.071l-0.735-0.608l-1.077-0.919l1.249-2.544l3.82-2.884l4.334-1.824l4.261-0.254
		l4.114,1.315l3.893,2.898l46.869,66.965l4.53,12.526L661.814,164.83z M579.414,62.733l-1.935,1.852l-2.914,3.916l-1.322,1.357
		l-8.203,4.353l-2.228,0.396l-2.228-1.329l-1.665-2.346l-0.441-2.233l4.163-2.884l6.171-8.285l3.33-1.895l11.754-1.669h0.024
		l4.628,0.452l-0.93,3.592L579.414,62.733z"/>
</g>
<g id="Copyright">
	<text transform="matrix(1 0 0 1 681.6426 577.5916)" class="st1 st2">© Vemaps.com</text>
</g>
</svg>
