<?xml version="1.0" encoding="utf-8"?>
<!-- Generator: Adobe Illustrator 23.0.1, SVG Export Plug-In . SVG Version: 6.00 Build 0)  -->
<svg version="1.1" xmlns="http://www.w3.org/2000/svg" xmlns:xlink="http://www.w3.org/1999/xlink" x="0px" y="0px"
	 viewBox="0 0 800 600" style="enable-background:new 0 0 800 600;" xml:space="preserve">
<style type="text/css">
	.st0{fill:#808080;}
	.st1{font-family:'Roboto-Regular';}
	.st2{font-size:14px;}
</style>
<g id="Luxembourg">
	<path class="st0" d="M404.148,70.411l-3.289,10.717l-2.307,10.179l-2.995,20.807l0.835,0.535l2.847-0.268l1.08,0.153l-1.767,2.409
		l-4.418,8.64l5.155,2.981l3.093,6.077l2.945,15.436l-1.326,8.212l2.062,5.995l8.198,12.522l7.216,20.759l3.78,6.446l5.106-10.147
		l8.149,13.236l15.611,37.737l7.413,7.542l16.102,7.198l6.922,4.493l2.258,4.036l1.917,5.118l2.845,7.596l0.491,2.474l3.829,0.342
		l7.118-4.339l4.173,0.114l8.051,5.1l13.648,13.051l8.051,5.135l8.297,2.282h22.779l14.629,4.336l1.865,0.114l2.553,2.776
		l-0.147-0.152l-1.031,1.027l-0.049,6.197l-0.687,0.494l-2.258,16.002l-0.049,5.206l1.276,3.267l-0.196,2.849l-4.615,4.065
		l-0.344,6.571l1.08,6l2.258,5.277l3.387,4.556l-4.124-1.632l-2.209,1.101l-1.62,3.568l3.24,3.758l0.933,1.594l-34.904,22.688
		l-7.364,10.353l0.835,2.427l3.044,2.085l2.896,2.843l0.442,4.852l-1.276,3.297l-3.584,5.306l-4.811,9.927l-12.371,15.302
		l-7.167,11.283l-2.7,8.062v23.193l-0.924,7.041l-3.101,23.62l1.473,22.138l-0.035,5.386l-9.489-1.005l-12.617-6.949l-22.634-16.98
		l-0.832-0.624l-13.009-5.215l-13.5-1.436l-27.295,3.023l3.093,6.726l-13.402,1.247l-3.387,1.36l-2.504,4.458l0.049,4.684
		l-1.08,3.928l-5.744,2.19l-4.615,7.024l-6.971,2.605l-40.501,2.454L329.676,570l-6.529-20.92l-8.935-9.029l-30.142-7.217
		l-11.929-5.631l-8.296-7.787l-14.924-19.928l11.291-5.409l10.898-11.691l4.516-11.43l-8.051-4.429l5.351-5.074l3.78-7.346
		l6.087-16.895l3.78-4.471l4.713-4.396l2.651-6.368l-2.651-10.426l-3.436-2.92l-9.524-1.1l-3.24-2.465l-1.669-5.386l0.687-2.617
		l1.424-2.352l0.245-4.78l0.736-4.06l2.307-2.618l1.767-3.036l-0.449-3.949l-0.189-1.668l-2.749-4.365l-3.093-0.228l-3.044,1.025
		l-2.651-0.493l-2.847-1.594l-6.627-2.012l-3.044-2.468l0.196-1.709l-1.031-10.253l-0.736-3.456l-11.193-22.189l-3.142-4.675
		l-6.038-3.725l-5.106-0.874l-4.811-2.357l-5.007-8.365l-2.896-9.242l-0.687-8.788l2.111-7.04l5.646-3.806l-4.566-4.263l0.835-2.665
		l0.884-1.713l0.687-2.208l-0.049-4.264l12.469,1.294l-4.418-6.702l-10.506-8.036l-5.596-2.704l1.915-7.01l16.446-28.625l1.915-4.69
		l1.129-3.738l1.767-3.852l3.731-4.959l3.338-2.251l7.02-1.641l3.927-3.701l5.204-10.152l-1.915-4.084l-3.338-4.123l0.54-10.195
		l2.945-3.934l9.622-4.278l3.436-3.667l1.178-5.845v-6.955l-0.54-8.561l2.847-4.587l6.922-6.041l2.896-4.206l1.178-5.048
		l0.933-12.011l1.718-4.706l7.855-7.194l17.673-8.689l7.069-7.389l3.78-10.646l1.964-10.151l4.026-6.858l10.113-1.073L347.545,30
		l3.044,3.334l1.571,7.089l2.896,5.44l4.195,2.046l2.088,1.018l5.351,0.766l10.8-1.724l4.124-2.567l3.044-3.295l3.682-0.498
		l6.137,5.938l2.062,6.818l-0.54,7.008l1.08,5.858L404.148,70.411z"/>
</g>
<g id="Copyright">
	<text transform="matrix(1 0 0 1 681.6426 577.5916)" class="st1 st2">© Vemaps.com</text>
</g>
</svg>
