<?xml version="1.0" encoding="utf-8"?>
<!-- Generator: Adobe Illustrator 23.0.1, SVG Export Plug-In . SVG Version: 6.00 Build 0)  -->
<svg version="1.1" xmlns="http://www.w3.org/2000/svg" xmlns:xlink="http://www.w3.org/1999/xlink" x="0px" y="0px"
	 viewBox="0 0 800 600" style="enable-background:new 0 0 800 600;" xml:space="preserve">
<style type="text/css">
	.st0{fill:#808080;}
	.st1{font-family:'Roboto-Regular';}
	.st2{font-size:14px;}
</style>
<g id="Montenegro">
	<path class="st0" d="M189.854,392.014l0.324-4.702l-1.161-3.556l-4.064-2.36l-1.814-1.131l-2.999-3.598l-2.491-4.189l-1.669-4.912
		l-0.169-5.512l1.306-10.24l-1.088-5.147l2.419-2.225l2.637-1.117l2.709,0.214l2.637,1.708l2.419-0.345l0.871-1.938l-0.508-2.85
		l-1.645-3.178l4.714-2.753l2.445-1.428l4.959-4.872l1.029-2.584l1.583-3.975l0.097-9.274l-2.419-8.719l-4.015-5.233l-4.765-4.955
		l-8.127-13.307l-3.169-7.638l-2.177-7.632l-0.218-5.549l2.298-3.571l2.927-2.285l1.717-3.11l-1.33-6.114l-5.539-11.235l-2.322-6.4
		l-0.121-5.535l4.499-12.538l7.087-6.797l13.086-2.961l13.908-0.182l9.506,1.348l-4.185-24.406l-0.121-8.374l0.124-0.646l1.86-9.721
		l3.798-8.117l10.086-14.219l-5.636-2.797l3.556-5.238l29.873-22.038l6.168-1.97l-0.75-1.288l-1.33-2.976l-0.798-1.28l4.305-2.071
		l13.933-1.314l5.684,1.63l6.289,4.432l1.645,2.319l0.145,2.211l-0.194,2.302l0.556,2.693l2.129,3.614l4.765,6.197l0.13,0.297
		l0.692,1.58l2.443-2.201l1.863-2.691l1.475-2.841l1.257-1.733l0.509-0.701l2.709-1.479l6.144-0.341l1.669-1.429l-7.039-13.476
		l-6.942-19.411l-8.103-10.725l-1.645-1.233l-5.152,1.341l0.024-1.658l1.016-2.649l0.121-2.099l-3.12-4.883l-1.693-1.075l-3.604-1
		l-2.25-1.692l-0.121-2.717l1.379-2.651l2.225-1.593l4.306-2.176l5.563-6.247l3.459-2.561L307.758,30l3.29,3.262l2.516,4.762
		l3.072,3.878l3.943,1.392l5.007-0.175l4.596-1.826l6.265-7.439l5.829-0.709l11.151,1.727l-4.717,7.48l0.169,9.27l3.822,8.499
		l6.12,5.264l32.122,14.544l3.894,2.846l9.772,14.755l13.811,14.511l2.83,4.237l4.015,9.052l2.37,3.628l8.288,7.012l0.492,0.416
		l7.232,9.54l4.039,3.723l4.813,2.554l10.377,3.126l5.055,0.572l2.975-1.119l1.911-1.915l1.887,0.182l6.845,12.54l4.306,5.699
		l4.813,3.934l5.467,2.087l7.764,0.513l7.934-0.646l2.709-1.706l5.466-5.632l2.225-1.218l2.927,1.011l1.742,2.568l1.33,3.288
		l1.766,3.113l2.322,2.36l14.078,9.998l8.073,8.045l0.458,0.456l14.182,14.125l2.931,0.975l2.681,0.892l12.554,1.273l6.7,2.934
		l12.263,8.88l14.392,7.324l3.87,5.11l0.363,7.922l-2.298,12.363l-18.939,3.248l-8.974,3.347l-1.983,1.286l-1.959,3.519
		l-0.194,3.065l0.363,2.908l-0.363,3.089l-5.854,6.621l-7.934-2.347l-8.756-5.312l-8.369-2.2l-2.637,1.269l-2.205,1.783
		l-4.907,3.966l-1.911,2.619l-0.411,6.306l2.661,4.914l0.207,0.199l13.386,12.857l1.814,3.281l0.46,1.135l-3.12,8.196l-2.661,5.12
		l-0.822,2.596l-0.073,5.126l0.653,4.468l-0.266,4.13l-2.83,4.178l-6.023-3.497l-5.031,3.661l-8.417,11.266l-5.95,1.731
		l-11.417-0.345l-5.805,4.076l-0.048,0.049l-2.153,2.083l-8.853,5.264l-1.509,0.485l-2.216,0.712l-4.257-0.525l-3.967-2.041
		l-7.692-5.978l-4.039-9.835l-0.798-2.946l-0.145-2.15l0.435-4.802l0.411-2.241l1.742-3.752l1.089-1.757l0.411,0.328l-0.206-3.188
		l-0.205-3.169l-1.984-8.11l-3.604-6.896l-5.346-2.779l-5.442,2.59l-4.213,3.837l-2.366,2.155l-6.12,7.264l-3.919,6.407
		l-1.355,4.385l-1.306,8.333l-1.306,3.8l-2.903,3.34l-3.362,1.936l-2.806,2.428l-1.306,4.773v0.049l-2.83,5.912l-3.241,5.312
		l-3.822,4.409l-4.62,3.056l-3.12,5.194l-11.973,13.945l-1.209,1.809l-2.201,5.188l-0.46,2.299l0.145,4.336l-0.218,1.636
		l-22.423,35.042l-6.942,7.527l-0.677,3.346l2.322,5.04l0.024,0.052l3.677,4.071l13.4,9.981l3.504,4.27l0.584,0.711l0.556,3.024
		l-4.281,9.418l-1.137,5.416l-0.266,6.237l0.847,6.023l2.153,4.744l0.073,0.049l1.717,2.18l-1.234,5.304l-1.403,1.171l-1.911,0.26
		l-1.209,1.138l1.5,7.253l-0.556,2.244l-0.895,1.634l-0.29,1.569l0.121,2.113l-0.145,1.3l0.556,1.251l2.177,2.112l1.863,3.347
		l-0.169,8.219L393.15,570l-4.247-3.644l-8.59-9.605l-3.981-1.97l-17.084-5.681l-4.038-2.585l-5.733-2.151l-1.924-1.28l-1.866-3.137
		l-0.076-1.729l0.305-1.742l-0.686-3.151l-1.105-0.525l-2.419-2.19l-1.714-2.421l1.162-1.115l0.152-1.332l-1.028-15.548
		l-13.256-12.224l-1.828-4.555l2.133-4.556l-1.733-1.849l-2.914-1.335l-3.581-6.318l-8.914,0.206l-1.981-3.365l-0.533-3.43
		l-1.181-0.809l-1.581-0.026l-1.505-1.053l-3.181-6.836l-3.409-3.522l-9.39-7.071l-2.724-4.823l-1.638-10.434l-2.038-4.389
		l-3.371-1.931h-4.114l-3.543,1.506l-1.752,2.587l-1.143-1.48l-1.409-1.416l-0.667-1.416l-3.771,2.15l-1.771,1.274l-1.219,1.364
		l-0.552,0.605l-1.828,0.837l-1.543-1.725l-2.228-4.505l-7.714-6.464l-3.505-4.327l-0.095-4.328l-1.352-1.121l-2.019-2.332
		l-1.428-1.069v-1.972l0.514-4.537l-4.057-3.867l-4.666-0.206l-1.257,6.445h-1.562l-1.886-1.276l-5.085,0.709l-1.028-0.593
		l-1.219-2.05l-2.857-2.321l-3.276-1.934l-2.4-0.993l0.552-1.096l0.019-0.348l0.229-0.232l0.952-0.671l-5.885-4.204l-1.828-3.148
		l1.162-3.664l2.971-1.084l19.217,6.399l2.705,0.903l6.799,3.65l3.485,3.495l1.809-4.926l-0.381-3.973l-5.314-11.975l-0.133-2.943
		l0.952-4.7l-7.771,9.863l-10.647,2.039l-24.855-3.252v2.362l4.4,3.239l-1.943,9.185l3.942,2.734l-4.571-1.548L189.854,392.014z"/>
</g>
<g id="Copyright">
	<text transform="matrix(1 0 0 1 681.6426 577.5916)" class="st1 st2">© Vemaps.com</text>
</g>
</svg>
