<?xml version="1.0" encoding="utf-8"?>
<!-- Generator: Adobe Illustrator 23.0.1, SVG Export Plug-In . SVG Version: 6.00 Build 0)  -->
<svg version="1.1" xmlns="http://www.w3.org/2000/svg" xmlns:xlink="http://www.w3.org/1999/xlink" x="0px" y="0px"
	 viewBox="0 0 800 600" style="enable-background:new 0 0 800 600;" xml:space="preserve">
<style type="text/css">
	.st0{fill:#808080;}
	.st1{font-family:'Roboto-Regular';}
	.st2{font-size:14px;}
</style>
<g id="Myanmar">
	<path class="st0" d="M289.111,226.431l0.215-0.08l0.201-0.114l0.182-0.148l0.159-0.178l0.308-0.391l0.333-0.104l0.333-0.03
		l0.299-0.169l0.201-0.398v-0.401l-0.062-0.409l0.003-0.43l0.159-0.569l0.067,0.027l0.134,0.035l0.12-0.075l0.02-0.302l-0.098-0.827
		l0.078-0.385l0.266-0.211l0.657,0.186l1.72,1.278l1.745,1.684l0.481,0.653l0.221,0.839l0.134,0.843l0.283,0.277l0.319-0.283
		l0.255-0.837l0.204-0.639l0.4-0.131l0.445,0.256l0.35,0.516l0.143,0.167l0.165,0.08l0.173-0.011l0.185-0.107l0.059-0.062
		l0.05-0.068l0.025-0.202l-0.008-0.207l-0.045-0.208l-0.081-0.199l-0.176-0.376l-0.084-0.391l0.05-0.383l0.495-0.972l0.263-0.213
		l0.333-0.078l0.487-0.204l-0.078-0.236l0.036-1.982l-0.042-0.216l0.059-0.166l0.322-0.127l0.254-0.018l0.722,0.128l0.489,0.155
		l0.372,0.291l0.411,0.181l0.601-0.184l-0.503-0.909l0.011-0.359l0.034-0.047l0.134,0.02l0.587-0.273l0.266-0.045l0.21-0.128
		l0.126-0.365l0.017-0.292l-0.227-3.428l-0.335-1.198l-0.965-1.035l-0.224-0.474l-0.283-0.964l-0.025-0.683l0.294-1.155l0.039-0.634
		l-0.165-0.574l-0.609-1.082l-0.215-0.559l-0.084-0.615l0.235-2.342l0.889-0.799l0.095,0.046l0.255-0.68l0.967-1.158l0.391-0.609
		l0.05-0.543l-0.171-0.594l-0.54-1.051l-0.215-0.626l-0.134-0.816l0.05-0.783l0.333-0.53l0.668-0.25l0.526,0.135l0.422,0.41
		l0.364,0.573l0.568,0.467l0.71-0.042l0.705-0.354l0.526-0.462l0.408-0.548l1.124-2.278l0.008-0.366l-0.059-0.355l-0.008-0.459
		l0.218-1.985l-0.118-1.243l0.039-0.511l0.171-0.48l0.529-0.755l0.095-0.251l0.014-0.269l-0.05-0.333l-0.165-1.722l0.011-0.824
		l0.87-5.705l-0.056-0.975l-0.117-0.309l-0.369-0.529l-0.162-0.308l-0.853-0.588l-0.447-3.437l0.025-1.056l-0.087-0.475
		l-0.112-0.205l-0.159-0.141l-0.227-0.288l-0.582-0.968l-0.215-0.486l-0.14-0.526l-0.05-0.631l0.039-0.569l0.011-0.159l0.182-0.677
		l0.338-0.476l0.713-0.262l0.534,0.309l0.763,1.213l0.271,0.346l0.884,0.907l0.173,0.403l0.092,0.376l0.207,0.266l0.492,0.073
		l0.565-0.048l0.842-0.481l0.45-0.163l0.176,0.085l0.143,0.208l0.165,0.157l0.263-0.069l0.159-0.148l0.132-0.195l0.103-0.228
		l0.064-0.235l0.66-0.409l1.3-0.064l1.37,0.171l0.864,0.301l1.077,1.475l0.565,0.278l2.15-0.274l0.789,0.187l0.763,0.3l0.934,0.236
		l0.618,0.117l1.546,0.859l0.434,0.35l0.386,0.55l0.389,0.44l0.464,0.029l0.324-0.363l0.081-0.091l0.087-0.602l-0.039-0.647
		l0.039-0.587l0.266-0.588l1.228-1.67l0.098-0.426l0.143-1.138l0.123-0.286l0.282-0.338l0.117-0.518l0.101-1.066l0.319-1.118
		l1.32-3.147l0.112-0.494l0.084-1l0.145-0.47l0.201-0.25l0.565-0.405l0.19-0.243l0.028-0.245l-0.092-0.516l0.011-0.178l0.305-0.342
		l0.33-0.236l0.243-0.341l0.067-1.201l0.182-0.354l0.31-0.255l0.411-0.26l0.372-1.513l0.207-0.427l0.319-0.315l1.211-0.788
		l0.327-0.687l0.565-2.041l0.227-0.475l0.397-0.075l0.336,0.005l0.333-0.045l0.372-0.225l0.327-0.409l0.215-0.51l0.101-0.557v-0.532
		l0.157-0.885l1.085-1.471l0.425-0.786l0.506-2.556l0.439-0.605l0.509-0.92l0.143-1.266l-0.19-1.245l-0.478-0.854l-0.97-0.466
		l-1.09-0.216l-0.976-0.366l-0.638-0.913l-0.087-1.23l1.566-4.47l0.61-0.981l0.536-0.577l0.247-0.265l0.881-0.624l0.517-0.194
		l0.937-0.115l0.503-0.152l0.487-0.387l0.693-1.14l0.389-0.494l0.235-0.101l0.534-0.009l0.257-0.132l0.02-0.127l-0.218-0.281
		l0.014-0.158l0.109-0.099l0.285-0.161l0.098-0.099l2.43-3.6l0.204-0.23l0.26-0.104l0.576-0.075l0.24-0.168l0.176-0.54l-0.05-0.678
		l-0.548-3.104l0.022-0.586l0.179-0.65l0.308-0.283l1.012-0.37l0.445-0.303l1.146-1.243l0.847-1.049l0.316-0.602l-0.031-0.633
		l-0.341-0.361l-0.967-0.314l-0.366-0.322l-0.266-2.026l0.109-0.256l0.198-0.235l0.129-0.224l-0.101-0.231l-0.215-0.118
		l-0.224-0.051l-0.221-0.081l-0.207-0.201l-0.336-0.913l-0.123-1.196l0.05-1.21l0.185-0.947l0.372-1.013l0.05-0.448l-0.118-0.579
		l-0.517-0.999l-0.053-0.481l0.372-0.583l0.419-0.344l0.794-0.903l0.28-0.459l0.145-0.341l0.034-0.205l-0.008-0.191l0.087-0.865
		l0.101-0.224l0.266-0.278l0.238-0.127l0.596-0.144l0.266-0.123l0.227-0.238l0.378-0.577l0.252-0.207l0.498-0.085l0.428,0.627
		l0.213,0.022l0.369,0.039l0.498-0.161l1.001-0.488l2.075-0.687l0.486-0.299l0.794-1.022l0.615-1.267l0.733-1.017l1.124-0.29
		l0.624,0.111l0.551,0.014l0.448-0.23l0.327-0.622l0.268-0.718l0.296-0.389l0.425-0.172l1.247-0.147l0.358-0.149l0.268-0.342
		l0.696-1.209l1.163-1.453l0.73-0.292l1.53-0.287l0.741-0.389l0.747-0.739l0.593-0.867l0.987-1.915l1.037-1.457l1.65-1.189
		l1.851-0.841l7.175-1.238l1.809,0.085l0.417,0.142l0.565-0.053l0.565-0.184l0.419-0.241l0.545-0.666l0.232-0.521l0.294-0.249
		l0.738,0.157l0.243,0.145l0.165,0.151l0.193,0.096l0.341-0.02l0.277-0.159l0.45-0.494l0.308-0.124l0.487,0.03l0.512,0.137
		l0.94,0.442l0.473,0.338l0.347,0.385l0.562,0.98l0.319,0.387l0.867,0.741l0.159,0.244l-0.227,0.594l-0.257,0.511l0.025,0.482
		l0.612,0.514l3.725,1.736l0.241,0.228l0.19,0.253l0.212,0.22l0.305,0.135l0.266-0.024l0.297-0.13l0.22-0.096l0.277-0.038
		l0.344,0.13l0.218,0.192l0.218,0.1l0.355-0.143l0.101-0.195l0.274-0.787l0.048-0.236l-0.148-0.32l-0.229-0.184l-0.246-0.149
		l-0.199-0.218l-0.073-0.281l-0.011-0.549l-0.157-0.242l-0.747-0.786l-4.404-5.825l-0.643-1.089l-0.117-0.578l0.358-0.897
		l-0.048-0.448l-0.103-0.264l-0.098-0.566l-0.02-0.289l-0.081-0.281l-0.302-0.469l-0.112-0.303l0.003-0.639l0.218-0.604l0.361-0.526
		l0.439-0.402l1.077-0.75l0.473-0.429l0.917-1.178l0.355-0.234l0.87-0.264l0.389-0.118h0.168l0.098-0.112l0.045-0.394l0.09-0.326
		l0.19-0.159l0.537-0.193l0.162-0.169l0.213-0.444l0.173-0.112l0.291-0.09l0.232-0.144l1.362-1.236l0.431-0.489l0.349-0.498
		l0.324-0.312l0.495-0.249l0.526-0.128l0.425,0.052l0.316,0.385l0.017,0.41l0.115,0.208l0.596-0.216l0.503-0.293l0.126-0.226
		l-0.05-0.356l-0.017-0.687l0.118-0.496l0.453-0.881l0.148-0.439l-0.193-0.863l-1.314-1.429l-0.369-0.78l0.162-1.048l0.805-1.865
		l-0.14-0.843l0.28-0.546l0.967-0.559l0.224-0.311l0.176-0.652l0.375-0.125l0.501,0.087l0.54-0.011l0.302-0.344l0.123-0.617v-1.162
		l-0.059-0.288l-0.092-0.281l-0.039-0.276l0.129-0.275l0.422-0.454l0.157-0.254l0.084-0.346l0.366-0.484l0.403-1.101l0.296-0.523
		l0.372-1.072l0.5-0.275l0.576,0.399l0.607,0.948l0.64,0.391l0.744-0.504l0.794-0.398l0.789,0.716l1.093,3.244l0.685,0.928
		l0.864,0.261l1.672-0.806l1.04,0.455l1.278,1.736l0.92,0.56l0.383,0.359l0.025,0.503l-0.243,0.87l0.168,0.313l1.09,0.174
		l0.467,0.267l1.796,1.711l0.1,0.095l0.224,0.507l0.028,0.577l-0.148,2.76l-0.109,0.635l-0.308,0.663l0.173,0.348l0.959,0.525
		l0.456,0.455l0.31,0.513l-0.017,0.453l-0.54,0.273l-0.45,0.326l0.154,0.546l0.45,0.547l0.926,0.602l0.109,0.293l-0.059,0.402
		l-0.017,0.606l0.115,0.287l0.171,0.156l0.084,0.179l-0.263,0.727l0.07,0.283l0.911,1.439l0.442,0.98l0.576,2.382l0.514,1.022
		l0.917,0.419l0.956-0.284l0.523-0.721l0.26-0.957l0.143-0.997l-0.02-1.13l0.07-0.578l0.277-0.26l0.324,0.103l1.415,0.725
		l0.481,0.42l0.808-0.393l0.573,0.421l0.568,1.191l0.38,0.361l0.707-0.031l0.324-0.173l0.252-0.218l0.249-0.168l0.33-0.021
		l0.235,0.151l0.266,0.296l0.229,0.334l0.137,0.268l0.067,0.636l-0.288,1.231l-0.076,1.248l0.165,2.702l0.078,0.32l0.173,0.076
		l0.199,0.014l0.171,0.129l0.28,0.965l-0.095,1.007l-0.649,2.043l-0.179,0.887l-0.028,0.982l0.274,1.992l0.235,0.537l0.308,0.17
		l0.372,0.132l0.403,0.416l0.173,0.611l-0.165,0.535l-0.299,0.52l-0.215,0.571l0.624,2.666l0.017,0.274l-0.087,0.313l-0.392,0.462
		l-0.112,0.323l0.098,0.592l0.657,0.973l0.215,0.558l-0.031,0.623l-0.403,1.126l-0.064,0.629l0.392,0.983l0.025,0.253l-0.017,0.25
		l0.008,0.263l0.098,0.291l0.131,0.638l-0.19,0.577l-0.557,1.01l-0.185,1.019l-0.106,3.935l-0.101,0.582l-0.165,0.556l-0.263,0.513
		l-1.079,1.281l-0.224,0.635l-0.134,0.574l-0.064,0.515l0.162,0.293l0.543-0.103l0.238,0.268l0.663,1.452l0.109,0.489l-0.143,0.29
		l-0.212,0.162l-0.159,0.176l0.006,0.629l-0.159,0.249l-0.984,0.816l-0.369,0.03l-0.176-0.349l0.039-1.081l-0.173-0.042
		l-0.464,0.174l-1.06,0.263l-0.347,0.315l-0.126,0.456l0.048,0.523l0.176,0.518l0.509,1.069l0.123,0.549l-0.047,0.669l0.19,0.386
		l0.271,0.047l0.319-0.053l0.324,0.093l0.246,0.283l0.886,1.353l0.249,0.58l0.137,0.118l0.333,0.128l0.14,0.18l0.07,0.379
		l-0.059,0.404l-0.145,0.374l-0.19,0.295l-1.401,1.106l-0.434,0.177l-0.263-0.034l-0.254-0.14l-0.772-0.3l-0.618-0.522l-0.344-0.152
		l-0.47,0.022l-0.308,0.221l-0.638,0.75l-0.358,0.334l-0.235,0.502l-0.361,1.032l-0.19,0.225l-0.204,0.158l-0.162,0.199
		l-0.056,0.349l-0.008,0.372l-0.084,0.244l-1.029,1.285l-0.145,0.375l-0.341,1.321l-0.274,0.448l-0.391,0.326l-0.556,0.285
		l-0.612,0.212l-0.347-0.062l-0.797-0.801l-0.4-0.222l-2.223-0.795l-0.274,0.048l-0.045,0.375l0.025,1.462l-0.14,0.468l-0.302,0.372
		l-0.498,0.463l-0.131,0.201l-0.008,0.201l0.143,0.79l0.112,0.262l0.084,0.293l-0.048,1.139l0.05,0.426l-0.101,0.22l-0.498,0.088
		l-0.386,0.296l-0.355,0.651l-0.478,1.269l-0.308,0.318l-1.113,0.563l-0.436,0.306l-1.23,1.608l-0.565,0.328l-0.568,0.057
		l-0.274-0.236l-0.19-0.422l-0.31-0.492l-0.993-0.524l-0.612,0.717l-0.649,2.363l-0.621,1.347l-0.447,0.689l-0.431,0.336
		l-0.486,0.16l-0.109,0.266l0.151,1.08l-0.05,2.042l0.134,0.988l0.428,0.897l0.998,0.803l0.324,0.465l-0.21,0.597l-0.453,0.244
		l-0.593,0.005l-1.099-0.216l-0.596,0.112l-0.579,0.387l-1.043,0.904l-1.834,1.233l-0.003,0.002l-0.09,0.647l0.157,3.753
		l-0.668,4.032l-0.017,0.686l0.171,0.232l2.195-0.331l0.64-0.011l0.419,0.089l0.201,0.207l0.134,0.286l0.087,0.316l0.05,0.299
		l0.143,0.355l0.498,0.365l0.199,0.299l0.034,0.631l-0.414,0.167l-0.559,0.063l-0.417,0.315l0.171,0.763l1.999,0.734l0.154,1.073
		l-0.151,0.224l-0.198,0.163l-0.176,0.2l-0.084,0.32l0.081,0.346l0.383,0.525l0.118,0.305l-0.081,0.706l-0.336,0.657l-5.173,5.406
		l0.447,0.566l1.074,0.478l1.007,0.723l0.151,0.237l0.115,0.271l0.134,0.57l0.336-0.498l0.278-0.147l0.225-0.119l0.576-0.182
		l0.537-0.249l1.39-1.389l0.531-0.367l0.587-0.197l0.394-0.04l0.372-0.108l0.501-0.403l1.091-1.262l0.361-0.243l5.819-2.338
		l2.069-0.508l1.018,0.038l2.005,0.511l1.012,0.019l0.45-0.162l0.85-0.518l0.456-0.168l1.065-0.065l1.071,0.072l0.777,0.195
		l1.077,0.81l0.736,0.352l0.405,0.189l0.322-0.218l0.417-0.132l0.755-0.391l1.119-0.182l0.931-0.429l2.757-0.226l1.007-0.296
		l0.282-0.199l0.034,0.072l0.176,0.853l-0.467,0.91l-2.452,1.681l-1.32,1.145l-0.475,0.203l-0.523,0.157l-0.45,0.199l-0.12,0.249
		l0.187,0.234l0.238,0.483l-0.042,0.254l-0.221,0.738l-0.017,0.385l0.196,2.178l-0.084,0.238l-0.129,0.167l0.003,0.181l0.324,0.283
		l0.252,0.076l0.632,0.003l0.814,0.27l1.068,0.185l0.414,0.32l0.159,0.451l0.033,1.493l0.207,0.5l1.127,1.803l0.173,0.14
		l0.036,0.167l-0.193,0.405l-0.187,0.195l-1.272,0.77l-0.322,0.321l-0.095,0.419l0.517,1.538l0.266,0.196l0.548-0.175l0.509-0.011
		l0.408,0.407l0.313,0.595l0.38,1.169l0.073,0.587l-0.059,0.56l-0.224,0.537l-0.218,0.151l-0.316,0.117l-0.241,0.165l0.006,0.298
		l0.19,0.074l0.976-0.027l0.383,0.757l-1.367,2.512l-0.031,0.968l2.013,0.213l1.009,0.293l0.531,0.064l0.515-0.062l0.461,0.05
		l0.182,0.413l0.165,0.567l0.428,0.516l0.537,0.233l0.467,0.005l1.023-0.139l0.235,0.03l0.685,0.221l0.397,0.037l0.109,0.036
		l0.059,0.011l0.252-0.027l0.14,0.103l0.008,0.542l0.067,0.193l0.201,0.169l0.19,0.122l0.224,0.014l0.305-0.16l0.576-0.497
		l0.252-0.137l0.489-0.126l0.249-0.254l0.221-0.465l0.322-0.408l0.534-0.093l0.464,0.305l0.814,1.107l0.601,0.391l2.027,0.076
		l0.403,0.246l0.053,0.409l-0.092,0.449l-0.034,0.476l0.227,0.495l0.97,1.347l0.092,0.673l-0.615,0.518l-0.833-0.042l-1.476-0.778
		l-0.447,0.176l-0.059,0.338l0.154,1.319l-0.067,0.512l-0.294,0.465l-0.668,0.817l-0.537,1.125l-0.227,0.198l-0.33,0.095
		l-0.305,0.13l-0.277,0.187l-0.243,0.262l-0.003,0.75l1.275,3.256l0.064,0.629l-0.28,0.989l-0.078,0.589l0.067,0.298l0.263,0.495
		l0.039,0.313l-0.117,0.333l-0.227,0.33l-1.686,1.783l-1.074,0.549l-0.154,0.381l0.087,0.21l0.157,0.206l0.053,0.358l-0.126,0.364
		l-0.487,0.585l-0.199,0.328l-0.33,1.423l-0.185,0.47l-0.892,1.187l-0.19,0.583l0.425,0.468l-0.828,0.442l0.593,0.626l1.242,0.574
		l1.099,0.282l2.086,0.211l0.945-0.097l1.625-0.688l0.369-0.053l1.401,0.581l0.397,0.029l0.917-0.098l2.559,0.641l0.235,0.14
		l0.212,0.234l0.249,0.507l0.123,0.171l0.543,0.284l0.268-0.231l0.271-0.418l0.537-0.273l0.419,0.112l1.643,0.855l0.206,0.19
		l0.161,0.232l0.206,0.152l0.342-0.05l0.218-0.222l0.015-0.582l0.15-0.234l0.515-0.083l2.044,0.36l-0.203,0.38l-0.015,0.398
		l0.148,0.378l0.288,0.308l0.411,0.944l-0.281,1.121l-0.949,2.116l-0.06,0.666l0.112,0.492l0.463,1.027l0.299,1.627l0.282,0.477
		l0.974,0.543l2.317,0.048l1.033,0.314l0.396,0.329l0.207,0.217l0.095,0.165l-0.07,0.268l-0.204,0.093l-0.273,0.057l-0.281,0.156
		l-0.319,0.403l-0.246,0.489l-0.168,0.495l-0.082,0.415l0.013,0.484l0.106,0.64l0.197,0.6l0.284,0.371l0.557,0.383l0.924,1.337
		l0.667,0.246l0.291-0.155l0.875-0.687l0.375-0.224l0.842-0.309l0.387-0.231l0.345-0.353l0.006-0.006l0.328-0.508l0.322-0.329
		l0.418-0.177l0.576-0.041l0.552,0.114l0.418,0.26l0.816,0.684l0.134,0.494l0.249,0.433l0.358,0.246l0.475-0.053l0.618-0.144
		l1.323,0.255l0.699-0.06l1.351-0.407l0.65-0.314l0.421-0.448l0.006-0.006l1.148-0.609l1.425-1.554l1.093-1.638l1.025-0.914
		l1.152-0.576l2.619-0.781l0.501-0.212l1.356-0.989l0.335-0.266l0.362-0.218l0.382-0.137l0.976,0.202l0.162,0.456l0.076,1.427
		l0.235,0.304l0.35,0.232l0.33,0.536l0.2,0.597l-0.057,0.424l0.193,0.331l-0.168,0.341l-0.268,0.406l-0.095,0.529l0.13,0.447
		l0.057,0.523l-0.109,0.437l-0.378,0.182l-3.781,3.123l-2.529,1.333l-0.376,0.126l-0.909,0.943l-0.301,0.248l-0.994,0.423
		l-0.612,0.083l-0.524-0.2l-0.206-0.144l-0.225-0.094l-0.242-0.052l-0.253-0.015l-0.351,0.09l-0.092,0.233l0.015,0.318l-0.041,0.35
		l-0.857,3.522l-1.402,2.6l-0.326,0.451l-0.508,0.295l-1.215,0.256l-0.498,0.223l0.333,0.798l0.041,0.228l-0.143,0.193l-0.506,0.344
		l-0.109,0.145l-0.059,0.623l-0.25,1.177l-0.057,0.575l0.501,0.364l2.405-0.423l0.786,0.168v0.178l-0.691,0.669l-0.509,0.395
		l-0.24,0.186l-0.808,0.453l-0.875,0.293l-0.631,0.02l-1.151-0.326l-2.359-0.389l-0.51,0.102l-0.371,0.372l-0.247,0.458l-0.333,0.39
		l-1.068,0.318l-0.424,0.377l-0.698,0.869l-0.734,0.647l-0.278,0.353l-0.112,0.481l-0.131,0.371l-0.6,0.861l-0.196,0.465v0.376
		l-0.348,0.763l-0.292,0.999l-0.341,2.568l-0.25,0.906l-0.059,0.619l-0.116,0.509l-0.266,0.403l-0.306,0.364l-0.074,0.4l0.015,0.388
		l0.045,0.494l-1.186-0.761l-0.212-0.319l-0.134-0.275l-0.176-0.241l-0.358-0.221l-0.392-0.081l-0.317,0.002l-0.292-0.101
		l-0.313-0.398l-0.26-0.225l-0.098-0.266l-0.063-0.279l-0.173-0.254l-0.28-0.224l-0.133-0.028l-0.126,0.066l-1.476,0.219
		l-0.601,0.204l-0.487,0.324l-0.308,0.446l-0.361,1.043l-0.243,0.47l-0.456,0.43l-0.475,0.163l-1.096-0.003l-0.559,0.101
		l-1.005,0.429l-0.523,0.095l-0.263-0.058l-0.411-0.286l-0.243-0.104l-0.283-0.022l-0.495,0.069l-0.26-0.013l-2.078-0.692
		l-1.32-0.92l-0.383-0.146l-0.523,0.191l0.243,0.487l0.996,1.053l0.232,0.532l0.305,1.68l0.884,0.96l0.187,0.461l-0.143,0.727
		l-0.277,0.494l-0.043,0.029l-0.256,0.171l-0.319,0.162l-0.352,0.38l-0.895,0.762l-3.252,1.018l-0.691,0.109l-0.551-0.279
		l-1.051-0.88l-0.473-0.223l-1.116-0.327l-0.523-0.051l-1.107,0.166l-1.191,0.477l-1.001,0.751l-0.531,0.984l-0.296,1.977
		l0.031,0.285l0.157,0.524l0.02,0.267l-0.07,0.137l-0.129,0.152l-0.129,0.203l-0.056,0.292l0.09,0.694l0.134,0.538l0.031,0.546
		l-0.213,0.716l-0.358,0.623l-0.375,0.325l-1.049,0.42l-0.968,0.715l-0.422,0.091l-0.52-0.798l-0.341-0.311l-0.378-0.27
		l-0.814-0.377l-1.585,1.238l-0.517,0.178l-2.402,0.355l-0.475,0.214l-0.227,0.222l-0.461,0.595l-0.207,0.143l-0.607,0.118
		l-0.54,0.211l-0.28,0.252l-0.039,0.195l-0.106,0.036l-0.464-0.216l-0.28-0.234l-0.204-0.264l-0.238-0.172l-0.298,0.031
		l-0.088,0.009l-0.945,0.505l-1.222,0.04l-1.267-0.123l-1.09,0.019l-1.205,0.578l-0.682,0.148l-0.498-0.353l-0.067-0.301l0.034-0.59
		l-0.126-0.281l-0.198-0.107l-0.917-0.29l-1.077-0.992l-0.565-0.319l-0.688,0.114l-0.352-0.119l-0.333-0.478l-0.405-0.395
		l-0.57,0.134l-0.179,0.391l-0.361,1.882l0.028,0.525l0.224,1.04l-0.008,0.508l-0.143,0.363l-0.221,0.081l-0.263-0.007l-0.296,0.093
		l-0.238,0.212l-0.394,0.476l-0.218,0.2l-1.683,0.85l-0.452,0.067l-0.554,0.082l-0.238,0.354l-0.025,0.523l0.056,0.573l0.089,0.363
		l0.103,0.142l0.017,0.16l-0.179,0.419l-0.232,0.306l-0.898,0.801l-0.9,1.241l0.017,0.205l0.201,0.554l0.042,0.286l0.173,0.688
		l0.378,0.536l0.246,0.496l-0.212,0.564l-0.26,0.105l-0.308-0.025l-0.252,0.043l-0.106,0.307l0.151,0.261l0.722,0.59l0.24,0.267
		l0.199,0.541l0.07,0.513l-0.117,2.244l-0.182,0.408l-0.383,0.44l-1.681,1.302l-0.294,0.537l-0.176,1.099l-0.193,0.444l-0.386,0.418
		l-0.568,0.41l-0.277,0.278l0.109,0.341l0.61,0.609l0.654,0.494l0.285,0.302l0.115,0.362l-0.106,0.746l0.025,0.236l0.333,1.061
		l0.084,0.51l0.014,0.63l0.134,1.07l0.308,1.134l0.193,1.161l-0.215,1.151l-0.165,0.326l-0.078,0.052l-0.132-0.035l-1.289,0.36
		l-1.432-0.04l-0.526,0.175l-1.882,1.258l-1.051,0.508l-1.264-0.034l-0.668,0.124l-0.288-0.04l-0.294-0.186l-0.12-0.2l-0.076-0.237
		l-0.554-0.881l-0.238-0.158l-0.196-0.025l-0.582-0.073l0.168,0.322l0.582,0.546l0.308,0.541l0.112,0.42l0.624,1.311l0.688,1.078
		l0.092,0.632l0.008,0.652l0.157,0.704l0.378,0.632l0.54,0.55l0.585,0.444l0.548,0.32l0.252-0.207l0.117-0.218l0.503-1.369
		l0.05-0.064l0.308-0.074l1.376,0.561l0.349,0.202l0.168,0.428l-0.014,0.521l-0.204,0.439l-0.405,0.186l-0.076,0.268l0.299,0.593
		l1.39,1.943l0.106,0.186l0.028,0.169v0.243l0.059,0.335l0.252,0.519l0.061,0.311l-0.028,0.171l-0.118,0.271l-0.025,0.143
		l0.039,0.245l0.095,0.022l0.12-0.032l0.115,0.073l0.369,0.177l0.056,0.118l0.084,0.346l0.394,0.962l0.115,0.145l0.087,0.151
		l0.123,0.334l0.062,0.334l-0.087,0.153l-0.09,0.078l-0.744,0.504l-0.763,1.353l-0.171,0.423l0.366,1.347l-0.621,0.085l0.212,0.392
		l0.338,0.284l0.271,0.336l0.126,0.382l0.154,0.327l0.654,0.556l0.232,0.294l0.053,0.292l0.005,0.326l0.036,0.361l0.168,0.395
		l0.26,0.349l3.762,3.529l0.698,0.654l0.4,0.267l0.64,0.303l0.285,0.177l0.24,0.276l0.12,0.424l0.598,0.947l0.28,0.812l0.187,0.39
		l0.358,0.382l0.366,0.191l0.394,0.136l0.322,0.205l0.162,0.401l-0.017,0.349l-0.098,0.598l0.059,0.369l0.215,0.272l2.315,2.221
		l0.422,0.241l0.52,0.423l0.953,1.392l0.615,0.426l-0.221,0.249l-0.126,0.323l0.059,0.244l0.705,0.004l0.025,0.219l-0.14,0.255
		l-0.106,0.097l0.363,0.642l0.369,0.36l0.47,0.146l1.328,0.031l0.545,0.159l0.487,0.314l0.495,0.494l0.285,0.431l0.459,0.925
		l0.294,0.373l0.159,0.373l0.008,0.472l0.101,0.415l0.422,0.197l0.254,0.177l0.176,0.387l0.232,0.806l-0.341-0.25l-0.307-0.083
		l-0.218,0.136l-0.067,0.402l0.118,0.34l0.243,0.146l0.266,0.108l0.199,0.228l-0.081,0.314l-0.327,0.349l-0.439,0.28l-0.397,0.115
		l-0.324,0.467l-0.212,0.54l0.053,0.502l0.803,0.628l0.137,0.318l0.19,0.772l0.375,0.54l0.942,0.654l0.392,0.519l0.115,0.287
		l0.053,0.255l-0.011,0.26l-0.09,0.299l0.006,0.303l0.168,0.293l1.655,2.214l0.221,0.512l-0.042,0.297l-0.271,0.589l0.034,0.307
		l0.35,0.819l0.394,2.03l0.171,0.422l0.517,0.371l0.434-0.323l0.808-1.221l1.633-1.306l0.364-0.669l0.227-1.166l0.224-0.452
		l0.565-0.474l0.103,0.961l0.506,0.5l0.626,0.408l0.467,0.692l0.022,0.513l-0.268,1.228l-0.129,1.278l-0.134,0.446l-0.761,0.896
		l-0.338,0.514l-0.173,0.555l-0.053,0.6l0.02,0.654l-0.126,0.252l-0.638,0.706l-0.238,0.172l-0.417,0.057l-0.19-0.125l-0.154-0.197
		l-0.322-0.15l-1.658-0.217l-0.475,0.02l-0.565,0.278l-0.227,0.469l-0.168,0.563l-0.378,0.553l-0.299,0.253l-0.204,0.115
		l-0.229,0.031l-0.352,0.001l-0.274-0.084l-0.333-0.145L450.905,396l-0.241,0.225l0.084,0.374l0.727,1.05l0.185,0.561l-0.084,0.502
		l-0.327,1.096l0.02,0.676l0.199,1.18l-0.062,0.512l-0.847,2.829l-0.076,0.658l0.103,1.036l0.046,0.463l-0.056,1.605l0.635,4.183
		l0.05,1.415l-0.246,1.314l-0.713,0.823l-0.09-0.61l-0.4-0.441l-0.554-0.318l-0.554-0.244l-0.517,0.276l-0.434,0.17l-0.973,0.21
		l-0.176,0.122l-0.02,0.228l0.112,0.476l-0.034,0.249l-0.148,0.154l-0.238,0.138l-0.031,0.03l-0.067,0.102l-0.064,0.141
		l-0.036,0.145l0.067,0.073l0.165,0.097l0.162,0.128l0.073,0.162v0.425l-0.067,0.187l-0.19,0.056l-0.406-0.159l-0.926-0.568
		l-0.492-0.191l-0.615-0.102l-0.327,0.074l-0.956,1.375l-0.4,0.396l-0.473,0.222l-0.209-0.01l-0.825-0.039l0.019,0.327l0,0.004
		l0.183,0.438l0.164,0.392l-0.134,0.516l-0.562,0.981l-0.123,0.545l0.206,0.661l0.831,0.874l0.005,0.006l0.146,0.611l-0.087,0.288
		l-0.148,0.241l-0.117,0.267l-0.003,0.223l-0.002,0.142l0.106,0.295l0.537,0.964l0.182,0.614l-0.034,1.008l0.048,0.588l0.081,0.148
		l0.291,0.24l0.087,0.179l-0.008,0.137l-0.092,0.407l0.215,0.544l1.465,2.347l3.266,3.18l0.355,0.551l0.235,0.603l0.148,0.677
		l0.199,0.391l0.333,0.131l0.352,0.191l1.882,3.879l1.23,1.566l0.224,0.222l0.352,0.237l0.19,0.077l0.417,0.096l0.199,0.092
		l0.176,0.175l0.347,0.462l0.185,0.138l0.411,0.014l0.319-0.111l0.26,0.039l0.651,1.297l0.612,0.653l3.21,2.445l0.579,0.257
		l0.649,0.192l0.475,0.306l0.271,0.453l0.062,0.634l0.145,0.512l0.861,1.044l0.33,0.529l0.274,0.613l0.246,0.326l0.85,0.639
		l0.12,0.166l0.137,0.417l0.106,0.169l0.143,0.075l0.377,0.105l0.123,0.084l0.14,0.235l0.059,0.182l-0.008,0.213l-0.064,0.335
		l0.008,0.481l0.308,1.332l0.207,0.449l0.878,0.852l0.149,0.235l0.156,0.245l0.008,0.728l-0.09,0.633l0.067,2.339l0.97,4.308
		l0.025,0.535l-0.14,1.389l0.089,0.535v0.267l-0.115,0.29l-0.156,0.233l-0.112,0.262l0.017,0.375l0.341,1.041l0.112,0.57
		l-0.078,0.48l-0.021,0.019l-0.37,0.335l-1.071,0.121l-0.517,0.197l-0.324,0.465l0.003,0.542l0.084,0.617l-0.076,0.701l-0.235,0.659
		l-0.148,0.62l0.131,0.556l0.598,0.47l0.464,0.288l0.503,0.451l0.372,0.535l0.067,0.542l-0.115,0.315l-0.14,0.242l-0.101,0.26
		l-0.028,0.362l0.059,0.252l0.355,0.843l0.092,0.854l0.092,0.275l0.215,0.301l0.537,0.519l0.207,0.322l0.101,0.571l-0.034,0.529
		l0.025,0.498l0.28,0.477l0.243,0.12l0.618,0.102l0.282,0.184l0.12,0.251l0.061,0.562l0.092,0.221l0.254,0.155l0.635,0.181
		l0.201,0.211l0.173,0.291l0.266,0.276l0.299,0.241l1.334,0.748l0.257,0.384l0.04,0.249l0.069,0.429l-0.006,0.589l-0.078,0.613
		l-0.106,0.295l-0.291,0.596l-0.067,0.279l0.115,0.57l0.615,1.111l0.179,0.606l0.076,1.54l0.089,0.53l0.148,0.339l0.417,0.504
		l0.185,0.303l0.073,0.301l-0.064,0.504l0.022,0.295l0.103,0.29l0.291,0.545l0.098,0.28l-0.047,0.378l-0.221,0.25l-0.263,0.213
		l-0.143,0.267l0.092,0.493l0.38,0.093l1.524-0.503l0.277-0.009l0.238,0.107l0.112,0.243l-0.062,0.26l-0.115,0.282l-0.045,0.316
		l-0.431,1.305l-0.09,0.768l0.431,0.397l0.514,0.167l0.369,0.337l0.19,0.47l-0.031,0.564l-0.419,1.115l-0.089,0.569l0.199,0.612
		l0.336,0.42l0.487,0.427l0.52,0.334l0.459,0.133l0.056,0.266l-0.397,1.834l-0.229,0.656l-1.739,2.354l-0.322,0.264l-1.124,0.068
		l-0.624,0.124l-0.442,0.281l-0.249,0.455l-0.036,0.645l0.05,1.119l-0.101,0.462l-0.249,0.546l-0.333,0.46l-0.78,0.792l-0.254,0.443
		l-0.151,0.68l-0.042,0.484l-0.168,0.458l-1.026,1.117l-0.288,0.426l-0.411,1.108l-0.327,0.616l-0.872,1.057l-0.349,0.616
		l-0.819,2.465l-0.185,0.227l-0.576,0.194l-0.266,0.153l-0.201,0.261l-0.255,0.57l-0.176,0.266l-0.291,0.228l-0.212,0.166
		l-1.079,0.563l-0.442,0.454l-0.117,0.246l-0.241,0.832l-0.232,0.335l-0.266-0.007l-0.285-0.15l-0.308-0.094l-0.344-0.051
		l-0.137-0.071l-0.109,0.033l-0.249,0.266l-0.154,0.238l-0.109,0.286l-0.064,0.301l-0.017,0.286l0.059,0.335l0.215,0.56l0.003,0.405
		l-0.101,0.554l-0.115,0.218l-0.201,0.226l-0.129,0.03l-0.965,0.424l-0.291-0.011l-0.232-0.115l-0.252-0.058l-0.361,0.162
		l-0.229,0.257l-0.119,0.303l-0.104,0.264l-0.193,0.24l-0.199,0.061l-0.576,0.035l-0.257,0.078l-0.517,0.466l-1.197,1.594
		l-0.268,0.625l-0.241,1.182l0.098,0.351l0.52,0.451l0.176,0.296l0.38,1.729l-0.025,0.555l-0.375,1.05l-0.274,1.4l-0.514,1.669
		l-0.203,0.087l-0.132,0.118l-0.103,0.158l-0.332,0.682l-0.436,1.37l-0.183,1.074l-0.244,0.421l-0.595,0.631l-0.564,0.837
		l-1.471,3.104l-0.793,1.097l-0.471,0.404l-0.211-0.273l-0.051-0.257l-0.244-0.394l-0.092-0.218l-0.026-0.272l0.04-0.563
		l-0.013-0.273l-0.167-0.884l-0.024-1.248l-0.548-0.887l-0.086-0.314l-0.024-0.2l0.031-0.177l0.456-1.116l0.125-0.453l0.132-1.266
		l0.308-0.985v-0.576l-0.44-1.612l-0.489-0.816l-0.02-0.557l0.191-1.164l-0.137-1.151l-0.867-2.014l-0.119-1.174l0.009-1.176
		l0.115-0.387l0.352-0.145l0.588,0.085l0.344,0.24l0.473,0.82l0.277-0.311l-0.011-0.393l-0.198-0.371l-0.271-0.242l0.313-0.16
		l0.302,0.047l0.284,0.195l0.244,0.295l0.183-0.436l0.2-0.752l0.152-0.317l0.456-0.649l0.077-0.386l-0.163-0.486l0.277,0.021
		l0.244-0.057l0.218-0.131l0.185-0.21l-0.291-0.103l-0.667-0.063l-0.244-0.115l-0.126-0.171l-0.079-0.219l0.073-0.188l0.872-0.227
		l0.304-0.323l0.244-0.323l0.376-0.148l0.132,0.053l0.297,0.245l0.251,0.077l0.053-0.084l0.383-0.135l0.39-0.076l0.079,0.092
		l0.159-0.318l0.119-0.491l0.022-0.509l-0.132-0.376l0.203-0.172l-0.172-0.26l-0.469-0.348l-0.099-0.161l0.066-0.321l0.152-0.135
		l0.2-0.074l0.22-0.13l0.161-0.344l-0.112-0.385l-0.207-0.476l-0.11-0.6l-0.48,0.148l-0.339-0.223l-0.489-0.866l1.202-0.321
		l0.581-0.347l0.244-0.547v-0.857l0.337-0.798l0.145-0.58l0.165-0.174l0.06-0.154l-0.348-0.467l-0.537-1.312l-0.126-0.459
		l-0.015-0.474l0.154-0.495l-0.661,0.17l-0.126-0.247l0.231-0.968l0.238-0.555l0.551-0.192l1.061-0.093l-0.251-0.384l-0.059-1.072
		l-0.244-0.446l-0.247-0.068l-0.445,0.199l-0.233-0.131l-0.062-0.262l0.211-0.456l-0.15-0.241l0.361-0.451l0.075-0.424l-0.086-0.996
		l0.066-0.476l0.161-0.635l0.288-0.461l0.429,0.045l0.33-0.178l0.207,0.088l0.196,0.18l0.291,0.099l0.304-0.115l0.042-0.271
		L458,517.455l0.121-0.256l0.348-0.06l0.511,0.083l0.502,0.171l0.322,0.2h0.185l-0.403-0.801l-1.942-0.383l-0.595-0.514l0.198-0.679
		l0.588-0.634l0.37-0.642l-0.454-0.703l0.194,0.484l-0.158,0.326l-0.262,0.227l-0.251,0.313l-0.628,1.12l-0.178,0.029l-0.469-0.045
		l-0.092,0.11l-0.075,0.056l-0.328,0.336l-0.059,0.08l-0.31,0.136l-0.086,0.332l-0.02,0.403l-0.139,0.345l-0.284,0.296l-0.225,0.109
		l-0.275-0.068l-0.718-0.422l-0.832-0.641l-0.176-0.209l-0.044-0.28l-0.147-0.337l0.007-0.231l0.066-0.2l0.321-0.554l0.148-0.111
		l0.152,0.037l0.086-0.026l-0.033-0.297h-0.74l0.427-0.615l0.128-0.122l0.198-0.051l0.258-0.005l0.211,0.021l0.073,0.034
		l0.242-0.413l0.207-0.508l0.35-0.38l0.694-0.036l-0.337-0.394l-0.568,0.023l-1.143,0.371h-2.215l0.247-0.566l0.542-0.209
		l1.334,0.02l0.476-0.118l0.515-0.28l0.409-0.344l0.317-0.595l0.324-0.13l0.324-0.059l0.145-0.087l0.033-0.926l-0.033-0.293
		l-0.191-0.466l-0.211-0.322l-0.06-0.311l0.26-0.43l-1.29,0.093l-0.178-0.19l-0.363-0.303l-0.304-0.339l0.013-0.299l0.181-0.347
		l-0.128-0.246l-0.178-0.261l0.033-0.393l0.189-0.135l0.348-0.111l0.605-0.113v-0.207h-0.403l0.255-0.305l0.762-0.427l0.376-0.309
		l0.108-0.319l-0.095-0.339l-0.187-0.27l-0.189-0.11l-0.903,0.137l-0.597,0.339l-0.526,0.431l-0.669,0.415l-0.22-0.103l-0.48-0.161
		l-0.205-0.115l-0.436-0.437l-0.218-0.507l0.031-0.532l0.319-0.516l0.443-0.313l0.522-0.17l2.411-0.504l0.568-0.352l0.238-0.552
		l-0.178-0.445l-0.425-0.257l-0.889-0.346l-0.665-0.661l-0.161-0.115l-0.363-0.126l-0.062-0.295l0.141-0.609l0.026-0.613
		l0.132-0.352l0.33-0.177l0.621-0.096h1.024l0.33-0.087l0.198-0.19l0.026-0.189l-0.178-0.087l-0.225-0.042l-0.361-0.237
		l-0.227-0.115l-0.302-0.044l-0.304,0.01l-0.291-0.026l-0.247-0.149l-0.211-0.58l0.22-0.586l0.357-0.591l0.189-0.599l0.088-0.096
		l0.196,0.007l0.205,0.028l0.099-0.026l-0.024-0.176l-0.194-0.407l0.07-0.786l0.148-0.351l0.196-0.265l0.172-0.161l0.121-0.211
		l0.046-0.412l-0.097-0.078l-0.749,0.181l-0.357-0.049l-0.181-0.132l-0.024-0.183l0.099-0.203l0.211-0.095l0.291,0.009l0.269-0.047
		l0.154-0.263l-0.231-0.129l-1.149,0.13l-0.267-0.278l-0.011-0.309l0.042,0.064l0.136-0.031l0.284-0.139l0.196-0.034l0.141-0.094
		l0.119-0.319l-0.462-2.256l-0.258-0.156l-0.636-0.744l-0.308-0.237l0.277-0.612l0.181-0.25l0.196-0.102l-0.099-0.148l-0.37-1.008
		l-0.284-0.572l-0.064-0.28l-0.092-1.077l0.044-0.324l0.211-0.211l-0.176-0.814l-0.132-2.023l-0.339-0.406l-0.348-0.187
		l-1.422-1.142l-0.145-1.009l-0.141-0.344l-0.269,0.388l-0.128-0.251l-0.066-0.278l-0.011-0.298l0.02-0.313l-0.344-0.859
		l-0.009-0.377l0.352-0.282l-0.04-0.194l-0.013-0.216l0.053-0.524l-0.242,0.148l-0.141,0.215l-0.167,0.57l0.026-0.471l-0.077-0.417
		l-0.152-0.36l-0.167-0.291l-0.128-0.103l-0.167-0.093l-0.159-0.134l-0.101-0.222l0.022-0.213l0.264-0.249l0.066-0.211l-0.141-0.315
		l-0.625-0.901l-0.251-0.566l-0.273-0.254l-0.361-0.212l-0.363-0.121l0.106-0.342l-0.121-0.242l-0.555-0.382l0.009-0.591
		l-1.017-1.426l-0.286-0.661l0.2,0.189l0.172-0.363l-0.685-0.172l-0.524,0.023l-0.339-0.214l-0.117-0.891l0.311-1.017l0.059-0.425
		l-0.059-0.387l-0.097-0.358l-0.015-0.364l0.172-0.396l-0.165-0.306l-0.39-1.52v-1.236l-0.066-0.302l-0.092-0.245l-0.015-0.215
		l0.174-0.21v-0.171l-0.304-0.292l-0.372-0.461l-0.315-0.517l-0.132-0.461h-0.172l-0.033,0.338l-0.123,0.583l-0.029,0.332
		l0.086,0.151l0.383,0.458l0.086,0.143l-0.033,0.776l-0.132,0.365l-0.297,0.39l-0.059,0.356l0.405,1.062l0.117,0.494l-0.059,0.526
		l-0.251,0.981l-0.231,2.304l0.381,1.285l0.068,0.499l-0.073,0.468l-0.205,0.523l-0.092,0.158l-0.095,0.125l-0.097,0.168
		l-0.101,0.295l-0.07,0.335l-0.013,0.27l0.084,0.569l0.322,0.339l0.092,0.219l-0.214,0.188l-0.214-0.02l-0.196-0.159l-0.346-0.392
		l-0.037,0.208l-0.104,0.2l-0.042,0.162l-0.06-0.306l0.018-0.379l-0.038-0.321l-0.191-0.136l-0.123-0.118l0.137-0.262l0.242-0.265
		l0.198-0.133l-0.11-0.143l-0.152-0.279l-0.106-0.15l0.39-0.106l0.178-0.333l-0.011-0.442l-0.189-0.433l0.449,0.016l0.031-0.213
		l-0.227-0.263l-0.346-0.126l-0.645,0.035l-0.2-0.043l-0.354-0.165l0.092-0.168l0.183-0.44l0.095-0.171l-0.674-0.299l-0.251-0.843
		l0.165-0.701l0.575,0.133l-0.165-1.236l-0.02-1.161l0.159-0.449l0.046-0.27l-0.112-0.119l-0.148-0.044l-0.222-0.116l-0.205-0.16
		l-0.086-0.183l-0.081-0.658l-0.37-1.15l-0.106-0.579l0.123-0.631l0.599-0.858l0.218-0.415l0.026-0.386l0.277-0.497l0.066-0.363
		l-0.042-0.268l-0.328-0.981h0.37l-0.099-0.375l-0.145-0.296l-0.158-0.055l-0.152,0.346l-1.295-1.716l-0.729-1.581l-0.577-0.866
		l-0.202-0.617l-0.128-0.666l-0.042-0.585l0.077-0.61l0.361-0.85l0.117-0.532l-0.238,0.243l-0.196,0.29l-0.211,0.165l-0.28-0.127
		l-0.108-0.264l-0.277-1.262l-0.824-1.531l-0.211-0.812l0.311-0.728l-0.676-0.49l-0.394-0.717v-0.786l0.502-0.697l1.057-0.314
		l0.687,0.663l0.647,0.917l0.951,0.453l-0.951-1.275l-0.277-0.62l0.489-0.19l-0.403-0.171l-0.388-0.216l-0.174-0.312l0.225-0.463
		l-0.196-0.165l-0.185-0.252l-0.134-0.258l-0.055-0.184l-0.053-0.128l-0.123,0.1l-0.194,0.296l0.048,0.065l0.092,0.16l0.073,0.196
		l-0.013,0.17l-0.39,0.32l-0.379-0.18l-0.282-0.485l-0.073-0.61h-0.185l-0.073,0.506l0.207,1.175l-0.227,0.23l-0.147,0.071
		l-0.143,0.152l-0.205,0.133l-0.337,0.026l-0.185-0.075l-0.159-0.143l-0.119-0.176l-0.092-0.179l-0.742-3.204l-0.546-0.821
		l-0.004-0.005l0.15-0.28l0.059-0.297l-0.007-0.665l0.059-0.316l0.251-0.398l0.06-0.241l-0.084-0.687l-0.229-0.43l-0.357-0.281
		l-0.458-0.245l0.15-0.233l0.207-0.138l0.255-0.049l0.311,0.036l-0.108-0.198l-0.143-0.371l-0.117-0.197l0.326-0.47l0.092-0.556
		l-0.084-2.238l0.101-0.454l0.321-0.509l-0.753,0.014l-0.396-0.075l-0.295-0.332l-0.709-1.22l-0.062-0.245l-0.018-0.455l0.048-0.733
		l-0.101-0.31l-0.321-0.297l0.084-0.263l0.123-0.178l0.185-0.103l0.26-0.032l0.277-0.958l0.167,0.137l0.222-0.106l0.531-0.414
		l-0.214-0.323l-0.689-1.997l0.013-0.375l0.335-0.772l-0.185-0.354l-0.663-1.698l0.02-0.162l0.099-0.21v-0.237l-0.073-0.232
		l-0.119-0.192l0.115-0.265l-0.022-0.398l-0.141-0.423l-0.222-0.343l-0.125-0.258l0.048-0.245l0.117-0.236l0.059-0.222l-0.084-0.215
		l-0.379-0.436l-0.106-0.221l0.033-0.17l0.251-0.237l0.082-0.169l0.018-1.839l-0.154-0.365l-0.414-0.117l0.167-0.769l-0.564-0.693
		l-1.466-1.037l-0.744-0.977l-0.742-0.71l-0.178-0.234l0.007-0.134l-0.191-1.133l0.013-0.286l0.066-0.21l0.141-0.132l0.242-0.046
		l0.403-0.173l0.306-0.421l0.203-0.508l0.524-3.181l0.249-0.588l0.073-0.341l-0.026-0.353l-0.086-0.266l-0.258-0.533l-0.291-1.112
		l-0.092-1.208l0.097-1.215l0.286-1.123l0.396-0.843l0.595-0.74l0.793-0.526l1-0.202l0.004-0.001l-0.128-0.212l-0.163-0.161
		l-0.207-0.123l-0.242-0.083l-0.253,0.176l-1.372,0.951l-0.608,0.223l-0.471,0.039l-1.748-0.214l-0.687,0.048l-0.625,0.126
		l-0.159,0.084l-0.123,0.128l-0.143,0.121l-0.211,0.054l-0.152-0.026l-0.324-0.117l-0.178-0.033l-0.786,0.032l-0.555,0.184
		l-0.436,0.367l-0.438,0.574l-0.89-4.178v-0.676l-0.205-0.688l-0.504,0.776l-0.686-0.185l-0.822-1.1l-0.41-0.961l-0.273-1.052
		l0.001-0.777l0.395-0.588l-0.247-0.342l-0.07-0.291l0.009-0.258l0.192-0.725h-0.2l-0.238,0.603l-0.092,0.357l-0.037,0.41
		l-0.284-0.199l-0.112-0.339l-0.007-0.413l0.033-0.418l0.37-0.755l-0.218-0.186l-0.244,0.03l-0.293,0.156l-0.225-0.573l0.092-0.72
		l0.332-1.427l-0.02-0.454l-0.086-0.237l-0.449-0.47l-0.172-0.229l-0.205-0.36l-0.163-0.408l-0.035-0.372l0.467-0.726l0.755,0.183
		l0.846,0.308l0.74-0.344l-1.046-0.513l-0.533-0.174l-0.561-0.069l-0.645,0.134l-0.273,0.351l-0.163,0.496l-0.306,0.564
		l-0.438-0.592l-0.383-0.947l-0.117-0.906l0.37-0.472v-0.194l-0.566-0.12l-0.187-0.461l-0.086-0.611l-0.271-0.567l-0.539-0.267
		l-0.678-0.189l-0.445-0.3l0.167-0.597l-2.944-2.159l-0.244-0.265l-0.152-0.285l-0.077-0.486l0.035-0.92l-0.143-0.373l-0.31,0.445
		l-0.22,1.087l-0.209,0.422l-0.099-0.157l-0.205-0.245l-0.066-0.18l-0.172,0.08l-0.159,0.107l-0.134,0.114l-0.09,0.104l0.185,0.177
		l0.619,0.82l0.903,0.587l0.705,0.617l0.007,0.913l-0.553,0.678l-0.676,0.584l-0.436,0.775l0.172,1.251l1.07,1.903l0.403,0.982
		l0.02,1.19l-0.161,0.408l-0.489,0.877l-0.211,1.264l-0.291,0.178l-0.896-0.215l0.077,0.27l0.121,0.249l0.159,0.236l0.198,0.228
		l-0.35-0.034l-0.594-0.143l-0.35-0.032v0.209l0.37,0.196l0.346,0.258l0.262,0.32l0.132,0.385l-0.059,0.435l-0.401,0.65
		l-0.167,0.637l-0.39,0.98l-0.403,0.067l-0.189,0.177l0.04,0.244l0.275,0.285l-0.482,0.707l-0.462,0.431l-1.09,0.79l-0.258,0.305
		l-0.484,0.802l-0.513,1.555l-1.067,0.832l-0.652,0.772l-1.541,0.596l-1.66,0.359l-1.66,0.181l-0.977-0.742l-0.623-0.115
		l-0.542-0.293l-1.821-1.364l-0.451-0.431l-0.194-0.416l-0.027-0.704l-0.092-0.534l-0.161-0.469l-0.544-1.145l-0.17-0.591
		l-0.077-0.584l-0.018-0.619l0.238-0.441l1.092-0.728l0.33-0.296l-0.799-0.078l-1.381,1.086l-0.958,0.168l0.156,0.262l0.465,0.54
		l0.099,0.257l0.185,1.061l0.277,0.476l0.705,0.833l0.141,0.532l-0.062,0.334l-0.275,0.609l-0.046,0.301l0.073,0.307l0.317,0.607
		l1.301,1.788l0.423,0.76l0.467,0.315l0.247,0.395l-0.41,0.682l-0.449,0.25l-0.524,1.139l-1.719,0.598l-1.558,0.341l-0.546,0.22
		l-0.678,0.088l-0.577-0.192l-0.247-0.599l-0.302-0.311l-1.916-0.748l1.623,1.458l0.026,0.716l-1.319,1.508l-1.05,0.947
		l-0.489,0.181l-0.529-0.066l-0.018-0.211l0.185-0.36l0.077-0.516l-0.476,0.409l-0.317,0.499l-0.385,0.385l-0.672,0.072l0.086-0.24
		l0.099-0.741l-1.942,1.915l-0.553,0.876l-0.57,0.119l-0.57-0.128l-0.262-0.369l-0.029-0.458l-0.097-0.569l-0.178-0.508
		l-0.264-0.282l0.2,2.693l-0.189,0.587l-0.764,1.139l-0.172,0.493v1.346l-0.09,0.35l-0.612,1.098l-3.822,4.094l-1.673,1.207
		l-0.801,0.762l-0.438,0.3l-0.522,0.185l-0.603,0.038l-1.722-0.23l-0.436-0.13l-0.176-0.345l-0.145-2.761l0.209-0.237l0.324-0.161
		l0.282-0.395l0.137-0.497l-0.101-0.465l0.665-0.6l0.438-0.825l0.258-0.934l0.132-0.924l-0.018-0.602l-0.132-0.442l-0.405-0.896
		l-0.086-0.525l0.112-0.337l0.189-0.344l0.134-0.542h-0.165l-0.205,0.269l-0.262,0.252l-0.216,0.28l-0.075,0.353l0.117,0.461
		l0.372,0.85l0.084,0.543l-0.079,1.269l-0.106,0.355l-0.81,1.035l-0.398,1.241l-0.605,0.746l-0.625,0.231l-0.348-0.723l0.198-0.599
		l0.449-0.722l0.357-0.837l-0.079-0.931l-0.918,1.502l-0.407,0.893l-0.172,0.966l0.183,2.085l-0.315,0.663l-1.059,0.246
		l-0.786-0.318l-0.509-0.801l-0.258-1.06l-0.026-1.087l0.603-3.172l-0.233-0.897l-0.572,1.538l-0.273-1.161l0.339-1.191l0.751-0.926
		l0.964-0.374l0.909,0.057l0.282-0.057l0.225-0.179l-0.093-0.119L360.44,394l-0.313-0.021l-0.189-0.06l-0.132-0.266l-0.141-0.06
		l-0.139,0.027l-0.416,0.148l-0.205,0.019l-0.185,0.056l-0.17-0.079l-0.18-0.382h-0.185l-0.198,0.471l-0.746,1.07l-0.634,0.529
		l-0.073,0.747l0.159,1.431l-0.022,0.756l-0.484,3.503l-0.22,0.676l-0.35,0.46l-0.275,0.1l-0.374,0.081l-0.335,0.112l-0.139,0.194
		l-0.053,0.201l-0.117,0.222l-0.148,0.183l-0.139,0.076l-0.694,0.042l-0.33-0.042l-0.925-0.384l-1.215-0.135l-0.319-0.224
		l0.319-0.513l0.289-0.188l0.304-0.137l0.266-0.188l0.172-0.343l-0.011-0.229l-0.095-0.26l-0.139-0.213l-0.139-0.083l-0.504,0.648
		l-0.291,0.109l-0.13-0.66l0.046-0.892l-0.046-0.357l-0.337-0.802l-0.033-0.352l0.132-0.363l0.291-0.451l0.337-0.385l0.264-0.161
		l0.458-0.055l0.48-0.185l0.363-0.354l0.092-0.56l-0.94,0.594l-0.13-0.525l-0.117-1.237l-0.451-0.912l-0.011-0.433l0.143-0.402
		l0.504-0.81l0.352-0.366l0.467-0.242l0.638-0.09l0.496-0.15l0.429-0.38l0.317-0.504l0.152-0.523l-0.119,0.181l-0.359,0.362
		l-0.077,0.14l-0.134,0.173l-0.652,0.113l-0.493,0.213l-0.599-0.023l-0.255,0.109l-0.667,0.898l-0.073,0.141l-0.299,0.244
		l-0.141,0.575l-0.029,1.219l0.059,0.302l0.251,0.573l0.06,0.276l0.053,0.168l0.099,0.121l0.046,0.122l-0.35,0.632l-0.033,0.127
		l-0.244,0.394l-1.605,1.065l-0.344,0.529l-0.779,1.758l-0.275,0.35l-0.379,0.33l-0.469,0.231l-0.542,0.048l-0.68-0.217
		l-0.264-0.397l-0.119-0.521l-0.244-0.592l-0.073,0.519l-0.282-0.052l-0.33-0.378l-0.24-0.457l0.74-0.505l0.997-0.528l1.017-0.688
		l0.788-0.986l0.255-1.404l0.198-0.236l0.244-0.219l0.211-0.274l0.106-0.257l0.06-0.245l0.02-0.564l0.106-0.11l0.231-0.133
		l0.203-0.233l0.029-0.398l-0.502,0.295l-0.249,0.34l-0.372,0.903l-0.724,1.225l-0.2,0.542l-0.344,0.676l-0.436,0.376l-0.482,0.302
		l-1.532,1.489l-0.674,0.34l-0.63-0.11l-0.115-0.742l0.713-0.968l1.451-1.363l0.568-0.994l0.42-1.163l0.211-1.241l-0.077-1.235
		l-0.409-0.893l-0.095-0.472l0.227-0.482l0.317-0.486l0.531-1.726l0.156-0.201l0.266-0.051l0.317,0.041v-0.193l-0.286-0.31
		l-0.429-2.669l0.011-0.32l0.121-0.361l0.178-0.161l0.22-0.062l0.167-0.143l0.018-0.405l-0.947,0.457l-0.361-0.069l-0.187-0.597
		l-0.185,0.629l0.37,2.472v1.635l-0.145,0.438l-0.632,0.729l-0.145,0.391l-0.163,0.714l-0.427,0.657l-0.575,0.482l-0.614,0.186
		l-0.053-0.196l0.286-0.444l0.605-0.742l0.555-1.154l-0.156-0.499l-0.313,0.061l-0.31,0.452l-0.211,0.912l-0.172,0.286l-0.24,0.244
		l-0.262,0.1l-0.324-0.069l-0.216-0.169l-0.174-0.193l-0.209-0.145l-0.506-0.107l-0.15,0.232l0.086,1.124l-0.04,0.66l-0.112,0.53
		l-0.167,0.438l-1.392,2.366l-0.744,0.886l-0.854,0.427l-0.561,0.082l-0.41,0.191l-0.251,0.419l-0.09,0.766l-0.216,0.307
		l-0.502,0.177l-0.559,0.006l-0.383-0.219l-0.568,0.631l-0.383,0.187l-0.324-0.221l-0.674-1.083l-0.13-0.4l-0.015-0.436l0.158-3.187
		l0.614-3.254l-0.066-2.121l0.075-0.346l0.097-0.152l0.335-0.379l0.123-0.223l0.392-2.232l-0.13-1.721l0.13-0.301l0.96,0.293
		l0.608-0.024l0.277-0.558l0.207-0.839l-0.075-0.404l-0.502-0.221v-0.175l0.66-0.344l0.269-0.477l0.009-1.423l0.057-0.431
		l0.242-0.796l0.057-0.324l0.112-0.412l0.509-0.577l0.114-0.353l-0.055-1.197l-0.112-0.452l-0.352-0.718l-0.123-0.422l0.092-0.405
		l0.225-0.152l0.271,0.062l0.304,0.106l0.306-0.016l0.328-0.251l0.795-1.117h-0.55l0.258-0.441l0.106-0.5l-0.029-1.916l0.031-0.253
		l0.11-0.286l0.445-0.663l0.156-0.357l0.126-0.524l-0.084-0.476l-0.755-0.361l-0.139-0.353l0.046-0.393l0.28-0.26l1.251,0.574
		l0.214-0.099l0.099-0.15l0.216-0.117l0.2-0.154l0.055-0.264l-0.132-0.239l-0.227-0.121l-0.238-0.089l-0.159-0.131l-0.09-0.366
		l0.09-1.277l0.187-0.367l0.388-0.062l0.33-0.163l0.02-0.668l0.357,0.095l0.357,0.148l0.324,0.221l0.271,0.311l-0.478-1.872
		l-0.247-2.964l-0.031-0.39l0.095-0.492l0.007-0.319l-0.101-0.388l-0.196-0.398l-0.106-0.156l-0.042-0.148l-0.011-0.363l0.185-0.73
		l0.449,0.166l0.544,0.524l0.487,0.346l-0.156-0.397l-0.502-0.956l0.011-0.311l0.112-0.32l-0.154-0.311l-0.421-0.437l-0.297-0.565
		l-0.165-0.589l-0.092-1.276l-0.258-0.587l-1.143-1.096l-0.258-0.858l-0.073-1.689l-0.165-0.741l-0.973-2.02l-0.084-0.42
		l0.176-0.407l0.837-0.364l0.282-0.306l0.073-0.651l-0.117-0.674l-0.26-0.618l-0.515-0.784l-0.035-0.314v-0.324l-0.075-0.328
		l-0.15-0.268l-0.304-0.322l-0.117-0.169l-0.178-1.133l-0.198-0.579l-0.443-0.25l-1.242,0.148l-0.515-0.041l-0.376-0.32
		l-0.048-0.256l0.009-0.397l0.048-0.384l0.084-0.229l0.22-0.081l0.299,0.372l0.423-0.161l0.344,0.327l0.286,0.03l0.211-0.154
		l0.326-0.495l0.216-0.146l-0.317-0.466l-0.154-0.51l-0.269-0.413l-0.654-0.168l-0.403-0.189l-0.178-0.457l-0.13-0.541l-0.22-0.449
		l-1.392-1.547l-0.559-0.822l-0.379-0.863l0.379,0.101l0.088-0.268l-0.251-2.366l-0.112-0.31l-2.702-2.632v-0.214h0.203l0.491,0.385
		l1.002-0.014l1.832-0.371l-0.423-0.2l-0.304-0.189l-0.661,0.474l-0.423-0.18l-0.797-1.251l-0.808-1.012l-0.156-0.537l0.044-0.812
		l-0.291,0.233l-0.125,0.389l-0.007,0.419l0.048,0.326l-0.418,0.109l-0.575-0.145l-0.54-0.324l-0.313-0.436l-0.264,0.132
		l-0.106,0.081l-0.41-0.521l-0.163-0.842l0.123-0.842l0.449-0.528l-0.348-0.992l-0.035-0.394l0.057-0.363l0.266-0.486l0.06-0.217
		l0.277-0.516l0.07-0.077l-0.044-0.186l-0.075-0.22l-0.044-0.19l0.727-0.481l0.198-0.196h-0.383l-0.634,0.183l-0.273-0.005
		l-0.434-0.196l-0.04-0.213l0.145-0.299l0.126-0.464l-0.033-0.293l-0.161-0.622l0.022-0.437l0.126-0.361l0.357-0.758l0.073-0.374
		l-0.198-2.387l0.11-0.46l0.269-0.264l0.264-0.602l0.115-0.658l-0.189-0.434l-0.269,0.735l-0.713,1.36l-0.145,0.841l0.216,1.475
		l0.004,0.876l-0.302,0.388l-0.319,0.315l-0.434,0.599l-0.566,0.366l-0.713-0.382l-0.121-0.294l-0.04-0.718l-0.106-0.277
		l-0.319-0.161l-0.255,0.182l-0.152,0.371l-0.013,0.409l0.134,0.204l0.872,0.872l0.225,0.351l0.004,0.246l-0.086,0.242l-0.059,0.333
		l0.062,1.894l0.143,0.568l0.183,0.319l0.451,0.583l0.086,0.367l-0.026,0.319l-0.128,0.432l-0.031,0.234l-0.099,0.304l-0.641,0.781
		l-0.062,0.036l-0.233,0.106l-0.055,0.034l-0.002,0.159l0.053,0.216l0.075,0.182l0.059,0.046l-0.37,0.275l-0.275-0.25l-0.348-0.412
		l-1.127-0.392l-1.407-1.387l-0.535-0.284l-1.182-0.471l-0.423-0.309l-0.214-0.303l-0.15-0.272l-0.172-0.255l-0.297-0.236
		l-0.28-0.06l-0.203,0.068l-0.194-0.04l-0.249-0.375l-0.053-0.322l0.086-0.657l-0.126-0.3l-0.159-0.24l-0.145-0.324l-0.112-0.336
		l-0.046-0.282l-0.185-0.446l-0.944-0.803l-0.363-0.414l-0.727-1.559l-0.291-0.203l-1.585-2.17l-0.291-0.568l-0.104-0.485
		l0.024-1.207l0.183-0.427l0.458-0.43l0.603-0.272l0.619,0.043l0.2,0.194l0.092,0.26l0.115,0.23l0.247,0.099h0.925l0.535,0.888
		l0.159,0.666l-0.423,0.421l1.189,0.825l0.601,0.255l0.812,0.095l0.145,0.715l0.859,0.611l1.143,0.343l1.011-0.086l0.846-0.456
		l1.744-1.309l0.548-0.601l0.02-0.131l-0.051-0.354l0.031-0.12l0.079-0.048l0.225-0.077l0.066-0.055l0.462-0.694l0.172-0.414
		l0.02-0.523l-0.099-0.933l0.159-0.35l0.022-0.216l-0.181-0.197l-0.163,0.008l-0.845,0.168l-0.63-0.129l-0.251-0.299l0.125-0.329
		l0.489-0.222l-0.284-0.144l-0.291-0.055l-0.638,0.002l-0.28-0.088l-0.727-0.715l-1.096-0.754l-0.548-0.522l-0.238-0.576
		l-0.229-0.339l-1.017-0.414l-0.227-0.432l0.196-0.54l0.478-0.279l0.61-0.041l0.579,0.173l-0.152-0.491l0.218-0.44l0.37-0.416
		l0.304-0.437l-0.385-0.601l-0.172-0.182l-0.207,0.808l-0.414,0.765l-0.617,0.466l-0.808-0.079l-0.277-0.22l-0.211-0.356
		l-0.099-0.456l0.049-0.52l0.202-0.344l0.625-0.301l0.264-0.335l-0.804-0.095l-0.354,0.436l-0.172,0.559l-0.242,0.275l-1.22-0.01
		l-0.33-0.283l-0.02-0.704l-0.33,0.745l-0.209,0.28l-0.383,0.152v-1.865l0.137-0.365l1.466-2.149l0.522-0.361l0.65-0.053
		l0.923,0.078l-0.251-0.325l-0.086-0.34l0.132-0.25l0.403-0.066l-0.145-0.246l-0.172-0.201l-0.2-0.129l-0.236-0.032l-0.159,0.111
		l-0.002,0.408l-0.11,0.089l-1.381,0.01l-0.297,0.078l-0.198,0.091l-0.244,0.023l-0.482-0.025l-0.079,0.107l-0.205,0.52
		l-0.185,0.176l-0.359,0.033l-0.379-0.132l-0.326-0.228l-0.216-0.26l0.132-0.082l0.216-0.206l0.172-0.105l-0.997-0.389l-0.291-0.274
		l0.368-0.338l-0.401-0.207l-0.139-0.342l0.132-0.309l0.407-0.105l-0.064-0.211l-0.106-0.202l-0.324,0.176l-0.277,0.196
		l-0.205,0.257l-0.099,0.356l-0.132-0.15l-0.322-0.269l-0.134-0.152l-0.196,0.663l-0.167,0.218l-0.284,0.083l-0.304-0.116
		l-0.328-0.286l-0.26-0.351l-0.106-0.319l-0.141-0.701l-0.555-1.482l-0.044-0.695h-0.203l-0.009,1.092l-0.066,0.57l-0.277,0.127
		l-0.159-0.345l-0.414-1.838h-0.185l-0.198,0.603l-0.372,0.458l-0.509,0.322l-0.581,0.192l-0.753-0.068l-0.797-0.272l-0.674-0.148
		l-0.379,0.309l-0.403-0.199l-0.376-0.271l-0.308-0.332l-0.207-0.379l0.04,0.564l0.185,0.457l0.515,0.945l0.555,1.984l1.612,3.173
		l0.066,0.755l-0.559-0.463l-0.438-0.739l-0.68-1.548l-0.423-1.43l-0.339-0.808l-0.449-0.353l-0.605,0.368l-0.192,0.855l0.11,0.963
		l0.493,1.058l0.15,0.906l0.125,0.405l0.346,0.439l0.103,0.083l0.126,0.067l0.086,0.119l0.271,0.411l-0.004,0.06l-0.531-0.621
		l-0.264-0.08l-0.132-0.068l-0.258-0.363l-0.335-0.796l-1.44-2.21l-0.181-0.498l-0.11-0.76l-0.277-0.521l-0.722-0.783l-0.546-0.79
		l-0.293-0.3l-0.13-0.285l-0.049-0.848l-0.106-0.352l0.489,0.129l1.466-0.129l0.324-0.152l0.277-0.357l0.416-0.673l0.07,0.157
		l0.062,0.113l0.046,0.124l0.007,0.197h0.198l0.575-1.518l0.147-0.27v-0.18l-0.859,0.226l-1.132,1.222l-0.78,0.518l-0.76-0.143
		l-0.081-0.915l0.372-1.518l0.475-0.495l0.608-2.178l0.403-0.495l0.667-0.27l0.284-0.648l0.247-1.446l-0.502,0.408l-0.253,1.165
		l-0.35,0.415l-0.443-0.078l-0.244-0.557l-0.086-0.734l0.033-0.619l1.037-1.879l0.407-1.063l-0.335-0.627l-0.123,0.547l-0.227,0.645
		l-0.304,0.624l-0.363,0.479l-0.352,0.653l-0.07,0.824l0.132,1.603l-0.233,1.259l-0.581,1.103l-1.59,2.152l-1.017,2.199l-0.092,0.07
		l-0.152,0.151l-0.24,0.138l-0.348,0.034l-0.198-0.085l-0.139-0.163l-0.231-0.361l-1.724-1.346l-0.293-0.335l0.04-0.44l0.123-0.429
		l0.229-0.412l0.348-0.383l1.746-1.2l1.006-0.21l1.127-0.38l-0.242-0.135l-0.233-0.055l-0.542-0.007l-0.324-0.042l-0.099-0.119
		l-0.053-0.191l-0.189-0.257l-0.652-0.532l-0.262-0.281l-0.174-0.369l-0.242-2.565l-0.126-0.465l-0.315-0.279l-0.612-0.045
		l0.106,0.648l-0.304,0.603l-0.434,0.228l-0.291-0.492l0.403-0.149l0.15-0.028l-0.757-0.585l-0.251-0.889l-0.139-0.978l-0.429-0.841
		l-0.573-0.789l-0.993-1.725l-0.753-0.544l0.66,1.306l1.218,1.843l0.103,0.3l0.236,2.274l0.555,1.595l0.026,0.473l-0.196,1.318
		l0.218,2.973l-0.218,0.592l-0.198-0.353l-0.476-0.62l-0.249-0.443l-1.189-3.175l-0.557-0.818l-2.508-2.338l-0.291-0.458
		l-0.247-1.337l-0.352-0.567l-0.986-0.986l-0.198-0.303l-0.097-0.252l-0.163-0.172l-0.39-0.064l-0.277-0.092l-0.555-0.407
		l-0.277-0.092l-0.462-0.26l-0.277-0.613l-0.275-1.318l-1.495-4.366l-0.469-0.75l-0.192-0.459l-0.284-2.597l-0.145-0.35l-1.106-0.93
		l-0.159-0.448l-0.179-0.432l-0.635-0.597l-0.204-0.4l-0.157-0.514l0.092-0.454l0.151-0.859l0.034-0.567l-0.193-1.154l0.006-0.569
		l0.145-0.507l0.755-1.094l0.366-1.237l0.302-0.571l0.45-0.071l0.856,0.014l1.032-1.245l0.867,0.293l0.358,0.476l0.115,0.476
		l0.056,0.487l0.187,0.509l0.229,0.24l0.288,0.161l0.618,0.213l1.144,0.111l0.9-0.197l0.699,0.159l0.526,1.168l0.207,1.174
		l0.193,0.6l0.322,0.365l0.548-0.047l0.635-0.414l0.526-0.554l0.246-0.471l-0.049-0.295l-0.049-0.294l-0.973-2.946l-0.285-1.456
		l-0.067-0.738l-0.397-6.939l0.473-4.458l-0.076-0.882L289.111,226.431z M437.42,569.831L436.882,570l-0.522-0.115l-0.277-0.344
		l0.198-0.521l0.403-0.192l0.427,0.15l0.293,0.373L437.42,569.831z M442.052,549.955l-0.185,0.601l-0.392,0.403l-0.396,0.029
		l-0.2-0.516l0.119-0.396l0.333-0.241l0.431-0.116l0.425-0.022l-0.033,0.067l-0.07,0.124L442.052,549.955z M447.486,537.349
		l0.09-0.437l0.262-0.259l0.24,0.029l0.04,0.432l-0.132,0.33l-0.209,0.241l-0.198,0.014L447.486,537.349z M421.377,515.14
		l-0.143-0.104l-0.403-0.388l0.502,0.012l0.379,0.319l0.075,0.283L421.377,515.14z M431.453,487.727l-0.044-0.565l0.176-0.361
		l0.297-0.02l0.319,0.453l0.092,0.428l-0.121,0.221l-0.297,0.016L431.453,487.727z M443.864,562.909l-0.423-0.058l-0.165,0.082
		l-0.007,0.161l0.04,0.174l0.158,0.205l0.227,0.112l0.128,0.143l-0.159,0.306l-0.515,0.148l-0.299,0.456l-0.187,0.485l-0.198,0.226
		l-0.436,0.168l-0.927,0.619l-0.394-0.037l-0.095,0.312l-0.123,0.253l-0.066,0.21l0.084,0.179l-0.698,1.133l-0.332,0.308
		l-0.062-0.518l-0.286,0.087l-0.092-0.569l0.026-0.727l0.06-0.386l0.106-0.242l0.086-0.789l0.357-0.087l0.205-0.195l0.099-0.194
		l0.07-0.087l0.154-0.096l0.112-0.224l0.095-0.252l0.101-0.18l0.2-0.169l0.724-0.409l0.782-0.692l0.535-0.234l0.562,0.193
		l0.121-0.083l0.077-0.02l0.357,0.103V562.909z M440.892,560.923l-0.059-0.161l-0.264-0.36l-0.062-0.22l0.101-0.31l0.178-0.253
		l0.09-0.226l-0.169-0.237v-0.203l0.462-0.009l0.707,0.419l0.495,0.153l0.011,0.125l-0.037,0.036l-0.073,0.002l-0.086,0.025
		l-0.079,0.163l-0.079,0.118l-0.002,0.122l0.161,0.174l-0.412,0.228l-0.288,0.207l-0.172,0.291l-0.165,1.307l-0.258,0.782V560.923z
		 M433.47,550.655l-0.24,0.419l0.165,0.161l0.291,0.01l0.152-0.027l0.152,0.162l0.125,0.193l0.222,0.478l-0.137,0.165l-0.139,0.112
		l-0.178,0.047l-0.244-0.028l0.249,0.437l0.134,0.142l-0.588,0.278l-0.443-0.112l-0.119-0.385l0.396-0.531l-0.169-0.353
		l-0.119-0.514l0.077-0.461L433.47,550.655z M449.221,539.736l0.68,0.331l0.634,0.525l0.297,0.75l-0.317,1.009l-0.39,0.255
		l-0.476,0.009l-0.302-0.193l0.156-0.344l0.238-0.095l0.209,0.008l0.154-0.044l0.057-0.253l-0.079-0.187l-0.196-0.073l-0.249,0.033
		l-0.233,0.133v-0.377l-0.152-0.389l-0.092-0.425l-0.015-0.389L449.221,539.736z M432.899,539.905l0.161-0.78l0.423-0.303
		l0.542,0.006l0.537,0.137l-0.286,0.759l-0.366,0.539l-0.502,0.406l-0.694,0.35l0.192-0.28l0.106-0.262v-0.268L432.899,539.905z
		 M443.109,541.223l0.079,0.509l0.002,0.545l0.152,0.397l0.522,0.071l-0.238,0.357l-0.106,0.342l0.064,0.316l0.28,0.286
		l-0.139-0.016l-0.035,0.046l0.002,0.082l-0.029,0.092l-0.315,0.61l-0.238,0.238l-0.462,0.094l-0.377-0.116l-0.125-0.302l0.04-0.899
		l0.112,0.076l0.073,0.096l0.407-0.323l-0.106-0.265l-0.487-0.337l0.007-0.402l0.218-0.869l-0.04-0.456l-0.106-0.074l-0.37-0.114
		l-0.079-0.085l-0.013-0.247l-0.026-0.159l-0.059-0.117l-0.476-0.601l-0.535-0.466l-0.06,0.126l-0.092,0.13l-0.048,0.12
		l-0.169-0.941l-0.258-0.135l-0.244-0.015l-0.178,0.127l-0.073,0.297l-0.174,0.172l-0.832,0.575l-0.288,0.108l-0.33-0.275
		l0.238-0.437l0.647-0.7l0.077-0.129l0.361-0.225l0.132-0.114l0.057-0.182l0.092-0.488l0.112-0.187l0.341-0.102l0.498,0.068
		l0.522,0.206l0.394,0.307l0.266,0.427l0.174,0.492l0.097,0.53l0.033,0.532l0.134,0.491l0.322,0.303l0.37,0.258L443.109,541.223z
		 M450.164,537.443l-0.262,0.089l-0.183,0.161l-0.097,0.231l-0.013,0.289l-0.599-0.262l-0.238-0.491l0.035-0.542l0.229-0.416
		l0.443-0.35l0.172-0.182l0.126-0.222l0.046-0.264l-0.066-0.488l0.02-0.189l0.284-0.462l0.196,0.079l0.141,0.411l0.203,1.04
		l0.015,0.421l-0.099,0.771l0.044,0.768l-0.044,0.174l-0.205,0.082l-0.106-0.175l-0.042-0.269V537.443z M443.31,529.896l0.158,0.061
		l0.244-0.063l0.225-0.013l0.099,0.204l-0.187,0.277l-0.421,0.219l-0.872,0.24v-0.359l-0.112-0.427l-0.297-0.299l-0.28-0.223
		l-0.051-0.199l0.317-0.132l0.561-0.06l0.784,0.003l-0.183,0.542L443.31,529.896z M443.395,514.66l0.366,0.025l0.401,0.594
		l0.313,0.758l0.13,0.517l-0.079,0.259l-0.178,0.089l-0.192,0.034l-0.119,0.091l-0.046,0.26l0.046,0.871l-0.324,1.149l-0.059,0.573
		l0.211,0.543l-0.355,0.688l0.026,1.572l-0.227,0.791l-0.2-0.206l-0.051,0.143l-0.064,0.117l-0.053,0.128l-0.018,0.177l-0.249-0.242
		l-0.381-0.477l-0.108-0.224l-0.187,0.21l-0.088,0.151l0.005,0.162l0.086,0.249l-0.451,0.034l-0.22,0.179l0.07,0.215l0.416,0.137
		l-0.262,0.127l-0.308,0.067l-0.322,0.001l-0.284-0.075l-0.304-0.12l-0.011-0.137l0.011-0.427l0.264,0.084l0.244-0.048l0.22-0.166
		l0.196-0.264l-0.082-0.244l-0.103-0.579l-0.099-0.216l-0.04-0.253l0.242-0.205l0.299-0.166l0.152-0.138l-0.059-0.222l-0.125-0.091
		l-0.126-0.119l-0.059-0.315l0.086-0.24l0.383-0.27l0.165-0.515l0.185-0.094l0.185-0.035l0.106-0.071l0.011-0.314l-0.169-0.536
		l-0.026-0.299l0.13-0.571l0.793-1.502l0.128-1.234L443.395,514.66z M450.349,514.555l0.227,0.128l0.143,0.205l0.092,0.274
		l0.075,0.337l0.033,0.296l-0.024,0.847l-0.255,0.798l0.079,2.14l-0.088,0.351l-0.383,0.434l-0.084,0.355l0.029,0.378l0.125,0.667
		l0.031,0.37l-0.302-0.215l-0.423-0.521l-0.218-0.207l-0.291-0.106l-0.35-0.084l-0.315-0.128l-0.167-0.246l-0.462,0.544
		l-0.258-0.072l-0.086-0.454l0.066-0.601l-0.211,0.162l-0.128-0.014l-0.092-0.135l-0.11-0.202l0.189-0.566l-0.222-0.381l-0.344-0.26
		l-0.174-0.208l-0.322-0.777l0.073-0.361l0.634-0.104l-0.169-0.226l-0.484-0.421l-0.101-0.184l0.062-0.357l0.154-0.127l0.185-0.049
		l0.154-0.128l0.121-0.054l0.211-0.13l0.073-0.132l-0.308-0.061l-0.293,0.006l-0.238-0.023l-0.183-0.108l-0.123-0.253l0.621-0.132
		l1.204,0.192l0.394-0.061l-0.09-0.111l-0.051-0.078l-0.062-0.208l0.352,0.007l0.771,0.201l0.326-0.054l0.63-0.186L450.349,514.555z
		 M437.365,517.387l0.218,0.107l0.115,0.171l-0.004,0.225l-0.159,0.268l0.471,0.537l0.167,0.245l0.117,0.35l-0.663-0.39
		l-0.209-0.186l-0.053-0.178l-0.165-0.142l-0.405-0.611l-0.48-0.295l-0.132-0.2l0.344-0.089l0.106-0.255l0.007-0.548l-0.165-0.52
		l-0.416-0.17l0.13-0.7l-0.328-1.507l0.383-0.641l-0.053,1.039l0.053,0.298l0.145,0.169l0.694,0.587l0.198,0.365l0.004,0.735
		l0.15,0.562l0.658-0.155l-0.042,0.333l-0.163,0.256l-0.244,0.193L437.365,517.387z M426.785,511.726l0.273,0.235l0.108,0.264
		l-0.059,0.278l-0.218,0.269l-0.042,0.129l0.141,0.711l-0.112-0.016l-0.456-0.173l-0.218-0.639l0.02-0.351L426.785,511.726z
		 M442.741,513.047l-0.007-0.711l0.07-0.516l0.24-0.165l0.526,0.344l0.115,0.378l-0.132,0.468l-0.284,0.335l-0.33-0.016
		L442.741,513.047z M443.109,510.953l-0.167,0.214l-0.211,0.085l-0.207-0.065l-0.515-0.788l0.238-0.398l0.443-0.178l0.236,0.1
		l0.048,0.262l0.163,0.536L443.109,510.953z M452.194,510.025l1.05,0.275l0.456,0.244l-0.026,0.409v-0.172l-0.727,0.222l-1.59,0.013
		l-0.557,0.229l-0.443,0.4l-0.535,0.359l-0.544,0.205l-0.48-0.068l-0.396-0.826l-0.099-0.356l-0.02-0.385l0.073-0.219l0.258-0.409
		l0.053-0.213l-0.059-0.28l-0.139-0.126l-0.18-0.097l-0.295-0.32l-0.123-0.082l-0.092-0.13l-0.031-0.288v-0.858l-0.216-0.853
		l-0.007-0.36l0.222-0.314l0.174,0.294l0.746,0.667l0.555,0.775l0.429,0.899l0.28,0.27l0.586,0.324l0.489-0.152l0.41,0.216
		L452.194,510.025z M438.474,503.946l0.253-0.14l0.37-0.149l0.335-0.027l0.152,0.221l0.073,1.168l-0.073,0.267l-0.211-0.414
		l-0.35-0.325l-0.443-0.098l-0.489,0.272l-0.152-0.077l-0.053-0.04l-0.044-0.043l-0.372-0.637l-0.54-0.536l-0.136-0.385l0.075-0.502
		l0.244-0.626l0.35-0.536l0.363-0.225l0.522,0.025l0.445,0.11l0.304,0.251l0.117,0.446l-0.013,0.271l-0.092,0.541l-0.079,0.246
		l-0.147,0.203l-0.196,0.182l-0.165,0.223L438.474,503.946z M437.631,499.013l-0.022,0.152l-0.445,0.811l-0.229,0.222l-0.273,0.18
		l-0.286,0.119l-0.227,0.045l-0.059,0.157l-0.218,0.979l-0.251-0.484l-0.119-0.083l-0.112-0.466l-0.35-0.046l-0.39,0.071
		l-0.258-0.126l0.077-0.381l0.339-0.293l0.273-0.291l-0.134-0.376l-0.354,0.264l-0.108,0.129l-0.092,0.176h-0.2l0.048-0.784
		l0.396-0.318l0.572-0.169l0.845-0.491l0.293-0.029l0.152,0.108l-0.159,0.266l-0.264,0.25l-0.114,0.177l0.048,0.177l0.231,0.246
		l0.357-0.071l0.145,0.013l0.251,0.057l-0.011-0.295l0.024-0.309l0.09-0.243l0.489-0.241l0.154-0.321l0.086-0.328l0.092-0.171
		l0.396,0.141l0.288,0.486l0.088,0.602l-0.218,0.491l-0.236,0.145l-0.167-0.015l-0.185-0.081L437.631,499.013z M449.776,495.404
		l0.073,0.448l-0.073,1.546l-0.152,0.37l-0.35,0.124l-0.366-0.132l-0.211-0.399l0.385-1.893l0.306-0.548L449.776,495.404z
		 M442.741,493.407l0.073-0.183l0.152,0.15l0.132,0.237l0.011,0.088l0.599,0.853l-0.189,0.623l-0.605,0.238l-0.641-0.3l-0.178-0.302
		l-0.013-0.289l0.106-0.727l0.086-0.089l0.192-0.026l0.187-0.067L442.741,493.407z M431.07,492.857l0.115-0.09l0.251-0.13
		l0.255-0.071l0.115,0.092l0.11,0.456l0.176,0.227l0.035,0.283l-0.322,0.625l-0.009-0.126l-0.048-0.072l-0.07-0.065l-0.073-0.096
		l-0.046-0.184l-0.048-0.032l-0.097-0.001l-0.163,0.027v-0.206l0.123-0.173l-0.079-0.096l-0.145-0.122L431.07,492.857z
		 M448.482,492.961l0.119,0.769l-0.013,1.066l-0.132,1.022l-0.258,0.635l-1.746,2.666l-1.118,0.986l-1.297-0.333l0.251-0.604
		l0.117-0.153l0.092-0.584l0.379-1.136l0.084-0.652l-0.051-0.253L444.672,496l-0.119-0.36l-0.123-0.094l-0.026-0.143l0.106-0.162
		l0.214-0.147l0.174-0.156l-0.022-0.191l-0.511-0.944l-0.308-1.255l-0.02-1.323l0.368-1.141l0.471,0.45l1.473,0.376l0.489,0.518
		v0.248l-0.2,1.18l0.084,0.438l0.656,1.163l0.101-0.714l0.242-0.884l0.346-0.46L448.482,492.961z M443.864,479.06l0.211,0.046
		l0.187-0.14l0.22-0.093l0.306,0.187l0.178,0.299l-0.06,0.188l-0.304,0.272l-0.174,0.236l-0.15,0.111l-0.128,0.131l-0.117,0.296
		l-0.04,0.263l0.04,0.875l0.306,1.181l0.026,0.567l-0.332,0.339l-0.02-0.561l-0.363-0.661l0.011-0.485l-0.194-0.537l-0.361-1.755
		l-0.612-1.706l-0.126-0.572l-0.04-0.54l0.081-1.255l0.143-0.309l0.383,0.019l0.198,0.429l0.544,2.784L443.864,479.06z
		 M434.022,457.509l0.169,0.209l-0.156,0.317l-0.106,0.537l-0.092,1.045h-0.198l-0.073-0.46l-0.02-0.789l0.119-0.692
		L434.022,457.509z M311.3,449.669l0.112,1.25l-0.145,0.538l-0.539,0.326l0.229-2.056l0.073-0.349l0.117-0.081L311.3,449.669z
		 M318.87,429.583l0.295-0.36l0.187-0.47l0.277-0.436l0.555-0.262v0.173l-0.222,0.491l-0.317,0.534l-0.379,0.361L318.87,429.583z
		 M426.785,409.777l0.196,0.438l0.02,0.467l-0.088,0.448l-0.128,0.374l-0.187-0.555l-0.178-1.92l0.145,0.166l0.106,0.167
		l0.073,0.189L426.785,409.777z M350.043,399.475l0.051,0.439l0.258,0.742l0.059,0.356l-0.112,0.366l-0.495,0.835l-0.416,1.072
		l-0.7,0.141l-0.81-0.222l-0.623-0.351v-0.192l0.539-0.391l0.392-0.549l0.561-1.173l0.724-1.045l0.445-0.413l0.128,0.384V399.475z
		 M345.556,391.314l0.145,1.407l-0.348,1.408l-0.676,1.318l-1.354,1.743l-0.271,0.227l-0.436,0.217l-1.473,0.488l-0.403,0.251
		l-0.165,0.144v0.224l0.033,0.257l-0.024,0.189l-0.273,0.342l-0.59,0.485l-0.262,0.343l0.112,0.43l-0.211,0.444l-0.621,0.854h-0.203
		v-0.211l0.394-0.704l-0.218-1.004l-0.727-1.749l0.198-0.881l0.746-0.494l0.967-0.434l0.876-0.707l0.286-0.467l0.407-0.903
		l0.211-0.36l0.826-0.805l1.684-2.05l0.846-0.67L345.556,391.314z M424.755,385.862l-0.022,0.435l0.075,1.091l-0.053,0.592
		l-0.15,0.313l-0.174,0.228l-0.152,0.25l-0.079,0.381l0.035,0.241l-0.103,1.023l0.136,0.874l-0.647,0.641l-0.828-0.279l-0.172-1.251
		l-0.304-0.431l-1.083-0.898l0.27-0.884l0.366-0.263l0.057-0.617l-0.128-0.71l-0.203-0.545l-0.33-0.495l-0.154-0.309l-0.07-0.352
		l0.099-0.192l0.185-0.135l0.095-0.17l-0.176-0.292l0.28-0.37l0.434-0.296l0.489-0.199l0.445-0.081l1.118,0.522l0.632,0.179
		l0.57,0.07l0.095,0.547l0.022,0.505L424.755,385.862z M320.752,318.164l0.073,0.345l0.244,0.649l0.053,0.276l-0.081,0.687
		l-0.249,0.649l-0.403,0.546l-0.559,0.378l-0.491,0.077l-0.687-0.031l-0.608-0.128l-0.264-0.209l-0.139-0.358l-0.322-0.351
		l-0.663-0.558l-2.603-3.14l-0.125-0.241l-0.244-0.734l2.517-0.198l0.614-0.244l0.304-0.424l0.289-0.146l0.542,0.6l0.583,0.462
		l0.262,0.077l0.286,0.044l0.647,0.021l0.945-0.116l0.191,0.204l0.057,0.694l-0.156,0.855L320.752,318.164z M326.849,300.499
		l0.079,0.407l-0.035,0.6l-0.176,0.539l-0.321,0.233l-0.372,0.18l-0.623,0.869l-0.44,0.37l-0.053,0.061l-0.092,0.061l-0.165,0.044
		l-0.159-0.054l-0.068-0.154l-0.051-0.153l-0.108-0.049l-0.335,0.176v0.23l0.097,0.249l-0.04,0.236l-0.216,0.114l-0.308,0.024
		l-0.595-0.031l-0.564,0.07l-0.159-0.052l-0.304-0.231l-0.321-0.35l-0.647-0.99l-0.121-0.332l-0.059-0.302l-0.264-0.356
		l-0.059-0.321l-0.033-0.077l-0.059-0.057l-0.066-0.09l-0.026-0.168l0.064-0.113l0.141,0.007l0.128-0.015l0.038-0.181l-0.205-0.459
		l-0.383-0.233l-0.892-0.288l-0.385-0.259l-0.275-0.316l-0.465-0.99l0.282-0.037l0.119-0.117l-0.029-0.193l-0.172-0.259l1.055-1.331
		l0.238-0.023l0.216,0.057l0.506,0.055l0.205,0.066l0.251,0.213l0.132,0.215l0.106,0.227l0.165,0.238l1.29,1.023l0.458,0.455
		l0.449-0.227l0.581-0.089l0.599,0.095l0.515,0.328l0.5,0.395l1.041,0.616L326.849,300.499z M314.255,289.286l0.315,0.867
		l0.04,0.438l-0.172,0.463l-1.493-1.234l-0.436-0.638l-0.918-3.151l-0.106-0.938l0.52,0.049l0.557,0.381l0.291,0.279l0.211,0.258
		l0.079,0.173l0.174,0.238l0.383,0.232l0.381,0.292l0.174,0.426l-0.11,1.347L314.255,289.286z M299.613,282.685l0.095,0.417
		l1.275,3.357l0.198,1.019l0.079,1.218h-0.172l-0.145-0.537l-0.126-1.248l-0.198-0.482l-0.372-0.534l-1.669-3.125l-0.092-0.485
		l-0.07-0.148l-0.147-0.112l-0.132-0.157l-0.02-0.281l0.088-0.284l0.132-0.122l0.159,0.038l0.176,0.19l0.467,0.304l0.174,0.215
		l0.152,0.235l0.11,0.253L299.613,282.685z"/>
</g>
<g id="Copyright">
	<text transform="matrix(1 0 0 1 681.6426 577.5916)" class="st1 st2"> Vemaps.com</text>
</g>
</svg>
