<?xml version="1.0" encoding="utf-8"?>
<!-- Generator: Adobe Illustrator 23.0.1, SVG Export Plug-In . SVG Version: 6.00 Build 0)  -->
<svg version="1.1" xmlns="http://www.w3.org/2000/svg" xmlns:xlink="http://www.w3.org/1999/xlink" x="0px" y="0px"
	 viewBox="0 0 800 600" style="enable-background:new 0 0 800 600;" xml:space="preserve">
<style type="text/css">
	.st0{fill:none;stroke:#000000;stroke-width:0.5;stroke-linecap:round;stroke-linejoin:round;}
	.st1{font-family:'Roboto-Regular';}
	.st2{font-size:14px;}
</style>
<g id="Maldives">
	<path class="st0" d="M396.136,569.533l0.652,0.467l-0.461-0.011l-0.157-0.124L396.136,569.533z M398.971,568.796l-0.202,0.27
		l-0.135,0.247l-0.191,0.186l-0.349,0.101l0.056-0.388l0.202-0.186L398.971,568.796z M393.454,567.762l0.186,0.697l-0.214-0.107
		l-0.039-0.152l0.039-0.191L393.454,567.762z M401.451,565.647l-0.877,1.192l-0.034-0.709l0.219-0.641l0.337-0.27L401.451,565.647z
		 M401.918,563.094l-0.146,1.282l-0.439-0.472l-0.135-0.551l0.186-0.551l0.574-0.45l0.073,0.203l-0.039,0.163l-0.068,0.163
		L401.918,563.094z M414.931,542.015l0.551,0.63l0.141,0.332l-0.039,0.467l-0.45-0.394l-0.191-0.343l-0.045-0.337L414.931,542.015z
		 M391.463,506.658l0.236,0.214l0.253,0.146l0.124,0.216l-0.096,0.425l-0.006,0.006l-0.276-0.202l-0.073-0.166l-0.028-0.065
		l-0.006-0.037l-0.045-0.239L391.463,506.658z M399.308,505.831l0.585,0.155l-0.006,0.003l-0.326,0.388l-0.118-0.006l-0.045-0.242
		L399.308,505.831z M387.408,503.761v0.017l0.247,0.706v0.008l-0.292-0.11l-0.023-0.079l-0.028-0.076l0.028-0.104l0.034-0.104
		v-0.023L387.408,503.761z M411.068,502.704l-0.006,0.003l-0.652,0.357l0.101-0.41l0.18-0.068l0.186,0.059L411.068,502.704z
		 M383.736,501.321l0.084,0.127l0.152,0.042l0.045,0.039l0.028,0.023l-0.146,0.157v0.006l-0.332-0.174l-0.017-0.107L383.736,501.321
		z M420.347,495.618l-0.006,0.006l-0.326,0.484l-0.006,0.008l-0.146-0.309l-0.039-0.079l0.051-0.11l0.219,0.023L420.347,495.618z
		 M381.987,494.544l0.006,0.011l0.186,0.613l0.006,0.017l-0.236-0.191l-0.039-0.163l0.056-0.152L381.987,494.544z M380.783,488.118
		l-0.022,0.622l-0.247-0.287v-0.152L380.783,488.118z M418.862,487.309l0.006,0.014l0.18,0.61l-0.292-0.118l-0.045-0.132
		l0.084-0.163L418.862,487.309z M411.669,478.065l-0.045,0.183v0.16l-0.034,0.096h-0.011l-0.124-0.011l-0.084-0.231l0.051-0.098
		l0.146-0.034L411.669,478.065z M410.646,469.68l-0.045,0.183v0.16l-0.039,0.107l-0.062-0.017l-0.068-0.014l-0.079-0.236
		l0.067-0.084l0.006-0.003l0.062-0.017l0.056-0.014L410.646,469.68z M409.319,463.83v0.011l-0.039,0.135l-0.006,0.022v0.143
		l-0.011,0.056l-0.011,0.059l-0.056,0.028l-0.062,0.031l-0.006,0.003l-0.09-0.236l0.045-0.112l0.129-0.065L409.319,463.83z
		 M373.214,279.663l0.011,0.011l0.079,0.149l0.141,0.101l0.028,0.093h-0.006l-0.276,0.13l-0.208-0.13h-0.006l0.045-0.093
		l0.124-0.101L373.214,279.663z M370.61,279.224l0.006,0.011l0.068,0.099l0.028,0.048l0.169,0.104l0.084,0.082l-0.169,0.073h-0.36
		l-0.028-0.079v-0.006l0.135-0.146L370.61,279.224z M379.917,276.801l-1.147,0.704l-0.011,0.006l0.281-0.507l0.292-0.22l0.304-0.023
		L379.917,276.801z M380.851,272.166l0.084,0.152l0.09,0.065l0.051,0.039l0.028,0.099l-0.276,0.127l-0.214-0.127l0.034-0.099
		l0.118-0.104L380.851,272.166z M363.62,264.68v0.014l0.101,0.237l0.169,0.161l0.068,0.152h-0.006l-0.191,0.265l-0.146-0.09
		l-0.191-0.116v-0.2l0.129-0.189L363.62,264.68z M417.85,249.777l-0.011,0.008l-0.495,0.476l-0.169,0.102l0.118-0.228l0.157-0.121
		L417.85,249.777z M364.351,245.537l0.034,0.166l0.079,0.07l0.056,0.048l0.045,0.054l0.034,0.034l-0.006,0.003l-0.141,0.104
		l-0.354-0.118l-0.006-0.006l-0.017-0.079l-0.006-0.008l0.146-0.102L364.351,245.537z M419.982,238.592l0.011,0.705v0.006
		l-0.259-0.225l-0.146-0.135l-0.011-0.155l0.202-0.085L419.982,238.592z M382.825,227.342l0.011,0.008l0.129,0.116l0.129,0.062
		l0.084,0.062l0.011,0.135h-0.225l-0.068-0.085l-0.006-0.135L382.825,227.342z M433.434,215.644l-0.135,0.169l-0.225,0.057
		l-0.011,0.006L433.434,215.644z M433.434,214.375l-0.011,0.008l-0.191,0.26l0.006-0.172L433.434,214.375z M410.899,212.892
		l0.039,0.635l-0.236-0.118v-0.127v-0.006l0.096-0.158L410.899,212.892z M412.85,201.761v0.017v0.175l0.039,0.158l-0.017,0.107
		l-0.157,0.068l-0.124-0.166l0.045-0.104l0.118-0.099L412.85,201.761z M418.761,195.633l-0.006,0.192l0.039,0.161l-0.017,0.107
		l-0.158,0.054l-0.034-0.04l-0.09-0.116l0.045-0.11l0.118-0.096L418.761,195.633z M383.438,183.699v0.006l-0.669,1.016l-0.011,0.014
		l0.039-0.683l0.18-0.277l0.236-0.056L383.438,183.699z M379.164,183.482l0.371-0.034l-0.011,0.006l-0.124,0.079l-0.225-0.045
		L379.164,183.482z M415.775,178.436l-0.742,0.102l0.169-0.325l0.152-0.025l0.186,0.13L415.775,178.436z M378.843,174.083
		l-0.236,0.229l-0.017,0.014l0.068-0.147L378.843,174.083z M379.872,173.914l-0.006,0.017l-0.034,0.141l-0.006,0.022l-0.096,0.031
		l-0.09,0.028l-0.006,0.003L379.872,173.914z M387.959,167.997v0.011l-0.09,0.195l-0.152,0.031L387.959,167.997z M388.258,167.2
		l0.006,0.008l0.056,0.195l0.101,0.158v0.099l-0.264,0.02l-0.163-0.175l0.056-0.096l0.124-0.07L388.258,167.2z M391.176,165.252
		l-0.023,0.198l-0.214,0.037l-0.011,0.003L391.176,165.252z M392.042,164.442l0.022,0.008l0.191,0.079l0.247,0.102l-0.022-0.003
		l-0.214-0.042L392.042,164.442z M375.199,159.939l-0.006,0.008l-0.056,0.161l-0.163,0.065l-0.017,0.008L375.199,159.939z
		 M393.977,159.478v0.144l-0.236,0.093L393.977,159.478z M419.402,159.317l-0.006,0.006l-0.163,0.121l-0.006,0.003l-0.236-0.068
		L419.402,159.317z M425.887,156.832l-0.742,0.494l-0.36,0.071l-0.517-0.147l-0.011-0.006l0.41-0.22l0.422-0.13l0.405-0.056
		L425.887,156.832z M392.661,155.731l-0.011,0.008l-0.236,0.229v-0.107L392.661,155.731z M417.361,155.093l-0.006,0.003
		l-0.399,0.059l-0.011,0.003l0.197-0.104h0.006l0.09,0.017L417.361,155.093z M428.372,153.353l-0.011,0.006l-0.152,0.113
		l-0.27-0.051L428.372,153.353z M429.553,152.63h-0.011l-0.444,0.073h-0.011l0.242-0.121L429.553,152.63z M381.627,151.969
		l-0.051,0.186l-0.197,0.054L381.627,151.969z M412.333,151.314l0.006,0.014l0.079,0.167l0.135,0.135l0.039,0.105l-0.124,0.048
		l-0.225-0.116l-0.011-0.093l0.079-0.119L412.333,151.314z M407.204,150.896l0.112,0.102h0.006l0.202-0.017h0.006h0.017l0.129,0.011
		l-0.084,0.181l-0.658,0.09h-0.011l-0.101-0.198l0.101-0.059l0.197-0.017L407.204,150.896z M409.105,146.77l-0.405,0.059
		l-0.022,0.006l0.202-0.141L409.105,146.77z M422.006,145.123l-0.174,0.107l-0.253-0.04L422.006,145.123z M409.948,144.312v0.02
		l0.011,0.237l-0.152,0.099l-0.017,0.008L409.948,144.312z M380.935,143.999l-0.006,0.008l-0.101,0.133l-0.034,0.139l-0.056,0.099
		l-0.141,0.045l-0.084-0.283l0.079-0.079l0.169-0.006L380.935,143.999z M385.963,142.244l-0.107,0.136l-0.034,0.138l-0.056,0.102
		l-0.135,0.042l-0.006,0.003l-0.073-0.237l-0.011-0.045l0.079-0.088h0.157L385.963,142.244z M416.821,138.721l-0.214,0.13
		l-0.197-0.062l-0.011-0.003L416.821,138.721z M385.254,126.936l-0.129,0.153l-0.039,0.167l-0.062,0.113l-0.174,0.008l-0.068-0.347
		l0.096-0.085h0.006l0.039,0.006l0.135,0.02L385.254,126.936z M381.368,82.707v0.008l0.107,0.136l0.017,0.008l0.124,0.068
		l0.028,0.025l0.039,0.045l-0.056,0.147l-0.321-0.065l-0.051-0.105l0.084-0.147L381.368,82.707z M377.443,75.594l0.112,0.15
		l0.135,0.074l0.051,0.048l0.022,0.02v0.006l-0.062,0.142l-0.315-0.065l-0.011-0.02l-0.051-0.085l0.084-0.142L377.443,75.594z
		 M391.604,563.858l0.517,0.472l0.456,0.731l0.332,0.86l0.157,0.81h-0.517l-1.125-2.531l-0.259-1.288l0.956-0.472v0.512
		l-0.427,0.039l-0.068,0.197l0.056,0.298v0.006L391.604,563.858z M410.089,398.621l0.011,0.003l0.737,0.172l-0.371,0.416
		l-0.152-0.028h-0.006l-0.084-0.259L410.089,398.621z M412.524,397.566l0.006,0.014l0.062,0.307l0.129,0.256l-0.068,0.166
		l-0.107,0.011l-0.428,0.048l0.028-0.27v-0.008l0.028-0.039l0.101-0.143l0.158-0.146L412.524,397.566z M416.146,396.151l0.759,0.034
		l-0.478,0.411l-0.18-0.011l-0.051-0.219L416.146,396.151z M420.668,395.051l-0.501,0.4l-0.804,0.633v0.006l-0.028-0.028
		l-0.017-0.023l-0.034-0.025l-0.017-0.031l0.158-0.194l0.152-0.197l0.349-0.239l0.731-0.298L420.668,395.051z M421.939,393.157
		l-0.011,0.025l-0.231,0.56l-0.039,0.107l-0.062-0.236l0.062-0.149l0.045-0.048l0.09-0.084L421.939,393.157z M402.261,391.615
		l-0.557,0.253l0.022-0.371l0.112-0.051l0.124,0.059l0.062,0.031L402.261,391.615z M423.086,388.847l-0.292,1.457l-0.219,0.678
		l-0.309,0.599l-0.023,0.034l0.619-2.254L423.086,388.847z M422.878,385.808l-0.017,0.74v0.011l-0.146-0.194l0.011-0.158
		L422.878,385.808z M406.788,384.77l0.18,0.152l0.191,0.085l0.045,0.104l-0.337,0.233l-0.202-0.135l0.022-0.121l0.096-0.141
		L406.788,384.77z M422.473,382.336l-0.084,0.307l-0.18-0.025h-0.006l0.135-0.141L422.473,382.336z M411.608,381.892v0.304
		l-0.051-0.118L411.608,381.892z M423.266,378.47l-0.293,0.686v0.011l-0.068-0.239l0.056-0.152l0.135-0.127L423.266,378.47z
		 M424.092,376.574l1.226,0.023h0.006l-0.135,0.101l-0.214,0.163l-0.877,0.551l-0.411,0.214v-0.281l0.084-0.248L424.092,376.574z
		 M387.886,372.665l-0.163,0.121l-0.107,0.006l-0.107,0.006l0.011-0.006L387.886,372.665z M392.042,371.272v0.006l-0.068,0.146
		v0.158l-0.039,0.079l-0.197-0.068l-0.039-0.183l0.062-0.065l0.135-0.011L392.042,371.272z M392.846,370.366l0.096,0.141
		l0.276,0.405h-0.405l-0.073-0.115l0.068-0.205L392.846,370.366z M381.301,365.166l-0.141,0.172l-0.006,0.003l-0.219-0.045
		L381.301,365.166z M379.76,361.53l0.062,0.788l-0.309-0.242l-0.011-0.174l0.135-0.163L379.76,361.53z M408.638,360.106
		l-0.006,0.042l-0.022,0.225l-0.09,0.124l-0.017,0.02L408.638,360.106z M409.347,353.94l0.489,0.864l0.276,0.749l0.062,0.163
		l0.056,0.934l-0.304,0.892l-0.006,0.014l-0.602-3.051L409.347,353.94z M406.619,349.194l0.028,0.808v0.006l-0.101-0.079
		l-0.135-0.11v-0.008l-0.017-0.163l0.118-0.197L406.619,349.194z M394.922,345.91l-0.118,0.203h-0.186h-0.011L394.922,345.91z
		 M377.96,336.992l0.174,0.085l0.186,0.011l0.079,0.079l-0.135,0.273l-0.231-0.031l-0.039-0.096l0.011-0.152L377.96,336.992z
		 M376.059,336.165l0.079,0.726v0.006l-0.439-0.214l-0.028-0.158l0.197-0.158L376.059,336.165z M386.407,332.877l0.686-0.236v0.006
		l-0.292,0.47l-0.18,0.042l-0.208-0.279L386.407,332.877z M409.296,330.346l-0.056,0.177l0.056,0.144v0.118l-0.141,0.082
		l-0.006,0.003l-0.202-0.324l0.056-0.124l0.158-0.025L409.296,330.346z M412.457,329.831l-0.596,0.715l0.084-0.422l0.174-0.197
		l0.214-0.068L412.457,329.831z M422.776,322.426l0.011,0.008l0.096,0.087l0.062,0.051l-0.135,0.172v-0.042L422.776,322.426z
		 M409.769,321.655l0.045,0.163l0.09,0.124l0.034,0.093l-0.135,0.056l-0.011,0.003l-0.236-0.158v-0.096l0.129-0.076L409.769,321.655
		z M385.451,318.234l0.444,0.408l-0.309,0.149l-0.034-0.031l-0.062-0.051v-0.208v-0.006L385.451,318.234z M423.856,318.135v0.009
		l-0.152,0.588l-0.051-0.163l0.034-0.132L423.856,318.135z M425.358,317.659l-0.006,0.006l-0.579,0.718l0.067-0.428l0.197-0.194
		l0.197-0.076L425.358,317.659z M375.891,317.136v0.008l-0.169,0.566l-0.18,0.189l-0.011-0.189L375.891,317.136z M378.067,309.203
		l0.084,0.135l0.09,0.025l0.045,0.014l0.084,0.062l-0.107,0.208l-0.315,0.037l-0.034-0.093l0.09-0.169L378.067,309.203z
		 M427.231,307.615l-0.034,0.262l-0.287,0.177L427.231,307.615z M383.337,307.379l0.011,0.008l0.079,0.138l0.146,0.099l0.034,0.11
		l-0.247,0.161l-0.214-0.101l0.017-0.104l0.107-0.135L383.337,307.379z M387.785,300.783l0.084,0.135l0.006,0.003l0.146,0.042
		l0.084,0.056l-0.124,0.217l-0.304,0.031l-0.034-0.087l0.079-0.177L387.785,300.783z M387.06,297.494l0.006,0.008l0.096,0.138
		l0.135,0.107l0.034,0.107l-0.253,0.155L387.06,298l-0.191-0.084l0.022-0.107l0.101-0.141L387.06,297.494z M373.343,293.376
		l0.084,0.135l0.152,0.037l0.028,0.025l0.039,0.039l-0.107,0.214l-0.315,0.025h-0.011l-0.011-0.085l0.079-0.172L373.343,293.376z
		 M420.549,290.001l0.011,0.011l0.062,0.053l0.096,0.082l0.006,0.017l0.017,0.158l0.006,0.014L420.549,290.001z M436.527,283.779
		l0.011,0.009l0.371,0.315l0.006,0.006l-0.135-0.053l-0.186-0.073l-0.011-0.031L436.527,283.779z M419.824,280.311l0.18,0.321
		l0.006,0.006l-0.163-0.079l-0.006-0.006L419.824,280.311z M381.576,264.203l0.096,0.152l0.141,0.104v0.099l-0.264,0.127
		l-0.208-0.118l0.028-0.102l0.124-0.101L381.576,264.203z M381.121,261.552l0.09,0.158l0.101,0.073l0.034,0.028l0.022,0.096
		l-0.281,0.124l-0.028-0.017l-0.174-0.104l0.034-0.099l0.124-0.101L381.121,261.552z M381.036,257.068l0.084,0.152l0.056,0.045
		l0.079,0.065l0.022,0.096l-0.276,0.124l-0.202-0.124l0.034-0.096l0.118-0.11L381.036,257.068z M415.083,256.392l-0.141,0.118
		l-0.124,0.152l-0.079,0.07l-0.056-0.138l0.068-0.217l0.101-0.039l0.124,0.039L415.083,256.392z M415.516,251.27l-0.006,0.006
		l-0.028,0.118l-0.315,0.149l-0.023,0.011L415.516,251.27z M408.711,249.596l-0.011,0.011l-0.236,0.175v-0.073L408.711,249.596z
		 M414.071,237.568l-0.006,0.011l-0.079,0.127l-0.158,0.042l-0.011,0.003L414.071,237.568z M422.611,228.929l0.462,0.432
		l-0.062,0.587l-0.185,1.112l-0.77,2.008l-0.801,0.834l-1.085,0.637l-1.657-0.143l-0.708-0.309l-3.142-1.112l0.062-0.371
		l5.523,0.256l0.589-0.334l0.387-1.157l0.493-1.606L422.611,228.929z M381.076,227.317l0.934,0.262h-0.006l-0.287,0.071
		l-0.006,0.003l-0.219-0.062L381.076,227.317z M426.044,222.052l-0.011,0.006l-0.225,0.141l-0.214-0.028h-0.017L426.044,222.052z
		 M427.124,220.608v0.011l-0.011,0.183l0.045,0.155l-0.011,0.107l-0.158,0.062l-0.129-0.169l0.039-0.096l0.112-0.096
		L427.124,220.608z M428.952,220.092l-0.006,0.008l-0.056,0.164l0.028,0.169v0.011l-0.028,0.104l-0.09-0.02l-0.135-0.028
		l-0.011-0.003l-0.135-0.262l0.09-0.073l0.169-0.003L428.952,220.092z M431.027,218.501l-0.011,0.195l0.045,0.152l-0.011,0.113
		l-0.146,0.065l-0.129-0.166l0.039-0.102l0.113-0.104L431.027,218.501z M381.897,215.396l-0.068,1.123l-0.495-0.056l-0.124-0.011
		l-0.259-0.589L381.897,215.396z M423.12,202.765v0.017l-0.006,0.18l0.039,0.152l-0.011,0.107l-0.157,0.065l-0.045-0.059
		l-0.079-0.107l0.045-0.102l0.107-0.096L423.12,202.765z M428.372,147.405l0.343,0.525l0.152,0.562l-0.056,0.582l-0.236,0.571v0.014
		l-0.326-1.89L428.372,147.405z M385.254,144.304l-0.006,0.006l-0.096,0.119l-0.107,0.266l-0.112,0.093l-0.135-0.331v-0.006
		l0.068-0.096h0.191L385.254,144.304z M376.847,142.16l-0.101,0.144l-0.045,0.136l-0.051,0.11l-0.135,0.042l-0.101-0.297
		l0.073-0.071l0.169-0.006L376.847,142.16z M386.182,133.568l-0.006,0.011l-0.112,0.136l-0.034,0.136l-0.051,0.105l-0.135,0.045
		l-0.011,0.003l-0.079-0.288l0.073-0.082h0.174L386.182,133.568z M385.879,129.46l-0.101,0.136l-0.051,0.141l-0.039,0.102
		l-0.146,0.048l-0.084-0.288l0.084-0.076l0.158-0.011L385.879,129.46z M412.013,125.243l-0.028,0.062l-0.81,1.543l-0.006-0.011
		l-0.051-0.02l-0.006-0.003l-0.017-0.006l0.208-0.483L412.013,125.243z M383.955,122.949l-0.068,0.359l-0.208,0.209l-0.006,0.003
		L383.955,122.949z M411.287,121.264v0.017l0.023,0.212l0.112,0.17l0.017,0.156v0.006l-0.264,0.195l-0.27-0.223l0.062-0.153
		l0.174-0.15L411.287,121.264z M383.247,119.97v0.006l-0.101,0.625v0.008l-0.186-0.181l-0.101-0.096l0.006-0.141l0.191-0.088
		L383.247,119.97z M415.955,118.084l-0.006,0.003l-1.108,0.684l-0.023,0.011l0.382-0.526l0.287-0.206l0.236-0.017L415.955,118.084z
		 M382.352,116.448l0.006,0.02l0.191,0.958l-0.264-0.223l-0.051-0.223L382.352,116.448z M414.515,113.18v0.011l-0.039,0.181v0.006
		v0.161v0.122l-0.152,0.082l-0.214-0.252l0.062-0.107l0.174-0.074L414.515,113.18z M380.142,109.171l-0.101,0.843l-0.304-0.441
		l0.045-0.209L380.142,109.171z M411.804,109.086l0.381,0.867l-0.595-0.29l-0.152-0.192L411.804,109.086z M379.04,108.317
		l-0.006,0.006l-0.124,0.113l-0.028,0.158l-0.039,0.074l-0.101-0.054l-0.107-0.059l-0.011-0.291l0.084-0.042l0.152,0.076
		L379.04,108.317z M402.193,101.226l-0.006,0.008l-0.113,0.26l-0.247-0.017L402.193,101.226z M402.289,99.291l-0.011,0.006
		l-0.326,0.221l-0.028,0.017l0.141-0.17L402.289,99.291z M400.101,97.843l-0.006,0.006L400,98.036l-0.264,0.051L400.101,97.843z
		 M403.543,96.115l-0.006,0.008l-0.096,0.161l-0.051,0.144l-0.056,0.102l-0.135,0.02l-0.011,0.003l0.017-0.204l0.084-0.09
		l0.113-0.051L403.543,96.115z M400.006,95.044l-0.011,0.006l-0.337,0.243l0.124-0.17L400.006,95.044z M403.582,93.856v0.006
		l-0.191,0.741l-0.186-0.283l0.039-0.156l0.169-0.127L403.582,93.856z M387.228,91.567l-0.011,0.008l-0.337,0.226l-0.011,0.011
		l0.101-0.153L387.228,91.567z M401.569,90.362l0.034,0.223l0.101,0.17l0.017,0.167l-0.253,0.187l-0.27-0.221l0.051-0.15
		l0.186-0.153L401.569,90.362z M393.741,87.084l-0.158,0.198l-0.214,0.045h-0.011L393.741,87.084z M399.736,86.529v0.011
		l-0.146,0.379l-0.27,0.175l-0.028,0.017l0.039-0.028L399.736,86.529z M390.625,85.573l-0.006,0.008l-0.129,0.198l-0.202,0.034
		l-0.022,0.003L390.625,85.573z M398.482,84.26l0.006,0.011l0.079,0.181l0.073,0.034l0.073,0.034l0.107,0.107l-0.062,0.272
		l-0.411-0.096l-0.006-0.02l-0.056-0.116l0.124-0.187L398.482,84.26z M393.471,83.91l-0.022,0.017l-0.315,0.215l-0.022,0.017
		l0.112-0.147L393.471,83.91z M397.807,82.639l-0.163,0.119l-0.09,0.122l-0.101,0.068l-0.135-0.054l0.056-0.19l0.112-0.045
		l0.152,0.011L397.807,82.639z M386.284,81.375l0.09,0.153l0.146,0.062l0.067,0.074l-0.051,0.147l-0.337-0.062l-0.039-0.113
		l0.079-0.136L386.284,81.375z M363.507,78.409l-0.006,0.003l-0.141,0.127l-0.113,0.161l-0.09,0.065l-0.073-0.133l0.073-0.223
		l0.113-0.045l0.112,0.045H363.507z M378.151,76.423l0.112,0.153l0.135,0.074l0.034,0.034l0.039,0.034v0.006l-0.062,0.142
		l-0.315-0.065l-0.011-0.02l-0.051-0.091l0.073-0.136L378.151,76.423z M388.239,76.341l-0.178,0.353l-0.202,0.167l-0.011,0.011
		L388.239,76.341z M382.246,68.156l-0.146,0.105l-0.068,0.141l-0.068,0.079l-0.152-0.068l0.068-0.325l0.107-0.048l0.006,0.003
		l0.124,0.079L382.246,68.156z M379.614,67.723l0.107,0.153l0.135,0.068l0.084,0.068l-0.067,0.153l-0.321-0.068l-0.039-0.113
		l0.068-0.13L379.614,67.723z M386.936,66.534l-0.006,0.011l-0.028,0.175l0.045,0.147l0.017,0.099l0.006,0.003l-0.158,0.062
		l-0.056-0.091l-0.124-0.193l0.039-0.107l0.152-0.04L386.936,66.534z M387.959,63.783l-0.146,0.108l-0.079,0.139l-0.056,0.082
		l-0.158-0.068l0.068-0.328l0.113-0.051l0.006,0.003l0.129,0.074L387.959,63.783z M389.669,60.578l-0.534,0.487l0.034-0.413
		l0.129-0.105l0.174,0.02L389.669,60.578z M392.189,57.656l-0.169,0.283l-0.084,0.246l-0.129,0.178l-0.309,0.091l-0.006,0.003
		l0.056-0.535l0.18-0.195L392.189,57.656z M387.397,54.194v0.006l-0.034,0.173l0.006,0.026l0.039,0.119l0.006,0.11l-0.152,0.062
		l-0.056-0.088l-0.129-0.19l0.062-0.116l0.135-0.034L387.397,54.194z M379.231,53.896l-0.135,0.108l-0.079,0.139l-0.073,0.085
		l-0.135-0.06l-0.006-0.006l0.068-0.328l0.112-0.048l0.129,0.076L379.231,53.896z M395.889,52.327l0.326-0.037l0.09,0.094v0.006
		v0.173l0.067,0.195l-0.945,2.166l-0.557,0.951l-0.894,0.722l-0.011,0.008l0.298-1.124l1.142-1.88L395.889,52.327z M397.419,49.266
		l1.08,0.167l-0.54,0.368l-0.394,0.119l-0.203-0.161L397.419,49.266z M384.574,48.501l-0.006,0.003l-0.141,0.108l-0.084,0.142
		l-0.062,0.079l-0.141-0.06l-0.006-0.003l0.056-0.334l0.124-0.04l0.129,0.071L384.574,48.501z M394.843,48.368l-0.146,0.108
		l-0.067,0.136l-0.067,0.085l-0.158-0.068l0.068-0.331l0.112-0.042l0.135,0.076L394.843,48.368z M383.213,47.711l-0.034,0.178
		l0.045,0.15v0.006l0.006,0.096l-0.146,0.057h-0.006l-0.18-0.272l0.056-0.113l0.141-0.042L383.213,47.711z M391.649,47.757
		l-0.006,0.006l-0.141,0.108L391.435,48l-0.073,0.079l-0.084-0.028l-0.067-0.026l0.079-0.331l0.107-0.051l0.129,0.074l0.006,0.003
		L391.649,47.757z M382.426,47.168l-0.141,0.102l-0.084,0.13l-0.056,0.088l-0.129-0.054l-0.017-0.008l-0.011-0.003l0.062-0.323
		l0.129-0.057l0.124,0.079L382.426,47.168z M392.205,44.658l-0.034,0.187l0.039,0.147l0.017,0.096l0.006,0.006l-0.158,0.062
		l-0.18-0.278l0.039-0.116l0.152-0.037L392.205,44.658z M399.657,43.134v0.006l-0.067,0.969l-0.298,0.94l-0.332,0.428l-0.202-0.569
		l0.062-0.634l0.208-0.663l0.292-0.453L399.657,43.134z M379.749,40.432v0.028l0.022,0.224l-0.117,0.146L379.749,40.432z
		 M398.583,39.463l-0.264,1.399l-0.056,0.017h-0.034h-0.011l-0.011-0.006l-0.034-0.011l-0.045-0.028l-0.051-0.674l0.051-0.436
		l0.152-0.229L398.583,39.463z M377.398,38.092v0.232l-0.096,0.156l-0.006,0.003L377.398,38.092z M383.466,35.536v0.014l0.118,0.944
		l-0.287-0.351l-0.006-0.252L383.466,35.536z M381.408,33.531v0.008l-0.101,0.388l-0.051-0.213L381.408,33.531z M378.843,31.012
		v0.008l-0.068,0.655l-0.377-0.405l0.011-0.139l0.214-0.042L378.843,31.012z M376.836,30l0.051,0.108v0.139l-0.141,0.145L376.836,30
		z"/>
</g>
<g id="Copyright">
	<text transform="matrix(1 0 0 1 681.6426 577.5911)" class="st1 st2">© Vemaps.com</text>
</g>
</svg>
