<?xml version="1.0" encoding="utf-8"?>
<!-- Generator: Adobe Illustrator 23.0.1, SVG Export Plug-In . SVG Version: 6.00 Build 0)  -->
<svg version="1.1" xmlns="http://www.w3.org/2000/svg" xmlns:xlink="http://www.w3.org/1999/xlink" x="0px" y="0px"
	 viewBox="0 0 800 600" style="enable-background:new 0 0 800 600;" xml:space="preserve">
<style type="text/css">
	.st0{fill:#808080;}
	.st1{font-family:'Roboto-Regular';}
	.st2{font-size:14px;}
</style>
<g id="Malaysia">
	<path class="st0" d="M710.655,297.989l-0.245-0.213l-2-1.745l-0.147-0.461l0.282-0.498l0.675-0.472l0.773-0.368l0.589-0.177
		l0.699,0.042l1.362,0.448l0.681,0.111l0.414,0.189l0.359,0.431l0.503,0.801l0.356,0.352l0.325,0.201l0.371,0.092l0.515,0.023
		l1.748,0.567l0.166,0.374l0.003,0.006l0.238,0.552l-2.053-0.021h-2.6h-1.715L710.655,297.989z M121.511,218.727l0.963,0.699
		l2.015,1.361l0.433,0.216l0.883-0.225l0.175-0.441l-0.322-0.302l-0.613,0.193l0.423-0.594l0.81,0.031l4.377,1.609l0.847,0.508
		l1.574,1.669l4.521,8.928l0.788,0.973l0.801,0.643l0.319,0.254l1.991,1.238l0.868,0.689l0.742,0.919l0.491,1.227l0.383,0.589
		l1.028,0.459l6.754,5.357l1.601,0.795l1.558,0.317l0.607,0.407l1.96,1.735l3.494,3.944l3.85,6.064l1.316,3.216l3.742,6.273
		l2.212,4.05l0.224,0.727l0.144,0.265l0.663,0.777l0.202,0.38l0.021,0.434l-0.279,1.116l0.055,0.86l0.371,1.579l0.638,5.712
		l-0.049,0.868l-0.371,0.711l-0.258,0.749l0.463,1.691l-0.077,0.552l1.224,3.498l0.086,1.149l-0.095,0.412l-0.512,1.326
		l-0.301,0.454l-0.245,0.232l-0.534,0.64l-0.138,0.291l0.015,0.328l0.242,0.984l-0.236,0.391l-0.218,0.131l-0.071,0.042
		l-0.307,0.114l-0.307,0.215l-0.779,1.033l-0.331,0.587l-0.043,0.667l0.258,1.182l1.399,3.487l-0.138,0.945l-0.856-0.526
		l-0.638,1.093l-0.402,1.688l-0.138,1.241l0.037,1.397l-0.11,0.682l-0.656,0.017l-0.374,0.483l-0.313,0.653l-0.153,0.518l0.034,0.75
		l0.202,0.633l1.454,3.184l0.138,0.473l0.653,0.933l1.288,1.217l0.883,1.272l-0.534,1.102l1.288-0.258l-1.84,3.904l-0.199,1.556
		l0.62,4.667l0.261,0.746l0.175,0.756l-0.81,9.133l0.248,1.499l1.224,2.683l1.755,2.34l4.457,4.411l0.071,0.031l0.445,0.2
		l0.58,0.117l0.663,0.032l0.202,0.111l0.564,0.516l0.405,0.147l0.365-0.057l0.899-0.436l0.583,0.215l0.061,0.27l-0.098,0.321
		l0.111,0.355l1.307,1.018l0.46,0.58l0.969,2.137l-0.325,0.874l-0.028,0.729l0.276,0.7l2.779,3.514l0.328,0.304l0.828,0.608
		l0.261,0.249l0.166,0.396l0.009,0.752l0.083,0.422l0.249,0.414l0.662,0.82l0.138,0.45l-0.083,0.351l-0.368,0.744l-0.086,0.448
		l0.264,0.767l1.767,2.184l0.963,2.365l0.693,0.941l0.439,0.944l0.248,0.408l0.791,0.908l0.239,0.405l0.304,0.833l0.055,0.732
		l-0.101,1.639l0.175,0.778l0.42,0.815l0.518,0.433l0.451-0.362h0.239l1.049,1.823l0.337,1.729l0.702,0.98l0.193,0.557l0.055,1.275
		l0.221,0.525l0.448,0.522l0.301,0.482l-0.202,0.393l0.252,0.509l0.27,1.571l0.767,2.062l0.365,1.731l0.037,0.945l-0.258,0.414
		l-0.313,0.342l0.107,1.652l-0.19,0.577h-1.423l-0.187,0.126l-0.396,0.546l-0.184,0.126l-1.702-0.077l-0.739-0.153l-1.525-0.611
		l-0.294-0.253l-0.037-0.385l0.028-0.719l-0.202-0.542l-0.451-0.399l-0.518-0.35l-0.374-0.374l-0.209-1.384l1.012-0.661l1.393-0.552
		l0.92-1.051l-0.706-0.163l-0.669,0.175l-0.629,0.371l-1.27,0.948l-0.279,0.143l-0.135-0.256l-0.221-0.683l-1.196-2.476
		l-0.893-1.339l-0.85-0.583l-0.218,0.454l0.383,1.025l1.429,2.258l0.012,0.523l-0.196,1.054l0.086,0.492l0.163,0.542l0.092,0.574
		l-0.101,0.589l-1.331,1.086l-1.807-0.448l-3.273-1.691l-0.957,0.077l-1.515,0.786l-0.791,0.19l-1.524-0.13l-0.568,0.055
		l-0.61,0.333l-1.936,2.427l-1.129,0.904l-1.334-0.241l-0.074-0.172l-0.273-0.39l-0.288-0.276l-0.138,0.184l0.04,0.423l0.181,0.561
		l0.037,0.31l-0.095,0.42l-0.678,0.997l-0.534,1.312l-0.463-0.735l-1.322-1.132l-0.534-0.733l-0.322-0.75l-1.221-4.092l-0.699-1.454
		l-1.055-1.206l-1.595-1.016l-4.484-1.7l-6.368-3.963l-1.537-0.732l-0.837-0.235l-0.865-0.084l-0.626-0.157l-0.429-0.39l-0.62-0.999
		l-0.727-0.858l-0.899-0.779l-1.055-0.674l-1.175-0.545l-0.604,0.223l-1.871,0.285l-0.638-0.017l-0.847-0.466l-0.497-0.74
		l-0.718-1.604l-0.623-0.729l-3.083-2.471l-0.423-0.465l-0.27-0.479l0.325-0.066l0.046-0.123l-0.077-0.157l-0.037-0.17l-0.475-0.474
		l-0.672-0.497l-1.426-0.832l-5.291-2.152l-6.055-2.505l-1.27-0.727l-1.031-0.817l-2.853-3.153l-0.414-0.198l-0.813-0.161
		l-0.742-0.424l-0.451-0.585l0.064-0.655l-0.626-0.154l-0.601-0.233l-1.11-0.666l-0.662,0.439l-1.196,0.074l-0.46,0.54l-0.267-0.94
		l-0.074-1.205l-0.193-1.041l-0.635-0.444l-0.258-0.129l-0.365-0.304l-0.546-0.597l-0.761-2.183l-0.325-0.404l-0.506-0.209
		l-1.794-0.169l-0.469-0.285l-0.377-0.405l-0.657-0.467l-2.08-0.364l-0.77-0.355l-1.27-0.215l-0.825-0.35l-1.491-1.061l-0.871-1.041
		l-1.865-2.848l-1.169-1.004l-1.659-0.384l-1.681-0.163l-0.911-0.608l0.644-1.704l-0.847-0.114l0.077-0.504l1.874-2.308l0.543-0.496
		l0.543-0.209l0.423-0.427v-0.98l-0.294-1.814l-0.242-0.487l-1.083-0.849l-0.242-0.479l-0.751-4.922l-0.221-0.746l-0.543-0.613
		l-1.294-1.1l-0.15-0.287l-0.129-0.341l-0.218-0.284l-0.758-0.19l-0.371-0.175l-0.307-0.207l-0.129-0.18l-0.264-0.608l-1.791-2.366
		l-1.178-1.174l-0.233-0.338l-0.31-0.865l-0.745-1.08l-0.368-1.686l-0.276-0.811l-0.626-0.81l-2.736-1.892l-0.926-0.398
		l-0.368-0.252l-0.212-0.277l-0.586-1.037l-0.978-1.219l-0.635-0.441l-1.761-0.304l-0.402-0.397l0.037-0.65l0.396-0.881l0.672-0.629
		l0.144-0.284l-0.429-0.118l-0.837,0.12l-0.423,0.129l-0.175,0.151l-0.417,0.169l-0.933-0.295l-0.96-0.464l-0.524-0.326
		l-0.423-0.566l-0.23-0.598l-0.101-0.693l0.018-1.889l0.193-0.618l0.469-0.275l2.374,0.108l0.745-0.117l0.598-0.744l0.65-0.292
		l0.767-0.137l0.62,0.125l-0.374-0.812l-0.88,0.089l-0.899,0.451l-0.417,0.272l-0.966-0.095l-0.175-0.59l0.141-0.889l-0.025-0.981
		l-0.383-0.504l-1.96-1.327l-0.617-0.601l-0.745-0.541l-0.837-0.163l-0.865,0.531l-0.377-0.77l-0.359-1.23l-0.156-1.135l0.239-0.5
		l-0.564-0.185l-0.172-0.461l-0.028-0.592l-0.15-0.591l-0.429-0.423l-0.374-0.082l-0.16-0.218l0.193-0.826l0.35-0.961l0.12-0.515
		l0.046-0.718l0.163-0.498l0.721-0.528l0.166-0.522l0.101-1.049l0.672-2.463l0.488-1.026l-0.577,0.231l-0.675-0.182l-0.564-0.498
		l-0.239-0.714l0.129-0.76l0.353-0.702l0.497-0.332l0.589,0.348l0.261-0.532l0.294-0.439l0.331-0.34l0.38-0.234l-0.899-0.166
		l-0.828,0.306l-0.61,0.014l-0.239-1.048l-0.126-1.873l0.353-0.491l1.083-0.078v-0.282l-0.218-0.038l-0.555-0.219l0.291-0.533
		l-0.092-0.245l-0.736-0.257l-0.383-0.048L65.28,274l-0.19-0.051l-0.212-0.534l-0.04-0.52l0.298-0.637v-0.391l-0.221-0.129
		l-0.368-0.022l-0.328-0.142l-0.114-0.506l-0.383,0.205l-0.405,0.082l-0.896-0.005l-0.414-0.162l0.184-0.333l0.389-0.286
		l0.215-0.017l-0.025-0.508l-0.138-0.168l-0.285-0.122l-0.442-0.366l-0.377-0.185l-0.414,0.091l-0.377,0.239l-0.258,0.268
		l-0.463-0.527l-0.218-0.502l-0.129-0.513l-0.221-0.549l-0.929-1.065l-0.233-0.796l-0.564-1.286l-0.316-0.533l-0.295-0.865
		l0.052-0.311l0.135-0.028l0.178,0.049l0.169-0.099l0.383-0.42l0.423-0.35l0.337-0.445l0.273-1.247l0.552-1.173l0.089-0.778
		l-0.098-0.423l-0.359-0.759l-0.083-0.229l0.086-0.46l0.374-0.693l0.08-0.419l-0.123-0.487l-0.905-1.722l-0.782-1.081l-0.19-0.521
		l-0.058-0.855l0.236-3.255l-0.245-0.891l-0.856-1.512l-0.184-0.815l-0.258-3.221l0.347,0.148l0.442,0.102l0.43-0.025l0.325-0.225
		l0.055-0.373l-0.288-0.231l-0.362-0.166l-0.175-0.17l0.423-4.427l-1.003-7.645l-0.322-0.654l-0.552-0.725l-0.451-0.818
		l-0.672-1.703l-1.362-2.477l-0.457-1.512l-0.577-0.586l-1.23-0.863l-0.957-1.213l-0.819-1.63l-0.58-1.767l-0.239-1.627
		l-0.144-0.716l0.312-0.585l0.331-0.829l0.156-0.945l-0.016-0.331l-0.123-0.659l0.033-0.339l0.253-0.397l0.331-0.283l0.226-0.329
		l-0.076-0.538l-0.302-0.88l-0.041-0.647l0.251-1.538l0.049-0.858l0.105-0.432l0.243-0.315l0.538-0.173l0.343,0.208l0.096,0.117
		l0.173,0.21l0.323,0.178l0.571,0.012v-0.075l0.571-0.358l0.343-0.031l0.436,0.041l0.401,0.142l0.257,0.278l1.399,4.258l0.427,0.719
		l0.738,0.651l1.088,0.526l0.367,0.177l0.84,0.259l0.635,0.052l0.974-0.113l0.561,0.138l1.204,0.869l0.688,0.319l2.3,0.669
		l1.289,0.572l0.68,0.167l0.668-0.09l2.429-1.741l0.645-0.006l0.058,0.234l-0.012,0.846l0.101,0.317l0.317,0.237l0.351,0.05
		l0.388-0.006l0.429,0.063l0.869,0.507l0.351,0.726l0.107,1.803l0.086,0.436l0.167,0.415l0.45,0.769l0.072,0.314l-0.08,0.349
		l-0.119,0.321l-0.013,0.035l-0.07,0.338l0.023,1.095l0.091,0.318l0.318,0.561l0.164-0.02l0.206-0.256l0.464-0.151l0.503,0.067
		l1.57,0.393l0.709-0.183l0.99-1.062l0.721-0.151l1.214,0.995l0.625,0.204l1.73-0.374l0.479,0.167l0.249,0.491l0.103,0.772
		l-0.07,0.922l-0.345,0.322l-0.495,0.228l-0.507,0.634l-0.035,0.874l0.604,0.569l0.701,0.529l0.269,0.752l-0.199,1.484l-0.058,2.157
		l-0.265,1.238l-0.062,0.715l-0.288,0.694l-0.686,0.255l-0.795,0.159l-0.623,0.4l-1.547,3.146l-0.247,0.424l-0.092,0.443
		l0.072,0.432l0.197,0.309l0.286,0.449l0.442,0.891l0.259,0.301l0.368,0.147l0.717-0.033l0.374,0.074l0.847,0.569l0.715,0.826
		l0.573,0.951l0.432,0.947l0.631,0.294l1.048-0.332l1.767-1.067l0.582-0.557l0.479-0.67l0.323-0.765l0.115-0.843l0.466-1.717
		l1.157-0.608l1.48-0.267l1.455-0.694l1.323-0.86l4.054-1.576l1.299-0.505l0.876-0.202l0.806,0.19l0.596,0.795l0.175,0.428
		l0.203,0.302l0.292,0.18l0.44,0.073l0.358,0.145l0.012,0.312l-0.117,0.378l-0.02,0.34l0.738,1.734l0.586,0.646l0.783,0.166
		l0.374-0.192l0.036-0.033l0.648-0.597l0.454-0.135l0.499,0.156l0.296,0.378l0.238,0.459l0.327,0.406l0.802,0.434l0.616-0.068
		l0.444-0.479l0.3-0.803l0.199-0.231l1.103-0.675l0.23-0.335l0.129-0.338l0.187-0.32l0.419-0.272l1.229-1.071l0.24-1.45l0.018-1.617
		l0.565-1.572l0.929-1.132l2.791-2.153l1.001-1.001l0.425-1.208l-0.174-2.961L121.511,218.727z M614.26,269.816l0.629,0.018
		l0.58-0.077l0.423-0.28l0.356-1.259l0.442-0.339l0.518,0.052l0.42,0.53l0.117,0.265l0.199,0.071l0.819-0.055l0.362,0.063
		l0.38,0.152l0.298,0.208l0.405,0.74l0.666,0.228l0.779,0.012l0.607-0.112l0.448-0.306l1.252-1.265l0.166-0.228l1.503-1.322
		l1.206-1.541l0.469-0.243l0.764-0.129l0.727-0.331l0.598-0.423l0.353-0.431l0.227-0.604l0.258-1.535l0.055-1.375l0.083-0.364
		l0.405-0.775l0.313-0.323l0.331-0.223l0.147-0.285l-0.248-0.507l-1.426,0.668l-1.396-0.037l-1.282-0.536l-3.359-2.915l-0.095-0.353
		l0.086-0.323l-0.024-0.24l-0.399-0.092l-0.166,0.085l-0.736,0.642l-0.212-0.462l0.113-0.539l0.227-0.584l0.248-1.237l0.267-0.502
		l0.267-0.394l0.12-0.288l0.442-0.402l1.963-1.152l0.448-0.77l0.423-0.568l2.662-1.912l1.322-2.877l0.739-0.744l0.528,0.869
		l-1.301,2.438l0.773,1.089l0.196-0.393l0.166-1.029l0.178-0.408l1.288,1.114l0.782,0.351l3.328,0.236l1.089-0.066l0.997-0.32
		l1.166-1.009l0.969-1.49l0.749-1.663l0.463-1.527l0.285-1.662l0.221-0.732l0.405-0.615l0.552-0.449l3.386-1.898l0.589-0.657
		l0.248-0.866l0.11-1.749l0.23-0.734l2.31-3.757l0.534-1.641l-0.589-1.117l-0.847,0.296l-0.294-0.494l0.377-0.71l1.147-0.364
		l0.666-0.426l1.782-2.68l0.804-0.73l0.479-0.238l0.635-0.092l0.445,0.153l0.564,0.264l0.472,0.088l0.202-0.375l-0.156-1.262
		l-0.46-0.105l-0.721,0.349l-0.954,0.114v-0.238l1.028-0.54l0.592-0.648l0.156-0.13l0.276-0.046l0.754,0.046l0.356-0.228
		l0.077-0.127l-0.003-0.213l0.325-1.21l0.101-0.241l0.193-0.313l0.35-0.407l3.343-2.551l0.568-0.571l0.681-0.526l0.709-0.323
		l0.561-0.414l0.224-0.81l0.025-0.685l0.129-0.724l0.282-0.571l0.5-0.232l0.662-0.513l2.337-3.139l0.567-0.542l0.393-0.528
		l0.227-0.67l0.074-0.967l-0.061-1.286l0.061-0.388l0.156-0.3l0.46-0.63l0.156-0.389l-0.065-1.455l0.129-0.638l1.067-0.505
		l0.313-0.593l0.359-1.497l0.046-0.834l0.089-0.329l0.27-0.135l0.156-0.131l0.405-0.609l0.206-0.456l0.325-0.315l0.408-0.241
		l0.432-0.063l0.12,0.152l0.39,0.862l1.552,1.015l0.23,0.425l0.515,2.732l-0.699-0.403l-0.405-0.125l-0.184,0.153l-0.242,1.186
		l-0.015,0.227l0.432,0.38l0.598,0.207l0.537,0.337l0.236,0.785l-0.15,1.494l-0.405,0.996l-1.248,1.81l-0.681,1.322l-0.537,1.64
		l0.206,1.325l1.528,0.375l0.791-0.391l0.586-0.702l0.454-0.676l0.377-0.301l0.515-0.219l1.675-1.62l1.23-0.885l0.242-0.466
		l0.147-1.313l0.184-0.161l0.248-0.074l0.264-0.21l0.515-1.035l1.365-1.398l0.203-0.561l-0.23-0.785l-0.847-1.662l0.046-0.803
		l0.304-0.436l0.301-0.045l0.35,0.13l0.463,0.091l0.322-0.127l0.248-0.272l0.101-0.277l-0.147-0.125l-0.285-0.179l-0.074-0.4
		l0.074-0.431l0.147-0.264l0.396-0.079l0.451,0.117l0.426,0.164l0.291,0.057l0.331-0.186l0.57-0.496l0.242,0.023l0.294,0.167
		l0.957,0.413l0.31,0.079l0.126,0.15l1.951,1.19l0.215,0.179l0.153,0.297l0.031,0.651l-0.239,1.824l-0.166,0.377l-0.521,0.281
		l-0.166,0.66l0.074,0.78l0.215,0.636l1.356,1.785l0.212,0.686l0.101,2.357l0.156,0.613l0.432,0.801l0.491,0.284l1.521-0.049
		l0.583,0.188l0.506,0.443l0.819,0.945l0.939,0.872l0.656,0.475l0.613,0.208l0.617-0.148l0.414-0.417l0.902-1.508l0.589-0.713
		l0.313-0.001l0.123,0.582l0.025,1.039l0.156,0.028l0.874,0.88l-0.147-0.051l-0.098,0.171l-0.04,0.245l0.028,0.176l0.138,0.068
		l0.482,0.127l0.153,0.065l0.564,0.519l0.365,0.185l0.488,0.071l0.528-0.265l0.402-0.071l0.368,0.196l0.905,1.047l0.402,0.602
		l0.377,0.824h0.258l0.138-0.329l0.184-0.142l0.212,0.031l0.233,0.181l0.172,0.267l0.046,0.284l-0.003,0.338l0.049,0.431
		l0.123,0.352l0.347,0.66l0.071,0.259l-0.144,0.353l-0.261,0.341l-0.172,0.349l0.386,1.012l-0.35,2.51l-0.245,0.563l-0.564,0.066
		l-1.252-0.231l-0.699,0.236l-0.681,0.46l-1.092,0.978l-0.334,0.645l0.199,0.606l0.81,0.961l0.611,1.478l0.549,0.236l0.123,0.214
		l0.055,0.373l0.098,0.287l0.012,0.315l-0.166,0.46l-0.313,0.321l-0.35,0.114l-0.282,0.165l-0.104,0.458l0.248,0.623l0.537,0.139
		l0.534,0.24l0.245,0.927l-0.221,0.618l-0.54,0.529l-1.319,0.805l-4.779,1.62l-0.908,0.99l0.669-0.122l2.16-0.934l0.963-0.245
		l2.669-0.014l2.521-0.316l1.868,0.207l0.666-0.071l0.227-0.432l-0.325-0.942l0.399-0.241l0.393,0.023l0.445,0.134l0.543,0.083
		l0.669-0.046l1.788-0.347l0.371-0.253l0.233-0.478l0.521-0.475l1.024-0.728l1.227-1.595l0.669-0.342l0.153-0.187l0.27-0.109
		l0.537,0.137l1.285,1.319l0.086,0.375l-0.028,0.416l0.046,0.341l0.65,0.339l0.098,0.458l-0.058,0.777l0.193,0.879l1.577,2.129
		l0.208,0.191l0.025,0.244l-1.101,1.506l-0.561,0.333l-0.837,0.242l-0.883,0.046l-0.699-0.256l-0.635,0.21l-2.337-0.21l-0.635,0.208
		l-0.405,0.461l-0.074,0.462l0.35,0.207l0.163,0.284l1.129,2.941l0.313,0.262l0.172,0.035l0.215-0.088l0.457-0.096l0.58-0.185
		l1.5-0.695l0.635-0.153l0.304,0.065l0.258,0.327l0.35,0.126l0.291-0.065l0.362-0.157l0.393-0.079l0.371,0.171l0.386,0.55
		l0.276,0.148l0.365-0.168l0.295-0.419l0.003-0.339l-0.169-0.396l0.252-0.666l0.166-0.26l0.239-0.271l0.101-0.311l-0.297-0.697
		l0.055-0.402l0.583-0.445l1.684-0.167l1.555-0.694l0.81,0.176l1.963,1.037l0.184,0.06l0.19-0.157l0.414-0.469l0.322-0.114
		l0.38,0.148l0.347,0.225l0.236,0.114l0.748,0.182l3.859,2.249l1.322,1.087l0.518,0.314l0.656,0.305l0.555,0.365l0.212,0.486
		l-0.138,0.374l-0.276,0.217l-0.261,0.139l-0.123,0.139l-0.368,2.15l-0.252,0.815l-0.12,0.801l0.248,0.792h0.258l0.374-0.962
		l0.233-0.43l0.285-0.324l0.175-0.381l-0.061-1.011l0.153-0.407l0.982-0.678l0.828,0.008l0.724,0.507l1.773,2.167l0.727,0.681
		l0.653,0.29l0.994,0.183l0.745,0.501l0.488,0.749l0.239,0.918l0.282-0.21l0.159-0.188l0.064-0.253l-0.015-0.385l1.779,1.35
		l0.693,0.2l0.785,0.361l0.638,0.795l0.141,0.801l-0.669,0.371l0.411,0.337l0.589,0.21l0.614,0.006l0.448-0.271l0.107-0.513
		l-0.221-0.396l-0.095-0.33l0.491-0.311l0.92,0.025l1.785,0.943l1.132,0.042l2.945-1.405l0.96-0.143l0.586,0.28l0.555,0.584
		l0.896,1.225l0.816,0.809l0.35,0.494l0.144,0.625l-0.083,0.821l-0.356,1.255l-0.077,0.647l0.184,1.759l-0.083,0.952l-0.865,0.747
		l-1.831,1.994l-1.494,0.85l-6.889,2.507l-7.03,2.04l-1.353,0.831l-0.883,0.383l-0.935,0.277l-0.791,0.086l-0.589-0.139
		l-1.184-0.505l-1.08-0.168l-0.785-0.231l-0.478,0.009l-0.454,0.159l-1.11,0.874l-0.819,0.502l-0.365-0.015l-0.491-0.346
		l-0.212-0.279l-0.681-1.164l-1.291-1.515l-1.184-0.607l-0.782-0.237l-0.353,0.197l-0.365-0.111l-0.807,0.517l-1.166,0.992
		l-0.307-0.214l-0.19,0.139l-0.074,0.377l0.058,0.496l-1.454-0.351l-1.347,0.807l-2.117,2.384l-0.638,0.473l-0.279,0.302l-0.11,0.4
		l0.052,0.459l0.153,0.16l0.255,0.082l0.966,0.63l0.248,0.22l0.221,0.337l0.42,1.094l0.905,1.385l1.034,1.228l1.175,1.085
		l1.307,0.954l0.488,0.455l0.313,0.239l0.344,0.102l0.347,0.009l0.791,0.106l0.291,0.12l0.178,0.226l0.301,0.692l0.169,0.266
		l0.239,0.206l0.267,0.165l0.65,0.272l0.092-0.642l0.518-0.138l0.672,0.186l0.54,0.335l0.405,0.512l0.077,0.472l-0.193,0.468
		l-0.417,0.486l-0.147,0.48l0.331,0.42l0.46,0.362l0.233,0.311l0.313,0.223l0.693-0.349l1.08-0.8l0.423,0.209l0.914,0.129
		l0.46,0.175l-0.212,0.517l0.439,0.705l1.494,1.62l0.018,0.275l-0.322,0.406l-0.414,0.252l-0.328-0.052l-0.374-0.182l-0.583-0.137
		l0.199,0.637l-0.175,0.565l-0.377,0.483l-0.396,0.378l-0.58,0.418l-0.531,0.132l-1.485-0.057l-0.635,0.075l-1.215,0.349
		l-0.721,0.115l-1.632,0.032l-0.868-0.158l-0.589-0.414l-0.494,0.66l-0.288,0.191l-3.411,0.958l-3.061,0.281l-0.896,0.286
		l-4.994,2.533l-0.825,0.018l-2.322-0.678l-0.626-0.097l-0.46-0.201l-1.454-1.347l-0.531-0.311l-0.316-0.145l-0.328-0.058
		l-0.138-0.163l-0.258-0.709l-0.141-0.161l-0.509-0.051l-1.178-0.466l-0.945-0.172l-0.337-0.109l-0.828-0.577l-0.429-0.674
		l-0.344-0.729l-0.598-0.717l-0.57,0.068l-0.825,0.534l-0.736,0.645l-0.331,0.417l0.144,0.328l0.721,0.438l0.172,0.408v1.563
		l0.138,0.401l0.57,0.535l0.058,0.48l-0.172,0.432l-0.325,0.354l-0.785,0.529l-0.248,0.245l-0.187,0.328l-0.227,0.263l-0.117,0.315
		l0.141,0.197l0.663,0.643l0.258,0.311l-0.38-0.035l-0.325,0.046l-1.555,0.626l-0.332-0.302l-0.608-0.233l-1.04,0.071l-0.612-0.025
		l-1.289-0.2l-1.044-0.291l-0.888-0.547l-2.123-2.246l-3.054-1.568l-1.391-0.979l-0.304-0.39l-0.218-0.355l-0.288-0.259l-0.545-0.1
		l-0.464,0.115l-0.604,0.552l-0.366,0.199l-6.938,0.136l-2.123-0.582l-1.554,0.002l-2.961,0.561l-1.445-0.321l-1.383-0.979
		l-0.67-0.088l-1.192,1.016l-0.713,0.209l-0.729,0.02l-0.99-0.386l-0.954,0.489l-0.503-0.033l-1.644-2.395l-0.417-0.054
		l-0.257,0.478l-0.795,0.791l-0.296,0.544l0.019,0.388l0.187,0.276l0.082,0.243l-0.308,0.3l-0.662,0.174l-0.425-0.168l-0.405-0.019
		l-0.927,0.961l-0.393,0.12l-0.394-0.051l-0.37-0.177l-0.966-1.626l-0.136-0.48l-0.136-0.191l-0.261-0.093l-0.265,0.037
		l-0.253-0.012l-1.013-0.988l-0.962,0.189l-1.052,0.538l-1.071,0.304l-0.518-0.066l-1.695-0.456l-0.876-0.049l-0.39-0.069
		l-0.405-0.222l-0.312,0.819l-0.284,0.458l-0.397,0.325l-0.686,0.417l-1.811,1.805l-0.471,0.26l-0.627-0.221l-0.393-0.462
		l-0.234-0.6l-0.148-0.628l-0.234-0.273l-0.467-0.259l-0.9-0.336l-1.589-0.105l-0.752-0.189l-0.354-0.55l-0.171-0.601l-0.331-0.31
		l-0.452,0.059l-0.495,0.495l-0.37,1.201l0.027,1.251l-0.167,1.131l-1.434,1.224l-0.152,0.485l-0.175,0.397l-0.522,0.13
		l-0.366-0.206l-0.261-0.324l-0.288-0.12l-1.613,1.489l-0.265,0.353l-0.257,0.245l-0.756,0.209l-0.339,0.36l-0.294,0.875
		l-0.22,0.657l-0.421,3.338l-0.475,1.636l-0.725,1.47l-0.351,0.419l-1.324,0.725l-0.265,0.268l-0.02,0.861l0.596,0.539l0.771,0.433
		l0.53,0.548l0.027,1.249l-1.465,4.393l-0.222,1.482l-0.008,1.504l0.156,0.902l0.935,2.277l0.043,0.394l-0.078,0.767l0.012,0.382
		l0.129,0.471l0.623,1.122l0.3,0.783l0.023,0.415l-0.218,0.354l-0.393,0.152l-0.339-0.098l-0.335-0.168l-0.374-0.06l-0.806,0.824
		l-0.686,1.754l-1.313,5.689l0.027,0.659l0.596,0.726l0.569,0.189l0.097,0.283l-1.313,1.748l-0.234,0.677l-0.144,1.605l-0.304,0.743
		l-0.608,0.255l-1.55,0.172l-2.462,1.071l-1.188,0.197l-1.079-0.515l-0.962-1.432l-0.518-0.156l-0.643,0.971l-0.643,1.328
		l-0.436,0.493l-2.162,1.478l-0.612,0.585l-0.499,0.79l-0.164,0.443l-0.094,0.39l-0.14,0.388l-0.296,0.435l-0.514,0.439
		l-0.319,0.146l-0.082,0.168l0.187,0.507l0.99,1.272l0.245,0.739l-0.417,0.922l-0.409,0.283l-0.397,0.08l-0.339,0.142l-0.234,0.468
		l0.035,0.368l0.409,0.753l0.117,0.367l-0.167,0.778l-0.331,0.844l-0.082,0.762l0.565,0.528l0.417,0.01l0.814-0.392l0.409-0.119
		l0.448,0.043l0.487,0.148l0.46,0.218l0.374,0.251l0.569,0.612l0.581,0.872l0.429,0.887l0.09,0.667l-0.506,0.729l-0.787,0.273
		l-1.706,0.154l-0.81,0.511l-1.418,1.606l-0.58,0.343l-0.651,0.287l-1.609,1.378l-0.721,0.468l-1.449-0.121l-0.464,0.255
		l-0.261,0.825l0.055,0.786l0.109,0.587l-0.238,0.439l-1.013,0.335l-2.918,0.396l-1.141,0.659l-0.576,1.476l-0.429,2.058
		l0.035,0.706l0.14,0.33l0.425,0.597l0.086,0.383l-0.039,1.26l0.039,0.318l0.389,0.836l0.436,0.047l0.604-0.27l0.873-0.105
		l0.366,0.247l0.16,0.5l-0.008,0.574l-0.097,0.475l-0.327,0.773l-0.167,0.637v0.646l0.16,0.803l-0.062,0.71l-0.487,0.461
		l-2.111,0.815l-2.037,0.253l-0.37,0.148l-0.397,0.295l-0.343,0.358l-0.203,0.333l-0.105,0.412l0.047,0.26l0.121,0.277l0.117,0.467
		l0.043,1.172l-0.417,2.612l-0.705,1.982l-0.974,1.608l-0.557,0.647l-1.325,1.064l-0.428,0.642v0.91l0.171,0.805l0.012,0.812
		l-0.242,0.731l-0.604,0.568l-0.88,0.208l-0.814-0.249l-2.988-2.117l-0.873-0.429l-0.88-0.128l-0.721,0.188l-5.591,2.357
		l-0.097,0.041l-0.814,0.562l-0.37,0.111l-0.491-0.162l-0.382-0.358l-0.347-0.414l-0.382-0.336l-1.383-0.434l-1.519,0.023
		l-5.438,0.851l-0.697,0.284l-0.865,0.734l-2.263,2.857l-5.98,4.014l-0.931,0.214l-1.067-0.53l-1.897-2.26l-0.818-0.452
		l-0.795-0.035l-0.795,0.218l-1.484,0.616l-1.71-0.059l-2.785-2.166l-1.796-0.66l-2.197-0.453l-1.695-0.107l-0.534-0.167
		l-1.239-0.961l-1.383-0.667l-1.449-0.131l-1.476,0.257l-1.441,0.486l-0.565-0.021l-0.109-0.298l0.222-0.408l1.149-0.852
		l0.588-0.615l0.421-0.721l0.222-0.829l-0.035-0.853l-0.351-0.519l-0.639-0.354l-0.904-0.365l-0.647-0.094l-1.823,0.068
		l-0.736-0.164l-0.631-0.218l-0.619-0.078l-0.697,0.251l-0.37,0.334l-0.23,0.36l-0.265,0.313l-0.452,0.21l-0.253-0.022l-0.978-0.296
		l-11.247-0.582l-0.927,0.21l-0.608,0.43l-0.522,0.529l-0.654,0.502l-0.662,0.212l-2.333,0.225l-0.9,0.299l-4.34,2.065l-0.697,0.547
		l-0.281,0.943l0.187,0.329l0.857,0.029l0.234,0.324l-0.023,0.443l-0.129,0.4l-1.18,2.366l-1.983,5.706l-0.269,0.444l-0.506,0.222
		l-0.958,0.136l-3.043-0.016l-2.384,0.754l-3.28,3.98l-2.271,0.583l-1.079-0.318l-1.963-0.83l-1.013-0.277l-0.674-0.055
		l-0.553,0.074l-3.159,1.227l-0.884,1.253l-0.46,0.228l-0.421-0.845l-0.152-0.643l-0.21-0.563l-0.39-0.353l-0.662-0.016
		l-1.488,0.467l-0.736,0.148l-0.806-0.047l-0.841-0.24l-5.06-2.238l-0.752-0.074l-8.449,2.168l-2.368,0.076l-1.137,0.195
		l-1.044,0.503l-2.1,1.792l-0.374,0.584l-0.031,0.674l-0.086,0.306l-0.273,0.185l-0.206-0.043l-0.382-0.319l-0.105-0.062
		l-0.475,0.246l-0.035,0.111l-0.752,0.294l-0.156-0.004l-0.425-0.152h-0.199l-0.421,0.253l-0.701,0.666l-0.495,0.183l-0.51-0.066
		l-0.335-0.259l-0.253-0.296l-0.277-0.17l-0.428-0.031l-0.144,0.117l-0.136,0.284l-0.374,0.46l-1.589,0.744l-1.792-0.224
		l-1.737-0.845l-1.418-1.12l-1.582-2.155l-0.623-0.557l-0.471-0.193l-1.917-0.423l-0.545,0.09l-0.51,0.162l-0.351-0.123l-0.066-0.77
		l-0.195-0.918l-1.878-2.739l-0.814-1.601l-0.557-0.764l-0.686-0.355l-2.213-0.292l-0.713-0.265l-0.857-0.635l-0.795-1.436
		l-0.701-0.639l-1.352-0.649l-0.471-0.409l-0.452-0.795l-0.725-2.219l-0.464-0.613l-0.686-0.34l-0.728-0.002l-0.748,0.09
		l-0.756-0.068l-0.654-0.539l-0.666-1.599l-0.273-0.256l-0.717,0.395l-0.226-0.062l-0.09-1.052l-0.257-0.4l-3.358-2.88l-0.725-0.918
		l-0.417-0.771l-0.199-0.737l-0.043-1.729l0.249-2.974l-0.203-0.721l-0.67-0.255l-1.656-0.008l-0.495-0.173l-0.428-0.362
		l-0.339-0.459l-0.257-0.461l-0.191-0.469l-0.016-0.282l0.016-0.281l-0.238-1.361l0.035-0.572l0.323-0.474l1.375-1.164l0.401-0.465
		l0.573-0.838l0.993-1.756l0.703-2.019l0.006,0.025l0.169,0.642l0.086,0.835l0.374,1.535l0.055,0.743l-0.135,0.605l-0.178,0.525
		l-0.025,0.608l0.337,0.839l1.11,1.57l0.693,0.703l0.767,0.562l2.325,0.985l1.337,0.881l1.534,0.649l0.644,0.479l0.454,0.644
		l0.632,1.309l0.46,0.608l0.528,0.117l1.865-0.037l0.451-0.08l0.574-0.298l0.816-0.098l4.81,0.035l0.5,0.118l0.736,0.509l0.423,0.12
		l0.175-0.103l0.58-0.488l0.276-0.156l0.353-0.127l0.218-0.037l0.221,0.135l0.902,1l0.258,0.08l0.184-0.663l0.365-0.444l0.095-0.225
		l-0.028-0.235l-0.184-0.382l-0.046-0.153l-0.055-1.195l0.055-0.351l0.463-0.826l0.604-0.374l0.515,0.19l0.291,1.094l0.344,0.46
		l0.12,0.229l0.028,0.25l-0.061,0.534l0.034,0.244l0.129,0.267l0.169,0.215l0.202,0.169l0.251,0.146l0.27,0.106l0.331,0.074
		l0.837,0.052l0.384-0.158l0.463-0.709l1.132-0.387l0.687-0.378l0.607-0.074l0.482,0.677l-0.463,0.58l-0.331,0.528l-0.19,0.583
		l-0.067,0.755l-0.141,0.295l-0.669,0.69l-0.218,0.431l1.012-0.419l0.525-0.051l0.543,0.213l0.359,0.422l0.101,0.407l0.126,0.321
		l0.423,0.161l0.344-0.078l0.782-0.397l0.439-0.04l0.509,0.18l1.546,0.849l2.172,0.652l0.963,0.539l0.472,0.896l-0.221,0.942
		l-0.672,0.681l-1.42,0.927v0.279l0.997-0.028l0.782-0.141l0.693-0.35l0.751-0.652l0.377-0.713l-0.046-0.732l-0.187-0.686
		l-0.025-0.583l1.006-0.783l1.745,0.242l3.211,1.312l1.626,1.054l2.865,2.877l1.448,0.962l2.245,1.128l0.475,0.158l0.905-0.13
		l1.252-0.652l0.788-0.245l1.224,0.483l1.362,1.123l1.482,0.704l1.62-0.767L471.814,404l-1.049-0.388l-0.512-0.1l-0.169-0.236
		l-0.35-1.046l-0.267-0.236l-0.598-0.092l-1.049-0.371l-0.552-0.054l-0.442,0.127l-1.362,0.623l-0.819,0.032l-0.709-0.21
		l-0.617-0.407l-0.543-0.561l-0.678-0.497l-1.669-0.667l-0.626-0.522l-0.681-1.801l-0.724-0.703l-0.16-0.457l-0.046-1.108
		l0.046-0.307l0.509-1.31l0.31-1.382l0.35-0.488l2.172-0.416l0.831-0.034l0.736,0.258l0.497,0.675l0.494,0.878l0.607,0.522
		l0.862-0.387l0.482-0.097l0.525,0.37l0.632,0.328l0.816-0.227l-0.758-0.227l-0.359-0.166l-0.672-0.516l-0.331-0.04l-0.331,0.021
		l-0.745-0.202l-0.245,0.018l-0.123-0.097l-0.037-0.456l-0.432-0.617l-0.083-0.169l-0.138-0.14l-0.681-0.136l-0.236-0.084
		l-0.153-0.18l-0.871-1.488l-0.19-0.509l-0.074-0.562l0.181-0.218l0.844-0.209l0.264-0.23l-0.061-0.215l-0.567-0.362l-0.138-0.31
		l0.123-0.758l0.319-0.694l0.84-1.289l1.184-2.455l1.08-3.487l0.074-0.881l0.203-0.186l0.457,0.069l0.751,0.245l0.923-0.074
		l-0.978-0.826l-0.068-0.902l0.522-0.482l0.672,0.054l0.745,0.267l1.374,0.272l0.319-0.065l0.509-0.327l0.245-0.275l0.699-0.978
		l0.111-0.295l-0.35-0.309l-0.448,0.143l-0.374,0.394l-0.31,0.941l-0.359,0.078l-0.396-0.153l-1.031-0.663l-0.782-0.129
		l-2.699,0.397l-0.534-0.069l-0.199-0.408l-0.028-0.866l0.23-0.6l0.574-0.608l0.751-0.359l0.758,0.152l-0.399-0.712l-0.709-0.261
		l-0.672-0.129l-0.304-0.304l0.064-0.682l0.451-1.776l0.377-2.643l0.469-1.027l0.957-0.755l0.316,0.636l0.494,0.304l1.27,0.396
		l0.432,0.373l0.945,1.159l0.313,0.246l0.215,0.114l0.239,0.218l0.267,0.152l0.316-0.084l1.184-0.804l0.35-0.111l1.27-0.193
		l0.276,0.064l0.681,0.504l0.745,0.422l-0.313-0.68l-0.755-0.78l-1.23-1.138l-0.313-0.462l-0.448-1.584l-0.291-0.556l1.169,0.069
		l1.049,0.272l0.902,0.037l0.745-0.633l0.205,0.092l0.055,0.049l0.061-0.02l0.212-0.121l-0.819-0.307l-1.426-0.345l-0.607-0.378
		l-0.475-0.405l-0.38-0.41l-0.212-0.585l0.015-0.921l0.666-2.317l0.187-1.479l0.255-0.548l0.408-0.415l2.712-2.077l4.113-2.547
		l1.156-0.562l7.199-1.416l5.764-0.201l10.717-2.833l10.435-2.752l5.751-1.215l2.319-0.912l0.442,0.009l6.552-2.046l1.261-0.659
		l2.012-2.151l0.794-1.439l-0.488-0.839l0.285-0.332l0.997-0.674l1.81-1.589l0.405-0.217l0.153-0.358l1.258-1.985l2.942-2.594
		l0.69-1.042l0.12-0.295l0.077-0.307l0.061-0.813l0.203-0.38l0.883-0.688l0.196-0.237l0.258-0.403l1.804-2.035l0.883-1.525
		l0.307-0.851l0.117-0.882l0.307-0.701l0.712-0.589l1.558-0.89l9.135-7.895l7.914-10.299l0.791-1.827l-0.27-1.487l0.804-1.255
		l0.386-1.601l-0.012-1.791l-0.847-3.557l0.242-0.612l0.865-0.243l2.465,1.176l2.065,0.318l0.795,0.415l1.231,0.961l0.927,0.356
		l0.444,0.29l0.288,0.775l0.234,0.114l0.58,0.016l0.273,0.105l0.086,0.252l0.035,0.298l0.125,0.247l0.397,0.44l0.222,0.415
		l0.292,1.059v1.054l0.514,0.776l0.257,1.688l-0.125,0.363l-0.526,0.46l-0.121,0.222l0.066,0.565l0.175,0.346l1.286,0.091
		l1.648,0.326l1.543-0.277l0.697,0.041l0.475,0.499l0.783,2.389l0.37,0.739l0.538,0.725l2.368,2.193l0.799,0.563l0.3,0.288
		l0.183,0.388l0.28,0.937l0.187,0.299l1.55,0.18l1.776-1.035l3.467-3.316l0.288-0.554l0.21-1.56l0.265-0.735l0.861-1.288
		l0.273-0.694l-0.129-0.659l-1.177,0.479l-0.023-0.775l0.222-0.349l0.238-0.23l0.908-0.878l0.405-0.644l0.28-0.633l0.347-1.432
		l0.086-1.082l-0.28-0.185l-0.557,0.092l-0.74-0.27l-0.674-1.054l-0.226-1.383l-0.183-4.419l-0.129-0.838l-0.218-0.782l-0.729-1.395
		l-0.281-0.702l0.023-0.625l0.046-0.043l0.324-0.3l1.383-0.581l0.639-0.404l1.215-1.163l0.682-0.429l0.845-0.233l0.69,0.037
		l0.693,0.117l0.662-0.016l0.6-0.37l0.246-0.578l0.031-0.632l0.121-0.582l0.859-0.861l0.405-0.195l0.359-0.22l0.301-0.269
		l0.221-0.349l0.258,0.776l0.037,1.469l0.224,1.37l0.008,0.008l-0.264,2.999l0.152,3.076l0.327,1.467l1.231,2.945l0.44,1.49
		l0.452,3.726l0.3,0.536l0.499,0.335l2.146,0.798l0.787,0.17l1.126-0.113l0.316,0.113l0.588,0.495l0.393,0.167l0.725-0.029
		l0.331,0.123l0.682,0.456l0.873,0.382l0.826,0.031l0.545-0.597l-0.093-0.783l-0.545-0.809l-1.325-1.248l-0.869-1.16l-0.495-1.486
		l-0.21-1.595l0.019-1.488l0.304-1.495l0.058-0.655l-0.164-0.897l-2.462-7.142l-0.947-1.348l-0.487-0.331l-0.503-0.238l-0.347-0.353
		L614.26,269.816z M730.1,233.963l0.512,0.167l0.113,0.365l-0.199,0.362l-0.426,0.165l-0.239,0.037l-0.666,0.24l-0.236,0.02
		l-0.276-0.02l-0.353-0.097l-0.264-0.179l-0.064-0.26l0.23-0.352l0.417-0.287l0.457-0.129L730.1,233.963z M473.489,364.903
		l0.04,0.141l0.034,0.344l-0.107,0.227l-0.362-0.212l-0.374-0.163l-0.343,0.161l-0.282,0.332l-0.169,0.35l-0.405-0.502l-0.623-1.538
		l-0.399-0.322l-0.73-0.336l-0.172-0.784l0.285-1.664l0.074-1.529l-0.702-6.261l0.074-1.884l0.546-1.202l1.301,0.497l0.767,1.192
		l0.405,1.578l0.031,6.586l0.322,2.799L473.489,364.903z M202.532,350.019l0.092,1.875l-0.092,0.445l-0.448,0.341l-0.705,0.227
		l-0.752,0.049l-0.552-0.209l-0.718-0.768l-0.294-0.459l-0.018-0.33l0.021-0.209l-0.184-0.64l0.043-0.322l0.175-0.207l0.475-0.246
		l0.242-0.181l0.365-0.583v-0.559l-0.153-0.568l-0.092-0.617l0.083-0.396l0.221-0.387l0.331-0.237l0.405,0.049l0.181,0.169
		l0.058,0.212l0.046,0.458l0.101,0.275l0.479,0.732l0.236,0.491L202.532,350.019z M749.2,285.573l0.85,0.242l0.423,0.534
		l-0.147,0.535l-0.868,0.24h-1.405l-0.534,0.522l-0.258,0.018l-0.212-0.123v-0.122l-0.046-0.789l-0.178-0.2l-0.454-0.372
		l-0.141-0.203l-0.129-0.411l0.135-0.103l0.393-0.006h0.098l0.546-0.006L749.2,285.573z M741.059,279.637l0.509-0.637l0.969,0.02
		l1.067,0.382l0.822,0.471v0.282l-0.558,0.045l-0.356,0.251l-0.163,0.429l0.046,0.563l-0.727-0.668l-0.184-0.105l-0.193,0.175
		l-0.129,0.343l-0.166,0.248l-0.294-0.123l-0.58-0.446l-0.617-0.286l-0.589-0.149l-0.506-0.045l-0.147-0.066l-0.341-0.328
		l-0.178-0.12l-1.288-0.235l-2.573-0.796v-0.239h2.972l0.414-0.115l0.261-0.259l0.218-0.268l0.276-0.154l0.745,0.131l0.341,0.543
		l0.304,0.665L741.059,279.637z M618.119,252.524l0.423,1.896l-0.018,0.915l-0.663,0.701l-0.368-0.017l-0.742-0.448l-0.307,0.052
		l-0.748,0.627l-0.945,0.562l0.064-0.561l1.064-2.945l0.307-0.373l1.086-1l0.589-0.24L618.119,252.524z M55.05,249.295l0.328,0.586
		l0.583,0.316l0.356,0.353l-0.687,1.3l-0.166,1.467l-0.156,0.678l-0.92,1.748l-0.132,0.673l-2.037-0.379l-1.497,0.015l-0.052,0.083
		l-0.034,0.092l-0.114,0.043l-0.202-0.077l-0.162-0.182l-0.04-0.176l0.518-0.302l0.129-0.531l-0.187-1.989l0.074-1.772l-0.083-0.345
		l-0.175-0.294l-0.175-0.233l-0.083-0.173l0.083-0.367l0.135-0.291l0.024-0.259l-0.242-0.268l0.475-0.18l0.19,0.216l0.153,0.333
		l0.356,0.17l0.301-0.103l0.221-0.236l0.184-0.263l0.202-0.174l0.718-0.173l0.767,0.022l0.724,0.223L55.05,249.295z M35.317,219.322
		l0.533-1.175l0.885-0.354l0.492-0.458l0.106,0.642l-0.281,0.318l-0.281,0.424l0.004,0.46l-0.064,0.247l0.021,0.615l0.242,0.649
		l-0.143,0.572l-0.357,0.536l-0.428,0.18l-0.606-0.534l-0.206-0.578l-0.352-0.11l-0.282-0.75L35.317,219.322z M39.626,214.677
		l0.386,0.591l0.136,0.342l0.068,0.31l-0.383,0.207l-0.543,0.156l-0.322,0.349l-0.477,0.296l-0.181,0.546l-0.613-0.386l-0.182-0.909
		l-0.726,0.022l-0.679,0.249l-0.586,0.723l-0.518,0.587l-0.617,0.005l-0.479,0.48l-0.463,0.213l-0.299,0.117l-0.5-1.842l0.252-0.661
		l-0.116-0.977l-0.612-0.205l-0.979-0.203l-0.684,0.051l-0.325-0.534l-0.153-0.664L30,211.964l0.913,0.34l0.728-0.319l1.229,0.044
		l0.569,0.386l1.298,0.157l0.568-0.114l0.613-0.501l0.454-0.682l0.364-0.023l0.575-0.007l-0.178-0.321l-0.064-0.287l0.349,0.046
		l0.341,0.152l0.294,0.829l0.285,0.536l0.445,0.377l0.779,0.356l-0.051,0.315l0.271,0.162l0.322,0.287l-0.163,0.46L39.626,214.677z
		 M701.803,199.411l0.948,1.186l0.635,1.181l-0.156,1.169l-1.426,1.152l-0.969,0.281l-1.156,0.031l-1.156-0.168l-0.96-0.324
		l-0.35-0.269l-0.132-0.324l0.095-0.334l0.34-0.278l0.399-0.13l1.911-0.085l0.598-0.154l0.442-0.349l0.166-0.63l-0.337-0.334
		l-1.346-0.071l-0.138-0.513l0.442-0.457l1.54-0.204L701.803,199.411z M684.233,177.04l0.537,0.498l0.221,0.903l-0.089,0.921
		l-0.39,0.555l-0.696-0.654l-0.558,0.264l-0.199,0.716l0.405,0.686l-3.607,0.909l0.175,0.36l0.325,0.202l0.203,0.215l-0.187,0.413
		l-0.347,0.167l-0.534,0.043l-0.546-0.062l-0.396-0.148l1.822-3.395l0.537-0.247l1.267-0.303l0.515-0.229L684.233,177.04z
		 M690.586,177.534l2.831-0.498l0.896,0.263l0.448,0.628l0.049,0.895l-0.368,2.921l-0.417,1.138l-0.577,0.714l-0.653-0.329
		l-0.709,0.283l-2.19,0.43l-0.469,0.207l-0.212,0.216l-1.006,0.47l-0.347,0.232l-0.258,0.436l-0.156,0.427l-0.209,0.383
		l-0.408,0.311l-0.279-0.918l-0.291-2.895l0.184-0.618l0.147-0.275l-0.04-1.685l0.135-0.352l0.209-0.189l0.595-0.204l0.371-0.209
		l0.905-0.919l0.844-0.589l0.469-0.198L690.586,177.534z M91.285,340.174l-0.144,0.421l-0.291,0.192l-0.595,0.152l-0.258-0.335
		l0.279-0.527l0.696-0.276L91.285,340.174z M93.791,339.971l-0.046,0.267l0.055,0.484l-0.098,0.865l-0.521,0.485l-0.724,0.283
		l-0.564,0.395l-0.221,0.216l-0.218,0.18l-0.285,0.097l-0.064-0.24l0.064-0.401l0.914-2.294l0.512-0.794l0.663-0.27l0.479,0.23
		L93.791,339.971z"/>
</g>
<g id="Copyright">
	<text transform="matrix(1 0 0 1 681.6426 577.5916)" class="st1 st2">© Vemaps.com</text>
</g>
</svg>
