<?xml version="1.0" encoding="utf-8"?>
<!-- Generator: Adobe Illustrator 23.0.1, SVG Export Plug-In . SVG Version: 6.00 Build 0)  -->
<svg version="1.1" xmlns="http://www.w3.org/2000/svg" xmlns:xlink="http://www.w3.org/1999/xlink" x="0px" y="0px"
	 viewBox="0 0 800 600" style="enable-background:new 0 0 800 600;" xml:space="preserve">
<style type="text/css">
	.st0{fill:#808080;}
	.st1{font-family:'Roboto-Regular';}
	.st2{font-size:14px;}
</style>
<g id="Nepal">
	<path class="st0" d="M765.377,355.574l2.255,0.531l1.217,0.457l0.747,0.608l0.179,1.209l-1.09,1.897l0.461,4.217l-0.94,2.604
		l-1.315,2.63l-2.18,8.59l-5.648,9.659l-2.312,5.171l-0.113,1.094l0.113,0.983l0.432,2.002l0.244,0.45l0.818,0.858l0.169,0.439
		l-0.211,0.879l-0.409,0.582l-0.474,0.519l-0.343,0.683l-0.78,2.339l-0.226,1.143l0.094,1.418l0.395,1.111l1.128,1.994l0.235,1.158
		l-0.554,2.507l-2.215,5.004l-1.393,3.147l-0.352,7.157l-1.33,2.978l-0.15,0.86l0.141,0.823l0.432,0.776l1.438,1.393l1.654,3.662
		l1.626,1.05l1.405,0.654l1.193,1.113l1.903,2.679l1.814,3.311l1.363,3.574l0.785,1.576l2.034,3.103l0.78,1.591l0.357,1.754
		l0.338,4.386l0.799,4.037l0.113,1.926l-0.141,1.931l-0.376,2.025l-1.522,4.47l-4.088,8.062l-1.323,4.355l-0.665,2.189l-0.061,1.034
		l0.282,1.271l-0.733,4.157l-2.716,4.901l-3.425,3.635l-2.833,0.336l-1.297-1.259l-2.932-1.773l-1.292-1.201l-0.569-0.971
		l-0.592-1.773l-0.427-0.829l-0.23,0.053l-2.19-1.805l-0.08-0.399l-1.612,0.404l-2.772,2.351l-1.56,0.016l-1.682-0.876l-1.541-0.556
		l-1.165,0.462l-0.611,2.151l-0.658,1.548l-1.334,0.682l-1.513-0.194l-1.212-1.076l-1.489-0.808l-1.959,0.682l-0.991,0.763
		l-2.251,1.734l-3.364,1.51l-3.176-0.881l-6.522-3.725l-2.791-0.53l-3.016,0.168l-2.932,0.845l-2.528,1.516l-1.043,1.458
		l-1.701,3.655l-1.109,0.97l-1.231-0.225l-3.825-1.72l-1.193-0.739l-0.818-1.327l-0.625-1.568l-0.94-0.949l-2.786,0.866
		l-4.858,0.546l-2.612-1.07l-2.091-2.775l-1.508-3.406l-0.911-2.971h-0.019l-1.043-5.02l-0.052-1.718l-0.282-1.933l-1.038,0.042
		l-1.316,1.098l-2.749,2.878l-1.161,0.882l-3.391,1.187l-2.548,0.892l-2.833,1.685l-0.935,2.284l-1.757,2.01l-2.227,1.475
		l-2.312,0.672l-0.836-0.157l-3.214-1.265l-1.245,0.184l-0.681,1.008l-0.601,1.201l-0.954,0.75l-1.673-0.372l-6.352-3.867
		l-6.132-2.813l-1.814-1.102h-0.019l-1.222-1.444l-1.245-1.124l-1.428-0.782l-1.767-0.42l-2.786-1.129l-5.563-3.026l-2.725-0.993
		h-0.803l-1.969,0.257l-0.653-0.089l-0.634-0.714l-0.038-1.44l-0.658-0.699l-1.541-0.305l-1.94,0.3l-3.449,1.188l-2.025,1.303
		l-0.639,0.194l-0.954-0.179l-0.554-0.426l-0.437-0.478l-0.606-0.336l-1.377-0.41l-0.573-0.072l-0.142-0.018l-2.067,0.126
		l-0.564-0.231l-0.47-0.426l-6.273-3.937l-2.758-0.915l-3.242,1.025l-2.143,0.237l-1.588,0.93l-6.212,5.386l-1.964,1.161
		l-1.475,0.242l-0.63-0.567l-0.169-0.793l-0.019-0.893l-0.174-0.856l-0.719-0.641l-0.879,0.237l-0.916,0.373l-0.818-0.221
		l-4.905-3.905l-1.287-1.588l-0.968-3.586l0.672-7.533l-0.709-3.479l-1.278-1.553l-7.128-3.991l-0.982-0.342l-7.194,2.849
		l-3.98,2.159l-3.28,1.784l-1.645,0.516l-1.668-0.505l-1.574-0.084l-1.513,1.368l-1.263,1.537l-0.194,0.236l-1.471,1.1l-3.153,0.963
		l-1.372,0.037l-8.396-2.231l-2.659-2.789l-0.014-3.516l-0.319-3.08l-3.561-1.496l-2.058,0.221l-5.112,2.017l-2.312-0.211
		l-0.155-1.369l0.108-1.548l-1.565-0.795l-1.151-0.158l-1.128-0.316l-2.096-1.096l-0.771-1.844l-0.517-2.129l-1.32-1.945
		l-2.044-1.175l-4.529-1.524l-2.133-1.297l-0.014-0.01l-0.968-1.598l-1.414-0.322l-1.494,0.538l-1.231,0.949l-1.024,0.016
		l-10.952-2.996l-1.179-0.828l-0.526-2.195l0.808-2.332l1.287-2.338l0.897-2.212l0.493-4.06l-0.197-3.914l-0.86-3.815l-1.48-3.716
		l-2.307-3.421l-2.683-1.898l-26.152-4.819l-1.973-1.275l-1.71-2.445l-0.897-1.916l-1.226-0.948l-2.753,0.445l-0.855-0.265
		l-0.977-2.494l-0.85-0.943l-2.185-0.879l-0.977-0.58l-0.855-0.877l-0.399-1.878l-1.602-0.368l-1.814,0.752l-4.609,5.72
		l-1.931,1.324l-2.894,0.111l-3.627-0.651l-1.175-0.397l-0.089,0.026l-2.016,0.598l-4.215,0.296l-1.767,0.709l0.785,1.636
		l2.589,2.932l0.225,0.958l0.362,1.042l-0.023,0.836l-0.897,0.344l-0.526,0.397l-0.648,0.968l-0.115-0.117l-0.487-0.496
		l-4.182-1.524l-12.602-6.795l-6.634-2.494l-9.952-1.345l-8.542-0.074l-2.368,0.847l-0.461,0.996l-0.188,1.249l0.179,1.191
		l1.377,1.89l-0.127,1.233l-0.62,1.286l-1.964,2.937l-1.527,1.56l-1.771,1l-2.039,0.101l-2.086-0.735l-0.916-1.021l-0.573-1.439
		l-1.048-1.952l-1.123-1.286l-4.511-3.832l-3.35-1.334l-11.121,0.085l-5.756-1.427l-4.172-2.362l-2.274-0.736l-11.286-0.76
		l-2.039-2.379l-0.987-3.892l-0.874-7.674l-1.109-3.949l-1.579-2.568l-0.527-0.211l-1.977-0.79l-11.455,2.971l-7.771,0.902
		l-3.524-1.104l-4.91-5.015l-7.048-3.541l-10.854-9.025l-3.966-1.573l-1.551-0.901l-1.701-1.821l-1.823-1.558l-0.127-0.043
		l-2.091-0.702l-4.666-0.468L204.218,351l-3.665,4.346l-2.081,1.445l-2.504-0.194l-2.528-1.512l-2.518-1.898l-4.548-2.632
		l-3.613-3.895l-1.95-1.614l-2.138-0.782l-4.581-1.075l-1.79-1.394l-0.023-0.011l-1.175-1.894l-1.842-1.309l-8.044-4.163
		l-1.386-1.121l-0.381-0.961l-0.099-1.076l-0.428-1.481l-1.179-1.894l-1.63-1.777l-1.936-1.404l-2.077-0.743l-1.391,0.192
		l-0.587,0.946l-0.381,1.276l-0.832,1.207l-1.311,0.669l-1.513,0.25l-0.987-0.464l0.291-1.465l-1.485-0.368l-0.573-0.794
		l0.362-0.845l1.381-0.565l-1.236-2.489l-5.277-6.108l-1.236-2.875l-1.851-6.143l-1.879-2.397l-2.124-1.129l-9.026-1.74
		l-4.242-0.818l-0.658-1.119l-0.169-1.285l-0.32-1.109l-1.071-0.615l-1.41,0.481l-1.757-0.043l-1.804-0.363l-1.461-0.481
		l-1.691-1.234l-0.437-1.454l-0.136-1.555l-0.738-1.55l-1.297-0.577l-3.726-0.011l-1.691-0.326l-1.522-0.936l-3.467-3.645
		l-1.494-1.006l-2.847-0.81l-1.56-0.746l-0.949-1.204l-1.804-3.46l-1.156-0.84l-3.374-0.613l-1.56-0.535l-1.616-0.838l-0.611-0.827
		l0.047-0.966l0.15-0.9l-0.291-0.613l-1.945-0.063l-1.532-0.05l-1.823,1.026l-0.902,1.416l-0.244,1.78l0.771,6.591l-0.451,1.367
		l-1.785-0.974l-3.843-4.656l-1.654-0.987l-1.823-0.094l-1.748,0.476l-1.757,0.252l-1.823-0.752l-1.034-1.309l-2.481-5.135
		l-0.695-0.589l-1.654-0.407l-0.742-0.359l-0.695-0.774l-0.949-1.663l-0.517-0.67l-1.532-0.957l-3.204-0.555l-1.738-0.622
		l-1.316-1.04l-3.035-4.074l-2.941-1.74l-0.801-0.163l-1.661-0.338l-1.673-1.333L30,250.505l0.075-2.09l0.254-1.884l0.601-1.753
		l1.128-1.694l1.41-1.125l1.522-0.784l1.297-1.018l0.771-1.799v-0.019l-0.291-3.414l0.761-4.638l1.776-3.955l2.81-1.369l1.55,0.212
		l1.898,0.016l1.748-0.511l1.128-1.377l-0.235-1.606l-1.522-4.356l0.46-1.513l1.569-0.207l1.146,0.904l0.865,0.202l1.87-6.838
		l0.367-2.421l-0.244-1.964l-0.667-0.579l-0.836,0.04l-0.78-0.137l-0.498-1.08l-0.667-4.215l-1.926-3.413l-0.658-1.75l0.357-1.853
		l0.968-0.739l2.65-0.871l0.545-0.958l0.254-1.346l0.62-0.683l0.818-0.588l0.827-1.077l0.028-0.014l1.823-1.398l0.78-0.804
		l0.648-0.942l0.038-0.532l-0.235-0.583l-0.132-0.643l0.329-0.724l0.498-0.405l1.128-0.616l0.517-0.389l2.049-2.312l1.081-2.159
		l0.141-2.3l-0.836-2.733l-1.24-2.801l-0.865-2.634l-0.009-2.659l1.334-2.895l2.387-1.954l5.422-1.467l1.936-1.63l4.652-5.898
		l2.02-3.278l1.212-3.778l0.771-1.8l1.353-0.765l3.28-0.423l1.739-0.553l1.156-0.749l2.368-2.257l3.242-2.23l0.902-0.993
		l2.725-4.391l1.269-1.336l5.469-4.187l1.804-2.76l-1.203-2.804l1.269-1.25l1.593-1.919l1.452-1.076l0.888,1.294l0.879,1.859
		l1.593,0.397l6.122-2.093l0.714-0.043l0.954,0.848l1.175,1.75l1.043,2.054l1.16,3.417l2.086,3.476l0.691,1.602l0.932,4.626
		l0.036,0.178l1.175,0.971l2.439-0.613l2.138-0.049l4.219,1.97l2.03-0.391l0.949-1.498l-0.141-2.942l1.255-0.874l1.598-0.499
		l0.883-0.673l0.1-0.221l0.374-0.827l0.357-1.624l-0.132-0.717l-0.742-1.635l0.056-0.771l0.977-0.712l1.414-0.103l1.48,0.081
		l1.17-0.179l1.442-1.027l1.071-1.44l0.658-1.717l0.413-3.283l1.142-1.93l0.315-1l-0.085-0.903l-0.583-1.692l-0.136-0.925
		l-0.089-3.684l0.32-1.671l0.963-1.513l0.465-1.459l-0.216-1.666l0.24-1.367l1.809-0.556l1.701,0.703l3.336,3.283l1.842,0.996
		l2.391,0.37l1.029-0.376l1.024-4.045l0.442-0.866l0.677-0.43l1.729-0.31l1.222-0.566l0.479-0.893l0.282-0.915l0.592-0.648
		l2.039-0.278l1.973,0.627l11.06,5.065l1.969,0.512l2.044-0.343l1.936-0.724l1.964-0.316l3.89,1.704l3.12-0.25l1.795,0.359
		l0.808,0.588l1.09,1.552l0.63,0.566l0.893,0.152l0.874-0.31l0.883-0.452l0.86-0.288l3.839-0.256l2.124,0.212l1.414,0.751
		l0.404,1.617l-1.01,6.045l0.263,2.79l0.991,1.827l1.668,1.185l2.378,0.859l1.391,1.332l-0.428,2.011l-2.128,3.983l0.103,1.429
		l0.592,2.21l0.846,2.134l0.846,1.184l1.856,0.282l1.63-0.63l1.682-0.309l4.097,2.6l1.842,0.288l1.865,0.011l2.035,0.527l0.752,0.64
		l1.085,1.731l0.747,0.608l1.494,0.239l1.4-0.217l1.391,0.011l1.396,0.895l1.189,1.568L249,136.92l1.649,1.226l1.706,0.9
		l4.403,1.377l1.598,0.96l6.973,8.746l1.579,1.132l0.958-0.033l1.87-0.596l0.94,0.065l1.062,0.699l0.019,0.856l-0.413,1.034
		l-0.263,1.256l0.836,1.779l5.507,4.338l1.691,2.635l0.996,0.947l1.09,0.587l1.1,0.371l0.944,0.611l0.62,1.274l1.292,1.901
		l1.898-0.67l2.058-1.56l1.785-0.765l0.855,0.398l1.325,1.566l0.747,0.573l0.926,0.13l2.02-0.308l1.052,0.195l5.182,4.557
		l0.728,1.065l1.236,2.534l0.949,0.759l1.33-0.089l0.545-1.124l0.263-1.467l0.446-1.121l0.63-0.265l2.401-0.6l2.124-0.232
		l1.095,0.049l1.043,0.408l1.245,0.959l0.329,0.543l0.329,1.386l0.244,0.476l0.705,0.438l1.541,0.532l0.677,0.405l2.114,2.169
		l0.752,1.375l0.225,1.563l-0.31,0.869l-0.536,0.572l-0.479,0.702l-0.141,1.236l1.522,2.27l5.822-1.255l2.476,2.537l0.235,1.878
		l-0.235,1.543l0.164,1.316l2.749,2.281l0.197,1.154l-0.103,1.275l0.442,1.458l1.081,1.019l1.16,0.582l0.944,0.776l0.822,2.942
		l1.001,0.884l2.509,1.026l1.598,1.123l0.874,1.576l0.865,3.912l0.188,2.258l0.226,1.052l0.606,0.845l1.113,0.455l2.312,0.312
		l0.968,0.815l1.071,0.651l3.693,0.697l1.349,0.073l1.43-0.589l0.092-0.038l0.672-1.461l0.395-1.824l0.667-1.712l1.856-1.814
		l2.204-0.773l2.331-0.091l2.298,0.231l2.053-0.261l4.06-2.006l2.161-0.646l0.658-0.337l0.775-1.39l0.55-0.547l2.814-0.77
		l1.706-0.248l1.128-0.005l1.128,0.291l0.846,0.452l0.545,0.8l0.235,1.384l1.128-0.603l1.151-0.312l1.057,0.242l0.818,1.088
		l1.245,1.266l1.621-0.285l1.729-0.689l1.607,0.038l0.855,1.002l0.564,2.821l0.639,1.128l1.24,0.296l1.452-0.21l1.226,0.17
		l0.564,1.469l-0.587,1.728l-1.226,1.633l-0.86,1.714l0.522,1.993l2.011,1.995l0.554,0.731l0.319,0.992l0.522,3.279l2.067,1.258
		l2.035,0.666l0.987,1.343l-2.246,8.868l1.688,2.758l0.896,1.464l4.623,2.729l6.183,1.293l1.118,0.472l0.935,0.821l1.499,2.542
		l1.931,1.668l0.766,0.944l1.372,4.755l1.184,2.018l2.265,0.683l2.077-0.059l1.551,0.67l1.485,0.903l1.804,0.654l5.037,0.849
		l0.818,0.471l0.874,1.821l0.62,0.755l1.786,0.664l1.715,0.356l1.076,0.849l-0.475,4.802l1.189,0.856l4.163,0.203l1.729,0.907
		l2.378,2.745l1.579,1.27l1.165,0.481l1.09,0.15l5.032-0.321l1.104,0.193l1.494,0.492l0.987,0.139l0.888-0.289l0.724-0.653
		l1.137-2.434l0.545-0.623l2.711-1.479l0.846-0.23l0.766-0.375l0.606-0.84l0.874-1.793l0.592-0.886l0.62-0.586l2.077-0.479
		l1.828,0.728l3.35,2.366l4.464,1.432l0.639,1.223l-1.006,5.181l-0.291,0.853l-0.554,0.939l-0.662,0.508l-1.565,0.655l-0.54,0.751
		l-0.141,0.604l-0.009,1.94l-0.555,1.39l-2.344,1.424l-0.555,1.018l0.738,5.652v2.013l-0.348,3.081l-0.15,1.334l0.653,1.516
		l2.001,1.225l2.251,0.029l1.856-0.918l1.729-0.357l2.923,2.689l1.654,0.68l1.771,0.389l1.471,0.101l1.231-0.299l2.537-1.16
		l1.052-0.176l1.193,0.555l0.827,0.899l0.959,0.768l1.565,0.163l1.386-0.651l2.142-2.355l1.259-0.79l1.485-0.064l1.372,0.507
		l2.641,1.347l1.987-0.363l2.1-0.032l2.096,0.262l1.964,0.518l1.837,1.259l1.222,1.275l1.17-0.032l2.481-3.793l0.714-0.6
		l1.926-0.707l0.63-0.603l0.103-0.902l-0.019-0.993l0.287-0.843l1.255-0.24l0.461,2.25l0.16,4.578l1.438,2.656l1.72,2.253
		l2.011,1.887l2.378,1.562l4.013,1.818l1.945,1.191l1.372,1.607l0.334,1.074l0.428,2.27l1.579,2.128l0.178,0.967l-0.113,0.993
		l0.056,1.243l0.714,2.388l0.968,1.4l3.186,2.853l1.147,1.905l-0.028,1.992l-0.404,2.066l-0.056,2.117l1.043,2.557l1.597,0.638
		l4.201-0.489l2.269,0.244l0.289-0.048l0.646-0.107l1.269-0.59l2.866-2.887l0.517-0.407l-0.056-1.077l-0.46-0.718l-0.601-0.617
		l-0.451-0.785l-0.047-1.136l0.268-0.888l0.009-0.835l-0.794-0.936v-0.016h-0.009l-0.921-0.644l-0.141-0.599l0.174-0.657v-0.857
		l0.399-1.741l0.07-0.548l-0.287-0.807l-1.034-1.547l-0.132-1.036l7.931-8.223l1.823,0.362l0.911,2.009l0.103,2.56l-0.583,2.056
		l-0.775,1.744l0.202,0.966l0.672,0.78l0.663,1.161l0.625,2.991l0.639,1.235l1.339,0.782l0.014,0.005l0.042,0.021l1.832,0.532
		l1.861,0.197l1.734,0.407l1.508,1.165l2.143,2.737l0.865,0.628l0.893,0.17l0.733-0.298l0.733-0.399l0.846-0.133l0.818,0.425
		l3.068,2.569l1.781,0.728l1.231-0.096l3.331-1.723l1.95-1.058l1.231-1.497l0.573-1.956l-0.028-2.398l-0.023-1.804l0.554-1.181
		l0.785-1.027l0.677-1.389l0.216-1.544l0.047-1.653l0.263-1.526l0.855-1.148l1.452-0.253l1.236,0.884l1.25,1.188l1.405,0.642
		l1.349-0.33l2.03-1.824l1.137-0.583l1.644,0.115l1.781,0.719l1.64,1.081l1.278,1.169l0.385,1.243l-0.343,3.08l0.691,1.387
		l2.744,0.969l6.409-0.277l2.518,2.049v0.016l0.794,2.479l1.471,1.694l1.969,0.933l2.331,0.208l2.716-0.447l1.079-0.333l0.603-0.186
		l1.541,0.101l2.26,1.38l2.861,3.052l4.957,6.567l3.571,1.931l2.382,0.133l4.628-0.537l5.239,1.402l2.129-1.286l1.992-1.828
		l2.547-0.914l1.955,0.6l-0.423,1.397l-1.052,1.721v1.556l1.607-0.048l8.072-2.292l3.543-0.874l1.551-0.165l1.795,0.505l0.423,0.494
		l0.348,0.823l0.479,0.845l0.752,0.6l1.513,0.042l2.829-1.535l1.362-0.422l2.171,0.388l1.689,0.671l1.994,0.792l2.396-0.218
		l2.688-1.296l2.133-1.96l1.71-2.471l1.41-2.828l1.067-1.606l0.982-0.181l1.767,1l7.132,0.34l0.968,0.308l1.926,0.983l1.095,0.229
		l1.217-0.218l2.392-0.978l1.076-0.122l2.077,0.702l3.904,2.179L765.377,355.574z"/>
</g>
<g id="Copyright">
	<text transform="matrix(1 0 0 1 681.6426 577.5916)" class="st1 st2">© Vemaps.com</text>
</g>
</svg>
