<?xml version="1.0" encoding="utf-8"?>
<!-- Generator: Adobe Illustrator 23.0.1, SVG Export Plug-In . SVG Version: 6.00 Build 0)  -->
<svg version="1.1" xmlns="http://www.w3.org/2000/svg" xmlns:xlink="http://www.w3.org/1999/xlink" x="0px" y="0px"
	 viewBox="0 0 800 600" style="enable-background:new 0 0 800 600;" xml:space="preserve">
<style type="text/css">
	.st0{fill:#808080;}
	.st1{font-family:'Roboto-Regular';}
	.st2{font-size:14px;}
</style>
<g id="Philippines">
	<path class="st0" d="M370.523,540.628l0.394,0.062l0.539,0.464l0.464,0.637l0.148,0.586l-0.363,0.678l-0.57,0.089l-0.925-0.31
		l-0.236-0.148l-0.332-0.351l-0.296-0.402l-0.124-0.308l0.145-0.318l0.347-0.311l0.433-0.241L370.523,540.628z M403.696,525.927
		l0.85-0.375l0.363-0.023l0.088,0.399l-0.174,0.134l-0.796,0.43l-1.412,0.521l-0.342-0.081l-1.679-1.118l-0.645-0.717l-0.257-0.571
		l0.544,0.089l1.672,1.019l0.788,0.31L403.696,525.927z M527.54,496.614l0.078,0.278l-0.127,0.345l-0.184,0.364l-0.226,0.751
		l-0.29-0.155l-0.448-0.596l-0.264-0.625l-0.226-1.355l-0.412-0.821l-0.109-0.346l-0.137-1.176l-0.174-0.131l-0.267-0.013
		l-0.635-0.274l-0.189-0.037l-0.122-0.123l-0.075-0.377l0.031-0.346l0.135-0.358l0.189-0.28l0.199-0.112l0.236-0.347l0.179-1.612
		l0.14-0.471l0.295-0.132l0.249,0.091l0.182,0.225l0.122,0.274l0.521,0.497l0.567,0.396l0.464,0.466l0.189,0.713l-0.21,4.112
		l0.093,0.697L527.54,496.614z M437.749,482.639l-0.638-0.09l-0.228-0.11l0.192,0.525l0.057,0.32l-0.052,0.251l-0.228,0.206
		l-0.215,0.022l-0.205-0.035l-0.184,0.026l-0.949,0.708l-0.376,0.188l-0.27,0.073l-0.412,0.055l-0.21,0.071l-0.135,0.144
		l-0.166,0.401l-0.111,0.114l-0.479,0.094l-0.329-0.115l-0.257-0.32l-0.257-0.516l-0.187-0.815l-0.016-1.207l0.303-1.077
		l0.785-0.429l0.469,0.257l0.378,0.479l0.389,0.382l0.503-0.042l0.218-0.319l0.047-0.41l0.096-0.372l0.342-0.197l0.588,0.221
		l0.656,0.469l0.562,0.557L437.749,482.639z M382.999,410.263l0.14,0.124l0.01,0.093l-0.718,0.974l-0.35,0.355l-0.404,0.24
		l0.083-0.275l0.321-0.689l0.14-0.141l0.352-0.138l0.184-0.326l0.163-0.372l0.275-0.288l-0.026,0.209l-0.039,0.091l-0.06,0.055
		L382.999,410.263z M533.876,408.5l0.358,0.29l-0.124,0.668l-0.552,1.246l0.156,0.383l-0.031,0.522l-0.179,0.463l-0.29,0.197
		l-0.492,0.11l-0.223-0.018l0.189-0.509l-0.21-0.181l-0.352-0.075l-0.324,0.012v-0.221l0.327,0.012l0.109-0.012v-0.24l-0.656-0.442
		v0.241l-0.083-0.288l0.031-0.329l0.272-0.707l0.148-0.223l0.124-0.079l0.099-0.103l0.065-0.297l0.008-0.277l-0.047-0.362
		l0.039-0.222l-0.314-0.506l-0.052-0.764l0.241-0.685l0.56-0.271l0.179,0.224l0.07,0.18l-0.016,0.277l0.298-0.152l0.119-0.087
		l0.057,0.526l-0.054,0.745l0.08,0.667L533.876,408.5z M552.313,485.288l0.262,0.185l1.05,0.587l0.233,0.007l-0.171,0.609
		l-0.762,0.998l-0.176,0.583l-0.099,0.243l-0.249,0.093l-0.285,0.059l-0.233,0.145l-0.171,0.282l-0.658,1.73l-0.205,0.33
		l-1.024,0.964l-0.467,0.725l-0.251,0.881l-0.075,1.144l-0.466,0.628l-1.083,0.112l-1.239-0.235l-0.928-0.407l-0.811,0.705
		l-0.459,0.936l-0.202,0.971l-0.047,0.815l0.181,0.38l0.86,0.732l0.28,0.301l0.135,0.491l0.057,0.672l-0.073,0.591l-0.236,0.256
		l-0.98-0.369l-0.56-0.891l-0.731-2.065l-0.816-0.932l-0.948-0.474l-0.669,0.286l0.021,1.339h-0.218l-0.083-0.196l-0.35-0.462
		l-0.132,0.684l0.337,0.679l0.456,0.632l0.477,1.148l0.57,0.518l0.591,0.424l0.327,0.316l0.083,0.701l-0.415,1.311l-0.49,2.813
		l-0.06,4.72l-0.531,2.523l-0.132,2.913l-0.187,0.516l-0.461-0.117l-0.114-0.444l-0.14-1.626l-0.07-0.357l-1.091-0.755l-0.13-0.301
		l-0.008-0.379l0.039-0.399l-0.01-0.352l-0.793-1.49l-0.409-0.524l-0.161-0.653l-0.394-4.027l0.052-0.749l0.384-1.987l-0.013-0.711
		l-0.339-1.135l-0.083-0.702v-0.846l-0.114-0.373l-0.381-0.172l-0.808-0.241l-0.625-0.364l-1.234-1.736l-0.21-0.6l0.282-1.491
		l0.026-0.649l-0.373-0.688l-1.902-1.838l-0.397-0.517l-0.148-0.478l-0.225-1.316l-1.283-3.109l-0.023-1.296l0.106-0.706v-0.635
		l-0.249-0.457l-0.466-0.129l-0.169-0.046l-0.591,0.146l-1.913,1.387l-1.879,1.069l-0.352,0.321l-0.005,0.005l-0.264,0.239
		l-0.363,0.641l-0.093,0.705l0.171,2.094l-0.042,0.665l-0.111,0.307l-0.267,0.376l-0.057,0.282l-0.171,0.33l-1.13,1.095l-0.894,0.51
		l-1.073,0.261l-1.013,0.482l-0.715,1.175l-0.091,1.406l-0.127,0.702l-0.347,0.3l-1.436,1.754l-0.671,1.198l-0.466,1.396
		l-0.272,1.501l-0.088,1.516l0.096,0.545l0.435,1.25l0.101,0.634l0.257,0.308l0.521,0.209l0.404-0.188l-0.078-0.885l1.05,0.677
		l1.368,1.769l0.842,0.854l0.596-0.385l0.648,0.254l0.518,0.569l0.218,0.558l0.031,1.252l0.119,0.475l0.915,1.977l0.345,0.443
		l0.122,0.263l0.023,0.37l-0.036,0.708l0.047,0.348l0.109,0.231l0.28,0.398l1.545,4.174l0.114,0.566l0.016,0.674l-0.13,0.688
		l-0.334,0.588l-0.117,0.327l0.218,0.657l-0.101,0.337l-0.124,0.258l-0.218,0.935l-0.573,1.362l-2.317,2.818l-3.042,4.353
		l-1.996,3.472l-0.469,0.622l-0.594,0.555l-0.492,0.227l-0.518,0.027l-1.545-0.082l-0.459-0.13l-0.189-0.404l-0.073-2.533
		l-0.161-0.632l-0.218-0.479l-0.306-0.335l-0.456-0.194l-0.674-0.064l-0.171-0.109l-0.187-0.266l-0.148-0.33l-0.06-0.307
		l-0.142-0.328l-0.334-0.182l-0.365-0.111l-0.241-0.116l-0.327-0.612l0.124-0.518l0.285-0.479l0.15-0.494l0.098-0.5l0.228-0.522
		l0.523-0.845l1.229-1.494l0.446-0.938l0.088-1.285l-0.13-0.534l-0.43-1.158l-0.093-0.395l-0.303-0.274l-0.339-0.036l-0.345-0.038
		l-1.205,0.009l-0.381-0.373l-0.334-0.167l-0.353,0.102l-0.083,0.276l0.078,0.829l-0.104,0.318l-0.293,0.459l-1.052,3.096
		l-0.749,2.198l-0.625,0.736l-0.614,0.01l-1.516-0.339l-1.228,0.428l-0.793-0.172l-3.227-1.546l-0.845-0.203l-1.368-0.623
		l-0.376-0.004l-0.396,0.039l-0.35-0.016l-0.785-0.293l-2.06-1.238l-0.218,0.219l-0.977-0.446l-0.306-0.211l-0.119-0.211
		l-0.088-0.292l-0.119-0.258l-0.218-0.112l-0.565-0.122l-4.442-2.571l-1.648-0.718l-3.96-1.723l-0.542-0.336l-0.863-0.793
		l-0.389-0.602l-0.41-1.194l-0.376-0.529l-2.13-2.253l-0.827-1.181l-0.542-1.159l-0.397-1.628l-0.039-0.681l-0.205-0.669l-0.06-0.38
		l0.143-0.164l0.456-0.043l0.13-0.123l-0.029-0.202v-2.806l-0.086-0.732l-0.586-2.005l0.106-0.849l0.083-0.664l-0.101-0.66
		l-0.622-0.275l-0.088,0.071l-0.353,0.509l-0.189,0.133l-0.091-0.059l-0.057-0.125l-0.104-0.068l-0.231-0.093l-0.231-0.227
		l-0.192-0.283l-0.109-0.274l-0.01-0.355l0.192-0.591l0.054-0.268l0.062-3.407l0.435-1.614l1.304-3.194l0.689-0.69l0.549-0.151
		l0.731-0.367l1.213-0.795l1.189-0.99l0.542-0.577l0.345-0.875l0.578-0.543l0.207-0.302l0.052-0.299l-0.052-1.016l0.052-0.823
		l0.158-0.617l0.666-1.231l-0.461-0.341l-0.422-0.033l-0.995,0.174l-0.373-0.172l-0.277-0.52l-0.135-0.248l-0.303-0.174l-0.355-0.52
		l-1.503-3.21l-0.956-1.335l-1.415-0.988l-0.236-0.027l-1.723-1.271l-1.539-0.804l-0.236,0.239l-0.555-0.255l-0.736-0.129
		l-0.042-0.001l-1.387-0.054l-0.762-0.173l-0.521-0.432l-1.721-2.303l-0.632-0.443l-0.741-0.181l-0.723-0.071l-1.381-0.525
		l-0.171-0.064l-0.71-0.123l-2.037,0.123l-0.575,0.122l-0.793,0.292l-0.736,0.36l-0.389,0.326l0.114,1.122l0.871,0.871l0.707,0.981
		l-0.386,1.454l-0.275,0.329l-0.334,0.303l-0.355,0.255l-0.342,0.188l-1.13,0.212l-0.29,0.129l-0.122,0.247l-0.031,0.365
		l0.031,0.702l-0.124,0.094l-0.661-0.399l-0.301-0.033l-0.275,0.545l0.425,0.639l0.622,0.629l0.314,0.508l0.202,0.793l0.479,0.431
		l0.575,0.336l0.508,0.503l0.223,0.682l-0.029,0.728l-0.202,0.665l-0.324,0.487l-0.327,0.129l-0.368-0.114l-1-0.743l-1.021-0.48
		l-0.441-0.325l-0.923-0.991l-0.28-0.518l-0.464-0.327l-0.109-0.161v-0.706l-0.062-0.278l-0.132-0.224l-0.505-0.197l-0.656,0.073
		l-0.573,0.272l-0.246,0.392l-0.176,0.452l-0.417,0.235l-0.505,0.034l-0.42-0.163l-0.948-0.87l-0.42-0.59l-0.171-0.614l0.176-0.706
		l0.451-0.233l0.57-0.073l0.56-0.224l0.326-0.54l-0.023-0.654l-0.365-0.549l-0.7-0.233l-0.412-0.348l-0.158-0.807l-0.062-0.891
		l-0.13-0.608l-0.365-0.266l-0.34,0.303l-0.345,0.566l-0.373,0.613l-0.879,0.897l-0.218,0.392l0.039,0.326l0.101,0.326l-0.031,0.395
		l-0.132,0.146l-0.428,0.278l-0.093,0.111l0.041,0.233l0.104,0.127l0.078,0.145l-0.005,0.275l-0.176,0.57l-0.492,0.703l-0.218,0.46
		l-0.052,0.476l0.052,0.971l-0.179,0.329l-0.35,0.163l-0.179-0.099l-0.171-0.183l-0.311-0.101l-0.039-0.038l-0.731-0.182
		l-0.264-0.439l-0.482-1.235l-0.319-0.301l-0.381,0.132l-0.412,0.384l-0.339,0.451l-0.176,0.329l-0.029,0.46l0.085,0.293
		l-0.047,0.248l-0.443,0.335l-0.355,0.146l-0.451,0.082l-0.485-0.031l-0.466-0.197l0.194-0.392l-0.101-0.267l-0.202-0.132
		l-0.109,0.014l-0.062,0.084l-0.132,0.06l-0.145,0.018l-0.096-0.043l-0.039-0.184l0.078-0.162l0.114-0.101l0.065,0.008l-0.039-0.738
		l0.148-0.414l0.376-0.063l0.619,0.318l0.075-0.711l-0.254-0.47l-0.332-0.4l-0.158-0.501l-0.236-1.983l-0.199-0.541l0.249-0.429
		l0.218-0.638l0.148-0.684l0.054-0.573l-0.329-0.49l-0.762-0.039l-1.319,0.183l-0.272-0.212l-0.498-0.65l-0.337-0.237h-1.415
		l-0.28,0.072l-0.648,0.314l-0.384,0.072l-0.7,0.407l-2.713,2.112l-0.824,0.926l-1.329,1.874l-0.319,0.576l-0.008,0.388l0.575,0.133
		l0.643-0.176l0.438,0.044l-0.016,0.797l-0.202,0.444l-0.358,0.546l-0.417,0.485l-0.345,0.259l0.249-1.107l-0.013-0.209l-0.352-0.04
		l-0.365,0.29l-0.28,0.409l-0.109,0.319l-0.329,0.331l-1.467,0.87l-0.378,0.652l0.2,0.711l0.464,0.64l0.327,0.606l-0.207,0.605
		l-0.28,0.338l-0.599,0.977l-0.365,0.253l-0.337,0.023l-0.34-0.026l-0.386,0.097l-0.627,0.849l-0.464,1.458l-0.451,2.715
		l-0.075,1.489l-0.187,0.605l-1.309,1.818l-1.117,2.885l-0.409,0.788l-0.643,0.447l-0.337,0.467l-0.161,0.103l-0.731-0.031
		l-0.285-0.072l-1.555-0.569l-2.444-1.309l-0.77-0.666l-1.213-2.511l-0.036-2.667l1.135-2.492l2.291-1.992l1.068-0.502l0.254-0.176
		l0.132-0.216l0.078-0.291l-0.054-0.257l-0.272-0.111l-0.34-0.368l0.067-0.834l0.389-1.431l-0.042-1.034l0.042-0.322l0.166-0.345
		l0.409-0.572l0.078-0.277l0.083-0.768l0.244-0.461l0.399-0.306l0.56-0.32l0.378-0.29l0.56-0.528l0.28-0.509l-1.034-0.464
		l-0.062-0.56l0.334-1.179l0.021-1.382l-0.166-0.734l-0.407-0.318l-0.262-0.373l0.27-0.84l0.762-1.42l2.726-3.412l0.798-1.434
		l0.386-0.463l0.36-0.311l0.93-0.647l0.972-0.267l1.187-0.716l2.483-0.839l0.783-0.143l0.5,0.289l0.132-0.275l0.228-0.147
		l0.262,0.014l0.231,0.205l0.562-0.26l2.459-0.533l1.226-0.503l0.358-0.241l0.575-1.092l0.365-0.458l0.166,0.33l0.238,0.717
		l0.606,0.382l0.772,0.139l0.752-0.018l3.071-0.529l0.422-0.301l0.353-0.069l0.749-0.022l0.345-0.06l0.34-0.115l0.661-0.377
		l1.824-1.521l0.352-0.749l-0.412-0.579l-1.158-0.771l-0.073-0.208l-0.124-0.694v-0.196l0.166-0.175l0.58-0.346l0.119-0.038
		l0.067-0.153l0.143-0.165l0.142-0.224l0.062-0.337l-0.036-0.369l-0.166-0.671l0.005-0.377l0.225-0.571l0.715-0.948l0.148-0.589
		l0.148-0.381l0.35-0.502l0.428-0.477l0.381-0.309l0.466-0.151l2.498-0.368l1.102-0.372l0.516,0.013l0.135,0.113l0.321,0.426
		l0.202,0.142l0.321,0.051l1.876-0.165l0.549-0.299l0.41-0.422l0.49-0.746l0.101-0.22l0.443-1.503l0.257-0.328l0.482-0.128
		l0.179,0.055l0.168,0.108l0.181,0.083l0.233-0.024l0.156-0.101l0.383-0.339l0.28-0.169l-0.14-0.374l-1.016-1.178l-0.262-0.379
		l-0.054-0.321l0.223-0.123l0.446-0.102l0.435-0.018l0.197,0.134l0.181,0.031l0.803,0.469l0.505,0.385l0.34,0.102l0.376-0.031
		l0.404-0.186l0.039,1.662l0.244,0.797l0.57-0.039l0.197,0.119l0.098,0.039l0.394,0.161l0.199,0.121l0.132,0.174l0.303,0.704
		l0.308-0.32l0.049-0.307l-0.013-0.325l0.091-0.367l0.171-0.283l0.482-0.596l-0.389-0.387l0.428-0.246l0.521,0.073l-0.127,0.56
		l2.586,0.574l0.389,0.166l0.27,0.296l0.254,0.522h0.218l0.264-0.245l0.15,0.09l0.257,0.595l-0.062-0.003l0.386,1.022l0.111,0.181
		l0.187,0.453l1.337,1.646l0.521,1.106l0.409,1.378l0.27,1.451l0.104,3.895l0.492,1.862l-0.057,0.674l-0.308,0.361l-3.361,3.031
		l-0.7,0.342l-1.381,0.084l-0.562,0.289l-0.225,0.839l-0.003,0.004l-0.003,0.013l-0.034,0.326l-0.15,0.624l-0.034,0.368l0.003,0.001
		l0.044,0.046l0.137,0.14l0.008-0.003l0.391-0.156l0.378-0.262l0.127-0.118l1.151-0.653l4.227-3.369l0.404-0.13l0.671-0.13
		l0.464-0.322l0.733-0.865l0.759-0.568l0.998-0.436l1.148-0.274l3.804-0.013l1.361-0.2l1.076-0.528l0.324-0.401l0.498-0.985
		l0.389-0.483l0.14-0.326l-0.124-0.334l-0.218-0.334l-0.112-0.325l0.042-0.406l0.117-0.304l0.272-0.517l0.021-0.145l-0.044-0.33
		l0.023-0.144l0.099-0.136l0.22-0.164l0.096-0.159l0.295-0.682l0.104-0.346l0.08-1.191l0.124-0.684l0.505-1.315l0.661-1.098
		l0.91-1.054l1.104-0.854l1.236-0.511l0.809-0.034l0.194,0.33l-0.023,0.511l0.153,0.511l0.161,0.012l0.744,0.165l0.062,0.043
		l0.22,0.043l0.27,0.114l0.474,0.303l0.98,1.081l0.35,0.24l0.555,0.145l1.832,0.052l-0.288,0.587l-0.238,0.654l-0.143,0.7v0.719
		h0.218l0.233-0.845l0.397-0.567l0.632-0.194l0.93,0.286l0.137-0.22l0.516-0.438l0.117-0.052l0.428-0.119l0.109-0.048l0.016-0.204
		l-0.086-0.191l-0.104-0.157l-0.044-0.106l0.132-0.992l0.086-0.329l0.132-0.237l0.397-0.556l0.122-0.325l-0.067-0.626l-0.638-1.114
		l-0.163-0.661l0.156-0.703l0.381-0.426l0.443-0.366l0.342-0.524l-0.249-0.62l0.023-0.7l0.226-1.431v-2.749l-0.226-1.445l0.031-0.71
		l0.296-0.628l0.257-0.302l0.329-0.306l0.363-0.164l0.358,0.123l0.368,0.226l0.324-0.008l0.327-0.089l0.404-0.021l0.588,0.15
		l0.64,0.278l0.513,0.367l0.215,0.417l0.29,0.236l2.519,1.417l0.257,0.218l0.731,0.951l0.49,0.306l0.645,1.064l0.412,0.323
		l0.311-0.025l0.692-0.417l0.697-0.247l0.544-0.304l0.347-0.495l0.254-2.739l-0.124-0.618l-0.117-0.189l-0.148-0.177l-0.124-0.212
		l-0.047-0.303l0.07-0.39l0.295-0.642l0.07-0.409l0.016-0.415l0.07-0.241l0.171-0.189l0.296-0.265l0.311-0.052l0.277,0.299
		l0.399,0.764l0.941,1.277l0.619,0.488l0.733,0.197l2.068,0.096l1.376,0.315l0.676,0.038l0.669-0.154l1.734-0.992l0.316-0.331
		l0.254-0.735l0.197-1.131l0.041-3.391l-0.086-0.564l-0.194-0.352l-0.228-0.302l-0.161-0.404l-0.023-0.282l0.039-0.579l-0.016-0.28
		l-0.101-0.311l-0.28-0.62l-0.194-0.822l-0.612-1.036l-0.205-0.947l-0.14-0.249l-0.148-0.19l-0.062-0.133v-1.001l-0.034-0.172
		l-0.091-0.472l-0.692-1.829l-0.08-0.319l-0.083-0.653l-1.174-4.361l-0.039-0.593l0.093-0.582l0.212-0.526l1.55-2.556l0.119-0.327
		l0.378,0.454l0.544,0.517l0.593,0.419l1.06,0.287l0.912,0.465l0.643,0.066l-0.145,0.771l0.254,0.919l0.378,0.937l0.187,0.822
		l0.311,0.585l0.746,0.598l0.871,0.361l0.7-0.121l-0.057,0.118l-0.031,0.105l-0.047,0.11l-0.106,0.128l0.42-0.015l0.236,0.156
		l0.218,0.3l0.316,0.012l0.679-0.061l0.308,0.049l0.599,0.679l0.272,0.202l0.314,0.105l1.85,0.263l0.606,0.331l1.055,0.964
		l0.303,0.092l0.399-0.003l0.347,0.063l0.148,0.278l0.054,0.281l0.272,0.385l0.109,0.324l0.35-0.628l0.083-0.252h0.218l-0.005,0.525
		l-0.047,0.321l-0.119,0.223l-0.246,0.252l-0.355,0.165l-0.902,0.236l-0.267,0.281l-0.029,0.428l0.184,0.307l0.324,0.21l0.376,0.135
		l0.544,0.094l0.345-0.08l0.868-0.436l-0.062,1.288l0.148,1.072l0.482,0.994l1.472,1.544l0.238,0.137l0.332,0.074l0.423-0.045
		l0.661-0.333l1.068-0.329l1.146-1.154l0.656-0.362l0.635,0.089l0.15,0.474l-0.166,0.605l-0.606,1.019l-0.223,0.782l-0.244,1.437
		v1.08l-0.215,1.462l0.148,0.371l0.347,0.13l0.399,0.043l0.319,0.117l0.189,0.277l0.34,0.791l0.21,0.352l2.309,2.329l0.303,0.673
		l0.041,0.42l0.394,1.221l-0.13,0.466l0.016,0.289l0.417,0.252l-0.075,0.262l-0.155,0.241l-0.073,0.05l-0.228,0.753l-0.378,0.797
		l-0.536,0.635l-0.697,0.257l-1.208,0.814l-0.194,0.046v0.465l0.246,0.277l0.625,0.377v0.199l-0.124,0.071l-0.018,0.026
		l-0.005,0.037l-0.073,0.108l-0.394-0.155l-0.337-0.071l-0.689-0.016l-0.389,0.142l-0.767,0.619l-1.122,0.485l-0.622,0.756
		l-0.267,0.755l0.632,0.664l0.567,1.475l0.327,0.422l0.28,0.031l1.042-0.031l0.625,0.189l0.293,0.008l0.365-0.197l-0.622-0.414
		l-0.207-0.252l0.2-0.233l0.36,0.021l0.415,0.178l0.404,0.079l0.345-0.278l0.739,0.35l2.084,0.33l-0.023-0.062l0.093-0.1
		l0.169-0.079h0.181l-0.01,0.094l0.109,0.259l0.236,0.424l0.651,0.498l0.135,0.308l-0.233,0.434l0.13,0.092l0.155,0.19l0.15,0.138
		l-0.847-0.039l-0.339,0.09l-0.135,0.289l-0.104,0.756l0.104,0.143l0.435-0.139l0.124,0.534l-0.244,0.637l-0.736,1.026l-0.148,0.043
		l-0.376,0.232l-0.254,0.261l0.225,0.124l0.117,0.164l0.435,0.843l0.257,0.223l0.474,0.094l0.272,0.295l-0.345,0.817l-1.011,1.163
		l-0.231,0.541l0.249,0.614l0.482,0.268l0.51-0.143l0.5-0.287l0.956-0.338l1.146-0.939l0.119,0.33l-0.184,2.741l-0.106,0.495
		l0.044,0.459l0.345,0.628l-0.741,0.453l-0.363,1.153l0.088,1.276l0.601,0.83l-0.583,0.589l-1.252,0.916l-0.373,0.712l-0.01,0.374
		l-0.013,0.446l0.264,0.88l0.469,0.806l0.612,0.586l0.943,0.569l0.14,0.18l0.13,0.341l0.767,1.104l0.749,0.45l1.633,0.167
		l0.656,0.26l-0.228,0.718l-0.124,0.711l-0.083,1.561l0.14,0.735l0.612,1.594l0.259,1.525l0.202,0.682l0.044,0.638l-0.36,0.651
		l-0.371,0.248l-0.35,0.139l-0.264,0.225l-0.109,0.503l0.119,0.118l0.731,0.541l-0.244,0.721l-0.042,1.521L552.313,485.288z
		 M511.739,399.292l0.353,1.073l-0.039,0.15l-0.272,0.114l-0.161,0.229l-0.197,0.17l-0.358-0.071l-0.207-0.174l-0.073-0.207
		l-0.041-0.237l-0.114-0.267l-0.762-0.901l-1.197-1.988l-1.081-0.651l-0.606-0.476l-0.264-0.519l-0.371-1.394l-0.041-0.711
		l0.412-0.444l0.371-0.014l0.298,0.174l0.542,0.488l1.306,0.513l0.407,0.274l0.319,0.558l0.451,2.202l0.306,0.41l0.448,0.462
		l0.396,0.555L511.739,399.292z M482.589,375.964l0.176,0.375l0.099,0.409l0.052,0.837l-0.368,0.421l-2.478,1.239l-0.518-0.446
		l0.143-0.424l0.391-0.461l0.223-0.559l0.047-0.451l0.132-0.501l0.194-0.472l0.249-0.377l0.425-0.253l0.461,0.038l0.435,0.245
		L482.589,375.964z M485.331,375.241l1.213,0.658l0.534,0.893l-0.378,0.785l-1.477,0.34l-1.695-0.558l-0.023-1.152l0.863-0.965
		H485.331z M528.519,374.558l0.311,0.472l-0.155,0.363l-0.423,0.229l-0.487,0.08l-0.591,0.007l-0.332-0.04l-0.254-0.167
		l-0.355-0.383l-0.326-0.229l-1.182-0.535l-0.599-0.383l-0.163-0.847l0.264-0.852l0.697-0.406l0.71,0.313l0.404,1.611l0.521,0.565
		l0.5,0.066l1.024-0.049L528.519,374.558z M331.398,363.687l0.246,0.393l0.181,0.444l0.101,0.47l-0.023,0.465h-0.212l-0.176-0.137
		l-0.213,0.021l-0.244,0.137l-0.264,0.201l-0.145-0.523l-0.371-0.33l-0.373-0.21l-0.174-0.155l-0.098-1.236l0.098-0.448l1.293,0.539
		L331.398,363.687z M330.794,359.456l0.487,0.328l0.124,0.277l-0.148,0.279l-0.568,0.53l-0.648,0.485l-0.197,0.096l-0.422-0.18
		l-0.093-0.412l0.078-0.444l0.106-0.273l0.083,0.025l0.57-0.267l0.135-0.137l0.085-0.14l0.127-0.114L330.794,359.456z
		 M489.591,347.66l0.695,0.308l0.114,0.689l-0.288,1.121l-0.218,0.378l-0.531,0.16l-1.913-0.03l-0.806-0.204l-0.661,0.02
		l-0.088,0.278l-0.122,0.163l-0.225,0.024l-0.176-0.123l-0.109-0.2l-0.073-0.205l-0.083-0.139l-1.083-1.131l-0.368-0.559
		l-0.853-2.212l-0.187-0.722l-0.132-0.299l-0.684-0.823l-0.187-0.288l0.622,0.037l1.57-0.479l0.412-0.045l1.215,0.073l0.853-0.064
		l0.303,0.056l0.568,0.221l0.588,0.36l0.456,0.487l0.355,1.138l0.78,1.661L489.591,347.66z M496.456,345.421l0.21,0.351l0.218,0.262
		l0.326,0.181l0.552,0.095l-0.127,0.341l-0.067,0.348l-0.023,0.763l-0.106,0.373l-0.228,0.284l-0.233,0.12l-0.754-0.88l0.065-0.112
		l-0.036-0.341l-0.215-0.167l-0.451,0.398l-0.454-1.128l0.228,0.087l0.226,0.135l-0.078-0.528l-0.298-0.504l-0.417-0.374
		l-0.42-0.148l-0.293-0.153l-0.14-0.36l-0.088-0.41l-0.132-0.296l-0.218-0.32l0.008-0.27l0.319-0.652h0.218l0.044,0.062l0.329,0.352
		l1.07,0.656l0.145,0.124l0.114,0.147l0.057,0.184l0.047,0.225l0.091,0.188l0.466,0.217l0.091,0.302L496.456,345.421z
		 M416.27,122.001l0.635,0.888l0.249,1.369l-0.153,1.478l-0.42,1.384l-0.586,1.109l-0.824,1.076l-0.508,0.475l-1.052,0.736
		l-1.073,0.979l-0.181,0.244l-0.145,0.435l-0.021,0.414l0.088,0.292l0.117,0.253l0.054,0.29v1.144l0.187,1.09l0.01,0.406
		l-1.379,6.227l-0.008,0.347l0.106,0.757l-0.029,0.275l-0.2,0.427l-0.01,0.234l0.13,0.242l0.425,0.486l0.099,0.287l0.01,2.929
		l0.202,0.867l0.985,2.476l0.104,0.821l0.285,0.645l0.586,0.781l0.482,0.837l-0.026,0.823l0.155,0.369l0.086,0.54l0.153,0.492
		l0.368,0.215l0.119-0.054l0.161-0.109l0.218-0.087l0.28,0.022l0.581,0.547l0.267,0.137l0.391-0.027l0.855-0.342l0.399-0.087
		l0.516,0.212l0.272,1.018l0.396,0.364l-0.153-0.771l0.534,0.334l0.664,0.889l0.262,0.894l-0.588-0.464l-0.345-0.137l-0.155,0.281
		l0.07,0.493l0.295,0.938l0.07,0.391l-0.08,0.491l-0.324,1.012l-0.031,0.453l0.236,0.537l0.783,0.594l0.306,0.461l0.109-0.152
		l0.207-0.159l0.119-0.145l0.503,0.145l0.311-0.313l0.342-0.23l0.583,0.399l0.314,0.607l-0.003,0.636l-0.241,0.617l-0.404,0.538
		l-0.155,0.31l-0.109,0.413l-0.14,0.362l-0.249,0.157l-0.15,0.163l-0.34,0.798l-0.42,2.586l0.158,0.563l-0.5,1.002l-0.837,2.35
		l-1.57,2.688l-0.267,0.944l-0.622,1.416l-0.225,0.373l-0.42,0.503l-0.798,1.683l-0.438,0.62l-1.057,0.892l-0.272,0.312
		l-0.187,0.216l-0.145,0.297l-0.065,0.285l-0.008,0.665l-0.088,0.162l-0.565,0.405l-0.228,0.486l0.034,0.361l0.391,0.967
		l0.207-0.457l0.031-0.224h0.218l-0.223,1.145l-1.052,2.104l0.166,0.852l0.555-0.51l0.555-0.397l-0.104,0.478l-0.79,1.354
		l-0.016,0.211l0.062,0.497l-0.047,0.198l-0.163,0.093l-0.518,0.057l-0.166,0.057l-0.886,1.152l-1.089,0.884l-0.995,1.046
		l-0.114,0.067l-0.109,0.086l-0.109,0.181l-0.057,0.263l0.021,0.258l0.036,0.22v0.166l-0.456,0.734l-1.374,0.873l-0.581,0.675
		l-0.197-0.247l0.632-0.902l0.321-0.603l0.135-0.655l0.241-0.445l1.516-1.036l0.207-0.533l0.166-0.758l0.28-0.677l0.987-0.588
		l0.264-0.617l-0.179-0.552l-0.876-0.103l-0.648,0.282l-0.319,0.466l-0.109,0.572l-0.013,0.606l-0.212,0.518l-0.521,0.308
		l-1.221,0.397l-1.83,0.986l-0.464,0.147l-1.153,0.162l-1.14,0.312l-0.389,0.302l-0.378,0.375l-0.451,0.318l-0.954,0.237l-0.368,0.2
		l-0.342,0.133l-0.259-0.085l-0.27-0.14l-0.28,0.103l-2.161,1.847l-0.181,0.345l-1.161,1.362l-1.56,0.819l-0.492,0.424l-0.332,0.542
		l-0.233,0.679l-0.226,1.4l0.06,0.795l0.503,1.164l0.124,0.642l0.339,0.295l0.746,0.078l0.739,0.201l0.332,0.666l-0.181,0.477
		l-1.34,1.579l0.529,0.121l0.277,0.12l0.298,0.21l-1.215,0.684l-0.549,0.436l-0.228,0.562l-0.161,0.624l-0.399,0.495l-1.7,1.453
		l-0.257,0.398l-0.264,2.122l-0.202,0.612l-0.28,0.534l-1.205,1.578l-0.555-0.132l-0.355-0.164l-0.249,0.16l-0.264,0.832
		l-0.078,1.47l0.381,1.384l0.72,1.143l0.951,0.737l0.79,0.435l0.415,0.449l0.194,0.634l0.656,3.315l0.228,0.368l0.399,0.36
		l1.026,1.685l0.207,0.555l0.13,0.884l0.355,0.868l0.495,0.818l0.562,0.724l-0.171,0.097l-0.319,0.261l-0.163,0.092l1.314,1.568
		l0.207,0.354l0.244,0.286l1.998,1.575l0.391,0.447l0.036,0.35l-0.596,0.143l-1.161,0.048l-0.692,0.126l-0.638,0.253l-0.485,0.426
		l-0.187,0.514l0.003,1.451l0.08,0.579l1.164,3.96l0.132,1.188l0.353,1.274l0.246,0.535l0.389,0.515l1.353,1.3l0.314,0.566
		l0.044,0.453l-0.142,1.133l0.135,0.239l0.599,0.571l0.137,0.302l-0.057,0.524l-0.161,0.489l-0.27,0.404l-0.383,0.275v0.225
		l0.422,0.363l1.12,1.674l2.154,1.57l2.216,2.26l0.606,0.47l4.828,1.883l4.587,1.029l0.039-0.873l-0.355-0.625l-1.228-1.21
		l0.604-0.184l2.895,0.802l0.166-0.08l0.052-0.427l-0.119-0.564l0.109-0.158l0.443-0.083v-0.204l-0.731-0.223l-1.236-1.464
		l-0.529-0.35l-0.85-0.305l-0.715-0.752l-0.511-0.955l-0.231-0.925l0.327,0.249l0.075,0.14l0.054,0.305h0.197l0.021-0.762
		l0.365-0.457l1.158-0.593l0.397,0.191l0.101-0.551l0.008-0.767l0.124-0.465l0.381,0.096l0.093,0.65l-0.083,0.786l-0.15,0.508
		l0.241,0.307l0.065,0.379l0.021,0.429l0.104,0.453l-0.042,0.124l0.055,0.136l0.205,0.208l0.15,0.009l0.135-0.142l0.101-0.193
		l0.049-0.144l0.166,0.365l0.057,0.386l-0.005,0.839l0.591-0.263l0.518-0.433l0.342-0.595l0.072-0.748l-0.119-0.212l-0.451-0.656
		l-0.083-0.251l0.122-0.396l0.202-0.241l0.202,0.021l0.127,0.39h0.239l0.039-0.315l-0.031-0.249l-0.093-0.193l-0.153-0.14
		l0.604,0.007l0.314-0.208l-0.003-0.366l-0.36-0.452l0.026-0.265l0.482-1.046l0.241-0.382l0.179,0.441l0.29-0.128l0.28-0.448
		l0.122-0.518l0.474,0.221l0.428-0.217l0.412-0.393l0.428-0.305l0.389-0.025l0.365,0.174l0.785,0.546l-0.14-0.168l-0.314-0.526
		l0.726-0.092l1.513,0.638l0.824,0.148l-0.075,0.445l0.184,0.328l0.29,0.051l0.272-0.377l0.106,0.481l0.285,0.345l0.308,0.043
		l0.171-0.42l0.902,0.094l0.404,0.112l-0.521-0.817l-0.093-0.766l0.27-0.365l0.562,0.397l0.215-0.245l0.236,0.538l0.319,0.453
		l0.428,0.072l0.56-0.614l0.153,0.21l0.166,0.147l0.197,0.084l0.495,0.06l0.031,0.092l-0.031,0.135l0.078,0.169l0.5,0.583
		l0.231,0.091l0.474,0.019l0.91,0.174l0.638,0.439l0.964,1.183l0.031,0.17l-0.039,0.225l-0.008,0.195l0.124,0.084l0.412,0.017
		l0.163,0.067l0.184,0.14l0.749,1.119l0.355,0.281l1.184,1.326l0.303,0.433l0.303-0.187l0.35,0.118l0.303,0.321l0.148,0.422
		l-0.093,0.506l-0.241,0.405l-0.187,0.46l0.086,0.666l0.653,0.673l0.777,0.477l0.109-0.028l0.085,0.482l-0.085,1.513l0.218,0.877
		l-0.021,0.262l-0.181,0.296l-0.225,0.091l-0.233,0.068l-0.225,0.217l-0.148,0.382l-0.225,1.291l-0.062,0.364l0.093,1.149
		l0.536,0.647l0.702,0.474l0.622,0.64h0.244l0.663-0.351l0.77-0.041l1.713,0.168l0.327-0.072l0.977-0.399l0.35-0.2l1.12-1.313
		l0.181-0.387l0.067-0.219l0.114-0.203l0.057-0.211l-0.212-0.419l-0.371-1.197l-0.5-0.722l-0.021-0.479l1.057-0.776l0.135-0.142
		l0.249-0.184l0.187-0.438l0.109-0.519l0.021-0.426l-0.337,0.35l-0.394,1.007l-0.27,0.211l-0.446-0.005l-0.301-0.051l-1.464-0.909
		l-0.371-0.394l-0.155-0.556l0.306-0.252l0.56-0.208l0.285-0.228l-0.492-0.309l0.645-0.264l0.086-0.365l-0.301-0.847l0.293-0.158
		l0.656,0.211l1.026,0.505v-0.203l-0.127-0.098l-0.303-0.37l0.917,0.04l0.187-0.04l-0.005-0.238l-0.259-0.566l0.148-0.115
		l0.422,0.191l0.262,0.469l0.283,1.176l-0.534,0.134l-0.106,0.386l0.14,0.377l0.187,0.103l0.568-0.548l0.272-0.172l0.365-0.073
		l-0.161,0.211l-0.295,0.684l0.332-0.132l0.124-0.072l0.194,0.204l-0.124,0.598l0.619,0.905l-0.254,0.511l0.218,0.303l0.145,0.33
		l0.067,0.359v0.394h0.218l0.168-0.425l0.249-0.32l0.205-0.401l0.031-0.666l0.638,0.171l0.417,0.195l0.272,0.344l0.197,0.633
		l1.475-0.139l2.356,0.912l2.185,0.41l0.964-1.631l0.713,1.223l0.995,1.076l1.234,0.875l2.301,0.994l0.083,0.112l0.036,0.104
		l0.093,0.096l0.391,0.121l0.77,0.011l0.381,0.112l0.202,0.208l0.451,0.931l0.536,0.51l0.124,0.352l-0.228,0.48l-0.539-0.443
		l-0.187-0.209l-0.166-0.264h-0.194l-0.047,0.137l-0.171,0.311l-0.466-0.231l-0.552-0.133l-1.057-0.084l-0.29,0.28l-0.446,0.616
		l-0.57,0.616l-0.669,0.279l-0.575-0.136l-1.158-0.6l-1.744-0.271l-0.684,0.012l-0.308,0.221l-0.288,0.263l-0.669-0.239
		l-0.736-0.395l-0.5-0.199l-0.562,0.196l-0.332,0.438l-1.005,2.715l-0.06,0.68l0.267,0.068l0.124,0.097l-0.073,0.191l-0.083,0.148
		l-0.026,0.165l0.008,0.357l0.091,0.373l0.212,0.1l0.28-0.111l0.288-0.249l1.044,1.369l0.15,0.192l0.228,0.227l1.967,1.018
		l0.407,0.512l0.79,1.399l0.14,0.121l0.422,0.273l0.091,0.173l-0.003,0.354l0.034,0.269l0.163,0.927l0.381,0.727l0.505,0.538
		l0.568,0.213l0.557,0.293l0.352,0.698l0.505,1.446l0.124-0.564l0.342,0.133l0.381,0.465l0.238,0.433l-2.112-0.122l-0.692,0.265
		l-0.259,0.863l-0.083,0.555l-0.148,0.436l-0.086,0.422l0.117,0.504l0.542,0.933l-0.067,0.4l-0.71,0.21v0.243l0.135,0.23
		l-0.005,0.162l-0.13,0.278l0.679,0.353l0.264,0.085l0.381-0.013l0.329-0.13l0.479-0.426l0.171-0.092l1.195-1.563l0.174-0.297
		l0.124-0.278l0.189-0.213l0.383-0.104l0.368,0.084l0.342,0.472l0.288,0.112l0.319,0.019l0.233,0.077l0.145,0.168l0.042,0.294
		l0.194,0.023l1.132,0.313l0.42,0.22l0.503,0.379l0.42,0.439l0.181,0.403l1.405,1.248l0.332,0.215l0.311-0.302l0.669-1.365
		l0.124-0.455l0.334-0.14l0.739,0.189l0.741,0.306l0.363,0.203l0.117,0.581l-0.078,0.612l-0.264,0.354l-0.404-0.207l-0.376,0.492
		l-0.207,0.371l-0.306,0.921l-0.575,1.185l-0.083,0.295l0.104,0.51l0.451,0.73l0.293,2.093l0.008,0.558l-0.435,3.922l-0.202,0.486
		l-0.902,0.612l-0.202,0.481l0.099,0.552l0.15,0.335l-0.036,0.26l-0.43,0.324l0.161,0.207l0.275,0.663l-0.378,0.12l-0.529,0.39
		l-0.376,0.137l-0.404,0.046l-1.024-0.046l-0.858-0.311l-0.739-0.722l-0.91-1.397l0.062-0.343l-0.109-0.048l-0.22,0.085
		l-0.277,0.064l-0.482-0.547l-0.656-0.304l-0.27-0.494l-0.228-0.623l-0.651-1.201l0.016-0.639l0.132-0.654l0.052-0.666l-0.215-0.817
		l-0.389-0.352l-0.531-0.218l-0.622-0.417l0.811-0.013l0.625-0.243l0.461-0.451l0.314-0.63l0.345,0.178l0.513,0.529l0.231,0.183
		l0.303,0.114l0.176-0.013l0.181-0.062l0.319-0.039l0.397-0.104l0.099-0.257l0.01-0.326l0.148-0.306l0.329-0.149l0.342,0.064
		l0.301,0.133l0.223,0.053l0.523-0.239l0.49-0.46l0.365-0.588l0.145-0.609l-0.277-0.814l-0.645-0.197l-1.472,0.23l-0.565-0.097
		l-0.98-0.465l-0.534-0.108l-0.376,0.271l-0.246,0.621l-0.171,0.675l-0.174,0.441l-0.754,0.822l-0.521,0.364l-0.754,0.189
		l-0.296,0.168l-0.194,0.039l-0.179-0.07l-0.29-0.306l-0.192-0.07l-0.156,0.121l-0.342,0.569l-0.275,0.183l-0.114,0.051
		l-0.179,0.133l-0.14,0.037l-0.168-0.456l-0.267-0.435l0.35-0.13l0.275-0.226l0.044-0.215l-0.334-0.098l-0.824,0.044l-0.197,0.092
		l0.15,0.194l0.086,0.257l0.016,0.327l-0.661-0.629l0.295-0.694l0.534-0.711l-0.161-0.121l-0.233,0.101l-0.327,0.027l-0.389,0.093
		l-0.161,0.229l-0.065,0.287l-0.14,0.263l-0.233,0.326l-0.023,0.132l-0.093,0.02l-0.43-0.012l-0.534-0.112l-0.337-0.112l-0.215-0.12
		l-0.868-1.026l-0.384-0.324l-0.617-0.332l-0.332-0.117l-0.264-0.059l-0.254-0.106l-0.316-0.266l-0.479-0.678l-0.635-0.34
		l-0.57-1.088l-0.285-0.247l-0.715-0.078l-0.534-0.132l-0.542-0.027l-0.728,0.237l-1.011,0.583l-0.648,0.218l-0.296-0.242
		l-0.148-0.533l-0.264-0.597l-0.109-0.561l0.303-0.43l-0.477-1.161l0.834-2.566l-0.14-1.206l-0.521-0.592l-1.182-0.837l-0.49-0.6
		l-0.132-0.286l-0.171-0.514l-0.137-0.296l-0.866-0.916l0.194-0.9l-0.296-1.111l-0.604-0.941l-0.718-0.398l-0.902-0.246
		l-1.679-1.077l-0.91-0.244l-0.539-0.071l-0.721-0.305l-0.49-0.072l-0.308-0.152l-0.772-0.736l-1.982-1.42l-0.404-0.172
		l-0.435-0.247l-0.961-1.168l-0.453-0.395l1.524-1.343l-1.555-1.759l-0.777-0.659l-0.972-0.494v0.206l-0.194-0.206l0.194-0.221
		l0.404-0.02l-0.148-0.281l-0.438-0.359l-0.448-0.256l-1.244-0.247l-0.295-0.202l-0.381,0.367l-0.412,0.043l-0.402-0.216
		l-0.329-0.418l0.065-0.137l0.218-0.167l0.155-0.204l-0.114-0.264l-0.964-0.972l-0.394-0.24l-0.428-0.17l-0.396-0.064l-0.132-0.224
		l-0.086-0.432l-0.176-0.282l-0.376,0.226l-0.14-0.319l-0.412-0.482l-0.086-0.196l-0.109-0.084l-0.669,0.877l-1.796-0.115
		l-0.783-0.266l-0.593-0.514l-0.101,0.446l0.241,0.518l0.42,0.425l0.428,0.179l0.114,0.252l1.557,2.244l0.314,0.583l-0.026,0.402
		l-0.194,0.479l0.039,0.696l0.272,1.185l-0.697-0.159l-0.161,0.623l0.187,1.46l0.197,0.82l0.49,0.708l1.179,1.156l2.286,1.39
		l0.454,0.512l-0.117,0.537l-0.726-0.369l-1.35-1.045l0.184,0.518l0.827,1.302l1.399,1.66l0.366,0.562l0.285,0.653l0.301,1.348
		l0.137,1.223v1.341l0.06,0.363l0.13,0.248l0.15,0.202l0.096,0.213l0.06,0.682l-0.01,0.391l-0.049,0.266l-0.174,0.112l-0.301,0.102
		l-0.275,0.132l-0.124,0.212l-0.321,0.347l-0.733,0.423l-0.806,0.343l-0.531,0.116l-0.547-0.345l-2.099-1.788l0.08-0.663
		l0.334-1.158l0.039-0.515l-0.578-1.88l-3.138-4.194l-0.075-0.22l-0.057-0.424l-0.104-0.232l-0.612-0.588l-0.207-0.293l-0.897-0.37
		l-0.202-0.445l-0.508-0.574l-1.926,0.007l0.023-0.459l-0.565-0.195l-1.083-0.077l-0.43-0.277l-0.129-0.271l-0.114-0.556
		l-0.189-0.292l-0.262-0.32l-1.713-2.8l-0.806-0.934l-1.057-0.789l-0.197,0.639l-0.472-0.147l-0.539-0.443l-0.42-0.254l-0.617,0.027
		l-0.114-0.067l-1.146-1.065l-0.41-0.237l-0.389-0.117l-0.358-0.057l-0.337-0.112l-0.658-0.573l-0.365-0.254l-0.358-0.183
		l-1.034-0.276l-0.451-0.499l-0.358-0.596L400,269.771l-0.264-0.012l-1.202-0.422l-0.49-0.238l-0.205,0.454l-0.555,0.346
		l-0.111,0.442l-0.241,0.175l-1.519,0.397l-0.171,0.14l-0.482,0.53l-0.275,0.013l-0.547-0.143l-0.155,0.02l-0.42,0.288l-0.91,0.323
		l-0.599,0.432l-0.231,0.102l-0.236,0.061l-0.536,0.031l-0.148,0.032l-0.311,0.207l-0.956,1.068l-0.674,0.75l0.233,2.295
		l-0.142,0.832l0.303,0.003l0.207,0.048l0.376,0.153l-0.948,1.023l-0.137,0.217l-1.311-0.321l-0.448-0.024l-0.609,0.339
		l-1.832,1.384l-0.614,0.651l-0.487-0.164l-0.456-0.281l-0.135-0.119l-0.866-0.36l-0.42-0.081l-0.57-0.027l-0.277-0.084l-0.272-0.18
		l-0.342-0.16l-0.513-0.024l-1.034,0.237l-0.498,0.199l-0.448,0.256l-0.316-0.112l-0.731-0.156l-0.275-0.18l-0.158-0.297
		l0.109-0.173l0.187-0.192l0.101-0.353l0.078-0.804l0.124-0.576l0.023-0.532l-0.435-1.199l-0.124-0.128l-0.625-0.416l-0.399-0.184
		l-0.407-0.089l-0.319,0.104l-2.48,2.869l-0.257,0.163l-0.241-0.181l-0.163-0.384l-0.052-0.382l0.137-0.172l0.262-0.169l0.158-0.379
		l0.117-0.379l0.124-0.171l0.412-0.047l0.233-0.152l0.093-0.281l0.003-0.438l-0.523-0.539l-0.109-0.151l-0.016-0.376l0.166-0.697
		l0.047-0.372l-0.016-0.533l-0.08-0.553l-0.194-0.482l-0.358-0.327l-0.583-0.191l-2.861-0.363l-1.303-0.343l-0.71-0.02l-0.599,0.228
		l-0.236,0.445l0.111,0.582l0.428,0.649l0.272,0.687l-0.622,0.121l-1.309-0.248l-0.308,0.451l0.117,0.604l0.275,0.671l0.153,0.646
		l-0.199,0.379l-0.438-0.291l-0.687-0.873l-0.254-1.173l-0.055-2.788l-0.544-1.231l0.495-0.083l0.384-0.315l0.187-0.339l-0.098-0.16
		l-0.376-0.211l-0.078-0.491l0.14-1.926l-0.075-0.909l-0.373-0.679l-0.873-0.266v-0.245l0.49-0.246l0.054-0.295l-0.272-0.303
		l-0.49-0.275l0.303,0.003l0.21-0.051l0.373-0.176v-0.224l-0.448-0.396l0.277-0.581l0.526-0.627l0.28-0.537l0.197-0.532l0.505-0.246
		l1.275-0.222l0.454-0.186l0.495-0.297l0.389-0.362l0.163-0.388l0.163-0.193l0.777-0.326l0.264-0.166l0.676-1.089l2.814-2.748
		l0.259-0.115l0.363-0.024l0.692,0.038l0.22-0.088l0.549-0.606l0.861-0.618l0.316-0.446l0.13-0.61l-0.135-0.771l-0.679-1.13
		l-0.275-0.691l-0.225-1.341l-0.21-0.458l-0.943-1.294l-0.145-0.402l-0.257-0.202l-1.5-0.614l-0.104-0.177l-0.016-0.217
		l-0.091-0.182l-0.334-0.079l-3.136-0.1l-1.972-0.35l-0.187-0.055l-0.257-0.075l-0.435-0.19l-0.319-0.279l-0.127-0.402l0.026-1.131
		l-0.054-0.55l-0.189-0.467l-0.044,1.067l0.044,0.284l-0.093,0.117l-0.342,0.331l-0.119-0.22l-0.093-0.023l-0.223,0.243l0.376-2.193
		l-0.14-0.527l-0.498-0.066l-0.267,0.637l-0.122,1.473l-0.661-0.367l-0.241,0.43l0.008,0.322l0.023,1.293l-0.308,2.128l0.091,0.671
		l1.244,1.429l0.122,0.367l-0.169,0.372l-0.062,0.503l0.604,2.334l0.127,1.484l-0.303,1.27l-0.757,0.847l-1.223,0.217l-0.298-0.084
		l-0.225-0.119l-0.241-0.078l-0.342,0.036l-0.096,0.137l-0.052,0.237l-0.171,0.222l-0.459,0.096l-0.122-0.106l-0.088-0.24
		l-0.145-0.238l-1.456-0.436l-0.257-0.122l-0.64-0.807l-0.166-0.918l0.153-1.971l-0.117-1.117l-0.337-0.616l-1.304-0.881
		l-0.358,0.205l-0.327,0.024l-0.257-0.141l-0.148-0.293h-0.218l-1.026-1.477l-0.345-1.021l0.591-0.464l0.373-0.11l-0.238-0.248
		l-0.676-0.41l0.109-0.363l0.257-0.296l0.295-0.267l0.225-0.289l0.189,0.04l0.181-0.131l0.158-0.265l0.124-0.359l-0.526-0.048
		l-0.254-0.079l-0.109-0.192l-0.031-0.37l-0.114-0.162l-0.228-0.036l-0.378,0.008l-0.332-0.245l-0.321-0.446l-0.347-0.22
		l-0.422,0.441l0.171,0.776l-0.137,1.155l-0.314,1.088l-0.373,0.579l-0.438,0.032l-0.581-0.131l-0.503-0.218l-0.218-0.225
		l-0.166-0.382l-0.816-0.292l-0.324-0.316l0.264-0.115l0.166-0.145l0.111-0.19l0.111-0.265l-0.143,0.072l-0.511,0.172l-0.741-2.471
		l-0.218-1.251l0.223-2.998l-0.122-1.328l-1.112-4.74l-0.311-0.309l-0.187-0.138l-0.016-0.322l0.093-0.573l0.008-0.747l-0.124-0.263
		l-0.656-1.003l-0.534-1.096l-0.334-0.508l-1.796-1.79l-0.28-0.609l0.086-0.278l0.464-0.308l0.104-0.183l-0.016-0.308l-0.039-0.233
		l-0.163-0.473l0.599,0.379l0.645-0.141l0.521-0.518l0.21-0.757l-0.057-0.23l-0.153-0.25l-0.179-0.204l-0.163-0.083l-0.078-0.164
		l-0.075-0.366l-0.14-0.395l-0.259-0.245l-0.047,0.143l-0.171,0.328l-0.575-1.267l-0.078-0.436l0.086-0.365l0.417-0.865l0.15-0.452
		l-0.086-0.966l-0.547-0.474l-0.674-0.432l-0.451-0.839l0.708-0.164l0.148-0.525l-0.187-1.384l0.114-0.571l0.142-0.48l0.075-0.52
		l-0.114-0.69l-0.513-1.349l-0.373-0.671l-0.42-0.469l-0.819-0.217l-0.503,0.458l-0.394,0.504l-0.477-0.066l-0.098,0.128
		l-0.358,0.325l-0.477-0.98l0.062-3.791l0.078-0.55l0.466-1.405l0.109-0.658l-0.101-0.299l-0.451-0.502l-0.101-0.34l-0.067-1.034
		l0.067-0.44l0.581-2.124l0.187-1.377l0.283-0.651l0.355-0.531l0.337-0.32l0.145-0.027l0.36,0.057l0.143-0.03l0.534-0.378
		l0.14-0.076l0.518-0.141l0.679-0.065l0.788,0.216l0.301,0.527v0.659l-0.762,3.129l0.412,0.275l1.446,0.367l0.319,0.162l0.192,0.275
		l0.92,0.989l0.319,0.217l0.707-0.016l0.404,0.05l0.365,0.26l0.586,0.613l0.249-0.089l0.109,0.124l0.295,2.112l0.166,0.666
		l0.43,0.461l0.627,0.318l1.48,0.422l0.739,0.024l0.679-0.154l0.573-0.371l0.314-0.123l1.102-0.113l0.459,0.363l-0.241,0.903
		l0.391-0.321l0.363-0.712l0.352-0.345l0.223,0.136l0.373,0.072l0.342-0.092l0.13-0.342l-0.202-0.244l-0.409,0.096l-0.43,0.167
		l-0.262-0.019l0.093-0.453l1.143-0.968l0.285-0.502l0.14-0.34l0.609-0.661l0.14-0.379v-1.336l-0.148-0.771l-0.381-0.761
		l-1.011-1.319v0.676l-0.163-0.273l-0.21-0.201l-0.184-0.219l-0.767-5.444l-0.417-1.249l0.241-1.7l-0.28-0.795l-0.435-0.799
		l-0.257-0.629l0.296-0.292v0.127l0.096,0.076l0.218,0.028l0.363-0.007v-0.225l-0.166-0.417l0.034-0.723l0.171-0.755l0.575-1.161
		l-0.08-0.706l-0.231-0.731l-0.127-0.731l0.047-0.727l0.067-0.321l0.122-0.334l0.218-0.387l0.225-0.2l0.257-0.165l0.288-0.279
		l2.441-3.714l0.218-0.673l0.07-0.862l-0.635-5.709l-0.067-0.166l-0.316-0.467l-0.07-0.279l0.031-0.498l0.295-1.433l-0.132-1.938
		l0.101-0.187l0.575-0.642l0.257-0.376l0.135-0.305l0.052-0.304l0.01-0.38l-0.27-1.145l-1.068-2.478l0.013-0.73l-1.407-0.38
		l-0.544-0.284l-0.223-0.588l0.617-4.068l0.329-0.302l0.676-0.099l0.56-0.229l0.321-0.531l0.135-0.608l-0.01-0.46l-0.259-0.509
		l-0.353-0.359l-0.187-0.358l0.236-0.498l0.762-0.911l0.168-0.487l0.049-0.76l-0.132-1.391l0.083-0.477l0.757-1.079l0.669-1.43
		l0.145-0.443l0.034-0.568l-0.047-0.732l-0.122-0.691l-0.189-0.431l0.096-0.465l1.788-3.789l-0.088,0.052l-0.101-0.117l-0.075-0.203
		l0.005-0.188l0.088-0.064l0.15-0.055l0.14-0.076l0.062-0.128l0.135-0.418l0.954-1.757l0.415-1.104l0.225-1.32l-0.039-1.375
		l-0.365-1.262l-0.373-0.893l-0.031-0.574l0.298-0.504l0.648-0.685l0.656-0.551l0.51-0.098l1.355,0.305l0.669-0.067l1.423-0.5
		l0.601-0.122l0.529-0.287l0.153-0.668l0.008-0.771l0.098-0.588l0.438-0.481l0.645-0.282l0.676-0.048l0.529,0.238l0.48,0.623
		l0.827,1.358l0.552,0.426l0.565,0.033l0.64-0.194l0.536-0.314l0.213-0.316l0.262-0.253l1.26-0.632l0.459-0.159l0.311-0.016
		l0.663,0.055l0.308-0.038l0.329-0.208l0.371-0.304l0.376-0.191l0.363,0.13l0.254,0.16l0.347,0.107l0.71,0.076l0.36,0.107
		l0.215,0.257l0.166,0.302l0.244,0.253l1.581,0.793l0.84,0.767l3.113,1.628l0.451,0.388l0.435,0.287l1.026,0.305l2.364,1.606
		l0.249,0.091l0.435,0.052l0.202,0.086l0.205,0.221l0.2,0.299l0.246,0.262l1.449,0.488l0.676,0.852l0.521,0.927l0.638,0.595v-0.21
		l-0.479-0.48l0.01-0.691l0.321-0.481l0.466,0.156l0.42,0.33l5.73,2.247l1.361,0.295l0.695,0.019l1.824-0.248l0.389-0.147
		l1.679-0.999l1.244-1.988l0.404-0.322l0.645-0.124l0.246-0.344l0.088-1.135l0.754-2.369l0.225-0.383l1.482-0.137l0.663,0.015
		l0.482,0.236l0.249,0.522l0.124,1.344l0.148,0.561l0.28,0.362l0.879,0.773L416.27,122.001z M351.138,550.476l0.031,0.479
		l-0.487,1.964l-0.166,1.268l-0.179,0.674l-0.327,0.461l-0.464-0.159l-0.345-0.206l-0.21-0.323l-0.07-0.523l0.202-0.945l0.029-0.453
		l-0.231-0.252l-0.205,0.057l-0.091,0.224l-0.049,0.255l-0.091,0.139l-0.163,0.031l-0.575-0.031l-0.241-0.125l-0.236-0.301
		l-0.192-0.367l-0.114-0.318l-0.332,0.466l-0.075,1.042l-0.246,0.454l-0.461,0.19l-0.477-0.102l-0.446-0.193l-0.358-0.115
		l-0.648,0.094l-0.254,0.258l-0.124,0.359l-0.275,0.403l-0.228,0.056l-0.301-0.025l-0.249,0.039l-0.109,0.247l-0.218,0.991
		l-0.513,0.39l-0.342-0.082l-0.29-0.238l-0.378-0.07l-0.257,0.182l-0.451,0.585l-0.272,0.125h-0.995l-0.42,0.169l-0.288,0.177
		l-0.264,0.005l-0.334-0.351l-0.078-0.397l0.07-1.101l-0.21-0.507l0.295-0.258l0.244-0.141l1.125-0.368l0.98-0.471l0.202-0.182
		l0.194-0.079l1.107-0.663l0.446-0.79l0.259-0.249l1-0.157l0.751-0.288l0.275-0.064l0.244-0.099l0.523-0.556l0.332-0.025
		l0.225,0.099l0.215,0.059l0.321-0.133l0.057-0.152l0.145-0.606l0.132-0.234l0.853-0.5l0.306-0.381l0.397-0.202l0.718-0.268
		l0.607-0.411l0.342-0.143l0.324,0.052l0.179,0.247l0.062,0.358v1.67l0.124,0.232l0.233,0.036l0.259-0.112l0.262-0.049
		L351.138,550.476z M361.844,514.807l0.231,0.151l0.158,0.271l0.101,0.313l0.047,0.271l-0.021,0.631l-0.684,2.185l-0.176,0.318
		l-0.238,0.253l-0.319,0.146l-0.453,0.02l-1.257-0.18l-0.366-0.168l-0.192-0.347l0.109-0.232l0.316-0.128l0.415-0.039l0.228-0.149
		l0.251-0.347l0.205-0.404l0.091-0.314l0.101-0.241l0.451-0.721l0.192-0.688l0.22-0.317l0.288-0.231L361.844,514.807z
		 M416.254,506.714l1.037,0.622l0.189,0.336l-0.443,0.474l-0.658,0.2l-1.48,0.034l-0.599,0.324l-0.334,0.415l-0.293,0.457
		l-0.223,0.489l-0.153,0.51l-0.179,1.45l-0.306,0.53l-0.71,0.21l-0.718,0.051l-0.702,0.141l-2.042,0.79l-0.601,0.117l-1.397-0.004
		l-1.039,0.176l-0.15-0.078l-0.036-0.668l-0.073-0.282l-0.13-0.244l-2.229-1.882l-0.016-1.695l-0.145-0.6l-0.617-0.274l-0.715-0.056
		l-0.596-0.249l-0.244-0.845l0.127-0.83l0.358-0.506l0.547-0.256l3.216-0.269l0.257-0.104l0.321-0.465l1.259-0.545l0.479-0.573
		l0.324-0.215l0.544-0.086l0.842-0.044l0.272,0.029l0.288,0.133l0.443,0.451l0.249,0.193l0.334,0.144l0.79,0.183l0.368,0.026
		l0.109,0.136l0.155,0.303l0.241,0.299l0.373,0.137l1.423,0.2l0.327,0.157l0.197,0.187l0.153,0.183l0.171,0.151l0.345,0.145
		l0.814,0.243L416.254,506.714z M296.544,494.75L296,494.523l-0.008,0.328l0.334,0.777l-0.384,0.257l-0.498-0.016l-0.84-0.242
		l-1.006-0.108l-0.306-0.222l-0.228-0.547l-0.036-0.383l0.132-0.285l0.308-0.232l0.485-0.214l0.588,0.128l0.389-0.089l0.329-0.157
		l0.412-0.081l0.456,0.114l0.251,0.274l0.381,0.706L296.544,494.75z M250.284,460.971l-0.13,0.629l-0.021,0.283l0.057,0.171
		l0.303,0.406l-0.148,0.236l-0.311,0.162l-0.179,0.194l0.039,0.502l0.334,1.159l0.08,0.654l-0.034,0.167l-0.169,0.281l-0.034,0.11
		l-0.023,0.62l0.023,0.038l0.21,0.225l0.057,0.133l-0.15,0.06l-0.062,0.05l-0.225,0.232l-0.047,0.069l-0.14,0.343l-0.365,0.42
		l-0.49,0.344l-0.529,0.099l0.334,0.553l-0.254,0.2l-0.518-0.06l-0.448-0.234l0.184-0.518l-0.168-0.501l-0.651-0.997l-0.64-1.634
		l-0.029-0.158l0.215-4.373l0.35,0.23l0.072,0.325l0.031,0.327l0.2,0.234l0.464-0.001l0.166-0.406l0.101-0.479l0.257-0.23
		l1.441-0.251l0.555,0.008L250.284,460.971z M248.55,460.636l-0.319-0.309l-0.163-0.33l-0.202-0.29l-0.42-0.189l0.995-0.827
		l0.583-0.228l0.396,0.397l0.334,0.988l-0.008,0.21l-0.277,0.161l-0.311,0.046l-0.314,0.084L248.55,460.636z M252.92,457.102
		l0.7,0.044l0.482,0.32l0.029,0.364l-0.666,0.173l-0.733-0.212l-0.301-0.429l0.078-0.333L252.92,457.102z M257.942,452.448
		l0.951,0.644v0.904l-0.205,0.964l0.34,0.825l-0.262,0.381l-0.28,0.322l-0.339,0.13l-0.422-0.194l-0.92,0.479l-0.347-0.733
		l-0.101-1.155l-0.179-0.79l0.207-0.447l0.098-0.956l0.153-0.375l0.267,0.157l0.277-0.005l0.272-0.128l0.272-0.223l-0.016,0.141
		l0.047,0.031l0.085-0.003L257.942,452.448z M255.312,452.689l0.337-0.216l0.233,0.027l0.119,0.236l-0.018,0.411l-0.656,0.583
		l-0.915,0.572l-0.78,0.1l-0.277-0.835l0.257-0.372l1.7-1.405l-0.062,0.409l-0.041,0.106l-0.114,0.144L255.312,452.689z
		 M495.469,424.189l0.295,0.228l0.311,0.535l0.163,0.622l-0.236,0.906l0.052,0.524l-0.042,0.524l-0.428,0.425l-0.267,0.116
		l-0.296,0.068l-0.231-0.052l-0.187-0.442l-0.225-0.051l-0.29-0.005l-0.262-0.054l-1.928-0.944l-0.809-0.757l-0.327-1.08
		l0.327-1.179l0.84-0.757l1.127-0.252l1.205,0.345l0.531,0.809l0.301,0.335L495.469,424.189z M460.879,425.31l0.143,0.016
		l0.384,0.23l0.251,0.268l-0.225,0.127l-0.384,0.542l-0.168,0.14l-0.264,0.047l-0.933-0.047l-0.236,0.034l-0.171,0.105l-0.099,0.173
		l-0.039,0.239l-0.106,0.269l-0.244,0.008l-0.536-0.169l-0.609-0.013l-0.57-0.097l-0.549-0.234l-2.602-1.857l-0.264-0.44
		l0.109-0.375l0.809-0.748l0.56,0.336l0.741-0.116l0.767-0.41l0.949-0.811l0.249-0.134l0.156-0.217l0.057-0.52l0.166-0.354
		l0.399-0.151l0.482,0.009l0.425,0.146l0.298,0.441l0.459,0.973l0.264,0.188l0.521,0.2l-0.106,0.441l-0.337,0.441l-0.197,0.202
		l-0.01,0.367l0.098,0.248L460.879,425.31z M539.469,403.866l0.262,0.387l0.194,0.508l-0.062,0.442l-0.726,0.279l-0.529,0.439
		l-0.269,0.153l-0.327,0.063l-0.855-0.063l-1.236-0.459l-0.407-0.001l0.22,0.663l-0.466-0.379l-0.469-0.496l-0.806-1.112
		l-0.016-0.135l0.062-0.141l0.039-0.166l-0.086-0.221l-0.189-0.109l-0.244,0.007l-0.244-0.055l-0.213-0.283l0.441,0.034l0.417-0.034
		l0.376-0.15l0.308-0.31l-0.355-0.155l-0.451-0.254l-0.295-0.351l0.114-0.446l1.951-3.134l0.124-0.299l-0.003-0.308l-0.091-0.282
		l-0.013-0.289l0.223-0.334l0.612-0.44l0.295,0.111l1.464,3.221l0.358,1.75l-0.003,0.347l-0.15,0.339l-0.487,0.446l-0.231,0.317
		l0.614,0.082l0.412,0.146l0.339,0.26L539.469,403.866z M488.497,402.522l-0.492,0.297l0.648,0.68l1.716,1.251l-0.798,1.684
		l-0.088,0.401l-0.35,0.168l-0.785-0.017l-0.819-0.118l-0.461-0.133l-0.111-0.271l0.018-0.334l-0.096-0.256l-0.464-0.041
		l-0.22,0.179l-0.972,1.033l-0.306,0.162l-0.399,0.135l-0.345,0.212l-0.148,0.394l-0.021,0.427l-0.067,0.352l-0.145,0.317
		l-0.223,0.338l-0.912,0.702l-1.374,0.585l-1.418,0.383l-1.076,0.095l-1.241-0.063l-4.976,0.335l-4.066-0.714l-1.438-0.473
		l-0.656-0.415l-0.277-0.544l0.117-0.701l0.192-0.655l0.036-0.56l-0.345-0.422l-0.578-0.099l-0.65,0.036l-0.529-0.124l-0.218-0.575
		l0.07-0.757l0.187-0.694l0.614-1.298l0.412-0.469l1.099-0.956l0.228-0.48l0.099-0.422l0.233-0.067l0.44,0.17l0.301-0.111
		l0.174-0.255l0.124-0.293l0.171-0.225l1.034-0.379l1.462-0.351l1.306-0.572l0.565-1.046l0.047-0.664l0.166-0.521l0.363-0.338
		l0.933-0.209l0.003-0.221l-0.075-0.287l0.083-0.287l0.244-0.221l0.417-0.266l0.194-0.175l0.498-0.675l0.27-0.203l0.555-0.228
		l1.213-0.241h1.298l2.161-0.311l0.583,0.34l0.202,1.318l0.35-0.291l0.495-0.792l0.456-0.263l0.109,0.438l0.254,0.604l0.347,0.419
		l0.373-0.111l1.449,1.299l0.428,0.241l0.964-0.053l0.326,0.118l0.575,0.376l0.933,0.484l0.35,0.325l-0.148,0.804l0.008,0.584
		l-0.106,0.284l-0.389-0.495l-0.08,0.618v0.503l-0.054,0.284l-0.264,0.592l0.487,0.433l0.391,0.593l0.029,0.526L488.497,402.522z
		 M525.257,401.198l0.067,0.56l-0.228,0.437l-0.479,0.213l-0.666-0.108l-0.477-0.374l-0.088-0.48l0.034-0.548l-0.122-0.584
		l-0.301-0.257l-0.891-0.267l-0.327-0.379l0.316,0.013l0.096-0.013l-0.264-0.179l-0.117-0.155l0.031-0.153l0.155-0.176v-0.199
		l-0.77,0.02l-0.314-0.541l0.065-0.782l0.365-0.704l0.15,0.266l0.223,0.124l0.194-0.097l0.085-0.403l-0.085-0.164l-0.42-0.521
		l-0.148-0.309h-0.239l-0.15,0.397l-0.21,0.029l-0.272-0.134l-0.334-0.092l-0.202,0.161l-0.231,0.321l-0.314,0.255l-0.459-0.055
		l-0.241-0.337l-0.008-0.441l-0.078-0.383l-0.435-0.162l-0.057-0.17l0.021-0.837l-0.073-0.32l0.487-0.221l0.275-0.585l0.057-0.687
		l-0.166-0.533l0.249-0.107l0.223,0.02l0.207,0.122l0.207,0.204l-0.101-0.5l-0.218-0.448l-0.055-0.417l0.373-0.403l-0.161-0.091
		l-0.067-0.095l-0.062-0.116l-0.161-0.161l0.14-0.495l-0.264-0.582l-0.057-0.487l0.741-0.202l0.394-0.062l0.15-0.184v-0.749
		l-0.067-0.238l-0.111-0.153l-0.023-0.153l0.202-0.25l0.171-0.079l0.218-0.008l0.182,0.066l0.192,0.379l0.254,0.072l0.285-0.051
		l0.223-0.137l0.14-0.325l0.078-1.242l0.223-0.785l0.174-0.336l0.257-0.206l0.381-0.049l0.246,0.177l0.456,0.758l0.417,1.074
		l-0.031,1.149l-0.604,2.218l-0.111,0.819l-0.106,0.287l-0.109-0.082l-0.267-0.037l-0.241,0.129l-0.031,0.429l0.259,0.273
		l0.456,0.37l0.254,0.44l-0.321,0.484l0.218,0.221l-0.352,0.203l0.086,0.332l0.381,0.229l0.536-0.1l-0.246,0.89l-0.026,0.556
		l0.166,0.442l0.526,0.649l0.2,0.393l0.057,0.403l-0.109,0.408l-0.212,0.511l-0.249,0.441l-0.212,0.186l0.098,0.224l0.249,1.303
		l-0.363,0.526l0.29,0.525l0.531,0.505L525.257,401.198z M341.529,378.801l0.762,0.272l0.824,0.482l0.358,0.493l-0.658,0.301v0.221
		l0.083,0.297l-0.288,0.281l-0.505,0.103l-0.575-0.237l-0.023,0.216l-0.07,0.15l-0.083,0.132l-0.062,0.163l-0.762-1.069
		l-0.321-0.257l0.101,0.638l0.184,0.651l0.083,0.613l-0.171,0.531l-0.259,0.069l-0.365-0.062l-0.319,0.022l-0.145,0.311
		l-0.114,0.185l-0.277,0.095l-0.575,0.043l-0.469,0.141l-0.446,0.242l-0.482,0.079l-0.57-0.352l-0.244-0.494l-0.091-0.692
		l0.008-1.356l-0.389,0.153l-0.288-0.105l-0.143-0.187l0.049-0.103l1.314-0.986l0.319-0.381l0.749-1.337l0.285-0.36l0.179-0.153
		l0.202-0.082l0.311,0.047l0.995,0.587l0.93,0.403L341.529,378.801z M429.451,374.558l0.855,1.314l-0.029,1.754l-0.495,1.777
		l-1.104,2.565l-0.718,1.139l-0.951,0.862l-1.257,0.362l0.327-0.889l-0.342,0.026l-0.526,0.408l-0.228,0.253l-0.179,0.1l-0.56,0.443
		l-0.35,0.1l-0.194-0.124l-0.132-0.295l-0.225-0.687l-0.018-0.15l0.049-0.378l-0.031-0.136l-0.158-0.096l-0.394-0.086l-0.101-0.038
		l-0.127-0.084l-0.285-0.311l-0.109-0.333l0.404-0.157l0.378,0.007l0.314-0.036l0.215-0.162l0.08-0.372l0.101-0.249l0.529-0.241
		l0.241-0.273l-0.588-0.134l-0.244-0.546l0.039-0.683l0.257-0.527l0.358-0.471l0.518-0.99l0.332-0.43l0.511-0.257l0.573-0.117
		l0.466-0.229l0.337-1.236l0.352-0.443l0.433-0.381l0.373-0.454l0.941,0.702L429.451,374.558z M456.945,371.437l0.034,0.174
		l-0.15,1.503l-0.295,0.621l-0.894,1.263l-0.529,1.3l-0.993,4.271l-0.383,0.725l-2.675,2.902l-0.326,0.506l-0.435,0.939
		l-0.669,1.443l-0.093,0.691l-0.047,2.133l-0.155,0.648l-0.98,2.01l-0.124,0.75l-0.031,0.774l-0.101,0.645l-0.2,0.579l-1.472,2.174
		l-0.275,0.791l-0.223,0.233l-0.228,0.182l-0.104,0.163l-0.435,1.455l-0.907,1l-0.433,0.579l-0.179,0.73l0.435,5.546l-0.187,0.769
		l-0.031,0.334l-0.101,0.467l-0.233,0.025l-0.288-0.084l-0.249,0.142l-0.026,0.856l1.337,0.919l-0.223,0.872l-0.295-0.675
		l-0.552,0.327l-0.264,0.678l0.568,0.372l0.878,0.121l0.288,0.343l0.054,0.548l0.189,0.733l0.448,0.465l0.666,0.422l0.601,0.506
		l0.503,1.474l0.56,0.602l0.648,0.555l0.508,0.624l0.228,1.311l-0.34,1.473l-0.606,1.351l-1.757,2.535l-0.148,0.521l-0.275,0.409
		l-2.203,1.353l-0.422,0.123l-1.135-0.004l-0.386,0.064l-0.638,0.29l-0.702,0.134l-0.485,0.306l-0.301,0.066l-1.361-0.434
		l-1.044-1.047l-0.767-1.298l-1.306-3.211l-0.187-2.161l-0.197-0.576l-0.355-0.542l-0.78-0.788l-0.542-0.376l-0.536-0.158
		l-2.099-0.097l-0.648-0.145l-1.405-0.751l-0.443-0.11l-0.303-0.118l-0.254-0.273l-0.218-0.302l-0.205-0.209l-0.397-0.102
		l-0.428-0.024l-0.339-0.099l-0.075-0.16l-0.205-0.431l-0.653-0.783l-0.586-0.507l-0.7-1.516l-0.443-0.344l-0.34-0.124l-0.275-0.301
		l-0.949-2.007l-0.303-0.455l0.225-0.292l-0.093-0.268l-0.568-0.565l-0.171,0.141l-0.319,0.181l-0.163,0.141l0.054-0.464l0.192-0.84
		l-0.013-0.481l-0.187,0.114l-0.505,0.229l-0.194,0.118l0.031-1.278l0.184-1.187l0.016-1.061l-0.466-0.907v-0.201l0.342-0.343
		l1.216-2.201l0.557-1.431l0.415-0.276l0.661-0.086l1.35-0.325l0.718-0.013l2.091,0.413l0.536,0.25l0.451-0.287l1.617-0.342
		l0.661-0.355l1.71-1.798l0.801-0.529l0.622,0.363l0.573-0.297l0.889-1.071l0.194-0.571l-0.098-0.807l-0.422-1.373l-0.231-1.377
		l0.448-3.965l-0.319-1.423l-1.197-2.526l-0.225-1.379l0.293-0.577l0.594-0.277l0.588-0.156l0.267-0.206l0.174-0.301l1.133-1.157
		l0.746-1.661l0.023-0.31l1.182-2.032l0.132-0.691l-0.132-2.064l-0.101-0.162l-0.464-0.354l-0.104-0.169l0.047-0.665l0.07-0.261
		l0.122-0.281l0.259-0.387l0.876-0.984l0.28-0.198l1.446-0.066l0.627-0.129l0.638-0.23l2.623-1.663l1.384-0.623l1.472,0.051
		l0.078,0.119l0.093,0.228l0.148,0.219l0.225,0.099l0.599-0.033l0.163,0.033l0.353,0.238l0.565,0.506l0.389,0.164l0.381-0.04
		l0.811-0.364l0.347-0.039l0.428,0.222l-0.07,0.256l-0.202,0.294l0.039,0.334l0.293,0.198l0.238-0.137l0.246-0.28l0.329-0.224
		l0.466-0.087l0.358,0.058l0.324,0.129l1.133,0.285l0.612,0.253l0.42,0.488l0.215,1.277l0.155,0.303l0.451,0.615l0.091,0.058
		l0.119-0.001l0.117,0.02L456.945,371.437z M472.005,371.337l-0.114,0.797l-0.547,1.293l-0.187,0.708l0.101,1.274l0.855,2.627
		l0.132,1.209l-0.101,0.018l-0.225,0.113l-0.233,0.158l-0.112,0.15l0.018,0.163l0.189,0.094l0.029,0.186l-0.039,2.541l-0.132,0.569
		l-0.832,2.032l0.01,0.295l0.275,0.457l-0.122,0.27l-0.702,0.489l-0.075-0.371l-0.148-0.23l-0.197-0.039l-0.215,0.2l-0.065,0.284
		l0.065,1.153l-0.376,0.107l-1.747,0.932l-0.529,0.398l-0.669,1.101l-0.368,0.196l-0.806,0.047l-0.754,0.13l-0.461,0.329
		l-0.635,0.866l-1.726,1.388l-0.249,0.5l-0.054,0.671l-0.163,0.49l-0.277,0.374l-0.394,0.332l-0.262,0.15l-0.386,0.141l-0.205,0.172
		l-0.14,0.184l-0.14,0.258l-0.109,0.279l-0.047,0.261v2.55l-0.396,1.697l-0.057,0.65l-0.137,0.264l-0.295,0.158l-0.303,0.107
		l-0.132,0.114l-2.941,6.919l-0.192,1.234l-0.482,1.577l-0.28,0.578l-0.27,0.31l-0.565,0.352l-0.275,0.218l-0.28,0.367l-0.42,0.719
		l-1.69,2.001l-0.352,0.322l-0.513,0.289l-0.472-0.043l-0.207-0.678l-0.22-1.821l0.003-0.713l1.622-8.971l1.265-3.008l0.135-0.624
		l0.047-0.804l-0.135-0.162l-0.601-0.308l-0.135-0.182l0.119-1.005l0.099-0.221l0.264-0.135l0.179,0.115l0.117,0.176l0.093,0.047
		l0.145-0.226l0.062-0.268l0.005-0.712l0.166-0.836l0.409-0.568l1.166-0.924l1.146-1.248l0.425-0.745l0.386-1.46l1.524-2.07
		l0.495-2.053l0.275-0.498l0.549-0.562l2.677-3.608l0.155-0.501l0.07-0.158l0.148-0.161l0.148-0.224l0.07-0.343l-0.233-1.045
		l0.034-0.391l0.324-0.651l0.801-0.978l0.337-1.316l0.409-0.73l0.474-0.67l1.236-1.356l0.565-0.893l2.117-6.068l0.599-0.995
		l-0.145-0.751l-0.391-1.147l0.202-0.564l0.355-0.418l0.29-0.485l0.023-0.768h0.218l0.111,0.247l0.135,0.153l0.422,0.265
		l-0.389-1.734l-0.174-0.372l-0.106-0.47l0.218-0.623l0.35-0.604l1.547-2.077l0.871-0.607l0.925,0.262l-0.062,0.23l-0.148,0.932
		l-0.396,0.919l-0.14,0.634l-0.124,1.193l-0.194,0.605l-0.972,1.154l-0.358,0.559l0.306,0.128l0.109,0.232l0.044,0.224l0.101,0.1
		l0.643-0.042l0.283-0.073l0.28-0.127l-0.096,0.665l0.314,1.91l-0.065,0.713l-0.2,1.03l0.047,0.575l0.381,0.771l0.052,0.355
		l-0.114,0.331l-0.456,0.742L472.005,371.337z M464.16,360.141l0.334,0.45l0.207,0.342l-0.099,0.218l-2.078,0.217l-0.124,0.082
		l-0.386-0.502l-0.796-2.063l-0.122-0.758l0.117-0.365l0.233-0.381l0.539-0.637l0.415-0.283l0.283,0.095l0.2,0.346l0.904,2.596
		L464.16,360.141z M332.665,380.46l1.345,0.645l0.358,0.455l-0.49,0.78l-0.254,0.119l-0.749,0.169l-0.319,0.155l-0.653,1.004
		l-0.264,0.166l-1.472,1.281l-0.56,0.798l-0.402,0.228l-0.669,0.08h-1.319l-0.376-0.047l-0.521-0.183l-0.306-0.012l-0.441,0.176
		l-0.972,0.598l-0.656,0.13l-0.632,0.207l-0.71,0.495l-2.229,2.184l-0.912,1.275l-0.643,1.38l-0.523,3.079l-0.777,0.9l-1.174,0.488
		l-1.462,0.396l-0.35,0.149l-0.638,0.384l-0.334,0.147l-0.365,0.042l-0.777-0.076l-0.363,0.034l-0.311,0.137l-0.637,0.379
		l-0.353,0.147l-0.35,0.095l-0.684,0.113l-1.542,0.076l-0.899,0.22l-0.827,0.412l-0.938,0.65l-0.726-0.2l-0.713,0.358l-0.542,0.694
		l-0.213,0.813l0.13,1.021l0.671,1.355l0.288,0.834l-0.218,1.746l-0.412,0.176l-0.505-0.131l-0.428-0.345l-0.179-0.461l0.124-0.58
		l-0.135-0.153l-0.534-0.05l-0.381,0.208l0.031,0.494l0.117,0.584l-0.114,0.478l0.355,0.185l0.21,0.252l0.039,0.316l-0.148,0.371
		l0.847-0.138l0.49,0.436l-0.062,0.506l-0.84,0.078l0.052,0.481l-0.199,0.616l-0.314,0.598l-0.308,0.41l-0.168,0.277l-0.052,0.251
		l-0.114,0.183l-0.653,0.12l-0.179,0.142l-2.454,3.997l-1.109,1.114L297,417.689l-0.145,0.587l-0.347,0.603l-1.228,1.635
		l-0.181,0.156l-1.182,0.789l-0.301,0.087l-0.472,0.274l-1.602,1.707l-0.495,0.878l-0.358,0.319l-0.573,0.126h-1.301l-0.337,0.092
		l-0.731,0.44l-0.358,0.15l-1.944,0.07l-0.57,0.249l-0.249,0.176l-0.842,0.386l-0.155,0.135l-0.171,0.984l-0.435,0.862l-0.031,0.144
		l0.044,0.36l-0.013,0.155l-0.124,0.045l-0.22-0.006l-0.215,0.059l-0.093,0.244l-0.109,0.601l-0.277,0.757l-0.702,1.425
		l-1.423,2.079l-0.415,0.329l-2.874,1.536l-2.239,1.781l-2.115,2.301l-0.583,0.415l-0.715,0.16l-0.689,0.073l-0.422,0.177
		l-0.389,0.219l-0.588,0.19l-0.656,0.047l-1.843-0.248l-0.741,0.319l-0.262,0.73l0.023,1.353l-0.254,0.67l-0.861,1.157l-0.186,0.71
		l-0.14,0.35l-0.308,0.195l-0.308,0.034l-0.14-0.128l-0.158-0.301l-0.381-0.026l-2.97,0.886l-1.081,0.485l-0.84,0.625l-0.109,0.185
		l-0.241,0.538l-0.104,0.157l-1.094,0.329l-0.197,0.537l-0.464,0.453l-0.858,0.638l-0.775,0.931l-0.231-0.114l-0.08-0.908
		l0.07-0.375l0.296-0.639l0.161-0.664l0.212-0.271l0.223-0.204l0.124-0.153l0.034-0.318l-0.047-0.676l0.018-0.491l-0.018-0.346
		l0.013-0.166l0.096-0.164l0.28-0.193l0.174-0.789l0.285-0.621l0.684-1.093l-0.073-0.042l-0.122-0.637l0.511,0.165l0.218-0.495
		l0.15-0.659l0.306-0.33l0.353-0.165l0.477-0.401l0.474-0.503l0.34-0.471h-0.435l0.656-1.043l0.521-0.501l1.329-0.396l0.568-0.452
		l0.472-0.581l2.211-3.499l0.764-0.829l2.514-2.141l0.555-0.939l0.241-0.707l0.249-0.484l0.417-0.281l0.741-0.089l0.399-0.325
		L270.26,428l0.109,0.294l0.13,0.215l0.311,0.054l0.358-0.056l0.296-0.113l0.378-0.276l0.197-0.273l0.396-1.092l0.06-0.073
		l0.174-0.158l0.109-0.239l-0.062-0.242l-0.168-0.291l0.399-0.385l1.278-0.805l0.42-0.152l0.529-0.344l0.749-1.515l0.461-0.344
		l1.291,0.165l0.679-0.038l0.739-0.327l-0.047,0.37l0.049,0.312l0.155,0.247l0.277,0.171l0.42-0.32l0.303-0.341l0.599-0.899
		l0.308-0.315l2.312-1.497l0.21-0.172l0.055-0.281l-0.135-0.688l0.08-0.372l0.466-0.388l0.744-0.36l0.679-0.451l0.746-1.813
		l1.939-1.348l0.653-1.135l0.907-0.781l0.21-0.238l0.07-0.168l0.148-0.16l0.148-0.214l0.07-0.34l-0.031-0.724l0.117-0.309l0.35-0.41
		l0.371,0.131l0.337-0.11l0.599-0.484l0.233-0.116l0.218-0.045l0.158-0.097l0.13-0.555l0.163-0.088l0.215-0.041l0.205-0.141
		l0.262-0.308l2.537-1.889l0.226-0.351l0.342-0.882l1.508-1.453l0.342-0.543l0.057-0.36l0.156-0.505l0.238-0.516l1.166-1.563
		l0.342-0.295l-0.365-0.705l0.544-0.505l1.557-0.778l0.202-0.322l1.109-2.424l0.254-0.325l0.158,1.027v0.517l-0.28,0.224
		l-0.155,0.224l0.526,0.418l0.689,0.236l0.342-0.325l0.093-0.266l0.207-0.213l0.223-0.174l0.13-0.142l0.168-0.389l0.031-0.137
		l-0.07-0.091l-0.596-1.099l-0.171-0.498l-0.016-0.656l0.124-0.536l0.207-0.182l0.658,0.054l0.389-0.103l0.643-0.457l0.503-0.103
		l0.871,0.162l0.482-0.043l0.513-0.34l0.275-0.489l0.057-0.558l-0.109-0.54l-0.223-0.421l0.218-0.084l0.093-0.065l0.101,0.012
		l0.241,0.137l0.288-0.327l0.451-0.258l0.511-0.188l0.487-0.112l-0.096-0.506l0.264-0.433l0.124-0.349l-0.511-0.26l-0.311,0.118
		l-0.389,0.246l-0.368,0.066l-0.254-0.431l0.106-0.348l0.319-0.491l0.389-0.461l0.311-0.248l0.503-0.065l0.523,0.096l0.49,0.192
		l0.404,0.219l0.225-0.427v-0.349l0.166-0.237l0.713-0.091l-0.225-0.424l-0.288-0.224l-0.194-0.232l0.039-0.448l0.179-0.21
		l0.63-0.245l0.295-0.229l-0.06,0.354l-0.047,0.142l-0.112,0.187l0.169,0.399l0.267,1.922l0.257,0.22l0.56-0.336l0.923-0.878
		l0.327-0.725l0.111-0.181l0.225-0.117l0.295-0.082l0.257-0.118l0.319-0.714l1.081-0.282l0.451-0.456l-0.308-0.366l-0.407-0.37
		l-0.267-0.389l0.111-0.422l0.599,0.241l0.676-0.297l0.583-0.546l0.319-0.504l0.824-4.326l-0.093-0.408l-0.397-0.487l-0.132-0.206
		l-0.117-0.263l-0.155-0.229l-0.249-0.098l-0.225,0.092l-0.329,0.348l-0.218,0.003l-0.347-0.313l-0.117-0.429l0.031-0.909
		l-0.163-0.443l-0.399-0.352l-0.503-0.257l-0.459-0.176l0.93-1.182l0.158-0.124l-0.264-0.364l-0.412-0.198l-0.241-0.253l0.264-0.533
		l-0.464-0.293l0.301-0.306l0.487,0.045l0.111,0.773h0.218l0.044-0.135l0.174-0.309l0.124,0.253l0.153,0.14l0.174-0.003l0.2-0.166
		h0.218l-0.122,0.393l-0.086,0.1l-0.225,0.151l0.433,0.904h-0.65l0.218,0.325l0.334,0.111l0.389-0.051l0.383-0.162l-0.223,0.681
		l0.127,0.318l0.334,0.261l0.412,0.512h0.2v-0.243h0.236l0.148,0.656l0.529,0.305l0.581,0.248l0.264,0.483l0.104,0.343l0.223,0.19
		l0.228,0.032l0.21-0.277l0.236,0.236l0.228,0.334l0.197,0.387l0.052,0.249l0.127,0.17l0.373,0.007l0.342-0.174l0.062-0.272
		l-0.122-0.298l-0.181-0.261l-0.446-1.008l-0.2-0.216l0.142-0.472l0.262-0.464l0.14-0.195l-0.22-0.335l-0.472-0.355l-0.536-0.281
		l-0.422-0.115l-0.542-0.008l-0.568-0.099l-0.474-0.324l-0.264-0.676l0.054-0.306l0.332-0.637l0.049-0.162l-0.283-0.067
		l-0.446,0.059l-0.415-0.018l-0.179-0.309l0.029-1.877l0.189-0.467v-0.243h0.233l0.062,0.364l0.171,0.243l0.264,0.117l0.373-0.017
		l-0.249-0.734l-0.809-1.326l-0.047-0.842l0.288-0.407l0.412,0.446l0.469,0.701l0.466,0.368l0.327,0.071l0.306,0.121l0.285,0.024
		l0.293-0.216l0.111-0.378l-0.003-0.901l0.428-0.864l-0.192-0.38l-0.285-0.207l-0.06,0.049l-0.526-0.663l-0.212-0.394l-0.132-0.494
		l0.407,0.04l0.402-0.367l0.327-0.536l0.171-0.465l-0.018-0.724l-0.249-1.55l0.158-0.519l0.148-0.159l0.104-0.137l0.052-0.153
		l0.023-0.214l0.093-0.13l0.194,0.004l0.161,0.095l-0.016,0.139l0.513-0.526l0.264-0.358l0.111-0.345l0.086-0.9l0.14-0.467
		l0.212-0.336l0.347-0.079l0.225,0.333l0.124,0.497l0.047,0.401l0.003,0.578l0.029,0.192l0.101,0.357l0.14,0.353l0.21,0.304
		l0.296,0.222l0.086-0.141l0.197-0.149l0.15-0.153l0.466,1.168l0.062,1.291l-0.254,1.344l-0.49,1.336l-0.801,1.322l-0.132,0.679
		l0.389,0.758l0.79,0.712l0.267,0.428l0.34,1.418l-0.06,0.253l-0.36,0.213l-0.666-0.383l-0.451-0.148l-0.21,0.177l-0.35,0.917
		l-0.065,0.412l0.036,0.397l0.15,0.692l0.031,0.369l-0.042,0.312l-0.161,0.644l-0.016,0.373l0.088,0.325l0.272,0.508l0.109,0.699
		l0.148,0.327l0.244,0.253l0.339,0.103l0.404-0.066l0.249-0.147l0.168-0.158l0.156-0.094l0.391-0.081l0.124-0.041l0.137-0.079
		l0.295,0.413l-0.036,0.439l-0.163,0.431l-0.096,0.388l0.212,1.005v1.207l-0.119,0.657l-0.187,0.475l0.01,0.324l0.492,0.214
		l0.666-0.074l0.451-0.251l0.389,0.024l0.474,0.744l-0.296-0.095l-0.272-0.036l-0.262,0.03l-0.254,0.1l0.174,0.266l0.085,0.196
		l0.005,0.189l-0.047,0.232l0.44,0.409l0.244,1.338L332.665,380.46z M338.885,349.214l0.285,1.168l-0.202,1.268l-0.518,1.166
		l-0.658,0.857l-0.345-0.294l-0.047-0.396l0.155-0.44l0.236-0.423l-0.389-0.008l-0.531-0.169l-0.272-0.045l-0.202,0.411
		l-0.223,0.293l-0.358,0.163l-0.026-0.14l-0.202-0.299l-0.272-0.295l-0.249-0.133l-0.358-0.143l-0.187-0.619l-0.448-0.127
		l0.399-0.574l0.404,0.291l0.438,0.592l0.5,0.339l0.324-0.237l0.101-0.555l0.031-0.964l0.241,0.313l0.327,0.546l0.303,0.249
		l0.171-0.315l0.181-0.082l0.169,0.119l0.127,0.278l0.231-0.497l0.14-0.488l-0.096-0.388l-0.492-0.2l0.358-0.223l0.355-0.164
		l0.319-0.025L338.885,349.214z M511.065,387.887l0.062,0.739l-0.083,0.724l-0.422,0.548l-0.98,0.217l-2.226-0.889l-0.588,0.098
		l-0.218,0.674l0.085,0.951l0.233,0.893l0.223,0.503l-1.083-0.39l-0.907-1.019l-0.627-1.238l-0.228-1.038l-0.48-0.648l-0.054-0.125
		l-0.109-0.175l0.008-1.152l-0.373-0.362l-0.625-0.248l-0.619,0.055l-0.358,0.555l0.422,0.948l0.228,4.376l0.767,2.059l0.202,1.362
		l0.371,1.453l-0.016,0.647l-0.319,0.283l-0.523-0.19l-1.692-1.333l-0.093-0.175l-0.163-0.433l-0.384-0.18l-0.44-0.071l-0.334-0.111
		l-0.498-0.508l-0.262-0.421l-0.352-0.288l-0.739-0.107l-1.415-0.037l-0.638-0.129l-0.469-0.276l-0.466-1.101l0.197-1.269
		l0.435-1.306l0.27-1.204l-0.06-0.743l-0.236-0.876l-0.441-0.731l-0.676-0.303l-0.345-0.349l-0.106-0.805l0.039-0.888l0.228-1.489
		l0.075-0.248l0.163-0.278l0.425-0.515l0.08-0.211l0.039-1.457l0.119-0.649l0.821-2.001l0.091-0.621l-0.013-1.498l-0.692-3.142
		l-0.166-0.309l-1.13-0.991l-0.174-0.215l-0.137-0.592l-0.329-0.621l-0.837-1.103l-1.324-1.015l-0.218-0.212l-0.194-0.544
		l-0.474-0.253l-0.635-0.048l-0.632,0.082l-0.632,0.215l-0.417,0.358l-0.086,0.486l0.363,0.59l0.143,0.606l-0.293,0.742
		l-0.456,0.656l-0.363,0.332l-0.425,0.144l-0.228-0.024l-1.166-0.908l-0.047-0.099l-0.529,0.152l-0.181-0.077l-0.145-0.911
		l-0.176-0.129l-0.384,0.082l-0.389,0.012l-0.334,0.081l-0.194-0.137l0.026-0.64l0.153-0.413l0.422-0.594l0.099-0.523l-0.083-0.617
		l-0.228-0.289l-0.301-0.234l-0.28-0.434l-0.049-0.532l0.171-0.475l0.22-0.392l0.184-0.51l0.295-0.438l0.07-0.219l-0.039-0.247
		l-0.163-0.384l-0.233-2.037v-2.985l-0.549,0.063l-0.57-0.341l-0.459-0.567l-0.179-0.607l0.101-0.277l0.466-0.324l0.106-0.295
		l-0.511-0.159l-0.381-0.167l-0.241-0.23l0.438-0.23l-0.111-0.268l-0.319-0.325l-0.187-0.397l-0.101-0.481l-0.464-0.727l-0.441-1.95
		l0.099-0.522l0.145-0.045l0.663-0.329l0.099-0.089l0.35,0.198l0.822,1.14l1.876,1.566l0.583,0.677l1.179,2.005l0.111-1.38
		l0.189-0.617l0.435,0.092l0.969,0.719l0.368,0.412l0.777,2.02l0.783,0.887l1.135,0.49l1.532,0.057l1.127-0.289l0.987-0.551
		l1.583-1.396l1.231-1.721l0.412-0.276l0.285,0.066l0.643,0.291l0.384,0.066l0.119-0.066l-0.016-0.291l0.114-0.066l0.205,0.066
		l0.101,0.147l0.031,0.144l-0.01,0.066l0.819-0.042l0.27,0.042l0.314,0.196l0.692,0.59l0.21,0.123l0.249,0.348l-0.062,0.761
		l-0.21,0.763l-0.296,0.523l-0.036,0.387l0.036,0.388l0.101,0.176l0.086,0.062l0.057,0.325l0.075,0.145l0.163,0.151l0.099,0.058
		l0.104,0.042l0.176,0.104l0.378,0.147l0.277,0.016l0.174,0.132l0.13,0.801l0.148-0.018l0.142-0.252l0.06-0.382h0.233l0.031,1.007
		l-0.031,0.322l-0.096,0.297l-0.295,0.515l-0.06,0.197l0.065,0.375l0.316,0.639l0.07,0.304l-0.062,1.037l0.466,3.012l-0.044,1.377
		l-1.28,4.006l-0.215,1.534l0.246,1.386l0.425,0.378l1.913,0.911l0.788,0.237l0.264,0.142l0.119,0.257l0.207,0.949l1.254,1.498
		l0.148,0.272l0.622,0.268l0.054,0.66l-0.337,1.627l0.065,0.411l0.298,0.717l0.067,0.43l-0.07,1.212l0.07,0.447l0.223,0.468
		l0.42,0.655l0.422,0.373l0.241-0.372h0.218l0.399,0.49l0.238,0.479l0.14,0.601L511.065,387.887z M444.078,350.345l0.14,0.432
		l-0.176,0.451l-0.259,0.476l-0.14,0.516l0.132,0.933l-0.016,0.452l-0.35,0.603l-0.005,0.18l-0.049,0.126l-0.591,0.102l-0.111,0.145
		l-0.029,0.213l-0.086,0.25l0.057,0.044l-0.057,0.864l-0.023,0.036l-0.174,0.63l-0.075,0.503l0.075,1.169l0.096,0.297l0.225,0.153
		l0.226,0.206l0.101,0.452l-0.155,0.449l-0.638,0.475l-0.099,0.527l-0.72-0.349l-0.788-0.223l-0.624,0.195l-0.412,1.738
		l-0.428,0.591l-0.622,0.416l-0.754,0.289l0.171,0.417l-0.148,0.26l-0.692,0.429l0.054-0.334l-0.023-0.313l-0.14-0.214l-0.288-0.044
		l-0.155,0.17l-0.096,0.7l-0.184,0.256l-0.334,0.087l-0.213-0.112l-0.223-0.155l-0.334-0.042l-0.155,0.085l-0.715,0.581v-0.444
		l-0.746,0.354l-0.863,0.635l-0.723,0.727l-0.295,0.62l0.163,1.014l0.29,0.816l0.119,0.814l-0.355,1.001l-0.809,1.096l-0.531,0.489
		l-0.518,0.203l-0.303-0.069l-0.529-0.303l-0.264-0.069l-0.241,0.069l-0.63,0.372l-0.358,0.077l-0.407,0.187l-0.386,0.223
		l-0.505,0.418l-0.15,0.174l-0.28,0.491l0.057,0.071l0.093,0.153l-0.031,0.204l-0.319,0.215l-0.163,0.725l-1.438,0.288l-2.983,0.113
		l-2.726,0.443l-0.262,0.074l-0.433,0.316l-0.166,0.073l-1.094-0.043l-0.342,0.043l-0.347,0.141l-0.441,0.366l-0.295,0.157
		l-0.342-0.001l-0.35-0.113l-0.35-0.026l-0.384,0.252l-1.303,1.095l-0.371,0.224l-0.316,0.045l-0.332-0.003l-0.404,0.077
		l-0.863,0.672l-1.983,3.326l-0.202,0.184l-0.555,0.501l-1.073,0.493l-1.032-0.095l-0.637-1.083l0.088-1.363l1.265-2.378
		l0.404-1.387v-0.725l-0.218-2.039l-0.197-0.48l-0.884-0.926l-0.225-0.717l0.086-0.58l0.459-0.96l0.186-0.995l0.575-1.672
		l2.135-3.631l0.254-1.501v-5.522l-0.078-0.679l-0.202-0.749l-0.08-0.736l0.264-0.645l0.36-0.609l0.15-0.686l0.238-3.807
		l0.075-0.169l0.155-0.164l0.155-0.226l0.684-5.311l-0.179-1.162l-0.544-1.008l-0.772-0.294l-0.993-0.032l-1.19-0.22l-1.078-0.453
		l-0.531-0.154l-0.684-0.061l-1.195,0.04l-0.555-0.062l-0.347-0.221l0.018-0.078l0.054-0.258l0.321-0.445l0.378-0.387l0.228-0.164
		l0.119-0.29l0.078-0.65l0.01-0.673l-0.099-0.368l0.101-0.456l0.158-0.278l0.277-0.138l0.451-0.036l0.218-0.139l0.42-0.612
		l0.22-0.139l0.215-0.044l0.179-0.175l0.15-0.024l0.27,0.115l0.163,0.207l0.117,0.213l0.124,0.132l1.12,0.334l0.327,0.222
		l0.731,0.964l0.617,0.565l0.695,0.477l0.749,0.361l3.527,0.774l1.169,0.462l1.107,0.768l0.7,0.641l0.446,0.183l1.309,0.111
		l0.342,0.188l1.275,1.908l0.407,0.368l0.425,0.153l0.358,0.243l1.5,1.533l1.905,0.753l0.505,0.376l0.13,0.296l0.08,0.185
		l0.088,0.545l0.213,0.479l0.578,0.271l0.194-0.054l0.41-0.315l0.42-0.194l-0.005-0.271l-0.109-0.299l-0.039-0.198l0.143-0.529
		l0.2-0.09l0.42,0.276l0.396,0.468l0.21,0.11l0.371-0.013l-0.324-0.405l0.049-0.196l0.238-0.119l0.254-0.169l0.627-0.716
		l0.083-0.295l-0.098-0.102l-0.073-0.111l-0.104-0.127l0.974-0.068l1.228,0.05l1.159,0.228l0.785,0.456l0.269,0.491l0.166,0.51
		l0.197,0.407l0.368,0.164l0.438,0.071l1.413,0.594l-1.599,1.144l-0.588,0.701l0.01,0.598l0.783,0.303l0.86-0.428l0.881-0.636
		l0.837-0.328l0.84-0.212l1.151-0.928l1.446-0.45l0.899-0.6l0.78-0.798l0.459-0.825h0.218l0.026,1.954l-0.244,0.507l-0.244,0.099
		l-0.358,0.044l-0.337,0.083l-0.166,0.218l0.036,0.325l0.192,0.16l0.306,0.034l0.352-0.056l-0.303,0.492l0.246,0.077
		L444.078,350.345z M343.902,336.94l0.886,0.707l0.658,0.193l0.319,0.159l-0.215,0.074l-0.842,0.125l-0.047,0.322l0.101,0.437
		l-0.404,0.469v0.203l0.124,0.045l0.306,0.175v-0.22l0.306,0.132l0.249,0.169l0.189,0.191l0.127,0.195l-0.632,0.708l-0.239,0.18
		l0.461,0.656l-0.637,1.068l-1.047,0.872l-0.949,0.066l-0.555,0.511l-0.394-0.512l-0.14-0.951l0.197-0.823l0.43,0.298l0.13,0.155
		l0.098,0.214h0.233l-0.057-0.469l-0.052-0.183l-0.124-0.236l0.428-0.434l0.34-0.45l0.119-0.453l-0.218-0.441l-0.249,0.189
		l-0.163,0.017l-0.257-0.206l-0.171,0.692l-0.396,0.291l-0.495-0.038l-0.461-0.278l-0.257-0.414l-0.295-0.913l-0.319-0.249
		l0.179-0.127l0.277-0.236l0.197-0.082l-0.334-0.528l-0.822-0.804l-0.368-0.466l-0.207-0.442l-0.446-1.557l0.264,0.056l0.155,0.098
		l0.166,0.077l0.264-0.008l-0.049,0.056l0.101,0.082l0.163,0.073l0.132,0.032l0.101-0.071l0.031-0.16l-0.031-0.159l-0.101-0.074
		l0.039-0.266l0.381-0.465l0.474-0.151l0.303,0.662l1.104,0.685l-0.145,0.33l0.565,0.124l1.42-0.009l0.311,0.065l0.018,0.148
		l-0.194,0.144l-0.726,0.176l0.158,0.238l0.355,0.233L343.902,336.94z M354.181,332.496l0.171,0.433l-0.119,0.298l-0.306,0.211
		l-0.417,0.171l-0.435,0.107l-0.21-0.064l-0.155-0.147l-0.288-0.142l-0.552-0.019l-0.384,0.184l-0.353,0.224l-0.451,0.095
		l-0.422-0.167l-0.35-0.299l-0.35-0.187l-0.42,0.168l-0.07-0.502l-0.396-0.144l-0.544-0.04l-0.49-0.182l-0.238,0.243l0.215,0.403
		l-0.023,0.339l-0.119,0.351l-0.072,0.444l-0.275-0.148h-0.148l-0.096,0.134l-0.135,0.256h-0.197l-0.459-0.877l-0.358-0.233
		l-1.376,0.203l-0.56-0.147l-0.648-0.37l-0.544-0.473l-0.43-0.946l-0.897-1.055l-0.207-0.689l-0.003-0.48l-0.054-0.384l-0.163-0.342
		l-0.329-0.35l-0.2-0.353l-0.062-0.445l-0.124-0.467l-0.365-0.416l-0.368,0.285l-0.332,0.375l-0.257,0.443l-0.148,0.477
		l-0.404-0.247l0.085-0.252l0.296-0.286l0.241-0.35l0.078-0.411l-0.01-0.329l-0.067-0.493l0.163-0.647l0.42-0.255l0.573-0.166
		l0.601-0.388l-0.788-0.017l-0.321,0.065l-0.218,0.196l-0.088-1.273l0.225-0.476l0.754-0.032l0.581,0.235l0.207,0.501l0.036,0.52
		l0.042,0.281l0.456,0.162l1.236,0.143l0.505,0.139l0.529,0.318l0.871,0.716l0.762,0.818l0.228,0.17l0.262,0.085l0.547,0.019
		l0.28,0.119l-0.332,0.082l-0.218,0.178l-0.106,0.27l0.023,0.361l0.723,0.007l1.695,1.336l0.824,0.437l0.075-0.351l0.189-0.182
		l0.28-0.024l0.345,0.111l0.005-3.046l0.179,0.017l0.451,0.581l0.218,0.5l0.065,0.517l-0.026,0.884l0.202,0.349l0.451-0.095
		l0.443-0.024l0.187,0.561l0.117-0.064l0.036,0.003l0.016-0.029l0.049-0.152l0.956,0.918l0.415,0.545l0.171,0.437l-0.083,0.457
		l-0.223,0.156l-0.288,0.102l-0.296,0.294l-0.14,0.428l0.14,0.172l0.249-0.072l0.205-0.306l0.145,0.007l0.031,0.037l-0.005,0.076
		l0.028,0.123L354.181,332.496z M428.699,320.332l-0.023,0.451l-0.529,2.329l-0.35,0.395l-0.521,0.439l-0.557,0.357l-0.43,0.146
		l-0.148-0.095l-0.498-0.674l-0.272-0.18l-0.653-0.178l-0.288-0.21l-0.785-1.334l-0.536-0.625l-0.754-0.264l-0.739-0.093
		l-0.606-0.264l-0.451-0.426l-0.28-0.576l-0.003-1.157l0.687-0.68l1.164-0.314l3.602,0.024l1.205,0.264l0.371,0.164l0.174,0.204
		l0.199,0.677l0.189,0.427l0.249,0.429L428.699,320.332z M525.039,361.128l0.518,1.018l0.995,1.063l0.617,1.046l-0.609,0.961
		l-0.264-0.248l-0.746-0.401l-0.293-0.217l-0.282-1.083l-0.062-0.095l-0.049-0.091l-0.021-0.181l0.016-0.58l-0.031-0.155
		l-0.192-0.036l-0.469-0.236l-0.137-0.153l-0.456-0.383l-0.482-0.251l-0.228,0.232l-1.083,0.656l-0.327,0.12l-0.383-0.128
		l-0.135-0.308l-0.073-0.358l-0.194-0.293l-0.371-0.163l-0.213,0.09l-0.223,0.176l-0.376,0.096l-0.075,0.244l-0.156,1.164
		l-0.104,0.386l-0.86-0.8l-0.586-0.408l-0.404-0.03l-0.599,0.711l-0.342,0.296l-0.495,0.232l-0.021-0.523l-0.238-0.327l-0.327-0.017
		l-0.28,0.404l-0.754-0.691l-0.334-0.195l-1.151-0.18l-0.176-0.153l-0.145-0.238l-0.352,0.069l-0.964,0.383l-0.166,0.246
		l-0.14,0.298l-0.368,0.548l-0.083,0.238l-0.163,0.081l-0.174-0.071l-0.27-0.112l-0.239-0.25l-0.207-0.407l-0.153-0.437
		l-0.174-1.737l-0.316-1.379l-0.84-1.223l-1.259-0.55l-1.456-0.104l-1.444,0.103l-1.298-0.247l-0.296-0.917l0.27-2.626l-0.01-0.268
		l0.029-0.214l0.07-0.196l0.13-0.209l-0.246-0.135l-0.622-0.55l-0.233-0.094l-0.448-0.04l-0.207-0.07l-0.44-0.301l-0.368-0.362
		l-0.29-0.426l-0.187-0.483l-0.477,1.033l-0.288,0.149l-0.56-0.073l-0.438-0.172l-0.352-0.283l-0.283-0.386l-0.251-0.491
		l0.492-0.229l0.275-0.299l0.228-0.313l0.329-0.269l0.526-0.14l0.435-0.052l0.114-0.178l-0.425-0.518h1.861l0.404-0.22l0.521-0.513
		l0.466-0.594l0.246-0.449l-0.021-0.503l-0.163-0.5l-0.101-0.476l0.176-0.426l0.689-0.746l0.51-0.699l0.158,0.159l0.51,0.286
		l-0.039-0.782l-0.334-0.635l-0.552-0.428l-0.726-0.152l-0.539,0.173l-1.316,0.762l-0.544,0.175l-1.14-0.651l-1.876-2.73
		l-1.254-0.416v-0.222l0.22,0.013l0.218-0.013l-0.308-0.158l-0.13-0.046l0.438-0.907l0.153,0.097l0.156,0.072l0.166,0.098
		l0.176,0.179l-0.137-0.663l-0.451-0.321l-0.474-0.025l-0.521,0.563l-0.557-0.07l-0.29-0.293l0.49-0.323l-0.168-0.286l-0.202-0.139
		l-0.238,0.024l-0.277,0.199l-0.065-0.874l-0.104-0.485l-0.158-0.318l-1.573-1.685l-1.265-0.509l-1.265-0.302l-0.99,0.123
		l-0.923-0.485l-1.503-1.044l-1.488-1.8l-0.689-0.644l0.085-0.072l0.023-0.026l0.086-0.146l-0.754-0.439l-0.523-0.915l-1.55-5.341
		l-2.099-4.812l-0.073-0.442l0.086-0.382l0.218-0.394l0.319-0.305l0.368-0.098l0.246,0.114l1.454,1.128l0.148,0.042l0.327,0.007
		l0.806-0.376l0.283-0.07l0.184,0.06l0.803,0.386l0.503,0.163l2.009,0.037l0.132,0.048l0.35,0.228l0.07,0.081l0.067,0.123
		l0.15-0.053l0.179-0.118l0.137-0.064l0.733,0.072l0.692,0.15l2.643,0.228l6.01-0.47l0.296-0.1l0.308-0.227l0.275-0.454
		l-0.179-0.305l-0.308-0.28l-0.111-0.376v-0.246l0.575,0.19l0.428,0.382l0.342,0.374l0.296,0.169l0.42-0.193l0.544-0.335
		l0.474-0.101l0.202,0.507l0.311-0.04l0.666,0.28l0.578,0.354l0.078,0.173l0.187,0.056l0.171,0.111l0.233,0.09l0.386-0.012
		l0.259-0.108l0.368-0.218l0.332-0.25l0.148-0.206l0.106-0.685l0.298-0.151l0.902,0.279l0.311-0.04l0.311-0.131l0.296-0.069
		l0.264,0.129l0.77,0.781l1.581,1.004l0.757,0.668l0.057,0.555l0.347,0.377l0.679,0.395l0.275,0.362l0.368,0.844l0.233,0.283
		l0.508,0.433l-0.596,0.342l-0.575,0.724l-0.158,0.809l0.676,0.593l-0.218,0.142l-0.119,0.184l-0.08,0.378l-0.039,0.186l0.98-0.565
		l0.347-0.125l-0.057,0.313l0.005,0.215l-0.021,0.178l-0.145,0.207l0.352,0.143l0.311-0.125l0.643-0.485l-0.197,0.615l0.311,0.146
		l1.208-0.072l0.591,0.296l1.125,0.855l0.461-0.04l0.176,0.354l0.695,0.871l0.332,0.896l-0.021,0.361l-0.529-0.257l-0.257,0.191
		l-0.754,0.138l-0.316,0.117l0.29,0.118l0.223,0.137l0.192,0.178l0.187,0.235l-0.878,0.207l-0.402,0.16l-0.244,0.301l-0.067,0.606
		l0.337,0.166l1.037-0.083l-0.07,0.106l-0.086,0.231l-0.062,0.106l0.288,0.237l0.412,0.417l0.303,0.453l-0.023,0.35l-1.081,0.888
		l-0.262,0.339l-0.391,0.709l-0.573,0.739l-0.197,0.544l-0.062,0.633l0.041,0.714l0.06,0.191l0.397,0.939l-0.07,1l0.07,0.334
		l0.179,0.229l0.808,0.762l0.101,0.311l-0.101,0.298l-0.215,0.159l-0.845-0.31l-0.316,0.584l0.093,0.564l0.622-0.263l0.378,0.04
		l0.306,0.629l0.295,1.199l-0.047,0.822l-0.311,0.164l-0.397,0.066l-0.334,0.521l0.404,0.169l-0.086,0.31l-0.246,0.407l-0.073,0.446
		l0.145,0.298l0.181,0.079l0.21,0.028l0.233,0.151l0.101,0.224v0.794l0.135,0.489l0.13,0.299l0.707,1.034l0.215,0.51l0.003,0.518
		l-0.319,0.497l0.257,0.029l0.174,0.042l0.187,0.008l0.269-0.079l0.171,0.783l0.14,0.373l0.233,0.156l0.327,0.107l0.575,0.472
		l0.404,0.107l0.067,0.186l0.345,0.391l0.381,0.35l0.187,0.06l0.008,0.848l-0.093,0.515l-0.251,0.42l-1.941,1.475l-0.355,0.653
		v1.175l0.534,0.626l0.871,0.112l1.011-0.362l-0.472-0.606l-0.01-0.485l0.42-0.079l1.467,1.079l0.593,0.341l0.438,0.491
		L525.039,361.128z M472.246,339.972l0.132,0.516l0.257,0.645l0.171,0.651l-0.127,0.528l-0.435,0.074l-0.425-0.566l-0.661-1.305
		l-0.407-0.442l-1.07-0.919l-0.915-0.35l-0.687-0.777l-1.076-0.366l-0.482-0.446l-0.622-0.94l-0.417,0.236l-0.578-0.127
		l-1.179-0.534l-0.744,0.351l-0.671-0.367l-0.568-0.584l-0.428-0.31l0.14-0.401l0.202-0.295l0.303-0.166l0.441-0.007l-0.417-0.888
		l-0.184,0.294l-0.049,0.131h-0.199l-0.27-0.393l-0.386-0.437l-0.417-0.358l-0.827-0.363l-0.277-0.456l0.073-0.401l0.562-0.057
		l-0.692-0.213l-0.632,0.056l-0.456-0.113l-0.347-1.283l-0.409-0.546l-0.962-1.015l-0.459-0.697l-0.213-0.194l-0.923-0.391
		l-0.244-0.163l-0.565-0.231l-0.757,0.077l-0.731,0.239l-0.461,0.247l-0.376,0.412l-0.967,1.404l-0.295,0.862l-0.254,0.411
		l-0.319,0.346l-0.303,0.144l-0.365,0.048l-0.171,0.138l-0.231,0.464l-1.757,2.068l-2.693,2.495l-0.692,0.425l-0.311-0.403
		l0.062-0.658l0.163-0.779l0.246-0.653l0.29-0.276l0.363-0.074l0.155-0.213l0.031-0.31l-0.005-0.382l0.073-0.437l0.184-0.334
		l0.21-0.31l0.181-0.364l-0.034-1.227l0.184-0.603l0.508,0.254l0.171-0.441l0.223-0.346l0.329-0.227l0.49-0.077l0.228-0.167
		l-0.119-0.376l-0.435-0.591l0.443-0.292l0.412-0.18l0.254-0.285l-0.021-0.597l-1.096-0.044l-0.718,0.056l-0.601,0.231l0.021-0.22
		l-0.031-0.997l0.031-0.084l0.078-0.056l0.879-1.219l0.111-0.44l0.106-0.967l0.464-1.638l0.104-0.754l-0.062-0.515l-0.187-0.258
		l-0.311-0.207l-0.428-0.356l-0.334-3.786l0.088-0.396l0.238-0.085l0.316,0.109l0.321,0.193l0.474,0.215l0.915,0.15l0.487,0.137
		l0.306,0.208l0.236,0.252l0.293,0.186l0.29,0.054l-0.036,0.052l0.021,0.139l-0.56-0.115l0.062,0.498l0.498,1.177l-0.176,0.255
		l-0.378,0.272l-0.378,0.376l-0.176,0.555l0.169,0.419l0.376-0.236l0.565-0.751l0.085-0.028l0.327-0.02l0.124-0.052l0.062-0.143
		l-0.008-0.307l0.042-0.117l-0.065-0.029l0.171-0.377l0.233-0.369l0.117,0.004l0.238-0.216l0.544-0.062l0.617,0.076l0.446,0.203
		l1.011,1.023l0.503,0.406l0.552,0.251h1.089l0.168,0.139l0.376,0.529l0.257,0.279l0.29,0.612l0.384,0.61l0.503,0.281v0.223
		l-0.373,0.033l-0.236,0.182l-0.093,0.3l0.031,0.394l1.076-0.565l0.479-0.062l0.202,0.507l0.14,0.21l0.314,0.061l0.363,0.005
		l0.272,0.048l0.342,0.228l0.272,0.257l0.241,0.299l2.006,3.477l0.837,0.876l-0.166-1.437l0.207-0.509l0.739,0.491l0.977,1.01
		l0.44-0.066l0.347-0.239l0.28-0.085l0.233,0.39v-0.223l0.311,0.65l1.672,2.709l0.202,0.13l0.474,0.16l0.192,0.152l0.13,0.281
		l0.306,1.076l0.174,0.311l1.337,1.681l0.319,0.552l0.148,0.544l-0.526-0.33l-0.653-1.009l-0.586-0.417l0.109,0.344l0.135,0.23
		l0.433,0.517l-0.358,0.295l0.109,0.375l0.666,0.905l0.777,1.669l0.112,0.444v0.776l-0.194,0.884L472.246,339.972z M415.71,313.722
		l0.549,1.029l0.459,1.215l-0.047,1.16l-0.961,0.868l-0.508-0.611l-0.288-0.585l-0.112-0.604l0.018-0.67l-0.031-0.129l-0.08-0.158
		l-0.075-0.182l-0.008-0.201l0.083-0.167l0.238-0.097l0.114-0.159l0.21-0.688l0.163-0.271l0.275-0.197V313.722z M410.475,311.736
		l0.969,0.29l0.329,0.297l0.008,0.529l-0.156,0.132l-0.492-0.07l-0.223,0.159l-0.008,0.294l0.225,1.815l-0.171,1.057l-0.746,2.238
		l-0.257,2.394l-0.575,2.311l-0.949,2.363l-0.249,0.363l-0.215,0.579l0.368,0.438l0.42,0.41l-0.042,0.496l-0.415-0.467l-0.187,0.254
		l-0.581,0.538l-0.119,0.22v1.678h-0.218l-0.674-0.779l-0.155-0.459l0.176-0.541l-0.85-0.074l-0.192-0.533l0.15-1.639l0.306,0.769
		l0.44,0.143l0.402-0.343l0.179-0.691l-0.104-0.408l-0.27-0.158l-0.35-0.072l-0.365-0.151l-1.322-1.314l-0.285-0.212l0.106-1.188
		l0.329-1.328l0.389-0.63l1.008-0.405l0.474-0.978l0.148-1.21l0.003-1.092l-0.223-1.918l0.158-0.702l0.739-0.62l1.824-0.51
		l0.912-0.471L410.475,311.736z M463.724,321.221l0.189,0.655l0.047,0.395l-0.135,0.175l-0.257-0.103l-0.241-0.257l-0.181-0.324
		l-0.075-0.318l-0.137-0.305l-0.951-0.918l-4.761-7.101l-0.093-0.311l0.034-0.424h0.218l0.293,0.166l0.143-0.433l0.093-0.633
		l0.143-0.438l0.29,0.004l0.358,0.316l0.547,0.669l1.578,0.939l0.272,0.097l-0.031,0.214l-0.093,0.112l-0.311,0.121h0.438
		l0.371,0.112l0.296,0.223l0.218,0.333l-0.153,0.575l0.249,0.651l0.371,0.627l0.187,0.498l0.101,0.514l0.451,1.056l0.352,1.709
		l0.075,0.162l0.174,0.15l0.021,0.352L463.724,321.221z M447.576,305.251l0.202,1.631l2.363,2.563l0.477,1.401l-1.107-0.804
		l-2.154-3.028l-0.684-0.711l-0.43-0.287l-1.192-0.239l-0.5-0.315l-2.402-2.138l-0.249-0.447l-0.132-0.044l-0.56-0.598l-0.078-0.148
		l-0.262-0.1l-0.114-0.235l-0.073-0.29l-0.104-0.249l-0.798-0.52l-1.962-0.468l-0.739-0.817l-0.21-1.826l0.013-0.384l0.438-0.285
		l0.547-0.061l0.43-0.232l0.104-0.804l0.373,0.109l0.42,0.216l0.723,0.508l0.319,0.314l0.288,0.347l0.49,0.758l0.648,1.339
		l0.757,0.624l0.119,0.158l0.099,0.383l0.451,0.806l0.098,0.392l0.083,0.086l0.482,1.018l0.536,0.499l0.777,0.518l0.801,0.265
		l0.622-0.266l0.505,0.282l0.21,0.316l0.13,0.352L447.576,305.251z M391.715,310.49l0.039,0.401l0.114,0.529l0.174,0.511l0.319,0.53
		l0.031,0.235l-0.054,0.838l-0.093,0.072l-0.143-0.005l-0.187,0.122l-1.241,1.833l-0.381,0.335l-0.788,0.524l-0.246,0.069
		l-0.21-0.052l-0.145,0.025l-0.049,0.301l0.016,0.538l0.07,0.218l0.148,0.236l-0.233,0.244l-0.2-0.244l-0.119,0.226l-0.052,0.165
		l0.031,0.194l0.14,0.308l-0.578,0.374l0.018,0.919l0.409,1.003l0.583,0.617v0.223l-1.283-0.37l-0.606,0.04l-0.086,0.573
		l0.179,0.206l0.054,0.272l-0.062,0.309l-0.171,0.305l0.28,0.146l0.132,0.175l0.042,0.243l-0.003,0.349l-0.956-0.594l-0.35-0.533
		l-0.464,0.244l-0.757,0.66l-0.415,0.097l-0.386,0.235l-0.583,0.56l-0.801,1.6l-0.091,0.179l-0.472,0.003l-0.713-0.707l-0.448-0.187
		h-1.975l-0.575-0.31l-0.461-0.761l-0.187-0.947l0.249-0.874l0.187,0.527l0.288,0.297l0.389,0.052l0.459-0.208l-0.244-0.111
		l-0.215,0.017l-0.21,0.094l-0.197-0.57l-0.021-0.097l-0.648-0.485l-0.228,0.07v0.638l-0.513-0.288l-0.653-0.552l-0.565-0.609
		l-0.394-0.707l-0.816-0.78l-0.257-0.081l-0.182-0.211l-1.342-2.325l-0.412-0.258l-0.308-0.344l0.067-0.779l0.337-1.347
		l-0.036-0.653l-0.184-0.636l-0.308-0.575l-0.845-0.988l-0.549-1.132l-0.451-0.511l-0.71-0.284l-0.635-0.008l-0.459-0.169
		l-0.171-0.756l-0.036-0.368l-0.161-0.613l-0.036-0.367l-0.101-0.383l-0.531-0.845l0.036-0.296l0.14-0.215l0.161-0.184l0.098-0.195
		l0.021-0.3l-0.093-1.574l-0.295-1.005l-0.29-1.815l-0.552-1.009l-1.402-1.923l-1.021-2.086l-0.718-0.894l-1.521-0.522l-0.581-0.727
		l-0.526-0.237l-1.104,0.099l-0.329-0.16l0.363-0.61l-0.842-0.791l-0.63-0.921l-0.389-1.047l-0.257-2.299l-0.231-0.541l-0.399-0.229
		l-0.233,0.017l-0.56,0.121l-0.218,0.083l-0.257,0.178l-0.14,0.181l-0.106,0.173l-0.145,0.159l-0.627,0.523l-0.389,0.093
		l-0.505-0.189l-0.396-0.346l-0.342-0.469l-0.241-0.538l-0.086-0.546l0.124-0.742l0.35-0.681l0.513-0.574l0.604-0.428l0.749-0.261
		l0.733-0.032l2.182,0.517l1.918,0.076l0.407-0.056l0.334-0.084l0.327,0.012l0.614,0.369l0.34,0.096l0.607,0.091l1.239-0.013
		l0.739,0.117l0.435,0.364l0.516-0.279l0.41,0.171l0.575,0.554l0.549,0.049l0.492-0.129l0.933-0.366l2.83-0.654l0.866-0.485
		l0.415,0.384l0.267-0.084l0.257-0.175l0.171-0.573l0.451,0.131l0.148-0.027l0.267-0.104l0.042,0.125l0.181,0.119l-0.15,0.286
		l-0.184,0.209l-0.233,0.124l-0.303,0.032l0.192,0.284l0.321,0.38l0.365,0.332l0.327,0.143l0.288,0.281l0.731,1.247l0.505,0.28
		l2.099-0.096l0.529,0.366l-0.117,1.072h0.212l0.06-0.208l0.086-0.5l0.072-0.188l0.135-0.198l0.057-0.065l0.244-0.184l0.321-0.148
		l0.407-0.128l0.373-0.219l0.22-0.418h0.218l0.658,1.204l3.693,3.06l1.353,2.144l0.505,0.314l0.694,0.09l0.529,0.277l0.327,0.486
		l0.091,0.711l-0.093,0.335l-0.163,0.351l-0.093,0.347l0.117,0.327l0.358,0.232l0.365-0.024l0.358-0.132l0.35-0.076l0.746,0.029
		l0.713,0.144l0.555,0.342l0.272,0.621l-0.122,0.676l-0.422,0.451l-1.089,0.738l-0.389,0.572l-0.202,0.721l-0.039,0.779l0.334,2.005
		l-0.013,0.529l-0.285,1.345l0.049,0.439h-0.218l0.179,0.901l0.07,2.046l0.303,0.752l0.871,1.108L391.715,310.49z M410.04,287.207
		l0.124,0.27l0.58,0.433l0.166,0.292l-0.275,0.971l-1.856,1.9l-0.715,0.948l0.303,0.695l-0.28,0.578l-1.003,0.848l-0.498,0.104
		l-0.523-0.375l-0.451-0.488l-0.277-0.245l-0.35-0.153l-1.073-0.962l-0.27-0.077l-0.549-0.04l-0.27-0.107l-0.321-0.26l-0.549-0.859
		l-0.969-1.025l-0.111-0.337l0.132-0.771l-0.021-0.232l-0.099-0.479l0.005-1.734l0.093-0.469l0.228-0.303l0.84-1.535l0.099-0.308
		l0.057-0.92l0.096-0.232l0.459-0.099l0.461,0.451l0.689,1.044l0.145-0.188l0.36-0.328l0.148-0.196l0.487,0.512l0.733,0.172
		l0.669-0.22l0.283-0.665l0.417,0.283l0.293,0.279l0.104,0.342l-0.14,0.457l0.474-0.177l0.358,0.177l0.111,0.343l-0.29,0.309
		l0.135,0.131l0.347,0.237l0.166,0.077l0.487-0.317l0.684,0.188l0.591,0.481l0.218,0.565l-0.117,0.152l-0.225,0.056l-0.311,0.016
		l-0.023,0.229L410.04,287.207z M351.423,277.547l0.267,0.139l0.251,0.043l0.187,0.117l0.075,0.363l-0.536,0.416l-0.135,0.163
		l-0.207-0.275l-0.223-0.383l-0.244-0.336l-0.295-0.144l-0.459-0.092l-0.187-0.229l-0.109-0.294l-0.215-0.281l-0.337-0.223
		l-0.321-0.136l-0.347-0.069l-0.415-0.019l-0.202-0.105l-0.363-0.463l-1.047-0.331l-0.508-0.579l-0.301-0.768l-0.093-0.797
		l0.044-0.351l0.14-0.258l0.233-0.148l0.34-0.032l0.466,0.179l0.78,0.398l0.676,0.452l0.148,0.34l0.466-0.14l0.614,0.137
		l0.622,0.302l0.492,0.354l1.086,1.709l-0.158,0.368l-0.301,0.268l-0.148,0.284L351.423,277.547z M483.807,272.255v0.246
		l-0.461,0.283l-0.43,0.367l0.433,0.224l0.2,0.407l0.098,0.483l0.161,0.455l-0.612,0.241l-0.28,0.003l0.231,0.352l0.049,0.276
		l-0.096,0.945l-0.148,0.672l-0.036,0.337l0.557,0.912l0.039,0.539l-0.705,0.237l-0.653-0.021l-0.342,0.036l-0.142,0.256
		l-0.055,0.624l-0.503,1.976l0.044,0.487l-0.474-0.333l-0.428-0.68l-0.412-0.509l-0.404,0.18l-0.404-0.119l-0.523,0.099
		l-0.523,0.251l-0.399,0.317l-0.233,0.469l-0.233,0.646l-0.275,0.569l-0.371,0.247l-0.56-0.225l-1.718-1.584l-0.964-0.719
		l-0.549-0.199l-0.679,0.003l0.124-0.443l-0.101-0.453l-0.257-0.424l-0.306-0.348l-0.14-0.416l0.314-0.367l0.824-0.457l0.809-0.7
		l0.645-0.95l0.459-1.137l0.241-1.263l-0.275-1.89l0.166-0.473l0.316-0.557l-0.044-0.582l-0.454-1.263l-0.13-0.564v-0.271
		l0.155-0.17l0.272-0.248l0.2-0.294l-0.091-0.298l-0.272-0.463v-0.51l0.163-0.508l0.231-0.444l0.407,0.529l0.453-0.109l0.658-0.644
		l0.288-0.159l0.233-0.072l0.218,0.032l0.251,0.156l0.643,0.605l0.534,0.701l0.415,0.788l0.264,0.86l0.109,1.345l0.303,0.096
		l0.272,0.232l0.404,0.569l-0.238,0.244l0.153,0.219l0.047,0.094l0.039,0.156h0.218l0.472-0.875l0.892,0.41L483.807,272.255z
		 M410.141,264.718l1.433,0.982l0.731,0.629l0.342,0.753l-0.205,0.772l-0.594,0.009l-0.71-0.409l-1.182-1.022l-2.089-1.368
		l-1.28-1.169l-0.373-0.176l-0.518-0.327l-0.617-0.748l-0.508-0.834l-0.202-0.576l0.099-0.413l0.246-0.269l0.342-0.104l0.404,0.087
		l0.199,0.126l0.13,0.156l0.246,0.36L410.141,264.718z M414.3,241.858l0.409,0.316l0.28,0.696l-0.013,0.695l-0.459,0.316
		l-0.021-0.158l-2.503-1.865l-0.873-0.158l-0.454-0.142l-0.192-0.263l-0.13-0.371l-0.197-0.386l0.023-0.201l0.521,0.17l0.088-0.122
		l0.347-0.326l0.086,0.442l0.241,0.174l0.353-0.021l0.404-0.147h1.086l-0.22,0.193l-0.137,0.268l-0.008,0.324l0.15,0.362
		l0.293,0.241l0.339,0.048L414.3,241.858z M406.977,234.841l0.754,0.05l0.609,0.321l0.308,0.533l-0.153,0.695l-0.687-0.841
		l-0.355-0.197l-0.477,0.117l-0.327,0.331l-0.078,0.361l0.117,0.186l0.288-0.182l0.249,0.799l-0.01,0.392l-0.296,0.253l-1.016,0.648
		l-0.114,0.099l0.047,0.158l0.062,1.177l0.067,0.327l0.14,0.44l0.591-0.086l0.389,0.552l0.226,0.828l0.319,2.08l-0.07,0.452
		l-0.622,1.612l-0.614,0.55l-0.754,0.4l-0.669,0.154l-0.749-0.296l-0.254-0.721l0.052-0.884l0.181-0.799l0.601-0.122l-0.034-1.29
		l-0.459-1.492l-0.653-0.712l-0.487-0.15l-0.142-0.393l0.086-1.165l-0.14-0.354l-0.692-1.072l-0.257-0.283l-0.518-0.166
		l-0.306,0.008l-0.109-0.188l0.257-2.18l0.218-0.763l0.35-0.333l0.956,0.581l0.619,0.106l0.275-0.565l0.241-0.281l0.575-0.067
		l1.319,0.166l0.492,0.303l0.285-0.162l0.36,0.141l0.194,0.378L406.977,234.841z M387.33,105.226l0.902-0.174l0.417,0.086
		l0.438,0.34l0.22,0.238l0.238,0.151l0.285,0.073l0.345-0.004l-0.77,0.537l-0.708,0.33l-0.785,0.179l-2.807,0.256l-0.754-0.122
		l-0.503-0.511l-0.124-0.467l0.153-0.158l0.622-0.045l1.711-0.57L387.33,105.226z M405.888,102.466l0.397,0.34l0.231,0.462
		l-0.057,0.404l-0.845,0.352l-0.643,0.966l-0.404,0.488l-1.096,0.937l-0.453,0.589l-0.192,0.665l-0.295,0.285l-0.591-0.082
		l-0.415-0.334l0.212-0.472l0.008-0.667l0.653-0.534l0.422-0.566l-0.669-0.763l0.327-0.375l0.238-0.538l0.099-0.485l-0.099-0.21
		l0.241-0.14l0.428-0.71l0.311-0.299l0.179,0.026l0.226,0.133l0.187,0.085l0.083-0.132l0.099-0.063l0.479-0.23l0.158-0.049
		l0.293,0.112l0.156,0.266l0.124,0.306L405.888,102.466z M381.677,96.004l0.28,0.166l0.194,0.188l0.127,0.235l0.277,1.377
		l0.435,1.251l0.215,1.198l-0.446,0.918l-1.138-1.071l-0.397-0.514l-0.207-0.736l0.067-0.821l0.503-1.418L381.677,96.004z
		 M391.715,91.147l0.373,0.469l0.062,0.115l0.034,0.11l0.078,0.143l0.073,0.19l0.036,0.25l-0.109,0.135l-0.259,0.004l-0.296-0.033
		l-0.228,0.021l-0.192,0.173l-0.083,0.214l-0.109,0.185l-0.267,0.098l-0.871-0.336l-0.202-0.194l-1.221-0.728l-0.163-0.047
		l-0.231,0.011l-0.251-0.032l-0.225-0.163l-0.171-0.265l-0.381-0.781l-1.011-1.213l0.031-0.19l0.537-0.07l0.358-0.194l0.536-0.659
		l1.804,0.639l0.591,0.074l0.573-0.128l0.487-0.214l0.394-0.043l0.303,0.381v1.6l-0.031,0.118l-0.016,0.118L391.715,91.147z
		 M406.082,82.479l0.179,0.069l0.264,0.162l0.207,0.19l0.005,0.157l-0.187,0.41l-0.156,1.184l-0.29,0.483l-0.544,0.239l-0.44-0.169
		l-0.752-0.763l-0.573-0.357l-0.233-0.231l-0.085-0.333l0.042-0.347l0.109-0.08l0.197,0.019l0.64-0.132l0.479,0.088l0.27-0.011
		l0.233-0.129l0.386-0.38L406.082,82.479z M401.762,56.436l0.565-0.046l0.638,0.473l0.44,0.672l-0.036,0.554l-0.726,0.718
		l-0.238,0.083l-0.35,0.011l-0.371-1.608l-0.049-0.446l0.023-0.232L401.762,56.436z M407.116,51.596l0.303,0.068l0.264,0.181
		l0.163,0.261l-0.01,0.319l-0.187,0.281l-1.125,0.797l-0.715,0.644l-0.161,0.229l0.078,0.445l0.15,0.254l0.096,0.229l-0.086,0.368
		l-0.42,0.459l-0.606,0.213l-0.536-0.185l-0.194-0.74l0.202-0.59l1.317-1.981l0.073-0.307l0.454-0.419l0.562-0.371L407.116,51.596z
		 M402.895,42.005l-0.303,0.887l-0.508,0.876l-0.697,0.668l-0.842,0.266l-0.542-0.406l0.153-0.918l0.454-0.985l0.583-0.948
		l0.443-1.139l0.262-0.378l0.316-0.237l0.324,0.004l0.282,0.353l0.14,0.47l0.047,0.499l-0.026,0.507L402.895,42.005z
		 M326.658,563.763l0.106,0.597l0.459,1.057l0.109,0.528l-0.026,0.588l-0.088,0.503l-0.135,0.476l-0.941,2.145L325.808,570v-1.983
		l0.197-1.854l-0.187-2.139l-0.267-1.013l-0.417-0.906l0.371-0.087l0.366,0.118l0.327,0.259l0.228,0.317l0.109,0.25l0.067,0.263
		l0.047,0.268L326.658,563.763z M381.885,532.743l0.394,0.147l0.153,0.174l-0.111,0.313l-0.187,0.053l-0.899-0.053l-1.112,0.427
		l-0.498-0.062l-0.365-0.561v-0.462l0.231-0.396l0.332-0.294l0.324-0.159l0.544,0.042l0.485,0.201l0.404,0.297L381.885,532.743z
		 M387.112,526.822l0.697,0.199l0.565,0.395l0.238,0.555l-0.296,0.698l-0.303,0.159l-0.319,0.006l-0.259,0.094l-0.106,0.416
		l0.034,0.546l-0.119-0.048l-1.213,0.165l-0.225,0.094l-0.311,0.254l-0.886,0.967l-0.334,0.202l-0.352-0.006l-0.332-0.156
		l-0.296-0.258l-0.264-0.427l-0.047-0.367l0.039-0.324l-0.023-0.301l-0.785-0.826l-1.221,0.06l-2.597,1.184l-0.627,0.387
		l-0.228,0.096l-0.257-0.029l-0.187-0.166l-0.404-0.58l-0.148-0.128l-1.322-0.238l-0.28,0.119l-1.135,0.757l-0.645,0.306
		l-0.303,0.038l-0.358-0.108l-0.166-0.158l-0.029-0.191l0.016-0.184l-0.06-0.141l-0.192-0.109l-0.399-0.098l-0.158-0.112
		l-0.495-0.72l-0.143-0.59l0.148-0.567l0.394-0.647l0.531-0.516l1.2-0.516l0.884-0.607l0.697-0.082l0.283-0.156l0.715-0.994
		l0.272-0.208l0.303-0.064l1.12,0.059l0.604-0.027l0.586,0.033l0.353,0.143l0.715,0.425l0.352,0.089l0.627,0.352l0.741,1.616
		l0.492,0.456l0.581-0.148l0.523-0.44l0.599-0.284l1.444,0.644l0.71,0.056L387.112,526.822z M394.988,505.94v2.207l-0.179,0.674
		l-0.22,0.196l-0.192-0.261l-0.078-0.707l-0.202-0.443l-0.381-0.47l-0.225-0.371l0.264-0.149l0.27-0.3l0.254-0.556l0.301-0.298
		L394.988,505.94z M377.969,369.334v0.724l-0.438,1.029l0.205,0.592l-0.793,0.191l-0.879-0.073l-0.544-0.464l0.241-0.983l0.22-0.197
		l1.101-0.668l0.609-0.577l0.238-0.049L377.969,369.334z M352.196,335.73l-0.062,0.103l-0.332,0.053l-0.158,0.066l-0.14,0.233
		l0.065,0.209l0.137,0.18l0.054,0.165l-0.218,0.882l-0.016,0.34l0.083,0.326l0.332,0.643l0.036,0.251l-0.332,0.254l-0.394-0.651
		l-0.575-1.601l-1.088-2.022l0.314-0.064l1.454-0.588l0.29-0.016l0.27,0.103l0.179,0.225l0.08,0.291L352.196,335.73z
		 M387.902,331.423l0.205,0.499l0.122,0.55l-0.091,0.51l-0.381,0.382l-0.56,0.062l-0.397-0.333l-0.241-0.527l-0.109-0.515
		l0.023-0.242l0.194-0.665l-0.099-0.339l-0.189-0.208l-0.096-0.207l0.166-0.338l-0.073-0.242l0.003-0.087l0.288,0.139
		L387.902,331.423z M341.832,434.481l0.029,0.113l-0.072-0.003L341.832,434.481z M342.135,434.47l-0.031-0.102l0.117,0.055
		l-0.016,0.047H342.135z M342.011,434.268l0.01-0.007l0.013,0.055l-0.039,0.022l-0.015-0.021l-0.005,0.003l-0.031-0.047l0.062-0.029
		L342.011,434.268z M342.088,434.128l0.016-0.008l0.008,0.056l-0.039,0.022l-0.016-0.02v0.003l-0.036-0.05l0.062-0.028
		L342.088,434.128z M398.015,303.649l-0.111,0.024l-0.096,0.07l0.057,0.124l0.093,0.12l-0.14,0.132l-0.21-0.025l-0.143-0.154
		l-0.109,0.032l-0.135-0.04l-0.236-0.298l-0.22-0.186l-0.062-0.138l-0.031-0.364l0.218-0.38l0.376-0.097l0.435,0.092h0.132
		l0.238,0.243l0.189,0.363l-0.08,0.315L398.015,303.649z M377.782,283.486l-0.526-0.18l-0.912-0.832v-0.208l0.249-0.007l0.218,0.088
		l0.28-0.069l0.337-0.165l0.264,0.053l0.176,0.272l0.093,0.828L377.782,283.486z M404.789,31.938l-0.223,0.037l0.163-0.297
		L404.789,31.938z M405.131,30.212L405.235,30l0.114,0.136l-0.166,0.393L405.131,30.212z M337.729,564.72l0.728,0.406l0.124,0.309
		l-0.251,0.055l-0.503,0.008l-0.466-0.231l-0.223-0.415L337.729,564.72z M337.921,563.38l-0.505,0.003l-0.715-0.544l-0.262-0.836
		l0.088-0.508l0.358-0.178l0.36,0.16l0.184,0.265l0.674,0.297l0.259,0.542l-0.029,0.467l-0.249,0.243L337.921,563.38z
		 M336.636,557.155l-0.137,0.055l-0.062,0.091l-0.132,0.215l-0.365,0.142l-0.718,0.186l-0.202-0.254l0.093-0.597l0.656-1.115
		l0.435-0.429l0.49-0.321l0.244,0.082l-0.016,0.429l0.052,0.372l0.109,0.35l0.062,0.402l-0.145,0.359l-0.22,0.112L336.636,557.155z
		 M515.675,545.391l0.111,0.168l0.075,0.411l-0.039,0.942l-0.148,0.302l-0.225,0.012l-0.399-0.117l-0.588,0.046l-0.536,0.102
		l-0.389-0.146l-0.264-0.284l-0.288-0.227l-0.023-0.155l0.272-0.249l0.513-0.696l0.594-0.293l0.891,0.023L515.675,545.391z
		 M370.505,536.484l0.609,0.313l0.109,0.281l-0.285,0.076l-0.433,0.227l-0.676,0.231l-0.601,0.047l-0.378,0.093l-0.28-0.107
		l-0.086-0.352l0.342-0.547l0.816-0.354l0.497-0.007L370.505,536.484z M371.912,534.716l0.378,0.188l0.42,0.641l-0.161,0.688
		l-0.459,0.375l-0.606-0.312l0.047-1.013L371.912,534.716z M465.443,409.9l0.612,0.398l0.249,0.309l-0.192,0.386l-0.575,0.636
		l-1.265,0.923l-0.617,0.258l-0.638,0.076l-0.487-0.135l-0.389-0.806l-0.36-0.255l0.029-0.137l0.384-0.092l0.275-0.163l0.213-0.204
		l0.36-0.28l0.511-0.305l1.234-0.519L465.443,409.9z M489.824,393.804l-0.358,0.544l-0.01,0.484l0.073,0.465l-0.28,0.257
		l-0.42-0.129l-0.466,0.142l-0.35,0.543l-0.308,0.265l-0.345-0.249l-0.132-0.332v-0.272l-0.083-0.363l-0.031-0.44l0.184-0.171
		l0.257,0.086l0.21-0.041l0.148-0.197l0.155-0.153l0.187,0.024l0.306-0.053l0.41-0.292l0.197-0.179l0.207-0.095l0.428-0.079
		L489.824,393.804z M390.059,337.79l1.158,0.355l0.495,0.305l-0.275,0.289l-0.702,0.322l-0.715,0.015l-0.544-0.142l-0.329-0.143
		l-0.176-0.02l-0.156-0.076l-0.132-0.143l-0.148,0.033l-0.264,0.151l-0.171-0.081l0.099-0.301l0.316-0.381l0.549-0.22l0.321-0.011
		L390.059,337.79z M477.063,330.811l0.695,0.246l0.039,0.327l-0.635,0.087l-0.342,0.27l-0.64,0.424l-0.451,0.061l-0.448-0.199
		l-0.127-0.299l0.225-0.394l0.383-0.335l0.529-0.154L477.063,330.811z M378.653,327.048l0.391,0.709l0.088,0.346l-0.106,0.147
		l-0.28,0.057l-0.327-0.143l-0.296-0.225l-0.295-0.158l-0.205-0.301l-0.13-0.463l-0.319-0.445l-0.573-0.311l-0.384-0.997
		l0.648-0.875l0.899,0.369l0.311,0.729l0.233,1.092l0.155,0.263l0.127,0.129L378.653,327.048z M475.866,320.485l-0.622-0.54
		l-0.371-0.746l-0.117-0.713l-0.008-0.37l0.288,0.068l0.57,0.413l0.513,0.762l0.171,0.84L475.866,320.485z M475.229,294.763
		l-0.394-0.09l-0.715-0.016l-0.505-0.112l-0.92-0.37l-0.109-0.229l0.609-0.204l0.935-0.351l0.308-0.177l0.479-0.035l1.27,0.367
		l0.612,0.325l0.373,0.564l-0.016,0.575l-0.394,0.16l-1.096-0.245L475.229,294.763z M473.243,292.321l-0.42,0.209l-0.176,0.086
		l-0.168,0.196l-0.187,0.309l-0.327,0.314l-0.212,0.047l-0.448,0.097l-0.254-0.059l-0.622-0.145l-0.674-0.241l-0.586-0.048
		l-0.606-0.242l-0.555-0.466l-0.254-0.413l0.029-0.272l-0.062-0.181l-0.013-0.115l0.047-0.027l0.026-0.016l1.524,0.085l0.772,0.37
		l0.272-0.091l0.225-0.074l0.425,0.021l0.036,0.003l0.036,0.044l0.238,0.289l0.223,0.112l0.181-0.096l0.01-0.141l0.031-0.148
		l0.259-0.015l0.277,0.095l0.407,0.1l0.487,0.184l0.036,0.146L473.243,292.321z M467.003,291.875l0.202,0.51l0.22,0.393
		l-0.054,0.266l-0.56,0.276l-0.342,0.009l-0.316-0.495l-0.187-0.176L465.591,292l-0.047-0.398l0.156-0.547l0.054-0.603l-0.124-0.435
		l-0.332-0.452l0.106-0.126l0.28-0.184l0.319,0.011l1.311,0.435l0.192,0.161l0.233,0.111l0.277,0.073v0.326l-0.855,0.888
		L467.003,291.875z M464.176,288.865l-0.84-0.836l-0.111-0.39l0.5,0.145l0.536,0.246l0.518,0.369l0.223,0.234l0.176-0.004
		l0.316,0.047l0.083,0.13l-0.345,0.39l-0.371,0.129L464.176,288.865z M419.919,244.227l0.212,0.193l0.036,0.488l-0.694,0.635
		l-0.731,0.145l-0.664,0.064l-1.104-0.131l-0.093-0.508l0.801-0.45l0.723-0.264l0.521-0.267l0.521-0.117L419.919,244.227z
		 M343.275,193.24l0.181,0.464l0.047,0.435l-0.212,0.313l-0.402,0.063l-0.381-0.308l-0.148-0.259l-0.625-0.504l-0.635-0.853
		l-0.358-0.239l-0.101-0.279l0.163-0.311l0.495-0.536l0.332-0.089l0.246-0.093l0.044-0.135l0.078-0.184l0.259-0.205l0.347,0.062
		l0.228,0.17l0.117,0.2l0.07,0.226l0.272,0.63L343.275,193.24z"/>
</g>
<g id="Copyright">
	<text transform="matrix(1 0 0 1 681.6426 577.5916)" class="st1 st2"> Vemaps.com</text>
</g>
</svg>
