<?xml version="1.0" encoding="utf-8"?>
<!-- Generator: Adobe Illustrator 23.0.1, SVG Export Plug-In . SVG Version: 6.00 Build 0)  -->
<svg version="1.1" xmlns="http://www.w3.org/2000/svg" xmlns:xlink="http://www.w3.org/1999/xlink" x="0px" y="0px"
	 viewBox="0 0 800 600" style="enable-background:new 0 0 800 600;" xml:space="preserve">
<style type="text/css">
	.st0{fill:#808080;}
	.st1{font-family:'Roboto-Regular';}
	.st2{font-size:14px;}
</style>
<g id="Qatar">
	<path class="st0" d="M285.383,507.336l5.732-0.683l7.965-7.159l2.084-8.596l-2.605-31.993l-2.531-8.495l-13.052-24.441
		l-1.017-4.997l3.276-9.434l0.72-6.587l-0.347-6.04l-1.886-2.63l-8.139-5.014l-2.233-11.427l-0.447-12.39l-2.779-7.965l2.184-6.088
		l-0.471-7.076l-1.34-7.489l-0.372-7.367l2.432-18.279l-0.198-7.056l-4.318-25.364l3.499-14.55l0.422-6.652l-3.921-4.151
		l8.238-10.929l5.82-0.963l3.473,4.277l0.965,6.2l2.702,2.565l-0.007,6.575l8.139,1.512l-4.839-13.662l-1.042-5.829l-0.372-6.105
		l0.596-3.796l1.092-3.988l0.199-4.181l-1.886-4.182l-2.481-1.651l-6.7-1.293l-3.524-1.678l3.474-4.293l4.02-1.128l4.243-0.523
		l4.094-2.257l0.993-1.927l1.936-5.189l1.241-1.06l2.01,0.729l1.935,3.179l2.258,0.716l1.588,2.546l-0.571,5.697l-2.01,9.163v7.029
		l0.298,2.531l2.457,6.408l1.464,1.843l2.184,1.911l3.052-0.921l0.62-0.894l-0.198-1.65l1.241-7.908l0.198-8.088l1.34-3.604
		l3.474-3.591l2.109,1.073l2.506,2.311l4.219,0.206l1.935-2.353l4.268-9.866l2.333-4.156l-8.437,3.275l-7.792,1.404l-6.452-2.642
		l-4.417-8.974l-0.347-4.818l2.233-15.973l0.745-1.515l2.953-2.493l0.67-1.749l-0.372-1.405l-1.563-2.039l-0.347-1.419v-10.182
		l4.219,1.047l1.439-2.687l1.017-3.652l2.829-1.847l2.084,1.158l1.787,2.949l1.117,3.886l0.099,3.968l4.318-2.907l2.829-4.616
		l0.893-5.513l-1.588-5.665l-2.084,2.316l-4.417-4.838l0.546-7.224l7.965-19.376l1.266-6.58l0.844-15.428l2.531,1.905l0.943,0.98
		l0.893,1.973h1.886l6.898-20.319l6.104-8.865l8.71-3.688l4.616-1.036l12.829-5.138l2.655-1.934l1.638-5.195l7.122-7.296l1.687-5.1
		l5.558,2.059l6.253-1.976L420.571,30l24.244,13.227l4.913,5.527l0.496,6.535l-0.645,8.467l0.248,7.361l3.201,3.148l5.782,2.32
		l1.787,5.674l0.298,6.985l1.514,6.293l4.74,4.388l3.821,0.676l2.382,0.414l13.176-1.076l7.444,0.731l6.104,1.959l5.335,2.98
		l5.062,3.808l4.07,4.18l3.325,5.214l2.184,5.944l5.261,36.913l-0.074,4.615l-0.893,3.926l-2.457,1.653l-1.787-1.116l-1.712-4.89
		l-2.655-1.143l-2.407,1.419l-2.159,3.334l-1.142,3.884l0.447,3.14l2.73,2.52l2.63-0.33l2.035-1.983l1.117-2.52l4.913,7.795
		l-4.045,7.862l-6.104,2.382l-1.191-8.784l-4.144,1.239l-10.422,5.673l4.442,1.845l4.64,2.863l3.722,3.414l1.762,3.441l-1.042,7.377
		l-4.144,2.972l-5.211,1.239l-4.169,2.27l-2.084-1.321l-2.109-0.784l0.695,17.719l-0.645,5.13l-0.05,0.454l-1.687,2.97l-2.531,3.19
		l-1.712,3.272l0.72,3.135l11.191,19.531l1.811,4.768l0.571,4.712l-0.943,14.642l-1.141,17.753l0.372,7.412l1.712,3.774l3.797,1.647
		l17.916,2.841l2.779,2.991l2.581,6.668l1.067,5.926l1.067,5.98l0.595,27.831l-3.3,34.659l1.613,3.998l-2.655,2.875l-4.69,20.313
		l-3.921,6.404l-10.571,11.943l-3.226,8.22l-2.432,1.286l-2.779,0.916l-2.01,1.272l-1.489,2.926l-7.941,30.536l-0.422,1.694
		l-1.613,3.607l-3.573,2.691l-1.663,6.379l-2.059,14.066l-4.02,5.12l-12.333,7.385l-2.581,2.484l-1.638,7.78l-3.846,5.213
		l-4.194,4.203l-2.804,4.666l-3.548-4.993l1.141-4.721l2.73-5.308l1.588-6.838l-2.357-3.727l-5.484-0.669l-10.72,1.065l-0.471-5.87
		l-1.936-0.164l-3.102,2.28l-4.069,1.474l-5.36,0.587l-4.889,1.952l-2.556,3.535l0.695,2.184l0.123,0.447l-20.676,16.624
		l-15.852,5.397L355.821,570l-18.294-2.633l-15.332-6.532l-14.512-16.5L285.383,507.336z"/>
</g>
<g id="Copyright">
	<text transform="matrix(1 0 0 1 681.6426 577.5916)" class="st1 st2">© Vemaps.com</text>
</g>
</svg>
