<?xml version="1.0" encoding="utf-8"?>
<!-- Generator: Adobe Illustrator 23.0.1, SVG Export Plug-In . SVG Version: 6.00 Build 0)  -->
<svg version="1.1" xmlns="http://www.w3.org/2000/svg" xmlns:xlink="http://www.w3.org/1999/xlink" x="0px" y="0px"
	 viewBox="0 0 800 600" style="enable-background:new 0 0 800 600;" xml:space="preserve">
<style type="text/css">
	.st0{fill:#808080;}
	.st1{font-family:'Roboto-Regular';}
	.st2{font-size:14px;}
</style>
<g id="Romania">
	<path class="st0" d="M236.174,77.922l1.585-0.495l1.407-0.96l0.655-1.582l-0.663-2.368l0.655-1.384l1.189-0.097l1.391,0.647
		l1.205,0.846l1.229,0.761l1.27,0.387l1.245-0.193l3.348-2.659l1.051-1.995l1.755-5.468l1.537-2.379l1.601-0.772l1.771,0.26
		l5.451,1.895l1.351,0.996l3.219,3.866l3.737,3.198l1.763,2.073l0.566,0.227l0.582,0.076l0.582-0.066l0.623-0.227l0.113-0.045
		l0.113-0.015l0.113,0.015l0.121,0.045l5.071,2.54l1.626-0.097l0.304-0.242l0.238-0.19l0.453-0.547l0.396-0.665l0.34-0.779
		l0.841-0.713l0.874-0.257l2.944-0.535l1.448,0.49l5.039,0.58l3.219,1.094l1.82,0.254l5.443-0.284l1.286,0.646l4.06,3.778
		l0.534,1.802l1.674-0.024l7.877-3.254l2.467,0.127l1.286,0.93l3.89,1.06l1.553,0.73l2.847,2.731l1.375,0.284l0.113-0.094
		l4.626,1.789l1.698,0.066l5.233-2.657l3.858-0.127l3.057-2.665l1.796-0.978l1.512-0.054l4.464,1.09l4.424-0.072l1.529,0.383
		l0.64,0.38l3.024,1.793l1.973,1.593l1.221,1.526l0.526,1.857l0.073,1.528l0.356,1.437l1.383,1.603l2.637,1.657l6.324,2.499
		l1.14,1.017l0.979,1.357l2.637,4.768l1.828,2.838l1.472,1.01l2.524-0.451l1.058-0.189l5.872-1.049l4.893-2.134l0.008-0.018
		l0.016-0.006l3.259-3.164l7.594-12.606l3.348-2.346l38.403-4.205l5.152-2.101l4.117-0.519l2.37-1.045l1.318-0.257l3.728,0.381
		l4.974-1.507l5.731-0.055l1.815-0.017l3.704-1.722l0.752-1.184l1.731-3.99l0.962-1.246l2.046-1.742l0.946-1.104l1.205-2.491
		l1.27-3.646l0.825-3.709l-0.105-2.659l0.574-3.879l0.647,0.273l1.448,0.143l1.334-0.422l2.596-1.305l1.326-0.352l3.696-0.179
		l1.302-0.313l9.867-2.228l2.386-1.13l3.745-1.792l1.783-0.073l1.795,1.589l0.853,0.182l0.841-1.291l0.853,1.783l1.541,0.334
		l3.223-0.65l1.33,0.674l1.787,2.259l0.841-0.531l3.3,3.39l0.493,0.883l0.315,1.987l0.76-0.403l0.89-1.301l0.708-0.676l0.975,0.855
		l0.396,1.353l0.582,1.246l2.701,1.034v1.012l-0.89,0.882l-1.537,0.097v0.73l2.143,1.285l1.464,0.503l0.971-0.812l0.671,0.312
		l0.712,0.597l0.412,0.594l-0.007,0.096l-0.042,0.576l-0.825,1.072l-0.202,0.654l0.582,2.87l1.367,2.251l1.876,1.685l2.046,1.188
		v0.868l-1.593,0.735l0.081,0.49l0.113,0.441l0.15,0.399l0.19,0.332l2.01-0.888l1.027,1.49l0.716,1.592l1.051-0.598l0.906,1.039
		l0.081,1.084l-0.542,1.027l-0.93,0.842l1.642,1.328l0.493,0.269v0.238v0.487l-1.375,1.892l0.849,1.062l1.771,1.001l1.423,1.698
		l-0.065,0.525l0.129,3.602l-0.065,0.723l0.817,0.615l0.946,0.286l0.853,0.422l0.594,0.991l-2.677,1.668l0.93,0.78l1.08,1.689
		l0.886,1.751l0.364,0.987l0.299,0.526l1.391,1.032l0.396,0.391l0.047,0.192l0.236,0.962l-0.121,1.248l0.429,0.845v0.727
		l-1.804,0.373l0.712,2.554l1.795,3.075l5.095,6.763l2.184,2.231l2.451,0.935l0.08,0.336l0.152,0.637l0.351,1.472l0.247,0.722
		l0.101,0.419l-0.016,1.051l0.162,0.509l0.307,0.204l0.849,0.114l0.202,0.078l0.566,3.114l0.501,1.688l0.825,0.736l0.695,0.102
		l0.388,0.245l0.307,0.287l0.453,0.227l2.014,0.066l0.121-0.066l1.068,0.431l1.173,0.685l0.995,0.918l0.558,1.127l-0.643,0.511
		l-0.425,0.891l-0.299,1.19l-0.234,1.357l1.391,1.219l-0.623,3.56l1.1,0.743l0.181,0.159l0.878,0.77l1.884,4.538l1.011,1.703
		l0.607,0.31l2.115,0.477l0.829,0.531l0.59,0.504l0.623,0.39l1.957,0.483l0.817,0.888l1.593,2.789l-0.097,1.441l0.833,1.453
		l1.977,2.539l0.942,3.145l0.137,0.071l0.21,0.904l0.227,0.693l-0.142,0.488l-0.878,0.276l0.93,1.29l3.389,1.852v0.782l-0.477,0.844
		l0.348,0.342l0.744,0.241l0.728,0.538l2.394,2.67l2.216,1.455l0.979,0.885l0.024,1.656l1.909,0.374l1.836,1.166l1.698,0.795
		l1.545-0.765l0.704,1.895l0.088,0.112l2.419,3.096l1.068,1.947l1.533,4.173l0.211,1.711l0.035,0.287l-0.671,1.726l1.306,0.899
		l0.061,1.302l-0.097,1.369l0.873,1.121v0.852l-0.128,1.365l-0.086,0.912l1.274,3.209l3.158,5.439l-0.004,2.148l4.383,8.833
		l0.793,3.084l0.065,0.447l0.177,1.211l-0.016,1.557l-0.518,1.227l-0.785,1.421l-0.396,1.632l0.679,1.87l-0.732,0.5l-0.287,0.858
		l-0.162,4.261l0.162,0.905l1.019,2.012l0.311,0.282l0.332-0.106l0.271,0.115l0.105,0.945l0.008,3.522l-0.093,0.945l-0.457,0.862
		l-1.108,0.557l0.566,1.542l-0.364,0.642l-0.145,0.064l-0.567,0.25l-0.518,0.528l-0.453,3.464l-0.372,0.481l-0.942,0.322
		l-0.19,0.826l0.315,2.299l0.073,1.39l-0.121,0.392l-1.06,2.347l-0.942,0.93l-0.74,0.392l-0.89,0.275l-0.76,0.409l-0.323,0.784
		l0.267,1.93l-0.186,0.614l-0.882,0.234l-0.93,0.421l0.158,0.964l1.435,2.367l0.493,0.66l0.461,0.777l0.251,0.987l-0.898,2.628
		l-0.461,2.784l-1.319,3.819l-0.21,0.608l-0.55,1.592l-0.623,0.408l-0.21,0.565l0.024,0.606l0.477,0.332l0.024,0.606l-0.971,3.956
		l-0.137,1.112l0.267,1.595l1.909,5.644l0.146,1.262l0.194,0.674l0.469,0.779l0.324,0.889l-0.17,0.854l-0.315,0.86l-0.105,0.889
		l0.218,0.831l0.695,1.429l0.154,0.424l-0.227,0.557l-1.035,0.749l-0.348,0.61l0.218,3.25l1.221,3.405l1.375,2.679l0.663,1.049
		l0.687,11.241l-0.154,1.799l0.485,1.452l-1.116,0.555l-2.572-0.023l-1.027,0.37l-1.294,0.942l-1.286,1.243l-0.987,1.26l4.371,2.334
		l1.795,1.398l1.314,2.379l0.299,0.693l0.194,0.237l0.105,0.26l0.041,3.762l0.55,1.142l2.078,2.52l1.051,1.291l0.173-0.019
		l1.76-0.189l2.289,1.291l1.529,2.092l-0.408,2.218l2.317,6.016l1.521,2.773l1.804,1.167l1.326,0.357l2.734,1.575l6.963,1.799
		l6.486,3.424l10.409,2.349l2.919-0.39l2.451-0.069l0.995-0.431l0.882-1.022l-2.22-1.022l-0.55-0.488l-0.368-0.822l-0.226-1.006
		l0.146-0.85l2.24-1.138l-0.121-1.673l0.089-1.593l2.078-0.518l1.213,0.42l2.058,1.472l1.779,0.322l0.999,0.707l1.286,1.385
		l1.553,0.92l1.795-0.667l0.356-0.77l0.239-2.144l0.473-0.954l0.562-0.426l0.687-0.201l1.735-0.063l1.059-0.535l4.02-3.331
		l3.19-0.921l1.347-0.61l1.124-1.174l0.647-0.311l1.892-0.121l0.396-0.322l0.291-0.795l0.663-0.801l1.181-1.031l1.682-0.928
		l1.286-0.052l1.27,0.242l1.642-0.029l0.679-0.259l0.687-0.478l0.607-0.582l0.453-0.582l0.728-0.501l0.849,0.19l0.857,0.449
		l0.768,0.242l6.017,0.617l10.882,3.952l3.651,3.299l0.922,0.507l1.731,1.634l1.318,3.814l0.404,4.328l-1.019,3.2l0.449,0.701
		l0.117,0.804l-0.178,0.827l-0.406,0.811l-0.694-0.149l-2.057,0.081v0.691l1.172,1.627l0.853,1.979l1.35,1.508l2.547,0.266
		l-1.802,1.91l-0.949,3.069l-0.637,9.748l-0.433,1.865l-1.032,3.143l-0.204,1.566l-0.102,1.791l-0.216,1.624l-0.548,1.057
		l0.509,2.37l-1.974,3.052l0.993,2.049l-0.522,1.343l-0.624,0.431l-0.739,0.121l-0.802,0.445l-1.108,1.697l-0.592,0.512
		l-1.547-0.835l-0.853,0.175l-0.828,0.413l-0.745,0.22l-15.264,2.397l-9.692,0.651l-2.815,0.933l-7.845,5.426l-2.305,2.259
		l-2.006,2.836l-0.535-0.82l0.076-1.626l-1.063-2.017l-0.497-1.708l1.751-0.735l1.891-0.341l2.878-1.498l3.12-0.78l1.758-1.234
		l1.414-1.925l0.471-2.496l-0.458-1.383l-1.006-1.468l-2.318-2.493l0.427,1.761l0.121,0.862l0.032,1.217l-1.242-0.27l-1.127,0.804
		l-1.032,0.341l-0.917-1.635l-0.35-2.03l-0.185-6.643l0.809-2.096l3.655-1.363l0.923-1.444l-0.694-1.134l-3.401-2.287l-1.025-0.428
		h-2.407l-2.439-0.824l-0.815,0.144l-0.28,0.567l-0.248,1.027l-0.458,0.982l-0.86,0.441l-1.738,0.122l-0.796,0.324l-2.878,2.754
		l-0.834,1.264l-0.458,2.325l0.121,0.634l0.726,0.553l0.178,0.742l-0.153,0.634l-0.357,0.297l-0.363,0.193l-0.153,0.346l0.229,0.984
		l0.554,0.845l0.624,0.584l1.764,0.768l3.783,3.983l-0.993,1.077l-0.439,0.296l-0.713,0.126l0.739,0.61l0.338,0.144v0.821
		l-0.974,0.642l-0.064,1.023l0.586,1.121l1.032,0.915l-0.764,0.579l-0.981,0.238l-3.477,0.134l-0.828,0.332l-4.725,2.941
		l-0.79,0.735l-0.745,1.537l-0.134,1.424l0.516,0.596l1.146-0.932l-0.325,1.335l-1.471,0.501l-0.344,1.585l0.236,1.764l0.662,0.497
		l4.152-0.752l1.872-1.128l1.713-1.692l1.611-2.109l-1.114-2.249l5.457,1.738l1.248,0.923l0.325,1.908l-0.643,2.194l-1.35,1.754
		l-1.828,0.564l1.382-1.853l1.274-2.104l0.21-1.827l-1.796-1.048v0.82l0.592,0.766l-0.172,0.349l-1.49,0.389l-1.14-0.752
		l-0.465-0.067l-0.344,0.305l-0.344,0.519l-0.382,0.748l-1.497,1.133l-2.445,2.614l-1.401,0.761l-3.789,1.959l-1.07,0.97
		l1.356-2.536l0.248-1.145l-1.165-0.17l-1.006,0.228l-0.713,0.765l-0.325,1.431h1.025l-0.484,1.105l0.299,0.859l0.783,0.63
		l1.051,0.402l-3.114,0.957l-1.203,1.091v1.707l0.35-0.523l0.529-0.541l0.236-0.438l1.108,0.635l1.025,0.867l-0.669,1.474
		l-0.955,2.787l-0.611,3l0.363,2.133l0.643,0.156l0.618-0.803l0.439-1.218l0.497-2.598l0.764-0.875l1.586-1.063l2.331-3.181
		l1.369-1.501l1.401-0.63l1.477-0.398l1.083-1.171l0.675-1.502l0.79-2.107l-0.509,2.147l-0.688,1.847l-5.139,9.935l-3.7,2.829
		l-7.056,9.519l-0.802,2.486l-0.248,1.336l-1.013-0.788l-1.235,0.543l-1.032,0.913l-0.809,1.255l-0.452,1.331l-0.217,1.526
		l-0.102,4.163l0.331,1.347l1.248,2.32l1.095,3.439l0.229,1.634l-0.255,0.95l0.535,0.755l-1.044-0.63l-0.981,0.266l-0.751,0.843
		l-0.42,1.07l0.516,2.028l1.305,8.823l1.337,5.615l0.038,0.646l-0.204,0.894l-0.713,1.018l-0.395,2.004l-1.102,3.171l-0.248,1.472
		l-1.872,3.743l-0.344,1.051l-1.242,5.965l-0.458,1.006l-0.248,1.019l0.369,1.032l-0.344,0.966l-0.178,1.089l-0.051,1.155
		l0.089,1.155l-0.363,1.058l-11.253,0.657l-16.693-2.9l-16.155-7.378l-2.645-2.094l-3.534-12.497l-1.86-3.136v-0.011l-4.351,0.511
		l-5.411,3.068l-5.135,1.269l-3.066-4.188l-0.5-0.684l-1.553-3.3l-1.787-0.641l-4.61,1.468l-14.921,0.129l-0.857-0.613l-1.512-2.672
		l-0.93-0.85l-4.408-2.11l-1.646-1.886l0.368-2.466l-1.279-0.994l-0.12-0.093l-1.909,0.18l-1.658-0.93l-8.241-1.662l-5.694-3.551
		l-2.03,1.302l-9.187,0.936l-7.408,4.423l-2.798,0.856h-3.522l-0.898,0.22l-1.557,0.985l-0.744,0.214l-1.569,0.186l-2.629,0.929
		l-15.523,2.294l-6.53,0.965l-1.707,0.252l-6.187,2.734l-6.316,1.642l-2.701,1.473l-2.887,3.243l-1.383,2.095l-0.574,1.679
		l-9.414,6.951l-0.744,1.27l-0.631,1.545l-3.688,4.716l-2.345,1.35l-2.588,2.685l-0.146,0.406l-1.82,3.023l-3.251,1.416l-0.52,0.017
		l-4.818,0.154l-1.399,0.999l-1.221,1.175l-1.674,1.032l-1.771,0.766l-1.472,0.355l-1.448,0.76l-1.779,0.182l-3.526-0.201
		l-0.494,0.089l-1.176,0.213l-3.235,1.445l-1.795,0.47l-3.405-0.458l-2.863-1.669l-2.685-2.083l-0.259-0.155L422,554.622
		l-3.211-0.783l-10.15-0.764l-9.228-3.321l-16.515,1.17l-3.68-0.537l-3.43-1.288l-12.647-4.751l-2.645-0.317l-2.75,0.894
		l-4.359,3.285l-1.351,0.417l-1.685,0.083l-13.876,0.684l-0.765-0.193l-27.363-6.909l-4.464-2.629l-1.731-0.339l-6.624,1.483
		l-1.194-0.201l-2.203-0.371l-8.451-4.686l-12.484-0.65l-7.095,1.009l-2.936,1.579l-2.742,0.589l-2.353,1.018l-6.205,0.556
		l-10.407,0.932l-2.41-0.575l-1.981-1.724l-0.97-2.056l-0.04-2.458l1.892-8.156l0.874-2.445l1.561-1.029l1.617-0.236l3.114-1.023
		l1.706-0.231l2.734-1.518l1.334-3.342l-0.712-3.349l-1.774-0.803l-1.582-0.717l-3.559-0.484l-2.831-1.245l-16.808-11.516
		l-0.071-0.048l-0.421-1.614l0.324-5.252l-0.623-1.486l-1.488-0.695l-3.235-0.463l-3-1.368l-2.62-2.25l-2.087-2.856l-1.375-3.175
		l-0.089-0.838l0.186-1.732l-0.073-0.821l-0.348-0.759l-1.642-1.518l-0.234-0.895l0.016-1.428l0.202-1.474l0.34-1.026l0.542-0.488
		l0.728-0.238l2.75-0.125l1.011-0.459l0.647-1.072l0.243-1.9l0.453-1.827l1.165-1.107l1.553-0.471l1.634,0.062l1.642,0.67
		l2.847,1.929l1.69,0.409l1.504-0.278l1.747-0.823l1.375-1.407l0.461-1.992l-3.947-4.424l-1.14-0.829l-6.179-0.75l-2.637-1.313
		l-2.677-2.177l-5.443-6.036l-1.156-0.683l-1.44-0.307l-1.917-0.074l-0.825,0.643l-2.725,3.005l-1.529,0.933l-3.243,0.739
		l-1.156,0.876l-0.461,1.729l-8.912,16.103l-1.019,1.072l-1.868,0.488l-1.69-0.193l-1.747-0.765l-1.359-1.333l-0.833-3.177
		l-0.72-0.715l-0.89-0.539l-0.825-0.778l-0.421-0.84l-0.286-1.387l-0.151-0.734l-0.162-0.786l-2.184-5.301l-0.776-0.773
		l-2.499-0.409l-7.076-3.708l-1.294-0.273l-1.342,0.358l-2.863,1.246l-3.51,0.728l-4.044,0.023l-3.825-1.166l-2.863-2.89
		l-0.736-1.986l-0.469-1.987l-0.679-1.76l-1.375-1.293l-1.537-0.439l-4.788,0.399l-6.656-0.746l-1.27-0.598l-1.359-2.912
		l-1.407-1.077l-0.062-0.027l-1.329-0.583l0.283-1.511l0.712-1.209l1.019-0.913l2.095-0.747l4.545,0.228l2.2-0.337l3.178-0.902
		l1.108-0.942l0.218-2.118l-0.631-1.787l-1.148-1.022l-2.725-1.068l-1.957-0.971l-3.761-0.663l-1.82-1.234l-0.049-0.6l0.194-0.732
		l-0.243-0.566l-1.326-0.069l-1.059-0.28l-0.162-0.932l0.372-1.144l0.566-0.881l0.776-0.395l1.998-0.143l0.817-0.286l0.987-0.824
		l0.251-0.532l0.04-0.778l0.307-1.557l0.235-0.464l0.663-0.802l0.218-0.464l0.049-0.55v-0.819l-0.049-0.687l-0.105-0.16l0.59-0.899
		l0.671-0.699l0.817-0.413l0.979-0.057l0.987-0.859l0.291-1.393l-0.356-1.468l-0.697-0.843l-1.956-2.368l-2.006-1.641l-2.208-1.205
		l-8.314-2.612l-3.3-0.103l-1.399-0.586l-2.596-1.838l-1.278-1.517l-2.669-3.959l-1.27-0.949l-0.801,0.201l-1.262,1.397l-0.76,0.362
		l-0.922-0.224l-0.687-0.621l-0.663-0.765l-0.809-0.638l-3.701-1.692l-2.753-1.259l-1.197-0.978l-3.017-4l-5.055-4.596l-2.556-3.769
		l-1.124-1.153l-1.294-0.634l-1.399-0.45l-1.132-0.755l-0.501-1.563l1.755-1.419l1.132-1.166l0.202-1.564l-1.003-2.586l-2.297-3.98
		l-0.283-1.826l0.607-2.798l0.865-2.047l0.315-0.966l0.21-1.585l-0.065-5.824l0.194-1.153l0.307-1.06l0.016-1.026l-0.647-1.095
		l-0.962-0.499l-0.865,0.359l-0.688,0.962l-0.461,1.298l-0.987,0.811l-1.051,0.319l-1.043-0.232l-0.938-0.863l-0.744-1.518
		l-1.795-2.319l-0.76-1.281l-0.189-0.719l-0.094-0.359l-0.17-2.286l-0.267-0.934l-0.55-0.702l-1.359-0.923l-0.55-0.522l-2.596-4.669
		l-1.205-1.208l-1.464-0.593l-2.984-0.331l-1.423-0.68l-4.117-3.826l-1.472-1l-3.073-1.373l-1.334-1.001l-1.197-1.816l-1.642-5.159
		l-0.938-1.69L30,289.023l3.162-4.032l12.592-0.35l1.909-3.077l3.194,0.73l3.097,1.302l2.281,2.101l0.776,0.531l0.946,0.362
		l0.582,0.017l4.416-0.934l1.528-0.782l1.197-1.331l0.421-1.115l0.014-0.248l0.075-1.37l0.388-0.841l0.59-0.216l0.728,0.257
		l0.744,0.117l0.631-0.631l0.008-0.906l-0.728-2.513l-0.04-1.064l0.34-0.631l3.065-2.555l0.694-0.376l0.883-0.478l1.642-0.462
		l1.569,0.07l0.728,0.374l1.407,1.205l0.639,0.31l0.776-0.07l1.148-0.643l0.534-0.17l1.399,0.298l2.92,1.269l1.545-0.059l0.712-0.31
		h0.671l0.615,0.31l0.542,0.655l1.529,1.327l1.407-0.538l3.736-4.556l0.501-0.263l2.289,0.018l0.752-0.591l0.898-1.72l0.671-2.189
		l0.324-5.043l0.792-2.461l1.318-1.548l1.528-0.545l3.316-0.144l1.812-1.387l-0.493-2.493l-2.289-4.376l0.194-2.34l1.1-1.804
		l1.351-1.713l0.97-2.084l0.307-4.361l0.445-2.151l1.197-1.448l1.674-0.43l2.879,0.224l1.69-0.901l1.626-2.15l0.526-1.484
		l0.153-0.431l0.841-1.338l2.135-0.377l1.569-0.89l1.423-2.128l0.267-2.253l-2.111-1.448l-0.235-0.218l-0.202-0.269l-0.17-0.322
		l0.073-0.688l0.178-0.667l0.267-0.611l0.348-0.543l1.674-4.609l1.003-1.861l1.634-1.537l2.855-0.771l0.809-0.706l0.655-1.461
		l-0.024-1.239l-0.267-1.222l-0.073-1.396l0.121-1.349l0.097-0.308l0.348-0.13l3.575-2.943l0.663-0.835l1.488-5.665l0.299-0.113
		l-0.049-0.119l-0.704-1.34l-0.542-0.445l-0.752-0.148l-0.671-0.326l-0.186-0.613l-0.114-0.375l3.057-3.679l1.747-1.659l3.858-2.577
		l1.585-1.565l0.526-1.013l0.388-2.029l0.348-1.043l0.744-1.1l1.731-1.656l0.655-0.925l0.477-1.419l-0.024-1.062l-0.186-1.041
		l0.024-1.336l0.324-1.277l0.906-1.709l0.412-1.048l0.898-4.13l0.477-1.347l3.025-4.423l1.423-1.608l1.407-0.865l3.486-1.033
		l1.569-3.204l-0.105-3.857l-0.687-4.006l-0.202-3.605l1.488-2.834l2.313-2.539l4.861-3.667l3.834-0.974l0.44-0.333l0.619-0.468
		l0.413-0.875l0.019-0.125l0.118-0.757l0.057-0.858l0.234-0.768l1.941-2.778l0.243-1.002l0.267-2.131l0.291-0.865l0.574-0.721
		l1.326-0.967l0.598-0.607l1.715-2.602l0.89-0.92l1.448-0.809l1.391-0.505l0.995-0.096l3.615,0.547l1.124-0.099l1.035-0.427
		l0.898-0.86l1.278-4.596l2.402-0.563l5.799,3.069l2.701,0.445l2.992-0.433l2.855-1.236l2.289-2.007l1.933-2.552l0.954-0.756
		l1.593-0.735l1.69-0.175l0.469-0.313l0.663-1.31l-0.154-0.853l-0.396-0.753l-0.032-0.997l0.841-1.576l1.254-0.88l3.138-1.17
		l1.278-1.182l1.965-3.662L236.174,77.922z"/>
</g>
<g id="Copyright">
	<text transform="matrix(1 0 0 1 681.6426 577.5916)" class="st1 st2">© Vemaps.com</text>
</g>
</svg>
