<?xml version="1.0" encoding="utf-8"?>
<!-- Generator: Adobe Illustrator 23.0.1, SVG Export Plug-In . SVG Version: 6.00 Build 0)  -->
<svg version="1.1" xmlns="http://www.w3.org/2000/svg" xmlns:xlink="http://www.w3.org/1999/xlink" x="0px" y="0px"
	 viewBox="0 0 800 600" style="enable-background:new 0 0 800 600;" xml:space="preserve">
<style type="text/css">
	.st0{fill:#808080;}
	.st1{font-family:'Roboto-Regular';}
	.st2{font-size:14px;}
</style>
<g id="Saudi_Arabia">
	<path class="st0" d="M577.478,291.285l2.276,3.776l1.481,1.684l1.565,0.667l1.867,0.269l1.761-0.011l1.618-0.551l2.11-1.697
		l0.073,0.28l1.593-0.234l0.291,0.192l0.256,0.359l0.273,0.198l0.35-0.281l0.033,0.265l-0.035,0.309l-0.122,0.255l-0.203,0.104
		l-0.175,0.173l0.061,0.366l0.144,0.333l0.083,0.064l-0.094,1.173l0.182,0.163l0.55-0.189l0.423-0.32l0.854-1.508l0.438-0.444
		l0.398-0.273l0.246-0.386l-0.018-0.787l0.458,0.24l0.572,0.05l0.481,0.109l0.205,0.421l0.152,0.453l0.38,0.063l0.484,0.006
		l0.474,0.295v0.255l-0.504,0.235l-0.643,0.198l-0.552,0.298l-0.233,0.546l-0.121,0.001l-0.709,0.784l-0.147,0.277l-0.157,0.451
		l-0.139,0.227l-1.839,1.368l-0.289,0.405l-0.083,0.164l-0.4,0.562l-0.154,0.303l-0.063,0.335l-0.066,0.758l-0.084,0.327
		l-0.015,0.196l0.028,0.229l-0.01,0.193l-0.117,0.082l-0.334-0.018l-0.147,0.031l-0.058,0.104l-0.023,0.735l0.03,0.383l0.106,0.164
		l1.953,0.176l0.712-0.176l0.382-0.239l0.261-0.225l0.289-0.169l0.469-0.067l2.059,0.431l0.557,0.429l0.909,1.025l1.345,0.413
		l0.193,1.312l-0.01,0.88l-0.064,2.187l0.167,0.886l0.466,0.802l1.772,2.308l1.621,2.112l1.624,2.112l1.621,2.112l1.624,2.107
		l1.624,2.108l1.624,2.105l1.621,2.108l1.624,2.105l1.621,2.103l1.624,2.104l1.621,2.104l1.624,2.101l1.619,2.098l1.624,2.1
		l1.623,2.099l1.624,2.098l1.669,2.15l0.622,0.547l0.766,0.252l5.002,0.668l4.326,0.578l4.326,0.578l4.33,0.577l4.326,0.577
		l4.326,0.578l4.33,0.577l4.326,0.577l4.326,0.577l4.333,0.578l4.326,0.578l4.326,0.575l4.329,0.577l4.323,0.579l4.326,0.575
		l4.329,0.575l4.329,0.579l4.255,0.566l0.47-0.084l2.068-2.703l1.978,3.308l2.512,4.209l2.518,4.205l2.512,4.201l2.515,4.196
		l1.653,2.759l0.322,0.734l0.016,0.77l-1.164,3.788l-0.155,0.504l-0.206,0.664l-0.576,1.871l-0.897,2.907l-1.164,3.766l-1.377,4.453
		l-1.537,4.965l-1.64,5.305l-0.4,1.289l-1.298,4.182l-1.698,5.466l-1.644,5.286l-1.534,4.939l-1.38,4.422l-1.164,3.736l-0.894,2.876
		l-0.579,1.85l-0.206,0.654l-1,3.2l-4.683,1.661l-5.327,1.889l-5.327,1.886l-5.32,1.885l-5.327,1.886l-5.33,1.885l-5.327,1.885
		l-5.323,1.885l-5.327,1.882l-5.323,1.883l-5.33,1.882l-5.323,1.882l-5.327,1.882l-5.33,1.879l-5.322,1.88l-5.323,1.879
		l-5.327,1.879l-3.464,1.218l-4.915,0.7l-4.986,0.709l-4.986,0.71l-4.986,0.709l-4.986,0.709l-4.982,0.71l-4.982,0.709l-4.99,0.707
		l-4.981,0.711l-4.986,0.708l-4.986,0.707l-4.986,0.71l-4.986,0.708l-4.982,0.708l-4.986,0.708l-4.986,0.708l-4.986,0.708
		l-4.016,0.572l-2.893,1.063l-1.386,0.717l-4.474,2.303l-5.34,2.746l-5.963,3.07l-5.346,2.747l-3.988,2.053l-0.7,0.492l-2.414,3.046
		l-2.826,3.544l-4.92,6.192l-4.645,5.832l-3.027,3.798l-0.526,1.01l-1.472,4.068l-2.081,5.757l-0.915,1.231l-0.031,0.042
		l-3.548,2.081l-3.818,2.245l-0.92,0.373l-1.013,0.143l-4.1-0.178l-0.436-0.019l-0.394-0.252l-2.631-3.668l-2.303-3.221l-2.01-2.812
		l-1.155-0.672l-6.916,0.958l-5.143,0.714l-7.552-0.78l-5.886-0.608l-7.734-0.797l-6.595-0.682l-1.422-0.472l-5.06-2.964
		l-1.766-0.359l-5.23-0.037l-0.774-0.005l-3.842-0.027l-6.304-0.042l-0.679,0.15l-1.951,0.742l-0.876,0.052l-2.136-0.443
		l-1.899-0.074l-3.012,0.319l-2.39,0.558l-0.592,0.041l-1.312-0.383l-0.634-0.081l-0.458,0.33l-0.455,0.807l-0.473,0.586
		l-0.595,0.278l-0.809-0.118l-1.195-0.618l-0.531-0.059l-0.672,0.359l-0.473,0.563l-0.399,0.637l-0.486,0.483l-0.733,0.109
		l-0.368-0.081l-0.185-0.099l-0.103-0.157l-0.124-0.261l0.08-0.649v-0.357l-0.185-0.086l-0.73,0.219l-0.544,0.025l-1.232-0.111
		l-1.164,0.133l-0.564-0.005l-0.622-0.221l-1.287-1.025l-2.171-2.446l-1.322-0.787l-2.293-0.995l-0.505-0.131l-1.058-0.042
		l-0.566-0.133l-0.687,0.094l-0.68,0.261l-2.737,1.727l-2.712,2.343l-1.496,1.848l-0.088,0.15l1.779,0.59l0.611,0.47l0.322,0.699
		l-0.111,0.653l-0.698,0.347l-0.711,0.162l-0.823,0.352l-0.645,0.515l-0.19,0.643l0.029,0.753l-0.177,0.661l-0.653,1.289
		l-0.183,0.675l0.125,0.525l0.244,0.542l0.177,0.718l-0.003,0.71l-0.135,0.624l-0.502,1.256l-0.209,0.809l0.122,0.551l0.656,1.269
		l0.376,1.188l0.359,0.296l1.155,0.323l0.32,0.252l0.211,0.353l0.042,0.422l-0.132,0.341l-0.235,0.171l-0.286,0.126l-0.28,0.203
		l-0.447,0.675l0.068,0.447l0.283,0.495l0.184,0.76l0.012,0.051l-0.19,0.606l-0.531,0.101l-1.25-0.383l-0.778-0.146l-0.399,0.17
		l-0.154,0.446l-0.042,0.687l-0.125,0.614l-0.804,2.121l-0.389,0.557l-0.672,0.507l-1.361,0.809l-0.457,0.164l-1.209,0.225
		l-0.331,0.144l-0.119,0.424l0.084,0.493l0.035,0.525l-0.267,0.52l-0.801,0.56l-1.094,0.468L327.932,570l-0.043-0.088l0.005-1.174
		l-0.218-0.337l0.426-1.058l-0.208-0.618l-1.509-1.71l-0.345-0.734l-0.116-0.622l0.03-1.423l0.365-1.385l-0.01-0.595l-0.562-0.138
		l0.208-0.242l-0.375-0.353l-0.312-0.5l-0.073-0.464l0.339-0.237l-0.19-0.325l-0.874-0.783l-0.198-0.234l-0.395-0.587l-0.729-0.819
		l-0.213-0.153l-0.995-0.55l-0.312-0.037l-0.344,0.182l-1.061-1.485l0.433-1.433l-0.223-0.523l0.003-1.598l-0.137-0.556
		l-0.301-0.195l-0.299-0.151l-0.132-0.432l-0.248-0.286l-0.567-0.045l-0.638,0.037l-0.443-0.04l-0.38-0.343l-0.312-0.524
		l-0.388-0.91l-0.139-0.477l-0.157-1.117l-0.147-0.447l-0.284-0.253l-1.401-0.616l0.078,0.562l0.225,0.517l0.547,0.922l-0.631,0.4
		l0.314,2.13l-0.339,0.601l-0.177-0.677l-0.018-2.232l-0.129-0.668l-0.418-1.267l-0.544-4.422l-0.2-0.781l-0.139-0.578l0.185-1.625
		l-0.046-0.693l-0.228-0.726l-0.198-0.303l-0.306-0.125l-0.319-0.016l-0.243-0.066l-0.157-0.159l-0.056-0.285l-0.193-0.374
		l-3.353-2.896l-0.281-0.092l-0.091,0.177l-0.213-0.282l-0.334-0.684l-0.615-0.873l-0.182-0.55l-0.129-0.253l-0.228-0.109
		l-0.707,0.149l-0.319-0.077l-0.137-0.407l-0.157-0.282l-1.347-1.41l-0.056,0.065l-0.195,0.09l-0.235,0.068h-0.172l-0.299-0.299
		l-0.957-1.375l-0.319-0.173l-1.844-1.744l-0.674,0.279l-1.165-0.815l-0.709,0.109l-0.289-0.858l-0.547-0.547l-0.669-0.463
		l-0.623-0.607l-1.307-1.68l-0.198-0.554l0.046-0.413l0.091-0.365l-0.051-0.261l-0.398-0.101l-0.228-0.097l-0.046-0.24l0.015-0.288
		l-0.048-0.248l-1.312-1.184l-0.479-0.678l0.281-0.615l-0.542-0.678l-0.223-0.36l-0.086-0.426l-0.137-0.189l-0.274-0.097
		l-0.175-0.201l0.144-0.509l-0.633-0.067l-0.603-0.157l0.089-0.141l0.048-0.108l0.074-0.095l0.175-0.104l-0.192-0.392l-0.279-0.185
		l-0.355-0.009l-0.431,0.141l0.2-0.308l0.152-0.316l0.03-0.288l-0.17-0.228l0.193-0.441l-0.182-0.223l-0.4-0.06l-0.481,0.053
		l0.099-0.448l-0.104-0.626l-0.231-0.623l-0.286-0.43l-0.142-0.392l-0.193-1.245l-0.086-0.266l-0.068-0.279l-0.048-1.758
		l-0.073-0.19l-0.089-0.142l-0.142-0.085l-0.228-0.029l-0.165-0.123l-0.058-0.278l-0.018-0.307l-0.058-0.211l-1.127-0.779
		l-0.17-0.208l-0.051-0.343l-0.152-0.406l-0.236-0.341l-0.484-0.216l-0.182-0.162l-0.139-0.16l-0.048-0.072l-0.193,0.065
		l-0.324,0.338l-0.122,0.063l-0.339-0.128l-0.344-0.212l-0.324-0.27l-0.251-0.305l-0.833-1.86l-0.352-0.505l-0.395-0.428
		l-0.197-0.381l-0.03-0.449l0.091-0.638l0.742-2.156l0.109-0.672l0.094-0.258l0.165-0.116l0.038-0.189l-0.296-0.466l-0.129-0.025
		l-0.689-0.372l-0.033-0.052l-1.274-0.317l-0.322-1.031l-0.018-0.194l-0.603-0.803l-0.139-0.106l-0.023-0.343l0.046-0.355
		l0.19-0.651l0.152-0.362l0.152-0.249l0.114-0.257l0.066-0.603l0.152-0.685l0.398-0.804l-0.271-0.489l-0.572-0.379l-0.616-0.26
		l-1.345-0.394l-0.555-0.389l-0.319-0.909l-0.441-0.697l-0.124-0.31l0.015-0.366l0.233-0.76l-0.02-0.32l-0.182-0.603l-0.046-0.333
		l-0.127-0.287l-0.57-0.311l-0.134-0.292l-0.137-0.698l-0.337-0.36l-0.479-0.256l-0.841-0.681l0.056-0.102l0.041-0.401l-0.071-0.331
		l-0.304-0.513l-0.071-0.282l-0.048-0.349l-0.17-0.53l0.02-0.369l0.21-0.333l0.289-0.265l0.152-0.242l-0.22-0.266l0.076-0.355
		l-0.066-0.345l-0.172-0.279l-0.071-0.395l-2.662-0.951l-0.737-0.4l-1.58-1.642l-0.755-0.409v-0.206l0.337,0.047l0.722,0.405
		l0.192-1.354l-0.081-1.655l-0.223-0.718l-1.431-2.081l-0.605-0.405l-1.601-0.19l-0.621,0.022l-0.281,0.318l0.36,0.834l-0.466-0.387
		l-0.403-0.692l-0.258-0.66l-0.028-0.295l-0.446-0.283l-1.266-1.865l-0.962-0.599l-0.203-0.21l0.03-0.238l0.39-0.873l-0.187-0.593
		l-0.37-0.353l-0.947-0.41l-1.17-0.72l-0.281-0.104l-0.286-0.452l-0.273-0.102l-0.284-0.158l-0.775-1.096l-0.251-0.127l-0.767-0.193
		l-0.268-0.031l-0.575-0.155l-0.631-0.371l-1.421-1.146l-1.112-1.268l0.208-0.48l-0.527-0.364l-0.815-0.231l-0.96-0.146
		l-0.182-0.166l-0.291-0.425l-0.486-0.441l-0.279-0.319l0.03-0.147l-0.324-0.203l-0.988-0.915l-0.504-0.242l-0.699,0.014
		l-0.772,0.135l-0.623,0.229l-0.261,0.281l-0.745-0.279l-1.33-0.806l-0.691-0.294l0.038,0.421l0.182,0.235l0.253,0.165l0.258,0.221
		l0.149,0.07l0.301,0.205l0.187,0.212l-0.2,0.098l-0.545-0.146l-3.044-1.874l-0.438-0.379l-0.408-0.196l-0.618-0.177l-0.567-0.269
		l-0.481-1.008l-0.537-0.523l-1.674-1.305l-0.843-0.842l-1.849-3.01l-0.613-0.517v-0.247l0.311,0.02l0.246-0.045l0.18-0.146
		l0.114-0.283l-0.479-0.087l-0.395-0.23l-0.722-0.695l-0.203-0.368l-0.185-0.972l-0.144-0.374l-1.041-1.182l-0.094-0.554
		l0.501-0.783l-1.079-0.368l-0.431-0.066l0.076,0.26l0.144,0.187l0.19,0.134l0.223,0.102l-0.61-0.196l-0.684-0.393l-0.408-0.501
		l0.218-0.523l-0.289-0.142l-0.129-0.202l0.028-0.252l0.177-0.293l0.137,0.257l0.238,0.187l0.316,0.13l0.372,0.087l-0.152-0.396
		l-0.046-0.181l-0.015-0.207l-0.061-0.316l-0.147-0.011l-0.21,0.062l-0.22-0.087l-0.418-0.604l-0.17-0.012l-0.051,0.617
		l-0.664-0.425l-0.891-0.715l-0.641-0.827l0.053-0.762l0.129,0.171l0.236,0.209l0.22,0.073l0.068-0.226l-0.106-0.395l-0.175-0.15
		l-0.228-0.077l-0.251-0.174l-0.299-0.148l-0.324,0.057l-0.329,0.134l-0.301,0.071l-0.008-0.133l-0.876-1.353l-0.197-0.483
		l-0.089-0.559l-0.018-0.802l-0.101-0.302l-0.425-0.292l-0.094-0.308l-0.038-0.399l-0.117-0.144l-0.203-0.069l-1.312-0.932
		l-0.344-0.388l-0.198-0.915l-0.289-0.655l-0.068-0.388l0.068-0.168l0.296-0.424l0.061-0.207l-0.215-0.481l-1.167-1.82l-0.428-0.261
		l-0.973-1.563l2.464-2.166l0.347-0.812l0.041-1.066l-0.238-0.966l-0.468-0.509v-0.185l0.334-0.294l-0.046-0.446l-0.504-1.108
		l-0.395,0.713l-0.319,0.09l-0.294-0.376l-0.284-0.678l0.23-0.207l-0.509-0.735l-0.111-0.981l0.046-1.043l-0.063-0.918l-0.334-0.908
		l0.061-0.496l0.585-0.217l0.167-0.192l0.157-0.454l0.015-0.525l-0.243-0.409l-0.238,0.698l-0.162,0.292l-0.238,0.155l-0.436,0.019
		l-0.101-0.161l0.008-0.264l-0.106-0.284l-0.2-0.183l-0.137-0.1l-0.127-0.131l-0.157-0.271l-0.094-0.31l-0.046-0.555l-0.091-0.28
		l-0.061-0.016l-0.365-0.213l-0.063-0.113l-0.086-0.254l-0.063-0.112l-1.055-1.341l-0.901-2.007l-0.571-2.824l0.044-0.642
		l0.824-0.311l0.842,1.081l0.606,0.008l0.135-0.742v-0.654l0.076-0.358l0.129-0.128l0.418-0.302l0.091-0.172l0.063-0.635
		l0.294-1.333l0.068-0.681h-0.195l-0.443,1.148l-0.213-0.493l0.106-0.366l0.205-0.361l0.114-0.49v-1.379l0.23-0.907l1.023-1.189
		l0.319-1.426l0.22-0.331l0.281-0.281l0.281-0.353l0.426-0.941l0.534-0.545l0.101-0.142v-0.425l-0.167-0.386l-0.304-0.219
		l-0.395,0.088l-0.21,0.326l-0.215,0.959l-0.201,0.345l-0.764,0.147l-0.032-0.965l0.4-1.407l-0.244-1.842l0.227-1.881l-0.234-0.923
		l-0.241-0.451l-0.861-1.185l-0.813-1.887l-0.605-1.009l-0.228-0.53l0.081-0.409l0.821-0.762l-0.051-0.264l-1.494-1.672
		l-0.608-0.503l-0.271,0.164l0.114,0.188l0.547,0.58l0.208,0.302l0.101,0.36l0.033,0.343l0.076,0.336l0.213,0.342l-0.23,0.231
		l-0.41-0.947l-0.867-1.352l-0.848-0.951l-1.606-2.924l0.005-0.458l0.91,0.499l1.01,2.248l0.55,0.176l0.339,0.21l0.299-0.048
		l0.243-0.242l0.182-0.382l-0.324-0.388l-0.527-1.02l-0.324-0.206l-0.228-0.098l-0.253-0.249l-0.192-0.338l-0.084-0.366
		l-0.271-0.536l-0.623-0.259l-0.709-0.175l-0.522-0.289l-0.626,0.128l-0.456-0.539l-0.638-1.436l0.347-0.344l0.263-0.45l0.177-0.494
		l0.063-0.474l-0.077-0.968l-0.147-0.521l-0.027-0.418l-0.364-0.168l-0.281,0.517l-0.389-0.738l-0.542-0.74l-0.574-1.127
		l-0.555-0.66l-0.233-0.746l-0.381-0.515l-0.087-0.46l-0.27-0.585l0.005-0.49l-0.235-1.013l-0.421-0.801l-0.398-0.981l-0.176-1.335
		l-0.117-0.953l-0.183-0.742l-0.072-0.605l-0.522-0.558l-0.23-0.376l-0.099-0.562l-0.043-0.553l-0.694,0.395l-0.306-0.199H196.3
		l0.03,0.569l0.294,0.298l0.783,0.29v0.235l-1.041-0.098l-0.683-0.641l-0.026-1.651l-1.381-1.792l-0.731-2.334l-0.218-0.773
		l-0.137-0.841l-0.228-0.789l-0.486-0.614l-0.309-0.158l-0.337-0.075l-0.52-0.176l-0.294-0.342l-0.144-0.489l-0.249-0.596
		l-0.378-0.491l-0.512-0.161l-0.504-0.144l-0.422-0.237l-0.305-0.238l-0.304-0.573l-0.505-0.598l-0.247-0.205l-0.513-0.374
		l-0.636-0.196l-0.51-0.068l-0.741-0.495l-0.402-0.301l-0.614-0.579l-0.592-0.749l-0.637-0.495l-0.531-0.493l-0.933-0.903
		l-0.251-0.126l-0.255-0.066l-0.277,0.126l-0.256,0.168l-0.701-0.485l-0.486-0.391l-1.281-0.819l-0.968-0.747l0.181-0.407
		l0.538-0.38l0.767-0.122l-0.305-0.309l-0.461,0.15l-0.589,0.302l-0.228-0.436l0.36-0.585l0.13-0.535l-0.332-0.13l-0.205,0.254
		l-0.383,0.074l-0.18,0.331l0.178,0.18l0.101,0.307l0.049,0.434l0.024,0.307l-0.18,0.203l-0.688-0.26l-0.945,0.25l-1.415-1.085
		l-0.428-0.394l-1.208-0.96l-0.278-0.69l-0.407-0.282l-0.535-0.257l-0.56-0.309l-0.457-0.435l-0.611-0.411l-0.74,0.023l-0.354-0.039
		l-0.466,0.35l-0.101,0.451l0.176,0.689l-1.326,0.047l-0.33-0.511l-0.917-0.436l-0.715,0.228l-0.687-0.716l-0.432-0.767
		l-0.687-0.971l-1.097-0.947l-0.356-1.15l0.308-0.689l0.23,0.077l0.613,0.41l0.257-0.536l-0.204-0.639l-4.277-6.26l-1.916-2.674
		l-0.907-1.212l-0.046-0.948l0.106-0.251l0.025-0.34l-0.03-0.34l-0.101-0.24l-0.228-0.112l-0.403,0.405l-0.327,0.047l-0.547-0.335
		l-0.403-0.552l-0.534-1.218l0.793,0.015l0.699,0.114l0.697,0.021l0.785-0.268l0.387-0.576l0.046-1.734l0.681-1.452l-0.091-0.774
		l-0.598-1.439l-0.197-0.825l0.197-2.025l-0.056-0.778l-0.165-0.734l-0.266-0.681l-0.365-0.633l-0.585-0.708l-0.357-0.341
		l-0.334-0.241l-0.294-0.272l-0.291-0.644l-0.261-0.272l-0.62-0.484l-0.615-0.681l-0.537-0.779l-0.375-0.768l-0.071-0.342
		l-0.066-0.771l-0.076-0.299l-0.205-0.315l-0.474-0.521l-0.149-0.341l0.547-0.394l-0.458-0.78l-1.383-1.414l-0.238-0.438
		l-0.501-1.468l-0.162-0.241l-0.425-0.282l-0.162-0.184l-0.043-0.197l0.03-0.428l-0.094-0.198l-0.271-0.416l-0.441-0.996
		l-0.243-0.378l-0.398-0.298l-0.909-0.374l-0.395-0.25l-1.223-1.967l-0.775-0.973l-0.676-0.052l-0.061,0.387l0.21,0.399l0.109,0.343
		l-0.365,0.214l-0.395-0.119l-0.955-0.685l-0.466-0.16l-0.279-0.186l-0.704-0.901l-0.195-0.331l-0.038-0.21l0.038-0.744l-0.068-0.2
		l-0.375-0.093l-0.193-0.17l-0.38-0.87l-0.04-0.811l0.296-0.773l0.654-0.756l0.41-0.708l0.114-0.948l-0.122-0.976l-0.296-0.795
		l-0.737-0.795l-0.988-0.519l-1.089-0.279l-1.031-0.085l-1.117-0.406l-0.745-0.99l-1.976-4.713l-0.714-1.212l-1.352-1.831
		l-2.3-5.688l-2.462-4.43l-1.484-1.904l-1.803-1.62l-0.826-0.949l-0.491-1.509l-0.937-1.653l-0.615-2.168l-0.562,0.156l-0.425-0.391
		l-0.732-1.194l-2.019-1.81l-2.495-3.255l-0.891-1.726l-0.101-0.28l-0.038-0.346l0.068-0.286l0.304-0.5l0.071-0.302l-0.152-0.42
		l-0.745-1.135l-2.616-3.126l-1.474-1.018l-0.38-0.338l-0.737-0.917l-0.836-1.377l-0.942-0.938l-1.185-2.204l-0.342-0.903
		l-0.114-0.711l-0.02-1.267l-0.185-0.66l-0.258-0.459l-1.026-1.089l-0.567-0.944l-0.8-2.149l-0.643-0.902l-0.294-0.198l-0.628-0.249
		l-0.243-0.165l-0.175-0.248l-0.139-0.478l-0.314-0.657l-0.137-1.004l-0.299-0.496l-1.611-1.814l-0.491-0.88l-0.299-0.337
		l-0.486-0.225l-1.509-1.205v0.242h-0.213l-0.344-0.469l0.403-0.357l0.701-0.308l0.537-0.333l0.329,0.159l-0.033-0.198l-0.296-0.551
		l-0.188-0.077l-0.861-0.188l-0.248-0.109h-0.213v0.241h-0.187l-0.127-0.218l-0.182-0.235l-0.22-0.189l-0.236-0.077l-0.555,0.023
		l-0.281-0.035l-0.365-0.382l-1.454-1.052l-0.309,0.231l-0.365-0.016h-0.329l0.086,0.198l0.117,0.172l0.142,0.136l-0.314-0.164
		l-0.347-0.24l-0.362-0.129l-0.37,0.172l-0.317,0.208l-0.945,0.284l-0.256,0.145l-0.185,0.185l-0.111,0.261h-0.213v-0.241h-0.213
		l-0.41,0.112l-0.631-0.119l-0.636,0.009l-0.428,0.501l-0.084-0.181l-0.025-0.003l-0.127-0.077v-0.241h0.236v-0.264l-0.119-0.244
		l0.157-0.201l0.289-0.152l0.289-0.103l-0.296-0.129l-0.301-0.042l-0.319,0.047l-0.355,0.123v0.243h0.23v0.24l-0.347,0.118
		l-0.228,0.241l-0.294,0.626l-0.096-0.148l-0.096-0.05l-0.106-0.017l-0.109-0.046l0.124-0.212l0.182-0.204l0.243-0.177l0.301-0.131
		l-0.018-0.135l-0.005-0.148l0.023-0.2l-0.441-0.02l-0.35,0.08l-0.225,0.224l-0.063,0.416l-0.17-0.101l-0.051-0.014l-0.046,0.043
		l-0.16,0.072l-0.013-0.113l0.015-0.233l-0.003-0.112h-0.18v0.24h-0.248l-0.157-0.3l-0.144-0.155l-0.152,0.016l-0.182,0.199
		l-0.286-0.22l-0.071-0.103l-0.192-0.281l-0.111-0.162l-0.19-0.439l-0.091,0.088l-0.119,0.092l-0.124,0.122l-0.109,0.18
		l-0.405-0.307l-0.111,0.155l-0.02,0.352l-0.099,0.283l-0.235,0.144l-0.418,0.181l-0.2,0.158v0.218l0.659,0.505v0.261l-0.203,0.014
		l-0.089,0.057l-0.046,0.077l-0.068,0.069l-0.253-0.218l-0.149,0.585l-0.028,0.455l-0.2,0.297l-0.684,0.108l0.053-0.168l0.03-0.026
		L73.601,177l0.096-0.077l-0.23-0.241l-0.137-0.505l-0.061-0.459l-0.015-0.853l-0.228-0.256l-0.762,0.324l0.139-0.418l-0.19-0.243
		l0.456-0.672l0.296-0.25l0.271-0.129l0.018-0.175l0.195-0.099l0.263-0.249l0.18-0.112l-0.195-0.241l0.091-0.187l0.117-0.141
		l0.167-0.096l0.243-0.059v0.164l-0.071,0.035l-0.086-0.01l-0.056,0.03l0.309,0.164l0.258,0.086l0.187-0.098l0.099-0.371h-0.175
		v-0.241l-0.223-0.224l0.046-0.234l0.238-0.191l0.344-0.095v-0.24l-0.106-0.309l0.301-1.623l0.119,0.07l0.215,0.089l0.106,0.082
		l-0.015-0.112l0.015-0.371l-0.18,0.122l-0.078,0.076l-0.182-0.197l0.626-0.607l0.633-1.168l0.481-1.278l0.329-1.663l0.608-0.92
		l0.228-1.057l0.223-0.598l0.893-1.551l-0.237-1.596l-0.085-1.675l-0.466-1.598l0.573-2.175l0.403-1.141l0.484-0.938v-0.221H79.88
		l0.529-0.919l0.076-0.429l-0.18-0.392v-0.223l0.352-1.086l-0.066-0.47l-0.517-0.163v-0.218l0.458-0.784l0.504-1.472l0.233-1.51
		l-0.35-0.895v-0.487l0.357-0.662l0.296-0.769l0.623-3.188l0.144-0.463l0.347-0.799l-0.046-0.222l0.046-0.509l0.299-0.3l0.719-0.406
		l-0.213-0.6l-0.081-0.784l0.117-0.521l0.365,0.199l0.036-0.115l0.005-0.099l0.04-0.052l0.152,0.022l-0.235-0.53l-0.084-0.604
		l0.126-0.528l3.452,0.607l3.696,0.644l4.841,0.839l4.326,0.752l4.619,0.798l3.679,0.641l1.773,0.309l3.586,0.62l3.236,0.561
		l0.852-0.033l0.798-0.326l3.377-2.794l3.29-2.73l3.619-3.002l2.4-1.991l1.997-3.391l1.94-3.296l1.431-2.434l1.721-2.932
		l0.743-0.803l0.856-0.43l2.699-0.564l2.77-0.575l4.477-0.935l4.442-0.928l4.165-0.869l3.667-0.763l0.669-0.598l1.383-3.384
		l1.029-2.507l1.119-2.728l0.913-2.237l0.405-0.652l0.721-0.604l3.38-1.905l3.76-2.117l2.277-1.28l0.209-0.129l0.029-0.011
		l0.013-0.015l-0.01-0.024l-1.541-1.813l-3.413-4.021l-3.419-4.024l-3.416-4.03l-3.413-4.037l-0.1-0.116l-0.096-0.116l-0.1-0.116
		l-0.097-0.115l-4.05-4.395l-3.989-4.331l-0.061-0.066l-4.05-4.407l-4.05-4.41l1.194-0.358l6.516-1.955l7.71-2.315l7.71-2.318
		l1.826-0.549l5.884-1.769l1.122-0.325l5.877-1.705l6.996-2.031l6.993-2.034l6.999-2.033l3.535-1.03l0.003,0.002v-0.006l1.078-0.457
		l3.696-3.524l0.605-0.458l0.315-0.103l0.09-0.029l0.09-0.03l0.087-0.03L214.906,30l6.156,1.058l6.153,1.059l6.153,1.059l6.15,1.057
		l2.496,0.427h0.007l0.003,0.002l0.006,0.002l10.611,2.051l1.676,0.658l1.734,1.015l3.201,1.92l2.728,1.639l2.734,1.633l2.731,1.638
		l2.728,1.635l2.731,1.634l2.731,1.631l2.728,1.632l2.734,1.633l2.728,1.631l2.728,1.63l2.731,1.629l2.734,1.629l2.728,1.626
		l2.728,1.627l2.734,1.626l2.728,1.626l2.776,1.651l2.062,1.797l2.634,2.285l2.628,2.284l2.628,2.282l2.631,2.281l2.95,2.571
		l2.946,2.567l2.949,2.569l0.606,0.527l2.343,2.036l0.003,0.002l0.003,0.002l0.003,0.002l3.291,2.69l2.744,2.245l2.741,2.24
		l2.742,2.24l2.744,2.239l3.564,2.906l3.567,2.904l3.567,2.902l3.564,2.901l1.51,1.228l2.056,1.671l3.566,2.895l3.564,2.893
		l3.564,2.892l2.966,2.403l2.967,2.403l2.97,2.4l2.961,2.4l2.395,1.934l0.199,0.076l0.199,0.079l0.195,0.079l0.204,0.077
		l2.847,0.257l2.483,0.227l2.477,0.223l2.475,0.227l2.478,0.224l3.191,0.291l3.188,0.288l3.191,0.291l3.189,0.288l3.189,0.288
		l3.191,0.291l3.191,0.289l3.188,0.289l2.374,0.215l2.367,0.214l2.372,0.217l2.372,0.214l3.278,0.296l1.361-0.29l0.814-0.173
		l0.547-0.117l1.361-0.291l1.364-0.291l3.477,0.432l3.474,0.431l3.472,0.432l3.482,0.434l3.098,0.408l3.101,0.41l3.101,0.41
		l3.098,0.409l1.737,0.231h0.003l0.016,0.004l0.003,0.001l0.381,0.653l1.499,2.568l1.726,4.74l0.145,0.895l0.119,1.913l0.299,1.081
		l0.425,1.046l0.471,0.803l0.664,0.615l0.714,0.505l0.582,0.61l0.259,0.94l1.671-0.016l5.532-0.059l5.534-0.059l5.534-0.057
		l5.526-0.057l0.735,0.78l0.385,0.277l0.805,0.372l0.122,0.257l0.284,1.549l0.005,1.184l-0.274,0.79l-0.714-0.262l-0.152,0.233
		l-0.038,0.102l-0.038,0.148l0.608,0.043l0.517-0.132l0.387-0.331l0.205-0.547l0.36,0.242l-0.018,0.317l-0.342,0.649l-0.19,0.924
		l-0.023,0.416l0.16,0.834l0.395,0.708l2.598,2.881l0.16,0.424l-0.448,0.677l-0.23,0.661l-0.028,0.692l0.175,0.753l0.311,0.561
		l0.985,1.361l0.208,0.366l-0.046,0.413l-0.038,0.133l0.489,0.297l1.064,0.482l0.339,0.039l1.064-0.039l0.273,0.08l0.623,0.344
		l0.375,0.079l0.127,0.095l-0.015,0.219l-0.101,0.244l-0.117,0.163l-0.2,0.092l-0.21-0.013l-0.228-0.079l-0.534,0.268l-0.139,0.225
		l0.04,0.49l0.299,0.47l0.623,0.642l0.714,0.568l0.575,0.245l0.015,0.156l0.699,1.055l1.254,1.249l0.147,0.355l-0.276,0.709
		l-0.038,0.447l0.025,0.414l0.104,0.18l-0.068,0.249l-0.281,0.558l-0.395,0.582l-0.423,0.313l0.218-0.412l0.046-0.296l-0.068-0.863
		l0.094-0.494l0.18-0.283l0.104-0.288l-0.147-0.507l-0.461,0.49l-0.507,1.308l-0.522,0.364l0.572-1.517l0.066-0.404l-0.154-0.666
		l-0.251,0.05l-0.263,0.478l-0.588,2.473l-0.02,0.567l-0.071,0.086l-0.106,0.232l0.038,0.192l0.352-0.029l0.172-0.169l0.22-0.589
		l0.228-0.223v1.569l0.124,0.373l0.289-0.049l0.294-0.299l0.162-0.373l0.218,0.386l0.035,0.466l-0.058,0.586l0.393,0.152
		l0.299-0.174l0.228-0.34l0.16-0.355l0.013,0.606l-0.066,0.215l-0.16,0.16l0.152,0.319l-0.033,0.214l-0.203,0.116l-0.342,0.026
		l0.317,0.769l0.109,0.213l-0.757-0.382l-0.314,0.006l-0.22,0.376l0.654,0.276l0.56-0.034l0.436-0.331l0.281-0.629h0.213l0.213,0.5
		l-0.38,0.386l-0.129,0.689l0.175,0.566l0.547,0.017l0.228-0.257l-0.137-0.246l-0.241-0.24l-0.063-0.237l0.243-0.323l0.334-0.183
		l0.717-0.171l0.605-0.057l0.41,0.203l1.109,1.032l1.147,0.594l0.304,0.419l-0.6,0.427l0.443,0.211l0.395-0.047l0.187-0.247
		l-0.175-0.397l0.524,0.237l0.542,0.149l1.183,0.094l0.261-0.076l0.552-0.33l0.251-0.074l0.327,0.04l0.616,0.18l0.337,0.04
		l0.628,0.187l0.479,0.447l0.714,1.022l0.225,0.197l0.223,0.123l0.205,0.148l0.195,0.273l0.078,0.267l0.061,0.625l0.091,0.283
		l-0.393,0.02l-0.233-0.171l-0.086-0.33l0.058-0.455h-0.213l-0.654,0.788l-1.715-0.183l-0.61,0.594h-0.228l-0.213-0.602
		l-0.539-0.006l-1.18,0.608l0.258,0.148l0.684,0.195l0.352,0.156l0.276,0.205l0.182,0.183l0.218,0.165l0.385,0.164l0.203,0.272
		l0.157,0.123l0.172-0.057l0.527-0.526l0.005-0.073l0.167-0.15l0.071-0.204l0.091-0.113l0.208,0.12l0.238,0.21l0.289,0.137
		l-0.218,0.485l-0.296,0.242l-0.307,0.175l-0.243,0.295l-0.091,0.385l-0.02,0.91l-0.083,0.402l0.332-0.091l0.365-0.194l0.36-0.262
		l0.314-0.291l0.355-0.125l0.415,0.117l0.641,0.368l-0.246,0.681l0.094,0.673l0.225,0.683l0.122,0.714l-0.061,1.496l0.172,0.629
		l0.527-0.074l-0.035,0.638l0.213,0.238l0.334-0.077l0.339-0.32l-0.157-0.524l0.281-0.336l0.484-0.031l0.451,0.413l0.192-0.261
		l0.165,0.395l-0.091,0.353l-0.17,0.372l-0.096,0.457l-0.106,0.268l-0.268,0.114l-0.347,0.006l-0.337-0.051l0.248,0.404l0.755,0.152
		l0.248,0.42l0.314-0.189l0.2-0.292l0.357-0.712l0.025,0.156l0.028,0.02l0.053-0.01l0.106,0.05l-0.312,0.625l0.258,0.104
		l0.793-0.251l0.486,0.088l0.841,0.366l0.501,0.044l-0.843-0.922l-0.256-0.548l0.466-0.461l0.385-0.016l0.301,0.195l0.273,0.232
		l0.311,0.088l0.243-0.108l0.603-0.609l-0.109,0.555l-0.286,0.85l-0.025,0.505l0.187,0.8l0.17,0.441l0.17,0.192l0.583,0.275
		l0.567,0.656l1.796,2.832l0.912,1.141l0.273,0.213l0.884,0.392l0.286,0.232l0.456,0.476l0.322,0.247l1.935,0.892l1.208,0.89
		l0.691,0.077l0.722-0.041l0.775,0.109l0.96,0.558l0.902,0.885l1.558,2.128l0.532,0.953l2.267,1.646l0.514,0.574l0.106,0.893
		l-1.406-1.258l-0.752-0.479l-1.702-0.213l-0.441-0.15l-0.301-0.391l-0.238-1.285l-0.273,0.218l-0.284,0.59l-0.147,0.566
		l-0.025,0.435l0.01,0.417l0.101,0.383l0.223,0.335l0.311,0.331l0.084,0.176l-0.129,2.13l0.046,0.581l0.838,2.647l0.35,0.562
		l0.512,0.505l0.567,0.354l2.669,0.928l0.912,0.817l0.55,1.182l0.228,1.584l-0.018,3.778l-0.117,0.824l-0.319,0.691l-0.61,0.391
		l-0.015-0.533l-0.243-0.182l-0.332,0.121l-0.276,0.381l0.2,0.872l-0.081,1.339l-0.248,1.361l-0.281,0.944l-0.484-0.364
		l-0.137-0.495l0.013-0.545l-0.048-0.51l-0.218-0.417l-0.279-0.276l-0.294-0.221l-0.253-0.267l-0.17-0.131h-0.144l-0.096-0.085
		l-0.061-0.961l-0.063-0.233l-0.122-0.27l-0.243-0.342l-0.38-0.38l-0.413-0.227l-0.355,0.118l-0.813,1.578l-0.251,0.22l-0.342,0.216
		l0.16,0.467l0.329,0.451l0.18,0.169l0.068,0.254l0.289,0.499l0.051,0.333l-0.104,0.086l-0.215,0.077l-0.218,0.142l-0.099,0.264
		l0.073,0.505l0.117,0.49l0.025,0.5l-0.215,0.537l0.524,0.182l0.441-0.275l0.223-0.52l-0.127-0.571l0.299,0.09l0.213,0.176
		l0.357,0.444l0.167,0.079l0.134-0.034l0.091,0.027l0.033,0.272l0.003,0.21l0.035,0.11l0.091,0.041l0.19,0.003l0.79,0.192
		l0.317,0.466l0.162,0.616l0.342,0.618v0.237l-0.621,0.65l0.329,1.622l0.734,1.79l0.621,1.155l1.872,2.258l0.785,1.31l0.319,1.641
		h-0.195l-0.544-1.644l-0.218-0.264l-0.377-0.086l-0.456-0.215l-0.388-0.266l-0.39-0.583l-0.491-0.391l-0.451-0.055l-0.104,0.675
		l0.228,0.482l0.798,0.582l0.251,0.351l0.165-0.348l0.048-0.146h0.213l1.183,2.485l3.546,4.59l0.818,0.722l-0.091-0.46l-0.205-0.536
		l-0.086-0.446l0.273-0.185l0.329-0.156l0.142,0.077l0.127,0.758l0.157,0.185l0.152,0.101l0.068,0.083l0.251,0.478l0.578,0.272
		l1.064,0.32l0.268,0.335l0.603,1.548l-0.233,0.235l0.38,0.53l0.42,0.912l0.349,0.992l0.147,0.761l-0.036,0.429l-0.162,0.765
		l-0.035,0.452l0.068,0.438l0.144,0.311l0.144,0.234l0.175,0.594l0.448,0.834l0.079,0.526l-0.193,1.406l0.251,1.397l0.271,0.794
		l0.329,0.411l0.238-0.663l0.805,0.668l0.846,1.075l0.352,0.562l0.524,0.518l0.615,2.268l0.783,0.515l0.618,0.591l0.268,1.312
		l0.071,2.1l0.129,0.398l0.266,0.598l0.329,0.573l0.334,0.323l0.461-0.01L577.478,291.285z M309.164,559.138l-0.004,0.459
		l-0.089,0.584l-0.215,0.708l0.079,0.544l0.284,0.963l-0.31,0.655l0.01,0.053l-0.707-0.049l-0.867-1.052l-0.707-0.257l-0.667-0.047
		l-0.331-0.295l0.879-0.368l0.504-0.413l-0.203-0.67l-0.789-0.424l-0.794,0.119l-0.919,0.076l-0.628,0.162l-0.587,0.329
		l-0.503,0.288l-0.625-0.213l-0.704-0.674l-0.497-0.463l-0.709-0.172l-0.831-0.591l-0.748-0.59l-0.372-0.671l-0.202-1.004
		l-0.541-0.38l-0.544-0.004l-0.371-0.086l0.081-0.216l-0.038-0.703l-0.456-0.588l-0.289-0.629l0.046-0.585l0.46,0.129l0.166,0.252
		l0.375,0.295l1.21,0.552l0.664,0.757l0.331,0.462l0.12,0.794l-0.019,0.375l0.555,0.631l0.539,0.463l0.208,0.127l1.128-0.117
		l0.371,0.587l0.626,0.047l0.628-0.204l0.543-0.037l0.373,0.379l-0.003,0.376l0.376,0.003l0.922-0.41l-0.875-0.174l-0.459-0.717
		l0.377-0.586l0.233-0.926l0.203-0.318l0.446-0.069l0.197,0.079l0.248,0.1l0.858,0.532l0.037,0.543l0.412,0.672l-0.061,0.349
		l0.766,0.116l0.203,0.628L309.164,559.138z M300.838,556.355l-0.457-0.379l-0.455-0.588l-0.787-1.008l-0.662-0.924l-0.251-0.368
		v-0.003l0.35-0.31l0.752-0.045l0.547-0.167l0.403-0.344l0.314-0.574l0.319,0.026l0.058,0.005l0.167-0.646l-0.236-0.783
		l-0.418-0.191l-0.418-0.191l-0.403-0.033l-0.702-0.154l-0.385-0.034l-0.076-0.143l0.238-0.262l0.294-0.12l0.076,0.282l1.008,0.099
		l0.793,0.322l0.529,0.622l0.028,0.132l0.19,0.863l0.01,0.619l-0.173,0.709l0.121,0.586l1.001,0.259l0.287,0.712l-1.279,0.019
		l-0.367,0.476l0.182,0.553l0.762,0.267l0.433,0.265l0.587,0.26l0.203,0.795l-0.003,0.376l-0.914-0.55l-1.125-0.343L300.838,556.355
		z M538.812,201.031l0.613,0.261l1.659,0.479l1.568,0.453l-0.572,0.219l-0.476-0.111l-0.458-0.224l-0.517-0.121l-0.514,0.07
		l-0.481,0.198l-0.441,0.298l-0.38,0.368l-0.248-0.269l-0.033,0.023l-0.144,0.028l-0.253-0.184l-0.167-0.076l-0.005-0.001v-0.218
		l0.415-0.18l0.081-0.191l-0.132-0.217l-0.134-0.135l-0.124-0.124l-0.319-0.151l-0.342,0.054l-0.332,0.131l-0.291,0.074
		l-0.395,0.163l-0.393,0.413l-0.344,0.55l-0.238,0.57l-0.081-0.912l0.578-0.898l0.904-0.649l0.935-0.173l0.349,0.061l0.266,0.128
		L538.812,201.031z M148.589,268.16l0.327,0.269l0.154,0.153l-0.071,0.032l-0.137-0.06l-0.236-0.039l-0.028,0.143l0.127,0.221
		l-0.248-0.038l-0.613-0.402l-0.157-0.376l0.053-0.233l-0.301-0.032l-0.383,0.109l-0.213-0.287l-0.152-0.471h-0.281l-0.342,0.244
		l-0.068-0.238l0.233-0.645l0.299-0.353l0.38-0.003l0.43,0.063l0.367,0.227l0.301,0.675l0.2-0.025l0.068-0.245l0.129,0.17
		L148.589,268.16z M145.953,268.203l0.504-0.022l0.096,0.156l-0.57,0.31l-0.241,0.191l-0.329,0.374l-0.311,0.627l-0.469,0.34
		l-0.656-0.437l-0.59-0.66l-0.567-0.45l-1.251-1.342l-0.081-0.087L141.376,267v-0.128l0.061,0.013l0.063-0.072l-0.058-0.201
		l-0.299-0.342l-0.357-0.508l0.013-0.25l0.329,0.08l0.304,0.259l0.57,0.713l0.266,0.208l0.57,0.314l1.092,0.475l0.522,0.139
		l0.39,0.045l0.289,0.17l0.142,0.245l-0.648,0.025l-0.096,0.444l0.248,0.408l0.372-0.095l0.38-0.422L145.953,268.203z
		 M143.065,264.251l-0.296-0.097l-0.4-0.392l0.061-0.488l0.385-0.299l0.446,0.059l0.339,0.372l-0.015,0.401l-0.329,0.317
		L143.065,264.251z M141.224,265.463l-0.299-0.224l-0.147-0.039l-0.142-0.053l-0.167-0.247l-0.018-0.345l-0.276-0.095l-0.436-0.076
		l-0.081-0.121l0.127,0.043l-0.033-0.153l-0.266-0.371l-0.471-0.312l-0.557,0.034l-0.253,0.154l-0.137,0.132l-0.238,0.077
		l0.008-0.321l0.306-0.474l0.484-0.139l0.585,0.209l1.54,1.027l0.172,0.264l0.162,0.404l0.474,0.289l0.486,0.181l0.697,0.429
		l1.104,0.917l0.274,0.31l-0.046,0.123l-0.122,0.105l0.038,0.15l-0.167-0.09l-0.479-0.376l-0.415-0.261l-0.319-0.08l-0.127-0.219
		l-0.165-0.38l-0.289-0.143l-0.2,0.086l-0.284-0.093L141.224,265.463z M144.664,263.689l-0.041-0.983l-0.04-0.216l0.003-0.393
		l0.2-0.267l0.304-0.119l0.268,0.131l0.147,0.337l0.02,0.32l-0.081,0.25l-0.144,0.011l-0.19-0.149l-0.035,0.06l0.081,0.254
		l-0.02,0.118l-0.071-0.039l0.213,0.484l0.223,0.918l-0.137,0.313l-0.349-0.536l-0.203-0.143L144.664,263.689z M137.891,262.895
		l-0.035,0.206l-0.185,0.4l-0.261,0.173l-0.208-0.105l-0.41-0.299l-2.492-1.276l-0.674-0.164l-0.208,0.484l-0.309-0.16l-0.59-0.573
		l-0.398-0.468l-0.195-0.729l0.256-0.603l0.77-0.802l0.339-0.427l0.258-0.163l0.051,0.221l-0.182,0.398l-0.522,0.787l0.04,0.32
		l0.22,0.286l0.215,0.164l0.187,0.007l0.152,0.062l0.16,0.225l0.251,0.143l0.258,0.094l0.805,0.836l0.41,0.301l0.42,0.035
		l0.256-0.066l0.084,0.084l0.023,0.244l0.106,0.286l0.286,0.126l0.273-0.031l0.046-0.025l-0.101-0.039l0.02-0.15l0.144-0.139
		l0.258,0.038L137.891,262.895z M133.57,257.405l-0.048-0.276l-0.083-0.731l0.076-1.433l0.496-1.19l0.785-0.744l0.223-0.092
		l-0.415,0.414l-0.339,0.539l-0.256,0.594l-0.091,0.674l0.271,0.606l0.595,0.571l0.236,0.101l0.218,0.034l-0.015,0.23l-0.268,0.456
		l-0.101,0.45l0.038,0.197l0.053,0.191l0.238,0.186l0.36-0.082l0.109,0.062l-0.17,0.288l-0.314,0.156l-0.39-0.072l-0.623-0.504
		l-0.349-0.225L133.57,257.405z"/>
</g>
<g id="Copyright">
	<text transform="matrix(1 0 0 1 681.6426 577.5916)" class="st1 st2">© Vemaps.com</text>
</g>
</svg>
