<?xml version="1.0" encoding="utf-8"?>
<!-- Generator: Adobe Illustrator 23.0.1, SVG Export Plug-In . SVG Version: 6.00 Build 0)  -->
<svg version="1.1" xmlns="http://www.w3.org/2000/svg" xmlns:xlink="http://www.w3.org/1999/xlink" x="0px" y="0px"
	 viewBox="0 0 800 600" style="enable-background:new 0 0 800 600;" xml:space="preserve">
<style type="text/css">
	.st0{fill:#808080;}
	.st1{font-family:'Roboto-Regular';}
	.st2{font-size:14px;}
</style>
<g id="Sweden">
	<path class="st0" d="M453.872,30l0.943,0.917l2.162,0.349l1.238,1.256l0.852,0.281l0.421,0.691l-0.006,0.901l-0.296,0.806
		l-0.544,0.296l-0.056,1.021l0.382,0.606l3.001,1.26l1.456,1.385l1.15,1.223l1.066,2.036l0.227,0.319l0.097,0.09l0.13,0.448
		l0.08,0.17l0.168,0.087l1.284,0.01l0.369,0.247l0.16,0.504l0.108,0.56L468.81,47l0.218,0.477l0.578,0.564l1.385,0.402l1.607,1.677
		l0.997,0.708l0.365,1.548l3.284,0.972l0.807,1.05l0.106,0.301l0.516,0.739l0.246,0.463l0.218,0.295l0.082,0.053l0.132,0.14
		l0.024,0.318l-0.013,0.351l0.03,0.229l0.609,0.554l4.164,0.043l1.226,0.381l0.063,0.109l-0.011,0.482l0.073,0.109l1.422,0.114
		l1.163,0.667l0.79,0.094l0.766,0.558l0.328-0.008l0.317-0.109l0.339-0.005l0.505,0.522l0.52,0.881l0.533,0.65l1.075-0.46
		l0.453,0.496l0.753,1.648l0.516,0.707l2.676,1.874l0.267,0.388l0.119,0.406l0.052,0.395l0.093,0.415l0.239,0.476l0.815,1.038
		l0.274,0.814l-0.104,1.137l0.164,0.356l0.022,0.386l-0.095,1.21l-0.084,0.433l-0.007,0.263l0.041,0.443l0.052,0.093l0.076,0.037
		l0.123,0.268l0.389-0.01l1.53-1.101l0.621-0.03l0.241,0.355l0.199,0.508l0.727,2.868l0.065,0.409l0.147,0.421l1.34,1.298
		l0.494,0.406l1.605,2.049l1.253,0.487l0.343,0.613l-0.017,0.844l-0.453,0.93l-0.591,0.503l-1.277,0.471l-0.608,0.527l-0.317,0.839
		l-0.082,1.115l0.054,1.163l0.09,0.992l-0.002,2.815l0.069,0.588l0.199,0.752l0.203,1.888l0.145,0.78l0.429,1.239l0.14,0.747
		l0.058,1.13l-0.326,0.474l-0.649,0.506l-0.47,0.535l0.203,0.569l-0.337,0.968l-0.406,0.836l-0.22,0.905l0.224,1.153l0.604,0.809
		l0.669-0.047l0.714-0.338l0.734-0.075l1.228,0.817l1.228,0.226l0.393,0.193l0.227,0.34l-0.035,1.058l-0.214,1.313l0.002,1.092
		l0.617,0.408l-0.404,1.451l-0.501,0.785l-2.041,0.965l-0.352,0.409l-0.147,0.739l-0.056,0.904l0.095,0.328l0.328,0.185
		l-0.142,0.594l-0.172,0.51l-0.199,0.436l-0.225,0.365l0.132,0.924l0.317,0.596l0.389,0.512l0.492,0.96l0.185,0.211l0.155,0.283
		l0.065,0.503l0.007,0.595l0.035,0.395l0.074,0.334l0.129,0.415l0.658,1.509l0.423,0.731l0.322,0.311l0.548,0.247l0.444,0.62
		l1.027,2.342l0.699,0.977l0.378,0.673l0.496,1.234l0.729,2.267l0.05,0.331l-0.088,0.408l-0.267,0.151l-0.421-0.026l-0.393,0.111
		l-0.261,0.83l-0.583,1.008l-0.013,0.335l0.203,1.674l0.004,0.938l-0.075,0.908l-0.134,0.842l-0.175,0.731l0.13,0.806l0.075,0.819
		l-0.032,0.779l-0.173,0.696l-0.373,0.405l-0.966,0.695l-0.028,0.503l-0.365,0.44l-0.555,0.297l-0.432,0.395v0.722l-0.451,0.189
		l-0.527,0.405l-0.44,0.685l-0.183,1.019l0.078,0.55l0.347,0.834l0.078,0.462l0.026,0.608l0.097,0.817l-0.011,0.612l-0.061,0.471
		l-0.155,0.59l-0.03,0.443l0.058,0.496l0.265,1.008l0.159,1.165l0.626,2.253l0.466,0.758l0.641,0.579l1.871,0.695l0.399,0.557
		l0.977,2.985l0.162,0.391l0.19,0.287l0.438,0.478l0.185,0.296l0.183,0.62l0.46,2.209l0.03,0.667l-0.039,0.982l0.382,0.88
		l0.475,0.859l0.399,1.752l0.703,1.239l-0.006,0.797l-0.411,0.801l-0.634,0.118l-1.306-0.347l0.114,0.267l0.032,0.138l0.053,0.088
		l0.17,0.109l-0.44,0.261l-0.878-0.209l-0.417,0.252l-0.101,0.265l-0.137,0.728l-0.132,0.234l-0.182,0.036l-0.15-0.122l-0.141-0.164
		l-0.285-0.136l-0.164-0.159l-0.139-0.236l-0.06-0.299l-0.045-0.399h-0.11l-0.2,0.252l-0.883-0.014l-0.431-0.157l-0.185-0.569
		l-0.172-0.716l-0.407-0.31l-0.888-0.038l-0.274,0.21l-0.464,0.983l-0.248,0.308l-0.22-0.007l-0.128-0.208l-0.082-0.243
		l-0.073-0.143l-1.435-0.012l-0.791-0.258l0.116-0.613l-0.126-0.202l-0.244,0.047l-0.229,0.14l0.015,0.075l-0.148,0.554l-0.123,0.14
		l-0.125,0.059l-0.131,0.113l-0.125,0.288l0.202,0.195l0.082,0.242l0.007,0.322l-0.035,0.444l-0.051,0.361l-0.09,0.059l-0.175-0.084
		l-0.305-0.064l-0.304-0.286l-0.194-0.669l-0.069-0.788l0.069-0.632l-0.387,0.059l-0.266,0.365l-0.22,0.446l-0.246,0.303
		l-0.405,0.009l-0.377-0.32l-0.696-0.861l-0.304-0.192l-0.314,0.004l-0.22,0.323l-0.025,0.766l0.151,0.544l0.27,0.376l0.575,0.554
		l-0.283,0.223l-1.145,0.588l-0.185,0.204l-0.357,0.511l0.02,0.83l-0.478,0.455l-0.437-0.112l0.144-0.899l-0.517-1.2l-0.22-0.27
		l-1.013-0.136l-0.825-0.485l-0.144-0.145l-0.382-0.766l-0.249-0.115l-0.421,0.166l-0.315-0.052l-0.415-0.512l-0.564-1.801
		l-0.374-0.694l-2.022-1.827l-0.361-0.119l-0.337,0.14l0.229,0.447l0.461,0.587l0.173,0.472l0.057,0.379l0.066,1.124l0.073,0.575
		l0.081,0.428l0.04,0.451l-0.059,0.651l-0.139,0.594l-0.201,0.479l-0.249,0.316l-0.282,0.107l0.088-1.01l-0.452-0.54l-1.048-0.251
		l-0.25,0.172l-0.6,0.691l-0.203,0.068l-0.107-0.383l0.109-0.487l0.203-0.437l0.166-0.226l-0.245-0.57l-0.267-0.367l-0.607-0.538
		l0.045-0.161l0.088-0.441l-1.294-0.31l-0.638,0.097l-0.048,0.816l-0.748,0.274l0.748,1.2l-0.053,0.525l-0.239,0.055l-0.58-0.251
		l0.207,0.41l0.27,0.95l0.272,0.443l-0.624,1.129l-0.731-0.346l-0.737-0.74l-0.638-0.043l0.379,0.699l0.354,0.42l0.423,0.229
		l1.195,0.278l0.402,0.348l0.267,0.701l0.204,1.215l-0.229-0.045l-0.224,0.027l-0.216,0.118l-0.202,0.228l-0.183-1.062l-0.389-0.506
		l-0.475-0.029l-0.432,0.371l0.139,0.225l0.05,0.292l-0.047,0.337l-0.142,0.372l0.139,0.242l0.125,0.37l0.229,0.852l-0.412,0.261
		l-1.313,0.064l1.325,0.539l0.684,0.011l0.333-0.875l-0.089-0.448l-0.443-0.609l-0.084-0.408l0.148-0.378l0.279,0.187l0.285,0.429
		l0.161,0.36l-0.133,0.269l0.982,0.489l0.075,0.27l-0.801,0.654l-0.122,0.378l0.185,0.373l0.404,0.293l0.703,0.252l0.116,0.181
		l0.131,0.429l0.186,0.88l-0.427,0.307l-0.332-0.353l-0.307-0.557l-0.357-0.287l-0.537-0.112l-0.393-0.215l-0.426-0.479
		l-0.214-0.075l-0.222,0.281l0.106,0.616l-0.511-0.133l-1.836-1.381l-1.356-0.594l-0.54-0.77l-0.273-0.299l-0.763-0.215l-0.613-0.73
		l-1.118-0.399l-0.271-0.253l-0.167-0.242l-0.374-0.838l-0.238-0.335l-0.566-0.389l-0.252-0.362l0.426,1.798l1.085,1.128
		l2.206,1.286l1.488,1.48l1.189,0.618l0.251,0.231l0.273,0.383l0.404,0.713l0.239,0.195l0.354-0.018l-0.47,0.401l-1.011,0.012
		l-0.5,0.181l-0.164,0.154l-0.035,0.113l-0.015,0.168l-0.1,0.324l-0.176,0.156l-0.164-0.204l-0.166-0.26l-0.169-0.005l-0.487,0.331
		l-2.462-0.843l-0.382,0.066l0.842,1.482l0.499,0.515l0.405-0.239l-0.37-0.483l-0.147-0.085l0.458-0.062l1.036,1.415l0.487,0.428
		l-0.135,0.601l-0.094,0.516l-0.129,0.403l-0.255,0.258l-0.295-0.032l-0.273-0.3l-0.43-0.851l-0.179,0.521l0.065,0.447l0.126,0.413
		l-0.012,0.422l-0.261,0.333l-0.374,0.058l-0.333-0.212l-0.138-0.476l-0.54,0.481l-0.54,0.282l-0.555,0.04l-1.52-0.624l-0.317,0.093
		l0.258,0.615l-0.839,0.042l-0.451-0.125l-0.38-0.806l-0.421,0.019l-0.762,0.277v0.27l0.74,0.349l0.255-0.026v0.27l-1.3-0.212
		l-0.693,0.148l-0.345,0.682l0.11,0.051l0.161,0.176l0.085,0.067l-0.737,0.591l0.376,0.113l0.393,0.271l0.361,0.419l0.285,0.54
		l0.282,0.325l0.409,0.118l0.33-0.22l0.035-0.678l0.339,0.127l0.317,0.313l0.577,0.764l0.59,0.516l0.264,0.472l-0.044,0.618
		l-0.561,0.81l-0.818,0.515l-0.826,0.116l-0.587-0.396l-0.18-0.44l-0.333-1.116l-0.226-0.532l-0.249-0.421l-0.276-0.369
		l-0.323-0.263l-0.376-0.1l-0.48-0.464l-0.55-0.945l-0.593-0.768l-0.6,0.085l0.098,0.056l0.173,0.173l0.098,0.067l-0.239,0.546
		l-0.751,0.058l-0.242,0.579l2.289,0.64l0.555,0.564l1.085,2.062l0.998,1.295l1.303,2.668l0.161,0.894l-0.342,0.384l-0.999,0.07
		l0.229,0.269l0.103,0.372l-0.012,0.45l-0.332,1.239l0.1,0.235h0.001l0.286,0.085l0.373,0.275l-0.411,0.338l-1.513-0.045
		l-0.22,0.292l0.186,0.64l0.316,0.607l0.154,0.208l-0.561,0.511l-0.166,0.075l-0.185-0.07l-0.352-0.24l-0.203,0.016v0.078
		l-0.034,0.188l-0.05,0.201l-0.048,0.116l-0.31,0.279l-0.261,0.333l-0.068,0.392l0.267,0.451l-0.296,0.288l-2.194,0.14l-0.229,0.154
		l-0.035,0.329l0.106,0.249l0.088,0.296l-0.097,0.459l-0.142,0.308l-0.2,0.339l-0.229,0.265l-0.23,0.078l0.183,1.127l-0.355,0.46
		l-0.364,0.328l0.156,0.746l-0.289,0.255l-0.621,0.269l-0.321,0.031l-0.283-0.204l-0.106-0.459l-0.035-0.497l-0.078-0.318
		l-0.291-0.135l-0.28,0.173l-0.208,0.416l-0.084,0.601l0.09,0.543l0.223,0.231l0.55,0.224l-0.075,0.441l-0.038,0.164l0.329,0.405
		l0.321,0.164l0.703,0.01l1.146-0.341l1.149,0.529l0.443,0.358l0.116,0.611l-0.23,0.212l-0.923-0.083l-0.345,0.131l0.308,0.712
		l0.379,0.564l0.812,0.769v0.289l-0.298,0.015l-0.126,0.221l0.047,0.316l0.245,0.312v0.262l-0.474-0.218l-0.854-0.975l-0.459-0.223
		l-0.379-0.314l-0.36-0.627l-0.379-0.481l-0.433,0.139l-0.194,0.562l0.037,0.718l0.208,0.688l0.318,0.468l0.502,0.172l0.603,0.055
		l0.546,0.232l0.33,0.72l-0.335,0.057l0.009,0.406l0.233,0.462l0.338,0.226l0.389,0.021l0.175,0.077l0.178,0.161l0.095,0.204
		l0.156,0.546l0.062,0.111l0.144,0.133l0.247,0.595l0.169,0.133l0.172-0.113l0.047-0.227l-0.034-0.198l-0.062-0.01l0.123-0.513
		l0.025-0.397l0.103-0.157l0.364,0.209l0.371,0.561l0.405,0.779l0.33,0.362l0.211-1.044l0.164-0.005l0.166,0.169l0.075,0.18v0.979
		l0.207,0.49l0.251,0.297l0.302,0.125l0.361-0.026l-0.226,0.276l-0.25,0.22l-0.263,0.082l-0.26-0.152l-0.462-0.857l-0.141-0.143
		l-0.876,0.799l-0.505,0.321l-0.222-0.406l-0.051-0.29l-0.123-0.142l-0.144,0.005l-0.122,0.143l-0.046,0.26l0.106,0.102l0.248,0.065
		l0.345,0.74l0.236,0.215l0.225-0.251l0.197-0.145l0.734-0.099l0.232,0.085l0.065,0.181l0.142,0.694l0.04,0.296l-0.217,0.642
		l0.035,0.453l0.222,0.272l0.335,0.089l0.169-0.133l0.201-0.592l0.119-0.133l0.373,0.097l0.367,0.189l-0.112-0.598h0.244
		l0.211,0.209l0.138,0.398l0.021,0.562l-0.115,0.408l-0.207,0.056h-0.242l-0.242,0.25l-0.203,0.281l-0.448,0.277l-0.213,0.296
		l-1.021,1.796l-0.731,0.773l-0.345,0.553l-0.44,0.393l-0.386-0.403l-0.33-0.654l-0.27-0.346l0.076,0.371l0.026,0.356l-0.026,0.354
		l-0.076,0.366l0.116,0.129l0.048,0.137l0.031,0.154l0.062,0.176l-0.295,0.122l-0.517,0.406l-0.308,0.037l-0.258-0.154l-0.11-0.147
		l-0.115,0.066l-2.288,3.569l-0.072,0.071l-0.547-0.251l-0.068-0.057l-0.156,0.213l-0.462,1.251l-1.409,1.745l-0.326,0.799
		l0.222,0.711l-0.117,0.746l-0.712,1.561l-0.044,0.166l-0.016,0.22l-0.07,0.515l0.044-0.082l0.041,0.147l0.028,0.231l0.01,0.151
		l-0.032,0.131l-0.07,0.025L458.942,258l-0.053,0.211l-0.026,0.827l-0.053,0.422l-0.117,0.184l-0.211,0.087l-0.142,0.194
		l-0.088,0.192l-0.048,0.089l-0.393,0.252l-0.298,0.603l-0.357,1.386l-0.338,1.326l-0.167,0.378l-0.863,0.811l-0.804,0.045
		l-0.179,0.235l-0.088,0.557l0.144,0.266l0.27,0.065l0.29-0.05l-0.387,0.959l-0.232,0.387l-0.186-0.08l-0.383-0.952l-0.232-0.259
		l-0.317-0.055l-0.86,0.976l-0.057,0.535l-0.148,0.334l-0.197,0.07l-0.211-0.241l0.179-0.427l-0.038-0.371l-0.17-0.327l-0.39-0.5
		l-0.076-0.04l-0.858,2.034l-0.342,0.45l-0.42-0.261l0.101,0.335l-0.013,0.209l-0.057,0.209l-0.031,0.358l0.126,0.89l0.009,0.249
		l-0.109,0.457l-0.17,0.459l-0.204,0.356l-0.203,0.141l-0.327-0.126l-0.183-0.343l-0.022-0.498l0.158-0.596l-0.012-0.384
		l-0.167-0.539l-0.244-0.466l-0.242-0.156l-0.159,0.567l0.026,2.485l-0.183,1.002l-0.23,0.086l-0.286-0.284l-0.211-0.462
		l-0.012-0.437l0.15-0.462l0.132-0.57l0.073-0.573l-0.04-0.492l-0.352,0.535l-0.339,0.875l-0.182,1.003l0.123,0.923l-0.423-0.102
		l-1.189,0.102l-0.185,0.096l-0.21,0.174l-0.211,0.071l-0.194-0.202l-0.123-0.4l-0.07-0.174l-0.114-0.121l-0.333-0.07l-0.363,0.116
		l-0.342,0.268l-0.261,0.38l-0.161,0.542l0.043,0.456l0.308,0.827l-1.41-0.682l-0.263-0.023l-0.264,0.304l-0.652,0.376l-0.131,0.163
		l-0.276,1.049l-0.655,0.714l-0.754,0.59l-0.597,0.675l-0.051,0.408l0.298,1.075l0.101,0.93l-0.065,0.154l-0.434,0.141l-0.166,0.174
		l-0.233,0.325l-0.418,0.45l-0.219,0.097l-0.863-0.547l-0.054-0.575l0.069-0.43l-0.059-0.345l-0.434-0.302l0.044-0.156l0.038-0.278
		l0.029-0.142l-0.242-0.161l-0.489-0.693l-0.942-0.377l-0.242-0.286l-0.368-0.616l-0.402-0.351l-0.431,0.025l-0.467,0.499l0.2,0.232
		l0.21,0.158l0.462,0.188l-0.255,1.024l0.225,0.326l0.486,0.142l0.531,0.467l-0.502,0.368l-0.252,0.117l-0.298,0.041l-0.066,0.156
		l0.179,0.345l0.728,1.092l0.066,0.285l0.022,0.464l-0.155,0.116l-0.355-0.215l-0.608-0.566l-1.479-1.951l-0.475-0.256l-0.018,0.335
		l0.493,1.32l-0.382,0.197l-0.373-0.335l-0.352-0.489l-0.324-0.246l-0.224,0.287l-0.084,0.675l0.007,1.414l-0.021,0.387
		l-0.085,0.654l-0.021,0.359v1.222l-0.185,0.54l-0.249,0.27l-0.213-0.134l-0.079-0.675l-0.392,0.657l-0.919,0.284l-0.424,0.431
		l0.11,0.108l0.258,0.465l-0.21,0.265l-0.335,0.933l-0.204,0.444h0.38l-0.295,0.659l-0.352-0.049l-0.718-0.906l-0.315,0.862
		l0.298,0.499l0.55,0.226l0.452,0.052l-0.141,0.469l-0.206,0.049l-0.229-0.036l-0.22,0.215l-0.119,0.404l-0.048,0.325l-0.106,0.202
		l-0.288,0.037l-0.078-0.164l-0.506-0.703l-0.097-0.101l-0.145-0.252l-0.362-0.396l-0.164-0.298l0.087-0.526l-0.207-0.277
		l-0.317-0.189l-0.247-0.25l-0.308-0.413l-0.374-0.219l-0.236,0.134l0.113,0.646l-0.236,0.127l-1.005-0.424l-0.744-0.067
		l-0.323,0.108l-0.288,0.256l0.368,0.414l2.844,1.228l-0.342,0.57l-0.572,0.231l-1.19,0.018l0.081,0.395l0.043,0.151l-0.292,0.395
		l-0.255-0.029l-0.229-0.351l-0.087-0.561l-0.048-0.643l0.387-0.168l0.892-0.008v-0.3l-1.711-0.498l-0.515,0.249l0.246,0.262
		l0.104,0.329l0.047,0.381l0.095,0.395l0.404,1.02l0.098,0.345l-2.602-0.857l-0.845,0.039v0.271l0.382,0.016l0.415,0.215l0.37,0.345
		l0.251,0.392l0.153,0.44l0.1,0.486l-0.044,0.399l-0.27,0.161l-0.374-0.162l-0.361-0.299l-0.365-0.13l-0.39,0.318l-0.132,0.376
		l-0.076,0.451l-0.126,0.443l-0.279,0.365h0.613l-0.798,0.719l-0.246,0.094l-0.11,0.217l-0.114,0.952l-0.151,0.217l-0.185-0.136
		l-0.611-0.95l-0.267-0.222l-0.279-0.1l-0.288,0.058l-0.285,0.264l0.59,0.481l0.308,0.34l0.22,0.509l-1.186-0.244l-0.051-0.086
		l-0.16-0.422l-0.091-0.16l-0.153-0.099l-0.044,0.138l-0.006,0.218l-0.044,0.139l0.022,0.06l-0.269,0.456l-0.44,0.296l-1.048,0.272
		l0.446,0.378l4.652-0.063l0.481,0.237l0.352,0.509l0.109,0.583l-0.155,0.197l-0.252-0.197l-0.182-0.583h-0.132l-0.154,0.765
		l-0.418,0.182l-0.505-0.155l-1.06-0.642l-0.267,0.178l-0.194,0.778l0.848,0.676l0.27,0.135l0.658-0.256l0.359-0.048l0.216,0.305
		l-0.188,0.817l-0.725,0.097l-1.303-0.372l0.27,0.551l0.872,0.378l0.2,0.423l-0.056,0.362l-0.159,0.261l-0.203,0.159l-0.44,0.121
		l-0.164,0.154l-0.141,0.188l-0.179,0.153l-0.405,0.19l-0.203,0.019l-0.346-0.135l-0.291-0.016l-0.123-0.058l-0.059-0.124
		l-0.038-0.183l-0.035-0.256l-0.586-0.811l-0.291-0.285l-0.357-0.01l0.044,0.156l0.079,0.409h-0.872v0.246l0.198,0.155l0.04,0.278
		l-0.082,0.331l-0.156,0.338l0.401,0.23l0.594-0.741l0.37,0.267l-0.432,1.221l-0.273,0.458l-0.348,0.183l-0.167,0.168l-0.172,0.321
		l-0.189,0.18l-0.211-0.241l-0.009-0.255l0.095-0.307l0.134-0.263l0.095-0.141l-0.263-0.145l-0.169,0.299l-0.141,0.499l-0.179,0.448
		l-0.337,0.322l-0.363,0.053l-0.776-0.13l0.085-0.371l0.048-0.144l-0.295-0.274l-0.352-0.075l-0.719,0.056l0.452-0.674l1.576,0.223
		l0.446-0.649l-0.757-0.344l-0.358-0.252l-0.239-0.458l0.044-0.084l0.018-0.045l0.013-0.045l0.038-0.096l-0.408,0.116l-0.621,0.458
		l-0.571,0.606l-0.248,0.57l-0.128,0.145l-0.29-0.125l-0.295-0.239l-0.16-0.206l-0.038-0.35l0.038-1.392l-0.035-0.117l-0.17-0.356
		l-0.041-0.214l0.035-0.198l0.17-0.338l0.041-0.129l-0.091-0.601l-0.217-0.002l-0.282,0.195l-0.271-0.01l-0.119-0.292l-0.317-1.455
		l-0.158-0.336l-0.185-0.265l-0.216-0.203l-0.248-0.155l0.129-0.179l0.251-0.635l-0.401,0.058l-0.566,0.596l-0.274,0.16l-0.333-0.17
		l-0.299-0.351l-0.291-0.231l-0.31,0.184l2.235,2.034l0.543,0.834l0.329,0.767l0.428,1.256l0.22,1.221l-0.295,0.673v0.292
		l0.785,0.565l0.21,0.242l0.22,0.332l0.07,0.135l-0.034,0.757l0.135,0.441l0.594,0.961l0.132,0.738l-0.045,0.438l-0.167,0.668
		l0.019,0.246l0.097,0.38l-0.071,0.195l-0.163,0.078l-0.172,0.029l-0.128-0.077l-0.414-0.374l-0.202-0.086h-1.114l0.357,0.503
		l2.734,1.25l0.016,0.431l0.065,0.335l0.117,0.249l0.181,0.177l-0.392,0.144l-1.339,1.238l-0.11-0.123l-0.026-0.484l-0.142-1.164
		l0.01-0.238l-0.054-0.12l-0.241-0.032l-0.115,0.128l-0.088,0.3l-0.197,1.234l-0.028,0.325l-0.01,0.288l-0.062,0.32l-0.157,0.143
		l-0.396,0.181l0.255,0.531l-0.562,1.043l-0.335,0.434l-0.354,0.151l-0.198-0.141l-0.308-0.523l-0.167-0.115h-0.929l-0.75,0.313
		l-0.393,0.324l-0.222,0.43l0.013,0.665l0.295,0.237l0.361,0.184l0.204,0.512l-2.363-0.113l-0.263-0.133l-0.213-0.178l-0.333-0.562
		l-0.097-0.081l-0.806-1.599l-0.784-1.212l-0.202-0.169l-0.373,0.215l-0.191,0.949l-0.304,0.216l-0.363,0.07l-0.308,0.229
		l-0.192,0.405l-0.004,0.605l0.801,1.357l0.044,0.138l0.032,0.317l0.009,0.349l-0.023,0.235l-0.135,0.177l-0.208,0.089l-0.223,0.025
		l-0.173-0.025l0.207,0.231l0.21,0.328l0.107,0.416l-0.095,0.497l-0.02,0.406l0.144,0.489l0.227,0.405l0.219,0.171l0.564-0.134
		l0.25,0.057l0.293,0.343l0.141,0.344l0.123,0.412l0.145,0.374l0.207,0.221v0.238l-0.17-0.011l-0.111,0.063l-0.225,0.237
		l1.557,0.927l0.362-0.186l0.59,0.167l0.59,0.345l0.371,0.336l-1.5,1.055l-0.452,0.121l-0.049-0.184l0.501-0.992l-0.298-0.203
		l-0.326,0.087l-0.286,0.274l-0.188,0.368l-0.081,0.57l0.022,0.628l0.049,0.555l0.01,0.36l-0.126,0.508l-0.056,0.118l-0.305,0.661
		l-0.129,0.534l-0.037,0.762l0.013,0.469l-0.1,0.32l-0.367,0.315l0.392,0.232l-0.176,0.52l-0.597,0.85l0.211,0.192l0.267,0.357
		l0.141,0.344l-0.176,0.156l-0.863,0.141l-0.194,0.122l-0.101,0.397l0.04,0.431l-0.049,0.34l-0.386,0.14l-0.178,0.116l-0.119,0.297
		l-0.064,0.418l-0.006,0.48l0.07,0.482l0.247,0.675l0.05,0.293l-0.056,0.252l-0.255,0.199l-0.056,0.188l-0.013-0.065l-0.016,0.288
		v0.31l0.029-0.008l0.048,0.028l0.088,0.1l0.035,0.199l-0.11,0.336l-0.091,0.176l-0.072,0.188l-0.022,0.204l0.062,0.214l0.232,0.154
		l0.936-0.27l-0.088,0.363l-0.141,0.242l-0.178,0.135l-0.207,0.042v0.284l0.302,0.185l0.041,0.428l-0.065,0.569l-0.021,0.614
		l0.094,0.697l0.145,0.204l0.885-0.234l0.313-0.192l0.315-0.039l0.341,0.344l0.22,0.446l0.11,0.435l-0.004,0.424l-0.144,0.418
		l-0.116,0.501l-0.057,0.654l-0.11,0.561l-0.269,0.241l-0.358-0.034l-0.279-0.124l-0.239-0.247l-0.233-0.397l-0.66-1.628
		l-0.379-0.625l-0.572-0.341l0.031,0.497l0.092,0.376l0.244,0.684l-0.681-0.182l-0.241-0.303l0.062-0.576l-0.66-0.63l-0.763-0.214
		l-1.556,0.065l0.223,0.427l0.276,0.149l0.618-0.033l1.237,0.777l-0.159,0.634l-0.561,0.421l-0.663,0.215l-0.464,0.028v0.26
		l0.138,0.037l0.352,0.249l-0.515,0.224l-0.828-0.357l-0.392,0.368l2.316,0.536l0.402,0.5l-0.396,0.227l-0.314-0.065l-0.652-0.421
		l-0.39-0.085l-1.212,0.085v0.259l0.643-0.032l0.285,0.142l0.194,0.407l-0.772,0.386l-0.839,0.108l0.47,0.413l1.879,0.388v0.259
		l-1.735-0.071l-0.185,0.211l0.161,0.194l0.406,0.148l0.335,0.331l0.458,0.12l0.192,0.099v0.282h-0.751v0.235l0.707,0.348
		l0.155,0.192l0.084,0.457l-0.098,0.244l-0.185,0.22l-0.17,0.369l0.101,0.323l0.072,0.313l0.141,0.259l0.188,0.156l0.232-0.001
		l0.111-0.192l0.097-0.232l0.17-0.111l0.123,0.12l0.019,0.264l-0.079,0.267l-0.18,0.12l-0.208,0.032l-0.197,0.097l-0.176,0.169
		l-0.156,0.242l-0.135-0.291l-0.207-0.354l-0.192-0.134l-0.161,0.709l-0.346,0.336l-0.079,0.377l0.092,0.216l0.521,0.916
		l0.522,0.508l0.599,0.288l0.029,0.415l1.338,0.867l-0.54,0.141l-0.584-0.118l-1.115-0.56l0.26,0.748l0.484,0.344l0.546,0.183
		l0.442,0.266l-0.772-0.046l-0.321-0.101l-0.941-0.935l-0.301-0.133l-0.383-0.046v0.257l0.436,0.22l0.544,0.536l0.52,0.67
		l0.358,0.623l0.226,0.905l-0.282,0.337l-0.473,0.235l-0.343,0.594l0.625,0.489l-0.088,0.941l-0.132,0.31l-0.282,0.303l0.365,0.508
		l0.069,0.476l-0.206,0.305l-0.464,0.012l0.2,0.111l0.489,0.008l0.172,0.111l0.085,0.22l0.032,0.254l-0.043,0.205l-0.136,0.087
		l-0.159,0.164l-0.132,0.402l-0.092,0.507l-0.046,0.476l0.063,0.152l0.137,0.197l0.167,0.161l-0.379,0.394l-0.123,0.091l0.951-0.15
		l0.44,0.059l0.217,0.369l-1.076,0.289l-0.37,0.462l-0.163,1.027l-0.022,0.452l0.013,0.147l0.387,0.415l0.32,0.038l0.138,0.086
		l-0.048,0.459l0.048,0.254l0.159,0.451l0.053,0.118l0.291-0.195l0.159,0.077l0.082,0.167l0.649,2.112l-0.147,0.047l-0.161,0.102
		l-0.128,0.157l-0.046,0.199l0.068,0.433l0.132,0.018l0.153-0.075l0.129,0.151l0.047,0.486l-0.047,0.379l0.015,0.317l0.241,0.31
		l0.343,0.113l0.277-0.022l0.088,0.126l-0.216,0.538l-0.22,0.261l-0.584,0.332l-0.486,0.599l-0.677,0.508l-0.424,0.167l-0.088,0.171
		l0.007,0.174l0.12,0.081l0.214-0.044l0.402-0.189l0.189-0.045l0.36,0.121l0.361,0.535l0.581,0.252l0.98,0.876l-0.737,0.5v0.254
		l0.285,0.211l0.367,0.055l0.302-0.088l0.065-0.019l0.28-0.287l0.326-0.21l2.404-0.413l0.502,0.046l0.345,0.314l0.258,0.328
		l0.669,0.435l0.242,0.378l-0.22,0.321l-0.643,0.405l-0.132,0.161l0.057,0.536l0.261,0.824l0.06,0.394l0.242,0.765l0.584,0.416
		l1.278,0.207v-0.271l-0.26-1.059l0.634-1.048l0.971-0.807l1.849-0.547l0.543,0.036l0.471,0.417l0.37,1.277l-0.034,0.445
		l-0.106,0.373l-0.161,0.271l-0.202,0.161v0.251l0.468,0.043l0.449,0.318l0.828,0.889l0.616,0.478l0.075,0.219l0.111,0.6
		l0.059,0.204l0.565,0.855l0.638,0.535l1.506,0.603l-0.304,0.201l-0.459,0.482l-0.232,0.315v0.271l0.255,0.311l0.12,0.191
		l0.126,0.245l0.285-0.253l0.484-0.558l0.341-0.208l0.308-0.068l0.232,0.051l0.578,0.289l1.255-0.043l0.357,0.27l-0.02,0.11
		l-0.015,0.297l0.003,0.347l0.032,0.264l0.076,0.117l0.405,0.381v0.249l-0.223,0.062l-0.22-0.043l-0.214,0.013l-0.203,0.213
		l2.501,0.977l0.71,0.763l-0.741,0.39l-2.942-1.162l-0.566-0.706l-0.942-1.527l0.252,1.283l0.703,0.986l0.815,0.855l0.59,0.872
		l-0.308,0.027l-0.242-0.196l-0.445-0.595l0.128,0.884l0.365,0.52l0.872,0.623l0.445,0.564l0.238,0.183l0.304-0.003l0.216-0.111
		l0.166-0.195l0.07-0.292l0.009-0.066l-0.007,1.097l0.037,0.535l0.079,0.279l0.34,1.201l0.085,0.516h0.112l0.1-0.54l0.018-0.703
		l-0.066-0.695l-0.163-0.53l0.383-0.221l0.476-0.093l0.462,0.093l0.619,0.632l0.631,0.172l0.261,0.407l0.087,0.586l-0.031,1.248
		l0.123,0.52l0.788,1.16l0.141,0.455l-0.273-0.934l-0.342-0.908l-0.17-0.947l0.23-1.045l0.678-0.383l0.242,0.147l0.065,0.141
		l-0.051,0.574l0.035,0.608l0.088,0.459l0.788,2.693l0.63,1.676l0.343,0.464l0.788,0.269l0.414,0.269l0.302,0.271l0.072,0.086
		l0.009,0.089l-0.019,0.294l0.01,0.088l0.269,0.424l0.138,0.108l0.208-0.021l-0.034-0.173l-0.053-0.401l-0.037-0.162l0.32,0.066
		l0.308,0.158l-0.062,0.518l-0.028,1.435l0.022,0.296l-0.599-0.048l-0.242-0.18l-1.302-2.153l-0.583-0.767l-0.555-0.309l0.186,0.461
		l0.619,1.135l0.084,0.611l-0.203,0.582l-1.127,1.767l-0.327,0.268l-0.408,0.104l-0.79-0.042l-0.405,0.096l-0.288,0.3L419.802,421
		l0.326-0.003l0.682-0.364l4.548-0.213l0.779,0.458l-0.194,0.806l-0.301,0.485l-0.393,0.274l-1.095,0.338l-0.333-0.006l-0.28-0.165
		l-0.173-0.271l-0.194-0.537l-0.137-0.192l-0.216,0.612l-0.387,0.469l-0.44,0.304l-1.338,0.412l-0.423,0.375l-0.04,0.515
		l-0.643,0.033l-0.106,0.089l-0.028,0.317l-0.073,0.247l-0.117,0.174l-0.151,0.115h0.873l-0.116,0.28l-0.213,0.329l-0.241,0.274
		l-0.18,0.113l-0.185-0.102l-0.148-0.208l-0.167-0.183l-0.229-0.017l0.355,0.675l0.123,0.392l-0.17,0.174l-0.23,0.113l-0.439,0.502
		l-0.769,0.342l-1.021,1.004l-1.021,0.407l-0.473,0.443l-0.807,1.099l-0.603,0.52l-0.625,0.117l-1.369-0.155v0.243l0.616,0.484
		l-0.251,0.227l-0.489-0.066l-0.247,0.084l0.329,0.189l0.288,0.296l-0.106,0.492l0.293,0.301l0.446,0.153l0.361,0.043l-0.552,0.415
		l-1.077-0.032l-1.066-0.344l-0.528-0.523l0.207-0.139l0.22-0.069l0.225,0.032l0.211,0.176l-0.057-0.299l-0.079-0.719l-0.098-0.217
		l-0.227-0.043l-0.401,0.397l-0.246,0.113l-0.141-0.078l-0.207-0.328l-0.134-0.061l-0.1,0.082l-0.217,0.315l-0.113,0.069
		l-0.189,0.173v0.395l0.11,0.421l0.141,0.263l-0.594,0.402l-0.207,0.061l-0.207-0.068l-0.393-0.309l-0.211-0.086l2.474,2.417
		l-0.643,0.15l-0.279-0.085l0.001,0.41l1.402,0.009l0.428-0.269l0.188,0.053l0.132,0.456h0.112l0.616-1.521l1.143-0.465l1.29,0.229
		l1.048,0.55l-0.101,0.112l-0.18,0.262l-0.097,0.109l0.542,0.173l0.239-0.062l0.214-0.376l-0.487-1.198l-0.129-0.491h0.863
		l-0.718-0.503l-0.33-0.34l-0.194-0.609l1.043,0.078l0.471,0.215l0.467,0.433l0.029,0.123l0.07,0.47l0.032,0.134l1.233,0.726
		l-0.207,0.441l-0.31,0.001l-0.364-0.157l-0.352-0.045l0.408,0.242l0.622,0.196l0.568,0.314l0.251,0.589l-0.136,0.536l-0.345,0.24
		l-0.941,0.056l-0.289,0.082l-0.288,0.151l-0.295,0.065l-0.304-0.165l-0.224-0.172l-0.52-0.163l-0.242-0.017l-1.503,0.224
		l-0.478-0.224l0.035-0.164l0.053-0.421l0.035-0.161l-0.358-0.013l-0.316,0.148l-0.291,0.266l-0.277,0.345l0.232,0.164l0.205,0.246
		l0.17,0.28l0.132,0.276v0.241l-0.611-0.009l-0.182,0.168l0.115,0.442l1.052,0.603l0.424,0.135l0.487,0.37l0.434,0.538l0.261,0.641
		l-1.642-1.376L412.225,440l-0.004,0.422l0.288,0.262l0.382,0.132l0.264,0.036l0.128,0.225l0.097,0.433l0.169,0.286l0.346-0.222
		l-0.062,0.138l-0.04,0.116l-0.053,0.109l-0.092,0.117v0.242l0.475-0.219l0.194,0.017l0.079,0.331l-0.048,0.412l-0.131,0.336
		l-0.178,0.137l-0.202-0.186l-0.389-0.086l-0.681,0.212l-0.652,0.368l-0.314,0.378l0.203-0.059l0.179,0.043l0.144,0.16l0.088,0.293
		l-1.691,0.836l-0.534,0.124l0.241-0.207l0.5-0.309l0.242-0.204l-0.247-0.24l0.12-0.124l0.126-0.094v-0.219l-0.297-0.033
		l-0.276,0.069l-0.251,0.191l-0.222,0.33l-0.22,0.189l-0.602,0.069l-0.238,0.124l-0.158,0.237l-0.383,0.842l-0.225,0.166
		l-0.955-0.049l0.035,0.171l0.06,0.408l0.037,0.163l-0.449-0.238l-0.216,0.016l-0.198,0.223l0.286,0.549l-0.276,0.592l-0.467,0.681
		l-0.292,0.809l0.031,0.41l0.103,0.268l0.035,0.283l-0.169,0.471l-0.233,0.272l-0.317,0.163l-0.323,0.007l-0.236-0.205l-0.097,0.43
		l-0.035,0.474l0.009,1.004l-0.233-0.226l-0.189-0.332l-0.075-0.412l0.119-0.462l-0.132-0.452l-0.06-0.143l-0.169-0.199
		l-0.134,0.006l-0.12,0.073l-0.125,0.001l-0.291-0.199l-0.172-0.199l-0.343-0.687l-0.226-0.249l0.037,0.471l0.211,0.758l0.291,0.603
		l-0.207,0.608l-0.103,0.232l-0.126,0.094l-0.088-0.163l0.018-0.373l0.068-0.402l0.069-0.254l-0.608-0.283l-0.046-0.657l0.094-0.785
		l-0.189-0.661v-0.261l0.257-0.523l0.091-1.075l-0.009-1.059l-0.031-0.475l-0.044-0.156l0.233-0.834l-0.004-0.407l-0.192-0.189
		l-0.244,0.111l-0.214,0.292l-0.09,0.343l-0.026,1.093l-0.092,0.511l-0.194,0.217l-0.164-0.157l-0.641-0.824l0.053-0.516
		l0.363-0.792l0.087-0.472l-0.066-0.4l-0.163-0.372l-0.203-0.314l-0.194-0.232l0.255,1.201l-0.216,0.532l-0.247,0.406l-0.295,0.299
		l-0.361,0.202l0.169,0.746l-0.076,0.751l-0.031,0.668l0.308,0.49l-0.183,0.552l-0.129,0.759l-0.129,0.515l-0.173-0.172l-0.2,0.206
		l-0.003,0.003l-0.088,0.132l-0.081,0.155l0.141,0.199l0.148,0.145l0.159,0.091l0.169,0.043v0.239l-0.178,0.293l0.226,0.132
		l0.233,0.217l-0.158,0.55l-0.342,0.277l-0.376-0.051l-0.384-0.166l-0.376-0.06l0.176,0.433l0.247,0.324l0.564,0.457v0.217h-0.382
		l0.126,0.158l0.131,0.102l-0.506-0.02l-1.36-1.116l-0.594-0.317v0.239l0.32,0.24l0.073,0.386l-0.16,1.061l-0.159,0.579
		l-0.026,0.262l0.131,0.112l0.129,0.057l0.431,0.397l-0.515,0.285l-2.206-0.523l0.616,0.956l0.094,0.508l-0.343,0.46l-0.948-0.042
		l-0.525,0.123v0.631l-2.05-0.045l-0.55-0.192l-0.2-0.228l-0.36-0.601l-0.251-0.12l-0.208,0.075l-0.527,0.325l-0.324,0.075
		l0.245,0.144l0.571,0.078l0.182,0.252l0.003,0.307l-0.113,0.29l-0.15,0.228l-0.119,0.126l0.37,0.254l0.763-0.102l0.367,0.105v0.215
		l-0.417,0.462l-0.264,0.473l-0.268,0.306l-0.418-0.034l-1.062-0.694l-0.649-0.123l-0.38,0.559l0.861,0.048l0.323,0.278l0.294,0.643
		l-0.412-0.004l-1.601,0.554l-6.225-0.759l-6.225-0.76v0.258l0.229,0.11l0.192,0.238l0.079,0.302l-0.119,0.296l-0.27,0.078
		l-0.76-0.178l-0.335,0.1v0.214l0.226-0.124l0.22-0.072l0.183,0.093l0.107,0.362l0.364-0.252l0.814,0.423l0.374-0.3l0.261-0.402
		l0.241-0.103l0.217,0.116l0.387,0.488l0.073,0.041l0.009,0.118l-0.009,0.464l0.088,0.297l0.203,0.122l0.226-0.025l0.161-0.148
		l0.123-0.431l0.097-0.548l0.126-0.502l0.206-0.303l0.254,0.075l0.914,0.522l0.239,0.22l2.129-0.076l0.388,0.155l0.336,0.406
		l0.247,0.177l0.735,0.11l0.321,0.324l-0.035-0.17l-0.051-0.39l-0.035-0.169l0.637,0.22l0.225,0.017l-0.175,0.639l0.115,0.552
		l0.329,0.369l0.471,0.093l-0.167,0.203l-0.079,0.055v0.193h0.493v0.259l-0.178,0.323l0.226,0.178l0.69,0.204l0.997,0.944
		l-0.433,0.264l-0.907,0.014l-0.395,0.192l0.16,0.497l-0.406,0.379l-0.612,0.24l-0.44,0.084l-0.117,0.07l-0.214,0.317l-0.095,0.084
		l-0.132-0.021l-0.242-0.181l-0.128-0.056l-2.21-0.418l-1.049-0.673l-1.773-0.615l-0.52,0.293l0.643,0.093l3.81,2.068l0.596,0.07
		l0.235,0.174l0.167,0.438l0.003,0.318l-0.065,0.287l-0.032,0.284l0.094,0.308l0.154-0.02l0.28-0.144l0.241-0.176l0.041-0.127
		l0.217,0.178l0.084,0.189l0.069,0.806l-2.586-0.491l0.297,0.368l0.66,0.528l0.274,0.299l-0.066,0.363l0.04,0.236l0.222,0.102
		l0.2-0.039l0.094-0.128l-0.006-0.219l-0.113-0.314l1.061-0.221l0.358,0.067l-0.177,0.62l-0.097,0.049l-0.299-0.063l-0.107,0.014
		l-0.016,0.108l-0.009,0.209l-0.025,0.226l-0.073,0.159l-0.208,0.13l-0.653,0.105v0.236l0.409,0.099l1.325,0.816l-0.175,0.201
		l-0.072,0.054l0.239,0.213l0.201,0.364l0.137,0.456l0.05,0.487l-0.032,0.452l-0.094,0.083l-0.157-0.092l-0.22-0.074l-0.142,0.095
		l0.059,0.217l0.161,0.234l0.169,0.136l-0.589,1.079l-1.005-0.66l-1.074-1.22l-0.801-0.601l0.264,0.594l0.718,0.7l0.26,0.594
		l-0.119-0.013l-0.247,0.029l-0.117-0.017l0.399,0.671l0.621,0.822l0.361,0.661l-0.383,0.178l0.05,0.436l-0.097,0.248l-0.203,0.087
		l-0.266-0.054l0.38,0.295l0.315,0.137l0.277,0.207l0.258,0.504l-0.147,0.285l-0.156,0.08l-0.161-0.104l-0.151-0.262l-0.521,0.345
		l-0.087,0.208l0.238,0.375l-0.377-0.252l-0.38-1.029l-0.239-0.112l-0.244,0.366l0.109,0.457l0.402,0.825l0.219-0.053l0.264,0.053
		l0.01,0.033l0.194,0.633l0.159,0.29l0.203-0.154l0.183-0.253l0.137,0.073l0.084,0.333l0.028,0.541l0.103,0.196l0.481,0.578
		l0.154,0.282l-0.308-0.004l-0.687-0.46l0.16,0.51l0.527,0.507l0.062,0.373l-0.192,0.367l-0.308-0.005l-0.318-0.214l-0.227-0.264
		l-0.354-0.846l-0.15-0.091l-0.062,0.696l-0.157,0.236l-0.364,0.019l-0.721-0.13l0.057-0.3v-0.291l-0.062-0.287l-0.119-0.279
		l0.202-0.028l0.192,0.041l0.179,0.098l0.164,0.141l-2.333-2.635l-0.17,0.021l-0.137,0.179l-0.069,0.305l0.05,0.233l0.132,0.239
		l0.496,0.676l1.046,0.498l-0.095,0.102l-0.179,0.279l-0.095,0.104l0.116,0.341l0.018,0.318l-0.081,0.271l-0.176,0.207l-0.336-0.376
		l-0.352-0.251l-0.789-0.298l0.246,0.442l-0.133,0.251l-0.125-0.121l-0.358-0.13v0.251l3.88,4.41l0.565,0.468l-0.123,0.23
		l-0.307-0.117l-0.863-0.622l-0.253-0.289l-1.429-2.193l-2.207-1.887l0.147,0.603l0.206,0.39l0.621,0.628l1.022,0.732l0.779,1.012
		l0.138,0.285l0.106,0.273l0.139,0.202l0.229,0.081l0.198,0.132l0.622,0.685l0.226,0.315l-0.236,0.251l0.377-0.005l0.32,0.138
		l0.254,0.299l0.181,0.471h-0.392v0.231h0.247v0.251l-1.22-0.128l-0.546-0.216l-0.575-0.369l0.126,0.313l0.335,0.383l0.145,0.225
		l0.169,0.53l-0.041,0.283l-0.232,0.049l-0.389-0.173l0.154,0.346l0.207,0.086l0.213,0.041l0.176,0.218l0.103,0.415l-0.079,0.152
		l-0.173,0.074l-0.169,0.175l-0.169,0.232l-0.502,0.492l-0.131,0.092l-0.101-0.132l-0.04-0.314v-0.377l0.018-0.329l-0.15,0.166
		l-0.159,0.052l-0.163-0.058l-0.167-0.16l0.181,0.393l0.087,0.134l0.125,0.14l-0.269,0.4l-0.123,0.084v0.23l0.392,0.23v0.229h-0.492
		v0.208l1.397,0.049l0.662,0.268l0.512,1.389l0.411,0.869l0.156,0.601l-0.531-0.151l0.229,0.557l-0.098,0.147l-0.263,0.025
		l-0.248,0.187l-0.092,0.398l0.103,0.348l0.252,0.258l0.354,0.118l-0.299,0.208l-0.339,0.102l-0.207,0.241l0.107,0.61l-1.065-0.223
		l-0.451,0.165l-0.23,0.744l0.627,0.457l-0.169,0.307l-0.192,0.141l-0.04,0.145l0.277,0.318l-1.399,0.823l-0.29,0.642l0.458,1.083
		l-0.514,0.496l-0.141,0.8l0.123,0.888l0.285,0.75l0.517,0.912l0.2,0.242l0.189,0.104l0.113-0.043l0.106,0.008l0.169,0.262
		l0.308,0.784l-0.273,0.19l0.11,0.381l0.251,0.437l0.159,0.371l-0.23,0.019l-0.643-0.246l-0.026-0.089l0.029-0.154l-0.003-0.146
		l-0.129-0.063l-0.116,0.032l-0.062,0.077l-0.031,0.077l-0.021,0.039l-0.076,0.086l-0.04,0.165l-0.031,0.179l-0.044,0.136
		l-0.073,0.058l-0.063-0.057l-0.075-0.081l-0.295-0.065l-0.431-0.185l-0.227-0.011l0.139,0.244l0.141,0.198l0.157,0.146l0.169,0.092
		v0.245l-0.365,0.011l-0.241,0.311l-0.088,0.538l0.088,0.703l0.179,0.401l0.211,0.261l0.12,0.242l-0.085,0.358l-0.487,0.904
		l-0.001,0.21l0.066,0.889l-0.003,0.362l-0.063,0.329l-0.493,1.597l-0.018,0.306l0.145,0.367l0.226,0.166l0.22-0.135l0.21-0.233
		l0.198-0.122l0.164,0.114l0.035,0.265l-0.05,0.293l-0.092,0.205l-0.211,0.095l-0.492-0.24l-0.27-0.06l-0.285,0.086l-0.371,0.3
		l-0.273,0.064l-0.081,0.174l0.116,0.393l0.266,0.677l0.051,1.055L377.339,527l-0.137,0.469l-0.233,0.226l-0.308,0.104l-0.299-0.029
		l-0.43-0.365l-0.232,0.064l-0.228,0.156l-0.194,0.088l-0.175,0.115l-0.16,0.262l-0.41,0.924l-0.048,0.18l0.004,0.163l-0.02,0.352
		l-0.082,0.697l-0.041,0.763l-0.111,0.323l-0.511,0.048l-0.115,0.319l-0.115,0.63l-0.872,1.722l-0.405,1.171l-0.522,2.717
		l-0.505,2.629l-0.122,0.17l-0.201,0.111l-0.106,0.264l-0.073,0.325l-0.109,0.286l-0.299,0.379l-0.7,0.658l-0.304,0.413l-1.042,2.33
		l-0.408,0.529l-0.299-0.051l-0.332-0.32l-0.505-0.278l0.54-1.087l0.141-0.626l-0.367-0.277l-0.892,0.362l-0.459-0.016l-0.317-0.567
		l-0.201,0.145l-0.103-0.095l-0.091-0.177l-0.169-0.095l-0.22-0.065l-0.26-0.293l-0.137-0.065l-0.301,0.286l-0.355,0.534
		l-0.355,0.282l-0.292-0.459l0.125-0.198l0.17-0.377l0.07-0.367l-0.176-0.166l-0.246,0.084l-0.682,0.58l-0.757,0.39l-0.114,0.162
		l-0.031,0.507l-0.088,0.124l-0.364-0.299l-0.135-0.158l-0.15-0.223l-0.194-0.196l-0.271-0.086l-0.257,0.058l-0.191,0.15
		l-0.301,0.455l-0.115,0.312l-0.004,0.211l-0.082,0.124l-0.804,0.047l-0.247-0.068l-0.217-0.183l0.351-0.194l0.142-0.008
		l-0.106-0.312l-0.387-0.813l-0.387,0.556l-0.707,0.453l-0.76,0.14l-0.55-0.376l-0.136-0.134l-0.144,0.055l-0.138,0.123
		l-0.141,0.067h-0.682l-0.141-0.115l-0.063-0.565l-0.112-0.204l-0.123,0.021l-0.44,0.177l-0.173,0.024l0.065,0.198l0.126,0.513
		l0.068,0.194l-1.092-0.503l-0.633-0.121l-0.453,0.273l-0.401,0.107l-0.592-0.115l-0.452,0.025l0.027,0.536l-0.349,0.154
		l-0.305-0.241l-0.317-0.362l-0.382-0.215l-0.895,0.009l-0.426,0.203l-0.28,0.452l-0.051,0.27l-0.035,0.377l0.023,0.333l0.12,0.146
		l0.26,0.103l0.125,0.245l0.076,0.297l0.098,0.259l0.511,0.773l0.175,0.396l0.176,0.574l-0.206,0.106l-0.226,0.193l-0.21,0.236
		l-0.159,0.244l-0.142,0.135l-0.091-0.137l-0.085-0.337h-0.36l-0.122,0.251l-0.109,0.127l-0.15-0.039l-0.132-0.088l-0.138-0.034
		l-0.503,0.005l-0.186-0.031l-0.032-0.135l0.254-0.295l-0.154-0.184l-0.136-0.221l-0.084-0.289l0.004-0.39l-0.38,0.461l-0.197-0.229
		l-0.082-0.154l0.042-0.079l-0.224,0.087l-0.418,0.307l-0.163,0.067l-0.487,0.106l-0.335,0.284l-0.6,0.933l-0.682,0.829
		l-0.399,0.348l-0.345,0.142l-0.361,0.275l-0.236,0.605l-0.182,0.605l-0.211,0.275l-0.731,0.408l-0.655,1.022l-0.473,1.33
		l-0.181,1.325l-0.078,1.221l0.029,0.52l0.182,0.547l0.299,0.375l0.696,0.534l0.228,0.401l0.04,0.346l-0.015,0.341l0.018,0.356
		l0.153,0.385l0.185,0.248l0.395,0.409l0.748,1.235l0.169,0.583l-0.081,0.694l-0.257,0.416l-0.976,1.115l-0.317,0.226l-0.22,0.228
		l-0.828,1.509l-0.348,0.469l-0.335,0.26l-0.411,0.115l-1.159-0.006l-0.539-0.107l-0.52-0.202l-1.428-0.944l-0.473-0.189
		l-0.591-0.067l-0.268,0.058l-0.461,0.275l-0.261,0.101l-0.255-0.004l-0.863-0.194l-2.398,0.198l-0.32,0.093l-0.206,0.233
		l-0.172,0.291l-0.229,0.271l-0.273,0.141l-0.775-0.141l-0.621,0.155l-1.669,1.145l-0.533,0.199L322.037,570l-0.577-0.088
		l-2.976-1.105l-0.973-0.031l-0.357-0.133l-0.198-0.031l-0.106-0.058l-0.294-0.275l-0.156-0.101l-0.376-0.101l-0.376,0.101
		l-0.2,0.123l-0.264,0.261l-0.211,0.05l-0.189-0.035l-0.239-0.147l-0.188-0.035l-0.352,0.14l-0.357,0.217l-0.264-0.017l-0.072-0.557
		l0.552-1.105l0.123-0.004l0.101,0.019l0.11,0.096l0.159,0.225l0.323,0.202l0.452-0.026l0.418-0.198l0.233-0.314l-0.106-0.414
		l0.059-0.202l0.175,0.003l0.23,0.199l-0.177-0.863l-0.854-1.431l-0.198-0.866l0.214-1.012l0.522-0.613l1.244-0.911l0.198-0.273
		l0.201-0.381l0.153-0.434l0.062-0.44l-0.117-0.626l-0.258-0.363l-0.255-0.224l-0.269-0.513l-0.335,0.085l-0.335-0.022l-0.154-0.631
		l-0.445,0.026l-0.335-0.132l-0.204-0.462l0.226-0.046l0.145-0.134l0.084-0.254l0.038-0.419l-0.228-1.399l-0.627-0.627l-0.731-0.388
		l-0.531-0.676l-0.189-0.5l-0.044-0.254l-0.013-0.466l-0.048-0.149l-0.116-0.178l-0.144-0.148l-0.123-0.063l-0.233-0.228
		l-0.11-0.527l-0.084-0.594l-0.139-0.43l-0.314-0.31l-0.277-0.193l-0.194-0.295l-0.075-0.625l-0.119-0.349l-1.595-2.101
		l-0.132-0.216l-0.678-1.57l-0.197-0.319l-0.164-1.026l-0.069-0.301l-0.439-0.964l-0.214-0.752l-0.716-0.531l-0.242-0.414
		l3.513,1.532l0.134,0.107l0.226,0.471l0.138,0.107l0.141,0.069l0.27,0.306l0.148,0.069l0.154-0.036l0.252-0.151l0.148-0.036
		l0.757,0.091l0.348-0.051l0.317-0.261l0.233-0.448l0.11-0.511l-0.073-0.418l-0.829-0.482l-0.37-0.714l-0.562-1.442l-1.586-1.185
		l-0.401-0.759l0.637-1.172l1.024-0.394l2.156,0.809l1.026-0.414l0.258-0.384l0.288-0.596l0.233-0.694l0.095-0.678l-0.076-0.647
		l-0.552-1.504l-0.32-1.447l-0.258-0.404l-0.536-0.144l-0.433,0.044l-0.719,0.272l-0.285,0.031l-0.28-0.031l-0.271-0.092
		l-0.936-1.068l-0.17-0.41l-0.11-0.73l-0.271-0.357l-0.323-0.292l-0.282-0.527l-0.379-1.248l0.101-0.721l-0.037-0.366l-1.162-0.836
		l-0.078-0.11l-0.013-0.129v-0.123l-0.032-0.086l-0.117-0.068l-0.293-0.09l-0.091-0.07l-0.346-0.644l-0.188-0.187l-0.581-0.137
		l-0.459-0.31l-0.665-0.214l-0.335-0.389l-0.203-0.58l-0.056-0.714l0.038-0.164l0.159-0.292l0.038-0.098l-0.016-0.197l-0.079-0.323
		l-0.018-0.17l-0.037-0.19l-0.106-0.257l-0.139-0.226l-0.568-0.276l-0.55-0.452l-0.43-0.592l-0.038-0.607l-0.132-0.077l-0.349-0.377
		l0.343-0.509l-0.076-0.446l-0.524-0.879l-0.06-0.258l-0.056-0.667l-0.009-0.303l-0.109-0.014l-0.549,0.038l-0.214-0.138
		l0.566-0.528l0.194-0.28l-0.191-0.122l-0.414-0.02l-0.349-0.094l-0.324-0.207l-0.343-0.361h0.503l0.247-0.066l0.245-0.14
		l-0.254-0.168l-0.273-0.07l-0.581-0.011v-0.225l0.188-0.195l0.123-0.225l0.137-0.186L300.94,507l0.084-0.183v-0.225l-0.079-0.198
		l0.022-0.399l-0.128-0.314l-0.203-0.243l-0.194-0.185l-0.046-0.095l-0.056-0.162l-0.079-0.151l-0.123-0.068l-0.15,0.048
		l-0.288,0.178l-0.122,0.001l-0.313-0.379l0.251-0.416l0.471-0.478l0.34-0.551h-0.873l0.404-0.266l0.169-0.304l-0.04-0.391
		l-0.552-1.199l-0.104-0.128l-0.178,0.027l-0.126,0.162l-0.117,0.181l-0.134,0.087l-0.29,0.496l-0.247,2.28l-0.251,0.65
		l-0.123-0.585l-0.401,0.109h-0.295l0.202-0.895l-0.202,0.023l-0.197-0.016l-0.182-0.078l-0.167-0.155l0.214-0.302l-0.026-0.444
		l-0.122-0.529l-0.066-0.554l0.067-0.547l0.167-0.368l0.241-0.254l0.273-0.205l-0.308-0.269l-0.317-0.19l0.119-0.037l0.26-0.213
		l-0.379-0.35l-0.123-0.089l0.258-0.518l-0.112-1.874l0.097-0.863l-0.072-0.068l-0.198-0.115l-0.085-0.026l-0.095,0.477l-0.22,0.229
		l-0.222-0.041l-0.104-0.329l-0.063-0.521l-0.153-0.358l-0.163-0.295l-0.101-0.335l0.173-0.711l1.171-0.129l0.255-0.54l-0.389,0.223
		l-0.5,0.1l-0.514-0.001l-0.443-0.091l-0.916-0.548l-0.411-0.047l0.073,0.595l-0.248,0.092l-0.33-0.008l-0.258-0.166l-0.027-0.379
		l0.043-0.416l1.717-1.766l0.16-0.242l-0.046-0.226l-0.333-0.074l-0.406,0.05l-0.272,0.135l-0.442-0.617l-0.351-0.68l-0.38-0.491
		l-0.55-0.061l0.399-0.485l0.223-0.164l0.238-0.065l-0.186-0.701l0.246-0.348l0.938-0.362v-0.21h-0.247v-0.232l0.176-0.069
		l0.073-0.064l0.12-0.332l-0.533-0.336l0.128-0.579l0.787-1.428l0.232-0.837l0.05-0.486l-0.104-0.42l-0.169-0.344l-0.087-0.347
		l0.06-0.322l0.264-0.267l-0.059-0.132l-0.028-0.104l-0.048-0.23l0.445-0.105l0.186-0.617l0.161-2.253l0.07-0.227l0.194-0.085
		l0.241-0.015l0.186-0.084l0.145-0.209l0.106-0.394l-0.288,0.047l-0.236-0.103l-0.159-0.281l-0.131-0.916l-0.176-0.286l-0.205-0.25
		l-0.173-0.318l-0.088-0.821l0.307-0.493l1.026-0.559l-0.224-0.431l-0.377,0.092l-0.766,0.552l-0.995-0.109l-0.452,0.092
		l-0.018,0.485l-0.258,0.186l-0.586,0.004l-0.907,0.891l-0.176,0.11l-0.11,0.134l-0.393,0.618l-0.179,0.185l-0.252,0.059
		l-0.272-0.038l-0.257-0.109l-0.214-0.146l0.082,0.171l0.164,0.531l-0.608-0.199l-0.167-0.524l0.128-0.749l0.277-0.87l0.409-0.961
		l0.462-0.738l0.986-1.138l-0.258-0.235l0.252-0.38l0.274-0.26l0.594-0.297l-0.313-0.524l-0.427,0.209l-0.426,0.547l-0.301,0.495
		l-0.185-0.448l-0.345-1.177l-0.109-0.513H290.2l0.116,1.007l-0.031,1.192l-0.182,1.184l-0.346,0.986l-0.496,0.816l-0.523,0.63
		l-1.259,1.013l0.161-0.501l0.2-0.383l0.23-0.296l0.26-0.226v-0.254l-0.276,0.039l-0.521,0.304l-0.178-0.089l-0.1-0.433l0.103-0.374
		l0.208-0.266l0.22-0.098l0.637-0.071l-0.132-0.252l-0.332-0.508l0.022-0.836l-0.308,0.027l-0.167,0.293l-0.119,0.427l-0.156,0.429
		l-0.214,0.222l-0.276,0.123l-0.17-0.073l0.1-0.38l0.622-1.408l0.385-0.7l0.153-0.363l0.151-0.475l-0.16,0.37l-0.772,1.104
		l-0.296,0.246l-0.136,0.158l-0.06,0.147l-0.134,0.411l-0.063,0.147l-0.493,0.26l-0.499-0.21l-0.461,0.008l-0.395,0.902
		l-0.195-0.227l-0.023-0.222l0.056-0.264l0.04-0.353l-0.057-0.306l-0.312-0.741l0.084-0.613l0.26-0.205l0.643,0.092l-0.137-0.694
		l0.176-0.341l0.313-0.236l0.273-0.379l-0.65-0.418l-0.098-0.18l-0.04-0.202l-0.167-0.309l-0.04-0.197l0.04-0.16l0.084-0.131
		l0.084-0.076l0.04,0.001l0.013-1.029l0.048-0.259l0.169-0.248l0.15-0.115l0.131-0.141l0.104-0.332h-0.37l0.072-0.427l-0.09-0.156
		l-0.141-0.101l-0.087-0.259l0.01-0.307l0.113-0.338v-0.302l-0.166-0.499l-0.707-1.05l0.063-0.685l0.07-0.314l-0.101-0.083
		l-0.461,0.006l-0.17-0.291l0.021-0.622l0.203-0.574l0.376-0.153l-0.068-0.471l0.104-0.296l0.181-0.282l0.163-0.421l0.031-0.297
		l-0.031-1.238l-0.097-0.183l-0.211-0.081l-0.211-0.128l-0.095-0.322v-0.828l-0.037-0.366l-0.098-0.345l0.056-0.136l0.032-0.107
		l0.047-0.254l-0.917-0.304l-0.484-0.337l-0.211-0.444l0.167-0.534l0.388-0.333l0.81-0.457l-0.759,0.064l-0.342-0.158l-0.141-0.494
		l0.079-0.442l0.18-0.363l1.158-1.717l0.477-0.351l1.82-0.329l0.607,0.277l0.257,1.002l0.132,0.749l0.317,0.78l0.365,0.641
		l0.282,0.34h0.141v-0.011l0.011,0.021l0.272,1.072l-0.022,2.252l0.552,0.319l1.163,0.076l1.163-0.294l0.952-0.94l0.529-1.868
		l0.118-0.897l0.156-0.787l0.457-1.54l0.199-0.934l0.058-1.683l0.488-2.198l0.164-0.55l0.321-0.574l0.155-0.504l0.01-0.034v-0.749
		l-0.088-0.801l-0.412-2.369l-1.922-7.042l-0.116-0.765l0.071-0.946l0.339-0.542l2.429-1.335l0.434-0.487l0.706-1.158l0.101-0.294
		v-0.645l0.114-1.36l-0.026-0.542l-0.222-0.583l-0.109-0.142l-0.521-0.679l-0.214-0.506l0.119-1.221l0.452-0.45l0.283-0.282
		l0.936-0.333l2.895,0.29l0.74-0.16l2.648-2.17l2.816-3.333l0.658-1.089l0.499-1.329l0.248-1.583l-0.056-1.302l-0.468-2.339
		l-0.151-1.233l0.08-0.596l0.235-0.486l0.971-1.249l0.348-0.584l0.283-0.698l0.211-0.881l0.132-1.324l-0.073-1.138l-0.257-1.042
		l-2.017-5.229l-1.903-3.566l-0.486-1.45l-0.27-1.315l-0.393-2.703l-0.332-1.241l-0.699-1.708l-0.05-0.758l0.5-0.502l4.162-1.263
		l1.044-0.057l2.035,0.384l0.384-0.219l0.127-0.403l0.048-0.155l0.35-2.535l0.112-0.498l0.136-0.337l1.316-2.001l0.363-0.826
		l0.268-1.061l0.604-3.542l-0.022-0.447l-0.177-0.357l-4.749-6.645l-0.548-0.532l-0.585-0.22l-1.234-0.084l-0.68-0.165l-0.511-0.333
		l-1.418-1.922l-0.839-0.689l-2.088-2.296l-0.25-0.506l1.404-9.732l1.404-9.814l-0.042-1.461l-0.016-0.557l-0.503-1.913
		l-0.123-0.342l-3.396-9.444l-0.021-0.785l0.235-1.086l0.641-1.911l0.278-1.093l0.039-0.912l-1.068-6.033l-0.067-0.826l0.199-0.63
		l2.134-3.1l-2.937-8.104l-1.215-3.37l3.832-6.668l0.268-0.793l-0.006-0.902l-0.887-4.111l2.216-2.389l3.415-6.214l3.595-6.016
		l1.323-1.44l4.097-2.777l4.538-1.322l6.36,1.677l6.36,1.675h0.447l0.326-0.41l2.984-6.171l0.229-0.755l0.017-0.754l-0.827-9.814
		l-0.336-1.007l-0.65-0.473l-1.417-0.324l-0.762-0.29l-5.361-3.889l4.776-8.59l4.775-8.656l0.004-0.007l2.49-3.957l0.386-1.277
		l0.014-0.046l0.102-0.337l0.496-3.988l0.257-1.055l0.365-0.653l1.472-1.432l0.58-1.269l0.073-2.008l-0.125-2.275l-0.019-2.068
		l0.908-10.309l0.171-0.686l1.206-2.832l0.212-0.932l-0.08-1.784l-1.873-12.519l4.624-0.62l4.624-0.62l7.727-5.437l0.179-0.589
		l-0.034-0.919l-0.142-1.452l-0.108-0.635l-0.833-4.895l-0.065-1.249l4.385-4.903l6.661-13.159l1.566-2.153l3.334-3.483l1.066-0.663
		l0.54-0.54l0.287-0.774l0.509-6.025l-0.106-0.823l-5.604-10.4l0.967-3.464l0.339-0.56l3.019-0.631l1.111-0.583l0.98-1.125
		l1.881-3.22l0.388-1.014l2.762-10.953l0.378-0.951l0.453-0.654l7.431-6.225l1.441-2.792l0.388-0.357l5.175,3.275l5.175,3.266
		l0.462-0.154l0.537-0.878l0.561-1.207l3.333-6.877l0.395-1.953l-0.954-9.606l0.021-1.499l0.35-4.536l0.095-0.57l0.186-0.283
		l0.315-0.123l4.453-1.748l0.822,0.587l2.936,2.992l1.005,0.277l6.093-0.493l7.999,4.009l8.102,3.615l0.725-0.053l0.704-0.617
		l4.249-5.564l-5.116-3.142l3.418-3.24l1.53-2.586l1.843-5.285l0.24-1.007l0.078-0.943l-0.14-4.424l-0.138-0.849l-4.307-5.631
		l4.697-0.358L453.872,30z M390.78,505.688l-0.496,0.064l-0.388,0.409l-0.605,1.142l0.405,0.967l0.032,0.506l-0.285,0.851
		l0.006,0.294l-0.023,0.134l-0.069,0.054l-0.246,0.116l-0.069,0.057l-0.088,0.309l-0.073,0.499l-0.07,0.307l-0.754,1.453
		l-0.109,0.485l-0.123,0.875l-0.314,0.378l-0.402,0.181l-0.402,0.275l0.112,0.286l0.145,0.197l0.18,0.125l0.2,0.071l-0.358,0.337
		l-0.268,0.364l-0.503,0.901l0.129,0.424l0.11,0.686l-0.026,0.64l-0.274,0.282l-0.175,0.36l-0.295,1.74l-0.207,0.601l-0.046,0.005
		l-0.833,0.496l-0.117,0.173l-0.115,0.283l-0.078,0.308l-0.043,0.321l-0.012,0.333l-0.088,0.66l-1.046,3.358l-0.159,0.648
		l-0.062,0.756l-0.063,0.291l-0.153,0.329l-0.182,0.265l-0.15,0.111l-0.229,0.116l-0.113,0.285l-0.095,0.716l-0.003,0.184
		l0.116,0.098l0.009,0.165l-0.048,0.162l-0.156,0.348l-0.041,0.16l-0.037,0.56l-0.057,0.365l-0.101,0.311l-0.266,0.6l-0.238,0.677
		l-0.185,0.682l-0.113,0.61l-0.019,0.26l0.019,0.742l-0.057,0.33l-0.255,0.457l-0.057,0.323l-0.142,0.521l-0.907,2.162l-0.329,0.4
		l-0.405,0.279l-0.392,0.022l-0.286-0.368l-0.038-0.291l0.041-0.744l-0.003-0.317l-0.247-0.887l0.15-0.706l0.021-0.802l-0.047-1.38
		l0.15-0.513l-0.11-0.581l-0.194-0.62l-0.104-0.623l0.135-2.809l0.057-0.318l0.313-1.023l0.417-0.756l0.063-0.26l0.122-0.684
		l3.03-7.722l0.307-0.337l0.382-0.134l0.553-0.024l0.489-0.15l0.261-0.402l0.307-1.252l0.818-2.05l0.936-1.83l0.772-1.964
		l0.318-2.454l0.07-0.339l0.169-0.167l0.382-0.187l0.242-0.309l0.097-0.286l0.051-1.889l0.079-0.576l0.398-0.433l0.553-0.901
		l0.299-0.275l0.343-0.182l0.188,0.016l0.148,0.486l0.151,0.061l0.166-0.103l0.11-0.277h0.123l0.004,0.15l0.034,0.09l0.044,0.08
		l0.041,0.114l0.088,0.148l0.073,0.162l0.054,0.178L390.78,505.688z M425.326,487.227l0.182,0.193l0.514,0.929l0.116,0.306
		l-1.266,0.127l-0.512,0.493l-0.089,1.25l-0.206-0.308l-0.225-0.169l-0.163,0.066l-0.022,0.411l-0.167,0.266l-0.11,0.351v0.388
		l0.164,0.379l-0.722,0.19l-0.649,0.021l-0.225-0.073l-0.377-0.316l-0.2-0.073l-0.247,0.087l-0.022,0.223l0.063,0.297l0.016,0.317
		l-0.247,1.152l-0.315,0.824l-0.094,0.346l-0.084,0.202l-0.084,0.267l-0.04,0.327l0.116,0.091l0.747,0.241l-0.167,0.523
		l-0.115,0.461l-0.069,0.468l-0.019,0.534l-0.141,0.447l-0.255,0.478l-0.116,0.44l0.266,0.341l-0.132,0.524l0.079,0.322l0.229,0.135
		l0.317-0.041l-0.092,0.171l-0.154,0.516l0.703,0.3l0.723,0.158l0.07-0.113l0.034-0.217l0.091-0.136l0.236,0.12l0.289,0.217
		l0.09,0.108l0.115,0.248l0.107,0.346l0.07,0.458l-0.068,0.398l-0.295,0.169h-0.555l-0.069-0.033l-0.204-0.161l-0.106-0.033
		l-0.088,0.071l-0.219,0.313l-0.12,0.071l-0.594,0.152l-0.565,0.392l-0.517,0.555l-0.426,0.634l-0.677,0.616l-0.247,0.458
		l0.125,0.638l0.139,0.076l0.38-0.076l0.153,0.111l0.057,1.047l-0.635,0.319l0.029,0.114l-1.605,0.374l-0.487,0.309v0.248h0.247
		v0.207l-0.409,0.11l-2.241,1.27l-0.446,0.375l-0.373,0.518h1.242l-0.423,0.349l-1.286,0.69l-0.273,0.444l-0.123,1.708l0.194,0.422
		l0.282,0.234l0.646,0.247h-0.998v0.226l0.247,0.247l-0.47,0.416l-0.197,0.267l-0.179,0.694l-0.235,0.214l-1.705,0.873l-0.618,0.105
		l-0.559-0.331l1.176-2.125l0.046-0.279l-0.028-0.327l-0.072-0.43l0.235-0.29l0.666-0.251l0.267-0.252l0.145-0.418l0.15-0.893
		l0.148-0.388l-0.43,0.277l-0.392,0.473l-0.384,0.327l-0.405-0.169v-0.247l0.239-0.289l0.198-0.444l0.04-0.417l-0.233-0.211
		l0.075-0.173l0.095-0.318l0.076-0.169l-0.771-0.371l-0.459-2.827l-1.09-0.972l0.031-0.635l0.261-0.634l0.676-0.547l0.23-0.608
		l0.095-0.685l-0.092-0.501l0.238-0.416l-0.047-0.202l-0.169-0.122l-0.145-0.172l-0.059-0.143l-0.176-0.315l-0.034-0.18l0.019-0.428
		l-0.054-0.194l-0.194-0.447l-0.192-0.663l-0.135-0.768l-0.026-0.774l0.292-1.246l0.6-1.001l2.95-3.188l2.489-4.411l0.655-0.792
		l0.916-0.435l0.252,0.055l0.276,0.148l0.279,0.07l0.248-0.168l0.114-0.245l0.097-0.492l0.101-0.332l0.267-0.62l0.31-0.532
		l0.357-0.409l0.41-0.253l0.421-0.057l0.336,0.173l0.266,0.399l0.219,0.621l0.01,0.173l-0.044,0.131l-0.059,0.124l-0.031,0.142
		l0.04,0.199l0.084,0.099l0.084,0.068l0.04,0.106l0.04,0.33l0.109,0.265l0.345,0.469l0.131-0.863l0.301-0.423l0.301-0.335
		l0.141-0.599l-0.085-0.207l-0.144-0.271l-0.032-0.232l0.251-0.099l1.118-0.211v0.211l-0.277,0.592l0.348,0.323l0.439-0.023
		l-0.006-0.45l0.276-0.193l0.358-0.127l0.349-0.018l0.248,0.128l-0.134,0.21l0.085,0.32l0.129,0.385l0.192,0.319L425.326,487.227z
		 M429.523,483.538l0.59,0.006l0.279,0.124l0.314,0.311l-0.113,0.154l-0.116,0.08l-0.132,0.022l-0.144-0.023l-0.261,0.444
		l-0.869-0.299l-0.398,0.213l-0.37,0.376l-0.782,0.311l-0.398,0.601l0.239,0.211l0.135,0.203l0.04,0.232l-0.046,0.302l-0.527,0.953
		l-0.026,0.181l-0.292-0.051l-0.271-0.148l-0.251-0.225l-0.232-0.29l-0.628-1.266l0.05-0.399l0.129-0.247l0.382-0.513l0.128-0.329
		l0.09-0.34l0.12-0.32l0.211-0.275l0.293-0.107l0.613,0.021l0.267-0.274l0.157-0.008l0.282,0.104l0.326,0.029l0.299-0.23
		l0.078,0.562l0.241,0.105L429.523,483.538z M293.658,480.746l-0.006,0.581l0.037,0.201l0.092,0.15l-0.181,0.946l-0.066,0.194
		l-0.226,0.188l-0.166-0.025l-0.062-0.224l0.084-0.404l-0.295-0.126l-0.283,0.301l-0.211,0.54l-0.148,0.922l-0.158,0.268
		l-0.203,0.137l-0.37-0.098l-0.141,0.198l-0.134,0.265l-0.161,0.17l-0.247-0.008l-0.158-0.149l-0.112-0.191l-0.109-0.116
		l-0.475-0.047l-0.106-0.123l-0.035-0.419l-0.057-0.286l-0.113-0.299l-0.072-0.299l0.057-0.278l0.206-0.154l0.502,0.1l0.229-0.051
		l-0.368-0.208l-0.412,0.001l-0.336-0.104l-0.139-0.513l0.144-0.613l0.34-0.159l0.772,0.179h1.661l0.393-0.162l0.315-0.304
		l0.317-0.183L293.658,480.746z M294.888,474.874l0.122,0.652l0.028,0.756l-0.026,1.532l-0.164,0.641l-0.396,0.185l-0.47,0.068
		l-0.875,0.686l-0.966-0.333l-0.464,0.269l-0.299-0.632l-0.487-0.154l-0.52,0.179l-0.407,0.375l-0.185,0.349l-0.069,0.243
		l-0.065,0.121l-0.185-0.014l-0.188-0.119l-0.572-0.579v1.184h-0.112l-0.117-0.849l-0.068-0.218l-0.566-0.65l-0.17-0.293
		l0.041-0.499l0.362-0.522l1.783-1.773l0.628-0.231l0.461-0.457l0.241-0.149l0.304-0.013l0.533,0.123l0.273-0.11l-0.082-0.372
		l0.027-0.343l0.122-0.28l0.192-0.174l-0.085-0.336l-0.05-0.134l0.297-0.209l0.308-0.001l0.637,0.211l0.199,0.762l0.338,0.317
		l0.376,0.248L294.888,474.874z M430.583,470.165l-0.731,0.597l-0.737,0.255l-0.653-0.407l-0.475-1.385h0.625l0.475,0.307
		l1.026,0.244L430.583,470.165z M414.33,439.146l-0.06-0.092l-0.164-0.454l-0.088-0.177l-0.293-0.26l-0.939-0.464l2.109,0.036
		l1.114,0.339l1.603,1.071l-0.93,0.032l-0.39-0.091l-0.414-0.401l0.021,0.787l0.273,0.251l0.825-0.096l-0.478,0.66l-0.564-0.097
		l-0.939-0.826L414.33,439.146z M416.489,400.834l0.082,0.085l0.123,0.053l0.114,0.074l0.05,0.148l-0.068,0.356l-0.158,0.009
		l-0.79-0.501l-1.001-1.198l-1.021-0.583l-0.235-0.773l-0.076-0.982l0.072-1.813l-0.016-0.417l-0.232-0.787l0.065-0.271l0.205-0.083
		l0.291,0.155l0.085,0.188l0.206,0.359l0.079,0.201v0.134l-0.035,0.182l-0.015,0.208l0.05,0.226l0.225,0.342l0.484,0.47l0.151,0.434
		l-0.299-0.046l-0.42-0.366l-0.264-0.062l0.176,0.507l0.807,1.735l0.183,0.583l0.175,0.358l0.244,0.021l0.396-0.441l0.047,0.518
		l0.079,0.346L416.489,400.834z M457.768,268.312l0.464-1.194l0.716,0.135l0.285,0.807l-0.845,0.807l0.132-0.275l-0.138-0.407
		l-0.176-0.115l-0.208,0.075L457.768,268.312z M415.32,444.803l0.056,0.089l0.029,0.197l-0.05,0.154l-0.062,0.081l-0.502,0.895
		l-0.364,0.261l-0.054,0.233l-0.06,0.174l-0.002,0.223l-0.035,0.214l-0.053,0.143l-0.084,0.161l-0.114,0.188l-0.15,0.107
		l-0.167-0.071l-0.091-0.001l-0.085,0.124l-0.172,0.009l-0.184-0.077l-0.2-0.235l-0.199-0.346l-0.056-0.271l0.085-0.127l0.131,0.013
		l0.15-0.088l-0.063-0.215l-0.15-0.265l0.023-0.137l0.109,0.034l0.164-0.068l0.182-0.21l0.044-0.237l-0.129-0.106l0.057-0.169
		l0.732-0.511l0.332-0.394l0.308-0.277l0.273-0.183l0.241,0.021l0.109,0.387V444.803z M419.477,440.89l0.505,0.075l0.111,0.054
		l-0.217,0.261l-1.253,0.827l-0.159-0.093l0.109-0.388l0.208-0.4l0.247-0.335l0.242-0.095L419.477,440.89z M420.941,437.855
		l0.111,0.033l0.137,0.165l-0.057,0.215l-0.161,0.172l-0.135,0.18l-0.228,0.462l-0.016,0.108l0.003,0.103l-0.048,0.068l-0.084,0.049
		l-0.12-0.026l-0.182-0.159l-0.195-0.099l-0.101-0.004l-0.103,0.017l-0.161-0.138l0.035-0.362l0.25-0.444l0.346-0.33l0.329-0.114
		l0.255,0.043L420.941,437.855z M418.759,436.25l-0.22-0.237l-0.192-0.279l-0.085-0.166l-0.188-0.298l0.167-0.135l0.734,0.019
		l0.056-0.086l0.126,0.004l0.141,0.084l0.164,0.154l0.293,0.459l0.122,0.081l0.066,0.03l0.044,0.207l0.053,0.462l-0.103,0.419
		l-0.267,0.283l-0.79,0.414l-0.095,0.026l-0.079-0.154l0.066-0.251l0.112-0.085l0.051-0.108l-0.04-0.211l-0.026-0.311
		L418.759,436.25z M408.492,434.669l0.289-0.147l2.069,0.578l0.213,0.216l-0.298,0.075l-0.16-0.04l-0.359-0.007l0.104,0.125
		l0.229,0.374l-0.186,0.364l-0.396,0.111l-0.443-0.081l-0.461-0.281l-0.31-0.289l-0.106-0.268l-0.081-0.272l-0.129-0.199
		L408.492,434.669z M421.973,434.046l0.195,0.095l0.079,0.226l-0.072,0.133l-0.176,0.134l-0.145-0.121l-0.021-0.232L421.973,434.046
		z M423.562,434.362l0.073,0.173l0.032,0.354l-0.191,0.194l-0.299-0.216l-0.228-0.32l-0.084-0.094l-0.07-0.097l-0.009-0.246
		l0.158-0.199l0.241,0.014l0.258,0.251L423.562,434.362z M423.263,432.93l-0.302,0.571l-0.273,0.381l-0.389-0.052l-0.211-0.562
		l0.233-0.541l0.452-0.211l0.238-0.053l0.082,0.036l0.141,0.172L423.263,432.93z M418.408,430.349l-0.182,0.081l-0.158,0.186
		l-0.085,0.34l-0.17,0.049l-0.273-0.191l-0.092,0.02l0.016,0.179l-0.078,0.064l-0.098-0.023l0.197,0.714l-0.063,0.378l-0.192,0.13
		l-0.156-0.108l-0.073-0.299l0.044,1.178l-0.141-0.039l-0.195,0.126l-0.106,0.212l-0.104-0.01l-0.094-0.211l-0.065-0.309l-0.1-0.326
		l-0.17-0.292l-0.141-0.334l-0.023-0.355l-0.059-0.156l-0.072-0.166l0.071-0.277l0.189-0.146l0.238-0.017l0.194,0.091l0.154,0.39
		l0.013-0.03l-0.035-0.165l0.062-0.14l0.097-0.055l0.12-0.014l0.109-0.059l-0.022-0.048l-0.125,0.038l-0.109-0.012l-0.062-0.087
		l-0.084-0.048l-0.132,0.017l-0.048-0.121l0.103-0.273l0.157-0.278l0.371-0.434l0.217-0.308l0.311-0.245l0.411-0.151l0.393-0.006
		l0.364,0.156l0.176,0.211l0.003,0.164l0.082,0.061l0.076-0.004l0.828-0.246l-0.029,0.188l-1.011,0.492L418.408,430.349z
		 M424.199,425.823l0.073,0.035l0.082,0.154l-0.031,0.151h-0.072l-0.097,0.044l-0.131,0.134l-0.233,0.054l-0.332-0.039l-0.166-0.125
		l-0.264,1.082l-0.137,0.316l-0.173,0.072l-0.182,0.093l-0.399-0.191l-0.088-0.42l0.178-0.351l1.25-1.55l0.266-0.139l0.223,0.19
		L424.199,425.823z M421.973,426.989l-0.423,0.339l-0.057,0.1l0.003,0.104l-0.07,0.071l-0.138,0.02l-0.135,0.052l-0.455,0.267
		l-0.238,0.084l-0.244-0.023l-0.004-0.104l0.321-0.184l0.392-0.304l0.351-0.448l0.17-0.267l0.716-0.824l1.074-0.873l-0.003,0.309
		l-0.341,0.523l-0.854,1.079L421.973,426.989z M424.535,419.531l0.042,0.026l0.065,0.118l-0.006,0.206l-0.075,0.193l-0.181,0.182
		l-0.285,0.105l-0.282-0.016l-0.239-0.109l-0.137-0.092l-0.059,0.092l-0.109,0.117l-0.159-0.032l-0.473,0.077l-0.1-0.299
		l0.214-0.569l0.794-1.374l0.181-0.469l0.135-0.092l0.17,0.069l0.175,0.142l0.175,0.263l0.135,0.396l0.016,0.47l-0.069,0.461
		l-0.006,0.216l0.05-0.036L424.535,419.531z M419.623,405.578l0.087-0.004v-0.134l-0.298-0.425l0.113-0.156l0.357,0.071l0.267,0.194
		l0.15,0.217l0.079,0.261l0.123,0.146l0.176,0.075l0.106,0.208l-0.003,0.221l-0.076,0.077l0.01,0.03l0.106-0.038l0.095-0.074
		L421,406.31l0.106,0.304l0.013,0.27l-0.449,0.257l-0.379,0.125l-0.445-0.103l-0.216-0.093l-0.072-0.208l-0.112-0.443l-0.021-0.332
		l0.028-0.187l0.066-0.233L419.623,405.578z M365.188,545.221l0.225-0.007l0.164-0.057l-0.019,0.174l-0.207,0.193l-0.244,0.043
		l-0.043,0.166l0.087,0.359l0.006,0.281l-0.026,0.129l-0.097,0.079l-0.164-0.01l-0.079-0.025l-0.58-0.472l-0.159-0.474l0.228-0.479
		l0.255-0.145l0.111,0.124l0.145,0.084l0.183-0.003L365.188,545.221z M386.131,472.33l0.191,0.168l0.06,0.221l-0.028,0.436
		l-0.197,0.272l-0.223,0.027l-0.151-0.123l-0.198-0.516l-0.071-0.469l0.223-0.212L386.131,472.33z M386.58,471.33l0.34-0.158
		l0.153,0.067l-0.066,0.046l-0.037,0.008l-0.088,0.185l-0.062,0.106l-0.179,0.193l-0.238,0.123l-0.299,0.014l-0.346-0.106
		l-0.336-0.266l-0.225-0.4l-0.1-0.319l-0.094-0.157l-0.073-0.182l0.025-0.224l-0.092-0.227l-0.203-0.298l0.088-0.309l0.32-0.178
		l0.161-0.046l0.235-0.134l0.123-0.034l0.073,0.048l0.236-0.101l0.107,0.059l0.082,0.09l-0.048,0.196l-0.186,0.297l-0.203,0.104
		l-0.203-0.041l0.332,0.323l-0.032,0.115l-0.208-0.003l-0.114,0.182l0.056,0.263l0.279,0.363l0.437,0.417L386.58,471.33z
		 M412.365,449.303l0.53-0.369l0.113,0.094l-0.059,0.337l-0.27,0.33l-0.39,0.229l-0.142,0.129l-0.141,0.075l-0.145-0.027
		l-0.066,0.171l0.172,0.25l0.279,0.114l0.029,0.141l-0.506,0.112l-0.286,0.159l-0.622,0.176l-0.39,0.298l-0.185,0.006l-0.141-0.095
		l-0.084-0.111l0.035-0.308l0.277-0.52l0.279-0.339l0.64-0.521l0.264-0.063l0.249,0.006l0.164-0.051l0.112-0.094L412.365,449.303z
		 M410.143,447.885l-0.066,0.409l-0.079,0.144l-0.137-0.188l-0.144-0.077l-0.126,0.145l-0.148-0.014l-0.204-0.265l-0.041,0.031
		l0.06,0.35l-0.009,0.301l0.028,0.312l-0.1,0.273l-0.245,0.151l-0.245-0.091l-0.335-0.402l-0.076,0.029l-0.141,0.1l-0.27,0.337
		l-0.276,0.214l-0.109-0.053l-0.001-0.216l0.037-0.124l0.109-0.505l0.119-0.208l0.194-0.073l0.101-0.127l-0.031-0.205l0.054-0.232
		l0.179-0.299l0.194-0.171l0.393,0.067l0.434-0.17l0.409-0.061l0.801,0.1l-0.016,0.154l-0.666,0.304l0.035,0.077l0.085-0.081
		l0.12-0.017L410.143,447.885z M401.289,448.456l-0.087,0.299l-0.041,0.282l0.062,0.4l0.009,0.352l-0.073,0.346l-0.053,0.346
		l-0.05,0.24l-0.123,0.134l-0.123,0.104l0.035,0.264l0.154,0.435l-0.114,0.034l-0.489-0.763l-0.012,0.171l-0.161-0.04l-0.161-0.421
		l0.026-0.583l-0.12-0.3l-0.147-0.018l-0.028-0.251l0.046-0.611l0.173-0.573l0.173-0.41l0.038-0.282l-0.035-0.207l0.012-0.365
		l-0.053-0.965l0.15-0.357l0.197-0.016l0.047,0.253l0.059,0.206l0.073,0.046l0.082,0.036l0.164,0.218l0.134,0.399l0.123,0.495
		l0.097,0.577L401.289,448.456z M408.816,311.54l-0.825,0.321l-0.936-0.187l-0.377-0.827l0.175-0.66l0.164-0.484l0.062-0.417
		l0.229-0.369l0.42-0.132l0.32,0.138l0.194,0.244l0.188,0.119l0.449-0.255l0.385,0.072l0.188,0.106l0.023,0.312l-0.07,0.543
		l-0.159,0.389l-0.026,0.235l-0.07,0.125l-0.216-0.043l-0.201,0.039l-0.053,0.187l0.135,0.109l0.1,0.214L408.816,311.54z
		 M458.339,272.311l-0.113,0.407l-0.153,0.342l-0.236,0.274l-0.308,0.023l0.031-0.387l0.666-0.959l0.078,0.041L458.339,272.311z
		 M458.83,268.862l0.161-0.085l0.229-0.325l0.333-0.355l0.185-0.071l-0.026,0.078l-0.087,0.136l-0.028,0.149l0.063,0.186
		l-0.021,0.179l-0.123,0.189l-0.06,0.277l0.043,0.327l0.026,0.398l-0.069,0.499l-0.176,0.492l-0.257,0.321l-0.267,0.218l-0.123-0.04
		l-0.135,0.01l-0.27,0.308l-0.048-0.417l0.339-1.997l0.145-0.309L458.83,268.862z M486.059,197.303l0.176,0.231l-0.134,0.374
		l-0.406,0.332l-0.22,0.127l-1.456,0.111l-0.176-0.15l0.022-0.475l0.151-0.447l0.21-0.109l0.185,0.138l0.084,0.23l0.202,0.169
		l0.352-0.272l0.339-0.442l0.361-0.004L486.059,197.303z M481.47,198.383l-0.095-0.185l-0.103-0.484l0.026-0.38l0.057-0.17
		l0.001-0.443l0.167-0.247l0.314,0.002l0.653,0.369l0.092,0.251l-0.147,0.17l-0.012,0.258l0.185,0.357l0.188,0.23l0.081,0.222
		l0.027,0.332l-0.027,0.251l-0.213-0.076l-0.166-0.143l-0.167-0.102L481.47,198.383z M489.429,194.129l0.282,0.186l0.12,0.283
		l-0.053,0.243l-0.172,0.069l-0.295-0.078l-0.376-0.209l-0.263-0.574l0.107-0.356l0.329,0.225l0.17,0.179L489.429,194.129z
		 M482.646,195.064l-0.461-0.827l-0.116-0.524l0.203-0.181l0.242-0.137l0.27,0.051l1.388,0.911l0.142,0.007l0.132-0.05l0.148,0.149
		l0.17,0.335l0.405,0.388l-0.009,0.387l-0.255,0.204l-0.205-0.055l-0.208-0.372l-0.241-0.285l-0.263-0.204l-0.26-0.08l-0.15,0.149
		l0.068,0.372l-0.063,0.046l-0.004,0.145l0.04,0.25l0.194,0.35l0.037,0.17l-0.097,0.042l-0.258-0.154L482.646,195.064z
		 M489.124,191.755l0.863-0.465l0.282,0.188l-0.072,0.412l-0.289,0.154l-0.135,0.204l-0.032,0.333l-0.107,0.273l-0.159,0.156
		l-0.192-0.051l-0.206-0.133l-0.06,0.027l0.078,0.147l-0.122-0.036l-0.546-0.378l-0.104-0.181l-0.079-0.367l0.122-0.224l0.189-0.018
		l0.258,0.043L489.124,191.755z M488.983,191.23l-0.208-0.27l-0.075-0.192l0.247-0.313l0.486-0.02l0.17,0.554l-0.277,0.286
		L488.983,191.23z M496.061,185.914l0.257,0.282l0.148,0.421l-0.057,0.292l-0.197-0.084l-0.126-0.005l-0.056,0.241l0.035,0.358
		l0.163,0.652l-0.264-0.167l-0.542-0.597l-0.508-0.74l-0.305-0.835l0.073-0.743l0.33-0.236l0.459,0.038l0.473,0.38l0.063,0.346
		l-0.269,0.034l0.021,0.129L496.061,185.914z M511.11,184.272l0.064,0.172l0.035,0.268l-0.059,0.391l-0.12,0.279l-0.117,0.166
		l-0.056,0.155l0.026,0.129l-0.194,0.305l-0.643,0.637l-0.693-0.471l-0.332-0.623l0.003-0.939l0.144-0.236l0.126,0.389l0.147,0.157
		l0.107-0.184l0.051-0.514l0.103,0.054l0.191,0.238l0.214,0.132l0.216,0.043l0.207-0.129l0.181-0.236l0.114,0.054l0.098,0.207
		l0.056-0.154l0.047-0.297L511.11,184.272z M492.065,186.032l-0.156-0.223l-0.12-0.234l0.009-0.261l0.076-0.379l0.027-0.564
		l0.064-0.654l0.204-0.179l0.793,0.883l0.21,0.68l0.161,0.908l-0.107,0.389l-0.81-0.143L492.065,186.032z"/>
</g>
<g id="Copyright">
	<text transform="matrix(1 0 0 1 681.6426 577.5916)" class="st1 st2"> Vemaps.com</text>
</g>
</svg>
