<?xml version="1.0" encoding="utf-8"?>
<!-- Generator: Adobe Illustrator 23.0.1, SVG Export Plug-In . SVG Version: 6.00 Build 0)  -->
<svg version="1.1" xmlns="http://www.w3.org/2000/svg" xmlns:xlink="http://www.w3.org/1999/xlink" x="0px" y="0px"
	 viewBox="0 0 800 600" style="enable-background:new 0 0 800 600;" xml:space="preserve">
<style type="text/css">
	.st0{fill:#808080;}
	.st1{font-family:'Roboto-Regular';}
	.st2{font-size:14px;}
</style>
<g id="El_Salvador">
	<path class="st0" d="M35.034,322.492l-4.892-20.407L30,297.134l0.758-5.115l1.626-4.977l2.424-4.546l3.656-3.766l8.385-4.481
		l3.75-3.018l2.834-4.433l2.021-4.58l2.598-4.417l4.524-4.011l29.364-20.627l6.506-6.519l3.261-2.141l13.525-5.169l4.508-0.309
		l5.543,1.449l7.951,6.202l4.485,1.823l4.469-2.409l0.118-1.75l-0.23-0.534l-1.973-4.57l-0.3-2.418l0.868-2.572l13.06-23.154
		l6.119-6.71l7.706-5.937l8.038-3.689l32.815-7.884l1.966-1.955l-0.047-4.92l-0.979-1.287l-3.877-1.939l-1.334-1.328l-0.569-2.053
		l-0.553-4.815l-0.395-1.475l-1.777-3.389l-0.884-1.198l-1.769-1.679l-2.108-0.945l-6.388-0.848l-1.887-4.466l1.808-2.648l3.064-2.2
		l1.934-3.081l-0.884-3.676l-2.234-3.122l-1.311-3.562l1.99-4.997l4.335-3.22l4.493,0.375l3.34,3.399l0.884,5.845l4.153-3.008
		l7.556-9.147l2.104-0.898l3.32-1.417l4.848,0.636l3.451,1.826l3.45,1.28l4.809-1.003l6.948-7.199l3.111-1.215l0.403,6.099
		l1.579-2.422l0.332-0.717l8.798,6.465l0.061,0.009l4.71,0.758l11.807,1.9l9.483,4.516l15.586,3.342l7.754,5.51l14.11,4.222
		l2.898-2.657l4.398-8.526l2.424-2.502l2.7-0.75l1.792,0.342l1.5,1.402l1.753,2.372l1.524,2.894l0.663,3.138l-0.268,3.211
		l-1.2,3.105l3.482,3.007l10.422,1.222l4.888,2.453l1.95,3.903l1.216,9.664l1.374,2.827l7.754,5.906l2.819,3.413l2.74,4.651
		l1.153,3.951l0.172,1.471l0.302,2.577l0.995,3.347l2.692,1.955l2.961-0.66l3.624-2.126l4.272-1.849l4.777,0.098l7.564,4.846
		l6.396,8.095l4.587,9.421l2.006,8.891l5.369-0.798l13.399,1.009l3.64-1.425l3.151-1.954l2.669-0.277l2.187,3.59l-0.253,5.332
		l-1.84,5.185l-0.174,4.436l4.793,3.15l6.553,0.879l1.421,0.521l2.203,1.896l1.516,2.116l0.687,2.629l-0.111,1.625l-0.039,0.564
		l1.871-0.724l7.785-1.204l7.785,0.521l23.15,7.422l13.462,1.025l2.961,1.245l2.732,2.693l-0.237,0.993l-0.095,0.765l-0.177,0.156
		l-0.249,0.219l-0.086-0.011l-1.256-0.168l0.335,0.737l1.56,3.437l-0.221,3.669l-1.042,3.832l-0.632,4.645l0.853,2.993l3.308,8.264
		l0.205,5.042l-2.692,4.448l8.148-0.407l5.716-3.489l5.567-2.358l12.31-2.741l2.929,0.163l4.872,1.936l2.234,0.228l0.363-0.911
		v-1.862l0.221-1.952l0.955-1.123l1.99-0.13l2.44,0.423l2.432,0.732l1.958,0.83l2.124-3.945l3.308-1.22l3.703-0.277l3.324-1.139
		l2.416-2.318l1.026-1.82l1.225-2.174l2.005-2.229l3.656-1.57l2.708,0.439l1.958-0.456l1.461-4.304l-0.545-0.846l-2.732-2.53
		l-0.632-1.123l-0.3-6.233l0.142-1.058l3-1.139l4.587,0.488l0.735,0.164l7.39,1.651l4.872,0.114l15.934-1.912l8.054,0.456
		l3.514,2.921l4.477,11.692l4.43,5.328l5.63,5.149l4.99,5.97l2.542,7.808l13.928-6.978l4.572-1.236l0.668,0.136l1.732,0.352
		l4.508,2.944l2.092,0.61l1.398-0.708l3.932-3.042l2.377-0.822l3.056,0.187l5.977,1.253l2.945-0.195l2.961-2.107l2.527-3.221
		l3.072-2.562l4.587-0.195l2.882,2.278l2.977,8.28l2.479,3.733l1.587,0.968l4.272,1.659l1.863,1.025l4.83,4.168l8.656,7.468
		l5.377,2.171l-2.756,4.578l-6.167,14.268l-1.54,5.137l1.982,5.21l-1.508,3.381l-3.064,2.918l-2.661,3.86l-1.105,5.55l0.253,11.668
		l-0.695,5.728l-7.327,17.757l-1.792,8.69l3.198,7.179l3.15,1.137l6.474-2.16l4.445,1.738l2.353,2.745l1.571,3.768l0.545,4.182
		l-0.719,4.035l-5.274,6.016l-24.067,11.035l-0.211-0.077l-2.4-1.406l-1.517-2.582l-2.325-6.737l-8.604,14.956l-2.238,8.819
		l5.62,3.911l3.594,1.367l10.146,9.75l5.77,3.91l0.497,1.84v3.795l-2.499,6.707l-6.08,4.791l-22.717,11.458l-6.155,4.93
		l-1.082,5.019l7.05,4.904l-10.781,2.49l-42.115-2.899l-9.885-1.928h-2.089l-5.11,2.03l-26.386,2.235l-28.3-4.329l-7.349,2.401
		l-3.917-1.341l-4.439-0.996v-1.954l6.901-0.46l0.485-4.828l-3.693-5.977l-5.571-3.934l1.206,2.44l3.643,5.096l1.417,3.18
		l-11.042-0.37l-5.409,0.562l-4.613,1.954l2.947,1.277l2.387-0.358l2.872-0.83l4.315-0.089v2.337l-7.112,2.95l-7.846-0.23
		l-6.118-3.793l-1.89-7.701l3.009,1.354l1.169,0.792l4.178-4.291v-1.941l-5.222-2.376l-5.745-8.099l-3.842-2.402l1.032,4.548
		l1.728,3.717l0.895,3.308l-1.38,3.244l-4.439-2.529l-12.919-3.257l-5.583-2.976l-5.048-9.044l-2.35-1.469l-3.581-0.294
		l-10.072-2.044h-4.501l-12.384,2.338l-17.271,0.46l-3.768,1.686l2.052,1.648l2.238,1.201l2.238,0.37l2.002-0.907l8.629,2.031
		l24.533-2.657l2.736,0.434l3.942,2.146l2.139,2.018l3.805,4.65l2.574,1.916v2.337l-5.72-0.971l-4.165-0.792l-9.077-2.721v2.146
		l25.043,5.16l13.081,4.266l5.869,5.773l-2.139,3.754l-5.471-0.919l-6.093-3.205l-4.016-3.039l-4.514-2.299l-78.908-14.702
		l-9.462-4.407l-75.837-35.395l-36.271-22.319l-20.765-9.193l-22.431-5.345h-10.432l-7.945-1.88l-43.414,0.356l-18.556-4.641
		l-8.728-1.71l-19.378-6.396l-10.195,2.117l-29.006,0.358l-4.66-3.232l-3.08-11.551l-1.152-7.212l-3.824-3.159l-6.295-3.899
		l-24.769-14.098l-21.346-9.77L35.034,322.492z M759.885,489.978l-0.273-3.995l2.223-1.593l4.225,1.401l2.604,5.779l0.174,4.786
		l1.162,3.202l-2.591,1.397l-3.946-1.409l-2.605,1.201l0.025-3.395l-1.627-3.384L759.885,489.978z M747.818,474.401l2.398,1.398
		l2,4.594l-1.797,2.597l-1.998,1.998l-3.999-3.594l-1.002-4.993l1.798-1.798L747.818,474.401z"/>
</g>
<g id="Copyright">
	<text transform="matrix(1 0 0 1 681.6426 577.5916)" class="st1 st2">© Vemaps.com</text>
</g>
</svg>
