<?xml version="1.0" encoding="utf-8"?>
<!-- Generator: Adobe Illustrator 23.0.1, SVG Export Plug-In . SVG Version: 6.00 Build 0)  -->
<svg version="1.1" xmlns="http://www.w3.org/2000/svg" xmlns:xlink="http://www.w3.org/1999/xlink" x="0px" y="0px"
	 viewBox="0 0 800 600" style="enable-background:new 0 0 800 600;" xml:space="preserve">
<style type="text/css">
	.st0{fill:#808080;}
	.st1{font-family:'Roboto-Regular';}
	.st2{font-size:14px;}
</style>
<g id="Syria">
	<path class="st0" d="M108.931,524.779l2.353-3.532l4.422-5.258l0.676-2.697l-0.338-1.311l1.032-3.136l1.517-2.628l0.63-0.163
		l1.243-2.381l-2.074-3.454l-0.493-1.315l-1.169-10.04l0.274-1.399l-3.307-1.396V484.5l0.968-1.563l0.968-2.065l-0.283-3.048
		l-1.992-1.239l-0.356-4.939l-2.476-1.737l-0.621-0.825l2.96-4.208l-3.38-2.318l1.937-0.897l0.685-0.746l1.453-1.069l0.21-1.411
		l0.274-0.583l0.137-1.729l0.484-0.654l-0.119-0.566l2.123-1.273l2.208-1.324l1.626-0.972l2.741-2.324l1.407-3.382l-1.197-2.153
		l1.005-1.406l2.083-0.677l2.074,0.027l1.681-0.776l1.818-1.206l1.361-1.609l0.283-1.968l-0.777-1.198l-1.48-1.103l-1.626-0.814
		l-1.261-0.351l-2.065-1.16l-1.955-0.368l-1.169-0.732l0.338-2.269l0.356-0.362l1.151-0.439l0.42-0.412l0.237-1.021l-0.256-1.927
		l0.128-0.89l0.658-0.947l1.617-1.491l0.539-1.211l1.215-1.824l2.924-2.509l1.188-2.267l0.877-1.152l1.416-0.591l1.645-0.432
		l1.535-0.663l3.17-1.952l0.585,0.341l1.124,1.422l0.713,0.454l1.846-0.044l1.425-0.861l1.233-1.007l1.343-0.509l1.535,0.297
		l4.541,2.241l3.335,0.797l1.699-0.275l1.069-1.408l-0.174-2.186l-1.526-0.944l-3.472-0.594l-2.604-2.036l-0.557-0.649l-0.566-1.018
		l-0.155-0.385l1.891-3.848l1.215-1.906l1.389-1.719l3.518-3.096l2.942-3.751l1.864-0.951l1.014,0.088l1.9,0.711l1.215-0.061
		l1.443-0.725l0.484-0.987l0.174-1.255l0.512-1.509l1.727-2.193l3.956-3.396l2.046-3.448l2.494-2.761l-0.048-0.107l-0.472-1.042
		l-2.138-2.127l-0.576-1.539l-0.42-2.012l0.667-1.382l0.85-1.18l0.183-1.391l-0.457-0.832l-0.576-0.138l-0.649,0.05l-0.63-0.277
		l-0.941-1.031l-1.909-2.694l-0.439-0.83l-0.238-0.858l0.073-0.88l0.283-0.556l0.32-0.506l0.238-0.739l0.311-1.758l0.073-1.188
		l-0.484-0.939l-1.407-1.016l-0.649,0.227l-0.64-0.424l-1.279-1.595l-1.498-0.654l-1.188-0.997l-0.877-1.385l-0.566-1.793v-0.017
		l-1.215-0.43l-2.421-0.194l-2.586,0.119l-1.718,0.521l-0.237,0.075l-0.247,0.019l-0.247-0.019l-0.238-0.075l-0.251-0.475
		l-0.881-1.665l1.48-1.58l2.421-1.314l1.727-1.364l0.402-1.686l-0.11-1.581l0.183-1.287l1.307-0.816l1.306,0.377l0.941,0.766
		l0.63-0.499l0.347-3.386l-2.138,0.694l-2.193,0.044l-2.092-0.722l-1.782-1.605l-2.083-3.799l-1.316-0.867l-1.836,1.289
		l-0.292,0.822l-0.036,2.105l-0.329,0.988l-0.813,0.877l-0.877,0.4l-5.336,0.3l-0.539-0.189l-1.042-0.783l-0.448-0.194l-0.539,0.133
		l-1.06,0.644l-0.384,0.122l-3.865-0.279l-2.202-0.159l-2.339,0.333l-2.019-0.056l-1.919-0.561l-1.544-1.26l-0.649-0.305
		l-0.777-0.217l-1.126,0.042l-0.374-1.998l-1.611-3.342l-0.575-2.871l-0.863-1.584l-0.194-0.954v-4.401l-0.259-0.67l-1.554-2.672
		l-0.345-1.078l-0.482-2.261l-2.849-7.7l0.532-0.289l0.058-0.509l0.532-0.693l0.158-0.746l-0.158-0.746l-0.532-0.693v-0.737
		l0.446-0.474l0.029-0.066l-0.201-0.162l-0.273-0.773l0.712-1.515l0.511-0.79l0.705-0.711l0.46-1.634l-0.288-1.581l-0.518-1.445
		l-0.317-1.23v-5.169l0.561-1.284l4.158-6.432l1.87-1.879l-0.806-2.906l-3.36-6.832l1.209-3.636l-0.432-1.847l-0.655-7.022
		l0.201-1.558l-0.892-0.874l-4.266-5.789l-1.813-0.901l-0.885-0.663l-0.374-1.069l-0.662-0.61l-1.424,0.221l-1.367,0.513
		l-0.489,0.283l-0.95-0.504l0.13-1.22l0.453-1.485l0.086-1.308l-0.539-0.561l-3.086-1.667l0.151-0.535l0.187-1.075l0.216-0.61
		h-0.554l-1.209,0.672v-0.672l1.77-0.637l1.762-1.124l1.338-1.57l0.518-1.938l-0.201-1.217l-0.784-1.492l-0.18-1.341l0.482-0.797
		l2.072-0.691l3.403-6.601l0.158-0.585l-0.021-2.544l-0.367-2.088l-0.935-2.559l-1.194-2.391l-1.173-1.557l4.266,0.266l2.122-0.497
		l0.899-1.624l0.374-2.104l2.302-3.468l0.842,0.287l1.745-0.355l1.782-0.654l1.727-0.271l1.105,1.264l0.027,1.41l-0.265,1.427
		l0.201,1.302l1.023,0.891l1.37,0.327l2.768,0.085l2.613,1.223l5.144,3.753l1.486-0.268l0.204-0.037l0.987-3.217l0.539-7.702
		l1.946-3.171l2.841-1.033l2.129,0.604l1.407-0.339l0.74-3.855l0.009-0.023l1.754-0.711l3.481,1.366l1.882-0.627l-0.219-3.106
		l0.274-15.818l0.164-1.607l0.512-0.826l0.722-0.73l0.119-0.945l-1.27-1.495l1.023-1.036l1.115,1.331l1.105,0.793l1.215,0.413
		l2.421,0.334l0.53,0.164h0.484l0.749-0.351l0.42-0.623l0.119-0.781l0.32-0.708l0.996-0.345l1.626-0.255l6.706,1.042l1.681,0.028
		l6.258-1.195l0.512-0.912l-0.082-2.47l-0.32-1.552l-0.621-1.808l-0.858-1.669l-0.01-0.02l-1.023-1.196l-1.443-0.573l-2.914-0.306
		l-0.895-0.885l0.402-0.023l0.493-0.992l0.576-1.645l0.018-0.97l-0.1-0.828l-0.247-0.755l-0.429-0.732l-0.429-0.312l-1.398-0.63
		l-0.621-0.551l-0.466-0.829l-1.672-5.967l-0.229-1.818l0.375-1.648l2.64-4.234l0.411-4.754l-0.064-4.893l1.197-4.657l1.051-2.58
		l0.301-2.165l0.073-2.131l0.384-2.445l1.096-2.167l1.444-1.956l0.996-2.134l-0.301-2.699l0.822-0.051l0.831,0.114l0.088,0.031
		l16.275,5.674l5.582,0.359l1.69,0.399l1.763,0.696l1.663,0.975l1.361,1.277l2.695,2.508l0.694,1.419l0.091,2.296l-0.767,3.537
		l0.329,1.264l1.663,1.491l1.745,0.968l0.822-0.239l0.685-1.036l1.37-1.395l1.663-0.752l1.462,0.12l1.453,0.444l1.654,0.216
		l5.619-1.458l1.964-0.159l14.371,2.659l3.682,0.029l13.019-8.412l5.363-2.382l14.645-3.135l14.17-6.526l2.467-0.673l1.597-1.021
		l8.572-5.482l5.929-2.311l3.024-0.317l5.802,0.74l16.801,5.08l4.367,2.432l9.355,9.899l2.558,2.705l5.381,2.82l6.222,0.803
		l14.371-0.689l1.946-0.581l4.614-0.33l13.586,4.591l4.751-0.194l17.866-3.427l28.601-5.489l18.967-7.152l8.789-5.291l3.179-1.09
		l3.316-0.622l3.307-1.553l6.3-4.242l11.698-7.881l1.782-1.107l1.882-0.729l1.928-0.389l2.019-0.114l4.056-1.187l11.822-6.577
		l4.376-1.687l16.573-2.463l21.096,4.261l3.947,1.62l1.909,0.515l24.613-1.174l36.826-8.726l9.979-2.366l3.865-2.334l6.66-6.288
		l4.44-5.89l1.279-0.77L679.419,30l1.005,1.218l0.11,1.286l-0.146,1.108l0.091,0.474l1.206,0.204l2.686,1.309l0.503-0.247
		l0.557-0.614l0.585-0.477l0.548,0.167l0.384,0.597l0.448,1.085l0.384,0.597l3.015,2.433l0.603,0.319l0.576,1.414l-1.581,6.199
		l1.005,1.413l0.694,0.668l0.174,1.567l0.064,3.137l0.566,1.312l0.667,1.131l0.502,1.24l0.027,1.609l-0.034,0.026l-2.735,2.115
		l-5.655,5.401v0.011l-0.027,0.006l-9.118,9.806l-17.669,18.959l-11.914,12.758l-2.339,1.997l-2.421,1.149l-27.418,5.852
		l-5.738,0.961l-2.604,1.211l-1.772,2.444v0.011l-0.009,0.006v0.011l-7.802,15.283l-0.722,2.943l-2.851,27.49l0.009,1.826
		l0.347,1.893l2.266,5.326l0.009-0.006v0.011l6.834,14.91l0.959,3.499l0.42,3.577l0.375,14.973l-0.484,3.406l-1.398,3.287
		l-2.984,4.504l-4.17,6.292v0.017h-0.009h-0.009l-0.813,3.265l-0.776,10.583l-3.691,13.378l-0.868,6.586l0.071,2.513l0.505,17.808
		l0.749,18.833l-0.201,2.821l-0.758,2.653l-15.175,29.452v0.017l-3.179,7.039l-2.01,2.857l-2.586,1.691l-21.708,5.844l-12.964,7.866
		l-9.776,5.928l-9.776,5.916l-9.776,5.912l-3.442,2.083l-6.334,3.831l-9.776,5.908l-9.767,5.901l-9.785,5.897l-9.767,5.899
		l-9.776,5.884l-9.776,5.888l-9.776,5.882l-9.776,5.881l-9.776,5.877l-9.776,5.879l-9.776,5.867l-9.776,5.868l-21.653,13.479
		l-18.902,11.944l-7.502,4.736l-15.395,9.703l-11.256,7.266l-15.148,9.769l-15.148,9.745l-8.139,5.23l-7.018,4.508l-15.13,9.731
		l-9.785,6.276h-0.018l-13.531,8.851l-14.207,9.759L201.659,570l-1.243-0.051l-5.646-1.492l-1.919-0.057l-1.535,0.908l-3.188-2.427
		l-12.095-1.481l-3.227-0.395l-1.434-0.9l-4.979-0.506l-1.745-0.533l-1.307-0.744l-7.766-7.384l-5.701-3.945l-2.878-2.903
		l-0.959-0.528l-0.457,0.146l-1.005,0.913l-0.439,0.211l-0.53-0.098l-0.914-0.358l-0.557-0.06l-3.271,0.444l-1.266-0.041
		l-1.064-0.035l-0.32-0.076l-0.018-0.45l-0.493-1.222l-3.983-6.073l-0.831-1.757l-0.064-1.971l0.265-1.787l-0.411-1.194l-2.065-0.16
		l-1.279,0.236l-0.923-0.323l-0.777-0.735l-0.804-1.004l0.329,0.049l0.283-0.429l0.119-0.681l-0.137-0.7l-0.338-0.182l-1.142,0.014
		l-0.439-0.147l-1.526-1.555l-0.84-0.494l-9.502-2.221l-0.813-1.045l0.009-0.016l-0.375-0.291l-0.457-0.081l-0.521,0.114
		L108.931,524.779z"/>
</g>
<g id="Copyright">
	<text transform="matrix(1 0 0 1 681.6426 577.5916)" class="st1 st2">© Vemaps.com</text>
</g>
</svg>
