<?xml version="1.0" encoding="utf-8"?>
<!-- Generator: Adobe Illustrator 23.0.1, SVG Export Plug-In . SVG Version: 6.00 Build 0)  -->
<svg version="1.1" xmlns="http://www.w3.org/2000/svg" xmlns:xlink="http://www.w3.org/1999/xlink" x="0px" y="0px"
	 viewBox="0 0 800 600" style="enable-background:new 0 0 800 600;" xml:space="preserve">
<style type="text/css">
	.st0{fill:#808080;}
	.st1{font-family:'Roboto-Regular';}
	.st2{font-size:14px;}
</style>
<g id="Thailand">
	<path class="st0" d="M449.998,354.487l-0.268-0.734l0.095-1.871l-0.069-0.849l-0.475-1.021l-2.403-3.199l-1.486-1.235l-0.228-0.371
		v-2.348l-0.357-1.605l-0.611-1.031l-4.171-4.047l-0.061-0.337l0.83,0.08l-0.432-0.591l-1.305-1.03l0.043-0.38v-0.248l-0.579,0.327
		l-0.547,0.127l-0.426,0.24l-0.161,0.665l0.507,3.359l0.438,0.856l0.069,0.256l-0.127,0.398h-0.297l-0.372-0.166l-0.34-0.106
		l-0.133-0.159l0.032-0.781l-0.02-0.298l-0.645-0.819l-0.991-0.716l-1.083-0.566l-3.803-1.341l-0.562-0.351l-0.501-0.068
		l-0.415,0.625h-0.216l-0.795-0.351l-0.196-0.144l-0.138-0.31l0.023-0.277l0.081-0.233l0.035-0.168l-0.245-0.728l-0.639-1.091
		l-0.078-0.655l0.951,0.24l0.89-0.302l0.746-0.587l0.553-0.588l0.282-0.848l-0.276-0.731l-0.524-0.322l-0.452,0.392l0.285,0.124
		l0.207,0.171l0.144,0.212l0.092,0.236l-0.507,0.615l-0.726,0.42l-0.657-0.066l-0.288-0.845l0.092-1.606l0.216-0.768l0.418-0.743
		h-0.219l-0.225,0.283l-0.524,0.979h-0.236l-0.147-0.442l-0.084-0.454l0.032-0.44l0.199-0.397l-0.409,0.308l-0.568,0.204
		l-0.501-0.053l-0.216-0.459l-0.582,0.167l-0.167,0.081l0.34,0.212l0.133,0.292l-0.035,0.35l-0.173,0.383h0.216l0.752-0.519
		l0.236,0.397l0.161,0.354l0.026,0.355l-0.182,0.401l0.72,0.549l0.369,1.118l-0.305,0.722l-1.293-0.633l-2.175-2.249l-1.06-0.581
		l-0.444-0.319l0.058-0.339l-0.57-0.761l-0.804-0.864l-0.539-0.862l0.219-0.752l0.13,0.295l0.147,0.1l0.196,0.026l0.254,0.074
		l-0.467-0.317l0.236-0.303l0.478-0.37l0.236-0.521h-0.268l-0.187,0.357l-0.23,0.146l-0.265-0.035l-0.259-0.195l0.357-0.326
		l0.179-0.099l0.19-0.071l-1.798,0.04l-0.161-0.298l0.749-0.733l-1.495,0.08l-0.458,0.146v0.27l0.467,0.338l0.32,0.494l0.415,0.385
		l0.752,0.021l-0.173,0.452l-0.075,0.481l-0.017,1.048l-1.221-1.856l-0.478-0.528l-0.594-0.207l-0.663-0.06l-0.449,0.152v-1.573
		l-0.069-0.385l-0.159-0.365l-0.158-0.183l-0.075,0.167l-0.063,0.22l-0.317,0.236l-0.098,0.198l0.461,1.56l0.017,0.398l-1.193-0.921
		l-0.513-0.53l-0.248-0.508l0.726,0.223l-0.13-0.604l-0.242-0.133l-0.294,0.05l-0.303-0.056l-0.288-0.272l-0.144-0.272l-0.109-0.31
		l-0.184-0.384l-0.582-0.812l-0.657-0.663l-0.775-0.549l-0.908-0.478l-0.588-0.173l-2.184-0.074l-0.639,0.21l-0.369,0.49
		l-0.265,0.574l-0.305,0.461l-0.619,0.317l-0.717,0.062l-1.452-0.109l-0.268,0.103l-0.052,0.236l0.02,0.249l-0.055,0.155
		l-0.164,0.031l-0.389-0.04l-0.579,0.024l-1.063-0.263l-1.556,0.242l-0.786,0.272l-0.34,0.341l-0.156,0.673l-0.38,0.044
		l-0.893-0.583l-2.457-1.104l-2.642-0.651l-5.704-0.744l-0.746,0.158l-1.224,0.7l-1.538,0.276l-0.375,0.354l-0.012,0.013
		l-0.115,0.617v0.877l-1.711-0.765v-0.227l0.519-0.399l-0.219-0.599l-0.599-0.351l-0.639,0.36l-0.386-0.221l-0.311,0.022
		l-0.328,0.124l-0.449,0.075l0.167-0.121l0.15-0.156l0.107-0.207l0.055-0.282h-0.72l0.121-0.214l0.242-0.561l0.115-0.217
		l-0.294-0.01l-0.668-0.236l0.616-1.61l0.464-0.685l0.637,0.313h0.219l0.251-0.399l0.308-0.328l0.277-0.403l0.15-0.628l-0.052-0.558
		l-0.184-0.511l-0.253-0.465l-1.325-1.925l-0.144-0.485l0.127-0.343l0.259-0.208l0.303-0.191l0.285-0.293l0.086-0.271l0.078-0.667
		l0.101-0.305l0.305,0.174l0.375-0.18l0.34-0.367l0.184-0.373l-0.017-0.86l-0.354-0.594l-0.415-0.517l-0.199-0.631l-0.15-0.226
		l-0.334-0.104l-0.328-0.158l-0.161-0.382l0.755-0.992l0.573-1.062l0.752-1.059l0.288-0.615l-0.023-0.695l-0.386-1.308l-0.164-0.349
		l-0.481-0.78l-0.104-0.247l0.081-0.383l0.161-0.232l0.167-0.176l0.297-0.819l0.522-0.23l0.645-0.15l0.565-0.382l0.144-0.509
		l0.063-0.841l-0.072-0.785l-0.504-0.709l0.265-0.789l0.616-1.108v-0.249l-0.421,0.298l-0.354,0.333l-0.372,0.271l-0.45,0.114
		h-2.186l-0.882-0.118l-1.772-0.529l-1.51-0.187l-0.763-0.318l-2.475-0.339l-1.069-0.401l-1.397-0.993l-0.642-0.255l-0.086-0.271
		l0.069-0.348l0.182-0.406l0.078-0.504l-0.038-0.573l-0.386,0.737l-0.133,0.584l0.037,1.541l-0.297,0.513l-0.706,0.317l-4.46,0.785
		l-1.729-0.08l-0.873,0.067l-0.683,0.284l-1.674-0.843l-0.524-0.424l-0.357,0.696l-0.415,0.428l-0.57,0.307l-3.071,1.213
		l-1.322,0.271l-0.853,0.387l-0.694,0.312l-0.576,0.158l-0.504,0.375l-0.268,0.754l-0.34,0.561l-0.72-0.197l0.507,0.224
		l-0.061,0.637l-0.274,0.565l-0.444,0.404l-0.576,0.158l-0.519,0.272l-0.072,0.635l0.006,0.031l0.222,1.184l1.112,1.489l2.051,1.737
		l0.118,0.169l0.245,0.203l0.256,0.266l0.107,0.365l0.029,0.325l0.351,1.367l0.588,1.412l-0.086,0.634l-0.314,0.577l-1.167,1.588
		l-0.251,0.514l-0.354,1.174l-0.484,2.616l-0.19,0.535l-1.285,2.055l-0.473,1.425l-0.328,1.49l-0.161,1.533l0.012,1.151l0.006,0.391
		l0.605,2.344l0.098,0.741l-0.133,2.302l0.133,0.805l1.069,2.589l0.043,0.526l-0.302,0.535l-0.778,2.682l0.037,0.343l0.317,0.398
		l0.354,0.332l0.268,0.333l0.164,0.377l0.112,0.746l0.092,0.286l0.012,0.345l-0.156,0.448l-0.184,0.194l-0.57,0.448l-0.236,0.346
		l-0.219,1.298l-0.144,0.321l-0.781,1.296l-3.541,3.767l-0.853,1.581l-0.282,1.666l0.484,1.273l-0.112,0.208l-0.501,0.049
		l-0.251,0.155l-0.095,0.271l-0.009,0.403l0.265,1.37l-0.075,0.213l-0.112,0.268l-0.026,0.333l0.213,0.421l-1.296,0.151l-1.014,0.99
		l-2.875,4.771l-0.179,0.4l-0.15,0.57l-0.689,1.003l-0.153,0.648l-0.052,0.848l-0.144,0.766l-0.222,0.728l-0.913,2.032l-0.092,0.335
		l-0.156,0.388l-0.68,0.727l-0.156,0.364l-0.109,2.081l0.109,0.751l0.596,1.504v0.675l-0.596,0.577l-0.259-0.714l-0.562,0.018
		l-0.622,0.418l-0.47,0.502l-0.253,0.388l-0.242,0.484l-0.176,0.573l-0.078,0.661l0.121,0.775l0.513,1.303l0.115,0.64l-0.101,0.721
		l-0.32,0.8l-0.167,0.424l-0.161,0.643l0.069,0.838l0.547,1.508l0.132,0.753l-0.132,0.547l-0.294-0.018l-0.262-0.252l-0.061-0.154
		l-0.665-0.026l-0.501,0.051l-0.337,0.076l-0.3,0.179l-0.124,0.336v1.477l-0.164,0.657l-2.126,3.237l-0.13,0.321l0.083,0.378
		l0.107,0.255l-0.083,0.148l-0.47,0.045l-0.622,0.171l-0.579,0.435l-0.496,0.573l-0.38,0.588l-0.222,0.725l-0.28,1.728l-0.357,0.608
		l-0.386,0.157l-0.444,0.063l-0.357,0.173l-0.15,0.478l0.081,0.267l0.225,0.161l0.317,0.072l0.366-0.007l-0.259,0.482l-0.328,0.391
		l-0.279,0.418l-0.121,0.554l0.225,0.47l1.095,0.732l0.392,0.416l0.063,0.46l-0.043,0.662l-0.153,0.589l-0.242,0.256l-0.507,0.001
		L320.533,401l-0.787,0.448l-0.121-0.461l-0.259-0.319l-0.366-0.24l-0.461-0.231l-0.542,0.259l-0.464,0.037l-0.389,0.082
		l-0.32,0.382l-0.009,0.397l0.251,1.57l0.372,0.539l1.322,1.202l0.648,0.79l0.406,0.11l0.657-0.184l-0.458,0.717l-1.429,0.139
		l-0.311,0.517l-0.204,0.858l-0.951,1.586l-0.294,0.894l0.066,0.993l0.34,0.652l0.386,0.531l0.173,0.633l-0.109,0.424l-0.501,0.366
		l-0.112,0.459l0.242,1.584v2.834l0.052,0.105l0.112,0.104l0.086,0.158l-0.009,0.257l-0.135,0.208l-0.444,0.348l-0.147,0.202
		l-0.121,0.357l-0.072,0.342l-0.043,0.664l-0.006,0.108l0.112,0.748l0.495,1.447l0.187,1.4l0.199,0.823l0.302,0.789l1.086,1.635
		l0.202,0.558l0.078,0.827l0.112,0.593l1.492,2.75l2.063,2.672l-0.279,0.07l-0.176-0.009l-0.167-0.036l-0.248-0.025l-0.291,0.053
		l-0.026,0.131l0.043,0.167l-0.089,0.162l-0.882,0.485l-0.326,0.248l-0.677,0.736l-0.187,0.594l0.138,1.489l0.74,1.642l1.654,0.355
		l1.734,0.123l0.971,0.941l1.161-0.123l1.164,0.013l1.095-0.179l0.954-0.692l0.268-0.546l0.182-0.636l0.251-0.598l0.507-0.422
		l0.438-0.052l1.605,0.298l0.588-0.112l0.475-0.245l0.363-0.245l0.265-0.111l1.1-0.267l0.593-0.42l0.012-0.07l1.34,0.077
		l0.228,0.056l0.205-0.299l0.469,0.026l0.674,0.269l0.346,0.139l0.187-0.158l0.383-0.198l0.202-0.155l0.426,0.412l1.348,0.593
		l0.035,0.343l-0.052,0.398l0.233,0.582l0.642,1.122l0.291-0.245l0.017,2.704l0.176,0.702l0.288,0.467l0.323,0.403l0.268,0.433
		l0.112,0.556v1.724l0.078,0.365l0.343,0.586l0.063,0.405l-0.069,0.026l-0.164,0.19l-0.164,0.265l-0.087,0.254v0.869l0.415,2.753
		l-0.173,0.56l0.458,1.107l0.709,6.978l0.279,1.145l0.602,0.94l2.005,1.212l0.314,0.523l0.144,0.619l0.786,1.548l0.573,0.858
		l0.225,0.715l0.207,0.314l0.271,0.162l0.781,0.336l0.159,0.1l0.202,0.434l0.472,0.111l0.565-0.13l0.452-0.281l-0.326-1.038
		l-0.072-1.44l-0.363-1.25l-1.193-0.472l0.691-0.3l1.069,0.778l0.974,1.129l0.429,0.75l1.806,4.71l1.112,7.101l1.4,6.427
		l0.882,4.045l2.578,12.451l2.139,5.105l1.904,3.004l0.453,0.726l0.262,0.726l-0.022,0.506l-0.915-0.074l-0.446-0.464l-1.271-1.152
		l-0.687-0.413l-0.277-0.177l-0.994,0.037l-0.665-0.348l0.475-0.948l-0.35-1.151L361.808,508l-0.503-0.311l0.067-2.843l-0.141-2.476
		l-0.584-1.376l-1.083-0.444l-1.181,0.148l-0.799,1.207l-0.256,0.61l-0.219,0.192l-0.38-0.203l-0.219-0.256l-0.104-0.23
		l-0.032-0.285v-0.427l0.239-0.698l1.204-0.741l0.493-0.667l0.124-1.387l-0.228-1.884l-0.481-1.784l-0.645-1.087l-0.674-0.253
		l-0.68,0.122l-0.691,0.256l-0.72,0.14l-0.346,0.307l-1.573,1.391l-0.412,0.499l-0.066,0.693l0.415,3.008l0.637,1.706l0.233,1.315
		l0.219,0.606l0.395,0.253l0.095,0.119l0.752,0.635l0.164,0.234l0.095,0.174l1.158,2.891l0.648,1.121l0.856,0.697l0.775,0.103
		l0.882,0.017l0.72,0.235l0.302,0.763l0.003,0.055l0.023,0.79l0.063,0.427l0.133,0.335l0.314,0.277l0.501,0.008l0.343,0.172
		l0.326,0.292l-0.574,0.296l-0.311,0.123l-0.236,0.174l-0.101,0.218l0.112,0.401l0.251,0.29l0.292,0.163l0.481,0.979l0.429,0.395
		l0.498,0.172l0.549-0.069l0.412,0.395l0.292,0.223l0.31,0.117l0.892,0.038l0.412-0.069l0.858-0.258l0.883-0.818l0.277-0.427
		l-0.104-0.984l-0.01-0.615l0.909,1.134l5.453,7.472l0.683,0.572l0.949,0.345l0.57,0.204l0.8-0.37l0.585,0.534l1.058,0.979
		l1.832,1.387l1.751,0.858l1.031,0.012l1.463-0.049l4.367-0.148l1.42-0.658l0.451-0.774l1.185,0.206l0.49,0.409l0.655,0.158
		l0.251,0.158l0.072-0.074l1.138,0.074l-0.274-0.721l-0.541-0.775l-2.328-0.959l1.033-0.35l1.029,0.189l0.916,0.737l1.364,0.834
		l1.212,0.383l0.617,0.152l0.533,0.064l0.683,0.157l0.596,0.203l0.259,0.208l0.977,0.416l1.219,0.679l0.314,0.341l3.613,6.188
		l1.953,3.002l1.705,2.626l1.299,1.289l3.552,2.231l3.941,3.786l1.867,1.349l0.012,0.009l-0.228,1.879l0.163,2.781l-0.399,1.134
		l-0.94,0.94l-2.621,2.022l-0.873,1.063l-0.53,1.476l-0.017,1.519l-0.225,1.362l-1.154,1.006l-0.393,0.256l-0.176,0.301
		l-0.121,0.317l-0.216,0.314l-1.035,0.634l-0.187,0.217l-0.282,0.754l-0.417,0.45l-0.578,0.064l-0.754-0.407l-0.307-0.382
		l-0.223-0.431l-0.278-0.355l-0.468-0.146l-0.426,0.127l-0.608,0.561l-0.034,0.031l-0.351,0.18l-0.735-0.156l-0.551-0.607
		l-0.693-1.628l0.018-0.319l0.11-0.355l-0.011-0.293l-0.337-0.136l-0.414-0.069l-0.274-0.169l-0.19-0.283l-0.165-0.402l-0.56-0.747
		l-0.757-0.178l-0.823,0.189l-1.22,0.474l-3.807,1.481l-1.242,0.807l-1.367,0.652l-1.39,0.251l-1.087,0.571l-0.437,1.613
		l-0.108,0.792l-0.304,0.719l-0.45,0.63l-0.547,0.523l-1.659,1.002L386.583,570l-0.593-0.276l-0.406-0.89l-0.538-0.893l-0.671-0.776
		l-0.796-0.534l-0.351-0.07l-0.673,0.031l-0.346-0.138l-0.243-0.282l-0.415-0.837l-0.269-0.422l-0.185-0.291l-0.068-0.405
		l0.086-0.417l0.232-0.398l1.452-2.955l0.585-0.376l0.746-0.149l0.644-0.24l0.271-0.652l0.059-0.671l0.249-1.163l0.055-2.026
		l0.187-1.393l-0.252-0.706l-0.659-0.497l-0.567-0.535l0.033-0.821l0.476-0.595l0.465-0.214l0.324-0.303l0.066-0.866l-0.097-0.725
		l-0.234-0.461l-0.45-0.156l-1.624,0.352l-0.587-0.191l-1.14-0.935l-0.677,0.142l-0.929,0.997l-0.666,0.172l-1.475-0.369
		l-0.472-0.063l-0.435,0.142l-0.194,0.24l-0.154,0.018l-0.298-0.527l-0.086-0.299l-0.022-1.029l0.066-0.318l0.012-0.033l0.112-0.301
		l0.075-0.328l-0.068-0.295l-0.423-0.722l-0.157-0.389l-0.08-0.41l-0.101-1.693l-0.329-0.682l-0.816-0.476l-0.402-0.059
		l-0.364,0.006l-0.329-0.047l-0.298-0.223l-0.095-0.297l0.011-0.794l-0.055-0.22l-0.606,0.005l-2.281,1.635l-0.628,0.085
		l-0.638-0.156l-1.211-0.538l-2.16-0.629l-0.646-0.299l-1.13-0.817l-0.527-0.13l-0.915,0.106l-0.596-0.049l-0.789-0.243
		l-0.344-0.166l-1.022-0.494l-0.693-0.611l-0.401-0.675l-1.314-3.999l-0.242-0.262l-0.377-0.134l-0.41-0.039l-0.322,0.029
		l-0.536,0.336v0.07l-0.536-0.011l-0.304-0.168l-0.162-0.197l-0.09-0.109l-0.322-0.195l-0.505,0.162l-0.229,0.296l-0.099,0.406
		l-0.046,0.806l-0.236,1.445l0.038,0.608l0.284,0.827l0.071,0.505l-0.212,0.309l-0.311,0.266l-0.238,0.373l-0.031,0.318l0.115,0.619
		l0.015,0.311l-0.146,0.887l-0.311,0.779l-0.293,0.55l-0.259-0.742l-0.418-0.586l-0.64-0.188l0.432-1.148l0.043-0.574l-0.354-0.247
		l-0.458,0.117l-0.271,0.296l-0.34,0.781l-1.181-1l-1.014-1.169l-0.121-0.309l-0.098-0.413l-0.138-0.361l-0.251-0.155l-0.449,0.235
		l-0.259,0.067l-0.112-0.168l0.078-0.258l0.32-0.434l0.063-0.173l-0.086-0.358l-0.305-0.599l-0.069-0.392l-0.156-0.123l-0.337,0.022
		l-0.343-0.048l-0.15-0.338l-0.164-0.656l-0.389-0.451l-0.922-0.705l-0.847-1.339l-0.559-0.493l-0.637,0.226l-0.314,0.017
		l-0.256-0.464l-0.285-0.915l-0.251-0.329l-0.187-0.148l-3.062-1.158l-0.882-0.827l0.009-1.431l0.156-0.643l0.19-0.078l0.51-0.01
		l0.13-0.151l-0.035-0.337l-0.202-0.334l-0.386-0.152l-0.544-0.297l0.043-0.679l0.144-0.739l-0.248-0.477l0.576-1.181l0.363-0.555
		l0.392-0.234l0.112-0.234l0.994-1.338l-0.265-0.395l-0.608,0.189l-0.657,0.377l-0.423,0.183l-0.542-0.255l-0.202-0.433l0.017-1.26
		l-1.233,0.708l-0.582,0.494l-0.248,0.013l-0.115-0.507h-0.259l-0.691-0.199l-0.925-1.463l-0.631-1.665l0.19-0.791l0.755-0.418
		l0.654-1.024l0.467-1.285l0.181-1.194h-0.219l-1.002,1.926l-0.689,0.728l-0.882-0.34l-0.147-0.558l0.173-1.537l-0.138-0.485
		l-0.472-0.048l-0.366,0.505l-0.242,0.706l-0.104,0.565l0.147,1.26l-0.138,0.505l-0.622,0.205l-0.372-0.103l-0.533-0.244
		l-0.473-0.289l-0.204-0.24l-0.19-0.105l-1.003-0.17l-0.501-0.312l-0.435-0.551l-1.037-1.686l0.328-0.587l0.055-0.837l-0.121-1.624
		l-0.078-0.241l-0.352-0.578l-0.072-0.41l-0.164-0.052l-0.772,0.009l-0.277-0.09l0.47-0.755l-0.052-0.785l-0.259-0.897l-0.259-1.617
		l-0.242-0.039l-0.314,0.153l-0.308,0.039l-0.311-0.158l-0.346-0.247l-0.107-0.227l0.4-0.099l0.147-0.228l-0.23-0.504l-0.426-0.503
		l-0.467-0.227l-0.57-0.078l-0.288-0.212l-0.484-0.686l-0.706-0.52l-0.691-0.391l-0.55-0.488l-0.248-0.818h-0.222l-0.084,1.221
		l-0.346,0.984l-0.732,0.488l-1.256-0.253l-0.807-0.853l-0.196-2.361l-0.47-0.933l1.472-1.156l0.222-0.429l0.066-0.67l0.219-1.064
		l-0.026-0.606l-0.683,0.694l-0.34,0.129l-0.447-0.068l-0.182-0.208l-0.544-0.913l-0.259-0.266l-0.57-0.167l-0.579-0.32
		l-0.259-0.721l0.04-0.361l0.063-0.22l0.017-0.202l-0.121-0.304l-0.248-0.31l-0.57-0.317l-0.28-0.239l-0.204-0.372l-0.055-0.254
		l-0.147-0.1l-0.449,0.105l-0.225,0.204l-0.259,0.637l-0.121,0.137l-0.544,0.153l-0.527,0.298l-0.507,0.199l-0.501-0.14
		l-0.173-0.271l-0.242-0.794l-0.176-0.301l-0.441-0.266l-0.199,0.141l-0.095,0.295l-0.121,0.196l-0.461,0.404l-0.187-0.009
		l-0.078-0.518l-0.095-0.32l-0.458-0.466l-0.179-0.291l-0.081-0.69l0.081-1.752l-0.124-0.477l0.124-1.147v-0.617l-0.115-0.562
		l-0.605-1.393l-0.507,1h-0.219l-0.121-2.598l-0.242-0.357l-0.674,0.191l-1.028,0.655l-0.377-0.112h-0.236v0.245h-0.242
		l-0.069-0.419l0.147-1.904l0.19-0.298l0.579-0.432l0.265-0.469l-0.473-0.226l-0.76-0.153l-0.605-0.25l-0.164,0.798l-0.487,0.213
		l-0.622,0.039l-0.55,0.281l-0.363,0.393l-0.556,0.454l-0.553,0.186l-0.352-0.432h-0.242l-0.06,0.427l-0.187,0.228l-0.242-0.03
		l-0.236-0.358h-0.242v0.466l-0.732-0.084l-0.616,0.291l-0.213,0.38l1.095,0.441l0.13,0.59l-0.009,0.688l0.216,0.536l0.009,0.972
		l-0.594,1.467l-0.749,0.955l-0.473-0.575h-0.216l-0.026,0.332l-0.098,0.223l-0.38,0.445l-0.568-0.511l-0.648-1.222l-0.91-0.359
		l-0.109-0.26l-0.147-0.26l-0.406-0.116l-0.389-0.026l-0.291-0.082l-0.228-0.144l-0.193-0.214l-0.135-0.53v-1.531l-0.216-0.515
		l-0.323-0.533l-0.72-3.352l-1.507-4.577l-0.052-0.776l0.176-0.638l0.239-0.272l0.121,0.319l0.089,0.688l0.265,0.463l0.856,0.926
		l0.204-0.72l-0.311-0.437l-0.501-0.348l-0.36-0.45l-0.017-0.232l0.095-0.179l0.109-0.153l0.055-0.147l-0.02-0.586l0.02-0.169
		l0.398-1.109l0.086-0.358l-0.069-0.787l-0.556-1.409l-0.101-0.496l0.147-0.326l0.251-0.198l0.297-0.178l0.274-0.274l0.121-0.232
		l0.072-0.232l0.132-2.226l0.179-0.792l0.778-1.229l0.326-1.413l0.689-0.967l0.449-0.856l0.288-0.172l0.133,0.087l0.524,0.137
		l0.441-0.006l-0.121-0.341l-0.089-0.449l0.346-0.502l0.83-0.907l-1.06,0.44l-0.668,0.172l-0.346-0.281l-0.101-0.932l0.432-0.388
		l0.847-0.036l0.568-0.287l-0.398-1.135l-1.037-1.371l-0.464-0.808l-0.19-0.89l-0.026-0.724l0.164,0.204l0.452,0.14l0.288-0.108
		l0.282-0.255l0.53-0.594l-0.654-0.339l-0.014-0.555l0.326-0.604l0.104-0.483l0.424-0.591l0.259-0.66l0.49-2.233l0.279-0.648
		l0.723-1.279l0.628-3.169l0.496-0.995l1.049,0.735l1.17-0.923l0.397-0.443l-0.092-0.351l-0.271-0.061l-0.677,0.092l-0.285-0.031
		l-0.144-0.162l-0.133-0.476l-0.087-0.098l-0.709-0.289l0.294-0.6l0.657-0.495l0.363,0.016l0.078-0.139l0.328-0.425l0.078-0.162
		l-0.095-0.263l-0.631-0.85l0.579-0.031l0.112-0.298l-0.233-0.386l-0.458-0.289l0.242-0.224l0.536,0.349l0.559,0.225l0.444-0.092
		l0.179-0.615l0.15-0.035l0.285-0.304l0.158-0.344l-0.23-0.165l-0.726-0.009l-0.317-0.076l-0.311-0.181l-0.161,0.245l-0.04,0.107
		l-0.04,0.159h-0.219l0.04-0.292l-0.011-0.801l-0.029-0.135l0.297-0.301l0.276-0.073l0.285-0.012l0.328-0.105l0.493-0.352l0.38-0.43
		l0.311-0.526l0.285-0.654l-0.285,0.26l-0.585,0.74l-0.334,0.206l-0.317-0.061l-0.19-0.253l-0.156-0.272l-0.622-0.405l0.285-0.632
		l0.57-0.665l0.429-0.387l0.161,0.253l0.225,0.132l0.265-0.007l0.311-0.156l-0.202-0.238l0.53-0.386l0.156-0.377l-0.121-0.139
		l-0.268-0.072l-0.256-0.149l0.069-0.194l0.363-0.339l0.288-0.445l0.279-0.196l0.787,0.012l0.311-0.176l0.081-0.369l-0.34-0.152
		l-0.389,0.044l-0.078,0.211l-0.38-0.494l0.006-0.237l0.132-0.473l1.573-2.722l0.507-0.573l0.968-2.761l0.824-1.563l0.268-0.806
		l0.173-0.852l0.06-0.735l0.133-0.708l0.547-1.341l0.04-0.775l0.673-2.183l0.359-1.832l0.49-1.374l0.033-0.726l-0.497-2.262
		l-0.23-0.387l-0.681-0.59l-0.128-0.46l0.315-1.547l0.351-0.817l1.566-2.085l0.677-0.61l0.337-0.103l0.754-0.046l0.26-0.08
		l0.252-0.315l0.136-0.345l0.156-0.396l0.3-0.336l0.472-0.212l0.329,0.076l0.304,0.151l0.38,0.014l1.262-0.555l0.168-0.039
		l0.263-0.296l0.15-0.285l0.132-0.725l-0.004-0.53l-0.282-0.733l-0.077-0.439l0.022-0.374l0.084-0.394l0.143-0.374l0.201-0.312
		l0.326-0.348l0.143-0.043l0.179,0.093l0.45,0.067l0.402,0.123l0.373,0.197l0.348,0.009l0.304-0.439l0.315-1.088l0.154-0.322
		l0.578-0.594l1.412-0.736l0.278-0.217l0.381-0.298l0.23-0.348l0.333-0.746l0.263-0.341l0.348-0.199l0.754-0.254l0.241-0.297
		l1.072-3.226l0.457-0.806l1.142-1.383l0.428-0.806l0.538-1.45l0.377-0.557l1.343-1.462l0.219-0.6l0.055-0.633l0.198-0.89
		l0.333-0.579l1.021-1.036l0.435-0.602l0.326-0.715l0.132-0.604l-0.066-1.464l0.048-0.844l0.326-0.596l0.578-0.368l0.816-0.162
		l1.471-0.09l0.421-0.346l2.276-3.08l0.3-0.858l0.52-2.4l-0.073-0.348l-0.6-0.174l-0.68-0.437l-0.637-0.559l-0.439-0.549l-0.26-0.8
		l0.117-0.744l0.549-1.458l0.04-0.739l-0.249-0.615l-0.483-0.441l-0.673-0.219l-0.563-0.52l0.117-1.004l0.563-1.708l0.059-0.413
		l0.15-0.369l0.08-0.341l-0.146-0.318l-0.311-0.14l-0.362,0.011l-1.994,0.659l-0.498-0.122l-0.121-0.646l0.187-0.35l0.344-0.279
		l0.289-0.327l0.062-0.494l-0.128-0.367l-0.38-0.713l-0.135-0.38l-0.029-0.386l0.084-0.659l-0.095-0.393l-0.242-0.397l-0.545-0.659
		l-0.194-0.444l-0.117-0.693l-0.099-2.015l-0.234-0.792l-0.805-1.454l-0.15-0.746l0.088-0.365l0.38-0.779l0.139-0.386l0.102-0.802
		l0.007-0.77l-0.09-0.561l-0.053-0.326l-0.337-0.502l-1.745-0.978l-0.392-0.315l-0.347-0.362l-0.227-0.38L322.422,318l-0.83-0.236
		l-0.333-0.202l-0.121-0.289l-0.081-0.735l-0.157-0.328l-0.369-0.24l-0.809-0.133l-0.318-0.158l-0.366-0.624l-0.033-0.652
		l0.044-0.692l-0.132-0.747l-0.271-0.421l-0.702-0.679l-0.282-0.394l-0.121-0.359l-0.121-1.117l-0.465-1.103l-0.077-0.329
		l0.037-0.474l0.132-0.34l0.183-0.316l0.15-0.412l-0.088-0.709l-0.487-0.7l-0.659-0.591l-0.607-0.376l-0.783-0.615l-0.172-0.728
		l0.194-0.811l0.307-0.862l0.099-0.917l-0.11-0.808l-0.004-0.709l0.424-0.609l0.677-0.257l1.401-0.158l0.485-0.438l0.028-0.025
		l0.102-0.628l-0.146-0.745l-0.446-1.362l-0.022-0.491l0.146-0.342l0.205-0.306l0.15-0.379v-0.35l-0.117-0.699l0.183-1.817
		l-0.033-0.7l-1.27-5.637l-0.088-3.061l0.117-0.828l-0.011-0.953l-0.204-0.321l-0.195-0.307l-1.149-1.115l-0.271-0.588l-0.402-1.743
		l-0.011-0.629l0.084-0.438l0.011-0.279l-0.077-0.238l-0.183-0.307l-0.161-0.11l-0.494-0.138l-0.187-0.098l-0.139-0.221
		l-0.179-0.546l-0.157-0.217l-1.112-0.837l-0.322-0.427l-0.359-0.802l-0.432-0.692l-1.127-1.366l-0.19-0.67l-0.081-0.83
		l-0.355-0.593l-0.622-0.401l-0.849-0.251l-0.757-0.337l-4.2-3.2l-0.801-0.854l-0.853-1.698l-0.34-0.051l-0.417,0.145l-0.538-0.019
		l-0.241-0.181l-0.454-0.604l-0.23-0.228l-0.26-0.121l-0.545-0.126l-0.249-0.1l-0.461-0.311l-0.293-0.291l-1.61-2.049l-2.462-5.075
		l-0.461-0.25l-0.435-0.172l-0.26-0.511l-0.194-0.886l-0.307-0.789l-0.465-0.721l-4.273-4.16l-1.917-3.07l-0.282-0.712l0.121-0.533
		l0.011-0.18l-0.113-0.234l-0.38-0.314l-0.106-0.194l-0.062-0.769l0.044-1.318l-0.238-0.803l-0.702-1.261l-0.139-0.386l0.003-0.186
		l0.005-0.291l0.154-0.35l0.194-0.315l0.113-0.377l-0.19-0.799l-0.007-0.007l-1.088-1.143l-0.27-0.865l0.161-0.713l0.735-1.283
		l0.176-0.675l-0.214-0.513l-0.24-0.574l0-0.005l-0.025-0.428l1.08,0.051l0.274,0.013l0.618-0.291l0.523-0.518l1.251-1.8
		l0.428-0.097l0.805,0.133l0.644,0.25l1.211,0.743l0.53,0.208l0.249-0.073l0.088-0.245v-0.557l-0.095-0.211l-0.212-0.167
		l-0.216-0.127l-0.088-0.096l0.048-0.19l0.084-0.184l0.088-0.134l0.04-0.04l0.311-0.18l0.194-0.202l0.044-0.326l-0.146-0.622
		l0.026-0.298l0.23-0.16l1.273-0.275l0.567-0.222l0.677-0.361l0.724,0.319l0.724,0.416l0.523,0.578l0.117,0.799l0.933-1.077
		l0.322-1.719l-0.066-1.851l-0.831-5.473l0.073-2.1l-0.06-0.605l-0.134-1.356l0.099-0.861l1.108-3.701l0.081-0.669l-0.26-1.544
		l-0.026-0.885l0.428-1.434l0.11-0.656l-0.242-0.734l-0.951-1.374l-0.11-0.489l0.315-0.295l0.417,0.057l0.435,0.19l0.359,0.11
		l0.461-0.002l0.3-0.04l0.267-0.15l0.391-0.331l0.494-0.723l0.22-0.737l0.296-0.613l0.739-0.364l0.622-0.027l2.17,0.284l0.421,0.196
		l0.201,0.257l0.249,0.164l0.545-0.074l0.311-0.225l0.834-0.924l0.165-0.329l-0.026-0.855l0.069-0.785l0.227-0.726l0.443-0.673
		l0.995-1.172l0.176-0.583l0.168-1.671l0.351-1.607l-0.029-0.671l-0.611-0.906l-0.82-0.534l-0.662-0.654l-0.135-1.257l-0.739,0.62
		l-0.293,0.591l-0.296,1.526l-0.476,0.875l-2.137,1.708l-1.057,1.597l-0.567,0.423l-0.677-0.486l-0.223-0.553l-0.516-2.656
		l-0.457-1.072l-0.044-0.402l0.355-0.771l0.055-0.389l-0.289-0.669l-2.166-2.896l-0.219-0.384l-0.007-0.397l0.117-0.391l0.015-0.34
		l-0.069-0.334l-0.15-0.376l-0.512-0.68l-1.233-0.855l-0.49-0.706l-0.249-1.01l-0.179-0.416l-1.05-0.821l-0.069-0.657l0.278-0.707
		l0.424-0.611l0.52-0.151l0.574-0.367l0.428-0.457l0.106-0.411l-0.26-0.298l-0.348-0.141l-0.318-0.191l-0.154-0.445l0.088-0.526
		l0.285-0.178l0.402,0.109l0.446,0.327l-0.304-1.055l-0.23-0.507l-0.333-0.231l-0.553-0.258l-0.132-0.543l-0.011-0.618l-0.208-0.488
		l-0.384-0.488l-0.6-1.211l-0.373-0.564l-0.648-0.647l-0.637-0.411l-0.714-0.209l-1.738-0.04l-0.615-0.191l-0.483-0.471l-0.476-0.84
		l0.139-0.126l0.183-0.333l-0.033-0.287l-0.922-0.006l-0.077-0.32l0.165-0.423l0.289-0.326l-0.805-0.557l-1.248-1.821l-0.681-0.553
		l-0.552-0.316l-3.029-2.906l-0.282-0.356l-0.077-0.483l0.128-0.782l0.022-0.456l-0.212-0.525l-0.421-0.268l-0.516-0.178
		l-0.479-0.249l-0.468-0.5l-0.245-0.51l-0.366-1.062l-0.783-1.239l-0.157-0.554l-0.315-0.361l-0.373-0.232l-0.838-0.397
		l-0.523-0.349l-0.913-0.856l-4.922-4.617l-0.34-0.457l-0.219-0.517l-0.048-0.472l-0.007-0.426l-0.069-0.382l-0.304-0.384
		l-0.856-0.728l-0.201-0.428l-0.165-0.5l-0.355-0.44l-0.443-0.371l-0.278-0.513l0.812-0.111l-0.479-1.762l0.223-0.554l0.999-1.771
		l0.973-0.66l0.117-0.102l0.113-0.2l-0.08-0.437l-0.161-0.437l-0.113-0.198l-0.15-0.19l-0.516-1.259l-0.11-0.453l-0.073-0.154
		l-0.483-0.232l-0.15-0.095l-0.157,0.041l-0.124-0.029l-0.051-0.32l0.033-0.187l0.154-0.355l0.037-0.223l-0.081-0.407l-0.329-0.679
		l-0.077-0.439v-0.319l-0.037-0.221l-0.139-0.243l-1.818-2.542l-0.391-0.776l0.099-0.351l0.53-0.243l0.267-0.575l0.018-0.682
		l-0.219-0.56l-0.457-0.264l-1.8-0.734l-0.402,0.096l-0.066,0.084l-0.659,1.791l-0.154,0.285l-0.329,0.271l-0.717-0.419
		l-0.765-0.581l-0.706-0.72l-0.494-0.827l-0.205-0.921l-0.011-0.853l-0.121-0.827l-0.9-1.41l-0.816-1.715l-0.146-0.55l-0.402-0.708
		l-0.761-0.714l-0.219-0.421l0.761,0.095l0.256,0.032l0.311,0.206l0.724,1.153l0.099,0.311l0.157,0.261l0.384,0.243l0.377,0.052
		l0.875-0.162l1.654,0.044l1.376-0.664l2.462-1.646l0.688-0.229l1.873,0.052l1.687-0.471l0.172,0.046l0.103-0.067l0.216-0.426
		l0.282-1.506l-0.253-1.518l-0.402-1.484l-0.176-1.399l-0.018-0.825l-0.11-0.668l-0.435-1.388l-0.033-0.308l0.139-0.976l-0.15-0.474
		l-0.373-0.395l-0.856-0.647l-0.798-0.797l-0.143-0.447l0.362-0.364l0.743-0.536l0.505-0.547l0.252-0.581l0.23-1.438l0.384-0.702
		l2.199-1.704l0.501-0.576l0.238-0.534l0.154-2.936l-0.091-0.671l-0.26-0.708l-0.315-0.35l-0.944-0.772l-0.198-0.342l0.139-0.402
		l0.329-0.056l0.402,0.033l0.34-0.138l0.278-0.738l-0.322-0.648l-0.494-0.702l-0.227-0.901l-0.055-0.374l-0.263-0.724l-0.022-0.269
		l1.178-1.624l1.174-1.049l0.304-0.401l0.234-0.548l-0.022-0.21l-0.135-0.186l-0.117-0.474l-0.073-0.749l0.033-0.684l0.311-0.463
		l0.725-0.107l0.592-0.087l2.203-1.113l0.285-0.261l0.516-0.622l0.311-0.278l0.388-0.121l0.344,0.01l0.289-0.106l0.187-0.475
		l0.011-0.665l-0.293-1.361l-0.037-0.687l0.472-2.463l0.234-0.511l0.746-0.175l0.53,0.516l0.435,0.625l0.461,0.155l0.9-0.15
		l0.739,0.417l1.409,1.297l1.2,0.379l0.26,0.14l0.165,0.368l-0.044,0.771l0.088,0.394l0.651,0.462l0.893-0.194l1.577-0.757
		l1.427-0.024l1.657,0.161l1.599-0.052l1.237-0.661l0.116-0.012l0.389-0.04l0.311,0.225l0.267,0.346l0.366,0.306l0.607,0.283
		l0.139-0.047l0.051-0.256l0.366-0.329l0.706-0.276l0.794-0.154l0.271-0.188l0.604-0.778l0.296-0.291l0.622-0.28l3.143-0.465
		l0.677-0.233l2.074-1.619l1.065,0.493l0.494,0.354l0.446,0.407l0.681,1.044l0.552-0.119l1.266-0.935l1.372-0.549l0.49-0.425
		l0.468-0.815l0.278-0.937l-0.04-0.714l-0.176-0.704l-0.117-0.909l0.073-0.382l0.168-0.266l0.168-0.198l0.092-0.179l-0.026-0.349
		l-0.205-0.686l-0.04-0.373l0.388-2.586l0.695-1.287l1.31-0.983l1.559-0.624l1.449-0.217l0.684,0.066l1.46,0.428l0.618,0.291
		l1.376,1.151l0.721,0.365l0.904-0.142l4.255-1.332l1.171-0.998l0.461-0.497l0.417-0.212l0.335-0.223l0.057-0.038l0.362-0.647
		l0.187-0.951l-0.245-0.603l-1.156-1.257l-0.399-2.198l-0.304-0.696l-1.302-1.378l-0.318-0.637l0.684-0.25l0.501,0.191l1.727,1.204
		l2.718,0.905l0.34,0.018l0.647-0.09l0.37,0.029l0.318,0.137l0.538,0.375l0.344,0.076l0.684-0.125l1.315-0.562l0.732-0.133
		l1.434,0.004l0.622-0.214l0.596-0.563l0.318-0.615l0.472-1.364l0.402-0.584l0.637-0.424l0.787-0.267l1.932-0.287L344.632,30
		l0.174,0.037l0.366,0.293l0.227,0.332l0.082,0.365l0.128,0.347l0.34,0.295l0.41,0.521l0.382,0.133l0.415-0.003l0.512,0.106
		l0.468,0.289l0.23,0.315l0.176,0.36l0.278,0.417l1.551,0.996l-0.071,1.305l0.201,0.741l0.483,0.588l0.638,0.336l0.633-0.002
		l0.538-0.546l-0.022-1.471l0.329-0.302l0.11-0.07l0.787-0.296l0.194-0.031l0.07-0.07l0.408-1.359l0.697-0.9l1.057-0.718
		l1.284-0.297l1.339,0.367l0.71,0.793l2.025,4.483l0.911,1.213l0.17,0.294l0.183,0.522l0.132,0.214l0.274,0.188l0.596,0.262
		l0.117,0.205l0.263,0.32l0.582,0.361l0.582,0.209l0.263-0.141l0.187-0.5l0.161-0.045l0.077,0.373l0.068,1.942l-0.256,1.506
		l-0.878,2.681l-0.917,2.402l-0.167,1.306l-0.141,0.613l-0.344,0.578l-0.305,0.21l-0.686,0.288l-0.276,0.185l-0.249,0.336
		l-0.386,1.047l-0.455,0.609l-0.855,1.144l-0.154,0.684l0.165,0.514l0.22,0.286l0.369,0.479l0.24,0.44l0.115,0.59l0.086,1.229
		l0.21,0.647l0.291,0.472l0.723,0.903l0.285,0.492l0.121,0.624v0.61l0.106,0.553l0.435,0.455l0.622,0.395l1.019,0.445l1.015,0.303
		l0.615-0.041l0.287-0.477l0.397-0.662l0.745-0.562l0.929-0.047l2.885,1.116l0.512,0.293l0.316,0.361l0.26,0.376l0.265,0.097
		l0.34-0.49l1.623-1.542l1.436-1.728l0.432-0.754l0.135-0.171l0.338-0.217l0.185-0.025l0.207,0.043l3.137-0.039l1.001,0.108
		l0.77,0.291l1.555,0.967l0.977,0.37l1.021,0.082l0.991-0.122l0.856-0.24l0.406-0.225l0.318-0.23l0.377-0.101l0.604,0.163
		l0.468,0.264l0.282,0.297l0.172,0.375l0.135,0.494l0.073,0.915l-0.185,1.064l-0.477,0.831l-0.812,0.223l-0.794,0.509l-0.534,1.336
		l-0.192,1.532l0.216,1.117l0.232,0.174l0.6,0.125l0.205,0.149l0.124,0.312l-0.013,0.215l-0.059,0.189l0.009,0.232l0.721,3.135
		l-0.11,2.199l0.084,0.883l0.232,0.58l0.415,0.462l1.548,1.378l0.946,1.081l0.302,1.108l-1.504,1.463l-0.245,0.54l-0.344,1.221
		l-0.355,0.56l-0.862,1.002l-0.284,0.672l-0.057,0.721l0.188,2.239l-0.165,0.639l-0.523,1.205l-0.119,0.607l0.192,0.679l0.832,0.838
		l0.188,0.592l-0.19,0.568l-0.454,0.613l-0.984,0.943l-0.311,0.159l-0.622,0.231l-0.243,0.245l-0.097,0.367l0.035,0.832l-0.134,0.41
		l-0.47,0.464l-2.272,1.265l-0.145,0.174l-0.066,0.377l-0.256,0.718l-1.03,1.066l-0.188,0.748l0.238,0.647l0.496,0.671l0.817,0.778
		l0.29,0.276l2.239,1.043l0.349,0.498l-0.106,0.243l-0.602,0.671l-0.187,0.27l-0.077,0.381l0.015,1.313l0.119,0.256l0.28,0.751
		l0.208,0.213l0.256,0.146l0.23,0.187l0.124,0.326l-0.08,0.588l-0.527,1.4l-0.143,0.67l0.119,0.716l0.605,1.389l0.11,0.522
		l-0.271,0.483l-1.136,0.712l-0.465,0.373l-0.617,1.002l-0.457,0.969l-0.56,0.906l-0.933,0.817l-1.116,0.625l-0.263,0.388
		l-0.132,0.752l0.112,1.268l-0.194,0.475l-0.726,0.315l-0.256,0.202l-0.066,0.23l0.09,0.246l0.232,0.261l0.033,0.077l0.011,0.079
		l-0.011,0.081l-0.033,0.079l-0.333,0.182l-0.223,0.24l-0.077,0.305l0.082,0.376l0.069,0.751l-0.17,0.671l-0.073,0.287l-0.739,1.682
		l-1.185,1.396l-0.488,0.783l0.013,0.821l0.563,0.439l1.267,0.239l1.55,0.292l0.684,0.349l0.644,0.43l0.582,0.52l0.49,0.627
		l0.596,0.13l1.057,0.629l1.013,0.42l0.15,0.104l0.121-0.019l0.337-0.203l0.19-0.197l0.604-0.863l0.088-0.553l0.362-0.215
		l0.472-0.086l0.421-0.165l0.225-0.301l0.712-1.381l0.651-0.879l3.904-3.227l0.445-0.154l0.269,0.019l0.223-0.085l0.631-0.808
		l0.053-0.104l0.033-0.227l-0.187-0.059l-0.368-0.023l-0.229-0.109l0.216-0.319l0.49-0.165l0.536,0.052l0.532-0.046l0.468-0.453
		l0.161-0.129l0.13-0.065l0.091,0.031l0.046,0.163l0.062,0.234l0.326,0.711l0.075-0.083l0.134-0.298l0.17-0.275l0.141-0.29
		l0.699-0.728l1.196-0.511l0.699-0.484l-0.787-0.647l0.406-0.153l0.655-0.247l0.23-0.319l0.161-0.405l0.088-0.488v-0.565
		l0.809,0.511l0.38-0.415l0.309-0.711l0.578-0.379l3.287-0.646l0.124-0.738l0.862-2.448l0.313-1.582l0.289-0.679l0.584-0.559h0.221
		l0.333,0.417l1.385,0.382l1.366,0.793l0.726-0.234l5.353-5.782l0.557-0.602l0.256-0.197l1.023,0.053l1.634,0.085l0.651,0.366
		l0.229,0.533l0.132,0.624l0.335,0.639l1.07,0.762l0.133,0.127l0.267,0.15l0.83,1.122l1.775,1.586l1.056,0.537l1.057-0.065
		l0.664,0.846l0.959,0.814l1.178,0.612l1.293,0.246l3.026,0.011l1.136,0.583l0.45,1.484l-0.593,2.426l-0.011,0.344l0.501,0.142
		l1.818,0.897l0.783,0.104v-0.271l-0.338-0.536l-0.203-0.68l0.19-0.569l0.487-0.304l1.255-0.308l0.538-0.321l1.299-1.202
		l2.047-1.131l0.218-0.396l0.52-0.308l3.04-1.373l0.578-0.119l0.637,0.163l1.094,0.714l0.589,0.162l0.618-0.24l0.406-0.533
		l0.315-0.531l0.351-0.242l0.172-0.363l-0.293-2.179l0.055-0.678l0.176-0.496l0.305-0.344l0.275-0.145l0.157-0.082l0.022-0.012
		l-0.077,0.162l-0.018,0.026l-0.024,0.035l-0.011,0.016l0.743-0.262l0.587-0.374l0.423-0.553l0.23-0.793l0.205-1.248l0.227-0.579
		l0.386-0.475l0.302-0.19l0.3-0.108l1.052-0.169l0.772-0.287l1.303-0.226l0.454-0.159l0.32-0.277l0.04-0.34l-0.216-0.307
		l-1.478-1.025l-0.3-0.125l-0.077-0.208l-0.095-0.138l-0.059-0.149l0.011-0.243l0.357-0.906l0.591-0.751l0.772-0.574l0.86-0.377
		l2.824-0.589l0.359,0.002l1.939,0.601l0.651,0.124l0.172-0.007l0.507-0.085l0.306,0.026l0.9,0.226l0.907,0.085l2.065,0.56
		l0.503,0.359l0.304,0.281l0.307,0.197l2.016,0.922l0.479,0.131l2.056,0.113l0.617,0.104l0.594,0.21l0.562,0.295l0.525,0.361
		l0.359,0.431l0.24,0.476l0.311,0.368l0.573,0.121l0.26-0.044l0.165-0.096l0.126-0.155l0.148-0.227l0.578-0.673l0.682-0.458
		l0.777-0.201l0.856,0.087l0.871,0.456l0.659,0.721l1.762,3.121l1.506,3.757l0.404,0.718l0.472,0.581l2.21,2.014l0.185,0.258
		l0.267,0.373l1.566,3.485l0.326,1.129l0.212,0.396l0.282,0.348l0.132,0.118l0.198,0.177l2.303,1.391l0.536,0.697l0.798,1.614
		l0.516,0.64l0.143,0.232l0.097,0.234l0.22,0.736l0.157,0.29l1.052,1.258l1.033,0.948l5.494,2.896l0.662,0.236l1.683,1.069
		l0.421,0.447l0.699,1.053l0.545,1.066l0.252,0.305l0.278,0.205l0.602,0.339l0.258,0.234l0.133,0.203l0.84,1.881l0.102,0.435
		l0.024,0.45l-0.126,1.811l0.068,2.218l-0.137,1.712l-0.161,0.829l-2.287,5.439l-0.176,0.823l0.212,2.186l0.117,1.211l0.119,0.405
		l0.349,0.769l0.124,0.403l0.024,0.445l-0.066,0.424l-0.24,0.841l-0.019,0.112l-0.056,0.333l0.016,0.422l0.763,3.055l0.024,0.405
		l-0.051,0.401l-0.49,1.377l-0.379,1.55l-0.163,1.584l0.038,0.834l0.177,0.754l0.377,0.649l0.622,0.527l1.987,1.084l0.589,0.504
		l0.476,0.578l0.373,0.612l0.293,0.662l0.329,1.15l0.161,0.379l0.229,0.335l0.328,0.288l0.948,0.543l0.284,0.236l0.688,0.742
		l0.276,0.21l0.309,0.173l0.687,0.384l0.285,0.252l0.386,0.703l0.119,0.798l-0.031,1.642l0.132,0.966l0.349,0.878l0.554,0.747
		l0.75,0.581l0.98,0.353l4.611,1.66l0.36,0.061l1.456,0.065l4.12,1.053l0.338,0.133l0.269,0.196l0.041,0.178l0.025,0.107
		l-0.205,0.272l-0.381,0.215l-0.739,0.299l-0.851,0.957l-0.066,1.303l0.423,1.371l1.398,3.031l0.388,0.584l0.448,0.451l0.435,0.249
		l0.51,0.076l1.453-0.124l0.779,0.099l1.526,0.519l1.571,1.026l0.992,1.452l0.357,1.742l-0.359,1.885l-0.871,2.28l-0.15,0.801
		l-0.059,1.554l-0.216,0.66l-0.426,0.428l-0.137,0.138l-1.259,0.799l-1.65,0.53l-0.706,0.466l-0.311,0.811l0.207,0.671l0.556,0.361
		l0.721,0.133l0.679-0.017l0.69-0.133l0.123,0.156l0.117,0.787l-0.029,0.988l-0.132,0.059l-1.015,0.662l-0.979,0.801l-1.445,1.527
		l-0.307,0.51l-0.238,0.742l-0.139,0.788l-0.005,0.823l0.295,0.608l0.776,0.152l0.865,0.898l0.187,0.045l0.459-0.082l0.154,0.037
		l0.081,0.182l-0.011,0.408l0.051,0.15l1.035,1.489l0.446,0.345h0.007h0.004l0.942,0.188l-0.337,0.484l-1.403,0.898l-0.346,0.699
		l0.583,1.162l-0.269,0.813l-0.192,0.076l-0.556-0.025l-0.146,0.038l-0.068,0.22l0.038,0.554l0.252,0.513l0.011,0.194l-0.154,0.138
		l-0.49,0.112l-0.165,0.113l-0.272,0.672l-0.167,0.83l0.055,0.825l0.384,0.654l0.126,0.351l-0.274,1.681l-0.057,1.118l0.508,2.426
		l-0.091,1.08l-0.428,0.985l-1.125,1.505l-0.825,0.754l-0.23,0.271l-0.176,0.357l-0.304,0.839l-0.154,0.258l-0.364,0.187
		l-0.937,0.176l-0.41,0.135l-0.283,0.229l-0.666,0.664l-0.203,0.16l-0.456-0.025l-0.622-0.432l-0.351-0.032l-0.249,0.212
		l-0.424,0.774l-0.252,0.282l-0.642,0.262l-1.849,0.437l-0.492-0.019l-1.037,0.558l-0.807,1.818l-1.09,1.833l-1.915,0.601
		l-0.777-0.376l-0.624-0.711l-1.125-2.092l-0.059-0.311l0.167-1.656l-0.009-0.495l-0.174-0.444l-0.662-0.206l-1.398-0.253
		l-0.618-0.112l-0.282-0.145l-0.565-0.378l-0.273-0.117l-0.326-0.013l-0.668,0.098l-0.251-0.011l-0.578-0.296l-0.468-0.374
		l-0.481-0.298l-0.587-0.06l-0.487,0.249l-1.061,0.844l-0.534,0.113l-0.236-0.197l-0.183-0.652l-0.289-0.143l-0.291,0.125
		l-0.351,0.582l-0.225,0.183l-0.602,0.026l-0.878-0.379l-0.571,0.011l-0.56,0.328l-0.395,0.518l-0.34,0.558l-0.392,0.441
		l-0.706,0.296l-0.578-0.115l-0.556-0.256l-0.644-0.127l-0.377,0.102l-0.285,0.202l-0.227,0.205l-0.196,0.109l-0.123,0.002
		l-0.208,0.004l-0.234-0.064l-0.241-0.1l-4.028-0.592l-1.917-0.784l-0.841-0.074l-0.534,0.291l-0.468,0.375l-0.633,0.178
		l-0.428-0.158l-0.201-0.333l-0.033-0.327l0.11-0.132l-0.305-0.008l-0.079,0.105l-0.055,0.195l-0.878,0.965l-0.267,0.132
		l-0.444-0.013l-0.251-0.187l-0.181-0.219l-0.21-0.109l-1.292,0.354l-0.991,0.492l-0.023,0.012l-0.323,0.16l-1.224,0.275
		l-0.97-0.812l-1.917,0.099l-0.329,0.304l-0.09,0.29l-0.185,0.215l-0.624,0.074l-0.525-0.104l-0.395-0.232l-0.351-0.273l-0.382-0.23
		l-0.51-0.17l-0.302,0.003l-0.291,0.072l-0.463,0.042l-0.671-0.078l-2.078-0.532l-1.215-0.083l-0.26-0.098l-0.113-0.333l0.077-0.867
		l-0.084-0.374l-0.216-0.233l-0.291-0.191l-0.353-0.103l-0.359,0.025l-0.34,0.2l-0.106,0.264l-0.055,0.296l-0.216,0.29l-0.732,0.373
		l-0.514-0.112l-0.477-0.312l-0.633-0.216l-0.596,0.102l-1.365,0.699l-1.339,0.933l-0.26,0.104l-0.369-0.047l-0.274-0.17
		l-0.187-0.182l-0.132-0.085l-0.51,0.147l-0.986,0.721l-0.615,0.278l-0.761,0.094l-2.396-0.006l-1.076,0.334l-1.582,0.49
		l-2.137,0.32l-0.715,0.238l-1.169,0.636l-2.41,2.08l-0.427,0.369l-0.604,0.357l-1.306,0.378l-0.596,0.28l-0.547,0.565l-0.163,0.59
		l-0.003,0.161l-0.008,0.481l-0.086,0.718l-0.254,0.589l-0.737,1.06l-0.249,0.57l-0.119,0.837l0.016,0.546l-0.126,0.467
		l-0.523,0.606l-2.038,1.605l-0.871,0.873l-0.653,1.166l-0.609,1.988l-0.285,0.636l-0.631,0.793l-0.17,0.308l-0.088,0.371
		l-0.048,0.75l-0.143,0.343l-0.838,0.725l-3.56,1.749l-1.134,0.881l-0.046,0.769l0.759,0.749l1.248,0.823l-0.644,0.181l-1.665,0.971
		l-0.684,0.243l-2.159,0.182l-2.865-0.246l-1.383,0.157l-0.666,0.859l0.048,0.389l0.38,0.615l0.137,0.331l0.026,0.291l-0.021,0.428
		l-0.005,0.1l0.15,2.752l-0.232,2.213l0.04,2.557l0.035,0.092l1.871,4.946l0.702,1.222l1.606,1.897l0.563,1.145l0.353,0.478
		l0.602,0.365l-0.002,0.033l-0.013,0.19l-0.11,0.188l-0.187,0.154l-0.258,0.13l-0.187,0.13l-0.057,0.143l0.066,0.154l0.302,0.288
		l0.046,0.133l-0.046,0.134l-0.401,0.436l-0.051,0.377l0.108,0.406l0.219,0.403l0.181,0.841l0.146,1.391l0.227,0.751l0.205,0.378
		l0.176,0.224l0.135,0.246l0.082,0.444l-0.038,0.354l-0.364,1.15l-0.003,0.002l-0.442,0.392l-0.168,0.565l-0.046,0.769l0.092,0.774
		l0.252,0.578l0.336,0.255l0.209,0.159l2.012,0.673l1.059,0.776l2.7,2.742l0.882,0.527l0.249,0.24l0.132,0.298l0.059,0.607
		l0.095,0.283l0.481,0.523l1.14,0.613l0.406,0.468l0.059,0.393l0.049,0.323l-0.306,0.511l-0.915,0.803l-0.375,0.684l-0.177,0.689
		l-0.809,5.931l0.274,1.439l1.815,2.816l0.488,0.594l0.215,0.261l0.569,1.257l0.353,1.797l1.624,3.145l1.493,2.11l1.013,1.525
		l0.401,1.437l0.13,2.064L449.998,354.487z M271.521,436.089l-1.126-0.886l-0.167-0.279l0.086-0.261l0.207-0.202l0.256-0.123
		l0.228-0.012l0.395,0.298l0.222,0.527l0.052,0.556L271.521,436.089z M336.193,430.253l0.167,0.751l-0.778,0.302l-0.473-0.226
		L336.193,430.253z M335.68,427.46l-0.135,0.281l-0.084,0.064l-0.046-0.149l-0.052-0.355l0.104,0.013l0.069,0.056l0.058,0.061
		L335.68,427.46z M320.23,536.357l0.441,0.322l-0.095,0.174l-0.363,0.139l-1.063,0.716l-0.795,0.136l-0.737-0.21l-0.55-0.548
		l0.637,0.149l0.34-0.328l0.337-0.422l0.642-0.129h-0.262l1.167-0.07L320.23,536.357z M335.26,538.435l-0.009,0.329l-0.061,0.209
		l-0.147,0.158l-0.268,0.167l-0.421-0.618l-0.449-1.51l-1.199-1.118l0.098-0.483l0.386-0.422l0.352-0.495l0.075-0.36l-0.087-0.651
		l0.012-0.226l0.19-0.222l0.254-0.116l0.213-0.158l0.092-0.347l0.052-0.653l0.147-0.656l0.225-0.216l0.832,1.814l-0.008,1.742
		l0.558,1.304l0.297,1.039l-0.04,0.496l-0.127,0.396l-0.251,0.183l-0.32,0.046l-0.277,0.081L335.26,538.435z M325.81,511.7
		l0.484,0.347l0.945,0.202l0.285,0.426l-0.47-0.044l-0.438,0.044l-0.389,0.131l-0.297,0.212l-0.516,0.854l-0.389,0.407l-0.181-0.276
		l-0.014-1.803l0.274-0.829L325.81,511.7z M312.694,498.206l1.089,1.044l0.36,0.218l0.003,1.276l0.36,1.311l0.542,1.177l0.568,0.87
		l-0.619,0.427l-0.807-0.466l-0.709-0.848l-0.916-2.066l-0.112-0.35l0.035-1.231l-0.069-0.596l-0.228-0.5l0.089-0.08l0.043-0.026
		l0.043-0.039l0.086-0.119H312.694z M315.857,497.738l0.112,0.465v0.685l-0.121,0.655l-0.233,0.391l-0.308,0.061l-0.314-0.087
		l-0.242-0.166l-0.101-0.164l-0.089-0.221l-0.204-0.142l-0.236-0.111l-0.199-0.122l-0.884-1.459l0.795-0.421l1.325,0.208
		L315.857,497.738z M295.193,481.744l-0.006-0.025l1.648,0.941l0.547,0.566l0.282,1.027l0.052,3.884l-0.294,0.798l-0.542-0.042
		l-0.386-0.525l-0.23-0.705l-0.115-0.858l-0.167-0.526l0.014-0.294l0.17-0.252l0.23-0.028l0.207-0.073l0.092-0.38l-0.026-0.307
		l-0.095-0.329l-0.184-0.259l-0.3-0.105l-0.392-0.078l-0.133-0.201l-0.046-0.271l-0.458-0.754l-0.208-0.621l-0.101-0.662
		l0.012-0.586l0.159,0.144l0.118,0.154L295.193,481.744z M290.877,488.935l0.115-0.167l0.216-0.172l0.13-0.15l0.282,0.554
		l0.006,0.547l-0.282,0.417l-1.138,0.371l-0.153,0.503l0.098,1.268l-1.268-0.622l-0.651-0.017l-0.277,0.773l-0.127,0.904
		l-0.334,0.536L287,493.796l-0.611-0.349l-0.184-0.507l-0.184-2.296l-0.133-0.267l-0.167-0.259l-0.138-0.302l-0.046-0.391
		l0.15-0.121l0.285-0.124l0.187-0.244l-0.138-0.489l-0.202-0.129l-0.628-0.192l-0.135-0.067l0.158-0.358l0.317-0.285l0.23-0.265
		l-0.092-0.301l-0.196-0.417l0.144-0.364l0.268-0.343l0.135-0.34l-0.035-0.398l-0.153-0.701l-0.06-1.268l0.026-0.227l0.087-0.268
		l0.274-0.562l0.104-0.369l0.069-0.748l-0.046-0.776l-0.265-1.431l0.161,0.023l0.109,0.052l0.233,0.169l0.256-0.111l0.305,0.09
		l0.328,0.23l0.328,0.309l0.199,0.502l0.277,1.689h0.216l0.372-0.345l0.481,0.284l0.547,0.553l0.579,0.463l0.259-0.422l0.346-0.179
		l0.337,0.121l0.248,0.48l-0.023,0.599l-0.233,0.57l-0.47,0.804l-0.032,0.292l0.078,0.646l-0.046,0.282l-0.153,0.151l-0.216,0.116
		l-0.213,0.166l-0.144,0.3l-0.023,0.63l0.144,0.688l0.262,0.646L290.877,488.935z M298.627,479.37l-0.57,2.459l-0.02,0.448
		l-1.175-0.421l-0.285-0.157l-0.337-0.455l0.164-0.218l0.778-0.191l-0.156-0.589l0.337-0.528l0.498-0.522l0.288-0.559l0.285,0.073
		l0.13,0.151l0.046,0.221L298.627,479.37z M286.524,444.497l0.432,0.436l0.337,0.569l0.19,0.687l0.009,0.779l-0.743,0.756
		l0.259,0.222l-0.527,0.265l-0.717,0.201l-0.706-0.031l-0.487-0.436l-0.017-0.492l0.297-2.893l-0.006-0.241l0.092-0.142l0.357-0.147
		l0.438-0.066l0.317,0.117L286.524,444.497z M349.341,428.666l0.202,0.05l0.357,0.377l0.167,0.488l-0.375,0.393l-0.294,1.017
		l-0.112,1.144l-0.274,0.933l-1.023,0.489l-0.084,0.238l-0.029,0.282l-0.104,0.235l-0.233,0.123l-0.274,0.009l-0.282-0.026
		l-1.674,0.165l-0.343,0.123l-0.207-0.692l-0.144-1.33l-0.369-0.697l0.527-0.643l-0.055-0.66l-0.3-0.657l-0.173-0.625l0.354-0.421
		l0.821-0.11l0.893,0.063l2.089,0.533l0.66-0.115L349.341,428.666z M290.629,422.135l0.219,0.763l-0.04,0.488l-0.657,0.978
		l-0.467-0.779l0.167-0.52l0.441-0.482l0.337-0.672V422.135z M348.111,421.154l1.126,0.718l0.426,1.193l0.383,2.771l-0.406-0.307
		l-0.87-0.5l-1.942-0.812l-0.409-0.343l0.202-0.422l-0.121-0.403l-0.686-0.779l0.006-0.238l0.455-0.744l0.144-0.355l0.363,0.164
		l0.351,0.032l0.648-0.05L348.111,421.154z M437.628,352.243l0.902-0.075l0.579,0.922l0.078,1.308l-0.588,1.075v0.247h0.501
		l-0.302,0.478l-0.092,0.35l0.133,0.921h-0.239l-0.242-0.197l-0.274-0.585l-0.19-0.225l-0.334-0.159l-1.138-0.335l0.28-0.393
		l0.161-0.177l0.061-0.194l-0.017-0.45l-0.104-0.34l-0.349-0.812l-0.032-0.352l0.7-2.613l0.19-0.271l0.317,0.171l0.15,0.4
		l0.086,0.406l-0.029,0.43L437.628,352.243z M431.806,340.118l0.242,0.247l0.372,0.672l0.536,0.629l0.389,0.604l-0.069,0.589
		l-0.484,0.219l-0.585-0.367l-1.126-1.134L430.967,342l0.069,0.417l-0.063,0.317l-0.496,0.125l-0.461-0.053l-1.354-0.442v0.227
		l0.104,0.125l0.161,0.37l-0.216-0.18l-0.207-0.133l-0.245-0.097l-0.323-0.085v-0.227l0.133-0.492l0.003-2.247l-0.337-0.364
		l-1.003-2.356h0.484l-0.144-0.253l-0.15-0.2l-0.19-0.165l-0.242-0.146l0.594,0.022l0.953,0.253l0.625-0.028l1.129,0.818
		l0.441,0.445l0.389,0.489l0.421,0.94l0.3,0.489l0.464,0.327V340.118z M271.454,434.451l-0.72-0.606l0.13-0.691l0.657-0.419
		l0.83,0.204l0.147,0.223l0.026,0.289l-0.069,0.291l-0.121,0.225l-0.277,0.018l-0.346-0.139l-0.259,0.048L271.454,434.451z
		 M286.268,449.542l0.377,0.254l0.418,0.688l-0.138,0.726l-0.461,0.834l-0.83,2.059l-0.317-0.049l-0.3-0.691l-0.075-0.738
		l0.167-0.764l0.006-0.954l-0.13-1.098l0.308-0.57l0.651,0.128L286.268,449.542z"/>
</g>
<g id="Copyright">
	<text transform="matrix(1 0 0 1 681.6426 577.5916)" class="st1 st2">© Vemaps.com</text>
</g>
</svg>
