<?xml version="1.0" encoding="utf-8"?>
<!-- Generator: Adobe Illustrator 23.0.1, SVG Export Plug-In . SVG Version: 6.00 Build 0)  -->
<svg version="1.1" xmlns="http://www.w3.org/2000/svg" xmlns:xlink="http://www.w3.org/1999/xlink" x="0px" y="0px"
	 viewBox="0 0 800 600" style="enable-background:new 0 0 800 600;" xml:space="preserve">
<style type="text/css">
	.st0{fill:#808080;}
	.st1{font-family:'Roboto-Regular';}
	.st2{font-size:14px;}
</style>
<g id="East_Timor">
	<path class="st0" d="M124.774,382.479l0.219,4.654l-3.354,12.626l-1.083,7.978l-0.874,1.983l-0.71,0.921l-0.874,0.779l-4.333,5.689
		l-6.721,5.76l-2.085,1.133l-1.025,0.047l-0.792,0.449l-1.503,2.385l-0.559,6.753l-0.827,1.747l-2.178,3.117l-0.78,1.724
		l0.047,1.559l1.025,3.967l-0.233,2.149l-1.98,3.141l-3.04,1.913l-3.832,0.992l-4.333,0.425l-2.76,0.685l-0.92,0.756l-0.21-0.425
		l-0.722-2.952v-1.346l0.792-4.038l0.14-1.7l-0.792-3.826l-1.607-3.92l-2.19-3.731l-2.562-3.117l-3.401-2.904l-2.982-1.299
		l-3.121,0.165l-3.692,1.535l-3.028,2.574l-4.519,6.257l-2.854,1.747l-6.942-1.228l-6.22-5.407L30,419.425l4.127-1.134l18.214-7.324
		l3.962-0.465l2.843-1.468l4.952-7.1l2.128-2.342l6.86-3.196l15.004-4.646l22.084-4.218l2.495-1.338l1.908-2.546l4.476-0.855
		l5.649-0.297L124.774,382.479z M230.477,332.681l7.726-4.421l4.732-4.679l10.914-16.671l0.99-3.508l2.091-2.023l10.107-3.75
		l3.32-2.858l0.88-4.009l1.376-20.413l1.926-5.195l2.916-4.638l3.687-3.228l4.512-1.521l10.327-1.596l4.31-2.337l1.816-0.445
		l8.254,1.224l2.531-0.705l6.677-3.97l14.931-4.322l4.531-0.501l14.839,1.002l4.622-1.002l12.179-5.528l5.503-0.668l5.833,1.707
		l2.641-0.148l6.163-6.232l4.145,1.818l6.677,0.185l12.234-2.003l26.468-8.605l10.62-0.612l23.551,4.173l9.024,4.414l6.053,0.631
		l4.952-1.002l9.556-3.005l1.889-0.26l2.971-0.408l10.143-0.148l9.061-1.28l4.659-2.337l9.942-7.065l7.19-2.077l7.484-4.209
		l2.495-0.426l4.494-0.074l2.366-1.057l4.072,2.985l4.787,1.928l5.191,1.094l5.264,0.352l3.302,1.15l8.309,7.9l9.299-3.153
		l17.297-8.196l5.924-1.613l4.274-3.022l1.834-0.853l2.494-0.019l3.834,1.205l1.632,0.241l9.868-2.058l9.648-4.339l23.093-16.5
		l5.062-2.187l3.797,0.89l3.467,2.558l15.848,7.619l4.347,1.168l5.576,0.519l5.484-0.519l3.962-1.947l6.933-4.95l1.541-0.612
		l2.916,0.649l1.101,1.464l0.605,2.002l1.522,2.225l4.769,2.874l10.217,2.781l4.31,2.911l1.633,4.561l-2.256,3.894l-16.471,12.369
		l-10.327,10.423l-20.672,16.138l-14.564,14.211l-1.541,2.338l-2.678,0.223l-15.793,3.525l-14.509,10.559l-6.456,3.211
		l-34.263,2.487l-4.916,1.188l-2.641,1.262l-6.603,4.937l-1.651,0.724l-1.926,0.427l-4.952,0.26l-2.311,0.872l-8.823,10.135
		l-8.181,14.053l-7.979,7.056l-9.52,2.711l-59.576,7.688l-6.291,2.637l-3.613,1.504l-16.765,11.589l-22.634,15.622l-4.2,1.338
		l-13.262-2.043l-4.457,0.353l-2.513,1.337l-4.916,4.143l-2.641,0.892h-9.355l-4.732,1.189l-14.454,8.157l-4.145,0.111
		l-11.445-1.672l-3.687,0.78l-4.604,3.679l-4.622,2.62l-14.454,5.389l-24.615,9.181l-8.107,5l-11.611,9.721l-6.218,2.714
		l-2.751,3.235l-4.182,6.321l-2.458,2.714l-2.458,1.952l-3.265,1.171l-10.528,0.781l-4.366,1.283l-3.815,2.436l-3.87,3.831
		l-7.85,5.616l-2.408-13.955l-1.044-3.389l-5.078-8.028l-0.221-1.605l0.454-3.589l-0.314-1.464l-1.246-1.511l-4.775-2.998
		l-5.381-4.839l-1.537-2.573l-1.316-3.966l-1.363-7.883l0.862-6.75l3.727-4.578l7.385-1.321l4.612,0.047l1.537,0.425l1.561,1.156
		l2.69,3.068l1.421,0.873l3.215,0.189l1.945-1.322l2.003-2.006l3.494-1.888l2.469-0.212l5.544,0.354l1.829-0.849l0.734-2.195
		l-0.279-1.129l-0.327-1.325l-0.955-2.407l-0.443-2.124l3.832-14.344l0.081-4.954l-1.887-4.529l-3.285-3.656l-4.077-2.948
		l-4.24-2.406l-1.631-1.486l-0.85-1.415l-1.06-0.542l-2.329,1.038l-0.78,1.297l-1.002,4.434l-0.734,1.675l-3.04,2.689l-10.681,4.694
		l-5.754,3.751l-2.935,1.203l-4.065,0.283l-3.343-0.92l-2.644-2.052l-1.875-2.901l-1.141-3.491l0.279-3.915l3.005-7.759
		L230.477,332.681z M376.944,158.162l2.458-3.966l5.613-5.911l6.163-4.095l4.09,1.779l-1.926,7.264l-8.694,21.424l-1.541,6.932
		l-0.991,1.835l-2.091,1.613l-2.128,0.667l-0.954-1.001l-1.486-0.853l-7.264-2.206l-2.916-1.668l-2.366-2.688l-0.77-2.187
		l0.605-2.224l1.761-3.021l2.806-2.724l7.979-6.06L376.944,158.162z"/>
</g>
<g id="Copyright">
	<text transform="matrix(1 0 0 1 681.6426 577.5916)" class="st1 st2">© Vemaps.com</text>
</g>
</svg>
