<?xml version="1.0" encoding="utf-8"?>
<!-- Generator: Adobe Illustrator 23.0.1, SVG Export Plug-In . SVG Version: 6.00 Build 0)  -->
<svg version="1.1" xmlns="http://www.w3.org/2000/svg" xmlns:xlink="http://www.w3.org/1999/xlink" x="0px" y="0px"
	 viewBox="0 0 800 600" style="enable-background:new 0 0 800 600;" xml:space="preserve">
<style type="text/css">
	.st0{fill:#808080;}
	.st1{font-family:'Roboto-Regular';}
	.st2{font-size:14px;}
</style>
<g id="Turkmenistan">
	<path class="st0" d="M489.997,526.155l-1.265-1.974l-0.711-1.448l-0.134-1.713l0.204-0.385l0.711-0.699l0.156-0.448l-0.038-1.137
		l0.038-0.358l0.345-1.522l-0.011-0.634l-0.334-0.471l0.334-1.44l-0.032-1.042l-0.188-0.966l-0.237-2.301l-0.328-1.136l-0.463-1.08
		l-0.538-0.891l-0.834-1.027l-0.91-0.841l-1.055-0.565l-1.276-0.203l-0.716-0.323l0.603-0.762l1.06-0.875l0.635-0.679l0.032-0.602
		l-0.183-1.295l0.151-0.779l0.328-0.306l0.49-0.193l0.441-0.323l0.199-0.696l0.022-0.589l0.091-0.633l0.161-0.576l0.258-0.443
		l0.549-0.72l0.102-0.396l-0.086-0.33l-0.135-1.943l-0.78-4.012l-0.759-1.261l-0.172-0.627l-0.021-1.499l-0.092-0.674l-0.21-0.678
		l-0.215-0.381l-0.323-0.391l-0.414-0.334l-0.501-0.217l0.14-0.448l0.081-0.18l0.167-0.257l-0.743-1.851l0.301-3.173l1.12-5.213
		l-0.312-0.971l-0.086-0.78l0.226-0.686l0.323-0.492l0.28-0.623l0.205-0.724l0.075-0.797l-0.086-0.814l-0.194-0.6l-0.431-0.999
		l-0.425-2.206l-2.115-0.288l-2.589-0.456l-5.34,0.094l-6.174,0.111l-11.11,0.205l-7.283,0.131l-8.279,0.151l-1.723-0.963
		l-1.071-1.889l-1.513-3.985l-1.098-1.777l-5.517-6.744l-2.406-3.687l-1.954-4.172l-1.545-2.073l-1.959-0.85l-4.274-0.766
		l-1.911-1.126l-3.418-2.898l-7.498-2.447l-0.554-0.037l-0.49,0.26l-0.608,0.964l-0.366,0.393l-0.495,0.105l-0.7-0.552l-0.361-1.082
		l-0.248-1.236l-0.371-1.018l-0.872-0.941l-0.77-0.135l-1.652,0.655l-0.431-0.025l-0.441-0.221l-0.42-0.338l-0.339-0.352
		l-0.856-0.226l-0.151-0.468l0.156-0.539l0.065-0.439l0.075-0.179l0.188-0.221l0.065-0.318l-0.307-0.441l-0.98-1.096l-3.262-2.716
		l-0.608-0.9l-1.023-4.517l-0.124-1.372l0.172-0.73l0.323-0.646l0.215-0.586l-0.145-0.544l-0.312-0.717l0.161-1.457l-0.242-0.867
		l-1.007-1.398l-1.044-0.999l-1.2-0.317l-2.923,1.344l-1.114-0.105l-6.949-5.021l-1.701-1.767l-0.576-0.323l-1.513-0.229
		l-0.694-0.226l-0.732-0.53l-2.056-0.948l-4.043-0.932l-3.122-1.748l-0.285,0.456l-0.129,0.979l-0.694,0.869l-0.549,0.187
		l-0.533,0.042l-1.109-0.214l-0.592,0.002l-0.371,0.303l-0.328,0.393l-0.452,0.275l-1.173,0.126l-1.179-0.177l-2.25-0.928
		l-2.616-2.326l-0.85-0.442l-1.017,0.078l-0.807,0.587l-0.624,0.927l-0.479,1.1l-0.7,1.09l-0.904,0.435l-4.715,0.469l-0.727-0.194
		l-1.373-0.986l-0.657-0.313l-4.059-0.61l-0.888-0.338l-0.888-0.741l-0.253-0.748l-0.005-0.912l-0.135-1.201l-0.183-0.49
		l-0.824-1.542l-0.043-0.509l0.113-0.472l-0.005-0.456l-0.398-0.446l-0.877-0.432l-0.84-0.194l-1.755-0.152l-3.434-0.809
		l-8.166-3.933l-1.803-0.488l-0.845,0.065l-0.877,0.205l-0.856,0.066l-0.781-0.326l-0.307-0.409l-0.474-0.997l-0.366-0.363
		l-0.431-0.107l-0.85,0.2l-0.187-0.018l-0.254-0.024l-0.667-0.425l-0.651-0.57l-0.7-0.433l-0.786-0.014l-0.781,0.201l-2.541,0.055
		l-2.654-0.768l-0.872-0.116l-0.883,0.142l-0.813,0.249l-0.824,0.116l-7.493-2.986l-1.319-1.757l1.028-3.492l0.129-1.101
		l-0.258-1.157l-1.114-1.592l-0.603-1.979l-1.706-1.85l-0.608-0.924l-0.942-2.294l-1.2-2.045l-0.221-0.583l-0.022-0.493l-0.145-0.43
		l-0.576-0.375l-1.114-0.38l-0.571-0.072l-0.571,0.072l-0.904,0.442l-0.453,0.494l-0.16,0.175l-1.05,1.832l-0.619,0.67l-1.685,1.124
		l-0.727,0.651l-0.942,0.527l-1.06-0.168l-2.067-0.856l-7.838-1.473l-0.807-0.266l-1.782-1.03l-2.04-1.666l-0.501-0.096
		l-2.492,0.427l-4.177,1.841l-0.84,0.152l-0.7-0.327l-0.657-0.523l-0.727-0.445l-0.888-0.219l-4.775,0.154l-1.895,0.727
		l-1.755,1.233l-3.284,3.055l-0.328,0.904l1.416,1.633l0.248,1.15l-0.183,1.228l-0.522,1.043l-0.818,0.61l-4.462,0.754l-0.845-0.12
		l-1.62-0.671l-0.253-0.105l-2.105-0.27l-7.45,1.361l-0.802-0.041l-0.727-0.236l-1.416-0.752l-0.878-0.273l-2.654-0.027l-0.764-0.26
		l-2.035-1.183l-3.224-0.715l-1.55-0.003l-10.298,2.172l-3.311,0.144l-1.265,0.515l-3.87,3.003l-1.077,0.553l-1.077,0.881
		l-0.592,0.082l-2.374,0.803l-1.13,0.635l-0.474,1.045l-0.641,0.253l-3.009,0.574l-1.007,0.341l-0.447,0.502l-0.571,1.205
		l-0.377,0.507l-0.56,0.215l-0.732,0.121l-0.63,0.348l-0.275,0.897l-0.409,0.689l-2.433,2.726l-7.821,5.402l-1.561,1.704
		l-0.678,1.096l-0.285,1.041l-0.231,1.31l-0.856,2.043l0.054,1.385l0.183,0.358l0.614,0.554l0.237,0.433l0.065,0.46l-0.065,1.581
		l-0.161,0.936l-0.71,1.65l-0.161,1.005L152.186,403l-1.319,1.109l-2.476,1.632l-0.651,0.617l-1.028,0.414l-1.281,1.383l-0.781,0.37
		l-1.152,0.017l-3.17-0.695l-1.179,0.183l-8.812,5.123l-1.857,0.616l-1.152,0.003l-1.2-0.159l-1.136,0.054l-0.964,0.647
		l-0.964,0.931l-0.942,0.403l-1.034,0.056l-14.211-1.246v-0.016l-0.733-8.222l-0.513-2.607l-0.975-2.605l-0.305-1.281l-0.242-2.894
		l-1.861-8.788l-0.924-18.948l0.165-1.087l0.712-2.191l0.53-3.227l1.288-5.049l-0.203-1.805l0.598-2.081l0.089-2.848l-0.267-4.875
		l-0.08-0.527l-0.466-0.927l-0.229-0.611l-0.136-0.652l-0.11-1.355l-0.788-4.049l-0.068-1.457l0.475-5.375l0.589-2.677l0.814-2.207
		l2.437-3.892l0.89-2.402l-0.517-1.996l0.78-0.636l0.407-1.202l0.301-1.355l0.47-1.099l0.572-0.947l0.623-1.329l0.271-0.953
		l-0.513,0.174l-0.08-1.397l-0.695-0.687l-1.814-0.657l-0.017-0.114l-0.212-0.586l-0.093-0.172l-0.246-0.155l-0.653-0.213
		l-0.161-0.09l-0.254-0.425l-0.237-0.54l-0.165-0.638l-0.089-0.728l-0.593-1.301l-0.585-0.458l-2.026-0.071l-1.259-0.36
		l-0.483-0.055l-0.547,0.224l-0.246,0.404l-0.254,0.142l-0.568-0.562l-0.445-1.01l-1.03-3.15l-0.322-0.672l-0.504,0.475l0.157,1.057
		l0.466,1.106l0.415,0.614v0.418l-0.839-0.45l-0.754-1.013l-0.356-1.248l0.555-1.819l-0.42-1.227l0.038-0.661l0.309-0.424
		l1.466-0.951l-1.547-0.156l-0.013-1.419l1.17-3.056l-1.077,0.602l-1.441,1.111l-0.848,1.064l0.733,0.476l0.504,7.377l-0.606-1.016
		l-1.293-1.704l-0.589-0.986l-0.242-1.208l-0.059-1.35l-0.356-1.001l-1.128-0.112l0.271-0.845l0.178-1.078l-0.093-0.933
		l-0.534-0.397l-0.288,0.446l-0.839,2.125l-0.471,0.681l-0.191-1.573l0.246-1.992l1.013-3.824l-1.424,1.38l0.86-2.292l0.208-0.926
		l-0.352,0.175l-1.072,0.282l0.572-1.447l-0.153-0.551l-0.636,0.337l-0.852,1.203l-0.382-0.499l-0.589,0.348l-2.259,0.151
		l-0.988,0.836l-0.475-0.049l0.038-1.285h-0.356l-0.394,0.674l-0.568,0.66l-0.712,0.457l-0.818,0.044l0.254-0.433l0.462-1.403
		l-0.364-0.022l-0.738,0.074l-0.356-0.052l-0.072,0.082l-0.432,0.34l-0.203,0.077l-0.157-0.151l-0.365-0.641l-0.191-0.129
		l-0.691,0.244l-1.331,0.658l-0.822,0.019v-0.499l0.322-0.491l-0.136-0.263l-0.449-0.107l-0.632-0.022l-0.598-0.126l-0.788-0.603
		l-0.568-0.192l-1.047,0.055l-2.518,0.765l-1.055,0.562l1.873,1.197l0.619,0.181l-0.949,1.509l-0.339,0.871l-0.144,1.087
		l0.098,1.125l0.623,2.799l-0.136,1.644l-0.5,0.798l-0.543-0.142l-1.28-9.54l-0.331-0.811l-2.179-3.352l-0.182-1.16l0.496-1.308
		l0.483-0.639l1.5-1.432l0.242-0.631l0.178-0.857l0.233-0.763l1.051-0.862l0.661-1.28l1.895-5.255l1.411-2.894l1.78-1.932
		l1.971,0.407l-1.093,0.608l-0.801,0.718l-1.5,2.119l-0.216,0.556l-0.479,1.958l-0.144,0.214l-1.102,1.171l0.297,1.698l1.933,0.261
		l5.701-1.14l3.293,0.143l1.043,0.363l0.623,0.863l0.458,1.044l0.559,0.92l0.725,0.535l0.882,0.288l2.157,0.135l0.903,0.458
		l0.483-0.008l0.216-0.681l-0.038-0.678l-0.165-0.492l-0.318-0.308l-0.547-0.132l0.674-1.722l0.644,0.231l0.695,1.088l0.831,0.865
		l0.992-0.025l1.517-1.486l1.051-0.33l0.475,0.184l1.204,0.69l0.449,0.044l0.602-0.626l-0.157-0.681l-0.555-0.613l-0.568-0.429
		l-1.161-0.475l-2.196-0.528l-0.937-0.841l0.839-0.283l0.488-0.487l0.047-0.732l-0.471-1.012l-0.699-0.704l-0.699-0.149
		l-2.501,0.278l-0.178-0.421l-0.03-1.337l-0.165-0.694l-0.415-0.801l-0.564-0.702l-0.636-0.38l0.326,2.312v0.958h-0.326
		l-1.895-2.998l-1.356-1.347l-1.403-0.32l0.191,0.394l0.521,1.501l-0.318-0.242l-0.822-0.452l-0.314-0.229l0.03,1.286l0.979,1.294
		l0.089,1.112l-1.78-1.205l-0.203-2.417l0.886-5.202l-0.606,0.347l-0.648,0.107l-0.644-0.116l-0.593-0.339v-0.458l1.729-0.866
		l2.725-3.84l1.653-1.822l-0.284-0.348l-0.288-0.704l-0.17-0.296l0.458-0.268l0.462-0.149l1.043-0.086l0.75-0.238l-0.008-0.505
		l-0.322-0.472l-0.242-0.133l0.581-0.829l0.805-0.771l0.746-0.904l0.386-1.25l-0.28,0.16l-0.14,0.05l-0.114,0.061l-0.178,0.193
		l-0.894-0.899l-0.771-0.18l-1.924,0.149l-0.882-0.304l-1.195-1.106l-0.767-0.487l-0.92-0.26l-0.911-0.019l-0.877,0.252
		l-0.852,0.531l-2.191,2.486l-0.86,0.346l-0.242,0.144l-0.814,0.639l-0.382,0.141l-0.407-0.141l-0.928-0.639l-0.445-0.144
		l-0.572-0.282l-3.395-2.699l-0.89,0.346l-0.776,0.772l-0.763,0.426l-3.759,0.465l0.297-0.619l0.305-0.476l0.382-0.393l0.483-0.371
		l-3.607,1.173l-1.958,0.252l-1.623-0.495l-0.844-2.011l-0.725-0.714l-0.916,0.872l-0.008,0.719l0.377,0.907l0.877,1.385
		l0.191,0.813l0.343,3.847l0.305,0.566l1.484,1.994l0.538,0.431l1.962,3.703l1.623,1.533l0.513,0.364v0.458l-2.484-1.384
		l0.704,0.516l1.433,1.836l-0.356,0.422l-1.666-1.648l-0.687-0.94l-1.488-3.575l-0.712-0.919l-1.848-0.803l-0.619-1.102l-0.356-1.42
		l-0.292-2.63l-0.453-0.724l-5.014-4.04l-1.801-1.879l-0.771-1.473l0.398-2.952l0.399-1.64l0.428-1.003l0.331-1.225l-0.534-1.276
		l-1.411-1.92l0.649-0.605l-0.233-0.672l-1.102-1.094L43.61,218.5l0.157-2.631l1.801-11.774l0.712-2.266l1.157-2.267l3.128-4.378
		l1.594-2.988l0.263-2.476l-0.466-0.402l-1.356-0.335l-0.288-0.453l0.114-0.629l0.403-1.267l-0.017-0.235l-0.246-0.21l0.661-0.42
		l0.852-0.333l0.343,0.064l0.114-0.655l-0.081-0.736l-0.187-0.641l-0.169-0.361l1.225-5.167l1.971-5.218l0.415-2.38l-0.746-4.786
		l-0.025-2.774l0.559,0.422l1.259,0.708l0.509,0.54l0.225,0.801l-0.127,0.801l-0.225,0.778l-0.03,0.708l0.534,1.328l2.272,2.914
		l0.407,1.162l0.619,2.628l0.432,0.956l1.666,1.169l0.127,0.244l1.318,0.017l0.602-0.132l0.551-0.356l-0.814,0.961l-1.271,0.468
		l-0.894,0.518l0.318,1.109l0.373,0.389l0.835,0.675l0.42,0.582l0.115,0.622v0.778l0.165,0.666l0.598,0.28l2.31,0.193l0.992-0.098
		l1.161-0.523l2.352-2.511l0.839-0.308l-0.86,1.837l-0.233,1.058l0.581,0.414l3.895-0.49l0.453-0.327l0.085-0.767v-0.868
		l0.174-0.641l0.767-1.092l0.56-0.373l0.627,0.269l0.055,0.392l-0.369,1.274l-0.042,0.638l0.449,1.341l0.776,1.069l1.021,0.711
		l1.166,0.255l0.326,0.151l0.746,0.663l0.53,0.126l0.606-0.137l0.458-0.263l0.712-0.54l1.882-0.887l0.712-0.817l0.284-1.411
		l-0.089-2.946l0.191-1.112l1.284-2.66l0.28-0.123h0.661l0.483,0.126l0.517,0.311l0.411,0.395l0.178,0.362l0.153,0.277l0.725,0.286
		l0.216,0.168l0.025,0.437l-0.153,0.423l-0.191,0.35l-0.068,0.202l0.288,1.448l0.271,0.526l0.538,0.375l-0.445,0.974l-0.28,0.473
		l-0.373,0.428l0.593,1.192l0.805,2.769l0.767,1.241l0.521,0.324l0.521,0.101l0.432,0.229l0.267,0.713l-0.136,0.495l-0.729,1.492
		l-0.17,0.612l0.848,1.676h2.005l2.361-0.477l3.009,0.444l0.86-0.807l0.814-1.039l2.238-1.274l0.521-0.14l0.526,0.106l1.433,0.791
		l1.322,0.187l1.03-0.341l0.966-0.492l1.628-0.419l0.407-0.419l0.267-0.542l0.102-0.531l-0.292-0.076l-1.373-0.657l-0.47-0.467
		l3.014,0.126l1.526-0.235l1.547-0.881l3.183,0.092l0.148,0.179l-0.237,0.436l-0.509,1.649l-0.165,0.352l0.216,0.218l1.615,0.721
		l7.858,0.201l-1.021-0.626l-1.111-0.355l0.653-0.892l2.068-0.537l0.81-0.872l-5.175,0.084l-0.67-0.098l-0.398-0.621l-0.127-1.477
		l-0.22-1.234l-0.983-1.881l-0.335-1.803l-0.509-1.12l-0.123-0.58l0.097-0.462l0.191-0.331l0.136-0.348l-0.068-0.507l-0.322-0.132
		l-0.521,0.073l-0.458-0.129l-0.123-0.754l0.212-0.322l0.39-0.056l0.449,0.006l0.373-0.14l1.339-1.565l0.704-0.538l1-0.208
		l1.501,0.679l3.158,2.563l0.869,0.011l1.458,0.947l0.153,0.986l-0.648,1.101l-0.962,1.28l1.933,0.493l6.027-1.159l1.755-0.672
		l0.809-0.157l0.92-1.6l2.187-1.177l0.492-0.406l1.958-3.286l0.492-1.086l0.208-1.145l-0.199-1.142l-0.488-0.971l-1.293-1.677
		l-1.661-2.711l-0.632-0.374v-0.43l1.174,0.177l1.242,0.624l2.242,1.554l-0.339-0.601l-1.038-0.854l-0.437-0.469l-0.453-0.706
		l-0.199-0.388l-0.085-0.323l0.076-0.472l0.229-0.419l0.258-0.202l0.174,0.197l-0.86-1.178l-1.424-0.419l-1.53-0.222l-1.195-0.588
		l-0.072-2.055l-1.801-2.053l-10.418-8.084l-4.616-2.029l-0.886-0.638l-1.912-1.977l-2.429-1.378l-1.077-0.797l-0.246-0.365
		l-0.576-1.17l-1.153-1.727l-0.42-0.385l-1.882-0.396l-1.005-0.648l-0.801-0.917l-0.674-1.036l-1.026-2.205l-0.576-2.43
		l-0.229-2.737l-0.017-6.024l-0.305-2.532l-0.581-2.326l-0.852-2.251l-2.479-4.283l-0.403-1.249l-0.237-0.563l-0.551-0.222
		l-0.593-0.131l-0.39-0.279l-0.212-0.843l0.148-0.649l0.275-0.624l0.17-0.752l-0.042-0.444l-0.275-1.393l-0.064-0.812l0.623-1.642
		l0.114-0.796l-0.038-1.164l-0.157-1.395l-0.331-1.37l-0.534-1.116l-1.619-1.608l-2.441-1.591l-2.645-0.823l-2.255,0.709
		l-2.229-1.257l-15.971,2.697l-3.052,1.634l-1.034,0.24l-4.01-0.183l-2.912-1.562l-2.183,0.963l-1.95,1.787l-1.255,1.43l-5.213,4.19
		l-1.212,2.029l-6.019,13.323l-0.907,1.398l-0.755,0.599l-0.39,0.75l-0.432,1.689l-0.237,1.794l0.17,1.05l0.636-0.176l1.615-2.145
		l0.788-0.534l2.59,0.25l1.212,0.568l0.661,1.084l-0.059,0.936l-0.805,1.427l-0.203,0.751l0.059,0.703l0.246,1.366l0.051,0.788
		l-0.203,1.569l-3.45,8.936l-0.263,1.41l-0.623,1.975l-0.114,0.652l0.102,0.681l0.636,1.728l0.5,2.892l0.352,4.348l0.381,1.15
		l2.742,5.77l0.297,1.21l-0.28,1.432l-1.106,2.038l-0.038,1.523h-0.356l-0.288-0.66l-0.831-0.725l-0.297-0.498l-0.085-0.759
		l0.407-2.118l0.008-1.604l-0.187-1.438l-0.364-1.332l-0.534-1.293l-0.237-0.363l-0.657-0.786l-0.165-0.27l-0.127-0.828l0.14-1.313
		l-0.013-0.691l-1.157-4.064l-0.089-0.674l-0.648-0.593l-0.839-2.64l-0.818-0.596l-0.695-0.144l-0.445-0.415l-0.225-0.675
		l-0.068-0.918l-0.102-0.642l-0.288-0.407l-0.869-0.851l-0.585-0.404l-1.377-0.209l-0.504-0.337l-1.801-2.376l-0.924-0.713
		l-0.966-0.424l-0.687-0.747l-0.102-1.696l0.169-0.164l1.077-1.977l0.187-0.564l0.047-0.799l-0.055-1.53l0.081-0.491l0.318-0.734
		l0.017-0.439l-0.157-0.397l-0.25-0.267l-0.246-0.17l-0.119-0.119l-0.428-1.399l-0.28-0.553l-0.36-0.426l-0.382-0.128l-0.848,0.119
		l-0.369-0.23l-0.504-0.758l-0.28-0.338l-0.818-0.361l-0.793-0.988l-0.466-0.222l-1.271-0.375L30,116.685l2.144-2.197l7.948-7.962
		l6.923-6.949l0.016-0.007v-0.013l11.148-9.32l8.144-2.895l2.95-1.771l11.487-4.581l3.445-0.738l9.167-1.677l7.978-1.45
		l12.478-2.277l3.93,0.55l3.784,1.376l8.085,5.431l8.774,5.88l5.243,3.517l6.18,4.139l8.79,8.133l1.238,1.604l0.517,1.372
		l-0.011,1.182l-0.215,1.22l-0.075,1.507l0.274,1.407l0.544,1.26l5.421,7.368l2.358,3.198l3.38,6.038l3.305,5.888l1.604,1.957
		l1.819,1.608l3.262,2.253l0.824,0.936l0.63,1.18l1.459,3.513l0.877,1.186l1.082,0.827l1.459,0.838l1.615,0.548l6.573-0.38
		l3.068-1.192l4.839-0.702l4.651-2.275l1.744-0.147l3.558,0.34l8.451,0.455l9.695,0.534l10.776,0.588l1.89,0.103l11.638,0.634
		l4.92,1.039l6.368,1.332l1.007-0.587l1.604-2.933l1.028-1.186l2.428-1.219l1.109-0.796l0.587-0.699l0.113-0.473l-0.398-0.305
		l-2.611-0.642l-0.797-0.395l-0.738-0.535l-1.141-1.292l-1.001-1.712l-0.7-1.925l-0.237-1.926l0.038-2.458l-0.194-2.007
		l-0.598-1.824l-1.157-1.911l-0.931-2.49l0.059-2.198l0.409-2.244l0.129-2.627l-1.152-5.516l0.016-2.695l1.47-2.033l5.001-2.356
		l2.142-1.632l1.949-2.9v-0.018l2.858-5.386l4.188-4.132l4.898-2.403l5.001-0.203l7.369,1.289l2.422-0.486l2.88-1.422l1.007-0.24
		l3.558,0.165l1.001-0.222l1.147-0.835l-0.161-0.667l-0.668-0.754l-0.377-1.107l0.425-0.92l1.992-0.647l0.748-0.84l2.121-4.883
		l0.452-1.642l-0.092-1.098l-1.114-2.407l-0.296-1.868l0.883-0.753l1.416-0.633l1.33-1.532l0.458-0.823l0.554-0.706l0.953-0.443
		l1.157-0.217l1.179,0.036l0.99,0.35l0.754,0.748l1.19,1.779l0.834,0.491l0.845-0.078l1.889-0.817l0.942-0.159l1.141,0.206
		l5.173,2.451l1.766,1.302l1.34,1.804l0.533,2.508l-0.178,1.287l-0.28,1.207l-0.016,1.094l0.614,0.948l0.85,0.218l3.348-0.509
		l0.646-0.393l0.183-0.573l-0.237-0.621l-0.592-0.55l-2.099-2.492l-3.865-6.304l-1.389-3.293l-1.604-2.47l-1.836-1.439l-6.524-3.079
		l-0.974-0.879l-0.296-1.362l0.484-1.034l0.947-0.719l1.965-0.864l2.761-1.697l0.974-0.309l1.27,0.042l5.62,2.284l2.67,0.626
		l2.675,0.168l2.153-0.64l1.104-2.061l0.71-6.02l0.964-1.61l1.27,0.733l11.207,13.257l3.488,3.247l3.66,1.658l2.32,0.418l1.529-0.09
		l1.502-0.413l1.513-0.736l1.33-0.143l1.254,0.794l3.311,3.465l0.737,1.189l0.495,1.352l0.619,5.387l0.689,1.255l1.496,0.817
		l2.654,0.291l1.222,0.424l2.078,2.246l1.303,0.502l2.691,0.08l11.008-1.701l4.522,0.411l2.325-0.284l2.363,0.266l1.642,1.808
		l1.448,2.269l1.825,1.658l2.309,0.91l1.206,0.721l0.635,0.917l-0.178,1.179l-0.856,0.626l-1.066,0.441l-0.856,0.626l-0.479,3.255
		l1.023,3.448l0.161,2.768l-3.09,1.206h-0.016H420.6l-0.016-0.005l-0.921,0.268l-0.587,0.69l-0.081,0.925l0.576,0.993l0.743,0.335
		l2.702-0.098l5.474,2.078l1.534,1.324l1.194,1.834l0.593,0.911l0.78,0.811l2.465,1.468l0.732,0.627l0.635,0.807l0.506,0.964
		l0.097,0.993l-0.603,0.908l-0.818,0.112l-1.017-0.458l-1.798-1.144l-1.959-0.621l-1.631,0.141l-1.432,0.994l-1.34,1.923
		l0.474,2.436l1.604,3.102l3.467,4.934l0.474,1.279l-0.716,0.878l-2.153,1.083l-0.888,0.788l-0.678,0.974l-0.409,1.19l-0.651,5.575
		l0.361,1.644l1.464,1.457l5.701,2.944l5.012,2.584l3.144,2.321l2.826,2.846l1.496,1.081l1.814,0.522l3.128-0.079l6.287-2.115
		l10.491-0.637l3.644,0.884l2.487,2.591l0.345-0.29l0.339-0.379l0.686-1.181l0.309-0.533l0.199,0.161l0.161,0.619l0.291,0.63
		l3.079-0.53l0.926,0.029l5.361,3.827l2.115,0.865l1.986-0.068l1.798-0.912l1.464-1.616l0.99-2.172l1.276-0.734l0.506-2.438
		l0.705-1.458l1.168-0.577l1.922,0.219l5.065,1.343l4.532,1.966l11.643,8.612l1.017,1.118l3.822,6.45l0.441,1.145l0.178,1.408
		l0.14,4.864l0.253,1.015l-0.393,0.516l0.581,1.363l1.639,5.776l0.598,3.138l0.414,1.467l0.571,0.909l1.717,1.881l0.592,0.958
		l1.074,4.217l0.703,1.45l1.938,2.597l0.307,0.638l0.42,1.561l0.09,0.161l0.249,0.444l1.125,0.853l2.474,0.743l4.306,2.487
		l0.503,0.615l0.161,2.888l0.323,1.265l1.34,2.702l0.428,1.239l0.191,1.359l0.04,1.81l0.213,1.39l1.599,3.482l0.205,1.451
		l-0.291,1.233l-0.433,1.236l-0.218,1.471l0.145,1.562l0.915,3.823l0.565,1.817l3.738,4.724l0.562,0.323l3.009,3.039l6.094,4.376
		l7.1,5.093l8.462,6.059l17.171,12.273l7.235,5.161l3.305,3.155l5.598,7.846l3.165,3.269l5.771,4.148l7.272,5.219l8.381,6.011
		l1.561,0.819l1.539,0.291l1.346-0.291l4.032-2.025l1.572-0.187l1.238,0.772l1.574,2.048l2.956,3.844l10.968,9.278l6.691,3.881
		l7.665,2.713l3.499,2.205l6.933,6.328l4.92,4.499l7.025,4.775l5.178,3.511l8.57,5.808l3.515,1.175l3.572-0.291l1.343-0.761
		l2.519-2.032l1.486-0.607l1.76,0.158l5.248,2.547l3.44,0.555l1.464,0.772l3.227,2.601l3.378,0.965l1.701,0.791l1.529,1.46
		l2.422,3.068l5.281,2.483l1.62,0.489l3.983,0.024l1.992,0.545l1.887,0.917l1.752,1.254l0.011,0.009l0.005,0.003l0.635,1.8
		l0.482,1.367l-1.914,3.744l-2.885,3.772l-1.814,3.25l-0.199,2.584l0.414,5.164l-0.199,2.617l-1.141,4.428l-0.194,2.344l0.711,1.863
		l1.026,0.884l0.826,0.894l0.205,1.048l-0.824,1.354l-0.974,1.005l-0.786,1.12l-0.113,1.201l1.289,0.999l-0.869,0.559l-0.921,0.802
		l-0.797,0.894l-0.441,0.349l-0.541,0.098l-0.646-0.325l-0.783-1.164l-0.527-0.259l-1.244,0.161l-3.59,1.181l-1.367-0.135
		l-1.044-0.79l-0.867-0.889l-0.359-0.184l-0.467-0.239l-0.487-0.139l-0.732-0.615l-0.56-0.137l-1.723,0.091l-0.603-0.091
		l-1.05-0.535l-0.902-0.894l-1.445-1.948l-0.947-0.817l-11.692-4.402l-0.996-0.736l-0.363-0.424l-0.417-0.628l-0.872-1.979
		l-0.409-0.265l-1.039-0.234l-0.786-0.36l-0.134,0.937l-0.323,1.725l-0.689,0.579l-2.142-0.024l-0.899,0.199l-0.635,0.383
		l-0.528,0.675l-0.541,1.059l-0.003,0.014l-0.005,0.007l-0.646,1.296l-0.522,1.397l-0.248,1.469l0.412,2.811l0.03,1.45l-0.28,1.329
		l-0.667,0.923l-1.464,1.506l-2.411,3.335l-1.846,0.97l-0.702,0.018l-22.127,0.573l-3.854,1.279l-9.436,5.109l-1.518,1.141
		l-0.969,1.66l-0.237,2.545l0.99,4.96l0.215,2.55l-0.705,2.205l-1.91,3.519l-5.583,10.272l-0.861,2.081l-0.667,2.563l-0.167,1.338
		l0.011,1.311l0.245,1.324l0.732,2.476l0.143,1.343l-0.242,2.581l-0.597,2.389l-0.923,2.237l-4.088,6.349l-1.066,1.279l-1.725,1.399
		l-1.755,0.654l-3.835,0.898l-0.953,0.4l-0.797,0.53l-0.614,0.781l-0.824,2.594l-0.517,0.437l-0.646-0.153l-0.864-0.36l-2.148-0.353
		l-1.938,0.363l-1.841,0.917l-3.442,2.632l-0.657,0.833l-0.439,1.026l0.008,1.149l0.479,3.045l-0.024,0.808l-4.955-1.94
		l-1.459-0.313l-0.815,0.128l-0.859,0.135l-1.561,0.486l-4.893,2.884l-2.094,0.542l-6.427,0.399l-1.052,0.233l-0.972,0.542
		l-0.721,0.745l-1.233,1.695l-0.772,0.698l-4.212,1.98l-4.546,0.95l-11.336-0.256l-1.104,0.242l-0.805,0.84l-0.221,1.112l0.361,0.82
		l0.52,0.82l0.229,1.135l0.331,0.833l2.667,2.414l0.729,0.988l0.347,0.292l1.324,0.504l0.264,0.335l-0.043,0.447l-0.307,0.583
		l-1.448,1.073l-3.997,1.308l-1.381,1.368l-0.089,0.954l0.127,3.27l0.167,0.784l0.867,0.708l0.183,0.671l-0.533,2.01l-0.221,2.422
		l-0.315,1.189l-0.697,0.733l-1.028,0.271l-2.164,0.188l-1.055,0.244l-3.494,1.687l-4.721,3.759l-0.234,0.115l-3.259,1.6
		l-1.367,1.385l-0.657,0.913l-0.678,0.662l-0.781,0.488l-3.779,1.638l-0.861,0.211l-0.463-0.076l-1.534-0.649l-0.56,0.023
		l-0.517,0.152l-0.522,0.043l-0.568-0.306l-3.421-3.171l-1.408,0.079l-1.696,1.576l-5.068,6.91l-0.824,0.438l-0.546-0.662
		l-0.982-2.301l-0.307-0.968l0.086-2.58l-0.073-1.121l-0.358-1.128l-0.554-1.002l-0.764-0.798l-2.872-1.27l-1.435-0.97l-5.34-5.279
		l-1.373-0.955l-1.547-0.766l-3.041-0.06l-6.266,2.197l-3.095,0.238l-7.025-1.077l-3.44-1.388l-2.395-2.677L498.227,531
		l-0.437-0.195l-0.349-0.156l-0.592-0.096l-0.42-0.242l-0.328-0.38l-0.344-0.5l-0.016-0.255l0.205-0.692l-0.021-0.278l-0.824-0.738
		l-0.113-0.033l-0.081,0.016l-0.646-0.569l0.447-0.722l0.043-0.169l-0.49-0.434l-0.382-0.199h-0.441l-2.729,0.53L489.997,526.155z
		 M60.848,300.544l0.538-1.318l0.903-0.901l1.255-0.221l0.254,0.431l0.068,0.213v0.314l-1.513,1.097l-0.254,2.702l0.699,5.357
		l0.627,5.58l1.178,5.465l-0.212,0.835l0.021,0.356l0.191,0.59h-0.382l-0.136-1.585l-1.517-5.742l-0.839-1.805l-0.348-1.005
		l-0.093-0.686l0.085-1.773l-0.114-1.791l-0.483-3.092l-0.114-1.547L60.848,300.544z M83.689,265.292l0.598-0.566l0.619-0.314
		l0.335,0.47l0.284,0.33l0.254,0.041l0.225-0.385l0.229,1.474l0.102,0.374l1.064,1.638l-0.275,0.808l-0.649,0.78l-0.822,0.505
		h-0.746l-0.275-0.522l-0.589-2.143l-0.364-0.836l-0.28-0.902L83.689,265.292z"/>
</g>
<g id="Copyright">
	<text transform="matrix(1 0 0 1 681.6426 577.5916)" class="st1 st2">© Vemaps.com</text>
</g>
</svg>
