<?xml version="1.0" encoding="utf-8"?>
<!-- Generator: Adobe Illustrator 23.0.1, SVG Export Plug-In . SVG Version: 6.00 Build 0)  -->
<svg version="1.1" xmlns="http://www.w3.org/2000/svg" xmlns:xlink="http://www.w3.org/1999/xlink" x="0px" y="0px"
	 viewBox="0 0 800 600" style="enable-background:new 0 0 800 600;" xml:space="preserve">
<style type="text/css">
	.st0{fill:#808080;}
	.st1{font-family:'Roboto-Regular';}
	.st2{font-size:14px;}
</style>
<g id="Tonga">
	<path class="st0" d="M483.595,266.897l1.136,0.439l0.527,0.511l0.475,0.588l0.947,0.685l0.086,0.86l-0.067,1.648l-0.588,0.802
		l-1.44-1.681l-0.818,0.388l-0.426,0.478l0.073,0.595l0.653,0.711l-0.622,0.782l-0.404,0.834l-1.057-0.233l-0.702,0.828
		l-0.349,1.358l0.003,1.358l-0.94-0.53l-0.521-0.906l-0.545-1.875l1.207-0.485l0.061-0.931l-0.46-0.899l-0.34-0.388l-0.855,0.743
		l-0.248,1.183l-0.34,0.763l-1.13-0.517l-0.074,0.44l-0.221,0.091l-0.34-0.026l-0.441,0.026l-0.983-2.347l1.424-1.183l2.117-1.125
		l1.09-2.146l0.515-0.549l1.207-0.291l1.375-0.091L483.595,266.897z M411.446,485.127l0.469,3.005l-0.04,1.223l-0.429,2.987
		l0.061,5.067l-0.478,0.816l-1.173-0.704l-0.478-1.231l-0.956-0.987l-2.163-1.645v-0.553l0.297-0.118l0.732-0.441l-0.441-0.875
		l-0.08-1.099l0.386-0.941l1.498-0.658l0.478-0.618l0.726-1.328l0.175-0.5l0.557-1.203l0.582-0.822L411.446,485.127z
		 M400.093,471.543l0.821,0.611l0.282,0.631l-0.073,1.261l-0.649,0.71l-4.283,3.174l-0.27,0.697l0.123,0.861l0.257,0.907
		l0.147,0.848l-0.276,0.96l-0.671,0.552l-0.849,0.276l-0.824,0.145l-1.627-0.375l-0.763-0.671l-1.207-2.32l-0.989-0.96l-3.587-1.801
		l-0.567,0.605l-1.866-1.104l-1.066-0.421l-0.94-0.171l-0.714-0.407l-1.859-2.628l-1.081-2.187l0.717-1.964l1.743-1.484l1.985-0.696
		l-0.937,1.149l-1.192,1.031l-0.509,1.051l1.097,1.169l0.815,0.341l0.671,0.026l4.267-0.841l0.695,0.197l0.564,0.453l0.594,0.361
		l0.478,0.506l0.187,0.887l-1.124,0.729l-0.521,0.67l0.312,0.828l0.79,0.315l0.754-0.335l0.754-0.552l0.787-0.276l0.928,0.158
		l1.332,0.749l0.61,0.197l1.118-0.276l0.444-0.848l0.438-1.11l1.087-1.077l0.772-0.368l0.971-0.282l1.011-0.098L400.093,471.543z
		 M453.128,365.265l1.02-0.365l0.793-0.723l0.551-1.022l0.3-1.224l0.371,0.078l0.824,0.326l0.297,0.195l-0.597,1.406l-0.101,1.576
		l-0.38,1.185l-1.443,0.208l-0.576-0.299l-0.463-0.352l-0.355-0.43L453.128,365.265z M399.812,358.117l1.201,0.944l0.551,2.187
		l-0.138,2.402l-0.864,1.615v-0.599l-0.469,0.599l-0.374-0.462l-0.395-0.267l-0.867-0.365l0.058-0.033l-0.086-0.202l0.027-0.312
		l-0.919-2.487l-0.064-0.794l0.276-1.523l0.453-0.651l0.677-0.104L399.812,358.117z M457.288,359.797l1.326-0.742l0.754-1.048
		l0.619-1.1l0.944-0.976l0.395,1.171l-0.227,1.028l-0.441,0.97l-0.242,0.97l-0.557,1.016l-1.195,0.117l-1.103-0.521L457.288,359.797
		z M460.673,351.605l0.968,0.429l0.3,0.826l-0.395,0.598l-1.13-0.26l-0.824-1.184l-0.996-1.964l-0.346-1.47l1.139,0.254l0.386,0.67
		l0.377,1.75L460.673,351.605z M357.499,30l1.409,1.081l-0.389,2.201l-1.608,1.781l-2.239-0.216l-1.308-1.501l0.221-1.577
		l1.473-1.259L357.499,30z M313.672,568.788l0.698,0.245l0.459,0.411l-0.282,0.338L314.159,570h-0.239l-0.429-0.298l-0.257-0.43
		l0.08-0.404L313.672,568.788z M431.091,286.779l-0.778-1.281l0.217-1.152l0.876-0.582l1.185,0.46l0.53,0.971l-0.257,0.913
		l-0.769,0.602L431.091,286.779z"/>
</g>
<g id="Copyright">
	<text transform="matrix(1 0 0 1 681.6426 577.5911)" class="st1 st2">© Vemaps.com</text>
</g>
</svg>
