<?xml version="1.0" encoding="utf-8"?>
<!-- Generator: Adobe Illustrator 23.0.1, SVG Export Plug-In . SVG Version: 6.00 Build 0)  -->
<svg version="1.1" xmlns="http://www.w3.org/2000/svg" xmlns:xlink="http://www.w3.org/1999/xlink" x="0px" y="0px"
	 viewBox="0 0 800 600" style="enable-background:new 0 0 800 600;" xml:space="preserve">
<style type="text/css">
	.st0{fill:#808080;}
	.st1{font-family:'Roboto-Regular';}
	.st2{font-size:14px;}
</style>
<g id="Taiwan">
	<path class="st0" d="M657.891,84.488l-10.391,12.67l-1.643,2.676l-1.297,3.738l-0.845,4.281l-0.298,4.254l0.143,4.129l1.833,8.609
		l-0.107,2.201l-0.786,2.201l0.107,4.499l1.904,3.47l3.618,2.239l4.261,0.785v0.995l-1.809-0.183l-1.714,0.177l-1.44,0.471
		l-1.036,0.74l1.464,2.788l0.75,3.612l-0.464,3.14l-3.321,1.89l-0.25,1.367l0.429,1.661l0.94,1.504l0.333,1.556l-1.404,1.321
		l-3.452,2.007l-3.916,4.491l-0.131,1.752l0.238,3.882l-0.643,1.49l-0.714,1.248l-0.452,1.797l-0.286,3.534l-0.309,0.908
		l-0.559,0.738l-0.286,0.764l0.583,0.921l0.119,0.131l0.369,0.418l0.5,0.823l0.393,0.823l0.107,0.594l-0.774,1.332l-3.237,3.16
		l-3.487,4.824l-2.571,2.056l-0.821,1.096l0.393,1.175l-0.464,0.835l-3.714,2.806l-1.393,1.344l-1.559,3.353l-1.595,6.783
		l-4.13,6.051l-0.821,2.444l0.107,2.62l1,2.913l0.845,1.232l0.726,0.586l0.464,0.762l0.036,1.798l-0.607,2.013l-2.035,3.185
		l-0.429,1.941l-0.214,3.569l-1.785,9.049l-3.535,9.501l-4.463,22.258l-2.678,5.452l-6.141,35.652l-2.535,14.693l-1.25,2.709
		l-3.928,5.236l-1.464,2.715l-1.155,3.42l-0.809,6.34l0.071,5.646l-0.547,5.372l-2.702,5.539l-1.154,1.184l-2.666,1.941
		l-1.178,1.223l-0.583,1.261l-0.928,3.228l-2.666,4.695l-1.643,7.267l-1.178,3.277l-5.713,8.239l-0.714,1.512l-7.725,6.55
		l-1.833,2.118l-0.262,1.466l0.357,3.487l-0.095,1.556l-0.69,1.775l-1.19,1.956l-2.642,3.356l-2.618,2.491l-8.95,5.974l-6.023,6.605
		l-1.464,0.774l-1.178,1.528l-2.904,7.466l-1.452,2.804l-4.475,5.587l-1.809,3.325l-1.047,6.835l-2.666,9.318l-5.308,9.301
		l-0.762,3.166l-0.928,8.961l0.143,8.147l0.476,28.72l-0.869,4.077l-1.416,3.319l-1.869,1.374l-2.214,2.047l0.071,4.659l0.785,5.081
		L502.068,570l-2.523-3.785l-3.761-2.861l-4.38-1.976l-4.404-1.078l-0.178,3.677l-1.285,1.315l-1.892-0.475l-2.047-1.726
		l-0.119-1.302l0.702-3.895l-3.071-5.122l-0.25-1.367l0.036-1.117l0.214-1.83v-5.972l0.321-1.753l1.357-1.965l0.31-1.677
		l-11.069-28.726l-0.916-1.569l-3.083-3.821l-2.428-5.482l-1.119-1.583l-4.523-3.572l-1.809-1.043l-0.607-0.2l-0.607-0.425
		l-0.536-2.073l-0.357-0.74l-2.44-1.584l-5.57-2.666l-2.523-1.739l-2.666-2.338l-1.238-0.786l-1.631-0.708l-0.893,0.051l-1.024,0.38
		l-1.19,0.032l-7.26-5.675l-6.737-9.556l7.094,8.57l-0.833-4.079l-1.178-2.236l-0.94-1.779l-2.952-3.365l-5.023-4.642l-1.928-2.366
		l-0.905-2.625l1.202-2.56l0.631-2.283l-0.845-3.212l-1.488-3.168l-2.726-4.259l-2.571-5.667l-0.571-2.518l0.06-1.627l0.833-2.008
		l0.19-1.337l-0.309-0.71l-0.714-0.53l-0.738-0.723l-0.321-1.292l-1.571-2.726l-0.428-1.072l-1.178-7.585l-0.536-3.49l-1.012-2.016
		l-2.166-2.185l2.642-1.881l1.476-3.375l-0.595-2.916l-3.523-0.504l-0.678,1.035l-0.583,1.882l-0.988,1.493l-1.845-0.078
		l-0.726-1.241l0.274-3.899l-0.452-1.365l-2.261-0.983l-1.274,1.145l-1.035,1.61l-1.523,0.401l-1.619-1.397l-0.405-1.927
		l0.369-1.902l0.655-1.287l1.631-0.847l2.071-0.278l1.714-0.55l0.583-1.682l-0.797-0.874l-5.201-1.301v-1.087l4.356-0.039
		l-0.428-1.462l-2.368-2.045l-1.559-1.786l0.381-2.227l1.392-0.79l1.512-0.505l0.738-1.411l-0.452-2.182l-0.762-1.787l0.517-1.642
		l0.773-2.068l1.266-1.465l-0.27-1.275l0.262-1.25l1.88-4.988l0.881-0.959l1.428-0.363l-2.076-1.387l0.882-2.261l2.143-0.145
		l1.811-0.807l0.785,0.259l-0.464-1.763l-1.232,0.89l-1.032-0.255l-1.366-0.064l-0.024-1.834l1.37-3.139l2.05-0.143l2.986,0.023
		l-2.038-5.804l-2.321-4.481l1.071-2.024v-1.09l-1.69-0.83l0.226-0.954l0.964-1.161l0.5-1.408l2.259-2.932l-4.755,0.297l-0.112-4.85
		l2.549-2.859l-0.12-9.146l0.401-6.828l1.553-5.457l2.424-4.262l0.694-5.58l1.297-4.883l0.702-1.665l3.428-4.533l0.571-1.516
		l0.428-0.846l3.106-2.381l0.881-1.692l0.905-3.943l0.667-1.653l3.94-3.775l1.143-1.588l1.5-4.31l2.285-4.311l3.214-8.963l1.5-2.606
		l1.678-1.675l1.381-0.932l1.214-0.587l0.869-0.808l0.345-1.643l0.655-1.538l2.857-2.243l0.655-1.695l0.333-5.614l0.5-1.546
		l1.5-1.428l6.308-7.378l0.345-0.411l0.417-1.834l1.833-1.534l1.238-3.564l1.512-6.848l5.178-8.986l1.571-5.514l1.857-3.058
		l7.391-8.203l4.035-4.479l1.036-2.25l0.488-3.669l1.226-3.107l3.285-5.804l0.893-3.475l0.857-1.492l3.761-1.113l1.059-1.178
		l0.631-1.466l0.762-1.362l2.333-2.436l2.559-1.892l3.106-0.819l3.999,0.76l-0.536-3.052l1.512-2.057l2.071-2.096l1.024-3.191
		l0.464-1.022l2-1.003l0.821-3.008l3.095-6.325l1.214-1.659l0.405-0.872l-0.024-0.944l-0.369-1.023l-0.607-1.246l0.833-1.653
		l0.964-1.023l0.036-0.046l0.833-1.24l0.333-2.138l0.464-1.62l1.155-1.594l1.476-1.201l1.404-0.479l-0.119-0.682l0.369-1.634
		l1.25-3.393l1.143-1.831l4.951-7.891l3.868-4.61l3.999-3.389l10.248-3.37l2.392-1.498l2.059-1.814l2.5-1.36l4.975-1.794
		l11.188-2.024l6.261-1.131l2.642-1.039l3.428-2.853l1.024-0.513l1.262-0.223l1.69-0.026l1.952,0.651l1.047,1.466l0.679,1.532
		l0.869,0.861l1.928-0.782l-2.011-3.162l-3.226-3.268l-1.702-1.065l0.488-1.506l1.012-0.842l1.059-0.5l0.44-0.513l1.155-2.868
		l1.773-3.25l3.654-3.31l5.344-2.725l6.13-1.402l6.011,0.711l2.5,1.876l5.57,7.863l2,4.157l0.655-0.276l1.5-0.414l1.714-0.197
		l1.214,0.335l-0.071,0.493l-0.583,0.717l-0.559,0.986l0.048,1.217l0.595,0.704l2.059,1.447l0.428,0.565l0.928,0.921l2.142,0.789
		l25.495,6.192l1.797,1.144l-0.905,2.037l-0.25,1.63l0.393,2.891l1.357,4.835l1.464,2.259l1.178,0.538l3.892-0.591l2,0.21
		l2.345,0.631l2.071,1.044l1.119,1.418l-11.497,5.692L657.891,84.488z M607.831,547.918l2.571,1.958l1.143,1.374l-0.179,1.521
		l-3.035,0.963l-4.094-1.65l-3.761-2.658l-2.178-2.048l0.655-1.503l-0.024-1.419l-0.559-1.297l-0.988-1.169h10.902v0.976
		l-0.286,0.604l-0.476,1.342l-0.19,1.599L607.831,547.918z M144.311,153.314l4.151-0.848l3.948,3.607l2.598,7.023l-0.585,4.869
		l-2.131,2.572l-3.786-2.376l-2.819-0.917l-4.5,0.451l-3.963,2.509l-2.16,3.388l-1.869,0.954l-2.191-1.043l-1.5-0.098l-1.321-0.582
		l-0.643-1.15l0.226-0.418l1.214-1.536l0.381-0.706l0.107-1.137l-0.059-1.373l-0.405-2.412l-0.964-2.314l-0.131-1.177l0.845-0.497
		l4.213-2.072l5.58,3.662l3.891-0.474l0.582-4.87L144.311,153.314z M327.676,300.553l2.607,4.812l0.714,2.246l-0.321,1.662
		l-1.071-1.104l-1.428-0.935l-1.571-0.312l-2.19,1.233l-1.559,0.188l-0.774,0.428l-0.428,0.818l-0.595,2.266l-0.381,0.675
		l-2.595,1.506l-2.69,0.376l-2.69-1.038l-2.702-2.694l0.714-1.409l1.488,1.792l2.226,0.474l2.392-0.662l1.964-1.603l-1.357-0.506
		l-1.071-0.649l-0.869-0.896l-0.786-1.221l-0.309,0.513v0.175l-0.107,0.097l-0.583,0.305l-0.131-2.234l0.131-2.221h1l1.166,0.299
		l4.13-2.585l2.583-0.89l-0.69,2.461l-0.309,0.714l2.238-0.682l1.714,0.188l1.25-0.091L327.676,300.553z M302.681,300.553
		l1.809-5.774l1.738-1.715l2.345,2.04l-1.393,0.831l-0.964,2.007l-1.535,4.696l-0.071,1.266l0.381,1.071l-0.167,0.753l-1.678,0.273
		l-1.214,0.046l-0.857,0.156l-0.714,0.331l-0.678,0.558h-2.071l0.357-1.162l0.678-0.695l1.035-0.325l1.405-0.104l1.214-0.467
		l0.345-1.13L302.681,300.553z M316.655,296.688l-0.476-1.923l-1.107-1.618l-2.416-2.41l3.095-2.274l1.821,0.975l1.785,1.527
		l0.75,1.637l-1.357,1.319l0.547,1.949l-0.809,1.286l-1.214,0.357L316.655,296.688z M592.798,450.762l-0.774-2.348l0.31-0.335
		l5.594-0.413l0.619,0.361l0.405,1.071l-0.44,2.193l-0.5,0.89l-0.202,0.929l0.202,0.903l-0.036,0.606l-0.428-0.116h-0.964
		l-0.5-0.116l-0.25-0.31l-1.464-0.587L592.798,450.762z M382.361,324.77l7.762-7.841l5.897-7.512l1.392-0.406l-5.041,8.144
		l-2.465,2.485l-1.635,1.999l-2.1,2.104l-1.655,1.16l-2.494,1.981l-1.738,0.923L382.361,324.77z"/>
</g>
<g id="Copyright">
	<text transform="matrix(1 0 0 1 681.6426 577.5916)" class="st1 st2">© Vemaps.com</text>
</g>
</svg>
