<?xml version="1.0" encoding="utf-8"?>
<!-- Generator: Adobe Illustrator 23.0.1, SVG Export Plug-In . SVG Version: 6.00 Build 0)  -->
<svg version="1.1" xmlns="http://www.w3.org/2000/svg" xmlns:xlink="http://www.w3.org/1999/xlink" x="0px" y="0px"
	 viewBox="0 0 800 600" style="enable-background:new 0 0 800 600;" xml:space="preserve">
<style type="text/css">
	.st0{fill:#808080;}
	.st1{font-family:'Roboto-Regular';}
	.st2{font-size:14px;}
</style>
<g id="Ukraine">
	<g>
		<polygon class="st0" points="769.529,248.92 767.612,246.659 765.994,244.113 765.129,242.24 764.884,240.245 765.68,238.178 
			766.405,237.489 767.993,236.56 768.624,235.69 768.816,234.378 768.314,233.832 768.192,233.699 764.179,232.602 
			763.372,232.579 762.383,232.938 759.949,235.444 758.909,236.059 757.678,236.547 756.418,236.804 755.304,236.76 
			754.463,236.367 752.332,234.315 750.671,233.515 749.219,233.111 747.971,232.247 746.924,230.06 746.275,227.35 
			745.816,225.916 745.287,225.237 742.888,224.974 742.099,224.626 740.609,223.615 739.066,223.951 737.474,224.738 
			735.851,225.09 734.301,224.724 733.109,223.933 732.172,222.623 729.901,216.684 729.83,216.622 728.795,215.723 
			727.208,216.308 726.498,217.121 725.206,219.064 724.416,219.735 723.725,219.939 719.83,220.187 718.726,219.098 
			717.734,217.533 716.334,216.219 712.05,214.969 709.564,213.161 709.304,212.873 709.082,212.316 708.969,211.298 
			708.621,210.042 708.633,209.884 708.531,210.05 707.53,210.391 707.165,210.639 706.78,210.805 704.757,210.429 701.773,210.968 
			700.279,210.411 699.32,209.748 698.596,209.463 696.797,209.261 695.966,208.901 695.477,208.167 694.243,204.498 
			693.661,203.793 692.894,203.671 691.77,203.887 689.142,203.649 688.489,203.817 688.085,205.72 688.383,208.678 
			688.171,211.454 686.236,212.818 685.799,212.722 685.058,212.228 684.599,212.133 684.081,212.304 682.29,213.457 
			681.366,214.054 681.18,213.664 681.158,212.68 680.531,211.515 680.489,211.398 679.155,209.053 677.895,207.45 676.495,206.19 
			674.895,205.161 671.638,203.661 670.17,202.631 666.236,196.522 664.812,195.058 664.53,194.617 664.463,193.924 
			664.583,193.239 664.994,191.715 664.896,189.027 663.624,187.635 660.005,185.867 659.338,184.162 658.783,182.073 
			658.168,180.402 657.345,179.956 653.221,180.529 652.007,181.025 649.605,183.483 648.388,184.428 642.423,186.171 
			639.481,185.732 636.772,185.928 634.085,186.918 627.272,190.97 626.746,191.459 626.359,192.047 625.702,193.434 
			625.351,193.962 624.574,194.451 623.649,194.576 622.69,194.419 621.808,194.079 621.197,193.582 621.073,193.013 
			621.167,192.38 621.256,190.952 621.37,190.686 621.269,190.529 620.641,190.107 620.272,189.958 618.96,189.672 617.832,188.855 
			616.925,188.642 616.08,188.148 615.677,188.015 615.175,188.029 614.888,188.18 614.085,188.977 613.187,189.632 
			612.214,190.057 611.235,190.109 610.293,189.638 606.199,183.058 605.029,182.463 604.719,181.261 603.595,180.649 
			596.453,180.066 592.575,180.512 591.832,180.781 591.261,181.225 590.446,182.363 589.987,182.852 589.619,183.006 
			588.829,183.042 588.481,183.196 587.806,184.022 587.357,184.865 586.806,185.538 586.614,185.602 585.833,185.858 
			584.969,185.798 584.124,185.548 583.297,185.117 582.508,184.552 581.603,183.523 581.346,182.537 581.282,181.388 
			580.968,179.866 580.399,178.784 579.656,178.173 578.804,177.864 577.909,177.698 576.525,177.107 575.656,175.531 
			573.705,167.691 573.642,166.864 574.272,166.101 577.446,164.665 576.483,163.437 576.415,162.013 576.551,160.401 
			576.199,158.582 575.826,157.947 575.367,157.507 574.336,156.894 573.759,156.32 573.692,155.649 573.785,154.865 
			573.705,153.947 573.348,153.146 572.509,151.994 572.216,151.167 572.173,150.168 572.279,149.368 572.228,148.605 
			571.71,147.742 571.219,147.411 570.251,147.187 569.891,146.749 569.785,146.103 569.785,145.657 569.785,144.325 569.616,143.6 
			571.85,143.125 572.431,142.582 572.774,141.452 572.419,140.732 571.68,140.303 570.869,140.032 569.458,139.936 
			566.674,140.581 565.284,140.469 564.095,139.303 563.281,137.158 562.27,131.149 561.949,130.198 561.431,129.547 
			560.637,129.24 559.788,129.382 558.969,129.749 558.176,129.909 557.391,129.421 556.633,129.042 555.988,129.11 
			554.078,130.278 550.709,131.702 547.858,132.357 544.854,132.163 544.137,131.904 543.534,131.317 543.141,130.334 
			542.949,129.322 542.699,128.425 542.122,127.818 540.884,127.642 538.228,128.11 536.87,127.624 533.938,126.563 532.411,126.32 
			530.981,126.696 529.445,127.974 528.716,128.315 527.736,128.11 524.782,126.841 527.162,125.19 528.792,123.408 
			529.822,121.216 529.471,118.995 528.656,119.464 528.003,119.468 527.302,119.32 526.611,119.043 526.004,118.641 
			525.193,117.862 524.778,117.302 524.616,116.762 524.825,116.369 525.721,116.161 526.06,115.791 526.166,115.12 526.06,114.541 
			525.902,113.966 525.856,113.293 525.974,112.658 526.336,111.492 526.423,110.799 526.331,109.355 525.992,108.219 
			525.457,107.284 523.73,105.305 523.43,104.786 523.26,104.177 523.081,102.817 522.898,102.326 522.321,101.942 520.871,101.533 
			520.412,100.878 520.808,99.322 522.401,98.386 529.389,96.704 531.799,96.744 532.598,96.542 534.15,94.695 534.09,91.961 
			532.984,89.307 532.383,88.7 531.406,87.711 530.603,87.126 529.241,85.573 528.508,85.083 528.023,85.085 527.248,85.466 
			526.763,85.279 526.781,85.117 526.633,84.198 526.525,83.885 526.288,83.625 525.746,83.25 525.499,83.016 523.981,81.023 
			523.148,80.4 521.099,80.386 521.117,79.803 521.434,78.82 521.299,77.674 520.446,76.266 519.951,75.106 519.717,73.826 
			519.615,71.623 519.476,70.475 519.476,70.112 520.183,68.607 520.171,67.855 520.065,67.226 519.831,66.579 519.435,65.796 
			518.745,64.715 518.05,63.951 515.414,62.155 514.866,61.412 513.844,59.133 513.073,58.053 511.35,56.959 510.545,56.17 
			509.9,54.992 509.564,54.077 509.105,53.436 508.075,53.071 506.211,53.007 504.338,53.354 500.738,55.037 497.924,57.856 
			497.037,57.941 496.338,56.893 496.6,54.351 495.825,53.224 495.2,53.562 494.644,54.065 494.051,54.474 493.313,54.53 
			492.669,54.219 492.542,54.127 491.541,53.392 490.834,53.238 488.18,53.257 484.166,52.473 483.605,52.583 482.94,53.071 
			481.881,54.393 481.352,54.908 480.567,55.201 480.164,55.441 479.685,56.382 479.367,56.729 478.99,56.825 478.451,56.523 
			478.079,56.496 477.334,56.863 473.097,60.666 472.362,61.055 471.615,60.975 470.394,59.976 469.702,59.631 468.497,59.655 
			466.067,60.298 464.827,60.32 456.741,56.016 454.776,56.626 451.233,55.306 449.561,55.655 448.984,57.962 449.188,58.68 
			449.961,60.075 450.115,60.647 449.881,61.404 449.422,61.808 448.916,62.103 448.523,62.526 448.137,63.715 447.64,67.747 
			446.448,70.321 444.626,71.779 438.973,74.459 438.214,74.511 435.744,73.854 434.25,73.997 432.061,75.102 431.37,75.236 
			430.618,74.762 430.44,73.736 430.43,72.502 430.208,71.407 429.248,70.509 427.9,70.229 425.375,70.463 420.678,70.711 
			413.491,69.313 409.725,69.331 406.495,70.667 405.669,71.753 405.036,73.089 404.36,74.207 403.398,74.624 402.409,74.245 
			400.534,72.63 399.533,72.059 397.952,71.863 392.329,72.192 391.306,72.524 390.665,73.227 390.909,74.355 390.705,74.688 
			390.585,75.016 390.493,75.336 390.355,75.671 391.558,75.835 391.951,76.723 391.586,77.588 390.517,77.668 390.238,77.285 
			390.008,77.177 389.766,77.287 389.431,77.552 389.109,77.964 389.031,78.373 389.057,78.716 389.045,78.932 388.625,79.506 
			388.17,79.999 387.661,80.416 387.076,80.779 385.914,81.231 385.892,81.47 386.004,81.882 386.223,82.16 386.223,82.613 
			385.669,83.388 385.303,83.795 384.948,83.973 383.725,83.861 383.393,83.973 383.236,84.394 383.212,85.017 383.1,85.582 
			382.257,86.031 381.994,86.471 381.798,86.91 381.574,87.11 381.458,87.34 380.564,88.514 380.3,88.993 380.123,89.191 
			380.135,89.444 380.436,90.078 380.474,91.108 379.745,91.865 378.828,92.47 378.323,93.046 379.142,93.459 379.473,93.497 
			379.473,93.992 379.018,94.482 378.892,95.258 378.832,96.077 378.604,96.708 378.146,96.917 376.873,96.96 376.36,97.117 
			376.594,98.012 376.112,99.41 376.36,100.322 376.078,100.598 375.745,101.098 375.523,101.269 375.643,101.523 375.797,102.166 
			375.274,102.398 374.093,103.484 374.093,103.975 374.892,104.662 375.244,104.878 375.244,105.287 374.92,105.377 
			374.748,105.491 374.611,105.623 374.399,105.781 374.399,106.19 374.874,106.815 376.24,107.21 376.921,107.542 376.61,108.277 
			376.406,108.586 376.054,108.894 376.554,109.269 376.979,109.71 377.157,110.198 376.921,110.735 377.123,111.528 
			377.467,112.025 377.892,112.317 378.323,112.494 378.323,112.988 377.776,112.884 377.315,113.038 377.005,113.503 
			376.921,114.334 377.081,115.114 377.396,115.275 377.826,115.298 378.323,115.684 378.507,116.119 378.91,117.97 
			379.118,118.324 379.405,118.713 379.447,119.057 378.91,119.276 379.152,121.134 378.008,122.336 376.754,123.249 
			376.644,124.209 375.909,125.501 375.797,125.633 375.745,127.198 375.717,127.261 375.553,127.636 375.1,127.742 
			374.789,127.123 374.327,126.612 373.806,126.266 373.255,126.119 372.681,126.188 372.038,125.986 371.124,124.6 
			370.521,124.029 369.923,123.879 368.702,123.887 368.074,123.642 367.527,123.143 366.271,121.521 365.966,120.822 
			366.079,120.756 366.423,119.384 366.495,118.865 366.499,118.184 366.454,117.665 366.339,117.227 366.091,116.778 
			365.566,116.285 363.493,115.266 362.914,114.651 361.378,112.536 360.226,111.682 359.05,111.356 353.304,111.51 
			352.363,111.787 349.873,113.106 349.36,113.135 348.701,112.688 348.28,112.65 347.76,113.02 347.067,114.292 346.652,114.749 
			345.913,114.943 342.189,114.316 341.671,113.595 341.31,112.592 340.631,111.404 339.924,110.909 339.023,110.781 
			338.079,110.929 337.268,111.276 336.419,112.045 335.838,112.912 335.223,113.649 334.273,114.042 333.204,114.164 
			332.647,114.449 332.239,115.228 331.639,116.834 331.039,117.898 330.222,117.909 328.429,117.169 327.485,117.473 
			326.4,118.425 325.879,118.883 325.032,119.181 324.089,118.645 323.581,117.459 323.233,116.021 322.769,114.749 
			321.931,113.763 321.248,113.253 320.972,112.507 321.358,110.799 321.196,109.072 320.717,107.989 319.347,105.906 
			318.484,103.508 317.973,102.693 316.984,102.072 315.333,101.664 314.494,101.705 313.687,101.996 312.868,102.799 
			311.896,104.89 311.111,105.745 310.034,106.154 307.5,106.18 306.3,106.441 304.998,107.145 303.682,108.177 302.534,109.585 
			301.727,111.404 301.613,112.513 301.701,115.023 301.501,115.996 300.764,116.834 300.331,116.151 300.039,114.925 
			299.746,114.11 299.218,114.058 298.677,114.41 298.086,114.679 297.407,114.348 297.01,113.649 296.746,112.726 296.101,109.037 
			295.999,107.695 295.638,106.795 294.578,106.361 290.895,105.576 289.782,105.601 288.718,105.964 286.673,107.356 
			285.611,108.393 285.087,108.67 284.552,108.457 284.319,107.93 283.877,106.108 283.612,105.415 283.102,104.852 281.92,104.107 
			281.431,103.612 281.084,102.863 281.044,102.268 281.065,101.705 280.909,101.042 280.307,100.347 279.47,100.291 
			278.549,100.74 277.67,101.539 276.869,102.775 275.538,105.339 274.549,106.234 273.754,106.525 269.746,106.513 
			268.991,106.318 268.223,105.906 265.74,103.197 264.861,102.715 263.921,102.873 263.152,103.594 262.619,104.706 
			262.359,106.038 262.381,106.877 262.485,107.589 262.521,108.31 262.331,109.187 262.118,109.609 260.199,112.213 
			259.769,112.627 259.118,112.72 258.535,112.469 257.866,111.943 257.315,111.33 257.145,110.975 257.061,110.801 258.423,107.48 
			258.744,105.818 258.231,104.439 257.582,104.071 255.274,103.999 250.833,102.199 250.828,102.198 249.391,102.162 
			248.629,102.571 247.489,103.832 246.587,104.275 245.74,104.34 243.305,103.929 241.672,104.456 240.777,104.554 
			240.226,104.033 240.458,102.914 241.065,101.493 241.189,100.347 239.975,100.047 238.978,100.177 238.155,100.081 
			237.556,99.51 237.23,98.21 237.246,96.44 237.357,95.028 237.099,93.992 236,93.349 234.311,92.974 230.684,92.833 
			226.546,94.294 223.837,93.84 216.076,90.389 207.04,90.11 206.462,89.802 205.957,89.091 205.865,88.446 205.987,87.843 
			205.979,87.368 205.485,87.12 195.944,86.715 194.713,86.173 192.064,83.791 190.823,83.516 187.974,83.603 179.221,81.938 
			175.753,82.637 170.168,82.541 162.146,82.405 155.222,80.524 153.363,80.578 151.502,81.189 147.809,83.138 136.278,85.009 
			135.426,84.971 132.909,84.358 122.688,85.165 121.82,85.49 120.929,86.419 119.435,88.65 118.802,89.94 117.827,94.269 
			116.669,95.905 112.015,99.112 105.879,104.652 104.238,104.922 103.072,103.821 101.921,102.413 100.295,101.756 99.269,101.661 
			96.371,100.788 95.409,100.762 91.417,101.806 90.912,102.09 90.492,102.529 89.995,103.4 89.953,103.929 90.191,104.456 
			91.305,107.632 91.403,108.269 91.217,109.279 90.859,109.465 90.482,109.181 90.56,109.589 90.836,110.511 91.481,110.961 
			92.221,111.238 92.803,111.636 92.164,112.952 92.228,113.363 93.899,115.835 94.233,116.625 93.757,116.846 93.466,117.305 
			93.414,117.982 93.669,118.871 92.919,119.165 92.188,119.941 91.624,120.908 91.403,121.783 91.671,123.18 92.315,123.514 
			93.108,123.53 93.809,123.987 96.084,128.982 97.009,130.11 99.095,131.437 101.046,133.434 101.506,134.228 100.827,134.582 
			100.673,135.183 101.28,136.477 102.358,138.153 102.714,139.027 103.198,141.759 103.198,142.165 103.023,142.678 
			103.325,142.944 103.847,143.155 104.348,143.499 104.801,144.193 104.917,144.729 104.959,145.316 105.184,146.171 
			105.799,147.195 108.574,149.765 111.993,151.659 112.523,152.471 112.018,153.6 110.772,153.865 109.41,153.875 108.574,154.249 
			107.487,153.633 106.355,153.785 105.412,154.504 104.909,155.619 104.984,156.861 105.592,157.685 106.562,158.139 
			107.709,158.278 107.709,158.682 107.174,159.819 107.751,160.811 108.871,161.514 109.973,161.785 109.724,163.263 
			110.045,164.625 111.088,167.142 111.098,167.167 110.147,168.817 110.562,171.89 110.856,172.745 111.067,172.925 
			111.017,173.068 110.504,173.81 109.728,174.64 107.083,176.028 106.97,176.805 107.033,178.047 106.966,178.884 106.778,179.579 
			105.879,181.7 103.721,182.598 96.282,182.692 94.866,183.141 94.156,183.503 93.602,184.052 93.152,184.997 92.635,186.706 
			92.609,186.796 92.04,187.625 88.802,191.152 87.615,192.114 87.61,192.114 87.607,192.116 87.602,192.116 85.366,193.838 
			83.513,195.28 74.132,205.492 72.897,207.405 71.395,208.588 69.761,210.399 65.311,216.943 63.592,218.713 63.376,219.24 
			63.041,220.52 62.851,220.975 62.494,221.333 61.769,221.602 61.407,221.842 61.01,222.331 58.479,226.927 57.789,227.627 
			57.339,227.821 56.457,227.999 56,228.395 55.702,228.942 54.993,230.967 51.88,235.166 50.857,237.609 51.646,239.869 
			51.921,240.794 52.175,243.48 52.329,244.197 52.443,244.546 52.978,245.393 53.865,246.332 54.094,246.815 54.276,247.818 
			54.831,253.591 54.675,254.506 53.982,256.419 53.402,258.643 52.753,260.004 52.532,260.767 52.782,261.1 52.974,260.974 
			53.517,260.289 54.162,260.745 54.11,260.77 53.954,260.808 55.286,261.749 56.487,263.335 57.242,263.896 59.083,264.928 
			59.58,265.563 59.584,266.094 59.211,267.323 59.159,268.173 59.338,268.763 60.004,269.911 60.055,270.042 60.135,270.247 
			59.656,271.247 58.825,270.887 57.916,270.067 57.182,269.681 56.729,269.535 55.969,268.467 55.554,268.073 55.107,268.022 
			54.182,268.303 52.698,268.193 51.819,268.278 50.937,268.17 49.926,267.477 48.386,265.771 47.564,265.516 46.699,266.351 
			46.386,267.383 46.088,268.815 45.896,270.256 45.914,271.315 45.278,271.858 43.7,272.09 42.979,272.659 42.086,275.281 
			41.579,276.391 41.527,276.699 41.531,277.506 41.451,277.887 41.063,278.444 40.081,279.279 39.768,279.728 39.69,279.84 
			39.418,280.601 39.388,281.088 39.47,281.598 39.558,283.711 39.466,284.132 39.18,284.847 38.825,285.362 38.437,285.668 
			38.124,286.077 37.996,286.91 38.048,288.244 37.784,289.566 37.285,290.726 36.626,291.599 36.131,291.924 35.036,292.274 
			34.531,292.621 34.222,293.056 33.793,294.047 33.538,294.5 30.857,296.677 30.241,297.688 30.156,298.944 30.635,301.454 
			30.491,302.429 30.038,303.435 30,307.895 30.971,308.062 31.042,308.053 31.087,308.046 31.494,307.601 32.838,307.068 
			34.237,307.246 35.706,307.976 35.094,309.846 35.086,310.83 36.219,310.762 36.505,310.812 36.81,311.333 36.81,311.941 
			36.716,312.651 36.754,313.502 37.195,314.756 39.206,317.876 39.474,318.147 39.769,318.229 40.089,318.137 40.411,317.88 
			40.576,317.8 40.742,317.774 40.916,317.8 41.723,318.132 42.372,318.267 43.007,318.211 43.802,317.812 43.975,317.79 
			44.145,317.826 44.311,317.908 47.36,321.938 47.899,323.208 48.48,325.159 49.182,326.617 49.401,326.866 49.507,326.88 
			50.047,326.577 53.004,326.577 53.759,326.327 54.453,325.878 55.159,325.684 55.83,326.115 55.973,326.407 57.445,327.24 
			58.659,328.378 59.207,329.079 59.634,329.922 59.914,331.084 59.766,331.719 59.494,332.287 59.419,333.247 58.717,334.117 
			59.061,334.863 60.573,336.091 61.404,335.831 62.142,335.328 62.486,334.497 62.139,333.255 62.482,332.53 63.105,332.478 
			63.836,332.817 64.467,333.263 65.112,333.662 65.779,333.864 66.432,333.762 68.187,332.368 68.738,331.322 69.659,328.452 
			70.466,327.206 71.306,326.8 72.235,326.936 75.095,327.931 75.804,328.452 77.492,330.481 79.452,332.159 80.377,333.247 
			80.675,333.365 80.98,333.405 81.284,333.371 81.612,333.251 81.671,333.227 81.731,333.219 81.789,333.227 81.853,333.251 
			84.513,334.583 85.366,334.533 85.526,334.405 85.652,334.305 85.889,334.02 86.097,333.67 86.275,333.263 86.716,332.888 
			87.173,332.753 88.719,332.472 89.478,332.73 92.12,333.033 93.809,333.609 94.764,333.74 97.619,333.593 98.295,333.93 
			100.423,335.913 100.703,336.857 101.582,336.846 105.713,335.138 107.008,335.204 107.683,335.693 109.724,336.249 
			110.538,336.632 112.032,338.064 112.753,338.214 112.811,338.163 115.24,339.102 116.13,339.136 118.874,337.742 
			120.899,337.677 122.503,336.279 123.443,335.765 124.238,335.737 126.578,336.308 128.899,336.271 129.702,336.472 
			130.038,336.67 131.623,337.611 132.659,338.448 133.301,339.248 133.576,340.223 133.614,341.024 133.8,341.778 134.527,342.619 
			135.909,343.488 139.226,344.798 139.825,345.331 140.338,346.044 141.722,348.544 142.681,350.034 143.452,350.563 
			144.778,350.327 145.331,350.228 148.412,349.677 150.978,348.558 150.983,348.548 150.992,348.544 152.702,346.885 
			156.686,340.273 158.442,339.042 178.587,336.836 181.292,335.733 183.45,335.462 184.692,334.913 185.385,334.779 
			187.34,334.979 189.951,334.187 192.956,334.159 193.909,334.15 195.852,333.247 196.245,332.624 197.154,330.531 
			197.659,329.878 198.732,328.963 199.229,328.384 199.86,327.078 200.527,325.165 200.96,323.22 200.904,321.826 201.206,319.791 
			201.545,319.932 202.304,320.009 203.005,319.787 204.367,319.102 205.062,318.918 207.001,318.825 207.684,318.661 
			212.86,317.49 214.111,316.899 214.141,316.392 214.408,315.423 214.858,314.683 216.214,313.824 216.415,313.027 
			216.653,312.504 217.46,312.817 218.015,313.446 218.452,314.207 218.958,314.87 219.723,315.221 220.535,315.158 221.003,314.73 
			221.181,313.932 221.15,312.765 220.935,311.579 220.693,310.836 220.665,310.281 221.096,309.676 221.324,309.658 
			222.001,309.928 222.282,309.938 222.64,309.564 222.754,309.109 222.898,308.725 223.343,308.577 224.705,309.179 
			226.051,310.339 227.467,311.202 229.02,310.93 229.41,310.517 229.708,310.567 229.987,310.74 230.437,310.701 230.934,310.802 
			231.155,310.651 231.104,310.339 230.968,309.995 230.938,309.75 230.956,309.34 230.84,308.817 230.878,308.37 231.333,308.21 
			231.77,308.334 232.624,308.877 237.013,310.551 238.359,310.624 239.917,309.814 240.14,309.532 242.359,306.726 
			243.845,305.957 244.633,306.161 245.8,307.263 246.361,307.479 247.048,307.13 249.538,305.011 250.481,303.713 252.176,303.713 
			252.666,303.589 253.73,302.866 254.625,302.986 254.711,304.613 255.537,305.019 260.657,304.975 262.032,305.62 
			264.683,307.595 265.299,308.258 266.141,309.522 266.607,310.219 266.929,310.509 267.827,311.932 269.494,312.584 
			270.979,312.769 273.143,313.041 273.984,313.446 274.659,314.239 274.883,315.348 274.077,317.764 274.675,318.225 
			275.591,318.267 276.229,318.093 277.501,317.009 278.175,316.905 278.473,317.922 278.621,319.112 279.054,319.809 
			279.753,320.031 280.714,319.815 281.591,319.304 282.24,318.739 282.936,318.283 284.828,318.062 285.533,318.154 
			285.96,318.645 286.038,319.815 285.764,321.085 285.307,321.648 284.718,322.042 284.073,322.796 283.801,323.653 
			283.877,324.51 284.336,325.023 285.197,324.857 285.83,324.132 286.264,323.2 286.801,322.467 287.744,322.335 288.389,322.787 
			288.782,323.619 288.732,324.552 288.049,325.319 289.216,327.745 289.704,328.255 290.536,328.84 290.963,328.805 
			291.116,328.233 291.132,327.186 291.364,326.137 291.418,325.896 292.167,323.663 293.079,323.244 294.396,323.304 
			298.172,324.881 301.022,324.921 302.508,325.181 303.658,325.96 303.931,326.451 304.031,326.894 304.065,327.313 
			304.161,327.735 304.82,329.327 304.952,330.931 305.024,331.302 305.299,331.703 305.975,332.34 306.236,332.795 
			307.077,334.251 308.401,335.699 309.274,336.372 309.861,336.824 311.111,337.339 312.605,337.051 314.404,334.681 
			315.704,334.042 316.415,334.073 316.988,334.3 317.493,334.777 317.973,335.564 318.294,336.512 318.656,338.611 
			318.981,339.505 319.558,339.957 321.176,340.45 321.588,340.746 321.453,341.581 320.823,342.449 320.063,343.27 
			319.562,343.957 319.195,345.029 319.199,345.701 319.592,346.098 321.01,346.611 321.533,347.1 321.693,347.759 321.202,348.538 
			319.984,350.11 319.758,352.015 319.796,354.17 319.373,356.466 318.31,358.318 317.256,359.728 316.719,361.327 317.25,363.766 
			317.256,363.772 317.26,363.776 317.262,363.782 317.529,364.325 317.645,364.559 318.286,366.39 318.626,367.035 319.373,367.61 
			319.796,367.251 320.185,366.595 320.86,366.292 321.447,366.611 322.189,367.884 323.449,368.726 323.73,369.375 
			323.914,370.099 324.247,370.745 324.815,371.077 325.459,371.213 326.094,371.494 326.632,372.289 326.843,373.249 
			326.859,374.125 326.987,374.985 327.123,375.212 327.53,375.908 328.092,376.407 328.711,376.706 329.368,376.773 
			330.029,376.563 330.746,375.875 331.032,375.031 331.217,374.104 331.639,373.163 332.467,373.07 333.284,373.126 
			334.06,373.409 334.746,374.026 335.299,375.071 335.676,376.475 335.715,377.874 335.243,378.921 334.231,379.46 
			334.081,380.771 334.502,383.936 334.265,385.419 333.669,386.137 332.779,386.396 331.639,386.51 331.545,386.682 
			331.515,386.869 331.548,387.055 331.639,387.249 332.893,389.613 333.25,389.981 333.695,389.613 334.053,388.838 
			334.53,388.155 335.303,388.081 335.846,388.457 336.317,389.098 336.615,389.917 336.653,390.836 336.342,391.654 
			335.846,392.217 335.399,392.883 335.091,395.125 334.911,395.922 334.88,396.066 334.831,396.854 335.193,397.522 
			335.427,397.577 336.465,397.477 336.838,397.679 337.484,398.431 337.835,398.738 338.502,398.977 339.846,399.089 
			340.476,399.323 341.147,399.998 342.105,401.573 342.855,402.125 344.154,402.327 345.362,402.208 346.53,402.358 
			347.702,403.343 347.896,403.758 348.222,404.847 348.417,405.177 348.783,405.206 349.16,404.95 349.558,404.769 349.999,405.02 
			350.101,405.42 350.093,406.706 350.149,407.257 350.307,407.695 350.76,408.559 350.942,409.015 351.004,410.119 
			350.666,413.843 350.497,414.54 350.297,415.076 350.153,415.643 350.127,416.432 350.277,417.048 350.788,418.273 
			350.882,418.84 350.406,420.124 349.504,420.302 348.795,420.375 348.922,421.708 349.504,422.424 351.315,423.192 
			351.391,423.341 351.595,423.912 351.739,424.038 352.006,423.952 352.507,423.625 352.741,423.633 353.064,423.89 
			353.334,424.258 353.84,425.296 353.526,425.809 355.411,427.313 356.11,428.146 356.517,427.784 357.137,427.675 
			357.802,427.797 358.349,428.146 357.348,429.988 356.28,431.04 354.478,431.353 349.61,431.072 348.947,431.219 348.214,431.635 
			346.698,432.987 345.893,433.11 345.074,432.2 344.99,431.79 345.015,430.642 344.946,430.101 344.751,429.602 343.898,428.248 
			341.74,426.181 341.214,425.264 341.2,426.94 340.751,427.817 339.924,428.138 338.762,428.152 338.499,428.527 338.702,429.988 
			338.396,430.956 337.845,431.523 337.17,431.777 336.469,431.703 335.83,431.31 335.273,430.559 334.708,429.255 334.125,428.729 
			333.552,428.513 332.261,428.266 331.639,428.006 331.401,427.583 331.329,427.134 331.409,426.672 331.639,426.199 
			331.858,425.782 331.938,425.372 331.866,424.985 331.639,424.617 330.684,424.458 330.646,424.478 329.831,424.935 
			329.066,425.782 327.281,428.542 326.764,428.555 326.029,427.469 325.066,425.41 324.489,425.216 323.768,426.429 
			323.637,427.151 323.832,428.358 323.806,428.895 323.526,429.658 323.317,429.75 323.037,429.658 322.538,429.84 
			321.048,431.499 320.135,432.056 319.44,431.457 319.427,430.836 319.712,430.267 320.077,429.712 320.339,429.141 
			320.419,428.44 320.385,423.397 320.118,422.115 319.461,421.276 319.412,421.276 318.578,421.274 314.975,423.327 
			314.193,423.621 312.732,424.172 309.673,426.241 308.838,427.553 308.583,429.227 308.914,431.407 309.635,434.219 
			309.673,435.156 309.432,436.224 309.144,437.077 309.168,437.888 309.871,438.828 309.876,438.832 311.247,440.128 
			312.301,441.129 312.529,442.419 312.041,443.823 311.111,445.41 309.699,447.012 309.385,447.947 309.483,449.403 
			310.212,451.984 310.128,453.147 309.106,453.632 301.949,455.522 301.236,455.991 300.78,456.852 300.748,457.836 
			301.319,459.879 301.489,460.865 301.431,462.052 301.153,462.813 300.632,463.33 299.846,463.782 298.652,464.049 
			298.342,464.317 298.326,464.654 298.43,465.187 298.486,465.798 298.342,466.361 297.268,466.996 294.521,467.268 
			293.86,468.368 293.98,468.822 294.15,469.463 293.894,469.932 292.706,470.315 291.999,470.789 291.544,471.278 290.589,472.702 
			290.306,473.379 290.671,473.803 291.31,474.18 291.837,474.723 292.067,475.55 292.143,476.368 292.321,477.177 292.888,477.966 
			291.801,478.481 291.562,478.701 291.526,478.769 291.3,479.202 291.29,479.334 291.374,479.444 291.638,481.437 291.456,482.13 
			290.589,482.527 287.959,482.422 284.884,481.609 281.952,481.383 281.948,481.385 279.767,483.033 279.764,483.041 
			279.406,483.732 279.123,484.467 279.037,484.88 279.589,485.559 279.68,485.549 280.602,485.449 281.804,486.126 
			282.605,487.224 282.392,488.387 283.606,491.542 284.405,492.998 285.351,493.609 286.046,493.797 287.48,494.623 
			291.132,495.566 294.535,497.363 299.995,498.596 301.527,498.39 302.813,498.354 303.335,498.128 303.798,497.593 
			302.633,497.056 302.344,496.8 302.15,496.369 302.032,495.841 302.108,495.394 303.285,494.798 303.221,493.921 303.266,493.086 
			304.357,492.814 304.994,493.034 306.074,493.807 307.007,493.974 307.53,494.346 308.205,495.073 309.02,495.554 
			309.962,495.205 310.148,494.801 310.274,493.677 310.522,493.176 310.817,492.952 311.177,492.846 312.087,492.814 
			312.643,492.533 314.751,490.785 316.425,490.302 317.132,489.982 317.721,489.365 318.061,489.203 319.053,489.139 
			319.261,488.97 319.414,488.553 319.762,488.133 320.381,487.592 321.264,487.107 321.939,487.079 322.606,487.206 
			323.467,487.19 323.822,487.055 324.183,486.803 324.501,486.497 324.738,486.194 325.12,485.931 325.565,486.03 326.017,486.266 
			326.418,486.391 329.576,486.715 335.285,488.788 337.2,490.52 337.684,490.785 338.592,491.642 339.283,493.643 339.495,495.913 
			338.959,497.593 339.195,497.961 339.257,498.382 339.163,498.815 338.951,499.24 339.586,499.376 340.321,499.19 
			340.992,498.807 341.783,498.017 341.854,497.967 341.811,497.875 341.771,497.383 341.854,496.778 342.325,495.372 
			342.395,494.891 342.746,494.094 342.886,493.595 342.94,493.096 342.846,490.594 342.692,489.323 342.353,488.229 
			341.771,487.578 342.596,487.658 342.926,486.863 342.876,485.731 342.578,484.782 341.957,484.063 341.638,484.506 
			341.444,485.489 341.176,486.376 340.989,485.407 340.721,485.183 340.401,485.247 340.054,485.146 340.08,485.361 
			339.872,485.559 339.619,485.593 339.499,485.345 339.499,483.983 338.828,484.153 338.738,484.75 338.812,485.461 
			338.658,485.978 338.203,486.05 337.745,485.748 337.394,485.312 336.763,483.921 336.739,483.404 337.384,483.183 
			337.626,482.931 337.829,482.382 338.089,481.83 338.516,481.581 339.057,481.128 340.407,478.996 340.923,478.346 
			339.86,479.412 339.271,479.822 338.516,479.983 337.721,479.908 337.144,479.706 336.106,479.18 336.503,476.52 336.411,473.711 
			336.659,471.42 338.069,470.326 337.789,469.644 337.568,469.247 337.462,468.778 337.508,467.877 337.742,467.174 
			338.496,466.132 338.658,465.673 338.526,465.403 337.949,464.636 337.815,464.229 337.905,463.768 338.097,463.476 
			338.286,463.422 338.476,463.933 338.718,464.209 339.567,464.932 339.713,465.013 339.83,465.127 340.054,465.471 
			340.382,466.125 340.313,466.477 340.05,466.924 339.78,467.877 340.03,470.659 339.92,471.094 340.849,471.59 341.618,472.822 
			342.071,474.399 342.017,475.939 342.518,475.452 343.675,475.045 344.289,474.701 344.096,474.22 344.076,474.044 344.17,473.91 
			344.289,473.537 345.131,473.928 345.833,473.597 346.484,473.029 347.205,472.734 347.407,472.532 347.13,472.091 
			346.504,471.458 345.412,471.044 344.871,470.663 344.563,469.888 344.837,468.704 345.714,468.109 346.826,467.901 
			347.777,467.877 347.89,467.755 347.97,467.48 348.092,467.202 348.337,467.079 348.685,467.166 348.713,467.384 348.669,467.653 
			348.769,467.877 349.651,468.524 349.969,468.926 350.173,469.487 350.457,467.877 350.083,467.432 349.762,466.825 
			349.572,466.032 349.612,465.033 349.921,464.212 350.283,464.075 350.45,464.411 350.173,465.033 350.173,465.471 
			350.61,465.996 351.014,466.677 351.235,465.343 351.325,463.897 351.656,462.733 352.568,462.254 353.55,462.689 
			355.461,464.233 355.804,464.041 355.923,463.789 356.166,463.883 356.41,464.104 356.505,464.229 356.831,464.151 
			356.907,463.941 356.925,463.629 357.077,463.24 357.149,462.855 357.292,461.287 357.488,460.602 357.806,460.045 
			358.181,459.643 358.501,459.771 358.734,463.084 358.63,463.861 361.36,461.734 363.679,459.398 368.188,453.349 373.233,448.47 
			373.614,447.645 374.429,445.313 374.786,444.831 375.432,444.484 376.012,443.659 376.901,441.961 379.775,437.852 
			380.959,435.479 381.141,434.914 381.131,434.261 380.837,433.768 379.897,433.132 379.707,432.803 380.068,432.425 
			382.279,432.6 382.968,431.968 384.657,429.716 384.751,429.468 385.113,427.667 385.247,427.329 385.392,427.034 385.5,426.91 
			385.714,426.738 385.52,426.386 385.209,426.093 385.053,426.097 384.771,424.877 384.077,423.391 383.937,422.601 
			384.185,422.093 385.406,420.388 385.894,419.95 386.301,419.964 388.025,420.36 388.536,420.216 390.962,418.514 391.5,418.311 
			391.965,418.525 392.324,418.568 393.277,417.734 393.644,417.502 394.533,417.378 396.236,416.817 398.439,416.517 
			400.546,415.846 401.668,415.836 404.536,416.598 405.311,417.134 405.615,416.687 406.138,417.047 407.294,417.211 
			407.859,417.502 408.456,417.02 410.282,416.02 411.082,415.836 411.59,415.327 412.989,413.079 413.629,412.567 413.688,412.364 
			414.453,411.137 414.765,410.376 414.611,409.937 413.321,408.881 412.96,408.681 412.71,408.327 412.626,407.457 
			412.551,407.077 412.089,405.577 412.72,405.843 413.161,406.59 413.768,408.072 414.344,408.559 414.865,408.89 415.326,408.755 
			415.466,408.585 415.516,408.36 416.308,407.113 416.549,406.806 416.88,406.586 417.671,406.242 417.972,405.987 
			418.272,405.248 418.54,404.379 418.881,404.022 419.374,404.799 417.483,407.626 416.979,408.072 416.996,408.657 
			416.419,409.945 414.15,413.787 413.743,414.802 413.909,415.649 414.236,415.86 414.695,415.905 415.566,415.836 
			415.939,415.952 416.514,416.498 416.856,416.687 417.761,416.541 418.166,415.808 418.513,414.993 419.22,414.612 
			421.669,414.397 425.669,415.932 427.442,416.2 429.235,415.836 429.717,415.597 430.62,414.97 430.919,414.612 431.295,413.825 
			431.25,413.442 431.041,412.974 430.919,411.956 431.22,409.308 431.061,408.89 429.517,406.806 429.497,405.21 430.019,403.91 
			430.887,403.031 431.896,402.708 432.794,402.035 433.545,400.463 433.932,398.682 433.747,397.38 432.898,397.911 
			431.996,398.226 431.261,398.013 430.919,396.968 431.12,395.966 431.672,395.019 432.878,393.645 431.522,393.406 
			429.671,393.659 428.375,393.082 428.674,390.356 428.986,389.945 429.567,388.948 429.886,387.938 429.377,387.474 
			429.162,387.345 428.956,387.063 428.674,386.782 427.66,386.534 427.478,386.2 427.506,382.685 427.091,381.971 425.267,381.499 
			424.477,380.974 423.833,380.289 423.578,379.602 423.71,379.263 424.285,378.182 424.445,377.957 424.874,378.154 
			424.92,378.595 424.726,379.81 425.1,380.549 427.526,381.705 428.093,382.33 428.253,382.801 428.265,383.45 428.395,384.595 
			428.708,385.513 429.126,385.779 429.637,385.917 430.218,386.444 430.813,388.004 430.665,389.47 429.517,392.004 
			430.168,392.685 430.949,392.771 432.736,392.449 433.857,392.607 434.1,393.028 433.773,393.669 432.553,395.519 432.417,396.31 
			432.834,396.798 434.881,397.178 435.323,397.771 435.357,398.688 435.149,399.876 434.298,401.985 433.192,403.721 
			432.431,405.584 432.597,408.072 433.004,409.096 433.465,409.945 433.847,410.826 434.001,411.956 434.22,412.969 
			434.758,414.145 435.416,415.199 435.983,415.836 436.673,416.174 439.199,416.687 439.89,417.166 440.471,419.351 
			441.056,419.95 442.025,418.726 442.446,418.666 443.247,418.384 443.708,418.319 444.082,418.131 444.77,417.312 
			445.238,417.134 445.466,417.294 446.103,418.319 448.832,419.837 451.84,419.433 457.368,416.278 458.34,416.473 
			459.457,415.885 460.575,415.079 461.548,414.612 461.066,415.597 460.475,416.172 459.834,416.639 459.201,417.32 
			458.486,417.791 456.589,418.011 455.808,418.525 452.934,420.971 451.812,422.516 452.577,423.615 451.455,424.837 
			449.869,425.522 448.084,425.672 446.384,425.282 444.141,423.818 439.632,422.804 438.792,422.78 436.423,423.172 
			432.878,422.396 429.377,422.396 428.962,422.237 428.806,422.173 426.436,420.725 425.048,420.308 417.87,420.847 
			417.259,420.541 416.177,419.365 414.865,418.319 415.526,419.715 420.331,424.615 420.918,424.837 421.24,425.208 
			422.18,427.725 422.12,425.849 422.18,425.282 422.334,424.823 422.567,424.494 423.173,423.818 423.817,423.493 424.726,423.549 
			425.675,423.794 431.38,426.177 433.186,426.467 434.708,426.315 435.371,426.588 437.248,429.147 437.587,429.874 
			437.314,430.065 436.758,430.049 436.266,430.159 434.117,432.164 433.747,432.416 430.64,433.007 428.375,432.506 427.526,432.6 
			426.831,432.941 426.016,433.562 425.497,434.371 425.709,435.292 426.26,435.905 426.885,436.338 427.626,436.606 
			430.218,436.692 430.53,436.412 430.449,435.739 430.288,434.936 430.358,434.261 433.753,436.895 435.79,437.976 
			437.106,437.468 438.246,438.451 439.786,440.526 440.331,440.811 440.902,440.913 442.74,441.582 443.798,441.8 444.87,441.668 
			446.103,441.117 445.999,441.696 445.759,442.061 444.98,442.773 445.204,443.124 445.382,443.943 445.541,444.39 445.611,444.65 
			445.743,445.409 445.823,445.64 446.04,445.738 446.564,445.68 447.466,446.325 455.714,448.728 457.368,448.47 457.669,448.242 
			458.346,447.515 458.768,447.222 459.195,447.052 464.36,446.125 465.889,445.357 466.504,445.199 467.471,445.279 
			469.717,446.045 470.073,446.108 471.015,446.045 471.281,446.089 471.649,446.325 471.964,446.411 472.531,446.415 
			476.847,445.674 477.432,444.883 477.061,443.174 479.457,444.39 480.338,445.041 480.729,445.199 481.145,445.187 
			481.662,444.903 481.979,444.831 483.286,444.167 484.104,442.651 484.799,441.015 485.75,439.975 485.35,444.109 
			485.206,444.855 484.909,445.64 488.146,445.199 489.057,445.476 489.141,446.147 488.697,446.95 488.014,447.625 
			488.266,447.693 488.474,447.689 488.654,447.765 488.857,448.065 489.69,446.871 490.784,447.086 491.875,448.049 
			493.147,449.794 493.498,450.078 496.03,450.084 496.885,450.459 497.292,450.489 496.45,449.215 496.855,448.482 
			497.908,448.146 499,448.065 499,447.625 497.908,446.907 497.957,446.037 498.669,445.157 499.561,444.39 500.586,444.01 
			501.281,444.636 501.9,445.836 502.517,447.036 502.718,447.903 502.323,448.596 501.876,449.219 501.942,449.882 
			502.463,451.919 502.517,452.344 502.227,452.849 502.006,453.432 502.044,453.922 502.517,454.117 502.651,454.425 
			502.307,455.104 501.544,456.137 502.044,456.512 502.329,456.338 502.61,455.971 503.078,455.771 504.115,455.683 
			506.459,456.31 507.242,456.72 507.997,457.383 507.274,457.818 505.872,458.184 505.189,458.557 504.568,458.278 
			504.468,459.354 504.552,460.752 504.492,461.447 503.609,461.577 503.148,461.531 502.948,461.229 502.804,460.862 
			502.437,460.544 501.975,460.31 501.544,460.205 501.147,460.266 500.674,460.466 499.841,461.009 498.848,462.254 
			497.86,462.559 497.438,462.617 496.939,462.495 496.194,461.94 495.893,461.816 495.268,462.076 493.544,463.202 
			492.929,463.458 491.683,464.846 491.463,465.229 489.98,465.872 486.994,467.744 485.546,467.913 484.096,467.079 
			483.429,466.188 483.044,465.944 482.694,466.274 482.635,466.881 482.944,467.226 483.342,467.442 483.529,467.664 
			483.329,468.374 482.808,468.776 473.504,473.112 470.688,475.017 469.438,476.305 469.151,476.72 468.996,477.044 
			468.91,477.545 468.973,477.988 469.11,478.527 469.035,478.987 468.461,479.18 467.988,479.113 467.193,478.811 466.778,478.743 
			466.157,478.855 465.827,479.148 465.583,479.544 465.208,479.983 464.623,480.455 463.982,480.822 463.217,481.062 
			462.269,481.143 461.468,481.373 456.607,485.091 455.373,486.416 454.819,487.975 454.993,488.79 456.102,491.967 
			457.026,492.115 458.454,492.866 459.329,493.16 462.269,493.16 462.857,492.818 464.307,491.23 464.955,490.769 465.843,490.636 
			471.964,491.169 473.66,491.853 475.137,492.836 477.874,495.191 478.223,495.406 478.946,495.704 479.325,495.987 
			479.795,496.864 480.142,497.361 481.16,497.961 482.601,499.772 483.225,500.365 485.069,500.898 485.954,501.352 
			486.335,502.17 486.756,502.723 487.699,502.464 489.139,501.595 490.678,500.996 492.376,500.762 493.069,501.068 
			495.356,503.145 498.161,504.976 499.19,506.34 499.841,508.706 499.983,510.2 500.122,510.725 500.843,512.181 500.961,512.525 
			501.081,513.503 501.534,515.774 501.544,517.096 501.389,518.228 501.107,519.235 500.66,519.954 499.07,520.507 
			498.515,521.252 498.157,522.289 497.878,523.459 497.76,523.782 497.616,523.984 497.292,524.25 497.656,524.985 
			497.874,525.857 498.133,527.447 498.543,528.617 498.609,529.244 498.439,530.169 498.087,530.774 497.592,531.395 
			497.233,532.106 497.292,532.962 497.656,533.274 498.996,533.536 499.561,533.753 498.722,534.093 496.624,534.135 
			496.03,534.343 495.695,534.556 495.248,534.604 494.367,534.54 493.992,534.634 493.087,535.323 492.743,535.501 491.493,535.78 
			491.333,535.605 491.344,535.633 491.383,536.294 491.683,536.983 496.096,540.104 496.604,540.653 497.347,541.242 
			498.227,541.183 499.104,540.913 499.841,540.869 500.318,541.27 501.554,542.872 501.802,543.401 502.03,544.477 
			502.591,545.005 505.694,546.468 506.527,546.684 509.253,546.754 509.702,546.68 510.565,546.38 511.076,546.363 
			513.654,547.381 514.593,547.537 515.42,547.425 519.849,545.323 520.79,545.182 521.359,545.005 522.751,544.038 
			523.202,543.581 523.752,542.628 524.131,541.755 524.64,541.112 526.583,540.703 527.121,540.268 527.967,538.864 
			528.073,538.636 528.061,538.455 528.073,538.285 528.275,538.081 528.454,538.029 528.896,538.085 529.477,538.073 
			530.398,538.193 530.749,538.081 531.155,537.33 532.758,533.131 534.156,530.682 534.553,530.169 534.775,529.765 
			536.403,527.447 536.578,527.419 536.622,527.499 536.622,527.644 536.658,527.804 537.674,526.706 539.037,526.111 
			542.314,525.4 543.857,524.701 546.745,522.752 548.225,522.201 551.077,522.704 551.738,522.42 552.337,522.015 553.679,522.34 
			554.418,522.201 554.751,521.921 555.023,521.602 555.333,521.298 555.822,521.056 556.249,520.984 557.625,521.056 
			558.434,521.352 558.931,522.047 559.309,522.844 559.744,523.459 561.517,523.748 562.65,521.945 563.524,519.417 
			564.533,517.534 565.256,517.182 567.029,516.764 567.77,516.11 568.709,514.194 569.414,513.713 570.44,514.33 570.717,514.065 
			571.141,513.767 571.309,513.536 573.272,515.085 573.002,513.331 573.066,512.577 573.553,511.914 574.185,511.684 
			575.528,511.772 576.071,511.516 576.071,511.161 574.885,510.632 574.646,510.366 574.508,509.761 574.636,509.308 
			574.846,508.836 574.949,508.168 575.307,507.68 577.476,505.927 578.979,505.202 580.669,504.841 582.442,504.832 
			584.228,505.132 587.198,506.296 589.855,507.985 590.351,508.457 591.573,509.961 591.82,510.546 592.182,511.844 
			593.009,512.237 595.836,511.716 598.98,511.914 599.597,511.231 600.291,509.887 601.214,508.964 602.496,509.533 
			602.496,509.104 604.831,510.554 608.47,511.36 609.278,511.161 609.438,510.863 609.672,509.871 609.834,509.533 610.241,509.26 
			610.682,509.134 614.349,508.964 617.316,507.88 617.859,507.355 617.942,506.474 617.402,505.607 616.278,504.337 
			616.032,503.109 616.057,501.847 616.408,498.422 616.737,497.162 617.199,495.968 617.738,495.191 618.106,495.051 
			619.04,494.989 619.387,494.791 619.661,494.292 619.545,494.028 619.279,493.792 619.134,493.379 619.334,492.215 
			619.875,491.598 620.669,491.42 621.628,491.568 622.848,492.229 623.313,492.361 623.811,492.333 625.147,491.967 
			625.454,491.343 625.157,489.97 624.436,487.975 623.831,487.254 623.192,486.893 622.511,487.021 621.77,487.776 
			621.127,487.974 620.426,487.34 619.387,485.978 618.565,485.817 616.154,486.376 615.316,486.176 614.011,485.307 
			613.226,485.146 612.785,485.321 612.428,485.665 612.044,485.95 611.517,485.978 611.867,484.93 611.563,484.205 
			610.908,484.011 610.243,484.561 609.612,484.898 604.893,484.864 604.09,485.154 603.205,486.04 602.075,486.739 
			601.929,487.005 601.375,488.774 600.166,490.358 598.674,490.672 597.058,490.122 593.957,488.253 593.256,487.676 
			592.966,486.959 593.182,485.912 593.504,485.012 593.406,484.433 592.405,484.347 591.743,484.746 591.201,485.619 
			590.832,486.707 590.7,487.776 590.564,488.057 589.919,488.946 589.702,489.138 589.108,489.288 588.926,489.681 
			588.881,490.204 588.713,490.769 587.591,491.967 586.73,492.56 579.457,494.599 577.933,494.464 571.836,490.174 
			560.023,472.666 558.276,469.203 556.483,465.64 554.3,459.803 553.897,459.072 553.415,458.375 553.042,457.593 551.572,450.417 
			551.177,449.478 550.983,448.618 550.773,444.831 550.534,443.86 550.451,443.389 550.492,442.773 550.714,442.205 
			551.432,441.198 551.584,440.933 553.362,440.098 553.495,439.526 553.543,438.852 553.831,438.315 554.29,438.084 
			554.392,438.323 554.424,438.76 554.671,439.128 555.183,439.307 555.574,439.285 559.462,438.315 561.28,437.171 
			562.512,435.745 562.65,435.585 565.088,431.823 566.472,430.379 566.797,429.716 566.971,428.801 566.849,428.304 
			566.618,427.863 566.492,427.093 566.084,426.225 565.341,425.136 565.042,423.954 565.931,422.804 566.056,423.886 
			566.478,424.959 567.009,425.773 567.654,426.199 568.181,426.708 568.483,426.91 568.91,427.028 569.575,427.078 
			569.879,427.277 569.056,429.516 568.812,431.09 569.184,432.416 570.176,433.287 570.987,433.215 571.701,432.595 
			572.403,431.823 572.244,433.326 571.656,434.307 570.159,435.847 568.962,437.987 568.535,439.002 567.554,440.098 
			566.428,442.395 564.313,443.516 560.023,444.831 560.213,445.415 560.331,445.64 558.901,446.557 557.599,448.055 
			557.466,448.626 558.2,448.873 559.784,448.136 560.754,447.395 562.163,447.064 563.171,446.219 564.841,445.64 565.783,444.62 
			566.797,443.174 569.016,438.88 569.675,438.115 569.879,437.874 573.803,431.379 574.416,430.778 575.852,429.768 
			576.487,429.147 577.729,427.379 578.374,426.646 579.155,426.097 584.006,423.637 585.346,422.396 588.657,418.508 
			589.855,417.502 592.154,416.182 595.211,414.424 596.194,414.452 601.796,413.386 604.769,413.831 606.299,413.476 
			607.028,413.452 607.869,413.831 608.142,414.069 608.356,414.347 608.717,415.057 608.811,415.145 609.278,415.467 
			609.284,415.752 609.239,416.138 609.131,416.385 609.338,416.931 609.378,416.817 609.427,416.44 609.834,416.278 
			610.233,416.05 610.381,416.25 610.367,417.134 610.675,417.134 610.922,415.401 611.707,414.035 614.482,411.091 
			615.675,410.163 617.003,409.51 619.064,409.1 620.763,408.072 623.469,408.072 623.791,407.875 624.125,407.439 624.58,407.004 
			625.273,406.806 626.409,407.179 627.132,407.223 627.823,406.806 628.4,407.239 629.744,407.72 630.367,408.072 631.855,409.849 
			632.192,410.115 632.183,411.177 631.691,413.314 630.927,414.979 630.087,414.612 629.784,414.612 629.784,415.057 
			630.828,415.341 631.831,414.371 632.594,412.761 632.893,411.137 633.305,409.688 634.105,408.335 634.655,406.99 
			634.293,405.577 635.629,405.364 637.788,403.237 639.224,402.708 639.679,402.456 641.027,401.328 641.483,401.072 
			642.212,400.94 646.961,399.057 648.845,397.585 649.621,397.38 651.002,397.639 652.427,398.388 653.329,399.554 
			653.148,401.072 654.06,400.657 654.739,399.679 655.813,397.566 660.123,391.425 662.729,388.674 664.139,388.144 
			669.457,389.124 671.221,389.056 675.648,387.474 679.317,388.094 679.794,387.81 680.842,388.052 682.426,388.674 
			682.794,388.513 683.856,387.87 684.083,387.68 684.287,387.578 685.633,388.674 686.687,389.094 686.701,390.073 
			685.787,392.004 687.189,391.323 689.407,388.197 690.236,387.379 690.242,387.368 689.617,385.711 689.435,383.8 
			689.703,381.994 690.484,380.608 691.255,380.084 692.185,379.624 693.038,379.043 693.589,378.143 693.703,376.932 
			693.33,376.267 692.668,375.977 691.926,375.922 690.394,376.159 689.601,376.049 689.096,375.423 689.172,374.458 
			689.699,373.385 690.929,371.702 691.938,369.833 692.172,368.107 692.036,363.782 692.613,361.661 693.394,359.536 
			694.446,357.801 695.838,356.838 704.43,355.65 705.474,355.182 706.241,354.527 707.76,352.792 708.531,352.197 709.176,352.081 
			710.62,352.658 711.501,352.57 711.938,351.597 712.274,349.032 712.998,346.244 714.035,343.853 715.461,342.122 717.36,341.327 
			723.884,341.587 724.004,341.59 726.215,343.11 727.06,343.326 727.871,343.266 729.524,342.807 735.523,342.258 736.36,342.407 
			737.734,343.342 738.477,343.689 739.394,343.655 741.163,343.159 742.099,343.474 743.31,343.68 745.8,343.18 747.056,343.27 
			751.166,344.366 752.524,344.095 753.558,343.059 754.237,341.525 754.539,339.777 754.505,339.39 754.32,338.551 
			754.297,338.114 754.411,337.578 754.849,336.642 754.992,336.155 755.082,335.196 755.01,334.585 754.429,333.247 
			754.014,332.574 753.678,332.224 753.592,331.909 753.932,331.332 754.369,331.032 756.618,330.605 756.893,330.677 
			757.004,330.593 757.059,330.022 756.432,328.113 756.52,326.686 757.009,325.471 759.088,321.58 759.863,320.675 
			761.828,319.172 762.533,318.347 763.066,317.22 763.172,316.019 762.583,314.98 761.701,314.777 759.558,315.561 
			758.723,315.663 755.893,313.864 758.693,311.505 759.406,310.588 760.334,309.666 759.941,309.137 759.625,308.294 
			759.19,306.711 757.9,303.87 757.47,303.523 757.077,303.024 756.969,302.059 757.157,302.011 757.539,302.041 757.924,301.909 
			758.094,301.388 758.052,301.202 757.954,300.945 757.862,300.592 757.814,300.138 757.5,298.524 756.69,297.446 755.617,296.809 
			750.729,296.192 749.914,296.519 748.332,296.613 748.747,295.074 751.256,286.688 751.603,286.177 752.626,285.757 
			752.961,285.198 753.237,284.489 753.572,283.806 754.395,282.88 755.29,282.433 756.233,282.386 760.78,284.19 762.435,284.004 
			764.255,282.542 765.039,281.492 765.616,280.259 765.658,279.043 764.857,278.021 763.813,277.883 763.036,278.642 
			762.311,279.599 761.413,280.07 760.889,279.854 760.11,278.842 759.681,278.47 759.202,278.376 757.78,278.592 754.513,277.845 
			753.546,277.408 753.079,276.788 752.754,275.936 752.202,274.81 751.456,274.073 750.623,273.524 750.067,272.739 
			750.361,269.599 751.064,269.096 753.143,269.232 756.534,268.037 757.784,268.048 758.99,268.257 759.643,268.206 
			760.115,267.878 760.304,267.241 760.416,265.453 760.614,264.573 761.485,263.069 762.613,261.983 765.028,260.309 
			765.82,259.413 767.182,257.248 767.975,256.594 768.952,256.053 769.265,255.454 769.307,253.182 769.902,251.045 770,249.928 		
			"/>
	</g>
</g>
<g id="Copyright">
	<text transform="matrix(1 0 0 1 681.6426 577.5916)" class="st1 st2">© Vemaps.com</text>
</g>
</svg>
