<?xml version="1.0" encoding="utf-8"?>
<!-- Generator: Adobe Illustrator 23.0.1, SVG Export Plug-In . SVG Version: 6.00 Build 0)  -->
<svg version="1.1" xmlns="http://www.w3.org/2000/svg" xmlns:xlink="http://www.w3.org/1999/xlink" x="0px" y="0px"
	 viewBox="0 0 800 600" style="enable-background:new 0 0 800 600;" xml:space="preserve">
<style type="text/css">
	.st0{fill:#808080;}
	.st1{font-family:'Roboto-Regular';}
	.st2{font-size:14px;}
</style>
<g id="Venezuela">
	<path class="st0" d="M633.021,288.895l2.17,3.216l3.684,4.153l1.417,2.303l-0.037,0.736l-0.447,0.79l-0.679,0.621l-0.735,0.237
		l-0.727,0.044l-1.769,0.409l-0.614,0.297l-0.376,0.421L634,302.832l-0.261,0.557l0.005,0.515l0.09,0.411l-0.047,0.417l-0.414,0.535
		l-0.299,1.435l-0.359,0.625l-0.598,0.354l-0.762,0.042l-1.412-0.136l-0.755,0.241l-0.728,0.549l-0.564,0.587l-0.615,0.514
		l-1.7,0.663l-0.421,0.484l-0.364,0.573l-0.52,0.475l-0.137,0.125l-1.716,1.18l-0.781,0.713l-0.284,0.822l-0.862,0.65l-1.548,0.151
		l-3.001-0.054l-0.796,0.268l-0.498,0.475l-0.699,1.324l-0.797,0.954l-0.174,0.329l-0.026,0.314l0.117,0.678l-0.004,0.388
		l-0.543,0.964l0.085,0.53l-0.134,0.46l-0.333,0.251l-0.513-0.094l-0.231,0.173l-0.347,0.489l-0.5,0.917l-0.55,0.685l-1.605,0.517
		l-0.498,0.934l0.031,0.539l0.208,0.519l0.82,1.511l0.444,0.173l0.493,0.113l0.48,0.334l0.155,0.262l0.016,0.212l-0.039,0.225
		l-0.013,0.301l0.143,0.345l0.286,0.181l0.321,0.127l0.252,0.196l0.247,0.457l0.405,0.996l0.311,0.481l0.068,0.295l-0.004,0.284
		l-0.08,0.264l-0.16,0.253l-0.862,0.776l-0.441,0.965l0.017,1.062l0.519,1.062l0.382,0.384l2.465,1.958l0.464-0.009l0.78-1.407
		l0.575-0.549l0.754-0.282l0.914,0.006l0.438,0.164l0.368,0.245l0.387,0.197l0.508,0.017l0.577-0.087l0.466,0.037l0.422,0.232
		l0.419,0.467l0.025,0.027l1.23,0.69l0.457,0.413l0.269,0.562l0.026,0.605l-0.149,0.627l-0.275,0.592l-0.349,0.496l-0.5,0.417
		l-0.603,0.391l-0.535,0.453l-0.297,0.599l-0.327,1.767l-0.596-0.354l-0.948,0.223l-4.523,2.821l-2.547,0.614l-0.668,0.291
		l-0.575,0.469l-1.003,1.445l-0.574,0.604l-0.75,0.263l-0.529-0.181l-1.295-0.843l-0.724-0.193l-0.415,0.048l-0.816,0.191
		l-0.33,0.028l-0.424-0.128l-0.316-0.232l-0.254-0.244l-0.237-0.171l-0.785-0.216l-0.46-0.039l-0.206,0.144l0.079,0.399l0.349,0.499
		l0.079,0.33l-0.015,0.293l-0.062,0.147l-0.96,1.018l-0.193,0.147l-0.735,0.107l-1.616-0.201l-0.652,0.496l-0.757-0.233
		l-0.749-0.111l-0.325,0.649l-0.66-0.201l-0.776-0.072l-0.668,0.131l-0.336,0.406l-1.11,1.281l-0.691,1.27l-0.517,1.32l-0.254,1.225
		l0.081,0.729l0.339,0.352l0.494,0.277l0.541,0.502l0.277,0.533l0.339,1.066l0.385,0.532l0.101,0.291l0.042,0.292l-0.015,0.295
		l-0.075,0.297l-0.313,0.428l-0.173,0.494l-0.216,1.717l0.05,0.395l0.266,0.994l0.187,0.326l0.624,0.388l0.175,0.252l0.099,0.241
		l0.121,0.079l0.112,0.115l0.069,0.352l-0.184,1.35l-0.011,0.487l-0.113,0.567l-0.394,0.11l-0.519-0.053l-0.487,0.077l-0.456,0.4
		l-0.38,0.913l-0.345,0.468l-0.426,0.252l-0.581,0.187l-1.175,0.219l-0.47,0.255l-0.325,0.505l-0.447,1.135l-1.66,2.647
		l-0.519,0.413l-1.186,0.662l-0.37,0.392l0.605,1.434l1.142,1.268l2.682,2.974l2.683,2.968l2.684,2.973l2.682,2.97l2.682,2.971
		l2.685,2.969l2.682,2.968l2.728,2.949l1.021,0.141l0.926,0.35l0.728,0.642l2.323,6.162l0.239,1.676l-0.733,1.746l-2.387,2.936
		l-1.348,1.196l-1.612,1.037l-3.411,1.515l-0.306,0.044l-0.682,0.002l-0.278,0.093l-0.27,0.318l-0.978,2.209l-0.331,1.539
		l-0.262,0.727l-1.044,1.372l-1.227,0.592l-2.956,0.377l-1.973,0.555l-0.615,0.064l-0.614-0.138l-1.21-0.588l-0.636-0.184
		l-2.096-0.279l-0.648,0.105l-0.261,0.424l0.959,1.415l0.099,0.744l-0.538,0.523l-0.885,0.336l-0.949,0.175l-0.745,0.042
		l-2.037-0.121l-0.693,0.072l-1.547,0.614l-0.515,0.961l-0.21,2.734l-0.155,0.436l-0.24,0.423l-0.305,0.375l-0.356,0.286
		l-0.535,0.228l-0.329-0.042l-0.313-0.131l-0.484-0.035l-0.393,0.098l-0.638,0.29l-0.435,0.055l-0.306-0.053l-1.111-0.322
		l-1.357-0.077l-0.669,0.092l-0.657,0.203l-0.809,0.485l-1.835,1.979l-0.567,0.386l-0.702,0.32l-0.752,0.244l-0.712,0.142
		l-0.823-0.009l-0.668-0.206l-0.646-0.279l-0.765-0.225l-1.588,0.232l-2.693,1.953l-1.504,0.516l-1.383-0.158l-6.78-2.794
		l-1.555-0.345l-1.235,0.301l-0.126,0.212l-0.117,0.608l-0.188,0.274l-0.302,0.167l-1.105,0.216l-0.781,0.273l-0.335,0.408
		l-0.077,0.562l-0.007,0.732l-0.43,1.408l-0.98,0.251l-2.903-0.459l-2.01,0.183l-0.598,0.159l-0.774,0.472l-0.157,0.544l0.115,0.649
		l0.04,0.795l-0.245,0.878l-0.34,0.706l-0.212,0.733l0.13,0.962l0.188,0.391l0.196,0.228l0.144,0.249l0.119,0.915l0.611,1.365
		l0.324,1.477l0.018,1.472l-0.342,1.422l-0.759,1.313l-0.542,0.672l-0.358,0.252l-0.401,0.022l-0.516-0.076l-0.327,0.14
		l-0.697,0.626l-0.734,0.417l-0.617,0.165l-0.648-0.006l-0.825-0.099l-0.71-0.227l-0.852-0.457l-0.776-0.57l-0.483-0.562
		l-0.505-0.808l-3.748-4.412l-2.208-1.583l-2.053-2.832l-1.231-1.216l-2.327-1.345l-1.407-0.456l-1.202,0.114l-0.809,1.029
		l-0.252,1.376l-0.478,1.184l-1.48,0.45l-1.542-0.739l-2.428-2.123l-1.727-0.392l-0.679,0.08l-1.952,0.487l-0.889,0.052l-0.693-0.15
		l-1.434-0.582l-1.559-0.013l-1.476,0.725l-1.42,0.975l-1.398,0.748l-1.46-0.061l-0.926-1.032l-0.539-1.473l-0.593-2.53
		l-0.438-1.197l-0.6-1.078l-0.765-0.783l-0.92-0.456l-2.404-0.661l-4.403-0.349l-7.954,1.171l-0.657-0.271l-0.455-0.723l-0.561-1.57
		l-0.394-0.596l-0.459-0.694l-1.377-1.302l-1.631-0.833l-1.617,0.114l-0.476,0.445l-0.278,0.678l-0.093,0.772l0.089,0.726
		l0.417,0.782l0.623,0.406l0.734,0.287l0.745,0.419l0.524,0.582l0.268,0.623l0.428,1.43l1.577,3.049l0.004,0.002l0.704,0.853
		l1.656,1.316l0.748,0.769l1.541,2.154l3.43,2.662l1.418,0.795l1.668,0.631l0.821,0.503l2.074,2.551l1.539,1.277l0.677,0.762
		l0.256,0.874l0.004,1.318l-0.079,0.632l-0.255,0.639l-0.958,1.275l-0.355,0.644l-0.123,0.852l0.911,4.47l0.126,1.47l-0.321,3.043
		l0.087,1.475l0.624,1.235l1.127,1.321l1.273,2.292l1.117,1.42l2.721,5.29l0.596,1.912l0.402,0.661l0.117,0.37l-0.011,0.317
		l-0.232,0.938l-0.115,2.011l-0.159,0.674l-1.357,2.448l-0.258,0.859l0.042,0.776l0.306,0.61l0.548,0.295l0.768-0.183l2.087,0.236
		l4.266,1.164l2.276-0.024l2.228-0.293l4.612,0.113l2.236,0.344l4.455,0.145l0.706,0.266l0.134,0.463l-0.359,1.236l-0.055,0.568
		l0.081,2.408l-0.075,0.507l-0.492,1.096l-0.497,1.108l-0.117,0.571l0.06,0.637l-0.338,0.749l-1.121,0.432l-2.38,0.446l-0.349,0.004
		l-1.006-0.137l-0.461,0.071l-1.967,0.893l-5.137,4.091l-0.728,0.378l-0.675,0.095l-4.197-0.071l-1.328,0.128l-1.299,0.449
		l-1.473,1.089l-0.601,1.189l-0.237,3.055l-0.554,2.199l0.121,2.153l-0.102,0.678l-0.193,0.639l-0.428,0.878l-0.587,0.856
		l-0.714,0.722l-1.677,0.953l-1.949,1.912l-2.456,1.788l-0.721,0.787l-0.668,1.425l-0.432,0.65l-0.607,0.252l-0.69-0.374
		l-0.184-0.811l0.121-0.904l0.224-0.661l0.751-1.45l-0.027-0.699l-0.773-0.466l-0.799,0.097l-0.852,0.477l-1.486,1.099l-1.871,0.966
		l-0.824,0.574l-0.675,0.851l-0.74,1.608l-0.462,0.666l-4.484,2.964l-0.72,0.15l-0.712-0.121l-1.774-0.844l-0.632-0.009l-0.567,0.43
		l-0.793,0.842l-0.697,0.54l-0.611,0.174l-0.647,0.062l-0.819,0.22l-0.369,0.22l-1.164,1.014l-0.141,0.091l-0.349,0.128l-0.15,0.099
		l-0.08,0.187l-0.036,0.485l-0.063,0.143l-1.314,0.269l-1.448-0.132l-1.283,0.326l-0.829,1.654l-0.293,2.964l-0.373,1.455
		l-0.852,1.118l-0.712,0.335l-0.716,0.044l-1.452-0.221l-0.917,0.026l-0.599,0.296l-2.189,2.642l-0.389,0.677l-0.34,0.864
		l-0.043,0.293l0.049,1.014l-0.157,0.483l-0.668,0.732l-0.654,1.09l-0.767,0.624l-0.884,0.488l-0.774,0.278L437.55,570l-0.631-0.238
		l-0.489-0.503l-0.386-0.752l-0.075-1.687l0.852-1.374l1.066-1.359l0.573-1.645l-0.053-0.84l-0.234-0.772l-0.379-0.714l-0.851-1.045
		l-0.39-0.375l-0.428-0.322l-0.464-0.211l-0.427-0.058l-0.73,0.115l-2.56-0.084l-0.705,0.088l-0.866,0.274l-1.415,0.885
		l-3.064,1.422l-0.701,0.474l-0.796,0.743l-1.36,1.652l-0.758,0.743l-0.712,0.434l-0.696,0.179l-1.544,0.095l-0.769,0.333
		l-1.131,1.266l-0.823,0.379l-0.777-0.068l-0.592-0.355l-0.565-0.421l-0.698-0.289l-0.691,0.011l-2.01,0.6l-2.164-0.479
		l-2.155-1.511l-1.5-1.35l-0.646-0.582l-1.707-1.533l-2.413-2.166l-2.766-2.488l-2.768-2.485l-2.413-2.166l-1.707-1.533
		l-0.647-0.582l-0.737-1.515l-0.177-0.838l0.651-1.312l-0.037-0.847l-0.271-0.871l-0.373-0.705l-0.36-0.38l-0.406-0.325
		l-0.331-0.364l-0.134-0.491l0.241-1.451l-0.139-0.786l-0.339-0.761l-0.754-1.244l-0.344-0.769l-0.137-0.697v-1.578l-0.101-0.767
		l-3.042-8.081l-0.637-1.2l-0.088-0.383l-0.152-0.273l-0.664-0.46l-0.274-0.456l-0.263-0.287l-0.251-0.365l-0.09-0.444l0.571-0.731
		l0.155-0.259l0.122-0.621l-0.122-1.918l-0.225-0.57l-0.532-0.285l-0.64-0.197l-0.536-0.3l-0.304-0.472l-0.582-1.507l-0.251-1.095
		l-0.563-1.351l-0.015-0.654l0.402-0.47l0.682-0.645l0.47-0.725l-0.227-0.71l-0.198-0.319l-0.013-0.672l-0.128-0.352l-0.28-0.271
		l-1.195-0.72l-1.246-0.405l-0.324-0.2l-0.673-0.672l-0.388-0.278l-0.388-0.115l-0.311-0.183l-0.207-0.427l-0.161-0.483l-0.17-0.361
		l-0.328-0.282l-0.785-0.425l-0.337-0.26l-0.232-0.368l-0.181-0.396l-0.253-0.315l-0.445-0.13l-0.145-0.137l-0.554-0.696
		l-0.124-0.289l-0.148-0.229l-0.757-0.368l-0.324-0.238l-0.146-0.267l-0.212-0.669l-0.148-0.297l-0.534-0.476l-0.655-0.201
		l-1.59-0.026l-0.421-0.331l-0.208-0.778l-0.198-1.597l-0.256-0.637l-0.501-0.797l-0.642-0.526l-0.675,0.169l-0.706,0.26
		l-0.878-0.178l-1.46-0.709l-0.386-0.434l-0.3-0.124l-0.679,0.342l-0.397,0.033l-0.776-0.038l-0.708,0.187l-0.355,0.429l-0.28,0.489
		l-0.52,0.414l0.024-2.425l0.589-0.991l0.885-0.823l1.517-1.405l1.515-1.405l1.517-1.405l1.517-1.403l1.515-1.405l1.518-1.403
		l1.515-1.407l1.518-1.404l0.664-0.616l0.423-0.203l0.774-0.152l0.366-0.126l0.434-0.33l2.142-2.678l0.915-1.483l0.17-1.482
		l-1.174-1.22l-1.33-0.525l-0.521-0.36l-0.489-0.688l-2.389-6.228l-1.006-1.343l-1.332-0.624l-0.724,0.048l-0.659,0.123
		l-0.648-0.007l-0.684-0.343l-0.624-0.755l-0.249-0.827l-0.199-1.754l-0.335-0.874l-1.416-2.461l-0.167-0.758l-0.108-2.2
		l-0.311-0.844l-0.234-0.128l0.003-0.019l0.101-0.59l-0.232-0.656l-0.39-0.404l-0.302-1.148l-0.664-0.704l-0.666-0.546l-0.3-0.676
		l-0.161-1.111l-0.307-1.102l-0.194-1.177l0.179-1.335l0.633-1.165l0.092-0.423l-0.115-0.461l-0.496-0.782l-0.113-0.465l0.053-0.284
		l0.201-0.495l-0.015-0.289l-0.141-0.211l-0.437-0.155l-0.145-0.141l-0.296-1.241l-0.254-0.469l-0.659-0.471v0.241l-0.315-0.223
		l-0.302-0.281l-0.238-0.337l-0.115-0.394l0.059-0.493l0.205-0.236l0.247-0.171l0.194-0.291l0.051-0.343l-0.051-1.133l0.225-0.94
		l0.112-1.973l0.177-0.773l0.355-0.57l0.274-0.57l0.082-1.565l0.249-0.665l-0.181-0.331l0.053-0.207l0.115-0.24l0.013-0.435
		l-0.093-0.241l-0.322-0.625l-0.069-0.236l0.029-0.828l0.24-1.367l0.457-1.384l0.06-0.675l-0.062-1.58l0.077-0.183l0.167-0.178
		l0.165-0.243l0.075-0.377l-0.13-0.243l-0.637-0.739l-0.221-0.342l-0.124-0.355l-0.075-0.348l-0.033-0.366l0.013-0.406l0.093-0.434
		l0.318-0.838l0.073-0.308l-0.044-0.843l-0.137-0.624l-0.225-0.532l-0.32-0.572l-0.342-1.364l0.322-1.496l0.878-1.405l1.317-1.097
		l0.165-0.029l0.397,0.061l0.163-0.031l0.192-0.165l0.342-0.409l0.19-0.153l1.045-0.401l0.298-0.207l0.653-0.71l0.382-0.275
		l0.424-0.108l0.194-0.192l0.39-1.286l0.212-0.262l0.249-0.231l0.21-0.291l0.097-0.429l-0.119-0.173l-0.529-0.517l-0.121-0.161
		l-0.062-0.701l-0.401-2.091l-0.002-1.632l0.282-1.526l0.567-1.411l0.847-1.284l2.111-1.998l0.326-0.564l1.67-1.834l0.507-0.312
		l1.279-0.545l0.435-0.359l0.137-0.609l-0.084-0.819l-0.269-0.716l-0.911-0.652l-1.306-2.054l-0.007-1.37l0.157-0.492l0.382-0.415
		l0.703-0.527l0.224-0.168l-0.036-0.003l-1.398-0.128l-0.984-0.744l-0.942-0.909l-1.03-0.647l-5.558-1.298l-2.471-0.211
		l-0.628-0.183l-0.307,0.012l-0.423,0.21l-0.655,0.679l-0.371,0.305l-0.395,0.069l-0.479-0.013l-0.406,0.112l-0.172,0.45
		l-0.068,0.363l-0.185,0.359l-0.278,0.273l-0.337,0.11l-0.342,0.062l-1.227,0.422l-1.453,0.222l-4.513-0.433l-1.549,0.212
		l-4.032,1.455l-1.308,0.005l-2.322-0.643l-0.733-0.086l-0.765,0.083l-2.601,0.773l-2.203,0.117l-0.388,0.181l-0.931,0.819
		l-0.472,0.215l-0.851-0.099l-1.471-0.687l-0.734-0.162l-0.796-0.086l-2.257-0.691l-0.753-0.123l-2.258,0.123l-0.763-0.156
		l-0.845-0.3l-0.799-0.187l-0.626,0.179l-1.331-0.593l-0.734-0.17l-0.858,0.033l-0.675,0.301l-0.999,0.955l-0.763,0.45l-2.096,2.04
		l-2.016,1.138l-0.796-0.598l-1.514-1.736l-0.71-0.362l-0.948,0.169l-1.699,0.793l-0.883,0.253h-0.033h-0.411l-1.026-1.3
		l-2.686-3.402l-2.686-3.4l-2.686-3.403l-2.682-3.404l-2.686-3.403l-2.686-3.405l-2.685-3.405l-2.685-3.404l-0.609-0.77
		l-1.154-1.003l-1.012-0.249l-1.318,0.07l-1.283,0.322l-1.995,1.126l-1.113-0.048l-3.677-1.765l-0.526-0.186l-0.113-0.098
		l-0.214-0.321l-0.165-0.105l-0.341-0.022l-0.809,0.107l-0.378-0.007l-0.562-0.149l-0.361-0.21l-1.79-2.275l-0.252-0.23
		l-0.569,0.101l-0.999,0.317l-0.58,0.022l-1.2-0.275l-0.334-0.124l-0.5-0.43l-0.232-0.116l-1.05,0.022l-2.128,0.507l-1.542,0.114
		l-1.352,0.454l-0.734,0.024l-0.28,0.19l-0.165,0.35l-0.38,0.496l-1.505,1.071l-1.768,0.662l-1.919,0.227l-2.498-0.271l-0.331,0.212
		l-0.291,0.324l-0.45,0.321l-0.628,0.197l-0.346-0.098l-0.272-0.234l-0.415-0.201l-1.727-0.042l-0.477-0.203l-0.183-0.365
		l-0.027-0.45l-0.073-0.415l-0.318-0.247l-0.54-0.057l-1.473,0.282l-0.589-0.044l-1.14-0.313l-0.556-0.053l-0.551,0.116l-0.931,0.43
		l-0.423,0.116l-0.706-0.588l-0.788-0.203l-0.642,0.169l-0.037,0.055l0.009,0.044l-0.701-0.044l-0.026-0.029l-0.06-0.096
		l-0.09-0.195l-0.172-0.14l-0.305,0.068l-0.479,0.276l-0.254,0.081l-0.245-0.03l-0.417-0.291l-0.201-0.288l-0.291-0.206l-1.2-0.044
		l-0.45,0.066l-0.23,0.26l0.139,0.588l-1.006-0.258l-0.838,0.055l-0.838,0.146l-1.015,0.015l0.09,0.634l-0.221,0.129l-0.382-0.077
		l-0.391,0.018l-0.443,0.286l-0.346,0.293l-0.381,0.232l-0.551,0.092l-1.162-0.098l-2.939-0.689l-1.055-0.247l-0.006-0.004
		l-0.4-0.219l-0.829-0.704l-0.474-0.288l-0.973-0.439l-0.404-0.264l-0.611-0.719l-1.95-3.776l-0.382-1.007l-0.26-1.038l-0.097-1.06
		l0.026-0.306l0.335-1.452l-0.081-0.186l-0.19-0.116l-1.222-1.59l-1.185-0.336l-2.907,0.044l-1.734-0.323l-0.885-0.3l-0.666-0.226
		l-1.299-0.943l-0.97-1.579l-0.117-0.841l0.216-0.736l0.302-0.718l0.141-0.786l-0.121-0.683l-0.481-1.395l-0.104-0.729l0.326-3.744
		l0.708-2.182l0.084-0.628l-0.095-1.549l-0.148-0.621l-0.249-0.395l-0.743-0.862l-0.161-0.314l0.121-0.417l0.318-0.227l0.403-0.148
		l0.379-0.189l0.525-0.436l0.417-0.479l0.293-0.561l0.168-0.698l0.355-0.644l0.664-0.086l0.746,0.125l0.607,0.004l0.574-0.818
		l-0.068-1.374l-0.761-2.44l-1.178-2.224l-0.192-0.797l0.042-0.579l0.316-1.17l0.066-0.582l-0.099-0.602l-0.24-0.6l-0.344-0.541
		l-0.419-0.426l-0.019-0.01l-0.331-0.179l-0.335-0.089l-0.359-0.141l-0.415-0.351l-0.838-0.909l-0.693-0.755l-0.697-0.755
		l-0.695-0.755l-0.697-0.756l-0.691-0.757l-0.697-0.756l-0.693-0.755l-0.699-0.757l-0.649-0.706l-0.708-1.204l-0.375-1.439
		l-0.406-1.565l-0.408-1.564l-0.406-1.565l-0.41-1.563l-0.406-1.565l-0.408-1.566l-0.408-1.564l-0.406-1.565l-0.177-0.677
		l-0.6-0.699l0.51-0.824l-0.192-0.412l-0.589-0.351l-0.673-0.644l-0.264,0.289l-0.262-0.005l-0.309-0.106l-0.406-0.011l-0.435,0.13
		l-0.282,0.146l-1.211,0.803l-0.715,0.279l-0.669-0.172l-0.633-0.876l-0.194-0.778l0.093-1.506l-0.143-0.875l-0.099-0.159
		l-0.331-0.336l-0.121-0.18l0.005-0.134l0.143-0.317l0.011-0.134l-0.441-1.299l-0.218-0.268l-0.812,0.028l-1.535,1.447l-0.805,0.455
		l-0.906,0.255l-0.62,0.411l-1.215,1.151l-1.277,0.627l-1.473,0.206l-3.887,0.096l-0.502,0.012l-0.472-0.29l0.011-0.779l0.415-0.695
		l1.308-0.907l0.629-0.6l0.446-0.729l1.217-3.07l2.832-4.194l0.671-1.592l0.521-0.478l1.42-0.894l0.565-0.601l0.371-0.66
		l0.895-2.432l1.946-3.035l1.111-2.283l0.28-0.93l-0.141-0.665l-0.313-0.662l-0.23-0.925l0.027-0.739l0.294-1.407l0.005-1.401
		l1.844-6.32l0.712-7.882l-0.026-0.704l0.036-0.516l0.012-0.17l0.26-0.704l0.551-0.737l0.587-0.602l0.496-0.664l0.651-1.891
		l2.181-2.547l0.957-1.568l1.709-4.915l0.82-1.599l0.929-1.066l1.544-1.083l0.659-0.639l0.638-0.879l1.218-3.019l0.287-0.407
		l0.669-0.725l0.267-0.379l0.099-0.351l0.031-0.688l0.159-0.325l0.631-0.423l0.761-0.118l1.522-0.065l1.967-0.736l0.712-0.148
		l0.69,0.073l1.317,0.348l0.622-0.16l0.371-0.465l1.055-1.977l1.057-1.979l1.055-1.978l1.056-1.978l1.055-1.978l1.056-1.979
		l1.055-1.979l1.056-1.98l0.357-0.669l0.613-0.883l0.691-0.465l0.915-0.239l2.074-0.542l2.074-0.544l2.075-0.542l2.073-0.542
		l2.075-0.544l2.076-0.54l2.073-0.544l2.074-0.544l0.957-0.249l1.409-0.609l1.211-1.041l0.631-0.351l1.066,0.029l-0.465,0.886
		l-0.114,0.651l0.277,0.661l-0.975,0.11l-0.278,0.112l-0.143,0.272l-0.013,0.334l-0.082,0.286l-0.343,0.121l-0.784,0.143
		l-2.022,1.068l-1.415,0.428l-5.925,0.906l-6.633,2.044l-1.377,0.247l-0.866,0.309l-0.794,0.397l-0.458,0.381l-0.382,1.316
		l0.042,1.57l1.09,4.718l2.917,5.912l2.156,3.067l0.929,0.925l4.137,2.35l0.535,0.439l0.402,0.508l0.063,0.505l-0.276,0.098
		l-1.658,0.37l0.143-0.564l-0.246-0.471l-0.527-0.321l-0.961-0.189l-0.372-0.128l-0.334-0.057l-0.141,0.129l-0.092,0.166
		l-0.209,0.186l-0.423,0.264l0.311,0.414l1.281,1.187l0.284,0.474l-0.013,0.437l-0.121,0.449l-0.03,0.508l0.35,1.46l0.596,1.495
		l0.691,1.252l0.853,1.138l1.121,0.985l1.488,0.806l-0.361,0.8l-0.3,1.415l-0.547,0.783l0.18,0.281l0.059,0.371l-0.061,0.41
		l-0.179,0.39l0.171,0.566l-0.278,0.743l-0.409,0.801l-0.21,0.738l0.049,1.978l0.055,0.21l-0.055,0.133l-0.291,0.284l-0.245,0.136
		l-0.962,0.334l-0.789,0.852l-0.089,0.151l-0.578,0.148l-0.592,0.344l-0.876,0.738l-0.87,1.053l-2.051,3.861l-1.933,2.599
		l-0.216,0.825l-0.539,0.369l-1.42,0.404l-0.568,0.433l-0.475,0.626l-0.33,0.749l-0.307,1.516l-0.817,1.433l-0.713,2.007
		l-2.328,2.639l-0.529,1.08l0.108,0.499l0.668,1.416l0.432,0.652l2.417,2.474l0.815,1.113l1.844,4.077l-0.637-0.356l-0.297-0.669
		l-0.193-0.773l-0.326-0.675l-0.261,0.224l0.112,0.143l0.059,0.111l0.089,0.258l-0.323,0.066l-0.141,0.092l-0.091,0.139
		l-0.169,0.194l0.523,0.238l0.553,0.479l0.439,0.637l0.176,0.727l-0.248,0.705l-0.573,0.028l-0.648-0.37l-0.464-0.486l-0.147,0.662
		l0.294,0.701l0.557,0.866l0.544-0.391l0.799-0.724l0.739-0.355l0.354,0.714h0.264v-0.714l0.367,0.245l0.952,1.091l0.363,0.242
		l0.343,0.093l0.317,0.134l0.297,0.377l-1.075-0.212l-0.921,0.384l-0.462,0.789l0.302,1l0.372-1.225l0.112-0.247h2.054l0.896,0.548
		l0.833,1.029l0.845,0.612l0.932-0.717l-0.128,0.596l-0.094,0.162l0.369,0.293l0.084,0.263l-0.21,0.166l-0.504,0.01v0.245
		l0.438,0.412l0.047,0.619l-0.194,0.654l-0.291,0.521l-0.354-0.307l-0.703,0.521l-1.361,1.275l0.336,0.28l0.386-0.301l0.392-0.231
		l0.339,0.496l0.275-0.131l0.199-0.133l0.148-0.184l0.122-0.288l0.346,0.336l-0.112,0.374l-0.053,0.391l0.526,0.369l-0.663,0.063
		l0.05,0.484l0.612,0.922l-0.837,0.934l-0.131,0.292l0.107,0.387l0.259,0.156l0.262,0.098l0.118,0.217l0.215,0.02l0.432,0.219
		l0.32,0.251l-0.12,0.12l-0.053,0.146l0.347,0.327l0.794,0.53l1.425,0.442l1.547,0.263l1.576,0.026l1.518-0.266l5.076-1.59
		l3.464-1.497l1.151-0.741l0.723-0.843l0.503-1.897l0.67-0.514l0.907-1.157l0.359-0.35l0.307-0.098l0.922-0.126l0.258-0.127
		l0.238-0.165l0.259-0.137l0.323-0.061l0.487-0.184l0.369-0.47l0.209-0.639l0.013-0.686l-0.609-1.989l-0.209-2.997l-0.127-0.675
		l-0.192-0.462l-0.091-0.356l0.02-0.406l0.161-0.288l0.694-0.938l-0.007-0.447l0.622-2.541v-1.694l0.232-0.237l0.161-0.227
		l0.089-0.272l-0.02-0.133l-0.22-0.604l-0.449-0.561l-0.612-0.585l-0.507-0.69l-0.144-0.884l0.372-0.054l0.245-0.126l0.107-0.31
		l-0.092-0.273l-0.631-0.709l-0.645-0.997l-1.911-2.357l-0.759-0.516l-0.815,0.168l-0.763-3.215l-0.608-1.601l-0.784-1.343
		l-1.351-1.387l-0.795-0.584l-1.255-0.476l-0.33-0.585l-0.398-1.408l-0.31-0.477l-0.752-0.893l-0.29-1.069l-0.34-0.589l-0.749-0.905
		l-0.395-0.381l-0.171-0.236l-0.16-0.368l-0.043-0.344l0.22-0.573l0.216-1.857l-0.125-0.47l-0.532-0.464l-1.599-1.07l-0.534-0.725
		l-0.02-0.907l0.166-0.284l1.226-1.043l0.097-0.038l-0.164-0.094l-0.995-1.653l-0.086-0.355l0.052-0.484l0.207-0.941l0.003-0.543
		l-0.122-0.422l-0.233-0.281l-0.631-0.548l-0.379-0.595l-0.233-0.255l-0.356-0.132v-0.226l2.589-0.123l1.128,0.117l1.141,0.475
		l0.376-0.818l-0.161-0.719l-0.337-0.632l-0.141-0.559l0.246-0.541l0.863-0.572l0.339-0.588l-0.912,0.015l-0.334-0.062l-0.422-0.2
		l-0.354-0.292l-0.673-0.713l-0.444-0.225l1.515-0.537l1.412-0.185l2.917-0.018l1.491-0.22l0.422-0.173l3.755-1.539l1.582-0.933
		l0.32-0.301l2.119-0.796l6.821-3.82l5.54-1.471l0.977-0.396l0.761,0.336l1.217-0.018l4.101-0.504l0.631-0.386l0.565-0.908
		l-0.343,0.134l-0.285,0.217l-0.213,0.288l-0.125,0.348l-0.112-0.892l0.856-0.316l1.858,0.271l1.167-0.339l2.714-1.294l1.288-0.876
		l0.685,0.027l1.329,0.171l1.808-0.895l0.743-0.905l0.49-0.993l0.029-0.661l-0.058-0.259l-0.255-0.235l-0.396-0.073l0.352-0.254
		l0.466,0.05l0.512,0.237l0.277,0.445l0.347,0.399l0.348,0.329l0.398-0.162l0.184-0.354l0.138-0.488l0.33,0.015l0.398,0.221
		l0.344,0.129l0.268,0.231l0.164-0.001l0.072-0.342l-0.001-0.344l-0.047-0.24l-0.15-0.159l-0.305-0.109l0.04-0.165l0.043-0.109
		l0.179-0.243l-0.515-0.18l0.07-0.48l-1.518-0.514l-0.817-0.062l-0.117-0.101L275.56,182l0.258,0.009l0.53-0.013l-0.296-0.284
		l-0.407-0.158l-0.474-0.146l-0.426-0.24l-0.709-0.527l1.375,0.341l0.973,0.549l0.957,0.503l0.627,0.319l0.298,0.085l0.628,0.17
		l0.587-0.054l0.619,0.169l0.52,0.289l0.667-0.28l0.382-0.33l0.711,0.243l0.186,0.571l0.284,0.145l0.476-0.092l0.232,0.619
		l0.568,0.337l0.71,0.385l0.422,0.81l1.081,0.384l0.678-0.401l0.202-0.516l1.034-0.617l0.455-0.459l0.124-0.816l-0.748-1.239
		l0.14-0.703l-0.295-0.415l-0.566-1.701l-0.22-1.072l-0.873-1.747h-0.217l-0.101,0.666l-0.282-0.072l-0.331-0.374l-0.254-0.221
		l-0.464,0.119l-0.297,0.255l-0.19,0.25l-0.137,0.115l-1.681,0.535l-0.791,0.063l0.174-0.599l-1.429,0.65l-0.405,0.091l-1.056,0.034
		l-0.522,0.115l-0.367,0.234l-0.776,0.371l-2.285,0.215l-1.706,0.841l-0.895-0.231l-0.641-0.679l-0.115-0.899l0.134-0.244
		l0.425-0.477l0.146-0.268l0.03-0.257l-0.072-0.168l-0.104-0.146l-0.075-0.19v-0.966l-0.069-0.059l-0.323-0.453l-0.092-0.229
		l0.212,0.128l0.546,0.246l0.21,0.121l-0.004-1.006l-0.073-0.427l-0.186-0.318l-0.379-0.191l-0.179,0.26l-0.143,0.415l-0.268,0.281
		l-0.169-0.63l-0.775-1.346l-0.173-0.225l-0.155-0.103l-0.112-0.162l-0.068-0.76l-0.104-0.224l-0.229-0.082l-0.389,0.053
		l0.184-0.497l0.277-1.331l0.043-0.53l0.148-0.59l0.65-1.157l0.147-0.725l0.228-0.549l1.092-1.267l0.373-0.542l0.114-0.607
		l-0.045-1.056l0.194-0.336l1.547-0.04l0.631-0.177l0.611-0.392l2.211-1.907l0.822-0.454l0.835-0.178l0.504,0.196l0.467,0.315
		l1.632,0.373l0.667,0.539l3.188,5.228l0.465,1.461l0.191,1.534l0.03,3.113l0.259,1.547l2.175,6.195l1.658,3.328l1.22,1.533
		l1.495,1.083l1.236,0.171l0.896-0.556l0.925-0.732l1.317-0.363l2.993,0.475l1.374,0.056l1.455-0.531l0.991-0.644l0.591-0.245
		l0.726-0.097l0.36,0.115l0.722,0.51l0.367,0.115l1.201-0.054l0.359,0.054l2.28,0.928l0.424-0.053l0.199,0.379l0.47,0.417
		l0.556,0.359l0.445,0.212l1.485,0.263l5.549-0.24l0.665,0.197l0.547,0.423l1.167,1.267l0.699,0.52l0.774,0.438l1.207,0.445
		l0.565,0.134l0.493,0.038l0.21-0.167l0.187,0.12l0.833,0.376l0.187,0.266l0.369,0.661l0.876,0.679l2.645,1.385l0.798,0.567
		l0.634,0.611l0.259,0.532l0.327,0.388l2.334,1.003l0.174-0.351l0.058-0.161l0.01-0.25h0.264l0.104,0.22l0.357,0.542v0.225
		l-0.271,0.683l0.329,0.929l1.38,2.035l2.175,4.275l0.347,1.003l-0.313,0.456l-0.267-0.156l-0.363-0.345l-0.471-0.335l-0.592-0.13
		l-0.449,0.095l-0.416,0.189l-0.354,0.233l-0.251,0.222l1.175,0.314l2.858,0.261l0.844,0.656L341.715,206l-0.579,0.282l-1.602,0.018
		l-0.536,0.301l-0.19,0.71l0.017,0.82l0.464,2.222l1.106,3.144l0.473,0.853l0.779,1.408l0.333,0.601l1.16,1.483l1.361,1.207
		l1.472,0.576l4.357-0.026l0.627,0.136l0.835,0.382l0.847,0.274l0.595-0.117l0.511-0.258l0.608-0.144l0.432,0.032l0.259,0.126
		l0.121,0.262l0.023,0.286l0.012,0.154l0.124,0.171l0.268-0.255l0.252-0.366l0.082-0.166l1.083-0.488l1.423-0.302l4.693-0.36
		l3.003-0.801l2.902-0.21l3.059-0.324l2.325-0.248l2.927,0.12l2.597-0.337l2.018-1.064l1.379-0.284l1.396-0.525l0.789-0.117
		l4.478,0.061l3.868-0.343l8.32-0.492l4.026,0.067l0.402,0.103l0.412,0.258l1.926,0.349l0.583-0.003l0.438-0.331l0.429-0.495
		l0.507-0.451l0.683-0.196l0.853,0.129l2.166,1.123l2.336,0.557l0.715,0.632l1.644,0.193l0.405,0.092l-0.258,0.507l-0.791,0.486
		l-0.929,0.293l-0.683-0.079l0.03,0.419l-0.049,0.875l0.14,0.327l1.089,1.128l2.679,2.089l0.268,0.346l1.18,0.725l0.639,0.98
		l2.506,1.514l-0.506,0.018l-0.488-0.094l-0.415-0.176l-0.285-0.239l-0.272,0.224l-0.232,0.266l0.749,0.984l0.922-0.208l0.908,0.542
		l1.551,1.385l0.899,0.316l0.959,0.149l2.031,0.048l-1.05-0.687l-3.541-1.517l-0.749-1.013l10.197,4.465l4.296,1.298l1.18,0.214
		l4.094,0.739l4.977,0.919l1.451,0.761l1.314,0.334l0.399,0.155v0.249l-2.675-0.872l-0.706-0.135l0.308,0.512l0.639,0.395
		l0.74,0.255l1.559,0.137l0.376-0.05l0.333-0.118l0.596-0.309l1.072-0.227l1.27-0.797l0.618-0.29l0.704-0.089l1.956,0.359
		l2.625,0.17l1.331-0.19l1.008-0.593l0.392-0.509l0.298-0.54l0.41-1.305l0.012-0.562l-0.181-0.937l0.17-0.489l0.28,0.312
		l0.347,0.184l0.398,0.063l0.425-0.045l-0.261,0.347l-0.146,0.083l-0.32,0.06l0.405,0.492l0.621-0.047l0.354-0.337l-0.389-0.375
		l0.408-0.293l0.909-1.183l0.519-0.085l1.008-0.354l0.562-0.05l-0.095,0.247l-0.058,0.101l-0.112,0.14l0.197-0.059l0.328-0.059
		l0.2-0.107l0.254,0.432l0.207-0.054l0.225-0.242l0.14-0.063l0.163-0.073l0.372,0.092l0.778,0.34l0.3,0.06l0.785-0.286l0.998-0.995
		l1.118-0.291l0.648-0.338l0.209-0.076l0.272-0.176v-0.341l-0.196-0.242l-0.968,0.442l-0.821-0.047l-0.785-0.268l-0.534-0.351
		l0.236-0.347l0.366,0.05l0.425,0.199l0.424,0.098l0.439-0.127l0.755-0.46l0.521-0.151l-0.104-0.461l0.017-0.18l0.086-0.341h-0.772
		v-0.269l0.749-0.278l0.36,0.144l0.115,0.436l0.01,0.581l0.104,0.562l0.255-0.013l0.324-0.378l0.303-0.54l0.019-0.953l1.416-0.568
		l1.841-0.482l1.296-0.699l0.298-0.58l0.156-0.478l0.326-0.322l0.812-0.117l0.784,0.026l0.559,0.091l0.462,0.158l1.566,0.741
		l0.657,0.168l0.828,0.066l0.834-0.064l2.189-0.45l0.703,0.035l1.386,0.385l0.722,0.094l1.531-0.053l4.847-1.157l1.007-0.533
		l-0.817-0.088l-0.906,0.06l-0.922-0.079l-0.861-0.508l-0.629-0.483l-1.816-0.876l-0.838-0.237l-1.873-0.041l-0.85-0.114
		l-0.804-0.472l-0.716-0.287l-0.949,0.021l-1.841,0.38l0.176-0.176l0.307-0.538l-0.511,0.018l-0.369,0.22l-0.288,0.279l-0.279,0.198
		l-0.475,0.113l-2.454-0.201l-0.48,0.088l-1.079,0.651l-0.259,0.11l-0.303,0.193l-0.314,0.841l-0.34,0.193l-0.54-0.195l-0.246-0.464
		l-0.063-0.529l0.006-0.409l-0.318-0.709l-0.632-0.746l-0.464-0.722l0.182-0.649l0.377-0.207l0.254-0.251l0.133-0.336l0.009-0.46
		h0.219l0.347,0.639l0.494,0.32l1.576,0.295l0.438,0.158l0.945,0.479l0.441,0.1l0.48-0.082l2.079-1.016l0.35-0.113l0.485-0.041
		l0.219,0.07l0.118,0.161l0.102,0.17l0.164,0.113l3.346-0.037l0.786,0.283l0.521-0.259l1.371-0.29l0.524-0.211l0.354-0.366
		l0.3-0.522l0.212-0.633l0.099-0.692h0.264l0.441,0.809l0.673,0.551l0.84,0.369l3.673,0.876l3.535,0.437l0.771-0.069l1.464-0.957
		l0.851-0.361l0.607,0.333h0.242l0.115-0.468l0.32-0.044l0.435,0.144l0.451,0.1l0.194-0.15l0.21-0.753l0.209-0.305l0.235,0.249
		l0.236,0.132l0.242-0.004l0.255-0.151l0.22,0.243l-0.22,0.224l0.725,0.268l0.291-0.457l0.488,0.041l0.581,0.249l0.573,0.167
		l0.022-0.136l0.164-0.259l0.29-0.154l0.393,0.169l0.33,0.097l0.369-0.164l2.463-1.674l0.343-0.111l0.107,0.18l0.107,0.343
		l0.216,0.333l0.426,0.15l0.409-0.003l0.343-0.047l0.307-0.151l0.284-0.315l0.602,0.201l2.417-0.201l0.795,0.117l1.417,0.523
		l0.833,0.142l0.847-0.103l1.448-0.551l1.263-0.208l3.826-1.322l0.494-0.073l0.802,0.434l0.406,0.081l0.435,0.031l0.75,0.154
		l3.415,0.06l5.117,0.918l2.771,0.387l1.587,0.211l2.544,0.078l1.108,0.368l0.586,0.006l0.438-0.196l0.946-0.645l0.449-0.141
		l2.342-0.015l1.033-0.213l0.876-0.532l0.392,0.418l0.958-0.312l0.32,0.384l0.583-0.364l0.938-0.333l0.969-0.158l0.674,0.139
		l-0.573,0.27l-0.527,0.387l-0.285,0.551l0.157,0.759l-0.22,0.224l-0.389-0.369l-0.324,0.227l-0.424,0.428l-0.687,0.229
		l-0.133,0.066l-0.446,0.315l-0.28,0.111l-0.423,0.013l-0.339-0.063l-0.324,0.028l-0.385,0.29l-2.23,0.237l-0.776,0.246
		l-3.028-0.396l-2.315,0.158l-0.454,0.198l-0.429,0.472l-1.729,2.573l-0.755,0.635l-0.743-0.078l-0.821-0.457l-0.68,0.029
		l-0.69,0.215l-0.843,0.101l-0.406-0.083l-0.678-0.312l-0.388-0.097l-0.331,0.012l-0.595,0.169l-0.413,0.042l-0.736-0.085
		l-2.298-0.63l-1.968-0.152l-8.267,1.062l-0.972,0.242l-0.418,0.445l-0.363,0.577l-0.833,0.677l-0.905,0.574l-0.579,0.262v0.246
		l1.08-0.441l1.953-1.655l1.098-0.63l1.314-0.082l0.56,0.712l0.112,1.049l-0.03,0.924l0.216,1.12l0.058,0.685l-0.164,0.305
		l-0.294,0.047l-0.545,0.18l-0.236,0.019l-0.305-0.144l-0.53-0.486l-0.287-0.108l-2.344-0.114l-1.103,0.264l-0.311,0.835
		l0.239-0.177l0.752-0.315l0.192,0.877l0.177,0.353l0.333,0.245l-0.415,0.248l-0.562,0.719l-0.474,0.264l0.657,0.439l-0.078,0.387
		l-0.425,0.403l-0.396,0.492l2.056-0.1l0.506-0.269l0.158-0.638l-0.725-1.416l0.182-0.773l-0.396-0.264l-0.121-0.441l0.137-0.46
		l0.38-0.311l0.631-0.018l0.596,0.308l0.992,0.94l0.347-0.265l0.341-0.089l0.36-0.035l0.4-0.102l1.093-0.642l0.225-0.097
		l0.615,0.104l0.7,0.25l0.621,0.312l0.372,0.294l0.117,0.281l0.032,0.636l0.115,0.335l0.236,0.291l0.83,0.556l0.495,0.483
		l0.352,0.48l0.2,0.592l0.042,0.812l-0.242,1.061v0.414l0.412,0.817l0.069,0.299l0.118,0.116l0.258,0.108l0.255,0.176l0.195,0.619
		l0.328,0.634l0.078,0.201l-0.147,0.587l-0.397,0.642l-0.519,0.519l-0.529,0.217l-0.4,0.038l-0.694,0.167l-0.357,0.041l-0.458-0.069
		l-0.259-0.154l-0.173-0.171l-0.197-0.121l-0.578-0.114l-0.632,0.012l-0.514,0.224l-0.21,0.516l-0.078,0.316l-0.204,0.274
		l-0.282,0.195l-0.314,0.073l-0.176-0.143l-0.179-0.699l-0.107-0.26l-0.553-0.275l-0.977,0.509l-0.536-0.111l-0.084-0.266
		l0.066-0.36l0.009-0.356l-0.253-0.246l-0.343-0.001l-0.331,0.173l-0.294,0.268l-0.222,0.274l-0.118-0.375l-0.216-0.26l-0.294-0.187
		l-0.359-0.136l-0.549,0.439l-0.383,0.066l-1.002-0.259l0.161,0.218l0.109,0.151l0.501,0.518l0.484,0.35l0.219-0.132l0.148-0.341
		l0.336-0.209l0.33-0.001l0.151,0.294l0.151,1.808l0.298,0.768l0.54,0.01l-0.415-0.528l0.073-0.437l0.15-0.412l-0.193-0.459
		l-0.003-0.214l0.124-0.347l0.213-0.288l0.268-0.035l0.167,0.231l-0.176,0.576l0.13,0.319l0.553,0.298l0.491-0.123l0.484-0.241
		l0.527-0.054l0.448,0.247l0.339,0.358l0.434,0.293l0.735,0.06l-0.421,0.908l0.308,0.278l0.544-0.217l0.294-0.591l-0.352-1.186
		l0.084-0.658l0.732-0.23l0.233,0.149l0.639,0.638l0.377,0.193l0.435,0.018l1.881-0.448l0.856-0.474l0.739-0.632l0.416-0.672
		l0.029-0.825l-0.575-1.528l-0.156-0.739l0.249-1.013l0.615-0.234l0.786,0.234l0.768,0.4l1.44,1.049l0.801,1.163l0.899,2.966
		l0.308,0.626l0.383,0.541l0.288,0.567l0.009,0.72l0.432,0.725l0.115,0.48l-0.158,0.488l-0.389,0.759l0.642,0.018l0.516,0.298
		l0.423,0.452l0.686,0.962l1.887,3.558l0.197,0.623l-0.047,0.599l-0.177,0.542l-0.068,0.528l0.058,0.108l0.235,0.452l0.99-0.972
		l0.717-1.199l0.974-2.736l0.072-1.154l-0.594-2.259l0.017-1.313l0.632,0.485l0.615,0.807l1.312,2.539l0.22,0.776l0.099,5.071
		l-0.415,1.52l-0.994,0.888l1.197-0.393l0.689-1.2l0.288-1.575l-0.219-4.458l-0.21-0.833l-0.758-1.374l-0.261-0.759l2.066,0.246
		l0.615,0.162l0.248,0.399l0.15,0.496l0.327,0.461l0.373,0.159l1.131,0.263l0.693,0.06l0.292-0.013l0.047-0.135l-0.36-0.335
		l-0.31-0.151l-1.059-0.306l-0.455-0.06l-0.046-0.186l-1.031-1.062l-0.572-0.281l-0.462-0.145l-2.113-0.05l-0.462-0.208
		l-0.544-0.544l0.481-0.721l0.228-0.605l0.363-0.377l0.356-0.192l3.031,0.79l1.755,0.712l1.271,0.738l3.555,2.793l0.637,0.56
		l1.069,1.45l1.018,0.712l0.586,0.428l0.026,0.484l0.089,0.266l0.475,0.478l0.156,0.344l-0.055,0.365l-0.369,1.061l-0.686,1.312
		l-0.144,0.751h0.242l0.967-1.983l0.506-1.963l0.611,0.06l0.517,0.738l0.432,0.894l0.353,0.516l-0.189,0.694l0.189,3.005
		l0.321-0.726l0.138-0.799l0.024-1.562l-0.049-0.419l-0.131-0.323l-0.19-0.257l-0.225-0.237l-0.242-0.386l-0.164-0.818l-0.186-0.38
		l-0.239-0.142l-0.694-0.171l-0.277-0.178l-0.043-0.229l-0.587-0.776l-0.23-0.371l-0.077-0.282l-0.154-0.231l0.321-0.089
		l1.026-0.037l1.343,0.27l2.752,0.877l0.415,0.047l2.485,0.555l0.663-0.453l-0.153-0.512l-0.462-0.49l-0.385-0.513l-0.255-0.101
		l-0.258-0.167l-0.595-0.381l-0.049-0.28l-0.083-0.28l-0.509-0.116l-0.477-0.412l-0.214-0.412l0.198-0.131l1.014,0.049l0.346,0.152
		l0.541,0.261l1.017,0.543l1.424,0.909l1.165,0.757l1.207,0.865l0.516,0.647l1.375,1.704l-0.171-0.99l-0.859-1.1l-0.237-0.647
		l-1.056-0.391l-0.539-0.583l0.129-0.086l0.517,0.432l0.496,0.109l0.668,0.066l0.453,0.238l0.366,0.41l0.945,1.057l0.581,0.583
		l0.558,0.496l0.537,0.582l0.601,0.69l0.451,0.367l0.687,0.561l1.675,1.338l0.773,0.605l0.363,1.12l0.715,0.847l0.498-0.213
		l-0.579-0.736l0.854-0.009l1.914,1.134l0.64-0.389l0.23,0.114l1.328-0.114l0.524,0.073l1.301,0.66l1.396,0.476l0.582,0.391
		l0.196,0.625l-0.236-0.038l-0.112-0.111l-0.133-0.342l-0.069,1.186l0.069,0.286l0.261,0.234l0.249-0.026l0.268-0.128l0.32-0.079
		l0.599,0.132l0.742,0.329l0.735,0.44l0.592,0.459l0.308,0.348l0.543,0.762l0.527,0.526l0.114,0.156l0.06,0.18l0.02,0.234
		l0.091,0.086l0.457,0.121l0.176,0.15l0.297,0.734l0.186,0.92l-0.056,0.899l-0.426,0.674l-0.069-0.302l-0.092-0.162l-0.298-0.293
		l-0.189,0.512l-0.062,0.572l-0.156,0.461l-0.474,0.193l-0.544,0.114l-0.812,0.505l-0.334,0.114l-0.41,0.042l-0.437,0.107
		l-0.403,0.156l-0.31,0.185l-0.223,0.393l-0.161,0.223l-0.22,0.096l-0.047,0.039l-0.818,0.228l-1.965,1.891l-0.817,0.29
		l-0.691,0.461l-0.661,1.071l-0.942,2.185l0.51-0.204l0.464-0.438l0.344-0.521l0.13-0.451l0.173-0.309l2.913-2.591l0.88-0.543
		l0.144,0.627l-0.176,0.356l-0.536,0.543l-0.254,0.327l-0.102,0.312l-0.125,0.779l-0.135,0.266l-0.228,0.277l-0.099,0.283
		l-0.016,0.675l-0.153,0.35l-0.363,0.201l-0.411,0.131l-0.302,0.15l-1.236,1.346l-0.235,0.01l-0.13,0.324l-0.619,1.006l-0.219,0.539
		l-0.421,1.49l-0.063,0.577l0.243,0.729l0.022,0.363l-0.523,1.526l-1.886,2.819l-0.493,1.545l-0.167,1.719l-0.38,1.276l-0.844,0.707
		l-1.554,0.01l-2.064-0.661l-0.461-0.093l-6.178,0.482l-1.551-0.357l-1.368-0.858l-0.701,0.013l-0.701,0.127l-0.491,0.363
		l-0.06,0.72l0.311,0.379l1.884,1.087l1.331,0.267l0.327,0.109l0.222,0.242l0.159,0.25l0.138,0.131l0.377,0.015l0.616-0.204
		l0.337-0.054l0.053,0.103l0.408,0.472l0.562,0.507l0.233,0.102l0.444,0.038l0.182,0.106l0.305,0.505l0.13,0.143l0.693,0.085
		l1.37-0.329l0.596-0.02l0.354,0.259l0.233,0.483l0.177,0.543l0.203,0.446l0.376,0.357l0.916,0.568l0.398,0.542l1.106-0.766
		l0.448-0.483l0.183-0.594l0.233-0.425l0.549-0.486l0.637-0.432l0.491-0.255l0.778-0.175l2.264,0.175l1.646-0.3l0.778,0.03
		l0.095,0.514l-0.575,0.491l-1.34,0.229l-0.264,0.635l-0.04,0.779l0.029,0.406l0.133,0.28l0.359,0.16l0.082-0.335l-0.056-0.913
		l0.163-0.648l0.164-0.128l0.399-0.224l0.347-0.07l0.396,0.02l0.328-0.047l0.138-0.258l0.071-0.316l0.176-0.365l0.202-0.304
		l0.403-0.309l0.072-0.428l0.04-0.855l0.069-0.35l0.003-0.254l0.086-0.202l0.326-0.195l0.671,0.251l0.69-0.115l0.709-0.245
		l3.509-0.402l4.444-0.516l0.657,0.428l0.213,0.363l0.493,0.408l0.563,0.358l0.423,0.204l0.7,0.157l2.2,0.109l2.31,0.561
		l0.614-0.071l0.118-0.162l0.386-0.817l0.724-0.756l0.82-1.42l1.127-0.462l6.162,0.414l1.429,0.376l1.361,0.606l1.253,0.813
		l0.681,0.307L633.021,288.895z M597.78,287.03l0.194,0.073l0.115,0.077l0.141,0.068l0.274,0.047l0.122,0.929l-0.465,0.83
		l-0.779,0.373l-0.812-0.443l-0.048,0.485l0.291,0.476l0.078,0.361l-3.002,0.411l-3.768-0.322l-1.329,0.054l0.387-0.798l0.473-0.731
		l0.654-0.513l0.925-0.157l0.752,0.227l1.135,0.924l0.772,0.339l-0.418-0.584l-0.065-0.038l0.076-0.287l0.166-0.201l0.164-0.14
		l0.076-0.118l0.988-1.078l0.415-0.149l2.299-0.149L597.78,287.03z M601.185,272.042l0.804-0.176l0.782,0.194l0.713,0.436
		l0.601,0.547l-0.74,0.21l-0.228,0.013l0.527,0.849l-0.501,1.054l-0.945,0.962l-1.484,1.091l-4.749,2.002l-0.846,0.203l1.995-1.461
		l0.657-0.614l1.2-1.786l0.406-1.188l0.356-0.351l0.441-0.287l0.396-0.34l0.14-0.367l-0.043-0.321l0.059-0.319L601.185,272.042z
		 M595.338,276.98l-0.395-0.354l0.131-0.698l0.324-0.819l0.184-0.717l0.326-0.569l0.772-0.303l0.899-0.207l0.703-0.268l0.642-0.659
		l1.318-1.69l0.569-0.341l0.866-0.074l1.923-0.661v0.337l-0.037,0.315l-0.079,0.298l-0.125,0.276v-0.267l-0.272,0.633l-0.321,0.29
		l-0.483,0.08l-0.759-0.003l-0.579,0.166l-0.563,0.395l-2.977,2.765l-0.182,0.315l-0.22,0.717l-0.19,0.29l-1.18,0.668
		L595.338,276.98z M602.853,268.883l-0.586,0.646l-1.769,0.591l-0.765,0.455l0.618-1.24l0.055-1.17l0.196-1.004l1.043-0.749
		l1.245-0.333l0.666,0.026l0.288,0.419l-0.081,0.693l-0.216,0.687l-0.314,0.643l-0.379,0.556V268.883z M604.811,265.677l0.53-0.416
		l0.792-0.4l0.799-0.06l0.557,0.609l0.112,0.162l0.19,0.363l0.182,0.21l-0.38,0.171l-0.481,0.031l-0.591-0.067l-0.988,0.623
		l-0.274,0.524l-0.251,0.68l-0.409,0.572l-0.758,0.204l0.294-0.912l0.281-1.637L604.811,265.677z M492.991,208.043l0.704,0.334
		l1.003,0.329l0.874,0.488l0.318,0.818l-0.514,0.686l-0.933,0.066l-0.752-0.375l0.023-0.645l-0.944-0.083l-0.484-0.148l-0.285-0.261
		l-0.03-0.458l0.229-0.391l0.376-0.268L492.991,208.043z M448.703,202.831l0.275-0.018l0.301,0.016l0.109,0.142l-0.3,0.371
		l0.521,0.773l-0.105,0.497l-0.562,0.355l-0.843,0.345l0.138-0.356l0.101-0.135l-0.74,0.258l-0.644,0.068l-1.404-0.056l-0.706-0.174
		l-0.654-0.333l-0.606-0.208l-0.562,0.198l-0.84-0.695l0.349-0.854l0.893-0.635l0.786-0.051l0.87-0.365l0.837,0.041l1.816,0.719
		l0.363,0.068L448.703,202.831z M497.583,196.281l0.115,0.74l0.516,1.339l0.115,0.641l1.144,2.124l0.204,0.986l-1.129-0.244
		l0.017,0.238l-0.035,0.489l0.017,0.238l-0.519-0.383l-0.308-0.12l-0.138,0.144l-0.111,0.226l-0.769,0.725l-0.934,1.891
		l-2.038-0.339l-0.74,0.117l-2.339,0.816l-0.605,0.392l0.101-1.063l-0.614-0.138h-0.775l-0.717-1.358l-0.76-0.54l-0.824-0.446
		l-0.521-0.415l-0.959,0.832l-0.758,0.182l-2.59-0.29l-0.18-0.082l-0.143-0.088l-0.203-0.06l-0.907,0.031l-0.324-0.031l-1.482-0.442
		l-0.691-0.051l0.872-1.888l0.118-0.452l0.081-0.763l0.274-0.323l0.514-0.062l0.799,0.019l0.385-0.075l0.278-0.137l0.448-0.395
		l0.363-0.125l0.725,0.251l0.954-0.402l0.863-0.123l0.771,0.141l0.336,0.505l-0.019,0.455l0.038,0.53l0.236,0.442l1.207,0.379
		l1.304,0.844l0.739,0.194l1.443,0.148l0.605-0.191l0.51-0.695l0.065-0.376l-0.065-1.101l0.22-0.326l0.51-0.414l0.216-0.247
		l0.145-0.396l-0.016-0.277l0.047-0.254l0.328-0.326l0.3-0.1l0.815-0.047l0.334-0.1l0.519-0.451l0.88-1.097l0.536-0.401l0.125,0.647
		l0.423,0.347l0.447,0.244L497.583,196.281z M399.827,172.886l0.549,0.021l0.176-0.021l-0.663,0.574l-1.25,0.209l-1.331-0.184
		l-0.887-0.599l1.075,0.256l0.824-0.15l0.668-0.571l0.598-1.015l0.312,0.241l0.173,0.385l-0.01,0.441L399.827,172.886z
		 M416.68,171.405l0.838-0.065l0.197,0.237l0.062,0.705l-0.454,0.718l-1.031-0.068l-1.112-0.553l-0.7-0.745l0.523-0.199l0.622-0.057
		L416.68,171.405z M470.667,168.69l0.444,0.24l1.125,0.882l0.215,0.39l0.164,0.63l-0.024,0.586l-0.354,0.258l-1.513-0.052
		l-0.84-0.143l-0.69-0.3l0.102-0.29l0.053-0.088l-0.024-0.09l-0.131-0.293l0.465-0.365l0.594-1.007L470.667,168.69z M394.81,173.086
		l0.501-0.2l0.259-0.018l0.017,0.056l-1.671,0.697l-0.167,0.153l-1.008,0.265l-0.308,0.081l-0.377,0.099l-0.824-0.028l-0.125-0.157
		l0.759,0.082l0.53-0.071l0.18-0.044l0.125-0.025L394.81,173.086z M395.397,169.745l0.614-0.023l0.151,0.097l-0.895,0.094
		l-0.125-0.021l-0.468,0.127l-0.611-0.127h-0.331l-0.236-0.09l-1.089-0.099l0.108-0.078L395.397,169.745z M362.664,165.585
		l0.32,0.035l0.403,0.141l-0.305,0.05l-0.696-0.121l-0.275-0.121l-0.043-0.156l0.102-0.125l0.171,0.049l0.159,0.153L362.664,165.585
		z M361.872,164.133l-0.04-0.027l0.088-0.085L361.872,164.133z M361.972,164.032l0.013-0.08l0.03,0.08l-0.01,0.032L361.972,164.032z
		 M361.985,163.221l0.091,0.066l-0.05,0.144l-0.032-0.069L361.985,163.221z M361.838,162.733l0.013,0.068l-0.121-0.059
		L361.838,162.733z M361.627,162.665l-0.053-0.124l0.062,0.053L361.627,162.665z M504.909,30.254l-0.133-0.168L504.918,30
		l0.179,0.087l0.023,0.162l-0.055,0.079L504.909,30.254z M584.547,288.087l0.722,0.331l0.903-0.06l1.053,0.061l0.331,0.662
		l0.03,0.602l0.06,0.752l0.421,0.452l0.511,0.211l0.571,0.362l0.03,0.512l-0.151,0.572l-0.452,0.211l-0.602-0.241l-0.842-0.663
		l-0.3-0.693l-0.451-0.542l-0.962-0.001l-1.234,0.06l-1.175-0.21l-0.723-0.602l-0.512-0.361l-0.753-0.361l-0.663-0.06l-1.116-0.451
		l0.151-0.362l0.724,0.09l1.387,0.21l1.326-0.061l0.814-0.482L584.547,288.087z M607.389,283.118l0.632-0.089l0.452-0.451
		l0.603-0.36l0.483-0.481l0.271-0.18l0.15,0.121l-0.181,0.391l-0.363,0.661l-0.002,0.722l0.3,0.603l0.451,0.242l1.084-0.028
		l0.843,0.122l0.24,0.452l-0.122,0.602l-0.332,0.631l-0.512,0.119l-0.662-0.031l-0.812-0.273l-0.722-0.032l-0.693,0.179
		l-0.783,0.029l-0.753-0.031l-0.512,0.24l-0.662-0.001l-0.632-0.061l-0.059-0.331l0.422-0.511l0.393-0.662l0.483-0.782l0.453-0.752
		L607.389,283.118z M600.085,279.233l1.647-0.211l0.763-0.243l0.398-0.609l0.367-0.457l1.068,0.002l1.892,0.003l0.764-0.456
		l0.855-0.334l0.151,0.488l-0.337,0.427l0.213,0.305l0.488,0.184l0.151,0.641l0.091,0.397l0.457,0.459l0.425,0.794l-0.458,0.396
		l-0.886,0.547l-0.855,0.089l-0.764,0.67l-0.49,0.944l-0.55,0.761l-0.276,0.762l-0.733,0.762l-0.672,0.487l-1.342,0.089
		l-1.281-0.155l-0.946,0.182l-0.763,0.182l-1.219-0.368l-1.8,0.03l-1.404,0.183l-0.642,0.367l-0.643,0.489l-0.429,0.275
		l-0.367,0.214l-0.611,0.031l-0.244-0.306l0.093-0.733l0.093-0.489l0.063-0.916l0.094-1.283l0.429-0.824l1.01-1.221l1.101-0.823
		l1.252-0.67l1.007-0.365l1.221-0.456l0.824-0.121L600.085,279.233z M551.24,240.025l0.297,0.377l0.225,0.877l-0.13,0.841
		l-0.202,0.649l-0.455-0.054l-0.38-0.956l-0.055-0.901l0.075-0.588l0.192-0.377l0.284,0.023L551.24,240.025z M548.685,236.943
		l0.202,0.088l0.23,0.377l-0.176,0.548l-0.455,0.199l-0.411-0.363l-0.249-0.638l-0.287-1.179l-0.019-0.481l0.33-0.095l0.398,0.508
		L548.685,236.943z M554.437,235.318l0.181,0.26l0.18,0.579l-0.167,0.513l-0.349,0.369l-0.451,0.335l-0.566,0.156l-0.513,0.069
		l-0.34,0.155l-0.02-0.465l0.432-0.998l0.666-0.737l0.644-0.257L554.437,235.318z M539.415,223.993l0.243,0.223l0.314,0.549
		l-0.056,0.685l-0.313,0.571H539.4l-0.009-0.417l-0.131-0.343l-0.581-0.527l-0.245-0.316l-0.618-0.628l-1.088-0.825l-1.014-0.6
		l-0.634-0.666l-0.195-0.642l0.053-0.655l0.049-0.234l0.141-0.451l0.18-0.278l0.147,0.01l1.055,1.165l0.873,1.169L539.415,223.993z
		 M486.192,207.368l0.321,0.11l0.13,0.466l-0.67,0.459l-0.956,0.078l-0.677-0.339l0.095-0.525l0.524-0.226l0.465-0.029l0.641,0.047
		L486.192,207.368z"/>
</g>
<g id="Copyright">
	<text transform="matrix(1 0 0 1 681.6426 577.5916)" class="st1 st2">© Vemaps.com</text>
</g>
</svg>
