<?xml version="1.0" encoding="utf-8"?>
<!-- Generator: Adobe Illustrator 23.0.1, SVG Export Plug-In . SVG Version: 6.00 Build 0)  -->
<svg version="1.1" xmlns="http://www.w3.org/2000/svg" xmlns:xlink="http://www.w3.org/1999/xlink" x="0px" y="0px"
	 viewBox="0 0 800 600" style="enable-background:new 0 0 800 600;" xml:space="preserve">
<style type="text/css">
	.st0{fill:#808080;}
	.st1{font-family:'Roboto-Regular';}
	.st2{font-size:14px;}
</style>
<g id="Vietnam">
	<path class="st0" d="M460.307,350.741l0.065-0.51l-0.266-0.345l-0.358-0.291l-0.222-0.349l0.392-0.459l-0.173-0.526l-0.351-0.563
		l-0.119-0.56l0.278-0.485l1.46-1.418l0.515-0.7l0.099-0.38l-0.298-0.309l-2.103-1.63l-0.549-0.287l-0.414-0.311l-0.28-0.4
		l-0.141-0.479l0.052-0.537l-0.235-0.575l0.031-0.491l0.333-0.316l0.654-0.059l1-0.3l0.581-0.174l0.567-0.056l0.958,0.167
		l0.539-0.052l0.387-0.396l0.033-0.388l-0.322-0.653l-0.011-0.356l0.157-0.273l0.497-0.38l0.217-0.211l0.363-0.54l0.193-0.689
		l0.079-1.185l0.128-0.336l0.331-0.31l0.206,0.094l0.17,0.174l0.228-0.069l0.099-0.222l0.264-1.72l-0.009-0.558l-0.228-0.503
		l-0.508-0.559l-1.559-1.188l-0.416-0.462l-0.235-0.648l-0.076-1.392l-0.047-0.124l-0.112-0.297l-0.614-0.164l-1.501,0.23
		l-0.654-0.385l-0.15-0.648l0.018-0.856l-0.094-0.722l-0.479-0.248l-0.253,0.142l-0.201-0.001l-0.152-0.143l-0.108-0.275
		l-0.192-0.443l-0.172-0.039l-0.175,0.131l-0.204,0.062l-0.696-0.178l-0.251,0.007l-0.352,0.258l-0.22,0.325l-0.246,0.144
		l-0.43-0.273l-1.85-3.363l-0.45-0.4l-1.333-0.687l-0.583-0.451l-0.336-0.509l-0.159-0.574l-0.159-1.506l-0.152-0.524l-0.363-0.389
		l-1.924-1.134l-0.401-0.535l0.049-0.757l0.876-1.972l0.385-0.394l0.432-0.098l0.358,0.107l0.323,0.158l0.32,0.054l0.295-0.081
		l2.427-1.585l0.625-0.244l1.333-0.235l0.506-0.246l0.528-0.609l0.958-1.736l0.513-0.449l0.421-0.511l-0.041-0.325l-0.239-0.29
		l-0.161-0.415l0.041-0.624l0.004-0.069l0.078-0.417l-0.161-0.177l-0.683,0.022l-1.944,0.502l-1.015,0.117l-0.976-0.295
		l-0.806-0.722l-1.297-1.666l-0.909-0.613l-0.547-0.158l-0.488-0.081l-0.473-0.134l-0.535-0.333l-0.432-0.399l-0.211-0.284
		l-0.093-0.125l-0.204-0.465l-0.372-1.953l-0.3-0.469l-0.67-0.495l-0.647-0.326l-0.092-0.029l-0.51-0.161l-1.366-0.152l-1.193,0.04
		l-0.452-0.056l-0.376-0.262l-0.087-0.247l-0.119-0.819l-0.163-0.358l-0.228-0.203l-0.856-0.474l-0.603-0.503l-0.325-0.45
		l-0.425-0.989l-0.121,0.024l-0.22,0.121l-0.233,0.081l-0.139-0.104v-0.207l0.081-0.156l0.11-0.119l0.043-0.098l0.148-1.213
		l-0.098-1.466l-0.607-0.948l-0.833-0.034l-0.75,1.272l-0.143,0.607l-0.392,0.377l-0.943,0.607l-0.159,0.299l-0.007,0.281
		l-0.065,0.275l-0.036,0.028l-0.318,0.246l-0.347,0.145l-0.237,0.015l-0.11-0.164l0.004-0.396l-1.041,0.168l-0.777-0.603
		l-0.542-0.963l-0.49-1.441l-0.052-0.417l0.163-1.953l-0.145-0.413l-0.533-0.251l-0.468-0.04l-0.705-0.287l-0.663-0.405
		l-0.793-0.884l-0.318-0.779l-0.195-0.89l-0.053-9.756l-0.004-0.805l-0.311-0.606l-0.968,0.926l-0.808-0.247l-0.602-0.106
		l-0.676-0.251l-0.593-0.3l-0.311-0.257v-0.004l-0.089-0.349l-0.168-0.339l-0.591-1.19l0.027-0.164l0.226-0.386l0.02-0.212
		l-0.36-0.635l-1.682-1.58l-1.055-1.755l-0.193-0.55l0.029-0.382l0.284-0.583l0.027-0.337l-0.125-0.214l-0.484-0.511l-0.181-0.252
		l-0.079-0.447l0.034-0.388l-0.074-0.301l-0.417-0.185l-0.443,0.023l-0.181,0.221l-0.085,0.316l-0.155,0.305l-0.508,0.522
		l-0.405,0.259l-0.508-0.051l-0.764-0.407l-5.809-5.021l-3.041-3.71h-0.005l-0.735-0.773l-2.276-2.977l-0.914-0.864l-1.135-0.753
		l-1.823-0.806l-0.426-0.347l-0.323-0.586l-0.441-1.4l-0.322-0.605l-0.777-1.064l-0.903-1.727L393.345,236l-0.387-1.243l0.416-2.793
		l-0.091-0.186l-0.476-0.971v-0.006l-0.827-0.46l-0.239-0.26l-0.132-0.361l-0.128-0.838l-0.188-0.405L391,228.191l-0.611-0.337
		l-0.285-0.255l-0.575-1.299l-0.143-0.107l-0.398-0.095l-0.161-0.135l0.029-0.085l0.079-0.142l0.072-0.192l-0.011-0.224l-0.282-1
		l-0.213-0.33l-0.535-0.433l-0.701-0.288l-0.746-0.049l-0.631,0.282l-0.206,0.341l-0.159,0.816l-0.143,0.26l-0.32,0.211l-0.098-0.04
		l-0.078-0.154l-0.258-0.129l-0.553-0.144l-0.638-0.274l-0.569-0.404l-0.369-0.535l-0.023-0.417l0.226-0.883l-0.054-0.409
		l-0.237-0.394l-0.157-0.025l-0.172,0.119l-0.916,0.1l-0.365,0.04l-0.369-0.113l-0.233-0.216l-0.307-0.57l-0.201-0.26l-1.698-1.066
		l-0.332-0.481l-0.023-0.766l0.219-0.488l0.022-0.446l-0.609-0.632l-1.1-0.809l-0.811-0.788l-0.378-1.026l0.184-1.527l0.533-2.043
		l0.459-1.094l0.508-0.667l0.426-0.057l0.41,0.135l0.35-0.052l0.258-0.615v-0.128v-0.452l-0.231-0.311l-0.761-0.52l-0.994-1.671
		l-0.434-0.137l-0.407,0.055l-0.408,0.113l-0.434,0.032l-0.847-0.309l-1.754-1.034l-0.571-0.113l-0.593,0.162l-0.687,0.019
		l-0.613-0.163l-0.367-0.373l-0.345-0.921l-0.925-0.272l-2.011,0.159l-0.481-0.054l-1.355-0.418l-1.431-0.205l-0.408-0.151
		l-0.271-0.236l-0.408-0.622l-0.184-0.201l-0.347-0.127l-0.676-0.055l-0.354-0.105l-0.524-0.363l-0.952-0.973l-0.501-0.385
		l-1.174-0.642l-0.412-0.382l-1.203-1.832l-0.426-0.43l-0.585-0.359l-0.658-0.174l-1.086,0.114l-0.623-0.139l-0.437-0.339
		l-1.005-1.527l-0.589-0.529l-0.56-0.27l-0.6-0.195l-0.668-0.303l-0.546-0.438l-0.452-0.48l-0.504-0.392l-0.011-0.003l-0.701-0.176
		l-1.012,0.301l-0.307-0.312l-0.004-0.662l-0.126-0.736l-0.359-0.357l-1.402-0.974l-3.881-1.754l-0.719-0.171l-0.734,0.038
		l-0.741,0.317h-0.043l-1.035-0.752l-0.88-0.465l-0.246-0.18l-0.177-0.26l-0.463-0.883l-0.556-0.071l-0.636,0.017l-0.354-0.169
		l0.291-0.64l0.464-0.359l1.254-0.552l0.538-0.407l0.69-1.059l0.412-0.356l0.741-0.174l0.793-0.418l0.829-0.299l0.515-0.062
		l0.11,0.139l0.018-0.017l0.271-0.523l0.117-0.37l0.145-0.857l0.226-0.398l0.35-0.213l0.376-0.084l0.303-0.162l0.146-0.438
		l-0.005-0.006l-0.401-0.507l-0.114-0.609l-0.045-0.637l-0.224-0.603l-0.397-0.335l-1.093-0.663l-0.405-0.533l-0.688-1.935
		l-0.087-0.46l0.202-0.588l0.325-0.142l0.401,0.116l1.677,0.869l0.665,0.227l0.717-0.11l0.278-0.227l0.255-0.554l0.237-0.243
		l0.177-0.186l0.764-0.01l1.47-0.403l1.006-0.276l0.461,0.402l1.22,0.419l0.638,1.077l1.63-1.045l0.634-0.165l0.701,0.081
		l0.408,0.314l0.332,0.46l0.495,0.506l0.293,0.187l0.885,0.394l1.984,1.201l0.593,0.128l0.817-0.095l0.304-0.13l0.538-0.365
		l0.314-0.102l0.3,0.077l0.6,0.352l0.325-0.035l0.307-0.395l1.109-2.966l0.289-0.492l0.452-0.5l0.549-0.4l0.437-0.12l0.475-0.056
		l0.663-0.204l0.838-0.775l0.856-0.387l0.692-0.518l0.352-1.171l0.063-0.617l-0.009-0.338l-0.258-0.208l-0.663-0.223l-1.034-0.066
		l-0.181-0.206l0.219-0.688l0.659-0.84l1.912-1.145l0.79-0.607l0.323-0.518l0.065-0.32l0.168-0.183l0.667-0.106l1.033,0.121
		l0.463-0.071l0.349-0.306l0.133-0.116l0.13-0.512l-0.061-0.456l-0.11-0.452l-0.065-0.689l-0.098-0.326l0.011-0.229l0.123-0.09
		l0.479-0.096l0.114-0.148l-0.264-0.585l-1.346-0.891l-0.472-0.704l-0.051-0.836l0.193-0.399l-0.034-0.28l-3.106-1.701l-1.411,0.073
		l-1.581,0.531l-1.494,0.306l-1.182-0.602l-0.141-0.488l-0.036-0.757l0.054-0.759l0.134-0.49l0.296-0.227l0.289,0.015l0.271-0.081
		l0.237-0.506l0.023-0.334l-0.056-0.436l-0.107-0.423l-0.13-0.296l-0.508-0.403l-1.328-0.523l-0.564-0.408l-0.802-1.122l-0.484-0.27
		l-5.005,0.112l-1.427-0.359l-1.109-0.711l0.231-0.7l2.002-1.379h0.004l0.741-1.462l0.864,0.689l0.914,0.158l0.871-0.274
		l0.766-0.614l2.259-3.113l0.239-0.88l0.039-0.145l-0.506-0.525l-1.988-0.68l-1.803-0.873l-0.582-0.603l-0.332-1.175l-0.473-0.522
		l-0.715-0.081l-0.799,0.021l-0.708-0.217l-0.258-0.276L350.275,127l-0.188-0.276l-0.267-0.186l-0.547-0.209l-0.291-0.201
		l-0.459-0.555l-0.56-1.15l-0.417-0.569l-0.258-0.222l-0.312-0.217l-0.345-0.174l-0.316-0.103l-0.331,0.025l-0.788,0.223
		l-0.244,0.012l-0.123-0.188l-0.365-0.772l-0.204-0.292L344,121.981l-0.996-0.369l-0.372-0.056l-0.793-0.016l-0.331-0.056
		l-0.293-0.145l-0.528-0.399l-0.24-0.132l-1.245,0.089l-1.612,1.9l-1.279,0.215l-0.408-0.014l-0.354,0.091l-0.701,0.317
		l-2.571,0.832l-0.284,0.18l-0.515,0.468l-0.313,0.172l-0.354,0.029l-0.708-0.099l-0.388,0.133l-0.342,0.414l-0.363,0.698
		l-0.294,0.758l-0.13,0.603l0.076,0.765l0.119,0.361l-0.141,0.255l-0.707,0.448l-0.432,0.153l-0.3,0.04l-0.217,0.147l-0.17,0.491
		l0.043,0.354l0.354,0.726l0.018,0.303l-0.202,0.185l-0.379,0.195l-0.426,0.145l-0.318,0.042l-0.383-0.066l-0.148-0.093
		l-0.112-0.149l-0.766-0.676l-1.352-1.478l-0.679-0.394l-2.161-0.466l-0.002-0.008l-0.354-0.016l-0.302-0.089l-0.278-0.155
		l-0.271-0.203l-0.376-0.485l-0.64-1.25l-0.425-0.427l-0.484-0.186l-0.184,0.097l-0.107,0.236l-0.246,0.232l-0.712,0.406
		l-0.062,0.017l-0.885,0.249l-0.191-0.004l-0.372-0.05l-0.974-0.329l-1.973-1.067l-0.569-0.162l-0.314,0.031l-0.43,0.13
		l-0.253,0.077l-0.408-0.008l-0.343-0.122l-0.47-0.346l-0.294-0.155l-0.356-0.093l-0.632-0.087l-0.37-0.166l-0.222-0.166
		l-0.515-0.505l-0.999-1.257l-0.647-1.097l-1.088-2.403l-0.789-1.688l-0.537-0.631l-0.876-0.385l-0.511,0.07l-0.276-0.12
		l-0.166-0.257l-0.163-0.337l-0.24-0.657l-0.329-1.434l-0.009-0.038l-0.392-0.628l-0.358-0.217l-0.289-0.014l-0.238-0.07
		l-0.213-0.376v-0.362l0.307-0.746l0.042-0.341l-0.179-0.444l-0.34-0.401l-0.455-0.322l-0.522-0.205l-0.77-0.029l-0.665,0.07
		l-0.275-0.159l0.401-0.715l0.573-0.45l1.183-0.297l0.426-0.432l0.126-0.632l0.029-1.717l0.146-0.768l1.153-1.888l0.043-0.431
		l-0.484-0.097l-0.679,0.324l-0.699,0.447l-0.528,0.254l1.585-2.625l0.755-0.688l1.312-1.643l0.699-0.678l0.029-0.107l0.013-0.107
		l-0.013-0.109l-0.029-0.105l-0.349-0.824l-0.116-0.912l0.033-2.584l-0.065-0.434l-0.135-0.41l-0.287-0.496l-0.181-0.07
		l-0.197,0.148l-2.535,1.107l-0.605,0.045l-0.421-0.451l-0.114-0.727l0.107-1.5l-0.296-1.72l-0.69-0.557l-0.614,0.594l-0.087,3.028
		l-0.419,1.206l-0.788,1.015l-1.084,0.723l-0.38,0.089l-1.848,0.033l-0.139,0.08l-0.098-0.056l-0.257-0.385l-0.228-0.587
		l-0.172-0.852l-0.074-0.86l0.168-2.208l-0.331-1.539l-1.192-2.739l-1.077-0.908l-1.55-0.518l-1.323-0.693l-0.408-1.424l0.033-0.146
		l0.061-0.136l0.076-0.119l0.099-0.109l0.307-0.472l-0.533-0.476l-0.875-0.507l-0.716-0.558l-0.242-0.425l-0.343-0.936l-0.231-0.4
		l-0.327-0.31l-1.097-0.665l-2.504-2.466l-2.105-1.072l-0.674-0.642l-0.224-0.757l-0.502-0.488l-0.605-0.426l-0.508-0.568
		l-0.054-0.232l0.116-0.447V69.39l-0.114-0.166l-0.303-0.23l-0.098-0.135l-0.35-1.194l-0.208-0.375l-0.237-0.526l0.356-0.504
		l0.636-0.385l0.613-0.168l0.77,0.168l0.594,0.325l0.506,0.068l0.464-0.592l0.186-0.647l0.206-1.277l0.351-0.692l4.347-4.547
		l0.26-0.503l-0.065-0.074l-0.135-0.313l-0.206-0.253l-0.327-0.215l-0.247-0.276l-0.014-0.425l0.24-0.284l0.365-0.035l0.401,0.023
		l0.361-0.106l0.43-0.49l0.278-0.621l0.363-1.34v-0.005l0.598-0.753l0.876-0.129l0.929,0.311l0.75,0.577l0.368,0.729l0.09,0.688
		l0.24,0.454l0.79,0.033l0.258-0.174l0.161-0.286l0.204-0.255l0.367-0.086l0.157,0.133l0.522,0.601l0.222,0.194l0.692,0.251
		l1.395,0.251l0.719,0.298l2.069,1.713l0.676,0.284l1.474,0.344l0.645,0.341l0.466,0.548l0.278,0.636l0.215,0.679l1.203,2.39
		l0.311,0.383l0.594,0.303l1.292,0.36l1.138,0.837l0.694,0.276l0.703,0.006l0.56-0.393l0.141-0.616l-0.148-0.608l-0.023-0.514
		l0.493-0.34l0.564-0.102l0.589-0.262l1.774-1.238l0.13-0.293l-0.036-0.387l-0.423-0.53l-0.09-0.309l0.41-1.102l0.934-0.736
		l2.096-1.112l0.576-0.488l0.266-0.374l0.611-1.694l1.388-2.452l0.417-0.093l0.79,0.281l0.452,0.264l0.408,0.337l0.356,0.393
		l0.3,0.44l0.497,0.278l0.079,0.529l-0.058,0.658l0.069,0.672l0.231,0.533l1.279,2.14l0.896,1.008l0.43,0.286l0.636,0.102
		l0.372-0.225l1.117-1.67l0.164-0.354l-0.035-0.298l-0.187-1.605l0.09-0.366l0.741-0.921l0.296-0.601l0.201-0.567l0.262-0.463
		l0.482-0.304l1.507-0.873l0.405,0.221l2.374,2.916l2.371,2.154l0.388,0.456l0.152,0.329l0.699,1.12l0.233,0.243l0.275,0.131
		l0.791,0.904l0.204,0.069l0.56,0.07l0.208,0.096l0.285,0.403l0.499,0.959l0.293,0.19l0.535,0.135l0.358,0.311l0.3,0.354
		l0.506-0.309l0.397-0.45l0.07-0.493l-0.063-0.544v-0.595l0.157-0.571l0.466-1.121l0.143-0.579l0.226-2.303l0.345-1.067l0.732-0.985
		l0.325-0.325l0.417-0.768l0.257-0.328l0.473-0.337l0.426-0.116l1.019-0.084l2.974-1.069l0.976,0.024l-0.282,0.743l-0.152,0.81
		l0.033,0.815l0.249,0.753l0.443,0.521l1.921,0.897l0.728,0.46l0.522,0.233l0.535-0.086l0.225-0.148l3.045-1.995l0.687-0.747
		l2.262-1.878l0.625-0.7l0.081-0.122l0.309,0.063l0.011,0.172l-0.051,0.207l0.119,0.169l0.204,0.14l0.139,0.151l0.166,0.129
		l0.322,0.076l0.204-0.082l0.356-0.424l0.188-0.106l0.672,0.084l1.178,0.373l0.716-0.047l0.614-0.23l0.51-0.335l0.45-0.456
		l1.212-1.731l0.396-0.436l1.727-1.059l0.152-0.381l-0.033-0.764l-1.017-4.987l0.473-0.404l0.855-0.136l0.887-0.754l0.148-0.528
		l0.043-0.608l0.116-0.535l0.378-0.311l0.486,0.052l0.918,0.554l0.492,0.057l0.354-0.211l1.267-1.161l1.198-0.626l1.082-0.761
		l0.504-0.214l2.844-0.81l0.123-0.112l0.065-0.159l0.09-0.147l0.184-0.08l0.098,0.041l0.258,0.198l0.11,0.043l0.267,0.064
		l0.204,0.127l0.249,0.085l0.396-0.069l0.582-0.432l0.222-0.622l0.132-0.721l0.289-0.729l0.336-0.396l1.207-1.089L382.452,30
		l0.647,0.018l0.277,0.437l0.15,0.67l0.276,0.715l0.412,0.524l0.546,0.481l0.562,0.383l0.482,0.231l0.336,0.021l0.264-0.098
		l0.273-0.038l0.399,0.201l0.173,0.206l0.459,0.859l0.712,1.492l0.332,0.437l1.514,1.018l0.146,0.175l0.243,0.29l0.229,0.732
		l0.014,1.416l0.002,0.187l0.154,0.708l0.415,0.6l0.504,0.212l2.477,0.105l0.983,0.302l0.887-0.023l0.363,0.234l0.663,0.692
		l0.417,0.204l0.406,0.131l0.401,0.194l0.388,0.388v0.006l0.007,0.006h0.004l0.462,0.723l1.969,2.236l0.636,0.478l0.293-0.118
		l0.152-0.277l0.123-0.305l0.206-0.196l0.372-0.057l0.596,0.162l0.333,0.042l1.106-0.126l0.573-0.179l0.446-0.285l0.56-1.167
		l0.323-0.181l2.739-0.215l1.906,0.229l1.326,0.341l1.131,0.722l0.721,1.314l0.143,1.397l0.242,0.444l0.748,0.349l0.741,0.137
		l0.692-0.003l0.674-0.102l4.976-1.334l0.551-0.309l0.148-0.854l0.343-0.221l0.468,0.141l0.551,0.238l1.749,0.442l0.515,0.323
		l0.35,0.546l0.26,0.603l0.392,0.46l0.782,0.124l0.249-0.143l0.282-0.516l0.311-0.114l0.372,0.093l0.242,0.229l0.376,0.503
		l1.041,0.839l0.564,0.986l-0.023,0.094l0.515,0.017l0.817-0.077l0.748,0.077l0.311,0.486l-0.253,0.464l-1.155,0.679l-0.414,0.374
		l-0.247,0.666l-0.141,1.189l-0.313,0.687l-0.752,1.181l-0.258,0.577l-0.612,1.947l-0.43,0.391l-0.753,0.012l-0.569-0.429
		l-0.369-0.652l-0.416-0.479l-0.687,0.084l-0.379,0.472l-0.293,0.785l-0.8,3.863l-0.157,0.313l-0.387,0.567l-0.119,0.416v0.397
		l0.214,0.92l0.052,0.223l0.07,1.399l0.184,0.584l0.473,0.496l0.773,0.279l1.393,0.068l0.576,0.504l0.206,0.482l0.813,2.772
		l-0.083,0.373l-0.305,0.295l-0.425,0.556l0.094,0.558l0.22,0.418l0.26,0.374l0.182,0.437l0.005,0.273l-0.108,0.612l0.011,0.308
		l0.092,0.203l0.305,0.374l0.074,0.156l0.029,0.996l-0.179,0.883l-0.688,1.779l-0.002,0.319l0.051,0.357l0.123,0.327l0.204,0.23
		l0.547,0.023l0.529-0.403l1.14-1.286l0.224-0.051l0.482,0.168l0.202,0.148l0.273,0.394l0.17,0.168l0.717,0.378l0.614,0.091
		l1.449-0.037l0.847,0.209l0.423,0.405l0.298,0.528l0.47,0.586l0.753,0.407l0.607-0.115l0.56-0.339l0.611-0.257l0.723,0.018
		l0.611,0.298l0.379,0.547l0.033,0.779l-0.325,0.629l-0.5,0.555l-0.363,0.604l0.069,0.775l0.482,0.516l0.728,0.243l1.473,0.311
		l1.014,0.634l2.71,2.406l1.391,0.369l1.109-0.373l1.006-0.119l1.068,1.114l0.925,2.733l0.137,0.133l0.51,0.495l1.214-0.735
		l0.947-0.997l0.562-0.251l0.696,0.192l0.388,0.581l0.139,1.322l0.446,0.218l0.609,0.243l0.354,0.097l0.298-0.01l0.294-0.21
		l0.289-0.599l0.228-0.202l0.627-0.082l1.464,0.196h0.712l2.051-0.453l0.643-0.266l1.37-1.024l0.538-0.21l0.535-0.025l0.621,0.084
		l1.18,0.307l0.725,0.319l0.262,0.356l0.161,0.466l0.385,0.645l0.428,0.418l0.994,0.744l1.218,1.323l0.462,0.13l1.644,1.696
		l-0.743,0.371l-0.748,0.781l-0.66,0.465l-0.478-0.593l0.008-0.37l0.174-0.246l0.202-0.17l0.094-0.133l-0.04-0.289l-0.088-0.202
		l-0.091-0.151l-0.043-0.118l-0.122-0.543l-0.316-0.338l-0.452-0.19l-0.518-0.095l0.065,0.275l-0.04,0.159l-0.265,0.335h-0.233
		l-0.196-0.624l-0.239,0.349l-0.282,1.046l-0.418,0.179l-0.247-0.248l-0.102-0.528l0.026-0.665h-0.213l-0.265,0.234v0.257
		l0.154,0.161l0.054,0.116l0.057,0.494h-0.265l-0.213-0.514l-0.239,0.28l-0.134-0.757l-0.447-0.182l-0.581,0.155l-0.512,0.248v0.257
		l0.563-0.005l0.421,0.144l0.287,0.324l0.139,0.538l-0.478-0.208l0.077,0.245l0.1,0.535l0.085,0.244l-0.376-0.006l-0.282,0.107
		l-0.202,0.187l-0.114,0.226l0.233,0.232l-0.583,1.027l-0.637-0.023l-0.31,0.035l-0.142,0.128l-0.205,0.321l-0.469,0.02
		l-0.487-0.183l-0.267-0.298h-0.262l-0.105,0.165l-0.111,0.115v0.234l0.23,0.454l-0.211,0.277l-0.461,0.046l-0.532-0.24l0.08,0.206
		l-0.003,0.087l0.02,0.064l0.159,0.13v0.281l-0.287,0.157l-0.102,0.154l0.094,0.192l0.296,0.266l-0.23,0.034l-0.504,0.22
		l0.139,0.067l0.048-0.006l0.017,0.028l0.054,0.168l-0.162-0.076l-0.558-0.18l-0.162,0.939l-0.151,0.44l-0.302,0.183l-0.589-0.032
		l-0.401-0.124l-0.287-0.243l-0.25-0.394l-0.151-0.434l-0.077-0.405l-0.182-0.301l-0.449-0.119l-0.011,0.159l0.139,0.371l0.1,0.42
		l-0.128,0.309v0.279l0.43,0.211l-0.378,0.119l-0.774,0.014l-0.711-0.11h-0.082l-0.336-0.089l-0.367-0.209l-0.171-0.34l-0.205-0.081
		l-1.246-0.307l-0.219,0.513l0.245,0.243l0.947,0.55v0.234l-0.683,0.302l-1.118-0.031l-0.845,0.264v0.255l0.205,0.286l-0.085,0.211
		l-0.211,0.215l-0.148,0.314l-0.06,1.357l-0.159,0.435l0.27,0.22l0.302,0.15l0.313,0.024l0.307-0.137l-0.213,1.681l-0.239,0.886
		l-0.521,0.526l0.199,0.323l0.04,0.21l-0.137,0.13l-0.322,0.082l0.137,0.558l0.074,0.558l0.139,0.453l0.347,0.244v0.235l-0.58,0.463
		l-0.347,0.197l-0.487,0.154l-0.797,0.021l-0.654,0.024l-0.447,0.184l-0.458-0.172l-0.74,0.046l-0.74,0.181l-0.452,0.224
		l0.179,0.076l0.114,0.075l0.148,0.059l0.256,0.023v0.256l-0.569,0.148l-0.751,0.844l0.128,0.564l-0.529,0.034l-0.384,0.119
		l-0.35,0.043l-0.41-0.195v0.256l-0.538-0.524l-1.707-0.247l-0.66-0.274v-0.232l1.019-1.332l1.886-1.25v-0.253l-0.461,0.032
		l-0.452,0.093L446,118.115l-0.344,0.207l-0.157,0.244l-0.051,0.262l-0.103,0.218l-0.304,0.09l-0.139-0.122l0.045-0.27l0.128-0.276
		l0.085-0.146l-0.154-0.098l-0.014-0.03l-0.071-0.107l-0.282,0.628l-0.316,0.29l-0.196-0.169l0.077-0.748h-0.239l0.017,0.405
		l-0.034,0.351l-0.082,0.289l-0.139,0.233l0.026-0.535l-0.08-0.416l-0.233-0.265l-0.43-0.062v0.235l0.122,0.113l0.193,0.253
		l0.162,0.166l-0.111,0.014l-0.367-0.014l0.478,0.512l-0.495-0.005l-0.333-0.169l-0.623-0.593l-0.082,0.515l0.888,0.75l0.168,0.526
		l-0.31,0.55l-0.552,0.247l-0.66,0.043l-0.646-0.049l-0.583-0.114l-0.526-0.192l-0.444-0.238l-0.358-0.247l-0.851-0.782
		l-0.393-0.146l-0.208,0.416l-0.137-0.209l-0.117-0.056L437,119.645l1.016,1.188l0.435,0.347l0.737,0.379l0.199,0.13l0.142,0.25
		l0.074,0.308l0.145,0.283l0.376,0.183v0.254l-0.905-0.02l-0.543-0.143l-0.359-0.381l-0.344-0.734h-0.256l0.043,0.335l0.102,0.28
		l0.137,0.228l0.196,0.18l-0.7,1.033l-0.282-0.25l-0.267-0.771l-0.663-0.524l0.12-0.193l-0.043-0.055l-0.077-0.263h-0.239
		l-0.714,0.209l-0.797-0.393l-0.376-0.556l0.572-0.28l0.632-0.041l0.35-0.129l0.131-0.245l-0.037-0.375l-0.236-0.172l-0.364-0.171
		l-0.131-0.253l0.472-0.428l-0.228-0.242l-0.265-0.186l-0.307-0.102l-0.376-0.001l0.077,0.13l0.085,0.279l0.077,0.123l-0.805-0.073
		l-0.569-0.346l-0.535-0.198l-0.717,0.363v0.255h0.262v0.282l-1.309-0.547l-0.757-0.165l-0.58,0.175l0.302,0.081l0.068,0.018
		l1.058,0.437v0.23l-0.233-0.082l-0.717-0.148v0.23l0.341,0.343l0.125,0.396l0.068,0.408l0.182,0.387l0.364,0.226l0.882,0.043
		l0.763,0.35l0.432-0.005l0.316,0.142l0.128,0.663l-0.074,0.484l-0.33,0.493l-0.097,0.439h-0.216l-0.717-0.767l-0.623,0.777
		l0.265,0.449l0.677,0.35l0.615,0.469l0.296,0.865l-0.131,0.801l-0.441,0.35l-0.657-0.481l0.239,0.667l0.484,0.759l0.6,0.692
		l0.589,0.458l0.213-0.278l0.358,0.593l0.598,1.98l-0.726-0.55l-0.316-0.33l-0.128-0.256l-0.188-0.205l-0.401,0.155l-0.376,0.274
		l-0.12,0.149l-0.307,0.052l-0.248,0.106l-0.302,0.091l-0.45,0.006l-0.999-0.28l-0.452,0.024v0.255l0.871,0.367l0.538,0.365
		l0.009,0.445l-0.706,0.608l-0.464,0.258l-0.546,0.211l-0.578,0.102l-0.58-0.064l-0.302-0.213l-0.495-0.733l-0.398-0.306
		l0.205,0.567l0.034,0.052l0.202,0.31l0.521,0.602l0.179,0.138l0.162-0.008l0.111,0.082l0.043,0.401l-0.034,0.216l-0.094,0.204
		l-0.12,0.158l-0.58,0.223l-0.777,0.719l-2.237,0.904l0.615,0.348l0.507-0.029l1.024-0.551v0.232l-0.427,0.6l0.25,0.529l0.336,0.548
		l-0.159,0.664l-0.216,0.042l-0.99,0.355l-0.102,0.087l-0.194,0.12l-0.25,0.285l-0.23,0.343l-0.162,0.295h0.216l0.467-0.333
		l0.825-0.329l0.788-0.103l0.35,0.36l-0.128,1.621l-0.225,0.855l-0.387,0.498l-0.176-0.358l-0.057-0.173l0.011,0.143l-0.037,0.091
		l-0.082,0.036l-0.131-0.017l0.632,0.633l0.074,0.326l0.139,0.456l0.06,0.585l0.104,0.709l0.144,1.039l-0.382,0.419l-0.772-0.833
		l-0.336-0.464l-0.455-0.379l-0.535-0.161l-0.603,0.194h-0.222l0.171,0.288l0.068,0.115l0.282,0.112l0.265-0.149l0.148-0.367
		l0.831,0.626l0.148,0.184l0.114,0.328l0.36,0.621l0.21,0.537l-0.095,0.547l-0.537,0.273l-0.463-0.053l-0.41,0.137l-0.852,0.2
		l-1.111,0.07l-0.452,0.118l-2.279,0.276v-0.276h0.239v-0.232l-0.25,0.026l-0.159,0.046l-0.33,0.161v0.276l0.253,0.264l-0.239,0.202
		l-0.731,0.299l-0.242,0.27l-0.452,1l-1.218,1.541l-0.763,0.52l-0.854,1.242l-0.808,0.494l-0.848,0.998l-0.521,0.313l0.327-0.827
		l0.151-0.191l-0.259-0.276l-0.256,0.524l-0.415,1.11l-0.282,0.419l-0.529,0.307l-1.289,0.337l-0.592,0.372l-0.199-0.557
		l0.108-0.593l0.222-0.651l0.128-0.739h-0.259l-0.108,0.597l-0.529,1.614l-0.188,0.33l-0.512-0.13l-0.563-0.327l-0.478-0.415
		l-0.25-0.4h-0.236l-0.188,0.489l-0.401,0.468l-1.536,1.42l-0.307,0.365l-0.213,0.563v0.354l0.248,0.581l0.009,0.355l-0.734,1.016
		l-0.128,0.552l0.006,1.042l-0.12,0.437l-0.108-0.141l-0.367-0.368l-0.222,0.389l-0.498,0.355l-0.953,0.525l0.219,0.278l0.464-0.221
		l0.999-0.106l0.467-0.206l-0.193,0.491l-0.626,0.854l-0.134,0.579l-0.222,0.255l-0.495-0.03l-0.495,0.039l-0.222,0.487
		l-0.162,0.607l-0.785,1.243l-0.265,0.591l-0.065,0.58l-0.006,1.027l-0.171,0.421l-0.051-0.832l-0.478-0.112l-0.455,0.355
		l0.031,0.589l0.139-0.258l0.253-0.311l0.085-0.214l0.179,0.338l0.091,0.365l0.02,0.397l0.034,0.172l0.151,0.018l0.011,1.382
		l-0.393,2.816l0.162,1.394l-0.495-0.275l-0.478,1.012l-0.478-0.231v0.231l0.396,0.33l0.151,0.419l0.171,1.044l0.64,1.238
		l0.094,0.535l-0.734-0.507l0.085,0.362l0.154,0.419l0.256-0.094l0.171,0.094l-0.071,0.721l-0.088,0.217l-0.029,0.075l-0.276,0.184
		l-0.313,0.018l-0.265,0.072l-0.304,1.07l-0.447,0.024l-0.481-0.071l-0.082,0.197l-0.427,2.284l-0.048,1.346l0.253,0.939
		l-0.885,0.438l-0.341,0.227l-0.225,0.346l-0.953-0.312l-0.856,0.894l-0.663,1.365l-0.37,1.105l-0.034,0.483l0.188,0.341
		l0.085,0.313l0.04,0.492l0.259,1.191l0.179,0.462l0.472,0.632l0.757,0.657l0.859,0.523l0.774,0.23v0.23l-0.481,0.525l-0.145-0.328
		l-0.205-0.242l-0.279-0.144l-0.344-0.041l0.376,0.86l0.102,0.171l0.23,0.072l0.606-0.06l0.259,0.102l0.731,0.812l0.384,0.564
		l0.196,0.527l-0.521,1.523l0.154,0.24l0.316,0.306l0.054,0.701l-0.102,0.764l-0.139,0.497l0.674-0.324l-0.006-0.867l-0.108-2.235
		l-0.082-0.125l0.666,0.433l0.219,1.053l0.04,1.072l0.151,0.488l0.239,0.407l0.837,2.639l1.864,3.06l1.26,1.395l1.195,0.076
		l0.094,0.687l0.233,0.73l0.313,0.657l0.333,0.466l0.811,0.615l0.265,0.255l1.317,1.703l1.832,1.555l0.418,0.533l0.071,0.466
		l-0.655,0.153l0.344,0.265l0.589-0.121l0.757-0.256l0.839-0.139l0.538,0.216l1.835,1.43l0.242,0.138l0.757,0.282l0.302,0.198
		l0.979,1.279l1.169,0.888l0.481,0.46l0.279,0.663h-0.256l-0.341-0.22l-0.449,0.096l-0.404,0.29l-0.216,0.356l0.455,0.23
		l0.154-0.115l0.128-0.052l0.452-0.063l-0.205,0.437l0.068,0.353l0.359,0.718l0.009-0.455l0.102-0.434l0.162-0.368l0.199-0.252
		l0.37-0.189l0.228,0.079l0.239,0.133l0.381-0.024l0.296-0.209l0.66-0.816l0.435,0.178l-0.051,0.377l-0.384,0.701l0.188,0.784
		l0.393,0.769l2.783,3.492l0.216,0.272v0.227l-0.723,0.469l-0.689,0.558l-0.353,0.462l-0.287,0.467l-0.384,0.308l-0.666-0.006v0.275
		l0.384,0.087l0.139,0.236l-0.054,0.333l-0.23,0.369l0.313,0.675l0.31,1.058l0.327,1.879l0.176,0.411l0.708,0.699l0.094,0.269
		l-0.299,0.296l-0.384-0.034l-1.041-0.458l-0.461-0.86l-0.342-0.196l-0.529-0.082l-1.263-0.671l-2.373-0.243l-0.512-0.233
		l-0.239,0.226l0.501,0.361l0.814,0.323l0.845,0.23l1.178,0.14l1.699,0.45v0.273h-0.239l-0.691-0.287l-0.683,0.453l-0.12,0.748
		l1.016,0.588l-0.199-0.442l-0.097-0.16l-0.182-0.148l0.785-0.358l1.135,0.158l1.13,0.448l0.774,0.502l0.367,0.472l0.845,1.556
		l0.939,1.081l1.707,2.91l0.393,1.176l0.302,0.595l0.134,0.055l0.691,0.555l0.034,0.14l0.154,0.098l0.444,0.65l3.064,3.444
		l6.388,4.765l2.128,1.58l3.648,2.705l0.538,1.043l-0.208,1.507l0.396,0.318l1.887,2.758l0.495,0.297l0.111,0.256l-0.111,0.181
		l-0.248,0.117l-0.247,0.165l-0.111,0.308l-0.208,0.153l-1.246,0.708v0.25l0.891,0.004l0.41-0.07l0.393-0.184l0.043-0.169
		l-0.051-0.254l-0.017-0.225l0.632-0.462l0.313-0.108l0.242,0.241l0.208,0.333l0.182,0.168l0.515,0.278l4.524,3.896l1.152,0.853
		l3.013,2.227l3.736,3.406l1.07,0.309v0.272l-1.371-0.392l-4.279-2.285l-1.059,0.187l2.672,1.517l0.845,0.214l0.384,0.144
		l0.316,0.508l0.37,0.098l0.407-0.061l0.282-0.202l0.256,0.389l0.333,0.266l0.845,0.365v0.272l-0.376-0.193l-0.102-0.079h-0.245
		l-0.074,0.123l-0.057,0.119l-0.085,0.279l0.512,0.021l0.478-0.053l0.922-0.217l-0.213,0.232l-0.154,0.246l-0.1,0.285l-0.028,0.346
		l0.128-0.037l0.253,0.34l0.191,0.411l-0.077,0.169l0.341-0.001l0.179-0.15l0.128-0.232l0.176-0.251l0.364-0.2l0.211,0.208
		l0.142,0.359l0.148,0.267l1.332,0.911l0.324,0.334l0.802,1.295l0.637,0.432l0.757,1.028l0.683,0.282l-0.08,0.107l-0.188,0.096
		l-0.23,0.019l-0.225-0.104l-0.219-0.169l-0.256-0.156l-0.361-0.07l-0.074,0.296l0.444,2.058l0.179,0.348l0.413,0.304l0.842,0.479
		h0.239l0.316-0.222l0.299,0.07l0.222,0.267l0.114,0.382l0.322-0.222l0.179,0.222l1.28-0.996l0.154-0.243l-0.23-1.142l-0.034-0.357
		l0.532-0.132l1.582,1.168l0.754,0.209l0.299-0.224l0.162-0.335l0.205-0.304l0.418-0.133l0.029,0.236l0.339,1.257l0.29,0.625
		l1.144,1.884l-0.999-0.754l-0.487-0.178l-0.208,0.536l0.276,0.415l0.629,0.256l0.654,0.076l0.373-0.125h0.239l0.635,0.285
		l0.871,0.2l0.962,0.082l0.896-0.071l-0.148,0.187l-0.381,0.477l-1.215,1.006l-0.427,0.818l0.02,1.056l0.598,0.569l0.771,0.45
		l0.543,0.705l0.544-0.539l0.276-0.175l0.256,0.068l0.293,1.26l0.066,0.107l-0.185,0.549l-0.361,0.517l-0.447,0.422l-0.441,0.275
		l0.657-0.209l0.64-0.36l0.532-0.142l0.319,0.462l-0.342-1.868l-0.253-0.503l-0.037-0.537l0.239-0.662l-0.014-0.529l-0.785-0.147
		v-0.271l0.276-0.204l0.205-0.233l0.142-0.264l0.094-0.293l0.256,0.113l0.051,0.083l0.026-0.012l0.142-0.184h0.239l0.307,0.311
		l0.41,0.326l0.498,0.255l0.589,0.102l0.029-0.176l0.219-0.339l0.242-0.236l0.117,0.139l0.065,0.136l0.413,0.475l-0.393,0.339
		l-0.384,0.231l-0.299,0.265l-0.12,0.431l-0.324-0.264l-0.888,0.187l-0.481-0.195l-0.253,1.325l0.236,1.435l0.484,1.305l0.111,0.204
		l0.398,0.743l0.427,0.524l1.844,1.447l0.546,0.26l0.487,0.359l0.279,0.637l-0.381,0.071l-0.285,0.17l-0.068,0.173l0.256,0.083
		l0.205-0.123l0.245-0.244l0.256-0.186l0.253,0.056l0.171,0.488l0.324,2.242l1.093,2.133l5.711,7.907l0.965,0.558l1.3-0.142
		l-0.313,1.029l-0.236,0.245l-0.401-0.508l-0.41,0.129l-0.529,0.239l-0.296,0.427l0.279,0.691l0.825,0.614l0.558-0.328l0.785-1.546
		h0.216l0.194,0.744l0.046,0.899l0.194,0.27l0.837,0.717l0.188,0.239l0.165,0.146l0.632,0.39l0.154,0.097l0.245,0.257l0.057,0.425
		l-0.045,0.431l0.011,0.432l0.216,0.423l-0.128,0.186l-0.048,0.112l-0.063,0.218h0.239l0.051-0.205l0.205-0.538l0.245,0.043
		l0.284,0.013l0.666-0.056v-0.248l-0.876-0.134l-0.268-0.645l0.245-0.758l0.66-0.465v-0.248l-0.211-0.106l-0.097-0.105l-0.194-0.307
		l0.273,0.137l0.236,0.061l0.213-0.043l0.233-0.155l0.182,0.549l0.222,1.434l0.225,0.292l0.273,0.133l0.845,0.676l0.188,0.283
		l-0.063,1.342l0.194,0.469l0.893,0.823l0.427,0.257l0.273,0.089l0.467,0.038l0.216,0.097l-0.282,0.484l-0.373,0.351l-0.461,0.184
		l-0.575-0.028v0.268l0.35-0.033l0.219,0.041l0.114,0.162l0.051,0.324l-0.501-0.271l-0.159,0.411l-0.108,1.061l-0.162,0.531
		l-0.563-0.24l-0.469,0.035l-0.199,0.259l0.256,0.439h0.216l0.284-0.13l0.285,0.094l0.182,0.295l0.009,0.483h0.196l0.017-0.301
		l0.051-0.224l0.165-0.445l0.322,3.217l0.819,2.833l2.202,5.094l-0.703,0.078l0.165,0.216l0.777,0.313l0.151,0.322l0.706,1.064
		l0.228,0.23l1.306,1.729l0.185,0.512l0.313,1.731l-0.293-0.141l-0.213-0.222l-0.145-0.294l0.031,0.475l0.156,2.388l0.185,0.372
		l0.04,0.247l-0.074,0.144l-0.33-0.015l-0.196,0.382l-0.23,0.171l-0.12,0.241l0.211,0.469l0.228-0.714l0.031-0.292l1.178,3.247
		l0.615,0.842l0.156,0.498l-0.037,1.957l0.071,0.504l0.185,0.599l0.461,1.025l1.11,1.216l0.321,0.487l0.14,0.496l0.23,1.496
		l-0.359,0.559l0.501,1.241l1.181,1.915l-0.657-0.081l-0.265-0.34l-0.171-0.443l-0.359-0.39l-0.805-0.154l-0.065,0.559l0.401,0.731
		l1.084,0.603l0.361,0.562l0.953,2.572l0.478,4.032l0.307,0.504l0.925,0.753l0.202,0.34l-0.242,2.829l0.122,1.387l-0.287,0.132
		h-0.908l-0.083-0.385l0.202-2.096l-0.478-1.782l-0.282-0.61l-0.435,0.402l-0.1,0.366l-0.139,1.355l-0.361,0.676l-0.04,0.255
		l0.401-0.17l0.256,0.835l0.231,0.29l0.449,0.082l-0.39,0.428l-0.435,0.337l-0.319,0.45l-0.051,0.773l0.421,0.81l0.008,0.037
		l0.068,0.259v0.994l0.083,0.71l0.216,0.767l0.336,0.615l0.441,0.253l0.026,0.158l0.418,0.325l0.464,0.268l0.165-0.015l0.12,0.335
		l-0.014,0.237l-0.188,0.133l-0.396,0.032v0.246l0.154,0.151l0.054,0.11l0.051,0.474l-0.299-0.312l-0.777-1.368l-0.367-0.884
		l-0.939-1.089l-0.265-0.542h-0.256l-0.037,0.581l0.191,0.256l0.299,0.149l0.282,0.262l0.174,0.391l0.142,0.714l0.142,0.37
		l0.455,0.413l0.319,0.183l-0.037,0.214l-0.137,0.173l-0.122-0.025l0.242,0.386l0.731,0.887h0.259l0.134-0.197l0.131-0.101
		l0.435-0.193l-0.12,0.351l-0.299,0.417l-0.062,0.316l0.114,0.462l0.296,0.297l0.387,0.066l0.398-0.214l0.176,0.369l-0.293,0.481
		l0.117,0.402l-0.339,0.668l-0.225,0.307l-0.39,0.25l-0.287-0.383l-0.757-0.149l-0.151-0.339l0.171-0.247l0.367-0.154l0.336-0.224
		l0.08-0.465l-0.211-0.244l-1.115-0.761l-0.336,0.023l-0.273,0.126l-0.231,0.303l-0.222,0.553l0.188,0.294l-0.085,0.281
		l-0.017,0.298l0.373,0.354l-0.27,0.257l-0.12,0.36l-0.068,0.608l0.6,0.303l0.595,0.823l0.478,0.325l0.384-0.371l0.29-0.057
		l0.282,0.428l0.051,0.406l-0.111,0.272l-0.267,0.13l-0.393-0.028v0.221l0.174,0.162l0.088,0.206l0.029,0.265l-0.031,0.349
		l-0.171-0.13l-0.393-0.205l-0.171-0.135l-0.162,0.316l-0.077,0.022l-0.259,0.132l0.478,1.232l0.31,0.513l0.444,0.484l-0.051-1.124
		l0.122-0.434l0.39-0.18v-0.224l-0.154-0.276l0.026-0.193l0.148-0.022l0.219,0.224l0.137,0.311l0.068,0.336l0.034,0.737
		l-0.077,0.273l-0.401,0.817l0.008,0.359l0.23,0.744l-0.085,0.583l-0.168,0.552l-0.097,0.564l0.111,0.631l0.287,0.488l0.341,0.451
		l0.211,0.478l-0.105,0.32l0.447,0.289l0.29,0.299l0.723,1.309l0.928,1.043l0.688,1.113l1.465,1.711l0.236,0.385l0.08,0.561
		l-0.034,0.671l-0.119,0.604l-0.165,0.368l-0.159,0.07l-0.62,0.181l-0.174-0.009l-0.088-0.251l0.182-0.169l0.25-0.137l0.131-0.153
		l0.08-0.147l0.114-0.15l-0.037-0.124l-0.376-0.069l-0.734,0.49l-0.111,0.185l-0.216,0.56l-0.154,0.213l-0.287,0.118l-0.305,0.018
		l-0.068,0.016l-0.242,0.055l-0.31,0.28l0.233,0.296l0.034,0.43l-0.028,0.502l0.02,0.508l1.556,3.042l0.541,0.613l0.529,0.016
		l0.634,0.481l0.103,0.141l-0.085,0.279l-0.205,0.098l-0.239,0.064l-0.208,0.184l-0.083,0.534l0.12,1.464l-0.037,0.448l-0.387,0.22
		l-0.361-0.404l-0.444-1.06l-0.137-0.172L526.335,426l-0.131-0.175l-0.057-0.388l0.108-0.067l0.612-0.564v-0.223l-0.72-1.247
		l-0.065,0.34l-0.196,0.175l-0.302,0.044l-0.39-0.069l0.137,0.319l0.048,0.303l-0.048,0.305l-0.137,0.319l-0.205-0.363l-0.239-0.255
		l-0.324-0.137l-0.427-0.001l0.632-0.903l0.085-0.187l0.151-0.105l0.327-0.125l0.327-0.198l0.151-0.328l-0.122-0.57l-0.612-0.814
		l-0.222-0.441v-1.09l-0.128-0.158l-0.387,0.089l-0.12,0.222l-0.045,0.283l-0.165,0.274l-1.204,0.797l-0.341,0.318l-0.862,1.065
		l-0.495,0.473l-0.461,0.198l-0.302,0.233l-1.002,1.457l-0.011,0.341l0.12,1.392l-0.265,0.243l0.031,0.549l0.125,0.58v0.34
		l0.1,0.036l0.085-0.001l0.048,0.044l-0.014,0.166h0.256l0.12-0.366l0.06-0.417l0.148-0.332l0.39-0.109v-0.22h-0.239v-0.27
		l0.589,0.205l-0.068,0.485l-0.324,0.593l-0.196,0.539l0.174,0.647l0.427,0.458l1.713,1.129l0.182,0.299l-0.353,0.737l0.028,0.358
		l0.148,0.294l0.191,0.122l0.515,0.186l0.629,0.431l0.324,0.495l-0.396,0.379l0.259,0.245l-0.259,0.242l-0.424-0.498l-0.239,0.328
		l-0.23,0.603l-0.41,0.323l-0.523-0.176l-0.356-0.422l-0.464-0.888l-1.519-1.704l-1.064-0.672l-0.999,0.153l0.171,0.21l0.191,0.388
		l0.117,0.159l-0.361-0.157l-0.117-0.087h-0.239l0.174,0.482l0.552,0.591l0.228,0.393l0.677-0.121l0.358,0.559l0.137,0.858
		l0.026,0.781l0.102,0.303l0.248,0.373l0.282,0.314l0.447,0.297l0.006,0.316l-0.205,0.197l-0.404-0.189h-0.219l-0.134,0.236
		l-0.341,0.962l-0.788-0.348l-0.191-0.14l0.193,0.312l0.319,0.265l0.686,0.422l-0.222,0.544l0.145,0.419l0.302,0.364l0.25,0.381
		l-0.919-0.255l-0.359,0.079l-0.137,0.421l0.231-0.221l-0.011-0.023l0.481,0.252l0.185,0.278l0.054,0.472l0.065,0.245l-0.014,0.119
		l0.054,0.146l0.262,0.322l0.179,0.419l-0.145,0.316l-0.401,0.387l-0.043,0.306l0.137,1.487l0.233,0.626l1.002,1.903l0.319,0.38
		l0.996,0.691v0.224l-0.117,0.631v0.121l-0.597,0.488l-0.017,0.592l0.173,0.532l0.347,0.395l0.469,0.189v0.265l-0.572,0.23
		l-0.575-0.032l-0.484-0.259l-0.299-0.446l-0.12,0.074l-0.256,0.092l-0.122,0.077l-0.287-1.079l0.213-2.602l-0.401-1.222h0.256
		l-0.794-2.112l-0.336-1.532l-0.33-0.419l-0.469,0.624l0.444,0.838l0.162,0.138l0.051,0.131l-0.182,1.001l0.191,0.364l0.819,0.759
		l0.188,0.573l-0.105,1.035l-0.33,1.018l-0.592,0.945l-0.885,0.807l-0.674,0.109l-0.398,1.16l0.202,1.199l1.11,0.214l0.171-0.327
		l0.512-0.708l0.526-0.587l0.245,0.048l-0.139,0.51l-0.239,0.453l-0.043,0.486l0.421,0.613l-0.037,0.775l-0.008,0.147l1.374,1.747
		l-0.376,0.767l-0.259-0.266l-0.245,0.269l-0.307,0.729l-0.62,0.776l-0.085,0.311l-0.017,0.354l-0.14,0.529l-0.202,0.244
		l-0.635,0.543l-0.137,0.289l-0.085,0.405l-0.202,0.389l-0.43,0.566h-0.239l-0.418-0.359l-0.512-0.028l-0.589,0.045l-0.652-0.144
		l-0.398-0.457l-0.265-1.239l-0.162-0.256l-0.811,0.203l0.051,0.446l0.401,0.452l0.25,0.219l-0.071,0.492l-0.128,0.485l-0.023,0.52
		l0.222,0.595l-0.737,0.02l-0.239-0.02l0.538,0.906l0.017,1.542l-0.316,2.424l0.111,1.38l-0.154,0.418l-0.435,0.437l-0.871,0.711
		l-0.512,0.319l-0.504,0.165l-0.64-0.038l-1.528-0.693l-0.552-0.116l-0.62-0.003l-0.632,0.115l-0.586,0.251l-1.169,0.821
		l-0.444,0.435l-0.316,0.447l-0.29,0.647l-0.427,1.807l-0.265,0.621l-0.304,0.29l-0.415,0.084l-0.592,0.001l-0.353-0.083
		l-0.743-0.348l-0.452-0.057l-0.35,0.083l-0.708,0.31l-0.376,0.094h-1.323l-0.202,0.112l-0.427,0.484l-0.985,0.326l-0.603,0.518
		l-0.478,0.638l-0.302,0.576l-0.341,1.448l-0.336,0.387l-0.885,0.132l-0.276,0.099l-1.243,0.632l-0.367,0.067l-0.586,0.029
		l-0.262,0.125l-0.211,0.465l-0.452,1.633l-0.171,0.358l-0.691,0.08l-0.342,0.258l-0.538,1.121h-0.222l-0.293-1.087l-0.933-0.301
		l-4.322,0.859l-0.999,0.339l-0.418,0.575l-0.188,0.355l-0.819,0.856l-0.188,0.491l-0.111,0.43l-0.495,1.004l-0.265,1.464
		l-1.297,2.612h-0.239l-0.378-0.229l-1.551-0.459l-0.589-0.085l-0.743,0.04l-0.555,0.106l-2.043,0.876l-1.457,1.23l-0.486,0.269
		l-1.295,0.439l-2.273,1.215l-0.76,0.11l-0.811,0.286l-1.218,0.679l-0.208,0.116l-0.353,0.285l-0.919,0.926l-0.179,0.378
		l-0.299,0.45l-0.669,0.401l-2.234,1.007l-0.629,0.174l-1.571,0.2l-1.386,0.441l-0.379-0.111l-0.284,0.395l-1.027,0.95l-0.862,1.323
		l-0.615-0.014l-1.332-0.806l-0.913-0.129l0.168-0.315l0.284-0.113l0.299-0.077l0.205-0.221l-0.02-0.315l-0.176-0.323l-0.228-0.253
		l-0.174-0.103l-0.168-0.123l-0.689-0.726l-0.165,0.035l-0.361-0.001l-0.401-0.051l-0.267-0.104v0.506h-0.219l-0.447-0.483
		l-0.697-0.346l-0.734-0.059l-0.549,0.382h-0.219l0.099-0.31l0.02-0.195l-0.12-0.467l-0.327,0.702l-0.253,0.308l-0.396,0.204
		l-0.199-0.677l-0.02-0.294l-0.512,0.258l-0.259,0.197l-0.202,0.275h-0.222l0.102-0.561l0.341-0.286l0.35-0.142l0.063-0.026
		l0.339-0.2l0.248-0.388l0.051-0.353l-0.08-2.547l-0.102-0.226l-0.461-0.495l-0.154-0.361l0.114,0.085l0.384,0.158l-0.011-0.15
		l-0.057-0.748l-0.367-0.582l-1.016-0.95l-0.154,0.52l0.361,0.398l0.495,0.332l0.25,0.32l-0.307,0.883l-0.006,0.475l0.433,0.208
		l0.358,0.261l-0.083,0.58l-0.395,0.881l0.105,0.26l0.242,0.191l0.194,0.211l-0.043,0.31l-0.23,0.056l-0.324-0.181l-0.418-0.362
		l0.256-0.243l-0.478-0.508v-0.221l0.171-0.31l0.065-0.428l-0.014-0.984h-0.222l-0.23,0.999l-0.026,1.065l0.273,0.952l0.68,0.648
		l-0.273,0.146l-0.322,0.174l-0.777,1.373l-0.299,0.272l-0.225-0.179l0.051-0.312l0.139-0.376l0.034-0.367l-0.151-0.373
		l-0.165-0.165l-0.196-0.145l-0.205-0.31l-0.188-0.692l0.017-0.637l0.171-1.21l-1.838-1.565l-0.313-0.268l-0.484,0.248l-0.669,0.343
		l-0.7,0.188l-0.316-0.392l-0.188-0.387l-0.452-0.526l-0.27-0.234l-0.27-0.234l-0.467-0.221l-0.151,0.059l-0.031,0.013l-0.689,0.379
		l-0.213,0.156l-0.162,0.395l0.239,0.236l0.35,0.168l0.179,0.195l0.077,0.347l0.401,0.989l-0.12,0.408l-0.179,0.2l-0.213,0.14
		l-0.205,0.221l-0.205,0.573l-0.071,0.289l-0.108,0.436l-0.265,0.624l-0.438,0.263l-1.121,0.405l-0.575-0.02l-0.341-0.628h-0.239
		l0.12,0.527l0.114,0.211l0.219,0.234l-0.384,0.085l-0.393,0.195l-0.296,0.272l-0.268,0.722l-0.358,0.216l-0.467,0.176l-0.438,0.298
		l0.023-0.594l-0.097-0.451l-0.173-0.36l-0.253-0.317l0.068,1.243l0.171,0.5l0.373,0.201l0.629-0.126l0.512-0.327l0.396-0.467
		l0.265-0.538h0.239l0.171,0.496l0.08,0.576l0.253,0.404l0.686-0.017l0.287-0.282l0.546-0.964l0.367-0.213l0.592,0.216l0.373,0.515
		l0.282,0.611l0.324,0.492l0.452,0.524l0.213,0.521l0.256,3.067l-0.162,0.781l-0.532,0.337l-0.683-0.064l-1.815-0.422l-3.699,0.019
		l-2.555-0.499l-1.317-0.006l-0.683-0.163l-0.549-0.314l-0.512-0.203l-0.535,0.174l2.026,1.284l8.411,2.883l0.188,0.114l0.563,0.502
		l0.208,0.113l0.185,0.075l0.165,0.168l0.239,0.166l0.364,0.077l0.353,0.02l0.262,0.087l0.156,0.188l0.051,0.322l-0.068,0.808
		l-0.205,0.541l-1.895,1.99l-0.566,0.328l-0.586-0.142l0.179-0.274l0.037-0.328l-0.068-0.334l-0.148-0.298h-0.262l-0.157,0.605
		l-0.082,0.143l-0.455,0.474l-0.196,0.292l-0.085,0.305l0.134,0.104l0.245,0.302l0.159,0.318l-0.159,0.144l-0.535,0.066l-0.12,0.165
		l0.006,0.234l-0.245,0.35l-0.085,0.266l-0.091,0.113l-0.142,0.035l-1.309-0.052l-0.572-0.211l-0.495-0.364l-0.487-0.477
		l-0.529-0.387l-1.741-0.727l-1.019-0.822l-0.893-1.085l-2.919-4.658l-1.002-1.024l-1.371-0.434l0.188,0.205l0.188,0.092
		l0.179,0.068l1.05,0.828l0.401,0.471l0.307,1.359l0.361,0.734l3.258,4.269l0.794,0.724l2.697,1.284l1.844,1.424l1.969,1.052
		l0.552,0.14l0.347,0.316l-0.108,0.715l-0.376,0.755l-0.481,0.436v-0.263l0.222-0.261l0.048-0.325l-0.082-0.332l-0.188-0.27h-0.213
		l-0.165,1.246l-0.7,0.803l-0.928,0.318l-0.859-0.209l-0.819-0.668l-2.06-2.26l-0.862-0.657l-2.962-1.788l-8.747-9.029l-0.293-0.212
		l-0.321-0.173l-0.208-0.043l-0.111,0.091l-0.171,0.136l0.159,0.179l0.336,0.158l0.265,0.165l0.8,0.88l0.285,0.507l0.239,1.192
		l0.324,0.515l0.393,0.454l0.76,0.709l1.095,0.811l1.286,0.951l0.307,0.306l0.216,0.312l0.296,0.589l0.205,0.309l1.787,1.699
		l0.199,0.113l0.686,0.857l3.036,2.52l0.882,0.985l0.615,1.143l0.313,1.406l0.361,0.391l0.879,0.14l0.418,0.289l0.171,0.664
		l0.026,0.733l-0.176,1.811l-0.432,1.216l-0.68,1.039l-0.879,0.785l-0.745,0.457l-0.432,0.102l-0.398-0.173l-0.319-0.098
		l-0.364,0.15l-0.506,0.332l-1.443-0.032l-0.461-0.221l-1.673-1.291l-3.036-1.648l-6.49-6.14l-3.295-4.137l-1.315-1.226
		l-1.007-0.748l-1.209-0.315l-1.098-0.699l-0.666-0.104l0.677,1.013l2.228,2.227l5.992,5.988l0.219,0.609l0.131,0.628l0.33,0.714
		l3.639,5.382l0.23,0.508l0.145,0.545l0.102,1.468l-0.171,0.45l-1.28,1.387l0.339,0.346l0.313,0.14l0.236,0.195l0.085,0.506
		l-0.128,0.545l-0.33,0.252l-0.996,0.19l-4.797,1.474l-5.244,2.145l-3.787,1.551l-7.734,2.889l-0.859,0.735l-1.536,1.651
		l-0.93,0.725l-0.373,0.467l-0.154,0.622l-0.088,0.096l-0.447,0.117l-0.176,0.147l-0.029,0.164l0.054,0.395l-0.026,0.167
		l-2.596,4.967l-0.659,0.972l-0.767,0.863l-1.201,0.969l-1.471,0.211l-1.144,0.482l-1.036,1.239l-0.981,1.617l-0.87,0.915
		l-2.334,0.639L367.158,570l-0.82-0.127l-0.205-0.124l-0.171-0.158l-0.253-0.141l-2.188-0.341l-0.828-0.309l-0.196-0.112
		l-0.094-0.391l0.273-0.092l0.421,0.152l0.672-0.126l1.718-1.133l0.373-0.226l0.316-0.089l0.245-0.138l0.137-0.371l-0.171-0.354
		l-0.364-0.186l-0.148-0.164l0.464-0.284l0.447,0.026l2.31,0.458l0.495-0.112l0.58-0.285l0.489-0.389l0.236-0.423l-0.834,0.4
		l-1.113,0.299l-1.095,0.014l-0.799-0.472l-0.171-0.39l0.154-0.199l0.401-0.091l0.572-0.066h0.845l0.256-0.061l0.589-0.423v-0.219
		l-0.344-0.6l-0.099-0.708l0.185-0.667l-2.225,0.986l-1.443,0.358l-0.874-0.451l-0.597-1.196l0.378-1.353l0.379-1.243l0.541-1.622
		l-0.109-1.353l-0.054-2.488l0.139-3.083l0.282-2.136l0.225-5.211l0.019-2.159l0.234-4.023l0.1-1.48l0.732-6.448l0.551-1.951
		l0.716-2.061l1.631,0.054l1.068-0.146l0.242-0.624l0.575-0.599l2.151-1.607l0.762-0.355l0.35,0.266l0.094,0.57l0.837,2.228
		l-0.006-0.495l-0.211-1.333v-1.566l-0.233-0.76l-0.447-0.803l-1.574-2.072l-1.377-1.315l-0.686-0.403l-0.691-0.085l-1.383,0.341
		l-0.814-0.038l-1.124-0.668l-0.822-1.104l-0.697-1.195l-0.72-0.932l-1.15-0.694l-1.169-0.169l-1.09,0.322l-0.91,0.804l-0.12,0.341
		l0.006,0.311l-0.085,0.23l-0.387,0.09l-0.216,0.153l-0.148,0.682l-0.114,0.155l-1.221-0.069l-0.102,0.069l-0.188-0.321l0.071-0.23
		l0.134-0.263l-0.017-0.419l-0.151-0.233l-0.464-0.538l-0.102-0.334v-0.969l-0.128-0.83l-0.333-0.496l-0.973-0.747l-0.145,0.228
		l-0.043,0.098l-0.026,0.159h-0.282l-0.051-0.972l-0.35-0.685l-0.774-1.014l-0.165-0.47l0.102-0.084l0.25,0.009l0.29-0.205
		l0.267-0.404l0.174-0.347l0.017-0.337l-0.196-0.367h-0.262l-0.279,0.548l-0.364,0.432l-0.461,0.304l-0.569,0.171l-0.558-0.048
		l-0.017-0.386l0.094-0.586l-0.156-0.444l0.637,0.138l0.495-0.081l0.369-0.344l1.458-2.142l0.291-0.561l0.34-0.517l0.448-0.346
		l0.549-0.123l1.503-0.065l2.626,0.325l0.832,0.103l1.728,0.214l1.572-0.066l1.245-0.503l0.844-0.877l1.44-2.207l0.407-0.451
		l0.453-0.389l3.431-1.75l0.849-0.823l-0.018-1.156l-1.25-2.321l-0.548-1.337l-0.119-1.233l0.226-0.561l0.392-0.516l0.331-0.302
		l0.147-0.135l0.455-0.324l0.773-0.408l0.204,0.153l0.081,0.466l0.401,0.54l0.497,0.17l3.405,0.638l1.544,0.289l0.538,0.351
		l1.2,1.055l0.52,0.184l0.336-0.336l1.041-2.125l1.42-1.66l0.441-0.3l0.159,0.081l0.99,0.276l0.784,0.397l0.282,0.033l1.74-0.37
		l3.274-0.696l0.523-0.111l0.795-0.368l0.66-0.426l0.009-0.005l0.813-0.492l1.008-0.29l0.936,0.099l0.587,0.682l0.62,1.086
		l1.189,1.649l0.249,0.54l0.401,1.239l0.262,0.509l0.471,0.573l0.618,0.4l0.723-0.011l0.325-0.356l0.414-0.704l0.327-0.78
		l0.052-0.58l1.165,0.953l0.325,0.384l0.65,0.748l0.885,0.641l0.972,0.497l0.927,0.32l1.98,0.196l0.916,0.232l0.779,0.64l-0.9-3.421
		l-0.862-1.638l-0.179-0.578l0.056-0.079l0.043-0.917l-0.076-0.083l0.199-0.363l0.114-0.127l0.618-0.072l0.744,0.025l0.365,0.012
		l0.246-0.215l-0.392-0.709l-0.571-2.041l-0.405-0.613l-0.625-0.482l-0.607-0.096l-0.538,0.321l-0.401,0.769l-0.354-0.737
		l-0.47-0.581l-1.221-1.045l-0.524-0.592l-0.853-1.343l-0.517-0.478l-1.872-0.461l-0.719-0.544l-0.365-0.986v-0.005l-0.094-0.768
		l-0.462-0.284l-0.571-0.145l-0.446-0.354l-0.034-0.507l0.578-2.682l0.387-1.212l0.098-0.534l-0.058-0.543l-0.542-1.884l0.076-0.929
		l-0.036-0.475l-0.161-0.401l-0.387-0.289l-0.931-0.172l-0.426-0.231l-0.355-0.595l-0.096-0.161l0.105-0.71l0.401-0.629l0.459-0.502
		l0.104-0.089l0.695-0.595l0.596-0.122l1.664,0.616l0.999,0.052l0.423-0.507l0.318-0.747l0.972-1.024l0.199-0.439l0.089-0.482
		l0.029-0.495l0.815-0.864l1.601,0.271l1.818,0.565l1.449,0.028l2.412,0.762l0.685,0.371l0.264,0.304l0.502,0.788l0.314,0.257
		l0.462,0.079l1.969-0.517l0.372-0.039l0.345,0.057l0.486,0.168l0.77,0.546l0.444,0.242l0.455-0.011l0.322-0.542l-0.016-0.041
		l-0.297-0.787l-0.952-1.637l-0.038-0.565l0.188-0.491l0.287-0.474l0.242-0.509l0.047-0.308l0.022-0.676l0.04-0.236l0.517-0.844
		l0.09-0.091l-0.197-0.881l-1.035-1.948l-0.283-0.819l-0.049-0.143l0.82-0.216l0.408-0.035l0.452,0.07l0.314,0.229l0.143,0.312
		l0.188,0.244l0.463,0.029l1.077-0.761l1.675,0.02l3.012,0.417l-0.278-0.537l1.743,0.397l0.737-0.205l0.683-0.914l0.408-1.162
		l0.575-0.839l0.795-0.482l0.65-0.056l0.434-0.038l2.669,0.205l1.294-0.15l1.297-0.506l0.849-0.578l2.389-2.401l1.104-1.373
		l0.932-0.66l0.419-0.39l0.235-0.505l1.034-1.102l2.076-1.026l0.557-0.175l1.69-0.53l1.539-0.137l0.826,0.505l1.048,1.635
		l0.672,0.593l0.799-0.044l1.182-1.609l0.844-0.584l0.902-0.374l0.515-0.645l0.278-0.814l0.175-0.879l1.028-2.92l0.004-0.838
		l-0.004-0.004l-0.246-0.466l0.074-0.389l0.217-0.387l0.191-0.457l0.123-1.085l-0.065-1.164l-0.874-3.952l-0.081-1.071l0.031-0.963
		l-0.094-0.939l-0.475-0.999l-0.981-1.121l-0.242-0.423l-0.141-0.538l-0.13-1.087l-0.394-0.905l-0.079-0.398l0.061-0.389
		l0.208-0.353l0.181-0.143l0.085-0.194l-0.011-0.234l-0.087-0.262l-0.546-0.403l-0.09-0.513l3.538-8.632l0.465-1.136l1.12-2.735
		l0.125-1.1l-0.217-3.529l-0.258-1.314l-2.889-5.665l-0.614-0.882l-0.802-0.885l-0.07-0.16l-0.332-0.544l-0.665-0.802l-0.177-0.541
		l0.013-0.377l0.226-0.774l0.043-0.322l-0.379-1.091l0.155-0.604l0.191-0.409l0.096-0.414l-0.072-0.444l-0.029-0.18l-0.493-1.058
		l-0.033-0.33l0.043-0.344l-0.022-0.352l-0.219-0.345l-0.54-0.211l-1.31,0.131l-0.594-0.221l-0.399-0.656l0.013-0.732l0.117-0.748
		l-0.074-0.708l-0.388-0.621l-0.331-0.344l-0.148-0.424l0.168-0.866l1.183-3.417l0.175-1.27l0.005-0.339l-0.099-0.363l-0.307-0.696
		l-0.078-0.323l0.065-0.737l0.253-0.661l0.714-1.269l0.099-0.329l0.054-0.327l0.108-0.299l0.278-0.259l0.452-0.143l0.204,0.156
		l0.13,0.241l0.226,0.112l0.676-0.17l0.441-0.368l0.314-0.548l0.419-0.946l0.13-0.492l0.033-0.257l0.152-0.49l0.502-0.731
		l0.181-0.407l0.042-0.572l-0.135-1.074l0.051-0.56l0.813-1.833l0.181-0.908L460.307,350.741z M414.516,532.631l0.444,0.442
		l1.955,0.453l0.444,0.329l-0.045,0.886l-0.219,0.629l-0.504,0.326l-0.905-0.017v-0.219l0.176-0.672l-0.526-0.753l-0.76-0.652
		l-0.538-0.365l-0.259,0.221l0.524,0.658l0.589,0.453l0.179,0.26l-0.683,0.081l-0.364-0.312l-1.198-1.867l-0.874-1.065l-0.398-0.641
		l-0.162-0.593l-0.128-0.772l-0.313-0.557l-0.754-0.993l0.219-0.222l0.08,0.182l0.114,0.11l0.285,0.193l1.69,2.422l1.676,1.66
		L414.516,532.631z M432.467,509.64l0.794,0.194l0.305,0.199l0.114,0.468l-0.222,0.295l-0.495,0.246l-0.495,0.094l-0.222-0.16
		l-0.296-0.447l-0.677-0.291l-4.558-0.839l-1.673-0.729l0.538-0.043l1.181,0.506l0.945,0.211l4.018,0.048L432.467,509.64z
		 M448.128,502.674l1.07,0.943l0.299,0.443l-0.196-0.091l-0.097-0.026l-0.074-0.035l-0.128-0.113h-0.239l-0.085,0.441l-0.253,0.185
		l-0.259,0.153l-0.253,0.712l-0.319,0.2l-0.743,0.249l-0.486,0.447l-0.734,1.093l-0.47,0.425l-0.469-1.757l0.196-0.654l1.417-0.366
		l1.041-0.543l0.222-0.211l0.026-0.367l0.094-0.454l0.168-0.417L448.128,502.674z M439.885,503.574l0.751,0.486l0.39,0.327
		l0.293,0.399l-1.707,0.415l-0.697,0.312l-0.464,0.487h-0.256v-0.648l-0.168-0.49l-0.199-0.404l-0.111-0.399l0.094-0.648
		l0.538-0.762l0.103-0.554h-0.256v0.506l-0.299-0.833l0.313-0.527l0.643-0.336l0.726-0.245l0.72,0.504l-0.165,1.081l-0.745,1.814
		h0.259L439.885,503.574z M438.929,500.264l-0.205,0.373l-0.461-0.127l-0.495-0.343l-0.29-0.279l-0.051-0.107l-0.35-0.56
		L437,499.181l0.077-0.318l0.324-0.285l0.077-0.256l0.134-0.735l-0.117-0.337L437,496.973v-0.219l0.384-0.104l0.452-0.056
		l0.358,0.039l0.06,0.256l0.811,0.541l0.173,0.295l0.154,0.088l0.168,0.068l0.085,0.064l0.026,0.266l-0.097,0.14l-0.125,0.091
		l-0.063,0.119l0.088,0.391l0.151,0.388l0.028,0.33l-0.267,0.217l-0.185-0.119L439,499.424l-0.31-0.729h-0.239l0.088,0.443
		l0.322,0.651L438.929,500.264z M523.521,440.028l0.276,0.118l0.205,0.17l0.142,0.207l0.094,0.236l-0.156,0.138l-0.381,0.263
		l-0.179,0.087l-0.188-0.236l-0.225-0.134l-0.262-0.009l-0.302,0.134l0.102,0.076l0.045-0.006l0.034,0.023l0.06,0.151l-0.691-0.064
		l-0.64-0.348l-0.515-0.445l-0.324-0.362v-0.245l0.233,0.074l0.504,0.089l0.239,0.082l-0.014-0.127l0.014-0.384l0.64,0.258
		L523.521,440.028z M430.316,563.838l-0.819,0.083l0.011,0.389l0.356,0.517l0.213,0.459l-0.444-0.174l-0.367,0.019l-0.35,0.098
		l-0.401,0.058l-0.307,0.147l-0.065,0.345l0.023,0.4l-0.023,0.315l0.031,0.163l0.06,0.157l-0.131,0.116l-0.558,0.048l-0.173-0.155
		l-0.546-0.717l-0.111-0.216l0.398-0.853l0.945-0.933l1.141-0.787l0.97-0.428l0.148,0.056l0.12,0.068l0.077,0.122l0.017,0.22
		l-0.1,0.022l-0.353-0.022l0.176,0.216l0.034,0.104L430.316,563.838z M424.563,523.043l1.152,1.178l0.458,0.708l-0.296,0.315
		l-0.512-0.303l-0.845-1.331l-0.99-0.534l-1.613-1.509v-0.221l0.159,0.104l0.558,0.117l1.508,1.07L424.563,523.043z M340.09,506.001
		l0.12,0.606v3.761l-1.357,3.448l-0.461,1.955l0.623,0.948l-0.256,0.751l0.009,0.429l0.134,0.383l0.114,0.615l-0.575-0.312
		l-0.137-0.171l-0.711-0.316l-0.467-1.565l-0.475-2.991l-0.931-2.666l-0.694-1.146l-1.004-0.817l-1.335-0.677l-0.45-0.454
		l-0.279-1.41l-0.119-0.382l0.185-0.104l2.2,0.32l0.683-0.04l0.293-0.298l0.077-0.168l0.375-0.551l0.145-0.12l0.31-0.142
		l0.117-0.341l0.054-0.405l0.114-0.346l0.25-0.326l0.341-0.281l0.404-0.032l0.432,0.417l-0.256-0.243L340.09,506.001z
		 M437.717,502.823l-0.566-0.139l-0.475-0.2l-0.427-0.088l-0.444,0.205l0.196,0.098l0.051,0.001l0.051-0.051l0.179-0.049
		l0.538,0.501l0.384,0.738l-0.026,0.665l-0.657,0.281l-0.828-0.338l-0.865-0.798l-0.734-0.965l-0.415-0.833l-0.128-0.564
		l-0.014-0.425l0.142-0.974l-0.046-0.02l-0.083-0.249l-0.111-0.57l0.12-0.11l0.586-0.093l0.225-0.151l0.256-0.886l-0.247-0.821
		l-0.939-1.472l0.797-0.009l0.33,0.113l0.313,0.301l0.319,0.524l0.205,0.217l0.95,0.269l0.438,0.434l0.208,0.55v0.514l-0.247,0.227
		l-0.162,0.242l-0.068,0.404l0.082,0.153l0.387,0.572l0.137,0.126l0.359,0.232l0.145,0.489l-0.259,0.434l-0.851,0.058v0.243
		l0.555,0.026l0.279,0.243l0.361,0.723V502.823z M444.921,126.824l0.171,0.122l0.102,0.104l0.205,0.262l-0.413-0.073l-0.25-0.25
		l-0.313-0.676l-0.125,0.318l0.011,0.274l0.134,0.23l0.239,0.177v0.256l-0.461,0.173h-0.344l-0.304-0.149l-0.344-0.28l0.174,0.791
		l1.067,0.618l0.213,0.657h-0.259v-0.254h-0.219l-0.168,0.646l-0.31,0.651v-0.812l-0.256,0.094l-0.103,0.067l-0.139,0.119v-0.28
		l-0.219,0.28l-0.154-0.192l-0.105-0.088v-0.231h0.737v-0.254l-0.139-0.084l-0.031-0.036l-0.009-0.044l-0.08-0.114h-0.219v0.278
		h-0.259l-0.119-0.173l-0.216-0.199l-0.122-0.161h-0.256l0.157,0.402l0.1,0.132v0.254l-0.7-0.49l-0.794-1.111l-0.435-0.466
		l-1.01-0.642l-0.39-0.522l0.103-0.687l0.819-0.291l0.239-0.157l0.128-0.25l-0.009-0.274l0.054-0.277l0.324-0.244l-0.259,0.279
		l0.478,0.495l1.078,0.163l0.373,0.364h0.219l0.037-0.627l0.358-0.129l0.464,0.183l0.356,0.318v0.256l-0.111,0.399l0.418,0.279
		l0.561,0.135l0.327-0.046h0.239l0.134,0.253l0.156,0.215l0.188,0.178l0.239,0.143l-0.731-0.175l-0.225-0.102V126.824z
		 M436.522,123.853l0.191,0.518l1.26,1.665l0.171,0.95l-0.452,0.247l-0.606-0.125l-0.305-0.166l-0.173-0.61l-0.7-1.492l-0.102-0.871
		l-0.188,0.324l-0.054,0.329l0.068,0.329l0.174,0.318h-0.259l-0.45-0.286l-0.541-0.101l-0.461-0.233l-0.176-0.681l0.279-1.055
		l0.413-0.967l1.369,0.585l0.398,0.478L436.522,123.853z M460.482,122.714l0.845-1.715l0.128-0.608l0.111,0.119l0.054,0.117
		l0.051,0.274l-0.208,0.853l-0.29,0.629l-1.656,2.468l-0.213,0.417l-0.247,0.76l-0.259,0.269l-0.467,0.015l0.572-1.324l0.06-0.594
		l-0.393-0.426v-0.233l0.726-0.029l0.495-0.135l0.367-0.309L460.482,122.714z M468.165,118.6l0.452,0.134l1.215,0.911v0.233
		l-0.364-0.146l-0.114-0.087h-0.216l0.177,0.736l-0.253,0.576l-0.512,0.431l-0.623,0.302l0.66-1.249l0.057-0.434l-0.188-0.227
		l-0.35-0.203l-0.202-0.343L468.165,118.6z M460.738,118.6l0.478-0.552l0.205-0.125l0.213,0.131l-0.134,0.494l-0.541,1.33
		l-0.358,1.315l-0.23,0.542l-0.367,0.466l-0.495,0.286l-0.563,0.142l-0.854,0.084l-1.571,0.405l-0.598,0.082v-0.233l1.024-0.443
		l0.939-0.548l0.808-0.626l0.609-0.681l-0.094-0.417l0.12-0.576l0.43-1.076l0.151,0.104l0.376,0.151l0.1-0.334l0.353-0.686V118.6z
		 M463.834,115.008l0.245-0.156l0.134,0.05l-0.009,0.258l-1.255,2.729l-0.222,1.161l-0.35,0.936l-0.706-0.108l0.373-0.146
		l0.048-0.233l-0.091-0.329l-0.068-0.442l0.111-0.372l0.492-0.488l0.114-0.421l0.057-0.839l0.071-0.317l0.111-0.273l0.128-0.184
		L463.834,115.008z M462.411,111.411l0.791-0.275l0.105,0.07l-0.162,0.461l-0.393,0.453l-1.152,0.798l-0.358,0.565h-0.282
		l-0.521-0.122l-0.7,0.76l-1.169,1.643l-0.387,0.212l-0.851,0.329l-0.435,0.25l-1.195,1.021l-0.552-0.451l0.236-0.839l0.512-0.933
		l0.287-0.741l0.068-0.432l0.313-1.057l0.171-1.138l0.236-0.003l0.256,0.308l0.102-0.027l0.037-0.317l0.168-0.208l0.316-0.07
		l-0.154-0.259l-0.034-0.578l0.06-0.963l0.088-0.457l0.091-0.23l0.128-0.159l0.134-0.058l0.137-0.006l0.142,0.034l0.148,0.076
		l0.359,0.289l0.808,1.033l0.233,0.166l0.233,0.046l0.179,0.102l0.077,0.327l0.009,0.305l0.034,0.226l0.083,0.175l0.131,0.165h0.222
		l0.239-0.142L462.411,111.411z M470.555,105.838l0.074,0.09l0.091,0.151l0.04,0.144l-0.08,0.064l-0.27,0.052l-3.423,1.486
		l0.102-0.096l0.401-0.501l2.032-1.234l0.572-0.229L470.555,105.838z M472.484,104.727l4.533-0.513v0.234l-1.357,0.889l-0.535,0.215
		l-0.279-0.312h-0.219l-0.265,0.142l-2.382,0.834l-0.458,0.07l0.085-0.387l0.159-0.429l0.188,0.376l0.051,0.162l0.154-0.306
		l0.205-0.226l0.265-0.154l-0.72-0.041l-0.885,0.189v-0.231l1.161-0.368L472.484,104.727z M510.031,499.568l0.575,0.512l0.25,0.708
		l-0.188,0.525l-0.72-0.048l-0.35-0.367l-0.148-0.557l0.122-0.52L510.031,499.568z M525.794,426.402l0.27,0.685l0.137,0.429
		l-0.168,0.461l-0.569-0.184l-1.278-0.901l-0.205-0.292l-0.213-0.248l-0.427-0.112l-0.393-0.284l0.29-0.49l0.905-0.109l0.794,0.118
		l0.498,0.144l0.253,0.366L525.794,426.402z M455.036,125.871l0.404,0.262l0.114,0.228l-0.031,0.505l-0.117,0.065l-0.174-0.239
		l-0.222-0.122l-0.282,0.049l-0.37-0.189l-0.285-0.654l-0.037-0.53l0.137,0.003l0.424,0.493L455.036,125.871z M455.474,123.553
		l0.356,0.12l0.099,0.228l-0.085,0.149l-0.1,0.105v0.084l0.003,0.079l-0.074,0.091l-0.467,0.212l-0.239,0.035l-0.23-0.049
		l-0.242-0.189l-0.373-0.472l-0.102,0.073l-0.179-0.058l-0.103-0.238l0.046-0.186l0.188-0.079l0.239,0.082l0.185,0.084l0.145-0.044
		l0.367-0.049L455.474,123.553z M470.982,118.42l0.575-0.398l0.495,0.087l-0.122,0.5l-0.293,0.302l-0.595,0.853l-0.339,0.031
		l-0.04-0.658L470.982,118.42z"/>
</g>
<g id="Copyright">
	<text transform="matrix(1 0 0 1 681.6426 577.5916)" class="st1 st2"> Vemaps.com</text>
</g>
</svg>
