<?xml version="1.0" encoding="utf-8"?>
<!-- Generator: Adobe Illustrator 23.0.1, SVG Export Plug-In . SVG Version: 6.00 Build 0)  -->
<svg version="1.1" xmlns="http://www.w3.org/2000/svg" xmlns:xlink="http://www.w3.org/1999/xlink" x="0px" y="0px"
	 viewBox="0 0 800 600" style="enable-background:new 0 0 800 600;" xml:space="preserve">
<style type="text/css">
	.st0{fill:#808080;}
	.st1{font-family:'Roboto-Regular';}
	.st2{font-size:14px;}
</style>
<g id="Samoa">
	<path class="st0" d="M349.983,206.297l1.903,5.989l1.052,6.081l0.425,13.039l2.552,10.828l4.881,6.59l3.157,7.143l-2.732,12.536
		l-5.53,8.803l-6.314,6.914l-5.15,8.159l-2.105,13.092l1.634,13.002l-0.336,5.856l-3.358,2.49l-13.053-0.138l-5.754-1.245
		l-5.799-2.767l-8.665-7.469l-4.5-5.579l-5.418-2.951l-11.486,0.83l-27.628,10.051l-85.033,9.268l-5.351-3.827l-5.642-7.562
		l-4.388-4.38l-8.933-4.933l-4.276-3.412l-1.836-4.979l-1.142-5.209l-5.172-11.34l-1.187-6.868l-2.754-6.821l-6.515-4.286
		l-7.478-2.996l-5.776-3.318l-11.821-18.525l-7.12-8.663l-14.239-5.529l-5.575-4.239l-8.396-7.832l-1.724-2.81l-0.627-5.943
		l-1.41-3.04l-3.134-1.75l-7.276,0.645l-2.888-0.967l-6.291-7.508l-8.418-12.989L30,165.395l8.821-5.526h18.807l20.486,7.737
		l18.672,0.553l12.224-1.75l13.008-7.184l6.247-1.658l12.18-1.105l6.963-1.75l14.844-7.644l6.381-2.21h43.345l11.217-1.75
		l23.24-7.874l12.695-2.348l11.956,0.092l12.135,2.21l11.888,5.433l11.15,9.67l31.77,36.66l0.492,2.395l-0.94,6.403l0.448,2.488
		l2.888,2.534l6.717,2.764L349.983,206.297z M700.348,408.46l24.65-2.63l27.583,13.98L770,440.623l-5.776,17.815l1.59,2.215
		l2.508,5.908l-13.993,0.554l-38.934-4.062l-23.262,2.169l-10.792-0.969l-11.374-5.816l-8.978,4.893l-9.135-0.554l-17.396-4.339
		l-8.866,0.831l-23.576,7.293l-5.664-0.185l-4.814-1.569l-3.314-3.139l-1.254-4.754l-2.306-4.846l-5.418-2.308l-11.038-2.538
		l-9.784-5.261l-8.664-3l-8.866-0.738l-21.695,2.908l-9.694-0.323l-8.53-3l-7.903-6.091l-11.508-18.319l-5.776-6.736l-5.284,1.799
		h-3.761l-9.605-13.841l-6.448-4.014l-12.448-1.522l-11.217-5.121l-1.455-11.993l4.433-13.099l6.359-8.809l43.39-15.771l46.771-7.47
		l25.12,1.153l23.24,5.164l78.182,31.037l23.822,2.767l11.978,4.382l9.672,7.288l5.575,10.472l-0.896,5.767l-3.672,3.414
		l-2.351,3.829L700.348,408.46z"/>
</g>
<g id="Copyright">
	<text transform="matrix(1 0 0 1 681.6426 577.5916)" class="st1 st2">© Vemaps.com</text>
</g>
</svg>
