<?xml version="1.0" encoding="utf-8"?>
<!-- Generator: Adobe Illustrator 23.0.1, SVG Export Plug-In . SVG Version: 6.00 Build 0)  -->
<svg version="1.1" xmlns="http://www.w3.org/2000/svg" xmlns:xlink="http://www.w3.org/1999/xlink" x="0px" y="0px"
	 viewBox="0 0 800 600" style="enable-background:new 0 0 800 600;" xml:space="preserve">
<style type="text/css">
	.st0{fill:#808080;}
	.st1{font-family:'Roboto-Regular';}
	.st2{font-size:14px;}
</style>
<g id="Yemen">
	<path class="st0" d="M611.958,79.415l0.436,1.038l1.744,4.147l2.64,6.294l2.64,6.293l2.64,6.286l2.633,6.286l2.64,6.278
		l2.646,6.278l2.63,6.276l2.643,6.267l2.643,6.264l2.637,6.269l2.64,6.255l2.646,6.255l2.64,6.252l2.63,6.248l2.64,6.248l2.64,6.242
		l1.958,4.626l-0.115,0.033l-0.325,0.043l-0.096,0.033l0.912,0.581l2.321,0.134l1.058,0.381l0.65,0.891l2.391,5.407l3.851,8.743
		l3.858,8.73l3.864,8.731l3.852,8.701l-0.02,0.011l-1.285,0.671l-2.922,0.796l-2.279-0.561l-0.678,0.634l-0.723,0.131l-0.718,0.042
		l-0.633,0.351l-1.18,1.226l-0.693,0.519l-1.521,0.493l-2.109,1.241l-2.591,0.503l-1.25,0.555l-2.264,1.377l-0.944,0.409
		l-8.586,2.267l-4.017,1.895l-6.919,4.889l-6.281,5.148l-1.597,1.757l-0.818,1.281l-1.115,2.243l-2.018,2.379l-0.447,0.711
		l-0.271,0.802v0.661l0.156,0.779l0.191,0.614l0.105,0.18l-0.467,1.184l-1.386,1.596l-0.633,2.623l-1.486,1.755l-0.276,1.17
		l0.487,1.225l0.864,1.439l0.562,1.493l-0.683,2.641l0.994,0.958l2.023,1.041l0.055,0.95l-0.507,4.566l0.271,2.804l0.602,2.707
		l0.437,0.391l0.281,0.331l0.126,0.37l-0.065,0.394l-0.326,0.579l-0.065,0.321l-0.055,0.524l-0.186,0.485l-0.321,0.362l-0.472,0.138
		l-1.341,0.159l-9.369,2.656l-0.517,0.44l-0.447,0.469l-0.357,0.294l-0.542,0.164l-0.944,0.089l-0.612,0.141l-4.85,1.905l-2.4,1.524
		l0.05,1.417l-0.05,0.279l-0.146,0.081h-0.151l-0.075,0.042l0.03,0.74l-0.201,0.094l-0.341-0.206l-0.372-0.154l-0.452-0.245
		l-0.482-0.432l-0.582-0.154l-0.778,0.594l-0.447,0.234l-3.123,0.648l-4.865,2.698l-0.783,0.771l-0.316,0.914l0.346,1.247
		l0.542,0.682l-0.005,0.429l-1.305,0.482l-6.527,0.625l-1.17,0.393l-1.054,0.562l-0.934,0.64l-1.481,1.749l-1.235,0.076
		l-0.477,0.198l-0.181,0.398l-0.688,0.034l-3.113,1.384l-0.874,0.531l-1.566-0.51l-1.727,0.703l-1.607,1.051l-1.21,0.541
		l-12.276,3.335l-13.481,2.538l-11.713,3.286l-6.627,0.634l-5.834,2.436l-1.672,0.959l-4.574,3.965l-0.939,0.548l-2.515,0.465
		l-3.605,1.935l-3.966,2.797l-0.894,0.055l-1.16-0.467l-1.531,0.356l-2.596,1.184l-1.17,0.348l-0.532,0.094l-0.613,0.031
		l-0.372-1.319l-0.371-0.725l-0.542,0.065l-0.924,0.312l-3.941,0.358l-8.857,2.973l-13.601,3.502l-7.26,4.064l-2.631,1.061
		l-2.802,0.454l-1.255,0.638l-2.425,1.723l-5.176,2.392l-2.385,1.702l-0.512,2.038l-0.617-0.106l-0.934-0.5l-1.215-0.418
		l-1.451,0.156l-1.28,0.677l-0.914,0.861l-3.078,4.444l-1.12,2.245l-0.597,2.646l0.477,0.327l0.035,0.728l-0.156,0.751l-0.146,0.409
		l-0.748,0.503l-2.53,1.036l-0.547,0.396l-0.361,1.523l-0.879,0.547l-1.115,0.215l-1.019,0.521l-0.286,0.451l-0.121,0.549
		l-0.015,1.432l-0.196,0.342l-0.437,0.342l-0.427,0.427l-0.643,1.761l-1.064,0.684l-2.325,1.005l-3.66,4.597l-1.16,0.694
		l-0.356,0.119l-0.733,0.554l-0.372,0.197l-0.402,0.075l-0.482-0.075l-7.2-0.155l-1.029,0.352l-2.756,2.409l-0.592,0.233
		l-0.512,0.031l-0.492,0.111l-0.542,0.494l-1.13-1.379l-2.164-0.393l-4.76,0.034l0.181,0.248l0.281,0.621l-2.561,0.047l-7.124,2.083
		l0.301-1.542l-0.989-1.004l-1.376-0.701l-0.919-0.66l-0.422,0.473l-1.702-0.82l-5.498-1.351l-0.939,0.518l-3.273,1.001
		l-1.074,0.178l-0.854,0.585l-3.133,3.798l-2.812,1.474l-9.484,3.259l-1.331,0.89l-5.026,5.341l-7.908,7.055l-2.335,1.473
		l-14.274,4.396l-15.73,3.321l-5.407,3.615l-7.621,2.917l-1.039,0.196l-1.23-0.181l-2.199-0.681l-1.451-0.005l-1.31,0.366
		l-2.671,1.156l-1.245,0.245l-12.773-0.034l-2.681-0.439l-1.341-0.738l-0.818-0.269l-0.362,0.336l-0.281,0.15l-1.642,0.521
		l-5.317,0.867l-10.533,0.472l-1.075,0.248l-2.018,0.833l-0.909,0.181l-2.591-0.119l-1.13,0.113l-0.738,0.477l-8.495,1.904
		l-2.079,1.084l-5.935,6.1l-1.692,1.266l-0.884,0.89l-0.783,2.351l-2.922,3.751l-1.918,1.786l-2.33,1.041l-10.594,2.597
		l-2.435,1.301l-2.214,1.924l-0.844,1.067l-0.311,0.551l-0.351,0.628l-0.035,0.098l-0.407,1.102l-0.161,1.128l-0.105,0.18
		l-1.451,3.764l-0.131,0.633l0.331,2.567l-0.211,0.919l-1.19,0.363l-1.331-0.224l-1.426-0.592l-0.944-0.829l0.1-0.95l1.014-0.389
		l1.255,0.108l1.075-0.121l0.452-1.089l-0.241-0.023l-0.944-1.254l-0.08-0.258l-0.12-0.242l0.09-0.286v-0.234l-0.392-0.098
		l-0.361,0.129l-0.05,0.281l0.05,0.296l-0.06,0.154l-0.437,0.736l-0.196,0.129l-0.311-0.064l-0.577-0.296l-0.376-0.067l-1.386,0.072
		l-0.648,0.196l-0.276,0.376l-0.432,0.973l-1.009,0.834l-1.14,0.206l-0.834-0.932l-0.813,0.469l-0.256,0.551l0.271,1.573
		l0.467-0.409l0.372-0.098l1.903,0.196l0.286,0.221l-0.12,0.757l-0.382,0.71l-0.894,0.723l-1.044,0.435l-0.803-0.142l-1.772-0.718
		l-0.542-0.34l-0.367-0.517l0.005-0.291l-0.146-0.219l-0.793-0.309l-1.516-0.147l-1.25,0.425l-2.289,1.49l-0.065-0.286l-0.236-0.368
		l-0.12-0.25l0.286-0.646l-0.392-0.86l-0.763-0.857l-0.818-0.62l-2.546-0.917l-2.576-0.103l-2.335,0.505l-1.848,0.904l-3.263,2.772
		l-3.515,3.788l-0.131,0.342l-0.452,0.772l-0.492,0.368l-0.231-0.877l-0.296-0.077l-1.451,0.563l-1.798,0.443l-3.996,1.919
		l-1.371,0.139l-1.235-0.139l-1.16,0.021l-2.305,1.235l-1.361,0.062l-1.215-0.432l-0.703-0.885l0.838,0.07l1.511,0.293l0.854,0.069
		l0.522-0.437l-0.025-0.834l-0.422-0.52l-0.708,0.494l-1.617-0.208l-1.983,0.795l-3.64,2.001l-1.767,0.468l-1.024,0.039
		l-1.567-0.533l-1.868,0.792l-0.934,0.098l-1.185-0.767l-1.09-2.223l-0.904-0.463l-1.27-0.178l-1.014-0.448l-1.737-1.142
		l-0.994-0.491l-1.16-0.412l-1.29-0.286l-1.376-0.108l-0.843-0.293l-2.365-1.397l-1.235-0.468l-2.184,0.044l-0.582-0.26l-0.939-0.69
		l-0.603-0.301l-0.557-0.124l-0.793,0.311l-3.515,3.533l-0.321,0.324l-0.854,0.455l-1.295,0.162l-1.401-0.208l-0.356-0.597
		l1.17-5.065l0.045-2.446l-0.542-2.186l-1.25-2.024l-1.868-1.746l-0.241-0.649l-0.196-0.788l-0.437-0.51l-0.437-0.41l-0.196-0.489
		l-0.085-1.247l-0.241-1.193l-0.402-1.113l-0.572-1.007l-2.179-2.5l-0.347-0.745l-0.09-0.492l-0.753-1.495l-0.587-1.614l-0.256-0.51
		l-3.7-4.651l-1.391-4.511l0.818-1.981l0.537-2.144l0.367-11.266l1.26-1.97l0.236-0.571l0.111-0.478l0.261-0.398l0.658-0.331
		l-0.813-2.002l0.206-4.41l-0.271-2.256l-2.038-3.91l-0.271-0.677l-0.638-5.212l-0.362-0.577l-4.047-4.357l-1.39-3.392l-1.303-2.871
		l-1.391-2.001l-0.695-4.786l-0.522-2.264l-0.609-1.916l-1.132-3.224l-1.759-5.912l-0.497-1.278l-0.301-1.975l-0.778-1.84
		l-0.221-2.033l-0.161-0.576l-0.347-0.353l-1.13-0.827l-0.251-0.366l0.115-0.757l0.296-0.311l0.462,0.114l0.628,0.519l0.648,1.265
		l0.738,2.912l0.949,0.809l0.03-1.848l-0.121-0.861l-0.371-0.775l0.904-2.627l-0.683-2.119l-1.205-1.93l-0.663-2.062l0.135-0.459
		l0.572-0.651l0.135-0.376l-0.07-0.392l-0.156-0.184l-0.156-0.109l-0.266-0.776l-0.422-0.322l-0.422-0.208l-0.186-0.223
		l-0.146-0.327l-0.301-0.309l-0.301-0.428l-0.467-2.175l-0.06-0.706l-0.673-2.243l-2.942-3.739l-0.673-2.311l-0.126-1.335
		l0.105-0.696l0.482,0.109l0.286,0.499l-0.105,0.426l-0.191,0.504l0.01,0.709l0.442,1.184l0.748,1.301l0.999,1.158l1.175,0.753
		l0.07-0.922l0.392-2.127l-0.05-1.299l-0.658-2.286l-0.271-2.115l-0.316-0.79l-0.527-0.676l-1.571-1.523l-0.673-0.826l-0.437-1.063
		l-0.166-1.513l0.301-3.447l-0.301-1.11l-0.828-1.058l-2.164-0.98l-1.978-1.722l-1.245-0.812l-1.356-0.666l-1.315-0.479
		l-1.366-0.317h-1.225l-0.894,0.541l-0.341,1.306l-0.678,0.18l-1.401-0.531l-1.215-1.064l-0.08-1.421l-0.407-0.887l0.693-0.07
		l2.053,0.479l1.054-0.156l0.673-0.437l0.376-0.674l0.196-0.874l-0.06-0.674l-0.633-0.947l-0.151-0.783l1.607-3.017l0.502-0.693
		l0.321,0.82l-0.156,1.054l-0.447,0.989l-0.522,0.63l1.18,0.547l0.939,0.591l2.5,2.139l0.301,0.455l0.131,0.833l-0.166,1.194
		l0.211,0.419l0.798,0.369l0.06-0.515l-0.08-0.336l-0.181-0.237l-0.221-0.219l0.924-0.989l0.372-1.444l-0.136-4.896l-0.587-2.265
		l-0.994-1.804l-0.251-0.898l0.03-0.695l0.141-0.664l0.08-0.802l-0.045-0.753l-0.136-0.737l-0.251-0.771l-0.884-1.602l-2.51-3.455
		l0.131-0.524l0.743-0.899l-0.587-0.639l-0.557-0.753l-0.407-0.889l-0.166-1.058l0.648-2.273l-0.151-0.954l-1.341-0.472l0.452-0.983
		l0.618-0.543l0.728-0.443l0.763-0.657l0.512-0.652l0.251-0.558l0.07-0.686l0.02-1.01l0.321-1.795l0.823-1.242l1.09-0.877
		l1.13-0.699l1.125-0.937l0.638-1.128l0.276-1.464l0.522-8.782l-0.196-2.929l-1.687-9.023l-0.241-4.781l-0.075-0.445l-0.361-1.324
		l0.05,0.047l0.03-0.188l-0.005-0.322l-0.075-0.377l-0.181-0.337l-0.502-0.654l-0.075-0.149l2.951-1.046l2.168-0.927l1.588-1.11
		l0.529-1.03l-0.07-1.04l-0.166-0.977l0.236-0.841l0.657-0.286l2.398-0.445l0.905-0.326l2.697-1.603l1.333-1.004l0.771-1.104
		l1.594-4.205l0.249-1.218l0.083-1.361l0.306-0.885l0.791-0.336l1.543,0.289l2.477,0.759l1.052-0.2l0.376-1.201l-0.024-0.102
		l-0.365-1.506l-0.561-0.982l-0.134-0.885l0.886-1.338l0.555-0.403l0.568-0.25l0.465-0.34l0.262-0.676l-0.083-0.836l-0.418-0.699
		l-0.634-0.5l-2.289-0.639l-0.711-0.586l-0.746-2.355l-1.301-2.515l-0.242-1.093l0.414-1.603l0.995-2.49l0.268-1.237l0.006-1.407
		l-0.351-1.424l-0.485-1.074l-0.249-1.041l0.363-1.338l1.294-2.555l0.351-1.311l-0.057-1.492l0.376-1.275l1.279-1.021l1.632-0.698
		l1.409-0.32l1.384-0.688l0.22-1.295l-0.638-1.386l-1.212-0.932l-3.526-1.169l0.175-0.297l2.965-3.664l5.375-4.645l5.426-3.423
		l1.349-0.518l1.361-0.187l1.122,0.264l2.098,0.084l1.001,0.261l4.546,1.972l2.621,1.561l4.304,4.848l2.55,2.031l1.234,0.438
		l1.119,0.01l2.308-0.264l2.442,0.22l1.078-0.05l1.447-0.434l0.367,0.17v0.708l-0.159,1.286l0.245,0.518l0.204,0.311l0.367,0.197
		l0.73,0.16l1.454-0.217l0.963-0.958l0.791-1.262l0.937-1.116l1.333-0.712l1.052,0.117l2.369,1.226l1.604,0.234l1.18-0.551
		l0.937-1.162l0.902-1.6l0.909-0.655l1.256,0.16l2.602,0.758l1.173-0.08l4.738-1.106l5.971-0.632l3.765,0.147l4.234,0.879
		l1.738-0.104l3.867-1.47l1.345-0.297l12.498,0.084l7.616,0.053l1.534,0.011l10.368,0.074l3.501,0.712l10.03,5.876l2.818,0.935
		l13.075,1.352l15.332,1.579l11.669,1.205l14.972,1.546l10.196-1.415l13.709-1.9l2.289,1.332l3.985,5.574l4.565,6.385l5.216,7.272
		l0.781,0.5l0.865,0.037l8.129,0.353l2.009-0.283l1.824-0.74l7.569-4.451l7.033-4.125l0.061-0.083l1.813-2.439l4.126-11.412
		l2.917-8.064l1.043-2.002l6-7.529l9.207-11.56l9.753-12.276l5.602-7.026l4.785-6.037l1.387-0.975l7.907-4.069l10.598-5.446
		l11.822-6.085l10.585-5.443l8.869-4.566l2.748-1.421l5.736-2.107l7.961-1.134l9.883-1.403l9.883-1.403l9.883-1.403l9.877-1.404
		l9.883-1.404l9.883-1.407l9.883-1.401l9.883-1.404l9.874-1.41l9.893-1.401l9.877-1.405l9.877-1.407l9.883-1.405l9.883-1.405
		l9.883-1.407l9.883-1.406L611.958,79.415z M690.292,519.963l1.218-0.475l1.161,0.094l0.69,0.345l0.628,0.219l0.125,0.439
		l-2.022-0.151l-0.89-0.066L690.292,519.963z M678.246,516.579l0.944-0.001l0.898,0.64l0.256,1.025l-0.043,0.897l-0.898,0.256
		l-0.94,0.128l-1.839-0.725l-1.238-1.067l-1.323-0.384l0.213-0.598l0.94-0.299l0.808,0.086l0.642-0.257l0.684-0.043L678.246,516.579
		z M631.119,514.944l1.862,0.792l3.412-0.778l0.914,0.211h0.005l0.316,0.627l-0.816,0.302l-0.639,0.693l0.482,0.371l0.588,1.062
		l-1.757-0.315l-0.745,0.161l-1.069,0.323l-2.832-0.524l-2.742-0.151l-0.321-0.531l-0.658-0.949l-0.387-0.018l-0.392-0.018
		l-1.3,0.396l-0.668,0.113l-0.251-0.221l-0.693-1.022l-0.136-0.308l-0.331,0.075l-1.253-0.524l-0.798,0.162l-0.706,0.211
		l-0.402-0.326l-0.246-0.203l-2.056-0.946l-0.27-0.85l0.904-0.269l0.945-0.128l1.502,0.014l1.81,0.42l1.919,1.323l1.33,0.473
		l1.01-0.056l1.808,0.313L631.119,514.944z M84.49,485.064l0.818,0.414l0.1,0.216l0.316,0.684l-0.095,0.906l-0.718,0.412
		l-0.427-0.16l-0.723-0.762l-0.356-0.376l-0.718,0.177l-0.432-0.203l-0.161-0.839l0.462-0.283l0.542-0.142L84.49,485.064z
		 M765.704,493.296l1.621-0.212l1.182-0.728l0.663,0.077l0.831,0.441l-0.763,0.809l-1.844,0.504l-1.327,0.434l-1.178,0.214
		l-0.664,0.51l-0.122,1.67l-2.612,1.106l-2.078,0.484l-2.498,1.018l-2.766-0.242l-2.307,0.869l-0.522,0.527l-1.155,1.63
		l-0.557,0.355l-1.597,0.712l-1.782,1.434l-0.892,0.535l-1.838-0.156l-2.868,0.206l-1.029-0.152l-1.028,0.291l-1.397,1.169
		l-1.376-0.46h-0.015l-0.969-0.298l-1.894,0.449l-2.641,0.433l-7.411,1.449l-2.788,0.288l-3.593-0.374l-3.372-1.033l-2.845-0.752
		l-1.243-1.249l-0.988-1.224l-1.014-1.249l-0.859-1.439l-1.62-0.559l-2.56-1.692l-6.394-4.017l-1.511-1.399l-0.176-0.363
		l0.542-0.435l1.654,0.485l1.265-0.146l1.328-0.784l0.301-0.219l0.105-0.561l0.522-1.134l0.221-0.661l-0.441-3.694l0.908-0.358
		l1.067-0.206l2.594-0.382l0.586-0.956l0.663-0.954l0.589-0.661l1.177-0.145l3.382,0.669l2.001,0.24l1.464-0.147l1.531-0.155
		l2.422,2.212l4.25,3.166l2.787,0.74l2.347,0.594l1.252-1.538l0.592-1.54l1.69-0.363l1.174,0.15l1.095,0.52l2.058-0.289l2.132,0.079
		l2.285-1.316l0.81-0.291l1.475-0.951l0.67-0.802l1.627-0.142l0.793,0.806l0.88,0.664l1.319,0.814l0.961-0.218l0.742-0.44
		l0.311,0.152l0.628,0.715l0.497,0.571l1.145,0.039l1.401,0.286l0.575,0.974l0.957,0.371l2.135,0.964l2.509,0.525l2.507,1.409
		l1.304,0.403L765.704,493.296z M40.704,417.329l2.621-1.876l1.285-0.494l0.763,0.636l-0.191,1.22l-1.873,1.995l-0.457,1.359
		l-0.628,0.602l-3.414,1.563l-0.005,0.003l-0.136-0.775l-0.03-0.158v-0.005l0.477-1.313L40.704,417.329z M43.235,396.86l0.452-0.435
		l1.737,2.184l0.372,0.893l-0.01,0.691l-0.833,2.349l-0.09,1.992l0.12,1.099l-0.422,0.427l-1.707-0.046l0.833-1.774l-1.295-0.502
		l-1.546-0.817l-0.557-0.512l-0.728-0.668l-0.09-0.274l-0.452-1.33l0.552-0.96l1.245-1.126l1.416-0.901L43.235,396.86z
		 M35.568,308.76l-1.582,1.034l-0.196,0.414l0.266,0.104l0.03,0.302l-0.241,0.396l-0.562,0.432l-0.879,0.448l-0.196,0.323
		l0.678,0.135l0.808-0.227l0.793-0.453l0.597,0.091l-0.005,0.781l-0.733,2.455l-0.171,0.857l0.126,0.534l-0.136,0.5l-0.301,0.289
		l0.06,0.117l0.361-0.117l-0.07,0.383l-1.245,1.876l-0.723,0.671l-0.853-0.042l-0.678-0.557L30,318.43l0.01-1.442l0.633-1.567
		l0.171-3.296l0.743-1.096l0.788-0.812l0.597-0.508l0.251-0.539l0.271-0.456l1.356-0.708l0.442,0.198L35.568,308.76z"/>
</g>
<g id="Copyright">
	<text transform="matrix(1 0 0 1 681.6426 577.5916)" class="st1 st2">© Vemaps.com</text>
</g>
</svg>
