<?xml version="1.0" encoding="utf-8"?>
<!-- Generator: Adobe Illustrator 23.0.1, SVG Export Plug-In . SVG Version: 6.00 Build 0)  -->
<svg version="1.1" xmlns="http://www.w3.org/2000/svg" xmlns:xlink="http://www.w3.org/1999/xlink" x="0px" y="0px"
	 viewBox="0 0 800 600" style="enable-background:new 0 0 800 600;" xml:space="preserve">
<style type="text/css">
	.st0{fill:#808080;}
	.st1{font-family:'Roboto-Regular';}
	.st2{font-size:14px;}
</style>
<g id="Albania">
	<path class="st0" d="M455.606,172.279l-3.425,2.099l-0.126,3.023l-0.041,0.981l1.072,4.563l0.228,2.554l0.106,1.181l-0.877,1.583
		l-3.133,3.09l-1.323,1.755l-1.086,2.403l-0.39,1.903l1.072,13.052l0.682,3.848l2.854,8.357l0.011,1.207l0.003,0.371l-0.724,1.87
		l-1.142,1.173l-1.81,1.098l-1.949,0.828l-6.571,1.442l0.501,2.558l-0.39,4.853l0.947,2.677l1.504,0.688l1.03,1.078l1.451,2.788
		l0.261,0.501l0.445,1.384l0.279,2.935l0.264,0.975l0.961,0.817l2.241,0.362l1.016,0.678l1.601,2.284l0.67,1.802l0.151,0.407
		l-0.028,2.431l-0.947,2.997l-1.281,2.449l-1.754,2.225l-1.935,1.187l-1.935-0.612l-0.48,3.519l-0.049,0.356l0.724,5.402
		l2.283,9.668l1.699,4.544l4.984,7.077l2.13,4.151l0.682,4.039l-0.084,3.169l0.947,2.43l2.755,1.294l1.06,0.498l1.838,0.194
		l1.698-0.083l0.349,0.052l1.196,0.179l1.462,1.127l1.378,2.881l2.603,11.663l2.604,10.26l1.949,4.118l1.799,1.533l1.389,1.184
		l3.397,0.755l2.367-0.949l4.483-3.776l2.639-0.653l0.117-0.029l7.114,1.032l6.697,1.999l2.255,2.192l1.1,3.352l0.056,4.731
		l0.237,8.436l-0.821,3.779l-2.325,2.758l1.323,1.085l0.501,1.342l0.264,1.433l0.585,1.332l3.842,3.656l3.578,4.371l1.378,2.497
		l0.877,3.102l0.181,3.486l-0.473,3.256l-1.434,6.171l-0.237,2.044l-0.056,1.475l-0.209,1.384l-0.71,1.787l-0.919,1.008
		l-1.239,0.715l-1.239,1.008l-0.919,1.813l-1.74,0.476l-1.434,0.998l-0.807,1.575l0.098,2.197l-0.39,1.025l-0.445,0.879
		l-1.295,1.839l-3.355,2.297l-3.007-0.741l-3.077-1.473l-3.606,0.073l-1.796,1.208l-0.724,1.491l-0.529,1.692l-1.1,1.811
		l-1.197,0.677l-2.798,0.668l-1.197,1.244l-0.223,1.664l0.585,4.817l0.07,1.846l-0.459,2.184l-0.599,1.462l-1.476,2.768
		l-2.087,5.205l-0.392,0.976l-1.058,0.949l-1.476,0.767l-1.462,1.031l-1.058,1.716l-0.613,4.023l0.279,3.529l-0.028,3.62
		l-1.504,4.211l-0.738,0.592l-1.991,0.611l-0.626,0.966l-0.07,1.084l0.445,1.949l0.042,0.893l0.64,3.269l-0.195,0.801l-2.019,5.726
		l-0.571,1.228l-0.988,0.692l-3.348,1.601l-5.061,2.42l-3.355,0.328l-7.142-1.064l-2.45,0.646l-2.116,1.228l-4.469-0.527
		l-2.562,1.164l-1.796,2.101l-1.531,2.782l-1.128,3.127l-0.571,3.153l-2.228,0.472l-6.725,0.209l-1.629,0.518l0.682,1.372
		l2.019,10.669l0.696,1.053l3.202,3.185l6.209,10.321l0.543,3.045l-1.086,3.498l-2.339,2.428l-2.297-0.263l-2.381-1.44l-5.025-1.938
		l-0.168-0.065l-1.336-0.208l-1.128,0.462l-0.947,1.314l0.334,0.716l0.794,0.743l0.446,1.377l-0.209,0.906l-0.849,2.101
		l-0.153,0.543l0.334,0.58l0.988,1.24l0.237,0.525l0.515,1.53l0.724,0.779l0.404,0.923l-0.404,1.901l-1.852,2.271l-2.506,1.457
		l-2.033,1.972l-0.404,3.835l-1.183-0.723l-1.169-0.371h-1.142l-1.086,0.371l-1.058,1.176l-0.153,1.347l0.056,1.275l-0.473,0.922
		L404.01,570l-2.743-1.275l-3.842-3.481l-6.182-3.256l-5.36-1.737l-4.511-1.52l-2.185,1.382l-0.406,0.164l-0.132,1.026h-0.921
		l-0.734-2.564l0.46-2.907l2.116-5.303l-2.302-0.962l-0.669-0.627l2.05-4.493l2.467-8.769l0.285-2.12l-0.877-3.62l-1.414-1.007
		l-2.094-0.171l-2.971-1.086l-0.197-0.436l-0.033-0.707l-0.153-0.75l-0.537-0.607l-1.842-1.086l-1.348-0.514l-2.302-0.086
		l-1.031-0.707v-1.093l1.995-2.509l1.315-1.33l1.37-0.965l-2.335-2.252l-6.336-12.226l-0.855-2.176l-0.943-1.869l-1.107-0.795
		l-4.308-0.129l-2.138-0.401l-1.458-0.781l1.074-1.081l-3.661-2.521l-0.57,1.153l-0.197,0.516l-0.154,0.852l-0.439-1.583
		l-0.647-0.774l-0.822-0.537l-0.943-0.831l-0.175-0.702l-0.965-2.078l-1.107-1.734l-0.493,0.358l-1.337-1.376l-8.88-2.882
		l-7.455-4.46l-4.319-3.902l-7.608-2.583l-4.451-3.387l-12.815-14.393l-1.502-2.436l-0.658-1.474l-1.82-7.896l-0.987-2.173
		l-4.714-4.685l-1.666-2.253l-0.23-0.706v-0.202l-0.757-0.302v-1.21l3.585-1.872l2.203-0.194l2.105,1.462l4.802,5.882l1.272,1.965
		l1.787,4.187l0.734,2.568l0.307,2.416l1.261,0.777l2.828-0.669l2.828-1.359l1.261-1.215l0.899-16.049l-0.384-2.622l-3.453-2.017
		l-4.626-4.706l-3.694-5.299l-0.669-3.808l0.921,1.104l0.373,1.32l0.351,1.536l1.096-0.325h1.009l2.609,2.985l1.677-0.923
		l0.888-3.317l0.263-4.256l-1.677-3.406l-3.563-1.848l-3.245,0.917l-0.702,4.892l-0.965-2.734l-9.351-13.876l-0.734-1.56l0.669-2.11
		L288,387.07l2.171-1.634l1.688-1.793l1.206-2.776l0.537-2.972l0.143-10.572l0.439-2.882l1.206-1.926l2.489-0.724l1.414-0.659
		l-0.362-1.521l-0.987-1.673l-0.471-1.109l0.592-1.435l0.965-1.442l0.888-1.073l0.384-0.312l-1.074-2.044l-2.039-2.661l-1.337-2.321
		l1.162-0.986l2.039-0.776l2.642-3.831l2.203-1.604l-1.875,2.104l1.129,4.179l-1.096,3.568v3.763h1.009l0.417-2.545l-0.022,0.551
		l0.197,0.602l0.241,1.392l1.776-2.414l7.071-3.437l2.269-2.771l0.23-4.389l-1.414-3.505l-1.776-3.223l-0.811-3.508l-0.461,4.582
		l-1.666,4.109l-3.475,5.34l-0.055-0.784l-0.767-1.059l1.447-1.48l1.546-2.518l0.976-3.259l-0.307-3.711l-0.669-0.879l-2.182-0.915
		l-0.811-0.647l-0.965-1.998l0.088-0.959l0.57-0.836l1.469-13.574l-0.702-2.866l-0.767-1.208l-0.581-1.412l0.099-1.164l2.938-1.332
		l0.46-2.031v-2.417l0.219-2.039l5.492-8.904l0.954-3.426l-0.439-3.632l-1.403-3.129l-2.006-2.211l-2.171-0.832h-2.949l-2.478-0.467
		l-1.71-1.591l-0.636-3.394v-7.413l-0.461-1.593l-1.995-1.863l-0.373-2.061l1.776,2.36l3.004-0.168l2.214-2.492l-0.57-4.613
		l3.19-1.799l3.322-2.743l2.609-3.731l1.074-4.772l-0.329-2.98l-0.943-1.135l-1.458-0.447l-1.875-0.915l-1.94-1.875l-2.16-3.692
		l-1.491-1.913l11.741,1.59l3.815-1.173l1.184-0.366l2.642-6.209h0.921l0.088,1.979l0.504,1.056l0.943,0.176l1.338-0.638
		l-1.074-4.839l-0.658-1.254l-1.14,1.166l-0.614-1.452l-3.969-3.58l2.763-4.887l-0.241-5.646l-0.702-6.038l0.022-3.255l2.456,0.852
		l1.272-2.352l0.11-3.801l-1.096-3.442l-0.866,0.044l-16.126-6.673l-1.93-1.281l-2.456-1.097l-9.143,2.936l-0.116-1.896l0.097-4.731
		l-1.072-1.926l-1.253-1.216l-0.32-0.72l0.083-0.748l-0.07-1.216l0.167-0.903l0.515-0.94l0.32-1.291l-0.863-4.174l0.696-0.655
		l1.1-0.15l0.808-0.674l0.71-3.053l-0.988-1.255l-0.042-0.028l-1.239-2.731l-0.487-3.467l0.153-3.59l0.654-3.117l2.464-5.421
		l-0.32-1.74l-0.336-0.409l-2.017-2.458l-7.713-5.745l-2.116-2.343l-0.014-0.03l-1.337-2.901l0.39-1.926l3.996-4.332l12.906-20.169
		l0.125-0.942l-0.083-2.496l0.264-1.323l1.267-2.986l0.696-1.041l6.892-8.026l1.796-2.99l2.659-1.759l2.2-2.538l1.866-3.058
		l1.629-3.403v-0.028l0.752-2.748l1.615-1.398l1.935-1.115l1.671-1.922l0.752-2.187l0.752-4.796l0.78-2.524l2.256-3.688l3.522-4.181
		l1.362-1.24l2.425-2.209L338.7,30l3.077,1.6l2.074,3.969l1.142,4.668l0.118,1.824l0.119,1.835l-0.237-0.189l-0.626,1.011
		l-1.002,2.16l-0.237,1.29l-0.251,2.764l0.083,1.238l0.46,1.696l2.325,5.661l4.427,3.441l2.283,1.175l2.45,0.302l1.275-0.41
		l0.869-0.279l5.096-3.03l1.239-1.199l0.028-0.028l3.341-2.346l6.571,0.198l3.425-0.996l4.845-6.485l2.896-2.107l3.467,2.013
		l2.785,3.061l6.724,3.726l2.269,2.908h0.028v0.019l0.014,0.033l3.787,9.192l0.738,1.033l1.81,1.759l0.668,1.405l-0.042,1.509
		l-1.392,2.14l-0.167,1.169l0.627,1.141l2.102,1.809l0.78,1.107l0.32,1.409l-0.237,2.463l0.195,1.295l1.169,2.985l1.1,1.238
		l1.601,0.24l9.203-0.221l2.074,0.353l16.651,12.27l2.248,2.434l1.079,1.168l2.576,3.544l5.096,11.108l1.448,4.839l0.348,3.209
		l0.028,5.811l0.821,3.39l4.232,11.147l0.627,3.61l0.668,2.383v2.298l-1.42,3.313l-1.1,1.422l-0.975,0.734l-0.821,0.996l-0.64,2.184
		l0.028,1.314l0.682,2.23L455.606,172.279z"/>
</g>
<g id="Copyright">
	<text transform="matrix(1 0 0 1 681.6426 577.5916)" class="st1 st2">© Vemaps.com</text>
</g>
</svg>
