<?xml version="1.0" encoding="utf-8"?>
<!-- Generator: Adobe Illustrator 23.0.1, SVG Export Plug-In . SVG Version: 6.00 Build 0)  -->
<svg version="1.1" xmlns="http://www.w3.org/2000/svg" xmlns:xlink="http://www.w3.org/1999/xlink" x="0px" y="0px"
	 viewBox="0 0 800 600" style="enable-background:new 0 0 800 600;" xml:space="preserve">
<style type="text/css">
	.st0{fill:#808080;}
	.st1{font-family:'Roboto-Regular';}
	.st2{font-size:14px;}
</style>
<g id="Austria">
	<path class="st0" d="M750.276,170.065l0.903,6.859l-0.513,1.841l-0.209,0.749l-1.594,1.688l-1.604,1.298l-0.722,1.381l-0.511,1.949
		l-2.537,3.669l-0.983,1.97l-0.401,2.09l-0.862,7.803l-0.251,0.921l-0.241,0.434l-0.17,0.664l-0.06,1.604l0.301,0.879l0.752,0.457
		l1.955,0.207l0.552,0.324l1.023,0.845l0.993,1.113l0.441,1.158l-0.221,0.648l-0.381,0.844l-0.18,0.739l0.421,0.302l0.261,0.309
		l0.331,0.731l0.311,0.837l0.12,0.663l0.321,0.859l0.742,0.478l0.882,0.407l1.073,0.979l0.602,0.207l0.361,0.505l0.09,0.633
		l-0.13,1.668l0.04,0.697l1.514,5.231l0.461,2.633l0.01,3.155l0.692,2.266l2.447,2.69l1.334,0.819l1.554,0.24l1.023,0.657
		l1.454,2.655l0.461,0.841l1.263,1.355l-0.993,1.227l-0.501,1.471l-0.552,2.701l0.381,0.24l1.163,0.971l-0.521,2.381l2.226,1.222
		l3.139,1.121l2.266,2.042l-6.087,5.116l1.023,1.191l-0.04,0.899l-0.471,0.906l-0.271,1.242l-0.19,0.243l-0.903,0.617l-0.261,0.412
		l0.1,0.629l0.481,0.292l0.511,0.165l0.201,0.288l-0.401,2.577l-0.561,1.896l-0.963,1.462l-1.594,1.263l-3.359,0.751l-1.213,0.639
		l0.03,1.577l0.612,0.65l2.036,0.945l0.762,0.575l0.933,2.7l0.632,0.915l-1.454,1.624l0.13,2.485l0.652,2.924l0.18,4.713
		l0.481,1.453l0.822,1.099l1.103,0.693l-1.995,0.931l-7.069,0.95l-7.691,1.933l-3.68-0.678l-1.414-3.777l-1.284,1.092l-1.905,3.043
		l-1.073,1.061l-0.852,0.205l-5.465-0.864l-1.043-0.64l-1.083-1.128l-0.742-1.49l-0.361-1.52l-0.522-1.297l-1.223-0.861
		l-7.771-3.038l-4.071-0.515l-3.56,1.618l-0.582,1.394l0.171,1.901l-0.531,1.241l-0.822,0.797l-3.871,2.052l-1.153,1.043
		l-0.642,0.398l-0.451-0.093l-0.481-0.451l-0.561-0.711l-0.712,0.723l-1.474,2.398l-0.852,1.079l1.755,1.016l5.435,2.207
		l2.687-0.603l6.388,2.619l3.199-0.551l2.116,0.975l1.695,2.283l0.822,2.907l-0.542,2.787l1.644,0.929l1.344,1.371l0.752,1.801
		l-0.11,2.213l-1.033,1.834l-2.828,1.195l-1.103,1.198l0.391,5.782l-1.349,1.057l-3.645,2.857l-10.429,4.778l-1.163-1.896
		l-1.294-0.904l-1.213,0.333l-0.983,1.815l0.241,5.494l-0.211,0.422l-0.481,0.252l-0.421,0.385l-0.06,0.847l0.271,0.548l0.441,0.237
		l0.431,0.166l0.261,0.285l2.948,6.201l0.391,2.35l-0.642,1.914l-1.374,1.263l-3.018,1.636v0.015l0.321,2.492l-1.494,3.13
		l0.341,2.357l0.582,0.502l0.772-0.066l0.812,0.077l0.652,0.922l0.03,1.254l-0.792,2.433l-0.03,0.789l1.304,0.862l3.279-1.578
		l1.594,0.155l1.183,1.732l-0.461,1.669l-2.216,2.936l-2.046,1.274l-0.632,2.08l0.722,1.881l1.955,0.655l1.143,0.581l0.341,0.74
		l-0.391,0.78l-1.093,0.703l-4.342,1.769l-1.213,1.096l2.778,0.342l1.384,0.463l1.394,1.287l0.431,1.54l-1.835,0.445l-2.527,0.029
		l-1.614,0.301v0.015l-0.421,0.39l-0.471,0.118l-0.501-0.14l-0.521-0.39l-1.675-1.264l-2.056-0.254l-3.951,0.482l-3.62-0.732
		l-1.324,0.18l-0.923,1.573l-0.421,2.157l-0.782,0.65l-0.963,0.213l-0.983,0.845l-0.251,0.867l0.08,0.79l-0.05,0.863l-0.652,1.036
		l-0.672,0.521l-2.026,0.866l-2.467,1.813l-1.123,1.167l-3.52,4.82l-1.243,1.199l-1.554,0.73l-3.988,2.371l-2.029,1.206
		l-0.348,0.086l-3.964,0.984l-0.571,0.33l-0.943,1l0.09,0.311l0.431,0.315l0.08,1.004l-0.672,4.401l-0.026,0.429l-0.124,2.056
		l0.08,2.481l1.113,3.464l2.066,1.323l1.093,2.19l0.21,3.256l-0.013-0.009l-1.812-2.286l-1.063-0.746l-3.941-0.702l-6.578-3.334
		l-2.697-0.534l-2.697,0.234l-3.719,1.505l-2.859,1.157l-2.567,0.146l-7.43-1.108l-1.564-0.954l-0.301,2.135l0.01,1.817
		l-0.582,1.239l-0.508,0.382l-0.495,0.371l-1.253,0.358l-1.464-0.417l-2.066,0.029l-2.076,0.548l-1.484,1.136l-0.953,2.012
		l-0.052,0.267l-0.259,1.34l-0.359,0.805l-0.263,0.59l-1.805,1.423l-2.908,0.515l-2.196-1.376l-0.45-0.396l-1.726-1.52l-2.858-1.077
		l-5.37,0.282l-12.408,0.652l-3.137-0.339l-6.497-0.701l-1.928-0.208l-2.306-0.249l-5.585,1.797l-3.61,5.168l-1.865-2.686
		l-1.394-0.263l-1.366,0.864l-2.113,1.336l-0.355,0.048l-1.65,0.222l-1.364-0.168l-1.223,0.522l-1.624,2.364l-1.103,2.378
		l-0.753,2.287l-0.711,2.16l-1.021,2.344l-0.784,1.798l-0.542,0.477l-2.146,0.983l-2.487,0.415l-0.862-0.615l-1.614,0.732
		l-0.582,0.67l-0.481,0.958l-1.133,1.372l-0.692,1.74l-0.719-0.13l-0.574-0.103l-0.441,0.116l-1.945,2.038l-1.003,0.655
		l-0.983,0.291l-2.106,0.189l-0.943,0.386l-1.434,2.069l-0.812,2.723l-0.474,1.215l-0.428,1.097l-1.685,0.745l-1.284-1.348
		l-1.093-2.41l-1.324-1.829l-3.349,0.8l-1.625-0.255l-1.338-0.62l-1.661-0.769l-0.541-0.655l-0.311-0.793l-0.461-0.662l-1.033-0.233
		l-3.269,0.72l-11.626-0.333l-8.971-0.257l-0.187-0.051l-1.036-0.283l-5.455-4.72l-1.424-0.717l-1.584-0.473l-1.705-0.044
		l-1.701,0.307l-1.568,0.283l-1.594-0.197l-8.874-4.21l-2.928-0.488l-6.297,1.038l-1.324,0.014l-6.408-1.563l-1.469-0.124
		l-1.514,0.299l-1.464-0.153l-11.742-3.826l-4.121-0.153l-0.742-0.521l-1.374-1.568l-0.672-0.259l-5.916,0.434l-4.242-0.747
		l-9.887,2.118l-3.911-0.197l-2.046-0.824l-6.167-3.803l-7.952-1.846l-22.712-1.638l-5.515-3.61l-2.432-0.82l-0.837-0.282
		l-0.762,0.102l-1.554,0.61l-0.913,0.029l-0.892-0.394l-1.765-1.34l-0.76-0.345l-0.172-0.078l-4.793-0.489l-5.645,0.745
		l-1.424-0.139l-1.604-0.774l-2.998-2.046l-2.935-0.517l-2.329-0.411l-3.941-1.615l-3.359-2.975l-1.835-4.542l-0.852-3.099
		l-1.614-1.043l-2.016-0.278l-2.026-0.783l-0.932-0.659l-0.552-0.556l-0.231-0.959l0.02-1.831l0.261-1.641l0.361-0.982l0.271-1.026
		l-0.03-1.745l-0.893-3.101l-1.534-1.06l-4.081-0.143l-1.324-0.491l-0.592-0.689l-0.531-0.891l-1.103-1.13l-1.083-0.547
		l-2.286-0.411l-1.023-0.418l1.424-1.417l0.01-1.299l-0.672-1.344l-0.632-1.583l-0.592-3.28l-0.421-1.624l-0.642-1.411l1.023-2.492
		l5.876-3.288l2.066-2.807l0.031-1.948l0.029-1.805l-2.286-0.788l-4.607,0.91l-1.64,0.324l-9.827,5.137l-6.919,0.331l-4.282,1.486
		l-4.121,2.236l-3.349,2.669l-4.402,0.706l-1.073,0.691l-1.905,1.561l-1.123,0.261l-1.815-0.691l-3.139-2.337l-1.845-0.191
		l-0.732,0.103l-0.732-0.066l-0.12-0.037h-0.05l-4.994-1.022l-2.306,0.217l-2.818,0.827h-0.01l-0.02,0.015h-0.01l-0.913,0.492
		l-0.913,0.169l-0.882-0.162l-0.812-0.5l-0.511-0.691l-0.562-0.533l-0.632-0.371l-1.705-0.408l-0.973,0.224l-0.862,0.658
		l-0.742,1.106l-0.01,0.015l-3.299,3.201l-2.968-0.151l-3.018-1.477l-3.46-0.757l-6.799,1.139l-6.718,2.189l-1.735,1.043
		l-6.277,6.263l-0.802,1.747l-1.023,4.992l-1.825,4.373l-0.08,0.542l0.11,1.473l-0.17,0.711l-0.421,0.458l-1.073,0.487l-0.401,0.381
		l-2.176,3.735l-1.354,1.431l-1.384,0.194l-1.645-0.553l-3.379-0.333l-1.665,0.234l-3.239,1.098l-0.963,0.073l-0.993-0.413
		l-1.654-1.424L157.389,433l-0.993-0.015l-1.845,0.527l-0.953-0.037l-2.788-1.589l-1.123-0.377l-2.046,0.648l-1.043-0.037
		l-0.582-1.241l0.451-0.699l2.156-1.754l0.471-0.982l-0.943-1.432l-7.42-4.457l-1.494-0.396l-1.715,0.191l-9.867,2.724l-4.021-0.447
		l-3.149-2.562l-0.231-3.029l1.203-4.825l-0.521-2.397l-0.862-1.035l-3.299-2.63l-2.026-3.27l-1.003-1.08v-0.022h-0.01l-0.511-0.334
		l-0.541-0.107l-0.532,0.107l-2.818,1.621l-2.447,2.814l-1.695,3.261l-0.05,2.654l-2.417,0.114l-1.885-0.495l-1.574,0.294
		l-1.474,2.492l-0.461,1.798l-0.08,1.196l-0.261,1.086l-0.993,1.448l-4.232,2.159l-2.507,0.715l-0.658-0.025l-1.347-0.052
		l-4.191-1.349l-2.186-1.268l-3.75-3.576l-10.378-3.357l-2.407-1.85l-1.233-1.755l-0.16-1.333l0.311-1.531l0.241-3.336l0.401-1.36
		v-0.838l-0.371-0.441l-0.602,0.048l-0.411-0.353l0.16-1.621l-18.33-5.797l-1.625-0.246l-5.084,0.633l-1.815-0.482l2.677-3.404
		l0.672-3.704l-0.983-3.636l-2.306-3.229l-2.888-1.711l-0.01-1.239l0.963-2.147l0.1-1.018l-0.832-1.982l-0.923-1.244l-0.431-1.255
		l0.652-1.99l-1.634-1.518L30,364.323l3.118-5.299l3.309-4.001l0.371-0.984l0.501-2.523l0.451-1.284l3.76-4.764l0.943-2.178
		l0.08-6.077l-2.778-2.455l-3.61-1.654l-2.868-4.334l-0.184-0.861l-0.541-2.537l0.233,0.146l0.413,0.114l5.674,1.561l6.217-0.108
		l2.647-1.262l1.404-2.198l1.203-2.615l2.116-2.467l1.404-0.751l1.454-0.164l1.374,0.498l1.133,1.241l0.321,1.702l-0.19,1.75
		l0.371,1.519l1.975,1.025l0.782-0.059l1.193-0.772l0.491-0.134l2.918,1.084l2.888,0.23l1.464-0.29l1.173-0.943l0.271,2.376
		l1.013,1.344l1.213,1.217l0.882,1.933v0.434l0.03,0.438l0.15,0.838l1.063,0.638l0.852-0.371l0.862-0.757l1.103-0.504l4.773,7.008
		l0.852,1.682l-0.451,1.508l-2.206,1.723l1.063,1.244l0.261,1.489l0.09,1.54l0.521,1.37l0.942,0.918l0.652-0.03l0.742-0.551
		l1.273-0.611l0.481,0.063l1.003,0.611l0.501,0.004l0.411-0.318l1.153-1.277l4.262-0.778l1.785,0.966l-0.07,2.58l-1.755,5.297
		l0.221,0.939l0.05,0.858l-0.241,0.954l-0.471,0.466l-1.284,0.384l-0.391,0.27l-0.892,1.615l-0.391,0.894l0.431,0.251l1.463-0.179
		l6.249-0.766l2.116-0.824l4.342-2.672l1.895-1.738l1.745-2.352l2.156-4.347l0.582-0.899l1.003-0.677l2.046-0.715l0.832-0.563
		l1.614-2.151l1.414-2.9l0.882-3.224l-0.02-3.077l-0.401-1.776l-0.521-1.265l-0.832-0.927l-1.364-0.746l0.983-5.727l0.12-1.329
		l-0.642-1.608l-0.842-1.586l-0.14-1.241l1.454-0.576l1.624-0.294l0.742-0.293l0.341,0.267l0.431,1.341l-0.12,0.565l-0.471,0.691
		l-0.361,0.914l0.17,1.233l0.511,0.661l0.792,0.564l1.514,0.698l4.131,0.631l1.143-0.201l1.233-0.995l1.965-2.752l1.344-0.94
		l2.346,0.03l12.805,4.858l0.391,0.453l0.321,0.742l0.481,0.683l0.832,0.252l2.868-0.349l3.911-1.797l1.374-0.393l1.344,0.093
		l1.033,0.587l2.226,1.682l-0.812,0.987l-3.129,2.141l0.662,1.139l4.994,2.322l4.843,5.234l0.291,0.652l0.03,0.963l-0.221,0.993
		l-0.311,0.659l-0.231,0.015l0.993,1.941l1.354,0.792l10.118,0.148l1.895-0.581l6.337-4.401l2.447-0.671l2.076,0.852l-0.211,3.897
		l2.326,0.267l2.116-0.97l1.384-1.489l1.284-1.734l1.875-1.749l1.805-0.578l4.212-0.1l1.574-0.678l0.832-1.423l-0.371-1.068
		l-1.053-0.693l-1.193-0.326l4.573-5.279l2.206-0.52l2.387,0.327l2.196,0.698l4.552-0.757l2.106-0.839l1.765-1.967l0.491-1.329
		l0.762-3.328l0.662-1.523l2.707-2.356l0.331-0.416l1.795,0.06l4.232,0.847l7.902,0.034l5.465,1.126l1.003-0.335l0.973-2.446
		l1.093-0.654l8.142-1.666l22.291,0.974l0.772-0.16l2.768-3.563l0.351-0.919l0.1-1.347l-0.16-3.848l-0.271-0.793l-0.491-0.331
		l-0.792-0.789l-0.712-0.946l-0.311-0.797l-0.19-1.177l1.534-0.626l2.336-1.953l0.842-0.529l1.414-0.622l0.241-0.048l-0.301,0.66
		l-0.251,1.539l-0.341,1.14l-0.622,0.864l-0.321,1.006l0.532,1.59l0.963,0.86l1.053-0.16l2.166-1.136l2.116-0.305l5.605,1.199
		l1.645-0.268l3.81-1.467l1.594,0.313l0.451,0.831l1.013,3.072l0.532,1.18l0.782,0.941l2.888,2.329l1.364,0.673l1.995,0.052
		l2.046-0.402l1.514-0.673l0.925-0.828l3.397-3.042l1.845-0.931l3.46-0.834h3.46l5.445,1.407l1.664-0.216l-1.003,2.516l1.524,1.875
		l2.517,1.667l1.925,1.867l-2.647,1.316l-1.183,3.334l0.511,3.548l2.397,1.939l1.494,0.26l0.913,0.327l0.822,0.661l4.432,4.896
		l4.753,3.598l1.063,0.434l0.822-0.285l0.802-0.438l1.013-0.03l0.932,0.501l0.542,0.571l0.602,0.371l1.043-0.048l0.672-0.586
		l2.767-3.294l-0.03-1.195l-0.251-0.872l-0.311-0.735l-0.221-0.787l-0.08-0.891v-2.503l0.241-0.375l0.923-2.329l0.11-0.208
		l-0.211,0.082l-0.08-3.262l0.261,0.097l1.564-2.059l0.06-0.398l1.153-2.852l0.241-0.312l0.211-1.741l0.06-1.749l-0.271-1.846
		l-0.772-2.092l-1.895-3.254l-1.193-1.449l-1.203-0.909l-1.504-0.242l-2.457,1.084l-1.454,0.25l-5.405-1.01l-1.584-1.613
		l1.805-2.795l0.02-0.015l0.622-1.029l0.171-0.955l0.03-0.925l0.19-0.918l0.532-1.134l6.257-10.071l-0.451-0.456l-2.096-3.139
		l-3.289-7.658l-1.634-1.609l-0.782-0.423l-1.955-2.025l-2.326-1.4l-0.782-1.149l-0.521-1.517l-0.034-0.209l-0.257-1.559
		l-1.454-3.237l-6.829-7.169l-0.902-1.433l-0.862-1.749l-0.491-1.914l0.19-1.96l0.592-1.044l0.622-0.214l0.632,0.03l0.592-0.27
		l1.384-2.175l0.391-0.481l3.861-2.713l1.264-1.458l1.775-2.805l0.882-0.97l1.464-0.786l5.375-1.049l-0.13-0.346l1.504-1.219
		l3.129-1.75l3.61-3.478l1.564-1.118l10.057-4.008l13.367-2.34l3.259-1.828l9.486-8.313l1.354-2.276l0.551-3.1l0.191-0.755
		l0.441-0.755l0.431-1.005l0.201-1.523l-0.181-4.131l0.181-1.361l0.461-1.343l1.304-2.773l0.271-1.427l-0.211-1.287l-0.902-1.412
		l-0.391-2.643l-0.291-0.659l-0.06-0.53l0.531-1.019l0.872-0.811l3.169-1.193l3.249-0.44l10.057,2.819l1.695,0.917l1.574,1.174
		l1.484,2.287l3.976,1.798l0.211,0.223l0.862-3.911l0.822-1.67l0.331,0.076l2.015-0.326l0.772-0.333l0.802-0.799l0.461-0.693
		l1.664-3.615l0.602-1.926l0.301-2.116l0.07-2.466l-0.511-4.744l0.251-1.754l1.294-1.238l-1.213-0.585l-0.481-0.448l-1.033-2.044
		l-0.501,0.182l0.221-1.398l2.898-6.128l3.901,1.05l1.845,1.012l1.765,1.384l2.126,1.771l6.528,3.602l0.852,0.927l1.614,2.484
		l0.622,1.207l0.491,0.463l0.672,0.273l0.582,0.41l0.251,0.896l-0.18,0.918l-0.441,0.137l-0.471-0.091l-0.291,0.213l-0.652,1.374
		l-0.552,0.205l-0.18,0.425l0.451,2.003l0.421,0.804l1.674,2.093l0.812,0.728l3.299,1.387l13.748,1.546l9.626,3.41l0.932-0.106
		l0.762-0.303l1.955-1.572l5.044-2.179l1.534-1.581l2.176-5.79l1.414-0.979l2.326,2.746l3.871,2.033l1.143,0.281l1.454-0.326
		l2.908-1.403l1.494-0.121l0.622,0.55l0.12,0.937l0.01,0.978l0.311,0.618l0.752,0.083l1.484-0.519l0.632,0.14l1.043,1.383
		l0.572,1.38l0.762,0.959l1.594,0.106l1.506-1.51l0.44-0.441l0.491-3.814l-0.05-4.487l0.351-3.966l1.835-2.984l5.104-4.498
		l0.491-2.813l0.973-1.726l0.391-1.787l0.571-1.4l1.464-0.563l5.064,0.7l5.014,2.061l1.965-0.183l1.113-2.579l-0.211-0.266
		l-0.431-0.951l-0.421-1.164l-0.191-0.929l0.16-1.028l0.702-1.858l2.056-9.235l0.01-4.08l-0.401-4.518l0.04-4.207l1.324-3.117
		l-0.09-0.802v-0.688l0.15-0.497l0.311-0.245l2.126-0.275l5.395,1.857l7.551,0.619l0.712,2.086l0.411,2.009l-0.04,2.008
		l-0.642,2.107l1.925,0.038l7.4-2l0.501-0.321l1.344-1.619l0.321-0.779l0.241-1.986l0.391-0.604l0.742-0.008l0.491,0.611
		l0.401,0.733l0.481,0.336l4.542,0.053l2.166,0.619l4.663,2.383l4.312,1.458l2.086,1.198l4.793,4.166l2.225,0.868l5.777,2.252
		l7.531,4.261l2.176,0.518h2.236l1.635-0.518l3.449-1.829l0.842-0.206l2.968-0.008l0.562,0.427l0.391,1.814l0.481,0.754l0.662,0.282
		l1.855,0.137l1.063,0.777l0.722,0.328l0.812-0.053l-0.993,1.318l1.223-0.29l1.093,0.046l0.722,0.663l0.1,1.553l1.644-0.426
		l0.511,0.632v1.02l0.14,0.731l9.757,7.122l5.144,2.236l8.964-0.54l13.567,2.015l0.11-0.099l2.016-0.304l1.283,1.049l0.541,0.175
		l1.524-0.449l1.063-0.996l4.923-8.458l1.685-1.126l2.798,0.411l1.003-0.046l1.755-0.746l0.893-0.122l0.892,0.304l1.654,1.066
		l5.796,1.689l1.795,0.213l1.855,0.753l0.762,1.773l0.361,2.114l0.702,1.741l1.273,0.897l1.544,0.274l3.69-0.152l1.484,0.509
		l3.51,2.333l1.785,0.669l1.865-0.228l3.73-1.33l1.594,0.122l2.296,3.237l1.344,9.724L750.276,170.065z"/>
</g>
<g id="Copyright">
	<text transform="matrix(1 0 0 1 681.6426 577.5916)" class="st1 st2">© Vemaps.com</text>
</g>
</svg>
