<?xml version="1.0" encoding="utf-8"?>
<!-- Generator: Adobe Illustrator 23.0.1, SVG Export Plug-In . SVG Version: 6.00 Build 0)  -->
<svg version="1.1" xmlns="http://www.w3.org/2000/svg" xmlns:xlink="http://www.w3.org/1999/xlink" x="0px" y="0px"
	 viewBox="0 0 800 600" style="enable-background:new 0 0 800 600;" xml:space="preserve">
<style type="text/css">
	.st0{fill:#808080;}
	.st1{font-family:'Roboto-Regular';}
	.st2{font-size:14px;}
</style>
<g id="Barbados">
	<path class="st0" d="M603.659,369.055l-5.615,63.423l-46.011,47.617l-35.948,24.93l-21.073,14.598l-38.209,39.075l-14.073,1.722
		l-11.448-0.15l-11.083,1.946L407.948,570l-17.646-30.391l-33.105-19.014l-40.251-9.507l-23.917-1.722l-14.146-0.973l-24.063-17.144
		l-20.709-40.354l-23.188-81.841l-14.583-248.011l3.573-28.548l12.688-24.128L238.05,42.14L270.425,30l32.959,17.986l24.646,37.318
		l8.604,18.658l12.469,27.123l34.344,74.543l23.625,32.735l33.25,25.542l47.032,36.026l27.125,15.728l35.073,11.459l33.105,15.277
		L603.659,369.055z"/>
</g>
<g id="Copyright">
	<text transform="matrix(1 0 0 1 681.6426 577.5916)" class="st1 st2">© Vemaps.com</text>
</g>
</svg>
