<?xml version="1.0" encoding="utf-8"?>
<!-- Generator: Adobe Illustrator 23.0.1, SVG Export Plug-In . SVG Version: 6.00 Build 0)  -->
<svg version="1.1" xmlns="http://www.w3.org/2000/svg" xmlns:xlink="http://www.w3.org/1999/xlink" x="0px" y="0px"
	 viewBox="0 0 800 600" style="enable-background:new 0 0 800 600;" xml:space="preserve">
<style type="text/css">
	.st0{fill:#808080;}
	.st1{font-family:'Roboto-Regular';}
	.st2{font-size:14px;}
</style>
<g id="Belgium">
	<path class="st0" d="M69.368,142.172l3.467-2.549l6.509-2.169l23.298-17.697l35.688-21.091l34.542-22.825l38.467-12.502l0.077-0.02
		l1.485,10.584l-0.71,6.813l-0.124,6.398l2.43,6.891l4.169,4.585l1.226,0.568l3.972,1.841l5.481,0.645l8.124-1.275l0.497-2.593
		l-0.443-3.472l0.319-3.168l1.88-1.942l2.519-0.631l2.75-0.163l6.83-1.539l4.24-0.248l4.382,0.716l20.985,6.997l3.246,2.14
		l0.887,3.592l-0.284,3.046l0.284,2.861l2.554,3.044l2.129,0.941l20.311-0.255l3.849-1.239l7.823-6.153l21.269-10.742l8.515-6.715
		l6.758-9.259l0.958-2.733l1.277-6.398l0.091-1.15l0.118,0.071l3.241,3.065l1.369,2.729l1.215,5.008l2.836,3.464l3.115,2.726
		l2.095,2.692l0.629,1.742l0.251,1.675l-0.461,1.932l-1.159,1.92l-0.335,0.558l1.997-1.005l1.383-1.541l2.472-5.282l-5.783-2.491
		l-1.341-1.095l-0.671-2.436l0.126-5.946l-0.531-2.862l-1.271-2.203l-2.502-3.101l3.443,0.119l1.541,0.054l6.209,3.388l3.317,1.136
		l8,0.518l3.264-1.74l0.852-4.738l-1.047-2.7l-3.849-4.605l-1.33-2.474l0.124-2.787l1.117-2.148l0.355-1.963l-2.076-2.284
		l8.976-5.259l9.206-3.403l5.073-0.84l2.164,0.399l1.366,2.3l-0.231,4.605l-1.455,3.43l-0.319,2.689l3.282,2.361l2.271,0.213
		l4.949-0.91l5.481,1.387l2.661-0.178l2.306-0.882l1.774-1.323l13.269-16.362L454.24,30l2.484,0.242l3.122,1.197l2.874,1.902
		l1.774,2.336l0.372,4.158l-1.064,3.95l-0.763,4.169l1.242,4.786l-7.486-3.506l-1.934,0.285l-0.976,3.307l3.637,1.578l12.009,0.412
		l3.158,0.853l6.634,3.064l3.707-1.024l4.328-4.23l3.956-5.376l2.679-4.454l1.189-3.387l0.585-2.562l1.029-1.659l2.643-0.684
		l0.479,0.655l5.144,3.431l3.37,6.454l-0.603,4.581l-1.916,4.401l-0.603,5.956l1.1,2.671l5.907,6.563l0.905,2.386l1.756,6.061
		l0.834,1.795l2.962,1.646l6.634-0.582l3.175,0.319l3.016,3.844l0.089,9.769l3.016,0.772l1.109-0.278l5.365-1.345l20.311,0.858
		l3.583-1.325l7.202-5.097l3.388-1.638l3.707,0.425l4.027,2.552l3.175,4.168l1.224,5.314l0.55,6.232l1.008,0.865l2.912,2.498
		l9.721,2.944l2.324,1.642l1.65,1.903l1.863,1.337l2.945-0.028l7.184-1.486l2.2,0.234l2.803,1.684l3.583,4.965l2.288,1.93
		l5.268-1.343l2.927,0.233l1.526,3.485l0.426,1.315l-2.412,2.396l-0.55,3.123l3.903,4.196l-1.579,1.066l-1.738,0.706l-1.845,0.282
		l-1.88-0.205l0.426,1.977l0.266,0.833l0.479,1.101l-1.277,3.748l-0.94,1.941l-1.295,1.771l-2.005-1.722l-1.401,0.868l-0.869,2.646
		l-0.408,3.618l2.324,3.173l-2.714,6.654l-6.759,10.833l3.832-1.042l1.65,0.042l1.667,1l-1.969,3.323l-2.962,6.333l-2.217,3.348
		l-0.816,0.661l-1.987,0.717l-1.987,0.802l-12.382,13.874l0.372,6.082l2.785,4.142l2.869,2.01l0.999,0.7l3.707,1.782l2.679,0.8
		l-0.302,3.199l-1.774,6.227l3.122,1.795l1.863,0.378l1.792-0.364l0.846-1.272l1.85-2.781l1.526-1.178l1.721,0.659l3.512,3.884
		l1.756,1.234l14.883-0.378l1.958,0.623l1.873,0.596l12.453,0.406l3.459-0.645l-0.284,0.505l-0.106,0.491l0.018,0.491l0.248,0.505
		l2.856,1.5l0.089,2.607l-0.639,2.858l0.674,2.269l2.271,0.266l6.794-1.877l2.856,0.266l3.299,3.305L694,263.284l-2.288,1.469
		l2.004,3.887l3.53,1.859l11.85,0.294l0.39,1.621l-1.206,2.404l-1.951,2.375v0.978l-3.832,2.291l-5.41,4.511l-3.157,4.97
		l2.856,3.614l-1.348,2.079l0.231,1.228l1.384,0.586l2.005,0.153l-1.366,2.329l1.384,1.283l1.472,3.081l1.366,1.101l1.703,0.084
		l5.801-1.798l0.372-0.376l0.426-0.139l0.39,0.139l0.39,0.376l2.625,1.255l7.433,1.715l3.122,0.181l-1.916,1.882l-0.426,2.16
		l0.497,2.424l0.94,2.73l1.472,2.437l1.224,0.237l0.656,0.919l-0.124,4.497l-1.224,6.346l-1.188,3.603l0.231,3.185l5.96,10.397
		l0.162,1.709l0.193,2.042l-2.146,2.292l-4.559,0.833l-2.306-0.417l-1.951-0.764l-1.916-0.167l-2.324,1.347l-1.703,2.083
		l-1.135,2.582l-0.355,2.706l0.763,2.415l-3.158,2.858l-7.379,2.081l-3.565,1.692l-1.685,2.607l-3.885,2.759l-1.774,2.329
		l2.288,2.55l0.958,3.048l-0.107,3.02l-1.029,2.535l-1.277,0.831l-3.424,0.277l-1.472,0.914l-0.319,0.886l-0.568,3.004l-0.373,1.315
		l1.739,1.412l0.603,1.647l-0.497,1.799l-1.561,1.84l-2.554-1.148l-0.39-2.117l0.195-2.532l-0.745-2.464l-2.217-2.146l-1.33,0.18
		l-1.1,1.191l-1.49,0.927l-3.903,0.623l-1.933-0.277l-0.755-0.368l-1.516-0.739l-1.047-1.966l-0.568-2.562l-1.1-1.205l-2.643,2.119
		l-3.654,0.388l-1.455,2.478l-0.71,3.668l-1.366,3.847l-2.554,2.67l-6.386,3.14l-2.838,2.6l-0.621,1.701l-0.337,4.34l-0.426,1.824
		l-1.047,1.52l-2.501,2.183l-1.029,1.658l0.195,3.094v2.513l-0.426,2.112l-1.242,1.325l-3.477,1.546l-1.064,1.421l-0.195,3.684
		l1.206,1.49l0.692,1.476l-1.88,3.668l-1.419,1.337l-2.537,0.593l-1.206,0.813l-1.348,1.792l-0.639,1.392l-0.408,1.351l-0.692,1.695
		l-5.943,10.344l-0.692,2.533l2.022,0.977l3.796,2.904l1.596,2.422l-4.506-0.468l0.018,1.541l-0.248,0.798l-0.319,0.619
		l-0.302,0.963l1.65,1.54l-2.04,1.375l-0.763,2.544l0.248,3.175l1.047,3.34l1.809,3.023l1.739,0.852l1.845,0.316l2.182,1.346
		l1.135,1.689l4.044,8.018l0.266,1.249l0.372,3.705l-0.071,0.617l1.1,0.892l2.395,0.727l1.029,0.576l0.958,0.178l1.1-0.37
		l1.118,0.082l0.993,1.577l0.068,0.603l0.162,1.427l-0.639,1.097l-0.834,0.946l-0.266,1.467l-0.089,1.727l-0.514,0.85l-0.248,0.946
		l0.603,1.946l1.171,0.891l3.441,0.397l1.242,1.055l0.958,3.767l-0.958,2.301l-1.703,1.589l-1.366,1.616l-2.2,6.105l-1.366,2.655
		l-1.934,1.833l2.909,1.6l-1.632,4.13l-3.938,4.225l-4.08,1.955l-2.005-0.492l-3.761-2.324l-1.845-0.273l-1.845,0.984l-2.217,2.939
		l-2.129,0.929l-3.708-0.642l-3.69-1.831l-3.867-0.888l-4.275,2.187l-2.04,2.801l-0.39,1.899l-0.568,1.066l-2.537,0.341
		l-1.472-0.396l-5.375-2.514l-3.229,1.448l-4.311,3.401L576.71,570l-3.707-0.983l-1.064-2.349l0.177-2.363l0.55-2.487l0.035-2.76
		l-0.709-2.419l-8.266-15.004l-1.873-1.686l-1.32-1.188l-5.322-1.958l-1.951-1.177l-1.064-0.178l-0.639,0.712l-0.727,1.451
		l-0.905,1.342l-1.224,0.383l-2.856-0.561l-0.834-1.04l-0.408-2.437l0.532-3.752l1.384-0.89l0.78-0.959l-1.188-3.973l-3.317-4.084
		l-3.583-3.564l-3.707,0.096l-7.752,2.166l-3.956-1.165l-3.122-2.331l-2.554-2.482l-7.309-10.619l-2.04-1.963l-6.12-1.771
		l-3.424-1.95l-6.386-6.332l-3.104-1.731l-0.45,0.022l-3.151,0.156l-7.45,2.638l-3.849,0.618l-4.488-0.646l-1.543-2.02l0.035-9.951
		l-0.426-1.581l-1.685-2.792l-0.355-1.334l0.319-1.623l1.525-1.789l0.568-1.39l0.922-3.262l0.869-2.23l0.444-2.299l-0.302-3.471
		l-2.679-4.904l-8.124-3.349l-2.288-3.736l0.745-4.261l6.599-16.491l0.16-2.859l-0.266-2.224l0.195-2.418l3.229-7.118l1.047-0.249
		l1.845,2.018l0.39-4.687l0.922-5.532l0.231-4.691l-1.579-2.09l-5.375,1.121l-1.934-0.817l-0.78-3.987l-4.63,2.132l-18.307,18.591
		l-0.993,2.101l-0.461,2.639l0.408,1.603l0.639,1.34l0.177,1.837l-1.313,8.533l-1.206,4.237l-1.579,3.049l-1.863,1.228l-7.149,1.145
		l-23.93,11.898l-5.091,0.896l-1.28-0.352l-25.754-7.091l-10.581,1.534l-2.546,0.369l-2.306-0.662l-9.615-5.198l0.12,0.011
		l1.246,0.113l-0.213-3.917l-0.94-4.084l-0.816-0.345l0.71-3.147l0.869-2.002l1.242-1.533l3.14-2.941l3.974-2.845l4.115-2.058
		l0.053-1.755l-1.188-2.128l-1.029-2.516l-2.891-11.547l-1.703-0.872l-1.845,0.291l-3.424,1.563l-2.43-1.231l0.408-4.843
		l3.299-10.745l0.922-4.877l0.78-2.19l1.827-2.62l4.044-3.175l1.685-1.941l0.408-2.802l-1.047-1.748l-2.129-1.873l-2.306-1.457
		l-1.543-0.555l-2.146,0.916l-0.089,1.721l0.213,1.845l-1.259,1.249l-3.158-1.484l-4.701-10.117l-3.548-3.18l-3.654-2.125
		l-5.694-6.335l-3.335-1.598l-3.637,0.389l-10.909,4.613l-3.885,0.042l-3.069-1.473l-2.945-2.07l-3.548-1.807l-7.131-0.876
		l-7.486,0.57l-2.324,0.862l-1.384,1.584l-3.086,5.266l-0.745,2.236l-0.461,0.806l-0.781,0.542l-0.284-0.25l-0.248,0.153
		l-0.674,1.736l-6.031-5.666l-1.508-10.992l-0.018-12.561l-1.455-10.414l-2.785-5.085l-3.406-3.275l-3.761-1.882l-3.885-0.822
		l-11.087-0.07l-2.129-1.589l1.667-2.998l0.266-2.176l-1.118-1.409l-2.466-0.753l-2.448,0.195l-1.756,1.158l-1.703,1.716
		l-2.324,1.799l-7.521,2.747l-4.169,0.502l-2.998-0.85l-7.504-3.918l-2.253-1.785l-2.696-3.474l-0.887-3.07l-0.266-8.613
		l-4.541-15.217l-1.384-7.832l2.395-4.52l-1.951-6.453l-1.366-2.507l-2.306-0.756l-2.412-0.336l-1.366-1.597l-2.111-5.156
		l-2.381-4.292l-2.852-5.142l-2.909-2.763l-4.452-1.361l-13.643,4.295l-8.992,2.83l-3.956,2.481l-3.122,3.378l-5.162,8.98
		l-2.271,1.75l-2.679-0.574l-0.781-0.359l-13.729-6.308l-3.175-2.676l-0.905-1.668l-2.306-5.481l-0.976-1.795l-6.386-6.13
		l-1.135-2.035l-0.532-1.838l-0.869-1.572l-2.253-1.193l-1.632-0.183l-3.193,0.449l-1.401-0.056l-2.519-0.533l-1.259-0.562
		l-0.905-1.544l-1.472-3.44l-0.781-0.885l-2.076-1.067l-0.55-0.927l0.177-1.25l1.33-3.021l0.195-1.771l-3.388-11.937l0.993-2.49
		l3.956-3.968l1.011-1.633l-0.55-5.42l-2.696-4.084l-6.138-6.834l-1.703-5.265l-1.721-12.047L69.368,142.172z"/>
</g>
<g id="Copyright">
	<text transform="matrix(1 0 0 1 681.6426 577.5916)" class="st1 st2">© Vemaps.com</text>
</g>
</svg>
