<?xml version="1.0" encoding="utf-8"?>
<!-- Generator: Adobe Illustrator 23.0.1, SVG Export Plug-In . SVG Version: 6.00 Build 0)  -->
<svg version="1.1" xmlns="http://www.w3.org/2000/svg" xmlns:xlink="http://www.w3.org/1999/xlink" x="0px" y="0px"
	 viewBox="0 0 800 600" style="enable-background:new 0 0 800 600;" xml:space="preserve">
<style type="text/css">
	.st0{fill:#808080;}
	.st1{font-family:'Roboto-Regular';}
	.st2{font-size:14px;}
</style>
<g id="Bahamas">
	<path class="st0" d="M659.991,522.573l-2.795,1.394l-0.825,0.865l-0.764,0.102l-0.156-0.928l0.228-1.089l-0.585-1.696l-1.076-1.7
		l-0.312-1.803l0.824-0.648l1.916-0.639l1.54-0.949l1.433-1.755l1.233-0.874l0.767,0.481l0.995,1.292l0.867,0.772l1.631,0.888
		l1.625,0.728l0.763,0.877l-0.345,1.744l-1.54,1.023l-3.062,0.355l-1.432,1.351L659.991,522.573z M648.546,442.001l-1.415-0.382
		l-0.787-0.581l0.187-0.841l1.505-1.169l-0.47-0.628l-0.033-0.411l0.504-0.888l0.384-1.148l-0.143-0.953l0.017-0.805l0.864-0.726
		l1.405,1.863l0.697,0.448l1.251,0.17l-0.007-0.184l0.474-0.401l0.661-0.415l0.56-0.213l0.581,0.047l1.221,0.408l0.684,0.098
		l2.025,0.758l4.221,2.913l1.952,0.069l-0.4-0.498l-0.721-1.429l2.733,1.393l1.365,0.339l0.888-0.462l1.288,1l1.264,0.545
		l1.471,0.224l1.909,0.051l0.547,0.245l0.641,0.599l1.078,1.299l0.781,0.566h1.612l0.711,0.314l0.724,1.63l-0.387,1.778l-1.061,1.45
		l-1.281,0.588l-1.458-0.48l-3.814-3.755l-1.662-1.234l-1.311-0.736l-1.441-0.357l-2.079-0.097l-0.924,0.108l-1.224,0.454
		l-0.647,0.097l-0.968-0.195l-0.534-0.433l-0.42-0.433l-0.647-0.206l-1.768,0.375l-3.25,1.714l-1.982,0.39l-0.867-0.191
		l-0.547-0.415l-0.407-0.411l-0.44-0.195L648.546,442.001z M621.52,422.095l-0.533,0.133l-3.461-1.069l-1.531-0.467l-1.665-0.267
		l-0.2-0.466l1.466-0.199l1.399-0.199l1.864,0.468l1.863,0.868L621.52,422.095z M606.897,556.9l0.156-1.668l-0.964-1.182
		l-0.896-0.968l0.002-0.899l2.82,1.364l1.669-0.632l1.412-0.505l0.965-0.764l2.559-0.779l0.582-1.718l1.812-1.629l0.746-1.635
		l1.802,0.42l1.628-0.933l2.392-0.021l0.841-0.029l0.831-0.408l0.844-0.637l1.208-1.732l0.681-0.745l0.3,0.379l0.527,1.829
		l1.305,1.578l1.644,2.184l2.123,0.998l5.149,1.671l1.81-1.135l1.809-0.889l4.105-1.037l1.905-2.445l1.669-3.433l4.034-6.439
		l1.241-1.708l1.582-0.978l1.768,0.738l0.621,1.547l-0.09,2.023l-1.625,9.404l-0.688,2.447l-5.22,6.622l-2.642,7.708l-1.753,1.013
		l-6.098,2.605l-3.554-0.55l-1.041,0.322l-0.777,0.393l-1.588,1.136h-0.561v-0.65l0.544-0.479l-1.212-0.951l-1.762-0.219
		l-4.267,2.464l-2.826-0.166l-4.854,1.158l-3.624-1.473l-5.249-0.464l-1.181,0.171l-1.328,0.692l-0.344,0.651l-0.478,0.784
		l-0.3,0.696l-0.533-0.121l-0.963-0.641l-1.048-1.236l-0.232-0.951l-0.202-1.514l-0.068-1.98l-1.451-2.507l-0.267-0.478l0.271-0.624
		l2.445-0.257l1.374-0.887L606.897,556.9z M554.689,414.619l-0.424,2.495l-2.346,3.665l-3.05,3.48l-2.529,1.94l0.727-3.812
		l2.382-2.537l2.923-2.256L554.689,414.619z M578.309,415.888l-0.524-0.578l-1.158-1.851l2.713,0.792l0.647,0.369l0.274-0.987
		l0.607-0.759l0.734-0.347l0.674,0.275l0.497-0.372l0.224-0.126l0.347-0.051v-0.666l-0.671-0.188l-0.277-0.188l-0.22-0.318
		l-0.507-0.572l4.231,0.047l2.022-0.326l2.195-0.886l0.087,0.344l0.037,0.286l0.117,0.275l0.32,0.26l-1.935,3.443l-0.921,0.857
		l-0.04-0.893l-0.287-0.709l-0.537-0.499l-0.761-0.268l0.284,1.208l0.677,1.161l0.891,0.564l0.948-0.564l0.554,1.302l0.751,6.636
		l0.451,1.362l1.048,2.28l-1.408,0.343l-0.591,1.503l-0.29,1.947l-0.514,1.658l-0.801,1.026l-1.181,1.195l-1.248,1l-0.994,0.419
		l-0.941,0.79l-2.723,5.316l-4.281,3.557l-0.757,0.382l-0.867,0.065l-4.985,2.048l-2.049,0.447l-1.255,1.15l-2.049,3.299
		l-0.661,0.728l-2.169,1.91l-0.828,0.389l-1.858,0.288l-1.461,0.782l-2.643,2.555l-0.103-0.8l0.103-3.128l0.37-0.872l0.861-0.245
		l3.233,0.263l0.691-0.324l2.476-2.206l0.067-0.566l-0.871-0.645v-0.544l1.605-1.031l0.581-0.238l-0.481-0.144l-0.374-0.162
		l-0.247-0.321l-0.067-0.584l1.648-0.649l2.409-1.479l1.895-0.288l0.44-0.289l0.898-1.248l1.084-0.768l-0.087-1.115l-0.314-1.223
		l0.017-0.805l1.511-0.613l2.242-0.238l2.029-0.498l0.884-1.408l0.34-2.144l0.941-1.033l1.441-0.419l1.805-0.314l3.25-1.213
		l2.256-2.084l0.767-2.875l-1.235-3.577l-2.259-1.677l-5.829-0.101l-2.599-1.308l-1.231-1.185l0.14-0.333l0.991-1.605l0.541-0.513
		l0.597-0.34L578.309,415.888z M554.436,409.154l-5.339-7.947l0.307-0.286l0.133-0.293l0.06-0.304l0.107-0.326l0.901-0.054
		l1.368-0.478l0.531-0.083l0.981,0.282l2.326,1.542l0.821,0.217l1.782,0.159l0.807,0.232l2.292,1.882l0.25,0.76l0.093,1.567
		l0.217,0.651l0.29,0.083l1.001-0.13l0.334,0.047l0.174,0.26l0.387,1.01l1.602,0.553l2.943,0.206l1.718,0.449l-0.611-1.208
		l1.822,0.445l4.895,1.928l-6.106,5.569l-0.28-0.723l-0.04-0.195l-0.851-0.351l0.073-1.465l-1.505,0.275l-2.132,0.658l-6.056-1.584
		l-0.844-0.702l-1.341-1.483l-0.454,1.042l-0.981,0.883l-0.974,0.477l-0.447-0.195l0.474-1.924l-0.013-1.013L554.436,409.154z
		 M605.331,377.441l-7.304,1.476l-3.453-0.073l-1.608-2.677l6.159,0.609l4.604-0.49l1.602,0.49V377.441z M442.369,344.421
		l2.753,0.211l3.527,1.004l3.05,1.625l1.308,2.04l-2.949-0.96l-3.45-0.698l-2.906-1.08L442.369,344.421z M430.508,337.341
		l1.284,2.78l3.083,2.219l6.88,2.692l-1.174,1.258l-1.875-0.513l-3.67-2.026l-4.164-0.32l-1.555-0.808l0.681-1.866l-1.522-1.07
		l-1.551-1.441l-1.421-0.808l-1.158,0.819l-2.846-3.043l-3.066-2.293l-3.463-1.143l-4.057,0.375v-0.612l2.419-0.743l0.38-0.2
		l-0.157-0.801l-0.544-0.812l0.083-0.499l-0.867-0.583l-0.681-1.034l-0.167-1.151l0.651-0.954l1.011,0.2l0.707-0.288l0.534-0.393
		l0.5-0.128l0.634,0.295l0.427,0.47l0.721,1.118l0.908,0.903l1.001,0.539l1.285,0.27l1.742,0.073l-0.277,0.379l-0.147,0.291
		l-0.217,0.255l-0.48,0.291l5.365,5.738l3.884,2.264L430.508,337.341z M507.511,387.176l0.991,0.906l0.704,2.29l0.414,2.695
		l0.113,3.488l-0.16,0.945l-0.491,0.391l-1.011-0.326l-0.474-0.619L507,393.922l-0.304,0.21l-0.814,0.391l-0.534-2.318l-2.342-4.189
		l-0.851-3.639l-0.777-1.247l-2.766-3.401l-0.851-0.809l-1.028-0.5l-9.376-1.872l-2.039-1.288l-1.051-0.863l-5.856-3.727
		l-1.285-0.533l0.24-0.871l0.384-0.791l0.51-0.726l0.647-0.715h0.507l0.821,1.289l2.309,1.14l0.841,1.23l-2.112-0.301l-0.684-0.254
		l0.56,1.034l0.844,0.882l0.981,0.515l0.971-0.051l1.001,0.668l1.561,1.328l0.747,0.435l0.924,0.225l1.325,0.116l0.837-0.265
		l-0.544-0.958l-4.681-5.226l-0.611-1.503l0.31-2.407l0.691-1.736l0.747-1.416l0.44-1.446l-0.067-2.121l-0.54-2.398l-0.928-2.129
		l-1.215-1.338l-0.294,0.411l-0.878,0.818l0.14-2.108l-3.103-2.639l0.163-1.963l-1.104-0.28l-1.001-0.404l-0.517-0.669l0.38-1.091
		l-1.662-1.328l-0.621-1.419l-0.514-4.021l-1.682-4.277l-0.791-0.419l-0.537,0.197l-0.584,0.444l-0.938,0.328l0.561-4.307
		l-0.467-1.293l-1.718,1.38l0.771-1.184l0.34-0.39l0.514-0.31l-1.028-0.328l-0.674,0.641l-0.654,0.958l-1.008,0.612v-0.667
		l0.838-0.896l0.641-1.049l0.34-1.301l-0.08-1.639l0.497,0.131l0.414,0.259l0.367,0.372l0.347,0.459l4.811,8.001l1.114,0.703
		l1.478,1.704l1.371,2.031l0.794,1.721l0.998,6.05l0.984,1.549l1.435,1.6l4.851,9.457l-0.124,0.923l0.644,0.821l0.214,1.94
		l0.007,3.943l0.667,4.298l1.388,2.678l2.326,1.633l6.99,2.641l3.01,2.354l5.315,5.986l-0.35,0.457l-0.45,0.87L507.511,387.176z
		 M504.155,322.319l4.127-1.221l3.063,0.04l1.044,0.459l1.839,1.334l-0.824,1.395l-0.527,1.14l-0.828,0.652l-1.735-0.08v0.561
		l0.51,0.681l-1.478,0.022l-1.969-0.634l-0.988-1.293l-1.481,0.681l-2.709,0.026l-1.455,0.517l-0.307-2.051l0.554-1.14l1.275-0.62
		L504.155,322.319z M387.296,298.335l-1.231-1.271l-1.511-3.185l-1.341-2.057l-1.008-2.678l-0.848-1.447l-0.317-0.936v-1.298
		l2.025,1.436l4.741,10.88L387.296,298.335z M539.528,294.048l-0.677,1.059l-1.178,3.663l-0.083,0.789l-5.395,0.613v-0.613
		l1.395-1.764l0.938-2.783l0.344-3.112l-0.384-2.755l0.037-2.156l0.901-1.305l1.428-0.801l1.602-0.647l0.454-0.373l0.447-0.494
		l0.487-0.293l0.547,0.238l1.228,2.212l0.197,0.219l0.164,0.936l0.747,1.261l0.21,0.588l-0.05,0.815l-0.45,1.772l-0.11,0.811
		l-3.357,5.852l-0.247-1.03l0.147-0.891L539.528,294.048z M259.748,279.273l-1.064,0.775l-4.174,2.103l-1.475,0.186l-0.534-0.665
		l-0.42-1.192l-0.167-1.258l0.234-0.841l0.751-0.088l1.024,0.285l0.914,0.036l0.387-0.852l0.814-0.304l4.504-3.099l0.387-0.165
		l1.335-0.783l0.848-0.282h3.36l-0.304,0.911l-0.494,0.45l-1.441,0.428l-0.674,0.011l-0.354-0.304l-0.414-0.157l-0.847,0.45
		l-0.567,0.849l-0.791,2.458L259.748,279.273z M256.391,272.461l-1.211,0.044l-0.51,0.757l0.06,1.138l0.494,1.189l-1.181-0.296
		l-2.075,0.307l-1.221-0.011l-0.891-0.377l-0.951-0.739l-0.327-0.79l0.998-0.553l2.132-0.417l2.122-1.01l1.695-0.472
		L256.391,272.461z M375.995,276.815l-1.542-0.015l-0.931-0.454l-3.453-4.457l-0.764-1.318l-0.027-1.128l1.261,0.732l0.747,1.12
		l0.574,1.266l0.781,1.182l0.971,0.768l0.881,0.439l0.791,0.604L375.995,276.815z M288.915,302.012l0.694,1.274l-0.5,3.394
		l0.42,1.511l-1.401,3.192l-1.094,0.565l-2.035-0.642l0.27,1.127l1.485,1.229l0.48,1.32l-0.12,1.203l-0.464,1.32l-0.591,1.123
		l-0.501,0.631l-2.576,0.9l-1.958-0.846l-1.785-1.327l-2.079-0.561l1.411,1.721l-0.027,0.787l-0.774,1.163h-0.611l-1.361-1.906
		l-2.432-0.652l-5.215,0.171l2.799-1.283l-0.414-1.535l1.755,0.047l4.307,1.487l0.5-1.622l0.831-1.149l1.141-0.842l4.404-2.101
		l1.241-0.981v-1.01l-1.468-0.569l-1.441,0.835l-1.388,1.244l-1.328,0.635l-4.785,3.118l0.32,0.248l0.24,0.306l-1.962-0.233
		l-1.975-2.83l-1.662-0.609l5.388-1.966l2.726-1.645l0.387-1.901l-1.174,1.27l-1.608,0.522l-4.344,0.048l-1.171,0.233l-0.998,0.431
		l-0.954,0.274l-1.051-0.266l-0.664-0.719l-0.497-1.073l-1.198-6.033l-0.107-2.267l0.507-0.99l-1.201-0.413l-0.043-0.997l0.35-1.227
		v-1.096l-0.931-1.041l-1.131-0.68l-0.647-0.592l0.527-0.756v-0.607l-1.602-1.009l-5.118-2.058l0.487-0.684l0.577-0.607l1.178,0.782
		l0.46-0.249l0.067-0.658l-0.023-0.428l0.05-0.845l-0.234-0.409l-0.017-0.402l0.711-0.801l0.834-0.442l2.219-0.746l0.918-0.709
		l0.327-0.761l0.534-2.209l0.307-0.706l2.809-0.198l1.061-0.421l0.827-0.717l0.287-0.563l0.177-0.695l0.491-1.094l1.231-1.036
		l3.387-1.424l0.928-1.226l2.292-1.281l0.764,1.212l0.601,1.438l0.681,1.2l1.008,0.501l0.55,0.494l-0.781,1.061l-5.061,4.229
		l-2.009,1.119l-2.522,0.468v0.607l1.455,0.121l0.611,0.669l-0.36,0.757l-1.451,0.351l-0.32,0.355l0.854,0.808l2.015,1.294
		l1.301-0.57l0.444,0.987l-0.21,1.623l-1.348,2.555l-0.274,1.162l-0.43,0.957l-1.165,0.643l1.525,0.431l1.301-1.169l2.546-5.215
		l1.708-1.952l0.807-1.294l0.327-1.766l0.094-2.271l0.294-2.129l0.968-1.313l1.625,0.256l1.225,1.8l0.994,2.253l0.914,1.609
		l1.041,1.276l0.587,1.36l0.267,1.583l0.157,2.968l0.42,1.896l0.097,0.786l-0.097,1.03l-0.42,1.724l-0.097,0.928l0.267,0.497
		l1.151,1.702l0.263,0.854l-0.263,1.059l-0.577,0.716l-0.574,0.445l-0.267,0.263l-0.844,0.394l-1.785,0.044l-1.602,0.668
		l-0.297,2.267l2.866-2.051l1.698-0.774L288.915,302.012z M269.013,266.651l-1.572,1.08l-1.061-0.242l-0.38-0.893l0.47-0.89
		l1.805-0.904l1.528-1.099l1.541-0.699l1.642-0.414l1.321,0.103l0.571,0.315l0.661,0.568l0.464,0.721l-0.013,0.795l-0.634,0.494
		l-0.841-0.275l-0.874-0.538l-0.704-0.297l-1.451,0.099l-0.861,0.337L269.013,266.651z M470.155,276.478l0.631,1.332l1.358,5.197
		l-3.72-1.24l-1.692-0.146l-1.922,0.157l-3.71,0.757l-1.294,0.713l-1.435,1.269l-2.029,0.197l-2.195-1.47l-0.934-1.843l1.778-0.9
		l1.204-0.326l1.748-0.845l1.615-1.178l0.821-1.339l1.578,0.044l0.731-2.444l-0.354-2.931l-1.695-1.424l-2.396-0.527l-1.692-1.333
		l-4.381-7.185l-0.647-2.543l-1.575-2.338l-0.36-1.217l-0.494-2.867l-1.391-2.152l-2.122-1.258l-2.706-0.213l0.32-0.946l0.067-1.086
		l-0.124-1.141l-0.263-1.079l-0.441-1.104l-0.417-0.411l-0.564-0.279l-3.62-3.186l-2.643-1.336l-0.717-0.51l-0.554-0.767
		l-0.08-0.687l0.374-0.731l1.708-2.042l0.681-0.29l1.231,0.15l0.544,0.4l2.202,2.115l2.135,0.833l0.984,0.551l0.901,1.079
		l0.637,5.751l0.487,1.695l0.801,0.95l1.315,1.207l1.215,1.427l0.988,2.816l2.276,4.194l4.604,6.69l1.471,1.194l3.206,1.754
		l1.528,1.293l2.032,4.276l0.49,0.692l0.911,0.615L470.155,276.478z M292.606,206.672l-1.241-0.721l-1.588-0.166l-1.515,0.041
		l-1.028-0.107l-1.345-1.535l0.891-1.734l1.955-1.48l1.858-0.807l1.201-0.21l2.773-1.028l1.248-0.14l3.507,0.14l3.48-0.641
		l1.281,0.022l1.141,0.405l1.969,1.197l3.136,0.726l-0.894,1.087l-8.592,4.032l-1.982-0.055l-2.619-1.152l-0.474,0.755l-0.941,1.079
		l-1.141,0.688L292.606,206.672z M220.971,236.678l0.881-0.551l0.637-0.676l0.143-0.837l-0.594-1.021l1.074-1.554l1.315,0.048
		l1.108,1.197l0.474,1.88l-0.097,1.549l-0.304,1.358l-0.527,1.215l-0.751,1.142l-1.438,1.013l-0.244,0.22l0.163,0.888l0.394,0.789
		l0.601,0.33l2.209-1.409l1.214-0.352l0.667-0.716l-0.207-1.996l1.595,0.771l0.013,1.622l-0.427,1.893l0.244,1.592l1.358,0.836
		l0.774-1.137l0.19-1.989l-0.39-1.739l0.787,0.352l0.854,0.51l0.734,0.224l0.427-0.47l-0.05-1.296l-0.604-0.899l-0.827-0.719
		l-0.711-0.785l-0.103-0.536l0.187-1.366l-0.083-0.562l-0.501-0.672l-1.281-1.182l-0.504-0.661l-0.327-1.263l-0.227-1.421
		l-0.504-0.849l-1.184,0.448l0.868,0.749l0.307,1.403l-0.053,3.448l-0.774-0.958l-0.524-1.469l-0.641-1.352l-1.141-0.588l-0.14-0.68
		l0.24-1.547l0.737-2.708l1.255-1.323l1.795-1.488l1.258-1.798l-0.337-2.228l0.777-0.552l2.142-0.423l0.44-0.544l0.25-1.14
		l1.121-2.2l0.254-1.258l0.737-0.085l-0.29-0.706l-0.661-0.946l-0.34-0.795l0.17-0.714l0.44-1.259l0.631-1.193l0.741-0.537
		l0.641-1.137l-0.18-2.544l-0.767-4.066l-0.884-2.87l-1.712-3.759l-1.101-3.462l0.951-2.002l1.381,0.077l2.98,0.575l1.241,0.531
		l1.004,0.951l0.561,1.01l0.681,0.811l1.361,0.324l1.251-0.531l1.208-0.995l1.255-0.612l1.408,0.619l1.044,0.767l1.151,0.619
		l1.111,0.789l0.884,1.253l-1.221,1.415l-0.207,1.596l0.647,1.485l1.348,1.068l-1.031,3.573l-0.33,2.228l0.49,0.994l1.501,0.232
		l1.231,0.74l1.071,1.351l4.988,12.445l3.623,5.451l1.361,1.473l1.395,0.639l0.988,0.595l3.036,3.045l0.761,1.293l0.087,1.623
		l-0.133,2.21l-0.33,2.074l-0.49,1.23l-0.474,1.717l0.664,2.205l1.798,3.83l0.394,3.179l-0.751,2.31l-1.902,1.415l-3.086,0.477
		l-1.261,0.396l-0.858,0.909l-0.717,1.026l-0.834,0.74l-2.489,0.33l-0.644,0.777l0.951,1.971l-0.981,1.004l-2.993,2.069
		l-1.481,0.451l-2.853,0.022l-0.981,0.45l-3.23,2.373l-0.414,0.725l0.167,0.787l0.274,0.728l0.06,0.663l-0.501,0.615l-0.791,0.198
		l-0.781-0.278l-0.701-0.542l-0.524-0.608l-0.934-2.475l-0.524-3.076l-0.857-2.615l-1.909-1.106l-2.519-1.099l-0.55-2.66
		l0.527-6.136l-1.478,1.159l-1.011,1.202l-1.251,0.946l-2.165,0.385l-1.638-0.436l-10.266-5.855l-4.908-4.56l-1.561-1.871
		l-1.021-2.048l1.098-0.272l1.702-0.782l1.561-0.951l0.681-0.793l0.254-1.256l0.601,0.114l0.761,0.606L220.971,236.678z
		 M400.736,190.887l2.462,1.626l1.064,1.253l0.44,1.725l-0.691,7.677l-0.35,1.451l-0.08,0.792l-0.33,0.946l-0.751,0.578
		l-0.781,0.357l-0.424,0.284l-0.287,1.741l0.36,1.612l1.041,2.318l0.32,1.494l-0.32,4.314l-0.434,1.827l-1.928,3.11l-0.434,1.257
		l-0.207,6.327l0.287,3.474l1.041,2.915l-2.723-1.208l-1.418-2.875l-0.891-3.313l-1.131-2.517l-1.358-0.988l-3.583-1.47
		l-1.522-0.959l-1.728-2.011l0.214-0.834l1.335-0.099l8.044,1.375l0.541-0.243l0.38-0.581l0.34-0.699l0.42-0.614l1.345-1.364
		l0.394-0.802l0.22-1.254l-0.067-2.078l-0.671,0.471l-0.941,1.449l-0.864,0.831l-0.497-1.022l0.09-2.317l0.711-4.128l0.464-1.516
		l0.227-0.361l0.48-0.589l2.356-2.194l0.394-0.644l0.634-5.17l-0.027-1.934l-1.468-4.167l-2.576-2.215l-2.946-1.511l-2.579-2.057
		l-6.766-9.96l-2.075-1.72l-3.113-1.152l-6.566-1.462l-3.38-1.735l-4.951-4.731l-3.223-0.972l-1.788-0.192l-3.39-0.854l-1.565-0.196
		l-1.765,0.462l-2.879,1.615l-1.238-0.214l2.049-2.143l1.148-3.563l1.285-6.759h-0.561l2.819-0.03l1.275,0.17l0.948,0.481
		l-0.897,1.405l-0.397,1.398l-0.027,1.553l0.2,1.907l1.288-1.708l0.918,0.854l0.737,1.752l0.744,0.965l1.585,0.443l10.41,8.079
		l3.01,1.717l3.804,0.916l3.794,0.159l1.365,0.373l1.301,1.045l4.231,5.912l4.958,4.88L400.736,190.887z M264.789,141.685
		l-1.004-0.1l-1.034-1.218l-1.315-2.408l-1.672-1.863l-0.561-1.134l0.544-0.737l1.038,0.193l0.801,0.923l3.066,5.523
		L264.789,141.685z M287.848,87.034l-0.354,0.696l-2.496,2.769l0.467-2.039l-0.42-1.269l-0.587-1.202l-0.02-1.791l0.754,0.447
		l2.199,1.85L287.848,87.034z M201.579,66.01l-1.438,0.959l-1.75,0.883l-1.433,1.031l-0.765,0.647l-1.718,0.152l-0.772,0.387
		l-3.349-0.324l-3.269-1.16l-1.988-1.979l-3.564-2.195l-8.613-8.908l-3.911-3.252l-0.868-1.386l0.881-0.015l0.717,0.19l0.611,0.415
		l0.54,0.661l10.54,6.708l2.439,3.369l1.627-0.304l1.299-0.2l2.642,1.147l1.957,0.027l1.85-0.866l1.679-1.187l1.127-0.52
		l0.962-0.597l0.64-0.425l0.306-0.742l1.036-0.843l0.213-1.147l1.195-1.011l1.004-2.066l1.522-1.02l-0.189-0.974l-1.973-1.232
		l-3.41-0.624l0.567-1.192l2.235-2.567l0.48-1.132l0.634-3.883l1.561,1.125l1.441,1.813l1.061,1.977l0.417,1.637l1.551,0.937
		l6.76,2.678l1.702-0.452l3.78,0.938l4.18,0.734l2.698,0.095l1.104-1.66l1.696-0.859l2.562,1.161l1.562,0.288l2.918-1.215
		l3.944,0.557l2.601-0.807l2.609-1.184l1.662-0.235l5.205-0.09l1.261-0.538l0.774-1.024l0.557-1.184l0.731-1.013l1.291-0.546
		l0.19,1.704l-0.41,1.872l-0.224,1.887l1.465,3.245l0.063,1.759l-0.687,1.478l-1.518,0.65l-0.591-0.235l-1.388-1.198l-0.767-0.448
		l-1.054-0.187l-5.359,0.306l-4.885,1.135l-11.265,2.269l-4.566,0.002l-17.221,4.423l-1.481,0.246l-1.531,0.492l-2.486,2.149
		L201.579,66.01z M265.35,31.987l-1.501-0.24l-6.486,0.494l-2.599,0.965l-1.728,0.045l0.24-0.359l0.244-0.135l0.591-0.135
		l2.953-1.938L260.775,30l7.681,0.108l7.554,1.729l4.311,0.389l1.882-1.489l4.367,2.058l3.467,2.619l15.034,14.734l1.708,1.165
		l1.922,0.62l2.713,0.183l-0.701,1.008l-1.104,0.34l-2.676-0.093l1.201,2.483l1.698,2.008l2.132,1.336l5.012,0.937l2.255,1.119
		l3.937,2.876l3.009,1.667l0.961,0.839l0.741,1.193l0.614,1.678l0.013,1.484l-1.088,0.645l-0.26,0.637l-0.02,4.084l0.28,1.494
		l0.751,0.972l1.091,0.589l1.291,0.358l-1.051,2.127l-0.127,0.681l0.187,0.994l0.4,0.625l0.407,0.447l0.184,0.465l0.09,0.741
		l0.11,0.354l-0.143,0.361l-0.674,0.756l-0.654,0.551l-0.681,0.335l-1.461,0.305l0.17-0.387l0.39-1.37l-2.663,0.32l-2.529,1.437
		l-2.242,2.028l-1.828,2.087l-0.774,2.262l-0.724,6.982l0.123,1.732l-0.861,5.142l0.414,7.348l-0.294,6.579l-2.946,2.849
		l-2.162-1.142l-1.902-2.589l-1.351-2.85l-0.514-1.885l-1.318-1.188l-5.996-1.321l-1.648-2.216l1.328-0.011l1.488-0.512l1.215-0.951
		l0.921-2.258l1.008-0.279l1.195-0.138l0.991-0.498l3-3.44l1.922-1.62l2.102-0.892l-0.534-0.747l-0.327-0.755l-0.167-0.862
		l-0.04-1.093l-0.33-0.632l-0.691-0.543l-0.627-0.677l-0.134-0.989l0.51-1.03l0.764-0.777l0.707-0.87l0.307-1.343l-0.037-2.411
		l-0.23-1.18l-1.391-1.377l2.603-3.864l-0.103-0.882l-0.717-1.099l-0.123-6.456l1.204-0.022l0.891-0.514l0.687-0.876l0.574-1.092
		l0.09-0.459l-0.09-1.756l0.227-0.638l0.514-0.38l0.587-0.254l0.404-0.269l0.831-1.436l0.36-1.652l-0.587-1.35l-2.906-0.776
		l-1.918-0.895l-7.594-1.123l-1.441-0.907l-0.921-1.556l-0.988-2.251l0.374-0.56l0.093-0.747l-0.227-0.799l-0.931-1.221l-0.42-0.982
		l-0.29-0.448l-0.43-0.149L300.8,51.38l-0.4,0.493l-0.487,0.243l-1.672-0.157l-1.291-0.527l-0.574-0.952l0.48-1.438l-1.358-3.112
		l-3.734-6.268l-2.235-2.655l-1.388-1.01l-1.788-0.677l-1.825-0.056l-1.518,0.838l-1.421,0.509l-1.945-0.314l-4.821-1.601
		l-1.485-0.187l-3.253-0.007l-0.968-0.307l-2.316-1.556L265.35,31.987z M125.816,341.184l-0.29,0.146l-1.562-1.113l-0.147-0.335
		L125.816,341.184z M121.772,336.621l0.857,1.157l-0.137,0.055l-3.263-3.713l0.464,0.295L121.772,336.621z M145.932,157.057
		l0.18,0.066l0.36,0.887l-0.18-0.067L145.932,157.057z M144.274,155.185l0.04-0.348l0.741,1.028l-0.04,0.351L144.274,155.185z
		 M436.75,456.247l0.32,0.602l0.284,1.139l-0.591,0.67l-1.021,0.029l-0.681-0.728l-0.48-1.189l-0.1-0.695l0.387-0.108l0.484,0.162
		l0.5,0.368l-0.08-0.548l-0.45-1.496l0.267-0.173l0.394,0.584L436.75,456.247z M434.792,453.284l-0.304,0.105l-0.307-0.224
		l0.127-2.293l0.354,0.159l0.22,1.485L434.792,453.284z M429.403,441.272l0.314,0.523l0.427,1.108l-0.234,0.494l-0.627-0.768
		l-0.577-1.335l-0.284-1.277l0.334-0.238l0.487,0.934L429.403,441.272z M609.266,420.889l1-0.732l0.999,0.666l-1.134,2.197
		l-1.466,0.266L609.266,420.889z M487.018,309.737l0.244,0.409l0.023,0.978l-0.404,1.145l-0.55,0.317l-0.51-1.422l0.52-1.295
		L487.018,309.737z M260.689,264.831l2.416-0.293l0.567,0.048l-0.344,0.663l-0.951,1.315l-1.531,0.729l-1.345-0.707l0.007-1.241
		L260.689,264.831z M350.468,247.554l0.103,0.624l0.04,1.137l-0.521,0.429l-0.851-0.374l-0.474-1.166l0.22-1.596l0.634-0.345
		l0.587,0.822L350.468,247.554z M261.106,168.924l-1.261,0.004l-0.731-0.081l-1.501-0.029l0.07-0.17l0.48-0.41l0.624-0.292
		l0.5-0.044l0.941,0.081l1.288-0.089l0.971-0.598l0.631-0.827l0.227,0.041l-0.437,1.023l-0.811,0.953L261.106,168.924z
		 M147.46,135.573l0.327,0.989l0.234,1.908l-0.22,0.759l-0.174-0.4l-0.54,0.267l-1.011,0.322l-0.144-0.83l0.574-1.371l-0.314-0.452
		l-1.108,1.06l-0.59,0.77l-0.437,0.7l-0.187,1.196l0.864,0.718l1.245,0.518l0.827,0.733l-0.31,0.481l-2.242-0.355l-0.941-0.026
		l-0.297-0.4l0.247-1.322l0.611-1.744l1.104-1.93l1.582-1.337L147.46,135.573z M311.934,71.3l0.544,0.403l0.127,0.339l-0.04,0.09
		l-0.154-0.071l-0.3-0.041l-0.073,0.142l0.187,0.157l0.02,0.067l-0.167,0.037l-0.083,1.081l0.204,1.062l-0.46,0.38l-0.32,0.041
		l-0.327,0.007l-0.717-0.373l-0.34-1.014l-0.4-0.678l-0.484-0.47l0.127-0.38l0.354,0.045l0.394-0.283l0.47-0.485l0.661-0.201
		L311.934,71.3z M261.95,60.089l0.44-0.437l0.897-0.732l0.237,0.273l-0.737,0.899l-0.284,0.537l-0.007,0.399l-0.387,0.66
		l-0.304,0.97l-0.521,0.791l-0.53,0.022l-0.174-0.261l-0.193-0.351l-1.124-1.38l-0.37-0.776l-0.167-0.784l0.437-0.366l2.479-0.474
		l0.367,0.437l-0.764,0.952l-0.17,0.272l0.607-0.384L261.95,60.089z"/>
</g>
<g id="Copyright">
	<text transform="matrix(1 0 0 1 681.6426 577.5916)" class="st1 st2">© Vemaps.com</text>
</g>
</svg>
