<?xml version="1.0" encoding="utf-8"?>
<!-- Generator: Adobe Illustrator 23.0.1, SVG Export Plug-In . SVG Version: 6.00 Build 0)  -->
<svg version="1.1" xmlns="http://www.w3.org/2000/svg" xmlns:xlink="http://www.w3.org/1999/xlink" x="0px" y="0px"
	 viewBox="0 0 800 600" style="enable-background:new 0 0 800 600;" xml:space="preserve">
<style type="text/css">
	.st0{fill:#808080;}
	.st1{font-family:'Roboto-Regular';}
	.st2{font-size:14px;}
</style>
<g id="Switzerland">
	<path class="st0" d="M767.898,289.361l-0.865,7.721l-0.593,2.155l-0.966,1.523l-3.577,4.322l0.305,3.565l1.17,3.484l0.407,3.297
		l-1.983,3.024l-2.78,1.787l-0.661,2.189l0.153,2.726l-0.356,3.393l-1.576,2.824l-1.78,1.699l-0.78,2.273l1.373,4.57l2.966,3.457
		l6.984,0.753l3.424,2.888l1.237,4.602l-0.119,6.161l-1.305,5.911l-1.003,1.668l-1.286,2.14l-2.966,0.573l-11.747-3.099
		l-5.713,0.542l-2.102-0.345l-1.848-0.857l-1.034-1.097l-0.865-1.202l-1.288-1.146l-6.764-2.33l-0.729-2.59l0.898-4.903
		l-0.322-2.696l-2.611-2.147l-4.221,0.037l-15.527,4.486l-1.577,0.87l-0.712,1.764l-2.017,7.781l-1.356,1.824l-3.543,3.549
		l-1.407,2.119l-0.22,1.712l-0.034,5.234l-0.712,2.536l0.203,2.204l0.39,1.729l0.797,1.335l1.424,0.972l-2.899,4.934l2.577,3.222
		l4.814,1.881l7.34,1.426l2.831,1.143l1.204,2.643l-1.237,5.186l-1.187,1.597l-3.441,3.095l-1.237,2.309l-0.831,3.217l-0.102,2.173
		l0.661,2.001l1.492,2.651l6.764,6.906l2.102,4.23l-2.153,4.535l-4.577,2.892l-6.916,2.634l-5.424-0.11l-0.136-5.354l-1.661-4.033
		l-6.475-5.763l-2.407-3.263l-1.068-5.202l-0.068-4.701l-1.085-3.868l-4.102-2.702l-3.373-0.878l-3.187-0.24l-7.153,1.235
		l-10.917,5.624l-3.407,1.111l-2.102-0.454l-4-2.419l-1.763-0.043l-1.78,2.02l-0.322,2.713l0.254,2.694l-0.068,1.871l-2.509,3.484
		l-3.085,1.251l-18.799-0.221l-3.814-1.398l-3.475-2.368l-2.085-2.884l-3.272-8.569l-1.458-1.204l-3.628-2.02l-1.187-1.167
		l-0.322-1.333l0.237-3.625l-0.983-22.829l-0.526-1.496l-1.288,0.289l-2.644,1.957l-1.119,1.52l-0.576,1.692l-0.797,1.428
		l-1.78,0.714l-1.237-0.541l-4.187-4l-0.119-2.948l-3.255-0.868l-7.984,0.985l-3.136,2.918l-2.848,5.735l-1.288,5.831l1.576,3.216
		l2.187,1.518l0.322,2.385l-0.424,2.999l0.017,3.397l2.204,8.431l0.22,3.057l-1.017,5.228l-4.797,10.057l-2.441,8.494l-1.492,2.401
		l-1.899,1.776l-1.966,0.931l-1.78,1.323l-0.915,2.351l-0.763,2.73l-1.199,2.279l-0.089,0.17l-11.917,8.075l-3.034,4.562
		l-0.644,3.056l0.356,5.329l-0.526,2.908l-1.305,2.211l-1.56,0.916l-3.594,1.136l-4.204,3.26l-0.712,2.686l2.916,8.225l-5.391,4.989
		l-0.356,0.585l-0.119,0.61l0.119,0.598l0.356,0.597l1.763,1.792l1.356,4.29l1.492,2.218l1.593,0.914l3.577,0.719l1.543,0.987
		l1.865,3.91l-0.627,4.006l-4.085,7.972l-5.238,6.447l-4.933-0.924l-5.374-2.396l-6.492,1.983l0.61-3.625l0.983-2.799l0.661-2.921
		l-0.271-4.078l-0.915-3.081l-1.373-3.081l-2.848-5.081l-1.61-3.766l-1.068-1.499l-1.102-0.866l-9.408-5.06l-2.509-0.89
		l-2.814-0.183l0.271-0.634l0.627-1.134l2.882-6.638l4.695-5.725l2.424-5.545l-4.17-5.523l-2.475-0.868l-5.035,0.122l-2.627-0.367
		l-1.254-0.856l-1.203-2.212l-0.521-0.193l-0.835-0.309l-1.017,0.477l-2.543,2.262l-1.17,0.66l-2.882-0.147l-7.645-4.474l-3.17-1.1
		l-1.593-0.819l-10.357-15.343l-4.662-4.8l-4.526-2.29l-4.289-1.727l-3.017-2.499l-1.797-3.811l-0.644-5.787l0.559-6.108
		l2.661-12.305l0.559-6.848l-0.085-7.177l-0.678-5.373l-2.255-3.272l-4.712-0.83l-2.173,0.47l-6.964,1.505l-4.458,2.435
		l-3.492,3.714l-1.373,3.018l0.627,1.008l1.085,0.83l0.068,2.408l-0.983,2.175l-1.627,1.959l-1.882,1.443l-4.645,2.358
		l-8.069,10.679l-3.39,2.368l-7.12,1.595l-3.543,1.644l-3.204,3.262l-1.644,2.317l-0.695,1.998l0.576,0.919l3.831,3.346l4.848,9.383
		l0.458,8.691l-3.56,7.67l-7.17,6.236l-1.78,0.599l-3.39,0.367l-1.644,1.271l-1.17,2.432l-0.356,2.712l-0.017,2.651l-0.865,6.728
		l-0.305,0.476l-1.593,3.515l-0.119,0.513l-2.051,2.672l-1.17,0.976l-1.577,0.488l-11.629,2.635l-2.366,1.907l-1.782,3.418
		l-0.445,4.485l-3.376,0.155l-0.202,0.386l-0.508,2.425l0.136,1.231l-0.39,0.792l-2.051,1.121l-0.949-0.049l-2.933-0.901
		l-4.509,0.085l-7.882-2.888l-1.61,0.183l-1.237,0.585l-1.373,0.329l-2.017-0.695l-0.237-0.597l-3.085-4.51l-2.458-2.292
		l-2.577-1.488l-16.714-4.195l-2.746,1.427l-1.593,2.683l-1.797,2.353l-3.441,0.439l-4.882,2.121l-9.696,7.117l-5.255,1.852
		l-12.324-1.316l-2.153,0.743l-4.611,2.862l-10.12,4.165l-4.95,0.925l-5.357,0.097l-5.035-1.035l-3.814-2.289l-7.357-8.259
		l-1.136-1.901l-0.881-2.377l-1.153-4.315l-1.882-4.902l-0.593-2.513l-0.797-0.537l-11.103-12.572l-3.729-1.649l-1.373,0.562
		l-1.17,1.209l-1.254,0.952l-1.559-0.22l-1.441-1.099l-0.102-0.733l0.339-0.989l-0.068-1.832l0.237-0.232l-0.051-2.468l-0.288-2.346
		l-0.458,0.232l0.746-1.222l1.322-1.613l1.153-1.809l0.169-1.809l-2.509-2.433l-13.052-2.886l-1.424-3.976l1.509-8.114l2.848-8.487
		l5.814-11.336l-3.729-6.439l-5.814-6.19l-3.136-5.426l0.882-2.744l4.323-5.085l1.17-3.981l-0.184-2.331l-0.172-2.18l-1.532-2.364
		l-2.468-1.226l-24.435-6.341l-10.934-0.351l-10.51,2.091l-13.985,9.616l-5.323,1.364l-5.39,0.252l-5.052,1.641l-5.323,4.626
		l-4.679,6.196l-3.458,4.714l-0.881,3.24l0.678,2.368l1.509,4.036l0.085,0.957l1.576,3.924l0.695,1.005l1.712,0.895l2.746-1.263
		l1.153,0.503l0.848,5.467l-4.238,4.497l-10.493,6.969l-8.374,9.828l-5.323,2.74l-5.577-2.495l-7.476,0.294l-7.442,1.774
		l-3.95,2.361l2.187-5.138l1.254-2.386l0.509-2.031l-2.899-3.648L30,447.79l0.61-2.854l4.001-2.548l9.832-4.828l0.271-0.086
		l0.271-0.025l0.305,0.025l1.288,0.417l0.983,0.122l0.949-0.11l3.611-1.128l0.712-1.581l-0.153-2.194l0.085-2.562l1.17-6.721
		l0.542-1.853l2.387-5.357l2.918-6.551l-0.22-2.628l-2-3.6l-2.407-2.605l-8.064-4.968l-0.785-0.483l1.882-1.807l0.305-1.568
		l-0.339-1.611v-1.814l-0.119-0.732l-0.39-0.984l-0.356-1.12v-1.218l0.644-1.452l1.865-2.018l5.713-9.826l5.797-7.343l-3.967-4.45
		l-0.508-3.144l2.204-2.898l22.054-20.245l11.747-6.469l1.627-1.378l4.323-4.89l5.441-2.894l1.729-1.293l1.848-2.326l0.627-1.986
		l-0.068-4.041l-1.22-1.349l-0.865-1.176l-0.458-1.35l0.237-1.164l2.577-7.798l1.136-2.063l0.317-0.793l0.599-1.5l0.271-3.322
		l-0.525-2.653l-2.187-4.18l-0.678-2.171l2.441-8.427l7.95-4.619l17.646-5.565l10.942-8.358l3.746-5.428l-1.966-4.466l2.204-3.826
		l1.543-1.525l4.119-1.481l0.61-1.531l0.61-0.423l2.356-1.22l-0.203-4.122l4.916-1.719l10.385-9.634l0.362-0.336l3.119-5.163
		l4.763-4.921l11.137-8.194l-0.661-5.994l1.051-4.96l3.085-3.187l1.492-0.188l0.882-0.35l2.39-3.244l1.712-1.006l1.678-0.463
		l1.543-0.988l1.271-2.658l-1.712-2.458l-2.458-2.24l-2.441-1.996l-3.017,1.458l-19.511,1.927l0.814-3.097l2.034-3.786l2.424-3.18
		l4.221-2.492l0.254-4.572l4.306-0.965l2.661-1.541l2.441-2.086l1.237-2.043l-0.797-2.89l-1.695-3.354l-0.407-2.703l3.051-0.935
		l1.458-1.148l1.475-0.383l1.492,0.383l1.492,1.148l4.255,0.621l8.171-1.43l3.865,0.809l2.136,1.236l0.304,0.049l1.883,0.302
		l4.458-0.451l-2.984,6.884l0.932,3.961l3.56,2.143l4.814,1.516l0.678,0.545l0.458,0.871l0.661,0.877l1.271,0.539l1.102-0.225
		l6.204-2.706l4.34-0.915l4.566,0.196l6.826,0.293l1.586-0.641l2.973-1.201l2.331-3.059l0.906-1.189l0.525-2.269l-0.271-1.367
		l-0.797-1.135l-0.542-0.589l-0.831-1.499l-0.017-1.493l1.915-0.564l2.543,0.891l0.739,0.473l1.397,0.894l2.119,0.314l2.509-2.27
		l0.288-0.408l0.22-0.69l0.017-0.633l-0.025-0.091l-0.144-0.518l-1.17-1.65l-0.356-0.979l0.22-0.766l0.949-0.515l1.695,0.364
		l1.322-0.439l0.712-1.387l-0.051-2.429l-0.559,0.012l-2.729-2.097l-0.39-0.163l6.255-5.14l0.898-0.738l3.933-2.199l5.767-2.184
		l0.089-0.034l8.365-2.519l3.712-0.39l-2.153,6.088l-1.746,1.69l-3.864-0.034l-0.425-0.004l6.094,3.233l2.382,1.263l3.611,0.483
		l7.197-1.498l6.465-1.346l3.085-1.758l2.611-3.134l2.983-4.681l2.305,1.181l10.578,0.641l1,1.043l0.525,2.28l0.322,2.28l0.441,1.03
		h21.342l7.374-1.658l1.594-1.087l0.729-1.055l0.661-1.231l1.39-1.602l1.339-1.043l3.56-1.929l3-0.899l1.119-1.188l0.814-1.188
		l0.848-0.553l8.849-1.496l2.966-0.012l4.255,1.308l1.899,0.201l0.881,1.056l0.882,2.345l1.153,2.344l1.61,1.056l6.221,1.659
		l10.493,0.063l0.497-0.084l4.554-0.77l0.203-1.156l1.915-4.16l5.018-3.332l4.916-0.503l2.526,2.376l1.949,3.294l0.341,0.421
		l1.472,1.816l2.204-0.742l0.356-0.627l0.712-1.252l0.186-1.823l-0.085-1.729l0.203-1.66l-0.068-0.836l-0.39-0.95l-0.271-1.107
		l0.373-1.346l0.593-0.516l0.865-0.327l0.712-0.025l0.153,0.39l0.102,1.497l1.068,0.541l0.932-5.768l-1.492-0.145l-0.759-0.312
		l-1.869-0.77l-2.288-0.39l-7.967,1.359l-2.458,1.239l-2.272,1.629l-2.424,1.258l-2.916,0.126l-3.39-1.937l-4.204-3.215
		l-0.814-0.126l-2.577-0.95l1.051-2.637l-0.407-2.077l-0.695-1.782l0.186-1.801l1.61-1.845l4.153-2.286l1.746-1.638l1.237-4.877
		l0.763-1.777l2.221-3.278l1.288-0.769l1.831,0.05l8.832-1.765l2.475-1.261l-1.526-3.848l2.611-1.501l4.085,0.227l3.034,1.375
		l0.254,1.779l0.153,3.153l0.576,2.963l1.61,1.204l2.034-1.337l0.848-5.322l1.492-1.564l2.119,0.707l1.577,2.403l1.288,2.825
		l1.22,1.942l1.695,0.385l1.814-0.378l1.61,0.315l1.085,2.465l-0.441,0.92l-2.187,3.296l-0.543,1.594l0.695,1.991l1.305,1.619
		l0.407,1.858l0.322,1.587l8.662-0.126l-1.339-1.505l1.475-4.78l4.407,0.202l5.357,3.13l4.238,4.024l-3.017,0.705l0.017,1.693
		l2.321,2.328l0.12,0.121l4.763,3.568l4.018,1.057l6.424-0.61l5.967-1.913l2.61-2.844l3.102-1.234l18.291,2.064h9.069l2.221,3.48
		l6.136-0.006l6.374,1.478l44.984,28.1l0.915,4.288l0.31,1.455l4.848,7.326l6.102,2.796l4.695,4.15l-0.136,10.274l-1.593,3.682
		l-6.357,8.054l-0.763,2.171l-0.848,4.265l-0.627,1.663l-5.594,6.763l-5.272,8.958l-2.712,4.608l-2.831,8.144l-0.39,8.126
		l1.254,3.989l1.78,3.477l1.373,3.863l0.085,5.144l-1.56,3.212l-2.509,2.589l-1.915,2.583l0.186,2.246l3.695,1.095l10.018,1.673
		l3.373-1.076l3.068,0.815l8.594-1.07l2.746,0.417l30.987,9.8l-0.271,2.741l0.695,0.596l1.017-0.081l0.627,0.746v1.417l-0.678,2.299
		l-0.407,5.639l-0.525,2.589l0.271,2.253l2.085,2.966l4.068,3.127l17.545,5.675l6.34,6.045l3.695,2.144l7.086,2.28l2.278,0.087
		l1.112,0.043l4.238-1.208l7.153-3.65l1.678-2.449l0.441-1.835l0.136-2.021l0.78-3.039l2.492-4.213l2.661-0.496l3.187,0.838
		l4.085-0.192l0.085-4.487l2.865-5.513l4.136-4.758l4.763-2.74l0.898-0.18l0.915,0.18l0.865,0.565h0.017v0.037l1.695,1.826
		l3.424,5.528l5.577,4.445l1.458,1.75l0.881,4.052l-2.034,8.156L767.898,289.361z"/>
</g>
<g id="Copyright">
	<text transform="matrix(1 0 0 1 681.6426 577.5916)" class="st1 st2">© Vemaps.com</text>
</g>
</svg>
