<?xml version="1.0" encoding="utf-8"?>
<!-- Generator: Adobe Illustrator 23.0.1, SVG Export Plug-In . SVG Version: 6.00 Build 0)  -->
<svg version="1.1" xmlns="http://www.w3.org/2000/svg" xmlns:xlink="http://www.w3.org/1999/xlink" x="0px" y="0px"
	 viewBox="0 0 800 600" style="enable-background:new 0 0 800 600;" xml:space="preserve">
<style type="text/css">
	.st0{fill:#808080;}
	.st1{font-family:'Roboto-Regular';}
	.st2{font-size:14px;}
</style>
<g id="Cyprus">
	<path class="st0" d="M641.509,265.573l-0.362-0.06l-0.301-1.467l-1.883-0.383h-1.883l-0.628-1.916l-1.59-0.792l-2.511-1.533
		l0.921-0.792h1.883l3.181,0.792l1.59,1.967h1.883h1.59l1.883,1.124l1.298,2.299h-0.628l-1.925,0.383l-1.256,0.383L641.509,265.573z
		 M625.701,253.211l-1.252-0.664l-0.381-1.328l0.599-2.391l0.435-1.794l1.959-0.731l2.394,0.399v4.982l-2.176,0.797L625.701,253.211
		z M609.561,259.78l-0.578,7.441l-8.568,3.257l-10.644,10.655l-2.999,6.311l-2.768,8.039l-2.043,8.901l-0.725,8.798l0.824,9.419
		l-0.989,4.076l-3.856,1.687l-2.472,1.867l-2.801,8.793l-1.78,2.81l-6.261,1.827l-13.446,0.14l-5.174,1.365l-3.526,3.693
		l-4.185,5.699l-4.844,5.177l-5.536,2.287l-12.918,3.21l-11.732,5.697l-9.491,2.126l-6.097-7.361l-0.395,13.839l-11.468,7.118
		L445,392.906l-6.064,2.867l-3.658,2.465l-5.042,3.367l-5.866,1.122l-29.165-3.407l-29.033,3.407l-6.261,1.684l-5.734,3.968
		l-18.784,17.45l-4.153,8.312h-10.085l-8.58,1.17l-2.846,3.459l-2.804-1.907l-0.628-6.918l4.687-4.248l1.883,2.696h7.91
		l-0.921-13.433l-13.288-1.934l-5.043,5.013l-2.511,4.63l-2.553-2.341l-5.064-2.29l-1.449,3.375l-11.81-3.115l-7.65-5.972
		l-2.099-4.376l-0.3-6.382l-2.399,0.547h-3.148h-2.099l-2.099-0.182l-1.349-0.547l-1.949,2.188l-1.949,2.553l-1.349,1.823
		l-5.397,0.912l-2.998,7.292l-8.096-1.094l-4.797-1.458l-2.699,3.464l0.23,7.82l-4.647,1.663l-16.939,2.183l-16.84-3.325
		l-16.016-7.051l-20.729-12.964l-7.448-3.227l-8.436-2.064l-17.202-1.824l-7.085-2.926l-6.822-4.27l-16.148-12.872l-2.34-2.707
		l-2.537-14.262l-1.648-2.287l-0.264-4.635L73.5,328.366l-4.548-3.915l-8.601-5.723l-3.658-3.856l-3.328-4.941l-2.439-5.926
		l-0.264-6.389l3.493-6.35L46.379,278.4l-0.758-5.187v-10.778l-1.78-9.312l-8.799-15.311l-3.262-7.607l-1.78-12.4l1.384-9.021
		l4.647-3.021l8.206,5.719l12.061,13.288l6.756,5.354l7.678,3.18l16.807-0.765l14.632-7.809l12.029-11.939l9.03-12.99l6.031-15.351
		l4.35-8.343l6.426-4.676l0.791-2.338l1.12-2.358l2.34-1.028l2.01,0.564l3.065,2.076l0.692,0.464l2.636,0.585l4.086-0.947
		l3.161,5.648l6.027,3.481l5.964,1.126l4.75-1.126l5.064-3.481l2.846-6.553l2.561-6.313l12.852,1.673l2.626,13.113l2.469,6.603
		l3.474,5.016l6.32,3.454l10.756,3.48l8.245,4.605l8.245,3.888l4.415,3.862l1.528,7.365v4.551l2.26,3.937l4.102,1.892h3.474
		l10.714-3.042l5.043-3.554l1.318-2.25l2.511-5.421l3.181-1.918l3.809,1.918l2.511,3.504l6.299,4.168h5.378l5.336-3.401l7.575-7.749
		l7.303-6.932l7.282-3.505l9.417-5.808l4.436-4.196l3.809-0.819l10.086,1.203l10.756,2.303h10.066l5.692-2.687l2.574-1.97
		l2.511-4.248l9.794-6.936h6.32l5.399,2.304l5.399,1.945l5.022,0.358l4.102,1.945l5.441,6.193l4.06,5.373l6.655,3.889l9.166,2.302
		l3.181-1.151l1.862-2.686l0.649-3.863l5.043-3.864l8.224-8.906l3.474-1.152l6.655,0.768l10.379-1.152l6.989-1.152l2.218,1.536
		v6.194l1.256,7.344l3.181,3.096l4.395,4.989l5.692,6.19l0.628,3.095l0.628,8.516l-0.628,8.079v9.688l-2.553,11.168l-2.511,8.866
		l1.255,6.54l3.809,5.031h4.436l6.655-1.915l2.804-7.74l1.57-14.231l2.351-2.369l3.027-3.049l3.767-3.502l3.181,3.502v11.959
		l2.511,6.566l5.022,2.274l7.324-3.066l3.139-6.54l3.516-2.734l4.436,0.767l4.646,3.117l3.516-0.767l3.181-1.584l4.374,1.584
		l3.829,1.916l8.831,4.65l5.064,0.766l4.415,0.741l6.299,4.266L609.561,259.78z M688.599,223.519l5.022,1.917l4.436,1.968
		l3.767,1.15h5.734l6.948-3.119h7.282l3.809,2.735l5.064,2.301l4.018-0.792l2.26-1.508l1.811-2.544l5.644,4.859l6.13,7.004
		l4.515,13.521l4.548,8.689l5.536,8.004l4.877,3.338l-5.635,0.402l-10.447-1.126l-10.084-2.896l-4.482-4.987l-4.811-2.494
		l-21.981,2.816l-19.081,5.811l-4.152,2.473l-3.269,3.467l-11.103-2.394l-7.533,1.609l-3.139-1.966l5.022-4.597l3.474-0.817v-8.48
		l-7.575-0.766l-4.436-3.857l0.335-10.808l-3.181-3.476l-9.459-4.191l2.176-5.444l3.809-3.093l5.399-2.71l3.139,2.301l2.553,2.735
		l5.65-1.15l5.064-3.502l2.846-3.477l2.218-2.736L688.599,223.519z"/>
</g>
<g id="Copyright">
	<text transform="matrix(1 0 0 1 681.6426 577.5916)" class="st1 st2">© Vemaps.com</text>
</g>
</svg>
