<?xml version="1.0" encoding="utf-8"?>
<!-- Generator: Adobe Illustrator 23.0.1, SVG Export Plug-In . SVG Version: 6.00 Build 0)  -->
<svg version="1.1" xmlns="http://www.w3.org/2000/svg" xmlns:xlink="http://www.w3.org/1999/xlink" x="0px" y="0px"
	 viewBox="0 0 800 600" style="enable-background:new 0 0 800 600;" xml:space="preserve">
<style type="text/css">
	.st0{fill:#808080;}
	.st1{font-family:'Roboto-Regular';}
	.st2{font-size:14px;}
</style>
<g id="Czech_Republic">
	<path class="st0" d="M329.254,121.047l2.33,0.081l3.959-1.111l12.499,0.923l0.226-1.497l-0.136-6.024l-0.124-0.493l-0.068-0.664
		l0.102-0.969l0.305-0.592l1.075-1.22l0.339-0.879l-0.124-5.045l-1.663-2.434l-1.776-1.41l-0.464-1.968h0.011l0.498-0.593
		l0.554-0.458l0.622-0.297l0.622-0.135l1.584-1.159l0.509-0.8l0.305-1.434l2.081,1.919l5.543,1.223l0.928,1.716l1.289,1.276
		l1.538,0.764l1.233-0.252l0.362-1.77v-0.018l0.984-2.274l1.414-0.998l1.278,0.647l0.509,2.642l1.029,2.551l6.233,0.099l2.918,1.455
		l1.753,2.847l-0.113,1.679l-0.95,1.822l-0.769,3.194l0.328,2.466l1.018,3.058l1.289,2.868l1.165,1.882l2.183,1.756l1.98,0.878
		l1.663,1.379l1.312,3.25l0.034,1.683l-0.305,1.736l-0.091,1.646l0.701,1.431l1.366,0.434l0.184,0.058l1.21-1.279l1.041-1.843
		l1.018-1.271l4.559-0.385l21.899,7.692l1.244,0.831l1.448,2.225l0.803,0.786l1.154,0.366l9.095-2.207l2.715,0.259l0.238,1.18
		l0.351,1.054l5.531,9.439l0.701,0.25l3.031-0.089l6.482-2.446l1.81,0.259l1.471,1.428l1.425,2.713l0.95,2.337l0.6,2.381
		l-0.249,2.051l-1.572,1.284l-0.215,0.561l-0.091,0.553l0.079,0.544l0.226,0.517l4.649-0.855l6.787-6.589l4.615,0.473l3.461,2.657
		l1.663,0.785l1.844-0.428l1.335-1.685l0.792-2.203l0.803-1.731l1.414-0.303l3.97,0.08l3.575,0.919l3.36,1.909l9.321,9.903
		l0.995,3.286l-3.439,1.416l0.419,1.3v0.57l-0.305,0.481l-0.475,0.997l-0.17,0.872l-0.147,1.326l0.011,1.014l0.306-0.098
		l-0.939,1.316l-2.251,2.232l-1.029,1.449l-1.878,0.418l-3.507-0.978l-1.719,0.56l-0.848,2.222l-1.64,1.413l-1.923,1.146
		l-1.685,1.413l-0.6,0.24l-1.007,0.64l-0.667,0.062l0.532,1.91l0.204,0.524l-2.183-0.497l-0.86,2.726l1.029,3.071l3.552,0.63
		l1.414,4.427l0.52,0.993l1.403,1.135l0.803-0.177l0.781-0.683l1.278-0.417h4.988l1.041,0.328l0.769,1.596l0.079,1.596l-0.091,1.56
		l0.283,1.497l1.946,2.596l4.875,1.789l2.432,1.709l1.572,2.222l2.783,5.079l1.584,2.158l1.391,2.52l3.314,3.465l1.188,3.234
		l1.244,5.828l1.029,2.136l1.923,2.523l3.767,3.484l4.593,2.389l4.445-0.326l3.371-4.612l2.432-1.764l1.335-1.897l1.188-2.313
		l1.968-2.984l2.455-2.111l2.172-0.318l2.195,0.15l1.33-0.34l1.226-0.314l1.029-0.919l1.821-2.536l1.312-0.91l0.961-0.035
		l2.025,0.725l0.984-0.071l0.271-0.628l-0.023-2.069l0.305-0.469l1.606,0.027l0.656,0.451l0.509,1.034l1.165,1.75l1.324,0.504
		l0.701-1.458l-0.215-2.254l-1.425-1.892l-0.158-4.158l-1.154-3.071l-1.991-2.195l-2.669-1.567l-2.047-2.117l-1.075-3.322
		l-0.814-3.652l-1.244-3.139l-3.507-5.19l-0.011-2.396l2.975-1.811l2.5,0.32l3.088,1.858l1.618,0.974l2.534-0.302l11.244,3.159
		l1.199,0.736l2.545,2.147l1.403,0.745l1.504,0.018l3.337-0.692l1.278,0.39l-0.237,0.479l0.373,1.862l0.679,2.216l0.656,1.489
		l1.075,1.17l3.857,2.445l2.602,0.753l5.135-0.15l2.262,0.965l-2.013,0.815l0.305,0.646l0.385,0.576l0.453,0.496l0.498,0.434
		l-0.136,2.231l0.215,2.168l0.758,1.761l1.459,1.106l1.188-3.132l2.421-0.186l2.387,1.938l1.018,3.184l0.554,0.371l0.588,0.133
		l0.577-0.124l0.566-0.38l3.212-3.91l5.215-0.478l9.785,1.734l2.534-0.664l1.878-1.54l3.247-4.505l0.611-1.399l0.283-1.169
		l0.713-0.461l1.855,0.691l0.611,0.576l2.013,2.727l0.271,0.389l0.057,0.46l-0.079,0.513l-0.249,0.54l-1.188,3.203l-0.215,1.566
		l0.249,1.725l1.154,1.15l1.708,3.165l-1.029,2.589l-2.217,1.926l-4.66,2.8l-2.918,1.148l-5.282,0.203l-1.199,0.609l-0.803,1.721
		l0.226,1.245l5.317,6.749l1.708,0.776l1.108-0.203l0.928-0.538l1.165-0.273l1.437,0.388l2.975,1.481l1.538,0.326l0.045,0.167
		l0.023,0.159l-0.023,0.132l-0.045,0.123l-1.018,0.873l-0.351,0.934l0.339,0.978l1.029,1.031l1.21,1.454l0.747,1.885l0.611,2.105
		l0.86,2.034l1.233,1.708l7.092,7.074l3.982,0.844l3.982-1.214l3.224-2.885l1.991-0.519l4.389-0.132l3.563-1.065l0.554-0.748
		l-0.192-1.699l-0.769-1.18l-0.939-0.026l-0.871,0.273l-0.577-0.246l-0.486-3.857l1.82,0.456l1.551,0.389l6.391,4.191l-0.713,3.142
		l1.425,1.654l6.991,1.328l1.663,0.923l3.45,2.981l1.289,0.58l2.568,0.536l1.301,0.967l0.464,0.932l0.758,2.636l0.611,1.151
		l2.172,1.783l1.584-0.316l3.065-2.679l-0.124-0.29l-0.147-0.193l-0.192-0.097h-0.238l4.412-0.545l4.231,1.511l8.133,4.505
		l2.545-0.009l4.31-2.766l1.617,0.984l0.679,3.082l-0.271,2.607l0.475,2.08l2.907,1.57l-3.009,3.499l0.045,4.549l1.9,5.151
		l2.579,5.323l1.097,4.926l0.69,1.268l1.459,1.023l3.371,0.297l1.561,0.472l1.425,1.172l2.149,2.544l1.38,0.83l1.595-0.131
		l1.708-0.743l1.708-0.297l1.64,1.224l0.453,1.319l0.735,5.817l0.509,1.624l1.29,2.95l0.486,1.527l1.572,7.195l0.317,3.486
		l-0.464,2.814l-4.479,0.122l-2.047,0.784l-4.491,4.145l-3.065,0.174l-3.167-0.975l-3.586-1.811l-0.758-0.157l-0.758,0.157
		l-3.122,1.654l-4.841-0.705l-2.251,1.428l-0.566,1.384l-0.271,3.133l-0.554,1.479l-0.905,0.922l-3.597,1.939l-4.66,5.72
		l-2.455,1.616l-3.19-0.721l-0.271,7.981l-2.58,2.027l-4.048,3.18l-14.728,5.758l-3.224,3.06l-2.636,4.297l-2.047,5.109
		l-1.391,5.495l-0.396,4.488l0.019,1.007l0.14,7.471l-0.724,3.67l-2.274,3.858l-3.224,3.011l-3.631,1.673l-5.871-0.457l-2.647,0.414
		l-2.296,1.483l-1.448,2.914l-0.679,2.473l-0.848,5.16l-0.894,2.282l-2.013,1.971l-2.093,0.121l-2.308-0.396l-2.692,0.465
		l-1.765,1.472l-3.778,6.521l-1.934,1.608l-21.028,8.301l-4.004-0.627l-3.348-3.548l-1.595-0.773l-2.602,0.765l-2.007,1.32
		l-2.133,1.403l-1.9,0.361l-12.488-6.35l-5.26-1.376l-4.898,1.049l-5.882,4.297l-0.995,1.547l-0.645,3.135l-1.572,2.001l-3.767,3.27
		l-2.692,4.599l-5.531,15.994l-1.256,2.307l-1.731,2.118l-0.271,3.144l-3.778-4.406l-1.516-10.969l-2.59-3.651l-1.799-0.137
		l-4.208,1.5l-2.104,0.257l-2.013-0.754l-3.959-2.632l-1.674-0.574l-4.163,0.172l-1.742-0.309l-1.437-1.012l-0.792-1.964
		l-0.407-2.385l-0.86-2l-2.093-0.85l-2.025-0.24l-6.538-1.906l-1.866-1.202l-1.007-0.344l-1.007,0.137l-1.979,0.842l-1.131,0.051
		l-3.156-0.464l-1.9,1.271l-5.554,9.542l-1.199,1.123l-1.719,0.506l-0.611-0.197l-1.448-1.183l-2.274,0.343l-0.124,0.112
		l-15.305-2.273l-10.113,0.609l-5.803-2.522l-11.006-8.034l-0.158-0.824v-1.151l-0.577-0.713l-1.855,0.481l-0.113-1.753
		l-0.814-0.747l-1.233-0.052l-1.38,0.327l1.12-1.487l-0.916,0.06l-0.815-0.37l-1.199-0.877l-2.093-0.155l-0.746-0.318l-0.543-0.851
		l-0.441-2.046l-0.634-0.482l-3.348,0.009l-0.95,0.232l-3.891,2.063l-1.844,0.584h-2.523l-2.455-0.584l-8.495-4.807l-6.517-2.54
		l-2.51-0.978l-5.407-4.7l-2.353-1.352l-4.864-1.645l-5.26-2.688l-2.443-0.698l-5.124-0.06l-0.543-0.379l-0.452-0.827l-0.554-0.69
		l-0.837,0.009l-0.441,0.681l-0.272,2.24l-0.362,0.879l-1.516,1.826l-0.566,0.362l-8.348,2.256l-2.172-0.043l0.724-2.377
		l0.045-2.265l-0.464-2.266l-0.803-2.353l-8.518-0.698l-6.086-2.095l-2.398,0.31l-0.351,0.276l-0.17,0.56v0.776l0.102,0.905
		l-1.493,3.516l-0.045,4.746l0.453,5.096l-0.011,4.603l-2.319,10.418l-0.792,2.096l-0.181,1.159l0.215,1.047l0.475,1.314
		l0.486,1.073l0.238,0.3l-1.256,2.909l-2.217,0.206l-5.656-2.325l-5.712-0.79l-1.651,0.635l-0.645,1.579l-0.441,2.016l-1.097,1.947
		l-0.554,3.173l-5.758,5.074l-2.07,3.367l-0.396,4.474l0.056,5.062l-0.554,4.302l-0.496,0.497l-1.699,1.704l-1.798-0.12l-0.86-1.081
		l-0.645-1.556l-1.176-1.561l-0.713-0.158l-1.674,0.586l-0.848-0.094l-0.351-0.697l-0.011-1.103l-0.136-1.056l-0.701-0.62
		l-1.686,0.137l-3.28,1.583l-1.64,0.368l-1.289-0.316l-4.366-2.293l-2.624-3.098l-1.595,1.104l-2.455,6.532l-1.731,1.783
		l-5.69,2.458l-2.206,1.773l-0.86,0.342l-1.052,0.12l-10.859-3.846l-15.508-1.744l-3.721-1.565l-0.916-0.821l-1.889-2.361
		l-0.475-0.907l-0.509-2.259l0.204-0.479l0.622-0.231l0.735-1.549l0.328-0.24l0.532,0.103l0.498-0.154l0.204-1.036l-0.283-1.01
		l-0.656-0.462l-0.758-0.308l-0.554-0.522l-0.701-1.362l-1.821-2.802l-0.962-1.046l-7.364-4.063l-2.398-1.998l-1.991-1.561
		l-2.081-1.141l-4.4-1.184l-2.138-2.223l-5.283-10.564l-2.545-3.98l-1.538-0.86l-4.078-0.645l-2.07-0.98l-1.866-1.866l-1.708-2.598
		l-1.165-3.03l-0.271-3.151l-1.991,0.224l-1.866-1.033l-1.855-1.49l-1.923-1.18l-1.806-0.384l-0.705-0.15l-1.516,0.698l-1.041,1.835
		l-1.131,2.902l-2.556-1.231l-3.461-2.489l-3.145-2.955l-1.572-2.56l-0.068-4.682l-1.222-2.907l-4.649-4.746l-3.326-4.464
		l-1.335-1.157l-2.195-0.847l-6.617-0.311l-3.099-1.815l-1.742-2.809l-1.437-3.294l-10.248-13.961l-1.357-0.771l-0.023-0.026
		l-3.495-4.168l-0.498-1.56l-0.147-1.621l-0.611-1.37l-1.9-0.789l-3.077-3.27l-1.584-1.284l-1.855-0.998l-4.185-1.154l-1.504,0.477
		l0.486,2.161l-2.047,0.278l-6.448-0.946l-2.172-0.79l-1.731-1.797l-3.586-8.051l-2.206-2.286l-5.045-2.382l-2.138-1.783
		l-1.244-2.435l-0.543-2.732l-0.317-5.527l-0.147-2.839l-0.814-0.662l-1.154,0.165l-1.233-0.375l-1.188-1.246l-0.86-1.263
		l-0.69-1.508l-0.701-2.022l-0.441-1.979l-0.509-3.742l-0.769-1.832l-1.154-1.274l-2.613-1.44l-1.12-1.362l0.079-0.41l0.52-1.327
		l-0.871-0.428l-0.283-0.227l0.927-2.07l-0.079-2.245l-0.905-1.791l-1.516-0.795l-3.642-1.748l-1.674-1.145l-1.572-1.425
		l-2.262-3.262l-1.131-2.17l-0.543-1.785l1.29-2.547l4.525-1.926l1.742-1.769l0.351-2.786l0.057-3.558l0.667-2.393l2.195,0.675
		l0.803-2.622l2.522-4.676l0.882-2.598l0.339-3.301l-0.679-1.229l-1.561-0.606l-4.479-2.635l0.125-1.845l0.758-2.294l-0.283-2.488
		l-1.844-1.759l-4.027-0.422l-1.674-1.654h-0.113l-16.56-8.89l-0.351-1.083l-0.023-1.55l-0.226-1.745l-0.973-1.683l-1.584-1.375
		l-1.753-1.014l-1.55-1.42l-0.95-2.584l-0.068-2.558l0.769-3.883l-0.317-2.569l-0.837-2.031l-1.233-1.908l-2.681-2.951l-5.407-3.386
		l-1.131-2.034l1.369-2.07l1.131-0.743l0.735-0.796l0.204-2.195l-0.407-2.443l-0.882-1.523L30,214.698l2.758,0.204l5.25,0.389
		l2.104,1.497l0.645,1.585l-0.034,2.939l0.43,1.336l1.222,1.079l1.595,0.495l3.145,0.08l0.781,0.433l0.362,0.619l-0.056,0.787
		l-0.486,0.964l-0.17,0.027l-0.147,0.053l-0.147,0.097l-0.136,0.124l-0.294,0.327l-0.102,0.345l0.113,0.38l0.283,0.398l1.912,1.936
		l0.475,0.645l0.452,1.114l0.192,0.999l0.113,0.884l1.312,4.708l1.109,1.731l1.866,0.238l1.527-1.112v-1.519l-0.633-1.828
		l-0.328-2.12l0.339-3.04l0.588-1.609l2.16-2.776l0.294-2.715l0.894-1.336l1.222-0.858l1.244-1.31l3.394-6.189l1.176-1.169
		l3.213-1.807l1.301-1.17l0.396-0.23l0.984,0.036l0.441-0.239l0.238-0.629l-0.068-0.674l-0.147-0.576l-0.023-0.354l0.294-0.771
		l0.226-0.869l0.385-0.851l0.814-0.709l3.031-2.608l4.412-1.304l8.19-0.612l5.848,1.065l1.425-0.16l1.222-1.18l2.421-3.763
		l1.403-1.394l1.787-0.648l1.753-0.107l1.957,0.275l0.679-0.266l1.538-1.021l0.984-0.204l0.916,0.275l10.135,6.188l3.744,0.213
		l0.882-0.871l2.387-2.359l1.55-1.838l0.713-3.135l0.713-7.011l0.905-0.631l0.916-0.222l0.905,0.196l0.848,0.64l0.961,0.285
		l1.018,0.089l1.029-0.08l0.995-0.276h0.011l0.023-0.018l3.088-1.067l5.769,0.338l2.692-2.019l1.572-2.855l3.642-9.765l2.127,0.196
		l1.776,1.247l1.821,0.81l2.296-1.176l1.165-3.492l0.611-1.096l4.106-2.923l0.656-0.713l0.068-0.624l0.305-0.214l1.335,0.49
		l0.588,0.669l1.538,2.594l0.724,0.909l2.443,1.203l2.036-0.508l1.855-1.693l1.9-2.38l1.086-0.615l0.656-0.811l0.102-1.043
		l-0.633-1.382l1.821-1.383l1.459-1.891l0.43-2.329l-1.267-2.651l4.479-2.715l4.966-0.938l9.83,0.054l2.11-0.42l4.163-1.546
		l2.364-0.241l5.022,0.563l1.968-0.402l3.167-1.984l0.667-0.018l0.633-0.223l0.747-1.072l0.057-0.912l-0.26-1.216l-0.136-1.466
		l0.464-1.681l1.007-1.243l0.928-0.036l1.063,0.322l1.38-0.206l1.12-0.841l1.674-2.147l1.176-0.841l2.138-0.465l4.004,0.519
		l2.104-0.143l17.058-7.852l1.335-1.254l2.002-3.029l1.188-1.174l3.936-0.825l8.585,0.681l3.212-2.734l0.656-4.323l-2.918-1.696
		l-4.038-1.194l-2.794-2.774l0.102-1.823l0.928-0.647l0.17-0.35l-2.183-0.889l-3.699-0.485l-1.278-0.844l1.222-1.77l1.538-5.007
		l2.624-2.68l3.484-0.553l4.072,1.336l0.826,0.755l0.577,0.967l0.713,0.949l1.188,0.647l1.21,0.027l3.065-1.362l3.97,0.225
		l1.244-0.647l0.95-2.406l0.633,1.475l0.238,1.048l0.373,1.043l1.029,1.425l1.357,0.953l2.952,0.746l1.346,1.06l1.324,1.608
		l0.837,1.374l0.339,1.698l-0.204,2.613l-0.848,2.091l-1.312,2.495l-0.6,2.117l1.256,0.996l6.052-2.521l1.324,0.027l0.588,1.965
		l-0.634,2.305l-1.855,4.366l-0.385,3.1l0.532,1.299l3.801,1.075l1.561,0.869l4.185,3.188l4.061,0.913l2.375,0.09l1.765-0.483
		l1.063-1.226l1.041-2.006L329.254,121.047z"/>
</g>
<g id="Copyright">
	<text transform="matrix(1 0 0 1 681.6426 577.5916)" class="st1 st2">© Vemaps.com</text>
</g>
</svg>
