<?xml version="1.0" encoding="utf-8"?>
<!-- Generator: Adobe Illustrator 23.0.1, SVG Export Plug-In . SVG Version: 6.00 Build 0)  -->
<svg version="1.1" xmlns="http://www.w3.org/2000/svg" xmlns:xlink="http://www.w3.org/1999/xlink" x="0px" y="0px"
	 viewBox="0 0 800 600" style="enable-background:new 0 0 800 600;" xml:space="preserve">
<style type="text/css">
	.st0{fill:#808080;}
	.st1{font-family:'Roboto-Regular';}
	.st2{font-size:14px;}
</style>
<g id="Dominican_Republic">
	<path class="st0" d="M80.738,94.713l3.853,0.851l3.607,1.851l-0.761-4.214l-3.566-8.247l0.213-2.112v-1.599l-5.398-0.278
		l-0.687-2.277l2.176-3.373l3.165-3.478l0.908-0.652l1.031-0.217l2.241,0.061l1.366-0.565l2.233-2.748l1.202-1.07l2.397-0.965
		l1.783-0.443l1.759-0.835l2.307-2.131l-1.374-2.679l-0.221-2.392l1.063-1.696l2.585-0.661l1.554,0.244l2.405,1.096l1.538,0.244
		l0.671-0.452l1.399-2.009l0.728-0.444l20.645-1.592l5.251,0.74l5.186,1.879l19.189,10.011l5.636,1.148l5.349-2.096l4.049,2.974
		l2.895,1.339l8.908,0.313l2.348-0.652l0.548-1.644l0.106-2.174l1.063-2.226l2.364-0.922l1.693,1.983l2.233,5.635l1.57-0.974
		l1.186-1.044l0.826-1.2l0.54-1.409l-1.71-0.539l-0.36-0.261l-0.033-0.557l-0.646-1.444l3.149,1.235l2.642-0.148l2.691-0.678
		l3.247-0.409l2.061-1.583l3.722-7.037l2.454-1.592l3.059-0.783l6.519-3.263l3.525-0.47l3.247,0.844l3.092,1.827l1.669,2.68
		l-1.031,3.41l3.877,1.583h1.497l-1.006-3.297l-0.491-1.201l9.725,1.592l2.863-0.296l5.938-1.401l2.307,0.104l2.47,1.67l8.842,10.62
		l0.736,2.035l-1.072,1.983l7.574,0.052l2.896,1.435l7.656,6.468l7.288,3.729l7.746,2.738l8.965,1.356l12.138,0.096l1.014-0.617
		l1.031-1.434l2.429-1.686l2.748-1.417l2.02-0.635l7.844,2.486l12.261,13.036l7.345,7.802l3.337,2.389l3.664,1.876l4.122,1.251
		l9.169,0.982l7.37,2.675l13.496,2.675l3.01-0.052l2.012-0.756l1.791-1.555l7.337-7.878l3.803-1.781l11.141,0.174l5.456-0.53
		l2.47,0.313l3.059,1.815l6.854,7.296l2.159,4.959l-0.115,5.418l-3.296,11.727l4.024,1.701l1.53,3.784l-0.057,9.735l0.491,4.233
		l1.284,3.383l13.39,20.116l6.012,5.885l0.761,0.745l6.879,2.808l4.073-0.676l7.803-3.007l4.024-0.676l9.046-0.373l4.008-0.858
		l4.114-1.681l5.938-3.987l2.298-0.503l2.078,0.451l4.261,2.106l2.642,0.468l4.867-1.222l2.11-0.225l1.17,0.043l1.088,0.26
		l0.793,0.65l0.327,1.231l0.638,1.04l1.391-0.399l2.208-1.378l11.664,4.784l3.435,2.496l2.274-4.619l3.697-3.415l9.128-5.063
		l5.873-1.803l1.391,2.462l-1.554,5.08l-2.961,6.032l4.008,1.482l4.531-0.026l4.401-1.144l3.648-1.889l1.194,4.671l-2.617,3.666
		l-3.607,3.327l-1.824,3.665l-0.867,3.855l-2.339,3.473l-3.509,2.546l-4.392,1.091l-15.778-2.91l-17.283,1.325l-4.073-1.169
		l-7.451-3.733l-25.626-3.188l-2.887,0.797l-1.104,2.85l-0.654,10.124l-1.505,8.641l0.622,3.238l1.922,1.385l2.495,1.809
		l11.091-1.705l3.828,1.42l4.777-1.541l9.456,3.687l4.99-0.563l-1.227-1.065l-1.611-0.969l-1.922-0.719l-2.225-0.286v-1.454
		l10.732-0.571l3.125,0.571l3.566,2.632l2.765,6.535l3.394,2.588l3.435,0.917l6.912,0.857l18.666,5.079l7.738,2.094l3.174-0.225
		l3.779-2.146l-1.251-1.557l-2.503-1.506l-0.025-2.059l3.607-1.03l3.141,2.855l4.229,6.896l2.732,1.592l3.043,0.917l2.601,1.142
		l1.358,2.275l2.405-1.972l4.908-2.275l2.307-1.678l-1.538-1.713l0.736-0.415l1.808-0.052l1.726-0.606l2.102-2.198l0.638-0.865
		l0.793-0.061l7.206,0.389l4.213,0.857l3.779,1.358l3.354,1.852l0.384,0.588l0.008,0.77l0.164,0.805l0.818,0.727l4.114,1.453
		l0.368-0.069l7.19,1.522l4.491,0.173l1.816,0.657l0.344,0.242l1.644,1.176l1.84,1.038l3.583,0.294l2.061,0.778l23.361,21.789
		l8.588,10.475l12.122,9.279l8.687,6.081l2.47,1.106l1.292,0.846l9.079,8.791l11.5,7.011l5.546,8.494l-1.096,8.319l-18.895,28.844
		l-1.333,1.155l-1.325,1.431l-0.614,2.017l0.368,7.362l-0.368,2.103l-2.282,3.594l-3.313,1.698l-4.155,0.5h-4.777l-3.681-1.241
		l-7.967-5.257l-2.896-0.871l-3.321,2.232l0.523,3.404l1.072,4.033l-1.71,4.136l-2.47,3.308l-1.562,3.834l-3.1,12.316l-1.121,2.187
		l-2.282,0.827l-16.997,1.352l-3.468-1.231l-0.458-7.75l-4.891-10.25l-6.691-9.969l-5.922-6.851l-6.306-4.379l-8.351-3.56
		l-8.409-1.198l-9.693,3.991l-14.649,0.681l-3.803-0.681l-8.809-2.991l-3.992-0.655l-3.468-1.138l-5.816-4.966l-4.441-1.138
		l-3.877,0.81l-3.943,1.345l-3.983,0.276l-4.032-2.431l-4.204,3.906l-26.117,2.017l-7.803,2.888l-4.122,0.103l-11.001-7.639
		l-4.45-2.38l-2.953-0.345l-1.276,1.983l0.106,2.38l0.36,2.388l-0.556,1.94l-1.799,0.595l-2.822-0.009l-2.593-0.5l-1.137-0.759
		l-3.378-5.777l-1.603-1.552l-1.497-0.483l-30.976-3.415l-5.611,0.267l-0.859,0.043l-3.247,0.966l-6.315,3.07l-5.202,3.535
		l-1.971,0.948l-5.349,1.75l-2.11,1.078l-2.527,1.293l-4.491,4l-3.386,5.344l-1.333,6.36l-1.063,1.723l-4.621,2.447l-1.055,1.542
		l-0.818,2.335l-6.789,6.34l-4.883,5.641l-2.757,2.368l-1.227-0.586l-4.875,0.138l-3.746,0.637l-2.487,1.395l-3.55-2.196
		l-3.779-0.801l-25.725,0.103l-4.319,1.369l-8.27,4.702l-4.695,1.025l-13.93-0.034l-3.231-1.292l-0.278-1.817l1.456-1.421
		l1.881-1.24l0.932-1.292l-0.573-2.291l-1.366-1.257l-1.415-0.81l-1.521-2.076l-3.844-2.507l-0.875-1.964l0.491-2.102l1.186-0.965
		l1.366-0.732l1.055-1.456l0.932-4.257l0.123-4.472l-0.548-3.921l-1.121-2.534l-4.417-5.551l-2.658-1.905l-4.654-1.811l-3.967-0.931
		l-5.014-0.388l-4.294,1.164l-1.816,3.699l0.687,4.431l-0.507,1.776l-5.971,5.921l-1.644,1.06l-2.168,0.62l-2.348-0.086l-4.18-1.31
		l-1.849-0.181l-1.554,0.612l-2.797,1.982l-1.881,0.431l-2.552-0.327l-0.892,0.551l-1.988,1.879l-0.556,0.793l-1.26,2.619
		l-0.245,0.922l-0.54,0.836l-2.699,0.896l-0.998,0.5l-5.349,6.375l-2.855,1.705l-4.769,0.594l-1.93-0.724l-1.251-1.714l-1.055-2.119
		l-1.309-1.878l-2.102-1.585l-2.135-0.93l-8.719-1.904l-4.041-0.078l-3.141,1.266l-1.26,3.231l-0.425,1.783l-1.783,3.092
		l-0.425,2.36l0.384,2.713l0.982,1.49l1.333,1.352l1.423,2.325l3.28,11.511l1.055,1.971l0.033,2.522l-3.91,5.956l-3.337,8.502
		l-19.026,27.884l-1.669,4.78l-0.834,1.702l-1.906,1.324l-4,2.089l-2.47,2.089l-1.767,2.063l-1.374,2.552l-1.26,3.515l-1.489-0.524
		l-0.573-0.361l-0.81-0.679l-0.303,1.53l-0.311,0.541l-0.761,0.67h1.374l-0.81,1.779l-1.047,1.357l-1.284,0.885l-1.595,0.309
		l-0.736,0.868l-1.309,4.21l-0.769,1.529l-2.454,3.548l-6.773,19.836l-2.078,3.854l-8.31,11.673l-2.012-0.944l-1.734-1.648
		l-0.098-0.884l-1.963-1.699l-13.823-22.879l-3.362-3.65l-6.765-2.628l-16.056,2.164l-6.871-1.692l1.938-1.503l6.413-6.675
		l1.374-2.698l-0.295-4.545l-0.842-3.197l-3.1-6.025l-2.176-3.318l-0.425-1.221l-0.139-2.536l1.374-7.995l-1.497-3.689l-3.534-4.102
		l-7.337-6.115l-11.239-4.258l2.405-6.394l0.727-3.661l-0.447-6.142l0.135-3.52l-0.478-2.367l-2.161-6.062l-0.301-2.001l0.561-4.166
		l1.589-3.975l8.93-15.397l0.12-0.207l2.367-4.081l-0.436-0.613l-1.849-1.658l-2.867-1.899l-10.803-4.082l-7.583-5.073l-1.631-1.888
		l-3.054-4.527l-1.693-1.505l-7.843-1.976l-3.013-1.664l-1.205-3.92l0.758-2.327l1.506-0.865l1.07-1.161l-0.499-3.182l-1.299-2.01
		L31.787,334.67L30,331.202l3.459-2.614l7.469-1.584l15.114,2.801l7.781-2.669l2.618-2.823l4.134-7.077l2.742-3.081l0.516-0.321
		l1.383-0.859l5.393-3.349l2.815-2.32l2.41-3.954l1.371-3.587l0.987-3.922l0.301-3.988l-1.621-8.345l-0.208-8.611l-1.111-3.93
		l-1.496-1.921l-4.602-4.227l-1.839-2.169l-2.846-6.018l-1.839-1.494l-4.706-0.159l-4.997,1.714l-3.605,0.566l-0.592-3.685
		l3.47-2.351l10.315-2.79l2.639-1.637l8.715-9.691l6.015-8.457l3.044-2.743l6.814-4.903l2.535-3.766l1.028-3.656l0.914-12.692
		l-2.537-1.238l-13.024-6.354l-6.633-6.802l-0.847-0.868l-3.584-5.063l-0.997-4.249l1.319-1.343l5.423-3.105l1.911-1.508
		l2.545-6.497l1.112-1.217l2.296-4.895l0.135-9.518l-2.4-16.673l-5.62-13.356l-0.925-4.847l0.33-5.599l0.2-3.39l-0.717-3.778
		L80.738,94.713z M127.565,553.917l-3.354-1.913l-0.041-4.539l1.84-5.303l2.241-4.214l2.838,1.605l2.887,2.111l5.12,4.934
		l-3.1,0.978l-4.998,5.139L127.565,553.917z M702.568,422.178l10.388-0.31l2.732,0.973l2.029,2.712l2.249,4.157l1.472,3.813
		l-0.335,1.661l-3.051-0.68l-6.486-2.978l-3.378-0.68l-3.583,0.439l-6.225,1.988l-3.419,0.465l-7.067-1.885l-5.03-4.562
		l-3.239-5.681l-1.759-5.217l2.986-0.887l3.525,0.68l3.493,1.722l2.985,2.17l2.323,0.827L702.568,422.178z"/>
</g>
<g id="Copyright">
	<text transform="matrix(1 0 0 1 681.6426 577.5916)" class="st1 st2">© Vemaps.com</text>
</g>
</svg>
