<?xml version="1.0" encoding="utf-8"?>
<!-- Generator: Adobe Illustrator 23.0.1, SVG Export Plug-In . SVG Version: 6.00 Build 0)  -->
<svg version="1.1" xmlns="http://www.w3.org/2000/svg" xmlns:xlink="http://www.w3.org/1999/xlink" x="0px" y="0px"
	 viewBox="0 0 800 600" style="enable-background:new 0 0 800 600;" xml:space="preserve">
<style type="text/css">
	.st0{fill:#808080;}
	.st1{font-family:'Roboto-Regular';}
	.st2{font-size:14px;}
</style>
<g id="Georgia">
	<path class="st0" d="M30,139.554l0.586-2.631l7.49-19.588l1.505-2.414l2.633-1.762l7.456-2.01l7.592,0.012l27.212,10.199
		l4.389,0.542l3.443-0.923l7.137-3.742l4.013-0.476l3.215,1.659l0.982,0.751l5.539,4.236l11.309,3.936l3.557,2.089l15.094,12.183
		l3.386,0.847l11.491-1.521l3.762,0.784l3.568,1.807l3.397,2.818l3.842,1.669l7.889-1.54l3.352,1.301l1.003,1.501l1.55,3.541
		l1.026,1.551l1.596,1.225l5.757,1.812l2.907,1.734l4.902,5.074l2.975,1.662l4.036,0.344l8.083-1.087l4.013,0.45l7.182,2.069
		l3.466,0.352l7.684-0.876l3.238,0.164l3.192,0.888l3.466,1.728l3.488,1.028l3.534,0.195l3.523-0.711l8.719-4.876l0.607-0.34
		l2.816-0.868l18.662-1.596l0.883,0.125l6.652,0.939l6.27,4.251l2.907,2.928l3.181,2.493l6.726,3.786l2.132,0.461l1.562-0.648
		l2.964-2.801l1.915-0.922l3.454-0.082l5.141-1.59l4.389,0.117l4.241,1.122l3.078,2.012l3.101,2.965l3.203,2.101l9.405,3.518
		l0.011,2.01l-0.844,2.497l-0.308,2.438l1.003,1.58l5.449,3.809l11.839,11.243l2.166,1.193l2.109,1.162l21.16,6.005l10.305,2.923
		l4.172,1.054l7.592,3.736l1.847,1.628l4.56,5.446l2.041,1.312l10.271,2.512l2.93,1.489l1.995,1.014l1.231,4.385l-2.542,3.63
		l-3.853,2.764l-3.101,3.039l-0.342,4.428l3.146,3.915l4.97,1.336l5.387,0.418l4.452,1.173l2.515,1.936l1.396,1.074l2.086,1.033
		l2.063-0.329l1.63-1.435l2.736-3.801l1.488-1.641l4.805-2.246l10.562-0.504l3.858-1.176l1.277-0.389l1.54-1.579l2.073-2.125
		l2.041-4.229l2.576-3.059l9.781-0.206l4.492-1.466l8.584-4.621l3.186-0.9l5.535-0.423l4.708,0.598l4.167,1.348l0.404,0.131
		l4.081,2.344l1.721,1.42l3.249,3.479l1.311,2.024l2.725,8.745l1.368,1.437l0.975-1.049l1.784-8.261l3.192-6.937l0.69-2.421
		l2.833-3.819l4.811,0.966l12.039,8.675l1.949,0.981l2.018,0.43l2.086-0.384l0.995-0.444l3.075-1.371l2.103-0.26l3.574,1.353
		l3.181,2.764l10.864,13.26l1.208,2.02l0.874,1.957l1.212,2.713l1.117,1.737l3.671,1.52l4.697-0.661l8.903-2.688l6.35,0.147
		l9.245,1.644l8.607,3.41l4.514,5.403l-0.012,0.122l-0.341,3.455l-12.688,33.285l1.106,3.471l3.329,2.154l4.435,2.077l12.113,8.518
		l7.695,2.001l1.522,1.509l3.124,7.763l1.174,1.654l1.482,0.829l2.075,0.127l0.787-0.311l1.459-1.151l0.929-0.23l0.712,0.368
		l1.847,1.623l0.923,0.483l1.995-0.138l1.505-0.388l1.083,0.744l0.741,3.241l2.668,1.25l3.386,0.084l6.475-1.342l0.034-0.015
		l0.034-0.019l0.935-0.257l0.935-0.088l0.929,0.088l1.077,0.299l2.884,2.339l4.817,5.799l3.141,1.425l6.555,0.559l2.702,1.513
		l2.685,3.645l-4.207,8.702l-2.365,3.847l-4.742,5.81l-1.607,1.444l-1.761,0.863l-2.297,0.221l-5.164-1.184l-2.405,0.267
		l-2.132,2.273l-1.043,5.063l0.051,7.491l1.408,6.639l2.97,2.489l0.969-0.8l0.547-1.361l0.73-1.113l1.528-0.061l0.251,0.823
		l2.451,4.71l0.163,1.065l0.88,5.753l0.98,3.205l1.898,2.451l5.768,4.002l1.288,0.601l2.246,0.555l5.164,4.821l10.739,4.552
		l5.415,3.244l1.744,4.101l1.71-0.676l0.769,0.512l0.132,0.088l0.741,1.26l2.132,2.399l3.466,5.326L770,455.79l-0.342,0.182
		l-0.912-0.137l-0.969,1.145l-0.217,1.13l-0.12,2.57l-0.234,0.963l-0.65,0.932l-1.459,1.372l-0.65,0.909l-1.072,3.947l-0.581,5.027
		l-0.924,4.707l-0.615,0.868l-1.517,2.142l-2.166,0.348l-2.098-0.575l-2.16-0.212l-2.331,1.467l-1.243,2.344l-0.616,2.298
		l-0.969,1.527l-2.411,0.106l-1.978-1.217l-3.084-4.173l-1.807-1.596l-6.566-2.148l-2.292-1.369l-6.498-5.918l-3.203-4.021
		l-1.744-1.712L716.591,466l-8.294,0.038l-2.457,0.568l-2.815,1.815l-2.896,1.866l-2.177,0.803l-2.668,0.242l-5.324-0.659
		l-16.37-5.938l-5.56-3.417l-2.123-1.305l-4.56-3.92l-2.633-4.187l2.451-3.066l2.531-0.903l1.573-0.865l-0.137-0.911l-2.576-1.033
		l-7.182-1.465l-15.858-6.206l-3.591-3.397l-1.596-1.84l-1.63-0.297l-3.648,1.118l-2.223,0.198l-1.716-0.342l-5.31-2.761
		l-2.06-1.071l-3.608-0.19l-3.54,1.24l-16.742,13.907l-10.526,8.734l-1.368,0.88l-2.497,2.268l-1.345,0.925l-4.184,0.137
		l-10.648-1.699l-2.143,2.176l0.912,2.07l4.138,2.001l0.746,1.064l0.429,0.611l-1.094,1.531l-2.896,0.394l-16.171-0.333
		l-4.611-1.841l-2.234-0.303l-2.371,1.076l-1.425,1.902l-1.345,2.326l-1.625,1.454l-2.263-0.651l-0.604-1.113l-0.399-1.5
		l-0.581-1.106l-1.186,0.038l-0.718,0.553l-2.223,2.492l-2.679,0.78l-2.479-0.174l-2.411-0.886l-5.883-3.583l-1.362-0.159
		l-1.305,0.424l-0.901,0.811l-0.792,0.917l-1.02,0.697l-2.594,0.432l-2.041-0.78l-5.335-3.72l-2.992-1.243l-1.174,0.015
		l-1.311,0.932l-0.285,1.091l-0.074,1.243l-0.564,1.432l-1.733,1.735l-2.166,1.174l-2.326,0.424l-4.674-1.318l-2.2,0.235
		l-4.435,2.007l-2.529,0.621l-0.047,0.012l-2.416,0.594l-10.214,0.22l-4.731,1.976l-5.141,4.54l-2.16,0.915l-2.696,0.227
		l-17.989-2.542l-4.686,0.182l-5.956,2.436l-1.083,0.242l-1.089-0.023l-1.106-0.28l1.254-3.806l-1.568-3.459l-2.981-2.779
		l-3.01-1.765l-3.477-0.939l-3.215,0.227l-10.146,2.848l-1.59-1.159l-2.645-6.515l-2.229-2.547l-2.172-0.265l-2.428,0.273
		l-2.998-0.955l5.968-3.071l1.613-1.411l1.488-2.124l-0.148-0.759l-3.226-0.425l-3.403-1.624l-5.324-4.691l-8.117-5.559
		l-1.596-1.763l-3.295-6.225l-0.855-0.981l-0.98-0.388l-0.536-0.578l-0.445-0.669l-0.673-0.631l-3.249-1.103l-0.844-0.502
		l-0.912-1.659l-0.616-1.834l-0.787-0.959l-1.482,0.944l-2.713,3.135l-2.075-0.685l-2.098-2.313l-2.827-1.689l0.923-1.462
		l2.177-1.85l0.889-1.074l0.456-1.31l0.228-1.462l0.365-1.485l0.855-1.379l-2.098-1.013l-15.436-1.334l-5.563,0.472l-2.167,0.721
		l-0.47,0.157l-0.156,0.052l-2.212,1.714l-1.129,2.476l-1.037,6l-1.106,2.375l-2.394,2.541l-3.306,5.012l-2.291,1.521l-1.328,0.069
		l-1.454,0.076l-19.346-7.575l-5.426,0.312l-2.645-0.221l-1.835-1.735l-1.573-0.944l-1.676-0.053l-3.466,0.997l-1.573-0.715
		l-1.55-0.259l-1.55,0.221l-1.596,0.753l-3.899,1.24l-7.9-3.021l-4.435,1.781l-1.516,1.172l-3.454,4.967l-4.423,3.794l-1.06,0.616
		l-1.345-0.57l-4.389-4.098l-1.459-0.487l-3.226-0.403l-1.288-0.525l-0.467-0.928l0.023-1.202l0.125-1.103l-0.148-0.578
		l-0.844-0.008l-2.77,1.271l-3.295,0.259l-1.402-0.266l-11.747-4.964l7.226-13.046l3.25-4.413l6.651-4.361l1.858-4.447l5.171-8.515
		l0.287-1.739l0.009-1.336l0.162-1.174l0.673-1.312l1.795-2.468l0.61-1.24l0.233-1.337v-11.999v-0.639l-1.32-9.334l-0.189-3.369
		l-0.503-2.053l-4.461-7.861l-3.348-5.884l-1.167-0.98l-1.131-1.252l-0.539-2.832l-0.215-5.067l-0.889-6.724l-5.844-20.456
		l-0.431-0.893l-0.781-1.112l-2.962-2.977l-0.386-1.051l-0.404-2.482l-5.628-35.038l-1.921-5.951l-2.801-5.02l-3.644-3.935
		l-4.506-2.61l-8.402-1.559l-1.795-1.009l-1.777-1.645l-2.666-1.492l-2.801-1.064l-2.208-0.318l-1.284,0.379l-2.217,1.37l-1.4,0.294
		l-1.176-0.722l-5.018-7.661l-2.531-9.267l-4.578-8.012l-1.894-4.319l-2.729,0.08l-4.345,1.969l-2.783-0.957l-3.285-5.069
		l-1.921-1.179l-0.036-0.773l-2.585-4.483l-0.754-0.614l-8.043-3.189l-11.05-1.53l-5.144,0.277l-3.555,0.903l-1.346,0.129
		l-1.311-0.479l-2.118-2.139l-1.122-0.473l-0.494-0.412l-1.885-2.029l-0.969-0.756l-1.095-0.406l-3.501-0.615l-8.851-4.282
		l-4.093-0.474l-2.872,3.722l-1.113-1.206l-1.625-4.067l-1.023-1.957l-2.504-2.549l-1.095-1.644l0.485-4.786l-1.723-4.456
		l-2.424-4.094l-1.777-2.214l-3.402-1.598l-6.041-1.827l-3.546-3.574l-1.589-0.778l-5.09-0.834l-3.42-1.42L30,139.554z"/>
</g>
<g id="Copyright">
	<text transform="matrix(1 0 0 1 681.6426 577.5916)" class="st1 st2">© Vemaps.com</text>
</g>
</svg>
