<?xml version="1.0" encoding="utf-8"?>
<!-- Generator: Adobe Illustrator 23.0.1, SVG Export Plug-In . SVG Version: 6.00 Build 0)  -->
<svg version="1.1" xmlns="http://www.w3.org/2000/svg" xmlns:xlink="http://www.w3.org/1999/xlink" x="0px" y="0px"
	 viewBox="0 0 800 600" style="enable-background:new 0 0 800 600;" xml:space="preserve">
<style type="text/css">
	.st0{fill:#808080;}
	.st1{font-family:'Roboto-Regular';}
	.st2{font-size:14px;}
</style>
<g id="Honduras">
	<path class="st0" d="M34.471,396.564l-0.255-3.767l0.212-1.92l0.761-1.581l1.201-0.789l2.608-0.667l0.967-1.03l1.167-2.108
		l1.634-1.776l3.675-3.183l1.064-1.325l0.57-0.946l0.889-0.602l1.998-0.26l1.44,0.26l2.948,1.022l1.356-0.107l1.38-1.319
		l0.546-2.009l0.061-2.153l-0.491-6.112l0.418-0.762l1.246-1.357l0.297-0.95l-0.212-2.066l-0.201-0.31l-0.506-0.781l-1.074-0.95
		l-1.277-1.659l-2.214-5.366l-1.104-1.832l-2.365-2.864l-1.022-1.565l-0.558-1.691l0.115-2.284l0.919-1.421l2.911-2.526l1.127-1.608
		l0.902-1.288l1.452-3.449l0.006-3.202l-2.286-2.147l1.856-5.604l1.404-2.192l1.627-1.342l0.753-0.621l3.603-1.831l11.918-4.005
		l4.091-1.945l14.835-11.541l10.108-7.867l10.176-7.922l10.189-7.942l10.253-7.995l3.824-3.019l8.033-6.342l5.449-5.374l3.551-6.138
		l0.661-0.894l2.475-0.05l1.865-0.699l1.725-0.958l2.023-0.863l0.725,0.907l0.782-1.625l-0.097-1.323l0.367-1.096l1.371-0.516
		l0.688,0.298l5.32,3.81l2.875,0.908l3.094-1.384l6.805-7.303l2.889-1.851l-0.626-1.921l1.175-0.387l4.618,0.64l6.848-4.169
		l0.85-1.653l0.248-1.201l-0.659-0.556l-1.309-0.377l-1.07-0.864l-0.487-0.864l0.42-0.387l4.957-0.109l1.972-0.596l1.924-1.38
		l3.462-1.172l10.091-0.695l2.111-0.601l0.678-1.723l0.936-0.293l0.726-0.233l2.092,0.268l1.977,0.7l5.215,3.143l1.996,0.189v-0.765
		l-1.203-1.167l1.213-1.395l4.069-2.508l-2.244,3.099l-0.807,1.892l1.017,0.844l0.645,0.844l10.974,10.017l3.548,1.538l3.763-0.744
		l0.654-0.685l1.199-1.975l0.554-0.591l1.137-0.089l3.047,0.134l0.626-0.496l0.692-2.075l1.757-1.077l2.335-0.243l12.125,2.8
		l10.568,3.722l10.883,1.201l12.498,2.888l4.183,0.357l4.475-0.457l7.202-2.164l2.082-0.333l0.325-0.362l1.958-1.538l0.449-0.218
		l0.669-0.556l1.433,0.516l1.409,0.819l0.573,0.422l4.986,0.427l22.918-2.005l3.902,0.109l3.596,1.469l0.244,0.159l2.722,1.757
		l1.834,0.491l2.851,0.179l2.321-0.372l1.958-0.903l11.156-6.978l2.904-3.227l1.332-1.092l4.055-1.648l4.083-0.993l16.776-0.616
		l1.476-0.427l1.189-0.606l4.565-3.357l2.474-2.761l1.055-2.951l-1.877-2.474l-7.431-1.073l-3.553-0.909l0.568-1.356l3.061-0.253
		l9.071,1.803l6.284,1.178l4.406,0.512l5.532,1.583l5.514,1.448l1.896,0.397l1.309,0.606l0.306,1.401l-0.019,1.659l0.306,1.336
		h0.874l-0.062-0.819l0.239-0.387l0.353-0.209l0.272-0.253l1.936,0.048l1.043,1.566l2.086,1.696l2.476,1.827l5.212,2.221
		l8.858,2.356l6.124-0.512l8.732-0.896l12.645-0.363l6.795-2.851l8.517-6.24l5.634-3.378l8.9-0.207l5.771,1.945l11.303,5.158
		l14.186,4.237l6.694,2.297l1.675,1.289l-0.728,1.516l-1.452,2.232l-0.01,1.919l-0.016,3.039l2.468,2.411l2.319,0.332l2.885-0.944
		l0.414-2.476l0.326-1.118l1.12,0.086l0.791,1.523l2.071,1.45l2.961-0.463l2.796,0.336l5.75,0.754l1.047-1.273l1.843-0.788
		l-2.471-1.055l-2.954-0.658l-9.265-1.573l-3.511-1.539l-2.954-1.455l-1.03-1.925l4.716,0.986l16.135,3.054l10.545,1.107
		l6.956,0.367l2.395,0.816l6.366,5.325l8.606,7.03l12.765,10.903l12.367,10.644l6.896,5.811l8.994,5.515l2.168,1.283l2.135,0.951
		l4.131,0.694l1.041,0.55l0.802,1.189l0.072,0.951l-0.769,0.624l-1.748,0.223l-2.053-0.802l-4.451-3.527l-3.314-1.149l-2.225-1.58
		l-1.098-0.5l-3.563-0.035l-1.552-0.342l-1.375-1.358l0.549-0.208l0.497-0.367l0.559-0.188l-1.017-1.516l-3.859-4.376h-0.802
		l-1.285,0.639l-1.576-0.937l-1.648-1.398l-1.504-0.719l-2.407,0.302l-1.103,0.758l-0.85,1.056l-1.652,1.13l-0.745-0.505
		l-3.257-1.16l1.5-1.333l0.635-0.743l0.272-0.793l-0.563-0.283l-1.261-0.208l-1.385-0.055l-0.874,0.173l-0.33,1.314l0.755,2.092
		l1.366,2.24l1.48,1.759l-0.291,0.268l-0.129,0.084l-0.115,0.139l-0.258,0.416h-0.802l-3.515-6.859l-1.299-1.452l-1.337-0.233
		l-1.542,0.297l-2.001,0.684l-1.394-0.099l-2.015-0.486l-1.394-0.164l0.907,2.766l0.755,0.947l2.149,0.763l0.029,1.011l-0.387,1.368
		l-0.243,1.457h0.802l0.363-1.863l2.349-1.11l1.06-3.375l1.108-0.362l1.094,0.664l1.59,3.985l1.901,3.221l0.693,2.745l-2.517,1.159
		l-1.242,1.357l0.898,3.076l1.996,3.333l1.996,2.13l3.028,1.615l2.502,0.604l1.117-1.139l-1.117-3.571l1.576,1.248l1.394,1.649
		l0.554,1.882l-0.965,1.941l1.604,2.01l2.264,0.376l5.735-0.723v0.827l-1.132-0.044l-0.764,0.223l-1.299,0.654v0.757l0.974,2.069
		l1.442,1.896l1.925,1.381l2.464,0.544l2.135-0.262l2.732-0.698l2.627-1.059l1.791-1.302l-1.485-1.451l-4.99-2.708l-0.845-0.832
		l-0.392-0.807l-0.477-0.614l-1.094-0.238l-1.261-0.094l-8.968-3.194l-1.461-0.941l-2.722-3.952l-1.361-1.035l1.041-0.926
		l1.151-0.614l2.622-0.951l10.473,4.626l1.691,2.471l0.664,1.293l1.614,1.189l1.987,0.881l3.343,0.713l1.39,0.98l1.199,1.362
		l1.022,1.515l-0.783,0.53l-0.95,0.852l-0.673,0.282v0.757l1.929,0.431l1.633-1.193l1.266-0.158l0.86,3.564l-0.263,4.524
		l0.263,1.208l0.864,0.876l0.888-0.054l0.597-0.871l-0.024-1.603h0.879l1.041,2.366l0.984-0.564l1.977-3.544l1.824-1.059
		l2.431-0.728l4.198-0.549l0.516-0.574l-0.243-2.762l0.167-0.97l0.783-0.52l0.745,0.059l0.883,0.282l7.607,1.495l1.996-0.411v0.757
		l-0.697,0.728l0.076,0.49l0.387,0.535l0.234,0.891v3.663l-0.611,1.831l-1.356,0.762l-1.347-0.525l-0.616-2.069l-0.43-0.619
		l-1.017-0.411l-1.218-0.228l-1.017-0.069l-0.702,0.5l-0.635,1.104l-0.74,1.792l-0.53,0.633l-0.516,0.391l-0.392,0.599l-0.162,1.287
		l0.282,1.118l0.664,0.203l0.798-0.351l0.659-0.554l-0.597-1.029l-0.119-0.792l0.234-0.718l0.482-0.787h0.874l0.244,2.984
		l0.802,2.138l1.476,0.816l2.292-0.95l0.63-0.698l1.07-1.781l0.697-0.772l0.926-0.594l5.258-1.905l-0.043-0.426l-0.53-1.297
		l-0.492-0.752l-0.669-0.554l-0.673-0.708l-0.492-1.232l-0.396-1.723l-0.86-2.327l-1.457-1.376l-2.178,1.119l-3.486-2.099
		l-1.734-0.386l-2.063,0.896l-0.721-0.827l0.263-0.456l0.458-1.208l-1.891-0.258l-5.076-1.882l-1.041-0.772l-1.232-1.377
		l-2.45-0.792l-1.82-1.07l0.697-2.234l1.924-0.946l1.829,1.006l1.652,1.6l1.404,0.832l1.261,0.421l12.679,6.641l15.793,6l6.07,4.465
		l1.38,2.292l1.891,7.813l2.063,4.888l3.118,4.629l3.577,2.883l14.479,5.785l-1.55,0.257l-3.96-0.232l-1.635,0.311l-3.099,1.428
		l-5.198-0.085l-0.485,0.085l-1.428-0.562l-0.861-0.606l0.091-0.64l1.398-0.688l-5.173-0.549l-2.017,0.135l-1.774,1.171
		l-0.609-1.611l-1.225-0.763l-1.507-0.597l-1.465-1.181l-1.125,2.107l-1.828,2.028l-2.378,1.428l-2.753,0.326l-1.08-0.596
		l-1.428-2.204l-0.622-0.6l-1.544-0.264l-1.183,0.135l-0.397,0.612l0.792,1.177l-0.619,0.807l-0.191,0.747l-0.07,1.843l-1.152-1.074
		l-0.655,0.521l-0.152,1.412l0.358,1.629l-0.661-0.323l-1.744-0.509l0.261,0.37l0.315,0.86l0.231,0.427l-1.689,0.505l-2.923,2.344
		l-2.875,1.083l-0.576,1.315l-0.249,1.635l-0.506,1.484h-0.873l-0.998-1.277l-2.159-0.643l-2.605-0.138l-2.326,0.323l-2.189,1.048
		l-0.455,1.349l1.113,3.485h-0.87l-0.443-1.035l-0.87-0.549l-1.21-0.169l-1.483,0.094l0.24,1.885l-2.438,0.957l-6.544,0.402
		l0.837,1.421l0.579,0.593l0.913,0.621l-2.165,0.019l-2.329,0.753l-2.089,1.17l-1.428,1.295l-0.679-0.869l-0.409-0.301l-0.461-0.132
		l-0.852-0.351l0.579,1.138l0.146,0.514l-1.501-0.405l-1.889-2.032l-1.416-0.8l-0.579,2.779l-0.024,1.12l0.603,0.997l-11.602,0.621
		l-2.017-0.245l-0.224-0.938l-0.604-0.332l-1.98,0.066l-1.234-0.166l-0.443-0.43l-0.303-0.561l-2.687-1.716l-0.858,0.063
		l-1.286,1.079l1.362,2.851l0.813,1.113l1.028,1.003v0.909l-0.804,0.514l-0.497-0.056l-0.552-0.288l-0.985-0.169l-1.07,0.232
		l-0.6,0.505l-0.473,0.583l-0.694,0.408l-2.863,0.837l-1.725,0.135l-1.422-0.589l-2.778-3.001l-0.904-0.768l-1.058-0.602
		l-1.622-0.568l-1.477,0.107l-0.649,1.439l0.607,5.694l-0.601,2.671l-2.408,1.276l-1.301-0.094l-2.851-0.646l-1.786-0.166
		l-0.898-0.643l-0.84-3.154l-1.143-1.169l-1.55,2.292l-1.628,3.063l-2.162,2.677l-4.376,1.545l-3.039,1.705l-1.301,0.382
		l-1.798-0.539l-1.228-1.056l-1.24-0.686l-1.78,0.552l0.352-2.376l0.446-0.859l-8.57-0.257l-2.644-0.57l-4.546-1.969l-2.247-0.245
		l-2.168,1.307l-1.771-4.154l-1.225-2.029l-2.399-1.634l0.118-1.615l-0.324-1.465l-2.335-0.295l0.064-0.238l0.919-1.189l0.364-0.342
		l-1.726-2.873l-2.578-1.932l-3.048-0.922l-3.09,0.135l-7.017,1.283l-1.926,1.126l-5.38,5.228l-2.102,1.505l-1.828,1.239
		l-0.24,0.162l-1.604,1.518l-1.043,1.897l-0.616,4.489l-0.382,0.724l-0.607,0.285l-1.844,0.505l0.634,1.182l3.324,2.376
		l-2.584,2.457l-0.698,0.934l3.045-0.003l-0.169,0.396l-0.702,1.648l-4.179,4.208l-2.481,1.178l-1.992-1.494l-1.874-2.074
		l-2.138-0.548l-0.931,1.726l-0.509,3.365l-0.237,6.127l-0.419,0.786l-2.711,2.894l-0.139,0.77l0.273,1.851l-0.133,0.767
		l-3.208,2.483l1.889,1.249l2.095,1.919l1.507,2.417l0.118,2.761l-1.362,2l-2.414,1.468l-2.936,0.976l-2.905,0.516h-4.443
		l-1.219,0.263l-2.79,1.393l-1.101,0.282l-0.643,0.676l-0.476,0.817l-0.831,1.008l-0.334,0.885l-0.331,0.394l-0.491,0.106
		l-1.258-0.2l-0.509,0.094l-1.131,1.092l-1.349,1.774l-1.128,1.899l-0.852,3.097l-0.967,2.302l-1.295,2.336l-1.359,1.698
		l-3.038,2.395l-2.002,1.166l-4.221,1.163l-0.676,1.604l-0.261,1.929l-1.095,1.657l-2.192,0.725l-1.938,0.35l-1.004,0.181
		l-2.572,0.853l-1.11,1.685l-1.143,1.185l-4.115,1.263l0.382,1.272l-0.358,0.119l-0.321-0.006l-0.182,0.141l0.055,0.569h-0.725
		l-1.001-0.3l-2.383,2.072l-1.495,0.706l-2.083-0.144l-1.216-0.281l-0.57,0.662l-0.139,2.65l-1.161,3.637l-0.488,2.33l0.443,1.053
		l1.759,0.55l0.667,1.402l-0.249,1.871l-0.97,1.952l-0.81,0.744l-0.254,0.234l-0.077-0.031l-0.221-0.088l-1.562-1.764l-2.39-0.2
		l-2.741,0.087l-2.599-0.903l-1.871-2.283l-1.146-2.48l-1.377-2.096l-2.578-1.14l-1.601,0.1l-1.068,0.444l-1.079,0.231l-1.632-0.562
		l-0.788-0.737l-2.541-3.374l-8.291-6.044l-0.334-3.207l1.268-2.601l0.03-1.341l-8.982,1.341l-1.613,0.841l-1.316,1.2l-0.613,1.047
		l-0.461,1.166l-0.843,1.541l-1.371,1.441l-1.419,0.744l-1.383,0.538l-1.231,0.822l-4.051,6.349l-7.69,8.3l-1.856,2.948
		l-0.922,3.582l-0.679,1.823l-1.365,1.552l-1.753,0.859l-2.153,0.531l-6.059,0.39l-0.819-0.119l-1.11-0.359l-0.698-0.5l-1.85-1.914
		l-1.716,0.244l-1.577,0.837l-1.704,0.546l-2.08-0.59l-3.888-2.145l-4.634,0.275l-9.57,1.833l-5.119-0.643l-2.456,0.212
		l-2.662,1.346l-1.353,0.94l-0.558,0.493l-0.2,0.737l-0.273,1.683l-0.11,2.096l-0.339,6.438l0.224,1.095l0.461,0.624l0.479,0.365
		l1.025,0.78l0.449,0.78l0.079,1.931l-0.728,3.866l0.061,2.056l3.791,14.48l-0.194,1.88l-1.492,3.333l-0.182,1.724l0.449,1.203
		l0.698,0.368l0.8,0.19l0.758,0.686l0.849,1.537l0.249,0.732l0.697,3.453l-0.255,1.854l-0.91,1.586l-1.607,1.492l-0.849,0.582
		l-0.837,0.573l-1.11,0.293l-1.098-0.349l-6.756-3.346l-2.02-0.171l-1.886,0.545l-1.553,1.072l-5.64,4.866l-0.946,1.184
		l-0.837,1.617l-0.849,3.395l-0.2,0.321l0.218,0.701l0.885,1.937l0.212,0.302l-1.013,6.34l0.297,0.76l0.661,0.293l0.461,0.436
		l-0.315,1.18l-0.594,0.62l-1.728,0.865l-0.667,0.526l-2.747,4.314l-1.334,1.447l-3.002,1.902l-2.447,1.205L307.526,570
		l-1.386-0.093l-2.699-1.665l-1.738-0.187l-26.921,1.731l0.048-0.034l1.137-0.799l0.368-1.539l0.85-1.181l1.261-0.863l1.605-0.603
		v-0.75l-3.243-0.108l-2.335-0.466l-1.772-1.02l-1.533-1.765l-0.764-1.191l-0.172-0.642l0.205-1.912l0.745-0.284l3.596-0.559
		l1.189-0.353l-6.791-1.809l-3.844-0.422l-2.178,0.662h-0.731l-0.325-4.649l-1.605-4.757l-2.264-4.209l-2.292-2.998l-0.731-1.928
		l-0.143-0.093l-0.291-0.5l-0.683,0.044l-0.778,0.167l-0.583-0.152l-0.817-1.089l-0.392-0.972l0.205-0.996l1.003-1.138l0.998-0.648
		l1.968-0.913l1.046-0.913l2.345-3.337l0.864-0.78l1.585,0.363l1.853-0.456l3.768-1.472l-0.162-1.016l0.005-0.707l0.158-0.825
		l-1.734-1.605l-0.802-0.57l-1.075-0.226l-2.354,0.442l-0.931-0.201l-1.117-1.139l-2.006,1.473l-0.616,0.638l-0.583,1.188
		l-0.215,1.62l0.396,0.874l0.091,0.658l-1.146,0.962l-0.731,0.088l-4.074-0.088l-1.834,0.452l-1.055,0.034l-1.122-0.486v-0.825
		h1.681v-0.741l-2.225-0.481l-2.292-0.83l-2.058-0.177l-1.519,1.487h-0.793l0.215-1.188l1.309-3.009l-1.605-0.628l-0.372-1.326
		l0.454-3.403l-0.64-1.817l-1.461,0.309l-1.633,1.375l-1.146,1.37l1.075,3.427l-1.724,3.201l-3.18,2.356l-3.309,0.898l-2.101-0.403
		l-2.741-1.688l-2.244-0.751l-0.186-0.825v-0.825l-0.415-0.373l-1.146-0.059l-0.793-0.187l-1.662-0.623l9.243-4.238l2.026-2.31
		l0.276-1.55l-0.209-1.606l-0.603-1.447l-0.904-1.054l-1.707-0.667l-2.487,0.83l-1.21-0.437l-1.228-2.757l0.688-3.338l2.814-6.82
		l0.267-2.2l-0.097-4.481l0.425-2.132l1.022-1.482l1.177-1.121l0.579-1.299l-0.761-2.001l0.591-1.973l2.368-5.48l1.058-1.758
		l-2.065-0.834l-3.324-2.868l-1.855-1.601l-0.716-0.394l-1.641-0.637l-0.609-0.372l-0.952-1.434l-1.143-3.18l-1.107-0.875
		l-1.762,0.075l-1.18,0.984l-0.97,1.237l-1.137,0.809l-1.131,0.075l-2.296-0.481l-1.174-0.072l-0.913,0.316l-1.51,1.168
		l-0.537,0.272l-0.804-0.234l-1.731-1.131l-0.665-0.135l-0.257-0.052l-1.756,0.475l-5.349,2.68l-0.976-2.999l-1.917-2.293
		l-2.162-1.978l-1.701-2.047l-1.719-4.49l-1.35-1.122l-3.093-0.175l-6.12,0.734l-1.871-0.044l-2.838-0.634l-0.282-0.063
		l-1.762-0.188l-1.152,0.438l-0.055,0.406l0.115,2.394l0.243,0.431l1.049,0.972l0.209,0.325l-0.561,1.653l-0.752,0.175l-1.04-0.169
		l-1.404,0.603l-0.77,0.856l-0.47,0.835l-0.394,0.699l-0.928,0.89l-1.277,0.437l-1.422,0.106l-1.271,0.469l-0.816,1.515
		l-0.752-0.319l-0.934-0.281L153.368,460l-0.764,0.05l-0.367,0.431l-0.085,0.75v0.715l-0.139,0.35l-0.858-0.087l-1.871-0.743
		l-1.125-0.062l-4.728,1.053l-2.138,0.906l-2.195,1.34l-3.13,0.156l1.034-1.708l-0.079-1.937l-1.271-3.174l-0.327-1.15l0.243-1.784
		l0.4-1.472l0.085-1.409l-0.599-1.32l-0.128-0.283l0.482,0.064l0.033,0.004l0.096-0.084l0.068-0.06l0.036-0.294l0.091-0.381
		l-1.049-1.034l-1.137-0.478l-5.17-0.394l-8.891-2.85l-2.99-0.2l-2.99,0.462l-0.719,0.278l0.015-0.217l0.043-0.624l-0.264-1.01
		l-0.582-0.813l-0.846-0.728l-0.546-0.2l-2.517-0.338l-1.841-1.21l0.067-1.704l0.706-1.991l0.097-2.048l-0.84-1.379l-1.025,0.106
		l-1.21,0.75l-1.398,0.547l-5.146-0.388l-2.062,0.307l-0.77-3.415l-1.762-3.618l-2.456-3.109l-2.905-1.861l-1.835-0.038l-1.641,0.71
		l-1.392,0.816l-1.137,0.253l-1.034-0.751l-0.382-1.286l-0.116-0.99l-0.066-0.565l-0.443-1.517l-1.052-1.786l-1.083-1.311
		l-2.978-2.269l-0.528-1.086l-0.467-3.711l-0.749-1.499l-1.877-0.942l-4.003-0.469l-1.337-1.155l0.461-1.193l0.103-1.233
		l-0.255-1.205l-0.585-1.111l-0.673-0.911l-0.576-0.538l-0.688-0.132l-1.037,0.288l-0.931,0.961l-1.689,3.274l-1.113,1.021
		l-5.419-1.621l-2.978-2.116l-5.986-1.284l-3.642-1.734l-4.535-0.73L34.471,396.564z M239.444,532.6l0.372,0.873l-0.224,1.874
		l-1.227,1.737l-2.607,0.451l-1.409-0.216l-0.492-0.216l-0.506-0.392v-0.746h0.812l-0.449-0.638l-0.712-1.335l-0.444-0.643
		l1.901-0.633l1.499-0.206L239.444,532.6z M238.603,523.099l1.16,0.344l3.166-0.687l1.719-0.034v0.741l-2.034,0.952l1.39,4.756
		l-1.762,1.708l-5.43-1.781l-2.517-1.512l0.296-2.096l1.528-2.253l1.06-0.692L238.603,523.099z M325.871,188.3l0.726,0.766
		l-1.012,2.008l0.286,1.392l-2.211-0.079l-1.834,0.447l-3.166,1.302l-2.763,1.601l-1.786-1.393l-2.168-0.754l1.018-1.406
		l5.221-2.571l3.038-0.678l1.695-0.258l1.571-0.447L325.871,188.3z M357.817,169.018l0.846-2.967l3.39-2.83l4.667-2.904l3.601-1.557
		l6.996-3.381l7.622-2.543l5.084-1.482l3.53-0.423l4.659,0.284l3.671,0.214l5.789,0.075l-2.401,0.704l-2.542,1.269l-2.258-0.707
		l-3.529,0.845l-2.483-0.526l-2.087,0.339l-0.797,0.388l-1.614,1.085l-0.726,0.319l-1.046,0.04l-1.695,0.4l-2.118,1.553
		l-4.308,2.119l-4.238,1.556l-4.454,3.183l-4.019,1.257l-2.686,0.288l-1.836,1.768l-1.978,1.91l-2.33,1.628L357.817,169.018z
		 M439.392,147.365l1.866-3.268l1.341-1.725l3.875-1.761l2.23,0.823l1.781,1.492l-0.6,1.487l-2.605,0.292l-0.6,1.784l-1.567,2.078
		l-2.305,0.144l-1.565,1.781l-6.029,4.075l-0.444-1.116l1.193-2.153l1.642-3.044L439.392,147.365z M670.636,30l0.888,0.095
		l0.874,0.19l0.845,0.28l0.774,0.36l-1.127,0.25l-0.984-0.04l-0.769-0.385L670.636,30z"/>
</g>
<g id="Copyright">
	<text transform="matrix(1 0 0 1 681.6426 577.5916)" class="st1 st2">© Vemaps.com</text>
</g>
</svg>
