<?xml version="1.0" encoding="utf-8"?>
<!-- Generator: Adobe Illustrator 23.0.1, SVG Export Plug-In . SVG Version: 6.00 Build 0)  -->
<svg version="1.1" xmlns="http://www.w3.org/2000/svg" xmlns:xlink="http://www.w3.org/1999/xlink" x="0px" y="0px"
	 viewBox="0 0 800 600" style="enable-background:new 0 0 800 600;" xml:space="preserve">
<style type="text/css">
	.st0{fill:#808080;}
	.st1{font-family:'Roboto-Regular';}
	.st2{font-size:14px;}
</style>
<g id="Haiti">
	<path class="st0" d="M723.135,129.854l2.182,7.226l0.882,4.648l-0.246,4.171l-0.406,6.888l1.137,5.962l6.914,16.431l2.952,20.511
		l-0.166,11.708l-2.824,6.022l-1.367,1.497l-3.131,7.992l-2.351,1.856l-6.671,3.819l-1.623,1.652l1.227,5.227l4.409,6.228
		l1.042,1.068l8.159,8.367l16.022,7.816l3.121,1.522l-1.125,15.614l-1.265,4.498l-3.118,4.633l-8.383,6.032l-3.744,3.374
		l-7.399,10.404l-10.722,11.922l-3.246,2.014l-12.69,3.432l-4.268,2.892l0.728,4.533l4.434-0.696l6.147-2.108l5.789,0.196
		l2.262,1.838l3.501,7.404l2.262,2.668l5.661,5.2l1.84,2.364l1.367,4.835l0.255,10.593l1.994,10.266l-0.371,4.906l-1.214,4.825
		l-1.687,4.413l-2.965,4.864l-3.463,2.854l-6.634,4.12l-1.702,1.057l-0.635,0.394l-3.374,3.79l-5.086,8.706l-3.22,3.473
		l-9.572,3.283l-18.594-3.445l-9.188,1.949l-4.255,3.216l2.198,4.267l22.363,23.001l1.597,2.473l0.613,3.914l-1.316,1.428
		l-1.853,1.064l-0.933,2.863l1.482,4.823l3.706,2.047l9.648,2.431l2.083,1.852l3.757,5.569l2.006,2.323l9.329,6.241l13.29,5.022
		l3.527,2.336l2.275,2.039l0.537,0.754l-2.911,5.021l-0.148,0.255l-10.985,18.941l-1.955,4.89l-0.69,5.125l0.37,2.461l2.658,7.457
		l0.588,2.911l-0.166,4.33l0.549,7.556l-0.895,4.503l-2.958,7.865l-4.045-2.762l-17.277-22.548l-7.547-6.83l-8.684-5.465
		l-19.45-6.684l-8.05-4.216l-8.03-3.094l-9.63-0.021l-19.742,3.327l-25.719-0.244l-36.043,0.477l-19.41,3.538l-4.971-2.627
		l-2.978-1.123l-1.328,1.017l1.67,10.02l-2.334,2.552l-2.888,0.063l-6.752-2.616l-3.783-0.688l-29.08,2.68l-5.967-0.381l0.493,1.197
		l0.714,2.933l0.483,1.197l-3.673-0.265l-1.469-0.402l-1.751-1.271l-6.842,4.426l-13.645-1.345l-6.681,2.573l-6.5-3.77l-8.734-3.431
		l-9.358-2.489l-26.081-2.913l-6.54,0.318l-2.053-0.318l-7.195-4.597l-2.163-0.742l-32.843-5.318l-14.751,1.525l-2.284-0.636
		l1.298-3.39l3.28-1.293l8.935,0.074v-1.621l-16.522-1.78l-20.024,0.159l-5.826,1.621l-7.959,4.725l-3.019,0.615l-1.972-1.038
		l-2.133-4.778l-1.811-1.462l-3.3,2.003l-1.791,5.085l-1.831,3.814l-3.351-1.843h-1.539l-2.918,1.865l-2.455-1.335l-1.087-3.369
		l1.238-4.28l-3.512,1.049l-3.069,6.812l-3.552,2.797l0.171-3.506l0.815-3.125l2.395-5.965l-1.942,1.579l-2.787,3.687l-2.013,2.013
		l-0.201-0.636l-1.449-0.572l-2.656-0.572l-0.885,0.445l0.101,1.038l0.292,1.165l-0.272,0.911l-10.807,8.644l-17.689,8.218
		l-4.488,4.458l-4.307,7.115l10.404,11.126l1.56,4.054l1.258,5.112l-0.594,2l-3.27,0.794l-16.381-0.063l-2.395-0.402l-2.405-1.153
		l-1.801-1.81l-0.946-3.831l-15.818-22.781l-0.785-0.593l-1.872-0.826l-0.875-0.519l-0.875-0.985l-0.201-0.794l-0.121-0.826
		l-0.664-1.112l-4.609-4.321l-23.948-17.669l-4.297-2.098l-7.547-1.271l-3.17-1.314l-2.697-1.971l-1.147-2.458l-0.523-2.776
		l-1.399-0.848l-2.103-0.138l-2.576-0.689l-6.38-2.491l-2.073-1.219l-1.67,1.929l-4.669-1.675l-4.951,2.099l-5.222,3.243
		l-5.434,1.674l-4.558-0.954l-5.645-2.289l-4.8-2.681l-2.022-2.162l-2.113-2.915l-9.297-4.717l-2.103-4.803l-0.553-5.089
		l-1.62-3.605l-6.42-8.134l8.593-12.613l-0.745-1.04l-1.087-2.525l4.528-3.226l2.908-12.077l3.683-2.675l0.674-1.359l-0.423-3.057
		l-0.976-3.27l-0.966-2.028l-0.634-2.771l1.912-2.421l8.382-4.906l10.988-4.46l4.679-0.828l5.705,1.402l2.526-0.085l1.047-2.124
		l1.228-1.806l2.747-0.797l2.908-0.181l13.886,0.786l9.841,2.124l32.36,14.463l14.238,0.637l0.513,0.393l1.61,1.815l0.342,0.541
		l0.563,2.028l1.379-0.149l1.721-0.892l1.55-0.17l7.184,3.768l3.19,1.146l11.119,0.414l2.636,0.51l2.898,1.274l5.323,4.585
		l1.57,0.923l2.546,0.191l1.228-0.732l0.825-0.923l1.318-0.478l2.465,0.403l3.059,1.507l2.214,0.032l1.509-0.701l3.16-2.346
		l1.026-0.52l0.302-0.626l3.139-3.896l1.66-0.839l1.962-0.085l2.033,0.17l1.952-0.074l11.209-3.259l3.22-0.446l8.815,2.208
		l0.141,4.479l-5.011,3.386l-6.561-1.019v1.624l-5.333-1.804l-4.759-0.647l-4.78,0.541l-5.393,1.91l1.63,1.114l4.105,2.197
		l4.075,0.998l0.272,1.528l-0.101,1.995l1.087,2.037l4.357,1.952l7.859-1.146l3.884,1.952l8.674-5.242l10.626-1.337l39.112,3.014
		l5.001,1.125l9.851,5.029l5.494,1.125l19.813-0.721l9.68,0.849l8.724,3.268l4.588,2.673l3.743,1.432l4.166,0.286l6.239-1.114
		l17.398-3.119l21.412,5.187l-1.278,4.264l4.719-0.923l6.621-2.344l4.367-0.021l3.612,1.549l17.569,2.98l9.529-2.174l6.712-5.717
		l4.941-8.031l4.146-9.157l6.007-7.45l7.848-1.751l41.245,3.694l1.499-0.552l0.634-1.231l0.402-1.231l0.845-0.552l1.55,0.318
		l0.724,0.658l0.483,0.658l0.785,0.308l5.142,5.795l2.365,1.337l4.347-1.178l2.013-4.373l0.563-6.071l-0.413-15.883l0.413-2.942
		l1.731-3.536l1.912-2.103l0.896-1.954l-1.328-3.112l-2.224-1.604l-11.29-5.524l-3.039-0.531l-6.017-0.191l-2.908-0.892
		l-5.011-4.324l-4.458-5.419l-4.78-3.762l-6.007,0.701l-8.452-5.176l-2.113-2.349l-2.083-4.964l-12.678-19.787l-3.502-3.584
		l-4.951-4.063l-5.202-3.319l-4.226-1.362l-4.608-2.362l-25.92-28.084l-1.187-6.707l10.465-4.248l9.489-0.639l5.242-1.757
		l2.294-3.844l-1.469-4.921l-3.602-2.556l-4.488-1.725l-4.105-2.429l-2.616-3.324l-5.937-10.537l-1.57-4.167l1.69-1.215l0.191-0.469
		l-0.272-0.511l0.221-1.385l2.415-2.281l2.717-6.033l1.63-2.42l2.707-1.343l3.924-0.778l3.985-0.171l2.898,0.501l-3.552-7.069
		l-2.556-1.439l-4.951-0.448l-2.938-2.25l-0.966-5.119l0.382-5.439l1.067-3.285l1.56,1.632l2.063,1.419l2.375,0.757l2.445-0.384
		l2.727-1.984l0.141-1.92l-0.875-2.166l-0.413-6.028l-0.624-1.142l0.564,0.213l3.552,0.64l1.238,0.789l1.731,1.483l2.375,1.248
		l3.099,0.064l-4.77-9.539l-2.495-1.409l-12.779-0.811l-3.24-2.369l-2.173-3.501l-3.26-4.013l-4.649-3.362l-15.758-7.227
		l-13.121-8.158l-4.689-1.132l-4.055-1.901l-8.724-7.466l-1.65-0.395l-2.475,1.111l-15.315-5.683l-2.536-0.288l-4.87-1.218
		l-2.485-0.256l-0.332-0.032l-1.248,0.598l-1.147,1.282l-1.63,1.293l-2.636,0.577l-3.673-0.908l-5.464-2.286l-5.333-2.97
		l-3.341-2.949l-4.991,4.882l-10.626,1.4l-23.566-1.197l-4.669-1.229l-2.737-0.267l-1.751-1.143l-4.367-4.926l-2.405-1.111
		l-3.431-2.329l-1.368-5.236l-0.463-5.504l-0.714-3.078l8.825-14.23l1.308-2.973l2.425-0.064l12.92-6.053v-1.957H311.92l3.995-3.027
		l4.709-0.503l5.041,0.417l4.981-0.321l30.126-13.908l8.815-6.442l4.951-6.903l2.958,3.607l2.827,0.963l7.023-0.813l3.612,0.535
		l6.52,2.376l3.451,0.524l2.948-0.064l1.64-0.246l4.941-1.327l3.653-0.482l3.783,0.321l3.431,1.284l2.626,2.472l1.771-4.077
		l4.659-2.536l5.675-0.557l4.779,1.777l6.601-2.729l7.879-2.066l8.241-1.049l7.688,0.45l25.236,5.93l6.218,3.874l5.142,2.461
		l14.671,4.58l0.875,1.091l5.152,6.43l6.621,4.504l6.883,2.492l3.783-2.471l4.508,2.417l7.486,2.909l7.013,1.797l3.089-0.92
		l1.57,4.149l11.944,11.185v1.646l-1.177-0.535l-3.884-1.112l3.129,7.654l1.087,1.154l4.377,0.983l0.926-0.342l-0.926-2.277
		l3.23-3.752l-0.815-0.043l-1.61,0.128l-0.805-0.086l0.06-0.321l0.513-1.112l0.604-0.855l0.362,0.513v-1.646l-0.573-0.812
		l-0.966-2.758h1.539l3.673,2.01l5.051,0.47l4.508-1.476l1.972-3.871l2.485-2.588l4.88-0.128l3.32,2.823l-2.103,6.33l4.196,2.523
		l4.045,0.428l9.781-1.732l0.845,0.064l1.388,0.364l1.711,1.155l3.562,3.613l2.395,0.759h8.533l2.002,0.566l1.097,1.229l0.785,1.229
		l2.314,1.133l3.361,2.458l2.254,0.566l1.912-0.898l1.258-1.956l1.58-1.903l2.838-0.791l4.699-3.613l7.013,0.053l12.095,3.56
		l6.641,0.919l1.771,1.325l-1.499,3.303l-2.143,1.4l-2.938,0.492l-6.903-0.096l2.596,4.809l4.287,0.502l4.649-1.304l3.663-0.598
		l4.468,3.772l2.757,1.731l1.217-0.833l1.328-3.601l-0.533-1.881l-5.454-1.432l-1.751-1.614l-0.885-2.309l0.403-2.629l1.892-1.635
		l2.828,0.192l6.4,1.443L723.135,129.854z M260.341,552.24l4.166,0.254l4.89,1.016l3.532,2.138v3.684l-3.079,1.969l-5.041,0.476
		l-9.619-0.497l-4.327-0.953l-3.783-2.307l-6.218-5.78l0.795-2.594l1.117-1.069l1.409,0.371l1.58,1.662l2.838-1.98l1.358,0.709
		l0.986,1.768l1.711,1.133H260.341z M218.895,412.993l5.886-2.793l8.09,0.648l6.188,3.493l0.091,5.787l-5.695,3.419l-7.889-0.043
		l-6.158-3.525L218.895,412.993z M452.812,30.332L459.956,30l4.77,0.675l4.266,1.896l5.615,3.332l23.405,9.233l9.952,6.329
		l-2.807,6.157l-4.015-1.724l-20.95-2.902l-9.72-3.834l-12.014-2.72l-4.095-1.885l-2.837,0.546l-2.938,1.103l-2.677,0.471
		l-5.172-1.05l-6.057-2.035l-5.494-2.796l-3.522-3.278l1.087,0.011l0.684-0.343l1.439-1.285l11.441-3.857L452.812,30.332z
		 M351.898,347.747l-4.619-3.297l-1.298-1.149l-1.811-2.276l-1.64-2.691l-0.765-2.883l0.845-2.872l3.059-3.447l4.327-2.915
		l5.041-1.979l5.313-0.745l5.856,0.67l34.343,14.479l16.945,5.562l18.837,9.56l17.589,7.41l7.184,8.876l1.872,5.654l0.885,6.737
		l-0.704,6.598l-2.898,5.152l-2.636,1.105l-1.751-1.604l-2.214-4.685l-2.113-1.87l-1.892-0.51l-5.574-0.361l-22.036-4.93
		l-7.526-0.585l-7.909-1.945l-21.795-14.115l-22.016-6.007l-5.917-3.891L351.898,347.747z"/>
</g>
<g id="Copyright">
	<text transform="matrix(1 0 0 1 681.6426 577.5913)" class="st1 st2">© Vemaps.com</text>
</g>
</svg>
