<?xml version="1.0" encoding="utf-8"?>
<!-- Generator: Adobe Illustrator 23.0.1, SVG Export Plug-In . SVG Version: 6.00 Build 0)  -->
<svg version="1.1" xmlns="http://www.w3.org/2000/svg" xmlns:xlink="http://www.w3.org/1999/xlink" x="0px" y="0px"
	 viewBox="0 0 800 600" style="enable-background:new 0 0 800 600;" xml:space="preserve">
<style type="text/css">
	.st0{fill:#808080;}
	.st1{font-family:'Roboto-Regular';}
	.st2{font-size:14px;}
</style>
<g id="Hungary">
	<path class="st0" d="M770,175.097l-1.793,2.104l-2.74,5.106l-1.781,1.648l-4.374,1.631l-1.748,1.227l-1.173,2.198l0.045,1.39
		l0.552,1.05l0.214,1.188l-0.924,1.827l-0.654,0.437l-2.356,0.243l-2.221,1.024l-1.33,1.053l-2.695,3.558l-3.191,2.798l-3.98,1.724
		l-4.172,0.604l-3.766-0.621l-8.084-4.278l-3.349,0.785l-1.781,6.407l-1.251,1.199l-1.443,0.595l-1.567,0.138l-5.04-0.763
		l-1.387,0.134l-1.939,0.704l-2.018,1.127l-1.24,1.282l-2.39,3.627l-0.834,0.846l-1.849,1.348l-0.8,1.005l-0.406,1.206l-0.372,2.971
		l-0.338,1.397l-2.706,3.873l-0.327,1.07l-0.079,1.196l-0.165,1.055l-0.027,0.174l-0.575,1.22l-0.863,0.652l-0.614,0.464
		l-5.344,1.358l-6.776,5.112l-3.224,3.54l-2.075,3.951l0.282,5.025l0.958,5.585l0.147,5.377l-2.187,4.466l-4.859,1.44l-1.962,1.207
		l-1.984,2.242l-4.217,6.166l-0.665,1.878l-1.252,5.757l-0.575,1.461l-1.263,2.383l-0.451,1.78l-0.034,1.863l0.259,1.452
		l0.034,1.481l-0.665,1.978l-0.913,1.289l-2.413,2.309l-1.037,1.533l-0.485,1.454l-0.541,2.829l-0.733,1.412l-2.21,2.182
		l-5.378,3.593l-2.435,2.313l-4.262,5.128l0.158,0.522l0.259,0.854l0.936,0.455l1.049,0.207l0.755,0.62l0.981,1.868l0.068,0.165
		l-0.417,0.157l-2.074,7.897L635,338.175l-4.983,4.102l-0.485,0.182l-0.135,0.429l-0.169,1.881l0.102,1.947l0.372,1.703l0.034,1.727
		l-0.913,2.036l-1.128,0.985l-3.98,1.075l-2.277,2.142l-1.398,2.595l-2.334,6.426l-0.485,0.757l-0.372,0.852l-0.248,0.93
		l-0.101,0.958l0.237,0.448l0.282,0.374l0.327,0.304l2.943,2.019l-0.372,3.141l-1.984,2.967l-2.187,1.241l-2.977,0.526l-1.172,1.865
		l-0.213,0.601l-0.734,2.068l-2.266,2.997l-2.356,1.256l-4.014-0.312l-2.334,0.599l-1.669,2.019l-0.62,2.998l-0.428,6.08
		l-1.353,2.905l-1.883,2.388l-1.533,2.514l-0.271,3.263l3.191,6.1l0.688,3.476l-2.526,1.934l-4.622,0.2l-2.131,0.76l-1.838,2.158
		l-1.105,3.432l-0.451,7.031l-0.936,3.052l-1.251,2.398l-1.049,0.824l-3.191-0.024L576,442.87l-5.209,6.351l-1.962,0.75l-2.131-1.85
		l-0.755-0.913l-0.857-0.432h-0.936l-0.992,0.432l-2.153,0.081l-4.07-1.769l-1.951-0.416l-0.744,0.237l-1.601,0.897l-1.082,0.098
		l-0.891-0.432l-1.962-1.68l-1.015-0.522l-2.187-0.098l-2.289,0.644l-1.231,0.667l-0.967,0.524l-4.273,3.562l-0.473,0.88
		l0.056,1.483l1.015,3.503l-0.011,1.262l-0.879,0.879l-1.037-0.163l-1.015-0.358l-0.823,0.301l-0.541,1.172l-0.105,1.909
		l-0.019,0.346l-0.586,1.555l-1.669,1.855l-2.131,1.09l-6.156,1.302l-0.812-0.024l-1.319-0.504l-1.082-0.74l-3.179-2.929
		l-4.318-1.815l-4.453-1.018l-2.661,4.289l-17.554,0.488l-4.408,5.62l-5.93-5.083l-1.962-0.805l-2.74,1.326l-0.8,0.098l-0.834-0.456
		l-1.116-1.554l-0.586-0.472l-1.781-0.431l-1.071,0.13l-2.751,1.391l-3.1,0.366l-4.566-2.588l-6.979-0.651l-4.386,0.969
		l-1.669,0.693l-9.076,3.766l-1.905-0.39l-6.665-4.276l-2.377-1.526l-2.266-0.741l-2.345-0.122l-6.336,1.245l-2.323-0.073
		l-2.018,0.358l-2.695,1.221l-2.537,1.701l-1.578,1.79l0.192,1.293l0.812,1.44l0.282,1.301l-2.875,1.561l-0.767,1.057l-0.553,1.179
		l-0.778,1.089l-1.838,1.503l-0.936,0.39l-1.206,0.187l-1.364,0.642l-0.891,1.365l-0.812,1.576l-1.116,1.234l-1.827,0.633
		l-4.036,0.024l-1.984,0.447l-0.944,0.711l-1.243,0.937l-0.812,1.94l-0.507,1.915l-1.24,1.598l-3.033,0.584l-9.561-0.998
		l-2.424-1.42v-0.024l-1.612-3.092l-2.458-0.925l-2.514,1.072l-1.714,2.97l-0.124,4.656l-1.928,0.535l-2.762-0.397l-2.593,1.849
		l-0.338,0.568l-0.113,0.576l0.124,0.584l0.834,1.337l0.248,0.665l-0.135,0.502l-0.62,0.308l-2.086-0.956l-6.697-0.511l-1.612,0.122
		l-1.082,1.256l-1.218,0.681l-2.187,0.648l-1.86,1.288l-0.642,0.023l-0.508,0.018l-1.409-1.28l-1.094,1.661l-0.485,1.434
		l-0.485,1.093l-1.139,0.64l-1.33-0.178l-4.307-2.268l-5.401-1.871l-2.041,0.438l-2.469,2.454l-0.406,0.794l-0.327,1.887
		l-0.293,0.964l-0.158,0.04l-1.612,1.838l-2.39,4.661l-1.308,1.602l-4.713,4.043l-2.841,1.067l-2.447-1.156l-1.781,1.204
		l-3.788,4.703l-2.075,1.632l-0.8,0.218l-0.744,0.073l-0.744-0.073l-0.721-0.202l-0.034-0.016l-1.815-2.343l-1.747-0.032
		l-1.77,1.002l-1.883,0.735l-1.872-0.711l-1.883-2.044l-2.48-0.032l-3.349-2.522l-2.029-0.647h-8.975l-0.958,0.307l-1.883,1.374
		l-1.184,0.453h-1.263l-11.466-3.193h-7.542h-1.794l-1.015,0.566l-0.519,1.229l-0.62,1.123l-1.308,0.275l-0.011-0.647l-2.153-3.719
		l-3.168-2.313l-13.293-4.102l-2.469-0.162l-0.891-0.591l-0.202-1.048l-0.158-0.821l-0.124-1.797l-0.564-2.332l-0.124-1.272
		l-0.801-1.49l-5.164-5.47l-4.014-1.816l-4.622-0.965l-9.301-0.438l-0.924,0.584l-0.304,0.519l-0.417,0.486l-0.586,0.462
		l-0.71-2.554l-1.15-0.495l-2.604,0.997l-2.176,0.162l-0.35-0.462l0.169-1.395l-0.631-2.685l-1.173,1.979l-1.15-0.276l-1.089-0.962
		l-0.196-0.173l-1.601-0.568v-1.071l0.744-0.187l1.353-0.625l0.812-0.162l-0.981-1.371l-1.781-0.243l-1.702-0.641l-0.755-2.622
		l-0.259-1.583l-1.364-5.036l-0.598-1.479l-4.363-5.715l-1.229-0.724l-8.85-0.309l-1.635-0.797l-5.265-3.979l-1.274-1.375
		l-0.541-1.701l-0.902-1.18l-5.806-4.74l-1.037-1.401l-2.683-5.053l-4.081-4.803l-0.789-0.685l-0.744-0.93l-1.082-3.142
		l-0.823-2.391l0.361-2.474l-1.049-2.573l-0.66-0.889l-0.975-1.313l-1.398-1.393l-0.575-0.008l-0.237,0.723l-0.293,0.527
		l-0.721-0.645l-0.474-0.613l-0.462-0.482l-0.485-0.368l-0.485-0.213l-2.943-0.662l-0.778-0.511l-0.812,2.252h-0.744l-1.33-2.807
		l-3.326-2.064l-2.052-2.682l-1.759-3.018l-1.984-2.455l-2.356-1.629l-2.898-0.569l-0.981-0.63l-0.857-0.147l-0.676,0.54
		l-0.473,1.412h-0.665l-1.455-1.469l-4.713-2.948l-0.631-0.504l-1.578-6.833l-3.675-3.156l-4.025-6.299l-3.89-2.322l-1.984-1.601
		l-0.453-1.151l-0.416-1.057l1.003-1.569l2.075-0.998l0.65-0.63l0.861-0.836l-0.597-3.003l-1.635-1.097l-2.029-0.123l-0.569-0.245
		l-0.091-0.039l-0.851-0.366l-0.034-2.676l-1.511,0.263l-1.015-1.205l-0.936-1.834l-1.24-1.6l-1.5-4.579l-0.248-0.593l0.145-0.591
		l0.294-1.196l0.972-1.674l0.415-0.714l0.755-1.796l0.62-1.944l0.248-1.426l-0.485-0.803l-1.601-0.091l-0.958-0.511l-0.489-0.609
		l-1.653-2.057l-1.116-0.643l-10.093,0.876l-4.812,0.418l-0.56-0.137L30,349.816l1.747-0.82l1.398-1.348l3.957-5.42l1.263-1.312
		l2.773-2.039l2.277-0.974l0.755-0.586l0.733-1.164l0.056-0.97l-0.09-0.888l0.282-0.975l1.105-0.95l1.082-0.24l0.879-0.731
		l0.474-2.425l1.037-1.769l1.488-0.203l4.07,0.823l4.442-0.542l2.311,0.285l1.883,1.422l0.586,0.438l0.564,0.157l0.53-0.132
		l0.474-0.438v-0.017l1.815-0.339l2.841-0.033l2.063-0.5l-0.485-1.732l-1.567-1.447l-1.556-0.521l-3.123-0.384l1.364-1.232
		l4.882-1.989l1.229-0.79l0.44-0.877l-0.383-0.832l-1.285-0.654l-2.199-0.737l-0.812-2.115l0.71-2.339l2.3-1.433l2.492-3.301
		l0.519-1.877l-1.33-1.948l-1.793-0.174l-3.687,1.774l-1.466-0.97l0.034-0.887l0.891-2.736l-0.034-1.41l-0.733-1.037l-0.913-0.087
		l-0.868,0.075l-0.654-0.564l-0.383-2.651l1.68-3.519l-0.361-2.802v-0.017l3.394-1.839l1.545-1.42l0.721-2.152l-0.44-2.643
		l-3.315-6.972l-0.293-0.32l-0.485-0.187l-0.496-0.266l-0.304-0.616l0.068-0.953l0.474-0.433l0.541-0.283l0.237-0.474l-0.271-6.177
		l1.105-2.041l1.364-0.375l1.455,1.016l1.308,2.132l11.725-5.373l4.098-3.212l1.516-1.189l-0.44-6.501l1.24-1.348l3.179-1.344
		l1.161-2.062l0.124-2.488l-0.846-2.025l-1.511-1.541l-1.849-1.044l0.609-3.134l-0.925-3.268l-1.905-2.567l-2.379-1.096
		l-3.596,0.619l-7.182-2.945l-3.022,0.678l-6.111-2.481l-1.973-1.142l0.958-1.214l1.657-2.696l0.8-0.812l0.631,0.8l0.541,0.507
		l0.507,0.105l0.721-0.448l1.297-1.172l4.352-2.308l0.925-0.896l0.598-1.395l-0.192-2.137l0.654-1.568l4.002-1.819l4.577,0.578
		l8.738,3.416l1.376,0.968l0.586,1.458l0.406,1.709l0.834,1.675l1.218,1.269l1.173,0.72l6.145,0.971l0.958-0.23l1.206-1.193
		l2.142-3.421l1.443-1.227l1.59,4.247l4.138,0.762l8.647-2.173l7.948-1.068l2.244-1.047l-1.24-0.779l-0.924-1.236l-0.541-1.634
		l-0.203-5.299l-0.733-3.288l-0.147-2.794l1.635-1.826l-0.71-1.028l-1.048-3.035l-0.857-0.647l-2.289-1.062l-0.688-0.731
		l-0.034-1.773l1.364-0.718l3.777-0.845l1.793-1.42l1.082-1.643l0.631-2.132l0.451-2.897l-0.225-0.324l-0.575-0.185l-0.541-0.328
		l-0.113-0.707l0.293-0.463l1.015-0.694l0.214-0.273l0.304-1.397l0.53-1.019l0.045-1.01l-1.15-1.339l6.844-5.753l3.98-2.418
		l3.935,0.851l4.519,1.267l1.13,0.317l7.114,1.078l3.439,2.855l11.195,15.045l1.071,0.992l1.128,0.471l2.74,0.58l1.015,0.672
		l3.687,5.549l1.33,1.373l1.128-0.042l1.094-0.537l1.229-0.185l1.624,0.814l2.266,1.629l2.018,1.931l0.857,1.67l1.139,1.275
		l4.644,2.518l2.482,1.345l9.132,2.495l6.307-0.408l24.991-1.617l13.45,1.396l4.048-0.386l8.163-3.33l22.335-2.609l4.893,0.357
		l3.969,1.758l3.258,0.638l3.179-0.336l2.661-1.649l3.608-4.142l1.894-1.41l2.469-0.655l2.685-0.952l0.168-0.059l-4.194-3.07
		l-3.191-3.134l-0.71-3.047l0.271-3.426l1.094-6.722l-0.361-1.881l-0.755-0.652l-0.146-0.602l1.421-1.756l0.992-0.581l2.12-0.362
		l1.037-0.901l2.92-6.084l1.905-1.56l10.377-2.339l5.26-1.186l1.601-0.751l2.457,0.117l2.143,0.102l6.528-0.958l13.529,1.658
		l1.195-0.245l6.517-4.193l14.725,0.312l5.84-4.161l0.169-0.844l0.056-0.861l-0.056-0.887l-0.169-0.895l-0.034-0.11l-0.023-0.101
		l0.023-0.076l0.034-0.076l1.297-2.585l1.026-6.331l1.195-2.381l1.883-1.095l10.034-2.678l1.161,0.038l1.094,0.322l1.24,1.058
		l2.368,2.939l1.094,0.571l5.028-0.981l2.559,0.423l1.939,2.359l0.056,1.606l-0.62,1.412l-0.271,1.382l1.026,1.55l1.037,0.135
		l3.935-1.508l2.683,0.858l4.149,3.768l2.266,0.87l2.571-0.946l4.938-4.625l2.514-1.559l4.149-1.302l0.362-0.223l4.339-2.669
		l2.063-0.799l0.902-0.715l0.8-1.463l0.598-2.944l0.428-1.151l1.364-1.625l0.936-0.186l1.116,0.415l1.917,0.203l1.827-0.813
		l3.292-3.048l1.229-0.542l2.176,1.101l1.229,1.359l1.319,0.563l2.492-1.304l3.168-3.201l2.728-4.186l2.277-4.735l4.239-13.035
		l1.263-2.553l1.635-2.162l3.315-3.519l0.248-0.263l1.466-2.198l0.09-0.578l0.045-0.587l-0.011-0.583l-0.068-0.578l-0.214-2.854
		l0.034-1.37l0.124-1.243l3.146-1.268l6.765-0.46l23.079-5.353l1.77-0.03l1.691,0.894l3.236,2.964l1.578,0.413l3.427,0.366
		l5.942,3.643l3.89,0.349l2.729-0.213l3.213,0.579l3.044,1.383l2.198,2.178l2.762,0.642l8.445-4.05l3.619-0.826l1.973,0.868
		l1.353,1.145l1.24,0.545l1.612-0.91l1.274-1.847l0.62-1.754l0.913-1.537l2.131-1.264l1.826-0.375l3.721-0.081l5.66-1.801
		l1.59,0.486l3.664,2.197l1.973,0.779l0.936,0.856l0.722,1.413l0.992,3.191l0.733,1.157l1.736,0.8l4.025-0.055l1.86,0.421
		l0.947,1.871l1.421,6.792l0.891,1.759l6.111,9.416l2.582,3.021l2.886,2.142l3.416,1.17l3.315-0.288l5.648-2.896l4.701-0.704
		l3.326-1.909l1.59-0.628l5.694-0.297l2.007-0.696l1.973-0.127l6.528,0.645l2.029-0.594l1.905-1.515l2.063-2.653l2.582,0.45
		l0.191-0.027l0.113-0.016l1.082-1.185l3.574-1.418l3.72,0.471l3.901,1.945l-1.623,4.966l-0.023,2.618l3.01-0.182l0.755,0.136
		l0.812,1.383v1.611l-0.248,1.891l0.102,2.263l1.173,3.331l5.344,8.291l0.71,0.72l0.789,0.216l0.845-0.241l0.857-0.686l0.44-0.212
		l0.44-0.068l0.462,0.068l2.142,0.88l1.725,0.364l1.691-0.152l2.108-1.058l0.462-0.059l0.451,0.093l0.44,0.22l8.106,10.709
		l1.432,3.377l1.545,5.183l1.86,3.871l0.586,0.667l0.282,0.034l1.432-0.806h7.858l2.007-0.663l1.849-1.195l1.872-0.515l1.781,1.148
		l0.383,0.772l3.912,2.216l3.225,3.025l1.454,1.86l1.139,2.243l0.744,3.086l-0.395,1.69l-0.722,1.504l-0.203,2.553l-1.86,2.316
		l0.913,1.979L770,175.097z"/>
</g>
<g id="Copyright">
	<text transform="matrix(1 0 0 1 681.6426 577.5916)" class="st1 st2">© Vemaps.com</text>
</g>
</svg>
