<?xml version="1.0" encoding="utf-8"?>
<!-- Generator: Adobe Illustrator 23.0.1, SVG Export Plug-In . SVG Version: 6.00 Build 0)  -->
<svg version="1.1" xmlns="http://www.w3.org/2000/svg" xmlns:xlink="http://www.w3.org/1999/xlink" x="0px" y="0px"
	 viewBox="0 0 800 600" style="enable-background:new 0 0 800 600;" xml:space="preserve">
<style type="text/css">
	.st0{fill:#808080;}
	.st1{font-family:'Roboto-Regular';}
	.st2{font-size:14px;}
</style>
<g id="Ireland">
	<path class="st0" d="M480.679,75.363l-1.583,0.592l-0.717,0.898l-0.628,1.001l-0.666,0.743l-5.212,0.81l-0.974,0.765l-0.818,0.949
		l-2.307,3.604l0.337,1.242l-0.215,0.243l-0.434,0.154l-0.329,1.007l0.464,3.629l-0.101,1.182l-0.579,0.958l-0.113,0.187
		l-1.619,0.675l-0.675,0.873l-0.304,1.68l0.346,3.609v1.481l-0.843,3.041l-1.286,2.512l-5.92,7.392l-0.519,1.909l-0.16,3.523
		l0.27,1.059l0.439,0.482l-0.004,0.299l-1.067,0.467l-0.856-0.044l-1.531-0.855l-2.446,0.76l-2.8-0.782l-1.455,0.862l-2.838,2.811
		l-2.8,1.613l-2.766,0.204l-2.699-1.431l-2.332-2.044l-1.122-0.059l-2.791,2.825l-4.044,2.021l1.341,1.138l0.498,0.277l-0.628,2.122
		l0.671,1.458l1.349,0.882l1.413,0.401l0.687,0.445l0.822,1.785l0.641,0.699l0.683,0.029l1.265-0.969l0.616-0.189l1.126,0.656
		l2.614,2.367l1.273,0.495l1.37-0.67l1.269-0.932l0.869,0.226l0.213,2.748l0.007,0.085l-3.378,1.128l-8.125,7.775l-3.125,1.235
		l-3.205-0.131l-6.184-1.461l-1.72,1.933l-1.655,2.456l-1.004,2.062l-0.417,0.595l-0.936,0.878l-2.007,1.19l-4.335,1.292
		l-1.493,0.83l-0.438,0.244l1.033,0.972l0.249,1.081l0.171,1.131l0.791,1.167l1.952,2.174l3.466,4.911l1.914,2.005l2.051,1.1
		l2.378,0.014l1.727,4.391l1.063,2.01l1.404,1.583l0.712,0.279l0.65,0.255l3.194,0.484l1.2,0.918l0.54,2.232l0.325,6.171
		l1.079,2.156l1.59,0.988l4.478,0.605l4.853-0.324l1.455,0.274l5.882,4.439l0.569,0.886l0.135,1.231l0.266,1.166l0.961,0.705
		l8.707,2.058l1.758-0.353l3.356-2.685l2.037,0.173l-0.907,1.216l0.287,0.209l0.818-0.137l0.675,0.194l0.599,1.223l0.16,0.604
		l0.363,0.101l1.202-0.295l3.959,1.353l0.855-0.095l0.503-0.056l-1.864-3.908v-0.929l0.586-0.72l2.484-1.469l0.278,0.346
		l-0.236,1.008l-0.114,1.238l0.008,1.605l-0.084,1.267l0.291,0.54l1.122-0.576l0.759-0.849l0.59-1.216l0.215-1.418l-0.367-1.39
		l1.598-0.814l-0.101-0.735l-0.759-0.648l-0.392-0.555l0.46-1.391l0.523-0.915l0.671-0.685l0.928-0.728l4.47-1.19l1.746-1.139
		l-0.523-2.294l1.13-1.595l-2.905-2.469l0.489-1.943l-2.737-1.365l-0.198-1.503l0.392-0.101l0.611,0.202l0.447-0.571l0.105,0.022
		l0.632-1.294l-0.029-0.087l-0.215-0.217l-0.312-0.708l-0.202-0.853l0.122-0.665l0.243-0.136l0.313-0.175l1.434,0.268l0.666-0.022
		l2.682-2.04l3.959-6.298l2.387-2.354l2.564-0.232l2.754,1.413l5.064,4.258l0.569,0.948l0.742,2.366l0.658,0.398l0.974,0.08
		l0.51,0.564l0.791,2.182l0.947,2.611l0.143,2.03l-0.654,1.409l-1.429,0.766l2.897,1.509l0.729,0.83l0.371,1.176l0.282,1.357
		l0.472,1.4l1.354,2.236l1.594,1.86l1.741,1.485l1.771,1.139l0.974,0.087l0.658-0.706l0.616-0.908l0.873-0.526l0.97,0.13
		l0.873,0.505l1.708,1.47l1.189,1.417l0.662,0.788l0.472,2.492l-0.768,2.548l-1.834,2.374l0.869,1.597l-0.105,1.582l-1.261,3.27
		l1.244,1.013l2.176,2.686l1.155,0.632l0.447-0.273l0.471-0.728l0.402-0.622l0.426-0.481l0.645-0.129l1.248,0.531l0.641,0.079
		l6.974-2.608l2.256-0.101l0.055,0.244l0.325,0.589l0.485,0.618l0.523,0.373l0.582-0.014l2.1-0.761l1.919-0.331l0.519-0.489
		l0.346-1.157l-0.059-1.157l-0.139-1.071l0.101-0.863l1.084-1.855l0.666,0.108l0.628,0.964l0.966,0.705l1.088-0.252l1.16-0.604
		l1.219-0.165l1.205,1.021l5.13,5.031l1.275,0.662l0.578,0.441l1.175,1.968l0.498,0.441l1.74,0.17l0.704,0.26l0.598,0.435
		l1.57,2.306l-0.302,1.712l-2.656,3.174l-1.404,0.553l-2.022-0.734l-1.922-1.231l-1.116-0.949l-1.165,0.22l-5.711-2.503l-4.31-0.576
		v1.045l0.983,0.678l-0.495,1.305l-1.013,1.83l-0.544,2.303l-0.435,4.096l-0.057,2.492l0.491,2.435l1.806,2.479l2.736,1.43
		l6.043,0.822v1.036l-0.88,2.454l-0.08,2.447l0.817,2.12l1.813,1.462l-1.673,1.9l-0.422,3.696l0.216,3.604l0.365,6.069l0.398,2.035
		l0.535,1.967l0.581,1.445l0.793,0.756l1.229,0.84l0.89,0.605l1.411,3.358l2.228,1.539l2.45,1.197l1.637,1.186l0.648,1.253
		l0.584,1.839l0.193,2.045l-0.538,1.894l-1.385,2.228l-0.378,0.899l-0.189,1.094l-0.598,1.161l-0.949,2.488l-0.731,1.026
		l-0.611-1.378l-1.428-0.234l-1.653,0.574l-1.321,1.037l5.239,2.531l0.392,1.51l0.292,1.605l0.76,0.986l-0.289,0.435l-0.531,1.003
		l-0.292,0.434l1.328,0.679l3.36,0.206l1.487,0.974l-0.91,2.465l-1.029,0.067l-1.109-0.968l-1.155-0.618l-0.332-0.317l-1.016-1.336
		l-0.319-0.301l-0.777,0.161l-1.424,0.69l-0.588,0.156l-4.761,3.74l-0.232,1.491l0.558,1.157l1.906,2.018l1.6,2.401l1.076,0.95
		l2.291,0.544l0.857,0.7l0.611,0.155l0.99,0.489v1.088l-0.422,1.122l-0.269,0.566l-0.09,3.008l0.136,1.87l0.461,2.013l0.84,1.441
		l0.02,0.039l0.956,1.169l0.485,1.491l-0.578,2.46l1.096,1.612l2.799,5.894l-0.139,0.514l-0.05,0.083l-0.08-0.006l-0.279,0.254
		l0.379,2.223l-0.11,3.299l-0.458,3.231l-0.654,2.037l-0.342,2.18l1.072,2.096l3.42,3.915l0.249,1.014l-1.056,0.463l-0.438,0.59
		l-0.817,2.54l-0.418,0.573l-0.896,0.947l-2.772,6.445l0.611,1.007l-3.496,3.348l-0.96,1.259l-0.903,1.956l-1.939,6.424l0.491,2.995
		l-0.259,0.62l-1.421,3.339l-3.825,6.842l-0.428,2.512l0.09,2.014l0.847,3.817l0.216,2.066l-0.216,5.73l-1.073,2.342l-4.954,8.213
		l-1.474,1.798l-1.365,0.768l-1.265,1.781l-1.873,3.43l-0.764,2.073l-0.053,2.442l0.149,2.327l-0.143,1.788L552,450.15l-0.648-0.636
		l-0.74-0.277l-4.734,0.392l-1.697-0.549l0.482-2.404l-0.74,0.277l-0.707,0.392l-0.657,0.517l-0.631,0.642v0.832l1.228,0.462
		l1.135,1.038l0.93,1.473l0.611,1.755l-0.518,1.396l2.55,0.576l0.75,1.091l0.438,1.401l1.003-1.178l1.952-3.285v0.831l-1.371,2.786
		l1.63,3.066l4.197,4.242l-2.341,5.799l-1.046,1.473l-0.817,0.823l-0.588,0.238l-0.777-0.152l-1.052-0.818l0.176-0.688l0.598-0.617
		l0.737-1.636l-0.109-0.585l-0.956-0.114l-0.491,0.255l-0.711,1.029l-0.989,0.861l-0.146,0.26l-0.239,0.13l-3.549,0.027v-0.823h1.67
		l-1.116-0.986l-0.837,0.027l-1.394,0.959l-3.901,0.823l-3.45,2.047l-1.421-0.184l-2.118-2.28l-1.494-0.807l-6.049-1.842
		l-5.77,0.878l-1.574-0.374v-1.003l1.235-0.542l1.179-1.171l0.827-1.67l0.149-2.072l-0.976,1.388l-1.384,1.394l-1.607,0.683
		l-1.6-0.732l-0.558,0.829l0.09,1.068l0.12,0.428l0.01,0.417l-0.219,0.981l0.883-0.634l0.286-0.368h0.505l-0.266,1.951l-0.252,0.769
		l-0.598,0.845l0.558,0.054l0.558-0.054v0.986l-0.272,0.054l-0.571-0.065l-0.272,0.011l0.611,0.91l-5.9,3.632l-0.827,0.86
		l-0.926,1.672l-1.106,1.109l-1.375-0.833l0.75-1.634l0.969-0.876l1.036-0.671l0.92-0.99l0.017-1.315l-1.411-5.411l-0.468-0.916
		l-0.81-1.247l-0.949-1.09l-0.86-0.472l-0.92-0.879l-1.192-4.166l-1.033-1.411l0.236,1.558l0.216,1.432l0.103,0.684l0.056,1.334
		l0.252,0.634l1.135,2.223l0.279,1.312l-1.046,3.294l0.189,1.289l2.025-0.033v0.91l-1.295,1.072l-2.354,3.269l-1.414,1.109
		l-1.816,0.422l-3.682,0.113l-1.75,0.454l0.485-1.493l2.304-3.133l-1.799-0.807l-1.016-0.162l-1.132,0.141v0.828l0.468,0.39
		l0.229,0.406l0.176,0.455l0.286,0.568l-0.85-0.146l-1.049-0.617l-0.654-0.146l-1.006,0.341l-0.548,0.779l-0.379,0.909l-0.528,0.698
		l-1.624,0.746h-1.517l-3.085-0.746l-15.641,1.688l-5.618,3.055l-3.028,0.703l-0.392,0.33l-0.305,0.686l-0.435,0.643l-0.817,0.157
		l-0.568-0.513l-0.345-0.935l-0.239-0.881l-0.262-0.395l-1.414,0.427l-1.554,1.167l-0.986,1.751l0.305,2.171l0.797-0.999
		l1.258-0.195l1.491,0.411l2.43,1.107l0.598,0.13l0.133,0.567l-0.478,1.62l-2.58,1.894l-0.309,4.03l-0.285,0.922l-0.681,0.275
		l-0.817,0.151l-0.674,0.545l-1.541,0.938l-4.329-0.48l-1.7,0.862l-0.681,1.848l0.02,1.363l-0.482,0.668l-8.652-1.174l-0.252-0.549
		l-0.133-1.212l-0.362-1.213l-0.926-0.561l-0.159,0.399l-0.1,0.259l-0.093,3.152l-0.206,1.126l-1.076,1.766l-1.175,1.378
		l-1.381,0.85l-1.716,0.113l2.414,2.244l0.983,0.377l-0.886,1.334l-1.853,0.807l-3.39,0.742l-4.28,1.903l-1.215,1.612l1.544,1.806
		l-1.341,0.79l-6.162,1.294l-3.108,1.235l-5.14,0.505l-2.251-0.215l-0.933,0.064l-0.817-0.086l-0.355-0.473l0.212-0.94l0.551-0.677
		l0.717-0.457l0.747-0.22l-0.183-0.478l-0.375-1.247l1.179-0.226l1.142-0.467l1.096-0.79l1.046-1.215l-0.508-0.285l-0.425-0.323
		l-0.511-0.253l-0.79-0.043l0.611-1.721l0.392-0.538l0.674-0.452l-0.395-1.14l-0.544-0.301l-0.634,0.43l-0.707,1.011l-1.066-0.737
		l-1.657-0.371l-3.353,0.118v-0.812l-0.697-0.683l-1.401,0.328l-1.507,0.716l-1.514,0.452l-3.353-0.194l-1.66,0.221l-1.673,0.963
		l2.716,1.022l3.42,0.5l2.032,1.543l-1.481,4.149l3.061-0.29l0.943,0.29v0.822h-0.558v0.983l0.724,0.612l0.342,0.209l-1.175,0.285
		l-0.534,0.295l-0.525,0.403h2.842l-1.414,2.201l-0.259,0.494l0.113,0.73l0.339,0.644l0.186,0.751l-0.359,1.03l-2.696,3.025
		l-0.89,1.394l-2.191,1.206l-3.058,0.755l-1.013,0.755l-1.069,1.495l-0.508-1.479l-1.145-1.104l-1.315-0.52l-0.983,0.321
		l1.202,0.948l0.412,1.527l-0.392,1.441l-1.222,0.744l-0.584-2.667l-1.74-0.97l-3.752-0.043v0.82l0.823,0.498l1.66,0.177
		l0.857,0.305l0.76-0.857l0.495-0.15l0.372,1.007l-0.169,0.755l-0.561,0.594l-0.684,0.386l-0.511,0.144l-1.252,3.115l-0.219,0.835
		l0.08,1.445l0.378,1.984l0.149,1.513l-1.036-0.936l-1.165-2.642l-1.139-0.915l-1.341-0.123l-4.004,1.113l-9.748-0.99l1.172,1.284
		l1.365,0.508l2.982,0.005v0.979l-0.538,0.374l-0.518,0.524l1.667,0.818l-0.893,0.802l-0.515,0.978l-0.083,1.197l0.378,1.507
		l-3.088-0.411l-0.717,0.545l-0.594-0.497l-0.571-0.866l-0.657-0.561h-3.008l-0.863-0.219l-0.624-0.353l-0.525-0.069l-0.548,0.641
		l-1.673-0.743l-1.156,1.507l-0.857,2.265l-0.774,1.528l-2.882,0.972l-0.458,0.288l-0.345,1.393l-0.724-0.315l-0.694-0.961
		l-0.216-0.566l-0.551-0.267l-1.627-1.217l-0.916-0.299l-0.953,0.107l-1.215,0.7l-4.502,0.977l-1.046-0.368l-1.833-1.138
		l-1.029-0.278v0.972l0.362,0.192l0.701,0.619l-0.651,1.505l-1.016,1.131l-1.235,0.71l-1.248,0.24l-2.118-0.544l-0.651,0.208
		l0.239,1.313v0.816l-1.172,0.048l-0.561,0.827l-0.398,1.077l-0.657,0.811l-0.893,0.107l-0.737-0.373l-0.757-0.24l-0.956,0.507
		l-0.05-0.896l-0.173-0.619l-0.212-0.544l-0.166-0.704l-2.231,1.424l-0.186,1.152l-0.465,0.187l-0.641-0.043l-0.687,0.496
		l-0.946,0.896l-1.135,0.389l-2.626,0.053l0.936-0.65l0.754-0.688l0.618-0.922l0.528-1.317l-1.182,0.832l-0.96,0.432l-0.322-0.437
		l0.74-1.803l0.873-1.152l2.015-1.377l1.016-0.971l-0.242-0.299l-0.1-0.091l-0.076-0.144l-0.196-0.448l-0.681,0.694l-2.61,1.596
		l-0.319,0.752l-0.767,0.912l-1.693,1.504l-0.983-1.339l0.106-1.254l0.548-1.446l0.329-1.868l-0.571-0.817l-1.321-0.705
		l-1.487-0.256l-1.082,0.518l0.697,1.564l-2.331,1.126l-5.787,1.281l-0.319,0.534l-0.116,1.28l-0.286,0.438l-1.434-0.112
		l-0.558,0.08l-1.57,1.504l-0.926,0.4l-1.395-0.032l-0.1-1.307l-0.996-1.462l-1.149-0.651l-0.551,1.142l-4.449,4.069l0.521,0.581
		l0.222,0.187l0.372,0.123l-5.575,2.686l0.236-1.465l-0.734,0.272L271.829,570l-0.551-0.97L270.72,570l0.106-1.673l0.156-0.608
		l0.296-0.565v-0.81l-0.717-0.235l-0.339-0.304l-0.618-1.253l1.786-0.555l1.484-1.067l2.909-2.934l1.477-1.014l2.862-0.779
		l1.786-0.897l1.444-1.185l3.569-4.102l1.541-1.202l2.938-1.352l1.703-1.117l-3.765-0.385l-15.748,8.042l-5.1,0.406l3.446-2.275
		l0.754-0.331l0.79-0.555l0.578-1.229l0.73-1.234l3.194-1.138l10.053-5.455l1.096-1.723l2.666-0.348l3.031-1.601l3.005-0.712
		l2.391-1.087l0.169-2.126l0.388-0.638l0.355-0.777l0.365-0.386v-0.82l-1.169-0.6l-1.268,0.761l-1.388,0.563l-1.876-1.495
		l-0.707,0.048l-0.325-0.177l-0.08-0.515l0.156-1.662l-0.076-0.515l-0.511-0.558l-0.697-0.579l-0.803-0.472l-0.823-0.279
		l0.352,1.706l-0.113,1.217l0.053,1.126l0.877,1.431l-1.647,0.439l-1.109,0.804l-2.258,2.357l-1.59,1.007l-1.733,0.557l-5.339,0.573
		l-2.812,1.189l-10.296,1.477l-3.363,1.525l-1.202,0.942l-0.146,0.358l-0.02,0.481l-0.066,0.497l-0.279,0.449l-0.451,0.332
		l-5.13,1.679l-1.962,1.582l-0.936-0.15l-1.604-0.674l-0.827-0.155l-3.758,0.481l-1.839,0.839l-1.421,1.454l-0.551-0.978
		l0.618-0.465l0.166-0.721l0.043-0.802l0.282-0.706l0.485-0.369l5.568-1.551l1.245-0.776v-0.578l-0.1-0.128l-0.199,0.027
		l-0.259-0.128l0.325-1.632l-0.654-0.947l-1.195-0.375l-1.265,0.086l1.036-1.627l1.773-0.364l3.317,0.278l1.793-0.76l3.828-3.728
		v-0.981h-3.34l1.394-2.38l2.557-1.995l2.812-1.389l2.151-0.536l-0.256,0.606l-0.438,1.357l-0.425,0.735l1.448-0.295l1.355-0.686
		l0.93-1.319l0.173-2.2l1.069,0.735l1.428,0.252l3.124-0.091v-0.896l-0.641-0.118l-1.634-0.784v-0.81l1.102-0.725l2.085-2.432
		l1.617-0.908l0.946-1.767l0.428-0.564l0.637-0.172l2.148,0.172l2.65-0.828l4.774-2.709l2.596-0.882v-0.99l-5.91,0.78l-8.559,3.274
		l-1.56,0.957l-0.681,0.849l-0.508,0.86l-2.689-0.005l-1.255,0.419l0.505,0.983l-2.444,1.579l-0.9,0.226l0.176-0.628l0.226-1.498
		l0.156-0.661h-1.155l-0.677,0.542l-0.458,0.72l-0.501,0.542l-0.976,0.354l-1.966,0.306l-0.95,0.322l-3.566,2.85l-1.886,0.832
		l-1.846-0.987l-1.637,1.771l-2.049,1.684l-2.175,1.303l-1.992,0.644l0.478-1.738l-7.719-3.664l3.118-0.988l0.74-3.173l-1.398-3.357
		l-3.297-1.575l-0.936,0.715l-2.052,3.159l-0.93,0.72l-0.989,0.505l-2.53,2.405l-1.248,0.778l-0.451-1.691l0.969-3.851l-0.518-1.757
		l-1.195-0.269l-1.647,0.156l-1.062-0.231l0.568-1.451l-0.043-0.634l-0.193-0.183l-0.206-0.011l-0.116-0.075l0.169-0.495
		l0.169-0.323l0.149-0.355l0.07-0.635l-0.279-0.043l-0.561,0.065l-0.275-0.022v-0.904l2.689-0.355l6.777-2.432h1.421l0.657-0.409
		l0.266-0.904l-0.056-0.904l-0.282-0.415l-1.155-0.705l-0.704-1.476l-0.83-1.309l-1.54-0.21v-0.819l0.943-0.614l2.019-0.722
		l0.989-0.55l-0.634-1.935l1.697-0.874l2.291-0.512l2.085-1.445l5.193-2.476l7.743-1.668l3.313-1.965l1.763-4.516h0.608l-0.01,2.383
		l0.767,1.037l1.142,0.243l1.139-0.049l-0.262-1.226l1.727-7.837l2.523,1.514l2.557,0.13l6.066-0.816l-0.578-0.514l-0.701-0.909
		l-0.445-0.395l2.839-1.818l-16.212,0.909l1.069,2.726l-0.515,1.525l-0.375,0.589l-0.485-2.147l-0.793-0.892l-1.076-0.562
		l-1.165-0.33l-2.47-0.168l-10.963,2.78l-1.946,1.233l-0.887-0.795l-0.807-1.282l-0.857-0.779l-0.847,0.335l-0.548,0.8l-0.608,0.346
		l-2.095-2.131l-0.913-0.076l-2.281,0.725v0.827l0.807-0.005l0.687,0.2l1.345,0.708v0.822l-2.068-0.357l-3.871-1.363l-1.912-0.005
		l0.073,0.892l0.249,0.411l0.84,0.422l-1.766,0.059l-3.227,1.541l-1.74,0.303l-1.972-0.746l-0.551-1.611l-0.146-2.244l-0.724-2.662
		l0.71-0.406l1.514-1.413v-0.828l-0.847-1.072l0.946-1.186l1.753-0.991l1.544-0.455l-0.601,1.809l1.8,1.516l1.023,0.379l0.817-0.487
		l0.229-1.072l-0.279-0.926l-0.04-0.959l0.953-1.181l-0.823-0.65l-0.345-0.168l0.754-2.049l0.966-0.537l1.222,0.049l1.567-0.358
		l0.943-0.976l1.796-2.896l0.913-0.602l8.48-2.491l1.288,1.091l-0.989,5.061l0.159,0.813l5.339-0.829l2.397-1.399l2.165-2.398
		l0.724-2.811l-1.939-2.573l2.859-0.065l0.916,0.505l-0.388,1.374l0.385,1.943l0.063,2.084l0.329,1.665l1.175,0.683l1.325,0.244
		l2.5,1.171l2.759,0.607l3.383,0.054l1.156-0.672l1.7-2.212l0.95-0.526l0.996,0.423l-0.558,0.418l-0.511,0.493l1.341,0.813
		l5.907-0.813l-1.285-1.34l-1.162-0.358l-2.573-0.043l-2.66-1.514l-1.225-0.309l-1.232,0.911l-0.611-0.667l-0.451-0.814l-0.315-1.01
		l-0.189-1.232l0.989,0.972l0.764,0.537h0.847l1.252-0.597l-1.052-0.624l-0.534-0.201l-0.697-0.087v-0.988l0.813-0.027l2.075-0.798
		l-0.91-2.238l0.259-6.523l-1.348-1.365l-4.303-0.816l-2.288-1.11l-1.484-1.638l1.222-1.263l1.557-0.544l5.508-0.376l8.115-3.791
		l1.089-0.921l1.222-1.826l1.395-0.845l2.132,0.055l2.125,0.561l1.365,0.72l-0.339-1.815l-0.956-0.9l-1.295-0.262l-1.365,0.158
		l0.472-0.682l0.173-0.687l-0.156-0.704l-0.488-0.676v-0.917l0.667-0.813l0.139-0.786l-0.199-1.605l0.302-0.95l1.929-2.343
		l0.448,0.41l0.518-0.377l0.647-0.623l0.867-0.328l3.34,0.918h6.488l0.641,0.295l0.757,0.59l0.817,0.262l0.82-0.645l0.598-0.88
		l0.525-0.41l0.664-0.12l6.189,0.229l0.312,0.011l0.677,0.208l1.189-0.568l5.199,0.109l2.909-0.59l1.321-0.535l1.109-1.17
		l1.169-0.831l9.934-3.182l1.487-1.028l0.671,1.477l1.487,0.334l1.66-0.334l1.182-0.558l0.478-0.766l0.511-1.236l0.651-1.16
		l0.903-0.509l14.277-1.839l2.759-0.942l-1.484-0.027l-5.312-2.152l-2.696-0.559l-5.319,0.838l-1.388-0.246l-0.91-0.641l-0.1-0.855
		l1.036-0.931v-0.921l-0.339-1.162l0.12-1.606l-0.199-1.398l-1.255-0.51l0.691-1.086l0.906-1.75l0.628-0.768l-2.145,0.593
		l-2.556,1.399l-1.906,1.794l-0.179,1.733l-2.646,5.053l-7.228,9.82l-1.547,0.831l-7.265,0.831l-0.418,0.377l-1.295,1.799
		l-0.817,0.59l-1.003,0.142l-1.029-0.12l-0.983-0.377l-0.843-0.574l1.302-1.17l1.786-1.192l1.351-1.4l-0.023-1.827l-2.583,1.619
		l-5.96,1.903l-4.147,0.148l-1.77-0.328l-1.574-0.689l-0.681-1.187l-0.565-0.766l-2.789-0.394l-1.106-1.133l0.422-2.085l-0.89-0.766
		l-2.982,0.093v0.92l0.764,0.268l0.651,0.547l0.521,0.81l0.342,1.04l-6.169,2.921l-3.616,0.798l-1.77,0.809l-0.744,1.52
		l-0.272,1.891l-0.624,0.219l-0.744-0.492l-0.588-0.24l-2.175,1.623l-14.596,2.048v-0.836l1.481-0.694l3.473-2.513l4.207-1.12
		l16.518-15.954l-0.212-0.499l-0.339-1.343l0.887-0.428l1.172-0.96l0.777-0.444l1.056-0.313l2.557,0.313l0.913-0.164l1.524-0.68
		l0.91-0.159l0.793-0.543l0.329-1.284l0.269-1.525l0.614-1.257l-0.438-0.56l-0.013-0.071l0.216-0.192l0.236-0.939l-0.611-1.005
		l0.87-0.494l0.883-0.857l0.843-1.104l0.744-1.231l0.478-1.198l0.252-1.056l0.319-0.852l0.677-0.577v-0.924l0.139-1.782l5.073-4.92
		l0.916-2.622l-1.534-0.496l-6.408,0.342l-2.142-0.771l2.301-2.325l0.97-1.251l2.417-4.103l0.767-0.96l0.893-0.612l-0.611-0.927
		l4.363-8.35l1.77-1.924l1.355-2.278l1.116-2.899l1.424-2.374l1.723-0.714l1.929,1.14l3.828,3.641l1.789,0.78l1.554-0.597
		l1.68-1.079l1.819-0.498l1.942,1.162l0.229-2.174l-1.165-1.223l-3.576-1.151v-1.019l4.781-0.925l1.275,0.515l2.49,2.076l1.58,0.194
		v-0.841l-3.393-1.944v-1.025l1.883,0.858l1.056,0.183l0.94-1.063l0.933-0.421l0.637,0.166l-0.435,1.302l0.814,1.124l0.876,0.836
		l1.013,0.548l1.199,0.277l-0.72-2.78l-0.398-1.03l-0.551-0.837l1.049-2.061l1.288-1.48l2.723-2.046l-0.86,0.028l-1.531,0.654
		l-0.697,0.166l-8.061-0.266l-1.155-0.582l1.434-0.904l3.705-0.943l1.594-0.1v-0.921h-2.284v-0.854l0.764-0.688l2.112-0.633
		l1.082-0.533v-0.933l-6.484-0.933l-1.643,0.289l-2.842,1.277l-26.468,2.181l-2.57,1.282l-1.219,0.915l-1.813,0.494l-3.397-0.011
		l-1.733-0.832l-0.936-1.243l-0.711-1.337l-1.082-1.149l1.561-2.365l-0.594-1.583l-1.371,0.033l-0.764,2.516l-0.365,2.947
		l-0.95,1.737l-1.262,0.211l-1.315-1.642v-1.01l1.574-2.826l-0.667-6.167l1.624-1.173l0.269,0.122l0.807,0.584l0.591,0.133
		l0.325-0.295l0.528-1.273l0.256-0.3l0.213-0.495l-3.294-3.237l0.893-1.024l3.051-1.781l-2.942-0.139l-1.444,0.234l-1.232,0.852
		l1.072,1.625l0.156,2.359l-0.724,2.008l-1.564,0.628l-1.458-1.529l0.372-2.553l0.83-2.404l-0.053-1.08l-0.468-0.273l-0.342-0.501
		l-0.352-0.239l-0.505,0.512l-1.116,1.447l-0.996,0.445l-0.657,1.041l-0.876,2.164l-1.959,3.514l-1.268,1.595l-3.861,1.75h-1.331
		l-1.358-1.6l-1.597-1.367l-3.563,0.834l-1.278-0.917l0.359-0.539l0.412-1.735l0.169-1.546l0.289-1.001l0.564-0.534l0.717-0.2
		l1.096-0.044l1.368-0.412l3.327-2.26l1.225-1.141v-0.852h-2.832v-1.019l1.717-0.852v-0.936h-1.215l-0.906,0.384l-1.823,1.404
		l0.05,0.969l-1.082,0.702l-1.242-0.134l-0.465-1.537l0.438-1.231l1.604-1.142l0.697-1.365l-1.046,0.167l-0.631,0.691l-0.558,0.741
		l-0.803,0.351l-0.75-0.284L264.02,305l-0.744-0.1l-0.916,0.886l-0.242,1.337l0.236,1.548l0.033,1.258l-0.887,0.523l-0.92,0.156
		l-1.381,0.64l-3.237,0.05l-1.066-0.278l-0.946-0.568l-0.833-1.141l-0.491-1.22l-0.598-0.98l-1.135-0.39l-3.287,0.579l-1.962-0.195
		l-1.159-1.32l-0.671,0.624l-0.657,0.29l-1.507,0.022l0.727-2.206l0.867-1.488l1.202-0.83l1.707-0.234l3.114,0.658l1.238-0.167
		l1.225-1.338v-1.026l-0.946-0.123l-0.787-0.519l-0.608-0.904l-0.448-1.255l1.78,0.318l2.005,0.909l1.647,0.29l0.694-1.517
		l-1.614,0.167l-3.065-0.614l-3.091-1.328l-1.703-1.976l-0.08-0.871l-0.458-1.631l-0.684-1.57l-0.777-0.698l-2.374,0.682
		l-0.956,0.084l-0.797-0.765l1.873-1.632l1.902,0.045l1.972,0.615l2.052,0.123l-0.169-0.615l-0.269-1.576l-0.169-0.626l3.626,0.039
		l3.665,0.978l0.468,0.537l1.205,2.113l0.777-0.358l1.146-1.727l0.866-0.564l-4.964-3.333l-1.215-1.667l3.111-0.711l6.358,0.638
		l2.324-0.638l2.802-1.78l1.102-0.101l0.857,0.364l1.716,1.242l3.901,0.705l6.388,0.425v-0.856l-1.414-0.744l-5.684,0.492
		l-3.549-1.366l-6.624-4.11l-1.162-6.153l0.485-2.944l0.903-2.261l0.501-2.116l-0.727-2.521l0.777-0.545l3.094-0.567l2.211-0.854
		l1.932-0.236l0.876-0.303l0.837-0.877l0.471-0.067l1.653,1.085l0.91,0.399l15.147-2.754v-1.018l-1.235-0.23l-3.274-1.659
		l0.438-0.287l0.339-0.304l0.375-0.247l0.521-0.107v-0.945l-0.352-1.131l0.867-1.249l2.826-2.342l-0.664-0.056l-1.514-0.89
		l0.651-0.574l0.498-0.845l0.345-1.087l0.179-1.279l-0.548,0.113l-0.349,0.135l-0.332,0.248l-0.445,0.451l-2.331-0.879
		l-11.644-0.068l-8.032,4.574l-4.419,1.047l-2.693-2.861l1.009-0.8l0.508-3.86l1.365-1.015l-0.232-1.28l-0.027-0.609l0.259-0.953
		v-0.863h-0.608v-0.937l3.905-1.044l0.717,0.372l1.81,1.32l1.119,0.288l0.956,0.745l0.329,3.248l0.943,0.744l0.697-0.44
		l-0.026-1.133l-0.139-1.523l0.329-1.641l-0.767-0.829l-0.667-1.033l-0.78-0.801l-1.129-0.181v0.863l0.511,1.044l-0.936-0.339
		l-0.558-1.01l-0.953-3.455l0.056-0.672l-0.007-0.582l-0.392-0.672l-0.525-0.107l-1.375,0.169l-0.279-0.48l-0.269-0.876
		l-0.594-0.751l-0.591-1.147l-0.272-2.063l0.372-2.076l0.896-0.639l1.082-0.345l0.943-1.256l-1.142-0.504l-0.017-0.804l0.714-0.849
		l1.056-0.6l-0.611-0.951l2.284-1.982l-0.783-0.68l-0.946-0.051l-2.122,0.731l0.206,1.138l-0.093,0.515l-0.432,0.181l-0.847,0.147
		v0.951h0.558l-2.354,2.966l-2.298,0.487l-2.052-1.714l-1.653-3.634l1.584,0.062l3.685-1.099l1.464-0.867l-2.483-1.853l-0.996-1.337
		l-0.471-1.655l0.531,0.34l1.119,0.391l0.535,0.306l-1.033-1.639l-2.819-3.21l1.102,0.771l0.96,0.045l0.774-0.596l0.505-1.174
		l-4.23-3.599l-1.853-0.727l-1.212,1.476l1.165,1.487l-0.452,1.175l-1.371,0.55l-1.564-0.363l0.727,1.441l0.382,0.465v0.953
		l-1.155-0.17l-0.999,0.227l-1.743,0.987v0.862l1.062,0.408l0.405,0.828l0.206,2.658l-0.697,0.034l-1.584,0.918l1.072,0.748
		l1.009,1.297l0.179,1.217l-1.395,0.538L247.678,213l-1.209-0.572l-0.747-1.41l-0.13-2.668l0.485-1.649l1.846-3.963l0.408-1.605
		l0.275-2.508l0.691-1.158l0.923-0.897l0.95-1.726l-2.556-0.057l-1.036-0.522l-0.92-1.233l1.554-0.017l0.737-1.278l0.448-1.836
		l0.657-1.637l0.896-0.819l3.606-2.127l0.332-0.592l0.196-0.717l0.342-0.546l0.803-0.057l0.478,0.455l0.179,0.831l0.113,0.899
		l0.296,0.671l1.056,0.876l1.411,0.739l1.441,0.176l1.155-0.824l0.598,1.097l0.664,0.597h0.727l0.797-0.66l0.136,0.438l-0.013,0.222
		l0.086,0.102l0.398,0.102l-1.813,3.501l-1.946,1.562l-2.029-0.244l-2.062-1.954l-0.518,2.727l1.265,0.829l1.932,0.136l1.474,0.687
		l1.345,0.937l1.126-1.005l1.079-1.573l1.212-0.744l-1.112-1.699l0.531-2.25l1.318-1.967l1.235-0.842l1.773,0.512l2.859,2.12
		l1.803,0.307l-0.478-1.199l-0.637-0.762l-1.673-0.978v-0.967l0.797-0.324l0.767-0.063l1.783,0.387l-1.524-0.904l-4.273-0.961
		l-0.886-1.428l-0.485-2.009l0.166-1.025l4.771-1.304l1.73,0.444l3.101,1.976l1.58,0.444l13.998,1.036l0.906-0.159l1.531-0.706
		l0.91-0.171l0.707,0.245l1.126,1.229l0.647,0.438l6.484,0.945l0.79-0.216l0.996-0.558l0.936-0.762l0.614-0.803l0.767-0.615
		l0.996,0.171l3.652,1.747l0.721,0.091l0.608,0.592l0.664,2.622l0.422,0.608l1.451-0.262l0.837-0.296l0.166-0.409l0.538,1.103
		l0.126,1.126l-0.206,0.995l-0.458,0.682v0.955l1.773,0.869v1.04l-1.567,1.108l0.385,1.295l3.948,3.599l1.033,1.594l0.661,2.127
		v2.739h0.508l0.066-2.517l0.312-2.138l0.12-1.946l-0.498-2.049l1.833-0.778l1.823-1.857l1.404-2.812l0.564-3.649l1.209-2.32
		l2.756-0.336l4.947,1.172l0.571-0.188l0.445-0.472l0.438-0.245l0.936,0.819l1.414,0.87l1.308,0.478l1.826,1.308l1.242,0.296h4.017
		l1.773-0.534l1.673-1.365l2.258,1.745l4.98-1.006l2.291,1.16l0.478,1.313l0.239,1.608l0.511,1.358l2.304,0.937l0.943,0.92
		l1.7,2.612l1.089-0.874l1.262-0.284l2.663,0.125v-0.948l-1.169-0.608l-1.474-0.454l-1.275-0.778l-0.538-1.551l-0.515-1.074
		l-1.238-0.813l-1.494-0.449h-1.255v-1.04l0.551-0.671l0.946-1.66l0.727-0.535l1.799,0.887l1.099,0.273l0.488-0.682l0.936-0.597
		l5.751,1.086l-1.278-1.684l-1.484-1.195l-1.567-0.706l-1.547-0.239l-1.66,0.125l-0.584-0.376l-0.232-1.144l0.445-1.434l1.013,0.376
		l1.883,1.577l1.634-1.002l-0.608-1.309l-1.743-1.11l-1.763-0.478l-8.098,0.006l-0.445-0.444l-0.119-1.475l0.359-1.054l0.823-0.923
		l0.983-0.638l2.357-0.707l9.489-6.73l1.341-0.468l0.491-0.445l0.232-1.107l0.08-2.798l0.292-2.411l0.611,0.44l0.598,1.525
		l0.226,0.874l0.325,0.12l0.113,0.068l0.06,0.857l2.374-1.713l2.427-1.223l0.206-0.046l6.654-1.32l1.043-0.206l3.692-2.572
		l2.603-0.589v-1.052l-2.699-0.109l-1.199-0.566l-1.062-1.327l4.456-3.754l-0.203-2.731l3.782-3.478l-0.236-3.497l0.877,0.562
		l0.574,0.631l0.618,0.522l1.019,0.212l0.936-4.548l0.428-1.222l-0.249-0.293l-0.083-0.04l-0.056-0.097l-0.169-0.448l-1.56,1.509
		l-1.62,0.838l-5.571,0.952l-2.968,2.449l-1.697,0.9v-0.871l0.847-1.233l0.113-1.279l-0.564-1.01l-1.182-0.424l-1.225,0.614
		l-2.088,2.718l-2.078,1.061l-3.812,4.264l-1.096,0.934l-1.149,0.704l-1.189,0.292v-0.865l1.985-2.395l1.238-1.037l1.544-0.418
		l1.096-1.06l-0.239-2.001l-1.009-1.227l-1.222,1.308h-0.558l0.259-3.103h-1.056l-1.361,1.927l-0.677,2.666l-0.402,0.826
		l-0.86-0.705l-0.79-1.141l-0.362-0.986l0.08-0.625l-0.076-0.551l-0.651-0.235l-0.544,0.132l-0.857,0.602l-0.505,0.229l-1.979,0.126
		l-0.956,0.367l-0.863,1.944l-1.039-0.292l-1.643-1.181l-6.175-0.023l-1.421-0.941l0.657-1.365l-0.77-0.774l-6.753-2.617
		l-1.441,0.034l0.276-0.534l0.169-0.505l0.239-0.482l0.432-0.494v-0.873l-1.056-0.678l-0.544-0.999l0.183-0.913l1.139-0.396
		l1.192-0.138l0.96-0.5l0.634-1.034l0.229-1.696l0.926-1.064l5.807-4.245l2.082-0.823l8.191,0.219l4.283,1.433l2.211,0.052v-0.88
		l-5.711-1.433l-1.534-1.554l1.265-0.61l3.669-0.184l0.943,0.363l1.026,1.693l1.315,1.658l1.471,0.834l1.507-0.765l-4.333-4.369
		l-3.068-1.089l-2.945-2.16l-1.912-0.196l0.332-1.372l0.601-0.334l0.807,0.017l0.996-0.248l0.797-0.634l1.082-1.488l0.91-0.779
		l1.607,1.626l1.79,0.156l3.845-0.727l4.545,1.822l1.68,0.023v-0.963l-1.434-0.225l-1.806-0.778l-1.302-1.494l0.04-2.348
		l1.156-1.218l3.207,0.577l1.202-0.329l-1.076-0.918l-0.913-2.529l-1.096-0.52l-1.497-0.127l-0.425,0.127l-0.339,0.641l-0.133,0.999
		l-0.027,0.924l-0.06,0.433l-2.321-0.121l-1.902-2.061l-1.484-2.911l-1.033-2.664l1.062-0.775l0.777,0.405l0.767,0.815l1.066,0.445
		l1.129-0.162l1.082-0.422l2.022-1.353l-2.414-1.006l-1.833-1.822l-3.101-3.888v-1.059l0.694-0.677l0.847-0.313l0.923,0.174
		l0.93,0.816l0.843-1.424l0.223-0.521h-0.508l0.408-2.01l0.647-0.353l0.81,0.104l0.923-0.562l1.594-3.443l0.578-0.533l0.777,0.835
		l0.229,3.326l0.767,0.689l0.465-0.585l0.521-2.613l0.687-0.765l-0.926-4.193l-0.319-2.489l0.359-1.114l0.953-0.923l1.302-4.414
		l0.81-1.488l1.262-0.076l4.608,2.028l1.481-0.302l2.51-1.342l1.335-0.308l-0.511,1.255l-0.551,0.93l-0.432,0.929l-0.176,1.324
		l0.428,0.708l0.963-0.813l2.434-3.503l4.944-3.174l1.587-0.576l1.129-1.117l0.75-2.327l0.996-2.083l1.859-0.326l2.171,1.665
		l-0.691,1.583l-3.712,2.606v0.977l3.44-1.867l0.511,0.355l0.545,0.698l1.228-0.116l1.302-0.553l0.774-0.558l1.116,2.041v0.889
		l-0.319,1.645l0.681-0.267l1.215-0.953l1.262-0.424l-0.405,1.395l-0.637,0.936l-0.823,0.523l-0.973,0.151v0.97l1.497-0.064
		l0.923,0.29l0.717-0.07l0.81-1.127l0.963-2.586l-0.232-1.552l-1.839-2.687l-0.491-2.897l1.295-1.758l2.145-1.63l2.062-2.505
		l0.216,0.722l0.083,0.023l0.309,0.315l-1.872,6.7l-0.126,1.03l0.166,0.256l0.266,0.593l0.398,0.651l0.561,0.454l0.727,0.017
		l0.803-0.942l0.75-0.139l1.096,0.523l1.687,1.157l1.554,1.442l0.677,1.348l0.156,0.523l0.721,1.871l0.239,1.022l-0.027,1.022
		l-0.418,2.554l-0.116,1.294l0.634-1.283l1.298-3.768l0.581-0.801l0.286-1.017l-0.531-2.261l-0.764-2.215l-0.388-0.884l-0.123-1.402
		l-0.385-1.85l-0.697-1.571l-1.016-0.495l-0.644,1.048l0.159,2.048l0.538,2.199l0.498,1.535l-1.129-0.227l-0.79-0.82l-0.671-1.024
		l-0.75-0.861l-2.4-0.715l-0.986-0.908l0.292-1.798l2.228-4.559v-0.81l2.918,0.489l1.288-0.489l2.922-2.546l1.029-0.385l1.381,0.542
		l0.87,1.387l0.651,1.422l0.717,0.641l0.418,1.043l-0.146,2.236l-0.352,2.171l-0.199,0.815l0.445,1.274l1.062,0.96l2.344,1.186
		l0.04,1.686l0.664,1.918l0.95,1.58l0.903,0.657l1.109,1.074l0.166,2.34l-0.475,2.351l-0.8,1.062l-1.222,0.354l-0.966,0.864
		l-1.484,1.792l-4.456,2.91v0.974l4.884-0.939l1.577,0.846l-0.89,3.007l-0.966,1.042l-4.047,2.935l-2.723,3.871l-1.129,0.989v0.971
		l1.624-0.503l1.478-1.041l7.746-7.564l0.853-0.209l0.704-1.535l1.64-0.747l1.873-0.469l1.404-0.655l1.056-1.75l0.501-2.307
		l-0.359-1.984l-1.497-0.853l-0.389-0.592l0.339-1.294l0.857-2.008v-3.415l-0.584-0.244l-3.267-5.115l-1.926-1.628l-0.631-0.814
		l-0.345-0.96L456,54.508l0.013-1.397l1.819-1.659l0.887-2.487l0.216-2.896l-0.877-2.279l1.381,0.163l1.195,0.542l1.155,0.204
		l1.282-0.91l-0.219-0.478l-0.07-0.321l-0.05-0.402l-0.169-0.752l1.624,1.417l1.733,1.067l1.799-0.052l3.111-3.394l1.654-0.525
		l1.634,0.828l1.258,2.613l-1.72,0.093l-0.555-0.093l1.557,1.16l1.799,0.845l1.813,0.064l1.62-1.172l-5.216-4.199l-2.45-3.14
		l-0.189-3.352l-2.165-1.309l-0.983-0.871l-0.704-0.941L469.473,30l1.477,0.345l2.759,1.607l5.624,2.045l1.328,0.198l3.138,1.729
		l1.096,0.934l4.183,6.447l1.232,1.119l4.057,1.889l3.055,0.542l3.705,1.597l1.697,1.293l1.809-0.81l1.139,2.184l-0.262,2.934
		l-2.43,1.467l-2.291,0.454l-2.729,1.187l-2.583,1.698l-2.776,2.785l-2.656,1.43l-2.218,0.668l-1.089,1.04l-3.573,5.017l-1.278,2.35
		l-1.036,2.628L480.679,75.363z M283.576,325.474l1.985,3.33l-1.63,2.508l-2.779,0.854l-1.467-1.664l-0.266-1.981l-0.438-0.999
		l-0.09-0.766l0.793-1.282l0.936-0.711l1.155-0.239l1.082,0.228L283.576,325.474z M259.02,232.159l0.963-0.553l0.92-0.293
		l0.807,0.124l0.651,0.722v0.937l-0.657,1.083l-0.541,2.182l-0.229,2.435l0.312,1.865l-1.766,1.645l-1.534-0.867l-1.554-1.961
		l-1.833-1.646l-1.062-0.101l-1.102,0.214l-0.873-0.226l-0.349-1.353l0.173-2.036l0.252-1.574l-0.1-1.287l-0.883-1.219l-1.68-0.525
		l-6.169,1.388l-2.231-0.299l-4.024-1.546l-2.158-0.045v-0.949l2.105-0.073l1.766-0.508l1.388-1.406l0.973-2.757l0.628,0.814
		l0.677,0.249l0.707-0.271l0.72-0.791l1.766,2.181l2.085-0.593l2.052-1.599l1.673-0.927l7.125,0.226l1.554,0.712l1.673,3.717h-1.673
		l0.212,1.129l-0.033,1.078l-0.259,0.948l-0.471,0.711V232.159z M376.415,83.851l1.295,0.591l1.016,0.695l0.684,1.268l0.345,2.309
		l-3.546,1.14l-1.786-0.127l-1.348-1.012v-0.885l0.199-0.625l0.053-0.035l-0.07-0.191l-0.183-1.094l1.215-0.868l0.452-0.191
		l-0.166-0.353l-0.252-0.376l-0.139-0.243l0.711-0.799l0.584-0.179l0.488,0.318L376.415,83.851z M270.986,544.658l0.797-0.187
		l0.644,0.46l-0.657,0.931l-0.505,0.273l-6.415,2.15l-0.86-0.401l-1.238-0.663l0.193-1.273l1.185-1l1.577-0.578l1.909-0.177
		l2.789,0.46L270.986,544.658z M230.54,506.849l0.9,0.097l0.322,0.845l-0.561,1.017l-1.477,0.985l-3.174,1.485l-2.829,0.29
		l-0.784,0.758l-1.647,0.242l-0.246-1.001l1.388-1.889l4.17-2.858l0.754-0.716l1.514,0.07l0.578,0.129l0.634,0.619L230.54,506.849z
		 M284.745,349.135l0.266-0.122l0.339,0.144l-0.123,1.051l-1.474,0.431l-9.645-4.463l-2.669-1.92l0.837-1.207l1.932-0.044
		l2.065,1.55l0.989,0.028l1.989-0.415l1.551,0.232l2.092,0.819l0.621,0.996l-0.717,0.99l0.057,0.913L284.745,349.135z"/>
</g>
<g id="Copyright">
	<text transform="matrix(1 0 0 1 681.6426 577.5916)" class="st1 st2">© Vemaps.com</text>
</g>
</svg>
