<?xml version="1.0" encoding="utf-8"?>
<!-- Generator: Adobe Illustrator 23.0.1, SVG Export Plug-In . SVG Version: 6.00 Build 0)  -->
<svg version="1.1" xmlns="http://www.w3.org/2000/svg" xmlns:xlink="http://www.w3.org/1999/xlink" x="0px" y="0px"
	 viewBox="0 0 800 600" style="enable-background:new 0 0 800 600;" xml:space="preserve">
<style type="text/css">
	.st0{fill:#808080;}
	.st1{font-family:'Roboto-Regular';}
	.st2{font-size:14px;}
</style>
<g id="Saint_Kitts_and_Nevis">
	<path class="st0" d="M563.045,394.7l34.007,0.697l29.548,9.962l22.693,22.152l13.177,37.404l1.93,15.462l0.799,39.696
		l-2.729,14.902l-8.385,20.75l-6.588,7.242L617.814,570l-75.932-6.197l-23.226-62.532l12.644-72.088L563.045,394.7z M479.26,287.397
		l22.294,12.683l19.632,28.013l0.133,28.359l-36.469,13.865l-20.763-14.213l-17.569-64.525l-32.409-20.21l-21.362-24.254
		l-15.04-5.437l-51.509,2.927l-21.096-2.927l-51.975-21.189l-70.142-43.638l-48.181-55.079l12.977-55.576l6.389-5.858l4.392-3.138
		l4.858-1.883l7.72-1.883l19.965-8.578l7.054-5.021L202.683,30l162.912,98.187l40.062,43.365l28.35,70.265l18.434,32.06
		L479.26,287.397z"/>
</g>
<g id="Copyright">
	<text transform="matrix(1 0 0 1 681.6426 577.5916)" class="st1 st2">© Vemaps.com</text>
</g>
</svg>
