<?xml version="1.0" encoding="utf-8"?>
<!-- Generator: Adobe Illustrator 23.0.1, SVG Export Plug-In . SVG Version: 6.00 Build 0)  -->
<svg version="1.1" xmlns="http://www.w3.org/2000/svg" xmlns:xlink="http://www.w3.org/1999/xlink" x="0px" y="0px"
	 viewBox="0 0 800 600" style="enable-background:new 0 0 800 600;" xml:space="preserve">
<style type="text/css">
	.st0{fill:#808080;}
	.st1{font-family:'Roboto-Regular';}
	.st2{font-size:14px;}
</style>
<g id="Lithuania">
	<path class="st0" d="M729.575,197.575l1.122,5.072l0.461,5.731l-0.299,5.628l-1.16,4.709l-2.344,3.726l-2.955,3.427l-2.357,3.888
		l-0.536,5.13l2.269,4.456l-0.386,2.474l-4.277,4.353l-1.035,2.352l-1.596,7.918l-0.835,2.008l-2.88,5.364l-1.172,3.947l0.549,2.214
		l1.895,1.315l7.194,2.706l2.045,0.109l7.282-1.972l20.018,3.527l2.768,2.135l1.104,3.568l-1.334,3.414l-2.905,2.22l-3.098,0.832
		l-4.682,1.257l-1.858,1.104l-3.466,3.443l-1.908,2.644l-0.873,2.25l-0.773,5.863l-1.347,6.131l-1.858,3.075l-2.656,0.48
		l-12.73-5.725l-1.721,0.196l-1.022,1.036l-0.711,1.243l-0.748,0.829l-1.185,0.382l-1.022,0.022l-13.366-3.49l-5.436,0.96
		l-3.79,6.008l-0.324,2.397l0.112,5.229l-0.224,2.537l-0.574,1.796l-4.439,9.714l-2.113,3.255l-2.014,3.102l-1.808,2.009
		l-4.352,2.508l-14.65,3.007l-2.244-0.043l-4.389-1.02l-2.207-0.065l-4.539,1.943l-1.421,1.226l-0.436,1.573l-0.212,1.898
		l-0.773,2.147l-2.519,2.982l-2.805,2.178l-2.394,2.503l-1.259,3.943l0.175,1.873l1.035,4.178l0.075,1.731l-0.536,1.763l-0.611,0.4
		l-0.823,0.022l-1.185,0.606l-2.631,2.368l-1.284,1.87l-0.374,2.799l0.411,10.67l-0.187,2.158l-0.474,2.212l-0.636,1.92l-0.524,2.07
		l-0.137,2.63l0.811,4.127l2.992,7.398l0.686,4.025l-0.623,4.141l-1.683,3.236l-2.307,2.375l-7.381,4.394l-1.845,2.502l-1.322,4.208
		l-0.524,5.44l0.087,4.321l-0.449,3.998l-2.157,4.499l-5.536,6.702l-2.269,4.472l-0.162,5.207l1.646,2.672l2.618,1.015l5.237-0.352
		l7.232-3.815l1.808-0.481l1.646,0.962l0.698,1.699l0.362,2.02l1.284,3.675l0.461,0.758l0.486,0.118l1.384-0.459l0.549,0.128
		l1.16,1.292l1.072,1.516l0.948,1.857l0.798,2.284l0.486,0.683l0.661,0.245l0.586,0.438l0.312,1.259l-0.287,0.917l-1.421,1.92
		l-0.374,0.949l-0.112,9.431l-0.96,3.237l-2.78,2.097l-1.434,0.213l-4.526-0.617l-1.309,0.596l-1.908,2.671l-1.259,0.745
		l-2.643,0.085l-10.685-1.777l-3.254-1.607l-2.743-2.629l-0.91-3.685l0.898-1.449l3.441-1.193l0.873-1.534l-0.673-1.769
		l-2.905-1.567l0.287-2.047l2.469-1.418l2.818,0.235l1.022-0.779l-8.504-11.655l-0.58-1.164l-0.798-0.79l-1.534-0.363l-3.042,1.464
		l-4.838,7.164l-2.93,1.91l-9.912,0.555l-7.656-2.753l-2.157,0.363l-1.534,2.71l-2.469,9.714l-1.995,4.304l-4.938,5.548
		l-5.262,3.416l-5.411,0.894l-9.513-3.714l-5.549-0.798l-5.586,0.628l-0.603,0.365l-3.549,2.147l-0.486,1.298l-0.012,1.564
		l0.15,1.372l-0.062,0.787l-2.257,1.425l-1.072,1.361l-0.761,0.075l-0.212,0.691l0.561,3.135l1.434,4.441l1.621,3.515l1.072,3.906
		l-0.237,5.612l-0.013,0.011l-0.012,0.021l-0.013,0.021l-1.534,3.488l-2.132,1.155l-7.818,1.282l-2.207-0.159l-1.783-1.77
		l-1.559-3.997l-0.436-0.286l-0.449-0.117l-0.449,0.085l-2.88,2.227l-7.706,1.516l-6.085,3.54l-13.827,12.43L462.157,570
		l-4.339-0.042l-3.828-1.153l-4.077,0.18l-2.332-0.455l-1.284-1.968l-2.082-5.885l-3.379-4.12l-3.803-1.324l-3.965,0.721
		l-7.456,4.036l-3.566,0.995l-7.73,0.095l-1.983-0.477l-3.553-2.298l-1.883-0.784l-1.82,0.35l-9.214,5.326l-0.935,0.159
		l-1.022-0.318l-2.169-1.281l-0.835-0.169l-1.858,0.741l-2.095,1.546l-7.543,1.08l-5.947,2.561l-1.87,0.159l-2.07-0.741
		l-10.835-6.584l-4.165-1.091l0.499-1.197l0.075-1.123l-0.349-1.028l-0.711-0.922l-1.284-1.06l-0.973-1.484l-0.511-1.866
		l0.075-2.195l0.586-0.912l0.648-0.806l1.459-1.22l1.796-3.151l-0.037-4.639l-1.758-9.593l-0.923-4.391l-1.322-4.606l-1.683-4.119
		l-1.995-2.96l-1.11-0.66l-2.593-0.714l-1.247-0.852l-1.11-1.598l-2.194-4.21l-1.16-1.812l-2.23-1.907l-2.409-2.061l-9.725-3.692
		l-4.601-2.828l-7.481-6.29l-2.194-1.068l-2.431,0.545l-2.88,1.229l-2.768,0.011l-2.17-3.045l0.013-2.191l0.698-2.341l0.436-1.967
		l-0.761-1.144l-4.139-0.492l-1.359-0.931l-0.761-1.327l-0.536-1.616l-0.686-1.616l-1.284-1.306l-1.234-0.289l-2.743,0.578
		l-1.309-0.171l-7.232-3.747l-2.569-0.353l-3.005,1.414l-0.163,0.303l-3.054,5.68l-2.269,1.851l-7.269-12.944l-3.204-7.15
		l-0.698-8.111l0.86-16.137l2.643-9.921l0.536-3.769l-0.137-2.262l-0.748-4.764l0.013-2.135l0.511-1.456l2.643-3.927l0.062-0.831
		l-0.324-0.928l-0.249-1.004l0.249-1.004l0.411-0.356l1.022-0.259l1.272-1.101l2.12-1.155l0.985-1.123l1.646-2.819l3.753-2.755
		l1.82-1.989l1.559-3.654l0.312-3.699l-0.486-3.863l-1.808-8.479l-0.973-2.677l-1.496-1.734l-7.194-3.383l-0.997-1.627l1.347-2.832
		l-1.608-0.629l-1.16-1.313l-0.86-1.433l-0.785-0.879l-1.135-0.369l-6.783,0.054l-1.982-1.064l-1.421-2.541l-1.608-4.704
		l-2.02-9.514l-1.322-4.211l-1.146-1.341l-0.686-0.803l-2.943-1.677l-12.643,3.789l-20.074-2.477l-2.244-0.277l-13.104,3.418
		l-1.546,1.611l-1.372,1.937l-2.244,1.654l-2.781,0.283l-3.242-1.044l-2.681-2.285l-1.097-3.483v-3.451l-0.387-2.342l-1.446-1.068
		l-3.13,0.316l-3.154,2.429l-1.035,0.457l-1.184-0.457l-2.943-1.982l-4.264-1.068l-2.332-1.536l-4.102-3.608l-8.354-1.821
		l-2.082-1.767l-2.07-2.771l-8.491-6.668l-4.913-2.424l-12.207-0.404l-4.377-3.539l-7.493-12.958l-3.703-3.722l-3.017,0.46
		l-9.923,8.281l0.177-1.034l-0.55-4.868l-0.01-1.577l0.776-0.853l0.874,0.31l0.874-0.104l0.707-2.121l-0.236-1.733l-0.815-2.458
		l-1.001-2.226l-0.795-0.958l-0.982-0.932l-0.373-2.227l0.088-4.801l-1.267-0.173l-6.971,6.701l-0.658-1.605l-0.01-0.466
		l0.334-0.173l4.614-10.643l1.021-1.617l1.875-2.326l0.01-5.199l-1.424-8.581l-1.483-6.335l-0.167-1.665l-0.53-0.728l-1.149-1.275
		l-1.159-1.717l-0.52-2.03l0.118-2.604l0.206-1.693l0.039-1.589l-0.363-2.206l-4.526-12.099l-0.893-3.758l-0.353-4.03l-0.776-2.133
		l-4.997-8.765l-1.188-1.325l-1.06-0.715l-0.766-1.36l-0.55-5.313l-1.119-4.19l-1.915-18.145v-9.464l0.265-2.357l1.119-2.989
		l0.265-2.007v-18.485l-0.599-7.578l4.579-1.141l7.094-0.062l4.85-1.357l1.808-4.102l0.873-5.966l2.057-6.972l3.042-4.771
		l4.289-4.712l4.489-3.784l3.703-1.923l5.474-0.269l1.883-0.634l16.845-13.011l4.476-2.304l10.673-0.483l33.879-16.017l2.154-1.019
		l13.38-6.335l5.436,0.372l2.294,1.189l4.476,3.357l2.369,0.974l35.81-1.216l7.73,1.797l0.291,0.157l3.2,1.724l5.349,5.661
		l2.082,0.872l1.82-0.264l17.069-7.091l4.424-3.096l3.543-2.48l4.289-0.8l3.915,2.208l2.943,6.278l4.264,10.738l5.499,4.283
		l6.085-1.461l6.047-6.555l-1.047-2.261l2.219-1.429l13.977-3.287l2.681,0.535l8.13,3.476l12.493,5.339l4.339,0.315l7.257-4.341
		l3.878-1.136l8.391,0.428l3.292-0.563l1.01,0.371l1.022,1.507l0.15,1.614l-0.137,1.366l0.162,0.72l3.753,0.618l8.316-1.945
		l3.99,0.112l1.568,0.505l13.294,4.279l11.321,8.959l4.04,2.279l3.653,0.707l0.181-0.034l3.185-0.589l14.576-7.653L455,61.373
		l3.89,1.528l7.668,5.66l3.965,1.083l4.115-1.807l6.957-4.082l2.282-2.382l9.8-13.359l4.763-3.771l4.393-1.954l10.919-4.86
		l1.209-0.056l2.668,1.059l0.985-0.214l0.761-1.904l0.15-2.412l0.449-2.322L521.644,30l2.568,0.846l2.157,3.659l3.155,9.165
		l3.117,13.203l1.334,4.029l1.209,2.23l4.015,4.475l1.172,2.11l2.145,6.99l3.516,6.547l4.352,3.193l28.94,5.029l12.754,2.215
		l8.198-1.5l6.047,2.932l2.07,0.414l7.194-0.582l1.471,0.649l0.885,1.902l2.244,7.291l1.06,2.257l1.471,1.48l6.932,4.842l3.527,4
		l9.141,10.358l10.856,7.261l6.8,4.545l7.456,8.444l11.97,10.44l3.03,4.757l2.793,6.551l6.371,11.515l7.556,5.763l16.733,8.142
		l6.808,1.879L729.575,197.575z M53.375,281.404l-7.825-2.021l0.03-0.052l9.013-15.71l5.066-12.548l4.928-17.349l1.296-17.923
		l0.756-3.631l-0.658-1.017l0.658-2.034l-1.05-4.303l0.344-13.35l-1.001-5.846l3.888,4.94l1.698,9.455l0.246,18.643l-0.265,2.682
		l-1.119,3.566l-0.265,2.55v8.01l-1.384,3.482l-1.905,3.507l-0.658,3.306l2.297,2.898v1.323l-1.738,2.231l-2.209,4.02l-1.914,4.744
		l-0.805,4.37l-1.581,4.298l-5.9,7.901L53.375,281.404z"/>
</g>
<g id="Copyright">
	<text transform="matrix(1 0 0 1 681.6426 577.5916)" class="st1 st2">© Vemaps.com</text>
</g>
</svg>
