<?xml version="1.0" encoding="utf-8"?>
<!-- Generator: Adobe Illustrator 23.0.1, SVG Export Plug-In . SVG Version: 6.00 Build 0)  -->
<svg version="1.1" xmlns="http://www.w3.org/2000/svg" xmlns:xlink="http://www.w3.org/1999/xlink" x="0px" y="0px"
	 viewBox="0 0 800 600" style="enable-background:new 0 0 800 600;" xml:space="preserve">
<style type="text/css">
	.st0{fill:#808080;}
	.st1{font-family:'Roboto-Regular';}
	.st2{font-size:14px;}
</style>
<g id="Moldova">
	<path class="st0" d="M186.038,71.63l0.088-1.503l0.793-2.875l1.334-2.194l4.022-2.55l0.598-2.361l0.705-1.552l2.391,0.928
		l1.649,1.869l1.297,2.257l1.498,1.968l2.272,1.04l2.411-0.189l1.385-1.267l0.529-2.37l-0.088-3.459l-0.642-3.522l-0.717-2.207
		l-0.082-1.643l1.284-1.795l0.673-0.057l2.008,0.805l0.837,0.028l1.057-1.108l0.34-1.35l0.428-1.142l1.322-0.436l4.04,1.787
		l3.99,3.439l4.204,2.562l4.607-0.81l1.158-1.227l0.881,0.151l0.831,0.512l1.334-0.118l1.473,0.303l0.654-0.45l-0.151-0.924
		l-0.403-1.018l-0.088-0.729l0.05-1.213l-0.34-1.554l0.113-1.327l1.347-0.474l1.297,0.37l2.53,1.611l13.028,4.965l3.99,0.218
		l4.619-2.406l0.664-0.838l6.587-8.319l4.406-2.286l2.341,0.607l3.461,3.267l1.661,0.645l2.039-1.038l7.389-6.289l2.794-3.848h5.035
		l1.447-0.366L303.576,30l2.656,0.351l0.252,4.832l2.454,1.205l15.193-0.133l4.078,1.912l7.867,5.861l1.825,1.967l2.5,3.753
		l1.376,2.065l0.957,0.862l2.669,4.224l4.947,1.931l4.399,0.55l6.426,0.803l2.492,1.202l2.001,2.356l0.667,3.287l-2.392,7.171
		l1.775,1.366l2.719,0.128l1.888-0.52l3.776-3.218l2.001-0.307l0.881,3.015l0.44,3.534l1.284,2.068l2.077,0.656l2.845-0.638
		l2.605-1.521l1.926-1.677l2.064-1.346l5.614-0.661l2.089,0.274l1.271,1.46l0.227,3.471l-0.812,3.768l-1.353,1.671l-1.75,1.166
		l-1.913,2.241l-0.806,2.543l0.226,2.542l1.36,1.523l2.555-0.495l1.875-2.15l1.29-2.764l1.592-2.18l2.794-0.387l1.913,1.34
		l1.171,2.467l-0.151,2.768l-2.027,2.272l3.461,7.2l1.454,1.512l2.461,1.738l1.271-0.104l0.453-1.7l0.05-3.104l0.686-3.113
		l0.157-0.714l2.222-6.624l2.712-1.245l3.902,0.179l11.202,4.678l8.459,0.118l4.405,0.773l3.411,2.31l0.812,1.456l0.296,1.319
		l0.101,1.239l0.29,1.253l1.951,4.719l0.39,4.763l0.214,1.101l0.818,1.19l2.001,1.886l0.779,1.351l2.493,4.32l3.927,4.296
		l2.592,1.997l1.738,1.339l3.713,1.531l4.431-0.855l5.337-7.033l3.858-1.894l2.108,0.094l1.699,0.668l1.498,1.419l1.422,2.331
		l0.957,2.819l1.07,6.227l0.969,2.652l1.712,1.337l4.796,1.464l1.221,0.882l-0.397,2.477l-1.869,2.574l-2.253,2.433l-1.485,2.044
		l-1.095,3.177l0.013,1.991l1.171,1.18l4.204,1.522l1.555,1.451l0.472,1.957l-1.454,2.312l-3.619,4.66l-0.667,5.653l0.113,6.392
		l-1.259,6.813l-3.153,5.497l-3.128,4.179l-1.592,4.746l1.58,7.235l0.013,0.019l0.013,0.009l0.006,0.019l0.796,1.61l0.344,0.695
		l1.901,5.432l1.007,1.912l2.215,1.712l1.259-1.07l1.152-1.94l2.008-0.903l1.737,0.949l2.203,3.773l3.738,2.502l0.831,1.925
		l0.548,2.143l0.988,1.919l1.687,0.985l1.913,0.4l1.882,0.836l1.592,2.36l0.629,2.847l0.05,2.595l0.378,2.553l0.401,0.681
		l1.211,2.057l1.661,1.485l1.838,0.891l1.951,0.195l1.964-0.621l2.127-2.041l0.843-2.506l0.554-2.748l1.246-2.79l2.461-0.279
		l2.423,0.163l2.303,0.845l2.033,1.829l1.643,3.101l1.12,4.162l0.113,4.155l-1.397,3.106l-3.008,1.594l-0.441,3.892l1.246,9.385
		l-0.705,4.405l-1.762,2.128l-2.643,0.768l-3.386,0.342l-0.277,0.509l-0.088,0.555l0.101,0.55l0.264,0.578l3.726,7.015l1.057,1.09
		l1.322-1.09l1.064-2.301l1.416-2.024l2.291-0.222l1.611,1.114l1.397,1.899l0.881,2.43l0.113,2.725l-0.925,2.433l-1.466,1.671
		l-1.328,1.971l-0.913,6.653l-0.532,2.363l-0.097,0.431l-0.138,2.337l1.07,1.977l0.692,0.166l3.084-0.295l1.108,0.599l1.913,2.225
		l1.045,0.917l1.976,0.709l3.99,0.332l1.863,0.691l1.989,2.003l2.845,4.677l2.228,1.634l3.852,0.598l3.587-0.35l3.461,0.442
		l3.48,2.926l0.573,1.233l0.969,3.224l0.579,0.979l1.082,0.092l1.12-0.763l1.183-0.538l1.309,0.749l0.302,1.186l-0.025,3.815
		l0.164,1.636l0.472,1.296l1.341,2.563l0.541,1.355l0.182,3.274l-1.001,11.047l-0.503,2.072l-0.592,1.586l-0.428,1.682l-0.076,2.341
		l0.447,1.832l1.517,3.632l0.277,1.68l-1.41,3.813l-2.681,0.526l-2.102,0.22l0.378,3.948l1.724,2.127l5.375,2.277l0.227,0.443
		l0.604,1.696l0.428,0.375l0.793-0.256l1.485-0.974l0.692,0.027l0.963,0.763l0.799,1.088l1.498,3.08l-0.931,1.526l5.595,4.458
		l2.071,2.47l1.208-1.068l1.838-0.329l1.976,0.361l1.624,1.036l-2.971,5.463l-3.172,3.125l-5.343,0.93l-14.444-0.835l-1.964,0.438
		l-2.178,1.231l-4.494,4.012l-2.392,0.365l-2.429-2.699l-0.245-1.213l0.069-3.411l-0.201-1.606l-0.579-1.478l-2.53-4.016
		l-6.407-6.133l-1.561-2.718l-0.038,4.97l-1.334,2.603l-2.454,0.954l-3.449,0.041l-0.78,1.114l0.604,4.326l-0.906,2.878
		l-1.636,1.683l-2.001,0.748l-2.077-0.219l-1.901-1.163l-1.649-2.23l-1.68-3.869l-1.731-1.561l-1.699-0.639l-3.826-0.735
		l-1.85-0.767l-0.705-1.255l-0.214-1.333l0.239-1.37l0.68-1.407l0.655-1.233l0.239-1.215l-0.214-1.151l-0.68-1.092l-2.832-0.471
		l-0.108,0.061l-2.422,1.356l-2.266,2.513l-5.299,8.183l-1.536,0.046l-2.177-3.223l-2.857-6.111l-1.712-0.576l-2.14,3.6l-0.39,2.147
		l0.579,3.575l-0.076,1.593l-0.831,2.264l-0.617,0.274l-0.831-0.274l-1.485,0.543l-4.418,4.922l-2.706,1.651l-2.064-1.774
		l-0.038-1.843l0.843-1.692l1.089-1.643l0.774-1.698l0.239-2.081l-0.101-14.961l-0.799-3.8l-1.945-2.488l-0.144-0.001l-2.474-0.009
		l-10.693,6.091l-2.318,0.873l-4.334,1.632l-9.075,6.141l-2.48,3.891l-0.755,4.966l0.982,6.469l2.14,8.342l0.113,2.779l-0.717,3.17
		l-0.856,2.532l0.075,2.403l2.083,2.794l0.019,0.009l4.061,3.847l3.133,2.967l0.673,3.828l-1.448,4.162l-2.757,4.715l-4.191,4.749
		l-0.931,2.777l0.289,4.319l2.165,7.661l-0.252,3.444l-3.034,1.44l-21.234,5.606l-2.115,1.394l-1.347,2.552l-0.094,2.923l1.693,6.06
		l0.503,2.929l-0.17,3.516l-0.824,2.259l-1.548,1.536l-2.335,1.337l-3.543,0.795l-0.919,0.795l-0.044,1.002l0.308,1.58l0.164,1.814
		l-0.428,1.669l-3.185,1.886l-8.15,0.803l-1.957,3.265l0.355,1.345l0.501,1.901l-0.755,1.397l-3.524,1.136l-2.102,1.406
		l-1.347,1.451l-2.832,4.225l-0.843,2.008l1.082,1.251l1.901,1.125l1.561,1.611l0.68,2.448l0.227,2.429l0.529,2.402l1.68,2.338
		l-3.222,1.529l-0.711,0.656l-0.104,0.199l-0.67,1.284l-0.031,0.396l0.252,0.323l0.78,5.912l-0.541,2.057l-2.568,1.176l-7.804-0.314
		l-9.126-2.407l-8.698-0.674l-0.01,0.007l-6.473,4.887l-0.013,0.027l-1.057,2.047l-0.843,2.181L378.659,570l-3.235-3.922
		l-0.856-1.778l-0.063-5.856l-0.164-0.404l-0.302-0.368l-0.466-1.078l-2.045-3.703l-2.794-2.176l-6.803-3.633l1.536-1.961
		l2.001-1.934l2.014-1.467l1.599-0.576l4.003,0.036l1.737-0.864l-0.755-2.259l0.239-2.8l-1.07-17.494l-1.032-1.633l-2.14-4.169
		l-1.901-5.3l-0.34-5.059l0.541-0.949l1.611-1.166l0.353-0.868l-0.239-0.66l-1.082-2.224l-0.34-1.293l0.164-1.384l0.491-1.339
		l0.264-1.33l-0.503-1.384l-0.73-1.212l-0.302-1.05l-0.227-1.964l-2.971-8.784l-0.415-2.483l0.214-1.731l1.51-6.156l-0.038-0.943
		l-0.743-0.517l-0.038-0.943l0.327-0.88l0.969-0.635l0.856-2.477l0.327-0.946l2.052-5.944l0.717-4.333l1.397-4.09l-0.39-1.536
		l-0.717-1.209l-0.768-1.027l-2.234-3.684l-0.245-1.501l1.448-0.655l1.372-0.364l0.29-0.956l-0.415-3.004l0.504-1.22l1.183-0.637
		l1.385-0.428l1.152-0.61l1.466-1.448l1.649-3.653l0.189-0.611l-0.113-2.164l-0.491-3.578l0.296-1.286l1.466-0.501l0.579-0.748
		l0.705-5.391l0.806-0.821l0.883-0.389l0.225-0.099l0.566-0.999l-0.881-2.401l1.724-0.867l0.711-1.342l0.145-1.47l-0.013-5.481
		l-0.164-1.471l-0.422-0.178l-0.516,0.164l-0.485-0.439l-1.586-3.131l-0.252-1.408l0.252-6.631l0.447-1.336l1.139-0.778
		l-1.057-2.911l0.617-2.541l1.221-2.212l0.806-1.91l0.025-2.423l-0.276-1.884l-0.102-0.695l-1.234-4.799l-6.822-13.747l0.006-3.343
		l-4.915-8.465l-1.982-4.994l0.134-1.419l0.2-2.124v-1.325l-1.359-1.744l0.151-2.131l-0.094-2.026l-2.033-1.4l1.045-2.686
		l-0.055-0.447l-0.329-2.664l-2.385-6.495l-1.661-3.03l-3.766-4.818l-0.136-0.174l-1.095-2.95l-2.404,1.191l-2.643-1.237
		l-2.857-1.815l-2.971-0.582l-0.038-2.577l-1.523-1.377l-3.449-2.264l-3.726-4.155l-1.133-0.837l-1.158-0.375l-0.541-0.532
		l0.743-1.313v-1.216l-5.274-2.882l-1.448-2.008l1.366-0.43l0.22-0.759l-0.353-1.078l-0.327-1.407l-0.214-0.111l-1.466-4.895
		l-3.078-3.952l-1.296-2.262l0.151-2.244l-2.48-4.34l-1.271-1.382l-3.046-0.751l-0.969-0.608l-0.919-0.784l-1.29-0.826l-3.291-0.742
		l-0.944-0.483l-1.573-2.65l-2.933-7.063l-1.367-1.198l-0.282-0.247l-1.712-1.157l0.969-5.541l-2.165-1.897l0.365-2.111l0.466-1.852
		l0.661-1.386l1.001-0.796l-0.868-1.755l-1.548-1.429l-1.825-1.066l-1.661-0.67l-0.189,0.102l-3.134-0.102l-0.705-0.354
		l-0.478-0.447l-0.604-0.382l-1.083-0.158l-1.284-1.146l-0.78-2.627l-0.881-4.846l-0.315-0.121l-1.322-0.177l-0.478-0.317
		l-0.252-0.792l0.025-1.636l-0.157-0.653l-0.384-1.124l-0.546-2.292l-0.236-0.992l-0.124-0.523l-3.814-1.456l-3.399-3.472
		l-7.93-10.526l-2.794-4.786l-1.108-3.975l2.807-0.58v-1.132l-0.667-1.315l0.189-1.942l-0.367-1.498l-0.073-0.299l-0.617-0.609
		l-2.165-1.606l-0.466-0.819l-0.566-1.536l-1.378-2.726l-1.68-2.628l-1.448-1.214l4.166-2.596l-0.925-1.542l-1.328-0.656
		l-1.473-0.445l-1.271-0.956l0.101-1.125l-0.201-5.606l0.101-0.816l-2.215-2.642l-2.757-1.559l-1.322-1.653l2.14-2.945v-0.758v-0.37
		l-0.768-0.418l-2.555-2.067l1.448-1.311l0.843-1.598l-0.126-1.688l-1.41-1.617l-1.636,0.931l-1.114-2.478l-1.599-2.319
		l-3.128,1.383l-0.296-0.517l-0.233-0.621l-0.176-0.687l-0.126-0.762l2.48-1.143v-1.35l-3.185-1.85l-2.92-2.622l-2.127-3.504
		l-0.906-4.466l0.315-1.018l1.284-1.668l0.065-0.896l0.011-0.15l-0.642-0.924l-1.108-0.929l-1.045-0.486l-1.51,1.264l-2.278-0.783
		l-3.336-1.999v-1.137l2.392-0.151l1.385-1.373v-1.576l-4.204-1.609l-0.906-1.94l-0.617-2.105l-1.517-1.331l-1.101,1.053
		l-1.385,2.025l-1.183,0.628l-0.491-3.092l-0.768-1.374l-5.136-5.276l-1.309,0.827l-2.782-3.515l-2.071-1.049l-5.016,1.011
		l-2.398-0.52l-1.328-2.775l-1.309,2.009l-1.328-0.284l-2.794-2.472l-2.775,0.114L186.038,71.63z"/>
</g>
<g id="Copyright">
	<text transform="matrix(1 0 0 1 681.6426 577.5916)" class="st1 st2">© Vemaps.com</text>
</g>
</svg>
