<?xml version="1.0" encoding="utf-8"?>
<!-- Generator: Adobe Illustrator 23.0.1, SVG Export Plug-In . SVG Version: 6.00 Build 0)  -->
<svg version="1.1" xmlns="http://www.w3.org/2000/svg" xmlns:xlink="http://www.w3.org/1999/xlink" x="0px" y="0px"
	 viewBox="0 0 800 600" style="enable-background:new 0 0 800 600;" xml:space="preserve">
<style type="text/css">
	.st0{fill:#808080;}
	.st1{font-family:'Roboto-Regular';}
	.st2{font-size:14px;}
</style>
<g id="Macedonia">
	<path class="st0" d="M92.163,207.918l6.145,6.576l3.21,1.731l4.335-0.23l1.975-1.667l2.881-5.406l1.701-1.17l2.496,1.557
		l5.048,7.118l2.551,1.887l5.706-1.989l3.038-3.411l2.367-2.657l4.417-7.636l2.798-6.689l0.148-1.22l0.895-7.38l-0.792-3.366
		l-2.555-10.863l0.329-8.11l3.265-17.614l2.661-7.703l5.185-6.329l6.804-3.9l24.852-8.491l18.839-6.439l7.637-2.611l6.721-3.386
		l3.106-3.066l8.883-8.769l6.392-4.119l2.058,0.055l1.783,0.5l3.566,1.963l10.096,7.839l9.41,9.27l4.335,7.158l2.442,5.141
		l1.034,1.06l2.258,2.314l2.103,0.425l11.449,2.311l2.771-0.61l0.397-2.509l0.124-0.781l-0.247-7.257l-0.411-3.052l-0.796-1.924
		l-0.549-1.924l0.329-3.154l15.61-24l1.815-1.483l1.642-1.342l4.636-0.389l9.245,3.556l2.853-0.296l-0.302-2.408l-1.92-3.149
		l-0.411-3.122l4.362-2.446l3.073,0.982l2.469,2.548l2.743,0.686l1.172-1.437l2.531-3.103l4.719,3.27l5.459-0.13l11.138-2.918
		l0.597,0.314l2.914,1.53l13.168-0.269l9.3,2.585l4.564,0.222l4.022-2.538l3.841-4.679l3.454-2.111l25.928-15.854l5.35-1.224
		l10.617,0.121l1.865-0.464l8.998-7.838l2.853-1.355l3.32,0.724l14.183,7.356l8.669,3.107l4.72,0.55l4.114,0.479l9.19-1.697
		l36.597-15.465l6.996-7.258L543.864,30l1.18,1.745l0.192,6.107l0.768,2.598l3.896,4.611l4.252,3.256l4.691,1.799l5.24,0.315
		l26.172,35.513l10.041,7.564l3.512,10.301l3.254,5.597l0.861,1.48l5.542,5.614l23.017,16.603l2.497,1.279l12.921,6.62l7.928,1.672
		l1.207,1.053l0.988,1.561l1.18,1.487l1.756,0.711l12.098-0.545l2.716,0.296l1.18,1.441l0.631,2.345l0.905,2.419l2.085,1.634
		l1.865-0.055l4.06-1.422l1.509,0.102l2.99,2.003l1.454,1.791l0.51,2.521l0.039,0.193l0.219,4.725l0.082,0.055l2.085,3.876
		l0.631,3.838l0.466,8.568l1.975,8.206l2.853,8.147l0.411,2.506l-0.11,5.26l0.686,2.699l0.341,0.382l0.784,0.88l3.1,1.676
		l1.234,1.437l1.674,4.217l2.826,12.196l5.679,13.404l1.646,2.621l2.908,1.306l6.282,0.331l2.826,1.333l4.691,7.492l0.192,8.381
		l-2.908,8.268l-3.502,5.658l-2.342,3.783l-1.728,5.159l-0.823,1.771l-1.454,0.909l-4.17,1.211l-1.317,1.221l-1.262,4.074
		l-0.823,4.908l-0.247,5.109l0.439,4.741l0.85,2.017l2.524,3.961l0.604,2.402l-0.219,2.072l-1.289,5.883l0.153,5.443l0.698,24.793
		l0.357,1.72l1.536,3.605l0.329,2.049l-0.658,1.665l-3.073,3.823l-0.85,2.177l0.549,7.552l1.344,7.422l-0.96,6.579l-6.337,4.97
		l-24.142-1.845l-7.753,1.397l-4.208,0.758l-4.956,4.381l-2.917,2.578l-2.469,9.955l-0.302,1.219l-1.097,27.948l-2.524,13.615
		l-3.045,7.123l-2.881,2.095l-3.457-1.73l-4.719-4.245l-2.058-2.788l-1.18-2.733l-1.252-1.664l-0.284-0.377l-3.073-0.765
		l-4.033,1.112l-0.905,2.569l0.219,3.17l-0.604,2.879l-4.554,5.865l-4.554,3.824l-0.94,0.372l-4.08,1.613l-5.843,0.346l-8.669-1.311
		l-4.225,0.036l-5.103,1.548l-3.704,0.965l-4.252,0.473l-7.874-0.346l-3.018-1.147l-5.624-3.678l-2.414-1.184l-3.319-0.237
		l-6.721,1.202l-5.02,0.164l-2.222,1.439l-1.673-0.2l-0.549-1.22l-0.384-4.644l-0.686-1.366l-2.442-0.71l-8.093-1.038l-10.041-3.225
		l-3.052-0.379l-2.078-0.258l-6.008,0.528l-6.063,2.824l-9.547,8.706l-5.569,2.003l-1.975-0.747l-8.806-4.771l-0.658-1.002
		l-0.439-1.785l-0.823-1.694l-1.948-0.692l-1.097,0.674l-2.716,3.06l-1.262,0.947l-16.982,5.008l-8.066,4.388l-2.433,1.817
		l-4.37,3.262l-2.085,2.366l-1.07,3.349l-0.229,5.831l-0.045,1.156l-0.494,2.674l-3.621,5.42l-9.465,9.164l-3.594,6.561
		l-0.027,0.018l-0.027,0.055l-9.986,7.014l-2.634,3.306l-0.494,2.906l-0.027,3.796l-0.96,3.995l-3.347,3.45l-2.238,0.494
		l-5.333,1.176l-13.772-3.104l-7.49,3.431l-0.549,1.38l-0.576,4.537l-1.015,1.96l-1.317,0.472l-3.813-0.218l-1.536,0.236
		l-2.661,2.141l-6.2,6.187l-2.332,1.542l-7.407-1.451l-11.714-10.56l-1.005-0.141l-20.256-2.836l-6.502,0.127l-6.282,2.849
		l-9.657,9.634l-4.143,2.376l-8.998,1.904l-9.136,0.018l-4.016-0.846l-9.755-2.056l-6.913-0.381l-18.82,5.695L197.839,570
		l-0.11-9.323l-2.167-6.604l-4.444-4.319l-13.196-3.939l-14.019-2.033l-0.231,0.057l-5.201,1.286l-8.834,7.442l-4.664,1.869
		l-6.694-1.488l-2.737-2.332l-3.546-3.022l-3.841-8.115l-5.13-20.218l-5.13-22.983l-2.716-5.676l-2.881-2.22l-2.357-0.352
		l-0.688-0.103l-3.347,0.164l-3.621-0.382l-2.088-0.981l-5.429-2.55l-1.866-4.787l0.165-6.245l-1.344-7.959l-4.197-8.181
		l-9.821-13.944l-3.347-8.954l-4.499-19.051l-1.427-10.646l0.096-0.702l0.947-6.933l3.813,1.206l3.813-2.339l3.457-4.385
		l2.524-4.825l1.866-5.905l0.055-4.791l-0.298-0.802l-1.32-3.551l-3.155-4.5l-2.003-1.336l-4.417-0.714l-1.893-1.61l-0.521-1.921
		l-0.549-5.783l-0.878-2.727l-0.514-0.988l-2.86-5.493l-2.03-2.124l-2.963-1.355l-1.866-5.275l0.768-9.564l-0.988-5.04l12.949-2.841
		l3.841-1.632l3.566-2.163l2.25-2.31l1.427-3.686l-0.007-0.73l-0.021-2.378l-5.624-16.467l-1.344-7.582l-2.112-25.72l0.768-3.75
		l2.14-4.734l2.606-3.457l6.173-6.088l1.728-3.118l-0.208-2.328l-0.45-5.033l-2.112-8.992l0.081-1.934l0.248-5.957L92.163,207.918z"
		/>
</g>
<g id="Copyright">
	<text transform="matrix(1 0 0 1 681.6426 577.5916)" class="st1 st2">© Vemaps.com</text>
</g>
</svg>
