<?xml version="1.0" encoding="utf-8"?>
<!-- Generator: Adobe Illustrator 23.0.1, SVG Export Plug-In . SVG Version: 6.00 Build 0)  -->
<svg version="1.1" xmlns="http://www.w3.org/2000/svg" xmlns:xlink="http://www.w3.org/1999/xlink" x="0px" y="0px"
	 viewBox="0 0 800 600" style="enable-background:new 0 0 800 600;" xml:space="preserve">
<style type="text/css">
	.st0{fill:#808080;}
	.st1{font-family:'Roboto-Regular';}
	.st2{font-size:14px;}
</style>
<g id="Malta">
	<path class="st0" d="M675.112,395.384l24.12,39.372l6.354,48.001l-8.559,31.033l-21.916-12.156l-24.768,27.59l-7.91,16.552V570
		l-25.547-10.313l-7.003-4.317l-54.854-5.437l-76.769-24.068l-68.47-37.909l-29.437-46.639l-5.057-5.921l-22.564-12.243
		l-4.928-9.363V352.8l-7.003-69.424l-9.078-31.239l-16.728-20.269l20.23-18.188l20.359-12.5l22.305-7.292l25.158-2.404v14.585
		l-14.524,2.724l-9.337,4.808l-20.619,18.268l126.047,14.581l26.454,10.574l53.557,46.054l46.425,16.576l8.04,15.213l1.815,19.615
		l-0.13,19.692l8.559,1.681L675.112,395.384z M210.735,30l41.367,15.242l51.352,33.045l30.993,32.958l-19.452,14.191l-28.01,1.122
		l-42.794,19.561l-28.01,6.253l-29.567-2.244l-32.809-8.978L122.424,127.6l-25.936-16.837l4.928-21.249l-5.836-21.493l-1.167-16.683
		l18.933-6.577L210.735,30z"/>
</g>
<g id="Copyright">
	<text transform="matrix(1 0 0 1 681.6426 577.5916)" class="st1 st2">© Vemaps.com</text>
</g>
</svg>
