<?xml version="1.0" encoding="utf-8"?>
<!-- Generator: Adobe Illustrator 23.0.1, SVG Export Plug-In . SVG Version: 6.00 Build 0)  -->
<svg version="1.1" xmlns="http://www.w3.org/2000/svg" xmlns:xlink="http://www.w3.org/1999/xlink" x="0px" y="0px"
	 viewBox="0 0 800 600" style="enable-background:new 0 0 800 600;" xml:space="preserve">
<style type="text/css">
	.st0{fill:#808080;}
	.st1{font-family:'Roboto-Regular';}
	.st2{font-size:14px;}
</style>
<g id="Netherlands">
	<path class="st0" d="M626.316,91.876l0.34,5.589l0.121,3.157l-0.365,3.064l-0.805,3.383l-1.669,4.326l-0.291,1.583l0.084,2.349
		l0.452,1.249l0.572,1.025l0.439,1.715l1.095,14.041l-0.182,7.02l-1.084,6.241l-2.558,6.549l-9.668,15.276L611.889,171l-1.199,3.375
		l-1.023,6.518l-1.096,21.009l-0.865,6.848l-2.143,4.154l-4.202-1.32l-1.778-0.753l-5.809,0.868l-6.247-1.896l-11.18,0.181
		l-3.946,1.229l-2.115,1.54l-2.038,1.485l0.986,2.03l-0.231,1.74l-0.536,1.609l0.036,1.613l0.828,1.249l3.861,3.281l-6.541,3.32
		l-1.948,0.175l1.448,3.038l0.414,3.458l0.171,3.41l0.719,2.885l2.325,2.719l3.106,1.524l9.327,1.323l6.09,2.338l3.325,0.544
		l3.093-0.205l2.948-0.869l1.096-1.039l0.731-1.298l0.743-0.35l7.173,11.707l1.657,4.963l-0.999,7.032l-2.363,5.509l-0.852,2.907
		l-0.073,3.528l1.048,4.113l0.691,1.278l0.295,0.548l-0.329,0.989l-5.236,3.202l-1.267,1.486l-2.764,4.509l-2.351,2.095
		l-5.053,2.224l-2.29,2.407l-2.606,5.336l-1.485,1.364l-6.965,0.786l-0.672,0.076l-1.888,1.061l-1.997,2.087l-0.621,1.091
		l-0.962,2.442l-0.95,1.204l-1.413,0.713l-1.242,0.089l-1.059,0.505l-0.816,1.996l0.243,2.92l1.875,1.332l2.582,0.767l7.697,4.323
		l3.044,3.234l0.609,0.925l0.293,1.29l-0.109,2.337l-0.597,0.584l-0.901,0.158l-0.962,1.062l-2.692,4.899l-2.74,3.282l-3.19,1.731
		l-10.431,0.336l-11.729,4.025l-5.796,4.467l-1.948,0.887h-2.399l-7.551-2.243l0.963,4.303l-0.487,1.901l-4.422,1.237l-0.353-2.97
		l-1.911-1.119l-4.519-0.69l-0.536-0.656l-1.303-2.346l-0.841-0.819l-0.974-0.118l-3.679,0.813l-3.982-1.641l-3.788-3.084
		l-3.799-1.8l-4.007,2.181l1.462,1.115l4.396,4.635l1.583,2.503l-1.9-0.473l-2.776-0.714l-3.824-1.025l-4.798,1.296l-1.693,0.907
		l-2.436,1.818l-2.277,0.975l-4.81,0.857l-1.961,1.394l-0.403,1.699l2.681,2.063l1.57,3.687l-0.207,3.847l-1.919,1.916l-0.699,0.696
		l-0.097,2.044l1.169,0.477l3.422-0.078l1.352,0.649l2.629,2l1.169,1.209l-1.582,5.383l2.703,3.457l7.977,3.518l-1.376,4.248
		l-0.633,2.712l0.512,2.329l7.844,10.825l4.749,5.51l0.84,6.2l0.572,3.432l-0.426,3.742l-0.901,4.019l-0.159,3.48l1.779,2.132
		l-0.681,1.658l-0.367,4.136l-0.633,2.349l-1.169,1.663l-2.996,2.095l-1.229,1.212l-6.041,11.182l-2.484,3.04l-1.207,2.077
		l-1.01,3.748l-0.34,4.197l0.839,3.473l2.765,1.545l5.87-4.046l2.704,0.933l-0.938,0.548l-2.691,2.21l2.472,2.315l-1.753,2.335
		l-6.71,3.653l-10.901,8.572l-1.583,1.831l-2.265,4.77l-1.45,1.598l-2.167,0.232l-1.571-1.442l-1.4-1.825l-1.632-0.92l-3.3,1.744
		l0.669,4.385l1.815,5.386l0.121,4.72l1.608-0.329l3.056-1.518l1.595-0.455l1.632,0.223l3.093,1.025l4.226-0.512l0.243,0.977
		l-0.717,1.576l-0.451,1.556l0.17,2.697l0.304,1.487l0.901,0.996l2.778,1.748l3.848,1.343l-0.232,0.753l-0.621,1.014l-0.219,1.235
		l0.998,3.842l-0.036,1.486l-0.719,1.919l-1.315,1.581l-2.655-0.231l-1.62,0.926l-1.035,1.871l0.109,1.61l0.256,1.715l-0.622,2.217
		l-1.693,1.589l-1.789-0.453l0.498,2.389l0.902,1.56l1.168,0.818l0.767,1.137l-0.256,2.425L482.578,570l-8.548-0.279l-1.286-0.409
		l-1.345-0.427l-10.218,0.26l-1.205-0.848l-2.412-2.667l-1.181-0.452l-1.047,0.808l-1.271,1.91l-0.58,0.873l-1.231,0.25l-1.279-0.26
		l-2.143-1.232l1.218-4.276l0.206-2.196l-1.839-0.549l-2.545-1.223l-0.686-0.48l-1.97-1.38l-1.912-2.843l-0.255-4.176l8.501-9.525
		l1.364-0.55l1.363-0.492l0.561-0.454l1.522-2.299l2.034-4.348l1.352-2.282l-1.145-0.686l-1.133-0.029l-2.63,0.715l4.639-7.438
		l1.864-4.568l-1.595-2.178l0.28-2.484l0.597-1.817l0.962-0.596l1.376,1.182l0.889-1.216l0.645-1.332l0.878-2.573l-0.329-0.756
		l-0.183-0.572l-0.293-1.357l1.291,0.14l1.266-0.194l1.193-0.484l1.085-0.732l-2.68-2.881l0.378-2.144l1.657-1.645l-0.293-0.902
		l-1.048-2.394l-2.009-0.16l-3.617,0.922l-1.571-1.324l-2.46-3.409l-1.924-1.156l-1.51-0.16l-4.932,1.02l-2.022,0.019l-1.279-0.919
		l-1.133-1.306l-1.595-1.127l-6.674-2.022l-1.999-1.715L432,481.583l-0.378-4.279l-0.839-3.648l-2.18-2.861l-2.765-1.752
		l-2.546-0.293l-2.326,1.125l-4.944,3.499l-2.46,0.91l-13.944-0.589l-3.684,0.922l-0.761,0.191l-2.071-0.53l-0.06-6.708
		l-2.071-2.639l-2.179-0.219l-4.555,0.4l-2.034-1.129l-0.572-1.233l-1.207-4.161l-0.62-1.637l-4.057-4.506l-0.755-1.834l0.414-4.089
		l1.316-3.022l0.413-3.145l-2.313-4.431l-3.532-2.356l-0.33-0.449l-1.814,0.47l-0.706,1.139l-0.402,1.759l-0.816,2.325l-1.839,3.057
		l-2.715,3.692l-2.972,2.904l-2.546,0.702l-4.555-2.104l-2.167-0.585l-8.246-0.283l-2.496-1.084l0.669-2.27l1.327-0.196l5.141,2.407
		l-0.853-3.286l0.524-2.862l0.729-2.712l-0.255-2.854l-1.217-1.604l-1.974-1.305l-2.143-0.822l-1.705-0.166l-3.885,2.01
		l-9.109,11.234l-1.218,0.908l-1.582,0.606l-1.828,0.122l-3.763-0.952l-3.397,0.625l-1.559-0.146l-2.252-1.621l0.219-1.847
		l0.999-2.354l0.157-3.162l-0.938-1.578l-1.486-0.273l-3.482,0.577l-6.322,2.336l-6.162,3.611l1.426,1.568l-0.243,1.347
		l-0.768,1.475l-0.086,1.913l0.914,1.699l2.643,3.162l0.719,1.853l-0.585,3.252l-2.241,1.194l-5.492-0.355l-2.278-0.78l-4.262-2.326
		l-1.058-0.036l-2.363-0.082l-0.468-0.59l-0.949-2.212l-0.317-2.306l0.057-1.945l-0.23-1.468l-1.199-0.854l-1.382,1.799
		l-2.588,0.784l-10.596-0.307l-2.446-0.815l-2.378-1.461l-6.483-5.653l-1.928-0.792l-4.919-0.507l-1.64,1.022l-3.5,6.638
		l-1.333,1.952l-1.812,0.968l-4.24,0.461l-1.515,0.969l-1.266,0.223l-1.266-0.577l-3.223-3.412l-7.106-3.522l-4.603-4.438
		l-1.85-0.208l-4.881,1.831l-2.656,0.123l-6.674-1.523l-2.12-1.154l-1.792-2.679l-1.573-3.017l-1.42-2.195l-3.874-3.421
		l-1.285-2.034l-0.47-3.076l1.238-1.727l12.12-7.499l31.636-3.435l2.618,0.371l1.765,1.019l1.899,1.768l1.687,2.331l1.094,2.762
		l-1.237,0.501l-2.005,1.365l-0.786,0.725v1.172l11.278,1.187l5.725,2.329l4.861,4.253l1.554,2.958l2.32,6.527l1.745,2.37
		l2.82,0.824l6.137-0.854l2.311,1.199l2.33-0.761l3.836,0.193l1.304-0.354l2.283-0.624l1.592-4.317l-0.96-4.089l-2.454-3.057
		l-3.299-1.934l-1.094-0.2l-4.219-0.763l-4.872-2.173l-1.812-0.154l-3.73,0.447l-1.765-0.293l-2.838-1.697l-9.321-8.769l6.252-2.987
		l3.127-0.88l10.547,0.525l3.079,0.942l2.771,2.354l0.048,0.047l-0.547-3.575l-1.496-1.435l-0.45-0.024l-4.651-0.2l-1.256-0.486
		l-1.18-0.812l-0.939-1.135l-0.595-1.653l-0.365-2.178l-0.029-2.172l0.355-1.616l1.534-1.677l2.033-0.859l4.008-0.325l-1.247-1.299
		l-2.973-2.135l-8.199-2.523l-1.698-2.492l-0.748-6.32l-1.984-3.952l-2.849-2.604l-3.336-2.302l-2.225,1.675l-2.993,0.93
		l-3.039-0.007l-2.302,0.651l-0.431,0.775l-0.835,0.154l-1.122-0.038l-1.093-5.296l3.423-2.327l7.394-2.265l1.007-1.374l2.301-0.179
		l3.942,0.901l3.278,1.784l0.49,0.101l0.872-0.101l1.229-0.55l1.437-1.234l-0.891-1.746l-3.001-4.154l-0.796-0.653l-0.681-0.784
		l-0.269-1.188l0.259-1.492l0.547-1.05l0.547-0.754l0.259-0.606l-0.383-2.938l-2.244-7.506l-1.313-3.215l0.662-1.447l0.805-1.278
		l5.485,1.231l4.555-0.755l4.027-2.625l16.829-20.572l14.403-21.231l11.93-21.748l7.125-21.024l1.026-5.476v-1.426l2.311-4.961
		l4.997-37.659l2.09-9.635l0.326-2.939l1.131-6.095l4.978-12.975l1.14-6.412l0.126-3.625l0.47-4.653l0.883-4.026l1.362-1.704
		l7.25,1.131l1.168-1.131l0.883,1.457l-1.764,5.976l2.751,3.57l4.833,1.439l4.632-0.318l2.676-1.526l5.005-4.359l2.445-0.907
		l4.698-0.621l4.623-2.053l23.724-21.331l1.736-2.059l2.186-1.843l5.437-1.278l2.397-1.574l2.416-4.848l3.223-13.417l2.397-6.012
		l4.143-4.855l2.55-2.26l4.335-1.883l1.985-2.253l1.842-2.688l2.128-2.197l2.388-0.851l5.639-0.955l4.113-3.571l18.872-7.647
		l4.248-3.055l2.704-0.224l7.901-4.085l11.373-0.564l12.812-0.409l10.356-0.33l1.227,0.418l2.072,1.866l1.132,0.418l1.006-0.337
		l3.002-2.365l17.539-5.15L571.6,49.31l11.651,1.989l2.435,1.127l2.014,2.1l3.971,16.298l0.613,0.258l2.859,2.055l0.22,0.49
		l0.566,0.433l0.583,0.924l0.815,0.915l3.721,1.244l4.7,2.689l2.09-0.69l0.997,1.139l1.419,0.378l1.391-0.394l1.006-1.123h0.805
		v1.349l-0.94,0.818l-0.47,0.594l0.029,0.851l0.575,1.652l0.249,3.182l3.578,2.06l8.515,2.212L626.316,91.876z M173.223,452.316
		l19.03-6.179l1.746-1.445l1.841-0.215l7.46,4.85l11.488,3.296l3.778,3.363l2.512,1.075h4.757l4.488,1.29l2.848-0.414l11.507-4.968
		l1.582-1.866l0.633-3.765l1.122-1.676l2.541,0.123l2.753,1.061l1.696,1.076l0.778,1.184l1.323,2.942l1.045,1.152l1.314,0.454
		l2.848,0.383l1.18,0.968l0.758,0.307l4.076,0.338l2.022-3.049l0.748-0.7l2.302,0.261l2.584,1.518l-0.062,0.79l-0.878,4.392
		l-0.658,1.876l-4.64,6.356l-5.845,4.61l-14.603,7.374l-5.37,4.225l-2.643,0.85l-13.945,0.176l-1.462-0.647l-1.753-2.09
		l-0.195-1.964l0.195-2.092l-0.609-2.466l-2.229-1.469l-14.406-4.804l-3.008-0.491l-2.912,0.171l-4.689,1.056l-1.888,0.112
		l-1.729,0.433l-1.291,1.333l-0.219,2.176l0.305,2.384l-0.341,1.78l-5.579,0.875l-3.763-0.443l-2.727-1.263l-0.841-0.39
		l-2.862-3.147l-1.668-4.731l0.086-4.392l0.487-4.677L173.223,452.316z M254.2,393.477l4.92,1.376l2.235,1.593l0.24,3.061
		l-1.218,1.917l-1.936,1.352l-2.092,0.81l-9.052,1.777l-2.091-0.108l-4.382-1.638l-2.541-1.807l-1.132-2.566l-0.748-2.443
		l-1.86-1.469l-4.623-1.855l-0.786-0.766l-0.738-1.021l-0.988-0.812l-1.573-0.117l-2.907,3.481l-0.689,0.649l-5.284,0.302
		l-2.416-0.719l-1.573-2.297l0.326-6.152l4.285-2.795l9.926-1.44l0.489-0.178l1.927,0.178l1.553,0.851l11.297,0.318l2.608,0.58
		l1.918,1.487l4.402,5.433l0.575,0.997l0.747,1.021L254.2,393.477z M355.062,118.22v1.222h2.416l-0.825,2.571l-1.534,3.057
		l-3.28,5.082l-5.552,4.594l-2.646,5.18l-3.97,1.172l-4.143-1.713l-2.253-4.973l0.728-5.128l2.33-5.801l2.925-4.758l5.562-4.818
		l2.782-5.893l2.954-4.863l3.701,0.2l0.479,1.152l0.268,1.008l-0.085,0.936l-0.662,0.937l1.669,2.726l1.207,3.486l-0.029,3.092
		L355.062,118.22z M353.451,96.626l4.986-6.466l7.692-7.144l8.007-4.693l5.935,0.819v1.349h-3.145l-1.476,0.85l-3.433,1.316
		l-9.302,9.115l-2.569,3.853l-3.012,2.659L353.451,96.626z M417.632,55.299l1.582-1.208l17.472-3.388l-2.743,3.816l-3.338,1.175
		l-6.866,0.281l0.23,0.677l0.278,1.449l0.23,0.7l-1.543,0.82l-4.901,0.411l-5.244,2.324l-4.19,1.078l-16.331,7.216l-3.357-0.079
		l-1.437-2.99l1.324-3.399l6.309-2.228l2.09-1.922l2.685,0.072l15.823-3.258L417.632,55.299z M447.138,47.867l28.261-1.175
		l4.804,2.529l-11.662,2.706h-12.12l-3.031,0.806l-5.668,2.615l-2.992-0.716l-2.061-2.954l0.692-2.907l1.994-1.683L447.138,47.867z
		 M510.505,39.761l11.671-1.049l3.289,1.049v1.353h-1.611l-20.253,6.575l-2.34,3.013l-0.691-1.249l-0.037-0.629l0.728-0.958
		l-1.238-2.714l2.963-2.619l4.412-1.983L510.505,39.761z M537.538,30.29l1.64-0.29l6.483,2.873l-0.528-0.033l-0.432,0.242
		l-0.364,0.508l-0.288,0.75l-4.21-1.42l-2.081-1.315L537.538,30.29z"/>
</g>
<g id="Copyright">
	<text transform="matrix(1 0 0 1 681.6426 577.5911)" class="st1 st2">© Vemaps.com</text>
</g>
</svg>
