<?xml version="1.0" encoding="utf-8"?>
<!-- Generator: Adobe Illustrator 23.0.1, SVG Export Plug-In . SVG Version: 6.00 Build 0)  -->
<svg version="1.1" xmlns="http://www.w3.org/2000/svg" xmlns:xlink="http://www.w3.org/1999/xlink" x="0px" y="0px"
	 viewBox="0 0 800 600" style="enable-background:new 0 0 800 600;" xml:space="preserve">
<style type="text/css">
	.st0{fill:#808080;}
	.st1{font-family:'Roboto-Regular';}
	.st2{font-size:14px;}
</style>
<g id="New_Zealand">
	<path class="st0" d="M229.666,568.199l1.626,0.427l0.503,0.369l-0.336,0.182l-0.667,0.147l-0.643,0.345l-0.329,0.049l-0.327-0.073
		L229.327,570l-3.269-0.288l-0.172-0.161l-0.104-0.242l-0.211-0.314l-0.55-0.507l-0.241-0.313l-0.184-0.47l0.436,0.065l0.38,0.23
		l0.651,0.587l0.337,0.007l1.835-0.467l0.304-0.338l0.149-0.083l0.268,0.04L229.666,568.199z M232.202,558.278l-0.409,0.4
		l-0.29-0.103l-0.291-0.149l-0.407,0.238l0.252,0.278l0.168,0.366l0.231,0.918l-0.158-0.079l-0.34-0.092l-0.153-0.086l0.104,0.557
		l0.072,0.214l-0.186,0.162l-0.477,0.609l0.359-0.134l0.391,0.003l0.387,0.131l0.34,0.254l-0.571,0.273l-1.261-0.147l-0.636,0.131
		v0.257l0.468-0.003l0.831,0.477l0.504,0.04l-0.219,0.661l-0.27,0.625l0.369,0.027l0.62-0.086l0.315,0.059l-0.106,0.328
		l-0.032,0.324l0.034,0.332l0.104,0.321l-0.203-0.022l-0.412,0.044l-0.2-0.022v0.257l0.325,0.037l0.427,0.206l0.379,0.283
		l0.185,0.248l-0.061,0.644l-0.263,0.636l-0.375,0.344l-0.369-0.206l-0.57-0.494l-0.747-0.264l-0.681-0.38l-0.383-0.817
		l-0.252,0.389l-0.278,0.268l-0.606,0.395l0.151-0.497l0.235-0.57l0.146-0.589l-0.117-0.543l-0.262-0.392l-0.316-0.316l-0.337-0.059
		l-0.312,0.393l0.215,0.199l0.268,0.35l0.132,0.334l-0.202,0.143l-0.329-0.107l-0.55-0.399l-0.347-0.007l0.262,0.347l0.245,0.221
		l0.193,0.257l0.115,0.461l-0.006,0.571l-0.129,0.402l-0.248,0.239l-0.351,0.077l-0.42-0.033l-0.318-0.129l-0.273-0.271
		l-0.297-0.469l-0.198,0.033l-0.308,0.344l-0.558,0.783l-0.245-2.136l0.924-1.53l3.188-2.275l0.47-0.675l0.302-0.887l0.104-1.153
		l0.175-0.852l0.287-0.904l0.057-0.827l-0.519-0.619l0.415-0.128l0.315-0.177l0.319-0.064l0.419,0.229l0.325,0.024l1.15-0.253
		l0.315-0.144l-0.045,0.245l-0.053,0.518l-0.051,0.241l0.386,0.018l1.078-0.254l-0.085,0.214l0.096,0.44l0.175,0.427l0.153,0.201
		h-0.988l-0.231,0.092l-0.072,0.232l-0.018,0.287L232.202,558.278z M532.253,522.182l0.116,0.624l-0.116,0.61l-0.18,0.618
		l-0.097,0.626l-0.027,0.614l-0.1,0.246l-0.193,0.036l-0.972-0.032l-0.749-0.199l-0.541-0.53l-0.032-1.015l0.248-0.434l1.018-1.234
		l0.389-0.345l0.322-0.108l0.347,0.018l0.326,0.164L532.253,522.182z M575.553,334.215l0.152,0.152l0.596,0.411l-0.834,0.577
		l-0.237,0.422l-0.084,0.716l-0.87,0.616l-0.48,0.206l0.032-0.467l-0.085-0.108l-0.15-0.26l-0.087-0.108l0.087-0.106l-0.087-0.1
		l0.131-0.271l0.315-0.864l0.043-0.253l-0.255-0.422l-0.268-0.179l-0.083-0.168l0.294-0.367l0.35-0.203l0.473-0.11l0.469-0.011
		l0.334,0.103l0.125,0.164l0.032,0.211l0.014,0.213L575.553,334.215z M569.912,322.626l-0.074,0.266L569.676,323l-0.162-0.076
		l-0.075-0.299l0.007-0.79l-0.049-0.347l-0.135-0.331l0.365-0.299l0.474-0.607l0.384-0.722l0.093-0.626l-0.432-0.66l-0.706-0.245
		l-1.301-0.016l-1.346-0.257l-0.532,0.18l0.059,0.773l0.445,0.408l2.173,0.476l-1.748,1.496l-0.122,0.439l0.814,1.129l0.182,0.433
		l0.011,0.426l-0.02,0.419l0.084,0.415l0.556,0.436l0.905-0.807l0.15,0.729l0.04,0.515l0.115,0.318l0.422,0.525l0.311,0.25
		l0.647,0.17l0.269,0.164l0.314,0.772l-0.693,0.262l-1.008,0.056l-0.646,0.146l-0.244,0.183l-0.637,0.265l-0.585,0.545l-1.069,0.489
		l-0.163,0.68l-0.176,0.046h-1.485l-0.44-0.102l-0.191-0.284l-0.062-0.71l-0.171-0.621l-0.564-1.273l-0.188-0.168l-0.245-0.134
		l-0.114-0.154l0.206-0.242l0.533-0.278l1.407-1.129l0.263-0.291l0.122-0.368l0.549-0.377l0.457-0.523l-0.152-0.783l-1.044-2.009
		l-0.524-0.586l-0.552-0.47l-0.296-0.148l-0.348-0.059l-0.35,0.086l-0.25,0.161l-0.215,0.086l-0.249-0.126l-0.177,0.245l0.124,0.451
		l-0.211,0.07l-0.371-0.022l-0.356,0.175l-0.704-0.335l-1.708,0.532l-0.691-0.645l0.349-0.623l0.462-0.218l0.504-0.137l0.487-0.375
		l-0.005-0.231l-0.14-0.274l-0.026-0.247l0.334-0.169l0.059,0.116l0.59,0.456l0.253,0.104l2.138-0.241l0.479-0.323l0.262-0.627
		l0.1-0.546l0.18-0.374l0.509-0.14l0.203,0.064l0.516,0.295l0.257,0.088l0.995-0.046l0.32,0.046l1.606,0.808l0.597,0.113
		l5.309-0.446v0.202l-0.376,0.008l-0.277,0.217l-0.155,0.386l-0.007,0.516l-0.98-0.572l-0.969,0.508l-0.845,1.056l-1.173,2.016
		l-0.207,0.542L569.912,322.626z M241.582,463.011l-0.121,0.234l-0.203,0.739l0.139,0.319l0.117,0.359l0.075,0.388l-0.006,0.412
		l-0.224-0.131l-0.13-0.206l-0.222-0.525l-0.196-0.104l-0.869,0.235v-0.267l1.202-1.298L241.582,463.011z M260.2,436.119
		l0.286-0.494l0.562-0.387l0.549-0.063l0.23,0.465l-0.311,0.294l-0.583,0.425l-0.54,0.18L260.2,436.119z M267.121,420.452
		l-0.273,0.265l-0.361,0.116l-0.313-0.122l-0.157-0.456l0.098-0.461l0.28-0.232l0.349-0.046l0.318,0.085l0.311,0.261
		L267.121,420.452z M288.102,418.652l0.374,0.772l-0.29,0.721l-0.498,0.572l-0.223,0.328l0.11-0.365l-0.158-0.308l-0.261-0.334
		l-0.193-0.437l0.367-0.039l0.346-0.153l0.277-0.294L288.102,418.652z M278.798,429.641l1.076,0.735l0.308,0.341l0.041,0.222
		l-0.181,0.114l-0.25,0.034l-0.18-0.014l-0.128-0.12l-0.18-0.453l-0.18-0.142l-0.526-0.035l-0.125,0.251l0.149,0.86l-0.264,0.176
		l-0.822-0.364l0.273,0.544h-1.777l-1.479,0.258l-0.595,0.279l-1.488,1.402l-0.442,0.583l-0.318,0.256l-0.423-0.011l-0.414-0.194
		l-0.315-0.291l-0.372-0.206l-0.864,0.144l-0.295-0.046l-0.231-0.423l-0.152-0.504l-0.197-0.254l-0.494,0.462l-0.4,0.1l-0.182,0.119
		l-0.008,0.129l-0.155,0.85l-0.378-0.277l-1.222,0.99l-0.691,0.246l0.426,0.468l0.743-0.142l1.448-0.569l-0.285,0.671l-0.269,0.451
		l-0.749,0.817l0.006-0.857l-0.302,0.012l-0.42,0.451l-0.341,0.503l-0.434,0.24l-0.8,0.194l-0.817,0.057l-0.485-0.161l-0.132-0.68
		l0.151-0.89l0.291-0.851l0.276-0.553l0.243-0.228l0.468-0.069l0.482-0.391l0.826-0.411l-0.412-0.291l-0.006-0.321l0.166-0.365
		l0.118-0.439l-0.036-0.53l-0.079-0.404l-0.003-0.387l0.183-0.489l0.243-0.354l0.25-0.23l0.564-0.385l0.389-0.144l0.309,0.094
		l0.283,0.154l0.322,0.028l0.411-0.472l-0.09-0.836l-0.184-0.929l0.114-0.753l0.293-0.185h0.702l0.313-0.281l0.396-0.689
		l0.133-0.378l0.057-0.482l-0.124-0.788l-0.314-0.743l-0.805-1.224l-0.144-0.379l0.1-0.307l0.185-0.257l0.094-0.255l-0.007-0.224
		l-0.042-0.169l-0.075-0.15l-0.11-0.17l-0.099-0.255l0.039-0.195l0.095-0.175l0.051-0.193l0.133-0.979l0.329-0.503l0.531-0.178
		l0.724-0.025l0.64,0.238l0.367,0.059l0.308-0.178l0.332-0.345l0.271-0.062l1.119,0.583l0.456,0.391l0.414,0.474l2.126,3.017
		l0.336,0.348l0.402,0.281l0.337,0.323l0.138,0.475l0.292,0.097l0.541,0.32l0.287,0.44l-0.468,0.448l0.487,0.261v0.216l-0.59,0.218
		l-2.164-0.218l0.163-0.477l-1.342-0.05l-0.45,0.232l0.241,0.675l-0.069,0.386l-1.162,1.642l0.602-0.074l0.829-1.08l0.524-0.278
		l0.243,0.11l0.657,0.495l0.604,0.167l0.937,0.42l-0.092,0.245l-0.083,0.182l-0.115,0.146l-0.189,0.122v0.239l0.273,0.012
		l1.285-0.472l0.304-0.02l0.318-0.191l0.181-0.057l0.081,0.142l0.072,0.276l0.182,0.253l0.211,0.189l0.186,0.104l-0.116,0.333
		l-0.149,0.887l-0.06,0.233l-0.268,0.168l-0.267-0.033l-0.282-0.102l-0.324-0.032V429.641z M243.352,380.257l0.445,0.349
		l0.318,0.653l0.196,0.782l0.07,0.73l-0.095,0.749l-0.271,0.542l-0.419,0.31l-0.531,0.072l-0.05-0.177l-0.175-0.345l-0.194-0.172
		l-0.167,0.617l-0.193,0.133l-0.221,0.01l-0.175-0.067l-0.139-0.358l-0.127-0.674l-0.069-0.688l0.028-0.394l-0.337-0.644
		l-0.413,0.053l-1.483,1.762l-0.383,0.278l-0.504,0.178l0.126-0.45l0.226-0.619l0.284-0.552l0.274-0.238l0.07-0.105l0.276-0.522
		l0.184-0.505l0.285-0.075l0.599,0.02l1.907-0.665l0.444-0.028L243.352,380.257z M249.598,364.888l0.217,1.221l0.341,1.143
		l0.89,2.278l-0.797,0.151l-0.322-0.088l-0.419-0.435l-0.387-0.243l-0.52-0.177l-0.465-0.247l-0.194-0.466l-0.257-0.426
		l-0.057-0.264l0.243-0.118l-0.047-0.149l0.157-0.329l1.439-2.311l0.003,0.165l0.046,0.095l0.062,0.082L249.598,364.888z
		 M426.051,232.38l0.391,0.062l0.059,0.239l-0.043,0.358l0.081,0.422l-0.179,0.413l-0.147,0.947l-0.163,0.365l-0.355,0.238
		l-0.419,0.026l-0.444-0.046l-0.423,0.021l-0.325,0.17l-0.589,0.533l-0.237,0.162l-0.372,0.07l-1.211-0.064l0.007-0.01l0.117-0.129
		l0.256-0.253l0.078-0.047l0.257-0.026l0.569,0.056l0.223-0.139l1.227-1.401l0.408,0.417l0.527-0.197l0.387-0.526l-0.02-0.579
		l-0.297,0.17l-0.288-0.039l-0.241-0.214l-0.151-0.35l0.426-0.036l0.307-0.218l0.273-0.255L426.051,232.38z M411.842,226.091
		l0.279-0.159l0.151-0.246l0.018-0.313l-0.122-0.355l-0.259,0.311l-0.067,0.115l-0.138-0.362l-0.046-0.397l0.046-0.389l0.138-0.354
		l0.363,0.343l0.279,0.375l0.325,0.285l0.498,0.074v-0.2l-0.295-0.251l-0.26-0.324l-0.188-0.415l-0.07-0.515l0.058-0.462
		l0.301-1.198l0.13-0.273l0.13,0.043l0.031,0.253l0.069,0.261l0.257,0.07l0.09-0.431l0.121-0.294l0.203-0.136l0.349,0.192
		l0.008,0.461l-0.062,0.569l0.118,0.515l0.18-0.3l0.75-0.246l0.372-0.329h-0.815l0.536-0.469l0.223-0.254l0.217-0.353l0.26-0.898
		l0.121-0.189l0.109,0.46l-0.008,0.45l-0.084,0.437l-0.234,0.815l0.147,0.319l0.042,0.21l-0.108,0.092l-0.132,0.085l-0.349,0.427
		l-0.104,0.172l-0.074,0.325l-0.09,0.814l-0.144,0.364l-0.099,0.031l-0.477-0.031l-0.14,0.08l-0.283,0.392l-0.142,0.154
		l-0.584,0.216l-0.166,0.092l-0.099,0.208l-0.07,0.223l-0.069,0.143l-0.301,0.218l-0.344,0.151l-0.349,0.021l-0.309-0.175
		l0.093-0.108l0.029-0.108l0.008-0.108L411.842,226.091z M387.169,302.27l0.175,0.421l-0.175,0.788l-0.093,0.827l-0.044,1.738
		l-0.161,0.203l-0.156,0.449l0.061,0.701l0.432,2.049l0.682,1.943l-0.043,0.523l-0.304-0.374l-0.281-0.054l-0.116,0.214l0.197,0.461
		l0.361,0.267l1.456,0.407l-0.675,0.308l-1.571,0.104l-0.71,0.242l-0.637,0.587l0.279,0.254l0.66,0.113l0.526,0.167l0.494-0.646
		l0.888-0.227l0.854,0.01l0.381,0.069l0.103,0.498l0.223,0.47l0.22,0.264l0.105-0.111l0.114-0.844l0.212-0.833l0.63,0.399
		l0.14,0.276l0.042,0.557l-0.074,0.912l0.086,0.201l0.327-0.094l0.207-0.252l0.171-0.392l0.201-0.348l0.31-0.153l0.355,0.04
		l0.355,0.149l0.271,0.279l0.095,0.45l0.673-0.75l0.286-0.169l0.098,0.579l0.278,0.334l0.333,0.269l0.271,0.394l0.024,0.257
		l-0.067,0.271l-0.088,0.23l-0.031,0.158l0.06,0.197l0.198,0.338l0.064,0.161l0.088,0.899l-0.07,0.959l-0.192,0.929l-0.299,0.82
		l-0.295-0.449l-0.587,0.78l-0.432-0.105l-0.149,0.702l-0.014,0.22l-0.193-0.277l-0.21-0.056l-0.211,0.113l-0.198,0.22l-0.103-0.419
		l-0.304-0.742l-0.095-0.435l0.002-0.511l0.067-0.279l-0.032-0.253l-0.273-0.424l-0.129-0.435l0.047-0.486l-0.018-0.4l-0.311-0.164
		l-0.369,0.145l-0.157,0.331l0.067,0.381l0.305,0.29l-0.339,0.891l-0.027,0.904l0.252,0.886l0.753,1.195l-0.081,0.073l-0.558-0.113
		h-1.559l-0.325-0.192l-0.547-0.661l-0.545,0.172l-0.287-0.226l-0.507-0.674l-0.925-0.968l-0.023-0.443l0.46-0.617l-0.419,0.032
		l-0.651,0.319l-1.945,0.281l-0.663,0.355l-1.38,0.138l-2.095,0.76l-0.966,0.155l-0.203-0.126l0.093-0.352l0.236-0.245l0.293-0.145
		l0.639-0.105l3.589-1.246l0.366-0.048l0.349-0.107l-0.18-0.25l-0.659-0.438l-0.294-0.07l-0.756,0.114l-0.412-0.17l-0.164-0.185
		l-0.291-0.462l-0.191-0.231l-0.64-0.314l-0.611,0.104l-0.618,0.265l-0.671,0.146l-0.398,0.346l-0.227,0.821l-0.099,0.972
		l-0.009,0.81l0.062,0.486l0.046,0.194l-0.063,0.167l-0.29,0.395l-0.256,0.131l-1.982,0.32l-0.283-0.056l-0.493,0.161l-0.425,0.495
		l-1.098,0.382l-0.493,0.439l-2.478,1.176l-4.595,3.375l-0.718,0.118l-0.388-0.078l-0.363,0.047l-0.304,0.196l-1.767,1.244
		l-0.885,0.198l-0.366,0.145l-0.291,0.276l-0.254,0.306l-0.268,0.246l-0.671,0.202l-0.634,0.471l-0.261,0.104l-0.399,0.133
		l-0.43,0.523l-0.239,0.253l-0.158,0.279l-0.617,0.232l-0.291,0.233l-1.456,1.575l-0.579,0.341l-0.475-0.185l-0.341,0.233
		l-0.287,0.218l-0.199,0.37l-0.081,0.325l-1.291,2.398l-0.093,0.382v1.905l-0.131,0.621l-0.317,0.494l-0.691,0.831l-0.05,0.302
		l-0.011,0.378l-0.079,0.324l-0.271,0.139l-0.197,0.06l-0.691,0.418l0.527,0.664l0.124,1.152v2.52l0.273,1.615l0.034,0.576
		l-0.122,0.631l-0.283,0.254l-0.322,0.18l-0.233,0.41l0.682,0.117l0.237,0.815l-0.023,1.098l-0.198,1.992l-0.25,0.679l-0.284,0.485
		l-0.195,0.444l-0.23,0.505l-0.1,0.511l-1.609,3.039l-2.641,2.744l-1.291,2.82l-0.57,2.413l-0.315,0.706l-0.285,0.86l0.331,0.419
		l0.414,0.392l-0.047,0.779l-0.883,1.054l-0.222,0.46l-0.004,0.37l0.09,0.371l0.059,0.436l-0.332,0.617l-0.663,0.456l-0.493,0.526
		l0.171,0.836l-0.283,0.404l-0.287,0.202l-0.326-0.037l-0.405-0.316l0.029,0.371l0.082,0.347l0.215,0.657l-0.397,0.377l-0.306,0.132
		l-0.857-0.028l-0.48,0.172l0.011,0.351l0.349,0.331l0.542,0.077l-0.562,1.237l-0.186,0.184l-0.268,0.077l-0.301,0.192l-0.488,0.43
		l-0.198,0.073l-0.158-0.053l-0.11,0.02l-0.036,0.296v0.325l0.022,0.178l0.101,0.077l0.215,0.012l0.36,0.133l0.316,0.211
		l0.306,0.047l0.318-0.392l0.434,0.378l0.626,0.331l0.483,0.353l0.011,0.456l-0.423,0.325l-1.159,0.237l-0.477,0.256l-0.457,0.74
		l-0.177,0.217l-0.208,0.077l-0.271,0.059l-0.236,0.125l-0.299,0.868l-0.888,0.596l-0.229,0.585l0.446-0.237l0.859-0.231
		l0.723-0.635l1.079-0.423l0.329-0.323l0.36-0.78l0.288-0.405l0.327-0.223l0.299-0.078l0.273-0.161l0.254-0.472l0.243,0.433
		l0.093,0.528l-0.083,1.87l-0.208,0.448l-0.35,0.176l-0.51,0.045l-0.487-0.033l-0.096,0.049l-0.245,0.199l-0.125,0.225l0.006,0.234
		l-0.053,0.189l-4.932,0.518l-2.035,0.697l-1.768,1.311l-1.383,2.014l-0.373,0.802l-0.088,0.394l-0.076,1.031l-0.216,0.635
		l-0.046,0.314l-0.175,0.73l-0.426,0.651l-0.536,0.522l-0.504,0.339l-1.26,0.524l-0.59,0.381l-0.518,0.633l-0.409,0.628
		l-0.451,0.524l-3.298,2.376l-0.826,1.154l-0.321,1.81l0.057,0.918l-0.112,0.354l-0.671,0.25l-0.558,0.49l-0.192,0.109l-0.409-0.073
		l-0.803-0.324l-0.405-0.076l-0.409,0.059l-0.687,0.307l-0.383,0.107l0.374,0.161l1.917,0.099l-0.477,1.195l-0.749,0.516
		l-0.857,0.341l-0.787,0.677l-0.339-0.033l-0.617-0.257l-0.668-0.171l-0.498,0.225l-0.301,0.293l-1.26,0.762l0.136,0.164
		l0.236,0.403l0.135,0.167l-0.646,0.207l-0.799-0.246l-0.733-0.056l-0.442,0.808l-0.498-0.401l-0.151-0.073l-0.82-0.151
		l-0.419,0.037l-0.319,0.218l-0.489,0.544l-0.286,0.209l-0.285,0.09l-0.831,0.118l-0.32-0.056l-0.312-0.321l0.09-0.695l-0.06-0.399
		l-0.043-0.011l-0.299-0.082l-0.217,0.246l0.02,0.776l-0.297,0.24l-0.045,0.169l-0.062,0.17l-0.143,0.081h-0.727l-0.426-0.147
		l-0.248-0.316l-0.158-0.331l-0.166-0.177l-0.307,0.041l-0.008,0.306l0.074,0.426l-0.086,0.435l-0.639,0.379l-0.804-0.215
		l-0.817-0.416l-0.666-0.223l-0.774,0.028L295.228,416l-0.279-0.409l-0.599-2.176l-0.041-0.345l-0.135-0.395h-0.325l-0.702,0.265
		l-2.443,0.482l-0.814-0.008l0.197-0.364l0.287-0.118l0.329-0.054l0.327-0.169l-0.478-0.294l-0.599-0.14l-1.188-0.04l0.188,0.486
		l0.308,0.31l0.14,0.26l-0.31,0.361l0.088,0.107l0.151,0.26l0.086,0.107l-1.28,0.429l-4.104-0.429l0.301-0.597l0.135-0.172
		l0.198-0.155l0.341-0.113l0.852,0.016l0.289,0.097l0.246,0.395l0.688,0.141l0.428-0.198l-0.547-0.598l-0.691-0.281l-2.077,0.051
		l-0.959-0.615l-0.478-0.11l-0.204,0.606l0.15,0.704l0.724,0.937l0.279,0.626l-0.653-0.115l-0.865-1.067l-0.539-0.262l-0.083-0.147
		l-0.043-0.327l-0.144-0.327l-0.626-0.208l-0.177-0.197l-0.102-0.305l-0.047-0.401l0.733-0.227l0.256,0.014l0.25,0.085l0.043,0.095
		l-0.002,0.152l0.116,0.245l0.151-0.234l1.246-1.053l0.222-0.923l-0.165-1.12l-0.442-0.816l-0.604,0.006l0.191,0.872l-0.241,0.81
		l-0.457,0.496l-0.484-0.056l-0.279-0.473l-0.493-1.427l-1.272-2.386l-0.397-0.43l-0.674-0.183l-2.333,0.418l-0.342,0.185
		l-0.014,0.402l0.083,0.404l-0.06,0.186l-0.347-0.113l-0.421-0.206l-0.407-0.134l-0.299,0.121l-0.721-0.118l-0.458,0.015
		l-0.201,0.328l-0.132,0.362l-0.282,0.093l-0.285-0.045l-0.245-0.09l-0.337-0.18l-0.186-0.033l-0.163,0.078l-0.361,0.326
		l-0.14,0.068l-0.272-0.115l-0.233-0.237l-0.221-0.338l-0.266-0.132l-0.212-0.306l-0.336-0.641l-0.231-0.233l-0.561-0.331
		l-0.285-0.241l0.329-0.202l0.325-0.136l0.287-0.204l0.225-0.42l-1.22-1.632l-0.593-0.992l-0.006-0.689l-0.357-0.317l-0.97-0.1
		l-0.48-0.157l-1.121-0.745l-0.347-0.093l-2.728-0.299l-0.193,0.067l-0.144,0.246l-0.02,0.56l-0.09,0.263l-0.273,0.541l-0.098,0.473
		l-0.048,0.46l-0.14,0.51l-0.308,0.423l-0.365,0.11l-0.805-0.062l-0.39,0.129l-0.725,0.463l-0.351,0.134l-0.475-0.05l-0.977-0.383
		l-0.516-0.035l-0.395,0.113l-0.191,0.101l-0.147,0.138l-0.166,0.1l-0.133-0.137l-0.104-0.208l-0.09-0.107l-0.272-0.067
		l-1.524-0.729l-0.408,0.012l-0.404,0.073l-0.409-0.016l-1.626-0.449l-3.271,0.085l-1.593-0.286l-1.344-0.995l-0.71-0.966
		l-0.108-0.325l0.144-0.22l0.674-0.31l0.24-0.185l0.912-1.046l0.815-1.174l0.67-1.604l0.381-0.697l0.491-0.296l0.698-0.178
		l1.089-0.904l0.586-0.363v-0.215l-0.519,0.076l-1.448,0.881l-1.037,0.39l-0.558,0.324l-0.353,0.437l-0.088,0.388l0.057,0.249
		l0.072,0.225l-0.042,0.329l-0.099,0.074l-0.743,0.821l-0.043,0.139l-0.062-0.014l-0.21-0.299l0.02-0.173l0.097-0.263v-0.287
		l-0.264-0.252l-0.317,1.073l-0.752,0.444l-1.725,0.377l-0.002-0.595l0.081-0.548l0.211-0.267l0.376,0.237l0.081-1.097l0.264-0.746
		l0.454-0.527l0.667-0.441l1.436-0.346l0.618-0.301l0.4-0.775l-0.815,0.402l-0.829,0.278l-0.328-0.03l-0.454-0.127l-0.37-0.19
		l-0.065-0.217l1.299-1.605l0.212-0.357l0.047-0.261l-0.239-0.273l-0.27,0.05l-0.265,0.219l-0.219,0.237l-0.097,0.156l-0.102,0.229
		l-0.08,0.245l-0.027,0.19l-0.442,0.318l-0.144,0.147l-0.648,1.068l-0.085,0.337l-0.353,0.376l-2.264,0.678l-0.315,0.199
		l-0.562,0.625l-0.183,0.135l-0.175-0.179l-0.182-0.402l-0.128-0.43v-0.279l0.09-0.396l-0.032-0.463l-0.128-0.68l0.008-3.077
		l0.158-0.794l0.389-0.333l1.544-0.233h1.644l-0.178,0.233l0.178,0.256l0.589-0.512l0.705-0.203l1.486-0.008l0.612-0.108
		l1.267-0.483l0.651-0.109l0.703,0.123l0.326-0.017l0.273-0.222l0.198-0.258l0.231-0.225l0.469-0.356l1.155-0.517l0.504-0.4
		l0.295-0.711l-1.017,0.405l-0.367,0.061l-1.711-0.21l-2.226,0.655l-0.554-0.188l0.442-0.999l0.287-0.364l0.415-0.291l1.268-0.378
		l0.369-0.321l-2.295,0.345l-0.403-0.111l-0.183-0.816l0.018-0.753l0.268-0.561l0.552-0.216l0.639-0.149l1.195-0.64l0.702-0.12
		l1.256,0.449l0.658,0.039l0.511-0.488l-0.803,0.019l-0.361-0.135l-0.288-0.371l1.539-0.489l0.699-0.528l0.203-0.858l-3.17,1.687
		l-1.96,0.396l-1.312,0.745l-0.263,0.029l-0.518,0.149l-0.273,0.033l-0.419-0.045l-0.193-0.138l-0.29-0.62l0.002-0.51l0.884-1.936
		l0.426-2.046l0.24-0.53l1.064-0.569l1.164,0.492l1.149,0.761l1.028,0.244l-0.27-0.804l-0.37-0.836l-0.372-0.306l-0.291,0.787
		l-0.439-0.359l-0.938-0.486l-0.423-0.309l-0.311-0.392l-0.076-0.37l0.137-0.427l0.327-0.559l0.81-0.871l0.52-0.403l0.229,0.116
		l0.19,0.577l0.448,0.429l0.991,0.488l-0.217,0.165l-0.192,0.206l-0.151,0.256l-0.087,0.32l0.76-0.088l0.666-0.32l0.645-0.06
		l0.677,0.7l0.171,0.317l0.099,0.297l-0.045,0.334l-0.225,0.436l-0.612,0.488l-0.256,0.316l0.219,0.146l0.808-0.049l0.285-0.177
		l0.308-0.365l0.163-0.435l0.097-0.442l0.171-0.183l0.648,0.594l0.299,0.202l0.24,0.278l0.158,0.798l0.428,1.15l0.104-0.088
		l0.06-0.122l0.18,0.133l0.311,0.169l0.158,0.163l-0.131-1.108l-1.234-1.624l-2.404-2.408l0.346-0.472l0.401-0.231l2.421-0.73
		l0.44,0.044l0.243,0.27l0.415,0.817l0.334,0.303l0.442,0.154l0.491,0.017l0.431-0.188l0.262-0.446l-0.383-0.122l-0.837,0.043
		l-0.332-0.245l-0.233-0.356l-0.063-0.157l0.044-0.645l0.136-0.366l0.203-0.154l-0.002-0.041l-0.894,0.016l-0.908,0.43l-0.604,0.157
		l-1.941,0.205l-0.412-0.246l-0.05-0.446l-0.215-0.675l-0.146-0.677l-0.435-0.369l-0.104-0.386l-0.065-1.509l0.17-0.563l0.534-0.361
		l0.709,0.017l0.564,0.411l0.931,1.312l0.273,0.22l0.401,0.15h0.369l0.184-0.245l-0.13-0.215l-0.859-0.728l-0.866-1.135
		l-0.501-0.431l-0.587-0.05l0.939-1.545l0.574-0.563l0.527,0.132l0.902,1.517l0.053,0.489l-0.039,0.448l0.039,0.379l0.273,0.296
		l0.125-0.462l-0.07-0.679l0.107-0.261l0.36-0.164l1.444,0.164l-0.361-0.425l-1.35-0.505l-0.501-0.33l-0.403-0.551l-0.281-0.563
		l-0.037-0.554l0.316-0.528l0.58-0.223l0.612,0.19l0.634,0.32l0.628,0.173l0.498,0.265l0.59,0.508l0.529,0.293l0.338-0.376
		l-0.448-0.129l-2.869-1.672l-0.278-0.288l0.107-0.473l0.4-0.467l1.19-1.029l0.392-0.208l0.448-0.093l0.569-0.03l-0.132-0.151
		l-0.229-0.374l-0.127-0.162l1.833-1.105l0.784-0.049l0.324,1.039l0.078,0.148l0.167,0.194l0.17,0.248l0.075,0.326l-0.062,0.32
		l-0.236,0.646l-0.028,0.318l0.19,0.455l0.29,0.345l0.172,0.411l-0.163,0.629l0.884,0.095l0.415-0.071l-0.074-0.368l-0.101-0.184
		l-0.082-0.238l-0.049-0.263l-0.016-0.247l-0.068-0.202l-0.494-0.488l-0.065-0.337l0.048-0.485l0.011-0.536l-0.164-0.489
		l-0.175-0.348l-0.347-1.088l-0.067-0.41l0.295-1.153l0.702-0.743l0.86-0.115l0.761,0.741l0.169,0.45l-0.068,0.23l-0.194,0.24
		l-0.217,0.475l-0.116,0.62l0.066,0.493l0.24,0.394l0.428,0.328l0.047-0.758l0.203-0.497l0.25-0.443l0.184-0.596l-0.051-0.682
		l-0.623-0.699l-0.155-0.585l-0.261-0.442l-0.054-0.25l0.458-0.236l0.24-0.24l0.252-0.137l0.265,0.181l0.448,0.644l0.39,0.396
		l0.441,0.242l0.615,0.186l-0.403-0.23l-0.897-1.124l-0.611-0.565l-0.105-0.351l0.198-0.48l0.378-0.314l1.263-0.367l0.169-0.202
		l0.191-0.477l0.129-0.215l0.156-0.099l0.405-0.128l0.171-0.139l0.686-0.743l0.698-0.297l0.703,0.163l1.054,0.967l0.803,0.477
		l0.313,0.349l0.733,1.483l0.169-0.387l0.052-0.498l-0.057-0.516l-0.163-0.425l-0.132-0.131l-0.536-0.327l-0.634-0.686l-0.143-0.12
		l-0.118-0.028l-0.116-0.066l-0.126-0.245l-0.036-0.25l0.036-0.893l-0.151-0.968l-0.144-0.491l-0.189-0.383l0.562-0.82l1.974-2.265
		l0.692-0.621l0.862-0.602l0.597-0.763l-0.121-1.094h2.145l0.222-0.128l0.286-0.577l0.011-0.51l-0.076-0.105l-0.209-0.29
		l-0.588-0.233v-0.227l1.115-0.378l0.449-0.287l0.867-1.028l1.489-1.008l0.936-0.933l0.785-1.013l0.032-0.202l0.02-0.348l0.07-0.413
		l0.194-0.396l0.248-0.267l0.263-0.226l0.28-0.178l0.274-0.122l-0.161-0.084l-0.488-0.388l0.465-0.24l0.475-0.132l1.474-0.096
		l0.885-0.21l0.801-0.416l0.489-0.35l0.229-0.242l0.327-0.194l0.612,0.07l0.209-0.097l0.586-0.563l0.405,0.226l0.373,0.589
		l0.493,0.526l1.133,0.175l1.357-0.434l1.296-0.811l1.437-1.451l1.105-0.759l0.457-0.461l0.419-0.317l1.52-0.822l0.378-0.354
		l0.119-0.285l0.019-0.329l0.089-0.269l0.178-0.179l0.651-0.417l0.235-0.08l0.444-0.247l0.905-1.101l0.43-0.249l0.471-0.175
		l1.727-1.177l1.2-0.402l0.649-0.352l0.277-0.482l0.109-0.257l0.257-0.263l0.299-0.206l0.234-0.08l0.646-0.073l0.205,0.056
		l0.207,0.034l0.205-0.048l0.281-0.195l0.353-0.354l0.955-0.276l0.812-0.632l0.964,0.213l0.525-0.059l1.232-0.98l0.483-0.139
		l0.379-0.263l0.808-1.235l0.355-0.42l0.142-0.361l0.015-0.411l0.482-0.572l0.62-0.118l0.262-0.306l0.039-0.444l0.15-0.713
		l0.495-0.613l0.52-0.427l3.176-1.594l0.306-0.517l0.202-0.87l0.52-0.178l0.356-0.327l0.221-0.523l0.178-0.457l0.236-0.208
		l0.578-0.25l0.606-0.447l0.325-0.159l0.378-0.065l0.273,0.075l0.515,0.319l0.276,0.075l1.544-2.473l-0.76-0.149l-0.597,0.67
		l-0.529,0.855l-0.568,0.407l0.457-1.42l0.809-0.965l0.616-0.463l0.232-0.496v-0.245l1.758-0.122l0.527-0.256l0.187-0.203
		l-0.191-0.306l0.425-0.334l0.331-0.472l0.366-0.287l0.518,0.221l0.079-0.549l0.259-0.117l0.149-0.244l0.956-0.599l2.128-0.766
		l0.925-0.747l0.756-0.111l0.374-0.021l0.255-0.046l0.202-0.243l0.304-0.357l0.267-0.219l0.871-0.448l0.417-0.473l0.853-1.265
		l0.437-0.26l0.403-0.354l2.036-3.556l0.308-0.317l0.23-0.087l0.489-0.212l0.421-0.294l0.186-0.414l0.352-0.614l0.224-0.277
		l0.245-0.119l0.383-0.253l0.402-0.599l0.598-1.138l0.425-0.257l1.704-3.516l0.493-0.586l0.248-0.478l0.07-1.027l0.155-0.749
		l1.164-1.802l0.503-1.455l0.637-4.742l0.425-1.187l0.104-0.713l0.243-0.792l0.119-0.256l0.815-1.007l0.349-0.569l0.237-0.73
		l0.4-2.012l0.336-0.631l0.229-1.044l0.489-1.215l-0.155-0.362l-0.177,0.237l-0.102-0.234l-0.032-0.182l-0.027-1.506l0.376-0.28
		l1.425,0.218l1.657-0.237l0.446,0.031l0.177-0.013l1.181-0.507l2.249-1.455l0.6-0.711l0.21-0.179l0.353-0.075l0.318,0.06
		l0.231-0.07l0.164-0.748l0.191-0.192l0.238-0.165l0.231-0.226l0.334-0.536l0.883-1.983l0.129-0.163l0.11-0.024l0.076-0.122
		l0.038-0.657l0.038-0.076l0.069-0.046l0.118-0.107l0.194-0.284l0.124-0.309l0.076-0.341l0.023-0.38l0.273-0.465l0.628-0.538
		l0.705-0.447l0.494-0.186l-0.09-0.295l-0.02-0.312l0.051-0.3l0.323-0.614l0.046-0.372l0.016-0.687l0.075-0.767l0.117-0.302
		l0.226,0.086l0.11-0.045l0.219-0.141l0.279-0.137l0.287-0.01l-0.466-0.892l-0.135-0.392l-0.214-3.494l0.059-0.386l0.209-0.72
		l0.042-0.294l-0.147-1.64v-3.429l-0.14-0.985l0.008-0.553l0.206-0.244l0.301-0.019l0.21-0.085l0.165-0.19l0.308-0.625l0.571-0.762
		l0.081-0.177l0.043-0.331l0.049-0.138l0.163-0.161l0.16-0.023l0.155,0.002l0.158-0.073l0.078-0.143l0.074-0.204l0.102-0.194
		l0.161-0.079l0.032,0.002l0.32,0.015l0.172-0.03l0.321-0.295l0.667-0.463l0.283-0.09l0.101-0.121l1.235-0.957l2.382-2.957
		l1.037-1.014l0.887-0.353l-0.388,1.037l-0.031,0.347l0.338,0.136l0.119-0.153l0.135-0.292l0.175-0.207l0.389,0.199l0.214-0.092
		l0.201-0.163l0.149-0.151l-0.107-0.457l0.735-0.326l0.022-0.288l-0.276-0.315l-0.078-0.111l-0.302,0.301l-0.344,0.194l-0.339,0.055
		l-0.301-0.124l0.918-1.171l1.086-0.566l4.72-0.237l1.545,0.199l1.421,0.41l0.78,0.082l-0.545,0.219l-5.148-0.422l-0.374,0.102
		l-0.243,0.314l-0.229,0.645l-0.254,1.239l-0.219,0.595l-0.352,0.307l0.216,0.651l-0.128,0.246l-0.331,0.023l-0.408-0.043
		l0.327,0.838l0.133,0.107l0.402,0.159l0.114,0.143l-0.004,0.532l-0.287,0.934l0.128,0.507l0.154-0.156l0.51-0.273l0.327,0.892
		l0.82,0.843l2.047,1.637l0.307,0.113l0.31-0.129l0.576-0.461l0.118-0.056l0.31-0.029l0.093-0.089l-0.05-0.41l0.039-0.146
		l0.381-0.381l0.186,0.025l0.248,0.356l0.31-0.484l0.333-0.287l0.341,0.035l0.332,0.481l0.122,0.395l0.008,0.289l-0.13,0.627
		l0.14,0.295l-0.029,0.258l-0.291,0.323l0.4,0.072l0.353-0.025l0.307,0.11l0.255,0.469l-0.069,0.154l-0.239,1.393l0.088,0.585
		l0.062,0.278l-0.054,0.215l-0.272,0.414l-0.534,0.581l-0.603,0.493l0.223,0.139l0.178,0.054l0.18-0.043l0.231-0.149l0.282,1.574
		l0.043,0.486l0.135,0.481l0.268,0.416l0.186,0.431l-0.104,0.517l-0.089-0.299l-0.148-0.249l-0.186-0.199l-0.224-0.118l-0.163,1.135
		l0.082,0.278l0.372,0.389l0.13,0.232l0.067,0.361h0.159l0.256-0.394l0.186,0.405l0.225,1.287l0.294,0.857l0.02,0.247l-0.136,0.196
		l-0.411,0.197l-0.093,0.237l0.171,0.47l0.415,0.265l0.527,0.124l1.105,0.008l0.506-0.093l0.455-0.227l0.883-0.773l0.824-0.509
		l0.409-0.456l0.919-1.299l1.479-1.469l0.593-0.254l0.267-0.462l0.248-0.102l0.147,0.102l0.011,0.247l-0.069,0.289l-0.09,0.226
		l0.822-0.351l0.403-0.273l0.325-0.349l0.386-0.757l0.191-0.211l0.21-0.015l0.205,0.129l0.202,0.015l0.194-0.345l-0.241-0.345
		l0.217-0.438l0.417-0.372l0.347-0.162l0.421,0.159l0.374,0.411l0.243,0.56l0.029,0.612h0.163l0.116-0.301l0.12-0.1l0.118,0.1
		l0.117,0.301l0.339-0.211l-0.333-0.751l0.337-0.355l0.644-0.21l0.566-0.316l0.186-0.342l-0.024-0.319l-0.19-0.231l-0.299-0.087
		l-0.915,0.642l-0.149-0.092l-0.006-0.421l0.03-0.17l0.389-0.499l0.203-0.179l0.547-0.283l0.228-0.18l0.259-0.123l1.211-0.205
		l0.125-0.134l0.526-0.831l0.587-0.401l-0.089,1.451l0.571,0.131l0.087-0.116l0.727-0.742l0.061-0.158l0.062-0.408l0.026-0.1
		l0.13-0.083l0.355-0.113l1.169-0.647l0.2-0.031h0.283l0.283,0.064l0.198,0.162l0.257,0.831l-0.411,0.116l-1.148-0.3l0.153,0.415
		l-0.14,0.224l-0.226,0.231l-0.113,0.439l-0.268-0.102l-0.256-0.013l-0.24,0.104l-0.225,0.226l0.144,0.189l0.05,0.124l0.082,0.079
		l0.209,0.044l-0.395,0.38l-0.774,0.262l-0.754,0.021l-0.339-0.345l-0.363-0.05l-0.682,0.098l-0.363,0.316l0.583,0.63l-0.338,0.226
		l-0.239,0.254l0.012,0.232l0.402,0.152l-0.081,0.403l-0.153,0.363l-0.208,0.303l-0.22,0.226l0.198,0.253l0.276,0.077l0.246-0.17
		l0.106-0.496l0.552-0.81l0.017-0.149l1.57-0.293l0.837-0.037l0.615,0.33l-0.259-0.041l-0.209,0.067l-0.135,0.185l-0.046,0.317
		l-0.081,0.293l-0.192-0.018l-0.222-0.123l-0.17-0.036l-0.121-0.038l-0.163-0.11l-0.144-0.011l-0.059,0.26l0.025,0.125l0.121,0.186
		l0.029,0.133l-0.034,0.303l-0.107,0.134l-0.161-0.002l-0.198-0.116l-0.175,0.73l-0.34,0.211l-0.375,0.123l-0.251,0.468l0.37,0.003
		l0.433,0.185l0.36,0.327l0.151,0.446l-0.052,0.327l-0.233,0.705l-0.054,0.381l-0.294,0.366l-0.679,0.351l-1.305,0.387l0.082,0.358
		l0.164,0.251l0.208,0.152l0.197,0.085l2.518-1.491l0.896-0.243v-0.217l-0.349-0.113l-0.32,0.01l-0.265-0.052l-0.189-0.279
		l0.998-0.129l0.502,0.016l0.371,0.222l0.376,0.143l0.578-0.072l0.574-0.185l0.37-0.206l-0.146-0.098l-0.368-0.361l1.412,0.139
		l0.686-0.191l0.519-0.572l-2.684,0.068l-0.409,0.129l-0.062,0.1v0.143l-0.05,0.133l-0.217,0.052l-0.16-0.002l-0.108-0.023
		l-0.099-0.062l-0.13-0.108l0.165-0.428l-1.277,0.547l-0.629-0.031l-0.211-0.968l0.122-0.502l0.248-0.297l0.304-0.213l0.303-0.265
		l0.046-0.198l-0.048-0.224l-0.011-0.17l0.175-0.072l0.21-0.031l0.116-0.098l0.034-0.2l-0.037-0.325l0.829,0.196l-0.251,0.504
		l-0.062,0.488l0.138,0.973l0.416-0.764l0.206-0.605l0.308-0.353l0.721-0.002l-0.401-0.623l-0.109-0.308l0.408-0.643l0.015-0.468
		l-0.198-0.349l-0.391-0.006l-0.156,0.309l-0.098,0.493l-0.153,0.332l-0.313-0.154l-0.733-0.803l-0.177-0.372h0.829l-0.192-0.406
		l-0.029-0.316l0.162-0.124l0.371,0.183l0.043-0.663l0.412,0.181l0.862,0.908l0.505,0.345l0.501,0.154l0.449-0.152l0.36-0.563
		l0.406,0.407l0.397-0.175l0.233-0.504l-0.09-0.59l0.361,0.124l0.375,0.362l0.299,0.474l0.121,0.453v0.37l-0.027,0.229l-0.119,0.116
		l-0.509,0.083l-0.11,0.133l0.006,0.208l0.109,0.276l0.429,0.375l0.462-0.17l0.401-0.411l0.501-0.656l0.956-0.974l0.341-0.129
		l0.18,0.407l-0.184,0.545l-1.223,1.972l-0.14,0.309l-0.025,0.614l-0.074,0.272l-0.077-0.077l-0.335,0.19l-0.292,0.243l0.056,0.077
		l-0.093,0.083l-0.224,0.133l-0.23-0.005l-0.104-0.319v-1.292l-0.074-0.149l-0.163,0.23l-0.17,0.383l-0.081,0.309l-0.358-0.152
		l-0.007,0.263l0.178,0.417l0.186,0.316l0.5,0.549l0.168,0.28l0.147,0.485l-0.109,0.054l-0.302,0.106l-0.078,0.035l-0.01-0.064
		l-0.479,0.302l-0.189,0.206l-0.129,0.206l-0.17,0.171l-0.333,0.067l-1.249,0.008l-0.637,0.185l-0.386,0.456l-0.285-0.201
		l-0.287-0.046l-0.248,0.134l-0.17,0.33l-0.369-0.149l-0.438,0.118l-0.426,0.271l-0.333,0.309l-0.074,0.374l0.56-0.016l0.669-0.191
		l0.25-0.168l0.522,0.178l0.353-0.145l0.325-0.297l0.428-0.286l0.271-0.021l0.256,0.083l0.259,0.02l0.466-0.314l0.494-0.114
		l0.222-0.087l0.249,0.305l0.326,0.284l0.344,0.216l0.302,0.083l0.293-0.075l0.344-0.309l0.247-0.07l0.637-0.085l0.502-0.234
		l0.983-0.764l-0.296,0.795l-0.371,0.742l-0.178,0.219l-0.473,0.441l-0.235,0.302l-0.118,0.307l-0.086,0.312l-0.159,0.248
		l-0.745,0.201l-0.566,0.463l-0.353,0.102l0.118-0.317l0.408-0.689l0.046-0.194l-0.239-0.079l-0.496,0.501l-0.323-0.083l0.162-0.46
		l-0.686,0.48l-0.459,0.79l-0.377,0.915l-0.445,0.85l-0.566,0.763l-0.116,0.393l0.034,0.599l0.257,0.969l0.045,0.457l-0.158,0.528
		l0.448,0.101l0.282,0.388l0.108,0.42l-0.081,0.197l0.088,0.124l0.257,0.169l0.264-0.086l0.116-0.642l-0.124-0.145l-0.217-0.648
		l-0.067-0.492l0.334,0.29l1.314,2.264l0.039,0.453l0.119,0.407l0.099,0.323l0.143,0.595l0.019,0.339l0.5,1.747l0.132,0.21
		l0.226,0.556l0.531,0.317l0.6,0.072l0.446-0.174l-0.137,0.779l-1.697,3.264l-0.411,0.62l-2.768,2.977l-1.849,1.99l-0.69,1.154
		l-0.327,0.736l-0.135,0.653l0.016,0.975l-0.055,0.578l-0.225,0.294l-0.141,0.325l-0.181,0.411l-0.046,0.151l-0.454,0.61
		l-0.46,0.845l-0.465,0.458l-1.073,0.699l-0.509,0.488l-0.74,1.218l-0.139,0.11l-0.163,0.031l-0.336-0.019l-0.239,0.572
		l-0.099,0.186l-0.268,0.249l-0.252,0.179l-0.179,0.264l-0.041,0.528l0.093,0.294l0.407,0.503l0.163,0.306l-0.158,0.243l-0.18,0.218
		l-0.488-0.661l-0.27-0.179l-0.365-0.062l-0.308,0.102l-0.51,0.457l-0.248,0.102l-0.301,0.241l-1.25,1.54l-0.473,1.238l-0.371,1.418
		l-0.564,1.191l-1.051,0.55v0.24l0.168,0.013l0.111,0.061l0.098,0.073l0.128,0.074l-1.849,4.021l-0.262,1.13l-0.358,0.692
		l-0.456,0.582l-0.745,0.386l-0.046,0.333l0.111,0.629l-0.008,0.369l0.031,0.177l-0.017,0.187l-0.169,0.398l-0.226,0.284
		l-0.21,0.111l-0.156,0.163l-0.059,0.456l-0.09,0.227l-0.22,0.223l-1.04,0.651l-0.262,0.093l-0.674,0.103l-0.987,0.515l-0.135,0.323
		l-0.085,0.366l-0.102,0.284l-0.205,0.223l-1.15,0.905l-3.216,0.799l-0.791,0.37l-0.646,0.818l-1.828,1.344l-0.341,0.641
		l-0.543,1.359l-0.562,0.884l-0.121,0.265L387.169,302.27z M444.816,98.643l0.524-0.295l0.128,0.087l0.248,0.316l0.21,0.407
		l-0.183,0.153l-0.341,0.096l-0.264,0.251l-0.023,0.291l0.18,0.603l0.025,0.291l-0.062,0.22l-0.109,0.072l-0.308-0.038l-0.186,0.007
		l-0.483,0.175l-0.495,0.066l-0.511-0.078l-0.967-0.373l0.175-0.223l-0.521-0.496l-0.246-0.05l-0.297,0.262l-0.233,0.087
		l-0.093-0.354l0.047-0.509l0.203-0.363l0.18,0.03l1.204-0.03l0.262,0.165l0.192,0.298l0.25,0.145l0.441-0.291L444.816,98.643z
		 M460.992,95.195l-0.151,0.063l-0.148,0.041l-0.156,0.015l-0.155-0.008l-0.1-0.009l-0.194-0.056l-0.291-0.145l-0.062-0.101
		l0.034-0.114l0.065-0.13l0.034-0.083l0.022-0.092l-0.011-0.101l-0.045-0.111l-0.15-0.116l-0.198-0.05l-0.183-0.118l-0.116-0.324
		l0.646-0.202l0.16,0.237l0.257,0.778l0.266,0.033l0.202,0.104l0.155,0.195L460.992,95.195z M437.305,88.278l0.315-0.207
		l0.376,0.149l0.315,0.349l0.133,0.405l0.163,0.715l-0.046,0.29l-0.36,0.121l-0.85-0.024l-0.232-0.116l0.349-0.265l0.012-0.329
		l-0.234-0.73L437.305,88.278z M444.004,81.902l0.099,0.187l0.213,0.244l0.175,0.305v0.375l-0.213,0.247l-0.361,0.139l-0.403,0.048
		l-0.324-0.014l-0.465-0.653l0.347-0.563l0.606-0.335L444.004,81.902z M453.626,85.045l0.461,0.647l0.194,0.162l-0.468,0.993
		l-0.223,0.219l-0.335,0.04l-0.183-0.22l-0.081-0.357l-0.012-0.372l-0.135-0.318l-0.313,0.101l-0.355,0.209l-0.256,0.008
		l-0.124-0.306l-0.056-0.749l-0.079-0.26l-0.189-0.143l-0.198,0.007l-0.576,0.137l0.082-0.259l-0.006-0.181l-0.083-0.165
		l-0.17-0.219l-0.551,0.188l-0.678-0.299l-0.541-0.596l-0.163-0.704l0.617,0.748l0.18,0.077l0.22-0.241l-0.003-0.37l-0.051-0.399
		l0.077-0.319l0.203-0.511l-0.327-0.255l-0.48-0.244l-0.273-0.5l0.709,0.009l0.313-0.115l0.264-0.298l-0.471-0.489l-0.092-0.59
		l0.272-0.456l0.616-0.093l0.238,0.093l0.212,0.18l0.155,0.273l0.059,0.372l0.104,0.175l0.708,0.535l-0.465,0.229l0.05,0.338
		l0.341,0.353l0.625,0.389l0.609,0.257l0.231,0.046l0.211,0.113l-0.117,0.262l-0.223,0.304l-0.122,0.236l-0.085,0.447l-0.132,0.323
		l-0.008,0.346l0.307,0.508l0.1,0.108l0.127,0.091l0.134,0.063l0.133,0.024l0.079,0.048v0.12l-0.026,0.138L453.626,85.045z
		 M487.34,185.52l0.166,0.524l0.154-0.008l0.144,0.179l0.391,0.205l0.616,0.477l0.171,0.165l0.31,0.2l0.415,0.013l0.812-0.106
		l0.757,0.199l-0.088,0.423l-0.419,0.614l-0.25,0.761l-0.11,0.239l-0.257,0.24l-0.296,0.181l-0.547,0.215l-0.186,0.345l-0.54,2.07
		v0.116l0.029,0.149l0.013,0.182l-0.042,0.209l-0.093,0.066l-0.369,0.157l-0.125,0.086l-0.32,0.603l-0.79,2.738l-0.512,1.26
		l-0.326,0.522l-0.104,0.288l-0.02,0.41l0.043,0.786l-0.016,0.208l-0.046,0.147l-0.307,0.473l-0.07,0.145l-0.375,1.071l-0.586,1.159
		l-0.958,1.401l-1.038,0.967l-0.199,0.092l-0.229-0.115l-0.201-0.244l-0.217-0.14l-0.26,0.186l-0.602,0.868l-0.209,0.518
		l-0.086,0.628l0.156-0.274l0.193-0.213l0.215-0.132l0.25-0.038l-1.53,3.146l-0.262,2.228l-0.407,0.703l-0.583,0.039l-0.597-0.144
		l-0.461,0.15l-1.385,2.268l-1.42,1.43l-0.205,0.399l-0.038,0.316l-0.1,0.365l-0.128,0.346l-0.474,0.904l-0.163,0.113l-0.386,0.052
		l-0.175,0.128l-0.161,0.286L472,221.816l-0.551,0.908l-0.832,2.095l-0.383,1.487l-0.363,0.609l-1.178,0.493l-0.504,0.572
		l-0.41,0.721l-0.266,0.661l-0.761,2.879l-0.505,1.197l-2.414,3.393l-3.634,3.008l-0.878,0.941l-1.195,0.867l-1.394,0.725
		l-5.247,4.141l-1.633,0.654l-0.391,0.293l-0.789,0.897l-0.386,0.161l-1.826,0.174l-0.376-0.21l-0.222-0.995l-0.378-0.317
		l0.127-0.477l-0.11-0.349l-0.203-0.324l-0.157-0.39l-0.02-0.448l0.385-2.365l-0.113-0.341l-0.259-0.223l-2.848-1.106l-0.646-0.072
		l-0.611,0.155l-0.545,0.387l-1.169,1.277l-0.229,0.176l-0.256,0.045l-0.383-0.091l-0.525-0.39l-0.321-0.329l-0.048-0.264
		l0.311-0.604l-0.045-0.525l-0.156-0.581l-0.031-0.774l0.182-0.671l0.524-1.244l0.11-0.81l-0.273-0.712l-0.627-0.185l-0.705,0.123
		l-0.495,0.232l-0.376,0.302l-0.281,0.317l-0.2,0.387l-0.135,0.51l1.115,0.285l0.336,0.309l-0.15,0.728l-0.158,0.25l-0.22,0.203
		l-0.257,0.057l-0.267-0.199l-0.25-0.093l-0.273,0.209l-0.294,0.286l-0.315,0.147l-1.089-0.224l-1.164-0.606l-0.871-0.904
		l-0.225-1.098l0.274-0.63l0.435-0.238l1.082-0.216l0.394-0.351l0.919-1.134l0.603-0.551l0.583-1.348l0.362-0.309l0.516-0.226
		l0.311-0.367l0.241-0.014l0.315,0.823l0.302-0.286l0.126-0.28l-0.011-0.324l-0.094-0.421l-0.129-0.085l-0.286-0.382l-0.179-0.417
		l0.188-0.195l0.273-0.133l0.419-0.577l0.285-0.133l0.273-0.088l0.302-0.216l0.276-0.287l0.205-0.288l0.178-0.39l0.068-0.313
		l0.079-0.788l0.502-1.439l0.219-0.477l1.407-1.546l1.335-2.25l1.12-2.512l0.648-2.141l0.252-0.539l0.202-0.635l0.088-1.769
		l0.128-0.718l0.011-0.161l-0.021-0.207l0.004-0.182l0.079-0.076l0.173-0.002l0.225-0.039l0.152-0.099l-0.152-0.487l-0.076-0.477
		l-0.025-0.465l0.038-0.265l0.207-0.55l0.299-1.79l0.093-1.241l-0.039-0.325l-0.139-0.27l-0.374-0.736l-0.308-2.037l-0.451-1.681
		l-0.312-0.825l-0.374-0.704l-1.812-1.892l-0.479-0.869l-2.179-2.494l-1.664-1.051l-1.322-0.625l-0.616-0.114l-1.043,0.011
		l-0.888,0.01l-1.918-0.717l-1.46-0.151l-0.61-0.147l-0.571-0.375l-2.535-2.408l-0.456-0.57l-1.387-2.21l-0.974-1.029l-1.19-0.68
		l-1.285-0.413l-4.061-0.649l-1.382-0.472l-3.224-2.417l-0.871-0.944l-0.721-1.237l-0.455-1.428l-0.144-1.402l0.122-1.413
		l0.313-1.469l0.704-1.374l1.086-0.878l2.454-1.106l6.096-3.837l0.522-0.157l3.172,0.23l1.152-0.387l1.047-0.79l2.857-2.993
		l0.36-0.637l0.196-1.119l0.22-0.721l0.05-0.4l-0.001-0.939l0.096-0.219l0.045-0.101l0.365-0.104l-0.158-0.541l0.07-0.463
		l0.151-0.451l0.082-0.534l0.063-5.257l0.198-1.136l0.838-1.922l0.302-1.068l0.182-1.172l0.119-1.785l0.237-1.08l0.027-0.636
		l-0.118-0.546l-0.2-0.549L433.773,140l0.113-0.454l0.376,0.204l0.446,0.043l0.443-0.086l0.379-0.161l0.031,0.34l0.124,0.291
		l0.165,0.232l0.151,0.172h0.149v-0.431l0.364,0.273l0.295,0.392l0.336,0.215l0.482-0.245l-0.179-0.13l-0.484-0.505l0.627-0.237
		l0.737,0.095l0.671-0.049l0.432-0.638l-0.448-0.002l-0.186,0.061l-0.18,0.165l-0.175-0.224l0.068-0.598l-0.477-0.45l-0.666-0.21
		l-0.482,0.133l-0.177,0.345l-0.093,0.301l-0.156,0.211l-0.383,0.079l-0.233-0.192l-0.029-0.439l0.08-0.488l0.107-0.33l0.215-0.314
		l0.206-0.103l0.236-0.039l0.306-0.138l0.746-0.847l0.394-0.28l0.027-0.586l-0.284-0.517l-0.544-0.059l-0.394,0.519l-0.205,0.711
		l-0.297,0.381l-0.657-0.48l-0.088-0.556l0.177-2.866l0.643-1.421l1.128-0.415l1.35-0.013l1.285-0.209l-0.09-0.26l-0.148-0.186
		l-0.192-0.123l-0.234-0.049l0.329-0.25l0.256-0.344l0.086-0.411l-0.169-0.456l-0.991,0.618l-0.114,0.137l-0.091,0.341l-0.118,0.14
		l-0.095-0.03l-0.139-0.095l-0.166-0.059l-0.727,0.335l-0.408-0.48l-1.523-5.91l-1.379-3.326l-0.255-1.377l0.004-0.323l0.214-0.361
		l0.271-0.166l0.698-0.178l0.268-0.176l0.259-0.563l0.21-0.682l0.313-0.581l0.574-0.239l0.05-0.114l-0.116-0.219l-0.248-0.12
		l-0.329,0.165l-0.232,0.2l-0.465,0.298l-0.196,0.2l-0.683,1.224l-0.337,0.168l-0.527-0.454l-0.351-0.553l-0.964-2.297l-0.245-0.95
		l-0.559-1.074l-0.092-0.262l-0.141-0.637l-1.01-1.924l-0.167-0.828l0.392-0.039l0.668,0.161l0.953-0.292l0.348,0.122l0.237,0.25
		l-0.051,0.313l-0.229,0.326l-0.039,0.177l1.199,2.366l0.095,0.964l0.343,0.75l0.413,0.332l0.256-0.704l-0.293-0.772l-0.062-0.467
		l0.273-0.207l0.707,0.134l0.31-0.034l0.354-0.287l-0.478,0.019l-1.198-0.226l-0.426-0.202l0.357-0.175l1.292-1.138l0.163,0.071
		l-0.02,0.649l0.986-1.197l0.541-0.43l0.585-0.059l0.907,1.058l0.315,0.182l0.333-0.142l0.062-0.339l-0.114-0.408l-0.199-0.351
		l0.043-0.323l-1.216-0.49l-0.455-0.394l-0.371,0.137l-0.223-0.385l-0.167-0.57l-0.215-0.44l-0.611,0.733l-0.344-0.293l-0.047-0.662
		l0.271-0.371l0.276-0.08l0.291-0.218l0.233-0.299l0.095-0.327l-1.536-0.277l-1.612,0.083l-0.794,0.233l-0.63,0.48l-0.203,0.369
		l-0.149,0.72l-0.119,0.335l-0.23,0.308l-0.195,0.013l-0.564-0.525l-0.334,0.525l-0.511,0.46l-0.562,0.196l-0.48-0.255l-0.271-0.525
		l-0.966-3.401l-0.524-2.803l-0.449-1.334l-1.235-2.264l-3.282-4.161l-0.702-1.362l-0.147-1.36l0.065-0.342l0.099-0.265l0.185-0.169
		l0.304-0.033l-0.262,0.805l-0.029,0.404l0.125,0.425l0.386-0.791l0.231-0.314l0.345-0.125l0.334,0.219l0.356,0.972l0.477,0.448
		l0.54,0.982l0.341,0.23l0.398,0.11l0.233,0.276l-0.023,0.333l-0.365,0.29l0.963,0.362l0.255,0.044l0.027,0.068l-0.239,0.154
		l-0.355,0.14l-0.325,0.044l0.226,0.181l0.093,0.239l-0.027,0.283l-0.128,0.311l0.285,0.024l0.223,0.078l0.48,0.324l-0.011-0.208
		l0.024-0.421l-0.013-0.203l0.237,0.414l0.241,0.679l0.238,0.333l0.247-0.594l0.254,0.024l0.099-0.334l0.046-0.485l0.104-0.442
		l0.156-0.199l0.379-0.331l0.129-0.283l-0.372,0.136l-0.129,0.068l-0.205-0.579l0.225-1.325l-0.182-0.34l-0.212,0.444l-0.098-0.22
		l-0.004-1.545l-0.011-0.096l0.09-0.152l0.398-0.451l-0.186-0.323l-0.287-0.322l-0.201-0.332l0.099-0.338l0.524-0.477l-0.038-0.171
		l-0.749-0.47l-0.158,0.015l-0.396,0.505l-0.294,0.281l-0.214,0.133l-1.399,0.106l-0.755-0.174l-0.524-0.501l-0.156-0.949
		l0.325,0.186l0.183-0.707l0.259-0.07l0.326,0.222l0.372,0.152l1.012-0.072l0.48-0.152l0.384-0.281l0.38-0.387l0.303-0.202
		l0.709-0.32l0.648-0.605l0.237-0.103l0.201-0.013l0.148-0.103l0.081-0.385l-0.14-0.135l-0.058-0.026l-0.04-0.05l-0.088-0.192
		l-0.252,0.264l-0.31,0.183l-0.334,0.106l-0.093,0.009l-0.243,0.024l-0.233,0.116l-0.564,0.539l-0.262,0.17l-0.186-0.344
		l-0.389,0.258l-0.468,0.449l-0.435,0.243l-0.6-0.116l-0.341-0.13l-0.198-0.158l-0.121-0.526l0.237-0.121l0.697,0.226l0.4,0.374
		l0.177,0.032l0.127-0.751l0.367-0.949l0.555-0.723l0.147-0.324l0.047-0.211l0.027-0.257l0.109-0.434l0.395,0.192l0.297-0.046
		l0.072-0.266l-0.279-0.468l-0.236-0.158l-0.904-0.259l0.116,0.905l-0.316,0.999l-0.579,0.812l-0.682,0.341l0.367-0.49l0.121-0.115
		l-0.267-0.096l-0.264,0.048l-0.201-0.013l-0.081-0.26l-0.064-0.463l-0.153-0.087l-0.205,0.063l-0.214-0.017l-0.259-0.099
		l-0.151,0.01l-0.074-0.101l-0.019-0.416l0.026-0.328l0.084-0.305l0.215-0.574l-0.378,0.024l-0.257,0.189l-0.501,0.591l0.101-0.818
		l-0.36-0.018l-1.043,0.835l0.252,0.242v0.639l0.32,0.128l0.43,0.002l0.302,0.053l0.234,0.176l0.248,0.375l-0.147,0.42v0.284
		l0.223,0.121l0.176-0.061l0.121-0.141l0.192-0.308l0.219,0.002l0.259,0.26l0.423,0.651l-0.857,0.231l-0.136,0.063l-0.054,0.284
		l-0.14,0.156l-0.201,0.057l-0.237-0.002l-0.191-0.106l-0.31-0.409l-0.232-0.092l-0.264-0.038l-0.153-0.106l-0.57-0.847
		l-0.211-0.432l-0.264-0.42l-0.409-0.375l-0.44-0.094l-1.136-0.038l-0.229-0.178l-0.149-0.279l-0.355-0.374l-0.414-0.321
		l-0.316-0.141l-0.375-0.231l-0.163-0.54l-0.02-1.144l-0.151-0.446l-0.684-0.719l-0.273-0.88l-0.295-0.345l-0.736-0.544l0.874-0.817
		l0.226-0.455l-0.11-0.736l-0.138-0.196l-0.251-0.258l-0.26-0.182l-0.165,0.016l-0.048,0.388l0.175,0.284l0.234,0.207l0.128,0.143
		l-0.146,0.641l-0.907,0.491l-0.099,0.473l1.223,1.723l0.163,0.305l0.496,0.302l0.206,0.691l0.104,0.777l0.186,0.547l0.169,0.257
		l0.297,0.652l0.186,0.315l0.225,0.165l0.304,0.137l0.27,0.19l0.207,0.572l0.212,0.205l0.243,0.18l0.18,0.172l1.308,2.019
		l0.301,0.178l0.363-0.053l0.342,0.014l0.214,0.373l-0.487,0.224l0.231,0.356l0.482,0.5l0.263,0.645l-0.194,0.621l-0.472,0.4
		l-1.11,0.486l-1.153,0.029l-0.569-1.035l-0.759-2.848l-3.094-4.25l-0.857-1.728l-5.372-7.273l-5.371-7.251l-0.151-0.548
		l0.173-0.472l0.786-1.058l0.18-0.487l0.05-0.66l0.167-0.675l0.306-0.38l0.466,0.227l0.133-0.29l0.03-0.129l0.238,0.262l0.223,0.331
		l0.256,0.285l0.341,0.122l0.053-0.207l-0.045-1.016l0.074-0.376l0.648,1.018l0.135-0.5l0.015-0.576l0.103-0.549l0.412-0.407
		l0.225-0.009l0.136,0.142l0.148,0.071l0.302-0.204l0.097-0.195l0.151-0.61l0.389-0.663l-0.871,0.263l-0.268-0.082l0.006-0.345
		l-0.027-0.216l-0.113-0.115l-0.263-0.033l-0.086,0.157l-0.004,1.059l-0.263-0.436l-0.388-1.374l-0.419,0.437l0.101,0.536
		l0.299,0.547l0.183,0.471l-0.135,0.52l-0.385,0.256l-0.466-0.007l-0.61-0.399l-0.239-0.029l-0.132,0.107l0.225,0.573l-0.151,0.14
		l-0.263,0.064l-0.208,0.09l-0.221,0.131l-0.157-0.1l-0.279-0.442l-0.18-0.007l-0.268,0.147l-0.465,0.371l0.21,0.415l-0.156,0.194
		l-0.299,0.135l-0.225,0.251l-0.006,0.171l0.059,0.15l0.069,0.087l0.041-0.009l-0.081,2.171l-0.081,0.244l-0.217,0.047l-0.194-0.191
		l-2.044-2.87l-0.287-0.79l0.124-0.487l0.814-0.934l-0.162,0.009l-0.326-0.024l-0.163,0.015l0.473-0.549l0.203-0.302l0.139-0.327
		l-0.727,0.116l-0.432,0.456l-0.268,0.667l-0.217,0.757l-0.256-0.219l-0.747-0.87l-0.133-0.309l0.194-0.24l0.841-0.627l0.279-0.345
		l-0.353-0.114l-0.682,0.403l-0.442,0.104l-0.412-0.128l-0.328-0.291l-0.562-0.757l-0.949-1.008l-0.175-0.385l0.054-0.57
		l0.341-0.161l0.465,0.102l0.427,0.227l0.77-1.079l0.454-1.368l0.086-1.493l-0.318-1.463l-0.761-1.816l-0.313-0.483l-1.435-1.463
		l-0.438-0.621l-0.739-1.896l-0.308-0.3l-0.425-0.225l-4.856-6.437l-0.962-0.832l-2.021-1.221l0.243-0.233l0.157-0.213l0.248-0.535
		l-0.045-0.236l-0.032-0.461l0.112-0.29l0.385,0.274l0.541,0.287l1.397,0.061l0.599,0.363l0.304-0.321l0.744-0.169l0.719-0.483
		l2.708,0.24l0.419-0.077l0.264-0.226l0.245-0.286L394.674,30l0.369,0.407l-0.686,0.437l-0.184,0.578l0.043,1.547l-0.062,0.386
		l-0.093,0.24l-0.203,0.13l-0.381,0.035l-0.117-0.16l-0.094-0.344l-0.174-0.343l-0.339-0.141l0.047-0.135l0.068-0.338l0.048-0.139
		l-0.475-0.17l-0.178,0.055l-0.178,0.726l-0.081,0.635l-0.175,0.184l-0.392-0.245l-0.022,0.292l-0.093,0.229l-0.153,0.169
		l-0.219,0.121l0.235,0.261l0.754,0.563l0.068-0.323l0.117-0.268l0.182-0.181l0.271-0.052l-0.125,0.431l-0.081,0.197l-0.118,0.196
		l0.257,0.175l0.243,0.018l0.2-0.134l0.128-0.294l0.13,0.344l0.043,0.374l-0.011,1.668l0.092,0.201l0.234-0.194l0.268-0.678
		l0.06-0.854l-0.143-0.832l-0.365-0.617l0.62,0.315l0.358,1.417l0.236,1.694l0.263,1.134l0.775,0.889l0.981,0.871l0.803,0.984
		l0.225,1.219l-1.16-1.386l-0.496-0.399l0.093,1.031l0.997,1.02l3.176,1.877l-0.07,0.335l-0.508,0.62l-0.148,0.246l-0.077,0.293
		l-0.016,1.202l0.067,0.161l0.155-0.022l0.263,0.014l0.786,0.23l0.192-0.014l0.186-0.258l0.076-0.342l0.125-0.296l0.342-0.128
		l0.302-0.362l-0.054-0.817l-0.329-1.404l0.13-0.641l0.448-0.199l0.588-0.103l0.559-0.345l0.163-0.388l-0.053-0.34l-0.11-0.278
		v-0.189l0.259-0.255l0.2-0.005l0.153,0.203l0.116,0.358l0.025,0.26l-0.036,0.265l-0.147,0.468l0.721-0.364l0.268-0.049
		l-0.123,0.298l0.072,0.239l0.358,0.456l-0.975,0.411h-0.996l-0.227,0.099l-0.163,0.466l0.118,0.548l0.238,0.516l0.222,0.373
		l0.325,0.44l0.402,0.383l0.465,0.268l0.521,0.098l1.156-0.134l0.457,0.156l0.442,0.591l0.271-0.471l0.054-0.143l-0.259-0.326
		l-0.307-0.286l-0.229-0.337l-0.034-0.456l0.232-0.504l0.315-0.018l0.325,0.298l0.266,0.44l0.285-0.293l0.325-0.042l0.272,0.149
		l0.252,0.641l0.341,0.139l0.723,0.002l0.079-0.061l0.058-0.14l0.095-0.135l0.18-0.062l0.233,0.067l0.04,0.158l-0.014,0.192
		l0.059,0.163l0.13,0.187l0.07,0.203l0.093,0.161l0.203,0.059l0.186,0.017l0.157,0.047l0.314,0.134l-0.308,0.164l-0.144,0.262
		l-0.084,0.299l-0.128,0.27l-0.535,0.406l-0.231,0.25l0.039,0.247l0.815,0.705l0.496-0.038l0.112-0.114l-0.047-0.192l0.014-0.272
		l0.489-0.992l0.02-0.177l-0.056-0.432l0.036-0.17l0.168-0.151l0.402-0.064l0.429-0.224l0.355-0.024l0.693,0.049l-0.064,0.156
		l0.203,0.341l0.41,0.495l0.961,0.734l0.373,0.462l0.152,0.713l0.326,0.535l0.754,0.118l1.373-0.158l0.572,0.154l0.587,0.403
		l0.458,0.602l0.189,0.733l-0.991,0.313l-0.271-0.107l-0.076-0.265l-0.022-0.325l-0.104-0.296l-0.118,0.04l-0.197,0.149
		l-0.246-0.005l-0.284-0.401l-0.578,0.32l-0.243,0.192l0.224,0.185l0.453,0.697l-0.809,0.102l-0.073,0.41l0.369,0.3l0.512-0.216
		l0.232,0.181l0.256,0.061l0.262-0.061l0.239-0.181l0.29,0.457l-0.049,0.397l-0.172,0.37l-0.069,0.37l0.15,0.366l0.898,0.936
		l0.125,0.254l0.076,0.356l0.053,0.784l0.069,0.084l0.163-0.314l0.163-0.471l0.076-0.405l0.471,0.267l0.25,0.1l0.273,0.033
		l-0.053-0.129l-0.07-0.321l-0.043-0.131l0.346-0.024l0.201,0.147l0.147,0.186l0.193,0.09l0.218-0.125l0.059-0.283l-0.081-0.28
		l-0.196-0.124l-0.529-0.057l-0.682-0.18l-0.586-0.304l-0.226-0.456l0.162,0.2l0.332-0.337l0.569-0.033l1.214,0.17l-0.121-0.294
		l-0.058-0.104l0.247-0.029l0.318,0.048l0.243,0.085l0.002,0.095l0.266-0.157l0.036-0.099l-0.004-0.14l0.124-0.285l0.651-0.705
		l0.733-0.605l0.186,0.719l-0.205,0.594l-0.322,0.593l-0.147,0.68l0.182,0.694l0.403,0.296l0.52,0.057l0.534-0.031v0.18
		l-0.229,0.414l0.729,0.891l-0.353,0.311l-0.141-0.094l-0.669-0.704l-0.748-0.582l-0.229-0.236l0.395,0.649l0.871,1.966l0.536,0.413
		l0.489,0.057l0.488,0.124l-0.02-0.042l0.025-0.082l0.06-0.067l0.098,0.009l0.096,0.1l0.084,0.248l0.063,0.052l0.202,0.217
		l0.561,1.028l0.13,0.355l-0.939,0.133l0.108,0.353l1.246,1.02l1.152,1.224l0.21,0.692l-0.311,0.992l-0.363-0.204l-1.07-0.177
		l-0.43-0.02l-0.25,0.151l0.395,0.337l0.902,0.496l-0.126,0.039l-0.345,0.18l0.611,0.144l0.249,0.115l0.101,0.251l-0.083,0.303
		l-0.21,0.21l-0.262,0.129l-0.259,0.073l1.4,0.864l0.245,0.316l0.018,0.363l-0.158,0.703l0.059,0.265l0.566,1.092l-0.655,0.177
		l-0.487-0.309l-0.451-0.487l-0.535-0.362l0.166-0.549l-0.682-0.201l0.027-0.473l-0.357,0.029l-0.612,0.263l-0.345,0.091
		l-0.166-0.046l-0.245-0.272l-0.152-0.064l-0.163,0.093l-0.128,0.414l-0.109,0.095l-0.378,0.015l-0.048-0.057l0.079-0.244
		l0.006-0.535l-0.073-0.416l-0.12-0.354l-0.191-0.323l-0.263-0.308l-0.11,0.645l0.114,1.591l-0.085,0.495l-0.124,0.301l-0.031,0.385
		l0.065,0.361l0.171,0.23l0.367,0.06l0.209-0.246l0.146-0.38l0.18-0.325l0.432-0.077l1.579,0.206l0.515,0.181l0.393,0.512
		l-0.099,0.579l-0.407,0.584l-0.535,0.532l0.392,0.42l0.085,0.719l-0.029,0.755l0.036,0.534l0.291,0.369l1.068,0.796l0.448,0.241
		l0.29,0.055h0.601l0.261,0.149l0.232,0.379l-0.029,0.273l-0.135,0.251l-0.069,0.319l0.119,0.695l0.253,0.361l0.353,0.283
		l0.414,0.473l1.333,2.075l0.764,0.867l0.991,0.688l0.616,0.262l0.018,0.165l-0.146,0.397l0.014,0.08l0.079,0.039l0.053,0.053
		l-0.064,0.132l-0.084,0.046l-0.079-0.032l-0.056-0.064l-0.008-0.05l-0.128,0.099l-0.093-0.048l-0.07,0.029l-0.052,0.325
		l0.186,0.541l0.533,0.217l0.663,0.091l0.57,0.178l-0.719,0.125l-1.965-0.106l-0.408,0.072l0.061,0.411l0.333,1.221l0.383,0.788
		l0.047,0.507l-0.055,0.533l-0.1,0.472l-0.484-1.402l-0.377-0.588l-0.62-0.25l0.434,1.306l-0.054,0.501l-0.543,0.029v0.223
		l0.233,0.075l0.206,0.127l0.193,0.169l0.182,0.217l-0.17,0.309l-0.501,0.313l-0.144,0.207l-0.004,0.392l0.259,0.523l0.07,0.399
		l-0.013,0.609l0.114,0.082l0.306,0.324l0.237,0.164l0.332,0.092l0.654,0.048l1.015-0.399l0.285-0.007l0.25,0.208l-0.11,0.161
		l-1.099,0.641l-0.585,0.227l-0.386-0.041l-0.998-0.385l0.489,0.515l0.364,0.733l1.425,4.471l-0.518-0.15l-0.308-0.279l-0.339-0.116
		l-0.625,0.341l-0.201-0.149l-0.087-0.185l0.016-0.222l0.108-0.257l-0.461-0.107l-0.338-0.815h-0.344l-0.848,0.433l-0.375,0.257
		l-0.398,0.435v0.203l0.205,0.024l0.842-0.13l0.419,0.106l-0.222,0.218l-0.341,0.225l-0.229,0.236l0.124,0.237l0.38,0.233
		l0.112,0.109l-0.018,0.174l0.03,1.268l0.104,0.405l0.294,0.168l0.194-0.152l0.032-0.364l-0.02-0.409l0.047-0.316l0.158,0.229
		l0.202-0.34l0.217-0.285l0.256-0.229l0.3-0.164l0.374-0.063l1.108,0.247h1.493l0.519,0.342l-0.077,0.898l-0.24,0.36l-0.235,0.194
		l-0.122,0.262l0.11,0.57l0.135,0.386l0.128,0.208l0.158-0.039l0.231-0.334l0.65-3.253h0.163l0.519,1.405l0.186,0.681l-0.041,0.779
		l0.541-0.146l0.609-0.024l0.299-0.223l-0.389-0.727l-0.093-0.495l0.558-0.14l0.756,0.089l0.501,0.206l0.285,0.681l-0.268,1.361
		l0.307,0.519l0.367,0.1l0.29-0.12l0.268-0.189l0.4-0.131l0.561-0.393l0.144,0.061l0.129,0.118l0.116,0.043l0.78-0.373l0.215-0.05
		l0.245,0.094l0.511,0.432l0.309,0.102l0.193,0.116l0.845,1.058l0.167,0.294l0.121,0.353l0.064,0.436l-0.025,0.691l-0.301,2.08
		l0.11,0.686l0.276,0.647l0.369,0.565l0.367,0.45l0.862,0.496l1.062,0.032l1.085-0.28l0.923-0.453l0.191-0.193l0.077-0.201
		l0.128-0.154l0.331-0.063l0.196,0.137l0.072,0.316l-0.018,0.67l0.128,0.591l0.315,0.359l0.423,0.07l0.437-0.287l-0.372-0.104
		l-0.252-0.315l-0.144-0.442l-0.101-0.95l-0.219-0.797l-0.052-0.38l-0.414-0.899l-0.076-0.435l0.027-1.575l-0.114-0.371l-0.106-0.24
		l-0.563-1.838l-0.167-0.347l-0.229-0.349l-0.29-0.292l-0.599-0.439l-0.251-0.271l-0.144-0.321l-0.076-0.314l-0.124-0.301
		l-0.302-0.281l0.502-0.184l0.572,0.104l0.522-0.007l0.351-0.504l-0.779,0.017l-0.369-0.059l-0.329-0.182l0.295-0.111l0.296-0.07
		l0.25-0.129l0.151-0.301l-0.205-0.007l-0.158-0.065l-0.14-0.087l-0.147-0.063l1.198-0.339l0.396-0.353l-0.117-0.732l-0.38,0.267
		l-0.12,0.144l-0.163-0.289l-0.121-0.306l-0.013-0.304l0.149-0.3l-0.54-0.898l0.169-0.79l0.308-0.72l-0.117-0.672l-0.201-0.101
		l-0.27-0.048l-0.238-0.096l-0.106-0.261l-0.069-0.078l-0.43-0.613l-0.425-0.237l-0.89-0.338l-0.396-0.364l-0.203-0.394
		l-0.118-0.487l-0.067-1.143l0.196-0.421h0.478l0.587,0.107l0.791-0.169l0.155,0.147l0.101,0.239l0.146,0.268l0.093,0.233
		l0.051,0.092l0.093,0.092l0.193,0.111l0.491,0.47l0.243,0.031l0.621-0.704l0.434,0.555l0.276,0.748l-0.041,0.763l-0.522,0.585
		l0.498,0.405l0.541,0.011l0.427,0.14l0.178,0.782l0.065,0.755l-0.065,0.386l-0.25-0.13l-0.313-0.252l-0.232,0.062l-0.081,0.254
		l0.144,0.341l0.273,0.124l0.686-0.104l0.262,0.083l0.156,0.333l-0.082,0.31l-0.161,0.292l-0.076,0.303l0.168,0.858l0.333,0.085
		l0.961-0.759l-0.341-0.153l-0.144-0.031l0.167-0.273l0.299-0.102l0.333,0.056l0.266,0.206l0.29,0.142l0.349-0.172l0.584-0.486
		l0.434-0.16l0.341-0.024l0.301,0.136l0.316,0.353l0.266,0.049l0.322-0.187l0.248-0.031l0.048,0.494l-0.13,0.392l-0.244,0.103
		l-0.674-0.09l-0.115,0.146l-0.459,0.871l-0.311,0.206l-0.614,0.247l-0.297,0.247l-0.38,0.524l-0.353,0.623l0.285,0.234
		l-0.018,0.216l-0.089,0.218l0.058,0.236l0.268,0.269l0.286,0.184l0.193-0.014l-0.024-0.325l0.378-0.31l-0.186-0.935l0.311-0.402
		l0.524,0.276l0.973-0.214l0.546,0.454l0.09,0.326l-0.031,0.771l0.104,0.32l0.372,0.487l0.104,0.236l0.101,0.393l0.146,1.424
		l-0.079,0.949l0.007,0.172l0.047,0.294l-0.151,0.32l-0.196,0.33l-0.103,0.309l0.121,0.207l0.256-0.165l0.273-0.318l0.151-0.246
		l0.43,0.558l-0.081,0.751l-0.349,0.788l-0.397,0.673l-0.027,0.253l0.24,0.097l0.318,0.056l0.205,0.104l0.081,0.369l-0.036,0.87
		l0.116,0.394l-0.229-0.161l-0.178-0.236l-0.133-0.298l-0.108-0.326h-0.18l0.107,0.75l0.178,0.653l0.034,0.523l-0.32,0.339
		l0.809,0.385l0.279,0.278l0.226,0.548l0.234,1.173l0.092,1.197l0.102,0.476l0.434,0.937l0.101,0.439l0.072,0.212l0.335,0.264
		l0.095,0.249l-0.009,0.393l-0.118-0.056l-0.18-0.174l-0.194,0.041l-0.194,0.469l0.225,0.199l0.958,0.154l0.397,0.174l0.428,0.269
		l0.398,0.327l0.327,0.347l0.245,0.401l0.375,0.888l0.198,0.364l0.681,0.645l0.288,0.372l0.093,0.519l-0.854-0.671l-0.285-0.147
		l-0.367-0.034l-0.355,0.059l-0.365-0.063l-0.391-0.372l0.244-0.137l0.747-0.273l-0.831-0.587l-0.4-0.372l-0.327-0.386L465,121.79
		l-0.618-0.031l-1.115,0.212l0.146,0.18l0.217,0.333l0.113,0.122l-0.086,0.171l-0.069,0.212l-0.032,0.223l0.037,0.216l0.156,0.222
		l0.144,0.032l0.121-0.043l0.067-0.006l0.126,0.099l0.252,0.05l0.097,0.056l0.043,0.164l-0.058,0.184l-0.097,0.161l-0.038,0.103
		l0.111,0.675l0.038,0.147l0.121,0.141l0.124,0.064l0.419,0.02l0.187-0.069l0.128-0.149l0.091-0.149l0.083-0.063l0.421,0.212
		l0.198,0.365l0.138,0.435l0.231,0.446l0.372-0.262l0.236,0.177l0.201,0.323l0.245,0.175l0.341-0.159l0.121-0.312l0.158-0.244
		l0.456,0.078l0.32,0.206l0.134,0.27l0.029,0.37l-0.008,0.507l0.121,0.272l0.299-0.012l0.379-0.114l0.354-0.044l-0.325-1.455
		l-0.535-0.896l-0.127-0.426l0.318-0.113l0.465,0.407l0.843,1.528l0.58,0.344l0.651,0.162l1.439,0.705l0.689,0.162l0.272,0.123
		l0.573,0.569l0.296,0.128h0.713l0.115,0.122l0.104,0.194l0.162,0.091l0.286-0.201l4.756,3.485l0.966,0.467l1.505,0.251l1.434,0.555
		l1.621,0.236l1.303,0.836l2.215,0.3l0.896,0.502h-1.395l-0.262,0.082l0.144,0.192l1.1,0.784l0.307,0.145l0.344,0.057l0.307-0.161
		l0.058-0.366l-0.103-0.418l-0.175-0.315l0.402-0.103l0.232,0.14l0.198,0.222l0.309,0.155h1.558l0.057,0.063l0.262,0.454l0.14,0.097
		l0.111-0.046l0.104-0.103l0.14-0.052l0.094-0.097l-0.015-0.213l0.002-0.215l0.161-0.095l0.268-0.022l0.711-0.185l2.135-0.155
		l0.569-0.362l0.431-0.388l1.842-1.15l0.728-0.625l0.248-0.324l0.095-0.275l-0.002-0.769l0.397-0.736l0.076-0.294l0.144-0.184
		l0.992-0.545l0.369-0.53l0.271-1.102l0.271-0.53l0.36-0.417l0.148-0.267l0.062-0.353l0.175-0.212l2.372-0.686l0.484-0.035
		l0.428-0.132l0.316-0.333l0.564-0.872l0.367-0.198l1.059-0.115l0.444-0.197l0.313-0.342l0.081-0.293l-0.112-0.331l-0.283-0.472
		l0.941,0.196l5.864,0.291l0.557,0.174l0.297,0.249l-0.322,0.323v0.205l0.291,0.138l0.437,0.47l0.259,0.215l0.396,0.149l0.404,0.059
		l0.837-0.007l0.295,0.095l0.457,0.426l0.313,0.095l0.733-0.015l0.297,0.059l0.353,0.162l0.38,0.303l0.517,0.549l0.374,0.61
		l-0.045,0.508l-0.2,0.272l-0.451,0.757l-0.898,0.946l-0.482,1.401l-0.33,0.744l-0.857,0.603l-0.344,0.664l-0.668,1.895
		l-0.262,0.479l-0.395,0.512l-0.181,0.295l-0.078,0.33l0.179,0.708l0.353,0.63l0.25,0.66l-0.128,0.788l-0.386,0.404l-0.48,0.364
		l-0.233,0.479l0.597,1.277l-0.081,0.606l-0.283,0.597l-0.365,0.524l-0.131,0.626l0.329,0.603l0.461,0.528l0.246,0.41l-0.075,0.341
		l-0.21,0.292l-0.384,0.423l-0.104,0.386l-0.058,0.667l-0.158,0.399l0.292,0.103l0.243,0.218l0.142,0.321l-0.014,0.431l-0.167,0.253
		l-0.896,0.474l-0.104,0.265l0.02,1.97l-0.132,0.247l-2.687,3.003l-2.429,2.159l-0.418,0.226l-0.941-0.877l-0.606-0.137
		l-0.599,0.157l-0.5,0.372l-0.21,0.099l-0.147-0.064l-0.09,0.021l-0.025,0.362l0.008,0.159l0.074,0.323l0.05,0.145l0.442,0.472
		l0.205,0.34l-0.056,0.35l-0.419,0.762l-0.151,0.681l-0.021,1.608l-0.256,1.794l-0.326,0.903l-0.062,1.202l-0.17,0.509l0.207,0.606
		l-0.192,0.447l-0.313,0.449l-0.175,0.614l1.646,0.181l0.784,0.404l0.334,0.774l-1.299,1.343l-0.564,1.549l-0.208,0.986
		l-0.294,0.348l-0.376,0.308l-0.365,0.399l-0.651-1.886l-0.178-0.986l0.018-0.905l0.123-0.505l0.184-0.5l0.211-0.444l0.219-0.342
		l0.02-0.361l-0.338-0.247l-0.448,0.036l-0.312,0.474l-0.252-0.121l-0.725-0.504l-0.363-0.14l-3.763-0.175l-3.858-0.105
		l-0.294-0.117l-0.216-0.208l-0.223-0.07l-0.616,0.565l-4.413,2.171l-3.268,1.576l-0.286,0.372l-0.102,0.679l-0.251,0.675
		l-0.323,0.603l-0.579,0.793l-0.859,0.934l-0.555,0.439l-0.082,0.1l-0.263,0.848l-0.299,0.392l-0.166,0.352l-0.079,0.401
		l-0.019,0.54l0.082,0.515l0.205,0.276l0.268,0.219l0.271,0.344l0.171,0.628l0.14,2.876L487.34,185.52z"/>
</g>
<g id="Copyright">
	<text transform="matrix(1 0 0 1 681.6426 577.5911)" class="st1 st2"> Vemaps.com</text>
</g>
</svg>
