<?xml version="1.0" encoding="utf-8"?>
<!-- Generator: Adobe Illustrator 23.0.1, SVG Export Plug-In . SVG Version: 6.00 Build 0)  -->
<svg version="1.1" xmlns="http://www.w3.org/2000/svg" xmlns:xlink="http://www.w3.org/1999/xlink" x="0px" y="0px"
	 viewBox="0 0 800 600" style="enable-background:new 0 0 800 600;" xml:space="preserve">
<style type="text/css">
	.st0{fill:#808080;}
	.st1{font-family:'Roboto-Regular';}
	.st2{font-size:14px;}
</style>
<g id="Paraguay">
	<path class="st0" d="M149.445,217.974l1.362-3.215l1.676-6.093l1.584-5.731l2.6-8.722l2.172-7.274l2.779-9.297l2.04-6.798
		l2.175-7.454l2.092-7.144l1.938-6.623l1.919-6.566l0.228-4.192l0-0.033l-0.114-9.295l-0.074-6.13l-0.068-5.606l-0.068-5.794
		l0.505-1.698l2.172-3.316l1.301-1.891l1.247-1.812l2.665-3.866l2.668-3.871l2.665-3.863l2.665-3.868l0.992-1.517l0.989-1.516
		l0.992-1.509l0.995-1.516l0.767-1.64l0.396-0.837l0.377-0.797l0.767-1.64l0.773-1.64l1.679-4.661l1.676-4.666l1.676-4.657
		l1.676-4.648l1.125-3.115l0.478-0.752l0.952-0.399l5.307-0.811l1.282-0.196l2.813-0.432l2.818-0.432l1.279-0.196l20.18-4.395
		l20.177-4.399l20.179-4.391l20.18-4.389l8.979-1.952l4.893-0.065l11.236-0.144l11.23-0.15l11.233-0.144l11.23-0.15l4.84-0.065
		l1.186,0.3l1.787,1.273l1.704,1.221l3.007,1.868l5.558,3.462l5.564,3.463l5.561,3.458l5.564,3.459l5.558,3.467l5.561,3.461
		l5.558,3.469l5.564,3.464l2.335,1.461l0.647,0.734l0.194,0.904l-0.182,2.096l0.12,2.032l1.017,3.631l0.197,1.987l-0.157,1.41
		l0.08,2.676l-0.096,1.325l-0.881,3.36l0.043,1.654l0.028,1.018l0.357,0.223l0.493-0.072l0.419,0.131l0.425,0.44l0.561,0.722
		l0.117,0.67l-2.19,0.762l-0.441,1.064l0.379,1.176l1.149,0.808l0.364-0.099l0.28-0.368l0.37-0.361l0.613-0.039l0.397,0.236
		l0.478,0.493l0.283,0.604l-0.573,1.748l0.132,1.616l0.413,1.577l0.465,1.065l0.946,1.104l1.282,1.006l1.34,0.723l1.131,0.283
		l0.881,0.506l-0.163,1.131l-0.94,1.842l-0.126,1.289l0.065,1.632l0.25,1.533l0.681,1.527l0.046,0.717l-0.065,1.382l0.16,0.882
		l0.783,1.244l0.28,0.705l-0.028,0.685l-0.447,1.225l0.028,0.738l0.37,0.718l0.561,0.448l0.514-0.073l0.548-2.22l0.786-0.487
		l0.949,0.152l0.823,0.586l0.243,0.395l0.342,0.942l0.228,0.408l0.376,0.356l0.918,0.652l0.521,0.514l0.151,0.613l-0.453,0.481
		l-0.699,0.316l-1.297,0.27l-0.471,0.356l-0.672,0.758l-0.903,0.672l-0.438,0.573l0.385,0.389l1.547,0.145l1.214,0.251l1.011,0.672
		l0.659,0.969l0.151,1.154l-0.613,0.659l-2.462,1.372l-0.551,0.818l0.185,0.719l0.407,0.31l0.41,0.119l0.182,0.158h0.302
		l1.377,1.141l1.365,1.484h0.401l0.256-1.115l1.1,0.963l0.092,1.392l-0.558,1.478l-1.615,2.508l0.043,0.905l0.937,1.948l0.367,2.847
		l-0.243,2.993l-0.829,2.71l-1.362,2.01l-1.688,1.25l-0.314,0.496l-0.037,0.8l0.296,0.489l0.376,0.337l0.179,0.357l0.496,0.668
		l0.955,0.291l0.641,0.628l-0.462,1.674l-3.971,6.162l-0.915,2.185l-0.231,1.351l0.062,1.424l0.496,1.133l1.085,0.464l0.567,0.55
		l-0.431,1.279l-0.764,1.458l-0.41,1.094l0.25,1.087l0.625,1.154l0.749,0.922l0.635,0.378l0.33,0.61l-2.588,4.292l0.034,1.241
		l0.219,1.175l-0.056,1.228l-0.789,1.401l-0.416,1.109l0.551,0.923l0.829,1.056l0.441,1.481l-0.271,0.797l-1.389,2.624l-0.561,0.565
		l-0.132,0.625l-1.309,3.768l-0.092,0.884l0.022,0.971l0.105,0.665l0.782,0.423l0.016,0.009l0.684,0.572l0.533,1.024l0.742,0.798
		l2.012,0.678h0.641l1.032-0.439l0.407-0.06l0.508,0.299l0.844,0.931l0.287,0.219l0.721-0.166l0.955-0.825l0.613,0.02l0.607,0.153
		l0.465-0.087l0.721-0.366l-0.142-0.106l0.022-0.339l0.108-0.379l0.117-0.219l0.222-0.02l0.576,0.213l0.243-0.007l1.183-0.446
		l0.78,0.066l0.795,0.24l1.211,0.053l0.662-0.186l0.459-0.259l0.425-0.113l0.548,0.253l0.927,2.574l0.699,1.324l0.783,0.765
		l1.035,0.26l1.43-0.213l0.521-0.213l0.24-0.18l0.314-0.087l0.739,0.08l0.459,0.186l1.396,0.925l2.308-0.546l0.508,0.007
		l1.239,0.486l0.65,0.047l0.86,0.333l1.96,1.251l0.379,0.007l0.216-0.393l0.499,0.12l0.918,0.519l0.675-0.013l0.305-0.339
		l0.105-0.406l0.077-0.193l0.921,0.08l2.662,0.652l1.146-0.206l1.488-1.245l0.816-0.2l0.259,0.253l0.182,0.992l0.41,0.346
		l0.57,0.047l0.379-0.173l0.339-0.226l0.45-0.106l0.967,0.146l1.787,0.679l0.545,0.279l0.025,0.14l0.08,0.28l0.286,0.266
		l1.057,0.186l0.339,0.107l0.348,0.033l0.453-0.186l0.724-0.193l1.898,0.153l0.983-0.08l1.473,0.486l0.641,0.02l0.665-0.439
		l-0.055,1.032l0.296,0.253l0.502-0.08l0.567,0.027l1.052,0.539l0.605,0.033l0.662-1.671l0.696,0.985l0.613,1.611l0.129,0.819
		l1.4,0.207l0.787-0.266l1.383-1.518l0.388-0.599l0.074-0.419l0.216-0.106l0.818,0.293l0.451-0.047l1.946-0.592l0.451,0.087
		l0.071,0.286l0.123,0.126l0.616-0.406l0.277-0.426l0.478-1.158l0.308-0.26l1,0.519l2.029,2.35l0.94,0.226l0.279-0.519l-0.63-1.165
		l0.379-0.386l0.665-0.2l0.477-0.226l1.993-1.498l0.642-0.705l1.017-1.817l0.156-0.153l0.434-0.226l0.203-0.279l0.33-1.018
		l0.185-0.399l0.912-1.35l0.539-0.592l0.616-0.545l1.041-0.312l4.295-0.778l0.844,0.086l0.616,0.672l1.578,3.931l1.402,2.129
		l1.818,1.757l3.324,1.99l1.762,1.724l1.029,0.646l1.041,0.253l10.26,0.519l0.796-0.226l0.763-0.426l0.795,0.386l0.857,0.686
		l0.931,0.479l3.716,0.353l1.106,0.679l0.142-0.46l0.655-1.332l2.996,4.096l2.422,1.826l0.591,0.68l0.516,1.566l0.196,5.461
		l0.419,2.341l1.034,2.095l1.551,1.675l1.981,1.108l1.212,0.441l0.784,0.467l0.448,0.768l0.191,1.335l-0.062,0.501l-0.328,1.068
		l-0.046,0.548l0.126,0.561l0.387,1.042l0.051,0.568l-0.612,2.151l-1.034,1.871l-0.779,1.965l0.145,2.42l1.328,4.99l-0.003,1.117
		l-0.336,2.182l0.129,1.098l1.571,1.841l0.642,0.998l0.325,1.266l-0.293,2.364l0.045,1.072l0.639,0.844l1.658,1.025l0.222,0.57
		l1.306,4.827l-0.025,1.086l-1.393,2.951l-0.188,1.073l0.391,1.456l1.832,1.96l0.656,1.228l-0.1,2.001l-1.605,3.613l0.152,2.257
		l0.365,1.945l0.044,0.232l-0.049,2.339l0.2,2.178l1.146,1.688l2.643,2.852l1.291,4.051l0.903,12.587l0.567,1.692l1.349,1.457
		l1.839,0.836l3.747,0.29l1.885,0.411l0.003,0.007h0.006l0.009,0.007l2.121,0.789l2.144,0.445l2.112-0.175l2.037-1.059h0.012v-0.013
		l1.52-0.776l3.773,0.034l1.836-0.553l1.009-0.486l1.998-0.088l1.038-0.169l1.008-0.607l1.303-1.753l0.773-0.809l3.845-2.191
		l7.786-2.729l1.017-0.552l1.502-1.644l0.917-0.458l1.59,0.438l10.099,5.788l1.208,0.903l3.297,4.625l5.604,3.38l1.661,0.909
		l0.028,0.015l-1.248,0.999l-2.077,1.566l-1.414,1.85l-0.589,2.005l0.166,1.053l0.767,2.074l0.29,2.446l0.468,0.818l1.408,1.872
		l0.496,1.501l0.792,2.042l-0.068,1.901l-0.567,2.023l-0.739,1.434l-2.314,3.472l-0.693,2.119l-0.015,2.005l0.841,4.499
		l-0.037,2.128l-2.213,6.762l-0.757,2.313l-1.707,2.504l-0.45,1.079l-2.742,11.937l-0.536,2.264l-0.114,1.231l0.052,1.109
		l0.484,1.272l1.519,2.531l0.185,1.246l-0.539,1.157l-2.012,1.872l-0.718,1.171l-1.319,4.312l-1.485,2.351l-1.109,1.472
		l-1.704,1.561l-1.331,2.455l-0.706,2.326l-0.12,0.744l-0.037,1.419l0.234,1.461l0.598,1.202l0.419,1.249l-0.16,1.578l-0.345,1.591
		l-0.015,0.148l-0.12,1.157l0.952,2.132l0.173,1.333l-0.903,0.595l-2.1-0.116l-0.547,0.629l-0.015,1.743l1.086,3.461l0.171,1.307
		l0.293,0.896l1.349,1.67l0.394,0.801l-0.099,1.465l-0.576,1.178l-0.647,1.048l-0.308,1.082l0.471,2.987l0.055,1.24l-0.527,1.001
		l-0.504,0.171l-1.446,0.089l-0.491,0.233l-0.362,0.713l0.04,0.665l0.199,0.692l0.294,2.016l0.644,2.126l-0.037,1.489l-1.232,4.248
		l0.231,1.009l1.078,1.305l0.213,0.858l-0.382,0.749l-0.685,0.982l-0.485,0.879l-0.038,0.175l-0.07,0.319l0.148,1.305v2.996
		l-0.918,2.097l-0.082,0.358l-0.177,0.371l-0.576,4.065l-0.274,1.08l-0.525,0.908l-1.83,2.092l-1.677,1.391l-0.897,1.088
		l-0.565,1.205l0.063,0.937l0.314,0.944l0.188,1.233l-0.055,1.53l-0.219,1.64l-0.484,1.482l-0.832,1.082l-0.615,0.303l-0.328-0.165
		l-0.274-0.345l-0.45-0.248h-2.646l-1.43,0.365l-0.987,0.952l-0.646,1.324l-0.784,3.07l-0.433,1.173l-0.589,0.987l-0.85,1.035
		l-0.984,0.456l-2.919,0.255l-1.202,0.449l-3.868,3.902l-0.411,1.14l0.823,2.633l-0.205,1.451l-0.957,0.802l-1.383,0.242
		l-2.363-0.124l-0.921-0.283l-1.104-0.601l-1.274-0.512l-1.434-0.021l-2.91,1.617l-2.791,0.359l-1.198,0.366l-1.054,0.705
		l-1.004,1.106l-0.71,1.279l-0.362,1.363l-0.148,3.093l-0.628,1.066l-1.463,0.138l-1.645-0.173l-1.183,0.132l-0.687,1.059
		l-0.248,1.378l-0.347,1.205l-0.978,0.519l-1.582,0.402l-0.042,1.011l1.437,2.744l0.256,0.79l0.114,0.714l-0.122,0.7l-0.796,1.366
		l0.049,0.451l0.148,0.548l-0.052,0.929l-0.578,1.533l-0.963,1.151l-1.266,0.728l-1.485,0.25l-1.674,1.298l-2.134,2.547l-2.22,1.77
		l-3.603-1.986l-1.605-0.451l-0.719-0.416l-0.515-0.68l-0.898-2.519l-0.893-1.256l-1.208-0.472l-1.388,0.028l-1.448,0.222
		l-0.324,0.011l-1.118,0.038l-1.314-0.271l-3.986-1.567l-0.029-0.006l-1.473-0.286l-1.527-0.111l-1.516,0.867l-1.128,0.867
		l-2.178,2.511l-1.346,0.611l-1.714,0.472l-1.376,0.763l-0.327,1.458l0.229,1.833l-0.229,1.5l-0.696,1.34l-1.162,1.313l-1.163,1.695
		l-0.815,2.064l-1.066,1.633L522.107,570l-0.034-0.014l-1.852-0.758l-1.796-1.446l-1.541-1.793l-1.126-1.82l-2.398-3.028
		l-0.029-0.004l-3.939-0.579l-1.491,0.438l-2.689,0.791l-3.047,2.403l-2.201,0.424l-0.021-0.013l-2.143-1.328l-3.685-3.715
		l-2.092-0.861l-0.006,0.001l-2.179,0.228l-2.166,0.889l-5.897,3.271l-1.953,0.445l-2.335-0.111l-0.508-0.083l-1.396-0.028
		l-0.021-0.007l-0.641-0.202l-0.548-0.354l-1.59-1.361l-0.598-0.299l-0.029-0.008l-2.709-0.746l-0.564-0.155l-0.625-0.347
		l-0.425-0.425l-0.964-0.963l-0.533-0.361l-1.266-0.346l-0.234-0.064l-1.568,0.007l-6.02,0.868l-1.531-0.153l-0.392-0.137
		l-0.939-0.328l-9.665-4.947l-0.023-0.008l-0.667-0.241l-6.094-1.283l-0.02-0.007l-2.556-0.874l-0.018-0.004l-2.648-0.573
		l-0.828-0.179l-1.827-0.783l-0.02-0.004l-3.536-0.755l-1.091-0.233l-0.005,0l-1.877-0.055l-3.605,0.666l-0.884,0.048l-6.522-0.846
		l-16.249,1.435l-5.33,2.316l-0.24,0.222l0.004-0.048l0.252-3.315l-0.099-1.372l-0.742-1.275l-1.473-1.109l-0.813-0.811
		l-0.361-0.866l0.305-1.932l0.863-1.364l1.353-0.81l3.019-0.526l0.296-0.699l-0.111-1.031l0.012-1.204l0.148-0.588l0.197-0.526
		l0.28-0.491l0.373-0.477l0.547-0.317l0.013-0.008l0.33,0.291l0.148,0.484v0.263l0.058,0.166l0.418,0.282l0.013,0.009l0.493,0.111
		l0.237-0.339l0.049-1.114l0.111-0.464l0.21-0.526l0.536-0.934l1.063-1.314l0.471-0.947l-0.893-0.809l-0.123-0.885l0.49-0.843
		l0.933-0.657l2.64-0.712l1.291-0.525l0.548-0.843l0.595-0.636l2.73-0.228l0.783-0.67l-0.379-1.161l-1.088-0.822l-0.715-0.932
		l0.736-1.464l0.995-0.318l1.063,0.352l1.011,0.159l0.819-0.877l-0.219-0.545l-0.481-0.766l-0.083-0.676l0.986-0.29l0.724,0.014
		l0.447-0.083l0.228-0.338l0.163-5.201l0.271-1.269l0.305-0.758l0.194-0.083l0.305,0.228l1.876,0.365l0.705-0.048l0.311-0.407
		l-0.163-0.607l-0.345-0.531l-0.293-0.6l-0.012-0.786l0.225-0.207l1.014-0.744l0.391-0.42l-0.333-0.365l-0.524-0.944l-0.363-0.51
		l-1.346-0.985l-0.32-0.379l-0.237-1.13l0.188-1.012l0.327-1.033l0.166-1.163l0.191-0.523l0.838-0.633l0.194-0.688l-1.442-1.363
		l-0.206-0.839l0.41-1.06l1.997-3.556l0.302-0.949l0.16-1.093l-0.302-2.131l0.003-1.079l0.484-0.467l0.946-0.213l1.353-0.57
		l1.032-0.797l-0.037-0.893l-0.872-0.625l-0.949-0.481l-0.703-0.673l-0.142-1.188l0.604,0.22l0.474,0.282l0.333,0.378l0.216,0.481
		l0.524-0.728l0.533-1.373l0.573-2.231l0.607-0.632l3.87-1.427l1.99-1.139l6.886-5.192l0.776-1.063l0.006-0.884l-2.758-0.816
		l0.453-1.001l2.083-1.72l0.37-0.514l0.342-0.76l-0.062-0.692l-1.368-0.514l-0.169-0.466l0.169-0.466l1.26-0.479l1.251-0.671
		l0.809-0.597l0.408-0.3l0.653-0.917l-0.906-2.245l-0.213-1.273l0.897-0.554l1.094-0.383l1.152-0.889l1.004-1.047l0.638-0.841
		l-0.641-0.171l-0.564-0.26l-0.471-0.376l-0.364-0.547l1.245-1.914l0.742-0.718l1.272-0.533l0.669-0.062l0.625,0.048l0.588-0.061
		l0.558-0.376l0.222-0.513l0.311-1.476l0.117-0.307l1.747,0.232l0.937-0.027l0.404-0.41l0.277-1.537l0.653-0.471l0.807-0.205
		l0.706-0.744l0.314-1.175l0.783-5.735l-0.071-1.078l-0.428-0.867l-0.801-0.901l-3.7-2.913l-0.025-0.798l-1.806-4.642l-0.029-0.02
		l-1.81-1.247l-1.158-1.635l-1.926-4.298l-0.712-0.858l-1.867-0.919l-0.9-0.674l-2.628-3.09l-0.847-0.755l-1.18-0.435l-4.726-0.014
		l-0.835-0.279l-0.363-0.667l-0.225-0.748l-0.407-0.551l-0.558-0.122l-1.331,0.17l-0.592-0.048l-4.141-2.108l-0.746,0.041
		l-0.588-0.993l-5.376-3.725l-1.1,0.034l-0.992,0.741l-1.676,1.76l-0.718,0.523l-0.755,0.388l-0.675,0.109l-0.758-0.224
		l-0.317-0.374l-0.182-0.517l-0.37-0.639l-3.83-4.308l-1.414-1.99l-0.73-0.727l-1.349-0.686l-13.165-2.58l-0.308-0.312l-0.151-0.523
		l-0.37-0.278l-0.468-0.211l-0.434-0.339l-0.847-0.258l-3.041-0.075l-1.236-0.319l-11.43-8.703l-1.895-0.468l-0.579-0.427
		l-1.195-1.193l-0.579-0.366l-0.367-0.074l-1.125-0.014l-1.18-0.434l-2.231-1.477l-1.402-0.495l-1.704-1.213l-2.48-0.854
		l-0.57-0.461l-0.327-0.44l-0.438-0.345l-0.903-0.135l-0.564-0.21l-0.776-0.928l-1.961-0.731l-0.98-1.219l-1.214-2.322l-0.556-0.636
		l-2.322-2.05l-1.445-0.663l-0.211-0.514l-0.148-0.595l-0.205-0.453l-0.368-0.325l-1.297-0.575l-1.357-0.791l-0.639-0.5
		l-0.648-0.717l-0.475-0.345l-1.1-0.223l-1.012-0.622l-1.497-0.196l-0.596-0.216l-0.43-0.399l-1.049-1.44l-2.284-2.358
		l-21.465-14.265l-1.077-0.27l-1.231,0.128l-2.798,1.005l-1.428,0.324l-4.464,0.142l-4.668-0.715l-1.884,0.101l-0.558-0.101
		l-0.636-0.364l-1.165-1.052l-0.642-0.405l-0.541-0.088l-2.124,0.088l-3.686-0.728l-1.958-1.409l-1.088-0.533l-2.134-0.101
		l-0.345-0.121l-0.957-2.083l-0.062-0.371l-0.55-0.121l-1.032-0.58l-0.656-0.229l-0.689-0.061l-2.74,0.148l-0.581-0.155
		l-1.218-1.058l-0.562-0.189l-3.487,0.086l-1.734,0.043l-1.238-0.148l-1.713-1.038l-2.003-1.657l-2.189-1.084l-2.275,0.667
		l-1.879-1.212l-0.564-0.572l-0.86-1.438l-0.359-0.377l-0.108-0.875l-0.712-1.346l-0.967-1.238l-1.568-0.902l-1.021-1.709
		l-0.549-0.599l0.542-1.07l0.21-1.48l-0.216-1.318l-0.738-0.572l-1.029-0.356l-0.892-0.807l-0.796-0.894l-0.741-0.612l-0.447-0.061
		l-1.189,0.087l-0.4-0.027l-0.547-0.383l-1.154-1.183l-0.538-0.249l-1.232-0.37l-0.616-0.887l-0.359-1.028l-0.476-0.826
		l-3.865-1.733l-1.376-0.067l-0.824-0.235l-0.599-0.423l-0.702-0.645l-0.906-0.645l-0.967-0.41l-1.095-0.215l-1.285-0.061
		l-0.55-0.349l-0.555-1.524l-0.952-0.624l0.052-0.651l0.279-0.745l0.282-0.537l-1.067-0.027l-0.704-0.128l-0.528-0.275l-3.012-3.187
		l-0.863-0.416h-2.816l-0.803-0.235l-0.504-0.309l-0.934-1.046l-0.841-0.59l-0.863-0.382l-0.672-0.557l-0.271-1.133l-0.04-1.2
		l-0.166-0.764l-0.37-0.623l-0.644-0.771l-0.641-0.563l-1.349-0.771l-0.693-0.637l-1.352-1.977l-0.478-0.482l-6.646-4.072
		l-2.123-2.35l-0.826-1.245l-0.009-0.294l-0.173-0.301l0.308-1.512l-0.136-0.616l-0.662-0.977l-1.112-2.388l-0.872-1.318
		l-1.263-1.331l-0.548-0.749l-0.225-0.789l-0.284-0.013l-0.588-0.401l-0.514-0.468l-0.056-0.227l-0.422-0.207l-0.231-0.495
		l-0.166-0.581l-0.216-0.481l-1.63-1.804l-0.373-0.688l-0.259-0.728l-0.4-0.555l-0.798-0.234l-0.243-0.347l0.736-1.516l-1.14-0.728
		l0.025-0.841l0.416-1.422l-0.317-0.668l-0.216-0.114l-0.354,0.047l-0.74-0.187l-1.479-0.681l-0.779-0.654l-0.009-0.808l0.841-1.168
		l0.336-1.081l-0.474-1.154l-1.322-1.548l-0.327-0.093l-0.404,0.033l-0.345-0.093l-0.145-0.467l0.012-0.714l-0.055-0.327
		l-0.16-0.307l-0.434-0.267l-0.669-0.2l-2.124-0.287l-0.439-0.059l-1.165-0.447l-4.162-2.887l-1.008-1.02l-0.416-0.973l-0.514-0.447
		l-2.394-0.753l-0.755-0.34l-1.445-1.905l-1.017-0.859l-1.408-0.36l-0.675-0.08l-0.807-0.24l-0.724-0.413l-0.441-0.586l0.111-0.533
		l0.394-0.566l0.234-0.673l-0.367-0.865h0.407l-0.311-0.499l-0.416-0.419l-0.511-0.293L149.445,217.974z"/>
</g>
<g id="Copyright">
	<text transform="matrix(1 0 0 1 681.6426 577.5916)" class="st1 st2">© Vemaps.com</text>
</g>
</svg>
