<?xml version="1.0" encoding="utf-8"?>
<!-- Generator: Adobe Illustrator 23.0.1, SVG Export Plug-In . SVG Version: 6.00 Build 0)  -->
<svg version="1.1" xmlns="http://www.w3.org/2000/svg" xmlns:xlink="http://www.w3.org/1999/xlink" x="0px" y="0px"
	 viewBox="0 0 800 600" style="enable-background:new 0 0 800 600;" xml:space="preserve">
<style type="text/css">
	.st0{fill:#808080;}
	.st1{font-family:'Roboto-Regular';}
	.st2{font-size:14px;}
</style>
<g id="Serbia">
	<path class="st0" d="M334.001,39.325l6.172,7.72l1.178,2.121l2.061,6.476l1.502,2.279l1.675,1.256l3.857,1.723l1.848,1.256
		l5.167,4.802l1.787,0.854l3.746,0.416l1.837,0.744l1.513,1.517l3.259,5.861l0.69,0.656l1.705,1.158l0.69,0.881l0.335,1.173
		l0.213,2.869l0.118,0.451l0.237,0.903l0.954,1.609l2.254,2.91l0.934,1.906l1.178,1.084l1.309,0.291l1.32-0.4l1.238-1.018
		l0.579-1.629l0.863-1.208l1.086-0.451l1.208,0.626l0.812,1.375l-0.02,1.287l-0.386,1.331l-0.244,1.447l0.081,7.311l-0.264,1.99
		l-0.396,1.213l-1.086,2.57l-0.761,3.512l0.355,2.292l2.883,4.996l1.259,3.247l-0.254,1.963l-1.421,1.463l-2.203,1.781l0.629,1.962
		l1.421,0.948l1.756,0.565l1.624,0.796l1.411,1.447l3.208,4.73l6.344,5.768l3.786,5.02l1.502,1.227l3.455,1.58l4.645,2.123
		l1.015,0.801l0.832,0.96l0.863,0.779l1.157,0.281l0.954-0.454l1.584-1.753l1.005-0.253l1.594,1.191l3.35,4.97l1.604,1.903
		l3.259,2.307l1.756,0.735l4.142,0.13l10.436,3.278l2.771,1.512l2.517,2.06l2.455,2.972l0.875,1.059l0.447,1.842l-0.365,1.748
		l-1.238,1.079l-1.228,0.072l-1.025,0.518l-0.842,0.877l-0.741,1.129l0.132,0.201l0.061,0.863v1.028l-0.061,0.69l-0.274,0.582
		l-0.832,1.006l-0.294,0.582l-0.386,1.954l-0.051,0.977l-0.315,0.668l-1.238,1.034l-1.025,0.359l-2.507,0.18l-0.975,0.495
		l-0.711,1.106l-0.467,1.436l0.203,1.17l1.33,0.352l1.665,0.086l0.305,0.71l-0.244,0.919l0.061,0.753l2.284,1.549l4.72,0.832
		l2.457,1.219l3.421,1.341l1.442,1.283l0.792,2.243l-0.274,2.658l-1.391,1.182l-3.99,1.132l-2.761,0.423l-5.705-0.286l-2.629,0.938
		l-1.279,1.146l-0.893,1.518l-0.355,1.897l1.669,0.732l0.077,0.034l1.766,1.352l1.705,3.656l1.594,0.751l8.354,0.937l6.01-0.501
		l1.929,0.551l1.726,1.623l0.853,2.209l0.589,2.494l0.924,2.493l3.594,3.628l4.802,1.463l5.076-0.029l4.406-0.914l3.594-1.564
		l1.685-0.45l1.624,0.343l8.882,4.654l3.137,0.514l0.974,0.97l2.741,6.654l0.203,0.987l0.19,0.921l0.358,1.741l0.528,1.055
		l1.035,0.976l1.117,0.677l0.903,0.898l1.046,3.987l1.705,1.673l2.193,0.961l2.122,0.242l2.345-0.612l1.279-1.345l11.187-20.212
		l0.579-2.17l1.452-1.099l4.071-0.928l1.919-1.171l3.421-3.771l1.035-0.807l2.406,0.093l1.807,0.386l1.452,0.857l6.832,7.576
		l3.36,2.733l3.309,1.648l7.756,0.942l1.431,1.041l4.954,5.553l-0.579,2.501l-1.726,1.767l-2.193,1.033l-1.888,0.349l-2.122-0.513
		l-3.573-2.422l-2.061-0.841l-2.051-0.078l-1.949,0.591l-1.462,1.389l-0.568,2.293l-0.305,2.385l-0.812,1.345l-1.269,0.577
		l-3.452,0.157l-0.914,0.299l-0.68,0.612l-0.426,1.288l-0.254,1.85l-0.02,1.792l0.294,1.124l2.061,1.906l0.437,0.953l0.091,1.031
		l-0.233,2.175l0.112,1.052l1.726,3.985l2.619,3.585l3.289,2.824l3.766,1.717l4.061,0.582l1.868,0.872l0.782,1.865l-0.406,6.592
		l0.528,2.026l0.089,0.061l-4.21,1.979l-0.863,0.914l-1.492,2.457l-1.594,1.854l-0.234,0.177L566,309.439l0.112,0.729l0.193,0.432
		l0.142,0.007l-1.015,4.053l-0.193,1.542l0.102,1.336l0.64,2.891l0.01,1.201l-1.157,2.112l-1.746,0.346l-2.02-0.141l-2.01,0.72
		l-1.137,1.702l-0.751,1.97l-1.107,1.419l-2.183,0.064l-1.529,0.247l-3.1,0.501l-2.213,0.96l-1.198,1.856l-0.223,1.693l-0.051,3.956
		l-0.223,2.129l-0.254,0.61l-0.974,1.815l-0.294,0.69l-0.193,4.086l-0.934,4.193l-1.259,3.139l-0.518,2.965l1.289,3.685l2.548,3.068
		l0.101,1.058l-0.365,2.269l0.02,1.131l0.437,1.773l0.629,1.773l0.782,1.66l0.893,1.428l1.228,1.147l2.893,1.603l1.015,0.989
		l0.65,1.788l0.091,3.113l0.751,1.675l0.031,0.091l0.02,0.07l-0.02,0.07l-0.031,0.056l-0.325,0.491l-0.102,0.491l0.102,0.505
		l0.325,0.466l0.122,0.326l0.041,0.333l-0.041,0.35l-0.122,0.35l-0.274,0.669l-0.102,0.679l0.081,0.669l1.198,2.486l1.837,6.439
		l0.934,2.585l1.35,1.273l3.259,1.556l0.68,0.703l1.38,1.856l0.934,0.713l1.045,0.238l2.122-0.115l0.914,0.255l0.741,0.821
		l1.096,2.313l0.235,0.256l0.566,0.617l0.934,0.349l1.868-0.098l0.954,0.112l1.614,0.726l0.489,0.353l0.851,0.615l7.025,7.096
		l1.239,1.821l0.355,1.074l0.305,2.462l0.305,1.067l0.609,0.91l2.375,2.387l2.599,3.553l1.37,1.383l1.746,1.09l4.832,1.055
		l1.634,0.731l0.151,1.573l0.164,1.71l-1.035,4.502l-1.807,4.43l-2,3.055l-0.802,0.594l-1.665,0.789l-0.833,0.743l-0.487,0.945
		l-0.711,2.466l-0.518,1.038l-4.122,3.916l-1.299,1.86v0.021l-0.01,0.007h-0.01l-1.279,0.503l-2.721,0.645l-1.147,0.694l-0.69,1.134
		l-0.609,1.696l-1.736,6.517l-0.583,1.503l-0.077,0.198l-1.157,1.406l-2.984,1.271l-2.984,0.734l-7.4-2.005l-2.68,0.35l-1.34,0.928
		l-0.51,0.757l-0.029,0.043l-0.68,0.409l-1.746-0.27l-1.35,0.031l-0.883,0.765l-1.533,2.368l-1.035,0.886l-2.497,1.332l-0.853,0.789
		l-0.624,0.965l-0.3,0.464l-0.152,0.505l0.345,0.498l2.335,5.692l1.32,2.015l1.462,1.164l0.112,0.401l0.031,0.408l-0.031,0.415
		l-0.112,0.401l-1.31,1.251l-2.558,4.897l0.7,1.833l-0.457,3.295l-0.318,1.388l-1.225,5.354l-0.345,2.657l0.426,0.193l5.086,4.771
		l3.015,2.19l1.249,1.536l0.751,1.879v0.021l0.396,1.999l-0.335,2.769l-1.34,4.88l-1.046,2.128l-1.106,0.763l-1.228,0.271
		l-1.502,0.725l-1.513,1.986l-1.563,4.88l-1.421,1.881l-1.787,0.577l-4.091,0.076l-1.878,1.002l-1.939-0.117l-1.736-0.666
		l-1.573-1.205l-1.441-1.706l-0.284-0.962l-0.071-2.26l-0.437-0.646l-0.893,0.165l-2.589,2.686l-13.542,5.722l-3.401,0.628
		l-1.522-0.177l-1.746-0.203l-3.208-1.15l-5.248-2.722l-1.228-0.268l-1.056,0.501l-3.33,2.9l-0.69,0.172l-3.929-0.045l-1.98,0.453
		l-9.594,5.866l-1.278,0.781l-1.421,1.731L474.855,570l-1.689-0.082l-3.441-0.956l-4.873,0.099l-1.078-0.566l-1.003-3.675
		l-3.827-5.822l0.112-3.203l2.091-2.218l5.827-1.79l2.04-1.934l0.436-2.065l-0.487-4.225l0.203-2.039l0.873-1.482l3.929-3.957
		l4.893-8.137l0.985-3.067l-0.091-0.507l-0.69-1.165l-0.142-0.579l0.183-0.383l0.67-0.334l0.183-0.255l0.122-0.362l0.538-2.703
		l-0.081-0.397l0.964-0.721l1.177-0.531l1.035-0.68l0.558-1.173l-0.822-2.954l-1.978-1.31l-0.55-0.364l-2.924-0.673l-2.111,0.048
		l-4.253,1.94l-1.441,0.014l-1.645-1.094l-3.157-3.985l-1.502-1.333l-2.233-0.753l-9.887-1.375l-2.359,0.071l-1.204,0.036
		l-1.655-0.501l-0.985-0.681l0.051-0.384l0.467-0.397l0.315-0.667l0.335-2.067l1.33-4.492l0.416-2.245l0.008-2.812l0.002-0.704
		l-0.934-1.014l-1.979-0.097l-3.147-0.744l-1.015-0.62l-1.909-1.628l-1.046-0.648l-1.117-0.26l-2.294,0.014l-1.086-0.305
		l-2.761-3.263l-0.558-4.242l-0.142-4.165l-1.523-2.997l-1.645-0.271l-1.34,0.982l-1.381,0.736l-1.716-1.01l-0.842-1.773
		l-1.502-7.048l-1.523-3.13l-1.563-1.227l-6.558-0.361l-2.03-0.775l-1.152-0.675l-7.95-4.664l-7.263-4.263l-0.639-1.096l0.396-0.111
		l0.294-1.754l0.152-1.957l-0.061-0.689l1.127-1.041l0.995,0.31l0.305,0.024l-0.944-1.902l-0.65-0.902l-0.985-1.042l-1.868-1.558
		l-0.954-0.296l-1.503-0.467l-2.447,0.3l-2.375,1.077l-7.695,5.824l-2.172,0.856l-3.198,0.139l-0.812,0.581l-0.639,1.751l0.254,1.5
		l1.177,2.543l0.832,2.908l0.538,1.293l0.589,0.869l0.873,0.268l1.056-0.139l0.995,0.049l0.721,0.827l-0.416,3.281l-2.071,4.457
		l-2.609,4.048l-2.051,2.02l-1.188,0.024l-1.127-0.326l-1.025-0.021l-0.883,0.927l-0.934,2.061l-0.538,0.885l-0.782,0.739
		l-1.898,0.666h-1.736l-1.675,0.513l-1.665,2.195l-0.832,3.754l1.543,1.681l2.182,1.382l0.536,1.572l0.439,1.286l-2.213,2.995
		l-4.741,1.994l-8.121,1.768l0.964-5.189l-0.152-3.325l-1.624-2.144l-6.04-3.074l-5.147-3.727l-2.812-1.231l-5.269-0.534
		l-1.125-0.375l-1.23-0.409l-5.952-5.928l-0.192-0.191l-3.388-3.377l-5.908-4.196l-0.974-0.99l-0.741-1.307l-0.558-1.38
		l-0.731-1.078l-1.228-0.424l-0.934,0.511l-2.294,2.364l-1.137,0.716l-3.33,0.271l-3.259-0.215l-2.294-0.876l-2.02-1.651
		l-1.807-2.392l-2.873-5.263l-0.792-0.077l-0.802,0.804l-1.249,0.47l-2.122-0.24l-4.355-1.312l-2.02-1.072l-1.695-1.563
		l-3.035-4.004l-0.207-0.175l-3.478-2.943l-0.995-1.523l-1.685-3.799l-1.188-1.778l-5.796-6.09l-4.101-6.192l-1.634-1.194
		l-13.481-6.104l-2.568-2.209l-1.604-3.567l-0.071-3.89l1.98-3.139h2.172l1.178-2.297l0.924-3.033l1.36-2.239l1.076-0.315
		l2.507,0.41l1.147-0.049l1.157-0.659l2.274-1.812l1.056-0.315l1.655,0.985l1.675,2.169l1.391,2.592l0.812,2.28l0.771,1.204
		l0.842-1.152l1.228-2.966l1.188-0.098l3.715,1.495l0.771-0.49l0.213-0.564l-0.274-0.62l-0.711-0.669l-0.477-1.433l-0.122-1.882
		l0.183-1.956l0.416-1.62l2.518-2.479l-0.163-3.592l-2.355-7.551l-1.969-4.475l-10.04-10.897l-5.258-8.52l-2.995-3.89l-3.38-2.605
		l-1.147-0.726l1.117-1.1l0.213-0.966l-0.467-1.714l-0.01-0.973l0.538-1.298l0.843-0.748l2.03-0.671l1.431-0.085l1.299,0.48
		l2.487,1.764l2.538,2.384l1.269,0.797l1.421-0.078l1.462-0.437l5.218-0.374l5.593,0.564l2.406-0.212l2.325-0.846l4.04-3.027
		l1.675-1.87l0.832-2.245l-0.731-2.57l-1.228-1.102l-0.883,0.311l-0.599,0.819l-0.355,0.381l-0.914-0.734l-1.604-1.964l-3.198-1.879
		l-0.575-0.845l-1.77-2.604l-1.523-1.428l-0.619-0.87l-0.213-2.447l-0.832-1.082l-0.589,0.014l-1.107,1.132l-0.579,0.17l-0.69-0.396
		l-1.046-1.054l-4.294-3.191l-1.848-1.932l-0.619-1.756l-0.203-2.783l-1.218-2.947l-1.695-2.487l-1.665-1.403l-1.127-0.22
		l-3.167,0.773l-1.391-0.078l-0.863-0.269l-2.03-1.035l-4.213-0.922l-1.979-0.908l-1.777-2.163l-2.183-4.718l-0.761-2.74
		l-0.173-2.62l0.843-2.87l1.36-1.727l1.157-2.018l0.193-3.768l-1.574-6.104l0.254-2.171l3.472-1.153l0.771-0.655l0.639-0.94
		l0.558-1.097l0.193-0.976l-0.102-2.208l0.203-0.926l0.487-0.627l1.066-0.627l0.447-0.449l4.619-7.901l1.411-4.139l0.741-1.278
		l1.045-1.128l1.98-1.671l0.944-1.428l1.015-2.557l3.472-16.701l0.406-0.644l0.518-0.136l0.345-0.38l-0.091-1.404l-0.284-1.153
		l-0.406-0.788l-0.579-0.552l-0.569-0.661l-0.375-0.435l-0.02,0.129l-0.264,0.15l-0.995,0.107l-0.975-0.344l-1.969-1.892h-0.873
		l-0.812,0.409l-0.904,0.143l-4.355-0.939l-0.975,0.194l-1.736,0.745h-0.985l-0.487-0.667l-0.365-1.161l-0.619-0.831l-1.239,0.294
		l-8.811,6.442l-1.584,0.573l-2.03,0.294l-3.137,0.981l-2.111-4.047l-0.284-2.788l2.649-1.491l1.33,0.423l1.98,2.172l1.431,0.179
		l1.177-0.717l0.904-1.175l1.543-2.624l0.934-0.581l1.127-0.488l0.701-1.004l-0.396-2.116l-0.893-0.99l-2.01,0.768l-1.066-0.983
		l-0.203-1.414l0.325-1.694l0.467-1.673l0.213-1.307l-0.112-1.458l-0.812-4.102l-0.366-3.342l-0.304-1.344l-0.751-1.733
		l-0.731-0.906l-0.975-0.978l-0.782-1.079l-0.132-1.238l1.492-1.338l5.502,0.554l2.122-0.439l0.396-2.246l-1.269-2.635l-0.68-2.052
		l2.162-0.519l1.167,0.634l1.848,2.672l1.056,1.08l1.888,0.72l2.101,0.13l4.111-0.54l0.487-0.353l0.294-0.626l0.365-0.612
		l0.711-0.317l0.457,0.252l0.792,1.217l0.477,0.338l8.487-0.389l0.319-0.319l1.122-1.121l0.244-3.27l-1.035-2.81l-1.888-0.879
		l-1.472-2.602l-19.744-5.135l-3.665-1.825l-2.548-3.038l-0.254-1.292l-0.081-1.588l-0.335-1.329l-0.975-0.563h-4.05l-1.949-0.448
		l-1.705-1.242l-1.462-1.835l-1.259-2.197l5.177-2.407l0.863-1.417l-0.568-1.642l-1.903-2.022l-0.909-0.966l-0.65-2.584l1.299-3.482
		l0.816,0.121l5.823,0.864l2.853-2.802l-1.096-2.021l-1.259-0.717l-1.421-0.312l-1.655-0.775l-0.985-0.855l-0.436-0.623
		l-0.305-0.725l-0.609-1.116l-0.893-0.674l-0.873,0.268l-0.843,0.602l-1.716,0.906l-0.985,1.189l-1.269,1l-1.817,0.029l-0.954-0.928
		l-1.959-3.182l-0.832-0.682l0.335-1.204l0.122-2.633l0.406-2.641l1.188-1.19l1.076-0.798l2.7-3.754l0.548-1.213l-0.568-2.012
		l-1.431-1.264l-1.675-0.966l-1.35-1.076l-0.822-1.81l-0.406-4.269l-0.457-2.132l-2.852-3.53l-0.701-1.208l-1.502-1.551
		l-0.365-0.867l0.173-0.604l0.355-0.597l0.203-0.823l0.284-3.847l3.127-0.299l1.238-0.27l0.711-0.926l-0.294-1.093l-1.035-1.152
		l-2.02-1.604l0.893-1.043l0.772-0.744l1.685-1.102l-0.558-2.189l6.03,0.46l1.878,0.861l0.558-0.277l0.122-0.452l-0.223-0.598
		l-0.751-1.204l-0.112-0.525l0.102-0.518l0.305-0.511l2.335-1.665l2.487,0.358l1.736-0.482l0.112-4.193l1.543-2.674l2.264-0.965
		l2.213,0.833l1.452,2.784v0.022l2.182,1.278l8.608,0.898l2.731-0.526l1.117-1.439l0.457-1.724l0.731-1.747l1.12-0.844l0.85-0.64
		l1.787-0.402l3.634-0.022l1.645-0.57l1.005-1.111l0.731-1.419l0.802-1.229l1.228-0.578l1.086-0.168l0.843-0.351l1.655-1.354
		l0.701-0.981l0.497-1.061l0.69-0.952l2.589-1.406l-0.254-1.171l-0.731-1.296l-0.173-1.165l1.421-1.611l2.284-1.531l2.426-1.099
		l1.817-0.322l2.091,0.066L275.56,30l2.111,0.11l2.04,0.667l2.141,1.374l6.001,3.85l1.716,0.351l8.172-3.391l1.503-0.624
		l3.949-0.872l6.284,0.586l4.111,2.33l2.792-0.33l2.477-1.253l0.964-0.117l1.604,0.388l0.528,0.425l1.005,1.399l0.751,0.41
		l0.721-0.088l2.467-1.194l1.766,0.725L334.001,39.325z"/>
</g>
<g id="Copyright">
	<text transform="matrix(1 0 0 1 681.6426 577.5916)" class="st1 st2">© Vemaps.com</text>
</g>
</svg>
