<?xml version="1.0" encoding="utf-8"?>
<!-- Generator: Adobe Illustrator 23.0.1, SVG Export Plug-In . SVG Version: 6.00 Build 0)  -->
<svg version="1.1" xmlns="http://www.w3.org/2000/svg" xmlns:xlink="http://www.w3.org/1999/xlink" x="0px" y="0px"
	 viewBox="0 0 800 600" style="enable-background:new 0 0 800 600;" xml:space="preserve">
<style type="text/css">
	.st0{fill:#808080;}
	.st1{font-family:'Roboto-Regular';}
	.st2{font-size:14px;}
</style>
<g id="Uruguay">
	<path class="st0" d="M623.559,430.668l-1.61,1.112l-1.72,1.553l-3.371,4.166l-2.065,3.711l-1.169,3.904l-1.86,9.332l-1.784,5.631
		l-0.494,5.149l-0.888,1.613l-3.265,2.283l-1.564,1.439l-4.548,5.879l-5.004,3.845l-1.625,1.928l-3.326,6.612l-0.869,1.158
		l-0.216,1.222l-2.016,6.499l1.515,4.12l-0.114,2.024l-3.816,1.196l-8.633,4.86l-6.898,4.9l-14.218,13.958l-1.135,1.532
		l-0.387,1.938l0.042,1.745l-0.505,1.265l-8.482,1.92l-2.134,0.166l0.38-0.96l0.569-0.739l1.602-1.459l-0.653-0.572l-0.592-0.701
		l-0.448-0.858l-0.22-0.969l0.152-1.412l0.945-2.758l0.232-0.48l-1.371-1.383l-2.525-1.088l-2.669-0.655l-1.834-0.046l1.048,0.775
		l3.474,1.549l-0.748,1.42l-1.519,1.559l-1.743,1.227l-1.435,0.517l-0.573,0.757l-0.015,1.541l0.691,1.191l1.515-0.249l-0.133-0.886
		l1.39,0.305l1.724,1.458l0.847,2.502l-0.74,1.441l-1.716,1.441L516.1,551.06l-1.052,0.555l-5.794,1.665l-3.014,2.544l-1.906,0.888
		l-3.971,1.231l-16.166,7.823l-1.959,0.343l-1.868,0.685l-2.388,2.807L476.183,570l0.433-1.149l0.201-0.723l0.004-0.463l-0.976-1.51
		l-1.26-1.269l-1.663-0.852l-3.686-0.482l-0.224-0.444l0.087-0.722l-0.615-1.009l-0.945-0.713l-0.85-0.407l-2.031-0.435
		l-4.446,0.222l-8.58,2.027l-3.592-0.694l-2.449-2.434l-4.833-6.532l-3.607-1.97l-2.331-0.166l-6.184-0.52l-3.866,0.416
		l-4.809-1.276l-3.79-1.752l-4.193,0.987l-4.359-1.858l-5.883,2.036l-3.317-0.969l-6.227,2.15l-2.828,1.183l-6.096,4.083
		l-4.63,3.377l-6.119,3.628l-3.318-0.294l-2.84,1.64l-1.33,0.855l-0.578,2.372l-1.978-2.83l-1.607-0.32l-1.725-0.662l0.778-1.024
		l0.112-1.273l-1.039-0.9l-1.489-0.209l-0.556,1.721l-1.85,1.513l-0.885,0.01l-2.067-0.316l-2.173,0.306l-2.939-2.527l-5.615-3.322
		l-1.447-1.332l-0.216-1.684l1.588-1.383l1.577-1.611l2.385-0.595l-1.384-1.58l-1.831-0.778l-4.917-2l-3.42-0.536l-3.299,0.144
		l-2.002,1.386l-1.503-0.222l-1.454-0.693l-3.485-2.218l-1.64-0.776l-1.664-1.13l-6.268-1.771l-7.627-0.97l-7.334-3.213
		l-1.568-1.145l-1.257-2.787l-1.454-1.393l-3.091-2.242l-2.212-2.539l-1.944-1.924l-1.714-1.357l-2.513-1.582l-1.372-1.246
		l0.143-1.55l-0.608-0.783l-1.363-0.949l-0.573-0.516l-1.754-2.008l-1.686-1.455l-2.98-1.364l-4.78-1.002l-8.3-0.197l-5.111,0.354
		l-1.704-1.473l-4.313,0.12l-2.384,1.479l-1.134-1.475l-2.382-0.226l-2.61,1.249l-3.292,1.474l-2.945-3.067l-2.381-0.117
		l-2.723,0.563l-3.746,1.695l-5.223,2.03l-1.701-0.233l-2.387,1.469l-2.723-0.237l-2.725,0.33l-3.065-0.469l0.912-0.904l-0.79-1.708
		l-2.61-0.81l-1.695-2.737l0.242-4.544l-2.348-2.56l-1.864-3.099l-6.921-8.262l-3.068-1.479l-1.082-1.727l-1.454-3.691l-1.644-1.597
		l-2.312-0.973l-2.475-0.459l-2.164-0.129l-2.529-0.514l-1.169-1.331l-1.082-4.238l-1.074-2.393l-7.901-11.518l-1.708-1.483
		l-3.508-2.133l-1.53-1.382l-1.295-2.169l-0.683-2.306l-2.297-13.183l-0.44-9.697l1.268-9.597l-0.304-2.334l-0.562-2.206
		l-0.308-2.342l0.478-2.651l1.272-2.186l3.193-4.243l0.634-2.421l-0.589-2.184l-2.585-2.183l-0.592-2.201l0.592-2.037l1.435-1.791
		l3.36-3.336l0.976-2.235l0.141-2.562l-1.568-9.678l-0.083-4.717l1.45-3.573l3.834-1.432l8.671,0.526l4.005-0.345l3.421-1.704
		l3.508-3.289l1.534-2.011l0.63-1.875l0.156-2.581l0.433-2.001l1.386-4.19l0.683-4.46l-0.805-3.328l-1.876-2.658l-4.036-4.284
		l-0.96-1.843l-0.501-2.032l-0.152-2.321l0.178-5.001l-0.171-2.527l-0.699-1.931l0.691-0.83l-0.79-2.85l-1.025-7.734l-1.109-1.586
		l-0.748-1.748l-1.895-8.32l-0.252-2.501l0.037-0.267l0.911-1.2l2.334-4.912l5.911-8.63l0.473-3.354l-0.969-3.216l-6.374-8.571
		L175,254.121l0.53-2.255l2.059-3.404l0.979-4.257l0.28-4.954l-0.347-4.696l-0.911-3.444l-2.941-3.363l-1.148-2.215l0.617-2.26
		l2.555-2.918l1.471-1.101l2.054-0.897l4.422-0.885l2.257-0.908l0.969-1.577l5.622-16.926l0.844-4.824l-0.675-4.89l-2.473-3.123
		l-2.393-1.859l-1.102-0.856l-2.281-2.805l1.181-3.38l1.774-1.492l3.51-2.147l1.466-1.277l0.906-2.056l0.463-4.958l0.858-2.246
		l0.641-0.722l1.538-1.219l0.689-0.711l1.938-4.129l0.907-1.252l0.01-2.831l-0.627-4.847l1.186-4.811l2.358-3.638l1.726-3.715
		l-0.752-5.087l-3.934-5.815l-0.583-1.248l0.723-1.923l1.741-1.18l3.968-1.045l2.16,0.258l1.157-0.438l0.501-1.641l0.535-2.618
		l0.106-1.135l-0.096-4.537l-0.314-2.688l-0.23-1.971l-0.634-2.821l-0.861-3.832l-0.776-2.423l-2.083-4.529l-1.379-2.096
		l-2.097-4.202l-0.371-4.234l1.181-3.896l2.565-3.201l18.37-16.895l2.02-3.463l0.685-4.21l-1.326-4.643l-0.419-2.377l0.791-1.026
		l2.078-0.067l2.319,2.276l1.808,5.648l2.936,1.954l2.334,0.246l4.084-0.737l2.247-0.045l1.244,0.648l1.398,2.189l1.451,0.369
		l0.921-0.458l2.126-1.91l1.191-0.569l1.823,0.078l1.172,0.771l1.003,0.916l1.355,0.547l0.733-0.279l1.157-1.407l0.545-0.279
		l0.738,0.38l1.157,1.273l0.468,0.313l3.028-0.648l2.695-2.144l1.856-3.048l0.511-3.393l0.699-2.756l1.987-3.491l2.546-3.111
		l2.348-1.628l0.921,0.078l1.745,0.836l0.993,0.011l1.827-0.959l0.656-0.245l3.423-0.646L289.953,30l4.494,1.26l3.467-0.602
		l3.539-0.1l3.37,2.352l1.731,2.922l0.897,1.126l5.805,3.994l2.895,1.395l1.579,1.083l1.403,1.362l0.858,1.462l0.309,2.188
		l-0.294,1.128l0.101,0.704l1.488,0.938l0.952,0.246l0.894-0.022l0.914,0.123l1.008,0.637l0.504,0.603l0.824,1.352l3.455,3.978
		l1.162,0.939l1.562,1.442l4.971,3.186l1.553,1.599l2.257,3.825l1.35,1.824l1.249,1.097l4.298,2.429l5.465,4.635l3.067,1.545
		l1.866,1.792l2.946,3.54l0.53,1.188l0.248,1.143l0.407,1.054l1.042,0.885l1.803,1.177l0.805,0.774l0.62,0.908l3.093,6.057
		l1.403,1.762l6.111,4.983l1.497,2.998l0.593,3.257l-0.458,3.224l-1.632,2.956l-0.388,2.361l-0.077,7.13l-0.564,4.974l0.019,2.353
		l0.482,0.779l0.528,0.854l0.138-0.02l2.306-0.34l6.14,0.394l2.908-0.597l2.232-0.023l0.902-0.236l0.747-0.574l0.415-0.586
		l0.35-0.63l0.552-0.698l5.07-3.41l1.357-1.305l0.755-1.688l0.991-3.734l1.213-1.439l1.786-0.214l2.281,0.472l2.097,0.169
		l1.22-1.124l0.157-2.068l-0.328-4.484l0.458-1.932l1.458-1.449l1.972-0.461l1.962,0.539l2.613,3.056l3.395,1.966l1.509,1.259
		l2.073,2.563l4.34,3.902l6.905,7.819l1.374,2.06l0.506,1.79l0.323,3.896l0.646,1.87l1.037,1.014l3.1,2.039l1.07,1.679l1.258,4.532
		l0.817,1.973l1.459,1.737l1.567,0.97l3.664,1.421l1.741,1.083l4.422,4.051l1.847,1.174l1.418,0.271l1.213-0.677l1.227-1.716
		l1.75-3.521l1.21-0.417l1.668,2.076l1.507,2.618l2.399,3.172l2.69,2.71l3.78,1.796l1.164,1.22l1.087,1.435l1.193,1.232l1.256,0.814
		l2.811,1.119l15.456,2.238l3.214-0.011l1.413,0.452l1.215,1.232l1.649,3.438l1.07,1.47l4.918,3.983l1.365,1.46l1.109,2.003
		l0.391,1.925l0.149,4.451l0.947,2.427l0.326,0.836l2.541,2.459l3.062,2.233l2.816,2.664l2.85,3.334l6.413,5.934l5.174,3.655
		l4.59,4.315l2.174,1.533l1.046-0.102l0.892-1.147l1.697-1.601l1.76-0.636l1.832,0.193l1.779,0.795l1.596,1.204l0.559,0.738
		l0.834,1.624l0.839,0.761l0.916,0.352l3.071,0.307l1.606,0.489l1.345,0.614l2.661,1.841l1.09,1.194l0.41,1.125l0.232,1.114
		l0.545,1.183l0.964,1.126l1.215,1.069l2.58,1.678l5.468,1.172l1.355,0.876l0.554,1.513l0.125,3.881l2.666,6.434l4.745,7.054
		l1.123,3.078l0.627,3.752l0.294,5.557l0.448,1.872l0.849,1.45l2.377,2.112l0.969,1.336l1.582,2.856l1.929,2.628l2.208,2.286
		l5.878,4.207l5.506,6.188l5.275,1.785l4.016,2.484l1.581,0.492l3.004,0.023l3.096,1.912l3.009,1.397l1.432,1.053l6.191,6.725
		l0.834,1.662l-0.299,2.018l-1.196,1.582l-3.38,2.649l-1.843,2.351l-1.961,2.502l-6.249,4.591l-2.613,2.813l-0.762,2.01
		l-0.241,4.136l-0.627,2.034l-1.027,1.218l-11.365,7.613l-3.192,2.807l-2.633,3.556l-0.005,0.012l-0.005,0.012l-0.842,2.846
		l-1.511,5.111l0.068,8.229l2.064,16.78l-2.126,18.452l-0.265,10.015l2.623,4.6h1.909l1.668-0.325l1.538,0.012l1.519,1.078
		l0.897,1.832l0.67,1.971l1.152,1.264L623.559,430.668z"/>
</g>
<g id="Copyright">
	<text transform="matrix(1 0 0 1 681.6426 577.5916)" class="st1 st2">© Vemaps.com</text>
</g>
</svg>
